<svg width="70" height="70" viewBox="0 0 70 70" fill="none" xmlns="http://www.w3.org/2000/svg">
<rect width="70" height="70" rx="35" fill="#F4F4F4"/>
<path d="M51.1703 31.9055C50.8634 31.905 50.5674 31.7916 50.3387 31.5869C50.1101 31.3822 49.9647 31.1005 49.9303 30.7955C49.636 28.0779 48.4207 25.5429 46.4864 23.6115C44.552 21.6802 42.015 20.4689 39.297 20.1788C38.9677 20.1416 38.6667 19.9751 38.4602 19.7161C38.2536 19.457 38.1583 19.1265 38.1953 18.7972C38.2116 18.6334 38.2605 18.4745 38.3391 18.3299C38.4177 18.1852 38.5245 18.0578 38.653 17.955C38.7816 17.8522 38.9294 17.7761 39.0878 17.7313C39.2462 17.6864 39.4119 17.6737 39.5753 17.6938C42.8579 18.044 45.9216 19.5072 48.2573 21.8401C50.5929 24.173 52.0597 27.2351 52.4137 30.5172C52.4336 30.6922 52.4164 30.8694 52.363 31.0373C52.3096 31.2052 52.2213 31.3598 52.1038 31.4911C51.9864 31.6224 51.8425 31.7273 51.6816 31.7991C51.5207 31.8708 51.3465 31.9076 51.1703 31.9072V31.9055Z" fill="#CC922F"/>
<path d="M45.2704 31.9243C44.9808 31.9239 44.7004 31.823 44.477 31.6387C44.2535 31.4545 44.101 31.1985 44.0454 30.9143C43.816 29.7139 43.2314 28.61 42.3672 27.7459C41.503 26.8817 40.3992 26.297 39.1987 26.0676C39.0343 26.0399 38.877 25.9796 38.7362 25.8902C38.5954 25.8008 38.4739 25.6841 38.3789 25.547C38.2839 25.4099 38.2172 25.2552 38.183 25.092C38.1487 24.9287 38.1474 24.7603 38.1792 24.5966C38.211 24.4328 38.2753 24.2771 38.3682 24.1386C38.4611 24.0001 38.5808 23.8816 38.7202 23.79C38.8597 23.6985 39.016 23.6358 39.1801 23.6056C39.3441 23.5754 39.5125 23.5784 39.6754 23.6143C41.3649 23.9371 42.9186 24.7597 44.1352 25.9757C45.3517 27.1917 46.1751 28.7449 46.4987 30.4343C46.5342 30.6155 46.5291 30.8023 46.4837 30.9813C46.4384 31.1602 46.354 31.3269 46.2365 31.4694C46.1191 31.6119 45.9715 31.7266 45.8045 31.8052C45.6374 31.8839 45.455 31.9245 45.2704 31.9243Z" fill="#CC922F"/>
<path fill-rule="evenodd" clip-rule="evenodd" d="M27.4649 42.4003C35.3199 50.2569 40.5499 52.3169 43.8532 52.3169C45.4832 52.3169 46.6465 51.8169 47.4215 51.2586C47.4565 51.2386 51.0432 49.0453 51.6716 45.7253C51.9682 44.1669 51.5349 42.6253 50.4216 41.2653C45.8349 35.6986 43.4982 36.2169 40.9182 37.4719C39.3349 38.2486 38.0816 38.8519 34.5466 35.3219C31.0132 31.7836 31.6232 30.5336 32.3949 28.9503C33.6516 26.3703 34.1682 24.0336 28.5982 19.4419C27.2415 18.3336 25.7116 17.9003 24.1532 18.1919C20.8816 18.8036 18.6782 22.3336 18.6782 22.3336C16.9249 24.7936 15.7349 30.6719 27.4649 42.4003ZM24.6649 20.6386C24.8099 20.6153 24.9549 20.6019 25.0982 20.6019C25.7515 20.6019 26.3816 20.8569 27.0099 21.3736C31.5016 25.0736 30.9332 26.2403 30.1466 27.8569C28.9649 30.2836 28.3465 32.6536 32.7799 37.0903C37.2149 41.5236 39.5866 40.9069 42.0132 39.7203L42.0166 39.7186C43.6282 38.9353 44.7949 38.3686 48.4899 42.8536C49.1232 43.6236 49.3632 44.3936 49.2265 45.2053C48.9115 47.0719 46.7432 48.7436 46.0849 49.1503C43.7349 50.8269 38.0716 49.4719 29.2316 40.6336C20.3949 31.7953 19.0382 26.1336 20.7749 23.6919C21.1216 23.1269 22.8016 20.9536 24.6649 20.6386Z" fill="#0D257B"/>
</svg>
