<svg width="70" height="70" viewBox="0 0 70 70" fill="none" xmlns="http://www.w3.org/2000/svg">
<rect width="70" height="70" rx="35" fill="#F4F4F4"/>
<path fill-rule="evenodd" clip-rule="evenodd" d="M26.5 24L37.1679 23.8816C40.0195 23.8816 42.1862 24.5867 43.8345 26.2333C45.4812 27.8833 46 30.0467 46 32.9V39.5C47.2483 39.1933 48.5479 38.4833 49.1795 37.7417C50.0429 36.7267 50.5662 35.175 50.5662 32.9V26.2333C50.5662 23.7683 49.9495 22.1467 48.9345 21.1333C47.9195 20.12 46.2979 19.5 43.8345 19.5H33.1679C30.9012 19.5 29.3479 20.0217 28.3295 20.8883C27.5862 21.5217 26.8067 22.755 26.5 24ZM26.7112 18.9833C28.3345 17.6033 30.5479 17 33.1662 17H43.8329C46.6845 17 49.0545 17.7167 50.7029 19.3633C52.3495 21.0133 53.0662 23.38 53.0662 26.2333V32.9C53.0662 35.5267 52.4645 37.74 51.0829 39.3633C49.6879 41.0017 47.6562 41.8517 45.1895 42.0633C45.0039 42.0792 44.817 42.0534 44.6426 41.9877C44.4683 41.9221 44.3108 41.8183 44.1817 41.6839C44.0526 41.5495 43.9552 41.388 43.8965 41.2111C43.8379 41.0343 43.8196 40.8465 43.8429 40.6617C43.8845 40.3317 43.8995 39.97 43.8995 39.5667V32.9C43.8995 30.435 43.2829 28.8133 42.2679 27.8C41.2529 26.7867 39.6312 26.1667 37.1679 26.1667H26.5012C26.0962 26.1667 25.7345 26.1833 25.4045 26.2233C25.2198 26.2463 25.0322 26.2278 24.8556 26.1691C24.6789 26.1103 24.5176 26.0129 24.3834 25.8838C24.2493 25.7547 24.1456 25.5973 24.0801 25.4231C24.0145 25.2488 23.9887 25.0622 24.0045 24.8767C24.2145 22.4083 25.0712 20.3767 26.7112 18.9833Z" fill="#CC922F"/>
<path fill-rule="evenodd" clip-rule="evenodd" d="M35.8229 37.0837C35.8229 36.6416 35.9985 36.2177 36.3111 35.9051C36.6236 35.5926 37.0476 35.417 37.4896 35.417H37.5063C37.9483 35.417 38.3722 35.5926 38.6848 35.9051C38.9973 36.2177 39.1729 36.6416 39.1729 37.0837C39.1729 37.5257 38.9973 37.9496 38.6848 38.2622C38.3722 38.5747 37.9483 38.7503 37.5063 38.7503H37.4896C37.0476 38.7503 36.6236 38.5747 36.3111 38.2622C35.9985 37.9496 35.8229 37.5257 35.8229 37.0837ZM29.9896 37.0837C29.9896 36.6416 30.1652 36.2177 30.4777 35.9051C30.7903 35.5926 31.2142 35.417 31.6563 35.417H31.6729C32.1149 35.417 32.5389 35.5926 32.8514 35.9051C33.164 36.2177 33.3396 36.6416 33.3396 37.0837C33.3396 37.5257 33.164 37.9496 32.8514 38.2622C32.5389 38.5747 32.1149 38.7503 31.6729 38.7503H31.6563C31.2142 38.7503 30.7903 38.5747 30.4777 38.2622C30.1652 37.9496 29.9896 37.5257 29.9896 37.0837ZM24.1562 37.0837C24.1562 36.6416 24.3318 36.2177 24.6444 35.9051C24.957 35.5926 25.3809 35.417 25.8229 35.417H25.8396C26.2816 35.417 26.7055 35.5926 27.0181 35.9051C27.3307 36.2177 27.5063 36.6416 27.5063 37.0837C27.5063 37.5257 27.3307 37.9496 27.0181 38.2622C26.7055 38.5747 26.2816 38.7503 25.8396 38.7503H25.8229C25.3809 38.7503 24.957 38.5747 24.6444 38.2622C24.3318 37.9496 24.1562 37.5257 24.1562 37.0837Z" fill="#CC922F"/>
<path fill-rule="evenodd" clip-rule="evenodd" d="M26.3115 26.251C25.9294 26.2469 25.5475 26.2675 25.1681 26.3126C23.1531 26.486 21.8181 27.146 20.9665 28.1476C20.0998 29.166 19.5781 30.7193 19.5781 32.9843V39.651C19.5781 42.876 20.2348 44.4026 21.1481 45.201C22.1048 46.0343 23.6731 46.3843 26.3115 46.3843H26.9781C27.4165 46.3843 27.8248 46.5243 28.1315 46.6793C28.4398 46.8343 28.7831 47.076 29.0381 47.4076L29.0448 47.4176L31.0465 50.086C31.2898 50.4126 31.5198 50.4726 31.6448 50.4726C31.7698 50.4726 31.9998 50.4126 32.2431 50.086L32.2448 50.0843L34.2448 47.4176C34.7315 46.7693 35.5015 46.3843 36.3115 46.3843H36.9781C39.2448 46.3843 40.7981 45.866 41.8148 45.001C42.8148 44.1526 43.4765 42.8176 43.6481 40.7943L43.6548 40.746C43.6965 40.416 43.7115 40.0543 43.7115 39.651V32.9843C43.7115 30.5193 43.0948 28.8976 42.0781 27.8843C41.0615 26.871 39.4431 26.251 36.9781 26.251H26.3115ZM24.9315 23.8243C25.3931 23.7676 25.8565 23.751 26.3115 23.751H36.9781C39.8298 23.751 42.1998 24.4676 43.8481 26.1143C45.4948 27.7643 46.2115 30.131 46.2115 32.9843V39.651C46.2115 40.106 46.1948 40.5693 46.1381 41.031C45.9231 43.4976 45.0681 45.5193 43.4331 46.9076C41.8081 48.2876 39.5948 48.8843 36.9781 48.8843H36.3115C36.2986 48.8848 36.2861 48.8882 36.2748 48.8943C36.2632 48.8998 36.2529 48.9077 36.2448 48.9176L34.2465 51.5826C33.6065 52.4393 32.6765 52.9726 31.6448 52.9726C30.6115 52.9726 29.6831 52.4393 29.0448 51.5826L27.0698 48.9493C27.0308 48.9209 26.9874 48.899 26.9415 48.8843H26.3115C23.6331 48.8843 21.2115 48.5743 19.5031 47.0843C17.7548 45.5576 17.0781 43.0926 17.0781 39.651V32.9843C17.0781 30.366 17.6815 28.1526 19.0615 26.5293C20.4515 24.8943 22.4731 24.0393 24.9315 23.8243Z" fill="#0D257B"/>
</svg>
