<svg width="70" height="70" viewBox="0 0 70 70" fill="none" xmlns="http://www.w3.org/2000/svg">
<path d="M0 35C0 15.67 15.67 0 35 0C54.33 0 70 15.67 70 35C70 54.33 54.33 70 35 70C15.67 70 0 54.33 0 35Z" fill="#F4F4F4"/>
<path d="M27.7781 29.0826L27.7782 29.0825C27.7064 29.0102 27.6501 28.924 27.6127 28.8292C27.5754 28.7347 27.5577 28.6335 27.5607 28.5319L27.5607 28.5324L27.7781 29.0826ZM27.7781 29.0826L27.785 29.0891M27.7781 29.0826L27.785 29.0891M27.785 29.0891C27.9301 29.2275 28.1235 29.3038 28.324 29.3018L28.324 29.3019M27.785 29.0891L28.324 29.3019M28.324 29.3019L28.33 29.3017M28.324 29.3019L28.33 29.3017M28.33 29.3017L33.1415 29.1718L36.2337 32.2639C36.234 32.2642 36.2342 32.2645 36.2345 32.2648C36.5497 32.5832 36.9247 32.8361 37.3381 33.009C37.7518 33.1819 38.1957 33.2713 38.6441 33.2718L38.6458 33.2718C38.9459 33.2708 39.2447 33.2305 39.5344 33.1521C40.1162 33.0008 40.6473 32.6977 41.0736 32.2739C41.5001 31.8497 41.8062 31.3199 41.9606 30.7385C41.9607 30.7382 41.9607 30.7379 41.9608 30.7376L46.2863 14.7754L46.2864 14.7753M28.33 29.3017L46.2864 14.7753M46.2864 14.7753C46.4439 14.1936 46.4452 13.5807 46.2902 12.9983C46.1351 12.416 45.8292 11.8848 45.4033 11.4584C44.9774 11.0321 44.4466 10.7256 43.8644 10.57C43.2822 10.4143 42.6692 10.415 42.0874 10.5719L42.087 10.572M46.2864 14.7753L42.087 10.572M42.087 10.572L26.123 14.898L26.1226 14.8981M42.087 10.572L26.1226 14.8981M26.1226 14.8981C25.5434 15.0558 25.0158 15.3629 24.5926 15.7885C24.1693 16.2141 23.8653 16.7434 23.7108 17.3234C23.5563 17.9035 23.5568 18.5139 23.7123 19.0936C23.8678 19.6734 24.1728 20.2022 24.5968 20.627L24.5971 20.6274M26.1226 14.8981L24.5971 20.6274M24.5971 20.6274L27.6906 23.7189M24.5971 20.6274L27.6906 23.7189M25.158 17.7109L25.1579 17.7109C25.0683 18.0359 25.0666 18.3789 25.1529 18.7048C25.2393 19.0307 25.4106 19.3277 25.6493 19.5657L25.158 17.7109ZM25.158 17.7109L25.1591 17.7065C25.2445 17.3806 25.4145 17.0831 25.652 16.8441L25.4037 16.5974L25.652 16.8441C25.8895 16.6051 26.1859 16.4332 26.5113 16.3458L26.512 16.3456L42.48 12.0196L42.4812 12.0193C42.7519 11.945 43.0358 11.9316 43.3123 11.98C43.4481 12.0038 43.5804 12.0422 43.707 12.0943L32.265 23.5363C32.1954 23.606 32.1401 23.6887 32.1024 23.7797C32.0647 23.8708 32.0453 23.9683 32.0453 24.0668C32.0453 24.1653 32.0647 24.2629 32.1024 24.3539C32.1401 24.4449 32.1954 24.5276 32.265 24.5973C32.3347 24.667 32.4174 24.7222 32.5084 24.7599C32.5994 24.7976 32.697 24.817 32.7955 24.817C32.8941 24.817 32.9916 24.7976 33.0826 24.7599C33.1736 24.7222 33.2563 24.667 33.326 24.5973L44.7681 13.1552C44.8203 13.2819 44.8587 13.4142 44.8825 13.55C44.931 13.8265 44.9175 14.1103 44.8431 14.381L44.8427 14.3823L40.5169 30.3455C40.5169 30.3456 40.5169 30.3456 40.5169 30.3457C40.428 30.6705 40.2556 30.9663 40.0168 31.2037C39.778 31.4411 39.481 31.6117 39.1556 31.6985C38.8303 31.7854 38.4878 31.7853 38.1624 31.6985C37.8371 31.6117 37.5403 31.4411 37.3015 31.2038C37.3014 31.2037 37.3013 31.2037 37.3013 31.2036L33.9738 27.8821L33.973 27.8813C33.8324 27.7419 33.6423 27.6637 33.4442 27.6638V27.6637L33.435 27.664L29.0904 27.7819L25.158 17.7109ZM27.6906 23.7189L27.5607 28.5312L27.6906 23.7189ZM28.9872 22.8855L25.6496 19.5659L28.8299 23.2686C28.8096 23.2181 28.7792 23.1722 28.7405 23.1338L28.9873 22.8857L28.9872 22.8855Z" fill="#CC922F" stroke="#CC922F" stroke-width="0.7"/>
<path d="M51.8711 25.8281C51.5713 25.676 51.238 25.5957 50.8981 25.5963L50.8974 25.5963L45.7974 25.5963C45.5985 25.5963 45.4078 25.5173 45.2671 25.3766L45.5135 25.1302L45.2671 25.3766C45.1265 25.236 45.0474 25.0452 45.0474 24.8463C45.0474 24.6474 45.1265 24.4566 45.2671 24.316L45.5146 24.5635L45.2671 24.316C45.4078 24.1753 45.5985 24.0963 45.7974 24.0963H50.8988H50.8994V24.4463C51.3481 24.4448 51.7923 24.5348 52.205 24.7109C52.6177 24.8869 52.9901 25.1454 53.2994 25.4703L51.8711 25.8281ZM51.8711 25.8281L39.295 38.5058L39.2946 38.5062C38.7319 39.0753 38.0619 39.5271 37.3235 39.8354C36.585 40.1437 35.7927 40.3025 34.9924 40.3025C34.1922 40.3025 33.3999 40.1437 32.6614 39.8354C31.9229 39.5271 31.253 39.0753 30.6903 38.5062L30.69 38.5059L18.1182 25.8287C18.4188 25.6765 18.7526 25.5961 19.0932 25.5963H19.0934H25.4934C25.6924 25.5963 25.8831 25.5173 26.0238 25.3766L25.7773 25.1302L26.0238 25.3766C26.1644 25.236 26.2434 25.0452 26.2434 24.8463C26.2434 24.6474 26.1644 24.4566 26.0238 24.316L25.7763 24.5635L26.0238 24.316C25.8831 24.1753 25.6923 24.0963 25.4934 24.0963H19.0934C18.6115 24.0963 18.1343 24.1912 17.689 24.3757C17.2437 24.5601 16.8391 24.8304 16.4984 25.1712C16.1576 25.512 15.8872 25.9166 15.7028 26.3619C15.5184 26.8071 15.4234 27.2844 15.4234 27.7663L15.4234 47.4803L15.4234 47.4807C15.4246 48.4536 15.8116 49.3863 16.4995 50.0742C17.1875 50.7621 18.1201 51.1491 19.093 51.1503H19.0934H50.8934H50.8939C51.8667 51.1491 52.7994 50.7621 53.4874 50.0742C54.1753 49.3863 54.5623 48.4536 54.5634 47.4807V47.4803V27.7678L51.8711 25.8281ZM16.9234 27.7663L16.9234 27.766C16.9232 27.476 16.9817 27.1905 17.0937 26.9261L27.749 37.6669L17.1368 48.414C16.9974 48.1242 16.9237 47.8052 16.9234 47.4802C16.9234 47.4801 16.9234 47.4801 16.9234 47.48L16.9234 27.7663ZM19.0934 49.6503H19.0933C18.7876 49.6504 18.487 49.5854 18.2109 49.4616L28.7984 38.7316L29.6226 39.5604C29.6227 39.5605 29.6227 39.5606 29.6228 39.5606C30.3249 40.2704 31.1608 40.8339 32.0821 41.2185C33.0035 41.6031 33.992 41.8011 34.9904 41.8011C35.9889 41.8011 36.9774 41.6031 37.8988 41.2185C38.8201 40.8339 39.656 40.2704 40.3581 39.5606C40.3582 39.5605 40.3582 39.5605 40.3583 39.5604L41.1808 38.7318L51.7752 49.4629C51.4997 49.5858 51.2001 49.6503 50.8954 49.6503H19.0934ZM53.0714 47.4799C53.0711 47.806 52.9969 48.1259 52.8566 48.4164L42.2439 37.6669L52.9008 26.9245C53.0129 27.1895 53.0715 27.4756 53.0714 27.7663V47.4799Z" fill="#0D257B" stroke="#0D257B" stroke-width="0.7"/>
</svg>
