<svg width="206" height="208" viewBox="0 0 206 208" fill="none" xmlns="http://www.w3.org/2000/svg">
<g opacity="0.1">
<path d="M267.152 -22.313L252.902 11.6987L216.229 16.3641L193.841 -13.0714L208.091 -47.0831L244.764 -51.7485L267.152 -22.313Z" stroke="#0D257B" stroke-width="2"/>
<path d="M199.027 -50.8901L184.777 -16.8784L148.104 -12.213L125.716 -41.6485L139.966 -75.6603L176.639 -80.3257L199.027 -50.8901Z" stroke="#0D257B" stroke-width="2"/>
<path d="M211.988 19.9722L197.738 53.9839L161.065 58.6493L138.677 29.2138L152.927 -4.79795L189.6 -9.46335L211.988 19.9722Z" stroke="#0D257B" stroke-width="2"/>
<path d="M276.488 53.6411L262.238 87.6528L225.565 92.3182L203.177 62.8827L217.427 28.871L254.1 24.2056L276.488 53.6411Z" stroke="#0D257B" stroke-width="2"/>
<path d="M143.863 -8.61182L129.613 25.3999L92.9396 30.0653L70.5524 0.629803L84.8016 -33.3819L121.475 -38.0473L143.863 -8.61182Z" stroke="#0D257B" stroke-width="2"/>
<path d="M215.683 93.5317L201.434 127.543L164.76 132.209L142.373 102.773L156.622 68.7616L193.296 64.0962L215.683 93.5317Z" stroke="#0D257B" stroke-width="2"/>
<path d="M147.55 64.9536L133.301 98.9653L96.6271 103.631L74.2399 74.1952L88.4891 40.1835L125.163 35.5181L147.55 64.9536Z" stroke="#0D257B" stroke-width="2"/>
<path d="M160.519 135.817L146.27 169.829L109.596 174.494L87.2087 145.059L101.458 111.047L138.132 106.382L160.519 135.817Z" stroke="#0D257B" stroke-width="2"/>
<path d="M225.019 169.486L210.77 203.498L174.096 208.163L151.709 178.727L165.958 144.716L202.632 140.05L225.019 169.486Z" stroke="#0D257B" stroke-width="2"/>
<path d="M92.386 107.233L78.1368 141.245L41.4631 145.91L19.0759 116.475L33.3251 82.4628L69.9988 77.7974L92.386 107.233Z" stroke="#0D257B" stroke-width="2"/>
<path d="M81.8235 39.1167L67.5743 73.1284L30.9006 77.7938L8.51337 48.3583L22.7626 14.3466L59.4363 9.68119L81.8235 39.1167Z" stroke="#0D257B" stroke-width="2"/>
</g>
</svg>
