<svg width="40" height="40" viewBox="0 0 40 40" fill="none" xmlns="http://www.w3.org/2000/svg">
<rect x="1" y="1" width="38" height="38" rx="6" fill="#0D257B" fill-opacity="0.03"/>
<g clip-path="url(#clip0_13050_19325)">
<path d="M30.0575 13.23L22.6835 9.71698C21.0603 8.74741 19.04 8.73021 17.4005 9.67198L9.94355 13.23C9.91557 13.244 9.88655 13.259 9.85955 13.275C8.08993 14.2868 7.47558 16.5416 8.48743 18.3113C8.83041 18.9112 9.33493 19.4027 9.94355 19.73L12.0006 20.71V25.61C12.0018 27.8011 13.4275 29.7368 15.5196 30.388C16.9755 30.8092 18.4851 31.0154 20.0006 31C21.5159 31.017 23.0255 30.8125 24.4816 30.393C26.5737 29.7419 27.9994 27.8061 28.0006 25.615V20.708L30.0006 19.752V28C30.0006 28.5522 30.4483 28.9999 31.0006 28.9999C31.5529 28.9999 32.0006 28.5522 32.0006 28V16C32.0072 14.8257 31.0801 13.7409 30.0575 13.23ZM26.0005 25.615C26.0011 26.9256 25.1507 28.0849 23.9005 28.478C22.6328 28.8402 21.319 29.0161 20.0005 29C18.6821 29.0161 17.3683 28.8402 16.1005 28.478C14.8503 28.0848 14 26.9256 14.0005 25.615V21.663L17.3176 23.243C18.136 23.729 19.0707 23.9844 20.0226 23.982C20.9286 23.9884 21.8193 23.7486 22.5996 23.288L26.0005 21.663V25.615ZM29.2006 17.925L21.6586 21.525C20.607 22.1373 19.3035 22.12 18.2686 21.48L10.8895 17.97C10.067 17.5264 9.7598 16.5001 10.2033 15.6776C10.3533 15.3995 10.5782 15.1689 10.8526 15.012L18.3475 11.432C19.3995 10.821 20.7022 10.8383 21.7375 11.477L29.1115 14.99C29.6538 15.2911 29.9931 15.8598 30.0005 16.48C30.0015 17.0675 29.699 17.6139 29.2006 17.925Z" fill="#323232"/>
</g>
<defs>
<clipPath id="clip0_13050_19325">
<rect width="24" height="24" fill="white" transform="translate(8 8)"/>
</clipPath>
</defs>
</svg>
