<svg width="38" height="38" viewBox="0 0 38 38" fill="none" xmlns="http://www.w3.org/2000/svg">
<rect width="38" height="38" rx="6" fill="#0D257B" fill-opacity="0.03"/>
<g clip-path="url(#clip0_14146_9494)">
<path d="M29.0005 7H25.0005C24.7353 7 24.481 7.10536 24.2934 7.29289C24.1059 7.48043 24.0005 7.73478 24.0005 8C24.0005 8.26522 24.1059 8.51957 24.2934 8.70711C24.481 8.89464 24.7353 9 25.0005 9H27.5865L25.1865 11.4C24.092 10.5735 22.7772 10.0897 21.4081 10.0098C20.0389 9.92992 18.6767 10.2574 17.4935 10.951C16.6017 10.4357 15.6071 10.1239 14.5808 10.0378C13.5544 9.95176 12.5217 10.0936 11.5566 10.4532C10.5915 10.8128 9.71774 11.3813 8.99794 12.118C8.27814 12.8546 7.73005 13.7413 7.39289 14.7145C7.05574 15.6877 6.93784 16.7234 7.04764 17.7475C7.15745 18.7716 7.49224 19.7587 8.02805 20.6383C8.56387 21.5179 9.28748 22.2682 10.1471 22.8355C11.0067 23.4029 11.9811 23.7732 13.0005 23.92V26H11.0005C10.7353 26 10.481 26.1054 10.2934 26.2929C10.1059 26.4804 10.0005 26.7348 10.0005 27C10.0005 27.2652 10.1059 27.5196 10.2934 27.7071C10.481 27.8946 10.7353 28 11.0005 28H13.0005V30C13.0005 30.2652 13.1059 30.5196 13.2934 30.7071C13.481 30.8946 13.7353 31 14.0005 31C14.2657 31 14.5201 30.8946 14.7076 30.7071C14.8952 30.5196 15.0005 30.2652 15.0005 30V28H17.0005C17.2657 28 17.5201 27.8946 17.7076 27.7071C17.8952 27.5196 18.0005 27.2652 18.0005 27C18.0005 26.7348 17.8952 26.4804 17.7076 26.2929C17.5201 26.1054 17.2657 26 17.0005 26H15.0005V23.927C15.8796 23.796 16.7253 23.4973 17.4915 23.047C18.8847 23.8619 20.5171 24.1692 22.1113 23.9168C23.7054 23.6643 25.163 22.8677 26.2363 21.6622C27.3095 20.4567 27.9323 18.9168 27.9987 17.3042C28.0651 15.6915 27.571 14.1056 26.6005 12.816L29.0005 10.416V13C29.0005 13.2652 29.1059 13.5196 29.2934 13.7071C29.481 13.8946 29.7353 14 30.0005 14C30.2657 14 30.5201 13.8946 30.7076 13.7071C30.8952 13.5196 31.0005 13.2652 31.0005 13V9C31.0005 8.46957 30.7898 7.96086 30.4147 7.58579C30.0397 7.21071 29.531 7 29.0005 7ZM9.00052 17C8.99578 16.1878 9.19011 15.3869 9.5665 14.6672C9.94289 13.9475 10.4899 13.331 11.1596 12.8717C11.8294 12.4123 12.6015 12.124 13.4084 12.032C14.2154 11.94 15.0326 12.0471 15.7885 12.344C14.6375 13.6216 14.0005 15.2803 14.0005 17C14.0005 18.7197 14.6375 20.3784 15.7885 21.656C15.0326 21.9529 14.2154 22.06 13.4084 21.968C12.6015 21.876 11.8294 21.5877 11.1596 21.1284C10.4899 20.669 9.94289 20.0525 9.5665 19.3328C9.19011 18.6131 8.99578 17.8122 9.00052 17ZM21.0005 22C20.0116 22 19.0449 21.7068 18.2227 21.1573C17.4004 20.6079 16.7596 19.827 16.3811 18.9134C16.0027 17.9998 15.9037 16.9945 16.0966 16.0245C16.2895 15.0546 16.7657 14.1637 17.465 13.4645C18.1643 12.7652 19.0552 12.289 20.0251 12.0961C20.995 11.9031 22.0003 12.0022 22.9139 12.3806C23.8276 12.759 24.6085 13.3999 25.1579 14.2221C25.7073 15.0444 26.0005 16.0111 26.0005 17C25.9989 18.3256 25.4716 19.5964 24.5343 20.5338C23.597 21.4711 22.3261 21.9984 21.0005 22Z" fill="#323232"/>
</g>
<defs>
<clipPath id="clip0_14146_9494">
<rect width="24" height="24" fill="white" transform="translate(7 7)"/>
</clipPath>
</defs>
</svg>
