<svg width="55" height="55" viewBox="0 0 55 55" fill="none" xmlns="http://www.w3.org/2000/svg">
<path d="M2.5026 45.7383C2.73307 44.9007 2.88021 44.0329 3.21094 43.2301C4.10417 41.0572 5.70182 39.4238 7.91276 38.3049C8.01042 38.2556 8.10286 38.1968 8.20052 38.1403C5.33724 35.2378 6.27865 31.5145 8.48698 29.6877C10.819 27.7587 14.3815 27.6409 16.7617 29.481C18.181 30.577 18.9818 31.9796 19.0898 33.6862C19.1992 35.3892 18.5612 36.8615 17.2852 38.1319C19.6888 39.2808 21.3711 40.9862 22.3685 43.3166C22.556 43.1952 22.7227 43.0847 22.8919 42.9801C23.0521 42.8816 23.2188 42.789 23.4232 42.6688C22.3216 41.3841 21.8854 39.9539 22.2604 38.3614C22.5404 37.174 23.2214 36.2041 24.2786 35.4734C26.401 34.0059 29.3021 34.1694 31.2096 35.8483C32.9883 37.4144 33.6497 40.2447 31.5938 42.6592C31.9258 42.8683 32.2565 43.0763 32.6315 43.313C33.1172 42.1881 33.7617 41.1773 34.6289 40.294C35.5 39.407 36.5208 38.6979 37.7161 38.1403C36.2708 36.6584 35.6406 34.9722 35.9974 33.0192C36.2591 31.5818 37.0365 30.4124 38.2396 29.4834C40.6536 27.6193 44.2318 27.7527 46.5846 29.7478C48.7383 31.5746 49.6406 35.2582 46.8281 38.1114C47.4544 38.508 48.1172 38.8662 48.7031 39.3109C50.832 40.9249 52.082 43.0005 52.4193 45.5352C52.4284 45.6049 52.4727 45.671 52.5 45.7395C52.5 47.6625 52.5 49.5855 52.5 51.5084C52.2669 51.9543 51.9076 52.2836 51.4258 52.4999C35.4753 52.4999 19.5247 52.4999 3.57422 52.4999C3.09115 52.2848 2.73307 51.9543 2.5 51.5084C2.5026 49.5843 2.5026 47.6613 2.5026 45.7383ZM5.41536 49.7633C10.0534 49.7633 14.6146 49.7633 19.2005 49.7633C19.1602 48.4701 19.4023 47.2587 19.974 46.1049C20.0352 45.9811 20.0117 45.8117 19.9935 45.6674C19.6081 42.6159 16.7279 40.1293 13.3099 39.8926C9.86588 39.6546 6.67188 41.7049 5.72135 44.7612C5.21224 46.4006 5.52995 48.0735 5.41536 49.7633ZM49.4909 49.779C49.4909 48.3824 49.625 47.0207 49.4635 45.6891C49.0794 42.5054 46.0547 40.0043 42.6198 39.8853C39.0013 39.7592 35.8789 41.9477 35.1055 45.1362C34.9844 45.6338 34.9453 46.0965 35.2201 46.57C35.3711 46.8296 35.4661 47.1301 35.5208 47.4221C35.6641 48.1985 35.7721 48.9809 35.8971 49.7802C40.4141 49.779 44.9635 49.779 49.4909 49.779ZM32.8724 49.7741C32.9245 47.7274 32.1159 46.1193 30.2214 45.0905C28.3099 44.0534 26.349 44.1159 24.5104 45.2468C22.7917 46.3032 22.0612 47.856 22.1393 49.7741C25.7253 49.7741 29.2669 49.7741 32.8724 49.7741ZM12.7461 30.8667C10.8672 30.8703 9.33594 32.2921 9.33984 34.03C9.34375 35.763 10.8867 37.1788 12.7669 37.174C14.6458 37.1692 16.1771 35.7462 16.1732 34.0107C16.168 32.2753 14.6289 30.8631 12.7461 30.8667ZM45.6654 34.0143C45.6628 32.2789 44.125 30.8655 42.2422 30.8667C40.3633 30.8691 38.8294 32.2897 38.832 34.0251C38.8346 35.7594 40.375 37.1764 42.2539 37.174C44.1328 37.1716 45.668 35.7498 45.6654 34.0143ZM27.5091 37.1764C26.1602 37.174 25.0599 38.1883 25.0625 39.4335C25.0651 40.6581 26.1458 41.6677 27.4701 41.6809C28.8177 41.6941 29.9323 40.6858 29.9414 39.4455C29.9505 38.2004 28.8555 37.1788 27.5091 37.1764Z" fill="#0D257B"/>
<path d="M24.0417 17.4915H25.8542V19.2991C25.8542 19.5364 25.9048 19.7715 26.0032 19.9908C26.1017 20.2101 26.2459 20.4094 26.4277 20.5772C26.6096 20.7451 26.8255 20.8782 27.0631 20.969C27.3007 21.0599 27.5553 21.1066 27.8125 21.1066C28.0697 21.1066 28.3243 21.0599 28.5619 20.969C28.7995 20.8782 29.0154 20.7451 29.1973 20.5772C29.3791 20.4094 29.5233 20.2101 29.6218 19.9908C29.7202 19.7715 29.7708 19.5364 29.7708 19.2991V17.4915H31.6042C32.1235 17.4915 32.6217 17.301 32.9889 16.962C33.3562 16.6231 33.5625 16.1633 33.5625 15.6839C33.5625 15.2045 33.3562 14.7447 32.9889 14.4057C32.6217 14.0668 32.1235 13.8763 31.6042 13.8763H29.7708V11.9534C29.7335 11.5198 29.5381 11.1108 29.2165 10.793C28.8949 10.4751 28.4661 10.2673 28 10.2035C27.5237 10.1613 27.0473 10.2834 26.6626 10.5461C26.278 10.8088 26.0122 11.1937 25.9167 11.6265C25.8953 11.8889 25.8953 12.1524 25.9167 12.4149V13.7994H24.0208C23.7637 13.7994 23.509 13.8462 23.2714 13.937C23.0338 14.0278 22.8179 14.161 22.6361 14.3288C22.4542 14.4967 22.31 14.6959 22.2116 14.9153C22.1132 15.1346 22.0625 15.3696 22.0625 15.607C22.0625 15.8444 22.1132 16.0794 22.2116 16.2987C22.31 16.518 22.4542 16.7173 22.6361 16.8851C22.8179 17.053 23.0338 17.1861 23.2714 17.277C23.509 17.3678 23.7637 17.4146 24.0208 17.4146L24.0417 17.4915Z" fill="#CC922F"/>
<path d="M32.2794 2.50133C32.8733 2.76176 33.2368 3.19625 33.5367 3.73173C34.5245 5.48963 36.1279 6.39848 38.2817 6.48485C39.3405 6.52736 39.9879 7.12529 39.9894 8.10456C39.9937 10.9932 40.014 13.8832 39.9836 16.7718C39.9126 23.3716 35.085 29.3137 28.2079 31.2549C27.7734 31.3772 27.2245 31.3732 26.7899 31.2483C19.8028 29.2393 15.0534 23.3317 15.01 16.6217C14.9912 13.7995 15.0042 10.9759 15.0071 8.15372C15.0085 7.10802 15.6357 6.53268 16.7698 6.48086C18.8773 6.38652 20.4546 5.49096 21.4337 3.77425C21.7437 3.22947 22.0927 2.7591 22.7185 2.5C25.9064 2.50133 29.0929 2.50133 32.2794 2.50133ZM36.8318 13.4939C36.7985 13.4925 36.7666 13.4912 36.7333 13.4886C36.7333 12.2608 36.7217 11.0317 36.7406 9.804C36.7449 9.47448 36.6754 9.32699 36.2785 9.23663C34.061 8.72906 32.3157 7.58636 31.0802 5.81517C30.9136 5.576 30.7441 5.48299 30.4342 5.48432C28.4802 5.4976 26.5263 5.49627 24.5724 5.48432C24.2668 5.48299 24.0901 5.5667 23.9221 5.80852C22.6764 7.59433 20.9181 8.74368 18.6759 9.24726C18.3269 9.32566 18.2588 9.45454 18.2602 9.74686C18.2704 11.9047 18.2457 14.0626 18.2762 16.2204C18.2878 17.0628 18.3196 17.9212 18.4978 18.7437C19.4899 23.3357 22.3955 26.4861 27.1376 28.2055C27.3331 28.2773 27.6098 28.2919 27.8024 28.2241C32.5793 26.522 35.5529 23.3703 36.4769 18.7476C36.8188 17.0336 36.7261 15.2478 36.8318 13.4939Z" fill="#CC922F"/>
</svg>
