<svg width="38" height="38" viewBox="0 0 38 38" fill="none" xmlns="http://www.w3.org/2000/svg">
<rect width="38" height="38" rx="6" fill="#0D257B" fill-opacity="0.03"/>
<path fill-rule="evenodd" clip-rule="evenodd" d="M18.09 10.6351C18.3987 10.7125 18.6641 10.9093 18.8277 11.1823C18.9913 11.4552 19.0398 11.782 18.9624 12.0907L18.4344 14.1991H21.9624L22.6344 11.5075C22.6718 11.3537 22.7393 11.2088 22.8329 11.0811C22.9265 10.9535 23.0445 10.8456 23.18 10.7637C23.3154 10.6819 23.4658 10.6276 23.6224 10.6041C23.7789 10.5806 23.9386 10.5883 24.0921 10.6268C24.2457 10.6653 24.3901 10.7337 24.5171 10.8283C24.6441 10.9228 24.7511 11.0415 24.832 11.1776C24.9129 11.3137 24.9661 11.4644 24.9885 11.6211C25.0108 11.7779 25.002 11.9374 24.9624 12.0907L24.4344 14.1991H27.3984C27.7167 14.1991 28.0219 14.3256 28.247 14.5506C28.472 14.7756 28.5984 15.0809 28.5984 15.3991C28.5984 15.7174 28.472 16.0226 28.247 16.2477C28.0219 16.4727 27.7167 16.5991 27.3984 16.5991H23.8344L22.6344 21.3991H24.9984C25.3167 21.3991 25.6219 21.5256 25.847 21.7506C26.072 21.9756 26.1984 22.2809 26.1984 22.5991C26.1984 22.9174 26.072 23.2226 25.847 23.4477C25.6219 23.6727 25.3167 23.7991 24.9984 23.7991H22.0344L21.3624 26.4895C21.3265 26.6447 21.2599 26.7912 21.1667 26.9204C21.0735 27.0496 20.9555 27.159 20.8196 27.2421C20.6837 27.3253 20.5326 27.3805 20.3752 27.4046C20.2177 27.4288 20.057 27.4213 19.9024 27.3827C19.7478 27.344 19.6025 27.275 19.4749 27.1796C19.3473 27.0842 19.24 26.9644 19.1592 26.827C19.0784 26.6897 19.0258 26.5377 19.0043 26.3798C18.9829 26.222 18.9932 26.0614 19.0344 25.9075L19.5624 23.7991H16.0344L15.3624 26.4895C15.3265 26.6447 15.2599 26.7912 15.1667 26.9204C15.0735 27.0496 14.9555 27.159 14.8196 27.2421C14.6837 27.3253 14.5326 27.3805 14.3752 27.4046C14.2177 27.4288 14.057 27.4213 13.9024 27.3827C13.7478 27.344 13.6025 27.275 13.4749 27.1796C13.3473 27.0842 13.24 26.9644 13.1592 26.827C13.0784 26.6897 13.0258 26.5377 13.0043 26.3798C12.9829 26.222 12.9932 26.0614 13.0344 25.9075L13.5624 23.7991H10.5984C10.2802 23.7991 9.97495 23.6727 9.74991 23.4477C9.52487 23.2226 9.39844 22.9174 9.39844 22.5991C9.39844 22.2809 9.52487 21.9756 9.74991 21.7506C9.97495 21.5256 10.2802 21.3991 10.5984 21.3991H14.1624L15.3624 16.5991H12.9984C12.6802 16.5991 12.375 16.4727 12.1499 16.2477C11.9249 16.0226 11.7984 15.7174 11.7984 15.3991C11.7984 15.0809 11.9249 14.7756 12.1499 14.5506C12.375 14.3256 12.6802 14.1991 12.9984 14.1991H15.9624L16.6344 11.5075C16.7118 11.1988 16.9086 10.9335 17.1816 10.7699C17.4545 10.6063 17.7813 10.5578 18.09 10.6351ZM17.8344 16.5991L16.6344 21.3991H20.16L21.36 16.5991H17.8344Z" fill="#323232"/>
</svg>
