<svg width="38" height="38" viewBox="0 0 38 38" fill="none" xmlns="http://www.w3.org/2000/svg">
<rect width="38" height="38" rx="6" fill="#0D257B" fill-opacity="0.03"/>
<g clip-path="url(#clip0_14146_8882)">
<path d="M26 11H22V10C22 8.346 20.654 7 19 7C17.346 7 16 8.346 16 10V11H12C9.243 11 7 13.243 7 16V26C7 28.757 9.243 31 12 31H26C28.757 31 31 28.757 31 26V16C31 13.243 28.757 11 26 11ZM18 10C18 9.448 18.449 9 19 9C19.551 9 20 9.448 20 10V11.995C20 11.995 20 11.998 20 12C20 12.002 20 12.003 20 12.005V13H17.999V10H18ZM29 26C29 27.654 27.654 29 26 29H12C10.346 29 9 27.654 9 26V16C9 14.346 10.346 13 12 13H16C16 14.103 16.897 15 18 15H20C21.103 15 22 14.103 22 13H26C27.654 13 29 14.346 29 16V26ZM16.5 19.5C16.5 18.119 17.619 17 19 17C20.381 17 21.5 18.119 21.5 19.5C21.5 20.881 20.381 22 19 22C17.619 22 16.5 20.881 16.5 19.5ZM23.968 26.751C24.106 27.285 23.784 27.831 23.249 27.969C22.711 28.108 22.169 27.784 22.031 27.249C21.7 25.967 20.397 25 18.999 25C17.601 25 16.297 25.967 15.967 27.249C15.851 27.7 15.445 28 14.999 28C14.917 28 14.833 27.99 14.749 27.969C14.214 27.831 13.892 27.286 14.03 26.751C14.589 24.577 16.678 23 18.998 23C21.318 23 23.407 24.577 23.966 26.751H23.968Z" fill="#323232"/>
</g>
<defs>
<clipPath id="clip0_14146_8882">
<rect width="24" height="24" fill="white" transform="translate(7 7)"/>
</clipPath>
</defs>
</svg>
