<svg width="40" height="40" viewBox="0 0 40 40" fill="none" xmlns="http://www.w3.org/2000/svg">
<rect x="1" y="1" width="38" height="38" rx="6" fill="#0D257B" fill-opacity="0.03"/>
<path d="M30.766 12.5656C30.4006 12.4134 29.9981 12.3734 29.6099 12.4507C29.2217 12.528 28.8653 12.7191 28.586 12.9996L26 15.5856L21.414 10.9996C21.0389 10.6247 20.5303 10.4141 20 10.4141C19.4697 10.4141 18.9611 10.6247 18.586 10.9996L14 15.5856L11.414 12.9996C11.1343 12.72 10.778 12.5296 10.3901 12.4525C10.0022 12.3753 9.60009 12.4149 9.23469 12.5663C8.86929 12.7176 8.55697 12.9739 8.3372 13.3027C8.11743 13.6315 8.00008 14.0181 8 14.4136V24.9996C8.00159 26.3252 8.52888 27.5961 9.46622 28.5334C10.4036 29.4708 11.6744 29.998 13 29.9996H27C28.3256 29.998 29.5964 29.4708 30.5338 28.5334C31.4711 27.5961 31.9984 26.3252 32 24.9996V14.4136C32.0001 14.0181 31.8829 13.6314 31.6633 13.3025C31.4436 12.9735 31.1314 12.7171 30.766 12.5656ZM30 24.9996C30 25.7953 29.6839 26.5583 29.1213 27.121C28.5587 27.6836 27.7956 27.9996 27 27.9996H13C12.2044 27.9996 11.4413 27.6836 10.8787 27.121C10.3161 26.5583 10 25.7953 10 24.9996V14.4136L13.293 17.7066C13.4805 17.8941 13.7348 17.9994 14 17.9994C14.2652 17.9994 14.5195 17.8941 14.707 17.7066L20 12.4136L25.293 17.7066C25.4805 17.8941 25.7348 17.9994 26 17.9994C26.2652 17.9994 26.5195 17.8941 26.707 17.7066L30 14.4136V24.9996Z" fill="#323232"/>
</svg>
