<svg width="55" height="55" viewBox="0 0 55 55" fill="none" xmlns="http://www.w3.org/2000/svg">
<path d="M29.5946 3.11457C31.5185 1.88114 34.0863 2.56924 35.1357 4.59922C35.4766 5.25869 35.9996 5.80653 36.6425 6.17772C37.2854 6.54892 38.0213 6.7279 38.7629 6.69343C41.0457 6.58723 42.9255 8.46701 42.8193 10.7498C42.7848 11.4914 42.9638 12.2273 43.3349 12.8702C43.7061 13.5131 44.254 14.0361 44.9134 14.377C46.9435 15.4264 47.6315 17.9942 46.3982 19.9181C45.9975 20.5431 45.7845 21.2699 45.7845 22.0123C45.7845 22.7547 45.9975 23.4815 46.3982 24.1064C47.6315 26.0302 46.9435 28.5981 44.9134 29.6475C44.254 29.9884 43.7061 30.5113 43.3349 31.1543C42.9638 31.7972 42.7848 32.5331 42.8193 33.2746C42.9255 35.5575 41.0457 37.4372 38.7629 37.331C38.0213 37.2966 37.2854 37.4756 36.6425 37.8467C35.9996 38.2179 35.4766 38.7658 35.1357 39.4252C34.0863 41.4552 31.5185 42.1433 29.5946 40.9099C28.9696 40.5092 28.2428 40.2962 27.5005 40.2962C26.7581 40.2962 26.0313 40.5092 25.4063 40.9099C23.4824 42.1433 20.9146 41.4552 19.8652 39.4252C19.5243 38.7658 19.0014 38.2179 18.3584 37.8467C17.7155 37.4755 16.9796 37.2966 16.238 37.331C13.9552 37.4372 12.0754 35.5575 12.1816 33.2746C12.2161 32.5331 12.0372 31.7972 11.666 31.1543C11.2948 30.5113 10.747 29.9884 10.0875 29.6475C8.05742 28.5981 7.36941 26.0302 8.60274 24.1064C9.00342 23.4815 9.2164 22.7547 9.2164 22.0123C9.2164 21.2699 9.00342 20.5431 8.60274 19.9181C7.36941 17.9942 8.05742 15.4264 10.0875 14.377C10.747 14.0361 11.2948 13.5131 11.666 12.8702C12.0372 12.2273 12.2161 11.4914 12.1816 10.7498C12.0754 8.46701 13.9552 6.58723 16.238 6.69343C16.9796 6.72791 17.7155 6.54894 18.3584 6.17774C19.0014 5.80654 19.5243 5.2587 19.8652 4.59922C20.9146 2.56924 23.4824 1.88114 25.4063 3.11457C26.0313 3.51525 26.7581 3.72823 27.5005 3.72823C28.2428 3.72823 28.9696 3.51525 29.5946 3.11457Z" stroke="#0D257B" stroke-width="2.2" stroke-miterlimit="10" stroke-linecap="round" stroke-linejoin="round"/>
<path d="M24.3193 19.8627C24.3193 19.6308 24.2272 19.4084 24.0632 19.2445C23.8992 19.0805 23.6768 18.9884 23.4449 18.9884H20.4369C20.205 18.9884 19.9826 19.0805 19.8186 19.2445C19.6546 19.4084 19.5625 19.6308 19.5625 19.8627V28.1871C19.5625 28.419 19.6546 28.6414 19.8186 28.8054C19.9826 28.9694 20.205 29.0615 20.4369 29.0615H23.4449C23.5597 29.0615 23.6734 29.0389 23.7795 28.995C23.8856 28.951 23.982 28.8866 24.0632 28.8054C24.1444 28.7242 24.2088 28.6278 24.2528 28.5217C24.2967 28.4157 24.3193 28.302 24.3193 28.1871V19.8627Z" stroke="#CC922F" stroke-width="2.2" stroke-miterlimit="10" stroke-linecap="round" stroke-linejoin="round"/>
<path d="M24.2891 19.6506L24.9104 19.2558C26.2801 18.3854 27.4264 17.2056 28.2569 15.8114C28.4638 15.4641 28.7854 15.1998 29.1661 15.064C29.5469 14.9283 29.9631 14.9296 30.343 15.0677C31.2322 15.3908 31.6992 16.366 31.3938 17.2614L30.4192 20.1182" stroke="#CC922F" stroke-width="2.2" stroke-miterlimit="10" stroke-linecap="round" stroke-linejoin="round"/>
<path d="M24.3203 27.9813C25.3966 28.6862 26.6552 29.0616 27.9418 29.0615H33.1529C34.415 29.0615 35.4381 28.0385 35.4381 26.7765V22.4036C35.4381 21.1416 34.415 20.1184 33.1529 20.1184H29.8793" stroke="#CC922F" stroke-width="2.2" stroke-miterlimit="10" stroke-linecap="round" stroke-linejoin="round"/>
<path d="M37.2709 37.7074L42.995 47.622L36.3315 45.8364L34.546 52.5L27.5 40.2958" stroke="#0D257B" stroke-width="2.60163" stroke-miterlimit="10" stroke-linecap="round" stroke-linejoin="round"/>
<path d="M17.728 37.7074L12.0039 47.622L18.6674 45.8364L20.4529 52.5L27.4989 40.2958" stroke="#0D257B" stroke-width="2.60163" stroke-miterlimit="10" stroke-linecap="round" stroke-linejoin="round"/>
<path d="M14.9187 15.8106C13.9954 17.6804 13.4766 19.7857 13.4766 22.0122C13.4766 29.7577 19.7554 36.0366 27.501 36.0366C35.2464 36.0366 41.5253 29.7577 41.5253 22.0122C41.5253 14.2669 35.2464 7.98784 27.501 7.98784C25.2744 7.98784 23.169 8.50674 21.2992 9.43011" stroke="#CC922F" stroke-width="2.2" stroke-miterlimit="10" stroke-linecap="round" stroke-linejoin="round"/>
</svg>
