<svg width="200" height="50" viewBox="0 0 200 50" fill="none" xmlns="http://www.w3.org/2000/svg">
<rect width="200" height="49.0999" rx="8" fill="white"/>
<path d="M78.0555 12.2992C79.5555 12.1992 80.7555 13.2992 80.8555 14.6992C80.8555 14.8992 80.8555 14.9992 80.8555 15.1992C80.8555 17.0992 79.8555 18.1992 78.0555 18.1992H75.8555V12.1992H78.0555V12.2992ZM76.8555 17.4992H77.9555C78.9555 17.5992 79.8555 16.7992 79.9555 15.6992C79.9555 15.5992 79.9555 15.3992 79.9555 15.2992C80.0555 14.2992 79.3555 13.2992 78.3555 13.1992C78.2555 13.1992 78.1555 13.1992 77.9555 13.1992H76.8555V17.4992Z" fill="#0D257B"/>
<path d="M81.9537 15.9998C81.8537 14.7998 82.6537 13.7998 83.8537 13.6998C85.0537 13.5998 86.0537 14.3998 86.1537 15.5998C86.1537 15.6998 86.1537 15.8998 86.1537 15.9998C86.2537 17.1998 85.4537 18.1998 84.2537 18.2998C83.0537 18.3998 82.0537 17.5998 81.9537 16.3998C81.9537 16.2998 81.9537 16.1998 81.9537 15.9998ZM85.2537 15.9998C85.2537 14.9998 84.8537 14.4998 84.0537 14.4998C83.2537 14.4998 82.8537 15.0998 82.8537 15.9998C82.8537 16.9998 83.2537 17.5998 84.0537 17.5998C84.8537 17.5998 85.2537 16.9998 85.2537 15.9998Z" fill="#0D257B"/>
<path d="M91.8531 18.3008H90.9531L90.0531 15.0008H89.9531L89.0531 18.3008H88.1531L86.9531 13.8008H87.8531L88.6531 17.2008H88.7531L89.6531 13.8008H90.5531L91.4531 17.2008H91.5531L92.3531 13.8008H93.2531L91.8531 18.3008Z" fill="#0D257B"/>
<path d="M94.1523 13.8003H95.0523V14.5003H95.1523C95.3523 14.0003 95.9523 13.7003 96.4523 13.7003C97.2523 13.6003 97.9523 14.2003 98.0523 15.1003C98.0523 15.2003 98.0523 15.3003 98.0523 15.4003V18.3003H97.1523V15.6003C97.1523 14.9003 96.8523 14.5003 96.1523 14.5003C95.5523 14.5003 95.0523 14.9003 95.0523 15.5003C95.0523 15.6003 95.0523 15.6003 95.0523 15.7003V18.3003H94.1523V13.8003Z" fill="#0D257B"/>
<path d="M99.3555 12H100.255V18.3H99.3555V12Z" fill="#0D257B"/>
<path d="M101.454 15.9998C101.354 14.7998 102.154 13.7998 103.354 13.6998C104.554 13.5998 105.554 14.3998 105.654 15.5998C105.654 15.6998 105.654 15.8998 105.654 15.9998C105.754 17.1998 104.954 18.1998 103.754 18.2998C102.554 18.3998 101.554 17.5998 101.454 16.3998C101.454 16.2998 101.454 16.1998 101.454 15.9998ZM104.854 15.9998C104.854 14.9998 104.454 14.4998 103.654 14.4998C102.854 14.4998 102.454 15.0998 102.454 15.9998C102.454 16.9998 102.854 17.5998 103.654 17.5998C104.354 17.5998 104.854 16.9998 104.854 15.9998Z" fill="#0D257B"/>
<path d="M106.655 16.9992C106.655 16.1992 107.255 15.6992 108.355 15.6992L109.555 15.5992V15.1992C109.555 14.6992 109.255 14.4992 108.655 14.4992C108.155 14.4992 107.855 14.6992 107.755 14.9992H106.855C106.955 14.1992 107.655 13.6992 108.655 13.6992C109.755 13.6992 110.455 14.2992 110.455 15.1992V18.2992H109.555V17.6992H109.455C109.155 18.1992 108.655 18.3992 108.055 18.3992C107.355 18.4992 106.655 17.8992 106.555 17.1992C106.655 17.0992 106.655 17.0992 106.655 16.9992ZM109.555 16.5992V16.1992L108.455 16.2992C107.855 16.2992 107.555 16.5992 107.555 16.8992C107.555 17.2992 107.955 17.4992 108.355 17.4992C108.955 17.6992 109.455 17.2992 109.555 16.5992C109.555 16.6992 109.555 16.6992 109.555 16.5992Z" fill="#0D257B"/>
<path d="M111.555 16C111.555 14.6 112.255 13.7 113.455 13.7C114.055 13.7 114.555 14 114.855 14.5H114.955V12H115.855V18.3H114.955V17.6H114.855C114.555 18.1 114.055 18.4 113.455 18.4C112.355 18.4 111.555 17.5 111.555 16ZM112.555 16C112.555 17 113.055 17.5 113.755 17.5C114.455 17.5 114.955 16.9 114.955 16C114.955 15.1 114.455 14.5 113.755 14.5C112.955 14.5 112.555 15.1 112.555 16Z" fill="#0D257B"/>
<path d="M119.454 15.9998C119.354 14.7998 120.154 13.7998 121.354 13.6998C122.554 13.5998 123.554 14.3998 123.654 15.5998C123.654 15.6998 123.654 15.8998 123.654 15.9998C123.754 17.1998 122.954 18.1998 121.754 18.2998C120.554 18.3998 119.554 17.5998 119.454 16.3998C119.454 16.2998 119.454 16.1998 119.454 15.9998ZM122.854 15.9998C122.854 14.9998 122.454 14.4998 121.654 14.4998C120.854 14.4998 120.454 15.0998 120.454 15.9998C120.454 16.9998 120.854 17.5998 121.654 17.5998C122.354 17.5998 122.854 16.9998 122.854 15.9998Z" fill="#0D257B"/>
<path d="M124.953 13.8003H125.853V14.5003H125.953C126.153 14.0003 126.753 13.7003 127.253 13.7003C128.053 13.6003 128.753 14.2003 128.853 15.1003C128.853 15.2003 128.853 15.3003 128.853 15.4003V18.3003H127.953V15.6003C127.953 14.9003 127.653 14.5003 126.953 14.5003C126.353 14.5003 125.853 14.9003 125.853 15.5003C125.853 15.6003 125.853 15.6003 125.853 15.7003V18.3003H124.953V13.8003Z" fill="#0D257B"/>
<path d="M133.755 12.6992V13.7992H134.755V14.5992H133.755V16.8992C133.755 17.3992 133.955 17.5992 134.355 17.5992C134.455 17.5992 134.555 17.5992 134.655 17.5992V18.2992C134.455 18.2992 134.355 18.2992 134.155 18.2992C133.155 18.2992 132.755 17.9992 132.755 17.0992V14.5992H132.055V13.8992H132.755V12.6992H133.755Z" fill="#0D257B"/>
<path d="M135.953 12H136.853V14.5H136.953C137.153 14 137.753 13.6 138.353 13.7C139.153 13.7 139.853 14.3 139.953 15.1C139.953 15.2 139.953 15.3 139.953 15.4V18.3H139.053V15.6C139.053 14.9 138.753 14.5 138.053 14.5C137.453 14.5 136.953 14.9 136.953 15.5C136.953 15.6 136.953 15.6 136.953 15.7V18.3H136.053L135.953 12Z" fill="#0D257B"/>
<path d="M145.053 17.1008C144.853 17.9008 143.953 18.5008 143.053 18.4008C141.953 18.4008 140.953 17.5008 140.953 16.4008C140.953 16.3008 140.953 16.2008 140.953 16.1008C140.753 15.0008 141.553 13.9008 142.753 13.8008C142.853 13.8008 142.953 13.8008 143.053 13.8008C144.353 13.8008 145.053 14.7008 145.053 16.1008V16.4008H141.853C141.753 17.1008 142.253 17.6008 142.953 17.7008H143.053C143.453 17.8008 143.953 17.5008 144.153 17.2008L145.053 17.1008ZM141.853 15.6008H144.153C144.153 15.0008 143.753 14.5008 143.153 14.4008H143.053C142.453 14.5008 141.853 15.0008 141.853 15.6008Z" fill="#0D257B"/>
<path d="M65.0537 23.901C65.0537 22.201 65.9537 20.601 67.4537 19.701C66.5537 18.401 65.0537 17.601 63.4537 17.501C61.7537 17.301 60.1537 18.501 59.2537 18.501C58.3537 18.501 57.0537 17.501 55.6537 17.501C53.7537 17.601 52.0537 18.601 51.1537 20.201C49.2537 23.501 50.6537 28.501 52.5537 31.201C53.4537 32.501 54.5537 34.001 55.9537 34.001C57.3537 33.901 57.8537 33.101 59.5537 33.101C61.2537 33.101 61.6537 34.001 63.1537 34.001C64.6537 34.001 65.5537 32.701 66.4537 31.301C67.1537 30.401 67.6537 29.301 67.9537 28.201C66.1537 27.601 65.0537 25.801 65.0537 23.901Z" fill="#0D257B"/>
<path d="M62.2542 15.8008C63.0542 14.8008 63.4542 13.6008 63.3542 12.3008C62.1542 12.4008 60.9542 13.0008 60.1542 14.0008C59.3542 14.9008 58.9542 16.1008 59.0542 17.4008C60.3542 17.4008 61.4542 16.8008 62.2542 15.8008Z" fill="#0D257B"/>
<path d="M82.5539 30.6992H77.8539L76.7539 34.0992H74.7539L79.2539 21.6992H81.2539L85.7539 34.0992H83.7539L82.5539 30.6992ZM78.3539 29.1992H82.1539L80.2539 23.6992H80.1539L78.3539 29.1992Z" fill="#0D257B"/>
<path d="M95.4531 29.5999C95.4531 32.3999 93.9531 34.1999 91.6531 34.1999C90.4531 34.2999 89.3531 33.5999 88.8531 32.5999V37.0999H86.9531V25.0999H88.7531V26.5999C89.3531 25.5999 90.4531 24.9999 91.6531 24.9999C93.8531 24.8999 95.4531 26.7999 95.4531 29.5999ZM93.4531 29.5999C93.4531 27.7999 92.5531 26.5999 91.0531 26.5999C89.6531 26.5999 88.6531 27.7999 88.6531 29.5999C88.6531 31.3999 89.6531 32.5999 91.0531 32.5999C92.5531 32.5999 93.4531 31.3999 93.4531 29.5999Z" fill="#0D257B"/>
<path d="M105.355 29.5999C105.355 32.3999 103.855 34.1999 101.555 34.1999C100.355 34.2999 99.2555 33.5999 98.7555 32.5999V37.0999H96.8555V25.0999H98.6555V26.5999C99.2555 25.5999 100.355 24.9999 101.555 24.9999C103.855 24.8999 105.355 26.7999 105.355 29.5999ZM103.455 29.5999C103.455 27.7999 102.555 26.5999 101.055 26.5999C99.6555 26.5999 98.6555 27.7999 98.6555 29.5999C98.6555 31.3999 99.6555 32.5999 101.055 32.5999C102.555 32.5999 103.455 31.3999 103.455 29.5999Z" fill="#0D257B"/>
<path d="M111.954 30.6C112.054 31.8 113.254 32.6 114.954 32.6C116.554 32.6 117.654 31.8 117.654 30.7C117.654 29.7 116.954 29.2 115.354 28.8L113.754 28.4C111.454 27.8 110.454 26.8 110.454 25.1C110.454 23 112.354 21.5 114.954 21.5C117.554 21.5 119.354 23 119.454 25.1H117.554C117.454 23.9 116.454 23.1 114.954 23.1C113.454 23.1 112.454 23.9 112.454 25C112.454 25.9 113.154 26.4 114.754 26.8L116.154 27.1C118.654 27.7 119.754 28.7 119.754 30.5C119.754 32.8 117.854 34.3 114.954 34.3C112.154 34.3 110.354 32.9 110.254 30.6H111.954Z" fill="#0D257B"/>
<path d="M123.553 22.9004V25.0004H125.253V26.5004H123.553V31.5004C123.553 32.3004 123.853 32.6004 124.653 32.6004C124.853 32.6004 125.053 32.6004 125.253 32.6004V34.1004C124.953 34.2004 124.553 34.2004 124.253 34.2004C122.453 34.2004 121.753 33.5004 121.753 31.8004V26.6004H120.453V25.1004H121.753V23.0004H123.553V22.9004Z" fill="#0D257B"/>
<path d="M126.355 29.6C126.355 26.8 128.055 25 130.655 25C133.255 25 134.955 26.8 134.955 29.6C134.955 32.5 133.255 34.2 130.655 34.2C127.955 34.2 126.355 32.4 126.355 29.6ZM133.055 29.6C133.055 27.6 132.155 26.5 130.655 26.5C129.155 26.5 128.255 27.6 128.255 29.6C128.255 31.6 129.155 32.7 130.655 32.7C132.155 32.7 133.055 31.5 133.055 29.6Z" fill="#0D257B"/>
<path d="M136.453 24.9997H138.253V26.5997C138.453 25.5997 139.453 24.8997 140.453 24.9997C140.653 24.9997 140.853 24.9997 141.053 25.0997V26.7997C140.753 26.6997 140.453 26.6997 140.253 26.6997C139.253 26.6997 138.353 27.4997 138.353 28.4997C138.353 28.5997 138.353 28.6997 138.353 28.7997V34.1997H136.453V24.9997Z" fill="#0D257B"/>
<path d="M149.653 31.4004C149.453 33.0004 147.753 34.2004 145.753 34.2004C143.153 34.2004 141.453 32.4004 141.453 29.6004C141.453 26.8004 143.053 24.9004 145.653 24.9004C148.153 24.9004 149.753 26.6004 149.753 29.4004V30.0004H143.353V30.1004C143.253 31.4004 144.153 32.5004 145.453 32.7004C145.553 32.7004 145.653 32.7004 145.753 32.7004C146.653 32.8004 147.553 32.3004 147.853 31.4004H149.653ZM143.353 28.7004H147.853C147.953 27.5004 146.953 26.5004 145.753 26.4004C145.653 26.4004 145.653 26.4004 145.553 26.4004C144.353 26.4004 143.353 27.4004 143.353 28.7004Z" fill="#0D257B"/>
</svg>
