<svg width="24" height="24" viewBox="0 0 24 24" fill="none" xmlns="http://www.w3.org/2000/svg">
<g clip-path="url(#clip0_8396_48682)">
<path d="M12 0C5.37281 0 0 5.37281 0 12C0 18.6272 5.37281 24 12 24C18.6272 24 24 18.6272 24 12C23.993 5.37562 18.6244 0.00703125 12 0ZM12 21.9998C6.47719 21.9998 2.00016 17.5228 2.00016 12C2.00016 6.47719 6.47719 2.00016 12 2.00016C17.5228 2.00016 21.9998 6.47719 21.9998 12C21.9937 17.5205 17.5205 21.9937 12 21.9998Z" fill="#323232"/>
<path d="M11.9982 6C11.446 6 10.9984 6.44766 10.9984 6.99984V11.325L7.62758 13.4372C7.15837 13.7306 7.0154 14.3489 7.30837 14.8181C7.6018 15.2873 8.22008 15.4303 8.6893 15.1373L12.5293 12.7373C12.8241 12.5527 13.0018 12.2273 12.9985 11.8795V6.99984C12.9981 6.44766 12.5504 6 11.9982 6Z" fill="#323232"/>
</g>
<defs>
<clipPath id="clip0_8396_48682">
<rect width="24" height="24" fill="white"/>
</clipPath>
</defs>
</svg>
