<svg width="24" height="24" viewBox="0 0 24 24" fill="none" xmlns="http://www.w3.org/2000/svg">
<path d="M21.7023 10.1434C21.5181 10.1431 21.3405 10.075 21.2033 9.95222C21.0661 9.8294 20.9789 9.66039 20.9583 9.47741C20.7817 7.84686 20.0525 6.32582 18.8919 5.16702C17.7313 4.00821 16.2091 3.28142 14.5783 3.10741C14.3807 3.08506 14.2001 2.98518 14.0762 2.82973C13.9522 2.67428 13.8951 2.47598 13.9173 2.27841C13.9271 2.18012 13.9564 2.08479 14.0036 1.99801C14.0507 1.91123 14.1148 1.83476 14.1919 1.77308C14.2691 1.7114 14.3578 1.66577 14.4528 1.63886C14.5478 1.61196 14.6473 1.60432 14.7453 1.61641C16.7148 1.82651 18.5531 2.70441 19.9545 4.10415C21.3558 5.50389 22.2359 7.34114 22.4483 9.31041C22.4603 9.41541 22.4499 9.52177 22.4179 9.62248C22.3858 9.72319 22.3328 9.81599 22.2624 9.89476C22.1919 9.97353 22.1056 10.0365 22.0091 10.0795C21.9125 10.1226 21.808 10.1447 21.7023 10.1444V10.1434Z" fill="#CC922F"/>
<path d="M18.1623 10.1545C17.9886 10.1542 17.8203 10.0937 17.6862 9.98315C17.5522 9.87262 17.4607 9.71898 17.4273 9.54847C17.2897 8.82822 16.9389 8.16592 16.4204 7.64742C15.9018 7.12891 15.2395 6.7781 14.5193 6.64047C14.4206 6.62386 14.3262 6.58766 14.2418 6.53402C14.1573 6.48037 14.0844 6.41036 14.0274 6.3281C13.9704 6.24585 13.9304 6.15302 13.9098 6.05508C13.8892 5.95714 13.8885 5.85607 13.9076 5.75783C13.9267 5.65959 13.9652 5.56617 14.021 5.48306C14.0767 5.39995 14.1485 5.32884 14.2322 5.27392C14.3159 5.21899 14.4097 5.18137 14.5081 5.16326C14.6065 5.14515 14.7076 5.14692 14.8053 5.16847C15.819 5.36214 16.7512 5.85573 17.4811 6.58532C18.2111 7.3149 18.7051 8.24686 18.8993 9.26047C18.9206 9.36919 18.9175 9.48127 18.8903 9.58866C18.8631 9.69604 18.8124 9.79607 18.742 9.88155C18.6715 9.96703 18.583 10.0358 18.4827 10.083C18.3825 10.1302 18.2731 10.1546 18.1623 10.1545Z" fill="#CC922F"/>
<path fill-rule="evenodd" clip-rule="evenodd" d="M7.47898 16.4404C12.192 21.1544 15.33 22.3904 17.312 22.3904C18.29 22.3904 18.988 22.0904 19.453 21.7554C19.474 21.7434 21.626 20.4274 22.003 18.4354C22.181 17.5004 21.921 16.5754 21.253 15.7594C18.501 12.4194 17.099 12.7304 15.551 13.4834C14.601 13.9494 13.849 14.3114 11.728 12.1934C9.60798 10.0704 9.97398 9.32035 10.437 8.37035C11.191 6.82235 11.501 5.42035 8.15898 2.66535C7.34498 2.00035 6.42698 1.74035 5.49198 1.91535C3.52898 2.28235 2.20698 4.40035 2.20698 4.40035C1.15498 5.87635 0.440979 9.40335 7.47898 16.4404ZM5.79898 3.38335C5.88598 3.36935 5.97298 3.36135 6.05898 3.36135C6.45098 3.36135 6.82898 3.51435 7.20598 3.82435C9.90098 6.04435 9.55998 6.74435 9.08798 7.71435C8.37898 9.17035 8.00798 10.5924 10.668 13.2544C13.329 15.9144 14.752 15.5444 16.208 14.8324L16.21 14.8314C17.177 14.3614 17.877 14.0214 20.094 16.7124C20.474 17.1744 20.618 17.6364 20.536 18.1234C20.347 19.2434 19.046 20.2464 18.651 20.4904C17.241 21.4964 13.843 20.6834 8.53898 15.3804C3.23698 10.0774 2.42298 6.68035 3.46498 5.21535C3.67298 4.87635 4.68098 3.57235 5.79898 3.38335Z" fill="#0D257B"/>
</svg>
