<svg width="24" height="25" viewBox="0 0 24 25" fill="none" xmlns="http://www.w3.org/2000/svg">
<path d="M16.2515 0.34375C16.6005 0.249628 16.9687 0.248497 17.3179 0.341797C17.6672 0.435186 17.9862 0.619203 18.2417 0.875C18.4972 1.13075 18.6809 1.44952 18.7739 1.79883C18.8669 2.14822 18.8655 2.51624 18.771 2.86523L16.1753 12.4414L16.1763 12.4424C16.0837 12.7913 15.8999 13.1097 15.644 13.3643C15.3884 13.6185 15.0692 13.7998 14.7202 13.8906L14.7212 13.8916C14.5471 13.9388 14.3674 13.9622 14.187 13.9629H14.186C13.9171 13.9626 13.6509 13.9093 13.4028 13.8057C13.155 13.702 12.9297 13.5502 12.7407 13.3594L10.8843 11.5029L7.99756 11.5811H7.99365C7.87351 11.5822 7.7574 11.537 7.67041 11.4541L7.6665 11.4502L7.81494 11.3018L7.6665 11.4492C7.62352 11.4059 7.5893 11.3546 7.56689 11.2979C7.54449 11.2411 7.53382 11.1802 7.53564 11.1191L7.61377 8.23145L5.75732 6.37695V6.37598C5.50312 6.1211 5.3203 5.80375 5.22705 5.45605C5.13385 5.10836 5.13347 4.74239 5.22607 4.39453C5.31876 4.04652 5.50143 3.729 5.75537 3.47363C6.00932 3.21826 6.32585 3.03409 6.67334 2.93945L16.2515 0.34375ZM16.6118 1.18555L16.4878 1.21191L6.90674 3.80762C6.71166 3.86002 6.53355 3.96323 6.39111 4.10645C6.28437 4.21385 6.20005 4.34124 6.14307 4.48047L6.09424 4.62695C6.04055 4.82177 6.03961 5.0273 6.09131 5.22266C6.1431 5.41808 6.24599 5.59652 6.38916 5.73926L8.39209 7.73145C8.43547 7.77456 8.46987 7.82606 8.49268 7.88281C8.50406 7.91117 8.51266 7.94079 8.51807 7.9707L8.5249 8.0625L8.45361 10.6689L11.0601 10.5986H11.0659C11.1846 10.5985 11.299 10.645 11.3833 10.7285V10.7295L13.3804 12.7227L13.4937 12.8213C13.6134 12.9128 13.7504 12.9804 13.897 13.0195C14.0921 13.0716 14.2975 13.0716 14.4927 13.0195C14.6878 12.9675 14.866 12.8649 15.0093 12.7227C15.1524 12.5804 15.2557 12.4027 15.3091 12.208L17.9048 2.62988L17.9058 2.62891C17.9504 2.4665 17.9583 2.29579 17.9292 2.12988C17.9149 2.04823 17.8913 1.96875 17.8599 1.89258L10.9956 8.75879C10.9538 8.80059 10.9037 8.83382 10.8491 8.85645C10.7947 8.87899 10.7362 8.89057 10.6772 8.89062C10.6181 8.89062 10.559 8.87906 10.5044 8.85645C10.4499 8.83388 10.4006 8.80044 10.3589 8.75879C10.3171 8.71699 10.2839 8.66692 10.2612 8.6123C10.2387 8.55777 10.2271 8.49945 10.2271 8.44043C10.2271 8.38132 10.2386 8.32219 10.2612 8.26758C10.2838 8.21315 10.3172 8.16374 10.3589 8.12207L17.2222 1.25684C17.1466 1.22586 17.0678 1.20267 16.9868 1.18848C16.8625 1.1667 16.7359 1.1659 16.6118 1.18555Z" fill="#CC922F" stroke="#CC922F" stroke-width="0.42"/>
<path d="M6.29614 8.45801C6.41548 8.45802 6.53012 8.50546 6.6145 8.58984C6.69881 8.67422 6.74634 8.78892 6.74634 8.9082C6.74628 9.02747 6.69884 9.14222 6.6145 9.22656C6.53013 9.31089 6.41543 9.35839 6.29614 9.3584H2.4563C2.25165 9.35826 2.0509 9.40653 1.87036 9.49805L9.41431 17.1035C9.7519 17.4449 10.1538 17.7164 10.5969 17.9014C11.04 18.0863 11.5153 18.1816 11.9954 18.1816C12.4754 18.1816 12.9508 18.0863 13.3938 17.9014C13.8369 17.7164 14.2388 17.4449 14.5764 17.1035H14.5774L22.1213 9.49707C21.9418 9.40621 21.7427 9.3581 21.5393 9.3584H18.4788C18.3595 9.3584 18.2448 9.31081 18.1604 9.22656C18.0761 9.14222 18.0286 9.02747 18.0286 8.9082C18.0286 8.78886 18.076 8.67424 18.1604 8.58984C18.2448 8.50546 18.3594 8.45801 18.4788 8.45801H21.5393L21.762 8.46875C21.9832 8.49063 22.2003 8.54621 22.4055 8.63379C22.6793 8.75064 22.9268 8.92206 23.1321 9.1377C23.5232 9.54781 23.7407 10.0935 23.7385 10.6602V22.4883C23.7378 23.072 23.5048 23.6322 23.092 24.0449C22.6793 24.4575 22.12 24.6897 21.5364 24.6904H2.4563C1.8726 24.6897 1.31241 24.4576 0.899658 24.0449C0.486903 23.6322 0.254852 23.072 0.25415 22.4883V10.6602C0.25415 10.371 0.311458 10.0845 0.422119 9.81738C0.532779 9.55025 0.694227 9.30699 0.898682 9.10254C1.10314 8.89808 1.34639 8.73664 1.61353 8.62598C1.88068 8.51532 2.16713 8.45801 2.4563 8.45801H6.29614ZM15.2151 17.7363C14.7938 18.1622 14.2923 18.5007 13.7395 18.7314C13.1867 18.9622 12.5934 19.081 11.9944 19.0811C11.3953 19.0811 10.8021 18.9622 10.2493 18.7314C9.69643 18.5007 9.19496 18.1622 8.77368 17.7363L8.27856 17.2393L1.927 23.6758C2.0927 23.7502 2.27279 23.7901 2.4563 23.79H21.5374C21.7202 23.79 21.8994 23.7505 22.0647 23.6768L15.7083 17.2383L15.2151 17.7363ZM16.3459 16.5996L22.7131 23.0488C22.7971 22.8748 22.8428 22.6837 22.843 22.4883V10.6602C22.843 10.4861 22.8045 10.316 22.7375 10.1572L16.3459 16.5996ZM1.25806 10.1582C1.19122 10.3164 1.15439 10.4866 1.15454 10.6602V22.4883L1.15845 22.5928C1.17139 22.7509 1.21417 22.9045 1.28247 23.0469L7.64868 16.5996L1.25806 10.1582Z" fill="#0D257B" stroke="#0D257B" stroke-width="0.42"/>
</svg>
