<svg width="24" height="24" viewBox="0 0 24 24" fill="none" xmlns="http://www.w3.org/2000/svg">
<path fill-rule="evenodd" clip-rule="evenodd" d="M6.8999 5.4002L13.3006 5.32916C15.0116 5.32916 16.3116 5.7522 17.3006 6.7402C18.2886 7.7302 18.5999 9.0282 18.5999 10.7402V14.7002C19.3489 14.5162 20.1286 14.0902 20.5076 13.6452C21.0256 13.0362 21.3396 12.1052 21.3396 10.7402V6.7402C21.3396 5.2612 20.9696 4.2882 20.3606 3.6802C19.7516 3.0722 18.7786 2.7002 17.3006 2.7002H10.9006C9.54062 2.7002 8.60862 3.0132 7.99762 3.5332C7.55162 3.9132 7.0839 4.6532 6.8999 5.4002ZM7.02662 2.3902C8.00062 1.5622 9.32862 1.2002 10.8996 1.2002H17.2996C19.0106 1.2002 20.4326 1.6302 21.4216 2.6182C22.4096 3.6082 22.8396 5.0282 22.8396 6.7402V10.7402C22.8396 12.3162 22.4786 13.6442 21.6496 14.6182C20.8126 15.6012 19.5936 16.1112 18.1136 16.2382C18.0022 16.2477 17.8901 16.2322 17.7855 16.1928C17.6809 16.1534 17.5864 16.0912 17.5089 16.0105C17.4314 15.9299 17.373 15.833 17.3378 15.7269C17.3026 15.6208 17.2916 15.5081 17.3056 15.3972C17.3306 15.1992 17.3396 14.9822 17.3396 14.7402V10.7402C17.3396 9.2612 16.9696 8.2882 16.3606 7.6802C15.7516 7.0722 14.7786 6.7002 13.3006 6.7002H6.90062C6.65762 6.7002 6.44062 6.7102 6.24262 6.7342C6.13177 6.748 6.01924 6.73688 5.91325 6.70163C5.80725 6.66639 5.71047 6.60791 5.62997 6.53047C5.54947 6.45304 5.48728 6.3586 5.44794 6.25405C5.40861 6.14951 5.39312 6.03749 5.40262 5.9262C5.52862 4.4452 6.04262 3.2262 7.02662 2.3902Z" fill="#CC922F"/>
<path fill-rule="evenodd" clip-rule="evenodd" d="M12.4937 13.2505C12.4937 12.9853 12.599 12.7309 12.7865 12.5434C12.9741 12.3558 13.2284 12.2505 13.4937 12.2505H13.5037C13.7689 12.2505 14.0232 12.3558 14.2108 12.5434C14.3983 12.7309 14.5037 12.9853 14.5037 13.2505C14.5037 13.5157 14.3983 13.7701 14.2108 13.9576C14.0232 14.1451 13.7689 14.2505 13.5037 14.2505H13.4937C13.2284 14.2505 12.9741 14.1451 12.7865 13.9576C12.599 13.7701 12.4937 13.5157 12.4937 13.2505ZM8.99365 13.2505C8.99365 12.9853 9.09901 12.7309 9.28655 12.5434C9.47408 12.3558 9.72844 12.2505 9.99365 12.2505H10.0037C10.2689 12.2505 10.5232 12.3558 10.7108 12.5434C10.8983 12.7309 11.0037 12.9853 11.0037 13.2505C11.0037 13.5157 10.8983 13.7701 10.7108 13.9576C10.5232 14.1451 10.2689 14.2505 10.0037 14.2505H9.99365C9.72844 14.2505 9.47408 14.1451 9.28655 13.9576C9.09901 13.7701 8.99365 13.5157 8.99365 13.2505ZM5.49365 13.2505C5.49365 12.9853 5.59901 12.7309 5.78655 12.5434C5.97408 12.3558 6.22844 12.2505 6.49365 12.2505H6.50365C6.76887 12.2505 7.02322 12.3558 7.21076 12.5434C7.3983 12.7309 7.50365 12.9853 7.50365 13.2505C7.50365 13.5157 7.3983 13.7701 7.21076 13.9576C7.02322 14.1451 6.76887 14.2505 6.50365 14.2505H6.49365C6.22844 14.2505 5.97408 14.1451 5.78655 13.9576C5.59901 13.7701 5.49365 13.5157 5.49365 13.2505Z" fill="#CC922F"/>
<path fill-rule="evenodd" clip-rule="evenodd" d="M6.78683 6.75098C6.5576 6.74854 6.32846 6.7609 6.10083 6.78798C4.89183 6.89198 4.09083 7.28798 3.57983 7.88898C3.05983 8.49998 2.74683 9.43198 2.74683 10.791V14.791C2.74683 16.726 3.14083 17.642 3.68883 18.121C4.26283 18.621 5.20383 18.831 6.78683 18.831H7.18683C7.44983 18.831 7.69483 18.915 7.87883 19.008C8.06383 19.101 8.26983 19.246 8.42283 19.445L8.42683 19.451L9.62783 21.052C9.77383 21.248 9.91183 21.284 9.98683 21.284C10.0618 21.284 10.1998 21.248 10.3458 21.052L10.3468 21.051L11.5468 19.451C11.8388 19.062 12.3008 18.831 12.7868 18.831H13.1868C14.5468 18.831 15.4788 18.52 16.0888 18.001C16.6888 17.492 17.0858 16.691 17.1888 15.477L17.1928 15.448C17.2178 15.25 17.2268 15.033 17.2268 14.791V10.791C17.2268 9.31198 16.8568 8.33898 16.2468 7.73098C15.6368 7.12298 14.6658 6.75098 13.1868 6.75098H6.78683ZM5.95883 5.29498C6.23583 5.26098 6.51383 5.25098 6.78683 5.25098H13.1868C14.8978 5.25098 16.3198 5.68098 17.3088 6.66898C18.2968 7.65898 18.7268 9.07898 18.7268 10.791V14.791C18.7268 15.064 18.7168 15.342 18.6828 15.619C18.5538 17.099 18.0408 18.312 17.0598 19.145C16.0848 19.973 14.7568 20.331 13.1868 20.331H12.7868C12.7791 20.3313 12.7716 20.3333 12.7648 20.337C12.7579 20.3403 12.7517 20.345 12.7468 20.351L11.5478 21.95C11.1638 22.464 10.6058 22.784 9.98683 22.784C9.36683 22.784 8.80983 22.464 8.42683 21.95L7.24183 20.37C7.21842 20.3529 7.19242 20.3398 7.16483 20.331H6.78683C5.17983 20.331 3.72683 20.145 2.70183 19.251C1.65283 18.335 1.24683 16.856 1.24683 14.791V10.791C1.24683 9.21998 1.60883 7.89198 2.43683 6.91798C3.27083 5.93698 4.48383 5.42398 5.95883 5.29498Z" fill="#0D257B"/>
</svg>
