<svg width="16" height="16" viewBox="0 0 16 16" fill="none" xmlns="http://www.w3.org/2000/svg">
<path d="M14.2998 2.66656H12.1299C11.7949 1.11563 10.3626 0.001875 8.70005 0H7.29995C5.63735 0.001875 4.20477 1.11563 3.87009 2.66656H1.69989C1.31336 2.66656 1 2.965 1 3.33344C1 3.70187 1.31336 4 1.69989 4H2.39977V12.6666C2.40207 14.5066 3.96787 15.9978 5.89985 16H10.0998C12.0318 15.9978 13.5976 14.5066 13.5999 12.6666V4H14.2998C14.6863 4 14.9997 3.70156 14.9997 3.33344C14.9997 2.96531 14.6866 2.66656 14.2998 2.66656ZM7.29995 1.33344H8.70005C9.58959 1.33437 10.3827 1.86844 10.6803 2.66687H5.31973C5.61734 1.86812 6.41041 1.33437 7.29995 1.33344ZM12.1998 12.6666C12.1998 13.7712 11.2597 14.6666 10.0998 14.6666H5.89985C4.73994 14.6666 3.79987 13.7712 3.79987 12.6666V4H12.1998V12.6666Z" fill="#A90000"/>
<path d="M6.60223 11.9996C6.98876 11.9996 7.30211 11.7012 7.30211 11.3331V7.33307C7.30211 6.96494 6.98876 6.6665 6.60223 6.6665C6.2157 6.6665 5.90234 6.96494 5.90234 7.33307V11.3331C5.90202 11.7012 6.21537 11.9996 6.60223 11.9996Z" fill="#A90000"/>
<path d="M9.3991 12.0001C9.78563 12.0001 10.099 11.7017 10.099 11.3336V7.33355C10.099 6.96543 9.78563 6.66699 9.3991 6.66699C9.01258 6.66699 8.69922 6.96543 8.69922 7.33355V11.3336C8.69922 11.7017 9.01258 12.0001 9.3991 12.0001Z" fill="#A90000"/>
</svg>
