<svg width="1442" height="532" viewBox="0 0 1442 532" fill="none" xmlns="http://www.w3.org/2000/svg">
<g clip-path="url(#clip0_40000205_21311)" filter="url(#filter0_d_40000205_21311)">
<rect width="1440" height="529.202" transform="translate(1)" fill="#F6F9FF"/>
<g opacity="0.14">
<path opacity="0.26" d="M1443.44 -8.63419V192.208L1341.09 251.625L1270.08 292.697L1199.21 251.625L1097 192.208V-8.63419L1270.08 -109.124L1334.68 -71.7482V33.1223L1270.08 -4.25317L1187.36 43.8011V139.91L1236.15 168.249L1270.08 187.964L1304.02 168.249L1353.08 139.91V72.2776H1352.94V-154.166L1443.3 -204V-8.7711L1443.44 -8.63419Z" fill="#0D257B"/>
<path d="M1335.69 706.11L1164.16 606.905L1163.97 489.835L1163.97 408.692L1234.05 368.24L1335.29 309.985L1506.82 409.189L1507.15 607.169L1443.32 644.073L1353.75 592.273L1417.58 555.369L1417.41 460.731L1335.32 413.259L1287.02 441.078L1253.42 460.425L1253.49 499.247L1253.46 555.295L1311.22 588.702L1311.29 588.585L1504.69 700.435L1502.61 802.493L1335.87 706.061L1335.69 706.11Z" fill="#CC922F"/>
</g>
<g clip-path="url(#clip1_40000205_21311)">
<path d="M1053.58 120.61C1038.55 120.63 1024.14 126.609 1013.52 137.234C1002.89 147.86 996.914 162.266 996.895 177.293C996.895 217.987 1049.7 268.954 1051.95 271.104C1052.38 271.528 1052.97 271.765 1053.58 271.765C1054.19 271.765 1054.77 271.528 1055.21 271.104C1057.45 268.954 1110.26 217.987 1110.26 177.293C1110.24 162.266 1104.26 147.86 1093.64 137.234C1083.01 126.609 1068.6 120.63 1053.58 120.61ZM1053.58 203.273C1048.44 203.273 1043.42 201.749 1039.14 198.895C1034.87 196.04 1031.54 191.983 1029.58 187.235C1027.61 182.488 1027.09 177.265 1028.1 172.225C1029.1 167.185 1031.57 162.556 1035.21 158.923C1038.84 155.29 1043.47 152.815 1048.51 151.813C1053.55 150.81 1058.77 151.325 1063.52 153.291C1068.27 155.258 1072.32 158.587 1075.18 162.86C1078.03 167.132 1079.56 172.155 1079.56 177.293C1079.55 184.182 1076.81 190.788 1071.94 195.659C1067.07 200.53 1060.47 203.269 1053.58 203.273Z" fill="#0D257B"/>
<path d="M1044.67 284.358C1044.67 289.526 1048.86 293.715 1054.02 293.715C1059.19 293.715 1063.38 289.526 1063.38 284.358C1063.38 279.191 1059.19 275.001 1054.02 275.001C1048.86 275.001 1044.67 279.191 1044.67 284.358ZM1532.4 318.277C1532.4 323.445 1536.59 327.634 1541.76 327.634C1546.92 327.634 1551.11 323.445 1551.11 318.277C1551.11 313.11 1546.92 308.92 1541.76 308.92C1536.59 308.92 1532.4 313.11 1532.4 318.277ZM1054.02 284.358H1052.27V297.809H1054.02H1055.78V284.358H1054.02ZM1063.38 307.166V308.92H1165.14V307.166V305.411H1063.38V307.166ZM1174.49 297.809H1176.25V273.832H1174.49H1172.74V297.809H1174.49ZM1183.85 264.475V266.229H1197.89V264.475V262.72H1183.85V264.475ZM1207.24 273.832H1205.49V316.523H1207.24H1209V273.832H1207.24ZM1216.6 325.88V327.634H1291.46V325.88V324.125H1216.6V325.88ZM1300.81 335.237H1299.06V342.84H1300.81H1302.57V335.237H1300.81ZM1310.17 352.196V353.951H1318.36V352.196V350.442H1310.17V352.196ZM1327.72 342.839H1329.47V293.715H1327.72H1325.96V342.839H1327.72ZM1337.07 284.358V286.113H1351.11V284.358V282.604H1337.07V284.358ZM1360.47 293.715H1358.71V308.92H1360.47H1362.22V293.715H1360.47ZM1369.82 318.277V320.032H1407.84V318.277V316.523H1369.82V318.277ZM1417.19 327.634H1415.44V347.518H1417.19H1418.95V327.634H1417.19ZM1426.55 356.875V358.629H1437.66V356.875V355.121H1426.55V356.875ZM1447.02 347.518H1448.77V273.832H1447.02H1445.26V347.518H1447.02ZM1456.37 264.475V266.229H1458.71V264.475V262.72H1456.37V264.475ZM1468.07 273.832H1466.32V308.92H1468.07H1469.83V273.832H1468.07ZM1477.43 318.277V320.032H1541.76V318.277V316.523H1477.43V318.277ZM1468.07 308.92H1466.32C1466.32 315.057 1471.29 320.032 1477.43 320.032V318.277V316.523C1473.23 316.523 1469.83 313.119 1469.83 308.92H1468.07ZM1458.71 264.475V266.229C1462.91 266.229 1466.32 269.633 1466.32 273.832H1468.07H1469.83C1469.83 267.695 1464.85 262.72 1458.71 262.72V264.475ZM1447.02 273.832H1448.77C1448.77 269.633 1452.18 266.229 1456.37 266.229V264.475V262.72C1450.24 262.72 1445.26 267.695 1445.26 273.832H1447.02ZM1437.66 356.875V358.629C1443.8 358.629 1448.77 353.655 1448.77 347.518H1447.02H1445.26C1445.26 351.717 1441.86 355.121 1437.66 355.121V356.875ZM1417.19 347.518H1415.44C1415.44 353.655 1420.41 358.629 1426.55 358.629V356.875V355.121C1422.35 355.121 1418.95 351.717 1418.95 347.518H1417.19ZM1407.84 318.277V320.032C1412.03 320.032 1415.44 323.436 1415.44 327.634H1417.19H1418.95C1418.95 321.498 1413.97 316.523 1407.84 316.523V318.277ZM1360.47 308.92H1358.71C1358.71 315.057 1363.69 320.032 1369.82 320.032V318.277V316.523C1365.62 316.523 1362.22 313.119 1362.22 308.92H1360.47ZM1351.11 284.358V286.113C1355.31 286.113 1358.71 289.516 1358.71 293.715H1360.47H1362.22C1362.22 287.579 1357.24 282.604 1351.11 282.604V284.358ZM1327.72 293.715H1329.47C1329.47 289.516 1332.87 286.113 1337.07 286.113V284.358V282.604C1330.94 282.604 1325.96 287.579 1325.96 293.715H1327.72ZM1318.36 352.196V353.951C1324.5 353.951 1329.47 348.976 1329.47 342.839H1327.72H1325.96C1325.96 347.038 1322.56 350.442 1318.36 350.442V352.196ZM1300.81 342.84H1299.06C1299.06 348.976 1304.03 353.951 1310.17 353.951V352.196V350.442C1305.97 350.442 1302.57 347.038 1302.57 342.84H1300.81ZM1291.46 325.88V327.634C1295.66 327.634 1299.06 331.038 1299.06 335.237H1300.81H1302.57C1302.57 329.1 1297.59 324.125 1291.46 324.125V325.88ZM1207.24 316.523H1205.49C1205.49 322.66 1210.46 327.634 1216.6 327.634V325.88V324.125C1212.4 324.125 1209 320.722 1209 316.523H1207.24ZM1197.89 264.475V266.229C1202.09 266.229 1205.49 269.633 1205.49 273.832H1207.24H1209C1209 267.695 1204.02 262.72 1197.89 262.72V264.475ZM1174.49 273.832H1176.25C1176.25 269.633 1179.65 266.229 1183.85 266.229V264.475V262.72C1177.72 262.72 1172.74 267.695 1172.74 273.832H1174.49ZM1165.14 307.166V308.92C1171.27 308.92 1176.25 303.946 1176.25 297.809H1174.49H1172.74C1172.74 302.008 1169.34 305.411 1165.14 305.411V307.166ZM1054.02 297.809H1052.27C1052.27 303.946 1057.24 308.92 1063.38 308.92V307.166V305.411C1059.18 305.411 1055.78 302.008 1055.78 297.809H1054.02Z" fill="#D5A54D"/>
<g clip-path="url(#clip2_40000205_21311)">
<path d="M1097.68 176.135C1097.68 187.656 1093.26 198.163 1086.03 206.018C1085.3 206.798 1084.56 207.558 1083.78 208.279V208.299C1080.7 211.184 1077.23 213.64 1073.43 215.55C1071.35 216.603 1069.18 217.48 1066.94 218.201C1066.34 218.396 1065.73 218.572 1065.11 218.747C1061.43 219.741 1057.57 220.268 1053.59 220.268C1053.18 220.268 1052.75 220.268 1052.34 220.248C1051.31 220.209 1050.3 220.151 1049.3 220.053C1046.05 219.741 1042.89 219.079 1039.87 218.085C1037.76 217.402 1035.71 216.545 1033.76 215.55C1032.81 215.063 1031.87 214.556 1030.98 214.01C1030.98 214.01 1030.96 213.991 1030.94 213.991C1026.98 211.613 1023.43 208.65 1020.41 205.2C1019.67 204.361 1018.97 203.504 1018.31 202.607C1012.77 195.239 1009.48 186.057 1009.48 176.135C1009.48 151.769 1029.22 132.022 1053.59 132.022C1077.94 132.022 1097.68 151.769 1097.68 176.135Z" fill="white"/>
<path d="M1059.79 147.97C1059.79 147.97 1055.15 149.12 1052.75 153.35C1050.33 157.58 1050.49 161.069 1048.17 162.375C1045.85 163.681 1044.23 163.681 1042.67 166.391C1041.11 169.1 1043.45 171.946 1042.26 173.584C1041.07 175.221 1035.93 176.41 1035.97 183.213C1036 190.016 1039.84 195.26 1046.16 197.424C1052.48 199.587 1070.57 189.042 1070.57 189.042L1063.26 156.878L1059.79 147.97Z" fill="black"/>
<path d="M1060.9 147.761C1060.9 147.761 1064.99 149.243 1066.79 153.297C1068.58 157.352 1068.11 160.51 1070.1 161.913C1072.09 163.317 1073.55 163.453 1074.72 166.065C1075.89 168.677 1073.49 171.036 1074.43 172.634C1075.36 174.233 1079.9 175.773 1079.24 181.972C1078.58 188.151 1074.6 192.556 1068.68 193.921C1062.75 195.305 1047.29 184.038 1047.29 184.038L1056.9 155.539L1060.9 147.761Z" fill="black"/>
<path d="M1043.88 194.576L1039.86 218.084C1037.75 217.402 1035.71 216.544 1033.76 215.55C1032.8 215.063 1031.87 214.556 1030.97 214.01C1030.97 214.01 1030.95 213.991 1030.93 213.991C1026.98 211.613 1023.43 208.65 1020.41 205.199C1019.67 204.361 1018.96 203.504 1018.3 202.607L1028.75 190.833C1028.75 190.814 1028.77 190.794 1028.79 190.794C1030.52 188.201 1033.49 186.681 1036.6 186.72L1041.07 186.778L1043.88 194.576Z" fill="#FFD8A0"/>
<path d="M1074.96 193.714L1074.42 201.356L1074.36 202.272L1074.34 202.486L1074.09 205.956L1073.89 208.763L1073.41 215.527C1071.32 216.58 1069.16 217.457 1066.91 218.178C1062.7 219.523 1058.22 220.244 1053.56 220.244C1053.13 220.244 1052.72 220.244 1052.31 220.225C1051.3 220.205 1050.29 220.127 1049.27 220.03C1043.74 219.504 1038.47 217.944 1033.74 215.547C1032.78 215.059 1031.85 214.552 1030.95 214.007L1032.24 209.504L1032.88 207.262C1032.94 207.048 1033 206.833 1033.07 206.619L1034.67 201.063L1035.41 198.451C1035.41 198.432 1035.43 198.393 1035.43 198.373L1037.71 190.439L1038.73 186.892L1041.07 186.833L1048.32 186.658L1051.05 186.599L1061.49 186.346H1061.59L1067.56 186.209H1067.62H1067.81C1068.57 186.19 1069.29 186.287 1069.97 186.502C1072.16 187.145 1073.89 188.841 1074.61 191.005C1074.93 191.843 1075.04 192.759 1074.96 193.714Z" fill="#FFD8A0"/>
<path d="M1030.91 214.556C1030.85 214.556 1030.81 214.556 1030.75 214.536C1030.46 214.458 1030.28 214.146 1030.36 213.835C1030.79 212.334 1031.24 210.833 1031.69 209.351C1031.9 208.61 1032.12 207.85 1032.35 207.109L1032.53 206.466C1033.07 204.595 1033.62 202.743 1034.14 200.911C1034.4 200.033 1034.63 199.156 1034.87 198.299L1034.9 198.182C1035 197.889 1035.31 197.733 1035.63 197.831C1035.92 197.928 1036.07 198.26 1035.98 198.533C1035.72 199.449 1035.49 200.306 1035.24 201.184C1034.71 203.016 1034.16 204.887 1033.62 206.759L1033.44 207.402C1033.23 208.143 1032.99 208.903 1032.78 209.644C1032.33 211.145 1031.9 212.646 1031.47 214.127C1031.38 214.4 1031.14 214.556 1030.91 214.556Z" fill="#323232"/>
<path d="M1048.34 188.091L1048.19 174.933L1060.25 171.697L1061.5 185.596C1061.62 186.824 1061.21 188.032 1060.39 188.929C1059.05 190.411 1056.63 192.36 1053.14 192.36C1048.58 192.379 1048.34 188.091 1048.34 188.091Z" fill="white"/>
<path d="M1053.14 192.941C1048.09 192.941 1047.78 188.165 1047.78 188.126V188.106L1047.62 174.948C1047.62 174.695 1047.8 174.461 1048.03 174.403L1060.1 171.167C1060.25 171.128 1060.43 171.147 1060.56 171.245C1060.7 171.342 1060.78 171.498 1060.8 171.654L1062.05 185.553C1062.16 186.937 1061.71 188.301 1060.8 189.315C1059.34 190.972 1056.8 192.941 1053.14 192.941ZM1048.91 188.067C1048.93 188.34 1049.26 191.81 1053.14 191.81C1056.37 191.81 1058.65 190.056 1059.98 188.574C1060.68 187.794 1061.03 186.722 1060.93 185.65L1059.75 172.414L1048.73 175.358L1048.91 188.067Z" fill="black"/>
<path d="M1060.51 173.483C1065.95 166.894 1064.08 156.738 1064.08 156.738L1046.3 150.461C1045.99 150.734 1039.75 156.446 1039.22 167.225C1038.79 176.114 1047.55 180.598 1056.42 176.777" fill="white"/>
<path d="M1050.04 178.703C1047.47 178.703 1045.05 178.02 1043.06 176.636C1040.04 174.531 1038.46 171.178 1038.66 167.182C1039.16 156.52 1045.23 150.672 1045.91 150.028C1046.06 149.892 1046.28 149.833 1046.47 149.911L1064.25 156.188C1064.45 156.247 1064.58 156.422 1064.62 156.617C1064.7 157.046 1066.49 167.104 1060.94 173.829C1060.74 174.063 1060.39 174.102 1060.14 173.907C1059.9 173.712 1059.87 173.362 1060.06 173.108C1064.74 167.436 1063.8 158.878 1063.55 157.143L1046.42 151.081C1045.13 152.348 1040.22 157.806 1039.77 167.221C1039.59 170.808 1040.98 173.829 1043.69 175.701C1046.98 177.981 1051.66 178.176 1056.16 176.227C1056.45 176.11 1056.79 176.227 1056.9 176.519C1057.02 176.812 1056.9 177.143 1056.61 177.26C1054.43 178.235 1052.18 178.703 1050.04 178.703Z" fill="black"/>
<path d="M1058.66 165.369C1059.91 165.876 1060.71 163.595 1060.71 163.595C1062.23 167.241 1063.24 170.827 1060.16 173.985L1060.22 174.492L1071.68 173.849C1071.39 167.338 1070.79 160.106 1069.6 156.324C1067.1 148.391 1056.87 144.59 1047.67 146.597C1041.86 147.864 1040.98 151.821 1042.19 155.525C1043.57 159.736 1052.79 158.644 1057.47 161.1C1058.23 161.49 1058.06 165.135 1058.66 165.369Z" fill="black"/>
<path d="M1061.59 186.142L1061.61 186.356L1065.76 186.22C1066.81 186.22 1067.77 186.044 1068.6 185.732L1061.59 186.142Z" fill="black"/>
<path d="M1044.96 162.794C1044.79 163.438 1044.32 163.847 1043.89 163.75C1043.46 163.633 1043.25 163.028 1043.42 162.405C1043.6 161.761 1044.06 161.352 1044.49 161.449C1044.92 161.547 1045.14 162.151 1044.96 162.794Z" fill="black"/>
<path d="M1043.59 160.2C1044.39 159.927 1045.31 160.18 1045.93 160.882L1043.59 160.2Z" fill="white"/>
<path d="M1045.93 161.449C1045.78 161.449 1045.62 161.391 1045.52 161.254C1045.06 160.728 1044.37 160.513 1043.79 160.728C1043.5 160.825 1043.19 160.669 1043.07 160.377C1042.97 160.085 1043.13 159.773 1043.42 159.656C1044.43 159.305 1045.58 159.636 1046.36 160.494C1046.58 160.728 1046.56 161.079 1046.32 161.293C1046.21 161.391 1046.07 161.449 1045.93 161.449Z" fill="black"/>
<path d="M1051.98 165.291C1051.92 165.934 1051.51 166.441 1051.06 166.402C1050.63 166.363 1050.32 165.797 1050.38 165.135C1050.44 164.491 1050.85 163.985 1051.29 164.024C1051.74 164.082 1052.04 164.647 1051.98 165.291Z" fill="black"/>
<path d="M1050.5 162.852C1051.28 162.54 1052.21 162.793 1052.85 163.456L1050.5 162.852Z" fill="white"/>
<path d="M1052.87 164.024C1052.71 164.024 1052.57 163.965 1052.46 163.848C1051.97 163.341 1051.29 163.146 1050.7 163.38C1050.41 163.497 1050.1 163.341 1049.98 163.068C1049.86 162.776 1050.02 162.445 1050.29 162.347C1051.31 161.957 1052.46 162.25 1053.28 163.088C1053.49 163.322 1053.47 163.673 1053.26 163.887C1053.14 163.965 1053 164.024 1052.87 164.024Z" fill="black"/>
<path d="M1060.11 164.096C1060.11 164.096 1063.91 160.587 1065.93 161.406C1067.94 162.205 1066.89 169.398 1064.41 169.964C1061.96 170.548 1060.05 169.496 1060.05 169.496" fill="white"/>
<path d="M1062.92 170.713C1061.11 170.713 1059.86 170.03 1059.78 170.011C1059.51 169.855 1059.41 169.524 1059.55 169.251C1059.71 168.978 1060.04 168.88 1060.31 169.017C1060.33 169.017 1062.08 169.952 1064.29 169.426C1065.28 169.192 1066.22 167.145 1066.39 164.845C1066.53 163.091 1066.14 162.116 1065.71 161.941C1064.48 161.453 1061.85 163.266 1060.49 164.533C1060.25 164.748 1059.9 164.728 1059.69 164.494C1059.47 164.26 1059.49 163.91 1059.72 163.695C1060.13 163.305 1063.86 159.991 1066.14 160.888C1067.17 161.297 1067.68 162.779 1067.52 164.923C1067.33 167.399 1066.26 170.128 1064.56 170.518C1063.97 170.654 1063.43 170.713 1062.92 170.713Z" fill="black"/>
<path d="M1064.26 167.117C1064.18 167.117 1064.08 167.097 1064.01 167.058C1063.73 166.922 1063.62 166.571 1063.75 166.298C1063.95 165.928 1064.04 165.518 1064.08 165.109C1064.1 164.875 1064.06 164.797 1064.06 164.797C1064.06 164.797 1064.04 164.797 1064.03 164.797C1064.03 164.797 1064.01 164.797 1063.99 164.797C1063.91 164.816 1063.83 164.855 1063.71 164.933C1063.54 165.07 1063.38 165.226 1063.27 165.421C1063.11 165.694 1062.76 165.772 1062.49 165.616C1062.21 165.46 1062.13 165.109 1062.29 164.836C1062.49 164.505 1062.76 164.232 1063.07 164.017C1063.32 163.842 1063.58 163.725 1063.83 163.686C1064.2 163.627 1064.57 163.744 1064.82 163.978C1065.12 164.251 1065.25 164.641 1065.21 165.167C1065.18 165.733 1065.02 166.278 1064.77 166.785C1064.67 167 1064.47 167.117 1064.26 167.117Z" fill="black"/>
<path d="M1047.02 164.586C1046.56 165.405 1046.11 166.243 1045.64 167.062C1045.37 167.568 1045.08 168.075 1045.09 168.641C1045.09 169.186 1045.48 169.791 1046.15 169.947" fill="white"/>
<path d="M1046.15 170.515C1046.11 170.515 1046.07 170.515 1046.03 170.495C1045.07 170.281 1044.55 169.403 1044.55 168.643C1044.53 167.922 1044.88 167.298 1045.17 166.791L1046.56 164.316C1046.71 164.043 1047.04 163.945 1047.32 164.101C1047.59 164.257 1047.69 164.589 1047.53 164.862L1046.15 167.337C1045.91 167.766 1045.66 168.214 1045.66 168.624C1045.66 168.936 1045.87 169.306 1046.26 169.384C1046.56 169.442 1046.75 169.754 1046.69 170.047C1046.63 170.339 1046.4 170.515 1046.15 170.515Z" fill="black"/>
<path d="M1048.55 173.883C1048.06 173.883 1047.59 173.786 1047.14 173.61C1046.85 173.493 1046.71 173.162 1046.83 172.87C1046.95 172.577 1047.28 172.441 1047.57 172.558C1048.2 172.811 1048.94 172.811 1049.56 172.558C1050.18 172.304 1050.71 171.778 1050.96 171.154C1051.08 170.862 1051.41 170.725 1051.7 170.862C1052 170.979 1052.13 171.31 1052 171.602C1051.63 172.499 1050.89 173.24 1049.99 173.61C1049.52 173.786 1049.03 173.883 1048.55 173.883Z" fill="black"/>
<path d="M1086.01 206.021C1085.29 206.8 1084.55 207.561 1083.77 208.282V208.301C1080.69 211.186 1077.22 213.642 1073.42 215.553C1071.34 216.605 1069.17 217.483 1066.93 218.204C1066.33 218.399 1065.72 218.574 1065.1 218.75L1065.21 193.74V191.927L1065.25 186.352L1067.57 186.255H1067.63L1068.94 186.196C1069.27 186.196 1069.58 186.177 1069.91 186.196C1072.45 186.255 1074.9 187.015 1077.01 188.379C1077.89 188.925 1078.7 189.607 1079.43 190.368C1080.54 191.537 1081.51 192.863 1082.25 194.208C1082.76 195.105 1083.15 196.04 1083.42 196.995L1086.01 206.021Z" fill="#FFD8A0"/>
<path d="M1068.23 218.316C1067.94 218.316 1067.7 218.102 1067.66 217.809L1066.16 201.123C1066.14 200.811 1066.36 200.538 1066.67 200.519C1066.96 200.48 1067.25 200.714 1067.27 201.026L1068.77 217.712C1068.79 218.024 1068.58 218.297 1068.27 218.316C1068.25 218.316 1068.23 218.316 1068.23 218.316Z" fill="#323232"/>
</g>
<rect x="1014.12" y="136.662" width="78.9214" height="78.9214" rx="39.4607" stroke="#0D257B" stroke-width="3.31603"/>
</g>
</g>
<defs>
<filter id="filter0_d_40000205_21311" x="0" y="0" width="1442" height="531.202" filterUnits="userSpaceOnUse" color-interpolation-filters="sRGB">
<feFlood flood-opacity="0" result="BackgroundImageFix"/>
<feColorMatrix in="SourceAlpha" type="matrix" values="0 0 0 0 0 0 0 0 0 0 0 0 0 0 0 0 0 0 127 0" result="hardAlpha"/>
<feOffset dy="1"/>
<feGaussianBlur stdDeviation="0.5"/>
<feComposite in2="hardAlpha" operator="out"/>
<feColorMatrix type="matrix" values="0 0 0 0 0 0 0 0 0 0 0 0 0 0 0 0 0 0 0.08 0"/>
<feBlend mode="normal" in2="BackgroundImageFix" result="effect1_dropShadow_40000205_21311"/>
<feBlend mode="normal" in="SourceGraphic" in2="effect1_dropShadow_40000205_21311" result="shape"/>
</filter>
<clipPath id="clip0_40000205_21311">
<rect width="1440" height="529.202" fill="white" transform="translate(1)"/>
</clipPath>
<clipPath id="clip1_40000205_21311">
<rect width="593" height="264.335" fill="white" transform="translate(978 120.61)"/>
</clipPath>
<clipPath id="clip2_40000205_21311">
<rect x="1014.12" y="136.662" width="78.9214" height="78.9214" rx="39.4607" fill="white"/>
</clipPath>
</defs>
</svg>
