<svg width="53" height="53" viewBox="0 0 53 53" fill="none" xmlns="http://www.w3.org/2000/svg">
<circle cx="26.5" cy="26.5" r="26" transform="matrix(1 0 0 -1 0 53)" fill="white"/>
<circle cx="26.5" cy="26.5" r="26" transform="matrix(1 0 0 -1 0 53)" fill="#0D257B" fill-opacity="0.03"/>
<circle cx="26.5" cy="26.5" r="26" transform="matrix(1 0 0 -1 0 53)" stroke="#0D257B"/>
<g clip-path="url(#clip0_40001856_25480)">
<path d="M18.9048 29.2206C17.6856 30.4398 17 32.0929 17 33.8178V36.0004H19.1826C20.9074 36.0004 22.5605 35.3148 23.7805 34.0955L33.991 23.885C35.3368 22.5392 35.3368 20.3552 33.991 19.0101C32.6451 17.665 30.4612 17.6643 29.116 19.0101L18.9048 29.2206Z" fill="#0D257B"/>
</g>
<defs>
<clipPath id="clip0_40001856_25480">
<rect width="18" height="18" fill="white" transform="translate(17 18)"/>
</clipPath>
</defs>
</svg>
