<svg width="16" height="14" viewBox="0 0 16 14" fill="none" xmlns="http://www.w3.org/2000/svg">
<path d="M15.511 5.16624C14.4773 3.37676 12.1263 0.374573 7.99969 0.374573C3.87309 0.374573 1.52209 3.37676 0.488725 5.16624C-0.162908 6.28663 -0.162908 7.70254 0.488725 8.82292C1.5224 10.6124 3.87341 13.6146 8 13.6146C12.1266 13.6146 14.4776 10.6124 15.5113 8.82292C16.1629 7.70254 16.1629 6.28663 15.511 5.16624ZM14.3748 8.08143C13.487 9.61589 11.4778 12.198 8 12.198C4.52223 12.198 2.51266 9.61556 1.62487 8.08143C1.23782 7.41531 1.23782 6.57419 1.62487 5.90807C2.51266 4.37361 4.52192 1.79149 7.99969 1.79149C11.4775 1.79149 13.487 4.37062 14.3745 5.90807C14.7619 6.57386 14.7619 7.41531 14.3748 8.08143Z" fill="#6D6D6D"/>
<path d="M8.00017 3.45184C6.15991 3.45184 4.66797 5.03778 4.66797 6.99396C4.66797 8.95015 6.15991 10.5361 8.00017 10.5361C9.84042 10.5361 11.3324 8.95015 11.3324 6.99396C11.3302 5.03877 9.8398 3.45417 8.00017 3.45184ZM8.00017 9.11917C6.89589 9.11917 6.00091 8.1678 6.00091 6.99396C6.00091 5.82012 6.89589 4.86876 8.00017 4.86876C9.10445 4.86876 9.99943 5.82012 9.99943 6.99396C9.99943 8.1678 9.10445 9.11917 8.00017 9.11917Z" fill="#6D6D6D"/>
</svg>
