<svg width="450" height="438" viewBox="0 0 450 438" fill="none" xmlns="http://www.w3.org/2000/svg">
<g clip-path="url(#clip0_13727_31303)">
<g opacity="0.14">
<path opacity="0.26" d="M452.024 -103.47V97.3719L349.674 156.789L278.669 197.861L207.8 156.789L105.586 97.3719V-103.47L278.669 -203.96L343.268 -166.584V-61.7136L278.669 -99.0891L195.943 -51.0349V45.0736L244.734 73.4133L278.669 93.1278L312.604 73.4133L361.667 45.0736V-22.5583H361.531V-249.002L451.888 -298.836V-103.607L452.024 -103.47Z" fill="#0D257B"/>
<path d="M344.276 611.274L172.743 512.069L172.555 394.999L172.552 313.856L242.638 273.404L343.877 215.149L515.41 314.353L515.735 512.333L451.903 549.237L362.336 497.437L426.168 460.533L425.991 365.895L343.908 318.423L295.603 346.242L262.002 365.589L262.076 404.411L262.044 460.459L319.806 493.866L319.873 493.749L513.272 605.599L511.199 707.657L344.46 611.225L344.276 611.274Z" fill="#CC922F"/>
</g>
<g clip-path="url(#clip1_13727_31303)">
<path d="M62.1635 28.7744C47.1363 28.7943 32.7303 34.7727 22.1045 45.3985C11.4787 56.0243 5.5004 70.4303 5.48047 85.4574C5.48047 126.151 58.2901 177.118 60.5338 179.268C60.9702 179.692 61.5549 179.929 62.1635 179.929C62.772 179.929 63.3567 179.692 63.7931 179.268C66.0368 177.118 118.846 126.151 118.846 85.4574C118.826 70.4303 112.848 56.0243 102.222 45.3985C91.5965 34.7727 77.1906 28.7943 62.1635 28.7744ZM62.1635 111.437C57.0252 111.437 52.0022 109.913 47.7299 107.059C43.4576 104.204 40.1277 100.147 38.1613 95.3994C36.195 90.6522 35.6805 85.4286 36.6829 80.389C37.6854 75.3494 40.1597 70.7203 43.793 67.087C47.4264 63.4536 52.0555 60.9793 57.0951 59.9769C62.1346 58.9745 67.3583 59.4889 72.1055 61.4553C76.8526 63.4216 80.9101 66.7515 83.7648 71.0238C86.6195 75.2962 88.1432 80.3191 88.1432 85.4574C88.139 92.3464 85.4006 98.952 80.5293 103.823C75.6581 108.694 69.0524 111.433 62.1635 111.437Z" fill="#0D257B"/>
<path d="M53.2524 192.522C53.2524 197.69 57.4416 201.879 62.6094 201.879C67.7771 201.879 71.9664 197.69 71.9664 192.522C71.9664 187.354 67.7771 183.165 62.6094 183.165C57.4416 183.165 53.2524 187.354 53.2524 192.522ZM540.986 226.441C540.986 231.609 545.175 235.798 550.343 235.798C555.511 235.798 559.7 231.609 559.7 226.441C559.7 221.274 555.511 217.084 550.343 217.084C545.175 217.084 540.986 221.274 540.986 226.441ZM62.6094 192.522H60.8549V205.973H62.6094H64.3638V192.522H62.6094ZM71.9664 215.33V217.084H173.724V215.33V213.575H71.9664V215.33ZM183.081 205.973H184.835V181.995H183.081H181.326V205.973H183.081ZM192.438 172.638V174.393H206.473V172.638V170.884H192.438V172.638ZM215.83 181.995H214.076V224.687H215.83H217.585V181.995H215.83ZM225.187 234.044V235.798H300.043V234.044V232.289H225.187V234.044ZM309.4 243.401H307.646V251.003H309.4H311.155V243.401H309.4ZM318.757 260.36V262.115H326.945V260.36V258.606H318.757V260.36ZM336.302 251.003H338.056V201.879H336.302H334.547V251.003H336.302ZM345.659 192.522V194.277H359.694V192.522V190.768H345.659V192.522ZM369.051 201.879H367.297V217.084H369.051H370.806V201.879H369.051ZM378.408 226.441V228.196H416.421V226.441V224.687H378.408V226.441ZM425.778 235.798H424.024V255.682H425.778H427.532V235.798H425.778ZM435.135 265.039V266.793H446.246V265.039V263.284H435.135V265.039ZM455.603 255.682H457.358V181.995H455.603H453.849V255.682H455.603ZM464.96 172.638V174.393H467.3V172.638V170.884H464.96V172.638ZM476.657 181.995H474.902V217.084H476.657H478.411V181.995H476.657ZM486.014 226.441V228.196H550.343V226.441V224.687H486.014V226.441ZM476.657 217.084H474.902C474.902 223.221 479.877 228.196 486.014 228.196V226.441V224.687C481.815 224.687 478.411 221.283 478.411 217.084H476.657ZM467.3 172.638V174.393C471.499 174.393 474.902 177.797 474.902 181.995H476.657H478.411C478.411 175.859 473.436 170.884 467.3 170.884V172.638ZM455.603 181.995H457.358C457.358 177.797 460.762 174.393 464.96 174.393V172.638V170.884C458.824 170.884 453.849 175.859 453.849 181.995H455.603ZM446.246 265.039V266.793C452.383 266.793 457.358 261.819 457.358 255.682H455.603H453.849C453.849 259.881 450.445 263.284 446.246 263.284V265.039ZM425.778 255.682H424.024C424.024 261.819 428.998 266.793 435.135 266.793V265.039V263.284C430.936 263.284 427.532 259.881 427.532 255.682H425.778ZM416.421 226.441V228.196C420.62 228.196 424.024 231.599 424.024 235.798H425.778H427.532C427.532 229.662 422.558 224.687 416.421 224.687V226.441ZM369.051 217.084H367.297C367.297 223.221 372.272 228.196 378.408 228.196V226.441V224.687C374.209 224.687 370.806 221.283 370.806 217.084H369.051ZM359.694 192.522V194.277C363.893 194.277 367.297 197.68 367.297 201.879H369.051H370.806C370.806 195.742 365.831 190.768 359.694 190.768V192.522ZM336.302 201.879H338.056C338.056 197.68 341.46 194.277 345.659 194.277V192.522V190.768C339.522 190.768 334.547 195.742 334.547 201.879H336.302ZM326.945 260.36V262.115C333.081 262.115 338.056 257.14 338.056 251.003H336.302H334.547C334.547 255.202 331.143 258.606 326.945 258.606V260.36ZM309.4 251.003H307.646C307.646 257.14 312.621 262.115 318.757 262.115V260.36V258.606C314.559 258.606 311.155 255.202 311.155 251.003H309.4ZM300.043 234.044V235.798C304.242 235.798 307.646 239.202 307.646 243.401H309.4H311.155C311.155 237.264 306.18 232.289 300.043 232.289V234.044ZM215.83 224.687H214.076C214.076 230.823 219.051 235.798 225.187 235.798V234.044V232.289C220.989 232.289 217.585 228.886 217.585 224.687H215.83ZM206.473 172.638V174.393C210.672 174.393 214.076 177.797 214.076 181.995H215.83H217.585C217.585 175.859 212.61 170.884 206.473 170.884V172.638ZM183.081 181.995H184.835C184.835 177.797 188.239 174.393 192.438 174.393V172.638V170.884C186.301 170.884 181.326 175.859 181.326 181.995H183.081ZM173.724 215.33V217.084C179.86 217.084 184.835 212.109 184.835 205.973H183.081H181.326C181.326 210.172 177.923 213.575 173.724 213.575V215.33ZM62.6094 205.973H60.8549C60.8549 212.109 65.8297 217.084 71.9664 217.084V215.33V213.575C67.7676 213.575 64.3638 210.172 64.3638 205.973H62.6094Z" fill="#D5A54D"/>
<g clip-path="url(#clip2_13727_31303)">
<path d="M106.269 84.2994C106.269 95.8198 101.844 106.327 94.6119 114.182C93.8907 114.962 93.15 115.722 92.3702 116.444V116.463C89.2903 119.348 85.8205 121.804 82.0194 123.714C79.9336 124.767 77.7699 125.644 75.5282 126.366C74.9239 126.56 74.3196 126.736 73.6958 126.911C70.0116 127.905 66.152 128.432 62.1754 128.432C61.7661 128.432 61.3372 128.432 60.9278 128.412C59.8947 128.373 58.8811 128.315 57.8869 128.217C54.6316 127.905 51.4737 127.243 48.4523 126.249C46.347 125.566 44.3002 124.709 42.3509 123.714C41.3958 123.227 40.4601 122.72 39.5634 122.175C39.5634 122.175 39.5439 122.155 39.5244 122.155C35.5673 119.777 32.0196 116.814 28.9981 113.364C28.2574 112.525 27.5557 111.668 26.8929 110.771C21.3568 103.403 18.0625 94.2214 18.0625 84.2994C18.0625 59.933 37.809 40.1865 62.1754 40.1865C86.5223 40.1865 106.269 59.933 106.269 84.2994Z" fill="white"/>
<path d="M68.3716 56.1338C68.3716 56.1338 63.7322 57.2839 61.3346 61.5139C58.9174 65.7439 59.0734 69.2332 56.7537 70.5392C54.434 71.8452 52.8161 71.8452 51.2566 74.5548C49.6972 77.2643 52.0364 80.1103 50.8473 81.7477C49.6582 83.3851 44.512 84.5742 44.551 91.3773C44.59 98.1804 48.4301 103.424 54.7459 105.588C61.0617 107.752 79.1513 97.2058 79.1513 97.2058L71.8413 65.0421L68.3716 56.1338Z" fill="black"/>
<path d="M69.4851 55.9253C69.4851 55.9253 73.5786 57.4068 75.372 61.4613C77.1654 65.5159 76.6975 68.6738 78.6858 70.0773C80.6741 71.4808 82.1361 71.6172 83.3057 74.2293C84.4753 76.8414 82.0776 79.2001 83.0133 80.7985C83.949 82.3969 88.4909 83.9369 87.8281 90.1357C87.1653 96.315 83.1888 100.72 77.2629 102.085C71.337 103.469 55.8789 92.202 55.8789 92.202L65.489 63.703L69.4851 55.9253Z" fill="black"/>
<path d="M52.4617 102.74L48.4461 126.248C46.3408 125.566 44.2941 124.708 42.3447 123.714C41.3896 123.227 40.4539 122.72 39.5572 122.174C39.5572 122.174 39.5377 122.155 39.5182 122.155C35.5611 119.777 32.0134 116.814 28.992 113.363C28.2512 112.525 27.5495 111.668 26.8867 110.771L37.335 98.9971C37.335 98.9776 37.3545 98.9581 37.374 98.9581C39.1089 96.3655 42.0718 94.845 45.1907 94.884L49.6547 94.9425L52.4617 102.74Z" fill="#FFD8A0"/>
<path d="M83.5506 101.878L83.0048 109.52L82.9463 110.436L82.9268 110.65L82.6734 114.12L82.4785 116.927L81.9911 123.691C79.9054 124.744 77.7417 125.621 75.5 126.342C71.2894 127.687 66.806 128.409 62.1472 128.409C61.7183 128.409 61.309 128.408 60.8996 128.389C59.886 128.37 58.8723 128.292 57.8587 128.194C52.3226 127.668 47.0595 126.108 42.3227 123.711C41.3675 123.223 40.4318 122.717 39.5352 122.171L40.8217 117.668L41.465 115.426C41.5235 115.212 41.5819 114.997 41.6599 114.783L43.2583 109.227L43.9991 106.615C43.9991 106.596 44.0186 106.557 44.0186 106.537L46.2993 98.6035L47.3129 95.0558L49.6521 94.9973L56.9035 94.8219L59.6326 94.7634L70.0809 94.51H70.1783L76.1432 94.3735H76.2017H76.3966C77.1569 94.354 77.8781 94.4515 78.5604 94.6659C80.7436 95.3092 82.4785 97.0051 83.1997 99.1688C83.5116 100.007 83.6286 100.923 83.5506 101.878Z" fill="#FFD8A0"/>
<path d="M39.494 122.72C39.4355 122.72 39.3966 122.72 39.3381 122.7C39.0457 122.622 38.8702 122.311 38.9482 121.999C39.3771 120.498 39.8254 118.997 40.2737 117.515C40.4882 116.775 40.7026 116.014 40.9365 115.274L41.112 114.63C41.6578 112.759 42.2036 110.907 42.7299 109.075C42.9833 108.198 43.2172 107.32 43.4511 106.463L43.4901 106.346C43.5876 106.053 43.8995 105.897 44.2113 105.995C44.5037 106.092 44.6597 106.424 44.5622 106.697C44.3088 107.613 44.0749 108.47 43.8215 109.348C43.2952 111.18 42.7494 113.051 42.2036 114.923L42.0281 115.566C41.8137 116.307 41.5798 117.067 41.3654 117.808C40.917 119.309 40.4882 120.81 40.0593 122.291C39.9619 122.564 39.7279 122.72 39.494 122.72Z" fill="#323232"/>
<path d="M56.9294 96.2552L56.7734 83.0973L68.8397 79.8615L70.0872 93.76C70.2042 94.9881 69.7948 96.1967 68.9761 97.0934C67.6311 98.5748 65.2139 100.524 61.7247 100.524C57.1633 100.544 56.9294 96.2552 56.9294 96.2552Z" fill="white"/>
<path d="M61.7236 101.105C56.6749 101.105 56.363 96.3288 56.363 96.2898V96.2703L56.207 83.1125C56.207 82.8591 56.3825 82.6252 56.6164 82.5667L68.6826 79.3308C68.8386 79.2919 69.014 79.3113 69.1504 79.4088C69.2869 79.5063 69.3649 79.6622 69.3844 79.8182L70.6319 93.7168C70.7489 95.1008 70.3006 96.4653 69.3844 97.4789C67.9224 99.1358 65.3883 101.105 61.7236 101.105ZM57.4936 96.2314C57.5131 96.5043 57.8444 99.974 61.7236 99.974C64.9594 99.974 67.2401 98.2197 68.5657 96.7382C69.2674 95.9585 69.6183 94.8863 69.5208 93.8142L68.3317 80.5784L57.3181 83.5219L57.4936 96.2314Z" fill="black"/>
<path d="M69.0946 81.6468C74.5332 75.0582 72.6618 64.9023 72.6618 64.9023L54.8841 58.6255C54.5722 58.8984 48.3344 64.6099 47.8081 75.3896C47.3793 84.2784 56.1317 88.7618 65.001 84.9412" fill="white"/>
<path d="M58.6267 86.8668C56.0536 86.8668 53.6364 86.1845 51.6481 84.8005C48.6267 82.6952 47.0478 79.3424 47.2427 75.3463C47.7495 64.6836 53.8119 58.8357 54.4941 58.1924C54.6501 58.056 54.8645 57.9975 55.0594 58.0755L72.8371 64.3522C73.0321 64.4107 73.1685 64.5862 73.2075 64.7811C73.2855 65.2099 75.0788 75.2684 69.5233 81.9935C69.3284 82.2274 68.9775 82.2664 68.7241 82.0715C68.4902 81.8765 68.4512 81.5257 68.6461 81.2722C73.3245 75.5998 72.3888 67.0423 72.1354 65.3074L55.0009 59.245C53.7144 60.5121 48.8021 65.9702 48.3538 75.3853C48.1784 78.9721 49.5624 81.9935 52.2719 83.8648C55.5662 86.1455 60.2446 86.3405 64.7475 84.3911C65.0399 84.2742 65.3713 84.3911 65.4882 84.6835C65.6052 84.9759 65.4882 85.3073 65.1958 85.4243C63.0126 86.3989 60.7709 86.8668 58.6267 86.8668Z" fill="black"/>
<path d="M67.2473 73.5333C68.4948 74.0401 69.2941 71.7594 69.2941 71.7594C70.8145 75.4046 71.8282 78.9913 68.7482 82.1492L68.8067 82.656L80.2687 82.0128C79.9763 75.5021 79.372 68.2701 78.1829 64.4885C75.6878 56.5548 65.4539 52.7536 56.2532 54.7614C50.4442 56.0285 49.567 59.9856 50.7756 63.6892C52.1596 67.8998 61.3799 66.8081 66.0582 69.2643C66.8184 69.6541 66.643 73.2993 67.2473 73.5333Z" fill="black"/>
<path d="M70.1719 94.3058L70.1914 94.5203L74.3434 94.3838C75.396 94.3838 76.3512 94.2084 77.1894 93.8965L70.1719 94.3058Z" fill="black"/>
<path d="M53.5466 70.9585C53.3712 71.6017 52.9034 72.0111 52.4745 71.9136C52.0457 71.7967 51.8313 71.1924 52.0067 70.5686C52.1821 69.9253 52.65 69.516 53.0788 69.6134C53.5077 69.7109 53.7221 70.3152 53.5466 70.9585Z" fill="black"/>
<path d="M52.1797 68.3639C52.9789 68.091 53.8951 68.3444 54.5189 69.0461L52.1797 68.3639Z" fill="white"/>
<path d="M54.5195 69.6131C54.3635 69.6131 54.2076 69.5546 54.1101 69.4182C53.6423 68.8919 52.96 68.6775 52.3752 68.8919C52.0828 68.9893 51.771 68.8334 51.654 68.541C51.5565 68.2486 51.7125 67.9367 52.0049 67.8198C53.0185 67.4689 54.1686 67.8003 54.9483 68.658C55.1628 68.8919 55.1433 69.2428 54.9093 69.4572C54.7924 69.5546 54.6559 69.6131 54.5195 69.6131Z" fill="black"/>
<path d="M60.5625 73.4547C60.504 74.098 60.0947 74.6048 59.6463 74.5658C59.2175 74.5268 58.9056 73.9615 58.9641 73.2988C59.0226 72.6555 59.4319 72.1487 59.8803 72.1877C60.3286 72.2461 60.621 72.8114 60.5625 73.4547Z" fill="black"/>
<path d="M59.082 71.0158C59.8618 70.7039 60.7974 70.9574 61.4407 71.6201L59.082 71.0158Z" fill="white"/>
<path d="M61.4516 72.1876C61.2957 72.1876 61.1592 72.1292 61.0422 72.0122C60.5549 71.5054 59.8727 71.3104 59.2879 71.5444C58.9955 71.6613 58.6836 71.5054 58.5666 71.2325C58.4497 70.9401 58.6056 70.6087 58.8785 70.5112C59.8922 70.1214 61.0423 70.4138 61.861 71.252C62.0754 71.4859 62.0559 71.8368 61.8415 72.0512C61.7245 72.1292 61.5881 72.1876 61.4516 72.1876Z" fill="black"/>
<path d="M68.6913 72.2602C68.6913 72.2602 72.4924 68.7514 74.5197 69.5701C76.5275 70.3693 75.4749 77.5623 72.9993 78.1276C70.5431 78.7124 68.6328 77.6598 68.6328 77.6598" fill="white"/>
<path d="M71.5077 78.8767C69.6949 78.8767 68.4473 78.1945 68.3694 78.175C68.0965 78.019 67.999 77.6876 68.1355 77.4147C68.2914 77.1418 68.6228 77.0444 68.8957 77.1808C68.9152 77.1808 70.6695 78.1165 72.8723 77.5902C73.8664 77.3563 74.8021 75.3095 74.9775 73.0093C75.114 71.2549 74.7241 70.2803 74.2953 70.1048C73.0672 69.6175 70.4356 71.4303 69.0711 72.6974C68.8372 72.9118 68.4863 72.8923 68.2719 72.6584C68.0575 72.4245 68.077 72.0736 68.3109 71.8592C68.7203 71.4693 72.4434 68.1555 74.7241 69.0522C75.7572 69.4615 76.2641 70.943 76.1081 73.0873C75.9132 75.5629 74.8411 78.2919 73.1452 78.6818C72.5604 78.8182 72.0146 78.8767 71.5077 78.8767Z" fill="black"/>
<path d="M72.8452 75.2807C72.7672 75.2807 72.6697 75.2612 72.5918 75.2222C72.3189 75.0857 72.2019 74.7348 72.3383 74.4619C72.5333 74.0916 72.6307 73.6822 72.6697 73.2729C72.6892 73.0389 72.6502 72.961 72.6502 72.961C72.6502 72.961 72.6307 72.961 72.6112 72.961C72.6112 72.961 72.5917 72.961 72.5722 72.961C72.4943 72.9805 72.4163 73.0194 72.2994 73.0974C72.1239 73.2339 71.968 73.3898 71.851 73.5847C71.6951 73.8577 71.3442 73.9356 71.0713 73.7797C70.7984 73.6237 70.7204 73.2729 70.8764 73C71.0713 72.6686 71.3442 72.3957 71.6561 72.1812C71.9095 72.0058 72.1629 71.8888 72.4163 71.8499C72.7867 71.7914 73.157 71.9083 73.4105 72.1423C73.7029 72.4152 73.8393 72.805 73.8003 73.3313C73.7613 73.8966 73.6054 74.4424 73.352 74.9493C73.2545 75.1637 73.0596 75.2807 72.8452 75.2807Z" fill="black"/>
<path d="M55.6104 72.75C55.1426 73.5687 54.6943 74.4069 54.2264 75.2256C53.9535 75.7324 53.6611 76.2393 53.6806 76.8046C53.6806 77.3504 54.0705 77.9547 54.7332 78.1106" fill="white"/>
<path d="M54.732 78.6786C54.693 78.6786 54.654 78.6786 54.6151 78.6591C53.6599 78.4447 53.1336 77.5675 53.1336 76.8072C53.1141 76.086 53.465 75.4622 53.7574 74.9554L55.1414 72.4798C55.2973 72.2069 55.6287 72.1094 55.9016 72.2653C56.1745 72.4213 56.272 72.7527 56.116 73.0256L54.732 75.5012C54.4981 75.93 54.2447 76.3784 54.2447 76.7877C54.2447 77.0996 54.4591 77.47 54.849 77.548C55.1414 77.6065 55.3363 77.9183 55.2778 78.2107C55.2194 78.5031 54.9854 78.6786 54.732 78.6786Z" fill="black"/>
<path d="M57.1322 82.0472C56.6448 82.0472 56.177 81.9498 55.7287 81.7743C55.4363 81.6574 55.2998 81.326 55.4168 81.0336C55.5337 80.7412 55.8651 80.6048 56.1575 80.7217C56.7813 80.9751 57.522 80.9751 58.1458 80.7217C58.7696 80.4683 59.2959 79.942 59.5493 79.3182C59.6663 79.0258 59.9976 78.8894 60.29 79.0258C60.5824 79.1428 60.7189 79.4742 60.5824 79.7666C60.2121 80.6632 59.4713 81.404 58.5747 81.7743C58.1068 81.9498 57.6195 82.0472 57.1322 82.0472Z" fill="black"/>
<path d="M94.5997 114.184C93.8785 114.964 93.1377 115.724 92.358 116.446V116.465C89.2781 119.35 85.8083 121.806 82.0071 123.717C79.9214 124.769 77.7577 125.646 75.516 126.368C74.9117 126.563 74.3074 126.738 73.6836 126.913L73.8005 101.904V100.091L73.8395 94.5159L76.1592 94.4185H76.2177L77.5237 94.36C77.8551 94.36 78.167 94.3405 78.4984 94.36C81.0325 94.4185 83.4886 95.1787 85.5939 96.5432C86.4711 97.089 87.2898 97.7713 88.011 98.5315C89.1221 99.7011 90.0968 101.027 90.8375 102.372C91.3443 103.268 91.7342 104.204 92.0071 105.159L94.5997 114.184Z" fill="#FFD8A0"/>
<path d="M76.8136 126.48C76.5212 126.48 76.2873 126.266 76.2483 125.973L74.7473 109.287C74.7278 108.975 74.9422 108.702 75.2541 108.683C75.5465 108.644 75.8389 108.878 75.8584 109.19L77.3594 125.876C77.3789 126.188 77.1645 126.461 76.8526 126.48C76.8331 126.48 76.8136 126.48 76.8136 126.48Z" fill="#323232"/>
</g>
<rect x="22.7031" y="44.8262" width="78.9214" height="78.9214" rx="39.4607" stroke="#0D257B" stroke-width="3.31603"/>
</g>
</g>
<defs>
<clipPath id="clip0_13727_31303">
<rect width="449" height="437" fill="white" transform="translate(0.585938 0.164062)"/>
</clipPath>
<clipPath id="clip1_13727_31303">
<rect width="593" height="264.335" fill="white" transform="translate(-13.4141 28.7739)"/>
</clipPath>
<clipPath id="clip2_13727_31303">
<rect x="22.7031" y="44.8262" width="78.9214" height="78.9214" rx="39.4607" fill="white"/>
</clipPath>
</defs>
</svg>
