<svg width="356" height="300" viewBox="0 0 356 300" fill="none" xmlns="http://www.w3.org/2000/svg">
<path d="M24.4963 280.017C24.4963 283.085 27.009 285.595 30.0802 285.595H332.031C335.102 285.595 337.615 283.085 337.615 280.017L340.127 106.494C340.127 103.426 336.512 97.4363 329.888 97.8865L34.788 90.2508C30.9346 90.1512 27.2089 91.6342 24.4803 94.3541C21.7517 97.0739 20.2585 100.793 20.3496 104.642L24.4963 280.017Z" fill="url(#paint0_linear_40000521_20002)"/>
<path d="M30.008 274.665C30.008 277.57 32.3852 279.948 35.2907 279.948H324.748C327.654 279.948 330.031 277.57 330.031 274.665L332.402 117.14C332.122 107.66 323.812 104.253 318.774 104.454L35.9478 96.8663C33.2406 96.7937 30.6232 97.8367 28.7059 99.7493C26.7885 101.662 25.734 104.279 25.8019 106.986L30.008 274.665Z" fill="white"/>
<path d="M326.903 199.829C326.899 199.829 326.896 199.829 326.892 199.829C326.464 199.823 326.122 199.472 326.129 199.044L326.316 186.269C326.323 185.845 326.668 185.506 327.09 185.506C327.094 185.506 327.098 185.506 327.102 185.506C327.529 185.512 327.871 185.864 327.864 186.292L327.677 199.067C327.671 199.49 327.325 199.829 326.903 199.829Z" fill="white"/>
<path d="M327.363 168.524C327.359 168.524 327.356 168.524 327.352 168.524C326.924 168.518 326.583 168.165 326.589 167.738L327.307 118.809C327.294 115.903 326.412 113.582 324.685 111.928C321.462 108.84 316.345 108.998 316.129 109.008L225.732 106.584C225.305 106.573 224.967 106.217 224.979 105.789C224.99 105.362 225.318 104.998 225.774 105.037L316.117 107.461C316.679 107.427 322.128 107.333 325.756 110.81C327.797 112.765 328.84 115.46 328.856 118.817L328.137 167.761C328.131 168.185 327.785 168.524 327.363 168.524Z" fill="white"/>
<path d="M0.7168 300H355.271C355.665 300 355.988 299.677 355.988 299.283V285.47C355.988 285.076 355.665 284.753 355.271 284.753H0.7168C0.322523 284.753 0 285.076 0 285.47V299.283C0 299.677 0.322523 300 0.7168 300Z" fill="url(#paint1_linear_40000521_20002)"/>
<path d="M278.761 1.16136L89.0934 0.000209815C82.8602 -0.0380768 77.8748 5.16865 78.1835 11.3944L91.2322 280.866H302.296L314.016 40.1076L278.761 1.16136Z" fill="#0D257B"/>
<path d="M286.648 38.953C280.469 38.7355 275.719 33.4107 276.206 27.2476L278.239 1.51611L314.053 39.9493L286.648 38.953Z" fill="white"/>
<path opacity="0.78" d="M197.078 69.1318C212.185 69.3451 270.179 70.1 284.824 70.2903C286.671 70.3142 288.151 71.5356 288.095 72.986C288.042 74.3668 286.608 75.4465 284.85 75.4299L197.148 74.6064C195.459 74.5905 194.039 73.5654 193.873 72.2415L193.831 71.9065C193.64 70.3928 195.147 69.1045 197.078 69.1318Z" fill="white"/>
<path opacity="0.78" d="M195.508 85.2254C195.751 85.5729 196.211 85.7943 196.711 85.8051L256.904 87.0984C257.66 87.1147 258.282 86.6531 258.305 86.0592L258.426 82.9438C258.449 82.3248 257.814 81.8044 257.026 81.7971L198.484 81.2595C195.877 81.2355 194.241 83.4155 195.508 85.2254Z" fill="white"/>
<path opacity="0.78" d="M195.891 97.3105C210.998 97.524 268.992 98.2787 283.636 98.4691C285.483 98.4931 286.964 99.7144 286.908 101.165C286.855 102.546 285.421 103.625 283.663 103.609L195.961 102.785C194.272 102.769 192.852 101.744 192.685 100.42L192.643 100.085C192.453 98.5715 193.959 97.2832 195.891 97.3105Z" fill="white"/>
<path opacity="0.78" d="M194.32 113.404C194.563 113.752 195.023 113.973 195.524 113.984L255.716 115.277C256.472 115.293 257.095 114.832 257.118 114.238L257.238 111.123C257.262 110.503 256.627 109.983 255.838 109.976L197.297 109.438C194.689 109.414 193.053 111.594 194.32 113.404Z" fill="white"/>
<path d="M139.018 145.047C165.54 145.047 187.041 123.546 187.041 97.0236C187.041 70.5009 165.54 49 139.018 49C112.495 49 90.9941 70.5009 90.9941 97.0236C90.9941 123.546 112.495 145.047 139.018 145.047Z" fill="#0D257B"/>
<path d="M138.936 143.754C164.628 143.754 185.456 122.927 185.456 97.2344C185.456 71.5421 164.628 50.7144 138.936 50.7144C113.244 50.7144 92.416 71.5421 92.416 97.2344C92.416 122.927 113.244 143.754 138.936 143.754Z" fill="#CC922F"/>
<path d="M160.319 128.07C158.642 128.07 156.976 127.355 155.814 125.969L114.303 76.4586C112.218 73.9723 112.544 70.2673 115.03 68.1825C117.517 66.0983 121.222 66.4236 123.306 68.9099L164.818 118.421C166.902 120.907 166.577 124.612 164.091 126.697C162.99 127.619 161.651 128.07 160.319 128.07Z" fill="white"/>
<path d="M113.616 127.708C112.073 127.708 110.534 127.105 109.38 125.905C107.132 123.567 107.204 119.847 109.543 117.599L158.523 70.5043C160.862 68.2543 164.581 68.3283 166.829 70.6672C169.078 73.0056 169.005 76.7247 166.666 78.9731L117.687 126.068C116.547 127.164 115.08 127.708 113.616 127.708Z" fill="white"/>
<defs>
<linearGradient id="paint0_linear_40000521_20002" x1="190.333" y1="55.7542" x2="170.561" y2="293.02" gradientUnits="userSpaceOnUse">
<stop stop-color="#2B3582"/>
<stop offset="1" stop-color="#150E42"/>
</linearGradient>
<linearGradient id="paint1_linear_40000521_20002" x1="178.315" y1="262.325" x2="176.593" y2="423.392" gradientUnits="userSpaceOnUse">
<stop stop-color="#2B3582"/>
<stop offset="1" stop-color="#150E42"/>
</linearGradient>
</defs>
</svg>
