<svg width="18" height="20" viewBox="0 0 18 20" fill="none" xmlns="http://www.w3.org/2000/svg">
<path d="M16.6449 11.2288L15.2863 6.16658C14.3002 2.49357 10.6255 0.344122 7.07925 1.36539C4.70779 2.0482 2.89308 4.02928 2.35879 6.51753L1.30663 11.4163C0.878259 13.4126 2.09332 15.3906 4.02099 15.8342C4.27573 15.8929 4.53584 15.9224 4.79695 15.9224H5.59369C5.98654 17.9264 7.87398 19.2212 9.80903 18.8144C11.2161 18.5186 12.3156 17.3797 12.6015 15.9224H13.2008C15.1754 15.9224 16.7763 14.2648 16.7763 12.2199C16.7763 11.8849 16.7324 11.5517 16.6459 11.2288H16.6449ZM9.09742 17.4036C8.19174 17.3998 7.38561 16.8069 7.08394 15.9224H11.1112C10.8092 16.8069 10.0034 17.3994 9.09742 17.4036ZM14.9083 13.5636C14.5044 14.1187 13.8712 14.444 13.1998 14.4412H4.79695C3.61206 14.4408 2.65174 13.4463 2.65208 12.2192C2.65208 12.0571 2.66917 11.8957 2.70336 11.7374L3.75451 6.83793C4.38199 3.91508 7.17847 2.0725 10.0008 2.72233C11.8882 3.15694 13.3905 4.63329 13.9084 6.56266L15.2669 11.6249C15.4492 12.2938 15.3162 13.012 14.9083 13.5636Z" fill="#0D257B"/>
</svg>
