<svg width="200" height="49" viewBox="0 0 200 49" fill="none" xmlns="http://www.w3.org/2000/svg">
<rect width="200" height="48.6004" rx="8" fill="white"/>
<path d="M100.25 25.8004C98.25 25.8004 96.55 27.3004 96.55 29.5004C96.55 31.6004 98.25 33.2004 100.25 33.2004C102.25 33.2004 103.95 31.6004 103.95 29.5004C103.95 27.4004 102.25 25.8004 100.25 25.8004ZM100.25 31.7004C99.15 31.7004 98.15 30.8004 98.15 29.5004C98.15 28.2004 99.15 27.3004 100.25 27.3004C101.35 27.3004 102.35 28.2004 102.35 29.5004C102.35 30.8004 101.35 31.7004 100.25 31.7004ZM92.15 25.8004C90.15 25.8004 88.45 27.3004 88.45 29.5004C88.45 31.6004 90.15 33.2004 92.15 33.2004C94.15 33.2004 95.85 31.6004 95.85 29.5004C95.85 27.4004 94.15 25.8004 92.15 25.8004ZM92.15 31.7004C91.05 31.7004 90.05 30.8004 90.05 29.5004C90.05 28.2004 91.05 27.3004 92.15 27.3004C93.25 27.3004 94.25 28.2004 94.25 29.5004C94.25 30.8004 93.25 31.7004 92.15 31.7004ZM82.55 27.0004V28.6004H86.35C86.25 29.5004 85.95 30.1004 85.45 30.6004C84.95 31.1004 84.05 31.7004 82.55 31.7004C80.25 31.7004 78.45 29.9004 78.45 27.6004C78.45 25.3004 80.25 23.5004 82.55 23.5004C83.85 23.5004 84.75 24.0004 85.35 24.6004L86.45 23.5004C85.55 22.6004 84.25 21.9004 82.55 21.9004C79.35 21.9004 76.75 24.4004 76.75 27.6004C76.75 30.8004 79.45 33.3004 82.55 33.3004C84.25 33.3004 85.55 32.7004 86.55 31.7004C87.55 30.7004 87.95 29.2004 87.95 28.1004C87.95 27.7004 87.95 27.4004 87.85 27.1004H82.55V27.0004ZM121.95 28.2004C121.65 27.4004 120.75 25.9004 118.75 25.9004C116.85 25.9004 115.25 27.4004 115.25 29.6004C115.25 31.6004 116.85 33.3004 118.95 33.3004C120.65 33.3004 121.65 32.3004 122.05 31.7004L120.75 30.9004C120.35 31.5004 119.75 31.9004 118.95 31.9004C118.15 31.9004 117.55 31.5004 117.15 30.8004L122.15 28.8004L121.95 28.2004ZM116.85 29.4004C116.85 28.0004 117.95 27.3004 118.75 27.3004C119.35 27.3004 119.95 27.6004 120.15 28.1004L116.85 29.4004ZM112.85 32.9004H114.45V22.2004H112.85V32.9004ZM110.15 26.7004C109.75 26.3004 109.05 25.9004 108.15 25.9004C106.25 25.9004 104.65 27.5004 104.65 29.6004C104.65 31.7004 106.35 33.2004 108.15 33.2004C109.05 33.2004 109.75 32.8004 110.05 32.4004H110.15V32.9004C110.15 34.3004 109.35 35.1004 108.15 35.1004C107.15 35.1004 106.55 34.4004 106.25 33.8004L104.85 34.4004C105.25 35.4004 106.35 36.6004 108.15 36.6004C110.05 36.6004 111.65 35.5004 111.65 32.8004V26.1004H110.15V26.7004ZM108.35 31.7004C107.25 31.7004 106.25 30.8004 106.25 29.5004C106.25 28.2004 107.15 27.3004 108.35 27.3004C109.45 27.3004 110.35 28.2004 110.35 29.5004C110.35 30.8004 109.45 31.7004 108.35 31.7004ZM129.55 22.2004H125.65V33.0004H127.25V28.9004H129.55C131.35 28.9004 133.15 27.6004 133.15 25.6004C133.15 23.5004 131.35 22.2004 129.55 22.2004ZM129.65 27.4004H127.35V23.7004H129.65C130.85 23.7004 131.55 24.7004 131.55 25.5004C131.55 26.4004 130.85 27.4004 129.65 27.4004ZM139.65 25.8004C138.45 25.8004 137.25 26.3004 136.75 27.4004L138.15 28.0004C138.45 27.4004 139.05 27.2004 139.65 27.2004C140.45 27.2004 141.35 27.7004 141.35 28.6004V28.7004C141.05 28.5004 140.45 28.3004 139.65 28.3004C138.05 28.3004 136.55 29.1004 136.55 30.7004C136.55 32.1004 137.85 33.1004 139.25 33.1004C140.35 33.1004 140.95 32.6004 141.35 32.0004H141.45V32.8004H143.05V28.7004C142.95 26.9004 141.55 25.8004 139.65 25.8004ZM139.45 31.7004C138.95 31.7004 138.15 31.4004 138.15 30.8004C138.15 30.0004 139.05 29.6004 139.85 29.6004C140.55 29.6004 140.85 29.8004 141.35 30.0004C141.25 31.0004 140.35 31.7004 139.45 31.7004ZM148.65 26.1004L146.75 30.8004H146.65L144.75 26.1004H142.95L145.85 32.6004L144.15 36.2004H145.85L150.35 26.1004H148.65ZM134.05 32.9004H135.65V22.2004H134.05V32.9004Z" fill="#0D257B"/>
<path d="M50.0484 13.6016C49.7484 13.9016 49.6484 14.3016 49.6484 14.8016V33.8016C49.6484 34.3016 49.7484 34.7016 50.0484 35.0016L50.1484 35.1016L60.9484 24.4016V24.1016L50.0484 13.6016Z" fill="url(#paint0_linear_40002046_18740)"/>
<path d="M64.4477 28L60.8477 24.4V24.1L64.4477 20.5H64.5477L68.8477 22.9C70.0477 23.6 70.0477 24.7 68.8477 25.4L64.4477 28Z" fill="url(#paint1_linear_40002046_18740)"/>
<path d="M64.5469 28.0004L60.8469 24.4004L50.0469 35.1004C50.4469 35.5004 51.1469 35.6004 51.8469 35.2004L64.5469 28.0004Z" fill="url(#paint2_linear_40002046_18740)"/>
<path d="M64.5469 20.701L51.8469 13.601C51.1469 13.201 50.4469 13.201 50.0469 13.701L60.9469 24.401L64.5469 20.701Z" fill="url(#paint3_linear_40002046_18740)"/>
<path d="M82.05 15.1008C82.05 16.8008 80.85 17.9008 79.05 17.9008H77.25V12.3008H79.05C80.85 12.3008 82.05 13.4008 82.05 15.1008ZM79.05 17.2008C80.35 17.2008 81.05 16.4008 81.05 15.2008C81.05 13.9008 80.35 13.1008 79.05 13.1008H78.15V17.2008H79.05Z" fill="#0D257B"/>
<path d="M84.8484 18.0004C83.5484 18.0004 82.6484 17.1004 82.6484 15.7004C82.6484 14.3004 83.6484 13.4004 84.8484 13.4004C86.1484 13.4004 87.0484 14.3004 87.0484 15.7004C87.1484 17.1004 86.1484 18.0004 84.8484 18.0004ZM84.8484 17.2004C85.5484 17.2004 86.2484 16.7004 86.2484 15.7004C86.2484 14.7004 85.6484 14.2004 84.9484 14.2004C84.2484 14.2004 83.6484 14.7004 83.6484 15.7004C83.5484 16.7004 84.1484 17.2004 84.8484 17.2004Z" fill="#0D257B"/>
<path d="M87.5508 13.5H88.4508L89.3508 17L90.2508 13.5H91.2508L92.1508 17L93.0508 13.5H93.9508L92.5508 17.9H91.5508L90.6508 14.6L89.7508 17.9H88.7508L87.5508 13.5Z" fill="#0D257B"/>
<path d="M97.7484 15.4004C97.7484 14.6004 97.3484 14.2004 96.6484 14.2004C95.9484 14.2004 95.5484 14.6004 95.5484 15.4004V17.9004H94.6484V13.5004H95.5484V14.0004C95.8484 13.6004 96.3484 13.4004 96.8484 13.4004C97.8484 13.4004 98.6484 14.0004 98.6484 15.3004V17.9004H97.7484V15.4004Z" fill="#0D257B"/>
<path d="M99.8516 12H100.752V17.9H99.8516V12Z" fill="#0D257B"/>
<path d="M103.848 18.0004C102.648 18.0004 101.648 17.1004 101.648 15.7004C101.648 14.3004 102.648 13.4004 103.848 13.4004C105.148 13.4004 106.048 14.3004 106.048 15.7004C106.148 17.1004 105.148 18.0004 103.848 18.0004ZM103.848 17.2004C104.548 17.2004 105.248 16.7004 105.248 15.7004C105.248 14.7004 104.648 14.2004 103.948 14.2004C103.248 14.2004 102.648 14.7004 102.648 15.7004C102.548 16.7004 103.148 17.2004 103.848 17.2004Z" fill="#0D257B"/>
<path d="M108.85 13.4004C109.55 13.4004 110.15 13.8004 110.35 14.1004V13.5004H111.25V17.9004H110.35V17.2004C110.05 17.6004 109.55 17.9004 108.85 17.9004C107.75 17.9004 106.75 17.0004 106.75 15.6004C106.75 14.2004 107.65 13.4004 108.85 13.4004ZM109.05 14.2004C108.35 14.2004 107.75 14.7004 107.75 15.7004C107.75 16.7004 108.45 17.2004 109.05 17.2004C109.75 17.2004 110.35 16.7004 110.35 15.7004C110.35 14.7004 109.75 14.2004 109.05 14.2004Z" fill="#0D257B"/>
<path d="M114.248 13.4C114.848 13.4 115.448 13.7 115.748 14.1V12H116.648V17.9H115.748V17.2C115.448 17.6 114.948 17.9 114.248 17.9C113.048 17.9 112.148 17 112.148 15.6C112.148 14.2 113.048 13.4 114.248 13.4ZM114.448 14.2C113.748 14.2 113.148 14.7 113.148 15.7C113.148 16.7 113.848 17.2 114.448 17.2C115.148 17.2 115.748 16.7 115.748 15.7C115.748 14.7 115.148 14.2 114.448 14.2Z" fill="#0D257B"/>
<path d="M121.848 18.0004C120.648 18.0004 119.648 17.1004 119.648 15.7004C119.648 14.3004 120.648 13.4004 121.848 13.4004C123.148 13.4004 124.048 14.3004 124.048 15.7004C124.148 17.1004 123.148 18.0004 121.848 18.0004ZM121.848 17.2004C122.548 17.2004 123.248 16.7004 123.248 15.7004C123.248 14.7004 122.648 14.2004 121.948 14.2004C121.248 14.2004 120.648 14.7004 120.648 15.7004C120.648 16.7004 121.148 17.2004 121.848 17.2004Z" fill="#0D257B"/>
<path d="M128.248 15.4004C128.248 14.6004 127.848 14.2004 127.148 14.2004C126.448 14.2004 126.048 14.6004 126.048 15.4004V17.9004H125.148V13.5004H126.048V14.0004C126.348 13.6004 126.848 13.4004 127.348 13.4004C128.348 13.4004 129.148 14.0004 129.148 15.3004V17.9004H128.248V15.4004Z" fill="#0D257B"/>
<path d="M132.449 14.2004H131.949V13.5004H132.449V12.4004H133.349V13.5004H134.449V14.2004H133.349V16.6004C133.349 16.9004 133.449 17.1004 133.849 17.1004H134.449V17.9004H133.749C132.949 17.9004 132.449 17.6004 132.449 16.7004V14.2004Z" fill="#0D257B"/>
<path d="M135.352 12H136.252V14C136.552 13.6 137.052 13.4 137.652 13.4C138.652 13.4 139.452 14 139.452 15.3V17.9H138.552V15.4C138.552 14.6 138.152 14.2 137.452 14.2C136.752 14.2 136.352 14.6 136.352 15.4V17.9H135.452V12H135.352Z" fill="#0D257B"/>
<path d="M142.45 18.0004C141.15 18.0004 140.25 17.1004 140.25 15.7004C140.25 14.3004 141.15 13.4004 142.45 13.4004C143.75 13.4004 144.55 14.3004 144.55 15.6004C144.55 15.8004 144.55 15.9004 144.55 16.0004H141.15C141.25 16.7004 141.75 17.2004 142.45 17.2004C143.05 17.2004 143.35 16.9004 143.45 16.6004H144.45C144.15 17.4004 143.45 18.0004 142.45 18.0004ZM141.15 15.3004H143.55C143.55 14.6004 142.95 14.2004 142.35 14.2004C141.75 14.2004 141.25 14.6004 141.15 15.3004Z" fill="#0D257B"/>
<defs>
<linearGradient id="paint0_linear_40002046_18740" x1="59.9152" y1="34.0522" x2="45.4783" y2="19.4448" gradientUnits="userSpaceOnUse">
<stop stop-color="#00A0FF"/>
<stop offset="0.0066" stop-color="#00A1FF"/>
<stop offset="0.2601" stop-color="#00BEFF"/>
<stop offset="0.5122" stop-color="#00D2FF"/>
<stop offset="0.7604" stop-color="#00DFFF"/>
<stop offset="1" stop-color="#00E3FF"/>
</linearGradient>
<linearGradient id="paint1_linear_40002046_18740" x1="70.3908" y1="24.3367" x2="49.3287" y2="24.3367" gradientUnits="userSpaceOnUse">
<stop stop-color="#FFE000"/>
<stop offset="0.4087" stop-color="#FFBD00"/>
<stop offset="0.7754" stop-color="#FFA500"/>
<stop offset="1" stop-color="#FF9C00"/>
</linearGradient>
<linearGradient id="paint2_linear_40002046_18740" x1="55.2861" y1="29.5406" x2="35.7083" y2="9.73173" gradientUnits="userSpaceOnUse">
<stop stop-color="#FF3A44"/>
<stop offset="1" stop-color="#C31162"/>
</linearGradient>
<linearGradient id="paint3_linear_40002046_18740" x1="40.03" y1="34.2143" x2="48.7719" y2="25.3693" gradientUnits="userSpaceOnUse">
<stop stop-color="#32A071"/>
<stop offset="0.0685" stop-color="#2DA771"/>
<stop offset="0.4762" stop-color="#15CF74"/>
<stop offset="0.8009" stop-color="#06E775"/>
<stop offset="1" stop-color="#00F076"/>
</linearGradient>
</defs>
</svg>
