<svg width="54" height="54" viewBox="0 0 54 54" fill="none" xmlns="http://www.w3.org/2000/svg">
<rect width="54" height="54" rx="27" fill="#EDEEF3"/>
<g clip-path="url(#clip0_11214_23279)">
<path d="M13.2937 28.3088C13.2937 23.0303 13.2937 17.7518 13.2943 12.4733C13.2943 12.2445 13.2716 12.0062 13.3763 11.7971C13.5534 11.4438 13.8465 11.2952 14.251 11.297C16.2546 11.3072 18.2576 11.2976 20.2612 11.3072C20.5185 11.3084 20.6106 11.2593 20.6274 10.973C20.7028 9.70981 21.3483 8.85392 22.5455 8.43286C22.8183 8.33703 23.1102 8.30888 23.3998 8.30888C25.7911 8.30648 28.183 8.30888 30.5749 8.30768C32.2058 8.30708 33.3019 9.5463 33.3653 10.861C33.3689 10.9305 33.3946 11.0017 33.3856 11.0688C33.3581 11.2874 33.4783 11.306 33.6524 11.3036C34.2005 11.2958 34.7491 11.3006 35.2971 11.3006C36.782 11.3006 38.2675 11.3006 39.7525 11.3006C40.3041 11.3006 40.6026 11.554 40.6828 12.0978C40.7031 12.235 40.7073 12.3757 40.7073 12.5147C40.7067 19.7888 40.7049 27.063 40.7031 34.3372C40.7025 37.62 40.7007 40.9028 40.6995 44.1856C40.6989 45.0068 40.4291 45.2763 39.6077 45.2763C31.1953 45.2763 22.783 45.2769 14.3706 45.2751C14.2121 45.2751 14.0505 45.2655 13.8968 45.232C13.5719 45.1607 13.3619 44.9205 13.32 44.5917C13.3039 44.4635 13.2967 44.3336 13.2967 44.2042C13.2955 38.9059 13.2955 33.6071 13.2955 28.3088C13.2949 28.3088 13.2943 28.3088 13.2937 28.3088ZM39.0507 28.3076C39.0525 28.3076 39.0537 28.3076 39.0555 28.3076C39.0555 23.3088 39.0537 18.31 39.0603 13.3119C39.0609 13.0543 39.016 12.9543 38.7246 12.9567C37.0405 12.9729 35.3563 12.9693 33.6722 12.9621C33.4538 12.9609 33.3701 13.0142 33.3838 13.2454C33.4227 13.8886 33.1798 14.3618 32.2734 14.3552C28.935 14.3301 25.5967 14.342 22.2583 14.3396C21.9496 14.3396 21.6397 14.348 21.3322 14.3271C20.9798 14.3025 20.7381 14.0695 20.6501 13.7197C20.613 13.5724 20.5933 13.4239 20.6088 13.2753C20.634 13.0327 20.5472 12.9543 20.2941 12.9561C18.6297 12.9687 16.9653 12.9735 15.3009 12.9555C14.9839 12.9519 14.933 13.0525 14.9336 13.3406C14.9426 23.3082 14.9426 33.2753 14.9438 43.2429C14.9438 43.6328 14.9444 43.634 15.3255 43.634C23.1192 43.634 30.9129 43.6322 38.7067 43.6412C39.0082 43.6418 39.0573 43.549 39.0567 43.2734C39.0483 38.2848 39.0507 33.2962 39.0507 28.3076ZM27.0062 12.7117C27.0062 12.7105 27.0062 12.7093 27.0062 12.7087C28.4815 12.7087 29.9569 12.7021 31.4316 12.7147C31.6877 12.7171 31.7505 12.6386 31.738 12.3961C31.7176 11.9978 31.7326 11.5983 31.7314 11.1988C31.7278 10.3585 31.2988 9.9398 30.4547 9.9422C29.2982 9.94579 28.1423 9.94519 26.9859 9.94459C25.8396 9.94459 24.6933 9.941 23.547 9.9416C22.6585 9.9422 22.2607 10.3495 22.2631 11.2473C22.2643 11.6366 22.2756 12.0265 22.2559 12.4146C22.2439 12.6494 22.3073 12.7195 22.5508 12.7177C24.0358 12.7057 25.5207 12.7117 27.0062 12.7117Z" fill="#0D257B"/>
<path d="M23.5553 17.1149C24.8189 17.1221 25.8515 17.4185 26.7453 18.1271C26.9248 18.269 27.0385 18.2439 27.2293 18.1097C28.0286 17.5461 28.8997 17.1664 29.9018 17.1191C31.0134 17.0669 32.0676 17.2388 33.0194 17.8366C34.2214 18.5913 35.0931 19.6286 35.409 21.029C35.8128 22.8192 35.4467 24.4549 34.1849 25.8313C33.607 26.462 32.9273 26.9891 32.2961 27.5652C31.1642 28.5984 30.0323 29.6322 28.9003 30.666C28.4815 31.0487 28.0645 31.4338 27.641 31.8106C27.2467 32.1609 26.7729 32.1681 26.3744 31.8118C25.3442 30.8888 24.3229 29.9556 23.2975 29.0273C22.1685 28.0055 21.0348 26.9891 19.9124 25.9601C19.4063 25.4959 19.0383 24.9197 18.7901 24.286C18.3079 23.054 18.2504 21.78 18.7231 20.5462C19.3937 18.7955 20.6561 17.6641 22.506 17.2275C22.8978 17.1352 23.2915 17.1071 23.5553 17.1149ZM20.1051 22.2472C20.0781 23.2145 20.4341 24.1495 21.1371 24.8041C22.2948 25.8822 23.471 26.9405 24.6406 28.0067C25.3615 28.6643 26.0842 29.3195 26.8052 29.9772C26.9326 30.0934 27.0337 30.1185 27.1833 29.9784C27.7056 29.4885 28.2476 29.0195 28.7771 28.5373C30.1603 27.2772 31.5471 26.0206 32.9201 24.7496C33.6458 24.0782 33.9133 23.1858 33.9043 22.24C33.8965 21.3889 33.58 20.6277 33.0093 19.9545C32.0251 18.7925 30.1699 18.3978 28.7986 19.0836C28.2937 19.3357 27.9395 19.7532 27.5093 20.0856C27.1665 20.3498 26.8034 20.3504 26.4749 20.0778C26.3295 19.9575 26.1991 19.8185 26.0603 19.6897C24.9768 18.6841 23.5416 18.4793 22.2846 19.0279C20.9157 19.6244 20.1679 20.7253 20.1051 22.2472Z" fill="#CC922F"/>
<path d="M29.2527 39.2504C31.2743 39.2504 33.2958 39.2498 35.3174 39.2516C35.4945 39.2516 35.6752 39.2288 35.8445 39.3175C36.1735 39.4906 36.3452 39.8397 36.2794 40.2159C36.2208 40.5525 35.9432 40.8154 35.5878 40.8669C35.5292 40.8753 35.4688 40.8747 35.4089 40.8747C31.306 40.8753 27.203 40.8771 23.1 40.8759C22.5538 40.8759 22.1888 40.474 22.2331 39.9344C22.2594 39.6139 22.5688 39.2923 22.8888 39.2606C23.0175 39.248 23.1473 39.2504 23.2771 39.2504C25.2694 39.2504 27.261 39.2504 29.2527 39.2504Z" fill="#CC922F"/>
<path d="M29.2604 36.4624C27.2269 36.4624 25.194 36.4594 23.1604 36.4654C22.8625 36.466 22.6094 36.3977 22.4203 36.1594C22.2241 35.9114 22.1816 35.6383 22.3073 35.3454C22.4377 35.0411 22.6836 34.8908 22.9989 34.8423C23.0767 34.8303 23.158 34.8369 23.2376 34.8369C27.2442 34.8363 31.2509 34.8375 35.2575 34.8339C35.5345 34.8339 35.7918 34.8602 36.012 35.0507C36.2303 35.2394 36.3279 35.5766 36.2369 35.8641C36.1227 36.2258 35.8953 36.4433 35.5687 36.4451C33.924 36.4552 32.2799 36.4558 30.6353 36.4588C30.177 36.46 29.7181 36.4588 29.2598 36.4588C29.2604 36.4606 29.2604 36.4618 29.2604 36.4624Z" fill="#CC922F"/>
<path d="M18.8451 34.8381C18.9743 34.8381 19.1048 34.85 19.2322 34.8357C19.6001 34.7943 19.9753 35.1327 20.0452 35.6257C20.0973 35.9946 19.7485 36.4205 19.3518 36.4576C18.9235 36.4977 18.4808 36.5828 18.0739 36.3516C17.7604 36.1731 17.6013 35.7916 17.6862 35.4627C17.7676 35.1471 18.1332 34.8033 18.458 34.8351C18.5861 34.8476 18.7159 34.8369 18.8451 34.8369C18.8451 34.8369 18.8451 34.8375 18.8451 34.8381Z" fill="#0D257B"/>
<path d="M18.7652 40.8718C18.4559 40.8903 18.094 40.9005 17.8373 40.5441C17.464 40.0261 17.732 39.3474 18.3644 39.2582C18.8041 39.1965 19.2552 39.1384 19.665 39.3738C19.9546 39.5397 20.1036 39.9176 20.0246 40.1848C19.8888 40.6448 19.6249 40.8688 19.2157 40.8712C19.0865 40.8724 18.9567 40.8718 18.7652 40.8718Z" fill="#0D257B"/>
<path d="M25.0795 24.3897C25.0969 23.9513 25.4128 23.6225 25.886 23.6003C26.0978 23.5901 26.1983 23.5494 26.1804 23.32C26.1427 22.8409 26.6147 22.4887 26.9779 22.4797C27.4188 22.4689 27.7724 22.7935 27.8047 23.2799C27.8202 23.5111 27.8741 23.5967 28.1242 23.6027C28.5154 23.6123 28.817 23.8692 28.9013 24.1903C28.9947 24.5443 28.8427 24.8916 28.5178 25.1168C28.3748 25.2157 28.2139 25.2229 28.0625 25.2259C27.8645 25.23 27.8167 25.2977 27.8107 25.4894C27.7957 25.9721 27.5564 26.25 27.1304 26.3291C26.6823 26.4124 26.2205 26.0913 26.2019 25.6349C26.1893 25.3235 26.0888 25.2193 25.7759 25.2055C25.3553 25.1869 25.0628 24.8078 25.0795 24.3897Z" fill="#0D257B"/>
</g>
<defs>
<clipPath id="clip0_11214_23279">
<rect width="27.4154" height="36.9692" fill="white" transform="translate(13.2922 8.30768)"/>
</clipPath>
</defs>
</svg>
