<svg width="80" height="80" viewBox="0 0 80 80" fill="none" xmlns="http://www.w3.org/2000/svg">
<path d="M40 80C62.0914 80 80 62.0914 80 40C80 17.9086 62.0914 0 40 0C17.9086 0 0 17.9086 0 40C0 62.0914 17.9086 80 40 80Z" fill="#F5F5F5"/>
<g clip-path="url(#clip0_40000340_20943)">
<path d="M61.5508 63.753L60.9019 51.2525C62.5613 48.0287 63.5039 44.3755 63.5039 40.5C63.5039 27.513 52.9848 16.9828 40.002 16.9648C27.0191 16.9828 16.5 27.513 16.5 40.5C16.5 53.487 27.0191 64.0172 40.002 64.0352C42.6124 64.0323 45.2041 63.5942 47.6705 62.739L61.5508 63.753Z" stroke="#0D257B" stroke-width="2" stroke-miterlimit="10"/>
<path d="M48.4347 29.4711C45.9227 45.0484 35.7469 48.4103 28.8717 45.4715C19.7655 41.579 24.6321 25.8125 33.8697 29.276C38.1101 30.8658 42.0996 34.7225 43.8167 38.854C49.6676 49.443 40.0652 54.9679 31.8191 53.5323C24.4051 52.2417 23.4131 40.3772 30.4826 37.5142C32.3775 36.7469 34.3365 36.2726 35.9371 36.0292C38.3303 35.6145 41.3974 34.5104 42.0146 31.7346C42.2314 30.7594 42.0732 29.728 41.6451 28.8491C38.8282 23.0664 30.7952 27.0594 32.3271 34.0068C33.6575 40.6227 38.6074 46.7985 44.6906 47.5321C48.2986 48.0459 52.9704 47.5269 55.7457 44.577C57.2578 42.9699 57.7404 40.4216 56.8307 38.3019C54.1295 32.0077 44.6201 42.4735 56.5901 49.841" stroke="#CC922F" stroke-width="2" stroke-miterlimit="10"/>
</g>
<defs>
<clipPath id="clip0_40000340_20943">
<rect width="50" height="50" fill="white" transform="translate(15 15.5)"/>
</clipPath>
</defs>
</svg>
