<svg width="80" height="80" viewBox="0 0 80 80" fill="none" xmlns="http://www.w3.org/2000/svg">
<path d="M40 80C62.0914 80 80 62.0914 80 40C80 17.9086 62.0914 0 40 0C17.9086 0 0 17.9086 0 40C0 62.0914 17.9086 80 40 80Z" fill="#F5F5F5"/>
<path d="M40.0078 59.5019C30.2501 59.5019 20.4924 55.099 15.2565 48.3162C15.0185 47.9593 14.8995 47.4833 15.1375 47.1263L27.0372 22.137C27.1562 21.899 27.3942 21.661 27.7512 21.542C28.1082 21.423 28.3462 21.423 28.7031 21.661C30.8451 22.732 35.129 23.803 40.0078 23.922C45.0057 23.803 49.2895 22.732 51.3125 21.661C51.5505 21.542 51.9075 21.542 52.2645 21.542C52.6214 21.661 52.8594 21.899 52.9784 22.137L64.8781 47.1263C65.1161 47.4833 64.9971 47.9593 64.7591 48.3162C59.5232 55.099 49.7655 59.5019 40.0078 59.5019ZM17.6365 47.4833C22.3963 53.3141 31.3211 57.122 40.0078 57.122C48.6946 57.122 57.6193 53.3141 62.3792 47.4833L51.3125 24.16C48.4566 25.3499 44.1727 26.0639 40.0078 26.1829C35.8429 26.0639 31.6781 25.3499 28.7031 24.16L17.6365 47.4833Z" fill="#0D257B"/>
<path d="M42.2721 54.7419C42.0341 54.7419 41.7961 54.7419 41.5581 54.7419C37.3932 54.5039 33.7043 52.5999 30.2534 48.7921C26.8025 44.9842 27.3975 41.5333 28.4685 39.5103C27.1595 38.3204 26.4455 36.2974 26.8025 34.0365C27.2785 30.8236 29.7774 28.6816 32.9903 28.6816C35.7273 28.8006 37.7502 29.7526 38.9402 31.2996C40.0111 32.8465 40.3681 34.7505 39.7731 37.2494C39.6541 37.8444 38.9402 38.3204 38.3452 38.2014C37.7502 38.0824 37.2742 37.3684 37.3932 36.7734C37.7502 35.1075 37.6312 33.6795 36.9172 32.8465C35.9653 31.5376 34.1803 31.1806 32.7523 31.1806C29.7774 31.1806 29.0635 33.5605 28.9445 34.5125C28.7065 36.1784 29.3014 37.8444 30.2534 38.2014C30.6104 38.3204 30.9674 38.6773 31.0864 39.0343C31.2054 39.3913 31.0864 39.8673 30.8484 40.1053C30.6104 40.4623 28.1115 43.3182 31.8004 47.3641C34.8943 50.696 37.8692 52.3619 41.4391 52.4809C43.105 52.5999 44.533 52.243 45.366 51.41C46.08 50.696 46.3179 49.982 46.3179 49.744C46.3179 48.911 46.08 48.3161 45.604 47.4831L45.485 47.2451C45.128 46.6501 45.366 45.9361 45.961 45.5791C46.5559 45.2222 47.2699 45.4602 47.6269 46.0551L47.7459 46.2931C48.3409 47.2451 48.9359 48.1971 48.8169 49.863C48.8169 50.815 48.3409 52.124 47.0319 53.1949C46.4369 53.7899 44.89 54.7419 42.2721 54.7419Z" fill="#CC922F"/>
<path d="M40.3649 48.1969C39.8889 48.1969 39.5319 47.9589 39.2939 47.483C39.1749 47.364 38.4609 45.698 38.4609 44.27C38.4609 43.5561 39.0559 43.0801 39.6509 43.0801C40.3649 43.0801 40.8409 43.6751 40.8409 44.27C40.8409 44.984 41.1979 45.936 41.4359 46.293C41.6738 46.888 41.4359 47.6019 40.8409 47.8399C40.7219 48.1969 40.4839 48.1969 40.3649 48.1969Z" fill="#CC922F"/>
<path d="M38.4579 45.5796C37.1489 45.4606 34.769 45.3416 34.769 45.3416L35.007 42.9617C35.007 42.9617 37.2679 43.1997 38.4579 43.1997C38.6959 43.0807 39.4099 42.3667 39.8859 41.6527L41.0758 38.5588C41.0758 38.5588 41.0758 38.4398 40.9568 38.4398C40.8378 38.3208 40.3618 38.2018 39.6479 38.3208L38.4579 41.1767C38.2199 41.6527 37.7439 42.0097 37.1489 41.8907L34.65 41.4147C34.055 41.2957 33.579 40.7007 33.698 39.9867C33.817 39.3918 34.412 38.9158 35.126 39.0348L36.673 39.2728L37.7439 36.6548C37.8629 36.2979 38.2199 36.0599 38.5769 35.9409C40.3618 35.4649 41.6708 35.5839 42.6228 36.2979C43.6938 37.1308 43.5748 38.3208 43.5748 38.4398C43.5748 38.5588 43.5748 38.6778 43.4558 38.7968L42.0278 42.2477C42.0278 42.2477 42.0278 42.3667 41.9088 42.3667C41.5518 43.4376 40.2429 45.5796 38.4579 45.5796Z" fill="#CC922F"/>
<path d="M45.6079 47.3645C45.0129 47.3645 44.4179 46.8886 44.4179 46.1746C44.4179 45.4606 44.8939 44.9846 45.6079 44.9846H48.5828L50.1297 42.8427C45.8459 43.5567 42.038 41.1767 41.8 41.0577C41.205 40.7007 41.086 39.9868 41.443 39.3918C41.8 38.7968 42.514 38.6778 43.1089 39.0348C43.1089 39.0348 46.9168 41.2957 50.6057 40.3438C50.7247 40.3438 50.8437 40.3438 50.9627 40.3438C52.0337 40.3438 52.6287 40.8197 52.8667 41.1767C53.4616 42.0097 52.9857 43.0807 52.8667 43.1997C52.8667 43.3187 52.7477 43.3187 52.7477 43.4377L50.1297 46.8886C49.8917 47.1266 49.5348 47.3645 49.1778 47.3645H45.6079Z" fill="#CC922F"/>
</svg>
