<svg width="20" height="15" viewBox="0 0 20 15" fill="none" xmlns="http://www.w3.org/2000/svg">
<path d="M19.1042 2.24583C18.5517 1.96917 17.9017 2.0275 17.4067 2.39833L15.7867 3.96667C15.4833 1.73083 13.5667 0 11.25 0H4.58333C2.05583 0 0 2.05667 0 4.58333V10.4167C0 12.9433 2.05583 15 4.58333 15H11.25C13.56 15 15.4725 13.2792 15.7842 11.0533L17.4067 12.5917C17.695 12.8067 18.0342 12.9175 18.3775 12.9175C18.6567 12.9175 18.9375 12.845 19.1942 12.6967C19.7192 12.3933 20 11.79 20 11.1833V3.695C20 3.0775 19.6567 2.52167 19.1042 2.24583ZM13.3333 10.4167C13.3333 11.5658 12.3992 12.5 11.25 12.5H4.58333C3.435 12.5 2.5 11.5658 2.5 10.4167V4.58333C2.5 3.43417 3.435 2.5 4.58333 2.5H11.25C12.3992 2.5 13.3333 3.43417 13.3333 4.58333V10.4167Z" fill="#0D257B"/>
</svg>
