<svg width="43" height="44" viewBox="0 0 43 44" fill="none" xmlns="http://www.w3.org/2000/svg">
<g filter="url(#filter0_d_9633_15507)">
<rect x="1" y="1.55859" width="41" height="41" rx="20.5" fill="white"/>
</g>
<path d="M22.5638 13.9711L22.5638 13.9712M22.5638 13.9711L22.5638 13.9712M22.5638 13.9711L22.5416 13.9503M22.5638 13.9711C22.5705 13.9773 22.576 13.9836 22.5816 13.9898C22.5871 13.9961 22.5927 14.0023 22.5993 14.0086C22.6021 14.0086 22.6031 14.0102 22.6046 14.0124C22.6054 14.0137 22.6065 14.0153 22.6082 14.0169L22.5416 13.9503M22.5638 13.9712L22.2224 14.3346C22.2158 14.3268 22.2103 14.3199 22.2059 14.3141L22.344 14.1608L22.5416 13.9503M22.5416 13.9503L22.5372 13.9461C22.3243 13.7544 22.0492 13.6211 21.7431 13.5753L22.5416 13.9503ZM22.5416 13.9503L22.3454 14.1591M29.4857 21.4101L29.4872 21.4182L22.1993 14.3147C22.1993 14.3147 22.1994 14.3147 22.1994 14.3148L22.2115 14.3262C22.2193 14.3349 22.2361 14.3533 22.2566 14.3727C22.2849 14.4023 22.3058 14.4268 22.3198 14.4455L22.3295 14.4612C22.333 14.4668 22.3379 14.4744 22.3439 14.4832C22.3719 14.5261 22.3948 14.5647 22.4131 14.6015C22.4683 14.7132 22.4986 14.8373 22.4986 14.9669V15.5794C22.4986 15.5993 22.4986 15.6121 22.4982 15.6238C22.4979 15.6336 22.4976 15.6377 22.4976 15.6377L22.4941 15.6666V15.6961V20.1544V20.6544H22.9941H27.7943H27.7944H27.7945H27.7946H27.7947H27.7948H27.7949H27.795H27.7951H27.7952H27.7953H27.7954H27.7955H27.7956H27.7957H27.7958H27.7959H27.796H27.7961H27.7962H27.7963H27.7964H27.7965H27.7966H27.7967H27.7969H27.797H27.7971H27.7972H27.7973H27.7974H27.7975H27.7976H27.7977H27.7978H27.7979H27.798H27.7981H27.7982H27.7983H27.7984H27.7985H27.7986H27.7987H27.7988H27.7989H27.799H27.7991H27.7992H27.7993H27.7995H27.7996H27.7997H27.7998H27.7999H27.8H27.8001H27.8002H27.8003H27.8004H27.8005H27.8006H27.8007H27.8008H27.8009H27.801H27.8011H27.8012H27.8013H27.8014H27.8015H27.8016H27.8017H27.8018H27.8019H27.8021H27.8022H27.8023H27.8024H27.8025H27.8026H27.8027H27.8028H27.8029H27.803H27.8031H27.8032H27.8033H27.8034H27.8035H27.8036H27.8037H27.8038H27.8039H27.804H27.8041H27.8042H27.8043H27.8044H27.8045H27.8047H27.8048H27.8049H27.805H27.8051H27.8052H27.8053H27.8054H27.8055H27.8056H27.8057H27.8058H27.8059H27.806H27.8061H27.8062H27.8063H27.8064H27.8065H27.8066H27.8067H27.8068H27.8069H27.807H27.8071H27.8073H27.8074H27.8075H27.8076H27.8077H27.8078H27.8079H27.808H27.8081H27.8082H27.8083H27.8084H27.8085H27.8086H27.8087H27.8088H27.8089H27.809H27.8091H27.8092H27.8093H27.8094H27.8095H27.8096H27.8097H27.8098H27.81H27.8101H27.8102H27.8103H27.8104H27.8105H27.8106H27.8107H27.8108H27.8109H27.811H27.8111H27.8112H27.8113H27.8114H27.8115H27.8116H27.8117H27.8118H27.8119H27.812H27.8121H27.8122H27.8123H27.8124H27.8126H27.8127H27.8128H27.8129H27.813H27.8131H27.8132H27.8133H27.8134H27.8135H27.8136H27.8137H27.8138H27.8139H27.814H27.8141H27.8142H27.8143H27.8144H27.8145H27.8146H27.8147H27.8148H27.8149H27.815H27.8152H27.8153H27.8154H27.8155H27.8156H27.8157H27.8158H27.8159H27.816H27.8161H27.8162H27.8163H27.8164H27.8165H27.8166H27.8167H27.8168H27.8169H27.817H27.8171H27.8172H27.8173H27.8174H27.8175H27.8176H27.8178H27.8179H27.818H27.8181H27.8182H27.8183H27.8184H27.8185H27.8186H27.8187H27.8188H27.8189H27.819H27.8191H27.8192H27.8193H27.8194H27.8195H27.8196H27.8197H27.8198H27.8199H27.82H27.8201H27.8202H27.8204H27.8205H27.8206H27.8207H27.8208H27.8209H27.821H27.8211H27.8212H27.8213H27.8214H27.8215H27.8216H27.8217H27.8218H27.8219H27.822H27.8221H27.8222H27.8223H27.8224H27.8225H27.8226H27.8227H27.8228H27.823H27.8231H27.8232H27.8233H27.8234H27.8235H27.8236H27.8237H27.8238H27.8239H27.824H27.8241H27.8242H27.8243H27.8244H27.8245H27.8246H27.8247H27.8248H27.8249H27.825H27.8251H27.8252H27.8253H27.8254H27.8256H27.8257H27.8258H27.8259H27.826H27.8261H27.8262H27.8263H27.8264H27.8265H27.8266H27.8267H27.8268H27.8269H27.827H27.8271H27.8272H27.8273H27.8274H27.8275H27.8276H27.8277H27.8278H27.8279H27.828H27.8281H27.8283H27.8284H27.8285H27.8286H27.8287H27.8288H27.8289H27.829H27.8291H27.8292H27.8293H27.8294H27.8295H27.8296H27.8297H27.8298H27.8299H27.83H27.8301H27.8302H27.8303H27.8304H27.8305H27.8306H27.8307H27.8309H27.831H27.8311H27.8312H27.8313H27.8314H27.8315H27.8316H27.8317H27.8318H27.8319H27.832H27.8321H27.8322H27.8323H27.8324H27.8325H27.8326H27.8327H27.8328H27.8329H27.833H27.8331H27.8332H27.8333H27.8335H27.8336H27.8337H27.8338H27.8339H27.834H27.8341H27.8342H27.8343H27.8344H27.8345H27.8346H27.8347H27.8348H27.8349H27.835H27.8351H27.8352H27.8353H27.8354H27.8355H27.8356H27.8357H27.8358H27.8359H27.8361H27.8362H27.8363H27.8364H27.8365H27.8366H27.8367H27.8368H27.8369H27.837H27.8371H27.8372H27.8373H27.8374H27.8375H27.8376H27.8377H27.8378H27.8379H27.838H27.8381H27.8382H27.8383H27.8384H27.8385H27.8387H27.8388H27.8389H27.839H27.8391H27.8392H27.8393H27.8394H27.8395H27.8396H27.8397H27.8398H27.8399H27.84H27.8401H27.8402H27.8403H27.8404H27.8405H27.8406H27.8407H27.8408H27.8409H27.841H27.8411H27.8413H27.8414H27.8415H27.8416H27.8417H27.8418H27.8419H27.842H27.8421H27.8422H27.8423H27.8424H27.8425H27.8426H27.8427H27.8428H27.8429H27.843H27.8431H27.8432H27.8433H27.8434H27.8435H27.8436H27.8437H27.8439H27.844H27.8441H27.8442H27.8443H27.8444H27.8445H27.8446H27.8447H27.8448H27.8449H27.845H27.8451H27.8452H27.8453H27.8454H27.8455H27.8456H27.8457H27.8458H27.8459H27.846H27.8461H27.8462H27.8463H27.8465H27.8466H27.8467H27.8468H27.8469H27.847H27.8471H27.8472H27.8473H27.8474H27.8475H28.4996C28.5906 20.6544 28.6808 20.6658 28.7713 20.687L28.7713 20.6871L28.7772 20.6884C28.9248 20.7211 29.0522 20.7855 29.1652 20.8832C29.1823 20.901 29.1999 20.9165 29.2172 20.9301C29.3581 21.0619 29.4513 21.2285 29.4857 21.4101Z" fill="#0D257B" stroke="#0D257B"/>
<defs>
<filter id="filter0_d_9633_15507" x="0" y="0.558594" width="43" height="43" filterUnits="userSpaceOnUse" color-interpolation-filters="sRGB">
<feFlood flood-opacity="0" result="BackgroundImageFix"/>
<feColorMatrix in="SourceAlpha" type="matrix" values="0 0 0 0 0 0 0 0 0 0 0 0 0 0 0 0 0 0 127 0" result="hardAlpha"/>
<feOffset/>
<feGaussianBlur stdDeviation="0.5"/>
<feComposite in2="hardAlpha" operator="out"/>
<feColorMatrix type="matrix" values="0 0 0 0 0 0 0 0 0 0 0 0 0 0 0 0 0 0 0.25 0"/>
<feBlend mode="normal" in2="BackgroundImageFix" result="effect1_dropShadow_9633_15507"/>
<feBlend mode="normal" in="SourceGraphic" in2="effect1_dropShadow_9633_15507" result="shape"/>
</filter>
</defs>
</svg>
