<svg width="72" height="69" viewBox="0 0 72 69" fill="none" xmlns="http://www.w3.org/2000/svg">
<path d="M71.1205 18.4891C70.8083 28.8223 68.8458 38.7548 63.8281 47.8854C57.7846 58.9091 48.5298 65.7014 36.2866 68.4852C35.3054 68.7079 34.4803 68.3738 33.6106 68.1511C19.5834 64.5879 10.1947 55.7467 4.75335 42.5184C2.34486 36.6391 0.984515 30.5149 0.337793 24.1902C0.0701834 21.4955 -0.0190197 18.8009 0.00328106 16.1062C0.00328106 15.5494 0.137086 15.0595 0.583101 14.7032C4.61954 11.6967 8.47758 8.42305 12.9823 6.10698C18.4683 3.25642 24.2442 1.43028 30.3992 0.828994C43.7797 -0.507204 55.666 3.1228 66.2143 11.4072C67.5077 12.4316 68.8012 13.4115 70.1392 14.3691C70.8306 14.8591 71.2097 15.4604 71.1428 16.3289C71.0982 17.0415 71.1205 17.7542 71.1205 18.4891Z" fill="#CC922F"/>
<path d="M38.4049 41.4495C38.4049 42.7634 38.3826 44.0551 38.4049 45.369C38.4272 45.8812 38.3157 46.1039 37.7359 46.0816C36.2863 46.0371 34.8368 46.0371 33.4095 46.0816C32.8297 46.1039 32.7182 45.9035 32.7405 45.369C32.7628 42.8302 32.7628 40.3137 32.7405 37.7749C32.7405 36.3942 32.2499 35.9265 30.8895 35.9265C28.4141 35.9265 25.9387 35.9043 23.4634 35.9488C22.7497 35.9711 22.5713 35.7484 22.5936 35.058C22.6382 33.6995 22.6382 32.3411 22.5936 30.9603C22.5713 30.4036 22.7497 30.2477 23.3072 30.2477C25.8272 30.27 28.3695 30.27 30.8895 30.2477C32.2722 30.2477 32.7182 29.8023 32.7182 28.3993C32.7182 25.9051 32.7405 23.3885 32.6959 20.8943C32.6959 20.3153 32.8297 20.1371 33.4318 20.1371C34.8591 20.1817 36.264 20.1817 37.6913 20.1371C38.3157 20.1149 38.4049 20.3598 38.4049 20.8943C38.3826 23.4331 38.3826 25.9496 38.4049 28.4884C38.4049 29.7578 38.8732 30.2477 40.1666 30.2477C42.6866 30.2477 45.2289 30.27 47.7489 30.2254C48.3733 30.2254 48.5517 30.4036 48.5294 31.0271C48.4848 32.3856 48.4848 33.7441 48.5294 35.1248C48.5517 35.7261 48.3956 35.9265 47.7489 35.9265C45.2735 35.882 42.7981 35.9043 40.3227 35.9043C38.8286 35.9043 38.3826 36.3719 38.3826 37.8418C38.4049 39.0666 38.4049 40.2469 38.4049 41.4495Z" fill="#0D257B" stroke="#0D257B" stroke-width="3"/>
</svg>
