<svg width="16" height="16" viewBox="0 0 16 16" fill="none" xmlns="http://www.w3.org/2000/svg">
<path d="M9.32812 2.68359C9.68443 2.6441 10.0451 2.68389 10.3838 2.80176C10.7263 2.92099 11.0375 3.11661 11.2939 3.37305C11.5503 3.62945 11.745 3.94078 11.8643 4.2832C11.9791 4.6133 12.0199 4.96403 11.9854 5.31152L13.4473 4.14258C13.616 4.00612 13.8206 3.92115 14.0361 3.89648C14.2512 3.87195 14.4693 3.9085 14.6641 4.00293C14.8601 4.09626 15.0261 4.24391 15.1416 4.42773C15.2569 4.61141 15.3173 4.82413 15.3164 5.04102V10.959L15.3057 11.1201C15.2836 11.2802 15.2282 11.4344 15.1416 11.5723C15.0261 11.7561 14.8601 11.9028 14.6641 11.9961C14.5082 12.0708 14.3379 12.1101 14.165 12.1104C13.9367 12.1104 13.7143 12.042 13.5264 11.915L13.4482 11.8574L11.9854 10.6875C12.0201 11.0353 11.9792 11.3864 11.8643 11.7168C11.7451 12.0592 11.5503 12.3706 11.2939 12.627C11.0375 12.8834 10.7263 13.079 10.3838 13.1982C10.0451 13.3161 9.68443 13.3559 9.32812 13.3164H3.33887C2.98256 13.3559 2.62188 13.3161 2.2832 13.1982C1.94071 13.079 1.62948 12.8834 1.37305 12.627C1.11663 12.3705 0.920984 12.0593 0.801758 11.7168C0.683822 11.3778 0.643875 11.0168 0.683594 10.6602V5.33887C0.644063 4.98256 0.683921 4.62187 0.801758 4.2832C0.920987 3.94071 1.11661 3.62948 1.37305 3.37305C1.62948 3.11661 1.94071 2.92099 2.2832 2.80176C2.62187 2.68392 2.98256 2.64406 3.33887 2.68359H9.32812ZM3.33301 3.9834C2.82472 3.98345 2.4976 4.09224 2.29492 4.29492C2.09224 4.4976 1.98345 4.82472 1.9834 5.33301V10.667C1.98344 11.1753 2.09225 11.5024 2.29492 11.7051C2.4976 11.9078 2.82472 12.0166 3.33301 12.0166H9.33301C9.84123 12.0166 10.1683 11.9076 10.3711 11.7051C10.5738 11.5024 10.6836 11.1753 10.6836 10.667V5.33301C10.6835 4.82472 10.5738 4.4976 10.3711 4.29492C10.1683 4.09242 9.84121 3.9834 9.33301 3.9834H3.33301ZM11.9834 6.97754V9.02148L14.0166 10.6475V5.35156L11.9834 6.97754Z" fill="white" stroke="white" stroke-width="0.3"/>
</svg>
