<svg width="25" height="24" viewBox="0 0 25 24" fill="none" xmlns="http://www.w3.org/2000/svg">
<g clip-path="url(#clip0_228_6957)">
<path d="M24.5 12.0733C24.5 5.40546 19.1274 0 12.5 0C5.87262 0 0.5 5.40536 0.5 12.0733C0.5 18.0994 4.88825 23.0943 10.625 24V15.5633H7.57812V12.0733H10.625V9.41343C10.625 6.38755 12.4166 4.71615 15.1575 4.71615C16.4705 4.71615 17.8438 4.95195 17.8438 4.95195V7.92313H16.3306C14.8398 7.92313 14.375 8.85381 14.375 9.80864V12.0733H17.7031L17.1711 15.5633H14.375V24C20.1117 23.0943 24.5 18.0995 24.5 12.0733Z" fill="#1877F2"/>
<path d="M17.1711 15.4688L17.7031 12H14.375V9.74906C14.375 8.79994 14.8399 7.875 16.3306 7.875H17.8438V4.92188C17.8438 4.92188 16.4705 4.6875 15.1575 4.6875C12.4166 4.6875 10.625 6.34875 10.625 9.35625V12H7.57812V15.4688H10.625V23.8542C11.2453 23.9514 11.8722 24.0002 12.5 24C13.1278 24.0002 13.7547 23.9514 14.375 23.8542V15.4688H17.1711Z" fill="white"/>
</g>
<defs>
<clipPath id="clip0_228_6957">
<rect width="24" height="24" fill="white" transform="translate(0.5)"/>
</clipPath>
</defs>
</svg>
