<svg width="24" height="25" viewBox="0 0 24 25" fill="none" xmlns="http://www.w3.org/2000/svg">
<path d="M23.7666 9.6498H22.8V9.6H12V14.4H18.7818C17.7924 17.1942 15.1338 19.2 12 19.2C8.0238 19.2 4.8 15.9762 4.8 12C4.8 8.0238 8.0238 4.8 12 4.8C13.8354 4.8 15.5052 5.4924 16.7766 6.6234L20.1708 3.2292C18.0276 1.2318 15.1608 0 12 0C5.373 0 0 5.373 0 12C0 18.627 5.373 24 12 24C18.627 24 24 18.627 24 12C24 11.1954 23.9172 10.41 23.7666 9.6498Z" fill="#FFC107"/>
<path d="M1.38354 6.4146L5.32614 9.306C6.39294 6.6648 8.97655 4.8 11.9999 4.8C13.8353 4.8 15.5051 5.4924 16.7765 6.6234L20.1707 3.2292C18.0275 1.2318 15.1607 0 11.9999 0C7.39075 0 3.39354 2.6022 1.38354 6.4146Z" fill="#FF3D00"/>
<path d="M11.9999 24.0012C15.0995 24.0012 17.9159 22.815 20.0453 20.886L16.3313 17.7432C15.086 18.6902 13.5644 19.2024 11.9999 19.2012C8.8787 19.2012 6.22849 17.211 5.23009 14.4336L1.31689 17.4486C3.30289 21.3348 7.3361 24.0012 11.9999 24.0012Z" fill="#4CAF50"/>
<path d="M23.7666 9.64941H22.8V9.59961H12V14.3996H18.7818C18.3085 15.7295 17.456 16.8915 16.3296 17.7422L16.3314 17.741L20.0454 20.8838C19.7826 21.1226 24 17.9996 24 11.9996C24 11.195 23.9172 10.4096 23.7666 9.64941Z" fill="#1976D2"/>
</svg>
