<svg width="687" height="987" viewBox="0 0 687 987" fill="none" xmlns="http://www.w3.org/2000/svg">
<path d="M0 0H687V903.364C687 949.203 649.84 986.364 604 986.364H0V0Z" fill="url(#paint0_linear_2815_31655)"/>
<path d="M687 0H0V987H687V0Z" fill="url(#paint1_linear_2815_31655)"/>
<mask id="mask0_2815_31655" style="mask-type:luminance" maskUnits="userSpaceOnUse" x="0" y="0" width="687" height="987">
<path d="M687 0H0V987H687V0Z" fill="white"/>
</mask>
<g mask="url(#mask0_2815_31655)">
<path d="M103.5 0V29.22L50.34 59.92L0 30.85V0H103.5Z" fill="url(#paint2_linear_2815_31655)"/>
<g opacity="0.38">
<path d="M209.82 0V29.22L156.66 59.92L103.5 29.22V0H209.82Z" fill="url(#paint3_linear_2815_31655)" style="mix-blend-mode:color-dodge"/>
</g>
<g opacity="0.38">
<path d="M316.15 0V29.22L262.99 59.92L209.82 29.22V0H316.15Z" fill="url(#paint4_linear_2815_31655)" style="mix-blend-mode:color-dodge"/>
</g>
<path style="mix-blend-mode:multiply" opacity="0.29" d="M422.48 0V29.22L369.31 59.92L316.15 29.22V0H422.48Z" fill="url(#paint5_linear_2815_31655)"/>
<g opacity="0.38">
<path d="M528.8 0V29.22L475.64 59.92L422.48 29.22V0H528.8Z" fill="url(#paint6_linear_2815_31655)" style="mix-blend-mode:color-dodge"/>
</g>
<path d="M635.13 0V29.22L581.96 59.92L528.8 29.22V0H635.13Z" fill="url(#paint7_linear_2815_31655)"/>
<path d="M687 0V59.18L635.13 29.22V0H687Z" fill="url(#paint8_linear_2815_31655)"/>
<g opacity="0.38">
<path d="M50.34 59.8996V121.29L0 150.35V30.8496L50.34 59.8996Z" fill="url(#paint9_linear_2815_31655)" style="mix-blend-mode:color-dodge"/>
</g>
<path style="mix-blend-mode:multiply" opacity="0.13" d="M156.66 121.291V59.9009L103.5 29.2109L50.3401 59.9009V121.291L103.5 151.981L156.66 121.291Z" fill="url(#paint10_linear_2815_31655)"/>
<g opacity="0.06">
<path d="M262.99 121.291V59.9009L209.82 29.2109L156.66 59.9009V121.291L209.82 151.981L262.99 121.291Z" fill="url(#paint11_linear_2815_31655)" style="mix-blend-mode:color-dodge"/>
</g>
<path d="M369.31 121.291V59.9009L316.15 29.2109L262.99 59.9009V121.291L316.15 151.981L369.31 121.291Z" fill="url(#paint12_linear_2815_31655)"/>
<path d="M475.64 121.291V59.9009L422.48 29.2109L369.31 59.9009V121.291L422.48 151.981L475.64 121.291Z" fill="url(#paint13_linear_2815_31655)"/>
<path d="M581.96 121.291V59.9009L528.8 29.2109L475.64 59.9009V121.291L528.8 151.981L581.96 121.291Z" fill="url(#paint14_linear_2815_31655)"/>
<path d="M687 59.1609V122.031L635.13 151.981L581.96 121.291V59.9009L635.13 29.2109L687 59.1609Z" fill="url(#paint15_linear_2815_31655)"/>
<path d="M103.5 152.11V213.5L50.34 244.19L0 215.13V150.48L50.34 121.42L103.5 152.11Z" fill="url(#paint16_linear_2815_31655)"/>
<path d="M209.82 213.5V152.11L156.66 121.42L103.5 152.11V213.5L156.66 244.19L209.82 213.5Z" fill="url(#paint17_linear_2815_31655)"/>
<path d="M316.15 213.5V152.11L262.99 121.42L209.82 152.11V213.5L262.99 244.19L316.15 213.5Z" fill="url(#paint18_linear_2815_31655)"/>
<path d="M422.48 213.5V152.11L369.31 121.42L316.15 152.11V213.5L369.31 244.19L422.48 213.5Z" fill="url(#paint19_linear_2815_31655)"/>
<path d="M528.8 213.5V152.11L475.64 121.42L422.48 152.11V213.5L475.64 244.19L528.8 213.5Z" fill="url(#paint20_linear_2815_31655)"/>
<path d="M635.13 213.5V152.11L581.96 121.42L528.8 152.11V213.5L581.96 244.19L635.13 213.5Z" fill="url(#paint21_linear_2815_31655)"/>
<path d="M687 122.16V243.45L635.13 213.5V152.11L687 122.16Z" fill="url(#paint22_linear_2815_31655)"/>
<g opacity="0.58">
<path d="M50.34 244.169V305.559L0 334.629V215.109L50.34 244.169Z" fill="url(#paint23_linear_2815_31655)" style="mix-blend-mode:multiply"/>
</g>
<g opacity="0.06">
<path d="M156.66 305.56V244.17L103.5 213.48L50.3401 244.17V305.56L103.5 336.26L156.66 305.56Z" fill="url(#paint24_linear_2815_31655)" style="mix-blend-mode:color-dodge"/>
</g>
<path d="M262.99 305.56V244.17L209.82 213.48L156.66 244.17V305.56L209.82 336.26L262.99 305.56Z" fill="url(#paint25_linear_2815_31655)"/>
<path d="M369.31 305.56V244.17L316.15 213.48L262.99 244.17V305.56L316.15 336.26L369.31 305.56Z" fill="url(#paint26_linear_2815_31655)"/>
<path d="M475.64 305.56V244.17L422.48 213.48L369.31 244.17V305.56L422.48 336.26L475.64 305.56Z" fill="url(#paint27_linear_2815_31655)"/>
<path d="M581.96 305.56V244.17L528.8 213.48L475.64 244.17V305.56L528.8 336.26L581.96 305.56Z" fill="url(#paint28_linear_2815_31655)"/>
<path d="M687 243.43V306.3L635.13 336.26L581.96 305.56V244.17L635.13 213.48L687 243.43Z" fill="url(#paint29_linear_2815_31655)"/>
<g opacity="0.35">
<path d="M103.5 336.379V397.769L50.34 428.459L0 399.399V334.749L50.34 305.689L103.5 336.379Z" fill="url(#paint30_linear_2815_31655)" style="mix-blend-mode:color-dodge"/>
</g>
<path d="M209.82 397.769V336.379L156.66 305.689L103.5 336.379V397.769L156.66 428.459L209.82 397.769Z" fill="url(#paint31_linear_2815_31655)"/>
<path d="M316.15 397.769V336.379L262.99 305.689L209.82 336.379V397.769L262.99 428.459L316.15 397.769Z" fill="url(#paint32_linear_2815_31655)"/>
<path d="M528.8 397.769V336.379L475.64 305.689L422.48 336.379V397.769L475.64 428.459L528.8 397.769Z" fill="url(#paint33_linear_2815_31655)"/>
<path d="M635.13 397.769V336.379L581.96 305.689L528.8 336.379V397.769L581.96 428.459L635.13 397.769Z" fill="url(#paint34_linear_2815_31655)"/>
<path d="M687 306.43V427.71L635.13 397.77V336.38L687 306.43Z" fill="url(#paint35_linear_2815_31655)"/>
<g opacity="0.1">
<path d="M50.34 428.45V489.84L0 518.9V399.4L50.34 428.45Z" fill="url(#paint36_linear_2815_31655)" style="mix-blend-mode:multiply"/>
</g>
<path d="M156.66 489.84V428.45L103.5 397.76L50.3401 428.45V489.84L103.5 520.53L156.66 489.84Z" fill="url(#paint37_linear_2815_31655)"/>
<path d="M262.99 489.84V428.45L209.82 397.76L156.66 428.45V489.84L209.82 520.53L262.99 489.84Z" fill="url(#paint38_linear_2815_31655)"/>
<path d="M369.31 489.84V428.45L316.15 397.76L262.99 428.45V489.84L316.15 520.53L369.31 489.84Z" fill="url(#paint39_linear_2815_31655)"/>
<path d="M475.64 489.84V428.45L422.48 397.76L369.31 428.45V489.84L422.48 520.53L475.64 489.84Z" fill="url(#paint40_linear_2815_31655)"/>
<path d="M581.96 489.84V428.45L528.8 397.76L475.64 428.45V489.84L528.8 520.53L581.96 489.84Z" fill="url(#paint41_linear_2815_31655)"/>
<path d="M687 427.71V490.58L635.13 520.53L581.96 489.84V428.45L635.13 397.76L687 427.71Z" fill="url(#paint42_linear_2815_31655)"/>
<path d="M103.5 520.661V582.051L50.34 612.741L0 583.681V519.031L50.34 489.961L103.5 520.661Z" fill="url(#paint43_linear_2815_31655)"/>
<path d="M209.82 582.051V520.661L156.66 489.961L103.5 520.661V582.051L156.66 612.741L209.82 582.051Z" fill="url(#paint44_linear_2815_31655)"/>
<path d="M316.15 582.051V520.661L262.99 489.961L209.82 520.661V582.051L262.99 612.741L316.15 582.051Z" fill="url(#paint45_linear_2815_31655)"/>
<path d="M422.48 582.051V520.661L369.31 489.961L316.15 520.661V582.051L369.31 612.741L422.48 582.051Z" fill="url(#paint46_linear_2815_31655)"/>
<path d="M528.8 582.051V520.661L475.64 489.961L422.48 520.661V582.051L475.64 612.741L528.8 582.051Z" fill="url(#paint47_linear_2815_31655)"/>
<path d="M635.13 582.051V520.661L581.96 489.961L528.8 520.661V582.051L581.96 612.741L635.13 582.051Z" fill="url(#paint48_linear_2815_31655)"/>
<path d="M687 490.699V611.999L635.13 582.049V520.659L687 490.699Z" fill="url(#paint49_linear_2815_31655)"/>
<path d="M50.34 612.72V674.11L0 703.17V583.66L50.34 612.72Z" fill="url(#paint50_linear_2815_31655)"/>
<path d="M156.66 674.109V612.719L103.5 582.029L50.3401 612.719V674.109L103.5 704.799L156.66 674.109Z" fill="url(#paint51_linear_2815_31655)"/>
<path d="M262.99 674.109V612.719L209.82 582.029L156.66 612.719V674.109L209.82 704.799L262.99 674.109Z" fill="url(#paint52_linear_2815_31655)"/>
<path d="M369.31 674.109V612.719L316.15 582.029L262.99 612.719V674.109L316.15 704.799L369.31 674.109Z" fill="url(#paint53_linear_2815_31655)"/>
<path d="M475.64 674.109V612.719L422.48 582.029L369.31 612.719V674.109L422.48 704.799L475.64 674.109Z" fill="url(#paint54_linear_2815_31655)"/>
<path d="M581.96 674.109V612.719L528.8 582.029L475.64 612.719V674.109L528.8 704.799L581.96 674.109Z" fill="url(#paint55_linear_2815_31655)"/>
<g opacity="0.23">
<path d="M687 611.979V674.849L635.13 704.799L581.96 674.109V612.719L635.13 582.029L687 611.979Z" fill="url(#paint56_linear_2815_31655)" style="mix-blend-mode:color-dodge"/>
</g>
<path d="M103.5 704.93V766.32L50.34 797.01L0 767.95V703.3L50.34 674.24L103.5 704.93Z" fill="url(#paint57_linear_2815_31655)"/>
<path d="M209.82 766.32V704.93L156.66 674.24L103.5 704.93V766.32L156.66 797.01L209.82 766.32Z" fill="url(#paint58_linear_2815_31655)"/>
<path d="M316.15 766.32V704.93L262.99 674.24L209.82 704.93V766.32L262.99 797.01L316.15 766.32Z" fill="url(#paint59_linear_2815_31655)"/>
<path d="M422.48 766.32V704.93L369.31 674.24L316.15 704.93V766.32L369.31 797.01L422.48 766.32Z" fill="url(#paint60_linear_2815_31655)"/>
<path d="M528.8 766.32V704.93L475.64 674.24L422.48 704.93V766.32L475.64 797.01L528.8 766.32Z" fill="url(#paint61_linear_2815_31655)"/>
<path d="M635.13 766.32V704.93L581.96 674.24L528.8 704.93V766.32L581.96 797.01L635.13 766.32Z" fill="url(#paint62_linear_2815_31655)"/>
<g opacity="0.38">
<path d="M687 674.98V796.26L635.13 766.32V704.93L687 674.98Z" fill="url(#paint63_linear_2815_31655)" style="mix-blend-mode:color-dodge"/>
</g>
<path d="M50.34 797V858.38L0 887.45V767.93L50.34 797Z" fill="url(#paint64_linear_2815_31655)"/>
<path d="M156.66 858.381V797.001L103.5 766.301L50.3401 797.001V858.381L103.5 889.081L156.66 858.381Z" fill="url(#paint65_linear_2815_31655)"/>
<path d="M262.99 858.381V797.001L209.82 766.301L156.66 797.001V858.381L209.82 889.081L262.99 858.381Z" fill="url(#paint66_linear_2815_31655)"/>
<path d="M369.31 858.381V797.001L316.15 766.301L262.99 797.001V858.381L316.15 889.081L369.31 858.381Z" fill="url(#paint67_linear_2815_31655)"/>
<path d="M475.64 858.381V797.001L422.48 766.301L369.31 797.001V858.381L422.48 889.081L475.64 858.381Z" fill="url(#paint68_linear_2815_31655)"/>
<path d="M581.96 858.381V797.001L528.8 766.301L475.64 797.001V858.381L528.8 889.081L581.96 858.381Z" fill="url(#paint69_linear_2815_31655)"/>
<g opacity="0.26">
<path d="M687 796.261V859.121L635.13 889.081L581.96 858.381V797.001L635.13 766.301L687 796.261Z" fill="url(#paint70_linear_2815_31655)" style="mix-blend-mode:color-dodge"/>
</g>
<path d="M103.5 889.21V950.59L50.34 981.29L0 952.22V887.58L50.34 858.51L103.5 889.21Z" fill="url(#paint71_linear_2815_31655)"/>
<path d="M209.82 950.59V889.21L156.66 858.51L103.5 889.21V950.59L156.66 981.29L209.82 950.59Z" fill="url(#paint72_linear_2815_31655)"/>
<path d="M316.15 950.59V889.21L262.99 858.51L209.82 889.21V950.59L262.99 981.29L316.15 950.59Z" fill="url(#paint73_linear_2815_31655)"/>
<g opacity="0.08">
<path d="M422.48 950.59V889.21L369.31 858.51L316.15 889.21V950.59L369.31 981.29L422.48 950.59Z" fill="url(#paint74_linear_2815_31655)" style="mix-blend-mode:color-dodge"/>
</g>
<path d="M528.8 950.59V889.21L475.64 858.51L422.48 889.21V950.59L475.64 981.29L528.8 950.59Z" fill="url(#paint75_linear_2815_31655)"/>
<path d="M635.13 950.59V889.21L581.96 858.51L528.8 889.21V950.59L581.96 981.29L635.13 950.59Z" fill="url(#paint76_linear_2815_31655)"/>
<path d="M687 859.25V980.55L635.13 950.59V889.21L687 859.25Z" fill="url(#paint77_linear_2815_31655)"/>
<path d="M50.34 981.271V987.001H0V952.221L50.34 981.271Z" fill="url(#paint78_linear_2815_31655)"/>
<path d="M156.66 981.27V987H50.3401V981.27L103.5 950.58L156.66 981.27Z" fill="url(#paint79_linear_2815_31655)"/>
<path d="M262.99 981.27V987H156.66V981.27L209.82 950.58L262.99 981.27Z" fill="url(#paint80_linear_2815_31655)"/>
<path style="mix-blend-mode:multiply" opacity="0.6" d="M369.31 981.27V987H262.99V981.27L316.15 950.58L369.31 981.27Z" fill="url(#paint81_linear_2815_31655)"/>
<g opacity="0.4">
<path d="M475.64 981.27V987H369.31V981.27L422.48 950.58L475.64 981.27Z" fill="url(#paint82_linear_2815_31655)" style="mix-blend-mode:color-dodge"/>
</g>
<g opacity="0.53">
<path d="M581.96 981.27V987H475.64V981.27L528.8 950.58L581.96 981.27Z" fill="url(#paint83_linear_2815_31655)" style="mix-blend-mode:color-dodge"/>
</g>
<g opacity="0.32">
<path d="M687 980.53V987H581.96V981.27L635.13 950.58L687 980.53Z" fill="url(#paint84_linear_2815_31655)" style="mix-blend-mode:multiply"/>
</g>
</g>
<defs>
<linearGradient id="paint0_linear_2815_31655" x1="0" y1="0" x2="661.103" y2="957.894" gradientUnits="userSpaceOnUse">
<stop stop-color="#3853A1"/>
<stop offset="1" stop-color="#0D257B"/>
</linearGradient>
<linearGradient id="paint1_linear_2815_31655" x1="9.27997" y1="-1.80998" x2="681.85" y2="994.92" gradientUnits="userSpaceOnUse">
<stop stop-color="#003298"/>
<stop offset="0.51" stop-color="#0B2E8A"/>
<stop offset="0.99" stop-color="#013297"/>
</linearGradient>
<linearGradient id="paint2_linear_2815_31655" x1="26.66" y1="-19.28" x2="76.06" y2="49.06" gradientUnits="userSpaceOnUse">
<stop stop-color="#E3C57F"/>
<stop offset="1" stop-color="#CC922F"/>
</linearGradient>
<linearGradient id="paint3_linear_2815_31655" x1="131.47" y1="-20.23" x2="181.85" y2="49.45" gradientUnits="userSpaceOnUse">
<stop stop-color="#5588CF"/>
<stop offset="1" stop-color="#094B9E"/>
</linearGradient>
<linearGradient id="paint4_linear_2815_31655" x1="237.8" y1="-20.23" x2="288.17" y2="49.45" gradientUnits="userSpaceOnUse">
<stop stop-color="#066FBF"/>
<stop offset="1" stop-color="#074CA4"/>
</linearGradient>
<linearGradient id="paint5_linear_2815_31655" x1="344.13" y1="-20.23" x2="394.5" y2="49.45" gradientUnits="userSpaceOnUse">
<stop stop-color="#022E8F"/>
<stop offset="1" stop-color="#032D8E"/>
</linearGradient>
<linearGradient id="paint6_linear_2815_31655" x1="450.45" y1="-20.23" x2="500.83" y2="49.45" gradientUnits="userSpaceOnUse">
<stop stop-color="#0B6CBE"/>
<stop offset="1" stop-color="#094BA2"/>
</linearGradient>
<linearGradient id="paint7_linear_2815_31655" x1="556.78" y1="-20.23" x2="607.15" y2="49.45" gradientUnits="userSpaceOnUse">
<stop stop-color="#0D257B" stop-opacity="0.5"/>
<stop offset="1" stop-color="#0D257B" stop-opacity="0"/>
</linearGradient>
<linearGradient id="paint8_linear_2815_31655" x1="645.22" y1="-7.3" x2="691.13" y2="56.19" gradientUnits="userSpaceOnUse">
<stop stop-color="#0D257B" stop-opacity="0.5"/>
<stop offset="1" stop-color="#0D257B" stop-opacity="0"/>
</linearGradient>
<linearGradient id="paint9_linear_2815_31655" x1="-18.74" y1="44.3996" x2="41.49" y2="127.69" gradientUnits="userSpaceOnUse">
<stop stop-color="#3980DE"/>
<stop offset="1" stop-color="#083C99"/>
</linearGradient>
<linearGradient id="paint10_linear_2815_31655" x1="70.6801" y1="45.2009" x2="136.32" y2="135.991" gradientUnits="userSpaceOnUse">
<stop stop-color="#082E8C"/>
<stop offset="1" stop-color="#0B2B85"/>
</linearGradient>
<linearGradient id="paint11_linear_2815_31655" x1="177" y1="45.2009" x2="242.65" y2="135.991" gradientUnits="userSpaceOnUse">
<stop stop-color="#0546A2"/>
<stop offset="1" stop-color="#0448A5"/>
</linearGradient>
<linearGradient id="paint12_linear_2815_31655" x1="283.33" y1="45.2009" x2="348.97" y2="135.991" gradientUnits="userSpaceOnUse">
<stop stop-color="#0D257B" stop-opacity="0.5"/>
<stop offset="1" stop-color="#0D257B" stop-opacity="0"/>
</linearGradient>
<linearGradient id="paint13_linear_2815_31655" x1="389.65" y1="45.2009" x2="455.3" y2="135.991" gradientUnits="userSpaceOnUse">
<stop stop-color="#0D257B" stop-opacity="0.5"/>
<stop offset="1" stop-color="#0D257B" stop-opacity="0"/>
</linearGradient>
<linearGradient id="paint14_linear_2815_31655" x1="495.98" y1="45.2009" x2="561.62" y2="135.991" gradientUnits="userSpaceOnUse">
<stop stop-color="#0D257B" stop-opacity="0.5"/>
<stop offset="1" stop-color="#0D257B" stop-opacity="0"/>
</linearGradient>
<linearGradient id="paint15_linear_2815_31655" x1="602.05" y1="45.3709" x2="667.61" y2="136.051" gradientUnits="userSpaceOnUse">
<stop stop-color="#0D257B" stop-opacity="0.5"/>
<stop offset="1" stop-color="#0D257B" stop-opacity="0"/>
</linearGradient>
<linearGradient id="paint16_linear_2815_31655" x1="18.25" y1="137.29" x2="83.7" y2="227.81" gradientUnits="userSpaceOnUse">
<stop stop-color="#E3C57F"/>
<stop offset="1" stop-color="#CC922F"/>
</linearGradient>
<linearGradient id="paint17_linear_2815_31655" x1="123.84" y1="137.4" x2="189.49" y2="228.2" gradientUnits="userSpaceOnUse">
<stop stop-color="#0D257B" stop-opacity="0.5"/>
<stop offset="1" stop-color="#0D257B" stop-opacity="0"/>
</linearGradient>
<linearGradient id="paint18_linear_2815_31655" x1="230.16" y1="137.4" x2="295.81" y2="228.2" gradientUnits="userSpaceOnUse">
<stop stop-color="#0D257B" stop-opacity="0.5"/>
<stop offset="1" stop-color="#0D257B" stop-opacity="0"/>
</linearGradient>
<linearGradient id="paint19_linear_2815_31655" x1="336.49" y1="137.4" x2="402.14" y2="228.2" gradientUnits="userSpaceOnUse">
<stop stop-color="#0D257B" stop-opacity="0.5"/>
<stop offset="1" stop-color="#0D257B" stop-opacity="0"/>
</linearGradient>
<linearGradient id="paint20_linear_2815_31655" x1="442.82" y1="137.4" x2="508.46" y2="228.2" gradientUnits="userSpaceOnUse">
<stop stop-color="#0D257B" stop-opacity="0.5"/>
<stop offset="1" stop-color="#0D257B" stop-opacity="0"/>
</linearGradient>
<linearGradient id="paint21_linear_2815_31655" x1="549.14" y1="137.4" x2="614.79" y2="228.2" gradientUnits="userSpaceOnUse">
<stop stop-color="#0D257B" stop-opacity="0.5"/>
<stop offset="1" stop-color="#0D257B" stop-opacity="0"/>
</linearGradient>
<linearGradient id="paint22_linear_2815_31655" x1="644.7" y1="145.19" x2="705.87" y2="229.8" gradientUnits="userSpaceOnUse">
<stop stop-color="#0D257B" stop-opacity="0.5"/>
<stop offset="1" stop-color="#0D257B" stop-opacity="0"/>
</linearGradient>
<linearGradient id="paint23_linear_2815_31655" x1="-18.74" y1="228.659" x2="41.48" y2="311.959" gradientUnits="userSpaceOnUse">
<stop stop-color="#5F9AF0"/>
<stop offset="1" stop-color="#083C99"/>
</linearGradient>
<linearGradient id="paint24_linear_2815_31655" x1="70.6801" y1="229.47" x2="136.32" y2="320.27" gradientUnits="userSpaceOnUse">
<stop stop-color="#5A8EED"/>
<stop offset="1" stop-color="#053C9B"/>
</linearGradient>
<linearGradient id="paint25_linear_2815_31655" x1="177" y1="229.47" x2="242.65" y2="320.27" gradientUnits="userSpaceOnUse">
<stop stop-color="#0D257B" stop-opacity="0.5"/>
<stop offset="1" stop-color="#0D257B" stop-opacity="0"/>
</linearGradient>
<linearGradient id="paint26_linear_2815_31655" x1="283.33" y1="229.47" x2="348.97" y2="320.27" gradientUnits="userSpaceOnUse">
<stop stop-color="#0D257B" stop-opacity="0.5"/>
<stop offset="1" stop-color="#0D257B" stop-opacity="0"/>
</linearGradient>
<linearGradient id="paint27_linear_2815_31655" x1="389.65" y1="229.47" x2="455.3" y2="320.27" gradientUnits="userSpaceOnUse">
<stop stop-color="#0D257B" stop-opacity="0.5"/>
<stop offset="1" stop-color="#0D257B" stop-opacity="0"/>
</linearGradient>
<linearGradient id="paint28_linear_2815_31655" x1="495.98" y1="229.47" x2="561.62" y2="320.27" gradientUnits="userSpaceOnUse">
<stop stop-color="#0D257B" stop-opacity="0.5"/>
<stop offset="1" stop-color="#0D257B" stop-opacity="0"/>
</linearGradient>
<linearGradient id="paint29_linear_2815_31655" x1="602.05" y1="229.64" x2="667.61" y2="320.32" gradientUnits="userSpaceOnUse">
<stop stop-color="#0D257B" stop-opacity="0.5"/>
<stop offset="1" stop-color="#0D257B" stop-opacity="0"/>
</linearGradient>
<linearGradient id="paint30_linear_2815_31655" x1="18.25" y1="321.559" x2="83.7" y2="412.079" gradientUnits="userSpaceOnUse">
<stop stop-color="#022E8F"/>
<stop offset="1" stop-color="#08277D"/>
</linearGradient>
<linearGradient id="paint31_linear_2815_31655" x1="123.84" y1="321.679" x2="189.49" y2="412.479" gradientUnits="userSpaceOnUse">
<stop stop-color="#0D257B" stop-opacity="0.5"/>
<stop offset="1" stop-color="#0D257B" stop-opacity="0"/>
</linearGradient>
<linearGradient id="paint32_linear_2815_31655" x1="230.16" y1="321.679" x2="295.81" y2="412.479" gradientUnits="userSpaceOnUse">
<stop stop-color="#0D257B" stop-opacity="0.5"/>
<stop offset="1" stop-color="#0D257B" stop-opacity="0"/>
</linearGradient>
<linearGradient id="paint33_linear_2815_31655" x1="442.82" y1="321.679" x2="508.46" y2="412.479" gradientUnits="userSpaceOnUse">
<stop stop-color="#0D257B" stop-opacity="0.5"/>
<stop offset="1" stop-color="#0D257B" stop-opacity="0"/>
</linearGradient>
<linearGradient id="paint34_linear_2815_31655" x1="549.14" y1="321.679" x2="614.79" y2="412.479" gradientUnits="userSpaceOnUse">
<stop stop-color="#0D257B" stop-opacity="0.5"/>
<stop offset="1" stop-color="#0D257B" stop-opacity="0"/>
</linearGradient>
<linearGradient id="paint35_linear_2815_31655" x1="644.7" y1="329.46" x2="705.87" y2="414.07" gradientUnits="userSpaceOnUse">
<stop stop-color="#0D257B" stop-opacity="0.5"/>
<stop offset="1" stop-color="#0D257B" stop-opacity="0"/>
</linearGradient>
<linearGradient id="paint36_linear_2815_31655" x1="-18.74" y1="412.95" x2="41.49" y2="496.24" gradientUnits="userSpaceOnUse">
<stop stop-color="#4A65C5"/>
<stop offset="1" stop-color="#2746B7"/>
</linearGradient>
<linearGradient id="paint37_linear_2815_31655" x1="70.6801" y1="413.74" x2="136.32" y2="504.54" gradientUnits="userSpaceOnUse">
<stop stop-color="#0D257B" stop-opacity="0.5"/>
<stop offset="1" stop-color="#0D257B" stop-opacity="0"/>
</linearGradient>
<linearGradient id="paint38_linear_2815_31655" x1="177" y1="413.74" x2="242.65" y2="504.54" gradientUnits="userSpaceOnUse">
<stop stop-color="#0D257B" stop-opacity="0.5"/>
<stop offset="1" stop-color="#0D257B" stop-opacity="0"/>
</linearGradient>
<linearGradient id="paint39_linear_2815_31655" x1="283.33" y1="413.74" x2="348.97" y2="504.54" gradientUnits="userSpaceOnUse">
<stop stop-color="#0D257B" stop-opacity="0.5"/>
<stop offset="1" stop-color="#0D257B" stop-opacity="0"/>
</linearGradient>
<linearGradient id="paint40_linear_2815_31655" x1="389.65" y1="413.74" x2="455.3" y2="504.54" gradientUnits="userSpaceOnUse">
<stop stop-color="#0D257B" stop-opacity="0.5"/>
<stop offset="1" stop-color="#0D257B" stop-opacity="0"/>
</linearGradient>
<linearGradient id="paint41_linear_2815_31655" x1="495.98" y1="413.74" x2="561.62" y2="504.54" gradientUnits="userSpaceOnUse">
<stop stop-color="#0D257B" stop-opacity="0.5"/>
<stop offset="1" stop-color="#0D257B" stop-opacity="0"/>
</linearGradient>
<linearGradient id="paint42_linear_2815_31655" x1="602.05" y1="413.92" x2="667.61" y2="504.6" gradientUnits="userSpaceOnUse">
<stop stop-color="#0D257B" stop-opacity="0.5"/>
<stop offset="1" stop-color="#0D257B" stop-opacity="0"/>
</linearGradient>
<linearGradient id="paint43_linear_2815_31655" x1="18.25" y1="505.841" x2="83.7" y2="596.361" gradientUnits="userSpaceOnUse">
<stop stop-color="#0D257B" stop-opacity="0.5"/>
<stop offset="1" stop-color="#0D257B" stop-opacity="0"/>
</linearGradient>
<linearGradient id="paint44_linear_2815_31655" x1="123.84" y1="505.951" x2="189.49" y2="596.751" gradientUnits="userSpaceOnUse">
<stop stop-color="#0D257B" stop-opacity="0.5"/>
<stop offset="1" stop-color="#0D257B" stop-opacity="0"/>
</linearGradient>
<linearGradient id="paint45_linear_2815_31655" x1="230.16" y1="505.951" x2="295.81" y2="596.751" gradientUnits="userSpaceOnUse">
<stop stop-color="#0D257B" stop-opacity="0.5"/>
<stop offset="1" stop-color="#0D257B" stop-opacity="0"/>
</linearGradient>
<linearGradient id="paint46_linear_2815_31655" x1="336.49" y1="505.951" x2="402.14" y2="596.751" gradientUnits="userSpaceOnUse">
<stop stop-color="#0D257B" stop-opacity="0.5"/>
<stop offset="1" stop-color="#0D257B" stop-opacity="0"/>
</linearGradient>
<linearGradient id="paint47_linear_2815_31655" x1="442.82" y1="505.951" x2="508.46" y2="596.751" gradientUnits="userSpaceOnUse">
<stop stop-color="#0D257B" stop-opacity="0.5"/>
<stop offset="1" stop-color="#0D257B" stop-opacity="0"/>
</linearGradient>
<linearGradient id="paint48_linear_2815_31655" x1="549.14" y1="505.951" x2="614.79" y2="596.751" gradientUnits="userSpaceOnUse">
<stop stop-color="#0D257B" stop-opacity="0.5"/>
<stop offset="1" stop-color="#0D257B" stop-opacity="0"/>
</linearGradient>
<linearGradient id="paint49_linear_2815_31655" x1="644.7" y1="513.739" x2="705.88" y2="598.349" gradientUnits="userSpaceOnUse">
<stop stop-color="#0D257B" stop-opacity="0.5"/>
<stop offset="1" stop-color="#0D257B" stop-opacity="0"/>
</linearGradient>
<linearGradient id="paint50_linear_2815_31655" x1="-18.74" y1="597.21" x2="41.49" y2="680.51" gradientUnits="userSpaceOnUse">
<stop stop-color="#0D257B" stop-opacity="0.5"/>
<stop offset="1" stop-color="#0D257B" stop-opacity="0"/>
</linearGradient>
<linearGradient id="paint51_linear_2815_31655" x1="70.6801" y1="598.019" x2="136.32" y2="688.819" gradientUnits="userSpaceOnUse">
<stop stop-color="#0D257B" stop-opacity="0.5"/>
<stop offset="1" stop-color="#0D257B" stop-opacity="0"/>
</linearGradient>
<linearGradient id="paint52_linear_2815_31655" x1="177" y1="598.019" x2="242.65" y2="688.819" gradientUnits="userSpaceOnUse">
<stop stop-color="#0D257B" stop-opacity="0.5"/>
<stop offset="1" stop-color="#0D257B" stop-opacity="0"/>
</linearGradient>
<linearGradient id="paint53_linear_2815_31655" x1="283.33" y1="598.019" x2="348.97" y2="688.819" gradientUnits="userSpaceOnUse">
<stop stop-color="#0D257B" stop-opacity="0.5"/>
<stop offset="1" stop-color="#0D257B" stop-opacity="0"/>
</linearGradient>
<linearGradient id="paint54_linear_2815_31655" x1="389.65" y1="598.019" x2="455.3" y2="688.819" gradientUnits="userSpaceOnUse">
<stop stop-color="#0D257B" stop-opacity="0.5"/>
<stop offset="1" stop-color="#0D257B" stop-opacity="0"/>
</linearGradient>
<linearGradient id="paint55_linear_2815_31655" x1="495.98" y1="598.019" x2="561.62" y2="688.819" gradientUnits="userSpaceOnUse">
<stop stop-color="#0D257B" stop-opacity="0.5"/>
<stop offset="1" stop-color="#0D257B" stop-opacity="0"/>
</linearGradient>
<linearGradient id="paint56_linear_2815_31655" x1="602.05" y1="598.189" x2="667.61" y2="688.869" gradientUnits="userSpaceOnUse">
<stop stop-color="#2A5EBA"/>
<stop offset="1" stop-color="#043295"/>
</linearGradient>
<linearGradient id="paint57_linear_2815_31655" x1="18.25" y1="690.11" x2="83.7" y2="780.63" gradientUnits="userSpaceOnUse">
<stop stop-color="#0D257B" stop-opacity="0.5"/>
<stop offset="1" stop-color="#0D257B" stop-opacity="0"/>
</linearGradient>
<linearGradient id="paint58_linear_2815_31655" x1="123.84" y1="690.23" x2="189.49" y2="781.02" gradientUnits="userSpaceOnUse">
<stop stop-color="#0D257B" stop-opacity="0.5"/>
<stop offset="1" stop-color="#0D257B" stop-opacity="0"/>
</linearGradient>
<linearGradient id="paint59_linear_2815_31655" x1="230.16" y1="690.23" x2="295.81" y2="781.02" gradientUnits="userSpaceOnUse">
<stop stop-color="#0D257B" stop-opacity="0.5"/>
<stop offset="1" stop-color="#0D257B" stop-opacity="0"/>
</linearGradient>
<linearGradient id="paint60_linear_2815_31655" x1="336.49" y1="690.23" x2="402.14" y2="781.02" gradientUnits="userSpaceOnUse">
<stop stop-color="#0D257B" stop-opacity="0.5"/>
<stop offset="1" stop-color="#0D257B" stop-opacity="0"/>
</linearGradient>
<linearGradient id="paint61_linear_2815_31655" x1="442.82" y1="690.23" x2="508.46" y2="781.02" gradientUnits="userSpaceOnUse">
<stop stop-color="#0D257B" stop-opacity="0.5"/>
<stop offset="1" stop-color="#0D257B" stop-opacity="0"/>
</linearGradient>
<linearGradient id="paint62_linear_2815_31655" x1="549.14" y1="690.23" x2="614.79" y2="781.02" gradientUnits="userSpaceOnUse">
<stop stop-color="#0D257B" stop-opacity="0.5"/>
<stop offset="1" stop-color="#0D257B" stop-opacity="0"/>
</linearGradient>
<linearGradient id="paint63_linear_2815_31655" x1="644.7" y1="698.01" x2="705.87" y2="782.62" gradientUnits="userSpaceOnUse">
<stop stop-color="#3165C2"/>
<stop offset="1" stop-color="#053294"/>
</linearGradient>
<linearGradient id="paint64_linear_2815_31655" x1="-18.75" y1="781.48" x2="41.48" y2="864.79" gradientUnits="userSpaceOnUse">
<stop stop-color="#0D257B" stop-opacity="0.5"/>
<stop offset="1" stop-color="#0D257B" stop-opacity="0"/>
</linearGradient>
<linearGradient id="paint65_linear_2815_31655" x1="70.6801" y1="782.291" x2="136.32" y2="873.091" gradientUnits="userSpaceOnUse">
<stop stop-color="#0D257B" stop-opacity="0.5"/>
<stop offset="1" stop-color="#0D257B" stop-opacity="0"/>
</linearGradient>
<linearGradient id="paint66_linear_2815_31655" x1="177" y1="782.291" x2="242.65" y2="873.091" gradientUnits="userSpaceOnUse">
<stop stop-color="#0D257B" stop-opacity="0.5"/>
<stop offset="1" stop-color="#0D257B" stop-opacity="0"/>
</linearGradient>
<linearGradient id="paint67_linear_2815_31655" x1="283.33" y1="782.291" x2="348.97" y2="873.091" gradientUnits="userSpaceOnUse">
<stop stop-color="#0D257B" stop-opacity="0.5"/>
<stop offset="1" stop-color="#0D257B" stop-opacity="0"/>
</linearGradient>
<linearGradient id="paint68_linear_2815_31655" x1="389.65" y1="782.291" x2="455.3" y2="873.091" gradientUnits="userSpaceOnUse">
<stop stop-color="#0D257B" stop-opacity="0.5"/>
<stop offset="1" stop-color="#0D257B" stop-opacity="0"/>
</linearGradient>
<linearGradient id="paint69_linear_2815_31655" x1="495.98" y1="782.291" x2="561.62" y2="873.091" gradientUnits="userSpaceOnUse">
<stop stop-color="#0D257B" stop-opacity="0.5"/>
<stop offset="1" stop-color="#0D257B" stop-opacity="0"/>
</linearGradient>
<linearGradient id="paint70_linear_2815_31655" x1="602.05" y1="782.471" x2="667.61" y2="873.141" gradientUnits="userSpaceOnUse">
<stop stop-color="#7E9FD9"/>
<stop offset="1" stop-color="#0C3D9B"/>
</linearGradient>
<linearGradient id="paint71_linear_2815_31655" x1="18.25" y1="874.38" x2="83.7" y2="964.91" gradientUnits="userSpaceOnUse">
<stop stop-color="#0D257B" stop-opacity="0.5"/>
<stop offset="1" stop-color="#0D257B" stop-opacity="0"/>
</linearGradient>
<linearGradient id="paint72_linear_2815_31655" x1="123.84" y1="874.5" x2="189.49" y2="965.3" gradientUnits="userSpaceOnUse">
<stop stop-color="#0D257B" stop-opacity="0.5"/>
<stop offset="1" stop-color="#0D257B" stop-opacity="0"/>
</linearGradient>
<linearGradient id="paint73_linear_2815_31655" x1="230.16" y1="874.5" x2="295.81" y2="965.3" gradientUnits="userSpaceOnUse">
<stop stop-color="#0D257B" stop-opacity="0.5"/>
<stop offset="1" stop-color="#0D257B" stop-opacity="0"/>
</linearGradient>
<linearGradient id="paint74_linear_2815_31655" x1="336.49" y1="874.5" x2="402.14" y2="965.3" gradientUnits="userSpaceOnUse">
<stop stop-color="#6992E9"/>
<stop offset="1" stop-color="#3D63BC"/>
</linearGradient>
<linearGradient id="paint75_linear_2815_31655" x1="442.82" y1="874.5" x2="508.46" y2="965.3" gradientUnits="userSpaceOnUse">
<stop stop-color="#E3C57F"/>
<stop offset="1" stop-color="#CC922F"/>
</linearGradient>
<linearGradient id="paint76_linear_2815_31655" x1="549.14" y1="874.5" x2="614.79" y2="965.3" gradientUnits="userSpaceOnUse">
<stop stop-color="#3A56B9" stop-opacity="0.16"/>
<stop offset="1" stop-color="#3656CC" stop-opacity="0.22"/>
</linearGradient>
<linearGradient id="paint77_linear_2815_31655" x1="644.7" y1="882.29" x2="705.88" y2="966.9" gradientUnits="userSpaceOnUse">
<stop stop-color="#E3C57F"/>
<stop offset="1" stop-color="#CC922F"/>
</linearGradient>
<linearGradient id="paint78_linear_2815_31655" x1="1.38" y1="951.221" x2="35.17" y2="997.971" gradientUnits="userSpaceOnUse">
<stop stop-color="#0D257B" stop-opacity="0.5"/>
<stop offset="1" stop-color="#0D257B" stop-opacity="0"/>
</linearGradient>
<linearGradient id="paint79_linear_2815_31655" x1="83.8901" y1="957.01" x2="123.11" y2="1011.26" gradientUnits="userSpaceOnUse">
<stop stop-color="#0D257B" stop-opacity="0.5"/>
<stop offset="1" stop-color="#0D257B" stop-opacity="0"/>
</linearGradient>
<linearGradient id="paint80_linear_2815_31655" x1="190.21" y1="957.01" x2="229.44" y2="1011.26" gradientUnits="userSpaceOnUse">
<stop stop-color="#0D257B" stop-opacity="0.5"/>
<stop offset="1" stop-color="#0D257B" stop-opacity="0"/>
</linearGradient>
<linearGradient id="paint81_linear_2815_31655" x1="296.54" y1="957.01" x2="335.76" y2="1011.26" gradientUnits="userSpaceOnUse">
<stop stop-color="#0D257B" stop-opacity="0.5"/>
<stop offset="1" stop-color="#0D257B" stop-opacity="0"/>
</linearGradient>
<linearGradient id="paint82_linear_2815_31655" x1="402.86" y1="957.01" x2="442.09" y2="1011.26" gradientUnits="userSpaceOnUse">
<stop stop-color="#2858BC"/>
<stop offset="1" stop-color="#033092"/>
</linearGradient>
<linearGradient id="paint83_linear_2815_31655" x1="509.19" y1="957.01" x2="548.41" y2="1011.26" gradientUnits="userSpaceOnUse">
<stop stop-color="#5081E7"/>
<stop offset="1" stop-color="#093899"/>
</linearGradient>
<linearGradient id="paint84_linear_2815_31655" x1="615.27" y1="957.19" x2="654.05" y2="1010.83" gradientUnits="userSpaceOnUse">
<stop stop-color="#072D8C"/>
<stop offset="1" stop-color="#002375"/>
</linearGradient>
</defs>
</svg>
