<svg width="562" height="562" viewBox="0 0 562 562" fill="none" xmlns="http://www.w3.org/2000/svg">
<path d="M381.23 25.1992L380.719 102.745L380.964 102.643C387.512 99.8118 352.663 114.877 472.759 62.9601L381.23 25.1992ZM419.052 75.5333L410.261 70.9333L401.49 75.5333L403.167 65.7609L396.072 58.8507L405.886 57.4196L410.261 48.5263L414.656 57.4196L424.449 58.8507L417.355 65.7609L419.052 75.5333Z" fill="#00C0AD"/>
<path d="M416.199 347.036C410.002 388.794 404.497 391.082 398.085 409.657C391.666 406.856 382.895 403.033 373.45 398.965C327.491 379.079 320.114 376.352 269.286 356.154C263.827 352.719 264.645 337.509 271.473 322.789C277.689 310.359 273.869 292.855 279.038 294.943C279.247 295.008 296.465 300.304 296.252 300.239C331.212 312.446 415.994 346.946 416.199 347.036Z" fill="#006BFF"/>
<path d="M378.368 439.056C367.553 451.036 350.503 457.067 339.994 462.792C335.456 465.245 325.131 468.393 320.551 471.071C311.045 453.776 292.952 417.977 284.999 405.118C274.856 388.599 265.816 369.605 254.434 350.552C148.374 350.508 154.797 350.636 152.969 350.306C137.739 347.365 132.481 322.587 139.148 307.639C141.424 309.956 145.844 311.121 149.064 311.544L149.187 311.626C152.09 317.555 154.993 323.524 158.857 328.881C161.167 332.07 163.825 335.055 165.522 338.612C167.076 341.842 168.016 345.727 171.042 347.649C174.008 349.536 176.792 347.885 176.93 344.664C176.991 343.253 176.541 341.883 176.091 340.534C178.129 344.355 184.066 351.531 188.072 349.938C189.626 349.325 190.464 347.567 190.484 345.911C190.525 344.459 190.055 343.049 189.523 341.679C190.443 343.907 191.506 346.156 193.387 347.669C195.411 349.305 198.723 349.652 200.461 347.73C201.586 346.483 201.77 344.664 201.667 342.987C201.32 337.754 198.008 333.031 195.35 328.656C197.292 329.698 199.071 333.01 200.809 334.503C202.547 336.016 204.938 336.977 207.208 336.486C209.477 335.975 211.378 333.706 210.949 331.436C210.408 328.548 207.184 327.309 189.442 304C196.575 307.487 204.855 305.92 207.576 303.509C208.475 302.712 209.109 301.547 209.027 300.34C208.829 297.767 205.515 296.115 203.078 295.045C218.207 294.718 232.334 294.391 238.978 294.003C248.526 293.471 258.114 292.755 267.682 293.369C276.626 293.932 285.286 295.176 291.48 301.608C291.48 301.608 291.5 301.608 291.5 301.628C294.178 304.368 296.182 307.721 298.124 311.319C305.157 324.301 335.271 371.875 343.613 384.49C344.062 385.164 344.574 385.941 345.187 386.841C352.588 397.901 371.008 425.051 378.368 439.056Z" fill="#006BFF"/>
<path d="M232.272 296.353C232.006 302.507 222.642 299.563 218.84 304.04C213.463 310.337 209.354 306.575 202.73 311.543C201.176 312.709 199.561 313.792 197.884 314.774C195.022 311.216 192.201 307.639 189.441 303.999C196.574 307.487 204.855 305.92 207.575 303.509C208.474 302.712 209.108 301.546 209.026 300.34C208.883 298.48 207.166 297.192 205.551 296.271C204.733 295.822 204.447 294.697 203.609 294.329C198.252 291.896 192.201 290.936 186.272 290.915C187.723 287.889 188.623 284.516 187.151 281.552C178.616 264.298 170.078 248.527 159.551 231.176L154.91 235.879C165.692 224.294 171.144 218.422 195.615 192.189C200.219 187.247 204.711 164.949 190.667 155.021C195.779 154.393 202.374 154.843 206.941 157.679C216.798 163.855 222.495 174.327 225.73 185.647C227.774 193.068 228.674 200.837 229.389 208.524C231.477 231.578 233.223 273.322 232.272 296.353Z" fill="#FFC100"/>
<path d="M225.729 185.646C238.647 194.837 240.067 198.301 241.328 198.301C242.207 198.301 242.647 197.235 242.003 196.625L241.044 195.728C262.529 185.835 269.78 180.719 324.292 155.982C334.575 151.335 347.353 169.817 346.861 188.299C346.792 188.5 346.783 188.711 346.846 188.919C346.527 196.149 344.039 201.843 339.809 203.678C303.957 219.161 243.701 247.104 237.485 248.39C235.583 248.799 233.723 248.922 231.842 248.799C231.863 249.453 231.883 250.108 231.903 250.741C239.464 251.102 238.07 250.981 303.357 221.935C315.541 216.476 328.135 210.834 340.586 205.437C345.5 203.315 348.387 197.108 348.773 189.2L351.184 187.516C362.657 189.4 381.797 183.178 392.994 177.41C394.721 176.514 397.935 174.844 398.708 171.68C399.176 169.794 398.399 167.218 397.659 165.973C400.251 164.598 400.889 161.034 400.419 158.183C400.172 156.694 399.383 155.294 398.021 154.527C399.34 152.871 400.02 151.315 400.048 149.787C400.1 146.738 397.661 144 394.202 143.689C395.054 141.323 393.687 138.44 392.009 136.974C389.302 134.602 385.802 135.465 381.752 136.091V110.126L472.943 70.6876L463.702 66.8849L381.752 102.301V20.4363C381.752 19.8713 381.294 19.4141 380.729 19.4141C380.164 19.4141 379.707 19.8713 376.909 22.4311V137.013C375.457 137.363 373.58 137.661 371.808 138.389C373.854 132.758 374.727 126.732 370.389 123.205C367.262 120.681 362.646 121.097 359.649 124.17C356.923 126.984 356.441 130.923 355.181 134.136C352.622 140.656 345.949 144.402 343.902 151.911C343.305 153.897 343.046 155.275 343.104 156.245C341.01 156.453 339.078 156.925 337.175 157.687C333.26 154.164 328.233 152.08 323.494 154.223C276.106 175.771 277.724 175.956 239.526 194.307C239.321 194.137 234.768 189.587 224.83 182.641C225.157 183.643 225.443 184.645 225.729 185.646ZM397.835 163.013C397.388 163.861 396.747 164.298 395.553 164.571C377.783 166.171 378.807 166.008 377.841 166.282C376.852 166.142 375.92 164.915 375.656 163.794C374.47 158.766 381.201 159.155 384.832 158.14C385.041 158.083 395.63 156.232 395.835 156.2C395.854 156.197 395.871 156.185 395.89 156.181C397.078 155.737 398.167 157.113 398.403 158.517C398.64 159.969 398.523 161.703 397.835 163.013ZM398.003 149.751C397.971 151.585 396.113 153.879 395.501 154.167C391.762 155.087 378.986 156.635 376.221 158.221C375.499 158.279 374.827 158.098 373.888 157.574C372.529 156.818 371.873 154.076 373.61 151.7C375.777 148.736 380.368 147.971 383.75 147.276C386.815 146.621 389.765 145.767 392.773 145.754C392.985 145.764 394.817 145.269 396.581 146.759C397.505 147.539 398.023 148.63 398.003 149.751ZM385.175 137.65C387.3 137.356 389.18 137.215 390.662 138.513C392 139.681 393.248 142.43 391.742 143.765C389.536 143.894 388.078 144.21 382.128 145.525C379.311 146.101 377.342 146.528 375.137 147.778C373.256 148.803 370.431 147.513 369.561 144.612C369.513 144.455 369.425 144.326 369.32 144.214C369.707 143.405 370.096 142.559 370.481 141.685C372.228 139.448 382.744 137.989 385.175 137.65ZM345.914 152.319C346.866 148.813 349.143 146.085 351.553 143.198C356.266 137.553 356.85 135.918 358.071 131.927C358.804 129.53 359.496 127.266 361.115 125.594C363.372 123.283 366.806 122.939 369.103 124.795C374.805 129.43 368.56 141 365.534 147.316C365.29 147.825 365.506 148.435 366.015 148.68C366.522 148.924 367.134 148.709 367.379 148.199C367.479 147.993 368.28 146.352 368.179 146.558C369.019 148.132 370.473 149.539 372.403 149.986C369.485 153.387 369.801 158.497 374.302 160.002C372.821 162.399 373.475 165.753 375.712 167.505C372.461 170.695 373.995 177.673 379.209 177.673C380.832 177.673 384.046 176.886 388.461 176.274C389.281 176.162 390.225 176.207 391.221 175.858L391.244 175.85L390.913 174.882L390.467 173.955C389.906 174.153 388.954 174.142 388.181 174.249C383.256 174.929 380.615 175.671 379.042 175.627C375.734 175.544 375.02 170.095 377.683 168.528C378.509 168.041 377.917 168.212 395.628 166.618C396.018 166.881 396.616 168.523 396.785 169.813C397.17 172.623 394.546 174.3 392.055 175.594C382.687 180.421 372.447 183.764 362.44 185.263C352.912 186.694 351.468 184.912 350.272 185.66L348.81 186.681C348.65 177.4 345.243 166.259 338.771 159.267C341.76 158.225 343.818 158.267 344.785 158.163L344.785 158.159C345.901 158.137 346.17 156.602 345.145 156.192C345.112 155.833 345.157 154.836 345.914 152.319ZM255.21 540.541H145.362L90.4487 445.433L145.362 350.305H152.968C151.169 349.958 149.451 349.263 147.836 348.261H144.197L88.0977 445.433L144.197 542.585H256.375L294.811 476.059L293.032 475.037L255.21 540.541ZM406.744 382.526C406.948 382.015 406.703 381.401 406.192 381.197L334.105 351.369C324.506 339.767 357.82 380.032 290.211 298.315C290.292 298.527 291.56 301.819 291.478 301.607C291.478 301.607 291.499 301.607 291.499 301.627C294.177 304.367 296.181 307.72 298.123 311.318C305.083 324.194 335.79 372.699 343.612 384.489C344.061 385.163 344.572 385.94 345.186 386.84C354.14 390.642 364.117 394.915 373.46 398.963L336.885 354.742L405.415 383.078C405.849 383.295 406.509 383.085 406.744 382.526ZM211.54 98.8377C212.105 98.8377 212.562 98.3805 212.562 97.8155C212.562 97.2505 212.105 96.7933 211.54 96.7933H207.392C206.827 96.7933 206.37 97.2505 206.37 97.8155C206.37 98.3805 206.827 98.8377 207.392 98.8377H211.54ZM211.708 114.78C211.017 115.114 210.121 115.011 209.528 114.528C208.934 114.043 208.651 113.186 208.842 112.444C208.982 111.897 208.653 111.34 208.106 111.199C207.561 111.062 207.002 111.389 206.861 111.935C206.473 113.446 207.025 115.125 208.236 116.113C208.967 116.71 209.9 117.019 210.833 117.019C211.441 117.019 212.049 116.888 212.602 116.619C213.11 116.371 213.321 115.759 213.074 115.252C212.828 114.746 212.217 114.533 211.708 114.78Z" fill="black"/>
<path d="M111.669 260.126C121.319 276.252 130.021 292.233 137.02 306.351C138.878 310.066 143.967 311.698 148.049 312.368C154.601 323.197 162.154 335.601 168.505 346.105C169.676 348.039 171.189 350.003 173.51 350.003C175.704 350.003 178.108 347.998 178.144 344.153C179.028 345.777 179.647 347.275 180.795 348.616C184.938 353.456 191.004 351.857 191.749 347.461C197.221 353.971 204.199 349.365 203.225 343.205C202.849 340.819 201.107 337.656 198.777 333.239C201.065 335.689 203.22 338.202 206.013 338.202C207.766 338.202 209.531 337.251 210.583 335.682C212.798 332.381 211.019 329.948 209.448 327.801L208.987 327.166C208.212 326.083 207.406 325.022 206.62 323.947H260.962C264.962 323.947 268.578 325.987 270.637 329.404C335.163 435.684 333.083 433.899 334.519 433.034C335.002 432.742 335.156 432.114 334.864 431.631L272.387 328.348C269.956 324.312 265.685 321.903 260.962 321.903H205.116C199.254 313.998 198.003 312.31 192.437 305.666C197.963 306.798 208.709 307.445 210.405 302.094C210.856 300.647 210.515 298.93 209.485 297.495C207.203 294.373 198.24 289.519 187.906 289.597C188.931 286.894 189.387 283.883 188.029 281.122C179.403 263.699 171.094 248.343 160.654 231.115L196.329 192.843C200.868 187.957 204.691 168.085 195.082 157.659C194.689 157.298 192.683 154.961 189.644 153.161C189.835 150.576 190.565 141.473 191.091 137.819C194.862 140.935 198.271 145.912 202.32 148.542L202.892 155.88C203.628 156.105 204.343 156.371 205.018 156.698L203.947 143.178C205.582 143.346 207.237 143.277 208.857 142.982C210.449 142.691 211.847 142.376 212.026 140.502C212.09 139.825 212.057 139.122 212.312 138.492L213.178 141.611C213.317 142.113 213.757 142.489 214.276 142.526C217.075 142.725 219.823 142.38 222.461 141.447C222.958 141.271 223.282 140.781 223.275 140.253L222.684 122.396C223.886 120.405 224.868 118.256 225.62 115.983L230.491 114.487C231.891 114.066 232.358 112.319 231.358 111.251C229.914 109.709 228.776 108.497 227.263 106.866C227.478 100.22 225.692 94.1347 222.457 88.9278C215.747 74.3565 206.263 60.3683 190.203 61.7992C181.777 62.5497 175.478 66.8712 168.33 71.303C171.225 58.0963 157.257 46.0923 141.248 51.5152C133.198 54.2425 129.482 60.8935 137.138 67.6296C143.415 73.1535 151.616 76.3637 159.958 76.8002C156.911 79.1 154.957 82.6281 155.139 86.5245C155.275 89.4278 156.533 92.2697 156.152 95.1512C155.712 98.4788 153.203 101.109 150.763 103.414C140.615 113.007 138.229 128.421 135.197 141.492C135.067 142.051 135.388 142.631 135.937 142.799C141.2 144.407 146.795 144.926 152.264 144.313C152.782 144.255 153.187 143.829 153.233 143.309L153.896 135.739C154.07 137.981 154.7 140.858 155.421 143.163C155.571 143.641 155.97 144.006 156.457 144.125C162.148 145.514 167.177 145.006 171.921 144.05C172.473 143.939 172.882 143.471 172.93 142.91L173.452 136.752L175.651 143.081C175.836 143.612 176.292 144.015 176.847 144.11C179.863 144.629 182.957 144.688 185.991 144.286C187.618 144.071 188.016 143.922 188.455 142.843C188.188 145.669 187.899 149.247 187.681 152.077C175.946 146.128 159.938 148.643 154.806 154.142C109.425 202.715 111.846 199.983 109.358 203.188C87.248 231.295 110.639 256.797 111.669 260.126ZM229.899 112.53L224.532 114.18C224.237 114.27 223.933 114.601 223.854 114.852C219.655 128.336 206.376 137.115 192.3 135.746C179.442 134.49 169.293 125.631 166.446 113.177C166.261 112.363 165.202 112.136 164.682 112.73C162.583 115.118 156.975 113.87 154.819 109.894C153.846 108.107 153.822 106.064 154.49 104.557C155.919 101.333 160.192 100.402 162.205 103.4C162.412 105.031 163.16 108.546 164.397 109.599C165.412 110.464 166.646 110.243 167.025 107.875C167.428 105.353 168.354 102.921 169.716 100.763C171.184 98.4359 173.005 99.0343 175.52 98.4416C179.932 97.4013 184.042 95.0519 187.125 91.7208C190.145 88.4575 191.868 83.7975 192.451 79.1514C192.563 78.2554 193.752 78.09 194.155 78.8983C196.144 82.8898 199.727 86.1506 203.764 88.1786C209.291 90.9555 215.592 91.7436 221.773 92.0314C221.832 92.082 221.891 92.1327 221.95 92.1834C222.701 93.6544 223.333 95.1935 223.837 96.7939H219.964C219.399 96.7939 218.942 97.2511 218.942 97.8161C218.942 98.3811 219.399 98.8383 219.964 98.8383H224.408C225.124 101.841 225.339 104.397 225.213 107.217L225.213 107.22C225.202 107.483 225.293 107.748 225.483 107.955L225.484 107.957C226.748 109.322 228.785 111.397 229.899 112.53ZM207.921 298.628C209.523 300.864 208.775 303.411 204.116 304.165C199.126 304.965 194.187 304.365 189.295 302.905C188.783 302.753 188.245 303.043 188.093 303.554C187.94 304.065 188.23 304.603 188.741 304.756C188.854 304.789 188.964 304.811 189.076 304.844C194.61 311.422 197.285 314.519 207.798 329.007C209.489 331.32 210.242 332.521 208.885 334.543C208.127 335.675 206.761 336.322 205.564 336.12C204.509 335.941 203.576 335.198 202.499 334.137C196.117 327.849 194.525 324.387 186.104 313.382C185.763 312.933 185.12 312.85 184.672 313.191C184.223 313.533 184.137 314.175 184.481 314.623C185.247 315.625 185.968 316.597 186.666 317.557C187.21 319.237 190.892 321.827 199.713 339.548C200.407 340.941 200.998 342.201 201.207 343.524C201.425 344.916 201.145 346.189 200.436 347.02C199.307 348.348 197.43 349.791 194.183 347.048C193.026 346.071 191.415 343.609 191.011 342.414C190.954 342.248 190.851 342.117 190.731 342.005C187.414 333.608 183.286 327.991 179.202 320.173C178.941 319.671 178.32 319.478 177.822 319.74C177.321 320.001 177.129 320.619 177.389 321.119C181.565 329.108 185.699 334.703 188.94 343.015C189.578 344.652 190.201 346.517 189.498 347.915C188.465 349.972 185.03 350.42 182.349 347.287C181.31 346.074 180.677 344.479 179.819 342.948C176.426 336.895 171.769 329.509 168.986 323.384C168.753 322.871 168.148 322.637 167.633 322.876C167.119 323.11 166.892 323.716 167.125 324.23C169.465 329.38 173.04 335.3 176.125 340.611C175.986 340.807 175.917 341.054 175.956 341.31C176.175 342.757 176.424 344.399 176.005 345.806C175.665 346.939 174.644 348.086 173.435 348.069C172.097 348.014 171.069 346.612 170.158 345.104C164.007 334.934 157.608 324.427 150.49 312.668C165.493 313.978 179.851 306.227 187.061 291.539C197.064 291.206 205.951 295.932 207.921 298.628ZM105.188 213.656C109.605 204.057 112.081 202.695 156.217 155.471C158.711 152.793 165.274 150.605 172.593 150.605C186.99 150.605 193.411 158.807 193.692 159.008C202.401 168.474 198.987 187.16 194.918 191.535C190.756 196.002 209.996 175.352 154.213 235.225C153.36 236.125 154.701 237.456 155.604 236.553L159.365 232.73C169.834 250.042 178.144 265.497 186.291 281.981C189.918 289.317 174.375 314.054 149.126 310.546C148.878 310.351 148.552 310.302 148.246 310.399C144.845 309.82 140.307 308.591 138.758 305.492C131.991 291.844 123.013 275.272 113.325 259.124C111.191 254.166 94.9459 237.007 105.188 213.656ZM425.91 438.301C418.613 428.951 404.847 432.344 397.78 445.31C396.022 448.534 395.07 450.776 394.586 452.351C389.751 444.637 386.873 441.762 382.454 436.525C383.647 434.344 385.114 435.842 387.272 436.182C388.693 436.401 390.446 435.817 390.892 434.297C391.082 433.654 390.975 433.031 390.888 432.53C390.728 431.581 390.604 431.526 392.3 431.401C395.852 431.126 399.11 428.57 400.224 425.187C400.401 424.651 400.108 424.073 399.572 423.896C399.036 423.72 398.458 424.011 398.281 424.548C397.419 427.17 394.894 429.149 391.972 429.376C387.382 429.711 389.148 432.986 388.931 433.721C388.836 434.046 388.192 434.257 387.588 434.161C386.252 433.952 383.36 432.235 381.388 434.473C380.552 433.103 380.649 431.021 381.867 429.875C383.27 428.562 388.114 427.551 385.927 418.923C385.388 416.817 384.418 413.728 385.563 411.505C386.886 408.938 390.867 407.431 391.137 403.807C391.179 403.244 390.757 402.754 390.194 402.712C389.638 402.668 389.139 403.091 389.098 403.655C388.909 406.194 385.25 407.647 383.746 410.568C381.067 415.769 386.828 422.809 383.246 426.337C382.573 426.998 381.364 427.542 380.467 428.385C378.292 430.434 378.187 434.298 380.474 436.529C379.495 437.339 379.26 437.518 379.04 437.696C346.829 463.868 319.622 469.531 318.571 470.733C317.665 471.227 317.977 472.093 317.99 472.13C323.354 486.524 337.127 511.891 341.981 520.45C342.643 521.619 343.439 521.629 359.384 514.386C381.951 504.132 372.357 507.981 389.256 499.935C400.859 494.411 412.856 488.7 421.025 478.766C430.613 467.107 433.566 448.111 425.91 438.301ZM419.446 477.468C408.573 490.69 390.296 496.333 375.589 504.5C373.114 505.874 347.673 517.752 343.446 518.889C338.455 510.043 325.599 486.288 320.202 472.198C329.289 468.296 349.963 464.021 381.387 438.431C382.694 439.965 383.366 440.72 384.8 442.407C384.581 442.441 384.368 442.529 384.205 442.703C380.392 446.779 375.62 449.99 370.406 451.988C369.878 452.19 369.614 452.781 369.817 453.308C370.019 453.837 370.611 454.098 371.137 453.897C376.639 451.789 381.674 448.401 385.698 444.101C385.799 443.993 385.869 443.869 385.914 443.738C387.718 445.924 389.579 448.386 391.811 451.819C391.512 451.876 391.24 452.048 391.089 452.34C389.222 455.96 385.398 458.572 381.346 458.991C380.023 459.13 380.183 461.14 381.558 461.026C386.228 460.542 390.632 457.553 392.83 453.402C393.772 454.904 394.361 455.9 394.49 456.113C394.781 456.598 395.41 456.753 395.892 456.466C396.377 456.177 396.535 455.55 396.245 455.065C396.045 454.688 396.256 452.378 399.575 446.288C407.207 432.292 422.483 430.942 426.964 444.692C429.78 453.343 427.888 467.202 419.446 477.468Z" fill="black"/>
<path d="M334.606 482.051C333.418 485.375 335.894 488.868 339.413 488.868C343.124 488.868 345.627 484.97 344.018 481.579C342.06 477.452 336.113 477.819 334.606 482.051ZM338.383 486.643C336.803 486.082 335.96 484.338 336.531 482.738C337.437 480.19 341.007 479.999 342.172 482.455C342.893 483.978 340.936 487.55 338.383 486.643ZM473.781 347.649C472.517 330.302 459.965 316.537 449.416 314.974C437.699 313.243 430.053 325.17 433.877 339.448C434.827 342.996 435.684 345.276 436.419 346.751C427.489 344.47 423.305 344.38 416.72 343.656C416.425 342.552 416.557 342.107 417.374 341.499C417.934 341.081 419.176 340.635 419.973 340.083C421.155 339.264 422.02 337.632 421.295 336.222C420.727 335.12 419.569 334.779 419.474 334.379C419.419 334.147 419.905 333.61 420.316 333.154C422.698 330.507 423.296 326.41 421.77 323.191C421.528 322.681 420.919 322.464 420.408 322.706C419.898 322.947 419.68 323.557 419.923 324.067C421.105 326.561 420.642 329.735 418.68 331.916C415.596 335.325 419.117 336.456 419.477 337.158C419.633 337.459 419.313 338.053 418.808 338.403C417.708 339.166 414.419 339.916 414.531 342.904C412.988 342.49 411.616 340.92 411.71 339.243C411.823 337.131 414.583 333.226 407.096 328.512C405.254 327.359 402.421 325.792 401.718 323.392C400.906 320.628 402.754 316.789 400.446 313.974C400.088 313.537 399.443 313.472 399.007 313.831C398.571 314.188 398.507 314.833 398.865 315.27C400.472 317.232 398.836 320.829 399.755 323.967C400.631 326.951 403.402 328.611 406.007 330.243C408.933 332.085 410.327 333.88 410.268 335.73C410.214 337.402 408.36 340.469 411.473 343.435C412.554 344.466 413.917 345.034 415.285 345.051C410.303 386.453 393.997 411.291 394.044 412.481C393.73 413.462 394.549 413.875 394.587 413.894C409.891 421.346 444.974 432.432 445.714 432.432C446.656 432.431 447.79 430.61 453.704 415.952C462.867 393.233 458.785 402.093 465.373 384.886C469.967 372.885 474.717 360.476 473.781 347.649ZM458.623 397.617C457.778 400.319 447.544 426.465 445.267 430.203C435.549 427.238 409.852 418.896 396.236 412.418C399.258 405.355 412.099 386.115 417.261 345.771C419.095 345.965 420.228 346.059 422.475 346.297C422.339 346.472 422.246 346.683 422.248 346.922C422.297 352.506 421.055 358.122 418.656 363.162C418.414 363.672 418.63 364.282 419.14 364.525C419.651 364.766 420.26 364.551 420.503 364.041C423.034 358.722 424.343 352.796 424.292 346.904C424.291 346.757 424.255 346.618 424.198 346.492C427.012 346.832 430.058 347.332 434.043 348.28C433.866 348.527 433.787 348.84 433.879 349.155C435.024 353.064 434.054 357.591 431.41 360.689C430.844 361.352 431.32 362.376 432.188 362.376C432.476 362.376 432.763 362.254 432.965 362.017C436.014 358.445 437.143 353.245 435.873 348.724C436.842 348.971 437.857 349.24 438.945 349.542C440.187 349.887 440.775 347.998 439.494 347.572C439.09 347.439 437.647 345.623 435.851 338.919C431.721 323.494 441.892 312.016 454.585 318.877C462.591 323.201 470.774 334.524 471.743 347.797C472.987 364.881 463.647 381.538 458.623 397.617Z" fill="black"/>
<path d="M416.054 402.886C411.087 405.097 412.604 412.65 418.128 412.65C421.802 412.65 424.288 408.855 422.786 405.476C421.646 402.909 418.64 401.737 416.054 402.886ZM420.977 408.644C420.361 410.25 418.57 410.996 417.029 410.399C413.916 409.205 414.724 404.489 418.125 404.489C420.257 404.489 421.748 406.641 420.977 408.644Z" fill="black"/>
</svg>
