<svg width="410" height="428" viewBox="0 0 410 428" fill="none" xmlns="http://www.w3.org/2000/svg">
<g opacity="0.1">
<path d="M111.43 427.227C93.8395 427.227 79.4531 412.909 79.4531 395.25L79.4531 31.9773C79.4531 14.3864 93.7713 0 111.43 0L377.476 0C395.135 0 409.453 14.3182 409.453 31.9773V276.682C409.453 277.364 409.317 278.045 409.044 278.727C367.453 370.909 303.43 419.386 213.226 426.886C211.385 427.023 209.408 427.227 207.43 427.295L111.43 427.227ZM111.43 9.81818C99.2259 9.81818 89.2713 19.7727 89.2713 31.9773L89.2713 395.25C89.2713 407.455 99.2259 417.409 111.43 417.409H207.226C208.862 417.341 210.635 417.205 212.408 417C299.612 409.773 359.203 364.841 399.703 275.523V31.9773C399.703 19.7727 389.749 9.81818 377.544 9.81818L111.43 9.81818Z" fill="#161C1C"/>
<path d="M175.376 84.4132V142.64C175.376 185.663 151.24 225.004 112.99 244.504L90.1491 256.231L67.1718 244.504C28.9219 224.936 4.92187 185.663 4.92187 142.709L4.92187 84.4132C16.7855 84.4132 27.5582 79.6405 35.3991 71.8677C43.24 64.095 47.8764 53.2541 47.8764 41.3904V36.0723L132.285 36.0723V41.3904C132.285 65.1859 151.513 84.4132 175.376 84.4132Z" fill="#161C1C"/>
<path d="M90.1363 261.14C89.3863 261.14 88.6363 260.935 87.8863 260.594L64.9091 248.867C24.8864 228.413 0 187.708 0 142.708L0 84.4126C0 81.6853 2.18182 79.5035 4.90909 79.5035C15.1364 79.5035 24.75 75.549 31.9091 68.3899C39.0682 61.2308 43.0227 51.6171 43.0227 41.3899V36.0717C43.0227 33.3444 45.2045 31.1626 47.9318 31.1626L132.341 31.1626C135.068 31.1626 137.25 33.3444 137.25 36.0717V41.3899C137.25 62.3899 154.364 79.5035 175.364 79.5035C178.091 79.5035 180.273 81.6853 180.273 84.4126V142.64C180.273 187.708 155.386 228.413 115.227 248.867L92.3863 260.594C91.7045 261.004 90.9545 261.14 90.1363 261.14ZM9.81818 89.1172L9.81818 142.776C9.81818 184.094 32.6591 221.39 69.4091 240.208L90.1363 250.844L110.795 240.276C147.614 221.458 170.523 184.094 170.523 142.776V89.1853C146.386 86.7308 127.5 66.2762 127.5 41.5262V40.9808L52.8409 40.9808V41.3899C52.8409 54.2081 47.8636 66.2762 38.7954 75.2762C30.9545 83.1853 20.7954 87.9581 9.81818 89.1172Z" fill="#161C1C"/>
<path d="M207.234 427.229C204.574 427.229 202.393 425.115 202.324 422.456C202.256 419.797 204.37 417.547 207.029 417.479C208.802 417.411 210.574 417.275 212.279 417.07C219.029 415.979 225.234 412.843 230.143 407.934C236.279 401.797 239.62 393.684 239.62 384.956C239.62 367.093 225.097 352.57 207.234 352.57C204.847 352.57 202.802 350.865 202.393 348.547C201.984 346.229 203.347 343.911 205.529 343.093L402.847 272.047C404.688 271.365 406.734 271.911 408.097 273.343C409.461 274.774 409.802 276.888 408.984 278.661C367.461 370.843 303.438 419.32 213.302 426.82C211.324 427.093 209.279 427.229 207.234 427.229ZM224.756 346.57C239.279 353.252 249.438 367.911 249.438 384.956C249.438 395.729 245.484 405.82 238.256 413.661C308.62 400.775 359.074 359.32 395.211 285.274L224.756 346.57Z" fill="#161C1C"/>
<path d="M358.636 51.8948L204.409 51.8948C201.682 51.8948 199.5 49.713 199.5 46.9858C199.5 44.2585 201.682 42.0767 204.409 42.0767L358.636 42.0767C361.364 42.0767 363.546 44.2585 363.546 46.9858C363.546 49.713 361.364 51.8948 358.636 51.8948Z" fill="#161C1C"/>
<path d="M335.523 84.0628H204.409C201.682 84.0628 199.5 81.881 199.5 79.1537C199.5 76.4264 201.682 74.2446 204.409 74.2446L335.523 74.2446C338.25 74.2446 340.432 76.4264 340.432 79.1537C340.432 81.881 338.182 84.0628 335.523 84.0628Z" fill="#161C1C"/>
<path d="M346.636 116.254L204.409 116.254C201.682 116.254 199.5 114.072 199.5 111.345C199.5 108.618 201.682 106.436 204.409 106.436L346.636 106.436C349.364 106.436 351.545 108.618 351.545 111.345C351.545 114.072 349.364 116.254 346.636 116.254Z" fill="#161C1C"/>
<path d="M329.318 148.442H204.409C201.682 148.442 199.5 146.26 199.5 143.533C199.5 140.805 201.682 138.624 204.409 138.624H329.25C331.977 138.624 334.159 140.805 334.159 143.533C334.159 146.26 331.977 148.442 329.318 148.442Z" fill="#161C1C"/>
<path d="M358.265 201.132H187.401C184.674 201.132 182.492 198.95 182.492 196.223C182.492 193.496 184.674 191.314 187.401 191.314H358.265C360.992 191.314 363.174 193.496 363.174 196.223C363.174 198.95 360.924 201.132 358.265 201.132Z" fill="#161C1C"/>
<path d="M335.117 233.314H170.253C167.526 233.314 165.344 231.132 165.344 228.405C165.344 225.677 167.526 223.496 170.253 223.496H335.117C337.844 223.496 340.026 225.677 340.026 228.405C340.026 231.132 337.844 233.314 335.117 233.314Z" fill="#161C1C"/>
<path d="M346.35 265.496H135.327C132.6 265.496 130.418 263.314 130.418 260.587C130.418 257.86 132.6 255.678 135.327 255.678H346.35C349.077 255.678 351.259 257.86 351.259 260.587C351.259 263.314 349.009 265.496 346.35 265.496Z" fill="#161C1C"/>
<path d="M219.99 391.766H129.718C126.99 391.766 124.809 389.584 124.809 386.857C124.809 384.13 126.99 381.948 129.718 381.948H220.059C222.786 381.948 224.968 384.13 224.968 386.857C224.968 389.584 222.718 391.766 219.99 391.766Z" fill="#161C1C"/>
<path d="M170.724 372.408C166.156 372.408 161.315 370.567 157.36 367.839C155.247 366.339 153.269 364.703 151.497 362.862C145.837 365.93 139.701 367.976 133.292 368.862C130.565 369.271 128.178 367.294 127.837 364.635C127.497 361.976 129.337 359.521 132.065 359.18C136.701 358.567 141.269 357.135 145.428 355.089C139.292 345.203 136.906 332.93 139.497 321.544C141.269 313.839 146.315 304.976 155.315 303.067C164.178 301.226 173.724 307.43 176.724 316.908C179.519 325.908 176.519 334.771 173.519 340.635C170.178 347.112 165.474 352.771 159.883 357.339C160.906 358.226 161.928 359.044 163.019 359.862C166.633 362.385 171.61 363.748 173.724 361.635C174.474 360.885 175.087 359.521 175.701 358.089C176.11 357.203 176.451 356.317 176.928 355.498C179.519 350.589 183.951 347.794 188.247 348.271C192.406 348.748 195.951 352.021 197.519 356.93C198.337 359.521 196.906 362.248 194.315 363.067C191.724 363.885 188.997 362.453 188.178 359.862C187.837 358.703 187.224 358.021 187.019 357.885C187.019 358.021 186.201 358.635 185.587 359.93C185.247 360.612 184.974 361.226 184.633 361.908C183.678 364.021 182.656 366.408 180.61 368.453C177.815 371.248 174.337 372.408 170.724 372.408ZM158.587 312.476C158.178 312.476 157.769 312.544 157.36 312.612C152.86 313.567 150.065 319.158 149.042 323.658C146.997 332.521 148.837 342.067 153.61 349.771C158.178 346.021 162.065 341.385 164.792 336.135C166.565 332.658 169.292 325.908 167.383 319.839C166.224 316.021 162.474 312.476 158.587 312.476Z" fill="#161C1C"/>
<path d="M140.129 119.865V141.274C140.129 143.728 138.083 145.774 135.629 145.774H109.924C107.469 145.774 105.424 147.819 105.424 150.274V175.978C105.424 178.433 103.379 180.478 100.924 180.478H79.5149C77.0604 180.478 75.0149 178.433 75.0149 175.978V150.274C75.0149 147.819 72.9695 145.774 70.5149 145.774H44.7422C42.2876 145.774 40.2422 143.728 40.2422 141.274V119.865C40.2422 117.41 42.2876 115.365 44.7422 115.365H70.4467C72.9013 115.365 74.9467 113.319 74.9467 110.865V85.1602C74.9467 82.7056 76.9922 80.6602 79.4467 80.6602H100.856C103.31 80.6602 105.356 82.7056 105.356 85.1602V110.865C105.356 113.319 107.401 115.365 109.856 115.365H135.56C138.083 115.365 140.129 117.342 140.129 119.865Z" fill="white"/>
<path d="M100.888 185.392H79.4787C74.2969 185.392 70.0696 181.165 70.0696 175.983V150.279L44.706 150.688C39.5242 150.688 35.2969 146.46 35.2969 141.279L35.2969 119.869C35.2969 114.688 39.5242 110.46 44.706 110.46H70.4105L70.0014 85.165C70.0014 79.9831 74.2287 75.7559 79.4105 75.7559H100.82C106.001 75.7559 110.229 79.9831 110.229 85.165V110.801L135.592 110.392C140.774 110.392 145.001 114.619 145.001 119.801V141.21C145.001 146.392 140.774 150.619 135.592 150.619H109.888L110.297 175.983C110.297 181.165 106.07 185.392 100.888 185.392ZM70.4787 140.869C75.6605 140.869 79.8878 145.097 79.8878 150.279V175.983L100.888 175.574L100.479 150.21C100.479 145.029 104.706 140.801 109.888 140.801H135.592L135.183 120.142H109.82C104.638 120.142 100.411 115.915 100.411 110.733V85.0968L79.4105 85.5059L79.8196 110.801C79.8196 115.983 75.5923 120.21 70.4105 120.21H44.7741L45.1832 141.21L70.4787 140.869Z" fill="#161C1C"/>
<path d="M310.996 334.161C311.95 336.615 310.723 339.411 308.2 340.365L264.223 357.07C261.768 358.024 258.973 356.797 258.018 354.274C257.064 351.82 258.291 349.024 260.814 348.07L304.791 331.365C307.314 330.479 310.041 331.706 310.996 334.161Z" fill="white"/>
<path d="M323.972 329.32C324.926 331.775 323.699 334.57 321.176 335.525C318.722 336.479 315.926 335.252 314.972 332.729C314.017 330.275 315.244 327.479 317.767 326.525C320.222 325.57 323.017 326.798 323.972 329.32Z" fill="white"/>
</g>
</svg>
