<svg width="540" height="550" viewBox="0 0 540 550" fill="none" xmlns="http://www.w3.org/2000/svg">
<g clip-path="url(#clip0_4409_27793)">
<path d="M280.543 194.906C273.242 188.474 263.662 184.592 253.135 184.592C230.246 184.592 211.703 203.135 211.703 226.023C211.703 233.981 213.944 241.437 217.846 247.753C237.252 262.363 237.512 261.448 239.054 265.06C239.421 265.195 239.788 265.33 240.174 265.446C240.792 264.422 242.144 263.688 243.091 262.916C246.616 260.108 252.798 256.47 255.356 255.093C255.375 255.074 255.414 255.054 255.433 255.054C265.961 249.397 271.414 259.056 264.28 266.006C281.831 261.132 294.643 245.06 294.643 226.023C294.643 213.623 289.196 202.478 280.543 194.906ZM266.482 240.645C255.394 249.289 239.049 243.554 235.731 229.944H231.791C231.27 229.944 230.825 229.519 230.825 228.978C230.825 228.457 231.27 228.013 231.791 228.013H235.364C235.098 226.263 235.115 224.247 235.364 222.604H230.922C230.4 222.604 229.956 222.16 229.956 221.639C229.956 221.098 230.4 220.673 230.922 220.673H235.751C239.055 207.145 255.372 201.418 266.424 209.972C266.849 210.301 266.926 210.899 266.597 211.324C266.269 211.749 265.67 211.826 265.245 211.498C255.44 203.96 241.061 208.706 237.74 220.673H260.977C261.518 220.673 261.942 221.098 261.942 221.639C261.942 222.16 261.518 222.604 260.977 222.604H237.315C237.024 224.518 237.047 226.147 237.296 228.013H257.596C258.118 228.013 258.562 228.457 258.562 228.978C258.562 229.519 258.118 229.944 257.596 229.944H237.721C241.024 241.991 255.538 246.748 265.303 239.119C265.728 238.791 266.327 238.868 266.655 239.293C266.984 239.698 266.906 240.317 266.482 240.645Z" fill="#006BFF"/>
<path d="M220.257 314.7C211.529 314.517 196.748 308.013 190.716 310.324C184.702 312.726 170.933 307.334 170.383 310.983C169.613 316.557 158.44 391.765 158.44 391.765C138.356 404.093 110.521 417.466 89.8203 426.996C90.8471 445.002 97.8989 460.747 105.288 477.139C105.435 477.487 109.291 486.398 109.475 486.764C139.369 479.1 144.642 479.725 180.238 465.249C201.736 456.34 204.945 449.208 208.848 436.776C242.454 329.727 237.654 343.799 239.687 338.605C241.293 334.501 242.928 327.361 238.436 324.834C220.45 314.719 220.45 314.719 220.257 314.7Z" fill="#00C0AD"/>
<path d="M390.719 441.371C370.09 447.474 349.925 449.869 328.427 448.266C322.984 424.477 311.77 386.764 305.249 368.455C303.154 362.571 304.486 360.384 298.102 358.353C273.013 350.25 177.218 334.716 176.975 334.673C168.226 333.127 161.523 331.795 158.877 330.906C141.976 324.377 134.346 299.847 139.388 286.674C143.502 283.313 155.381 302.068 161.021 300.272V310.451L213.52 310.432C224.8 318.737 237.703 324.609 250.49 330.384C252.962 331.505 255.492 332.644 258.197 332.992C260.901 333.32 263.837 332.741 265.787 330.848C267.719 328.936 268.26 325.517 266.483 323.45C269.515 324.532 273.147 324.435 275.658 322.407C278.149 320.398 278.845 316.168 276.527 313.928C280.216 315.956 285.412 314.179 287.189 310.412C354.581 310.465 331.338 310.447 336.366 310.451C348.371 316.272 357.824 325.051 363.62 338.381C367.72 347.856 369.335 360.826 370.361 365.79C375.595 391.054 384.944 415.99 390.719 441.371Z" fill="#00C0AD"/>
<path d="M161.018 278.742V303.195C155.358 303.446 148.965 303.756 148.154 303.833C148.096 303.852 148.018 303.852 147.96 303.852C137.202 304.876 128.085 295.315 128.491 283.571C128.935 271.267 128.684 258.925 128.433 246.601C134.791 261.223 147.381 267.571 161.018 278.742ZM189.646 144.146C190.342 149.091 189.724 154.731 189.569 159.135C189.26 167.132 188.294 175.089 186.653 182.912C186.653 182.255 185.687 181.792 184.142 181.444C163.328 176.69 134.991 183.395 115.031 200.875C114.915 182.719 114.877 164.06 121.386 147.372C127.699 131.139 134.356 123.315 152.696 122.416C162.227 121.959 173.261 124.625 180.877 130.336C181.457 130.529 182.055 130.761 182.616 130.992C189.337 133.619 195.19 137.927 200.154 143.18H189.511C189.569 143.509 189.608 143.818 189.646 144.146Z" fill="#FE9E93"/>
<path d="M417.896 184.592C395.008 184.592 376.465 203.135 376.465 226.023C376.465 242.615 386.2 256.947 400.261 263.592C427.415 276.434 459.405 256.665 459.405 226.023C459.405 203.152 440.864 184.592 417.896 184.592ZM444.745 219.63L415.269 220.248L403.545 241.823C403.371 242.152 403.043 242.325 402.695 242.325C402.541 242.325 402.386 242.306 402.251 242.21C401.768 241.958 401.594 241.379 401.845 240.915L413.84 218.838C414.014 218.529 414.323 218.336 414.671 218.336L444.706 217.698C445.285 217.737 445.672 218.123 445.691 218.645C445.71 219.186 445.286 219.63 444.745 219.63Z" fill="#FFB904"/>
<path d="M229.822 369.962C233.987 356.728 236.13 348.988 237.452 344.91C220.049 341.8 194.456 337.802 176.975 334.673L229.822 369.962ZM127.7 83.1937C129.935 84.3622 133.131 84.4034 135.648 83.12C137.731 97.7191 148.398 109.605 162.753 113.226C162.297 116.236 162.165 118.091 161.62 122.841C162.257 122.938 162.895 123.053 163.532 123.169C163.939 119.503 164.142 117.129 164.623 113.835C168.81 118.351 173.574 122.217 179.765 127.109L180.414 129.988C180.568 130.104 180.723 130.219 180.877 130.335C181.457 130.529 182.055 130.76 182.616 130.992L178.697 113.627C189.73 111.421 199.481 104.17 204.493 93.5796L210.145 92.593C211.722 92.3254 212.469 90.4957 211.527 89.192C210.142 87.2819 208.943 85.6331 207.574 83.7259C208.617 77.2715 207.915 71.1 205.783 65.3292C209.595 64.791 215.715 62.8426 214.868 58.0002C214.487 55.8235 211.715 54.227 209.894 55.4795C211.866 54.5941 213.814 53.4879 215.142 51.7824C218.707 47.2051 215.384 41.608 208.883 42.8611C220.516 36.0004 219.335 24.9218 210.603 20.6292C199.283 15.0651 171.722 25.0195 160.975 31.4844C152.194 36.7665 144.521 44.3055 140.319 53.6161C139.31 55.8522 137.823 53.5286 132.783 54.9223C125.425 56.9567 119.584 66.5888 122.665 75.7033C123.006 78.3523 124.694 81.6392 127.7 83.1937ZM209.962 90.3247C210.064 90.466 209.992 90.6599 209.819 90.6897L203.684 91.7602C203.391 91.811 203.075 92.0822 202.969 92.3119C196.252 107.061 179.888 115.165 164.039 111.573C149.55 108.29 138.827 96.1609 137.355 81.3914C137.278 80.6339 136.329 80.2581 135.753 80.7642C134.068 82.26 130.723 82.5948 128.59 81.4791C126.628 80.4652 125.73 78.9675 124.916 76.8794C123.899 74.2835 124.705 70.2492 127.677 68.493C130.413 67.1445 135.02 67.5827 135.891 71.3528C136.145 72.4495 136.789 77.7288 139.308 76.0984C140.991 75.0087 139.94 72.5674 140.258 70.9297C140.743 68.4319 143.807 67.3414 146.342 67.5509C148.878 67.7604 151.352 68.7842 153.886 68.554C157.709 68.2066 160.786 64.989 162.122 61.3896C163.346 58.0914 161.808 50.3108 165.124 49.2877C169.086 48.0652 175.316 50.2432 178.87 51.8893C188.416 56.3096 191.13 65.9839 203.79 65.5005C204.477 67.2728 205.023 69.1071 205.409 70.9963L200.94 69.9832C200.421 69.8625 199.902 70.1917 199.785 70.7123C199.667 71.2319 199.993 71.7497 200.514 71.8676C205.925 73.0446 205.37 73.0341 205.762 73.0011C206.322 76.9033 206.207 80.3479 205.612 83.8124C205.612 83.8132 205.612 83.814 205.612 83.8149C205.569 84.0693 205.629 84.3276 205.778 84.5359C205.778 84.5353 205.779 84.5365 205.778 84.5359C207.008 86.254 208.305 88.0407 209.962 90.3247Z" fill="black"/>
<path d="M191.563 67.8594L186.947 66.8134C186.43 66.6946 185.91 67.0219 185.792 67.5425C185.674 68.0621 186 68.5799 186.521 68.6978C191.366 69.7866 191.144 69.7673 191.351 69.7673C192.494 69.7673 192.682 68.1128 191.563 67.8594ZM130.834 72.0761C127.616 72.9205 128.333 77.2765 129.986 77.2765C130.78 77.2765 131.252 76.3471 130.738 75.7072C130.242 75.0857 130.554 74.1454 131.324 73.9435C131.84 73.8086 132.148 73.2805 132.013 72.7646C131.878 72.2487 131.35 71.9422 130.834 72.0761ZM182.928 90.836C181.413 92.2629 178.398 89.2016 182.035 85.6195C182.415 85.2451 182.419 84.633 182.046 84.2529C181.67 83.8738 181.06 83.8672 180.679 84.2425C175.035 89.8025 181.046 95.2697 184.252 92.2412C184.64 91.8753 184.658 91.2642 184.292 90.8765C183.927 90.488 183.313 90.4691 182.928 90.836ZM194.507 357.634C194.023 357.509 193.521 357.802 193.396 358.291L176.971 422.252C176.081 425.717 173.531 428.483 170.144 429.656L102.544 453.652C101.405 454.057 102.019 455.776 103.156 455.372L170.748 431.378C174.708 430.008 177.695 426.766 178.738 422.707L195.163 358.745C195.288 358.257 194.994 357.76 194.507 357.634ZM459.404 226.024C459.404 256.581 427.501 276.476 400.26 263.592C427.434 282.746 465.604 263.429 465.604 229.636C465.604 213.063 455.869 198.751 441.788 192.145C452.45 199.62 459.404 212.001 459.404 226.024Z" fill="black"/>
<path d="M489.438 142.221H418.968C419.066 136.331 416.774 130.705 412.539 126.659C409.208 123.449 405.163 121.085 400.839 119.821C385.828 115.481 367.698 124.69 357.522 136.532C356.439 137.775 354.922 139.986 355.213 142.228C319.784 142.225 236.604 142.217 189.319 142.215C189.396 142.524 189.454 142.852 189.512 143.18C189.57 143.509 189.608 143.818 189.647 144.146H324.214V189.428C324.214 189.92 324.586 190.397 325.25 190.397C325.678 190.488 337.906 189.727 348.042 199.865C354.162 205.985 357.533 214.105 357.533 222.728C357.533 240.615 342.969 255.037 325.299 255.074L325.294 255.075C325.256 255.076 325.218 255.081 325.18 255.081C324.646 255.081 324.214 255.513 324.214 256.047V309.505H289.062C290.439 305.428 287.733 302.327 284.205 299.917C285.028 299.732 285.834 299.408 286.531 298.817C288.718 296.965 288.643 293.551 287.306 291.32C282.634 283.528 256.994 279.072 252.858 277.949C251.839 277.672 250.849 277.403 249.814 277.241C253.045 275.119 256.295 273.585 259.894 271.316C282.099 270.477 299.803 252.243 299.803 229.887C299.803 215.169 292.134 202.247 280.545 194.907C289.198 202.479 294.645 213.624 294.645 226.024C294.645 244.101 283.089 259.451 266.92 265.133C271.844 257.957 266.871 249.426 258.615 252.311C256.056 253.207 255.331 253.905 239.896 264.738C236.767 259.298 242.41 265.554 202.665 235.083L184.297 220.983C184.296 220.71 183.83 202.073 185.127 183.26C186.17 183.762 187.175 184.361 188.121 185.076C188.527 185.385 189.106 185.307 189.396 184.902C189.705 184.496 189.628 183.936 189.222 183.627C178.138 175.141 132.248 179.269 114.201 201.513C113.892 201.899 113.95 202.479 114.336 202.788C114.787 203.138 115.352 203.024 115.63 202.653C117.736 200.064 120.227 197.669 123.067 195.506C122.819 204.432 122.659 225.501 123.917 234.349C127.773 258.707 144.306 266.282 160.052 279.152V310.477C160.052 311.011 160.484 311.443 161.018 311.443C209.949 311.42 204.949 311.479 205.385 311.416C207.46 311.736 209.984 311.603 213.192 310.49C221.999 319.038 246.644 329.286 251.524 331.265C253.669 332.134 255.887 333.033 258.278 333.39C265.155 334.416 269.937 329.998 268.384 325.125C270.022 325.445 270.554 325.443 271.598 325.375C271.977 325.696 268.9 324.828 318.72 336.231C323.701 337.358 327.683 341.104 329.113 346.007L355.347 435.922C355.47 436.344 355.856 436.617 356.275 436.617C356.919 436.617 357.381 435.998 357.202 435.381L330.967 345.465C329.342 339.89 324.812 335.629 319.147 334.348L275.432 324.388C279.438 322.406 280.455 318.315 278.656 314.88C283.129 315.342 286.271 313.795 288.056 311.437C507.852 311.418 269.644 311.424 489.438 311.424C489.971 311.424 490.403 310.992 490.403 310.458V143.187C490.403 142.653 489.971 142.221 489.438 142.221ZM161.983 280.639C162.186 280.791 176.563 291.933 200.752 309.511H161.983V280.639ZM205.55 309.572C199.587 307.599 155.186 273.07 149.49 268.75C145.734 265.109 129.247 256.633 125.732 234.079C124.443 225.294 124.621 203.671 124.94 194.134C141.725 182.394 173.371 178.98 183.35 182.526C182.18 198.237 182.216 212.548 182.616 228.303C182.616 228.806 183.022 229.192 183.524 229.192H183.543C184.046 229.192 184.451 228.767 184.432 228.265L184.336 223.318C195.258 231.667 216.764 248.418 235.579 261.989C237.301 263.274 238.233 265.076 238.805 267.147C238.817 267.347 239.963 272.599 238.496 277.944C238.38 278.04 238.283 278.195 238.245 278.349C233.794 295.398 216.609 311.421 205.55 309.572ZM275.876 312.414L275.87 312.411C266.856 309.98 257.758 305.919 249.477 301.792C249.001 301.556 248.421 301.749 248.182 302.226C247.943 302.703 248.138 303.283 248.615 303.521C266.333 312.351 275.521 314.323 275.321 314.264C277.447 314.896 278.163 318.566 276.973 320.545C275.797 322.5 273.161 323.632 270.306 323.464C266.818 323.242 265.641 322.419 243.124 312.158C242.636 311.936 242.066 312.151 241.844 312.636C241.624 313.122 241.838 313.694 242.322 313.916C261.425 322.611 263.478 323.65 265.895 324.471C268.521 328.051 264.864 332.429 258.563 331.48C256.401 331.156 254.291 330.302 252.251 329.475C247.543 327.566 224.215 317.873 215.167 309.698C226.405 304.707 236.49 291.29 239.809 279.566C240.619 278.756 241.747 270.87 240.55 266.637C256.292 255.589 256.991 254.926 259.253 254.134C261.096 253.489 262.923 253.531 264.269 254.246C266.111 255.225 267.221 257.689 266.908 260.104C265.866 268.176 253.587 271.692 246.36 277.333C245.61 277.918 246.07 279.139 247.043 279.057C249.705 278.809 251.838 279.791 254.684 280.4C263.516 282.291 272.651 284.248 280.791 288.426C282.688 289.399 284.588 290.544 285.65 292.313C286.552 293.819 286.668 296.17 285.282 297.344C281.347 300.676 264.427 292.99 254.457 290.518C253.945 290.392 253.417 290.704 253.287 291.224C253.159 291.741 253.475 292.265 253.993 292.393C263.539 294.761 271.179 298.789 280.402 299.972C281.958 300.645 283.837 301.887 285.329 303.238C287.123 304.865 288.156 307.29 286.977 309.541C286.526 309.626 286.185 310.009 286.185 310.471C286.185 310.52 286.205 310.561 286.212 310.608C283.605 313.54 279.687 313.38 275.876 312.414ZM358.983 137.796C371.959 122.698 395.986 113.399 411.203 128.052C415.794 132.44 417.68 138.688 416.919 144.308C416.05 151.14 417.292 162.869 413.447 165.006C411.685 165.987 409.527 164.195 408.676 162.307C407.068 158.718 407.806 153.665 407.89 146.72C407.897 146.187 407.47 145.749 406.936 145.743C406.778 145.712 406.635 145.748 406.502 145.811C405.984 145.854 405.588 146.294 405.613 146.815C405.912 152.992 405.636 159.214 404.794 165.313C404.371 168.375 403.258 172.407 400.307 171.423C399.161 171.044 398.032 169.932 397.429 168.591C396.098 165.624 396.379 163.391 396.658 146.062C396.666 145.529 396.241 145.089 395.707 145.081C395.206 145.121 394.735 145.498 394.726 146.031C394.481 161.771 394.315 163.583 394.787 166.348C394.672 166.5 394.586 166.676 394.574 166.879C394.49 168.436 394.404 170.046 393.823 171.443C393.228 172.868 391.529 174.436 389.945 174.499C388.42 174.546 386.864 173.051 386.178 171.523C384.781 168.41 384.549 162.636 384.458 159.215C385.095 153.71 385.309 148.13 385.04 142.585C385.014 142.052 384.547 141.613 384.028 141.667C383.496 141.694 383.085 142.147 383.111 142.679C383.41 148.851 383.133 155.074 382.291 161.175C381.865 164.259 380.751 168.265 377.803 167.286C376.658 166.906 375.529 165.794 374.927 164.454C373.598 161.493 373.875 159.265 374.155 141.925C374.164 141.332 373.482 140.61 372.755 140.876C370.726 141.613 366.598 144.303 361.534 144.391C360.579 144.413 358.238 144.299 357.396 142.853C357.396 142.853 357.351 142.751 357.346 142.742C356.434 141.02 358.183 138.713 358.983 137.796ZM488.472 309.492C439.513 309.492 375.087 309.492 326.265 309.492V257.006C344.691 256.446 359.526 241.283 359.526 222.741C359.526 204.17 344.608 189.05 326.265 188.484V144.153C334.666 144.165 342.691 144.156 355.976 144.159C357.366 146.075 360.023 146.331 361.57 146.323C366.467 146.237 370.643 143.919 372.202 143.199C371.951 158.797 371.618 161.8 373.165 165.244C375.202 169.789 380.571 171.227 382.961 166.157C383.234 168.496 383.675 170.662 384.416 172.314C385.413 174.537 387.569 176.544 390.023 176.429C392.45 176.332 394.768 174.196 395.605 172.185C395.869 171.552 396.03 170.896 396.157 170.238C397.701 172.761 400.587 174.405 403.149 172.977C406.227 171.26 406.601 166.507 406.978 163.21C408.364 166.153 411.608 168.24 414.387 166.694C419.371 163.921 417.885 153.147 418.873 144.153H488.472V309.492ZM73.6382 435.892C71.0597 436.535 69.4856 439.156 70.1279 441.735C71.1733 445.924 76.746 446.693 78.9349 443.051C81.1263 439.403 77.8165 434.858 73.6382 435.892ZM75.5038 443.37C73.9514 443.758 72.3867 442.811 72.0029 441.267C71.3809 438.776 74.1017 436.776 76.2913 438.093C78.4819 439.409 77.9928 442.749 75.5038 443.37Z" fill="black"/>
<path d="M139.75 501.509C137.438 500.863 136.765 497.197 134.343 495.263C129.935 491.743 122.491 495.926 119.832 491.864C119.351 491.131 119.043 489.861 118.45 488.908C116.982 486.547 113.431 485.671 110.907 487.4C91.2552 450.769 91.9809 425.315 90.7539 423.693C90.4644 422.762 89.6043 422.885 89.5684 422.895C75.2394 425.182 49.1759 433.214 40.3425 436.116C39.274 436.468 38.8316 436.614 42.7192 453.365C44.547 461.242 46.6597 469.679 47.018 470.803C51.8634 486.004 53.6836 504.16 64.233 517.093C69.8834 524.02 78.1688 528.909 86.9635 530.507C108.239 534.358 115.066 514.792 99.5506 501.793C96.8919 499.564 94.9849 498.268 93.6088 497.529C101.734 494.459 105.016 492.269 110.54 489.233C111.368 489.927 111.507 490.343 111.205 491.258C110.992 491.9 110.279 492.903 109.963 493.76C109.492 495.035 109.707 496.767 111.034 497.465C111.593 497.759 112.19 497.776 112.67 497.79C113.58 497.815 113.654 497.718 113.453 499.308C113.049 502.649 114.809 506.142 117.733 507.803C118.841 508.433 119.795 506.754 118.688 506.124C116.42 504.837 115.057 502.129 115.39 499.383C115.937 495.063 112.565 496.088 111.933 495.756C111.649 495.606 111.574 494.974 111.775 494.429C112.208 493.251 114.352 490.882 112.641 488.628C114.057 488.109 115.972 488.582 116.81 489.929C117.859 491.61 117.839 496.137 126.2 495.728L126.644 495.706C132.473 495.396 133.281 496.314 135.186 499.46C136.181 501.104 137.211 502.805 139.229 503.369C139.737 503.514 140.277 503.213 140.419 502.699C140.563 502.185 140.263 501.652 139.75 501.509ZM104.655 490.312C104.666 490.102 104.623 489.888 104.492 489.704C101.427 485.413 99.3431 480.396 98.4631 475.194C98.3735 474.669 97.8802 474.319 97.3493 474.403C96.824 474.493 96.4693 474.991 96.558 475.517C97.487 481.005 99.6864 486.299 102.92 490.827C103.003 490.942 103.112 491.023 103.227 491.09C100.863 492.355 98.2333 493.623 94.6326 495.052C94.6358 494.765 94.5268 494.479 94.285 494.286C91.2793 491.884 89.5731 487.856 89.9381 484.024C90.0597 482.757 88.1368 482.56 88.016 483.841C87.5942 488.257 89.5422 492.892 92.9763 495.701C91.4675 496.272 89.9466 496.809 90.156 496.734C89.6533 496.913 89.3902 497.464 89.5684 497.967C89.7467 498.47 90.2975 498.731 90.8002 498.556C91.1831 498.427 93.2891 499.063 98.3094 503.274C112.277 514.976 106.664 532.139 87.3087 528.606C78.9591 527.09 71.0943 522.448 65.7307 515.873C55.5068 503.34 53.6848 485.36 48.859 470.216C48.0461 467.667 41.7836 441.89 41.5167 437.765C50.6406 434.789 75.0423 427.305 89.0922 424.93C90.1222 429.69 91.1538 454.298 108.975 487.89C107.31 488.815 106.56 489.257 104.655 490.312ZM400.027 457.805C399.705 458.144 399.423 458.459 399.182 458.749C397.715 450.043 396.118 446.209 394.318 440.543C396.706 438.616 397.427 442.522 400.531 442.522C401.27 442.522 401.991 442.266 402.488 441.649C402.885 441.157 403.017 440.575 403.124 440.107C403.323 439.224 403.239 439.123 404.764 439.632C407.968 440.676 411.732 439.622 413.927 437.073C414.275 436.669 414.23 436.059 413.825 435.711C413.423 435.364 412.812 435.407 412.463 435.813C410.762 437.789 407.847 438.608 405.214 437.745C401.078 436.378 401.447 439.865 400.985 440.437C400.785 440.69 400.148 440.637 399.652 440.335C398.533 439.651 396.648 437.126 394.129 438.365C393.895 436.878 394.725 435.087 396.21 434.526C398.079 433.817 402.507 434.707 403.714 426.434L403.778 425.994C404.608 420.209 405.656 419.598 409.113 418.337C410.918 417.678 412.784 416.997 413.728 415.126C413.969 414.65 413.777 414.07 413.301 413.829C412.825 413.589 412.245 413.781 412.004 414.257C411.404 415.445 410.036 415.945 408.45 416.523C404.137 418.097 402.792 419.266 401.803 426.155C400.797 433.055 397.814 431.854 395.526 432.719C392.905 433.713 391.392 437.034 392.586 439.824C357.915 450.679 326.229 447.273 326.186 447.294C325.229 447.397 325.059 448.503 325.175 448.303C324.65 462.814 327.496 489.931 328.638 499.155C328.68 499.5 328.716 499.784 329.255 499.992C332.075 501.094 362.135 499.515 363.96 499.306C385.217 496.874 414.614 501.03 428.304 475.756C441.203 452 419.1 437.491 400.027 457.805ZM426.212 475.546C412.652 499.232 384.12 495.054 363.734 497.386C360.959 497.72 334.485 498.841 330.488 498.321C329.327 488.781 326.694 463.399 327.085 449.165C331.732 449.128 357.049 452.652 392.695 441.82C393.295 443.676 393.564 444.431 394.236 446.524C394.033 446.474 393.816 446.474 393.61 446.567C388.807 448.746 383.466 449.824 378.209 449.68C377.69 449.686 377.231 450.086 377.217 450.619C377.202 451.153 377.623 451.596 378.156 451.611C383.85 451.76 389.44 450.58 394.408 448.327C394.535 448.27 394.64 448.187 394.727 448.089C395.509 450.648 396.243 453.47 396.951 457.275C396.67 457.217 396.369 457.268 396.133 457.468C393.194 459.952 388.914 460.845 385.224 459.75C384.71 459.596 384.175 459.89 384.023 460.4C383.87 460.911 384.162 461.449 384.673 461.601C388.888 462.86 393.811 461.88 397.267 459.022C397.464 460.184 397.647 461.403 397.737 461.992C397.926 463.266 399.832 462.969 399.648 461.712C399.644 461.665 399.657 461.592 399.687 461.501C399.946 461.013 400.045 460.611 401.414 459.154C419.127 440.498 438.964 453.22 426.212 475.546Z" fill="black"/>
<path d="M336.092 462.971C333.251 466.11 335.573 471.215 339.905 471.018C342.55 470.886 344.61 468.641 344.478 465.965C344.264 461.715 338.971 459.79 336.092 462.971ZM339.809 469.088C337.253 469.227 335.805 466.165 337.524 464.268C339.233 462.378 342.419 463.482 342.549 466.061C342.629 467.653 341.403 469.01 339.809 469.088Z" fill="black"/>
</g>
<defs>
<clipPath id="clip0_4409_27793">
<rect width="540" height="550" fill="white"/>
</clipPath>
</defs>
</svg>
