<svg width="534" height="550" viewBox="0 0 534 550" fill="none" xmlns="http://www.w3.org/2000/svg">
<g clip-path="url(#clip0_4417_31807)">
<path d="M273.581 335.695C273.482 336.99 274.159 338.285 275.155 339.142C278.125 341.798 287.131 343.491 294.938 339.68C292.049 343.465 289.101 347.23 286.093 350.956C274.014 366.128 272.358 366.782 271.629 369.045C269.697 368.886 267.804 368.428 265.971 367.691C260.214 365.36 254.516 362.969 248.878 360.499C248.499 360.359 248.121 360.18 247.742 360.021C229.65 352.149 204.282 340.154 176.221 325.575C169.509 335.385 160.56 348.994 151.298 363.866C139.943 382.015 107.728 441.802 105.696 443.256C87.0887 433.036 66.3297 422.895 52.3242 406.878C52.5633 406.36 52.8023 406.101 53.0813 405.603C53.2054 405.391 130.719 269.196 134.663 264.314C137.428 260.93 138 256.983 147.473 251.444C172.332 237.21 193.209 254.393 195.924 255.01C217.594 266.506 243.04 280.189 271.41 292.524C274.378 293.839 287.945 300.194 301.333 306.429C299.879 309.278 298.445 312.147 297.03 315.016C295.596 317.925 296.213 321.172 297.508 324.2C297.588 324.38 297.648 324.539 297.727 324.698C290.476 325.615 284.2 327.408 277.367 331.253C275.594 332.249 273.741 333.663 273.581 335.695Z" fill="#00C0AD"/>
<path d="M332.213 265.197L327.153 260.097C317.12 276.523 306.782 295.245 297.03 315.022C295.596 317.931 296.213 321.178 297.508 324.207C297.588 324.386 297.648 324.545 297.728 324.705C290.476 325.621 284.2 327.414 277.367 331.259C275.594 332.255 273.741 333.67 273.582 335.702C273.375 338.391 276.035 340.203 278.622 340.941C283.961 342.595 289.918 342.137 294.938 339.686C292.05 343.471 289.101 347.237 286.093 350.962C277.975 350.398 270.269 349.205 262.246 347.715C261.389 347.555 260.533 347.396 259.756 346.998C259.457 346.858 259.198 346.659 258.959 346.44C258.142 345.703 257.644 344.607 257.644 343.491C257.564 326.298 254.675 309.105 254.416 291.813C253.95 264.469 255.278 235.383 264.716 209.753C270.753 193.337 282.845 177.22 300.317 172.08C303.254 171.215 308.868 169.813 311.653 171.163C303.232 171.441 294.651 174.348 289.141 180.646C279.2 191.404 282.925 212.343 287.806 217.562C294.024 224.234 321.111 253.288 332.213 265.197Z" fill="#006BFF"/>
<path d="M458.6 449.259C286.031 448.556 282.332 450.78 256.667 445.872C249.548 444.507 243.359 442.443 237.283 438.76C216.104 425.608 209.664 397.091 232.721 373.773C237.681 368.813 243.18 364.549 248.878 360.505C249.249 360.242 277.583 340.801 277.785 340.662C283.167 342.585 289.512 342.335 294.938 339.686C292.049 343.471 289.101 347.237 286.092 350.962C274.013 366.136 272.358 366.788 271.629 369.052C270.733 371.741 272.887 374.526 275.554 375.128C278.024 375.666 280.634 374.61 282.546 372.956C284.419 371.343 286.371 367.717 288.483 366.601C285.594 371.343 281.988 376.523 281.61 382.22C281.47 384.053 281.69 386.025 282.905 387.38C284.817 389.492 288.423 389.114 290.635 387.34C292.866 385.547 294.021 382.798 295.097 380.168C294.44 381.862 293.762 383.595 293.802 385.408C293.822 387.221 294.739 389.133 296.412 389.791C300.807 391.522 307.255 383.765 309.501 379.551C309.023 381.005 308.525 382.519 308.585 384.053C308.764 387.543 311.755 389.374 315.02 387.301C318.327 385.189 319.323 380.965 321.036 377.439C322.889 373.574 325.778 370.307 328.288 366.82C332.511 360.983 335.679 354.489 338.847 348.014L339.106 347.834C338.787 347.834 338.488 347.834 338.169 347.814C342.615 347.25 348.801 345.648 350.78 341.619C353.649 335.841 356.617 330.104 359.666 324.406C366.9 337.599 367.664 354.936 356.119 364.629C346.556 372.652 338.004 379.442 327.192 385.229C471.854 385.741 458.066 385.539 459.795 385.667C463.939 406.446 459.536 449.259 458.6 449.259Z" fill="#00C0AD"/>
<path d="M218.335 90.2789C218.275 89.3824 218.196 88.4859 218.116 87.5894L138.805 89.5219C137.173 125.815 144.438 162.272 179.805 171.203C180.247 171.324 180.685 171.302 181.12 171.183C211.123 162.059 221.802 132.853 218.335 90.2789ZM190.464 138.929L179.546 133.53L168.908 139.447L170.681 127.414L161.756 119.106L173.749 117.074L178.869 106.017L184.527 116.815L196.62 118.27L188.113 126.976L190.464 138.929Z" fill="#FFC100"/>
<path d="M193.811 194.054C191.131 194.119 203.523 193.818 167.594 194.691C174.116 189.136 173.771 177.562 172.813 168.952H172.833C173.813 169.36 176.69 170.364 177.575 170.566C179.781 171.281 180.343 171.395 181.121 171.183C182.589 170.748 185.34 169.776 187.337 168.872C186.881 177.52 187.107 188.882 193.811 194.054Z" fill="#006BFF"/>
<path d="M182.736 170.646C182.056 170.897 181.005 171.283 180.465 171.283C181.004 171.234 181.063 171.203 182.736 170.646Z" fill="#006BFF"/>
<path d="M218.136 216.905C203.197 217.27 256.152 215.976 145.559 218.678L145.34 209.494L153.807 209.295L153.448 194.412C158.988 194.278 133.384 194.899 207.617 193.098C207.622 193.299 208 208.956 207.976 207.96L212.438 207.86L217.917 207.721L217.977 210.41L218.136 216.905Z" fill="#FE9E93"/>
<path d="M266.467 348.472C265.052 348.233 263.638 347.974 262.243 347.715C261.386 347.556 260.53 347.396 259.753 346.998C259.454 346.858 259.195 346.659 258.956 346.44L247.74 360.007V360.027C248.118 360.186 248.497 360.366 248.875 360.505C251.736 358.475 252.166 358.195 266.467 348.472ZM172.812 168.952C171.437 168.414 170.142 167.797 168.867 167.159C170.142 167.996 171.477 168.773 172.852 169.49C172.852 169.311 172.832 169.131 172.812 168.952ZM195.364 193.397C191.957 188.257 191.419 180.427 191.858 171.462C217.677 160.087 226.463 131.08 222.618 90.1792L218.334 90.2789C220.878 121.533 216.438 156.829 187.335 168.872C186.896 177.211 187.103 188.101 193.093 193.457L195.364 193.397Z" fill="black"/>
<path d="M207.978 207.96L212.44 207.86L212.142 195.688L207.68 195.808L207.978 207.96Z" fill="black"/>
<path d="M446.785 417.304C389.169 419.455 330.857 419.754 273.461 418.18C262.449 417.856 257.105 413.828 263.38 404.454C267.444 398.377 272.983 392.341 280.274 386.085C280.533 386.802 280.892 387.44 281.35 387.998C284.747 391.977 289.214 390.825 292.499 386.831C293.114 391.72 299.736 393.593 304.285 388.281C305.615 386.727 306.291 384.976 307.369 383.058C307.246 387.552 309.992 389.841 312.487 389.755C315.217 389.644 316.884 386.886 317.686 385.561C324.673 374.005 332.02 361.95 340.187 348.451C344.45 347.708 349.727 345.924 351.616 342.037C365.267 314.539 378.176 293.627 378.29 293.426C434.57 390.661 432.872 389.42 434.298 388.602C434.774 388.328 434.938 387.719 434.663 387.242L379.466 291.475C379.583 291.273 381.792 287.459 381.654 287.697L381.659 287.689C382.659 285.169 399.482 265.085 388.253 240.154C382.795 228.127 377.929 225.565 332.251 176.124C329.562 173.275 324.004 171.163 317.668 170.446C316.628 164.648 315.855 159.218 315.108 155.265C329.449 151.166 339.82 138.873 341.477 124.109C344.093 125.331 347.286 125.161 349.476 123.931C352.463 122.268 354.093 118.863 354.336 116.13C357.404 105.863 349.425 94.3097 339.172 95.2458C337.884 95.3633 336.603 96.0546 335.841 94.4934C331.32 85.2409 323.354 77.8808 314.343 72.829C303.297 66.636 275.224 57.4706 263.999 63.4216C255.301 68.0332 254.528 79.2412 266.418 85.7713C266.088 85.7182 265.763 85.6407 265.427 85.6213C264.031 85.5406 262.568 85.8675 261.366 86.5606C248.63 64.8789 250.119 66.138 248.8 65.7751C247.703 65.7751 249.105 64.6457 226.183 103.865C225.796 104.534 226.288 105.36 227.044 105.36C228.139 105.36 226.488 106.899 248.799 68.7625L259.821 87.872C258.126 90.0143 258.739 92.9671 260.386 94.9543C261.777 96.632 263.774 97.6865 265.788 98.5179C263.915 97.3119 261.171 99.0062 260.854 101.211C260.151 106.107 266.352 107.885 270.212 108.314C268.684 112.876 268.006 117.787 268.405 122.844C268.506 124.142 268.705 125.509 268.974 126.905C267.473 129.138 266.061 131.208 265.164 132.528C264.244 133.888 265.069 135.725 266.676 135.947L272.393 136.766C277.769 147.275 287.81 154.274 298.987 156.164L295.455 174.451C291.14 176.832 288.82 179.66 288.442 180.009C278.003 191.305 282.167 212.901 287.127 218.2L326.096 260.017C315.965 276.628 305.845 295.025 296.192 314.604C294.877 317.254 294.957 320.362 296.431 324.067C296.436 324.08 296.443 324.095 296.448 324.108C285.228 324.074 275.602 329.321 273.156 332.673C270.685 336.082 271.767 340.719 278.631 341.824C283.16 342.558 287.574 342.269 291.975 341.332C284.547 350.193 279.987 356.388 273.215 365.722C271.442 368.145 269.608 370.651 271.977 374.183C273.104 375.862 274.991 376.879 276.867 376.879C279.007 376.879 280.671 375.555 282.182 374.066C283.317 372.947 284.321 371.887 285.287 370.826C281.147 378.582 279.916 381.111 279.916 383.774C272.026 390.448 266.07 396.843 261.727 403.358C254.709 413.696 260.527 419.817 273.421 420.172C333.197 421.795 391.342 421.387 446.865 419.296C448.187 419.248 448.1 417.213 446.785 417.304ZM273.923 135.41C273.791 135.142 273.421 134.9 273.17 134.864L266.793 133.856C266.648 133.521 271.176 127.814 271.001 126.936V126.931C270.701 125.465 270.497 124.038 270.39 122.687C270.213 120.445 270.269 118.234 270.511 116.07C270.523 116.07 270.532 116.081 270.544 116.081C270.625 116.081 270.709 116.071 270.793 116.049L275.752 114.764C276.285 114.626 276.606 114.083 276.468 113.55C276.33 113.019 275.789 112.695 275.254 112.836L270.812 113.987C271.143 112.081 271.636 110.226 272.27 108.429C285.001 108.511 287.598 98.621 296.94 93.9428C300.471 92.1744 306.682 89.7875 310.712 90.8971C314.084 91.8256 312.775 99.7136 314.11 102.999C315.567 106.585 318.767 109.733 322.631 109.965C325.191 110.118 327.652 109.01 330.201 108.721C332.75 108.432 335.871 109.436 336.437 111.938C336.811 113.594 335.841 116.081 337.554 117.117C340.142 118.683 340.628 113.343 340.849 112.23C341.015 111.401 341.251 110.766 341.604 110.257C343.408 108.48 346.712 108.093 348.939 109.059C352.049 110.705 353.005 114.801 352.058 117.454C351.307 119.576 350.449 121.109 348.503 122.192C346.402 123.371 343.034 123.139 341.291 121.693C340.674 121.177 339.716 121.619 339.661 122.39C338.635 137.309 328.211 149.853 313.721 153.605C297.865 157.709 281.143 150.053 273.923 135.41ZM298.396 169.737C304.464 164.632 309.136 160.596 313.207 155.927C313.905 159.661 314.787 165.644 315.616 170.287C310.002 169.862 303.359 170.735 297.706 173.315L298.396 169.737ZM297.866 315.441C307.495 295.911 318.157 276.644 327.331 261.611L331.534 265.854C331.913 266.213 332.49 266.233 332.869 265.874C333.228 265.515 333.248 264.918 332.909 264.539L288.502 216.905C284.02 212.124 280.234 191.663 289.857 181.264L290.255 180.826C301.4 168.765 324.615 170.799 330.877 177.419C379.434 229.383 377.49 227.149 380.344 230.751C402.513 259.817 380.818 284.103 380.048 286.727L380.015 286.707C379.898 286.911 364.77 311.333 349.942 341.2C347.284 346.58 335.822 347.604 329.502 346.938C314.97 345.293 303.579 335.995 298.364 323.828C296.929 320.441 296.75 317.692 297.866 315.441ZM283.621 378.415C290.043 365.536 294.423 358.885 300.256 351.201C301.061 350.159 299.488 348.943 298.682 349.986C293.45 356.883 288.252 365.287 280.785 372.648C279.592 373.821 278.557 374.644 277.376 374.844C276.022 375.079 274.487 374.346 273.631 373.073C271.843 370.405 273.478 368.851 275.337 366.188C281.316 357.836 287.577 349.651 295.27 340.507C295.403 340.469 295.533 340.442 295.666 340.402C296.164 340.253 296.446 339.728 296.297 339.23C296.149 338.733 295.622 338.449 295.125 338.599C294.959 338.649 294.796 338.687 294.63 338.735C294.451 338.735 294.28 338.78 294.123 338.874C288.761 340.354 283.648 340.731 278.931 339.966C273.723 339.126 272.908 336.224 274.68 333.78C276.854 330.797 286.437 325.697 297.295 325.995C297.882 327.256 299.05 329.149 299.738 330.263C307.901 343.306 322.461 350.383 337.768 348.811C330.607 360.645 323.679 372.016 316.075 384.587C315.065 386.258 313.921 387.812 312.41 387.874C311.042 387.956 309.875 386.602 309.495 385.325C309.03 383.767 309.303 381.963 309.544 380.372C309.586 380.094 309.496 379.833 309.33 379.633C312.682 373.86 316.638 367.305 319.18 361.706C319.408 361.206 319.186 360.616 318.686 360.388C318.186 360.161 317.596 360.381 317.367 360.883C315.242 365.558 312.153 370.846 309.164 375.96C303.544 385.562 304.058 385.483 302.771 386.985C299.799 390.46 295.938 389.965 294.775 387.646C293.985 386.078 294.672 384.016 295.378 382.205C298.923 373.114 303.427 367.031 307.985 358.307C308.24 357.82 308.052 357.218 307.563 356.963C307.079 356.71 306.478 356.897 306.219 357.385C301.731 365.972 297.248 372.058 293.644 381.183L293.642 381.184C293.502 381.284 293.403 381.443 293.343 381.623C292.905 382.938 291.132 385.667 289.857 386.743C286.231 389.791 284.119 388.177 282.864 386.703C281.988 385.675 281.785 384.114 281.987 382.778C282.227 381.324 282.864 379.949 283.621 378.415ZM88.4947 409.922C88.9696 410.204 89.5799 410.05 89.8615 409.579L155.22 300.436C159.242 294.012 167.21 291.534 174.167 294.553L223.995 316.151C224.501 316.37 225.086 316.137 225.305 315.633C225.523 315.128 225.291 314.541 224.786 314.322L174.959 292.724C167.097 289.317 158.083 292.113 153.52 299.395L88.1513 408.556C87.8692 409.027 88.0229 409.639 88.4947 409.922ZM106.631 442.087C73.1984 428.267 52.7945 406.611 51.5381 405.601C53.8895 403.63 54.0388 399.954 52.1443 397.867C50.5 396.051 47.2794 395.769 49.5304 389.139C50.4798 386.363 51.5306 383.482 50.3855 380.748C49.1902 377.889 45.8256 376.196 45.8378 373.804C45.8407 373.255 45.3971 372.806 44.8465 372.803H44.8417C44.294 372.803 43.8485 373.246 43.8456 373.795C43.8349 375.912 45.1987 377.38 46.5168 378.799C49.04 381.516 49.6826 382.537 47.7892 388.072L47.6432 388.499C44.9277 396.495 49.3475 397.746 50.6686 399.205C51.729 400.374 51.6565 402.323 50.795 403.538C49.0802 401.293 46.2779 402.692 44.9438 402.794C44.3825 402.834 43.7921 402.593 43.7288 402.296C43.6148 401.75 44.39 400.588 43.8174 399.395C43.2707 398.255 41.9983 398.059 40.9954 397.905C38.4146 397.497 36.1802 395.439 35.5624 392.9C35.4321 392.365 34.8922 392.032 34.3591 392.167C33.8241 392.298 33.4963 392.837 33.6266 393.371C34.4292 396.669 37.3319 399.342 40.8533 399.898C41.2551 399.96 41.9292 400.064 42.0216 400.257C42.1853 400.598 41.546 401.585 41.7794 402.703C42.0917 404.191 43.7162 404.892 45.0946 404.78C45.9597 404.714 47.1736 404.297 47.8563 404.269C48.8184 404.221 49.162 404.463 49.6011 405.442C46.1068 409.024 42.5371 411.948 36.963 419.475C36.6044 417.941 35.8871 415.75 34.4727 412.602C26.1881 394.096 5.26412 395.078 3.1747 416.865C2.29812 425.81 4.74852 435.194 9.8885 442.565C19.4679 456.32 36.3834 463.032 49.9324 471.99C51.3981 472.977 78.2336 488.506 80.8916 488.506C81.3498 488.506 81.4893 488.287 81.6686 488.008C86.9082 480.278 101.87 457.288 108.046 444.039C108.066 443.999 108.404 443.222 107.588 442.645C107.431 442.394 107.234 442.354 106.631 442.087ZM80.3737 486.374C76.4091 484.96 53.2594 471.831 51.0281 470.337C37.5186 461.403 20.7956 454.736 11.5222 441.429C6.64116 434.437 4.33025 425.551 5.16694 417.064C7.05738 397.289 25.315 396.97 32.6597 413.419C35.3293 419.395 35.3493 421.607 35.15 421.945C34.3886 423.04 36.0158 424.176 36.7637 423.101C37.9237 421.492 38.3668 420.896 38.5189 420.688C40.298 424.779 44.2428 427.937 48.6297 428.746C49.9263 428.993 50.2864 427.027 48.9915 426.787C45.1919 426.086 41.7726 423.33 40.2813 419.767C40.161 419.48 39.918 419.293 39.6415 419.211C39.8176 418.996 42.3665 415.58 45.8024 412.07C46.0779 412.943 51.3175 419.095 59.0324 422.776C60.2302 423.35 61.0696 421.541 59.8904 420.979C55.1034 418.694 50.8281 415.296 47.5256 411.151C47.3891 410.979 47.2024 410.882 47.0053 410.828C48.1707 409.682 46.9365 410.916 50.4902 407.362C50.7093 407.562 50.9086 407.761 51.1277 407.96C54.7869 410.886 72.6446 430.167 105.815 443.92C105.834 443.92 105.854 443.94 105.894 443.94C99.6983 456.889 85.7727 478.365 80.3737 486.374Z" fill="black"/>
<path d="M86.8494 448.582C81.8536 448.582 80.127 455.181 84.4189 457.666C86.6819 458.976 89.7175 458.223 91.0729 455.873C92.9158 452.655 90.6404 448.582 86.8494 448.582ZM89.3397 454.877C87.8987 457.426 83.9606 456.368 83.9606 453.443C83.9606 451.354 86.2237 449.788 88.2838 450.953C89.6585 451.73 90.1366 453.503 89.3397 454.877ZM514.721 429.954C514.05 412.441 515.012 421.174 513.705 398.437C512.729 381.145 512.27 381.125 511.115 381.085C501.771 380.766 474.318 380.368 459.855 382.201C459.815 382.201 458.958 382.32 458.918 383.316C458.274 384.768 465.681 409.811 457.763 448.801C457.619 449.525 457.834 448.697 457.42 450.494C454.528 449.57 451.326 451.37 450.563 454.106C449.901 456.475 451.38 459.342 444.571 460.97C441.711 461.646 438.718 462.293 437.013 464.717C435.232 467.252 435.591 471 433.561 472.265C433.094 472.556 432.952 473.17 433.242 473.637C433.528 474.097 434.138 474.251 434.616 473.956C437.623 472.083 437.023 468.169 438.643 465.863C440.125 463.756 443.882 463.18 445.034 462.907C453.248 460.943 451.947 456.544 452.482 454.642C452.906 453.128 454.593 452.143 456.079 452.227C455.107 454.895 457.916 456.692 458.569 457.576C458.904 458.028 459.013 458.655 458.793 458.867C458.412 459.237 456.998 459.217 456.295 460.337C455.618 461.41 456.131 462.593 456.534 463.521C457.565 465.923 457.015 468.91 455.196 470.786C454.812 471.181 454.822 471.811 455.215 472.194C455.614 472.58 456.244 472.568 456.624 472.173C458.987 469.737 459.703 465.856 458.299 462.582C458.137 462.208 457.865 461.582 457.982 461.398C458.18 461.078 459.35 461.098 460.178 460.301C461.273 459.243 460.991 457.496 460.17 456.39C459.652 455.691 458.659 454.895 458.266 454.324C457.72 453.532 457.734 453.114 458.327 452.224C466.538 454.357 471.866 455.059 476.928 455.455C475.813 456.551 474.358 458.344 472.446 461.212C463.829 474.138 468.782 488.287 481.929 488.287C491.766 488.287 505.197 479.57 510.916 466.054C515.677 454.778 515.179 442.167 514.721 429.954ZM509.063 465.277C504.229 476.75 493.447 484.572 484.817 486.036C471.536 488.363 465.602 475.142 474.099 462.308C477.745 456.869 479.598 455.654 479.996 455.654C480.614 455.714 481.032 455.256 481.052 454.718V454.638C481.052 454.12 480.634 453.702 480.116 453.662C478.688 453.581 477.89 453.529 477.13 453.481C479.647 449.796 480.218 444.773 478.567 440.627C478.076 439.397 476.231 440.142 476.715 441.364C478.145 444.953 477.635 449.315 475.416 452.476C475.238 452.728 475.207 453.03 475.282 453.306C475.079 453.28 470.997 452.979 465.951 451.909C465.938 451.906 465.926 451.903 465.913 451.9C465.999 451.805 466.1 451.723 466.145 451.594C467.993 446.304 468.624 440.568 467.972 435.005C467.812 433.68 465.843 433.938 465.991 435.237C466.61 440.502 466.013 445.93 464.266 450.936C464.194 451.139 464.21 451.344 464.265 451.536C463.379 451.334 460.394 450.653 459.476 450.435C459.641 449.723 459.679 449.4 459.715 449.199C467.194 412.268 460.911 385.335 460.911 384.073C475.135 382.42 500.775 382.759 510.418 383.057C511.334 387.161 512.549 413.758 512.49 416.427C512.065 432.193 515.441 450.23 509.063 465.277Z" fill="black"/>
<path d="M478.901 390.269C477.607 390.309 476.411 390.867 475.515 391.823C472.681 394.914 474.843 399.991 479.101 399.991C479.301 399.947 481.091 400.139 482.687 398.437C485.679 395.172 483.088 390.007 478.901 390.269ZM479.22 397.999C476.462 398.064 475.352 394.94 476.989 393.178C478.704 391.264 481.903 392.485 481.97 395.01C482.053 396.629 480.749 397.959 479.22 397.999ZM289.256 109.21L284.637 110.407C284.104 110.545 283.783 111.088 283.921 111.621C284.038 112.069 284.442 112.367 284.886 112.367C284.968 112.367 285.051 112.357 285.135 112.335L289.754 111.138C290.287 111 290.608 110.457 290.47 109.924C290.332 109.393 289.793 109.068 289.256 109.21ZM345.526 114.722C346.299 114.899 346.628 115.821 346.159 116.448C345.83 116.888 345.92 117.513 346.359 117.842C346.795 118.168 347.424 118.085 347.754 117.64C349.094 115.845 348.133 113.276 345.974 112.78C344.674 112.494 344.253 114.428 345.526 114.722ZM296.131 126.585C295.732 126.213 295.096 126.233 294.725 126.638C294.349 127.041 294.374 127.671 294.777 128.046C298.597 131.593 295.523 134.584 294.071 133.298C293.079 132.42 291.765 133.915 292.748 134.788C296.231 137.874 301.938 131.964 296.131 126.585ZM264.003 448.103H113.41C112.86 448.103 112.414 448.549 112.414 449.1C112.414 449.65 112.86 450.096 113.41 450.096H264.003C264.553 450.096 264.999 449.65 264.999 449.1C264.999 448.549 264.553 448.103 264.003 448.103ZM140.162 256.471L160.682 221.009L222.661 219.495L222.442 210.311L217.979 210.41L218.138 216.905C217.904 216.911 149.808 218.584 150.024 218.578L150.084 221.268L158.371 221.069L138.449 255.475C137.787 256.609 139.525 257.603 140.162 256.471Z" fill="black"/>
</g>
<defs>
<clipPath id="clip0_4417_31807">
<rect width="534" height="550" fill="white"/>
</clipPath>
</defs>
</svg>
