<svg width="484" height="484" viewBox="0 0 484 484" fill="none" xmlns="http://www.w3.org/2000/svg">
<g clip-path="url(#clip0_4409_27806)">
<path d="M330.402 206.771L325.672 201.97C322.279 207.544 318.973 213.188 315.738 218.868C309.97 228.996 304.52 239.282 299.315 249.709C295.737 252.293 292.182 252.236 288.185 251.977C276.562 251.379 264.764 251.344 253.159 250.711C252.571 226.01 250.649 174.572 259.682 149.871C263.076 140.622 268.808 131.972 277.16 126.732C277.828 126.31 278.567 125.923 279.323 125.624C279.903 125.36 280.518 125.132 281.134 124.938C285.143 123.69 289.838 123.532 293.794 124.024C291.525 125.668 290.277 127.171 290.013 127.435C280.694 137.528 284.176 157.168 288.747 162.057L314.401 189.574L327.219 203.342L330.402 206.771Z" fill="#FFC100"/>
<path d="M265.216 383.96C251.713 398.514 237.813 408.27 220.668 418.91C194.517 389.189 180.538 372.445 143.838 328.462C140.22 324.124 145.021 313.836 155.309 304.216C155.463 304.079 155.6 303.942 155.738 303.805C168.478 292.024 183.79 286.503 188.18 291.87C188.329 292.051 193.207 297.994 192.896 297.614C193.044 297.794 241.195 356.806 265.216 383.96Z" fill="#00C0AD"/>
<path d="M298.54 263.582C287.03 262.382 276.47 267.794 274.064 271.107C272.099 273.816 272.97 277.258 278.179 278.229C278.267 278.282 278.372 278.299 278.46 278.334C283.471 279.899 289.063 279.477 293.775 277.174C274.222 302.85 270.727 303.271 271.866 307.03C216.172 307.919 201.568 307.415 201.744 307.417C96.4582 427.753 116.836 404.463 114.162 407.518C99.1462 395.861 85.7828 384.097 73.4922 367.042L156.96 270.176C164.846 261.341 171.943 250.342 192.355 250.342L210.255 250.641C253.925 251.239 292.768 249.862 298.997 250.342C298.47 251.397 297.942 252.452 297.415 253.507C295.832 256.724 296.922 260.364 298.54 263.582ZM287.725 302.409C286.846 303.851 285.914 305.328 285.017 306.857C284.543 306.857 284.05 306.857 283.558 306.875C284.877 305.24 286.266 303.182 287.725 302.409Z" fill="#00C0AD"/>
<path d="M168.127 65.1553C144.9 65.1553 126.051 83.9869 126.051 107.232C126.051 123.022 134.755 136.772 147.625 143.963C175.42 159.513 210.204 139.47 210.204 107.232C210.204 84.0656 191.387 65.1553 168.127 65.1553ZM166.228 92.6027C166.228 96.5061 163.081 99.6534 159.178 99.6534C155.292 99.6534 152.127 96.5061 152.127 92.6027C152.127 88.7166 155.292 85.5518 159.178 85.5518C163.081 85.5518 166.228 88.7167 166.228 92.6027ZM139.045 122.652C139.045 111.54 148.065 102.52 159.178 102.52C170.308 102.52 179.31 111.54 179.31 122.652H139.045ZM196.489 102.854H179.803C179.328 102.854 178.924 102.467 178.924 101.974C178.924 101.482 179.328 101.095 179.803 101.095H196.489C196.982 101.095 197.368 101.482 197.368 101.974C197.368 102.467 196.982 102.854 196.489 102.854ZM200.076 96.1367H179.803C179.328 96.1367 178.924 95.7323 178.924 95.2576C178.924 94.7654 179.328 94.3784 179.803 94.3784H200.076C200.551 94.3784 200.955 94.7654 200.955 95.2576C200.955 95.7323 200.551 96.1367 200.076 96.1367Z" fill="#006BFF"/>
<path d="M451.85 304.659H324.485C337.917 282.525 328.679 297.752 336.372 285.038C340.812 284.455 346.612 282.846 348.589 278.83C353.678 268.584 359.198 258.192 365.466 247.06C377.481 225.75 380.622 222.896 383.824 214.431C389.255 199.904 386.392 185.534 376.914 173.415C373.805 169.436 374.308 170.253 330.413 123.231C325.743 118.225 309.311 114.726 296.728 121.28C296.448 117.841 296.15 114.112 295.842 110.914C296.429 112.626 296.657 112.785 298.605 113.042C301.711 113.453 304.878 113.393 307.965 112.862C308.533 112.764 308.999 112.352 309.188 111.808L311.439 105.331L311.973 111.633C312.022 112.208 312.441 112.687 313.007 112.801C317.861 113.778 323.008 114.298 328.832 112.877C329.331 112.755 329.739 112.382 329.893 111.892C330.631 109.534 331.276 106.589 331.453 104.294L332.132 112.042C332.179 112.574 332.594 113.01 333.124 113.069C338.722 113.697 344.447 113.165 349.834 111.52C350.396 111.348 350.724 110.755 350.591 110.182C347.488 96.8048 345.047 81.0292 334.66 71.2116C332.163 68.8519 329.595 66.1603 329.145 62.7544C328.754 59.8057 330.043 56.8969 330.182 53.9254C330.367 49.9623 328.392 46.3725 325.306 44.0179C333.825 43.5599 342.194 40.2289 348.605 34.5877C350.62 32.8142 352.543 30.6307 352.852 27.964C353.246 24.5629 351.112 20.3694 344.398 18.0953C327.871 12.4963 313.747 24.9351 316.679 38.3409C309.306 33.771 302.885 29.3856 294.296 28.6203C277.354 27.111 267.604 42.3021 260.699 57.6554C257.802 62.7951 256.323 68.6236 256.535 74.8094C254.985 76.4791 253.725 77.8205 252.297 79.346C251.359 80.3474 251.795 81.9858 253.109 82.3836L258.176 83.9401C258.916 86.1964 259.887 88.3278 261.063 90.3136L260.448 108.914C260.44 109.454 260.771 109.957 261.28 110.137C263.98 111.091 266.793 111.444 269.657 111.241C270.189 111.203 270.639 110.818 270.781 110.304L271.668 107.112C271.928 107.757 271.895 108.476 271.961 109.169C272.143 111.087 273.574 111.409 275.204 111.707C276.918 112.02 278.67 112.085 280.398 111.889L279.324 125.623C279.905 125.36 280.52 125.131 281.135 124.938L281.718 117.537C286.002 114.843 289.566 109.492 293.547 106.269C294.074 109.968 294.637 117.265 295.042 122.234C291.803 124.221 291.112 125.165 289.403 126.874C279.625 137.464 283.508 157.673 288.14 162.625L324.743 201.903C321.583 207.099 318.399 212.52 315.016 218.459C311.415 224.782 307.819 231.411 304.263 238.223C297.195 239.982 256.069 250.272 253.283 250.693C268.055 250.571 283.003 250.363 298.07 250.343C297.484 252.341 293.902 255.06 297.198 262.654C296.989 262.675 279.055 262.828 273.393 270.622C271.743 272.893 271.83 275.802 274.289 277.58L188.121 280.502C187.943 280.584 187.327 280.865 187.505 280.784C183.831 284.756 97.5051 378.107 95.1406 382.562L96.6946 383.387C98.4959 379.991 157.414 315.908 188.547 282.247L278.638 279.191L278.637 279.159C282.865 279.806 286.947 279.546 291.133 278.64C283.442 287.81 278.463 294.792 273.438 301.633C271.787 303.891 270.078 306.226 272.28 309.506C273.326 311.067 275.079 312.012 276.819 312.012C278.806 312.012 280.35 310.786 281.768 309.389C282.949 308.225 283.986 307.128 284.979 306.023C283.834 308.156 282.706 310.361 281.542 312.7C280.761 314.27 280.093 315.702 279.836 317.327C279.524 319.307 279.971 321.176 281.062 322.454C284.273 326.22 288.503 325.02 291.51 321.276C291.992 325.806 298.181 327.78 302.501 322.73C303.745 321.274 304.332 319.709 305.491 317.656C305.303 321.91 307.822 324.177 310.235 324.096C312.469 324.005 313.934 322.069 315.072 320.186C317.772 315.72 320.587 311.08 323.417 306.417H451.85C454.648 306.417 456.107 308.867 454.974 310.583L333.803 455.247C332.554 457.12 329.15 457.33 327.652 455.155C307.456 432.057 277.676 398.724 266.285 382.999C265.97 382.564 265.371 382.472 264.887 382.855C263.948 383.15 248.184 403.639 216.264 419.395C215.318 416.813 212.243 415.538 209.876 416.524C207.828 417.378 206.588 420.037 201.62 416.099C199.557 414.473 197.405 412.685 194.741 412.827C191.933 412.979 189.477 415.342 187.432 414.594C186.972 414.43 186.47 414.665 186.306 415.121C186.141 415.578 186.377 416.082 186.833 416.248C189.841 417.332 192.297 414.72 194.836 414.582C197.172 414.458 199.697 416.818 200.528 417.478C206.504 422.214 208.903 418.833 210.551 418.148C211.891 417.588 213.559 418.264 214.329 419.389C211.878 420.152 212.218 422.994 211.903 424.145C211.763 424.656 211.39 425.076 211.084 425.044C210.563 424.974 209.848 423.962 208.644 424.089C207.518 424.208 206.968 425.227 206.534 426.03C205.398 428.114 202.945 429.406 200.595 429.154C199.418 429.054 199.272 430.784 200.413 430.903C203.537 431.217 206.642 429.507 208.152 426.736C208.328 426.408 208.625 425.859 208.829 425.837C208.933 425.832 209.226 426.003 209.462 426.162C209.824 426.405 210.276 426.708 210.846 426.787C212.194 426.966 213.272 425.803 213.599 424.609C214.081 422.846 213.441 421.115 215.565 420.949C218.033 426.081 219.306 429.447 223.723 436.05C222.313 435.872 220.215 435.821 217.065 436.067C204.27 437.061 196.943 446.748 201.665 455.676C205.8 463.49 217.228 467.28 226.085 467.28C245.322 467.28 258.429 451.325 272.378 440.89C272.582 440.737 290.924 425.396 295.027 420.631L326.265 456.229C328.354 459.299 333.343 459.118 335.209 456.3L456.378 311.636C458.425 308.579 455.97 304.659 451.85 304.659ZM253.58 80.548C255.032 78.9985 256.606 77.322 258.064 75.7478L258.065 75.7454C258.228 75.5683 258.306 75.3414 258.297 75.1133L258.297 75.1107C258.164 72.1579 258.403 69.4318 259.157 66.3369C259.484 66.383 260.759 66.3489 263.837 66.3612C264.323 66.3612 264.716 65.968 264.716 65.482C264.716 64.9961 264.323 64.6029 263.837 64.6029H259.646C260.134 63.012 260.741 61.4771 261.466 60.0083C261.639 59.8593 261.812 59.7104 261.984 59.5616C268.311 59.2674 274.759 58.4603 280.416 55.6185C284.548 53.5429 288.214 50.2057 290.251 46.1205C290.663 45.2933 291.879 45.4626 291.994 46.3796C292.591 51.1347 294.354 55.904 297.445 59.2438C300.6 62.6531 304.807 65.0575 309.323 66.1221C311.896 66.7289 313.76 66.1163 315.263 68.4975C318.702 73.9482 317.452 77.0569 319.017 77.8478C319.559 78.1217 320.245 77.9345 320.707 77.5409C322.019 76.4238 322.79 72.683 322.993 70.7862C323.849 69.7396 325.244 69.0858 326.64 69.1738C330.467 69.3763 332.832 73.9254 330.656 77.9234C328.39 82.0989 322.509 83.3857 320.289 80.8562C319.837 80.3392 318.928 80.5505 318.771 81.2409C315.841 94.0582 305.398 103.175 292.165 104.468C277.684 105.895 264.017 96.8417 259.695 82.9674C259.633 82.7692 259.376 82.4681 259.112 82.3887C258.927 82.327 253.221 80.4287 253.58 80.548ZM298.16 253.88C298.534 253.152 305.967 237.708 316.46 219.281C319.716 213.565 322.788 208.331 325.829 203.316L329.811 207.356C330.128 207.679 330.649 207.686 330.977 207.373C331.305 207.06 331.32 206.54 331.011 206.208L289.355 161.491C285.149 156.994 281.612 137.761 290.599 128.026C290.754 127.872 290.892 127.717 291.007 127.584C302 115.859 323.723 118.495 329.198 124.364C371.361 169.499 372.584 170.573 375.605 174.439C384.69 186.059 387.517 199.808 382.27 213.846C379.094 222.235 376.177 224.678 364.018 246.244C357.736 257.402 352.203 267.819 347.1 278.093C343.265 285.883 312.726 289.252 299.387 263.399C299.353 263.245 299.29 263.107 299.187 263.003C297.311 259.189 296.979 256.281 298.16 253.88ZM313.65 319.325C312.695 320.906 311.611 322.377 310.168 322.435C308.841 322.484 307.743 321.224 307.38 320.008C306.941 318.531 307.198 316.834 307.426 315.337C307.465 315.078 307.371 314.838 307.207 314.659C310.35 309.245 314.073 303.083 316.467 297.81C316.668 297.369 316.472 296.848 316.03 296.647C315.587 296.442 315.067 296.642 314.867 297.084C311.55 304.384 305.486 313.712 303.029 318.53C302.46 319.647 301.921 320.702 301.165 321.586C298.344 324.883 294.679 324.399 293.572 322.196C292.822 320.703 293.47 318.755 294.136 317.044C297.455 308.53 301.683 302.813 305.965 294.619C306.19 294.189 306.024 293.657 305.594 293.433C305.165 293.205 304.632 293.375 304.407 293.805C300.185 301.884 295.97 307.602 292.591 316.178C292.349 316.391 291.078 319.635 289.034 321.361C285.597 324.26 283.602 322.723 282.4 321.313C281.642 320.426 281.341 319.072 281.574 317.6C281.79 316.223 282.4 314.921 283.116 313.483C292.393 294.849 296.086 292.441 296.482 290.956C297.199 289.971 297.938 288.974 298.724 287.946C299.02 287.561 298.946 287.009 298.56 286.714C298.178 286.42 297.623 286.492 297.328 286.878C293.347 292.081 281.665 309.476 277.306 310.214C276.024 310.433 274.552 309.738 273.739 308.527C272.293 306.371 273.128 305.036 274.857 302.671C276.278 300.811 282.183 292.006 294.048 277.904C294.184 277.864 294.318 277.837 294.455 277.796C294.894 277.664 295.143 277.201 295.012 276.762C294.88 276.322 294.418 276.07 293.977 276.204C293.814 276.253 293.654 276.291 293.491 276.337C293.331 276.337 293.176 276.377 293.036 276.462C284.721 278.754 269.676 278.575 274.738 271.598C280.358 263.863 297.851 264.392 298.029 264.376C305.842 279.228 319.842 286.257 334.307 285.257C331.072 290.603 327.706 296.149 324.329 301.713C320.712 307.672 317.094 313.632 313.65 319.325ZM271.324 439.482C259.748 448.145 248.867 460.511 234.676 464.386C222.579 467.693 207.639 463.215 203.219 454.854C199.295 447.433 205.337 438.74 217.202 437.82C223.151 437.356 225.036 438.006 225.26 438.295C225.539 438.693 226.087 438.789 226.484 438.511C226.882 438.233 226.979 437.684 226.701 437.287C226.144 436.491 225.635 435.745 225.158 435.03C229.189 434.766 233.083 432.361 235.106 428.866C235.35 428.445 235.206 427.908 234.786 427.665C234.363 427.42 233.827 427.565 233.585 427.985C231.83 431.017 228.435 433.099 224.936 433.29C224.655 433.305 224.424 433.459 224.275 433.674C222.359 430.704 221.079 428.371 219.995 426.18C220.026 426.183 220.051 426.207 220.082 426.207C220.954 426.207 227.767 423.57 233.18 418.181C233.524 417.838 233.525 417.281 233.183 416.937C232.839 416.593 232.283 416.591 231.939 416.934C228.537 420.323 224.338 422.938 219.796 424.496C219.602 424.563 219.458 424.699 219.355 424.859C218.5 423.068 218.14 422.261 217.435 420.781C235.616 411.622 251.113 400.525 265.38 384.742C273.876 396.321 288.716 413.132 293.418 418.755L293.397 418.774L293.905 419.352C291.435 422.334 273.269 438.026 271.324 439.482Z" fill="black"/>
<path d="M272.456 66.3618H276.702C277.188 66.3618 277.581 65.9686 277.581 65.4827C277.581 64.9967 277.188 64.6035 276.702 64.6035H272.456C271.971 64.6035 271.577 64.9967 271.577 65.4827C271.577 65.9686 271.971 66.3618 272.456 66.3618ZM271.443 84.577C271.986 84.8414 272.583 84.9702 273.18 84.9702C274.097 84.9702 275.014 84.6654 275.734 84.0782C276.922 83.1089 277.464 81.4604 277.084 79.9751C276.964 79.5046 276.485 79.2196 276.014 79.3415C275.544 79.4617 275.26 79.9408 275.381 80.4113C275.591 81.232 275.279 82.1799 274.623 82.7156C273.966 83.2522 272.974 83.3656 272.212 82.9955C271.775 82.7817 271.249 82.9663 271.036 83.4016C270.824 83.8386 271.006 84.3649 271.443 84.577ZM195.837 347.08L241.835 402.047L243.183 400.919L196.189 344.763C196.577 342.21 201.763 307.745 201.763 307.417H201.745L163.449 351.182C199.979 394.748 187.379 379.722 190.105 382.973C191.358 376.109 193.6 361.782 195.837 347.08ZM166.331 176.953C168.476 176.953 170.217 175.212 170.217 173.067C170.217 170.922 168.476 169.181 166.331 169.181C164.186 169.181 162.445 170.922 162.445 173.067C162.445 175.212 164.186 176.953 166.331 176.953ZM146.339 176.953C148.484 176.953 150.225 175.212 150.225 173.067C150.225 170.922 148.484 169.181 146.339 169.181C144.194 169.181 142.453 170.922 142.453 173.067C142.453 175.212 144.194 176.953 146.339 176.953ZM186.323 176.953C187.736 176.953 188.973 176.153 189.541 175.229C191.301 172.663 189.398 169.181 186.323 169.181C183.882 169.181 182.011 171.445 182.525 173.84C182.832 175.528 184.386 176.953 186.323 176.953Z" fill="black"/>
<path d="M130.15 182.255C131.933 184.383 134.603 185.743 137.6 185.743H202.236C207.58 185.743 211.994 181.426 211.994 176.003C211.994 173.004 210.633 170.334 208.503 168.561C206.958 164.629 203.133 161.834 198.66 161.834H134.015C128.181 161.834 123.435 166.581 123.435 172.415C123.435 176.884 126.224 180.706 130.15 182.255ZM134.015 163.496H198.66C203.577 163.496 207.578 167.497 207.578 172.415C207.578 177.333 203.577 181.334 198.66 181.334H134.015C129.098 181.334 125.097 177.333 125.097 172.415C125.097 167.497 129.098 163.496 134.015 163.496ZM215.565 110.801C215.565 95.0286 206.879 81.296 194.043 74.1045C203.89 81.7884 210.202 93.7627 210.202 107.231C210.202 139.465 175.419 159.513 147.623 143.963C154.762 149.554 163.747 152.877 173.506 152.877C196.733 152.877 215.565 134.046 215.565 110.801ZM73.1965 365.101C75.6118 363.788 76.4256 360.564 75.1029 358.363C73.9644 356.465 71.1438 355.638 74.3156 350.133C75.6425 347.843 77.0815 345.471 76.547 342.849C75.9858 340.085 73.2947 338.021 73.7301 335.876C73.8271 335.401 73.5197 334.936 73.0441 334.84C72.5667 334.747 72.104 335.051 72.0078 335.526C71.3715 338.655 74.3184 340.711 74.8248 343.199C75.2911 345.491 73.3247 348.336 72.7926 349.255C68.9773 355.874 72.6908 357.755 73.5953 359.269C74.3412 360.507 73.9259 362.252 72.9205 363.185C71.8108 360.878 69.0402 361.619 67.8601 361.48C67.3356 361.418 66.8548 361.095 66.8514 360.803C66.846 360.281 67.7402 359.422 67.4403 358.25C67.157 357.152 66.0675 356.757 65.2098 356.446C62.9827 355.627 61.3549 353.399 61.2518 351.027C61.2027 349.872 59.4437 349.938 59.4952 351.103C59.6275 354.164 61.7283 357.039 64.7462 358.148C65.9713 358.591 65.8517 358.644 65.5086 359.361C65.3206 359.755 65.087 360.246 65.093 360.822C65.1085 362.186 66.4221 363.079 67.6498 363.227C68.1049 363.28 68.5659 363.264 69.0261 363.242C70.6347 363.163 71.2543 363.305 71.5579 364.637C66.8131 367.846 63.7027 369.575 57.8116 374.915C57.7833 373.493 57.5249 371.41 56.8217 368.33C53.3748 353.211 39.0473 348.525 31.3475 360.029C26.6552 367.042 24.9474 379.601 29.7712 390.599C35.8805 404.527 49.8235 413.519 60.1375 423.754C60.978 424.589 82.8358 443.862 84.8931 443.862C85.1618 443.862 85.3061 443.72 85.4735 443.554C91.4885 437.603 108.808 419.82 116.61 409.154C116.631 409.126 117.077 408.498 116.459 407.87C116.05 407.005 93.4463 394.403 73.1965 365.101ZM84.6252 441.919C81.3944 439.991 63.1046 424.222 61.3755 422.506C51.0833 412.288 37.3005 403.387 31.3818 389.893C26.4795 378.718 28.3834 363.128 36.212 357.381C42.9872 352.413 52.4577 357.115 55.108 368.721C56.4353 374.539 56.0679 376.5 55.8155 376.764C55.4626 377.098 55.4463 377.654 55.7803 378.007C56.1134 378.359 56.6689 378.376 57.0226 378.042C57.3511 377.735 57.919 377.192 59.0306 376.185C59.8819 380.133 62.8294 383.635 66.5826 385.126C67.0305 385.303 67.5434 385.088 67.7245 384.633C67.9031 384.181 67.6833 383.671 67.2317 383.491C63.976 382.199 61.4201 379.145 60.7195 375.712C60.6632 375.435 60.4771 375.23 60.2426 375.113C62.8919 372.791 65.0078 371.187 67.0112 369.798C67.0183 369.917 67.047 370.037 67.1055 370.15C69.433 374.65 72.8106 378.629 76.8724 381.657C77.2623 381.948 77.8131 381.867 78.1027 381.478C78.3929 381.089 78.3122 380.538 77.9233 380.248C74.0744 377.377 70.8737 373.607 68.6663 369.341C68.5715 369.159 68.4166 369.037 68.2433 368.958C69.95 367.81 70.5627 367.425 71.9975 366.463C83.7919 383.283 97.2719 397.035 114.689 408.641C114.713 408.659 114.738 408.677 114.763 408.695C107.006 419.099 90.8205 435.763 84.6252 441.919Z" fill="black"/>
<path d="M92.8583 410.902C90.3166 413.815 92.5397 418.429 96.4608 418.163C100.348 417.9 101.976 413.036 99.0476 410.481C97.2232 408.891 94.4466 409.079 92.8583 410.902ZM96.3414 416.409C94.0197 416.576 92.6484 413.82 94.1822 412.058C95.1352 410.967 96.7973 410.852 97.892 411.805C99.6611 413.352 98.6576 416.253 96.3414 416.409ZM264.933 400.458C261.853 403.087 263.705 408.18 267.784 408.18C271.524 408.18 273.535 403.781 271.118 400.946C269.548 399.106 266.774 398.889 264.933 400.458ZM269.487 405.794C267.704 407.32 264.979 405.901 265.16 403.588C265.347 401.24 268.275 400.326 269.78 402.088C270.72 403.189 270.597 404.847 269.487 405.794Z" fill="black"/>
</g>
<defs>
<clipPath id="clip0_4409_27806">
<rect width="484" height="484" fill="white"/>
</clipPath>
</defs>
</svg>
