<svg width="588" height="537" viewBox="0 0 588 537" fill="none" xmlns="http://www.w3.org/2000/svg">
<g clip-path="url(#clip0_13727_31340)">
<g clip-path="url(#clip1_13727_31340)">
<g opacity="0.14">
<path opacity="0.26" d="M591.586 -160.117V164.865L419.642 261.008L300.357 327.467L181.301 261.008L9.58594 164.865V-160.117L300.357 -322.719L408.881 -262.242V-92.5511L300.357 -153.028L161.382 -75.2719V80.241L243.348 126.097L300.357 157.997L357.366 126.097L439.79 80.241V-29.194H439.561V-395.602L591.357 -476.238V-160.339L591.586 -160.117Z" fill="#0D257B"/>
<path d="M523.486 864.954L286.869 733.147L286.611 577.604L286.606 469.795L383.285 416.049L522.935 338.649L759.552 470.455L760 733.497L671.949 782.53L548.399 713.707L636.45 664.674L636.206 538.936L522.979 475.863L456.345 512.823L409.995 538.528L410.098 590.109L410.053 664.577L489.732 708.961L489.825 708.806L756.603 857.414L753.743 993.011L523.74 864.888L523.486 864.954Z" fill="#CC922F"/>
</g>
<g clip-path="url(#clip2_13727_31340)">
<path d="M428.986 269.764V357.964L350.086 402.064L320.686 385.664V339.564L350.086 355.964L387.786 334.964V292.764L365.586 280.264L350.086 271.664L334.686 280.264L312.286 292.764V322.464H312.386V421.764L312.286 421.864V471.664L265.686 497.764L233.286 515.764L200.986 497.764L154.486 471.664V383.464L233.286 339.364L262.786 355.764V401.864L233.286 385.464L195.586 406.464V448.664L217.886 461.164L233.286 469.764L248.786 461.164L271.186 448.664V418.964H271.086V319.664V319.564V269.764L317.786 243.664L350.086 225.664L382.386 243.664L428.986 269.764Z" fill="#283375"/>
<path d="M262.886 444.664V410.564L233.286 393.464L203.786 410.564V444.664L233.286 461.764L262.886 444.664Z" fill="#FFEDEF"/>
<mask id="mask0_13727_31340" style="mask-type:alpha" maskUnits="userSpaceOnUse" x="203" y="393" width="60" height="69">
<path d="M262.887 444.664V410.564L233.287 393.464L203.787 410.564V444.664L233.287 461.764L262.887 444.664Z" fill="#283375"/>
</mask>
<g mask="url(#mask0_13727_31340)">
<g clip-path="url(#clip3_13727_31340)">
<mask id="mask1_13727_31340" style="mask-type:luminance" maskUnits="userSpaceOnUse" x="220" y="417" width="28" height="43">
<path d="M247.57 417.286H220.878V459.994H247.57V417.286Z" fill="white"/>
</mask>
<g mask="url(#mask1_13727_31340)">
<path d="M241.435 459.928C239.514 457.258 238.01 452.098 237.832 449.517L228.69 445.58L224.886 459.928H241.435Z" fill="#F9C9B6" stroke="black" stroke-width="0.533844"/>
<mask id="mask2_13727_31340" style="mask-type:alpha" maskUnits="userSpaceOnUse" x="224" y="445" width="18" height="17">
<path d="M241.434 461.262C239.512 458.593 238.008 452.097 237.83 449.517L228.688 445.58L224.885 461.262H241.434Z" fill="#F9C9B6"/>
</mask>
<g mask="url(#mask2_13727_31340)">
<g style="mix-blend-mode:multiply">
<path d="M237.43 452.519C241.779 452.519 245.305 449.293 245.305 445.312C245.305 441.332 241.779 438.105 237.43 438.105C233.082 438.105 229.556 441.332 229.556 445.312C229.556 449.293 233.082 452.519 237.43 452.519Z" fill="black"/>
</g>
</g>
<path fill-rule="evenodd" clip-rule="evenodd" d="M245.422 437.428C245.419 437.413 245.415 437.397 245.411 437.382C245.408 437.366 245.404 437.351 245.4 437.336L243.212 428.202C243.21 428.193 243.207 428.184 243.205 428.175C243.203 428.166 243.201 428.157 243.199 428.148L243.189 428.107L243.189 428.107C241.825 422.576 236.25 419.175 230.701 420.504C225.153 421.834 221.724 427.392 223.015 432.941L223.014 432.941L225.282 442.406L225.284 442.405C226.699 447.864 232.233 451.206 237.741 449.886C243.248 448.567 246.668 443.08 245.455 437.572L245.457 437.572L245.422 437.428Z" fill="#F9C9B6"/>
<mask id="mask3_13727_31340" style="mask-type:luminance" maskUnits="userSpaceOnUse" x="222" y="420" width="24" height="31">
<path fill-rule="evenodd" clip-rule="evenodd" d="M245.425 437.428C245.422 437.413 245.418 437.397 245.414 437.382C245.411 437.366 245.407 437.351 245.403 437.335L243.215 428.202C243.213 428.193 243.21 428.184 243.208 428.175C243.206 428.166 243.204 428.157 243.202 428.148L243.192 428.107L243.192 428.107C241.828 422.576 236.253 419.175 230.704 420.504C225.155 421.834 221.727 427.392 223.017 432.941L223.017 432.941L225.285 442.406L225.287 442.405C226.702 447.864 232.236 451.206 237.744 449.886C243.251 448.567 246.671 443.08 245.458 437.572L245.46 437.572L245.425 437.428Z" fill="white"/>
</mask>
<g mask="url(#mask3_13727_31340)">
<path d="M245.426 437.429L244.906 437.551L244.907 437.552L244.907 437.553L245.426 437.429ZM245.404 437.336L244.885 437.46L244.885 437.461L244.885 437.462L245.404 437.336ZM243.215 428.202L242.696 428.325L242.696 428.326L242.696 428.326L243.215 428.202ZM243.203 428.148L242.683 428.272L242.684 428.273L242.684 428.274L243.203 428.148ZM243.193 428.107L243.712 427.983L243.588 427.465L243.069 427.588L243.193 428.107ZM243.193 428.107L242.674 428.235L242.801 428.749L243.316 428.627L243.193 428.107ZM223.018 432.941L223.143 433.46L223.658 433.336L223.538 432.82L223.018 432.941ZM223.018 432.941L222.893 432.422L222.375 432.547L222.499 433.065L223.018 432.941ZM225.286 442.406L224.767 442.53L224.891 443.049L225.41 442.925L225.286 442.406ZM225.288 442.405L225.804 442.271L225.673 441.764L225.163 441.886L225.288 442.405ZM245.459 437.573L245.334 437.053L244.825 437.175L244.937 437.687L245.459 437.573ZM245.46 437.572L245.585 438.091L246.104 437.967L245.98 437.448L245.46 437.572ZM245.946 437.307C245.942 437.29 245.938 437.274 245.934 437.258L244.896 437.507C244.899 437.521 244.903 437.536 244.906 437.551L245.946 437.307ZM245.934 437.258C245.93 437.241 245.926 437.225 245.922 437.209L244.885 437.462C244.889 437.477 244.892 437.492 244.896 437.507L245.934 437.258ZM242.696 428.326L244.885 437.46L245.923 437.211L243.735 428.078L242.696 428.326ZM243.735 428.079C243.733 428.07 243.73 428.06 243.728 428.051L242.69 428.299C242.692 428.308 242.694 428.316 242.696 428.325L243.735 428.079ZM243.728 428.051C243.726 428.041 243.724 428.032 243.721 428.022L242.684 428.274C242.686 428.282 242.688 428.291 242.69 428.299L243.728 428.051ZM242.674 428.232L242.683 428.272L243.722 428.024L243.712 427.983L242.674 428.232ZM243.316 428.627L243.316 428.627L243.069 427.588L243.069 427.588L243.316 428.627ZM243.711 427.98C242.277 422.164 236.415 418.587 230.58 419.985L230.829 421.024C236.092 419.763 241.381 422.989 242.674 428.235L243.711 427.98ZM230.58 419.985C224.746 421.383 221.141 427.228 222.498 433.062L223.538 432.82C222.314 427.557 225.566 422.285 230.829 421.024L230.58 419.985ZM223.143 433.46L223.143 433.46L222.893 432.422L222.893 432.422L223.143 433.46ZM225.805 442.281L223.537 432.817L222.499 433.065L224.767 442.53L225.805 442.281ZM225.163 441.886L225.161 441.887L225.41 442.925L225.412 442.925L225.163 441.886ZM224.771 442.539C226.259 448.28 232.078 451.793 237.869 450.406L237.62 449.367C232.396 450.619 227.146 447.449 225.804 442.271L224.771 442.539ZM237.869 450.406C243.66 449.018 247.255 443.249 245.98 437.458L244.937 437.687C246.087 442.911 242.844 448.116 237.62 449.367L237.869 450.406ZM245.336 437.053L245.334 437.053L245.583 438.092L245.585 438.091L245.336 437.053ZM244.907 437.553L244.941 437.697L245.98 437.448L245.945 437.304L244.907 437.553Z" fill="black"/>
</g>
</g>
<path d="M241.27 442.001C241.412 441.486 241.462 440.951 241.418 440.42C241.396 440.144 241.114 439.99 240.875 440.084C240.31 440.307 238.443 441.014 237.127 441.195C235.682 441.394 233.495 441.153 232.862 441.074C232.604 441.042 232.375 441.263 232.419 441.532C232.506 442.058 232.685 442.566 232.949 443.03C233.243 443.549 233.636 444.004 234.106 444.371C234.576 444.737 235.113 445.007 235.687 445.166C236.262 445.325 236.862 445.369 237.453 445.296C238.045 445.223 238.616 445.034 239.134 444.74C239.653 444.446 240.108 444.053 240.474 443.583C240.841 443.113 241.111 442.575 241.27 442.001Z" fill="#171921" stroke="#171921" stroke-width="0.533844"/>
<mask id="mask4_13727_31340" style="mask-type:alpha" maskUnits="userSpaceOnUse" x="232" y="440" width="10" height="6">
<path d="M241.14 440.266C241.209 440.823 241.168 441.388 241.018 441.928C240.869 442.469 240.615 442.975 240.27 443.417C239.925 443.859 239.496 444.229 239.008 444.506C238.521 444.783 237.983 444.96 237.426 445.029C236.87 445.098 236.305 445.057 235.764 444.907C235.224 444.758 234.718 444.504 234.276 444.159C233.833 443.814 233.463 443.385 233.187 442.897C232.91 442.409 232.732 441.872 232.664 441.315L241.14 440.266Z" fill="#171921"/>
</mask>
<g mask="url(#mask4_13727_31340)">
<path d="M237.852 448.469C239.424 448.275 240.542 446.842 240.347 445.269C240.152 443.697 238.72 442.579 237.147 442.774C235.574 442.968 234.457 444.401 234.652 445.974C234.846 447.547 236.279 448.664 237.852 448.469Z" fill="#FC909F"/>
</g>
<path d="M231.366 434.395C232.246 434.298 232.88 433.507 232.783 432.628C232.687 431.749 231.895 431.114 231.016 431.211C230.137 431.308 229.503 432.099 229.599 432.978C229.696 433.857 230.487 434.491 231.366 434.395Z" fill="#D2EFF3"/>
<path d="M231.581 435.815C232.24 435.737 232.678 434.872 232.561 433.884C232.444 432.896 231.814 432.158 231.156 432.237C230.497 432.315 230.058 433.179 230.175 434.168C230.293 435.156 230.922 435.893 231.581 435.815Z" fill="black"/>
<path d="M239.883 433.244C240.762 433.147 241.396 432.356 241.299 431.477C241.203 430.597 240.412 429.963 239.532 430.06C238.653 430.156 238.019 430.947 238.115 431.827C238.212 432.706 239.003 433.34 239.883 433.244Z" fill="#D2EFF3"/>
<path d="M240.105 434.482C240.764 434.409 241.211 433.549 241.102 432.56C240.993 431.571 240.37 430.827 239.711 430.9C239.052 430.973 238.605 431.833 238.714 432.822C238.823 433.811 239.446 434.554 240.105 434.482Z" fill="black"/>
<path d="M238.096 429.193C238.852 428.837 240.631 428.512 241.699 430.06" stroke="black" stroke-width="0.533844" stroke-linecap="round"/>
<path d="M228.03 432.57C228.306 431.782 229.322 430.285 231.174 430.609" stroke="black" stroke-width="0.533844" stroke-linecap="round"/>
<path d="M228.364 431.762L227.543 431.037" stroke="black" stroke-width="0.533844" stroke-linecap="round"/>
<path d="M241.292 429.318L242.113 428.594" stroke="black" stroke-width="0.533844" stroke-linecap="round"/>
<path d="M229.222 431.009L228.682 430.057" stroke="black" stroke-width="0.533844" stroke-linecap="round"/>
<path d="M240.298 428.832L240.838 427.88" stroke="black" stroke-width="0.533844" stroke-linecap="round"/>
<path d="M230.302 430.526L230.008 429.472" stroke="black" stroke-width="0.533844" stroke-linecap="round"/>
<path d="M239.086 428.751L239.38 427.697" stroke="black" stroke-width="0.533844" stroke-linecap="round"/>
<path d="M230.882 427.528C230.777 427.295 230.777 427.295 230.777 427.295L230.777 427.295L230.776 427.296L230.772 427.297L230.769 427.299C230.766 427.3 230.764 427.302 230.76 427.303C230.75 427.308 230.735 427.315 230.716 427.324C230.677 427.342 230.621 427.37 230.551 427.406C230.409 427.477 230.208 427.584 229.966 427.725C229.483 428.005 228.837 428.423 228.185 428.97C226.888 430.058 225.526 431.693 225.444 433.815C225.409 434.727 225.295 439.137 225.32 440.822C225.342 442.241 226.076 443.765 227.095 445.17C227.982 446.394 229.103 447.552 230.214 448.506C225.174 448.705 221.356 448.044 218.775 447.32C217.429 446.943 216.42 446.548 215.749 446.249C215.484 446.131 215.272 446.027 215.112 445.946C216.326 445.054 217.339 443.525 218.007 441.255C218.739 438.766 219.064 435.366 218.779 430.883C218.521 426.821 220.495 423.389 223.478 420.963C226.464 418.534 230.444 417.13 234.139 417.13C236.138 417.13 237.761 417.522 239.069 418.471C240.377 419.421 241.403 420.954 242.163 423.299L242.216 423.461L242.386 423.474C244.038 423.6 245.2 424.28 246.056 425.371C246.922 426.474 247.485 428.008 247.898 429.852C248.171 431.066 247.905 432.264 247.587 433.644L247.572 433.709C247.26 435.059 246.913 436.561 247.066 438.318C247.203 439.898 247.834 441.45 248.358 442.643C248.426 442.796 248.491 442.943 248.553 443.082C248.737 443.494 248.894 443.847 248.999 444.135C249.07 444.328 249.111 444.473 249.124 444.577C249.131 444.63 249.129 444.657 249.127 444.669C249.068 444.724 248.958 444.784 248.782 444.838C248.599 444.894 248.369 444.935 248.105 444.961C247.576 445.012 246.938 445 246.325 444.941C245.71 444.882 245.136 444.777 244.734 444.649C244.529 444.584 244.388 444.519 244.308 444.463C244.296 444.454 244.287 444.447 244.28 444.441C244.329 444.269 244.401 444.064 244.484 443.827C244.91 442.609 245.631 440.551 245.165 437.839C244.886 436.217 244.142 433.352 243.471 430.903C243.135 429.676 242.816 428.55 242.581 427.731C242.464 427.322 242.367 426.989 242.3 426.758C242.267 426.643 242.241 426.553 242.223 426.492C242.214 426.461 242.207 426.438 242.202 426.423L242.197 426.405L242.196 426.4L242.196 426.399L242.196 426.399C242.196 426.399 242.196 426.399 241.951 426.471L242.196 426.399L242.072 425.977L241.767 426.294L241.767 426.294L241.766 426.294L241.764 426.297C241.761 426.3 241.758 426.304 241.752 426.309C241.742 426.319 241.726 426.335 241.705 426.357C241.662 426.399 241.597 426.461 241.512 426.541C241.34 426.701 241.085 426.93 240.751 427.204C240.083 427.752 239.102 428.478 237.853 429.188C235.475 430.539 232.134 431.827 228.134 431.728C229.417 430.536 230.155 429.556 230.578 428.846C230.814 428.451 230.952 428.139 231.031 427.923C231.071 427.814 231.096 427.729 231.112 427.67C231.119 427.64 231.125 427.616 231.128 427.599C231.13 427.591 231.131 427.584 231.132 427.578C231.133 427.576 231.133 427.574 231.133 427.572L231.134 427.569L231.134 427.568L231.134 427.568C231.134 427.568 231.134 427.567 230.882 427.528ZM230.882 427.528L230.777 427.295L231.208 427.101L231.134 427.567L230.882 427.528ZM230.631 427.486C230.631 427.486 230.631 427.486 230.63 427.487L230.63 427.487L230.631 427.486ZM244.259 444.42C244.259 444.42 244.261 444.422 244.263 444.425C244.26 444.421 244.259 444.42 244.259 444.42Z" fill="#D2EFF3"/>
<path d="M230.882 427.528C230.777 427.295 230.777 427.295 230.777 427.295L230.777 427.295L230.776 427.296L230.772 427.297L230.769 427.299C230.766 427.3 230.764 427.302 230.76 427.303C230.75 427.308 230.735 427.315 230.716 427.324C230.677 427.342 230.621 427.37 230.551 427.406C230.409 427.477 230.208 427.584 229.966 427.725C229.483 428.005 228.837 428.423 228.185 428.97C226.888 430.058 225.526 431.693 225.444 433.815C225.409 434.727 225.295 439.137 225.32 440.822C225.342 442.241 226.076 443.765 227.095 445.17C227.982 446.394 229.103 447.552 230.214 448.506C225.174 448.705 221.356 448.044 218.775 447.32C217.429 446.943 216.42 446.548 215.749 446.249C215.484 446.131 215.272 446.027 215.112 445.946C216.326 445.054 217.339 443.525 218.007 441.255C218.739 438.766 219.064 435.366 218.779 430.883C218.521 426.821 220.495 423.389 223.478 420.963C226.464 418.534 230.444 417.13 234.139 417.13C236.138 417.13 237.761 417.522 239.069 418.471C240.377 419.421 241.403 420.954 242.163 423.299L242.216 423.461L242.386 423.474C244.038 423.6 245.2 424.28 246.056 425.371C246.922 426.474 247.485 428.008 247.898 429.852C248.171 431.066 247.905 432.264 247.587 433.644L247.572 433.709C247.26 435.059 246.913 436.561 247.066 438.318C247.203 439.898 247.834 441.45 248.358 442.643C248.426 442.796 248.491 442.943 248.553 443.082C248.737 443.494 248.894 443.847 248.999 444.135C249.07 444.328 249.111 444.473 249.124 444.577C249.131 444.63 249.129 444.657 249.127 444.669C249.068 444.724 248.958 444.784 248.782 444.838C248.599 444.894 248.369 444.935 248.105 444.961C247.576 445.012 246.938 445 246.325 444.941C245.71 444.882 245.136 444.777 244.734 444.649C244.529 444.584 244.388 444.519 244.308 444.463C244.296 444.454 244.287 444.447 244.28 444.441C244.329 444.269 244.401 444.064 244.484 443.827C244.91 442.609 245.631 440.551 245.165 437.839C244.886 436.217 244.142 433.352 243.471 430.903C243.135 429.676 242.816 428.55 242.581 427.731C242.464 427.322 242.367 426.989 242.3 426.758C242.267 426.643 242.241 426.553 242.223 426.492C242.214 426.461 242.207 426.438 242.202 426.423L242.197 426.405L242.196 426.4L242.196 426.399L242.196 426.399C242.196 426.399 242.196 426.399 241.951 426.471L242.196 426.399L242.072 425.977L241.767 426.294L241.767 426.294L241.766 426.294L241.764 426.297C241.761 426.3 241.758 426.304 241.752 426.309C241.742 426.319 241.726 426.335 241.705 426.357C241.662 426.399 241.597 426.461 241.512 426.541C241.34 426.701 241.085 426.93 240.751 427.204C240.083 427.752 239.102 428.478 237.853 429.188C235.475 430.539 232.134 431.827 228.134 431.728C229.417 430.536 230.155 429.556 230.578 428.846C230.814 428.451 230.952 428.139 231.031 427.923C231.071 427.814 231.096 427.729 231.112 427.67C231.119 427.64 231.125 427.616 231.128 427.599C231.13 427.591 231.131 427.584 231.132 427.578C231.133 427.576 231.133 427.574 231.133 427.572L231.134 427.569L231.134 427.568L231.134 427.568C231.134 427.568 231.134 427.567 230.882 427.528ZM230.882 427.528L230.777 427.295L231.208 427.101L231.134 427.567L230.882 427.528ZM230.631 427.486C230.631 427.486 230.631 427.486 230.63 427.487L230.63 427.487L230.631 427.486ZM244.259 444.42C244.259 444.42 244.261 444.422 244.263 444.425C244.26 444.421 244.259 444.42 244.259 444.42Z" stroke="black" stroke-width="0.510067"/>
<path d="M242.231 423.426C242.298 424.026 242.191 425.227 242.031 426.028" stroke="black" stroke-width="0.533844"/>
<path d="M236.064 434.633C236.091 435.145 236.29 436.245 236.871 436.541C237.597 436.91 237.028 438.136 235.669 438.057" stroke="black" stroke-width="0.533844"/>
<path d="M226.279 440.524L226.35 440.447V440.342V435.871V435.722L226.223 435.643C225.725 435.338 225.119 435.17 224.492 435.17C223.74 435.17 223.035 435.403 222.533 435.877C222.025 436.356 221.751 437.056 221.824 437.928C221.895 438.779 222.18 439.405 222.654 439.821C222.615 439.954 222.604 440.098 222.622 440.249C222.674 440.685 222.894 440.999 223.235 441.193C223.56 441.378 223.975 441.443 224.418 441.443C225.149 441.443 225.791 441.05 226.279 440.524Z" stroke="black" stroke-width="0.533844"/>
<path fill-rule="evenodd" clip-rule="evenodd" d="M227.146 437.971C227.155 437.884 227.16 437.795 227.16 437.706C227.16 436.342 225.892 435.437 224.491 435.437C223.091 435.437 221.955 436.304 222.089 437.906C222.163 438.797 222.482 439.384 222.976 439.737C222.898 439.873 222.864 440.034 222.885 440.217C222.969 440.922 223.571 441.176 224.417 441.176C225.899 441.176 227.072 439.301 227.146 437.971Z" fill="#F9C9B6"/>
<path d="M225.084 436.572C224.55 436.328 223.375 436.199 222.948 437.64" stroke="black" stroke-width="0.533844"/>
<path d="M223.68 436.638C223.969 436.883 224.521 437.639 224.414 438.707" stroke="black" stroke-width="0.533844"/>
<path d="M224.214 440.909C224.509 440.909 224.748 440.67 224.748 440.376C224.748 440.081 224.509 439.842 224.214 439.842C223.919 439.842 223.68 440.081 223.68 440.376C223.68 440.67 223.919 440.909 224.214 440.909Z" fill="white"/>
<path d="M224.349 440.375C224.423 440.375 224.482 440.316 224.482 440.242C224.482 440.168 224.423 440.108 224.349 440.108C224.275 440.108 224.215 440.168 224.215 440.242C224.215 440.316 224.275 440.375 224.349 440.375Z" fill="#FFEDEF"/>
<path d="M234.192 459.537C234.192 459.537 234.192 459.537 234.356 459.327L234.192 459.537L234.422 459.716L234.58 459.472L234.581 459.471L234.582 459.47C234.583 459.468 234.585 459.465 234.587 459.461C234.59 459.458 234.592 459.454 234.595 459.449C234.599 459.443 234.604 459.436 234.61 459.427C234.63 459.397 234.66 459.353 234.699 459.296C234.778 459.183 234.893 459.02 235.039 458.826C235.332 458.437 235.747 457.923 236.234 457.421C236.724 456.917 237.279 456.433 237.853 456.096C238.429 455.758 238.998 455.583 239.526 455.654C245.19 456.418 249.358 458.927 252.063 462.663H215.588C217.764 458.748 220.858 456.255 225.874 455.111C226.088 455.062 226.379 455.077 226.742 455.162C227.102 455.246 227.512 455.392 227.954 455.587C228.838 455.975 229.826 456.542 230.754 457.13C231.68 457.716 232.54 458.318 233.169 458.774C233.483 459.002 233.74 459.193 233.917 459.327C234.006 459.394 234.075 459.447 234.122 459.483C234.131 459.49 234.139 459.497 234.147 459.502C234.158 459.511 234.168 459.518 234.175 459.524C234.181 459.528 234.185 459.532 234.188 459.534L234.191 459.537L234.192 459.537H234.192Z" fill="#9287FF"/>
<path d="M234.192 459.537C234.192 459.537 234.192 459.537 234.356 459.327L234.192 459.537ZM234.192 459.537L234.422 459.716L234.58 459.472L234.581 459.471L234.582 459.47C234.583 459.468 234.585 459.465 234.587 459.461C234.59 459.458 234.592 459.454 234.595 459.449C234.599 459.443 234.604 459.436 234.61 459.427C234.63 459.397 234.66 459.353 234.699 459.296C234.778 459.183 234.893 459.02 235.039 458.826C235.332 458.437 235.747 457.923 236.234 457.421C236.724 456.917 237.279 456.433 237.853 456.096C238.429 455.758 238.998 455.583 239.526 455.654C245.19 456.418 249.358 458.927 252.063 462.663H215.588C217.764 458.748 220.858 456.255 225.874 455.111C226.088 455.062 226.379 455.077 226.742 455.162C227.102 455.246 227.512 455.392 227.954 455.587C228.838 455.975 229.826 456.542 230.754 457.13C231.68 457.716 232.54 458.318 233.169 458.774C233.483 459.002 233.74 459.193 233.917 459.327C234.006 459.394 234.075 459.447 234.122 459.483C234.131 459.49 234.139 459.497 234.147 459.502C234.158 459.511 234.168 459.518 234.175 459.524C234.181 459.528 234.185 459.532 234.188 459.534L234.191 459.537L234.192 459.537H234.192Z" stroke="black" stroke-width="0.533844"/>
<path d="M224.299 455.467L224.989 452.901C225.016 452.797 225.151 452.767 225.224 452.847C227.207 455.018 229.71 454.933 230.541 454.833C230.654 454.819 230.742 454.943 230.689 455.043L228.933 458.373C228.907 458.424 228.851 458.453 228.795 458.441C228.268 458.331 225.642 457.689 224.314 455.572C224.295 455.541 224.289 455.503 224.299 455.467Z" fill="#E0DDFF" stroke="black" stroke-width="0.533844"/>
<path d="M241.725 455.454L240.179 452.854C240.127 452.765 239.998 452.767 239.942 452.853C239.176 454.032 237.855 454.575 237.394 454.736C237.311 454.765 237.273 454.863 237.317 454.939L239.119 457.984C239.146 458.029 239.197 458.054 239.248 458.04C239.533 457.958 240.51 457.55 241.723 455.592C241.749 455.55 241.75 455.496 241.725 455.454Z" fill="#E0DDFF" stroke="black" stroke-width="0.533844"/>
<path d="M231.891 457.792L230.69 454.923L229.756 456.925L231.891 457.792Z" fill="black" stroke="black" stroke-width="0.533844" stroke-linejoin="round"/>
<path d="M236.094 457.659L237.295 454.789L238.229 456.791L236.094 457.659Z" fill="black" stroke="black" stroke-width="0.533844" stroke-linejoin="round"/>
<path d="M226.683 452.387L225.082 452.788L226.416 453.655L226.683 452.387Z" fill="black" stroke="black" stroke-width="0.533844" stroke-linejoin="round"/>
<path d="M238.631 452.387L240.099 452.788L239.165 453.655L238.631 452.387Z" fill="black" stroke="black" stroke-width="0.533844" stroke-linejoin="round"/>
</g>
</g>
<path d="M379.486 330.664V296.664L350.086 279.664L320.686 296.664V330.664L350.086 347.664L379.486 330.664Z" fill="#E0DDFF"/>
<mask id="mask5_13727_31340" style="mask-type:alpha" maskUnits="userSpaceOnUse" x="320" y="279" width="60" height="69">
<path d="M379.485 330.664V296.664L350.085 279.664L320.685 296.664V330.664L350.085 347.664L379.485 330.664Z" fill="#283375"/>
</mask>
<g mask="url(#mask5_13727_31340)">
<g clip-path="url(#clip4_13727_31340)">
<path d="M340.708 346.542C342.852 343.564 344.53 336.316 344.729 333.436L354.931 329.043L359.175 346.542H340.708Z" fill="#FC909F" stroke="black" stroke-width="0.595727"/>
<mask id="mask6_13727_31340" style="mask-type:alpha" maskUnits="userSpaceOnUse" x="340" y="329" width="20" height="18">
<path d="M340.713 346.543C342.858 343.565 344.536 336.317 344.734 333.437L354.936 329.044L359.181 346.543H340.713Z" fill="#FFEDEF"/>
</mask>
<g mask="url(#mask6_13727_31340)">
<path d="M345.173 336.793C340.32 336.793 336.386 333.193 336.386 328.751C336.386 324.309 340.32 320.709 345.173 320.709C350.026 320.709 353.96 324.309 353.96 328.751C353.96 333.193 350.026 336.793 345.173 336.793Z" fill="black"/>
</g>
<mask id="mask7_13727_31340" style="mask-type:luminance" maskUnits="userSpaceOnUse" x="333" y="297" width="31" height="49">
<path d="M333.854 297.474H363.641V345.132H333.854V297.474Z" fill="white"/>
</mask>
<g mask="url(#mask7_13727_31340)">
<path d="M340.703 345.058C342.848 342.079 344.526 336.32 344.724 333.441L354.926 329.047L359.171 345.058H340.703Z" fill="#77311D" stroke="black" stroke-width="0.595727"/>
<mask id="mask8_13727_31340" style="mask-type:alpha" maskUnits="userSpaceOnUse" x="340" y="329" width="20" height="18">
<path d="M340.704 346.546C342.848 343.568 344.526 336.32 344.725 333.44L354.927 329.047L359.171 346.546H340.704Z" fill="#AC6651"/>
</mask>
<g mask="url(#mask8_13727_31340)">
<g style="mix-blend-mode:multiply">
<path d="M345.17 336.793C340.317 336.793 336.383 333.192 336.383 328.75C336.383 324.309 340.317 320.708 345.17 320.708C350.023 320.708 353.957 324.309 353.957 328.75C353.957 333.192 350.023 336.793 345.17 336.793Z" fill="black"/>
</g>
</g>
<path fill-rule="evenodd" clip-rule="evenodd" d="M336.251 319.95C336.255 319.933 336.259 319.916 336.264 319.898C336.268 319.881 336.272 319.864 336.276 319.847L338.718 309.654C338.721 309.644 338.723 309.634 338.725 309.624C338.728 309.614 338.73 309.604 338.733 309.594L338.743 309.549L338.744 309.549C340.265 303.376 346.487 299.581 352.679 301.064C358.871 302.548 362.697 308.751 361.257 314.943L361.257 314.943L358.726 325.505L358.724 325.504C357.145 331.596 350.969 335.325 344.823 333.852C338.677 332.38 334.862 326.257 336.215 320.111L336.213 320.11L336.251 319.95Z" fill="#77311D"/>
<mask id="mask9_13727_31340" style="mask-type:luminance" maskUnits="userSpaceOnUse" x="335" y="300" width="27" height="35">
<path fill-rule="evenodd" clip-rule="evenodd" d="M336.249 319.95C336.253 319.932 336.257 319.915 336.261 319.898C336.265 319.881 336.269 319.863 336.274 319.846L338.716 309.654C338.718 309.643 338.72 309.633 338.723 309.623C338.725 309.613 338.728 309.603 338.73 309.593L338.741 309.548L338.741 309.548C340.263 303.375 346.485 299.58 352.677 301.064C358.868 302.547 362.695 308.75 361.254 314.942L361.255 314.942L358.724 325.504L358.722 325.503C357.143 331.595 350.967 335.324 344.821 333.852C338.675 332.379 334.859 326.256 336.212 320.11L336.21 320.11L336.249 319.95Z" fill="white"/>
</mask>
<g mask="url(#mask9_13727_31340)">
<path d="M336.25 319.95L336.83 320.086L336.829 320.088L336.829 320.089L336.25 319.95ZM336.275 319.846L336.854 319.985L336.854 319.986L336.853 319.988L336.275 319.846ZM338.717 309.654L339.296 309.791L339.296 309.792L339.296 309.793L338.717 309.654ZM338.731 309.594L339.31 309.732L339.31 309.733L339.31 309.734L338.731 309.594ZM338.742 309.548L338.163 309.409L338.301 308.831L338.88 308.969L338.742 309.548ZM338.742 309.548L339.32 309.691L339.179 310.265L338.604 310.128L338.742 309.548ZM361.255 314.942L361.116 315.521L360.541 315.383L360.675 314.807L361.255 314.942ZM361.255 314.942L361.395 314.363L361.973 314.502L361.835 315.081L361.255 314.942ZM358.725 325.504L359.304 325.643L359.165 326.222L358.586 326.084L358.725 325.504ZM358.723 325.504L358.146 325.354L358.293 324.788L358.861 324.924L358.723 325.504ZM336.213 320.111L336.352 319.531L336.921 319.668L336.795 320.239L336.213 320.111ZM336.211 320.11L336.073 320.69L335.493 320.551L335.632 319.971L336.211 320.11ZM335.67 319.814C335.674 319.796 335.678 319.778 335.683 319.759L336.841 320.037C336.837 320.053 336.834 320.07 336.83 320.086L335.67 319.814ZM335.683 319.759C335.687 319.741 335.691 319.723 335.696 319.705L336.853 319.988C336.849 320.004 336.845 320.021 336.841 320.037L335.683 319.759ZM339.296 309.793L336.854 319.985L335.695 319.708L338.137 309.515L339.296 309.793ZM338.137 309.517C338.139 309.506 338.142 309.495 338.144 309.485L339.303 309.763C339.301 309.772 339.299 309.782 339.296 309.791L338.137 309.517ZM338.144 309.485C338.147 309.474 338.149 309.464 338.152 309.453L339.31 309.734C339.308 309.743 339.305 309.753 339.303 309.763L338.144 309.485ZM339.321 309.687L339.31 309.732L338.152 309.455L338.163 309.409L339.321 309.687ZM338.604 310.128L338.604 310.128L338.88 308.969L338.88 308.969L338.604 310.128ZM338.164 309.406C339.764 302.915 346.306 298.925 352.816 300.485L352.539 301.643C346.666 300.236 340.764 303.836 339.32 309.691L338.164 309.406ZM352.816 300.485C359.327 302.045 363.35 308.567 361.835 315.077L360.675 314.807C362.041 308.934 358.412 303.05 352.539 301.643L352.816 300.485ZM361.116 315.521L361.116 315.521L361.395 314.363L361.395 314.363L361.116 315.521ZM358.145 325.365L360.676 314.803L361.835 315.081L359.304 325.643L358.145 325.365ZM358.861 324.924L358.863 324.925L358.586 326.084L358.584 326.083L358.861 324.924ZM359.299 325.653C357.639 332.059 351.145 335.98 344.683 334.431L344.961 333.273C350.79 334.669 356.648 331.133 358.146 325.354L359.299 325.653ZM344.683 334.431C338.22 332.883 334.209 326.445 335.631 319.983L336.795 320.239C335.512 326.068 339.131 331.876 344.961 333.273L344.683 334.431ZM336.35 319.531L336.352 319.531L336.074 320.69L336.073 320.69L336.35 319.531ZM336.829 320.089L336.791 320.249L335.632 319.971L335.67 319.811L336.829 320.089Z" fill="black"/>
</g>
</g>
<path d="M348.746 324.902C348.01 325.862 346.895 326.926 345.175 326.684C343.455 326.441 342.689 325.255 342.915 324.294" stroke="black" stroke-width="0.595727"/>
<path d="M347.405 304.027C345.221 303.928 341.388 302.717 343.533 298.666" stroke="black" stroke-width="0.595727"/>
<path d="M351.277 303.729C349.093 303.63 345.26 302.418 347.405 298.367" stroke="black" stroke-width="0.595727"/>
<path d="M356.639 305.368C354.454 305.268 350.622 304.057 352.766 300.006" stroke="black" stroke-width="0.595727"/>
<path d="M344.427 310.761C343.583 310.364 341.598 310.001 340.406 311.729" stroke="#FC909F" stroke-width="0.595727" stroke-linecap="round"/>
<path d="M355.659 314.53C355.35 313.649 354.217 311.979 352.149 312.341" stroke="#FC909F" stroke-width="0.595727" stroke-linecap="round"/>
<path d="M355.286 313.626L356.202 312.818" stroke="#FC909F" stroke-width="0.595727" stroke-linecap="round"/>
<path d="M340.857 310.902L339.942 310.093" stroke="#FC909F" stroke-width="0.595727" stroke-linecap="round"/>
<path d="M354.328 312.786L354.93 311.724" stroke="#FC909F" stroke-width="0.595727" stroke-linecap="round"/>
<path d="M341.967 310.359L341.364 309.296" stroke="#FC909F" stroke-width="0.595727" stroke-linecap="round"/>
<path d="M353.125 312.248L353.453 311.072" stroke="#FC909F" stroke-width="0.595727" stroke-linecap="round"/>
<path d="M343.318 310.267L342.99 309.091" stroke="#FC909F" stroke-width="0.595727" stroke-linecap="round"/>
<path d="M351.698 318.15C350.963 318.063 350.473 317.098 350.604 315.996C350.735 314.893 351.437 314.07 352.172 314.157C352.907 314.245 353.397 315.209 353.266 316.312C353.135 317.415 352.433 318.238 351.698 318.15Z" fill="black"/>
<path d="M342.183 316.663C341.447 316.582 340.949 315.622 341.071 314.518C341.192 313.414 341.887 312.585 342.623 312.666C343.359 312.747 343.857 313.707 343.735 314.811C343.614 315.915 342.919 316.744 342.183 316.663Z" fill="black"/>
<path d="M346.693 316.831C346.663 317.403 346.44 318.63 345.792 318.96C344.982 319.373 345.617 320.74 347.133 320.653" stroke="black" stroke-width="0.595727"/>
<path d="M340.805 345.845C340.878 345.841 340.938 345.836 340.986 345.833C341.902 344.434 342.737 342.127 343.383 339.758C344.012 337.454 344.453 335.127 344.619 333.591C339.098 331.994 335.637 326.296 336.469 320.416C336.47 320.408 336.471 320.401 336.471 320.399L336.472 320.398C336.473 320.389 336.474 320.379 336.476 320.368C336.48 320.347 336.485 320.318 336.491 320.284C336.504 320.214 336.522 320.116 336.546 319.993C336.595 319.746 336.666 319.399 336.757 318.978C336.938 318.136 337.2 317 337.519 315.794C337.837 314.589 338.215 313.311 338.629 312.188C339.04 311.074 339.497 310.082 339.985 309.472L340.029 309.417L340.094 309.389C340.382 309.264 340.681 309.125 340.993 308.98C342.472 308.291 344.245 307.465 346.542 307.374C349.339 307.264 352.88 308.234 357.666 311.706L357.968 311.925L357.678 312.158C355.306 314.069 354.793 316.605 354.903 318.757C354.986 320.399 355.431 321.797 355.682 322.495C355.855 322.242 355.966 321.925 356.048 321.552C356.106 321.294 356.147 321.022 356.191 320.738L356.198 320.692C356.244 320.395 356.292 320.086 356.363 319.786C356.505 319.189 356.745 318.592 357.277 318.169C357.81 317.745 358.587 317.536 359.718 317.599L360.05 317.617L359.981 317.942L358.289 325.882L358.286 325.895L358.282 325.908C357.678 327.824 356.641 329.484 355.316 330.795C355.305 330.814 355.289 330.842 355.268 330.878C355.225 330.951 355.163 331.059 355.087 331.195C354.937 331.466 354.735 331.847 354.527 332.285C354.108 333.171 353.684 334.259 353.603 335.147C353.52 336.049 353.746 337.211 354.006 338.172C354.134 338.648 354.268 339.065 354.37 339.363C354.391 339.425 354.411 339.482 354.429 339.533C355.178 339.175 355.848 339.202 356.422 339.535C357.042 339.896 357.496 340.587 357.834 341.355C358.452 342.758 358.749 344.578 358.886 345.707C362.59 344.857 365.45 343.995 367.396 343.339C368.396 343.003 369.154 342.721 369.662 342.523C369.916 342.424 370.107 342.347 370.234 342.294C370.266 342.281 370.293 342.27 370.317 342.26C370.34 342.201 370.371 342.12 370.409 342.016C370.494 341.784 370.611 341.445 370.742 341.012C371.004 340.146 371.318 338.912 371.528 337.441C371.947 334.495 371.944 330.619 370.277 326.849C370.008 326.24 369.671 325.614 369.306 324.935C367.896 322.314 366.064 318.909 366.064 312.656C366.064 308.1 363.853 304.263 360.598 301.558C357.339 298.851 353.047 297.29 348.925 297.29C346.672 297.29 344.86 297.548 343.404 298.428C341.956 299.302 340.817 300.818 339.971 303.429C339.884 303.695 339.6 303.858 339.322 303.767C337.636 303.221 335.081 303.772 332.924 305.181C330.777 306.582 329.109 308.778 329.109 311.424C329.109 313.722 329.503 315.274 329.886 316.786C330.351 318.616 330.799 320.384 330.483 323.264C330.377 324.225 330.163 324.906 329.863 325.471C329.568 326.026 329.196 326.456 328.803 326.91L328.794 326.92C327.86 328 327.435 328.889 327.297 329.67C327.16 330.45 327.304 331.157 327.57 331.891C327.704 332.26 327.867 332.63 328.04 333.02L328.055 333.053C328.222 333.43 328.397 333.825 328.554 334.241C328.879 335.1 329.132 336.059 329.107 337.195C329.086 338.16 328.915 338.82 328.659 339.32C328.406 339.815 328.08 340.131 327.796 340.407L327.788 340.414C327.528 340.666 327.312 340.877 327.153 341.174C327.01 341.44 326.904 341.79 326.886 342.315C330.462 344.442 334.001 345.321 336.658 345.667C338.004 345.842 339.122 345.88 339.903 345.875C340.293 345.872 340.598 345.858 340.805 345.845Z" fill="#FC909F" stroke="black" stroke-width="0.569195"/>
<path d="M358.5 317.904C358.847 317.79 359.222 317.729 359.605 317.729C361.168 317.729 362.435 318.697 362.286 320.484C362.131 322.346 361.019 323.016 359.456 323.016C359.282 323.016 359.112 323.001 358.947 322.972C358.767 322.94 358.592 322.891 358.426 322.828" stroke="black" stroke-width="1.19146"/>
<path d="M358.351 322.798C358.691 322.938 359.064 323.016 359.456 323.016C361.019 323.016 362.131 322.346 362.286 320.484C362.435 318.697 361.168 317.729 359.605 317.729C359.138 317.729 358.684 317.819 358.277 317.987L358.351 322.798Z" fill="#77311D"/>
<path d="M358.948 318.995C359.543 318.722 360.854 318.578 361.331 320.186" stroke="black" stroke-width="0.595727"/>
<path d="M360.511 319.069C360.188 319.343 359.572 320.186 359.692 321.378" stroke="black" stroke-width="0.595727"/>
<path d="M359.02 322.197C357.046 322.197 355.446 323.797 355.446 325.771C355.446 327.745 357.046 329.345 359.02 329.345C360.994 329.345 362.595 327.745 362.595 325.771C362.595 324.819 362.073 324.058 361.616 323.314L361.478 323.09" stroke="#F4D150" stroke-width="0.595727"/>
<path d="M328.883 348.091H369.528C369.523 348.08 369.518 348.07 369.513 348.059C368.836 346.681 367.587 344.138 365.962 341.862C365.04 340.571 364.007 339.382 362.903 338.545C361.799 337.709 360.651 337.245 359.485 337.347C357.243 337.543 355.246 338.771 353.241 340.003C353.051 340.12 352.861 340.237 352.671 340.353C350.513 341.668 348.298 342.888 345.862 342.354C345.037 342.174 344.482 341.786 344.132 341.287C343.788 340.794 343.664 340.222 343.642 339.699C343.621 339.175 343.701 338.68 343.785 338.32C343.824 338.151 343.864 338.01 343.896 337.907C343.356 337.363 342.785 337.047 342.194 336.904C341.555 336.75 340.871 336.795 340.151 337.007C338.702 337.436 337.152 338.534 335.639 339.946C332.866 342.534 330.323 346.074 328.883 348.091Z" fill="white" stroke="black" stroke-width="0.636583"/>
</g>
</g>
<path d="M143.486 19.6641L220.186 63.0641L219.686 153.464L190.886 170.964L150.886 148.364L179.586 130.764L179.886 87.5641L143.186 66.7641L121.386 80.0641L106.186 89.2641L106.086 106.964L105.986 132.564L131.786 147.164V147.064L218.286 196.064L261.686 220.664L261.386 274.064L261.086 311.064L229.486 330.364L183.886 357.964L107.186 314.564L107.686 224.264L136.386 206.664L176.486 229.364L147.686 246.864L147.486 290.064L184.186 310.864L205.986 297.664L221.086 288.464L221.186 270.764L221.386 245.164L195.586 230.564H195.486L108.986 181.664V181.564L65.686 157.064L65.986 103.664L66.186 66.5641L97.786 47.3641L143.486 19.6641Z" fill="#D4A34A"/>
<path d="M213.786 250.364L184.186 233.564L154.786 250.864L154.986 284.964L184.686 301.764L214.086 284.464L213.786 250.364Z" fill="#D2EFF3"/>
<mask id="mask10_13727_31340" style="mask-type:alpha" maskUnits="userSpaceOnUse" x="154" y="233" width="61" height="69">
<path d="M213.788 250.364L184.188 233.564L154.788 250.864L154.988 284.964L184.688 301.764L214.088 284.464L213.788 250.364Z" fill="#283375"/>
</mask>
<g mask="url(#mask10_13727_31340)">
<g clip-path="url(#clip5_13727_31340)">
<mask id="mask11_13727_31340" style="mask-type:luminance" maskUnits="userSpaceOnUse" x="160" y="250" width="31" height="50">
<path d="M190.479 250.51H160.12V299.085H190.479V250.51Z" fill="white"/>
</mask>
<g mask="url(#mask11_13727_31340)">
<path d="M183.494 299.009C181.308 295.972 179.598 290.103 179.396 287.168L168.998 282.69L164.671 299.009H183.494Z" fill="#F9C9B6" stroke="black" stroke-width="0.607184"/>
<mask id="mask12_13727_31340" style="mask-type:alpha" maskUnits="userSpaceOnUse" x="164" y="282" width="20" height="19">
<path d="M183.497 300.526C181.311 297.491 179.6 290.103 179.398 287.168L169 282.69L164.674 300.526H183.497Z" fill="#AC6651"/>
</mask>
<g mask="url(#mask12_13727_31340)">
<g style="mix-blend-mode:multiply">
<path d="M178.944 290.584C183.89 290.584 187.9 286.914 187.9 282.387C187.9 277.86 183.89 274.19 178.944 274.19C173.998 274.19 169.988 277.86 169.988 282.387C169.988 286.914 173.998 290.584 178.944 290.584Z" fill="black"/>
</g>
</g>
<path fill-rule="evenodd" clip-rule="evenodd" d="M188.032 273.418C188.028 273.401 188.024 273.383 188.02 273.366C188.016 273.348 188.011 273.33 188.007 273.313L185.518 262.925C185.516 262.915 185.513 262.904 185.511 262.894C185.508 262.883 185.506 262.872 185.503 262.862L185.492 262.817L185.492 262.817C183.941 256.526 177.599 252.657 171.289 254.169C164.978 255.681 161.078 262.003 162.546 268.314L162.546 268.314L165.125 279.079L165.127 279.079C166.737 285.288 173.031 289.089 179.295 287.588C185.56 286.087 189.449 279.846 188.069 273.582L188.071 273.582L188.032 273.418Z" fill="#F9C9B6"/>
<mask id="mask13_13727_31340" style="mask-type:luminance" maskUnits="userSpaceOnUse" x="162" y="253" width="27" height="35">
<path fill-rule="evenodd" clip-rule="evenodd" d="M188.026 273.419C188.022 273.401 188.018 273.384 188.013 273.366C188.009 273.348 188.005 273.331 188.001 273.313L185.512 262.926C185.509 262.915 185.507 262.905 185.504 262.894C185.502 262.884 185.499 262.873 185.497 262.862L185.486 262.817L185.486 262.817C183.935 256.526 177.593 252.658 171.282 254.17C164.971 255.682 161.071 262.004 162.54 268.315L162.539 268.315L165.119 279.08L165.121 279.08C166.73 285.289 173.025 289.089 179.289 287.588C185.553 286.087 189.442 279.847 188.063 273.583L188.065 273.582L188.026 273.419Z" fill="white"/>
</mask>
<g mask="url(#mask13_13727_31340)">
<path d="M188.029 273.419L187.438 273.557L187.438 273.559L187.439 273.56L188.029 273.419ZM188.004 273.313L187.413 273.454L187.414 273.456L187.414 273.457L188.004 273.313ZM185.515 262.925L184.924 263.065L184.924 263.066L184.925 263.067L185.515 262.925ZM185.5 262.862L184.91 263.004L184.91 263.004L184.91 263.005L185.5 262.862ZM185.489 262.817L186.08 262.675L185.938 262.084L185.347 262.227L185.489 262.817ZM185.489 262.817L184.899 262.962L185.044 263.549L185.631 263.407L185.489 262.817ZM162.543 268.315L162.685 268.905L163.271 268.764L163.134 268.177L162.543 268.315ZM162.543 268.315L162.401 267.724L161.811 267.866L161.952 268.456L162.543 268.315ZM165.122 279.08L164.531 279.221L164.673 279.811L165.263 279.67L165.122 279.08ZM165.124 279.079L165.712 278.927L165.562 278.35L164.983 278.489L165.124 279.079ZM188.066 273.582L187.925 272.992L187.345 273.131L187.473 273.713L188.066 273.582ZM188.068 273.582L188.21 274.172L188.8 274.031L188.659 273.44L188.068 273.582ZM188.62 273.28C188.616 273.261 188.612 273.243 188.607 273.224L187.426 273.507C187.43 273.524 187.434 273.541 187.438 273.557L188.62 273.28ZM188.607 273.224C188.603 273.206 188.598 273.187 188.594 273.169L187.414 273.457C187.418 273.474 187.422 273.49 187.426 273.507L188.607 273.224ZM184.925 263.067L187.413 273.454L188.594 273.171L186.106 262.784L184.925 263.067ZM186.106 262.785C186.103 262.774 186.101 262.763 186.098 262.752L184.917 263.035C184.92 263.045 184.922 263.055 184.924 263.065L186.106 262.785ZM186.098 262.752C186.095 262.741 186.093 262.73 186.09 262.719L184.91 263.005C184.912 263.015 184.915 263.025 184.917 263.035L186.098 262.752ZM184.899 262.958L184.91 263.004L186.09 262.721L186.08 262.675L184.899 262.958ZM185.631 263.407L185.631 263.407L185.347 262.227L185.347 262.227L185.631 263.407ZM186.078 262.672C184.448 256.056 177.78 251.989 171.144 253.579L171.427 254.76C177.413 253.326 183.428 256.995 184.899 262.962L186.078 262.672ZM171.144 253.579C164.508 255.169 160.408 261.816 161.952 268.452L163.134 268.177C161.742 262.191 165.441 256.194 171.427 254.76L171.144 253.579ZM162.685 268.905L162.685 268.905L162.401 267.724L162.401 267.724L162.685 268.905ZM165.712 278.938L163.133 268.173L161.952 268.456L164.531 279.221L165.712 278.938ZM164.983 278.489L164.981 278.489L165.263 279.67L165.265 279.67L164.983 278.489ZM164.536 279.231C166.229 285.76 172.847 289.756 179.434 288.178L179.151 286.997C173.209 288.421 167.238 284.816 165.712 278.927L164.536 279.231ZM179.434 288.178C186.021 286.6 190.11 280.039 188.659 273.452L187.473 273.713C188.782 279.655 185.093 285.574 179.151 286.997L179.434 288.178ZM187.927 272.991L187.925 272.992L188.208 274.173L188.21 274.172L187.927 272.991ZM187.439 273.56L187.478 273.723L188.659 273.44L188.62 273.277L187.439 273.56Z" fill="black"/>
</g>
<path d="M169.986 282.585C169.986 282.668 169.918 282.736 169.834 282.736C169.751 282.736 169.683 282.668 169.683 282.585C169.683 282.501 169.751 282.433 169.834 282.433C169.918 282.433 169.986 282.501 169.986 282.585Z" fill="black"/>
<path d="M177.878 283.647C177.878 283.731 177.81 283.799 177.726 283.799C177.643 283.799 177.575 283.731 177.575 283.647C177.575 283.563 177.643 283.495 177.726 283.495C177.81 283.495 177.878 283.563 177.878 283.647Z" fill="black"/>
<path d="M177.272 284.71C177.272 284.793 177.204 284.861 177.12 284.861C177.036 284.861 176.968 284.793 176.968 284.71C176.968 284.626 177.036 284.558 177.12 284.558C177.204 284.558 177.272 284.626 177.272 284.71Z" fill="black"/>
<path d="M180.308 284.406C180.308 284.49 180.24 284.558 180.156 284.558C180.072 284.558 180.004 284.49 180.004 284.406C180.004 284.322 180.072 284.254 180.156 284.254C180.24 284.254 180.308 284.322 180.308 284.406Z" fill="black"/>
<path d="M180.46 282.888C180.46 282.972 180.392 283.04 180.308 283.04C180.224 283.04 180.156 282.972 180.156 282.888C180.156 282.804 180.224 282.736 180.308 282.736C180.392 282.736 180.46 282.804 180.46 282.888Z" fill="black"/>
<path d="M183.495 283.647C183.495 283.731 183.428 283.799 183.344 283.799C183.26 283.799 183.192 283.731 183.192 283.647C183.192 283.563 183.26 283.495 183.344 283.495C183.428 283.495 183.495 283.563 183.495 283.647Z" fill="black"/>
<path d="M185.012 281.522C185.012 281.606 184.944 281.674 184.86 281.674C184.776 281.674 184.708 281.606 184.708 281.522C184.708 281.438 184.776 281.37 184.86 281.37C184.944 281.37 185.012 281.438 185.012 281.522Z" fill="black"/>
<path d="M168.467 279.397C168.467 279.481 168.399 279.549 168.315 279.549C168.232 279.549 168.164 279.481 168.164 279.397C168.164 279.313 168.232 279.245 168.315 279.245C168.399 279.245 168.467 279.313 168.467 279.397Z" fill="black"/>
<path d="M173.475 281.826C173.475 281.909 173.407 281.977 173.324 281.977C173.24 281.977 173.172 281.909 173.172 281.826C173.172 281.742 173.24 281.674 173.324 281.674C173.407 281.674 173.475 281.742 173.475 281.826Z" fill="black"/>
<path d="M173.022 284.861C173.022 284.945 172.954 285.013 172.87 285.013C172.786 285.013 172.718 284.945 172.718 284.861C172.718 284.777 172.786 284.709 172.87 284.709C172.954 284.709 173.022 284.777 173.022 284.861Z" fill="black"/>
<path d="M175.753 285.469C175.753 285.552 175.685 285.62 175.601 285.62C175.517 285.62 175.449 285.552 175.449 285.469C175.449 285.385 175.517 285.317 175.601 285.317C175.685 285.317 175.753 285.385 175.753 285.469Z" fill="black"/>
<path d="M180.914 281.522C180.914 281.606 180.846 281.674 180.762 281.674C180.678 281.674 180.61 281.606 180.61 281.522C180.61 281.438 180.678 281.37 180.762 281.37C180.846 281.37 180.914 281.438 180.914 281.522Z" fill="black"/>
<path d="M183.039 282.129C183.039 282.212 182.971 282.28 182.887 282.28C182.803 282.28 182.735 282.212 182.735 282.129C182.735 282.045 182.803 281.977 182.887 281.977C182.971 281.977 183.039 282.045 183.039 282.129Z" fill="black"/>
<path d="M181.824 284.71C181.824 284.793 181.756 284.861 181.672 284.861C181.588 284.861 181.521 284.793 181.521 284.71C181.521 284.626 181.588 284.558 181.672 284.558C181.756 284.558 181.824 284.626 181.824 284.71Z" fill="black"/>
<path d="M183.95 280.003C183.95 280.087 183.882 280.155 183.798 280.155C183.714 280.155 183.646 280.087 183.646 280.003C183.646 279.92 183.714 279.852 183.798 279.852C183.882 279.852 183.95 279.92 183.95 280.003Z" fill="black"/>
<path d="M169.834 280.307C169.834 280.391 169.766 280.459 169.682 280.459C169.598 280.459 169.53 280.391 169.53 280.307C169.53 280.223 169.598 280.155 169.682 280.155C169.766 280.155 169.834 280.223 169.834 280.307Z" fill="black"/>
<path d="M173.475 280.307C173.475 280.391 173.407 280.459 173.324 280.459C173.24 280.459 173.172 280.391 173.172 280.307C173.172 280.223 173.24 280.155 173.324 280.155C173.407 280.155 173.475 280.223 173.475 280.307Z" fill="black"/>
<path d="M173.475 277.575C173.475 277.659 173.407 277.727 173.324 277.727C173.24 277.727 173.172 277.659 173.172 277.575C173.172 277.491 173.24 277.423 173.324 277.423C173.407 277.423 173.475 277.491 173.475 277.575Z" fill="black"/>
<path d="M174.084 285.772C174.084 285.856 174.016 285.924 173.933 285.924C173.849 285.924 173.781 285.856 173.781 285.772C173.781 285.688 173.849 285.62 173.933 285.62C174.016 285.62 174.084 285.688 174.084 285.772Z" fill="black"/>
<path d="M178.182 285.772C178.182 285.856 178.115 285.924 178.031 285.924C177.947 285.924 177.879 285.856 177.879 285.772C177.879 285.688 177.947 285.62 178.031 285.62C178.115 285.62 178.182 285.688 178.182 285.772Z" fill="black"/>
<path d="M179.851 285.772C179.851 285.856 179.783 285.924 179.7 285.924C179.616 285.924 179.548 285.856 179.548 285.772C179.548 285.688 179.616 285.62 179.7 285.62C179.783 285.62 179.851 285.688 179.851 285.772Z" fill="black"/>
<path d="M182.433 280.307C182.433 280.391 182.365 280.459 182.281 280.459C182.197 280.459 182.129 280.391 182.129 280.307C182.129 280.223 182.197 280.155 182.281 280.155C182.365 280.155 182.433 280.223 182.433 280.307Z" fill="black"/>
<path d="M182.433 277.575C182.433 277.659 182.365 277.727 182.281 277.727C182.197 277.727 182.129 277.659 182.129 277.575C182.129 277.491 182.197 277.423 182.281 277.423C182.365 277.423 182.433 277.491 182.433 277.575Z" fill="black"/>
<path d="M185.469 279.548C185.469 279.632 185.401 279.7 185.317 279.7C185.233 279.7 185.165 279.632 185.165 279.548C185.165 279.464 185.233 279.396 185.317 279.396C185.401 279.396 185.469 279.464 185.469 279.548Z" fill="black"/>
<path d="M170.288 278.334C170.288 278.418 170.22 278.486 170.136 278.486C170.052 278.486 169.984 278.418 169.984 278.334C169.984 278.25 170.052 278.182 170.136 278.182C170.22 278.182 170.288 278.25 170.288 278.334Z" fill="black"/>
<path d="M171.807 283.647C171.807 283.731 171.739 283.799 171.655 283.799C171.571 283.799 171.503 283.731 171.503 283.647C171.503 283.563 171.571 283.495 171.655 283.495C171.739 283.495 171.807 283.563 171.807 283.647Z" fill="black"/>
<path d="M171.198 284.71C171.198 284.793 171.13 284.861 171.046 284.861C170.962 284.861 170.895 284.793 170.895 284.71C170.895 284.626 170.962 284.558 171.046 284.558C171.13 284.558 171.198 284.626 171.198 284.71Z" fill="black"/>
<path d="M177.272 281.673C177.272 281.757 177.204 281.825 177.12 281.825C177.036 281.825 176.968 281.757 176.968 281.673C176.968 281.59 177.036 281.522 177.12 281.522C177.204 281.522 177.272 281.59 177.272 281.673Z" fill="black"/>
<path d="M179.093 281.977C179.093 282.061 179.025 282.129 178.941 282.129C178.858 282.129 178.79 282.061 178.79 281.977C178.79 281.893 178.858 281.825 178.941 281.825C179.025 281.825 179.093 281.893 179.093 281.977Z" fill="black"/>
<path d="M176.968 286.531C176.968 286.615 176.9 286.683 176.816 286.683C176.732 286.683 176.664 286.615 176.664 286.531C176.664 286.447 176.732 286.379 176.816 286.379C176.9 286.379 176.968 286.447 176.968 286.531Z" fill="black"/>
<path d="M180.46 278.789C180.46 278.873 180.392 278.941 180.308 278.941C180.224 278.941 180.156 278.873 180.156 278.789C180.156 278.705 180.224 278.638 180.308 278.638C180.392 278.638 180.46 278.705 180.46 278.789Z" fill="black"/>
<path d="M180.46 276.057C180.46 276.141 180.392 276.209 180.308 276.209C180.224 276.209 180.156 276.141 180.156 276.057C180.156 275.973 180.224 275.905 180.308 275.905C180.392 275.905 180.46 275.973 180.46 276.057Z" fill="black"/>
<path d="M184.101 278.334C184.101 278.418 184.034 278.486 183.95 278.486C183.866 278.486 183.798 278.418 183.798 278.334C183.798 278.25 183.866 278.182 183.95 278.182C184.034 278.182 184.101 278.25 184.101 278.334Z" fill="black"/>
<path d="M185.164 276.816C185.164 276.9 185.097 276.968 185.013 276.968C184.929 276.968 184.861 276.9 184.861 276.816C184.861 276.732 184.929 276.664 185.013 276.664C185.097 276.664 185.164 276.732 185.164 276.816Z" fill="black"/>
<path d="M171.655 279.7C171.655 279.784 171.587 279.852 171.503 279.852C171.419 279.852 171.351 279.784 171.351 279.7C171.351 279.617 171.419 279.549 171.503 279.549C171.587 279.549 171.655 279.617 171.655 279.7Z" fill="black"/>
<path d="M171.655 281.37C171.655 281.454 171.587 281.522 171.503 281.522C171.419 281.522 171.351 281.454 171.351 281.37C171.351 281.286 171.419 281.218 171.503 281.218C171.587 281.218 171.655 281.286 171.655 281.37Z" fill="black"/>
<path d="M174.843 279.093C174.843 279.177 174.775 279.245 174.691 279.245C174.607 279.245 174.539 279.177 174.539 279.093C174.539 279.009 174.607 278.941 174.691 278.941C174.775 278.941 174.843 279.009 174.843 279.093Z" fill="black"/>
<path d="M174.843 276.36C174.843 276.444 174.775 276.512 174.691 276.512C174.607 276.512 174.539 276.444 174.539 276.36C174.539 276.277 174.607 276.209 174.691 276.209C174.775 276.209 174.843 276.277 174.843 276.36Z" fill="black"/>
<path d="M176.663 278.486C176.663 278.569 176.595 278.637 176.512 278.637C176.428 278.637 176.36 278.569 176.36 278.486C176.36 278.402 176.428 278.334 176.512 278.334C176.595 278.334 176.663 278.402 176.663 278.486Z" fill="black"/>
<path d="M178.484 277.575C178.484 277.659 178.416 277.727 178.332 277.727C178.249 277.727 178.181 277.659 178.181 277.575C178.181 277.491 178.249 277.423 178.332 277.423C178.416 277.423 178.484 277.491 178.484 277.575Z" fill="black"/>
<path d="M180.46 277.575C180.46 277.659 180.392 277.727 180.308 277.727C180.224 277.727 180.156 277.659 180.156 277.575C180.156 277.491 180.224 277.423 180.308 277.423C180.392 277.423 180.46 277.491 180.46 277.575Z" fill="black"/>
<path d="M182.433 277.575C182.433 277.659 182.365 277.727 182.281 277.727C182.197 277.727 182.129 277.659 182.129 277.575C182.129 277.491 182.197 277.423 182.281 277.423C182.365 277.423 182.433 277.491 182.433 277.575Z" fill="black"/>
<path d="M186.379 277.575C186.379 277.659 186.311 277.727 186.227 277.727C186.143 277.727 186.075 277.659 186.075 277.575C186.075 277.491 186.143 277.423 186.227 277.423C186.311 277.423 186.379 277.491 186.379 277.575Z" fill="black"/>
<path d="M174.538 283.647C174.538 283.731 174.471 283.799 174.387 283.799C174.303 283.799 174.235 283.731 174.235 283.647C174.235 283.563 174.303 283.495 174.387 283.495C174.471 283.495 174.538 283.563 174.538 283.647Z" fill="black"/>
<path d="M176.209 282.736C176.209 282.82 176.141 282.888 176.058 282.888C175.974 282.888 175.906 282.82 175.906 282.736C175.906 282.652 175.974 282.584 176.058 282.584C176.141 282.584 176.209 282.652 176.209 282.736Z" fill="black"/>
<path d="M175.601 281.522C175.601 281.606 175.533 281.674 175.449 281.674C175.365 281.674 175.297 281.606 175.297 281.522C175.297 281.438 175.365 281.37 175.449 281.37C175.533 281.37 175.601 281.438 175.601 281.522Z" fill="black"/>
<path d="M179.245 280.156C179.245 280.239 179.177 280.307 179.093 280.307C179.009 280.307 178.941 280.239 178.941 280.156C178.941 280.072 179.009 280.004 179.093 280.004C179.177 280.004 179.245 280.072 179.245 280.156Z" fill="black"/>
<path d="M171.807 277.423C171.807 277.507 171.739 277.575 171.655 277.575C171.571 277.575 171.503 277.507 171.503 277.423C171.503 277.339 171.571 277.271 171.655 277.271C171.739 277.271 171.807 277.339 171.807 277.423Z" fill="black"/>
<path d="M177.422 279.852C177.422 279.936 177.354 280.004 177.27 280.004C177.186 280.004 177.118 279.936 177.118 279.852C177.118 279.768 177.186 279.7 177.27 279.7C177.354 279.7 177.422 279.768 177.422 279.852Z" fill="black"/>
<path d="M177.422 277.119C177.422 277.203 177.354 277.271 177.27 277.271C177.186 277.271 177.118 277.203 177.118 277.119C177.118 277.036 177.186 276.968 177.27 276.968C177.354 276.968 177.422 277.036 177.422 277.119Z" fill="black"/>
<path d="M182.735 279.245C182.735 279.328 182.667 279.396 182.583 279.396C182.499 279.396 182.431 279.328 182.431 279.245C182.431 279.161 182.499 279.093 182.583 279.093C182.667 279.093 182.735 279.161 182.735 279.245Z" fill="black"/>
<path d="M182.735 276.513C182.735 276.596 182.667 276.664 182.583 276.664C182.499 276.664 182.431 276.596 182.431 276.513C182.431 276.429 182.499 276.361 182.583 276.361C182.667 276.361 182.735 276.429 182.735 276.513Z" fill="black"/>
<path d="M183.797 276.816C183.797 276.9 183.729 276.968 183.645 276.968C183.562 276.968 183.494 276.9 183.494 276.816C183.494 276.732 183.562 276.664 183.645 276.664C183.729 276.664 183.797 276.732 183.797 276.816Z" fill="black"/>
<path d="M186.075 275.45C186.075 275.534 186.007 275.602 185.923 275.602C185.839 275.602 185.771 275.534 185.771 275.45C185.771 275.366 185.839 275.298 185.923 275.298C186.007 275.298 186.075 275.366 186.075 275.45Z" fill="black"/>
<path d="M169.986 282.585C169.986 282.668 169.918 282.736 169.834 282.736C169.751 282.736 169.683 282.668 169.683 282.585C169.683 282.501 169.751 282.433 169.834 282.433C169.918 282.433 169.986 282.501 169.986 282.585Z" stroke="black" stroke-width="0.151796"/>
<path d="M177.878 283.647C177.878 283.731 177.81 283.799 177.726 283.799C177.643 283.799 177.575 283.731 177.575 283.647C177.575 283.563 177.643 283.495 177.726 283.495C177.81 283.495 177.878 283.563 177.878 283.647Z" stroke="black" stroke-width="0.151796"/>
<path d="M177.272 284.71C177.272 284.793 177.204 284.861 177.12 284.861C177.036 284.861 176.968 284.793 176.968 284.71C176.968 284.626 177.036 284.558 177.12 284.558C177.204 284.558 177.272 284.626 177.272 284.71Z" stroke="black" stroke-width="0.151796"/>
<path d="M180.308 284.406C180.308 284.49 180.24 284.558 180.156 284.558C180.072 284.558 180.004 284.49 180.004 284.406C180.004 284.322 180.072 284.254 180.156 284.254C180.24 284.254 180.308 284.322 180.308 284.406Z" stroke="black" stroke-width="0.151796"/>
<path d="M180.46 282.888C180.46 282.972 180.392 283.04 180.308 283.04C180.224 283.04 180.156 282.972 180.156 282.888C180.156 282.804 180.224 282.736 180.308 282.736C180.392 282.736 180.46 282.804 180.46 282.888Z" stroke="black" stroke-width="0.151796"/>
<path d="M183.495 283.647C183.495 283.731 183.428 283.799 183.344 283.799C183.26 283.799 183.192 283.731 183.192 283.647C183.192 283.563 183.26 283.495 183.344 283.495C183.428 283.495 183.495 283.563 183.495 283.647Z" stroke="black" stroke-width="0.151796"/>
<path d="M185.012 281.522C185.012 281.606 184.944 281.674 184.86 281.674C184.776 281.674 184.708 281.606 184.708 281.522C184.708 281.438 184.776 281.37 184.86 281.37C184.944 281.37 185.012 281.438 185.012 281.522Z" stroke="black" stroke-width="0.151796"/>
<path d="M168.467 279.397C168.467 279.481 168.399 279.549 168.315 279.549C168.232 279.549 168.164 279.481 168.164 279.397C168.164 279.313 168.232 279.245 168.315 279.245C168.399 279.245 168.467 279.313 168.467 279.397Z" stroke="black" stroke-width="0.151796"/>
<path d="M173.475 281.826C173.475 281.909 173.407 281.977 173.324 281.977C173.24 281.977 173.172 281.909 173.172 281.826C173.172 281.742 173.24 281.674 173.324 281.674C173.407 281.674 173.475 281.742 173.475 281.826Z" stroke="black" stroke-width="0.151796"/>
<path d="M173.022 284.861C173.022 284.945 172.954 285.013 172.87 285.013C172.786 285.013 172.718 284.945 172.718 284.861C172.718 284.777 172.786 284.709 172.87 284.709C172.954 284.709 173.022 284.777 173.022 284.861Z" stroke="black" stroke-width="0.151796"/>
<path d="M175.753 285.469C175.753 285.552 175.685 285.62 175.601 285.62C175.517 285.62 175.449 285.552 175.449 285.469C175.449 285.385 175.517 285.317 175.601 285.317C175.685 285.317 175.753 285.385 175.753 285.469Z" stroke="black" stroke-width="0.151796"/>
<path d="M180.914 281.522C180.914 281.606 180.846 281.674 180.762 281.674C180.678 281.674 180.61 281.606 180.61 281.522C180.61 281.438 180.678 281.37 180.762 281.37C180.846 281.37 180.914 281.438 180.914 281.522Z" stroke="black" stroke-width="0.151796"/>
<path d="M183.039 282.129C183.039 282.212 182.971 282.28 182.887 282.28C182.803 282.28 182.735 282.212 182.735 282.129C182.735 282.045 182.803 281.977 182.887 281.977C182.971 281.977 183.039 282.045 183.039 282.129Z" stroke="black" stroke-width="0.151796"/>
<path d="M181.824 284.71C181.824 284.793 181.756 284.861 181.672 284.861C181.588 284.861 181.521 284.793 181.521 284.71C181.521 284.626 181.588 284.558 181.672 284.558C181.756 284.558 181.824 284.626 181.824 284.71Z" stroke="black" stroke-width="0.151796"/>
<path d="M183.95 280.003C183.95 280.087 183.882 280.155 183.798 280.155C183.714 280.155 183.646 280.087 183.646 280.003C183.646 279.92 183.714 279.852 183.798 279.852C183.882 279.852 183.95 279.92 183.95 280.003Z" stroke="black" stroke-width="0.151796"/>
<path d="M169.834 280.307C169.834 280.391 169.766 280.459 169.682 280.459C169.598 280.459 169.53 280.391 169.53 280.307C169.53 280.223 169.598 280.155 169.682 280.155C169.766 280.155 169.834 280.223 169.834 280.307Z" stroke="black" stroke-width="0.151796"/>
<path d="M173.475 280.307C173.475 280.391 173.407 280.459 173.324 280.459C173.24 280.459 173.172 280.391 173.172 280.307C173.172 280.223 173.24 280.155 173.324 280.155C173.407 280.155 173.475 280.223 173.475 280.307Z" stroke="black" stroke-width="0.151796"/>
<path d="M173.475 277.575C173.475 277.659 173.407 277.727 173.324 277.727C173.24 277.727 173.172 277.659 173.172 277.575C173.172 277.491 173.24 277.423 173.324 277.423C173.407 277.423 173.475 277.491 173.475 277.575Z" stroke="black" stroke-width="0.151796"/>
<path d="M174.084 285.772C174.084 285.856 174.016 285.924 173.933 285.924C173.849 285.924 173.781 285.856 173.781 285.772C173.781 285.688 173.849 285.62 173.933 285.62C174.016 285.62 174.084 285.688 174.084 285.772Z" stroke="black" stroke-width="0.151796"/>
<path d="M178.182 285.772C178.182 285.856 178.115 285.924 178.031 285.924C177.947 285.924 177.879 285.856 177.879 285.772C177.879 285.688 177.947 285.62 178.031 285.62C178.115 285.62 178.182 285.688 178.182 285.772Z" stroke="black" stroke-width="0.151796"/>
<path d="M179.851 285.772C179.851 285.856 179.783 285.924 179.7 285.924C179.616 285.924 179.548 285.856 179.548 285.772C179.548 285.688 179.616 285.62 179.7 285.62C179.783 285.62 179.851 285.688 179.851 285.772Z" stroke="black" stroke-width="0.151796"/>
<path d="M182.433 280.307C182.433 280.391 182.365 280.459 182.281 280.459C182.197 280.459 182.129 280.391 182.129 280.307C182.129 280.223 182.197 280.155 182.281 280.155C182.365 280.155 182.433 280.223 182.433 280.307Z" stroke="black" stroke-width="0.151796"/>
<path d="M182.433 277.575C182.433 277.659 182.365 277.727 182.281 277.727C182.197 277.727 182.129 277.659 182.129 277.575C182.129 277.491 182.197 277.423 182.281 277.423C182.365 277.423 182.433 277.491 182.433 277.575Z" stroke="black" stroke-width="0.151796"/>
<path d="M185.469 279.548C185.469 279.632 185.401 279.7 185.317 279.7C185.233 279.7 185.165 279.632 185.165 279.548C185.165 279.464 185.233 279.396 185.317 279.396C185.401 279.396 185.469 279.464 185.469 279.548Z" stroke="black" stroke-width="0.151796"/>
<path d="M170.288 278.334C170.288 278.418 170.22 278.486 170.136 278.486C170.052 278.486 169.984 278.418 169.984 278.334C169.984 278.25 170.052 278.182 170.136 278.182C170.22 278.182 170.288 278.25 170.288 278.334Z" stroke="black" stroke-width="0.151796"/>
<path d="M171.807 283.647C171.807 283.731 171.739 283.799 171.655 283.799C171.571 283.799 171.503 283.731 171.503 283.647C171.503 283.563 171.571 283.495 171.655 283.495C171.739 283.495 171.807 283.563 171.807 283.647Z" stroke="black" stroke-width="0.151796"/>
<path d="M171.198 284.71C171.198 284.793 171.13 284.861 171.046 284.861C170.962 284.861 170.895 284.793 170.895 284.71C170.895 284.626 170.962 284.558 171.046 284.558C171.13 284.558 171.198 284.626 171.198 284.71Z" stroke="black" stroke-width="0.151796"/>
<path d="M177.272 281.673C177.272 281.757 177.204 281.825 177.12 281.825C177.036 281.825 176.968 281.757 176.968 281.673C176.968 281.59 177.036 281.522 177.12 281.522C177.204 281.522 177.272 281.59 177.272 281.673Z" stroke="black" stroke-width="0.151796"/>
<path d="M179.093 281.977C179.093 282.061 179.025 282.129 178.941 282.129C178.858 282.129 178.79 282.061 178.79 281.977C178.79 281.893 178.858 281.825 178.941 281.825C179.025 281.825 179.093 281.893 179.093 281.977Z" stroke="black" stroke-width="0.151796"/>
<path d="M176.968 286.531C176.968 286.615 176.9 286.683 176.816 286.683C176.732 286.683 176.664 286.615 176.664 286.531C176.664 286.447 176.732 286.379 176.816 286.379C176.9 286.379 176.968 286.447 176.968 286.531Z" stroke="black" stroke-width="0.151796"/>
<path d="M180.46 278.789C180.46 278.873 180.392 278.941 180.308 278.941C180.224 278.941 180.156 278.873 180.156 278.789C180.156 278.705 180.224 278.638 180.308 278.638C180.392 278.638 180.46 278.705 180.46 278.789Z" stroke="black" stroke-width="0.151796"/>
<path d="M180.46 276.057C180.46 276.141 180.392 276.209 180.308 276.209C180.224 276.209 180.156 276.141 180.156 276.057C180.156 275.973 180.224 275.905 180.308 275.905C180.392 275.905 180.46 275.973 180.46 276.057Z" stroke="black" stroke-width="0.151796"/>
<path d="M184.101 278.334C184.101 278.418 184.034 278.486 183.95 278.486C183.866 278.486 183.798 278.418 183.798 278.334C183.798 278.25 183.866 278.182 183.95 278.182C184.034 278.182 184.101 278.25 184.101 278.334Z" stroke="black" stroke-width="0.151796"/>
<path d="M185.164 276.816C185.164 276.9 185.097 276.968 185.013 276.968C184.929 276.968 184.861 276.9 184.861 276.816C184.861 276.732 184.929 276.664 185.013 276.664C185.097 276.664 185.164 276.732 185.164 276.816Z" stroke="black" stroke-width="0.151796"/>
<path d="M171.655 279.7C171.655 279.784 171.587 279.852 171.503 279.852C171.419 279.852 171.351 279.784 171.351 279.7C171.351 279.617 171.419 279.549 171.503 279.549C171.587 279.549 171.655 279.617 171.655 279.7Z" stroke="black" stroke-width="0.151796"/>
<path d="M171.655 281.37C171.655 281.454 171.587 281.522 171.503 281.522C171.419 281.522 171.351 281.454 171.351 281.37C171.351 281.286 171.419 281.218 171.503 281.218C171.587 281.218 171.655 281.286 171.655 281.37Z" stroke="black" stroke-width="0.151796"/>
<path d="M174.843 279.093C174.843 279.177 174.775 279.245 174.691 279.245C174.607 279.245 174.539 279.177 174.539 279.093C174.539 279.009 174.607 278.941 174.691 278.941C174.775 278.941 174.843 279.009 174.843 279.093Z" stroke="black" stroke-width="0.151796"/>
<path d="M174.843 276.36C174.843 276.444 174.775 276.512 174.691 276.512C174.607 276.512 174.539 276.444 174.539 276.36C174.539 276.277 174.607 276.209 174.691 276.209C174.775 276.209 174.843 276.277 174.843 276.36Z" stroke="black" stroke-width="0.151796"/>
<path d="M176.663 278.486C176.663 278.569 176.595 278.637 176.512 278.637C176.428 278.637 176.36 278.569 176.36 278.486C176.36 278.402 176.428 278.334 176.512 278.334C176.595 278.334 176.663 278.402 176.663 278.486Z" stroke="black" stroke-width="0.151796"/>
<path d="M178.484 277.575C178.484 277.659 178.416 277.727 178.332 277.727C178.249 277.727 178.181 277.659 178.181 277.575C178.181 277.491 178.249 277.423 178.332 277.423C178.416 277.423 178.484 277.491 178.484 277.575Z" stroke="black" stroke-width="0.151796"/>
<path d="M180.46 277.575C180.46 277.659 180.392 277.727 180.308 277.727C180.224 277.727 180.156 277.659 180.156 277.575C180.156 277.491 180.224 277.423 180.308 277.423C180.392 277.423 180.46 277.491 180.46 277.575Z" stroke="black" stroke-width="0.151796"/>
<path d="M182.433 277.575C182.433 277.659 182.365 277.727 182.281 277.727C182.197 277.727 182.129 277.659 182.129 277.575C182.129 277.491 182.197 277.423 182.281 277.423C182.365 277.423 182.433 277.491 182.433 277.575Z" stroke="black" stroke-width="0.151796"/>
<path d="M186.379 277.575C186.379 277.659 186.311 277.727 186.227 277.727C186.143 277.727 186.075 277.659 186.075 277.575C186.075 277.491 186.143 277.423 186.227 277.423C186.311 277.423 186.379 277.491 186.379 277.575Z" stroke="black" stroke-width="0.151796"/>
<path d="M174.538 283.647C174.538 283.731 174.471 283.799 174.387 283.799C174.303 283.799 174.235 283.731 174.235 283.647C174.235 283.563 174.303 283.495 174.387 283.495C174.471 283.495 174.538 283.563 174.538 283.647Z" stroke="black" stroke-width="0.151796"/>
<path d="M176.209 282.736C176.209 282.82 176.141 282.888 176.058 282.888C175.974 282.888 175.906 282.82 175.906 282.736C175.906 282.652 175.974 282.584 176.058 282.584C176.141 282.584 176.209 282.652 176.209 282.736Z" stroke="black" stroke-width="0.151796"/>
<path d="M175.601 281.522C175.601 281.606 175.533 281.674 175.449 281.674C175.365 281.674 175.297 281.606 175.297 281.522C175.297 281.438 175.365 281.37 175.449 281.37C175.533 281.37 175.601 281.438 175.601 281.522Z" stroke="black" stroke-width="0.151796"/>
<path d="M179.245 280.156C179.245 280.239 179.177 280.307 179.093 280.307C179.009 280.307 178.941 280.239 178.941 280.156C178.941 280.072 179.009 280.004 179.093 280.004C179.177 280.004 179.245 280.072 179.245 280.156Z" stroke="black" stroke-width="0.151796"/>
<path d="M171.807 277.423C171.807 277.507 171.739 277.575 171.655 277.575C171.571 277.575 171.503 277.507 171.503 277.423C171.503 277.339 171.571 277.271 171.655 277.271C171.739 277.271 171.807 277.339 171.807 277.423Z" stroke="black" stroke-width="0.151796"/>
<path d="M177.422 279.852C177.422 279.936 177.354 280.004 177.27 280.004C177.186 280.004 177.118 279.936 177.118 279.852C177.118 279.768 177.186 279.7 177.27 279.7C177.354 279.7 177.422 279.768 177.422 279.852Z" stroke="black" stroke-width="0.151796"/>
<path d="M177.422 277.119C177.422 277.203 177.354 277.271 177.27 277.271C177.186 277.271 177.118 277.203 177.118 277.119C177.118 277.036 177.186 276.968 177.27 276.968C177.354 276.968 177.422 277.036 177.422 277.119Z" stroke="black" stroke-width="0.151796"/>
<path d="M182.735 279.245C182.735 279.328 182.667 279.396 182.583 279.396C182.499 279.396 182.431 279.328 182.431 279.245C182.431 279.161 182.499 279.093 182.583 279.093C182.667 279.093 182.735 279.161 182.735 279.245Z" stroke="black" stroke-width="0.151796"/>
<path d="M182.735 276.513C182.735 276.596 182.667 276.664 182.583 276.664C182.499 276.664 182.431 276.596 182.431 276.513C182.431 276.429 182.499 276.361 182.583 276.361C182.667 276.361 182.735 276.429 182.735 276.513Z" stroke="black" stroke-width="0.151796"/>
<path d="M183.797 276.816C183.797 276.9 183.729 276.968 183.645 276.968C183.562 276.968 183.494 276.9 183.494 276.816C183.494 276.732 183.562 276.664 183.645 276.664C183.729 276.664 183.797 276.732 183.797 276.816Z" stroke="black" stroke-width="0.151796"/>
<path d="M186.075 275.45C186.075 275.534 186.007 275.602 185.923 275.602C185.839 275.602 185.771 275.534 185.771 275.45C185.771 275.366 185.839 275.298 185.923 275.298C186.007 275.298 186.075 275.366 186.075 275.45Z" stroke="black" stroke-width="0.151796"/>
</g>
<path d="M183.316 278.618C183.477 278.032 183.534 277.423 183.485 276.819C183.459 276.505 183.138 276.331 182.866 276.438C182.224 276.691 180.101 277.495 178.603 277.701C176.96 277.927 174.473 277.653 173.752 277.563C173.459 277.527 173.198 277.779 173.249 278.085C173.348 278.683 173.552 279.26 173.851 279.789C174.186 280.378 174.633 280.896 175.167 281.313C175.702 281.73 176.313 282.037 176.966 282.218C177.62 282.398 178.302 282.448 178.975 282.365C179.647 282.282 180.297 282.067 180.887 281.733C181.476 281.398 181.994 280.951 182.411 280.417C182.828 279.882 183.135 279.271 183.316 278.618Z" fill="#171921" stroke="#171921" stroke-width="0.607184"/>
<mask id="mask14_13727_31340" style="mask-type:alpha" maskUnits="userSpaceOnUse" x="173" y="276" width="11" height="7">
<path d="M183.156 276.646C183.234 277.279 183.187 277.921 183.017 278.536C182.847 279.151 182.558 279.726 182.165 280.229C181.773 280.732 181.286 281.153 180.731 281.468C180.176 281.783 179.564 281.985 178.931 282.063C178.298 282.141 177.656 282.094 177.041 281.924C176.426 281.755 175.851 281.465 175.348 281.073C174.845 280.681 174.424 280.193 174.109 279.638C173.795 279.083 173.592 278.472 173.514 277.839L183.156 276.646Z" fill="#171921"/>
</mask>
<g mask="url(#mask14_13727_31340)">
<path d="M179.418 285.976C181.207 285.754 182.477 284.125 182.256 282.336C182.035 280.547 180.405 279.276 178.616 279.498C176.828 279.719 175.557 281.349 175.778 283.137C175.999 284.926 177.629 286.197 179.418 285.976Z" fill="#FC909F"/>
</g>
<path d="M179.7 264.051C180.56 263.646 182.584 263.277 183.799 265.038" stroke="black" stroke-width="0.607184" stroke-linecap="round"/>
<path d="M168.251 267.893C168.566 266.995 169.721 265.293 171.828 265.661" stroke="black" stroke-width="0.607184" stroke-linecap="round"/>
<path d="M176.665 257.188C178.891 257.087 182.797 255.852 180.611 251.723" stroke="black" stroke-width="0.607184"/>
<path d="M172.719 256.884C174.945 256.783 178.851 255.549 176.665 251.42" stroke="black" stroke-width="0.607184"/>
<path d="M167.253 258.554C169.48 258.452 173.386 257.218 171.2 253.089" stroke="black" stroke-width="0.607184"/>
<path d="M172.282 271.58C173.031 271.491 173.53 270.507 173.396 269.384C173.263 268.26 172.547 267.421 171.798 267.51C171.049 267.599 170.55 268.582 170.683 269.706C170.817 270.83 171.532 271.669 172.282 271.58Z" fill="black"/>
<path d="M181.978 270.063C182.728 269.981 183.236 269.002 183.112 267.877C182.988 266.752 182.28 265.907 181.53 265.99C180.78 266.072 180.272 267.051 180.396 268.176C180.52 269.301 181.228 270.146 181.978 270.063Z" fill="black"/>
<path d="M168.32 269.592L163.308 270.484" stroke="black" stroke-width="0.607184" stroke-linecap="round"/>
<path d="M167.789 267.508C167.647 266.982 167.995 266.458 168.535 266.388L174.036 265.671C174.535 265.606 175 265.956 175.076 266.454L175.844 271.522C175.919 272.02 175.576 272.475 175.077 272.54L170.162 273.181C169.703 273.241 169.265 272.948 169.143 272.5L167.789 267.508Z" stroke="black" stroke-width="0.607184"/>
<path d="M185.489 265.23C185.47 264.687 184.979 264.273 184.44 264.343L178.938 265.06C178.439 265.125 178.096 265.581 178.172 266.078L178.94 271.147C179.015 271.644 179.481 271.995 179.979 271.93L184.895 271.289C185.354 271.229 185.688 270.836 185.671 270.375L185.489 265.23Z" stroke="black" stroke-width="0.607184"/>
<path d="M175.438 268.868L178.634 268.396" stroke="black" stroke-width="0.607184"/>
<path d="M177.306 269.637C177.602 271.741 178.886 273.247 178.886 273.247C178.886 273.247 178.487 274.223 176.941 274.133" stroke="black" stroke-width="0.607184"/>
<path d="M165.355 271.332C165.001 271.215 164.619 271.153 164.228 271.153C162.636 271.153 161.344 272.14 161.496 273.961C161.654 275.859 162.787 276.542 164.38 276.542C164.557 276.542 164.731 276.526 164.899 276.497C165.083 276.464 165.261 276.415 165.431 276.35" stroke="black" stroke-width="1.21437"/>
<path d="M165.507 276.32C165.16 276.463 164.78 276.542 164.38 276.542C162.787 276.542 161.654 275.859 161.496 273.961C161.344 272.14 162.636 271.153 164.228 271.153C164.705 271.153 165.167 271.245 165.582 271.416L165.507 276.32Z" fill="#F9C9B6"/>
<path d="M164.9 272.443C164.293 272.165 162.957 272.018 162.472 273.658" stroke="black" stroke-width="0.607184"/>
<path d="M163.308 272.519C163.637 272.798 164.264 273.658 164.142 274.872" stroke="black" stroke-width="0.607184"/>
<path d="M181.302 294.143L181.323 294.148L181.345 294.149C188.347 294.727 192.545 297.837 195.592 302.12H154.104C156.578 297.666 160.097 294.831 165.802 293.53C168.233 292.976 171.065 292.699 174.387 292.699C175.823 292.699 176.94 292.918 178 293.207C178.392 293.314 178.787 293.434 179.191 293.557C179.859 293.76 180.552 293.97 181.302 294.143Z" fill="#F4D150" stroke="black" stroke-width="0.607184"/>
<path d="M164.056 293.859L165.445 290.884C165.478 290.813 165.561 290.779 165.635 290.806C171.392 292.844 176.629 292.7 181.483 291.349C181.544 291.332 181.609 291.354 181.647 291.406L183.761 294.298C183.82 294.377 183.79 294.489 183.698 294.525C178.597 296.528 169.024 296.188 164.129 294.06C164.052 294.026 164.02 293.936 164.056 293.859Z" fill="white" stroke="black" stroke-width="0.607184"/>
</g>
</g>
<path d="M172.086 92.6641L142.486 75.9641L113.186 93.1641L113.486 127.164L143.086 143.864L172.386 126.664L172.086 92.6641Z" fill="#FFEDEF"/>
<mask id="mask15_13727_31340" style="mask-type:alpha" maskUnits="userSpaceOnUse" x="113" y="75" width="60" height="69">
<path d="M172.086 92.6639L142.486 75.9639L113.186 93.1639L113.486 127.164L143.086 143.864L172.386 126.664L172.086 92.6639Z" fill="#283375"/>
</mask>
<g mask="url(#mask15_13727_31340)">
<g clip-path="url(#clip6_13727_31340)">
<mask id="mask16_13727_31340" style="mask-type:luminance" maskUnits="userSpaceOnUse" x="131" y="92" width="31" height="50">
<path d="M161.315 92.8713H131.088V141.234H161.315V92.8713Z" fill="white"/>
</mask>
<g mask="url(#mask16_13727_31340)">
<path d="M154.369 141.159C152.193 138.136 150.49 132.292 150.288 129.37L139.936 124.912L135.628 141.159H154.369Z" fill="#AC6651" stroke="black" stroke-width="0.513524"/>
<mask id="mask17_13727_31340" style="mask-type:alpha" maskUnits="userSpaceOnUse" x="135" y="124" width="20" height="19">
<path d="M154.371 142.669C152.194 139.647 150.491 132.291 150.29 129.369L139.937 124.911L135.63 142.669H154.371Z" fill="#AC6651"/>
</mask>
<g mask="url(#mask17_13727_31340)">
<g style="mix-blend-mode:multiply">
<path d="M149.836 132.769C154.761 132.769 158.753 129.115 158.753 124.608C158.753 120.1 154.761 116.446 149.836 116.446C144.912 116.446 140.919 120.1 140.919 124.608C140.919 129.115 144.912 132.769 149.836 132.769Z" fill="black"/>
</g>
</g>
<path fill-rule="evenodd" clip-rule="evenodd" d="M158.885 115.68C158.881 115.662 158.877 115.645 158.873 115.627C158.868 115.61 158.864 115.592 158.86 115.575L156.382 105.232C156.379 105.222 156.377 105.211 156.374 105.201C156.372 105.19 156.369 105.18 156.367 105.169L156.356 105.124L156.356 105.124C154.812 98.8606 148.498 95.0092 142.214 96.5146C135.931 98.02 132.048 104.314 133.51 110.598L133.51 110.598L136.078 121.316L136.08 121.316C137.682 127.498 143.949 131.282 150.186 129.787C156.423 128.293 160.295 122.08 158.922 115.843L158.924 115.842L158.885 115.68Z" fill="#AC6651"/>
<mask id="mask18_13727_31340" style="mask-type:luminance" maskUnits="userSpaceOnUse" x="133" y="96" width="27" height="35">
<path fill-rule="evenodd" clip-rule="evenodd" d="M158.89 115.681C158.886 115.663 158.882 115.645 158.877 115.628C158.873 115.61 158.869 115.593 158.865 115.575L156.387 105.233C156.384 105.223 156.382 105.212 156.379 105.202C156.377 105.191 156.374 105.181 156.372 105.17L156.361 105.125L156.361 105.125C154.816 98.8614 148.503 95.0099 142.219 96.5153C135.936 98.0207 132.053 104.315 133.515 110.599L133.515 110.599L136.083 121.317L136.085 121.316C137.687 127.498 143.954 131.282 150.191 129.788C156.428 128.294 160.3 122.081 158.927 115.844L158.929 115.843L158.89 115.681Z" fill="white"/>
</mask>
<g mask="url(#mask18_13727_31340)">
<path d="M158.886 115.68L158.298 115.818L158.298 115.82L158.298 115.821L158.886 115.68ZM158.861 115.575L158.273 115.716L158.273 115.717L158.274 115.718L158.861 115.575ZM156.383 105.233L155.795 105.372L155.795 105.373L155.795 105.373L156.383 105.233ZM156.368 105.17L155.78 105.311L155.78 105.311L155.781 105.312L156.368 105.17ZM156.357 105.125L156.945 104.984L156.804 104.395L156.216 104.537L156.357 105.125ZM156.357 105.125L155.77 105.269L155.914 105.853L156.499 105.712L156.357 105.125ZM133.511 110.598L133.653 111.186L134.236 111.046L134.1 110.461L133.511 110.598ZM133.511 110.598L133.369 110.011L132.782 110.152L132.923 110.739L133.511 110.598ZM136.079 121.316L135.491 121.457L135.632 122.045L136.22 121.904L136.079 121.316ZM136.081 121.316L136.666 121.164L136.517 120.59L135.94 120.728L136.081 121.316ZM158.923 115.843L158.782 115.255L158.205 115.393L158.333 115.973L158.923 115.843ZM158.925 115.843L159.066 116.431L159.654 116.29L159.513 115.702L158.925 115.843ZM159.475 115.542C159.47 115.523 159.466 115.505 159.462 115.487L158.286 115.768C158.29 115.785 158.294 115.802 158.298 115.818L159.475 115.542ZM159.462 115.487C159.457 115.468 159.453 115.45 159.448 115.431L158.274 115.718C158.278 115.735 158.282 115.752 158.286 115.768L159.462 115.487ZM155.795 105.373L158.273 115.716L159.449 115.434L156.971 105.092L155.795 105.373ZM156.971 105.093C156.969 105.082 156.966 105.071 156.964 105.06L155.788 105.342C155.79 105.352 155.792 105.362 155.795 105.372L156.971 105.093ZM156.964 105.06C156.961 105.049 156.958 105.038 156.956 105.027L155.781 105.312C155.783 105.322 155.785 105.332 155.788 105.342L156.964 105.06ZM155.769 105.265L155.78 105.311L156.956 105.029L156.945 104.984L155.769 105.265ZM156.499 105.712L156.499 105.712L156.216 104.537L156.215 104.537L156.499 105.712ZM156.944 104.98C155.32 98.3937 148.681 94.3441 142.075 95.927L142.356 97.1028C148.316 95.6748 154.305 99.3281 155.77 105.269L156.944 104.98ZM142.075 95.927C135.468 97.5099 131.385 104.128 132.922 110.735L134.1 110.461C132.713 104.501 136.397 98.5307 142.356 97.1028L142.075 95.927ZM133.652 111.186L133.653 111.186L133.37 110.011L133.369 110.011L133.652 111.186ZM136.667 121.176L134.099 110.457L132.923 110.739L135.491 121.457L136.667 121.176ZM135.94 120.728L135.938 120.729L136.22 121.904L136.222 121.904L135.94 120.728ZM135.496 121.468C137.181 127.968 143.77 131.947 150.328 130.375L150.047 129.2C144.131 130.617 138.186 127.028 136.666 121.164L135.496 121.468ZM150.328 130.375C156.886 128.804 160.957 122.271 159.514 115.713L158.333 115.973C159.635 121.889 155.963 127.782 150.047 129.2L150.328 130.375ZM158.784 115.255L158.782 115.255L159.064 116.431L159.066 116.431L158.784 115.255ZM158.298 115.821L158.337 115.983L159.513 115.702L159.474 115.539L158.298 115.821Z" fill="black"/>
</g>
</g>
<path d="M154.352 119.068C154.326 118.755 154.007 118.581 153.736 118.688C153.097 118.94 150.983 119.741 149.492 119.946C147.856 120.171 145.379 119.897 144.662 119.808C144.371 119.772 144.111 120.023 144.161 120.327C144.26 120.923 144.462 121.498 144.761 122.024C145.094 122.611 145.539 123.127 146.071 123.542C146.603 123.957 147.212 124.263 147.862 124.442C148.513 124.622 149.192 124.672 149.862 124.589C150.531 124.506 151.178 124.292 151.765 123.96C152.352 123.627 152.868 123.181 153.283 122.649C153.698 122.117 154.004 121.509 154.184 120.858C154.345 120.275 154.402 119.669 154.352 119.068Z" fill="black" stroke="black" stroke-width="0.513524"/>
<mask id="mask19_13727_31340" style="mask-type:alpha" maskUnits="userSpaceOnUse" x="144" y="118" width="11" height="7">
<path d="M154.029 118.895C154.107 119.526 154.06 120.165 153.891 120.777C153.722 121.389 153.434 121.962 153.043 122.463C152.653 122.964 152.167 123.383 151.615 123.696C151.062 124.009 150.453 124.211 149.823 124.289C149.193 124.367 148.553 124.32 147.941 124.151C147.329 123.981 146.756 123.693 146.255 123.303C145.755 122.912 145.336 122.427 145.022 121.874C144.709 121.322 144.508 120.713 144.43 120.083L154.029 118.895Z" fill="#171921"/>
</mask>
<g mask="url(#mask19_13727_31340)">
<path d="M150.308 128.185C152.089 127.964 153.355 126.342 153.134 124.561C152.914 122.78 151.291 121.515 149.51 121.735C147.729 121.955 146.464 123.578 146.685 125.359C146.905 127.14 148.527 128.405 150.308 128.185Z" fill="#FC909F"/>
</g>
<path d="M150.585 106.356C151.442 105.953 153.457 105.585 154.666 107.338" stroke="black" stroke-width="0.513524" stroke-linecap="round"/>
<path d="M139.188 110.18C139.501 109.287 140.651 107.592 142.749 107.958" stroke="black" stroke-width="0.513524" stroke-linecap="round"/>
<path opacity="0.35" d="M154.815 102.722C153.606 101.755 151.515 101.664 150.659 101.74L149.45 97.7346C151.505 98.2183 154.286 101.362 154.815 102.722Z" fill="#717376"/>
<path d="M139.371 92.8359C139.371 92.8359 140.238 92.2372 143.898 91.3151C147.558 90.393 148.893 90.7533 148.893 90.7533L150.674 101.761C150.674 101.761 149.459 101.734 146.438 102.394C143.416 103.054 141.97 103.855 141.97 103.855L139.371 92.8359Z" fill="#171921"/>
<path d="M133.808 104.158C132.78 97.8705 137.334 93.8554 139.4 92.7471L141.969 103.855C139.067 97.8705 135.117 101.563 133.808 104.158Z" fill="#171921"/>
<path opacity="0.35" d="M136.604 110.807C135.515 106.697 139.929 104.485 141.969 103.855C140.911 101.387 138.493 99.1701 135.546 101.891C132.825 106.5 133.883 110.052 134.714 112.772L136.604 110.807Z" fill="#717376"/>
<path fill-rule="evenodd" clip-rule="evenodd" d="M141.268 112.534C141.285 112.657 141.442 112.684 141.528 112.595C141.901 112.215 142.474 111.936 143.139 111.857C143.531 111.81 143.908 111.839 144.244 111.928C144.358 111.958 144.47 111.862 144.43 111.751C144.179 111.049 143.468 110.588 142.696 110.679C141.798 110.786 141.157 111.6 141.264 112.498C141.265 112.51 141.266 112.522 141.268 112.534Z" fill="black"/>
<path fill-rule="evenodd" clip-rule="evenodd" d="M150.953 111.022C150.97 111.145 151.126 111.173 151.213 111.084C151.582 110.709 152.149 110.433 152.807 110.355C153.194 110.308 153.567 110.337 153.9 110.425C154.013 110.455 154.126 110.359 154.086 110.248C153.835 109.553 153.132 109.097 152.368 109.188C151.479 109.294 150.843 110.101 150.949 110.99C150.95 111.001 150.952 111.012 150.953 111.022Z" fill="#171921"/>
<path d="M147.758 113.415C148.547 113.115 149.923 113.206 149.838 114.732C149.763 116.089 148.371 116.358 147.928 116.042" stroke="black" stroke-width="0.513524"/>
<path d="M136.305 113.604C135.952 113.488 135.572 113.426 135.183 113.426C133.597 113.426 132.312 114.409 132.463 116.222C132.62 118.112 133.748 118.792 135.334 118.792C135.511 118.792 135.684 118.776 135.851 118.746C136.034 118.714 136.211 118.665 136.38 118.6" stroke="#171921" stroke-width="1.02705"/>
<path d="M136.456 118.57C136.111 118.713 135.732 118.792 135.334 118.792C133.748 118.792 132.62 118.112 132.463 116.222C132.312 114.409 133.597 113.426 135.183 113.426C135.657 113.426 136.118 113.518 136.531 113.688L136.456 118.57Z" fill="#AC6651"/>
<path d="M135.849 114.711C135.244 114.434 133.914 114.288 133.431 115.92" stroke="#171921" stroke-width="0.513524"/>
<path d="M134.266 114.786C134.594 115.063 135.218 115.92 135.097 117.129" stroke="#171921" stroke-width="0.513524"/>
<path d="M146.17 140.717C146.17 140.717 146.17 140.717 146.355 140.479L146.17 140.717L146.43 140.92L146.609 140.643L146.609 140.643L146.611 140.641C146.612 140.639 146.614 140.635 146.617 140.631C146.619 140.627 146.622 140.623 146.626 140.618C146.631 140.611 146.636 140.602 146.642 140.593C146.665 140.559 146.699 140.508 146.744 140.444C146.833 140.316 146.963 140.132 147.129 139.912C147.46 139.471 147.93 138.889 148.482 138.32C149.036 137.75 149.665 137.202 150.315 136.821C150.967 136.438 151.611 136.24 152.209 136.32C158.623 137.185 163.343 140.026 166.407 144.257H125.102C127.565 139.823 131.069 137 136.75 135.705C136.992 135.65 137.321 135.667 137.733 135.762C138.14 135.857 138.604 136.023 139.105 136.243C140.107 136.684 141.225 137.326 142.275 137.991C143.324 138.655 144.298 139.337 145.011 139.853C145.367 140.111 145.657 140.328 145.858 140.479C145.958 140.555 146.037 140.615 146.09 140.655C146.1 140.664 146.11 140.671 146.118 140.678C146.131 140.688 146.142 140.696 146.15 140.702C146.156 140.707 146.161 140.711 146.165 140.714L146.168 140.717L146.169 140.717H146.17Z" fill="#6BD9E9"/>
<path d="M146.17 140.717C146.17 140.717 146.17 140.717 146.355 140.479L146.17 140.717ZM146.17 140.717L146.43 140.92L146.609 140.643L146.609 140.643L146.611 140.641C146.612 140.639 146.614 140.635 146.617 140.631C146.619 140.627 146.622 140.623 146.626 140.618C146.631 140.611 146.636 140.602 146.642 140.593C146.665 140.559 146.699 140.508 146.744 140.444C146.833 140.316 146.963 140.132 147.129 139.912C147.46 139.471 147.93 138.889 148.482 138.32C149.036 137.75 149.665 137.202 150.315 136.821C150.967 136.438 151.611 136.24 152.209 136.32C158.623 137.185 163.343 140.026 166.407 144.257H125.102C127.565 139.823 131.069 137 136.75 135.705C136.992 135.65 137.321 135.667 137.733 135.762C138.14 135.857 138.604 136.023 139.105 136.243C140.107 136.684 141.225 137.326 142.275 137.991C143.324 138.655 144.298 139.337 145.011 139.853C145.367 140.111 145.657 140.328 145.858 140.479C145.958 140.555 146.037 140.615 146.09 140.655C146.1 140.664 146.11 140.671 146.118 140.678C146.131 140.688 146.142 140.696 146.15 140.702C146.156 140.707 146.161 140.711 146.165 140.714L146.168 140.717L146.169 140.717H146.17Z" stroke="black" stroke-width="0.513524"/>
<path d="M134.962 136.109L135.743 133.202C135.774 133.085 135.926 133.051 136.009 133.141C138.255 135.599 141.09 135.503 142.031 135.39C142.158 135.375 142.258 135.515 142.198 135.629L140.21 139.4C140.179 139.458 140.117 139.49 140.053 139.476C139.456 139.352 136.483 138.625 134.979 136.227C134.957 136.192 134.951 136.149 134.962 136.109Z" fill="#D2EFF3" stroke="black" stroke-width="0.513524"/>
<path d="M154.697 136.093L152.947 133.149C152.888 133.049 152.741 133.051 152.678 133.148C151.811 134.483 150.315 135.099 149.792 135.281C149.698 135.313 149.655 135.425 149.706 135.511L151.747 138.959C151.777 139.01 151.835 139.038 151.892 139.022C152.215 138.93 153.322 138.467 154.695 136.25C154.725 136.203 154.726 136.142 154.697 136.093Z" fill="#D2EFF3" stroke="black" stroke-width="0.513524"/>
<path d="M143.56 138.742L142.2 135.492L141.142 137.759L143.56 138.742Z" fill="black" stroke="black" stroke-width="0.513524" stroke-linejoin="round"/>
<path d="M148.321 138.59L149.681 135.34L150.739 137.607L148.321 138.59Z" fill="black" stroke="black" stroke-width="0.513524" stroke-linejoin="round"/>
<path d="M137.664 132.621L135.851 133.074L137.362 134.056L137.664 132.621Z" fill="black" stroke="black" stroke-width="0.513524" stroke-linejoin="round"/>
<path d="M151.189 132.621L152.852 133.074L151.794 134.056L151.189 132.621Z" fill="black" stroke="black" stroke-width="0.513524" stroke-linejoin="round"/>
</g>
</g>
<path d="M5.58594 385.964V469.264L77.6859 510.964L149.886 469.264V385.964L77.6859 344.364L5.58594 385.964Z" fill="#283375"/>
<path d="M229.486 126.764V188.964L283.386 220.064L337.286 188.964V126.764L283.386 95.6641L229.486 126.764Z" fill="#D4A34A"/>
<path d="M428.586 107.664L476.217 136.914V195.414L428.586 224.664L380.955 195.414V136.914L428.586 107.664Z" fill="#F4D150"/>
<g clip-path="url(#clip7_13727_31340)">
<path d="M421.842 218.221C425.331 213.375 428.061 201.583 428.385 196.898L444.983 189.75L451.889 218.221H421.842Z" fill="#FC909F" stroke="black" stroke-width="0.969238"/>
<mask id="mask20_13727_31340" style="mask-type:alpha" maskUnits="userSpaceOnUse" x="421" y="189" width="31" height="30">
<path d="M421.841 218.22C425.33 213.374 428.06 201.582 428.383 196.897L444.981 189.749L451.887 218.22H421.841Z" fill="#FFEDEF"/>
</mask>
<g mask="url(#mask20_13727_31340)">
<path d="M429.095 202.357C421.2 202.357 414.799 196.499 414.799 189.272C414.799 182.046 421.2 176.187 429.095 176.187C436.991 176.187 443.392 182.046 443.392 189.272C443.392 196.499 436.991 202.357 429.095 202.357Z" fill="black"/>
</g>
<mask id="mask21_13727_31340" style="mask-type:luminance" maskUnits="userSpaceOnUse" x="410" y="138" width="50" height="78">
<path d="M410.686 138.386H459.148V215.925H410.686V138.386Z" fill="white"/>
</mask>
<g mask="url(#mask21_13727_31340)">
<path d="M421.834 215.805C425.323 210.958 428.053 201.589 428.376 196.904L444.975 189.756L451.88 215.805H421.834Z" fill="#F9C9B6" stroke="black" stroke-width="0.969238"/>
<mask id="mask22_13727_31340" style="mask-type:alpha" maskUnits="userSpaceOnUse" x="421" y="189" width="31" height="30">
<path d="M421.854 218.228C425.344 213.382 428.074 201.59 428.397 196.905L444.995 189.757L451.901 218.228H421.854Z" fill="#F9C9B6"/>
</mask>
<g mask="url(#mask22_13727_31340)">
<g style="mix-blend-mode:multiply">
<path d="M429.11 202.356C421.214 202.356 414.814 196.498 414.814 189.271C414.814 182.045 421.214 176.187 429.11 176.187C437.006 176.187 443.406 182.045 443.406 189.271C443.406 196.498 437.006 202.356 429.11 202.356Z" fill="black"/>
</g>
</g>
<path fill-rule="evenodd" clip-rule="evenodd" d="M414.596 174.955C414.603 174.927 414.609 174.899 414.616 174.871C414.623 174.843 414.63 174.814 414.636 174.786L418.61 158.203C418.613 158.187 418.617 158.171 418.621 158.154C418.625 158.138 418.629 158.122 418.633 158.105L418.651 158.032L418.651 158.032C421.127 147.989 431.25 141.814 441.324 144.228C451.398 146.641 457.623 156.733 455.279 166.807L455.28 166.807L451.163 183.992L451.159 183.991C448.59 193.902 438.542 199.969 428.543 197.573C418.543 195.177 412.335 185.216 414.537 175.216L414.534 175.216L414.596 174.955Z" fill="#F9C9B6"/>
<mask id="mask23_13727_31340" style="mask-type:luminance" maskUnits="userSpaceOnUse" x="414" y="143" width="42" height="56">
<path fill-rule="evenodd" clip-rule="evenodd" d="M414.583 174.956C414.59 174.928 414.597 174.9 414.603 174.872C414.61 174.843 414.617 174.815 414.624 174.787L418.597 158.204C418.601 158.188 418.605 158.172 418.609 158.155C418.613 158.139 418.616 158.123 418.62 158.106L418.638 158.032L418.638 158.032C421.114 147.99 431.237 141.815 441.311 144.229C451.385 146.642 457.61 156.734 455.267 166.808L455.267 166.808L451.15 183.993L451.147 183.992C448.577 193.903 438.53 199.97 428.53 197.574C418.53 195.178 412.323 185.217 414.524 175.217L414.521 175.217L414.583 174.956Z" fill="white"/>
</mask>
<g mask="url(#mask23_13727_31340)">
<path d="M414.588 174.958L415.531 175.179L415.531 175.181L415.53 175.184L414.588 174.958ZM414.628 174.789L415.57 175.015L415.57 175.017L415.569 175.019L414.628 174.789ZM418.601 158.206L419.544 158.429L419.544 158.431L419.544 158.432L418.601 158.206ZM418.625 158.108L419.567 158.334L419.567 158.335L419.566 158.336L418.625 158.108ZM418.642 158.034L417.7 157.808L417.925 156.867L418.867 157.091L418.642 158.034ZM418.643 158.034L419.584 158.266L419.353 159.2L418.418 158.977L418.643 158.034ZM455.271 166.81L455.044 167.752L454.109 167.527L454.327 166.59L455.271 166.81ZM455.271 166.81L455.498 165.868L456.439 166.095L456.214 167.036L455.271 166.81ZM451.154 183.994L452.097 184.22L451.871 185.163L450.929 184.937L451.154 183.994ZM451.151 183.994L450.213 183.75L450.451 182.829L451.376 183.051L451.151 183.994ZM414.528 175.219L414.754 174.277L415.679 174.498L415.475 175.427L414.528 175.219ZM414.525 175.218L414.299 176.161L413.357 175.935L413.583 174.992L414.525 175.218ZM413.644 174.736C413.651 174.707 413.658 174.677 413.665 174.648L415.55 175.099C415.544 175.126 415.537 175.152 415.531 175.179L413.644 174.736ZM413.665 174.648C413.672 174.618 413.679 174.589 413.686 174.559L415.569 175.019C415.563 175.046 415.556 175.073 415.55 175.099L413.665 174.648ZM419.544 158.432L415.57 175.015L413.685 174.563L417.659 157.98L419.544 158.432ZM417.658 157.983C417.662 157.966 417.666 157.948 417.67 157.931L419.555 158.383C419.552 158.398 419.548 158.414 419.544 158.429L417.658 157.983ZM417.67 157.931C417.674 157.914 417.678 157.897 417.683 157.88L419.566 158.336C419.563 158.352 419.559 158.367 419.555 158.383L417.67 157.931ZM419.585 158.26L419.567 158.334L417.682 157.882L417.7 157.808L419.585 158.26ZM418.418 158.977L418.418 158.977L418.867 157.091L418.867 157.091L418.418 158.977ZM417.702 157.802C420.305 147.243 430.949 140.75 441.541 143.288L441.089 145.173C431.534 142.884 421.932 148.741 419.584 158.266L417.702 157.802ZM441.541 143.288C452.133 145.826 458.679 156.437 456.215 167.03L454.327 166.59C456.55 157.035 450.645 147.462 441.089 145.173L441.541 143.288ZM455.044 167.752L455.044 167.752L455.498 165.868L455.498 165.868L455.044 167.752ZM450.212 183.769L454.329 166.584L456.214 167.036L452.097 184.22L450.212 183.769ZM451.376 183.051L451.38 183.052L450.929 184.937L450.925 184.936L451.376 183.051ZM452.089 184.237C449.387 194.659 438.823 201.038 428.308 198.518L428.76 196.633C438.245 198.906 447.776 193.151 450.213 183.75L452.089 184.237ZM428.308 198.518C417.794 195.999 411.267 185.525 413.582 175.011L415.475 175.427C413.387 184.912 419.275 194.361 428.76 196.633L428.308 198.518ZM414.751 174.276L414.754 174.277L414.302 176.162L414.299 176.161L414.751 174.276ZM415.53 175.184L415.468 175.444L413.583 174.992L413.645 174.732L415.53 175.184Z" fill="black"/>
</g>
</g>
<path d="M437.469 181.397C436.863 185.517 429.957 187.455 423.657 182.73" stroke="black" stroke-width="0.969238"/>
<path d="M427.896 160.005C426.522 159.359 423.292 158.769 421.353 161.58" stroke="black" stroke-width="0.969238" stroke-linecap="round"/>
<path d="M446.17 166.137C445.669 164.704 443.824 161.987 440.461 162.575" stroke="black" stroke-width="0.969238" stroke-linecap="round"/>
<path d="M436.67 139.717L436.651 139.719L436.633 139.719C430.171 139.91 425.147 142.481 421.592 145.62C418.186 148.627 416.152 152.132 415.489 154.52C416.473 155.082 418.158 155.565 420.307 155.961C422.652 156.394 425.467 156.709 428.339 156.934C434.083 157.384 440.016 157.469 442.787 157.408L444.258 157.376L443.094 158.276C442.489 158.744 441.683 159.07 440.831 159.298C439.973 159.529 439.033 159.67 438.134 159.751C437.207 159.834 436.304 159.853 435.555 159.834C438.121 161.812 441.386 163.332 444.605 164.459C448.324 165.761 451.94 166.524 454.256 166.864L454.777 166.94L454.658 167.453C453.847 170.949 452.356 177.06 451.356 181.159C450.912 182.978 450.565 184.401 450.417 185.023C450.154 186.126 449.327 187.699 448.383 189.149C447.512 190.486 446.497 191.787 445.64 192.589L447.539 200.297H454.702C452.681 197.217 452.255 193.657 452.667 189.882C453.113 185.796 454.548 181.4 456.06 176.999C456.209 176.566 456.358 176.133 456.508 175.699C457.885 171.711 459.259 167.734 460.003 163.922C460.827 159.7 460.864 155.749 459.316 152.275C456.811 146.65 452.37 143.383 447.928 141.583C443.476 139.779 439.055 139.463 436.67 139.717Z" fill="white" stroke="black" stroke-width="0.969238"/>
<path d="M439.92 171.07C438.724 170.928 437.883 169.736 438.041 168.407C438.199 167.078 439.296 166.116 440.492 166.258C441.688 166.4 442.53 167.592 442.372 168.921C442.214 170.25 441.116 171.212 439.92 171.07Z" fill="black"/>
<path d="M424.428 168.648C423.23 168.516 422.378 167.331 422.525 166.001C422.671 164.671 423.76 163.699 424.957 163.831C426.154 163.962 427.006 165.148 426.86 166.478C426.714 167.808 425.625 168.78 424.428 168.648Z" fill="black"/>
<path d="M431.715 168.92C431.243 172.28 429.192 174.683 429.192 174.683C429.192 174.683 429.83 176.241 432.297 176.098" stroke="black" stroke-width="0.969238"/>
<path d="M449.342 180.576L449.212 180.436V180.246V172.129V171.857L449.443 171.715C450.348 171.16 451.448 170.857 452.585 170.857C453.952 170.857 455.231 171.28 456.143 172.14C457.064 173.009 457.562 174.28 457.43 175.864C457.301 177.408 456.783 178.544 455.923 179.299C455.994 179.542 456.014 179.803 455.982 180.077C455.887 180.869 455.487 181.44 454.868 181.791C454.279 182.127 453.524 182.245 452.72 182.245C451.392 182.245 450.228 181.531 449.342 180.576Z" stroke="black" stroke-width="0.969238"/>
<path fill-rule="evenodd" clip-rule="evenodd" d="M447.771 175.943C447.754 175.785 447.745 175.624 447.745 175.462C447.745 172.986 450.049 171.343 452.591 171.343C455.134 171.343 457.195 172.918 456.953 175.825C456.818 177.443 456.239 178.508 455.341 179.149C455.484 179.397 455.546 179.689 455.507 180.021C455.354 181.301 454.262 181.762 452.726 181.762C450.035 181.762 447.906 178.358 447.771 175.943Z" fill="#F9C9B6"/>
<path d="M451.521 173.399C452.49 172.955 454.622 172.721 455.397 175.338" stroke="black" stroke-width="0.969238"/>
<path d="M454.061 173.521C453.536 173.966 452.534 175.339 452.728 177.277" stroke="black" stroke-width="0.969238"/>
<path d="M425.331 208.04L425.298 208.047L425.263 208.05C414.086 208.972 407.384 213.937 402.52 220.773H468.748C464.798 213.663 459.181 209.138 450.073 207.061C446.193 206.177 441.673 205.736 436.369 205.736C434.078 205.736 432.295 206.085 430.603 206.546C429.976 206.717 429.346 206.908 428.702 207.104C427.635 207.428 426.529 207.764 425.331 208.04Z" fill="#77311D" stroke="black" stroke-width="0.969238"/>
<path d="M452.87 207.586L450.652 202.837C450.599 202.724 450.467 202.67 450.349 202.711C441.159 205.965 432.799 205.736 425.051 203.579C424.954 203.551 424.849 203.587 424.79 203.669L421.414 208.286C421.321 208.413 421.368 208.592 421.515 208.649C429.658 211.846 444.938 211.303 452.752 207.906C452.876 207.852 452.927 207.708 452.87 207.586Z" fill="white" stroke="black" stroke-width="0.969238"/>
</g>
<path d="M428.986 77.9641L350.786 123.164V213.464L428.986 258.664L507.186 213.464V123.164L428.986 77.9641ZM473.786 194.164L428.986 220.064L384.186 194.164V142.364L428.986 116.464L473.786 142.364V194.164Z" fill="#283375"/>
</g>
</g>
</g>
<defs>
<clipPath id="clip0_13727_31340">
<rect width="587" height="536" fill="white" transform="translate(0.585938 0.664062)"/>
</clipPath>
<clipPath id="clip1_13727_31340">
<rect width="1440" height="631" fill="white" transform="translate(-852.414 -94.3359)"/>
</clipPath>
<clipPath id="clip2_13727_31340">
<rect width="501.6" height="496.1" fill="white" transform="translate(5.58594 19.6641)"/>
</clipPath>
<clipPath id="clip3_13727_31340">
<rect width="38" height="46.5983" fill="white" transform="translate(214.587 415.664)"/>
</clipPath>
<clipPath id="clip4_13727_31340">
<rect width="45.4949" height="52" fill="white" transform="matrix(-1 0 0 1 372.083 295.664)"/>
</clipPath>
<clipPath id="clip5_13727_31340">
<rect width="42.5989" height="53" fill="white" transform="translate(153.584 248.664)"/>
</clipPath>
<clipPath id="clip6_13727_31340">
<rect width="42.413" height="53.1401" fill="white" transform="translate(124.584 90.6641)"/>
</clipPath>
<clipPath id="clip7_13727_31340">
<rect width="68" height="84.6031" fill="white" transform="matrix(-1 0 0 1 469.584 135.443)"/>
</clipPath>
</defs>
</svg>
