<svg width="438" height="411" viewBox="0 0 438 411" fill="none" xmlns="http://www.w3.org/2000/svg">
<path d="M328.243 320.064C328.764 311.493 329.323 302.922 329.845 294.351C330.255 288.087 331.82 281.97 332.937 275.817C335.098 263.766 337.408 251.788 339.681 239.774C339.83 239.261 339.308 238.858 339.42 238.382C339.718 236.294 340.24 234.243 340.612 232.155C340.724 231.679 340.836 231.203 340.873 230.69C342.065 223.51 343.556 216.368 344.823 209.188C345.046 207.906 345.381 206.661 346.76 206.075C347.468 205.819 348.213 205.819 348.958 205.855C354.92 206.185 360.918 206.441 366.879 206.624C367.252 206.624 367.625 206.734 367.96 206.881C369.003 207.723 368.668 208.895 368.668 209.921C368.705 214.793 369.525 215.855 374.256 217.283C377.461 218.236 380.777 218.529 384.13 218.675C385.099 218.712 386.105 218.529 387.036 219.005C387.558 219.481 387.334 220.031 387.036 220.507C384.875 224.206 384.912 228.126 385.881 232.118C386.216 233.364 385.21 234.682 386.179 235.854C386.104 238.455 386.067 241.092 386.179 243.693C386.254 245.854 387.111 247.063 388.824 247.576C389.383 247.759 389.644 248.382 390.24 248.528C391.283 248.894 392.364 249.004 393.444 249.041C393.929 249.261 394.376 249.48 394.935 249.407C398.996 249.224 401.231 247.502 402.237 243.656C403.541 238.748 404.249 233.73 405.292 228.785C405.479 227.943 405.218 226.734 406.559 226.477C407.416 227.796 407.193 229.371 407.565 230.836C407.677 231.239 407.714 231.642 407.751 232.045C408.012 233.986 408.273 235.964 408.497 237.942C408.497 238.418 408.608 238.931 408.348 239.371C408.534 243.84 409.465 248.235 410.024 252.667C410.546 256.916 411.142 261.165 411.738 265.414C412.297 269.37 412.856 273.289 413.377 277.245C414.085 282.337 414.719 287.428 415.464 292.483C415.948 295.889 416.507 299.259 416.991 302.666C417.103 302.812 417.215 302.995 417.29 303.179C417.439 303.765 417.588 304.351 417.737 304.9C419.562 317.867 421.351 330.797 423.065 343.763C423.325 345.632 423.586 347.5 423.772 349.368C423.996 351.529 424.033 353.69 424.369 355.851C424.927 362.701 426.194 369.44 426.977 376.253C427.275 378.817 427.237 378.817 424.629 378.927C424.219 379.074 423.81 379.294 423.363 379.294C422.133 379.367 420.904 379.33 419.674 379.33C412.148 379.44 404.584 379.367 397.058 379.367C395.158 379.367 393.221 379.367 391.321 379.477C388.713 379.294 386.104 379.403 383.534 379.367C381.149 379.33 380.888 379.074 380.553 376.839C379.92 372.224 380.33 367.609 380.255 362.957C380.33 362.151 380.292 361.382 379.994 360.613C379.882 360.21 379.845 359.77 379.845 359.331C380.031 352.628 379.584 345.961 379.361 339.258C379.137 333.251 379.435 327.207 378.802 321.2C378.802 320.87 378.802 320.504 378.765 320.174C378.951 312.849 378.429 305.559 378.28 298.234C378.094 288.93 377.796 279.589 377.535 270.286C377.312 261.714 376.902 253.107 376.864 244.535C376.864 243.693 376.79 242.851 376.678 241.971C376.529 240.689 376.119 239.847 374.517 239.847C372.952 239.847 372.356 240.506 372.058 241.935C369.338 255.195 366.507 268.454 363.824 281.714C363.452 283.582 363.154 285.45 362.595 287.245C360.955 292.593 362.036 297.904 362.52 303.215C363.004 308.783 363.787 314.35 364.159 319.955C364.122 320.614 364.197 321.237 364.383 321.859C365.911 334.13 367.289 346.437 369.003 358.708C369.078 359.367 369.227 360.027 369.301 360.686C369.338 361.016 369.338 361.345 369.376 361.675C370.121 366.547 370.717 371.418 371.462 376.29C371.835 378.708 371.35 379.294 368.891 379.33C366.283 379.367 363.712 379.367 361.104 379.33C359.912 379.294 359.055 379.66 358.683 380.795C358.534 381.015 358.347 381.052 358.086 380.979C357.379 379.55 356.186 379.33 354.696 379.33C346.462 379.367 338.191 379.403 329.957 379.33C329.733 379.33 329.509 379.33 329.249 379.33C328.392 379.403 327.535 379.367 326.641 379.367C324.405 379.294 323.772 378.817 323.995 376.656C324.48 371.711 324.405 366.73 325.076 361.785C325.076 361.455 325.076 361.089 325.076 360.759C325.225 355.814 325.635 350.906 325.933 345.998C326.231 341.016 326.566 336.035 326.864 331.053C327.013 328.306 327.311 325.595 327.423 322.848C327.87 321.933 327.721 320.907 328.243 320.064Z" fill="#8F3600"/>
<path d="M49.106 159.519C49.0687 158.787 49.0315 158.091 49.0315 157.358C48.7334 156.626 49.1432 155.82 48.7334 155.124C48.6961 154.391 48.6589 153.695 48.6589 152.963C48.3608 152.23 48.7707 151.424 48.3608 150.728C48.3236 149.996 48.2863 149.3 48.2863 148.567C47.9883 147.835 48.3981 147.029 47.9882 146.333C47.951 145.6 47.9137 144.904 47.9137 144.172C47.6157 143.439 48.0255 142.633 47.6157 141.937C47.5784 141.205 47.5412 140.509 47.5412 139.776C47.2431 139.044 47.6529 138.238 47.2431 137.542C47.0568 133.696 47.3176 129.96 49.8138 126.736C50.4472 125.931 51.0806 125.125 51.6767 124.319C51.9003 124.172 51.9376 123.953 52.0866 123.733C52.3474 123.367 52.6455 123.11 53.018 122.854C55.5143 120.949 58.3087 119.85 61.4756 119.484C63.3757 119.264 65.2759 118.971 67.1015 118.422C67.5486 118.385 67.8094 118.678 68.1075 118.934C77.6828 117.469 87.1463 115.418 96.6843 113.697C103.465 112.451 110.283 111.059 117.139 110.29C121.982 109.741 126.9 110.18 131.781 110.18C132.601 110.18 132.824 110.546 132.824 111.279C132.787 113.11 132.787 114.942 132.787 116.737C132.601 117.836 132.489 118.971 132.452 120.107C132.489 121.498 132.415 122.854 132.079 124.209C132.005 124.392 131.893 124.575 131.744 124.685C127.161 124.942 125.112 127.103 125.075 131.645C125.075 137.102 125.112 142.56 125.038 148.055C125 150.838 125.932 153.036 128.391 154.501C129.173 156.113 128.54 157.761 128.353 159.336C126.602 173.585 124.888 187.797 122.914 202.009C122.877 202.265 122.877 202.485 122.877 202.742C121.014 216.771 119.151 230.799 117.362 244.828C115.723 257.649 114.121 270.469 112.668 283.325C111.848 290.468 111.029 297.611 110.321 304.937C112.184 302.482 113.525 299.918 114.233 297.025C117.623 283.289 121.312 269.59 124.814 255.854C127.31 246.074 129.881 236.367 132.34 226.587C132.675 225.268 133.085 224.17 134.836 224.17C136.923 224.133 137.556 224.682 137.892 226.697C138.525 230.323 138.339 233.986 138.488 237.649C138.786 244.462 139.121 251.275 139.419 258.088C139.717 264.608 139.866 271.128 140.388 277.611C140.611 280.468 140.649 283.325 140.76 286.183C140.984 293.069 141.617 299.918 141.58 306.805C141.58 308.197 141.99 309.588 141.953 310.98C141.915 311.823 142.064 312.702 141.356 313.398C140.425 313.911 139.419 313.764 138.45 313.801C129.844 313.801 121.2 313.801 112.593 313.801C109.538 313.801 109.389 313.947 109.24 316.987C109.203 318.013 109.017 319.039 108.83 320.064C108.793 320.431 108.719 320.76 108.532 321.09C108.085 321.713 107.415 321.786 106.707 321.823C104.62 321.859 102.534 322.006 100.447 321.676C99.7767 321.456 99.106 321.493 98.4354 321.529C87.9659 321.603 77.5337 321.456 67.0643 321.127C66.021 321.09 64.9406 321.31 64.0091 320.614C60.3951 320.577 56.7439 320.467 53.1298 320.541C51.714 320.577 51.863 319.991 52.1611 319.075C54.0985 313.251 55.9987 307.391 57.9361 301.567C58.4949 299.845 59.0165 298.124 59.5754 296.439C60.2088 295.816 60.954 296.036 61.6619 296.146C69.5978 297.244 77.4965 298.27 85.4324 299.406C87.9659 299.772 90.4995 299.955 92.9585 298.966C97.2431 297.244 99.6277 293.984 100.261 289.552C102.385 274.901 104.546 260.249 106.52 245.561C107.303 239.737 102.497 234.169 95.9764 233.327C91.1329 232.704 86.2893 231.898 81.4085 231.386C80.8497 231.312 80.2908 231.312 79.9555 230.763C82.1165 225.745 83.4578 220.507 85.1716 215.342C86.8855 210.177 88.5248 205.013 90.0896 199.811C90.2387 199.445 90.3504 199.042 90.4622 198.676C90.8721 197.321 91.3191 196.002 91.7662 194.683C92.1388 193.475 91.7662 192.998 90.4994 193.035C86.2893 193.072 82.0792 193.072 77.869 193.035C75.8571 192.998 73.7707 193.328 71.796 192.779C71.5352 192.559 71.1998 192.339 71.6842 192.009C78.6142 191.973 85.5442 192.009 90.723 191.973C85.5814 191.936 78.6887 192.009 71.796 191.936C71.5352 191.899 71.4234 191.753 71.4234 191.46C72.1313 190.654 73.1373 190.874 74.0315 190.874C79.4711 190.837 84.9481 190.874 90.3877 190.874C92.9958 190.874 93.2193 190.727 93.7409 188.237C95.4921 179.739 97.2059 171.277 98.9197 162.779C99.1433 161.754 99.2551 160.728 99.5904 159.739C99.6277 159.446 99.6649 159.116 99.7394 158.823C100.186 157.029 100.485 155.161 100.932 153.366C101.304 152.084 101.49 150.802 101.677 149.483C102.124 147.981 102.422 146.406 102.72 144.831C102.832 144.208 102.906 143.549 101.9 143.622C101.602 143.622 101.304 143.696 101.043 143.769C93.4801 144.795 85.9167 145.674 78.3161 146.589C74.7021 147.029 74.5531 146.992 74.7021 150.509C75.0002 156.882 75.1865 163.292 75.7081 169.666C75.8944 172.156 75.8944 174.647 76.0434 177.138C76.2297 180.728 76.5277 184.317 76.5277 187.907C76.5277 190.508 76.1925 190.764 73.6217 190.544C72.951 190.471 72.2431 190.508 71.5725 190.434C67.1388 190.215 62.705 189.885 58.2714 189.555C56.8556 189.445 55.4398 189.409 54.024 189.335C53.8377 189.335 53.6514 189.299 53.4651 189.299C53.0553 189.226 52.6455 189.079 52.1984 189.042C52.0494 189.006 51.9003 188.933 51.8258 188.786C51.7886 188.566 51.7885 188.31 51.7512 188.09C51.4532 187.357 51.8631 186.552 51.4532 185.856C51.416 185.123 51.3786 184.427 51.3786 183.695C51.0806 182.962 51.4905 182.156 51.0807 181.46C51.0434 180.728 51.0061 180.032 51.0061 179.299C50.708 178.566 51.1179 177.761 50.7081 177.065C50.6708 176.332 50.6335 175.636 50.6335 174.904C50.3354 174.171 50.7453 173.365 50.3355 172.669C50.2982 171.937 50.2609 171.241 50.2609 170.508C49.9628 169.776 50.3728 168.97 49.9629 168.274C49.9257 167.541 49.8883 166.845 49.8883 166.113C49.5903 165.38 50.0002 164.574 49.5903 163.878C49.5531 163.146 49.5158 162.45 49.5158 161.717C49.1059 161.021 49.5158 160.215 49.106 159.519Z" fill="#6DB5DE"/>
<path d="M80.0314 230.616C85.1729 231.349 90.2773 232.155 95.4189 232.741C101.939 233.474 106.335 237.503 107.043 243.803C107.304 246.294 106.596 248.748 106.261 251.202C104.733 262.044 103.168 272.886 101.604 283.692C101.306 285.743 101.082 287.794 100.747 289.846C99.4799 297.318 93.4441 301.164 85.4709 299.955C76.8644 298.673 68.2206 297.574 59.5767 296.402C56.2608 295.926 52.9449 295.413 49.5917 294.974C46.4993 294.534 43.3696 294.204 40.2772 293.802C37.1848 293.362 34.0924 292.886 31 292.446C28.0194 292.007 25.0387 291.604 22.0581 291.201C18.7794 290.725 15.5008 290.432 12.2593 289.919C10.2847 289.626 8.34724 289.369 6.55886 288.49C2.31147 286.366 0.0760045 282.996 0.00148881 278.271C-0.035769 275.267 0.63489 272.374 1.04473 269.443C1.49182 266.33 1.78987 263.216 2.19971 260.103C2.60955 257.173 3.13115 254.279 3.54098 251.349C3.98808 248.235 4.24887 245.085 4.88226 242.008C5.85096 237.1 5.32935 231.825 8.23546 227.32C10.5082 223.84 15.4635 221.752 19.7109 222.412C25.8957 223.364 32.1178 224.17 38.3026 225.012C39.3085 225.159 39.383 224.499 39.4948 223.694C39.7556 221.166 40.2027 218.675 41.2832 216.331C43.4814 211.679 47.319 209.372 52.2743 208.529C54.1744 208.456 54.3979 208.639 54.4724 210.434C54.5097 211.13 54.5097 211.862 54.1744 212.522C53.5782 213.291 52.6469 213.218 51.8272 213.474C47.0582 214.903 43.9285 219.408 44.3383 224.28C44.4128 225.342 45.158 225.342 45.9031 225.452C49.778 226.038 53.6528 226.551 57.4904 227.1C61.775 227.686 66.0596 228.345 70.3815 228.858C72.3189 229.078 72.468 228.968 72.8406 227.1C73.2877 224.719 73.2877 222.375 72.468 220.067C72.3935 219.701 72.319 219.298 72.3935 218.932C72.9524 218.199 73.2504 217.393 72.9896 216.478C72.8405 215.965 72.8033 215.415 73.1387 214.939C73.8093 215.342 73.9583 214.243 74.5545 214.5C77.9077 217.32 78.5783 221.093 78.4665 225.159C78.4665 225.745 78.3547 226.368 78.2057 226.954C77.7213 228.639 78.0567 229.994 80.0314 230.616Z" fill="#202B6D"/>
<path d="M122.508 202.668C123.141 197.43 123.775 192.156 124.445 186.918C125.786 176.112 127.128 165.307 128.506 154.501C129.289 154.684 130.034 154.904 130.816 155.051C131.263 155.124 131.71 155.014 131.785 154.465C131.859 153.915 131.487 153.732 131.003 153.695C130.183 153.622 129.438 153.402 128.767 152.963C128.32 152.194 128.245 151.351 128.357 150.509C129.289 143.11 130.034 135.637 130.853 128.238C131.077 126.15 131.114 126.114 133.201 126.114C134.542 126.114 135.921 126.04 137.262 126.187C139.944 126.883 141.137 128.275 141.137 130.985C141.174 136.956 141.174 142.926 141.137 148.897C141.137 151.644 139.795 153.146 137.075 153.732C136.517 153.842 135.809 153.769 135.995 154.574C136.144 155.234 136.815 155.16 137.411 155.087C140.205 154.758 142.552 152.413 142.59 149.52C142.664 143.146 142.701 136.736 142.59 130.326C142.552 127.139 139.907 124.722 136.628 124.868C134.654 124.942 134.281 124.319 134.356 122.561C134.505 119.044 134.468 115.491 134.356 111.975C134.319 110.803 134.654 110.51 135.809 110.583C136.964 110.693 138.156 110.583 139.348 110.583C144.602 110.583 149.892 109.301 155.145 110.583C155.183 118.202 155.22 125.784 155.295 133.403C155.295 134.465 154.698 134.355 153.991 134.392C151.681 134.575 150.265 136.003 150.078 138.311C149.855 139.593 149.818 140.875 150.078 142.194C150.227 144.282 151.345 145.454 153.432 145.783C154.959 146.113 156.524 146.003 158.089 145.82C160.399 145.197 161.74 143.732 161.777 141.608C161.815 139.483 162.15 137.286 160.175 135.637C159.207 134.831 158.201 134.355 156.897 134.428C156.599 134.135 156.673 133.732 156.673 133.403C156.673 126.04 156.673 118.715 156.673 111.352C156.673 111.096 156.71 110.876 156.785 110.656C159.244 110.29 161.74 110.583 164.199 110.473C165.093 110.436 165.391 110.913 165.54 111.645C165.652 112.195 165.652 112.744 165.652 113.294C165.652 127.542 165.95 141.791 166.136 156.04C166.285 166.918 166.248 177.834 166.397 188.713C166.435 191.753 166.36 194.756 166.211 197.797C166.174 199.115 166.137 200.471 166.099 201.789C165.503 202.375 164.758 202.302 164.013 202.339C157.716 202.815 151.382 202.522 145.086 202.778C138.417 203.035 131.71 203.071 125.041 203.071C124.073 202.961 123.216 203.108 122.508 202.668Z" fill="black"/>
<path d="M408.722 168.017C410.101 172.889 411.256 177.87 412.933 182.669C414.758 187.833 414.237 192.815 413.044 197.906C412.858 198.712 412.672 199.555 412.374 200.324C412.187 200.763 412.076 201.459 411.256 201.166C410.325 201.459 409.43 201.35 408.499 201.13C404.699 200.324 400.824 199.738 397.023 198.969C396.166 198.785 395.309 198.676 394.453 198.822C391.211 197.467 387.783 197.65 384.393 197.467C379.81 197.21 375.265 196.954 370.682 196.698C369.266 196.624 368.856 195.745 368.595 194.573C367.068 187.797 365.466 181.02 363.901 174.244C360.846 161.058 357.753 147.871 354.773 134.685C354.586 133.879 354.139 133.036 354.884 132.267C357.157 131.571 359.504 132.011 361.852 131.938C365.838 131.864 369.788 131.864 373.774 131.938C378.804 132.011 383.834 131.938 388.864 131.974C394.713 132.011 399.818 135.491 401.42 141.095C403.544 148.494 405.816 155.82 407.754 163.255C408.238 164.83 408.611 166.405 408.722 168.017Z" fill="#202B6D"/>
<path d="M166.061 197.687C165.949 192.083 165.763 186.478 165.689 180.874C165.39 157.908 165.13 134.941 164.906 111.938C164.906 110.839 164.683 110.436 163.49 110.473C161.255 110.546 159.019 110.436 156.784 110.4C156.635 110.363 156.598 110.327 156.598 110.253C156.635 110.18 156.672 110.143 156.709 110.143C157.455 110.143 158.237 109.997 158.945 110.143C163.565 111.059 167.067 109.081 170.458 106.334C173.103 104.21 175.934 102.268 178.915 100.62C182.492 98.6053 184.951 95.675 187.335 92.4883C195.085 82.1589 202.946 71.9028 210.77 61.5734C212.335 59.4855 213.9 57.3977 215.353 55.2366C216.247 53.9179 217.104 53.2952 218.446 54.6871C218.669 54.9069 218.93 55.0534 219.191 55.2366C219.601 55.1999 219.899 55.4563 220.159 55.6761C224.146 59.2658 227.984 63.0019 232.007 66.5549C232.455 66.9578 232.939 67.3608 233.013 68.0201C233.908 68.7893 233.721 69.4852 233.051 70.3643C224.295 82.1955 215.465 93.9534 206.933 105.931C201.419 113.696 194.265 119.96 187.782 126.81C182.343 132.56 176.717 138.201 171.054 143.732C169.265 145.49 169.638 147.578 169.452 149.52C168.781 157.908 168.334 166.296 167.812 174.684C167.328 182.046 166.806 189.372 166.322 196.734C166.322 197.137 166.136 197.394 166.061 197.687Z" fill="#6DB5DE"/>
<path d="M64.0118 320.65C75.8226 320.797 87.6706 320.907 99.4813 321.053C99.8539 321.053 100.189 321.2 100.562 321.273C100.785 321.932 100.413 322.445 100.115 322.958C97.1341 327.683 94.3025 332.518 91.2101 337.17C90.763 337.976 90.2413 338.782 89.6825 339.551C84.9135 347.646 79.8464 355.558 74.7793 363.47C74.3322 364.092 73.9224 364.752 73.5126 365.374C72.2085 367.316 71.0908 369.367 69.5632 371.162C68.9671 371.272 68.52 370.905 68.0357 370.612C59.4291 365.265 50.7852 359.917 42.1786 354.532C41.657 354.203 40.6883 354.093 40.9118 353.104C45.0475 347.39 49.1831 341.639 53.2815 335.925C56.7837 331.053 60.286 326.218 63.751 321.346C63.9373 321.127 63.9373 320.87 64.0118 320.65Z" fill="#8F3600"/>
<path d="M40.9489 353.104C45.867 356.217 50.785 359.33 55.703 362.444C60.2857 365.338 64.8684 368.195 69.4511 371.052C71.3513 373.03 72.2455 375.594 73.5495 377.901C73.9221 378.671 74.2947 379.476 74.7045 380.209C75.636 382.15 76.6792 384.055 77.6107 385.96C77.7969 386.363 77.9832 386.766 77.7969 387.205C79.8834 391.271 81.9325 395.3 84.019 399.366C84.6524 402.772 84.4661 406.032 82.9757 409.256C82.3051 410.684 81.7836 411.014 80.3305 410.098C69.0041 402.992 57.6404 395.959 46.2768 388.927C38.3408 383.982 30.405 379 22.469 374.055C19.9355 372.48 19.9355 372.407 22.0965 370.356C26.94 365.814 31.7462 361.235 36.7388 356.84C38.1918 355.594 39.3841 354.166 40.9489 353.104Z" fill="black"/>
<path d="M307.903 109.045C310.697 108.935 312.709 110.18 314.125 112.525C315.988 115.638 317.665 118.898 319.043 122.268C319.304 124.942 320.981 126.956 322.061 129.264C321.912 127.982 321.241 126.92 320.832 125.748C320.683 125.345 320.161 124.978 320.683 124.502C321.092 123.184 320.869 121.828 320.906 120.51C320.981 119.081 321.428 117.872 322.732 117.14C324.446 117.433 325.377 118.458 325.712 120.07C326.756 122.158 326.085 124.429 326.271 126.59C326.197 127.103 326.383 127.616 326.346 128.165C326.718 132.158 326.532 136.187 326.644 140.216C326.681 141.095 327.016 141.864 327.277 142.707C329.662 149.849 332.158 156.919 334.729 163.988C334.841 164.501 334.766 165.051 335.027 165.527C335.362 166.516 335.735 167.468 336.219 168.384C336.592 169.409 336.964 170.472 337.262 171.497C337.56 172.559 337.188 173.109 336.07 173.329C335.139 173.475 334.244 173.658 333.313 173.695C328.917 173.841 324.52 173.439 320.124 173.988C319.565 174.061 319.006 173.951 318.484 173.732C318 173.475 317.702 173.109 317.702 172.559C317.702 171.827 317.404 171.204 317.031 170.618C314.386 163.329 311.703 156.076 309.021 148.787C308.834 148.018 308.835 147.249 308.574 146.48C305.854 138.971 303.134 131.498 300.414 123.989C300.004 122.891 299.669 121.792 299.222 120.729C297.657 116.847 298.589 113.587 301.83 110.949C302.762 110.986 302.762 111.829 302.948 112.378C303.917 115.052 304.885 117.762 305.928 120.436C306.413 121.718 306.86 122.927 304.96 123.696C308.089 122.707 310.958 121.609 313.79 120.18C311.703 120.839 311.107 119.631 310.548 118.092C309.691 115.675 308.686 113.33 307.866 110.876C307.829 110.29 307.344 109.704 307.903 109.045Z" fill="#FD9993"/>
<path d="M233.014 68.1299C228.282 63.9542 223.662 59.7418 219.191 55.3097C220.682 52.8922 222.47 50.6578 224.37 48.57C227.686 44.9803 228.953 40.4017 230.741 36.0429C231.226 34.8341 231.673 33.5521 232.269 32.38C233.051 30.8049 234.393 30.3287 235.957 30.9148C237.485 31.4642 238.23 32.9294 237.708 34.6143C237.299 36.0062 236.852 37.3615 236.404 38.7534C236.404 38.79 236.442 38.8633 236.553 39.0464C239.758 37.1051 242.962 35.2004 246.203 33.2591C246.352 32.8195 246.613 32.4166 247.06 32.1968C249.333 30.9514 251.568 29.6328 254.325 29.8892C255.965 30.0357 257.492 30.402 258.722 31.5741C259.057 32.5997 258.126 32.7829 257.567 33.1125C255.071 34.6876 252.462 36.1161 249.966 37.6912C249.594 37.9476 249.035 38.0208 248.923 38.8267C251.382 37.508 253.617 36.1161 255.853 34.7608C257.12 34.0283 258.275 33.0393 259.728 32.673C260.51 32.673 260.957 33.2224 261.479 33.6986C261.889 34.1015 262.261 34.5411 262.746 34.8707C263.006 35.0905 263.304 35.2737 263.342 35.6399C261.814 37.2882 259.69 38.0575 257.865 39.3028C256.337 40.3651 254.623 41.1709 253.17 42.3431C254.623 42.0866 255.667 41.1343 256.896 40.475C258.61 39.486 260.287 38.4604 262 37.4714C262.634 37.1051 263.23 36.5923 264.05 36.8487C265.689 37.6179 266.397 38.8633 266.322 40.6581C266.248 42.4163 265.205 43.332 263.714 44.0646C261.814 45.017 259.914 46.1158 258.312 47.5444C257.865 47.7641 257.679 48.4235 257.008 48.3136C251.717 51.7933 246.315 55.1266 241.211 58.8627C239.05 60.4378 237.522 62.9286 235.734 65.0164C234.765 66.0786 233.908 67.1043 233.014 68.1299Z" fill="#FD9993"/>
<path d="M394.712 198.676C395.048 198.017 395.607 198.237 396.128 198.31C401.195 199.262 406.225 200.214 411.293 201.167C409.988 205.416 409.318 209.775 408.684 214.17C408.498 215.745 408.424 217.357 408.126 218.932C408.051 219.518 407.79 220.067 407.79 220.653C407.269 222.595 407.567 224.756 406.486 226.587C405.368 229.957 405.108 233.474 404.325 236.88C403.766 239.298 403.356 241.788 402.723 244.169C401.68 248.089 398.774 250.103 394.638 249.957C394.116 249.187 394.563 248.418 394.712 247.686C395.457 244.499 396.389 241.349 396.836 238.089C395.942 241.092 395.197 244.133 394.377 247.173C394.191 247.905 394.191 248.785 393.445 249.297C392.216 249.957 391.173 249.261 390.055 248.858C389.645 247.722 390.167 246.697 390.39 245.671C391.061 242.777 391.881 239.92 392.365 236.99C391.471 239.517 390.837 242.118 390.204 244.719C389.943 245.818 389.98 247.063 388.974 247.869C388.676 248.382 388.341 248.491 387.857 248.089C386.776 247.209 385.882 246.111 385.807 244.755C385.658 241.825 385.547 238.858 386.105 235.928C386.404 233.144 387.447 230.507 388.006 227.759C388.266 226.551 388.639 225.342 388.639 224.06C387.857 226.148 387.41 228.346 386.813 230.507C386.627 231.239 386.627 232.118 385.733 232.521C384.019 227.906 384.69 223.547 387.26 219.408C387.708 217.43 389.123 216.002 390.167 214.353C391.173 212.778 391.918 211.167 392.216 209.335C392.738 206.441 393.371 203.584 393.967 200.727C394.042 199.958 394.004 199.152 394.712 198.676Z" fill="#FD9993"/>
<path d="M374.072 132.451C369.974 132.451 365.913 132.451 361.815 132.451C360.921 131.169 361.405 129.703 361.33 128.311C361.33 127.909 361.293 127.506 361.33 127.103C361.517 125.638 360.921 124.868 359.356 124.832C358.648 124.795 357.903 124.649 357.381 124.063C353.655 123 350.153 121.645 348.067 118.055C347.359 116.81 346.986 115.528 346.912 114.173C346.688 112.121 346.726 110.07 346.912 107.982C347.135 107.25 346.763 106.407 347.359 105.748C348.514 105.162 348.924 104.466 347.694 103.55C347.396 103.147 347.359 102.671 347.396 102.158C347.359 97.6164 348.141 93.404 352.426 90.6935C353.842 89.7778 355.22 89.6679 356.822 90.2539C361.293 91.9022 364.423 94.6128 364.758 99.5943C365.093 104.246 368.298 105.675 372.21 105.675C375.116 105.675 377.91 106.004 380.071 108.202C382.306 110.51 382.232 113.074 379.885 115.235C378.953 116.077 377.873 116.663 376.681 117.066C375.451 117.469 374.929 118.275 374.78 119.447C374.631 120.509 374.669 121.645 374.072 122.634C374.072 124.099 374.11 125.601 374.11 127.066C374.445 127.542 374.52 128.128 374.594 128.678C374.557 129.96 375.078 131.315 374.072 132.451Z" fill="#FD9993"/>
<path d="M246.949 32.7097C246.8 33.0394 246.577 33.2225 246.204 33.2958C244.751 31.9039 244.118 30.1091 243.745 28.1677C243.559 26.3363 243.559 24.5414 243.745 22.71C244.565 18.3145 247.21 15.5673 251.644 14.5784C252.277 14.2853 252.985 14.615 253.619 14.3219C257.642 14.3586 261.666 14.3586 265.69 14.4318C266.845 14.4685 266.994 13.919 266.994 12.9667C266.957 9.19388 267.031 5.42109 266.957 1.61168C266.92 0.476178 267.18 2.23511e-06 268.485 0.0366313C270.757 0.146518 273.067 0.146518 275.377 0.0366313C276.793 -0.0366268 277.24 0.549435 277.203 1.83145C277.166 5.42109 277.24 9.01074 277.166 12.637C277.128 13.9557 277.501 14.4318 278.917 14.4318C314.833 14.3952 350.75 14.3952 386.667 14.4318C388.12 14.4318 388.418 13.9557 388.418 12.637C388.343 8.93748 388.418 5.20132 388.381 1.46516C388.343 0.329661 388.679 2.23511e-06 389.834 0.0366313C392.628 0.109889 395.422 0.036629 398.217 0C398.887 0.439548 398.552 1.09887 398.552 1.64831C398.589 5.23795 398.552 8.82759 398.589 12.4172C398.589 13.0033 398.403 13.626 398.776 14.2121C401.719 14.5784 404.699 14.3219 407.68 14.3952C411.741 14.5051 415.281 15.6406 417.404 19.3035C419.714 23.2961 419.603 27.5084 417.479 31.501C415.579 35.0173 412.263 36.5191 408.239 36.4825C406.488 36.4825 404.774 36.5191 403.023 36.4825C401.756 36.4459 401.272 36.5191 401.831 38.0576C409.096 57.8372 416.324 77.6535 423.552 97.4698C427.911 109.411 432.27 121.389 436.592 133.33C436.816 133.952 437.375 134.575 436.965 135.417C436.108 135.234 435.959 134.502 435.735 133.952C433.723 128.421 431.823 122.854 429.811 117.323C427.725 111.682 425.527 106.078 423.478 100.437C421.466 94.9058 419.64 89.3382 417.553 83.8438C415.393 78.1663 413.343 72.4522 411.257 66.7381C409.245 61.2804 407.233 55.786 405.333 50.2916C403.843 46.0427 402.24 41.8303 400.676 37.618C400.452 36.9953 400.117 36.5558 399.185 36.5558C381.562 36.629 363.939 36.629 346.316 36.6656C345.683 36.629 345.087 36.5924 344.453 36.5924C318.41 36.5924 292.404 36.5924 266.361 36.5924C265.616 36.5924 264.87 36.6656 264.125 36.7023C263.566 36.2994 263.268 35.8598 263.976 35.3104C265.131 34.8708 266.323 35.0173 267.478 35.0173C310.288 35.0173 353.097 35.0173 395.907 35.0173C399.67 35.0173 399.67 35.0173 399.67 31.3178C399.67 31.0614 399.67 31.3911 399.67 31.1347C399.67 28.1677 399.67 28.1677 396.689 28.1677C376.719 28.1677 356.749 28.1677 336.741 28.1677C313.343 28.1677 289.945 28.1677 266.584 28.1677C263.119 28.1677 263.157 28.1677 263.082 31.6108C263.045 32.8196 263.529 34.2115 262.337 35.2005C262.002 34.8708 261.704 34.5045 261.368 34.1749C260.325 32.0138 260.772 29.7428 260.958 27.545C261.033 26.7758 261.703 26.4828 262.449 26.3729C263.231 26.263 264.051 26.263 264.87 26.263C309.096 26.263 353.358 26.263 397.583 26.263C401.421 26.263 401.57 26.4095 401.57 30.1823C401.57 31.2812 401.57 32.3801 401.57 33.4789C401.57 34.5412 402.091 35.0173 403.172 35.054C405.407 35.054 407.643 35.2005 409.878 34.9807C413.306 34.6511 416.138 32.1969 416.995 28.9003C417.367 27.545 417.553 26.1531 417.442 24.7246C416.995 19.1203 413.604 16.0801 407.755 16.0801C359.729 16.0801 311.704 16.0801 263.678 16.0801C260.511 16.0801 257.344 16.0435 254.177 16.0801C248.738 16.1534 245.235 19.5965 245.124 24.9077C245.086 27.2154 245.273 29.4131 246.577 31.3911C246.875 31.7207 247.061 32.1969 246.949 32.7097Z" fill="#5A83AF"/>
<path d="M374.109 122.634C373.997 120.949 374.407 119.301 374.742 117.689C374.891 116.993 375.599 116.956 376.195 116.81C377.797 116.37 379.139 115.491 380.294 114.319C381.635 112.927 381.784 110.766 380.554 109.264C378.766 107.067 376.382 106.151 373.587 106.114C371.277 106.114 369.079 106.041 366.993 104.759C365.428 103.807 364.832 102.488 364.646 100.95C364.273 97.7995 363.677 94.7592 360.808 92.7813C358.871 91.4626 356.784 89.8143 354.4 90.3271C351.68 90.9132 349.78 92.9644 348.848 95.675C348.215 97.5064 347.991 99.4111 347.768 101.352C347.731 101.645 347.768 101.975 347.47 102.158C345.16 101.682 344.266 100.144 344.34 98.2024C344.489 92.122 349.035 90.7667 353.655 89.4114C354.512 89.155 355.443 89.0451 356.374 88.862C359.951 88.6788 363.565 88.6788 367.142 88.862C370.383 89.4114 373.625 89.851 376.717 91.0963C378.692 91.9022 380.256 93.1476 381.151 94.9424C383.423 99.5943 385.733 100.217 391.247 98.3489C392.03 98.0925 392.775 97.6896 393.52 97.3599C394.638 96.8471 395.532 96.5907 395.495 98.3489C395.495 98.8617 395.756 99.3745 395.905 99.9239C396.091 101.865 396.091 103.807 395.905 105.785C395.16 109.374 393.967 112.781 391.545 115.711C387.857 120.18 383.013 122.231 377.313 122.634C376.195 122.671 375.152 122.634 374.109 122.634Z" fill="black"/>
<path d="M74.4055 214.5C73.9585 214.317 74.2938 216.111 73.4369 214.866C72.6546 214.317 72.8035 213.474 72.8035 212.705C72.729 210.764 72.8408 208.822 72.5427 206.881C72.4682 209.115 72.2447 211.35 72.58 213.584C72.8408 215.342 72.8781 217.1 72.7663 218.859C72.8036 219.078 72.8035 219.335 72.8408 219.555C72.0212 222.192 70.0093 223.181 67.5876 222.119C66.768 220.36 67.5877 218.419 66.9916 216.478C66.3955 218.492 67.4014 220.544 66.2464 222.302C65.315 222.778 64.3836 222.741 63.4522 222.412C62.4835 221.789 62.4463 220.8 62.409 219.848C62.3345 218.785 62.4463 217.686 62.26 216.295C61.4031 218.419 62.6326 220.287 61.962 222.082C60.9933 222.741 60.0619 222.228 59.1677 221.862C55.8519 220.544 53.2812 215.855 53.989 212.558C53.989 211.716 53.9146 210.873 54.0263 210.068C54.2499 208.639 53.5047 208.346 52.3125 208.419C52.7223 207.943 53.6165 208.566 53.9145 207.797C53.542 206.222 54.0635 204.573 53.6165 202.998C53.5792 202.046 53.542 201.094 53.542 200.141C53.4302 199.958 53.3184 199.811 53.2439 199.592C53.1321 199.299 53.1322 199.006 53.0949 198.676C53.2067 196.625 52.8714 194.574 52.7224 192.522C52.7224 192.083 52.6851 191.68 52.7224 191.24C52.7969 190.398 52.6106 189.482 53.2439 188.75C59.354 188.896 65.4267 189.445 71.4995 189.922C71.9094 190.361 71.9094 190.837 71.6486 191.35C71.6114 191.46 71.6486 191.57 71.6858 191.68C71.6858 191.826 71.6858 191.936 71.6858 192.083C71.7231 192.193 71.7976 192.303 71.8349 192.412C72.58 194.537 73.2506 196.661 74.1448 198.713C74.2565 199.079 74.4429 199.445 74.5546 199.812C76.4547 203.987 77.2743 208.273 75.4487 212.705C75.1879 213.474 75.0389 214.133 74.4055 214.5Z" fill="#FD9993"/>
<path d="M138.564 82.8184C138.303 82.8184 138.005 82.8184 137.744 82.7817C136.142 82.1224 137.111 80.6939 136.812 79.6316C136.85 78.1298 136.701 76.5914 136.999 75.0896C138.228 68.4232 143.519 64.7603 150.822 65.4928C151.381 65.6394 151.94 65.7492 152.499 65.8958C152.685 65.969 152.834 66.0789 152.983 66.1888C154.511 65.6027 155.218 64.1742 156.299 63.1486C159.354 60.145 166.881 58.4234 170.197 62.4893C171.463 64.0277 172.097 65.7859 172.395 67.6906C172.581 68.3133 172.581 68.8993 172.395 69.522C172.097 71.7564 170.979 73.6245 169.6 75.3827C169.004 76.2984 168.036 76.2618 167.104 76.2618C162.111 76.335 157.119 76.7379 152.126 76.6647C147.767 76.5914 144.19 78.6427 141.023 81.4631C140.315 82.0858 139.793 83.0381 138.564 82.8184Z" fill="black"/>
<path d="M138.562 82.818C140.239 81.4627 141.767 79.9243 143.63 78.7888C146.461 77.0306 149.516 75.9684 152.907 76.0783C157.751 76.2248 162.557 75.8219 167.401 75.6754C168.146 75.6387 168.854 75.4922 169.599 75.3823C169.673 76.005 169.711 76.6277 169.785 77.2504C170.083 77.9463 169.673 78.7522 170.083 79.4848C170.083 80.4737 170.046 81.4261 170.046 82.4151C168.779 83.2942 168.779 83.2942 170.269 84.5762C170.158 85.3088 170.53 86.078 170.009 86.7373C169.152 86.7739 168.332 86.7739 167.475 86.8105C166.246 87.1402 164.941 86.664 163.749 87.1036C162.333 86.9204 161.029 87.4699 159.651 87.5431C159.055 87.8362 158.347 87.4332 157.788 87.8362C155.962 87.8728 154.137 88.0559 152.348 87.8728C147.318 87.36 143.071 84.7227 138.562 82.818Z" fill="#FD9993"/>
<path d="M155.031 110.51C150.411 110.656 145.754 110.766 141.134 110.912C140.501 110.912 139.756 111.169 139.234 110.546C139.83 108.202 139.421 105.821 139.495 103.477C139.57 101.426 139.495 99.3377 139.532 97.2864C139.532 96.8835 139.346 96.3707 139.793 96.1143C140.278 95.8579 140.538 96.3707 140.874 96.6271C143.593 98.715 146.238 100.876 149.778 101.535C150.448 101.645 151.082 102.085 151.715 102.048C154.099 101.902 154.248 103.257 154.099 105.015C153.987 106.297 154.136 107.579 154.062 108.825C154.025 109.63 154.286 110.18 155.031 110.51Z" fill="#FD9993"/>
<path d="M137.038 93.4042C133.051 90.8035 132.641 88.6424 135.473 85.0162C135.584 84.7598 135.771 84.54 136.032 84.3935C136.255 84.2103 136.516 84.0638 136.777 83.9539C137.038 83.844 137.336 83.7342 137.634 83.8807C140.838 85.2359 144.042 86.6278 147.284 87.9099C148.588 88.4227 149.035 88.9355 148.625 90.4373C148.029 92.7449 147.135 94.906 146.24 97.0671C145.793 98.0927 145.309 98.3491 144.34 97.5066C143.297 96.5909 142.067 95.8217 140.987 94.906C140.13 94.1734 139.198 93.7339 138.006 93.7705C137.559 94.0635 137.261 93.8071 137.038 93.4042Z" fill="#FD9994"/>
<path d="M136.217 84.5399C135.993 84.6864 135.732 84.8329 135.509 84.9794C132.901 78.4594 128.728 73.1116 122.357 69.9249C112.148 64.7968 101.753 63.3683 91.3953 69.5952C86.738 72.4157 83.3102 76.3716 81.0002 81.2432C78.7275 86.1149 76.492 90.9866 74.1075 95.8216C73.4741 97.1402 73.6605 97.9461 74.7409 98.9351C76.6784 100.767 76.6039 100.84 75.1135 102.964C74.2939 104.1 73.5114 105.272 72.8035 106.517C72.5054 107.03 71.4622 107.726 72.58 108.312C73.4742 108.788 74.4428 109.814 75.5233 108.532C75.7469 108.275 75.9332 107.909 76.4176 108.056C77.0882 108.788 75.2253 109.264 76.1195 109.851C77.0882 110.473 78.2059 110.913 79.3236 111.316C79.8825 111.535 80.1434 110.913 80.5159 110.62C81.0748 110.217 81.3356 109.411 82.2671 109.374C82.2671 109.631 82.3043 109.814 82.2671 109.96C81.9317 110.693 80.6276 111.169 81.0002 111.938C81.2983 112.524 82.4533 112.744 83.2357 113.11C83.7573 113.367 84.3907 113.44 84.8378 114.136C83.5711 114.612 82.7514 113.77 81.8945 113.367C80.5904 112.781 79.5099 112.378 78.5785 113.843C78.3922 114.136 78.0941 114.539 77.6843 114.246C77.1254 113.806 77.6843 113.477 77.9824 113.257C79.3609 112.195 78.5412 111.865 77.4607 111.426C75.2997 110.546 75.337 110.473 73.5859 111.462C73.5859 110.73 74.4056 109.96 73.1388 109.448C71.9093 108.935 71.3132 108.971 70.7916 110.253C69.6366 113.074 68.4815 115.894 68.1462 118.934C67.8109 118.934 67.5128 118.898 67.3265 118.568C66.6186 117.543 67.2148 116.554 67.4756 115.601C68.7797 110.913 70.8661 106.554 73.6977 102.598C74.5546 101.389 74.7782 100.473 73.5114 99.4845C72.0211 98.349 72.0956 96.9571 72.8408 95.4187C75.2625 90.4738 77.498 85.4556 79.8825 80.5107C84.2789 71.39 91.7306 65.8957 101.79 64.577C113.825 62.9654 129.473 68.4597 135.77 82.3055C136.105 83.0014 136.552 83.6974 136.217 84.5399Z" fill="#5983AF"/>
<path d="M137.222 126.15C135.731 126.15 134.278 126.187 132.788 126.187C131.969 126.187 131.559 126.37 131.447 127.249C130.553 135.82 129.659 144.391 128.727 152.963C127.125 151.937 126.566 150.435 126.566 148.64C126.604 143.036 126.566 137.468 126.566 131.864C126.566 127.982 127.721 126.48 131.559 126.004C133.422 125.747 135.359 125.564 137.222 126.15Z" fill="#6DB5DE"/>
<path d="M374.146 128.055C373.811 127.725 373.811 127.396 374.146 127.066C384.988 127.066 395.831 127.066 406.673 127.029C407.902 127.029 408.797 127.029 408.797 128.714C408.722 141.827 408.722 154.904 408.722 168.017C408.275 166.552 407.791 165.05 407.343 163.585C407.493 161.754 407.008 159.995 407.045 158.164C407.12 149.226 407.083 140.252 407.083 131.315C407.083 128.824 406.971 128.714 404.475 128.714C395.383 128.714 386.255 128.714 377.164 128.714C376.084 128.678 375.003 128.861 374.146 128.055Z" fill="#7093BA"/>
<path d="M158.2 135.71C160.286 137.176 161.143 140.802 159.877 142.963C159.392 143.805 158.61 144.392 157.678 144.465C156.263 144.575 154.847 144.501 153.394 144.428C152.984 144.392 152.5 144.245 152.239 143.952C150.413 142.194 151.345 139.996 151.27 137.945C151.233 136.663 152.239 136.077 153.356 135.71C154.959 135.564 156.561 135.564 158.2 135.71Z" fill="#010101"/>
<path d="M414.312 99.851C414.238 99.8876 414.014 99.9975 413.791 100.071C413.455 100.144 413.418 99.8876 413.344 99.6679C413.083 98.9353 412.748 98.2393 412.487 97.5067C409.73 89.8147 406.973 82.1226 404.253 74.3938C401.198 65.786 398.217 57.1416 395.124 48.5338C394.491 46.7389 393.709 44.9807 393.224 43.1127C393.15 42.783 392.442 42.4167 393.224 42.1603C393.82 41.9772 393.932 42.49 394.081 42.8929C394.864 45.054 395.683 47.2151 396.466 49.3762C402.315 65.8226 408.128 82.2324 413.977 98.6789C414.014 98.9719 414.089 99.2283 414.312 99.851Z" fill="#5B84B0"/>
<path d="M91.246 90.5102C91.2088 94.0632 89.8674 96.1144 87.3338 97.3598C85.7317 98.1656 84.055 98.825 82.4156 99.5209C80.9625 100.144 79.5839 99.9605 78.4662 98.8616C77.3484 97.7994 77.0876 96.4441 77.721 95.0156C79.733 90.5102 81.745 85.9682 83.8315 81.4995C84.7257 79.5947 86.924 79.2285 87.7437 80.8768C89.3458 84.1734 90.5754 87.6165 91.246 90.5102Z" fill="#5C85B0"/>
<path d="M361.776 127.103C361.776 127.396 361.776 127.689 361.776 127.982C361.142 128.751 360.211 128.678 359.354 128.678C349.071 128.714 338.751 128.714 328.467 128.678C327.61 128.678 326.716 128.788 326.083 127.982C326.008 127.689 325.934 127.396 325.859 127.103C328.169 125.967 330.517 126.187 332.827 127.029C340.129 127.029 347.469 127.029 354.771 127.029C357.119 126.187 359.466 125.931 361.776 127.103Z" fill="#5882AE"/>
<path d="M52.0508 51.2071C52.6097 50.6576 53.3548 50.8774 53.9882 50.8774C86.2164 50.8774 118.445 50.8774 150.71 50.8774C151.381 50.8774 152.089 50.6576 152.647 51.2071C152.573 51.2803 152.461 51.3902 152.387 51.4635C151.642 51.8298 150.822 51.7565 150.002 51.7565C118.221 51.7565 86.4772 51.7565 54.6961 51.7565C53.9137 51.7565 53.094 51.8664 52.3116 51.4635C52.1998 51.3902 52.1253 51.3169 52.0508 51.2071Z" fill="#FCFCFC"/>
<path d="M407.679 218.785C408.015 217.247 408.35 215.708 408.685 214.133C408.723 219.115 408.76 224.096 408.723 229.078C408.723 230.397 408.909 231.019 410.511 230.983C414.348 230.909 414.349 230.983 414.349 234.719C414.349 239.334 414.349 239.334 409.691 239.334C409.244 239.334 408.834 239.334 408.387 239.334C408.313 239.004 408.238 238.675 408.164 238.345C409.058 237.906 409.989 238.089 410.921 238.089C412.15 238.089 412.746 237.686 412.746 236.404C412.746 232.155 412.933 232.484 409.207 232.521C408.536 232.521 407.828 232.558 407.344 231.935C407.307 231.605 407.27 231.312 407.27 230.983C407.344 230.763 407.419 230.58 407.456 230.36C407.568 226.514 407.493 222.668 407.679 218.785Z" fill="#688DB6"/>
<path d="M52.0504 124.099C51.9387 124.172 51.8269 124.246 51.6779 124.356C51.6779 100.73 51.6779 77.1408 51.6779 53.5151C51.6779 52.7459 51.4171 51.9401 52.0132 51.2441H52.0504C52.6465 51.9035 52.5721 52.7093 52.5721 53.4785C52.5721 76.1885 52.5721 98.8985 52.5721 121.608C52.6093 122.488 52.572 123.33 52.0504 124.099Z" fill="#FCFCFC"/>
<path d="M332.827 127.029C330.517 127.066 328.17 127.103 325.86 127.103C325.822 124.758 325.785 122.414 325.785 120.07C328.244 122.231 330.629 124.539 332.827 127.029Z" fill="#FCFCFC"/>
<path d="M53.5414 199.079C53.5414 199.335 53.5414 199.591 53.5414 199.884C50.9335 200.031 48.3628 200.214 45.7549 199.774C45.7549 197.467 45.7921 195.159 45.7176 192.852C45.6803 191.826 46.0156 191.46 47.0961 191.496C48.6236 191.496 50.1884 191.716 51.7159 191.35C52.163 190.581 51.6787 189.702 52.014 188.932C52.2375 188.529 52.5355 188.749 52.7963 188.859C53.3179 189.702 52.7218 190.691 53.1689 191.533C53.1689 191.826 53.1689 192.156 53.2062 192.449C52.0885 193.401 50.7472 192.998 49.4805 193.035C47.1706 193.108 47.0961 193.145 47.0589 195.379C47.0589 195.562 47.0589 195.745 47.0589 195.928C47.0589 198.492 47.0961 198.492 49.7786 198.529C51.0453 198.602 52.3865 198.236 53.5414 199.079Z" fill="#5D86B1"/>
<path d="M361.778 127.103C359.43 127.066 357.121 127.029 354.773 127.029C355.63 126.04 356.524 125.051 357.381 124.062C358.536 124.209 359.654 124.282 360.809 124.502C362.523 124.832 361.629 126.187 361.778 127.103Z" fill="#FCFCFC"/>
<path d="M137.035 93.4038C137.371 93.5137 137.706 93.6602 138.041 93.7701C138.041 99.2645 136.365 104.356 134.316 109.521C133.384 108.678 134.018 108.019 134.204 107.396C135.843 102.854 137.296 98.3121 137.035 93.4038Z" fill="#648BB4"/>
<path d="M189.645 83.3313C191.358 81.2801 193.072 79.2289 195.084 77.434C195.382 77.1776 195.643 76.7014 196.127 77.141C196.686 77.6538 196.016 77.9102 195.792 78.13C194.339 79.705 192.849 81.2068 191.358 82.7452C190.874 83.2214 190.427 83.7342 189.645 83.3313Z" fill="#658CB5"/>
<path d="M328.02 96.0047C329.733 93.6971 331.41 91.4261 333.534 89.558C333.832 89.3016 334.093 89.4115 334.353 89.6313C334.614 89.851 334.502 90.0342 334.316 90.2173C332.267 92.1586 330.628 94.5762 328.02 96.0047Z" fill="#688EB6"/>
<path d="M156.707 110.217C156.67 110.327 156.707 110.4 156.782 110.473C156.409 111.535 156.595 112.634 156.595 113.733C156.558 119.96 156.595 126.15 156.595 132.377C156.595 133.037 156.707 133.696 156.745 134.355C156.148 133.989 156.335 133.403 156.335 132.854C156.335 125.821 156.335 118.788 156.335 111.755C156.335 111.206 156.148 110.583 156.707 110.217Z" fill="#FCFCFC"/>
<path d="M152.982 66.2254L152.796 66.2987L152.61 66.2254C152.051 65.7126 152.051 65.0533 152.051 64.3573C152.051 60.6212 152.051 56.885 152.051 53.1122C152.051 52.4529 152.051 51.757 152.535 51.2441L152.572 51.2075C153.131 51.757 152.908 52.4529 152.908 53.1122C152.982 57.5077 152.982 61.8665 152.982 66.2254Z" fill="#FCFCFC"/>
<path d="M398.697 14.2487C398.101 13.2231 398.474 12.1242 398.436 11.062C398.25 7.39906 398.734 3.69953 398.176 0.0366211C399.032 0.439541 398.697 1.20875 398.697 1.79481C398.734 5.97053 398.697 10.1096 398.697 14.2487Z" fill="#FCFCFC"/>
<path d="M347.691 103.55C348.585 103.55 349.331 103.733 349.182 104.832C349.033 105.968 348.138 105.785 347.356 105.748C346.946 104.942 346.685 104.173 347.691 103.55Z" fill="#0E0B0B"/>
<path d="M170.122 84.283C169.488 84.6859 168.818 84.6859 168.333 84.0632C168.073 83.7336 168.073 83.2574 168.296 82.8545C168.706 82.0853 169.414 82.2684 170.047 82.4149C170.271 82.8545 170.532 83.294 170.457 83.8068C170.345 83.9533 170.308 84.1731 170.122 84.283Z" fill="#0A0808"/>
<path d="M367.068 88.862C363.492 88.862 359.878 88.862 356.301 88.862C359.878 88.3858 363.454 88.3858 367.068 88.862Z" fill="#FCFCFC"/>
<path d="M132.195 120.07C132.195 118.935 132.232 117.799 132.828 116.773C132.828 119.081 132.828 121.352 132.903 123.66C132.903 124.466 132.791 124.978 131.785 124.722C131.785 124.612 131.822 124.539 131.86 124.429C132.344 123 132.456 121.572 132.195 120.07Z" fill="#212628"/>
<path d="M45.7539 199.775C48.3618 199.812 50.9325 199.848 53.5404 199.885C53.5404 199.995 53.5405 200.105 53.5032 200.214C51.4914 200.214 49.4795 200.214 47.4304 200.214C46.8716 200.178 46.201 200.398 45.7539 199.775Z" fill="#FCFCFC"/>
<path d="M417.032 303.032C416.958 302.922 416.958 302.812 417.032 302.702C419.492 302.922 421.988 302.263 424.447 303.032L424.41 303.069C421.951 303.838 419.492 303.875 417.032 303.032Z" fill="#FCFCFC"/>
<path d="M346.909 107.982C346.909 110.034 346.909 112.085 346.909 114.173C346.39 112.122 346.39 110.07 346.909 107.982Z" fill="#FCFCFC"/>
<path d="M395.832 105.784C395.832 103.843 395.832 101.902 395.832 99.9238C396.316 101.865 396.279 103.807 395.832 105.784Z" fill="#FCFCFC"/>
<path d="M137.634 83.8437C137.41 83.9536 137.187 84.0635 136.963 84.1368C136.032 82.2687 136.143 80.5471 137.261 79.375C137.708 80.4739 136.814 81.7193 137.745 82.7815C137.708 83.1478 137.671 83.4774 137.634 83.8437Z" fill="#848181"/>
<path d="M243.743 22.71C243.743 24.5414 243.743 26.3362 243.743 28.1677C243.258 26.3729 243.258 24.5414 243.743 22.71Z" fill="#FCFCFC"/>
<path d="M53.5773 203.071C54.1349 204.646 53.8376 206.258 53.8747 207.87C53.2056 206.295 53.726 204.683 53.5773 203.071Z" fill="#FCFCFC"/>
<path d="M158.197 135.711C156.595 135.711 154.993 135.711 153.391 135.711C154.955 135.234 156.557 135.234 158.197 135.711Z" fill="#FCFCFC"/>
<path d="M157.974 145.71C156.409 146.04 154.881 146.077 153.316 145.674C154.881 145.674 156.409 145.71 157.974 145.71Z" fill="#FCFCFC"/>
<path d="M149.964 142.084C149.666 140.802 149.703 139.52 149.964 138.201C149.964 139.52 149.964 140.802 149.964 142.084Z" fill="#FCFCFC"/>
<path d="M163.75 87.1039C164.942 86.5545 166.246 86.8475 167.475 86.8109C166.283 87.4336 164.979 86.9941 163.75 87.1039Z" fill="#FCFCFC"/>
<path d="M170.124 84.2833C170.235 84.1368 170.347 83.9536 170.459 83.8071C170.273 84.7961 170.943 85.895 170.012 86.7374C170.273 85.9316 170.161 85.0891 170.124 84.2833Z" fill="#FCFCFC"/>
<path d="M52.0125 188.933C51.8265 189.738 52.2728 190.618 51.7148 191.35C51.7148 190.508 51.7148 189.665 51.7148 188.823C51.8264 188.859 51.9009 188.896 52.0125 188.933Z" fill="#FCFCFC"/>
<path d="M51.3454 185.856C51.7925 186.552 51.6435 187.321 51.6435 188.09C51.0845 187.431 51.4199 186.625 51.3454 185.856Z" fill="#FCFCFC"/>
<path d="M50.2243 172.706C50.6715 173.402 50.5224 174.171 50.5224 174.94C49.9634 174.244 50.2988 173.438 50.2243 172.706Z" fill="#FCFCFC"/>
<path d="M48.736 155.124C49.1832 155.82 49.0341 156.589 49.0341 157.358C48.4751 156.662 48.8105 155.857 48.736 155.124Z" fill="#FCFCFC"/>
<path d="M47.9899 146.333C48.4371 147.029 48.288 147.798 48.288 148.567C47.729 147.908 48.0644 147.102 47.9899 146.333Z" fill="#FCFCFC"/>
<path d="M50.5992 177.101C51.0455 177.797 50.8967 178.566 50.8967 179.335C50.3389 178.639 50.6736 177.834 50.5992 177.101Z" fill="#FCFCFC"/>
<path d="M47.6188 141.938C48.066 142.633 47.9169 143.403 47.9169 144.172C47.358 143.513 47.6933 142.707 47.6188 141.938Z" fill="#FCFCFC"/>
<path d="M48.3649 150.729C48.8121 151.424 48.663 152.194 48.663 152.963C48.104 152.267 48.4394 151.498 48.3649 150.729Z" fill="#FCFCFC"/>
<path d="M49.4821 163.915C49.9293 164.611 49.7802 165.38 49.7802 166.149C49.2212 165.453 49.5566 164.648 49.4821 163.915Z" fill="#FCFCFC"/>
<path d="M49.8531 168.31C50.2994 169.006 50.1506 169.775 50.1506 170.544C49.5928 169.848 49.9275 169.043 49.8531 168.31Z" fill="#FCFCFC"/>
<path d="M170.082 79.4848C169.599 78.7889 169.785 78.0197 169.785 77.2505C170.38 77.9464 170.008 78.7523 170.082 79.4848Z" fill="#FCFCFC"/>
<path d="M50.9704 181.46C51.4175 182.156 51.2685 182.926 51.2685 183.695C50.7095 183.036 51.0449 182.23 50.9704 181.46Z" fill="#FCFCFC"/>
<path d="M47.2438 137.542C47.691 138.238 47.5419 139.007 47.5419 139.776C46.983 139.117 47.3183 138.311 47.2438 137.542Z" fill="#FCFCFC"/>
<path d="M49.1071 159.52C49.5543 160.215 49.4052 160.985 49.4052 161.754C48.8462 161.058 49.1816 160.252 49.1071 159.52Z" fill="#FCFCFC"/>
<path d="M157.789 87.836C158.348 87.3965 159.019 87.543 159.652 87.543C159.093 88.0557 158.422 87.7627 157.789 87.836Z" fill="#FCFCFC"/>
<path d="M253.616 14.3221C252.982 14.6884 252.311 14.5785 251.641 14.5785C252.237 14.0657 252.982 14.3587 253.616 14.3221Z" fill="#FCFCFC"/>
<path d="M172.395 69.5585C172.395 68.9358 172.395 68.3497 172.395 67.7271C172.879 68.3131 172.879 68.9358 172.395 69.5585Z" fill="#FCFCFC"/>
<path d="M122.505 202.668C127.013 202.229 131.521 202.485 136.066 202.375C146.014 202.119 155.999 201.899 165.947 201.679C166.842 214.939 167.736 228.199 168.667 241.458C169.561 254.169 170.53 266.879 171.462 279.552C172.393 292.006 173.287 304.46 174.219 316.951C174.293 318.05 174.442 319.112 174.591 320.211C174.815 320.504 175.001 320.76 175.038 321.126C175.672 328.452 176.119 335.778 176.678 343.104C177.125 348.964 177.497 354.862 177.945 360.722C178.019 361.052 178.056 361.382 178.056 361.711C178.354 367.462 178.69 373.213 179.174 378.964C179.211 379.586 179.249 380.172 179.137 380.795C179.1 381.161 178.95 381.454 178.727 381.747C178.578 381.967 178.392 382.15 178.243 382.37C177.572 382.81 176.827 382.7 176.082 382.7C166.618 382.7 157.192 382.7 147.728 382.7C146.685 382.7 145.605 382.92 144.71 382.114C144.636 382.004 144.599 381.894 144.524 381.784C144.263 381.418 143.965 381.088 143.891 380.612C143.742 374.312 143.295 368.048 143.071 361.748C143.071 361.418 143.071 361.052 143.071 360.722C142.587 352.041 142.214 343.36 141.841 334.679C141.655 330.174 141.394 325.705 141.208 321.2C141.208 320.87 141.208 320.504 141.208 320.174C141.208 318.745 141.022 317.28 140.873 315.852C140.761 314.973 140.724 314.02 141.32 313.251C141.059 306.695 140.798 300.101 140.5 293.545C140.09 284.351 139.606 275.157 139.159 265.963C138.526 252.813 137.929 239.663 137.333 226.514C137.296 225.561 137.296 224.609 135.917 224.719C134.762 224.792 133.496 223.986 132.974 226.074C127.907 246.074 122.691 266.073 117.549 286.036C116.506 290.028 115.463 294.058 114.494 298.087C113.712 301.31 111.737 303.838 109.613 306.402C109.949 302.995 110.284 299.552 110.694 296.145C111.998 284.9 113.265 273.619 114.606 262.41C115.947 251.348 117.4 240.286 118.853 229.261C119.897 221.239 120.977 213.217 122.02 205.159C122.169 204.353 122.356 203.511 122.505 202.668Z" fill="#8F3600"/>
<path d="M144.748 382.077C155.143 382.077 165.501 382.077 175.896 382.077C176.678 382.077 177.498 381.967 178.243 382.333C185.21 386.363 192.178 390.428 199.22 394.348C200.933 395.3 202.573 396.326 204.249 397.315C208.31 399.659 210.136 403.358 210.695 407.827C210.807 408.743 210.695 409.219 209.503 409.219C187.446 409.182 165.389 409.182 143.333 409.182C140.873 409.182 142.699 407.424 142.252 406.582C142.587 405.666 142.252 404.787 142.066 403.908C142.103 401.161 142.513 398.45 142.848 395.74C142.923 395.41 143.109 395.154 143.295 394.861C143.668 391.308 144.04 387.754 144.45 384.201C144.487 383.469 144.338 382.736 144.748 382.077Z" fill="black"/>
<path d="M391.321 379.074C391.73 379.001 392.14 378.817 392.587 378.817C401.715 378.817 410.844 378.854 419.972 378.854C420.829 381.125 420.68 383.469 420.829 385.814C420.941 386.656 420.233 387.389 420.605 388.231C421.127 394.238 421.574 400.245 422.133 406.252C422.245 407.535 422.096 408.121 420.494 408.121C402.237 408.047 384.018 408.047 365.761 408.121C364.234 408.121 363.824 407.718 364.085 406.289C364.793 402.113 366.469 398.56 370.158 396.033C376.529 391.674 382.788 387.205 389.085 382.81C389.569 382.48 390.016 382.041 390.501 381.674C390.501 381.235 390.762 380.869 390.799 380.429C390.873 379.989 390.799 379.44 391.321 379.074Z" fill="black"/>
<path d="M329.884 378.964C332.902 378.634 335.92 378.854 338.938 378.817C344.564 378.781 350.19 378.891 355.779 378.744C357.567 378.707 358.387 379.184 358.312 380.942C358.759 381.088 358.722 381.381 358.498 381.711C359.057 388.817 359.616 395.923 360.175 403.029C360.287 404.677 361.107 406.839 360.324 407.791C359.504 408.817 357.194 408.121 355.518 408.121C338.565 408.157 321.65 408.121 304.698 408.121C302.239 408.121 302.239 408.121 302.574 405.703C302.612 405.41 302.612 405.08 302.612 404.787C302.388 404.458 302.5 404.091 302.574 403.762C303.58 400.245 305.63 397.498 308.647 395.447C309.057 395.117 309.653 395.154 310.063 394.861C310.697 394.458 311.293 394.055 311.926 393.689C312.261 393.103 312.783 392.7 313.305 392.297C317.366 389.293 321.501 386.436 325.674 383.616C326.196 383.323 326.606 382.92 327.053 382.59C327.537 382.297 328.022 381.967 328.469 381.638C329.735 381.125 329.027 379.66 329.884 378.964Z" fill="black"/>
<path d="M143.594 360.796C143.594 361.052 143.594 361.345 143.594 361.601C142.626 362.407 141.471 362.188 140.39 362.188C125.152 362.188 109.876 362.188 94.6375 362.188C91.396 362.188 91.396 362.188 91.396 365.448C91.396 369.477 91.396 373.506 91.396 377.498C91.396 380.319 91.4333 380.392 94.2649 380.392C109.876 380.392 125.524 380.392 141.135 380.392C142.253 380.392 143.371 380.209 144.414 380.832C144.451 381.125 144.489 381.418 144.563 381.711C127.164 381.711 109.764 381.711 92.3275 381.638C90.8372 381.638 90.6136 382.15 90.6136 383.432C90.6509 387.095 90.6136 387.059 86.8878 387.095C83.8699 387.095 80.8148 387.169 77.7969 387.205C77.6478 386.875 77.4988 386.509 77.3125 386.18C77.9459 385.41 78.8773 385.52 79.697 385.52C81.9697 385.484 84.2798 385.52 86.5525 385.52C88.8625 385.52 88.9742 385.374 89.0115 383.139C89.0487 377.315 89.0115 371.455 89.0115 365.631C89.0115 358.378 89.0115 351.162 89.0115 343.91C89.0115 342.335 89.0487 340.76 89.3841 339.184C89.7939 338.562 90.1666 337.902 90.5764 337.28C91.5078 338.012 91.2843 339.038 91.2843 339.99C91.3215 345.851 91.2843 351.675 91.2843 357.536C91.2843 360.21 91.3588 360.283 94.1159 360.283C109.503 360.283 124.854 360.283 140.241 360.283C141.471 360.283 142.626 360.026 143.594 360.796Z" fill="#5B84B0"/>
<path d="M329.886 378.964C329.811 380.099 330.184 381.345 328.768 382.004C328.06 381.967 327.39 382.041 327.278 382.956C326.905 383.249 326.496 383.543 326.123 383.799C325.452 382.48 324.335 382.151 322.919 382.224C320.683 382.334 318.448 382.261 316.212 382.261C313.753 382.261 313.679 382.334 313.679 384.678C313.679 386.619 313.679 388.597 313.679 390.539C313.679 391.271 313.641 392.004 313.418 392.7C312.934 393.029 312.486 393.359 312.002 393.689C312.039 390.099 312.039 386.509 312.077 382.92C312.077 381.931 311.704 381.601 310.773 381.711C310.586 381.748 310.4 381.711 310.214 381.711C266.398 381.711 222.583 381.711 178.768 381.711C178.768 381.455 178.73 381.198 178.73 380.905C179.774 380.099 181.003 380.392 182.158 380.392C205.742 380.392 229.29 380.392 252.874 380.392C277.203 380.392 301.495 380.392 325.825 380.392C327.315 380.392 328.694 380.356 329.551 378.927C329.662 378.891 329.774 378.927 329.886 378.964Z" fill="#5882AE"/>
<path d="M417.029 303.032C419.488 303.032 421.947 303.032 424.406 303.068C424.444 304.79 424.481 306.475 424.481 308.196C424.481 323.544 424.481 338.892 424.481 354.239C424.481 354.789 424.406 355.338 424.369 355.887C423.847 353.8 423.512 351.675 423.326 349.551C423.549 347.353 423.065 345.192 423.065 343.031C422.99 331.346 423.065 319.661 423.028 308.013C423.028 307.354 423.028 306.658 422.99 305.999C422.99 304.936 422.469 304.46 421.388 304.424C419.973 304.387 418.557 304.497 417.104 304.424C416.88 303.947 417.029 303.471 417.029 303.032Z" fill="#5881AE"/>
<path d="M302.91 404.018C302.799 404.275 302.724 404.568 302.612 404.824C297.955 404.824 293.298 404.751 288.64 404.861C287.225 404.897 286.852 404.458 286.889 403.102C287.001 400.795 286.926 398.487 286.889 396.143C286.889 395.264 287.076 394.788 288.119 394.824C295.421 394.897 302.761 394.898 310.064 394.934C309.803 395.3 309.468 395.593 308.983 395.667C307.94 396.18 306.86 396.216 305.742 396.216C300.712 396.216 295.719 396.18 290.69 396.216C288.529 396.216 288.305 396.399 288.342 398.524C288.379 404.165 287.634 403.432 293.186 403.469C295.682 403.505 298.141 403.469 300.637 403.469C301.42 403.469 302.277 403.395 302.91 404.018Z" fill="#5A83AF"/>
<path d="M358.499 381.711C358.424 381.455 358.35 381.198 358.312 380.942C358.312 380.832 358.387 380.795 358.462 380.759C359.132 380.393 359.877 380.393 360.622 380.393C370.048 380.393 379.474 380.393 388.9 380.393C389.683 380.393 390.54 380.356 391.21 380.942C391.248 381.455 390.95 381.675 390.465 381.748C379.847 381.748 369.154 381.711 358.499 381.711Z" fill="#5881AE"/>
<path d="M143.257 394.861C143.257 395.117 143.257 395.373 143.257 395.666C142.027 396.546 140.611 396.143 139.307 396.179C138.077 396.216 137.481 396.692 137.519 397.937C137.556 399.146 137.593 400.392 137.519 401.6C137.444 402.992 138.003 403.615 139.456 403.578C140.462 403.542 141.58 403.322 142.511 404.054C142.511 404.897 142.81 405.776 142.288 406.582C142.474 405.19 141.915 404.75 140.462 404.787C136.252 404.86 136.252 404.787 136.252 400.611C136.252 399.146 136.326 397.681 136.214 396.253C136.14 395.117 136.624 394.787 137.705 394.824C139.568 394.861 141.431 394.824 143.257 394.861Z" fill="#5983AF"/>
<path d="M420.609 388.268C420.162 387.572 420.46 386.802 420.422 386.07C423.254 385.74 423.366 383.836 423.179 381.674C423.105 380.759 422.919 379.733 423.664 378.927C423.999 378.927 424.334 378.927 424.707 378.927C424.372 381.088 424.521 383.286 424.595 385.447C424.632 386.839 424.148 387.279 422.77 387.169C421.875 387.096 420.646 386.693 420.609 388.268Z" fill="#6289B2"/>
<path d="M264.571 227.283C264.571 245.524 264.608 263.765 264.534 282.007C264.534 283.838 264.944 284.644 266.881 284.314C268.558 284.021 269.116 284.68 269.116 286.402C269.042 291.274 269.116 291.274 264.161 291.274C236.478 291.274 208.796 291.274 181.15 291.274C177.946 291.274 178.431 291.42 178.393 288.49C178.393 288.417 178.393 288.38 178.393 288.307C178.393 284.607 178.393 284.571 182.119 284.351C182.939 284.314 183.423 284.094 183.349 283.179C183.311 282.702 183.349 282.19 183.349 281.714C183.349 245.414 183.349 209.151 183.349 172.852C183.349 170.288 183.349 170.288 185.957 170.288C211.404 170.288 236.851 170.325 262.261 170.251C264.236 170.251 264.646 170.838 264.646 172.632C264.534 190.8 264.571 209.042 264.571 227.283Z" fill="#5D85B1"/>
<path d="M177.533 361.602C177.533 361.345 177.496 361.089 177.496 360.832C178.465 360.027 179.62 360.283 180.7 360.283C200.633 360.283 220.529 360.283 240.462 360.283C244.002 360.283 244.002 360.283 244.002 356.73C244.002 348.635 244.002 340.503 244.002 332.408C244.002 331.603 244.002 330.833 243.927 330.028C243.368 324.973 239.791 321.713 234.613 321.566C233.42 321.53 232.265 321.566 231.073 321.566C213.338 321.566 195.566 321.566 177.831 321.566C176.751 321.566 175.558 321.786 174.627 321.017C174.627 320.76 174.59 320.504 174.59 320.248C194.672 320.248 214.791 320.211 234.873 320.248C240.909 320.248 245.306 324.643 245.306 330.577C245.343 340.1 245.343 349.587 245.268 359.111C245.268 360.613 245.715 361.016 247.168 360.906C248.472 360.796 249.777 360.796 251.081 360.906C252.385 361.016 252.794 360.576 252.757 359.294C252.683 354.606 252.72 349.917 252.72 345.229C252.72 340.43 252.72 335.595 252.72 330.797C252.72 324.606 257.005 320.321 263.301 320.321C284.128 320.284 304.993 320.321 325.82 320.321C326.64 320.321 327.422 320.248 328.242 320.211C328.242 320.944 328.428 321.676 328.093 322.372C327.013 321.823 325.895 321.676 324.665 321.676C304.509 321.676 284.352 321.786 264.195 321.639C258.048 321.603 253.838 326.145 253.987 331.712C254.247 340.247 254.061 348.782 254.061 357.316C254.061 360.43 254.061 360.43 257.303 360.43C278.987 360.43 300.708 360.43 322.393 360.43C323.473 360.43 324.628 360.173 325.634 360.942C325.634 361.199 325.597 361.492 325.597 361.748C324.665 362.554 323.473 362.334 322.393 362.334C310.135 362.371 297.839 362.334 285.582 362.334C250.745 362.334 215.909 362.334 181.073 362.334C179.88 362.188 178.614 362.444 177.533 361.602Z" fill="#5882AE"/>
<path d="M308.647 146.479C309.132 147.102 309.281 147.871 309.43 148.641C309.914 150.875 309.951 153.109 309.951 155.38C309.951 179.262 309.951 203.181 309.951 227.063C309.951 230.36 309.951 230.36 313.342 230.36C321.65 230.36 329.959 230.36 338.268 230.36C339.311 230.36 340.391 230.14 341.248 230.983C341.286 231.349 341.286 231.715 340.987 231.972C340.131 232.777 339.013 232.594 337.97 232.594C327.686 232.594 317.366 232.594 307.083 232.631C306.077 232.631 304.735 232.191 304.214 233.29C303.618 234.499 303.841 235.928 304.102 237.246C304.214 237.832 304.773 237.906 305.257 237.979C305.928 238.052 306.635 238.015 307.306 238.015C317.105 238.015 326.904 238.015 336.703 238.015C337.746 238.015 338.826 237.832 339.758 238.492C339.758 238.931 339.907 239.371 339.609 239.737C339.05 238.968 338.23 239.334 337.56 239.334C326.457 239.297 315.354 239.297 304.251 239.334C302.686 239.334 302.164 238.895 302.276 237.356C302.388 235.708 302.351 234.059 302.276 232.411C302.239 231.312 302.649 230.799 303.767 230.909C303.953 230.946 304.139 230.909 304.325 230.909C308.498 230.873 308.498 230.873 308.498 226.844C308.498 200.8 308.498 174.794 308.498 148.75C308.61 148.055 308.647 147.285 308.647 146.479Z" fill="#5A83AF"/>
<path d="M256.932 48.3869C257.342 48.0939 257.677 47.6909 258.236 47.6177C247.58 76.8843 236.887 106.151 226.157 135.637C225.263 134.721 225.822 134.172 226.008 133.659C234.689 109.777 243.407 85.895 252.126 61.9763C253.728 57.4709 255.33 52.9289 256.932 48.3869Z" fill="#5A83AF"/>
<path d="M307.903 109.045C309.132 112.415 310.437 115.784 311.554 119.191C312.001 120.546 312.672 119.887 313.38 119.667C313.939 119.484 314.61 118.935 314.945 119.777C315.28 120.583 314.423 120.729 313.864 120.949C311.107 122.085 308.387 123.183 305.63 124.282C305.146 124.465 304.475 124.832 304.177 124.136C303.879 123.44 304.512 123.147 305.071 123C306.003 122.744 306.338 122.341 305.928 121.352C304.55 117.909 303.245 114.429 301.941 110.949C302.09 110.144 302.612 109.997 303.32 110.29C304.028 110.62 304.177 111.279 304.438 111.902C305.407 114.393 306.301 116.957 307.27 119.447C307.53 120.18 307.53 121.352 308.872 120.876C310.101 120.436 309.691 119.594 309.393 118.751C308.574 116.37 307.642 114.063 306.748 111.719C306.45 110.876 305.854 110.07 306.338 109.118C306.822 108.312 307.344 108.495 307.903 109.045Z" fill="#030202"/>
<path d="M269.264 42.1235C269.786 42.8927 269.264 43.5154 269.041 44.0649C262.595 62.2695 256.112 80.4741 249.629 98.6788C249.554 98.8619 249.48 99.0084 249.443 99.1916C249.331 99.5212 249.256 100.034 248.772 99.8875C248.064 99.7044 248.548 99.1916 248.66 98.8619C249.927 95.2356 251.194 91.6093 252.498 87.9831C257.714 73.3315 262.893 58.7165 268.146 44.0649C268.407 43.4056 268.407 42.5265 269.264 42.1235Z" fill="#5B84B0"/>
<path d="M306.338 109.118C307.605 112.598 308.798 116.078 310.213 119.484C310.921 121.206 309.468 121.023 308.76 121.462C307.717 122.121 307.456 121.462 307.158 120.62C305.891 117.14 304.624 113.697 303.32 110.217C304.326 109.887 305.332 109.521 306.338 109.118Z" fill="#FC9993"/>
<path d="M263.566 35.6037C263.753 35.9333 263.902 36.263 264.088 36.5926C264.014 36.7025 263.976 36.8124 263.976 36.9223C260.958 38.6805 257.941 40.4753 254.923 42.2335C254.55 42.4533 254.177 42.6731 253.805 42.8928C253.283 43.2225 252.687 43.6987 252.24 42.9295C251.83 42.2335 252.613 42.0137 253.06 41.7207C255.668 40.109 258.313 38.5706 260.958 36.9956C261.704 36.556 262.411 36.0798 263.119 35.6037C263.231 35.4205 263.417 35.4205 263.566 35.6037Z" fill="#070505"/>
<path d="M320.681 124.465C321.352 125.894 322.06 127.286 322.693 128.714C322.917 129.227 323.178 129.813 322.47 130.106C321.836 130.399 321.613 129.813 321.427 129.374C320.495 127.469 319.601 125.564 318.67 123.659C318.409 123.073 318.483 122.597 319.005 122.231C320.197 122.561 320.16 123.696 320.681 124.465Z" fill="#0C0808"/>
<path d="M319.563 270.249C319.153 270.102 319.079 269.846 319.34 269.553C321.166 267.648 322.991 265.78 324.817 263.912C325.003 263.729 325.227 263.619 325.451 263.766C325.749 263.949 325.674 264.205 325.525 264.388C323.662 266.293 321.762 268.198 319.861 270.102C319.824 270.212 319.675 270.212 319.563 270.249Z" fill="#688EB6"/>
<path d="M268.969 131.901C271.018 134.025 273.03 136.186 274.781 138.018C272.769 136.443 270.72 134.318 268.969 131.901Z" fill="#6088B2"/>
<path d="M325.675 360.796C302.24 360.796 278.804 360.796 255.369 360.832C253.767 360.832 253.469 360.356 253.469 358.891C253.543 349.514 253.506 340.137 253.506 330.723C253.506 324.936 257.53 320.98 263.454 320.98C284.393 320.98 305.37 320.98 326.309 320.98C327.24 320.98 328.283 320.76 328.097 322.262C327.315 335.082 326.495 347.939 325.675 360.796Z" fill="#FEFEFE"/>
<path d="M177.535 361.602C226.902 361.602 276.269 361.602 325.673 361.602C325.338 366.766 325.077 371.931 324.667 377.096C324.555 378.561 324.928 379.037 326.418 378.89C327.461 378.781 328.505 378.927 329.585 378.964C329.921 380.758 328.952 380.978 327.387 380.978C277.834 380.942 228.318 380.942 178.765 380.942C178.243 374.495 177.721 368.048 177.535 361.602Z" fill="#FEFEFE"/>
<path d="M318.221 173.146C318.631 173.219 319.041 173.402 319.451 173.402C324.853 173.255 330.293 173.036 335.695 172.926C337.148 172.889 337.148 172.376 336.701 171.277C336.292 170.215 336.031 169.08 335.695 167.981C335.286 166.845 335.621 165.71 335.733 164.574C335.919 163.915 335.733 163.256 335.807 162.596C336.478 157.651 336.441 152.633 337.111 147.688C338.154 139.923 344.339 133.659 352.201 132.304C352.76 132.194 353.319 132.048 353.803 132.487C355.144 137.359 356.15 142.304 357.305 147.249C360.994 163.146 364.72 179.043 368.334 194.976C369.191 198.713 368.669 202.485 368.632 206.258C368.632 206.624 368.483 206.954 368.148 207.211C360.994 206.917 353.84 206.661 346.687 206.368C345.792 206.295 345.308 205.599 344.749 205.049C337.521 197.467 335.472 188.603 338.192 178.677C339.98 172.12 343.669 166.589 348.363 161.681C348.736 161.278 349.22 160.985 349.518 160.252C346.351 162.853 343.967 165.82 341.992 169.116C338.49 174.94 336.329 181.131 336.627 188.017C336.776 191.68 337.707 195.123 339.309 198.383C340.427 200.617 340.204 200.984 337.633 201.02C330.591 201.13 324.518 196.991 322.357 190.398C320.68 185.233 319.413 179.959 318.109 174.684C317.998 174.171 317.811 173.658 318.221 173.146Z" fill="#202B6D"/>
<path d="M318.223 173.145C319.713 178.713 321.017 184.354 322.694 189.885C324.93 197.211 331.785 201.35 339.721 200.434C338.939 198.639 338.045 196.918 337.448 195.123C334.579 186.295 336.405 178.054 340.802 170.178C342.851 166.516 345.459 163.292 348.477 160.362C348.999 159.886 349.557 158.677 350.34 159.446C351.271 160.289 349.93 160.765 349.483 161.241C343.633 167.175 339.237 173.915 337.895 182.229C336.48 190.764 338.752 198.236 344.975 204.5C345.571 205.086 346.316 205.562 346.651 206.405C345.869 207.064 345.608 207.943 345.422 208.932C344.08 216.294 342.665 223.62 341.286 230.983C331.226 230.983 321.166 230.983 311.144 231.019C310.026 231.019 309.355 230.983 309.355 229.517C309.393 202.815 309.393 176.076 309.393 149.373C309.393 149.117 309.43 148.897 309.467 148.641C312.336 155.857 315.019 163.182 317.515 170.545C317.85 171.131 317.776 171.863 318.26 172.413C318.372 172.633 317.701 172.889 318.223 173.145Z" fill="#FEFEFE"/>
<path d="M363.828 320.174C362.934 311.64 362.04 303.069 361.146 294.534C360.81 291.237 361.965 288.161 362.636 285.01C365.654 270.286 368.746 255.561 371.764 240.836C371.987 239.7 372.323 239.224 373.627 239.224C377.278 239.188 377.278 239.151 377.39 242.667C377.874 259.956 378.358 277.282 378.805 294.571C379.029 303.105 379.476 311.603 379.401 320.138C378.88 320.687 378.209 320.687 377.539 320.687C373.627 320.687 369.677 320.687 365.765 320.687C365.058 320.724 364.35 320.76 363.828 320.174Z" fill="#FEFEFE"/>
<path d="M368.147 207.247C369.079 198.419 366.694 190.031 364.72 181.57C361.031 165.856 357.417 150.106 353.803 134.392C353.654 133.806 353.729 133.183 353.691 132.56C354.064 132.194 354.437 132.194 354.772 132.56C356.858 141.498 358.982 150.399 361.068 159.336C363.528 169.849 365.912 180.398 368.334 190.947C368.632 192.302 369.042 193.658 369.265 195.013C369.414 195.819 369.675 196.148 370.532 196.185C375.301 196.405 380.033 196.625 384.802 196.918C387.522 197.101 390.241 197.101 392.924 197.65C393.595 197.797 394.489 197.687 394.712 198.639C393.893 202.851 393.297 207.137 392.179 211.276C391.359 214.316 389.012 216.697 387.224 219.298C383.2 219.151 379.176 219.188 375.264 218.126C374.034 217.796 372.767 217.357 371.612 216.844C369.228 215.818 367.849 214.206 368.185 211.423C368.334 210.067 368.185 208.639 368.147 207.247Z" fill="black"/>
<path d="M368.93 360.832C368.334 356.62 367.626 352.407 367.104 348.195C365.987 339.258 364.981 330.32 363.938 321.383C364.049 320.65 364.645 320.613 365.204 320.613C369.601 320.577 373.997 320.577 378.356 320.613C378.728 320.613 379.101 320.723 379.399 320.943C379.623 328.269 379.921 335.631 380.107 342.957C380.256 348.891 380.666 354.825 380.48 360.795C380.442 360.832 380.405 360.905 380.368 360.905C376.53 361.565 372.73 361.784 368.93 360.832Z" fill="#FEFEFE"/>
<path d="M391.209 380.942C380.963 380.942 370.717 380.942 360.471 380.942C359.801 380.942 359.13 380.832 358.459 380.795C358.05 379.11 358.832 378.781 360.397 378.854C363.34 378.964 366.321 378.781 369.302 378.927C370.941 379 371.425 378.634 371.127 376.949C370.345 372.151 369.711 367.352 369.003 362.554C368.966 362.261 368.966 361.968 368.966 361.638C369.339 361.272 369.86 361.272 370.345 361.272C373.288 361.272 376.232 361.272 379.175 361.272C379.995 361.272 380.628 361.455 380.665 362.444C380.814 367.426 380.963 372.444 381.075 377.425C381.112 378.561 381.411 378.927 382.64 378.964C385.546 379 388.415 378.634 391.321 379.147C391.284 379.696 391.247 380.319 391.209 380.942Z" fill="#FEFEFE"/>
<path d="M339.831 238.528C328.319 238.528 316.769 238.491 305.256 238.564C303.691 238.564 303.281 238.161 303.281 236.623C303.356 231.898 303.281 231.898 308.125 231.898C319.079 231.935 330.07 231.935 341.023 231.971C340.837 234.206 340.353 236.367 339.831 238.528Z" fill="#FEFEFE"/>
<path d="M417.18 304.35C418.372 303.178 419.862 303.874 421.166 303.838C424.035 303.764 423.663 303.435 423.663 306.182C423.663 319.918 423.663 333.654 423.663 347.389C423.663 348.085 423.961 348.855 423.365 349.477C421.39 335.082 419.415 320.724 417.403 306.328C417.329 305.669 417.254 305.01 417.18 304.35Z" fill="#FEFEFE"/>
<path d="M407.305 231.935C408.907 231.935 410.509 231.935 412.111 231.898C413.005 231.861 413.378 232.228 413.303 233.07C413.266 233.363 413.303 233.693 413.303 233.986C413.303 239.077 413.303 239.077 408.124 238.345C407.864 236.22 407.603 234.096 407.305 231.935Z" fill="#FDFDFD"/>
<path d="M423.623 378.927C423.623 380.685 423.512 382.444 423.661 384.202C423.847 385.997 423.065 386.4 421.463 386.18C421.09 386.143 420.718 386.107 420.345 386.07C420.196 383.652 419.786 381.272 419.898 378.854C421.202 378.891 422.394 378.891 423.623 378.927Z" fill="#FDFCFC"/>
<path d="M393.41 249.297C394.304 245.488 395.236 241.642 396.13 237.832C396.242 237.32 396.428 236.624 397.173 236.917C397.881 237.173 397.621 237.832 397.471 238.345C396.503 242.228 395.534 246.111 394.565 249.957C394.044 250.03 393.559 249.957 393.41 249.297Z" fill="#080504"/>
<path d="M388.938 247.832C389.832 244.169 390.726 240.543 391.583 236.88C391.695 236.331 391.807 235.635 392.515 235.744C393.446 235.891 393.111 236.66 392.962 237.21C391.993 241.092 390.987 244.938 389.981 248.821C389.161 249.041 388.975 248.491 388.938 247.832Z" fill="#060404"/>
<path d="M385.699 232.411C386.444 229.517 387.19 226.66 387.935 223.767C388.084 223.217 388.233 222.595 388.941 222.778C389.612 222.924 389.463 223.547 389.351 223.987C388.419 227.686 387.488 231.422 386.556 235.122C386.482 235.378 386.221 235.598 386.072 235.854C385.289 235.708 385.066 235.305 385.289 234.572C385.476 233.84 385.55 233.144 385.699 232.411Z" fill="#070404"/>
<path d="M379.398 320.943C374.853 320.943 370.344 320.943 365.798 320.98C365.165 320.98 364.42 320.65 363.935 321.383C363.6 321.016 363.861 320.577 363.823 320.174C369.003 320.174 374.182 320.174 379.361 320.174C379.361 320.43 379.398 320.687 379.398 320.943Z" fill="#5881AE"/>
<path d="M380.705 362.371C380.556 361.455 379.811 361.565 379.177 361.565C375.787 361.565 372.396 361.565 369.006 361.602C369.006 361.345 368.969 361.089 368.969 360.796C372.806 360.796 376.681 360.796 380.519 360.796C380.817 361.309 380.854 361.821 380.705 362.371Z" fill="#5881AD"/>
<path d="M407.679 230.836C407.53 230.909 407.38 230.946 407.231 231.019C406.97 229.554 406.747 228.052 406.486 226.587C406.411 224.499 407.12 222.484 407.343 220.433C407.641 220.396 407.828 220.506 407.828 220.799C407.753 224.096 408.014 227.466 407.679 230.836Z" fill="#FDFBFA"/>
<path d="M137.298 79.4117C136.888 80.9868 137 82.5618 137 84.1735C136.739 84.32 136.478 84.4299 136.217 84.5764C129.921 67.1044 107.677 61.1339 94.7861 66.9579C88.0797 69.9981 83.1616 74.7232 80.1064 81.2798C77.8337 86.0782 75.6727 90.9132 73.3254 95.675C72.543 97.2501 72.5803 98.3856 74.0706 99.3745C75.5609 100.364 75.4491 101.243 74.4059 102.708C70.8664 107.47 68.3701 112.744 67.3641 118.641C66.2836 119.85 64.756 119.594 63.4147 119.74C59.5771 120.143 56.0749 121.315 52.9079 123.44C52.3863 122.89 52.5353 122.158 52.5353 121.535C52.5353 99.0449 52.5353 76.5547 52.5353 54.0645C52.5353 51.7568 52.6098 51.7202 54.9571 51.7202C86.5894 51.7202 118.222 51.7202 149.854 51.7202C152.276 51.7202 152.35 51.7568 152.35 54.1744C152.35 57.5809 152.387 60.9873 152.35 64.4305C152.35 65.1264 152.648 66.1887 151.307 66.0788C147.32 65.6026 143.669 66.2619 140.688 69.1922C138.453 71.39 137.596 74.1005 137.484 77.1041C137.335 77.8001 137.298 78.6059 137.298 79.4117Z" fill="#FEFEFE"/>
<path d="M143.594 360.795C126.641 360.795 109.652 360.759 92.6997 360.832C91.0604 360.832 90.6133 360.429 90.6133 358.817C90.6878 351.638 90.6506 344.459 90.6506 337.28C93.9293 331.968 97.2452 326.621 100.524 321.309C102.536 321.309 104.548 321.309 106.56 321.273C107.156 321.273 107.789 321.493 108.273 320.943C108.944 320.357 109.764 320.43 110.583 320.43C120.196 320.43 129.846 320.43 139.458 320.43C140.241 320.43 141.097 320.32 141.731 320.943C142.364 334.239 142.998 347.499 143.594 360.795Z" fill="#FEFEFE"/>
<path d="M71.6099 191.46C71.5727 190.984 71.4982 190.508 71.4609 190.032C72.0943 190.032 72.6905 189.995 73.3239 190.032C75.932 190.178 76.0065 190.178 75.8947 187.651C75.3358 176.222 74.7025 164.794 74.1436 153.366C74.0691 151.608 74.1064 149.813 73.9946 148.055C73.9201 146.846 74.3671 146.553 75.5594 146.406C83.9055 145.454 92.2515 144.392 100.635 143.366C100.821 143.33 100.97 143.256 101.156 143.183C102.386 145.161 101.827 147.286 101.492 149.337C101.38 150.179 100.374 150.216 99.6288 150.252C97.8403 150.326 96.052 150.289 93.9282 150.289C95.7166 150.326 97.207 150.289 98.6601 150.326C101.566 150.362 101.678 150.509 101.268 153.403C101.007 155.234 100.784 157.065 100.113 158.824C98.3247 159.849 96.3872 158.934 94.8969 159.3C96.3872 159.556 98.2875 158.824 100.076 159.703C98.1012 169.336 96.1265 178.97 94.189 188.603C93.5928 191.533 93.5928 191.533 90.5376 191.533C84.2408 191.46 77.9067 191.46 71.6099 191.46Z" fill="#FEFEFE"/>
<path d="M141.393 313.251C141.505 315.559 141.617 317.867 141.728 320.138C141.207 320.724 140.462 320.577 139.791 320.577C129.918 320.577 120.082 320.577 110.209 320.577C109.538 320.577 108.83 320.724 108.309 320.138C108.458 318.379 108.681 316.621 108.793 314.9C108.867 313.618 109.426 313.215 110.768 313.251C120.976 313.288 131.185 313.251 141.393 313.251Z" fill="#FEFEFE"/>
<path d="M151.159 66.0056C152.202 65.8225 151.867 64.98 151.867 64.394C151.904 60.841 151.792 57.3246 151.904 53.7716C151.941 52.3064 151.457 51.9767 150.041 51.9767C123.811 52.0134 97.5437 52.0134 71.3137 52.0134C65.7249 52.0134 60.1361 52.05 54.5474 51.9767C53.2061 51.9767 52.759 52.2698 52.759 53.6617C52.7963 76.8845 52.7962 100.144 52.7962 123.367C52.5354 123.623 52.2746 123.843 52.0511 124.099C52.0138 123.44 51.9766 122.781 51.9766 122.085C51.9766 99.1183 51.9766 76.1885 51.9766 53.2221C51.9766 52.5628 52.0138 51.9035 52.0511 51.2075C57.379 51.2075 62.707 51.1709 68.0722 51.1709C95.4573 51.1709 122.805 51.1709 150.19 51.1709C151.01 51.1709 151.792 51.2075 152.612 51.2442C152.612 56.2257 152.649 61.2072 152.649 66.1888C152.127 66.1522 151.606 66.4452 151.159 66.0056Z" fill="#5983AF"/>
<path d="M73.7368 199.152C73.0662 196.954 71.4641 195.013 71.8367 192.522C78.7667 192.522 85.6966 192.522 92.8501 192.522C92.403 194.866 91.6206 196.991 90.8382 199.115C90.4284 199.445 89.944 199.445 89.4224 199.445C84.6906 199.445 79.9217 199.445 75.1899 199.445C74.6683 199.445 74.1839 199.408 73.7368 199.152Z" fill="#FDFDFE"/>
<path d="M108.309 320.138C119.448 320.138 130.588 320.138 141.728 320.174C141.728 320.431 141.728 320.724 141.765 320.98C130.626 320.98 119.448 320.98 108.309 320.98C108.309 320.687 108.309 320.431 108.309 320.138Z" fill="#5881AE"/>
<path d="M101.27 153.329C101.233 153.036 101.158 152.706 101.196 152.413C101.457 150.875 100.674 150.582 99.2956 150.655C97.3209 150.765 95.3463 150.692 93.3716 150.655C92.8873 150.655 92.0303 150.875 92.0676 150.106C92.0676 149.483 92.8499 149.739 93.297 149.703C95.3834 149.666 97.5072 149.629 99.5936 149.703C100.749 149.739 101.308 149.483 101.196 148.201C101.084 146.516 101.121 144.794 101.084 143.109C101.382 143.109 101.68 143.073 101.978 143.073C102.91 144.282 102.351 145.6 102.313 146.882C102.276 147.651 102.164 148.421 102.015 149.19C101.978 150.655 101.866 152.047 101.27 153.329Z" fill="#678DB6"/>
<path d="M73.7344 199.152C79.435 199.152 85.0984 199.152 90.7991 199.115C90.7991 199.445 90.6873 199.701 90.3893 199.884C84.9494 199.884 79.5096 199.921 74.0698 199.921C73.958 199.665 73.8462 199.408 73.7344 199.152Z" fill="#5882AE"/>
<path d="M71.6484 192.193C71.6484 192.046 71.6484 191.936 71.6484 191.79C78.6156 191.79 85.6199 191.79 92.5871 191.79C92.5871 191.936 92.5871 192.046 92.5871 192.193C85.6199 192.193 78.6528 192.193 71.6484 192.193Z" fill="#5881AE"/>
<path d="M100.077 159.593C97.3945 159.593 94.6747 159.593 91.9922 159.593C91.9922 159.3 91.9922 159.007 91.9922 158.75C94.6747 158.75 97.3945 158.75 100.077 158.75C100.114 159.044 100.114 159.337 100.077 159.593Z" fill="#5882AE"/>
<path d="M102.014 149.227C102.014 147.175 102.014 145.161 101.977 143.109C103.057 142.926 103.615 143.073 103.206 144.391C102.759 146.003 102.759 147.688 102.014 149.227Z" fill="#F2F6F9"/>
<path d="M132.193 120.07C132.491 121.572 133.161 123.073 131.82 124.429C131.969 122.964 132.081 121.535 132.193 120.07Z" fill="#0F1214"/>
<path d="M53.1711 191.533C52.4634 190.727 52.9476 189.738 52.7986 188.859C52.9476 188.859 53.0594 188.859 53.2084 188.859C53.2084 189.738 53.1711 190.617 53.1711 191.533Z" fill="#FEFEFE"/>
<path d="M53.4671 280.359C42.4015 280.359 33.7949 271.787 33.8322 260.799C33.8694 249.957 42.625 241.495 53.8023 241.532C64.7562 241.568 73.3255 250.213 73.3627 261.202C73.3627 271.714 64.1228 280.762 53.4671 280.359Z" fill="#459257"/>
<path d="M72.7277 218.858C72.3178 218.529 72.1688 218.126 72.1688 217.613C72.057 213.987 71.908 210.324 71.8335 206.698C71.8335 206.185 71.4981 205.306 72.4669 205.306C73.3612 205.306 73.2122 206.111 73.2495 206.698C73.324 209.408 73.3612 212.155 73.4358 214.902C73.1749 215.562 73.5476 216.184 73.6221 216.844C73.6593 217.613 73.9201 218.565 72.7277 218.858Z" fill="#050304"/>
<path d="M354.775 132.561C354.402 132.414 354.03 132.414 353.694 132.561C345.349 133.989 339.76 138.458 337.86 146.773C337.078 150.142 337.264 153.659 336.928 157.102C336.742 159.007 336.854 160.985 336.183 162.853C335.774 163.512 335.55 164.318 334.581 164.428C332.346 159.226 330.856 153.732 328.732 148.494C326.683 143.439 325.602 138.275 326.124 132.854C326.273 131.242 325.416 129.63 326.124 128.019C338.009 128.019 349.931 128.019 361.816 128.019C361.816 129.484 361.854 130.986 361.854 132.451C359.469 132.487 357.122 132.524 354.775 132.561Z" fill="#FEFEFE"/>
<path d="M374.147 128.055C384.616 128.055 395.086 128.092 405.593 128.019C407.195 128.019 407.828 128.312 407.791 130.07C407.679 140.619 407.754 151.168 407.716 161.681C407.716 162.303 408.052 163.036 407.307 163.549C405.183 156.15 403.171 148.714 400.936 141.315C399.259 135.711 394.155 132.304 388.156 132.414C383.461 132.487 378.767 132.451 374.035 132.451C374.11 130.986 374.11 129.52 374.147 128.055Z" fill="#FEFEFE"/>
<path d="M392.703 185.306C392.777 185.783 392.591 186.149 392.106 186.259C391.585 186.369 391.399 186.112 391.25 185.599C389.536 178.457 387.822 171.314 386.108 164.172C385.996 163.659 385.959 163.109 386.592 162.963C387.188 162.853 387.412 163.366 387.524 163.878C389.238 170.948 390.951 178.054 392.665 185.123C392.665 185.16 392.703 185.233 392.703 185.306Z" fill="#FAFBFC"/>
<path d="M89.46 339.185C89.9071 339.771 89.7208 340.467 89.7208 341.126C89.7208 355.484 89.7207 369.843 89.758 384.165C89.758 385.74 89.4599 386.289 87.746 386.216C84.2808 386.07 80.8156 386.18 77.3505 386.18C76.3444 384.202 75.3011 382.224 74.2951 380.246C73.5871 374.678 73.6244 369.11 74.2578 363.543C79.3252 355.448 84.3926 347.316 89.46 339.185Z" fill="#FEFEFE"/>
<path d="M73.2866 378.195C72.0199 375.814 70.7159 373.433 69.4492 371.052C70.6041 369.001 71.8709 367.023 73.2866 365.155C73.8454 365.668 73.8082 366.364 73.8454 367.023C73.8454 370.136 73.8454 373.25 73.8454 376.327C73.8454 376.986 73.8454 377.682 73.2866 378.195Z" fill="#F6F8FA"/>
<path d="M73.2891 378.195C73.4755 373.836 73.4382 369.477 73.2891 365.155C73.4755 364.532 73.811 364.019 74.2211 363.58C74.2211 369.147 74.2584 374.715 74.2584 380.282C73.9602 379.587 73.6246 378.891 73.2891 378.195Z" fill="#5880AC"/>
<path d="M336.218 164.355C336.068 165.563 335.882 166.772 335.733 168.018C335.137 167.285 334.95 166.369 334.727 165.454C334.876 164.867 335.174 164.318 335.696 164.025C336.031 163.842 336.292 163.878 336.218 164.355Z" fill="#EFEAEE"/>
<path d="M336.219 164.354C335.361 164.244 335.361 165.233 334.728 165.453C334.541 165.124 334.392 164.794 334.541 164.428C335.063 163.878 335.399 163.182 336.144 162.853C336.144 163.365 336.666 163.842 336.219 164.354Z" fill="#7191B6"/>
<path d="M318.221 172.413C317.439 172.01 317.551 171.24 317.477 170.544C318.072 171.021 318.147 171.717 318.221 172.413Z" fill="#AA8FA5"/>
<path d="M246.949 32.7094C243.819 29.0098 243.782 24.7975 245.421 20.6584C246.837 17.0322 249.967 15.3472 253.991 15.3839C281.226 15.3839 308.462 15.3839 335.697 15.3839C359.58 15.3839 383.462 15.5304 407.345 15.3106C413.716 15.2373 418.969 19.0468 417.963 27.3982C417.33 32.453 413.753 35.5664 408.5 35.6031C406.562 35.6397 404.662 35.4932 402.725 35.6397C401.271 35.7496 400.936 35.1635 401.011 33.8815C401.123 32.0134 400.973 30.1087 401.048 28.204C401.085 27.1418 400.787 26.5557 399.595 26.7389C399.297 26.7755 398.962 26.7389 398.663 26.7389C353.693 26.7389 308.723 26.7389 263.752 26.7022C261.852 26.7022 261.219 27.1418 261.405 29.0099C261.554 30.6948 261.405 32.4163 261.368 34.1379C260.883 33.7716 260.362 33.3687 259.877 33.0024C259.467 32.7094 259.095 32.3431 258.722 31.9768C255.369 29.8523 251.979 29.9988 248.663 32.0134C248.066 32.2332 247.582 32.6361 246.949 32.7094Z" fill="#FEFEFE"/>
<path d="M263.564 35.6033C263.415 35.6033 263.266 35.6033 263.117 35.6033C262.856 35.4202 262.595 35.2737 262.297 35.0905C262.334 33.0027 262.409 30.9515 262.334 28.8636C262.297 27.7281 262.707 27.2885 263.824 27.4351C264.085 27.4717 264.309 27.4351 264.57 27.4351C309.056 27.4351 353.542 27.4351 398.028 27.3984C399.854 27.3984 400.45 27.8746 400.227 29.5962C400.003 31.5009 401.046 34.0283 399.779 35.2004C398.624 36.2993 396.128 35.4935 394.191 35.4935C350.822 35.4935 307.454 35.4935 264.085 35.4935C263.899 35.5667 263.75 35.6033 263.564 35.6033Z" fill="#FEFEFE"/>
<path d="M258.65 31.8672C259.507 31.7207 259.879 32.0503 259.805 32.8928C256.526 34.8341 253.284 36.8487 249.968 38.7534C249.41 39.0831 248.627 40.2186 247.994 39.0831C247.435 38.1674 248.664 37.9476 249.223 37.6179C252.353 35.6766 255.52 33.8085 258.65 31.8672Z" fill="#060403"/>
<path d="M241.322 51.6834C241.135 52.4526 240.651 52.5991 240.092 52.1596C238.192 50.5845 236.366 49.0095 234.503 47.3978C234.205 47.1414 234.056 46.8117 234.28 46.4455C234.503 46.0792 234.95 45.9693 235.248 46.2257C237.223 47.874 239.161 49.5589 241.135 51.2072C241.21 51.3171 241.247 51.5003 241.322 51.6834Z" fill="#080505"/>
<path d="M407.679 230.836C407.679 227.942 407.679 225.049 407.642 222.118C407.642 221.532 407.865 220.91 407.344 220.397C407.455 219.847 407.567 219.335 407.679 218.785C408.089 222.814 408.089 226.807 407.679 230.836Z" fill="#FDCDCA"/>
<path d="M361.814 104.906C361.59 105.565 361.255 106.115 360.435 106.151C359.727 106.188 359.243 105.931 359.205 105.162C359.168 104.32 359.578 103.953 360.435 103.953C361.18 103.917 361.59 104.246 361.814 104.906Z" fill="#0E0908"/>
<path d="M267.96 7.5455C267.96 5.82394 267.998 4.13901 267.96 2.41745C267.923 1.42847 268.221 0.988922 269.302 1.02555C271.239 1.09881 273.14 1.09881 275.077 1.02555C276.12 0.988922 276.307 1.42847 276.307 2.34419C276.269 5.93382 276.269 9.52345 276.307 13.1497C276.307 14.0654 276.083 14.505 275.077 14.4684C273.14 14.3951 271.239 14.3951 269.302 14.4684C268.184 14.505 267.923 14.0288 267.96 13.0398C267.998 11.2084 267.96 9.37694 267.96 7.5455Z" fill="#FEFEFE"/>
<path d="M397.62 7.87534C397.62 9.63354 397.582 11.4284 397.62 13.1866C397.657 14.1389 397.284 14.4686 396.316 14.4319C394.378 14.3953 392.478 14.3953 390.54 14.4319C389.534 14.4686 389.273 14.0656 389.273 13.1499C389.311 9.56028 389.311 5.97064 389.273 2.38099C389.273 1.5019 389.46 1.02572 390.503 1.06235C392.478 1.13561 394.49 1.09898 396.465 1.06235C397.359 1.02572 397.62 1.42864 397.62 2.23448C397.582 4.10256 397.62 5.97064 397.62 7.87534Z" fill="#FEFEFE"/>
<path d="M53.5385 199.079C51.6383 199.079 49.701 199.042 47.8008 199.116C46.8321 199.152 46.4968 198.786 46.534 197.87C46.6085 196.478 46.6085 195.086 46.534 193.695C46.4968 192.706 46.9066 192.449 47.838 192.486C49.6264 192.522 51.4148 192.486 53.2032 192.486C53.4268 194.647 53.6875 196.881 53.5385 199.079Z" fill="#FEFDFD"/>
<path d="M67.6984 222.191C67.2139 222.631 66.7667 222.594 66.2822 222.155C66.245 220.287 66.1705 218.382 66.1332 216.514C66.1332 216.001 65.8723 215.269 66.6922 215.195C67.6239 215.122 67.5121 215.965 67.5121 216.514C67.6239 218.419 67.6611 220.287 67.6984 222.191Z" fill="#0B0707"/>
<path d="M63.1158 222.119C62.6316 222.631 62.1474 222.924 61.6259 222.155C61.5514 220.287 61.477 218.382 61.4025 216.514C61.3653 216.002 61.4397 215.452 62.0357 215.379C62.8179 215.306 62.8551 215.928 62.8551 216.514C62.9668 218.346 63.0413 220.214 63.1158 222.119Z" fill="#0A0606"/>
<path d="M157.977 82.8913C157.977 83.6238 157.568 84.1 156.86 84.1C156.152 84.1366 155.668 83.6238 155.668 82.9645C155.668 82.3784 156.003 81.9023 156.674 81.8656C157.456 81.7924 157.866 82.1587 157.977 82.8913Z" fill="#130C0B"/>
<path d="M90.4621 90.7666C90.3503 93.6603 89.1953 95.4551 87.0716 96.554C85.5067 97.3598 83.8302 98.0191 82.1908 98.7151C81.073 99.1912 79.9925 99.118 79.0983 98.2389C78.2041 97.3964 78.0923 96.3342 78.5767 95.2353C80.5514 90.8032 82.5633 86.3345 84.5753 81.939C85.1714 80.6203 86.5872 80.3273 87.1089 81.4994C88.4874 84.6495 89.7542 87.8729 90.4621 90.7666Z" fill="#FEFEFE"/>
<path d="M174.627 320.98C194.597 320.98 214.568 320.98 234.538 320.98C240.35 320.98 244.486 324.899 244.523 330.577C244.598 340.137 244.486 349.734 244.598 359.294C244.598 360.942 243.778 360.832 242.66 360.832C221.759 360.832 200.857 360.832 179.955 360.832C179.135 360.832 178.353 360.869 177.533 360.869C177.235 357.133 176.9 353.36 176.602 349.624C175.931 340.65 175.298 331.639 174.664 322.665C174.553 322.079 174.59 321.529 174.627 320.98Z" fill="#FEFEFE"/>
<path d="M144.452 380.832C140.801 380.868 137.15 380.905 133.498 380.905C119.899 380.905 106.337 380.868 92.7373 380.942C91.1352 380.942 90.6136 380.575 90.6509 378.927C90.7627 373.872 90.7627 368.817 90.6509 363.763C90.6136 362.041 90.9862 361.528 92.8491 361.528C109.765 361.602 126.717 361.565 143.633 361.565C144.005 368.012 144.452 374.422 144.452 380.832Z" fill="#FEFEFE"/>
<path d="M142.474 404.018C140.723 403.908 138.451 404.787 137.333 403.652C136.328 402.589 137.073 400.428 137.035 398.743C136.998 395.63 137.035 395.63 140.276 395.63C141.245 395.63 142.251 395.667 143.219 395.667C142.996 398.414 142.735 401.198 142.474 404.018Z" fill="#FDFDFD"/>
<path d="M302.909 404.018C298.401 404.018 293.856 403.981 289.347 404.055C288.192 404.055 287.671 403.871 287.745 402.589C287.857 400.721 287.82 398.817 287.745 396.912C287.708 395.813 288.118 395.593 289.124 395.593C295.756 395.63 302.388 395.63 309.02 395.63C306.002 397.718 303.915 400.502 302.909 404.018Z" fill="#FEFEFE"/>
<path d="M313.379 392.736C312.969 392.553 312.969 392.15 312.969 391.784C312.969 388.817 313.006 385.85 312.969 382.846C312.969 382.004 313.267 381.674 314.124 381.674C317.775 381.711 321.427 381.711 325.041 381.674C326.904 381.674 325.861 383.03 326.084 383.762C321.874 386.766 317.626 389.769 313.379 392.736Z" fill="#FEFEFE"/>
<path d="M327.277 382.956C326.979 382.627 326.755 382.187 327.165 381.894C327.649 381.528 328.283 381.528 328.767 382.04C328.246 382.333 327.761 382.627 327.277 382.956Z" fill="#D7DDE4"/>
<path d="M263.566 227.833C263.566 246.001 263.566 264.169 263.603 282.373C263.603 283.838 263.268 284.314 261.666 284.314C236.48 284.278 211.294 284.278 186.07 284.314C184.468 284.314 184.133 283.838 184.133 282.373C184.17 245.964 184.17 209.555 184.133 173.145C184.133 171.644 184.468 171.204 186.07 171.204C211.256 171.241 236.443 171.241 261.666 171.204C263.268 171.204 263.603 171.68 263.603 173.145C263.566 191.35 263.566 209.591 263.566 227.833Z" fill="#FEFEFE"/>
<path d="M223.735 285.083C237.894 285.083 252.014 285.12 266.172 285.047C267.7 285.047 268.184 285.413 268.11 286.952C267.998 290.248 268.073 290.248 264.645 290.248C236.85 290.248 209.056 290.248 181.261 290.285C179.585 290.285 179.026 289.882 179.1 288.197C179.249 285.083 179.138 285.083 182.23 285.083C196.053 285.083 209.875 285.083 223.735 285.083Z" fill="#FEFEFE"/>
<path d="M364.645 283.728C367.215 285.303 369.227 287.391 371.09 289.699C368.519 288.16 366.47 286.036 364.645 283.728Z" fill="#658BB5"/>
<path d="M60.843 262.483C59.3899 262.264 57.7877 262.154 56.2228 261.824C54.8069 261.531 54.3598 261.934 54.2853 263.326C54.1735 265.084 53.801 266.806 53.5774 268.564C53.5029 269.113 53.4656 269.809 52.7205 269.736C51.7517 269.663 52.087 268.82 52.1616 268.307C52.3851 266.366 52.6087 264.425 52.9812 262.52C53.1675 261.568 52.8695 261.385 52.0126 261.275C49.8515 261.018 47.7277 260.689 45.6039 260.359C45.1195 260.286 44.4862 260.286 44.5607 259.59C44.6352 258.784 45.3059 258.967 45.8275 259.04C47.8022 259.297 49.7397 259.553 51.7145 259.846C52.9068 260.029 53.5401 259.773 53.6146 258.418C53.7264 256.659 54.0991 254.938 54.3226 253.18C54.3971 252.594 54.3971 251.751 55.2541 251.898C56.1111 252.044 55.813 252.85 55.7385 253.436C55.5149 255.231 55.3286 257.062 54.9187 258.857C54.6206 260.066 55.105 260.322 56.1483 260.469C57.7877 260.652 59.4644 260.872 61.1038 261.128C61.6999 261.238 62.7432 261.018 62.6687 261.971C62.5196 262.996 61.5882 262.447 60.843 262.483Z" fill="#FDFDFD"/>
<path d="M202.835 228.309C202.909 224.866 201.754 223.657 198.178 223.547C197.544 223.51 196.948 223.547 196.315 223.547C194.787 223.547 193.632 222.998 193.185 221.496C192.812 220.324 193.148 219.298 194.154 218.566C195.421 217.577 196.724 217.87 197.917 218.712C199.072 219.518 200.19 220.36 201.605 220.8C203.245 221.313 204.623 221.423 205.257 219.371C205.443 218.749 205.927 218.199 206.3 217.65C207.716 215.525 207.641 215.049 205.89 213.144C204.959 212.119 203.729 211.533 202.499 210.947C201.158 210.324 200.488 209.298 200.748 207.833C200.972 206.661 201.717 205.855 202.984 205.672C204.474 205.416 205.592 206.038 206.151 207.357C206.97 209.152 207.939 210.837 209.616 212.009C210.398 212.558 211.032 212.741 211.926 212.046C213.416 210.873 215.167 209.994 216.993 209.408C217.924 209.115 218.222 208.602 218.222 207.687C218.185 205.892 217.477 204.353 216.508 202.925C215.652 201.606 215.353 200.324 216.508 199.079C217.365 198.127 218.483 197.797 219.713 198.42C221.277 199.189 221.65 200.507 221.352 202.119C221.203 202.962 221.166 203.841 221.24 204.683C221.426 207.504 222.172 208.199 225.003 208.273C225.637 208.309 226.233 208.309 226.866 208.346C229.623 208.602 230.778 207.87 231.598 205.159C231.859 204.28 231.97 203.364 232.157 202.485C232.418 201.24 233.125 200.361 234.467 200.178C235.771 199.995 236.814 200.398 237.447 201.57C238.081 202.815 237.783 203.987 236.851 204.94C235.994 205.819 235.026 206.588 234.318 207.613C232.976 209.555 233.051 209.958 235.063 211.166C235.733 211.569 236.516 211.936 237.038 212.522C238.342 213.987 239.571 213.511 240.912 212.595C242.216 211.679 243.036 210.397 243.818 209.079C244.601 207.76 245.644 207.101 247.209 207.504C248.438 207.797 249.072 208.639 249.184 209.848C249.333 211.423 248.476 212.412 247.06 212.888C245.197 213.547 243.595 214.463 242.365 216.001C241.807 216.734 241.657 217.283 242.254 218.089C242.85 218.932 243.483 219.848 243.744 220.8C244.228 222.778 245.57 222.998 247.246 222.888C248.699 222.778 250.003 222.228 251.27 221.606C252.574 220.946 253.804 221.056 254.847 222.119C255.704 222.998 255.778 224.096 255.257 225.159C254.623 226.551 253.394 226.844 251.978 226.587C250.339 226.294 248.699 225.928 247.023 226.294C245.905 226.514 245.309 226.917 245.421 228.236C245.532 229.627 245.458 231.056 245.272 232.411C245.123 233.29 245.495 233.583 246.128 233.986C247.805 235.049 249.631 235.085 251.494 235.012C253.021 234.975 254.213 235.525 254.661 237.027C255.033 238.162 254.698 239.224 253.692 239.957C252.649 240.726 251.494 240.763 250.376 240.067C249.035 239.224 247.805 238.162 246.203 237.722C244.787 237.32 243.595 237.173 242.962 238.968C242.664 239.81 242.142 240.653 241.471 241.276C239.981 242.667 240.614 243.84 241.62 245.048C242.552 246.147 243.744 246.88 245.048 247.466C246.427 248.088 247.283 249.077 247.06 250.616C246.874 251.861 246.091 252.74 244.75 252.887C243.185 253.07 242.179 252.301 241.546 250.946C240.763 249.224 239.757 247.612 238.081 246.513C237.336 246.001 236.777 245.927 235.957 246.513C234.467 247.612 232.79 248.455 230.964 248.931C229.809 249.224 229.586 249.847 229.623 250.909C229.66 252.85 230.517 254.389 231.486 256C232.716 258.088 231.523 260.359 229.251 260.396C227.388 260.432 226.084 258.821 226.456 256.696C226.792 254.828 226.68 253.07 225.897 251.348C225.711 250.982 225.488 250.359 225.227 250.323C223.178 250.066 221.017 249.554 219.005 249.81C217.701 249.993 216.881 251.605 216.359 252.924C216.024 253.839 215.912 254.828 215.726 255.781C215.428 257.209 214.795 258.308 213.155 258.491C211.814 258.638 210.882 258.088 210.286 256.916C209.578 255.451 210.286 254.279 211.33 253.363C212.485 252.337 213.528 251.239 214.198 249.81C214.683 248.748 214.795 247.905 213.416 247.356C212.671 247.063 211.926 246.623 211.404 246.074C209.951 244.462 208.759 245.231 207.492 246.294C206.486 247.136 205.778 248.235 205.219 249.371C204.549 250.726 203.58 251.532 202.015 251.275C200.711 251.055 199.891 250.213 199.705 248.968C199.482 247.319 200.525 246.367 201.941 245.781C203.617 245.085 205.145 244.242 206.263 242.741C206.747 242.045 206.896 241.532 206.337 240.799C205.778 240.067 205.368 239.261 204.959 238.418C203.617 235.818 202.313 235.195 199.37 236.001C198.364 236.294 197.395 236.733 196.426 237.136C195.16 237.686 193.967 237.539 193.036 236.514C192.142 235.561 192.03 234.426 192.701 233.29C193.409 232.118 194.489 231.715 195.905 231.972C197.544 232.301 199.184 232.668 200.86 232.301C202.276 232.008 203.319 231.496 202.909 229.774C202.723 229.298 202.835 228.822 202.835 228.309Z" fill="#5982AF"/>
<path d="M220.383 202.961C220.383 203.804 220.271 204.683 220.42 205.525C220.867 208.309 221.649 208.968 224.444 209.005C225.189 209.005 225.934 209.042 226.679 209.152C229.809 209.628 230.74 209.115 232.044 206.258C232.566 205.122 232.715 203.914 232.938 202.742C233.125 201.679 233.684 201.057 234.727 200.983C235.547 200.91 236.18 201.24 236.552 201.972C237.037 202.925 236.776 203.731 236.031 204.463C234.615 205.818 233.199 207.174 232.529 209.115C232.193 210.141 232.156 210.763 233.311 211.276C234.839 211.935 236.254 212.851 237.447 214.023C238.08 214.646 238.676 214.573 239.459 214.243C241.321 213.437 242.849 212.265 243.855 210.47C244.153 209.921 244.451 209.371 244.861 208.932C245.792 207.979 246.91 207.87 247.767 208.859C248.661 209.848 248.438 210.91 247.357 211.679C246.798 212.045 246.165 212.302 245.532 212.521C244.079 213.034 242.961 213.95 241.955 215.049C240.874 216.221 240.166 217.32 241.582 218.785C242.104 219.334 242.402 220.14 242.737 220.873C244.004 223.62 245.42 224.316 248.475 223.547C249.481 223.29 250.45 222.851 251.418 222.448C252.387 222.045 253.356 221.825 254.138 222.741C254.697 223.4 254.809 224.169 254.325 224.939C253.691 225.928 252.722 226.001 251.679 225.745C249.742 225.268 247.804 225.085 245.83 225.671C244.861 225.964 244.265 226.294 244.451 227.576C244.675 229.114 244.637 230.726 244.228 232.301C243.967 233.327 244.265 233.986 245.234 234.572C246.873 235.561 248.661 235.964 250.561 235.927C251.12 235.927 251.716 235.854 252.238 235.964C253.505 236.294 254.175 237.173 253.728 238.418C253.281 239.59 252.313 240.103 251.046 239.48C250.487 239.224 250.003 238.821 249.481 238.491C248.55 237.869 247.618 237.283 246.538 236.953C243.781 236.111 243.52 236.22 242.104 238.711C241.657 239.517 241.284 240.433 240.614 241.019C238.9 242.521 239.682 243.839 240.688 245.268C241.806 246.843 243.482 247.649 245.122 248.528C245.941 248.967 246.463 249.627 246.277 250.579C246.128 251.458 245.569 251.971 244.675 252.154C243.669 252.337 243.035 251.788 242.551 251.019C242.29 250.616 242.141 250.139 241.918 249.7C241.061 248.015 239.943 246.623 238.304 245.634C237.447 245.085 236.739 244.902 235.845 245.634C234.205 246.953 232.231 247.795 230.219 248.345C229.287 248.601 228.989 249.077 228.915 249.993C228.728 252.374 229.473 254.425 230.815 256.33C231.374 257.172 231.523 258.051 230.815 258.857C230.219 259.517 229.474 259.7 228.617 259.37C227.573 258.967 227.387 258.125 227.462 257.136C227.536 256.22 227.536 255.304 227.573 254.388C227.611 252.997 227.201 251.751 226.605 250.506C226.157 249.553 225.599 249.15 224.481 249.187C223.251 249.224 221.947 249.224 220.792 248.857C219.041 248.345 218.073 249.077 217.029 250.286C215.725 251.824 215.278 253.619 214.98 255.487C214.794 256.55 214.384 257.355 213.229 257.539C212.335 257.685 211.59 257.209 211.254 256.476C210.77 255.451 211.18 254.572 211.999 253.876C213.527 252.594 214.757 251.092 215.39 249.187C215.763 248.125 215.725 247.392 214.496 246.843C213.378 246.33 212.26 245.707 211.403 244.828C210.248 243.656 209.317 243.986 208.199 244.682C206.299 245.817 205.219 247.575 204.25 249.407C203.765 250.286 202.946 250.506 202.014 250.323C201.195 250.139 200.785 249.553 200.673 248.748C200.524 247.868 200.897 247.173 201.679 246.77C202.163 246.513 202.685 246.293 203.207 246.074C204.883 245.341 206.224 244.206 207.305 242.74C207.864 241.935 207.938 241.312 207.342 240.433C206.523 239.224 205.777 237.942 205.256 236.587C204.846 235.598 204.25 235.158 203.244 235.012C201.157 234.645 199.183 234.829 197.245 235.744C196.761 235.964 196.239 236.294 195.718 236.404C194.414 236.697 193.445 236.22 193.259 234.865C193.072 233.547 193.818 232.777 195.196 232.741C195.792 232.741 196.426 232.887 197.022 232.997C198.959 233.327 200.822 233.327 202.685 232.631C203.542 232.301 203.952 231.935 203.765 230.909C203.542 229.517 203.505 228.089 203.877 226.734C204.213 225.525 203.765 224.792 202.759 224.17C200.673 222.814 198.4 222.558 196.016 222.631C195.01 222.668 194.339 222.192 194.078 221.276C193.855 220.47 194.153 219.811 194.786 219.334C195.494 218.785 196.239 218.748 197.022 219.188C197.394 219.408 197.767 219.628 198.102 219.921C199.704 221.203 201.53 221.825 203.542 222.045C204.548 222.155 205.144 221.972 205.517 220.946C206.038 219.444 206.932 218.089 207.938 216.88C208.497 216.184 208.46 215.635 208.087 214.902C207.156 213.108 205.889 211.679 204.026 210.8C203.43 210.507 202.797 210.214 202.275 209.774C201.232 208.895 201.269 207.833 202.238 206.954C203.169 206.111 204.213 206.295 204.995 207.21C205.368 207.613 205.591 208.126 205.815 208.639C206.336 209.774 206.97 210.8 207.864 211.642C210.025 213.73 210.546 213.803 213.117 212.192C214.57 211.276 216.135 210.507 217.812 210.031C218.669 209.774 218.967 209.335 219.004 208.456C219.079 206.514 218.743 204.72 217.625 203.071C217.253 202.522 216.88 201.936 216.731 201.276C216.47 200.178 216.955 199.335 218.147 199.079C219.377 198.822 220.271 199.298 220.457 200.58C220.494 201.35 220.42 202.155 220.383 202.961C220.42 202.961 220.42 202.961 220.383 202.961Z" fill="#FEFEFE"/>
<path d="M225.599 219.884C225.561 221.826 223.959 223.327 222.022 223.291C220.047 223.254 218.483 221.679 218.557 219.774C218.594 217.87 220.234 216.295 222.171 216.331C224.071 216.368 225.636 217.943 225.599 219.884Z" fill="#6188B3"/>
<path d="M231.934 227.649C233.573 227.613 234.876 228.895 234.914 230.506C234.914 232.008 233.684 233.327 232.157 233.4C230.555 233.473 228.991 232.008 229.028 230.433C229.065 228.968 230.444 227.686 231.934 227.649Z" fill="#6189B3"/>
<path d="M220.532 236.587C220.383 237.539 219.824 238.052 218.855 237.942C217.924 237.869 217.327 237.283 217.439 236.367C217.551 235.525 218.073 234.902 219.079 234.975C220.085 235.085 220.42 235.781 220.532 236.587Z" fill="#6289B3"/>
<path d="M224.741 219.811C224.741 221.202 223.437 222.485 221.984 222.485C220.68 222.485 219.376 221.202 219.376 219.884C219.338 218.529 220.717 217.21 222.133 217.21C223.474 217.247 224.741 218.492 224.741 219.811Z" fill="#FCFCFD"/>
<path d="M231.82 232.448C230.702 232.338 230.031 231.715 230.031 230.47C230.031 229.224 230.851 228.492 232.006 228.492C233.273 228.492 234.13 229.298 234.056 230.58C233.944 231.752 233.199 232.484 231.82 232.448Z" fill="#FAFBFC"/>
<path d="M219.081 237.136C218.746 237.136 218.448 236.989 218.374 236.66C218.262 236.257 218.523 235.964 218.932 235.854C219.268 235.781 219.528 236 219.603 236.33C219.715 236.77 219.529 237.063 219.081 237.136Z" fill="#DFE7EF"/>
</svg>
