<svg width="353" height="539" viewBox="0 0 353 539" fill="none" xmlns="http://www.w3.org/2000/svg">
<g opacity="0.1" clip-path="url(#clip0_9424_8387)">
<path d="M176.001 52.5371L288.415 115.177C294.528 118.584 296.73 126.305 293.319 132.426L280.852 154.8C277.445 160.914 269.717 163.111 263.603 159.704L216.119 133.245L259.142 284.539L323.286 266.3C336.828 262.456 350.924 270.31 354.779 283.849L400.736 445.521C402.657 452.255 398.747 459.272 392.01 461.182L367.373 468.193C360.643 470.106 353.626 466.196 351.712 459.466L312.712 322.302L248.575 340.544C235.029 344.398 220.929 336.546 217.082 322.995L167.095 147.19L140.635 194.674C137.228 200.788 129.507 202.989 123.386 199.578L101.012 187.111C94.8916 183.7 92.7011 175.976 96.1079 169.862L158.752 57.4416C162.163 51.3208 169.88 49.1265 176.001 52.5371Z" fill="black"/>
</g>
<defs>
<clipPath id="clip0_9424_8387">
<rect width="404" height="404" fill="white" transform="matrix(-0.873536 -0.486759 -0.486759 0.873536 549.559 186.082)"/>
</clipPath>
</defs>
</svg>
