<svg width="438" height="408" viewBox="0 0 438 408" fill="none" xmlns="http://www.w3.org/2000/svg">
<path d="M188.471 106.734C188.928 104.219 188.928 104.219 191.176 104.676C197.387 105.934 203.635 107.191 209.846 108.449C210.265 108.525 210.723 108.487 211.142 108.525C211.408 108.601 211.675 108.372 211.942 108.601C213.999 110.125 216.59 110.697 218.61 112.335C219.067 112.716 219.41 113.592 220.286 113.097C220.705 113.249 220.972 113.554 221.239 113.859C225.659 118.203 227.907 123.499 228.44 129.596C228.631 131.577 228.212 133.52 227.869 135.463C226.307 144.799 224.859 154.134 224.02 163.545C223.563 168.651 223.449 173.795 222.077 178.786C221.01 182.711 219.753 186.559 217.733 190.141C217.124 191.246 217.2 192.274 217.543 193.418C220.782 204.505 224.135 215.555 227.412 226.605C231.26 239.484 235.07 252.362 238.957 265.241C239.49 267.985 238.88 270.69 238.614 273.357C237.89 281.092 237.128 288.865 236.556 296.6C236.213 301.439 237.394 306.163 239.566 310.545C241.395 314.241 243.262 317.899 245.205 321.519C245.586 322.243 246.272 323.005 245.663 323.957C245.091 324.3 244.482 324.338 243.872 324.224C241.281 323.805 238.652 323.957 236.023 324.11C225.659 323.881 215.295 324.072 204.969 323.995C204.131 323.995 203.331 324.034 202.492 323.957C199.825 324.11 197.12 323.805 194.453 324.11C193.614 324.338 193.767 325.062 193.767 325.634C193.729 327.044 193.767 328.492 193.729 329.94C193.729 330.625 193.767 331.311 193.195 331.845C192.205 331.54 192.357 330.702 192.281 329.978C192.205 328.835 192.243 327.691 192.243 326.548C192.281 325.291 192.205 324.186 190.871 323.5C189.995 323.043 189.995 322.014 189.957 321.138C189.918 318.547 189.957 315.956 189.918 313.327C189.918 312.603 190.071 311.803 189.385 311.041C188.661 311.688 188.852 312.565 188.852 313.289C188.813 318.623 188.852 323.957 188.813 329.254C188.813 330.168 189.195 331.349 187.823 331.768C187.175 331.006 187.366 330.092 187.366 329.216C187.366 323.767 187.366 318.318 187.327 312.908C187.327 312.184 187.67 311.345 186.832 310.85C185.346 310.431 183.86 310.698 182.374 310.621C181.65 310.583 180.888 310.621 180.202 310.202C178.793 308.526 179.212 306.43 179.021 304.563C177.345 288.103 175.706 271.642 174.03 255.144C172.772 242.722 171.553 230.263 170.296 217.841C170.181 216.698 170.067 215.479 171.629 215.098C173.306 214.679 174.716 215.174 175.363 216.546C175.668 217.194 175.82 217.879 176.011 218.527C179.936 234.111 183.936 249.657 187.975 265.203C188.509 267.222 188.89 269.28 189.385 271.338C189.08 270.194 188.852 269.09 188.89 267.908C189.156 254.953 188.318 242.037 188.471 229.082C188.585 219.442 187.823 209.802 188.128 200.162C188.547 198.18 187.747 196.961 186.032 195.78C172.429 186.33 158.827 176.843 145.224 167.355C144.691 166.974 144.157 166.631 143.89 166.022C143.624 164.04 145.148 162.669 145.719 160.992C148.615 155.277 151.511 149.561 154.292 143.77C155.321 142.97 156.083 143.732 156.845 144.227C162.561 147.771 168.124 151.505 173.801 155.124C178.069 157.868 182.26 160.687 186.565 163.393C186.985 163.659 187.404 164.155 187.899 163.774C188.318 163.469 188.128 162.973 188.09 162.516C187.594 157.601 187.708 152.686 188.051 147.732C189.576 142.665 190.185 137.407 191.328 132.225C191.557 131.196 191.633 130.091 191.938 129.062C193.081 125.252 192.128 122.242 188.585 120.222C187.975 119.46 188.09 118.546 188.09 117.707C188.09 114.088 188.242 110.43 188.471 106.734Z" fill="#6DB5DE"/>
<path d="M61.9325 63.2209C63.3423 53.5809 64.7903 43.9028 66.2001 34.2628C66.6954 30.7955 68.3338 29.5381 71.763 30.0334C93.9007 33.2722 116.038 36.4728 138.138 39.7115C143.853 40.5498 149.531 41.4261 155.246 42.2644C157.989 42.6835 159.323 44.5124 158.942 47.2177C158.79 48.3227 158.447 49.4658 158.713 50.6089C158.637 54.2286 157.875 57.7722 157.342 61.3538C157.189 63.6781 156.541 65.9643 156.618 68.3266C156.237 69.1268 156.161 69.965 156.199 70.8414C155.246 74.5374 155.056 78.3857 154.293 82.1198C153.798 87.1494 152.807 92.0646 152.198 97.0942C152.122 97.78 152.007 98.4659 152.045 99.1517C150.712 105.82 149.95 112.564 148.921 119.27C148.311 123.461 147.664 127.653 147.054 131.882C146.978 132.492 146.902 133.139 146.444 133.635C145.377 134.321 144.692 133.482 143.968 132.949C141.491 131.082 138.671 130.167 135.585 130.167C134.823 130.205 134.29 129.672 133.756 129.253C133.07 128.719 132.499 128.796 131.889 129.291C129.603 127.919 127.088 127.005 124.65 126.052C122.706 125.29 120.915 125.595 119.315 126.89C118.744 127.119 118.058 127.233 118.058 128.072C117.524 128.948 116.953 129.786 116.191 130.472C115.581 130.853 115.314 131.387 115.314 132.111C114.171 136.569 115.734 139.731 119.506 142.284C126.783 147.237 134.023 152.191 141.224 157.22C142.024 157.792 143.053 158.211 143.053 159.468C142.939 160.649 142.672 161.793 142.405 162.974C141.986 165.031 140.767 166.289 138.671 166.632C134.137 166.708 129.755 165.679 125.297 165.031C110.552 162.898 95.8439 160.688 81.0982 158.592C80.3361 158.478 79.6122 158.325 78.8501 158.173C78.0119 157.868 77.1355 157.906 76.2973 157.83C68.6767 156.725 61.0561 155.658 53.4356 154.439C50.3112 153.943 49.0538 152.457 48.8633 149.409C48.8633 148.761 48.8633 148.076 48.9395 147.428C50.235 140.15 51.1113 132.796 52.2544 125.481C52.4068 124.604 52.483 123.728 52.9022 122.928C53.5499 122.09 54.3882 122.509 55.1883 122.547C57.7793 122.699 59.9892 122.204 61.1704 119.537C61.6277 119.003 61.5134 118.317 61.5134 117.67C62.3898 116.603 62.5803 115.269 62.9613 113.974C63.3424 113.516 63.6472 113.059 63.6091 112.45C63.9901 108.754 61.9706 105.553 57.9698 103.534C57.1697 103.114 56.1028 103 55.8742 101.819C56.5219 95.3796 57.6269 89.0164 58.5795 82.6152C59.0367 79.5288 59.3034 76.4425 60.0273 73.3943C60.2941 72.7084 60.3322 71.9845 60.3322 71.2224C60.5608 69.2411 60.8276 67.2598 61.2467 65.3165C61.4372 64.5926 61.4371 63.7924 61.9325 63.2209Z" fill="#202B6D"/>
<path d="M314.858 256.097C314.401 256.859 314.858 257.583 315.011 258.269C320.993 282.54 326.975 306.812 332.957 331.121C332.385 332.188 331.357 332.036 330.442 332.036C327.203 332.074 323.965 332.15 320.764 332.036C313.791 331.769 306.856 332.683 299.884 332.379C298.093 332.379 296.34 332.379 294.549 332.379C293.025 332.379 292.111 331.731 291.92 330.207C291.615 327.387 290.853 324.644 291.158 321.71C291.425 319.119 290.587 316.566 290.167 314.013C286.243 288.522 282.356 263.032 278.394 237.503C278.203 236.284 278.165 234.95 277.251 233.959C276.146 228.892 275.612 223.748 274.774 218.642C274.012 213.955 273.326 209.269 272.602 204.582C272.45 203.668 272.221 202.715 272.793 201.839C274.584 200.924 276.527 201.42 278.394 201.381C281.442 201.305 281.442 201.343 282.014 198.295C282.699 194.294 283.461 190.332 284.109 186.331C284.414 184.464 284.224 184.235 282.318 184.197C280.185 184.159 278.013 184.197 275.879 184.159C275.079 184.159 274.203 184.235 273.555 183.588C273.098 180.844 273.479 178.063 273.669 175.319C273.898 172.042 274.012 168.766 274.202 165.489C274.469 160.688 274.698 155.925 275.041 151.124C275.079 150.667 275.155 150.248 275.384 149.867C275.536 149.638 275.727 149.562 275.955 149.6C276.832 150.552 276.489 151.772 276.527 152.877C276.641 156.344 278.127 157.83 281.556 157.868C286.51 157.906 288.834 154.782 287.348 149.981C286.929 148.571 286.014 147.504 284.528 147.123C282.814 146.704 282.204 145.675 282.242 143.961C282.28 136.797 282.242 129.634 282.28 122.471C282.28 120.261 282.699 119.842 284.795 119.804C288.262 119.765 291.768 119.575 295.235 119.918C297.712 120.147 300.112 120.794 302.284 122.052C303.542 122.738 303.999 122.395 303.961 121.023C303.923 119.194 303.923 117.327 303.961 115.498C303.961 114.774 303.885 113.936 304.608 113.402C304.723 113.44 304.913 113.517 304.913 113.593C305.218 116.908 304.989 120.223 305.066 123.461C305.066 120.794 305.028 118.089 305.104 115.346C305.104 114.698 304.761 113.936 305.447 113.402C306.361 113.898 306.171 114.812 306.171 115.612C306.209 117.898 306.209 120.185 306.171 122.471C306.133 123.842 306.59 124.909 307.542 125.862C310.895 129.177 312.229 133.101 311.962 137.902C311.543 145.675 310.934 153.448 310.705 161.259C310.705 161.945 310.552 162.631 310.362 163.317C310.324 163.66 310.324 164.003 310.324 164.308C310.21 170.442 309.638 176.577 309.333 182.673C309.181 185.836 308.838 188.998 308.838 192.161C308.838 194.752 308.381 197.19 306.971 199.438C306.323 200.429 306.133 201.534 306.133 202.715C306.133 208.049 306.133 213.346 306.133 218.68C306.133 221.309 307.009 223.786 307.619 226.301C309.905 235.788 312.381 245.238 314.591 254.725C314.858 255.221 314.896 255.64 314.858 256.097Z" fill="#6DB5DE"/>
<path d="M188.701 199.666C188.853 213.993 189.006 228.358 189.196 242.684C189.348 252.782 189.539 262.841 189.73 273.014C189.082 272.633 189.158 271.947 189.006 271.376C184.433 253.658 179.899 235.902 175.365 218.184C174.984 216.622 174.717 215.365 172.507 215.593C171.059 215.746 170.716 216.012 170.869 217.46C172.507 233.121 174.107 248.743 175.708 264.403C177.194 278.996 178.603 293.551 180.051 308.145C180.128 308.831 180.28 309.516 180.394 310.202C181.042 310.85 180.966 311.726 181.042 312.527C181.69 318.699 182.49 324.872 182.871 331.083C182.871 331.54 183.061 331.959 183.1 332.416C183.557 337.522 184.09 342.628 184.624 347.733C184.662 348.191 184.7 348.648 184.7 349.105C185.5 356.497 186.186 363.927 186.948 371.319C186.986 371.776 186.986 372.234 186.986 372.691C187.443 374.558 187.367 376.463 187.634 378.368C187.748 379.092 187.786 379.892 187.024 380.426C185.119 380.692 183.252 380.502 181.347 380.502C173.117 380.54 164.925 380.54 156.694 380.502C155.666 380.502 154.523 380.73 153.684 379.778C153.761 377.339 153.456 374.939 153.265 372.5C152.884 372.157 152.846 371.7 152.77 371.243C152.046 363.889 151.703 356.535 151.246 349.181C151.246 348.724 151.208 348.267 151.246 347.81C150.598 342.704 150.56 337.522 150.141 332.378C150.141 332.035 150.141 331.692 150.141 331.349C149.493 324.415 149.264 317.442 148.617 310.507C148.121 300.905 147.321 291.303 146.75 281.702C146.331 274.919 145.911 268.175 145.454 261.431C144.883 252.782 144.349 244.132 143.701 235.445C143.206 228.701 142.863 221.918 142.406 215.174C141.949 208.468 141.682 201.762 141.034 195.094C140.996 194.523 140.996 193.951 140.996 193.379C140.996 192.884 141.11 192.427 141.377 192.046C142.139 191.398 143.054 191.589 143.93 191.741C158.18 194.103 172.393 196.466 186.643 198.904C187.405 198.942 188.167 199.057 188.701 199.666Z" fill="#8F3600"/>
<path d="M272.87 201.953C273.823 208.392 274.775 214.831 275.728 221.233C276.376 225.462 277.023 229.73 277.709 233.959C277.633 234.302 277.366 234.492 277.061 234.645C275.156 234.683 274.547 235.826 274.356 237.579C273.518 245.923 272.489 254.23 271.537 262.536C270.47 272.062 269.365 281.587 268.298 291.075C268.031 293.285 267.841 295.495 267.498 297.705C267.345 298.734 267.688 299.572 268.183 300.41C272.489 307.688 276.642 315.042 280.986 322.243C285.215 329.902 289.788 337.332 294.093 344.914C297.408 350.744 301.028 356.383 304.076 362.365C304.076 362.441 304.076 362.556 304.076 362.632C303.428 363.47 303.924 364.118 304.305 364.88C306.743 369.262 309.182 373.682 311.621 378.063C311.925 378.597 312.154 379.207 312.421 379.74C311.849 380.35 311.049 380.388 310.287 380.388C299.047 380.388 287.768 380.426 276.528 380.388C276.147 380.388 275.766 380.35 275.385 380.273C274.47 380.083 274.166 379.321 273.785 378.597C272.756 376.654 271.918 374.672 270.736 372.805C270.508 372.386 270.279 371.967 270.089 371.548C266.355 363.927 262.163 356.535 258.391 348.877C258.239 348.534 258.048 348.229 257.896 347.886C255.076 342.742 252.485 337.522 249.742 332.34C249.589 331.997 249.399 331.692 249.246 331.35C248.37 329.33 247.075 327.539 246.16 325.558C245.893 324.948 245.436 324.377 245.627 323.615C243.76 319.995 241.969 316.375 240.026 312.794C236.253 305.973 235.529 298.696 236.368 291.037C237.32 282.464 238.159 273.891 238.578 265.279C238.082 259.869 239.187 254.573 239.568 249.2C240.102 241.808 240.826 234.454 241.55 227.062C241.969 224.129 242.083 221.157 242.35 218.184C242.769 214.641 243.074 211.059 243.341 207.516C243.455 205.649 243.455 203.744 244.179 201.953C244.903 201.191 245.893 201.191 246.808 201.191C254.695 201.153 262.582 201.153 270.47 201.191C271.384 201.305 272.222 201.267 272.87 201.953Z" fill="#E74F4F"/>
<path d="M274.89 379.778C287.426 379.778 299.962 379.778 312.498 379.778C312.117 383.817 310.859 387.666 310.021 391.628C308.992 396.467 307.811 401.268 306.82 406.107C306.554 407.403 306.058 407.784 304.725 407.784C285.94 407.708 267.156 407.669 248.409 407.669C206.229 407.669 164.012 407.708 121.832 407.746C119.393 407.746 119.355 407.746 119.812 405.269C120.651 400.963 122.746 397.572 126.671 395.286C135.053 390.447 143.36 385.494 151.704 380.578C152.352 380.197 152.962 379.702 153.762 379.702C164.202 379.702 174.68 379.74 185.12 379.74C185.806 379.74 186.53 379.626 187.14 380.007C187.788 380.388 187.673 381.112 187.749 381.721C188.283 385.341 188.473 389.037 188.854 392.657C189.045 394.638 189.236 394.791 190.988 393.724C198.342 389.342 205.658 384.922 212.973 380.54C213.888 379.969 214.802 379.397 215.907 379.283C218.651 378.673 221.47 378.788 224.252 378.788C232.482 378.826 240.75 378.673 248.981 378.864C250.276 379.016 250.733 379.893 251.038 381.036C252.257 385.456 253.324 389.875 254.505 394.295C255.001 396.162 255.039 396.201 256.487 394.981C261.935 390.333 267.308 385.608 272.757 380.921C273.442 380.426 273.976 379.778 274.89 379.778Z" fill="black"/>
<path d="M272.868 201.953C263.99 201.953 255.112 201.915 246.234 201.915C245.587 201.915 244.939 201.839 244.444 202.372C243.872 202.448 243.262 202.448 242.691 202.448C242.386 202.448 242.081 202.448 241.738 202.486C238.08 202.486 234.423 202.639 230.765 202.067C227.069 201.496 224.554 198.448 225.125 195.133C226.688 193.99 228.555 194.942 230.384 194.371C228.593 193.685 226.65 194.713 225.125 193.532C224.668 192.58 224.668 191.627 225.087 190.675C225.849 189.76 226.916 190.065 227.869 189.989C228.669 189.913 229.507 190.103 230.422 189.76C228.707 189.189 226.916 189.951 225.392 189.15C224.935 187.322 226.154 186.217 227.412 185.493C228.898 184.616 228.974 183.74 228.402 182.254C227.564 180.082 227.678 177.758 228.136 175.51C230.193 165.641 232.327 155.811 234.118 145.866C234.88 141.751 235.642 137.636 236.366 133.521C236.556 132.53 236.48 131.654 236.023 130.777C232.365 123.538 229.164 116.07 225.43 108.868C224.783 107.611 224.02 106.468 223.487 105.172C223.373 104.41 223.449 103.686 223.792 103C224.63 100.943 226.078 99.8378 228.326 99.8378C229.888 100.943 230.422 102.772 231.26 104.334C232.403 106.468 233.584 108.601 235.032 110.545C233.889 108.068 232.632 105.629 231.336 103.191C230.688 102.01 229.622 100.981 229.888 99.4186C231.26 99.0376 232.632 98.6566 234.042 98.2756C234.956 98.7709 235.299 99.6854 235.718 100.524C236.861 102.924 238.309 105.172 239.49 107.573C239.795 108.144 240.062 108.83 240.938 109.325C239.414 106.01 237.623 103.115 236.099 100.066C235.756 99.4186 235.108 98.8471 235.566 98.0088C237.928 97.8564 239.986 98.7709 241.967 99.914C242.31 99.9902 242.538 100.219 242.653 100.524C243.834 104.143 245.815 107.268 248.292 110.125C248.368 111.078 248.978 111.802 249.321 112.64C249.473 112.945 249.626 113.25 249.74 113.555C250.045 114.469 250.502 115.307 250.959 116.222C251.569 115.346 251.416 114.279 251.759 113.402C251.95 113.059 252.14 112.678 252.598 112.602C254.579 112.983 256.636 112.678 258.542 113.479C258.999 114.469 258.618 115.46 258.465 116.451C258.046 118.737 257.627 121.061 257.322 123.347C256.37 127.653 255.836 132.073 254.808 136.378C254.769 137.026 254.541 137.598 254.465 138.245C253.245 145.561 251.988 152.915 250.845 160.269C250.464 161.793 250.311 163.355 250.045 164.917C249.283 169.185 248.559 173.49 247.759 177.758C247.492 179.129 247.949 179.93 249.245 180.349C250.388 180.73 251.531 181.111 252.674 181.454C255.074 182.521 257.627 182.749 260.256 182.749C264.143 182.749 268.067 183.245 271.954 183.092C272.602 183.054 273.211 183.206 273.745 183.549C276.983 183.588 280.184 183.702 283.423 183.702C284.718 183.702 285.175 183.969 284.871 185.455C283.842 190.522 282.965 195.628 282.089 200.734C281.937 201.724 281.556 201.991 280.603 201.991C278.05 201.915 275.459 201.953 272.868 201.953Z" fill="#FD9993"/>
<path d="M146.103 133.825C146.942 130.701 147.17 127.5 147.627 124.338C148.847 116.374 149.952 108.373 151.095 100.371C151.171 99.7995 151.514 99.4947 151.781 99.0756C153 97.2466 154.867 97.2847 156.696 97.5134C158.982 97.7801 161.192 98.2373 163.44 98.7326C165.459 99.1899 165.612 99.4185 165.231 101.476C164.126 107.534 162.907 113.555 161.687 119.575C161.421 120.832 161.192 122.052 161.001 123.309C160.773 124.49 160.239 125.176 158.868 125.252C156.315 125.405 155.019 126.662 154.448 129.215C154.181 130.396 153.876 131.577 154.105 132.796C154.562 135.159 156.81 136.569 160.544 136.797C162.64 136.912 164.316 135.654 164.964 133.368C165.193 132.53 165.345 131.653 165.459 130.739C165.688 128.605 164.964 126.967 162.945 126.128C161.497 125.519 161.154 124.528 161.459 123.08C162.983 115.765 164.278 108.373 165.764 101.057C165.917 100.295 166.069 99.5328 167.06 99.4566C171.556 100.104 175.938 101.209 180.396 102.009C180.967 102.124 181.463 102.352 181.882 102.772C183.101 103.038 184.358 103.419 185.578 103.534C187.102 103.686 187.559 104.181 187.178 105.782C186.225 109.935 185.425 114.088 184.663 118.279C184.473 119.422 184.13 119.461 183.101 119.27C178.148 118.394 175.595 120.299 174.68 125.252C173.613 130.929 172.47 136.569 171.365 142.208C170.68 145.789 172.089 148.723 175.137 149.828C175.747 150.057 176.471 150.4 176.814 149.638C177.195 148.723 176.281 148.761 175.709 148.495C173.385 147.542 172.28 145.751 172.737 143.199C173.918 136.835 175.137 130.51 176.433 124.185C177.043 121.328 179.291 119.994 182.148 120.604C184.244 121.023 186.34 121.518 188.435 121.975C188.969 122.89 188.969 123.919 188.969 124.909C189.007 129.824 188.969 134.778 188.473 139.693C188.054 141.751 187.673 143.77 187.254 145.828C186.683 148.533 185.158 149.79 182.339 149.828C181.805 149.828 181.082 149.6 180.967 150.4C180.891 151.314 181.653 151.276 182.301 151.314C184.968 151.391 186.911 150.248 188.092 147.847C188.512 148.152 188.473 148.609 188.473 149.066C188.512 154.058 188.55 159.087 188.55 164.079C188.55 164.384 188.626 164.727 188.131 165.069C184.358 162.631 180.51 160.116 176.623 157.639C169.841 153.258 163.021 148.838 156.239 144.456C155.743 144.113 155.21 143.351 154.486 144.227C153.571 144.303 152.924 143.732 152.39 143.122C150.218 140.417 148.237 137.559 146.218 134.74C146.141 134.473 146.027 134.168 146.103 133.825Z" fill="black"/>
<path d="M299.466 331.845C309.754 331.693 320.042 331.54 330.33 331.35C331.206 331.35 332.12 331.464 332.959 331.083C334.406 336.684 335.854 342.285 337.302 347.886C337.721 348.229 337.988 348.648 338.102 349.144C339.969 356.498 341.798 363.889 343.627 371.243C343.704 371.662 343.704 372.082 343.437 372.424C343.932 374.444 344.275 376.501 344.923 378.483C345.456 380.121 344.847 380.236 343.513 380.197C341.303 380.121 339.093 380.197 336.883 380.235C336.426 380.464 335.893 380.464 335.397 380.464C329.225 380.388 323.014 380.464 316.841 380.426C315.927 380.426 314.936 380.578 314.136 379.816C311.202 374.444 308.268 369.071 305.334 363.699C305.067 363.204 304.724 362.746 304.077 362.632L304.115 362.67C302.743 358.822 302.515 354.707 301.829 350.744C300.876 345.295 300.038 339.847 299.2 334.398C299.123 333.56 298.895 332.645 299.466 331.845Z" fill="#E74F4F"/>
<path d="M141.529 193.151C142.177 202.638 142.824 212.126 143.472 221.575C144.349 234.34 145.187 247.104 146.025 259.869C146.711 270.309 147.397 280.749 148.044 291.151C148.464 297.552 148.807 303.915 149.188 310.317C148.616 311.079 147.74 311.041 146.94 311.041C142.329 311.079 137.681 311.079 133.07 311.041C130.517 311.003 130.06 310.469 130.251 307.954C130.517 304.792 130.746 301.629 131.165 298.505C131.241 298.124 131.394 297.819 131.66 297.514C132.003 294.314 132.422 291.113 132.727 287.912C133.413 280.673 134.061 273.471 134.709 266.232C134.747 265.622 134.747 264.974 134.747 264.327C133.87 263.717 132.918 263.984 131.965 263.984C92.6432 263.984 53.2831 263.984 13.9611 263.946C13.0848 263.946 11.9036 264.517 11.332 263.222C12.3608 262.345 13.6182 262.612 14.7994 262.612C36.2893 262.612 57.7792 262.612 79.2691 262.612C96.3772 262.612 113.523 262.612 130.632 262.612C131.394 262.612 132.156 262.612 132.918 262.574C133.908 262.536 134.404 262.079 134.518 261.088C134.67 259.526 134.899 257.925 135.013 256.363C135.051 255.868 135.242 255.449 135.318 254.953C135.547 248.285 136.461 241.694 137.033 235.102C137.719 227.291 138.405 219.48 139.167 211.669C139.738 205.991 140.195 200.314 140.729 194.637C140.691 194.027 140.653 193.303 141.529 193.151Z" fill="#6DB5DE"/>
<path d="M181.88 102.809C176.927 101.933 171.974 101.057 167.097 99.8373C166.411 98.3894 167.097 96.9796 167.249 95.5698C167.668 91.569 168.316 92.0263 164.353 90.9213C161.838 90.2355 159.438 89.1686 157.419 87.4921C155.628 86.0061 154.218 84.2152 153.875 81.8148C154.332 78.6522 154.828 75.5278 155.247 72.3653C155.361 71.6794 155.323 70.9936 155.971 70.5364C156.275 69.8886 156.276 69.2028 156.314 68.4788C155.513 66.8023 156.58 65.202 156.542 63.5255C156.542 62.8015 156.733 62.0395 156.847 61.3155C157.228 60.744 157.838 60.5915 158.485 60.4391C161.8 59.5628 165.153 58.8388 168.43 57.8482C169.954 57.3909 170.945 57.7338 171.859 58.9912C175.975 64.4399 180.814 69.1647 186.11 73.4322C186.796 73.9656 187.444 74.3847 188.32 74.3466C188.396 74.9944 188.815 75.4897 189.234 75.9469C192.206 79.1857 191.101 83.3389 186.796 84.3676C184.853 84.8249 184.205 85.7012 183.976 87.5683C183.366 92.7121 182.604 97.7417 181.88 102.809Z" fill="#FD9993"/>
<path d="M314.21 379.816C321.221 379.816 328.194 379.816 335.205 379.778C335.814 379.778 336.462 379.664 336.957 380.235C339.929 387.665 342.939 395.095 345.911 402.525C346.559 404.164 347.245 405.802 347.893 407.44C347.359 407.936 346.788 407.707 346.254 407.707C334.1 407.707 321.945 407.707 309.752 407.745C308.152 407.745 307.961 407.402 308.304 405.878C310.324 397.229 312.229 388.542 314.21 379.816Z" fill="black"/>
<path d="M242.158 94.3123C242.005 90.9974 241.586 87.6825 242.043 84.3675C242.348 83.796 242.348 83.1482 242.577 82.5386C243.339 81.3955 243.949 80.0619 245.473 79.6809C249.092 79.338 252.712 79.1856 255.951 81.2812C258.313 82.8053 260.218 84.8629 261.971 87.0347C266.315 92.4072 269.515 98.4274 271.916 104.905C272.64 106.81 272.83 108.868 273.288 110.849C273.516 111.916 273.897 112.906 274.697 113.707C275.345 115.269 275.536 116.983 275.917 118.622C276.069 119.346 276.145 120.108 275.421 120.679C271.382 121.327 267.382 121.099 263.343 120.832C262.466 120.489 262.238 119.689 262.047 118.889C261.666 117.288 261.323 115.688 260.98 114.088C260.638 112.792 259.266 113.44 258.542 112.792C258.123 112.64 257.665 112.525 257.246 112.564C250.578 112.678 246.806 108.829 244.253 103.228C243.606 101.78 243.225 100.218 242.539 98.8084C242.386 97.9702 241.929 97.17 242.501 96.3318C242.844 95.9507 243.682 95.9888 243.606 95.2649C243.529 94.3885 242.539 94.7696 242.158 94.3123Z" fill="#FD9993"/>
<path d="M211.941 108.601C211.674 108.715 211.369 108.944 211.141 108.525C215.561 95.5701 219.942 82.6151 224.362 69.6602C227.182 61.3919 230.001 53.1237 232.821 44.8173C233.088 44.0552 233.278 43.2551 233.583 42.2644C229.887 42.2644 226.344 42.2644 222.838 42.2644C218.952 42.2644 217.008 40.3211 217.008 36.3966C217.008 33.1578 216.97 29.9191 217.008 26.6804C217.047 23.0225 219.028 21.0412 222.686 21.0031C228.096 20.965 233.469 20.9269 238.879 21.0412C240.48 21.0793 241.051 20.7364 241.013 18.9836C240.899 13.2682 241.013 7.55283 240.937 1.83742C240.937 0.389519 241.394 -0.0296089 242.804 0.00849375C245.166 0.122802 247.491 0.122802 249.853 0.00849375C251.263 -0.0677117 251.72 0.389519 251.682 1.83742C251.606 7.62903 251.72 13.3825 251.606 19.1742C251.568 20.7364 252.063 21.0412 253.511 21.0412C289.175 21.0031 324.839 21.0031 360.503 21.0412C362.104 21.0412 362.523 20.6221 362.485 19.0217C362.37 13.3063 362.485 7.59093 362.408 1.87552C362.408 0.503827 362.713 -0.0677117 364.199 0.00849375C366.6 0.122802 369.038 0.122802 371.439 0.00849375C372.81 -0.0677117 373.153 0.465723 373.115 1.76121C373.039 7.47662 373.153 13.192 373.039 18.9074C373.001 20.5077 373.306 21.1174 375.097 21.0412C379.516 20.8888 383.975 21.0031 388.433 21.0031C392.624 21.0031 394.415 22.7939 394.415 27.0614C394.415 30.1858 394.415 33.2721 394.415 36.3966C394.415 40.4736 392.586 42.2644 388.433 42.2644C385.842 42.2644 383.212 42.3787 380.621 42.2263C378.793 42.112 378.907 42.7597 379.402 44.1314C382.565 53.238 385.651 62.3445 388.737 71.451C404.702 118.165 420.629 164.879 436.556 211.593C436.823 212.355 437.356 213.117 436.975 214.26C435.947 213.422 435.87 212.355 435.566 211.478C427.031 186.521 418.534 161.602 410.037 136.645C399.558 105.896 389.042 75.147 378.602 44.36C378.03 42.7216 377.345 42.1882 375.554 42.1882C329.411 42.2644 283.307 42.2644 237.165 42.1882C235.145 42.1882 234.269 42.7216 233.583 44.703C226.801 64.8212 219.942 84.9013 213.084 104.981C212.779 106.201 212.36 107.382 211.941 108.601Z" fill="#5982AF"/>
<path d="M131.66 297.553C131.66 297.819 131.66 298.086 131.66 298.391C130.784 299.077 129.717 298.924 128.726 298.924C122.821 298.924 116.953 298.924 111.047 298.924C108.38 298.924 108.303 299.001 108.303 301.744C108.303 310.508 108.303 319.233 108.303 327.997C108.303 330.74 108.38 330.855 111.237 330.855C123.354 330.855 135.471 330.855 147.549 330.855C148.616 330.855 149.721 330.626 150.636 331.426C150.636 331.693 150.636 331.998 150.674 332.264C149.797 333.026 148.768 332.836 147.778 332.836C140.615 332.874 133.451 332.836 126.288 332.836C123.621 332.836 123.545 332.912 123.545 335.617C123.545 338.742 123.506 341.828 123.545 344.953C123.583 347.01 123.735 347.201 125.869 347.239C133.527 347.277 141.224 347.239 148.883 347.277C149.874 347.277 150.94 347.086 151.779 347.886C151.817 348.229 151.817 348.572 151.855 348.915C151.245 349.677 150.407 349.601 149.569 349.639C148.159 349.677 146.787 349.639 145.377 349.639C101.559 349.639 57.7031 349.639 13.885 349.639C10.1128 349.639 10.1128 349.639 10.1128 353.373C10.1128 358.136 10.1128 362.899 10.1128 367.662C10.1128 370.9 10.1128 370.9 13.4277 370.9C34.308 370.9 55.1882 370.9 76.0304 370.9C100.645 370.9 125.259 370.9 149.873 370.9C151.055 370.9 152.312 370.596 153.341 371.51C153.341 371.853 153.379 372.196 153.379 372.501C106.093 372.501 58.8461 372.501 11.5607 372.463C9.96035 372.463 9.38882 372.767 9.42692 374.52C9.54123 381.264 9.54123 387.97 9.42692 394.715C9.38882 396.467 9.96035 396.886 11.5607 396.772C13.0086 396.658 14.4946 396.772 15.9425 396.734C17.0093 396.696 17.3523 397.115 17.3904 398.182C17.5047 401.268 17.5428 401.268 14.5327 401.268C10.2652 401.268 6.03579 401.154 1.76829 401.306C-0.213053 401.383 0.015572 400.24 0.015572 399.02C-0.0225307 397.763 -0.136857 396.582 1.80638 396.734C3.4448 396.886 5.12132 396.658 6.75973 396.81C8.32194 396.925 8.66487 396.353 8.66487 394.867C8.62676 383.817 8.62677 372.767 8.62677 361.718C8.62677 357.793 8.70299 353.83 8.58868 349.906C8.55058 348.267 9.08403 347.886 10.6462 347.925C18.0001 348.001 25.3538 347.886 32.7077 348.001C34.7271 348.039 35.1082 347.391 35.032 345.562C34.8796 341.638 34.9558 337.675 35.032 333.75C35.0701 332.569 34.6509 332.226 33.5079 332.264C29.5833 332.34 25.6206 332.226 21.696 332.302C20.3243 332.341 19.7909 332.036 19.7909 330.512C19.829 320.11 19.829 309.708 19.7909 299.267C19.7909 297.972 20.1719 297.515 21.5055 297.515C47.5297 297.553 73.5538 297.553 99.5399 297.515C100.873 297.515 101.254 297.858 101.254 299.229C101.216 309.708 101.216 320.186 101.254 330.664C101.254 331.883 100.911 332.302 99.6541 332.302C95.92 332.226 92.1479 332.302 88.4138 332.264C87.1564 332.226 86.623 332.455 86.623 333.903C86.7373 338.094 86.6992 342.285 86.623 346.477C86.623 347.658 86.966 348.001 88.109 348.001C98.8159 347.963 109.561 347.963 120.268 348.001C121.411 348.001 121.792 347.696 121.792 346.515C121.716 342.323 121.716 338.132 121.792 333.941C121.83 332.722 121.487 332.302 120.192 332.302C116.267 332.379 112.304 332.264 108.38 332.341C107.008 332.379 106.665 331.921 106.703 330.626C106.741 320.224 106.741 309.822 106.703 299.382C106.703 297.934 107.16 297.591 108.532 297.591C116.305 297.591 123.964 297.553 131.66 297.553Z" fill="#5983AF"/>
<path d="M274.394 113.63C272.794 113.63 273.137 112.221 273.022 111.42C271.498 102.39 267.231 94.6553 261.744 87.4919C259.229 84.2151 256.448 81.205 252.142 80.2143C249.894 79.6809 247.684 80.1381 245.436 80.1C245.284 79.0712 246.122 78.6902 246.77 78.233C248.522 77.0518 250.58 76.5184 252.599 76.0611C255.876 75.3372 259.191 74.7275 262.506 74.3084C263.764 74.156 264.145 73.5845 263.802 72.4033C263.802 72.0985 263.916 71.7936 264.068 71.5269C264.106 66.9546 265.707 63.1824 269.822 60.8963C274.356 58.3434 278.776 61.0106 279.043 66.1925C279.119 67.9453 278.7 69.5837 278.166 71.2221C278.166 71.7936 278.052 72.3271 277.747 72.8224C276.985 74.156 275.994 75.2991 274.737 76.1754C274.051 76.6708 273.823 77.1661 274.394 77.8901C277.214 81.3574 278.281 85.663 279.805 89.74C280.757 92.2929 281.519 94.8839 282.472 97.4368C283.463 100.18 283.767 102.962 282.853 105.781C282.586 106.391 282.358 107.001 281.786 107.382C280.681 109.706 278.814 111.268 276.757 112.678C276.337 113.364 275.613 113.478 274.928 113.668C274.737 113.745 274.547 113.707 274.394 113.63Z" fill="black"/>
<path d="M11.3314 263.298C12.0554 263.908 12.9318 263.603 13.6938 263.603C53.4349 263.603 93.176 263.603 132.917 263.68C133.451 263.68 134.632 262.841 134.67 264.365C94.4335 264.365 54.197 264.365 13.9605 264.365C13.2747 264.365 12.5507 264.403 11.8649 264.327C9.54062 264.022 8.20703 262.346 8.20703 259.793C8.20703 257.24 9.57871 255.373 11.903 255.335C13.6176 255.297 13.6557 254.535 13.6557 253.277C13.6176 230.683 13.6557 208.088 13.6557 185.455C13.6557 148.495 13.6557 111.535 13.6557 74.6139C13.6557 73.2803 13.77 72.2896 11.7887 72.2896C9.50253 72.2515 8.20702 70.3083 8.24512 67.7173C8.28323 65.3168 9.65492 63.6403 11.8649 63.3355C12.4745 63.2593 13.1223 63.2974 13.77 63.2974C29.8113 63.2974 45.8906 63.2593 61.9318 63.2593C61.8556 63.907 62.2366 64.631 61.6651 65.2025C60.522 64.7453 59.3408 64.631 58.1215 64.631C43.7949 64.631 29.4683 64.631 15.1798 64.631C14.0367 64.631 12.8937 64.631 11.7887 65.012C10.417 65.5073 9.73113 66.4599 9.76923 67.8697C9.80734 69.3557 10.5313 70.3845 12.0173 70.8036C12.8937 71.0322 13.77 71.0322 14.6464 71.0322C29.2778 71.0322 43.9093 71.0322 58.5407 71.0322C59.3027 71.0322 60.0648 70.8798 60.7887 71.2608C60.7125 71.9086 61.0174 72.5944 60.484 73.166C46.1955 72.8231 31.945 73.0898 17.6565 73.0517C15.637 73.0517 15.4465 73.2803 15.3703 75.414C15.3703 75.9856 15.3703 76.5571 15.3703 77.1287C15.3703 135.045 15.3703 192.923 15.3703 250.839C15.3703 254.687 15.3703 254.687 19.2187 254.687C56.8642 254.687 94.4716 254.687 132.117 254.687C133.374 254.687 134.67 254.382 135.813 255.221C135.699 255.526 135.584 255.868 135.47 256.173C134.365 256.897 133.146 256.669 131.965 256.669C93.2903 256.669 54.578 256.669 15.9038 256.669C14.875 256.669 13.8843 256.631 12.8555 256.745C10.0359 257.126 8.93098 259.526 10.4932 261.889C10.7599 262.346 11.2552 262.689 11.3314 263.298Z" fill="#5D85B1"/>
<path d="M337.606 348.8C337.492 348.496 337.416 348.191 337.302 347.886C341.302 347.886 345.303 347.848 349.304 347.886C350.523 347.886 350.98 347.619 350.942 346.324C350.866 342.132 350.866 337.941 350.942 333.75C350.98 332.416 350.447 332.188 349.266 332.188C345.341 332.264 341.378 332.188 337.454 332.226C336.196 332.264 335.663 331.997 335.701 330.587C335.739 320.109 335.739 309.631 335.701 299.153C335.701 297.933 335.968 297.476 337.302 297.476C363.44 297.514 389.578 297.514 415.717 297.476C416.936 297.476 417.203 297.895 417.203 299.038C417.165 309.593 417.165 320.109 417.203 330.664C417.203 331.997 416.707 332.264 415.526 332.226C411.792 332.15 408.02 332.264 404.286 332.188C402.914 332.15 402.571 332.645 402.609 333.94C402.686 338.055 402.686 342.209 402.609 346.324C402.571 347.581 403.029 347.924 404.248 347.924C411.792 347.886 419.337 347.962 426.919 347.848C428.596 347.81 429.053 348.305 429.053 349.982C428.977 364.842 429.053 379.702 428.977 394.562C428.977 396.353 429.51 396.886 431.187 396.734C432.558 396.581 433.968 396.772 435.378 396.696C436.483 396.657 436.94 397 436.978 398.22C437.054 401.23 437.092 401.23 434.044 401.23C429.777 401.23 425.547 401.154 421.28 401.268C419.451 401.306 419.565 400.277 419.603 399.096C419.641 397.953 419.184 396.581 421.242 396.696C423.147 396.81 425.052 396.696 426.957 396.734C427.872 396.734 428.176 396.429 428.176 395.514C428.138 388.275 428.138 381.035 428.176 373.796C428.176 372.805 427.834 372.386 426.843 372.5C426.729 372.5 426.576 372.5 426.462 372.5C398.799 372.5 371.137 372.5 343.474 372.5C343.436 372.157 343.36 371.853 343.322 371.51C344.274 370.595 345.455 370.862 346.56 370.862C372.051 370.862 397.58 370.862 423.071 370.862C428.138 370.862 427.605 371.281 427.605 366.404C427.643 361.717 427.605 356.993 427.605 352.306C427.605 349.791 427.452 349.639 424.9 349.639C411.907 349.639 398.875 349.639 385.882 349.639C370.832 349.639 355.819 349.639 340.769 349.639C339.702 349.562 338.483 349.905 337.606 348.8Z" fill="#5983AF"/>
<path d="M188.321 74.385C188.054 75.2995 187.673 75.2614 186.949 74.6898C181.653 70.6128 176.699 66.1548 172.736 60.7823C170.946 58.3438 169.307 57.7722 166.526 58.801C163.401 59.906 160.086 60.5156 156.848 61.3539C157.343 58.1151 157.838 54.8383 158.296 51.5996C158.334 51.2185 158.41 50.8375 158.715 50.5708C166.373 52.1711 174.108 53.619 181.729 55.4098C186.377 56.5148 189.387 60.9728 189.121 65.85C189.006 68.7458 188.587 71.5654 188.321 74.385Z" fill="black"/>
<path d="M274.812 113.516C275.384 113.097 276.032 112.831 276.718 112.716C306.362 112.716 335.967 112.716 365.611 112.754C368.164 112.754 368.164 112.754 368.164 115.269C368.164 161.412 368.164 207.554 368.202 253.696C368.202 255.563 367.821 256.135 365.84 256.135C348.846 256.059 331.852 256.059 314.82 256.059C314.516 255.868 314.401 255.601 314.401 255.259C315.354 254.382 316.535 254.649 317.678 254.611C332.919 254.573 348.122 254.611 363.363 254.611C366.716 254.611 366.716 254.611 366.716 251.258C366.716 223.595 366.716 195.895 366.716 168.232C366.716 167.965 366.716 167.737 366.716 167.47C366.678 164.917 366.602 164.803 364.011 164.803C348.008 164.803 332.043 164.803 316.04 164.803C314.706 164.803 313.372 164.803 312.039 164.803C311.277 164.803 310.515 164.803 309.867 164.231C309.867 163.926 309.867 163.622 309.867 163.317C310.896 162.593 312.077 162.783 313.182 162.783C329.909 162.783 346.636 162.783 363.401 162.783C366.716 162.783 366.716 162.783 366.716 159.392C366.716 145.256 366.716 131.12 366.716 116.946C366.716 114.164 366.678 114.088 363.82 114.088C345.569 114.088 327.318 114.088 309.067 114.088C307.962 114.088 306.781 114.317 305.752 113.593C304.914 114.05 305.333 114.85 305.295 115.46C305.257 118.241 305.257 120.985 304.875 123.766C304.875 120.985 304.914 118.241 304.837 115.46C304.837 114.812 305.218 114.05 304.38 113.593C303.618 114.202 302.704 114.088 301.827 114.088C293.711 114.088 285.596 114.088 277.48 114.088C276.603 114.126 275.613 114.279 274.812 113.516Z" fill="#5882AE"/>
<path d="M277.555 72.3652C277.745 71.9842 277.974 71.6032 278.164 71.2222C278.926 71.7556 279.765 71.527 280.565 71.527C308.989 71.527 337.376 71.5651 365.8 71.4889C367.629 71.4889 368.277 71.7937 368.239 73.8513C368.125 84.2533 368.125 94.6553 368.239 105.057C368.239 106.924 367.858 107.496 365.877 107.496C337.833 107.42 309.828 107.458 281.784 107.458C281.975 106.963 282.203 106.467 282.394 105.972C309.599 106.2 336.804 106.01 364.01 106.048C366.677 106.048 366.753 105.934 366.753 103.228C366.753 94.2362 366.753 85.2059 366.753 76.2136C366.753 73.0511 366.715 73.013 363.591 73.013C336.08 73.013 308.532 73.013 281.022 73.013C279.841 72.9749 278.583 73.2797 277.555 72.3652Z" fill="#5983AF"/>
<path d="M388.699 103.114C399.482 136.53 410.265 169.985 419.486 203.858C409.427 170.213 398.644 136.797 388.699 103.114Z" fill="#5A83AF"/>
<path d="M242.807 98.6564C243.569 98.9231 243.531 99.609 243.722 100.18C244.484 102.657 245.512 105.058 247.113 107.115C249.627 110.354 252.904 112.107 257.057 112.107C257.705 112.107 258.467 111.84 258.963 112.564C259.115 112.907 259.153 113.25 258.886 113.593C258.734 113.707 258.543 113.707 258.391 113.631C256.372 113.555 254.314 113.555 252.371 112.869C252.028 113.021 251.647 112.907 251.304 112.831C250.047 112.297 248.789 111.802 248.141 110.468C244.941 107.611 243.302 103.876 241.969 99.9519C242.007 99.6852 242.045 99.4184 242.083 99.1136C242.274 98.8469 242.388 98.4659 242.807 98.6564Z" fill="#040202"/>
<path d="M188.511 139.693C188.511 133.787 188.473 127.881 188.473 121.975C190.721 123.423 191.407 125.328 190.797 127.995C189.882 131.882 189.235 135.806 188.511 139.693Z" fill="#6AAFD6"/>
<path d="M264.107 71.5274C264.145 71.7941 264.145 72.0608 264.183 72.3275C263.345 73.1277 262.278 72.9372 261.288 72.9372C256.182 72.9753 251.076 72.9372 245.932 72.9372C243.608 72.9372 243.494 73.1277 243.417 75.4138C243.341 77.7762 243.799 80.2148 242.884 82.539C242.694 83.1868 242.503 83.7964 242.046 84.3299C242.008 80.5196 242.046 76.7093 241.931 72.9372C241.893 71.6798 242.465 71.4893 243.532 71.4893C250.428 71.5274 257.249 71.5274 264.107 71.5274Z" fill="#5F87B2"/>
<path d="M188.47 106.734C189.004 109.821 188.508 112.907 188.622 115.993C188.661 117.441 188.661 118.889 188.699 120.337C185.803 120.032 185.841 120.032 186.374 117.289C187.098 113.745 187.784 110.24 188.47 106.734Z" fill="#080C0E"/>
<path d="M235.567 98.0089C237.396 101.438 239.225 104.905 241.054 108.373C241.321 108.906 242.159 109.554 241.168 110.126C240.33 110.583 240.101 109.668 239.835 109.173C237.891 105.553 235.986 101.933 234.043 98.3518C234.424 97.5516 234.957 97.5897 235.567 98.0089Z" fill="#070404"/>
<path d="M229.927 99.4182C231.718 102.771 233.471 106.124 235.224 109.477C235.529 110.049 236.291 110.811 235.452 111.306C234.462 111.878 234.271 110.697 233.928 110.125C232.023 106.696 230.156 103.229 228.289 99.7993C228.594 98.4276 229.242 98.8848 229.927 99.4182Z" fill="#060404"/>
<path d="M32.1379 26.6421C32.3665 26.7945 32.5951 26.9469 32.7476 27.0993C34.7289 29.0426 36.6721 31.0239 38.6153 32.9671C38.882 33.2339 39.2631 33.5006 38.9202 33.9197C38.5391 34.3388 38.2343 33.9197 38.0057 33.6911C35.9863 31.7097 34.0049 29.6903 31.9855 27.6709C31.8331 27.5185 31.7188 27.2517 31.7188 27.0231C31.7188 26.9088 31.9855 26.7564 32.1379 26.6421Z" fill="#6E92B9"/>
<path d="M223.792 102.924C223.792 103.61 223.792 104.334 223.83 105.019C223.715 108.144 222.306 110.849 221.315 113.707C221.239 113.897 221.01 113.897 220.819 113.936C220.438 113.783 220.4 113.44 220.324 113.097C221.277 110.011 222.191 106.887 223.182 103.8C223.258 103.457 223.372 103.076 223.792 102.924Z" fill="#638AB4"/>
<path d="M418.498 67.1455C419.832 70.1937 421.128 73.2419 422.461 76.2902C422.232 76.4045 422.004 76.4807 421.737 76.595C420.251 73.5849 418.879 70.5748 417.812 67.4122C418.041 67.336 418.27 67.2217 418.498 67.1455Z" fill="#648AB4"/>
<path d="M402.382 264.518C402.229 262.917 403.067 261.508 403.448 260.022C403.83 258.497 404.325 257.011 404.782 255.487C404.858 255.221 405.011 254.84 405.43 254.954C405.735 255.03 405.773 255.297 405.697 255.564C404.782 258.574 403.868 261.622 402.915 264.632C402.763 264.632 402.572 264.594 402.382 264.518Z" fill="#668CB5"/>
<path d="M112.953 23.0985C113.906 19.9741 114.858 16.8497 115.925 13.3062C116.497 15.0589 114.477 21.9555 112.953 23.0985Z" fill="#6188B3"/>
<path d="M242.157 94.313C242.881 94.1225 243.605 93.7415 244.215 94.5416C244.482 94.9227 244.52 95.3799 244.291 95.799C243.948 96.4849 243.338 96.523 242.691 96.3325C242.386 96.2182 242.272 95.9133 242.043 95.6847C242.119 95.1894 242.157 94.7322 242.157 94.313Z" fill="#060505"/>
<path d="M242.082 95.6079C242.311 95.8365 242.501 96.0651 242.73 96.2557C242.234 97.0558 242.73 97.856 242.806 98.618C242.577 98.7704 242.311 98.8847 242.082 99.0372C242.082 97.9322 242.082 96.751 242.082 95.6079Z" fill="#547297"/>
<path d="M249.817 379.397C238.424 379.701 226.993 379.206 215.601 379.701C216.058 377.263 214.877 375.053 214.496 372.767C214.382 372.31 214.191 371.852 214.115 371.395C212.133 364.041 210.304 356.611 208.437 349.219C208.285 348.343 208.095 347.467 207.79 346.628C206.494 341.866 205.351 337.103 204.056 332.34C203.979 332.035 203.903 331.768 203.865 331.463C203.37 329.52 202.875 327.577 202.417 325.672C202.227 324.948 201.922 324.224 202.455 323.5C213.315 323.5 224.136 323.5 234.995 323.538C235.414 323.538 235.871 323.729 236.291 323.805C237.357 324.796 237.243 326.243 237.624 327.463C238.005 328.72 238.272 330.054 238.615 331.311C238.691 331.616 238.767 331.921 238.805 332.226C240.063 337.369 241.434 342.437 242.578 347.581C242.616 348.076 242.806 348.572 242.92 349.067C244.749 356.497 246.616 363.927 248.483 371.319C248.598 371.7 248.674 372.119 248.75 372.538C249.207 374.138 249.627 375.777 249.931 377.453C250.046 378.063 250.274 378.749 249.817 379.397Z" fill="#8F3600"/>
<path d="M220.822 113.936C221.813 110.964 222.842 107.992 223.832 105.02C227.947 111.459 230.653 118.584 234.044 125.366C234.654 126.548 235.035 127.881 235.797 128.948C237.321 131.006 237.054 133.139 236.635 135.425C234.158 148.914 231.491 162.364 228.633 175.776C228.062 178.443 228.176 181.073 229.472 183.549C229.815 184.235 229.891 184.654 229.052 184.997C227.262 185.721 226.08 187.093 225.356 188.845C225.204 189.379 225.433 189.912 225.318 190.446C225.318 191.475 225.28 192.503 225.28 193.532C225.242 194.066 225.28 194.599 225.28 195.132C225.776 199.4 227.757 201.191 231.948 201.648C235.301 201.991 238.616 201.762 241.969 201.953C242.579 202.448 242.579 203.172 242.617 203.858C242.731 211.517 242.541 219.175 242.236 226.834C242.236 226.948 242.122 227.062 242.084 227.177C241.131 238.265 240.255 249.391 239.264 260.479C239.112 262.117 239.34 263.793 238.692 265.356C236.635 259.831 235.187 254.115 233.472 248.514C227.871 229.958 222.423 211.364 216.86 192.808C216.555 191.779 216.669 191.017 217.164 190.141C220.403 184.235 222.499 177.872 222.956 171.204C223.756 159.316 225.28 147.504 227.338 135.768C228.786 127.614 226.919 120.604 221.203 114.583C221.051 114.393 220.936 114.164 220.822 113.936Z" fill="#FEFEFE"/>
<path d="M146.1 133.825C148.043 136.454 150.025 139.083 151.968 141.75C152.692 142.741 153.492 143.617 154.559 144.189C152.044 149.98 149.11 155.505 146.291 161.145C145.414 161.145 144.652 160.611 143.814 160.421C143.471 159.963 143.014 159.659 142.9 159.049C141.147 157.296 138.937 156.153 136.956 154.743C130.935 150.552 124.877 146.437 118.857 142.208C114.627 139.236 113.751 136.835 115.008 131.805C115.885 131.31 116.418 132.034 117.028 132.415C119.428 133.939 121.676 135.73 124.115 137.254C124.648 137.597 125.106 138.016 125.83 137.978C123.162 135.997 120.457 134.092 117.752 132.225C117.066 131.729 116.075 131.501 116.037 130.396C116.685 129.557 117.066 128.567 117.98 127.919C118.819 127.767 119.39 128.338 120.038 128.719C122.324 130.167 124.458 131.882 126.744 133.291C127.277 133.634 127.697 134.092 128.497 134.015C126.058 132.187 123.582 130.434 121.067 128.719C120.305 128.186 119.352 127.881 119.009 126.852C119.543 125.519 120.876 125.176 121.943 125.214C125.715 125.366 128.992 126.89 132.04 129.1C133.107 129.215 133.831 129.977 134.669 130.548C137.298 132.415 139.966 134.13 142.785 135.73C141.223 134.206 139.356 133.139 137.603 131.882C136.803 131.31 135.736 131.005 135.431 129.9C138.137 129.329 140.537 130.358 142.823 131.539C143.928 132.072 144.957 133.025 146.1 133.825Z" fill="#FD9993"/>
<path d="M188.699 199.667C182.107 198.562 175.477 197.457 168.885 196.39C159.779 194.904 150.672 193.418 141.604 191.932C140.918 191.36 140.956 190.56 141.032 189.836C141.528 184.54 141.87 179.244 142.328 173.986C142.518 171.738 142.404 169.413 143.052 167.203C143.28 166.67 143.433 166.06 144.195 166.098C153.606 172.614 163.017 179.168 172.429 185.683C177.23 188.998 181.955 192.427 186.794 195.628C188.356 196.695 189.156 197.8 188.699 199.667Z" fill="black"/>
<path d="M204.473 332.188C205.959 337.027 207.103 341.98 208.284 346.895C208.512 348.42 207.369 348.343 206.455 348.381C203.978 348.458 201.501 348.42 199.063 348.42C194.872 348.42 190.718 348.42 186.527 348.42C185.727 348.42 184.851 348.496 184.165 347.924C183.479 342.742 182.907 337.522 182.641 332.264C184.393 331.235 186.222 331.769 188.051 331.883C188.47 331.235 188.28 330.511 188.28 329.864C188.28 323.843 188.28 317.823 188.28 311.803C188.28 311.079 188.051 310.241 189.271 310.203C190.49 310.164 190.566 310.926 190.566 311.803C190.604 315.118 190.642 318.395 190.68 321.71C190.68 322.662 190.718 323.5 192.052 323.462C193.157 323.424 192.928 324.301 192.966 324.948C193.119 327.273 192.662 329.635 193.233 331.921C196.548 331.502 199.901 331.769 203.216 331.769C203.711 331.731 204.092 331.959 204.473 332.188Z" fill="#FEFEFE"/>
<path d="M182.491 331.426C181.729 324.338 180.853 317.289 180.434 310.164C182.72 310.317 185.044 309.745 187.33 310.469C187.749 311.079 187.635 311.803 187.635 312.489C187.635 318.09 187.635 323.729 187.635 329.33C187.635 331.769 187.597 331.845 185.044 331.807C184.168 331.807 183.253 332.035 182.491 331.426Z" fill="#FDFDFD"/>
<path d="M238.232 331.464C237.356 328.987 236.861 326.358 236.289 323.805C238.69 323.234 241.128 323.577 243.529 323.615C244.291 323.615 245.015 323.653 245.777 323.691C247.11 326.244 248.634 328.72 249.701 331.388C249.663 331.426 249.625 331.502 249.587 331.502C245.738 332.226 242.005 332.34 238.232 331.464Z" fill="#FDFEFE"/>
<path d="M202.456 323.462C203.104 326.091 203.714 328.721 204.362 331.388C203.561 332.112 202.533 331.807 201.618 331.807C199.523 331.845 197.427 331.845 195.331 331.807C194.607 331.807 193.807 331.693 193.807 330.778C193.845 328.34 193.312 325.863 194.112 323.462C196.893 323.462 199.675 323.462 202.456 323.462Z" fill="#FEFEFE"/>
<path d="M182.488 331.426C187.289 331.464 187.289 331.464 187.289 326.625C187.289 321.252 187.327 315.88 187.327 310.469C188.661 310.241 187.975 311.308 187.975 311.689C188.013 317.671 188.013 323.615 188.013 329.597C188.013 330.359 188.051 331.121 188.089 331.883C186.337 332.683 184.47 332.035 182.679 332.264C182.603 331.959 182.526 331.692 182.488 331.426Z" fill="#5882AE"/>
<path d="M194.112 323.462C194.112 325.672 194.15 327.844 194.074 330.054C194.035 331.121 194.416 331.464 195.483 331.426C198.417 331.35 201.389 331.388 204.323 331.388C204.361 331.654 204.437 331.921 204.476 332.188C201.123 332.188 197.808 332.226 194.455 332.226C194.035 332.226 193.54 332.34 193.273 331.845C193.312 329.597 193.312 327.311 193.35 325.063C193.388 324.453 193.007 323.615 194.112 323.462Z" fill="#638AB3"/>
<path d="M144.198 166.098C143.97 166.365 143.741 166.593 143.55 166.86C142.56 164.612 143.055 162.44 143.931 160.306C145.113 159.544 145.494 160.916 146.256 161.183C145.798 162.897 144.389 164.269 144.198 166.098Z" fill="#050505"/>
<path d="M143.93 160.306C143.816 162.478 143.663 164.688 143.549 166.86C142.901 175.205 142.253 183.587 141.606 191.932C141.568 192.351 141.529 192.732 141.491 193.151C141.11 196.656 140.729 200.2 140.386 203.705C139.51 212.736 138.672 221.728 137.872 230.758C137.148 238.912 136.462 247.028 135.776 255.182C135.09 255.22 134.366 255.258 133.68 255.258C94.7775 255.258 55.8746 255.258 17.0099 255.296C15.1428 255.296 14.6094 254.915 14.6094 252.934C14.6856 193.532 14.6856 134.092 14.6094 74.6896C14.6094 72.7083 15.1428 72.3273 17.0099 72.3273C30.8411 72.4035 44.6724 72.3654 58.5037 72.4035C59.1895 72.4035 60.2565 71.8319 60.4851 73.1655C59.0753 82.8436 57.6655 92.4836 56.2176 102.162C55.7603 102.619 55.1888 102.619 54.6172 102.619C52.2929 102.581 50.8069 103.8 49.8544 105.781C48.4827 108.525 47.3777 111.344 46.6919 114.316C45.8536 117.936 47.1872 120.299 50.6927 121.632C51.569 121.975 52.5978 121.937 53.2455 122.775C52.1024 130.548 50.9594 138.283 49.7782 146.056C49.702 146.551 49.5496 147.047 49.3972 147.504C47.9493 151.314 45.8536 154.782 44.0628 158.401C40.3668 165.908 37.3567 173.604 36.3279 181.949C35.5659 188.121 35.5278 194.332 36.0612 200.543C36.366 203.934 36.8614 207.325 37.2805 210.716C38.1568 217.994 45.4345 219.899 50.2354 217.727C55.1888 215.517 59.4563 212.545 62.8474 208.24C65.5146 204.848 69.1725 202.372 72.1064 199.247C72.7542 198.562 73.4781 197.914 74.0877 197.19C76.1834 194.827 77.136 192.16 77.0598 188.883C76.8693 179.624 76.9835 170.366 76.9835 161.107C76.9835 160.23 76.793 159.316 77.4026 158.554C78.3552 158.401 78.5457 159.24 78.8506 159.773C81.5178 164.383 83.9945 169.07 86.5854 173.719C87.2713 174.9 87.538 176.157 87.4999 177.529C87.4618 181.53 87.4999 185.492 87.4999 189.493C87.4999 190.331 87.4237 191.132 87.6904 191.932C87.919 194.104 89.2907 195.628 90.6624 197.114C94.5489 201.381 99.1593 204.963 102.817 209.421C106.094 213.422 110.4 215.67 114.858 217.803C119.735 220.166 126.441 217.232 127.279 211.44C127.927 206.982 128.422 202.524 128.803 198.066C129.26 192.846 128.918 187.702 128.384 182.52C128.346 182.215 128.384 181.873 128.46 181.568C128.575 180.92 128.994 180.425 129.375 179.929C132.347 176.271 134.595 172.156 136.881 168.079C137.338 167.279 137.795 166.555 138.672 166.212C140.577 165.717 141.606 164.498 141.872 162.554C142.063 161.411 142.025 160.154 142.711 159.125C143.587 159.163 143.854 159.659 143.93 160.306Z" fill="#FEFEFE"/>
<path d="M78.6971 113.479C77.8207 113.25 77.3254 112.983 77.8208 111.802C79.002 109.059 80.3736 106.43 82.1263 103.991C82.774 103.077 83.0789 102.391 81.9739 101.705C80.1831 100.562 80.2593 99.2283 81.1357 97.4375C83.0789 93.3986 84.7936 89.2454 86.5844 85.1303C91.5377 73.89 103.464 68.2889 115.314 71.3371C122.782 73.2423 128.878 76.8239 132.841 83.5681C136.575 89.9313 137.299 96.6754 135.28 103.724C134.441 106.696 133.717 109.745 132.079 112.45C128.459 118.432 121.296 121.29 114.285 119.499C112.38 119.004 110.513 118.47 108.608 117.937C105.483 117.06 105.445 117.022 103.464 119.728C100.682 123.538 97.3674 126.624 92.9856 128.567C89.061 130.282 84.9459 130.815 80.7165 130.625C77.8207 130.473 75.7632 128.224 75.5727 125.252C75.344 121.671 75.7632 118.165 76.7539 114.736C77.4397 114.088 78.2017 114.203 78.8114 114.736C79.8402 115.689 78.7733 116.756 78.8495 117.861C79.4973 117.518 79.4973 116.87 79.6878 116.336C80.145 115.041 80.9451 114.546 82.3168 114.965C83.8409 115.422 83.4218 116.375 83.0789 117.365C82.9646 117.708 82.6979 118.051 82.9646 118.432C84.7174 115.574 85.6699 114.927 87.2321 115.498C88.1466 115.841 88.2228 116.184 87.8798 118.508C88.8324 117.784 88.4514 115.993 90.0136 115.879C91.1186 115.765 92.2236 116.375 93.4047 115.917C89.7469 114.927 89.7469 114.927 90.2042 111.726C89.2516 112.679 89.5945 114.469 88.1085 114.927C87.3846 115.155 86.5462 114.965 85.8604 114.698C83.8409 113.974 85.7842 112.526 85.2888 111.345C84.4887 112.831 84.2601 115.041 81.7834 114.241C80.9071 113.974 80.869 113.707 81.4405 110.697C80.7547 111.497 80.7166 112.259 80.3736 112.869C80.0688 113.555 79.6115 114.165 78.6971 113.479Z" fill="#FEFEFE"/>
<path d="M49.3202 149.409C49.5107 152.343 50.6156 153.486 53.4352 153.905C60.6366 154.934 67.8381 156.001 75.0395 157.03C75.4586 157.106 75.8777 157.258 76.3349 157.373C77.1351 158.097 77.1732 159.049 77.1732 160.002C77.1732 170.289 77.1732 180.539 77.1732 190.827C77.1732 193.875 75.23 195.971 73.3629 198.028C71.7245 199.857 69.8956 201.534 68.0285 203.172C65.7805 205.153 63.5706 207.173 61.7797 209.535C58.4648 213.841 53.8925 216.279 49.0153 218.108C43.681 220.166 38.1942 216.622 37.2416 210.755C36.1366 203.858 35.527 196.961 35.6794 189.95C35.8699 180.844 37.8512 172.156 41.471 163.812C43.2237 159.735 45.2813 155.81 47.3007 151.848C47.7579 150.971 47.9866 149.714 49.3202 149.409Z" fill="#FEFEFE"/>
<path d="M87.421 192.046C87.0019 191.398 87.1543 190.713 87.1162 190.027C87.1162 187.055 86.9257 184.045 87.1543 181.073C87.4592 177.262 86.5828 173.909 84.4872 170.671C81.9724 166.746 80.1053 162.402 77.5143 158.478C76.7523 158.211 76.9428 157.83 77.5143 157.601C77.8954 157.449 78.3526 157.487 78.7336 157.678C86.316 158.783 93.8604 159.849 101.443 160.954C112.34 162.555 123.199 164.155 134.097 165.717C135.659 165.946 137.221 166.289 138.822 166.174C137.488 167.813 136.612 169.68 135.583 171.509C133.64 175.014 131.392 178.291 128.915 181.377C128.61 181.873 128.61 182.482 128.229 182.94C125.943 185.416 123.428 187.664 120.685 189.608C111.197 196.352 97.4421 193.57 91.2313 183.74C90.2787 182.254 89.3643 180.768 88.7546 179.053C88.7927 182.635 88.7927 186.178 88.7546 189.722C88.7546 190.408 89.0975 191.398 87.8401 191.513C87.5353 186.788 87.8021 182.063 87.6877 177.796C87.6877 181.454 87.6877 185.607 87.6877 189.76C87.6496 190.56 87.9164 191.36 87.421 192.046Z" fill="#6DB5DE"/>
<path d="M60.8275 71.2227C60.2559 71.6037 59.6082 71.4894 58.9605 71.4894C43.7194 71.4894 28.5164 71.4894 13.2753 71.4894C10.6843 71.4894 9.42691 70.5749 9.08399 68.5555C8.66486 66.0407 9.99845 64.3261 12.5132 64.0975C13.0086 64.0594 13.542 64.0975 14.0373 64.0975C29.2784 64.0975 44.4815 64.0975 59.7225 64.0975C60.5227 64.0975 61.6276 63.6784 61.6657 65.1644C61.399 67.1838 61.0942 69.2032 60.8275 71.2227Z" fill="#FEFEFE"/>
<path d="M53.285 122.738C52.5611 122.585 51.799 122.433 51.0751 122.242C46.96 121.061 45.3216 118.127 46.3122 113.936C46.8838 111.535 47.7983 109.211 48.7508 106.963C50.5417 102.696 51.6847 102.01 56.257 102.162C59.8387 103.61 62.8107 105.706 64.03 109.592C64.3729 110.659 64.4872 111.688 63.8776 112.678C63.0774 113.174 62.4296 112.64 61.7438 112.412C59.7244 111.726 57.7431 110.888 55.6474 110.43C56.6762 111.154 57.8573 111.497 59.0004 111.955C60.4483 112.526 62.0487 112.717 63.2299 113.936C63.1156 115.384 63.0393 116.832 61.7438 117.822C59.8768 118.089 58.3908 116.87 56.7143 116.489C55.7998 116.26 54.9997 115.689 53.9709 115.803C55.2664 116.451 56.6381 116.946 57.9717 117.479C59.2291 118.013 60.6769 118.165 61.6676 119.27C61.0199 121.671 59.572 122.89 56.9048 123.004C55.6474 123.042 54.4662 122.814 53.285 122.738Z" fill="#FD9993"/>
<path d="M153.873 81.853C156.312 87.6446 161.227 89.9308 166.904 91.0739C168.2 91.3406 168.352 91.9883 168.162 93.0933C167.781 95.3414 167.476 97.5894 167.133 99.8375C166.752 99.8756 166.523 99.9518 166.409 100.485C164.923 108.258 163.437 115.993 161.875 123.766C161.646 124.871 161.951 125.252 163.018 125.557C165.304 126.281 166.409 128.186 166.104 130.586C165.99 131.653 165.799 132.72 165.533 133.749C164.923 136.302 162.713 137.673 160.084 137.254C159.207 137.102 158.331 136.95 157.455 136.797C154.559 136.187 153.149 133.978 153.683 131.044C153.835 130.243 153.987 129.443 154.14 128.605C154.711 125.976 156.54 124.566 159.169 124.795C160.008 124.871 160.236 124.719 160.389 123.918C161.875 116.107 163.437 108.258 164.961 100.447C165.075 99.7994 164.999 99.5327 164.313 99.4184C161.57 98.9611 158.865 98.3896 156.083 97.9705C154.559 97.7419 153.073 98.161 151.777 99.0755C150.977 97.5894 151.816 96.1415 152.006 94.7317C152.501 90.4261 153.225 86.1205 153.873 81.853Z" fill="#FEFEFE"/>
<path d="M78.7721 157.677C78.3911 157.982 77.286 157.182 77.5527 158.477C77.5527 169.337 77.5909 180.196 77.5909 191.017C77.5909 192.732 76.9431 194.218 75.9524 195.59C74.4283 197.685 72.5613 199.552 70.6562 201.305C67.1889 204.544 63.7215 207.821 60.597 211.44C57.3964 215.212 53.0527 217.232 48.5185 218.718C43.4508 220.394 38.0022 217.156 37.0496 211.936C34.8015 199.628 34.0776 187.245 37.202 174.938C39.6787 165.107 44.1367 156.077 49.3949 147.466C49.3568 148.114 49.3187 148.761 49.2806 149.447C42.6888 160.726 37.3163 172.461 36.3256 185.759C35.6779 194.104 36.3637 202.334 37.6211 210.564C38.6118 217.079 44.4415 219.899 50.4236 217.156C54.996 215.06 58.8825 212.317 62.1974 208.43C65.5124 204.62 69.3607 201.267 72.9804 197.723C75.6095 195.17 76.867 192.198 76.7526 188.388C76.524 179.777 76.6765 171.128 76.6765 162.516C76.6765 160.802 76.6764 159.087 76.2573 157.411C77.1718 157.373 78.01 157.144 78.7721 157.677Z" fill="#5983AF"/>
<path d="M114.515 46.8746C108.495 45.9982 102.513 45.1219 96.4926 44.2074C89.9008 43.2548 83.3471 42.3023 76.7934 41.2735C76.1076 41.1592 74.774 41.5402 75.0026 40.2447C75.1931 39.1778 76.26 39.7875 76.9459 39.9018C89.4055 41.6926 101.865 43.5215 114.325 45.3505C114.972 45.4648 115.925 45.3886 115.925 46.303C115.849 47.0651 115.049 46.8746 114.515 46.8746Z" fill="#FCFCFC"/>
<path d="M78.6975 113.478C79.4214 113.593 79.8787 113.402 80.0692 112.602C80.2216 111.992 80.4121 111.383 80.6408 110.811C80.8313 110.316 81.0218 109.592 81.7838 109.897C82.3935 110.125 82.1649 110.735 82.0505 111.23C81.9743 111.611 81.7839 111.954 81.7077 112.297C81.6315 112.831 80.7932 113.555 81.8982 113.783C82.6983 113.936 83.8414 114.507 84.1462 112.945C84.2605 112.259 84.6034 111.649 84.8321 110.964C84.9845 110.506 85.2893 110.202 85.8228 110.354C86.3562 110.544 86.3562 111.002 86.2038 111.459C85.899 112.335 85.5942 113.212 85.2512 114.164C85.7085 114.202 86.0513 114.202 86.318 114.317C88.147 115.002 88.9472 114.202 89.3282 112.45C89.4806 111.688 89.5187 110.24 90.6618 110.583C91.9573 110.964 90.9285 112.145 90.6618 112.793C89.8616 114.583 90.4332 115.041 92.1859 115.079C93.0623 115.117 94.7388 114.774 94.5864 116.069C94.434 117.403 92.7955 116.679 92.0334 116.45C89.8997 115.803 89.0615 116.679 88.6805 118.584C88.5662 119.194 88.3375 119.956 87.4611 119.575C86.6991 119.232 87.3087 118.622 87.3087 118.089C87.3468 117.365 88.6042 116.45 87.2706 115.879C85.6703 115.155 84.794 115.688 84.07 117.251C83.7271 118.051 83.9557 119.842 82.584 119.308C81.3266 118.813 82.8127 117.593 82.7746 116.679C82.7746 116.222 83.8033 115.574 82.6983 115.384C81.9362 115.269 80.8313 114.355 80.3359 115.917C80.0692 116.755 79.7644 117.593 79.4595 118.432C79.3071 118.813 79.0404 119.118 78.6213 118.965C78.126 118.813 77.9355 118.432 78.1641 117.936C78.2784 117.632 78.3546 117.327 78.4689 117.022C79.231 114.774 79.231 114.774 76.8305 114.66C76.2209 113.859 76.0684 113.288 77.402 113.402C77.8593 113.44 78.2784 113.44 78.6975 113.478Z" fill="#020202"/>
<path d="M74.0124 48.1321C80.4898 49.1228 86.6624 50.0373 92.8351 50.9517C93.3685 51.028 94.1306 50.9899 94.0163 51.8281C93.902 52.5902 93.2542 52.4759 92.6827 52.3997C86.7006 51.5233 80.6803 50.6088 74.6982 49.7325C74.5076 49.6944 74.3171 49.6563 74.1266 49.6182C73.5551 49.5038 72.8693 49.4657 73.0598 48.6656C73.1741 48.0178 73.7838 48.094 74.0124 48.1321Z" fill="#FAFAFB"/>
<path d="M115.964 130.319C119.012 132.796 122.403 134.739 125.565 137.064C126.061 137.445 127.09 137.711 126.518 138.588C125.908 139.464 125.299 138.588 124.765 138.283C121.45 136.187 118.44 133.672 114.973 131.843C114.821 131.005 114.935 130.357 115.964 130.319Z" fill="#060404"/>
<path d="M118.933 126.776C122.057 128.872 125.182 131.006 128.306 133.139C128.84 133.482 129.83 133.863 129.221 134.663C128.649 135.425 127.963 134.663 127.43 134.32C124.229 132.187 121.067 130.015 117.904 127.843C117.714 127.462 117.332 127.081 117.752 126.662C118.171 126.243 118.552 126.662 118.933 126.776Z" fill="#060303"/>
<path d="M135.356 129.824C137.871 131.501 140.386 133.216 142.9 134.93C143.319 135.235 144.043 135.54 143.548 136.226C143.167 136.797 142.672 136.492 142.215 136.188C138.785 133.787 135.204 131.653 131.965 129.024C132.041 128.148 132.346 127.691 133.26 128.3C133.946 128.796 134.632 129.329 135.356 129.824Z" fill="#060404"/>
<path d="M63.2294 113.935C60.6766 113.021 58.1236 112.106 55.5708 111.192C55.0373 111.001 54.3896 110.773 54.7325 110.011C54.9992 109.401 55.6089 109.63 56.0661 109.82C58.6571 110.773 61.2862 111.725 63.8772 112.678C64.2582 113.402 64.0677 113.859 63.2294 113.935Z" fill="#060404"/>
<path d="M61.6294 119.27C59.0003 118.317 56.3712 117.403 53.7802 116.45C53.2849 116.26 52.5228 116.145 52.8277 115.345C53.0944 114.545 53.7802 114.926 54.2756 115.079C56.7904 115.993 59.267 116.908 61.7437 117.86C62.3533 118.355 62.4296 118.851 61.6294 119.27Z" fill="#060404"/>
<path d="M156.312 68.5171C157.226 69.3553 157.226 70.0412 155.969 70.5746C155.511 69.7745 155.283 69.0505 156.312 68.5171Z" fill="#0B080A"/>
<path d="M309.904 164.269C328.575 164.269 347.207 164.269 365.877 164.193C367.439 164.193 367.401 164.955 367.401 166.06C367.401 186.826 367.401 207.592 367.401 228.358C367.401 236.626 367.363 244.856 367.439 253.125C367.439 254.801 367.096 255.335 365.306 255.335C348.35 255.258 331.432 255.296 314.477 255.296C312.876 250.572 312 245.618 310.742 240.817C309.066 234.378 307.58 227.901 305.98 221.461C305.751 220.585 305.637 219.747 305.637 218.832C305.675 213.231 305.675 207.668 305.637 202.067C305.637 201.152 305.751 200.314 306.361 199.59C307.656 197.99 308.151 196.123 308.266 194.103C308.685 186.369 309.104 178.672 309.523 170.937C309.637 168.689 309.752 166.479 309.904 164.269Z" fill="#FEFEFE"/>
<path d="M305.752 113.631C325.718 113.631 345.722 113.631 365.688 113.593C367.06 113.593 367.364 114.012 367.364 115.307C367.326 130.777 367.326 146.285 367.364 161.755C367.364 162.898 367.174 163.431 365.84 163.431C347.437 163.393 329.033 163.393 310.667 163.393C310.401 163.393 310.172 163.355 309.905 163.317C310.134 160.497 310.363 157.639 310.553 154.82C310.934 148.571 311.391 142.322 311.582 136.073C311.696 132.301 310.134 128.986 307.353 126.471C305.981 125.214 305.524 123.919 305.638 122.166C305.752 119.346 305.714 116.489 305.752 113.631Z" fill="#FEFEFE"/>
<path d="M262.962 120.375C267.192 120.641 271.421 120.451 275.65 120.375C276.222 119.956 276.794 119.956 277.289 120.489C277.937 121.899 277.708 123.347 277.632 124.795C277.175 131.501 276.794 138.207 276.565 144.913C276.527 146.551 276.412 148.19 275.689 149.714C275.041 160.992 274.393 172.271 273.783 183.549C268.068 183.435 262.315 183.397 256.599 183.206C255.113 183.168 253.703 182.482 252.37 181.796C251.912 181.225 251.836 180.539 251.912 179.815C252.255 176.729 252.446 173.68 252.636 170.594C252.713 169.718 252.865 168.841 253.36 168.079C253.665 167.66 254.237 167.698 254.77 167.317C254.237 166.708 253.094 166.708 253.132 165.641C253.665 157.03 254.656 148.495 255.266 139.883C255.304 139.121 255.456 138.359 256.028 137.788C258.123 136.988 260.295 137.064 262.353 137.75C264.563 138.474 265.744 140.302 265.782 142.551C265.934 149.028 265.972 155.505 265.782 161.983C265.706 164.612 264.182 166.289 261.629 167.089C264.182 166.784 265.82 164.917 266.163 162.021C266.315 160.573 266.239 159.087 266.239 157.639C266.239 153.067 266.277 148.495 266.239 143.922C266.201 139.502 264.486 137.521 260.143 136.949C258.276 136.683 257.933 136.378 257.895 134.358C257.818 130.624 257.856 126.852 257.895 123.118C257.895 120.108 258.771 119.422 261.743 119.879C262.2 119.956 262.581 120.108 262.962 120.375Z" fill="black"/>
<path d="M299.464 331.845C300.95 341.332 302.474 350.782 303.96 360.269C304.074 361.07 304.112 361.908 304.15 362.708C301.293 358.631 299.007 354.173 296.492 349.905C291.196 340.875 285.975 331.769 280.679 322.7C282.051 321.671 283.613 322.167 285.099 322.167C290.51 322.09 290.014 322.662 289.214 317.366C285.099 290.656 280.984 263.946 276.869 237.274C276.716 236.283 276.297 235.293 277.021 234.34C277.25 234.226 277.44 234.111 277.669 233.997C278.545 234.111 278.507 234.759 278.622 235.407C281.136 251.677 283.651 267.908 286.166 284.14C288.071 296.447 290.167 308.755 291.653 321.138C291.996 323.958 292.11 326.93 292.339 329.825C292.453 331.273 292.91 332.112 294.663 331.921C296.263 331.692 297.864 331.845 299.464 331.845Z" fill="#FEFEFE"/>
<path d="M277.099 120.489C276.604 120.451 276.146 120.413 275.651 120.337C275.232 118.089 274.813 115.841 274.355 113.593C274.508 113.555 274.66 113.517 274.775 113.479C282.891 113.517 290.968 113.555 299.084 113.593C300.875 113.593 302.628 113.593 304.419 113.631C304.419 116.946 304.419 120.299 304.419 123.881C301.637 122.166 298.856 120.947 295.807 120.604C291.768 120.146 287.73 120.528 283.653 120.413C282.814 120.413 282.776 120.947 282.776 121.556C282.776 129.405 282.776 137.293 282.776 145.142C282.776 145.904 283.043 146.171 283.805 146.361C288.149 147.466 289.825 153.753 286.739 157.03C285.405 158.478 281.023 159.164 278.852 158.173C276.642 157.182 275.689 155.353 275.88 152.953C275.956 151.886 275.918 150.781 275.956 149.714C275.918 147.695 277.251 146.704 278.852 146.133C280.338 145.599 280.719 144.761 280.719 143.275C280.681 136.683 280.681 130.091 280.681 123.5C280.681 121.213 280.452 120.794 278.28 120.87C277.899 120.947 277.48 120.756 277.099 120.489Z" fill="#FEFEFE"/>
<path d="M277.1 120.489C281.33 120.261 281.33 120.261 281.33 124.49C281.33 131.158 281.292 137.826 281.368 144.456C281.368 145.599 281.292 146.285 279.844 146.399C277.9 146.551 276.795 147.999 275.995 149.676C275.881 149.676 275.767 149.676 275.652 149.676C276.071 141.636 276.491 133.597 276.91 125.557C277.024 123.918 277.062 122.204 277.1 120.489Z" fill="#6DB5DE"/>
<path d="M304.531 201.305C304.531 206.03 304.531 210.259 304.531 214.489C304.455 214.489 304.379 214.527 304.264 214.527C303.35 210.983 302.321 207.44 301.635 203.858C301.331 202.182 303.426 202.563 304.531 201.305Z" fill="#F1F5F8"/>
<path d="M305.216 201.267C305.216 206.678 305.216 212.088 305.216 217.499C305.14 217.499 305.025 217.499 304.949 217.499C304.949 212.088 304.949 206.64 304.949 201.229C305.064 201.229 305.14 201.229 305.216 201.267Z" fill="#5883B0"/>
<path d="M153.265 371.471C105.865 371.471 58.5033 371.471 11.1035 371.509C9.80803 371.509 9.3508 371.243 9.3889 369.871C9.4651 363.394 9.4651 356.916 9.3889 350.439C9.3889 349.219 9.7318 348.838 10.9892 348.838C35.9846 348.876 60.9799 348.915 85.9372 348.915C86.5087 348.915 87.0803 348.876 87.6518 348.876C109.027 348.876 130.403 348.876 151.779 348.876C152.274 356.383 152.769 363.927 153.265 371.471Z" fill="#FEFEFE"/>
<path d="M150.635 331.388C136.88 331.388 123.125 331.388 109.37 331.426C107.884 331.426 107.617 330.968 107.617 329.597C107.655 319.766 107.693 309.936 107.617 300.105C107.617 298.695 107.96 298.276 109.408 298.276C116.838 298.353 124.23 298.314 131.66 298.314C131.393 301.706 131.241 305.135 130.784 308.488C130.593 309.974 130.86 310.393 132.346 310.393C137.985 310.317 143.586 310.317 149.225 310.317C149.683 317.366 150.14 324.377 150.635 331.388Z" fill="#FEFEFE"/>
<path d="M208.857 348.953C210.763 356.459 212.668 363.965 214.611 371.433C213.963 372.119 213.087 372.005 212.287 372.005C204.476 372.005 196.703 372.005 188.892 372.005C188.092 372.005 187.215 372.119 186.567 371.472C185.805 363.927 185.043 356.383 184.281 348.877C184.929 348.343 185.691 348.419 186.453 348.419C193.159 348.419 199.865 348.419 206.571 348.419C207.333 348.419 208.21 348.305 208.857 348.953Z" fill="#FEFEFE"/>
<path d="M151.739 347.848C142.594 347.848 133.45 347.848 124.343 347.924C123.2 347.924 122.781 347.62 122.819 346.438C122.895 342.323 122.895 338.17 122.819 334.055C122.781 332.645 123.162 332.226 124.61 332.226C133.297 332.302 141.985 332.264 150.71 332.264C151.015 337.446 151.358 342.628 151.739 347.848Z" fill="#FEFEFE"/>
<path d="M214.916 372.462C215.411 374.405 215.868 376.387 216.478 378.292C216.783 379.244 216.326 379.473 215.64 379.702C208.21 384.122 200.742 388.541 193.311 392.999C191.864 393.876 190.378 394.752 188.701 395.743C188.168 390.332 187.672 385.188 187.177 380.045C187.329 377.492 186.682 375.015 186.605 372.5C187.177 372.005 187.901 372.043 188.587 372.043C196.626 372.043 204.666 372.043 212.706 372.043C213.468 372.005 214.23 372.081 214.916 372.462Z" fill="#FEFEFE"/>
<path d="M214.915 372.462C205.465 372.462 196.054 372.462 186.605 372.462C186.605 372.119 186.566 371.777 186.566 371.434C195.94 371.434 205.275 371.434 214.648 371.396C214.686 371.777 214.8 372.119 214.915 372.462Z" fill="#5881AE"/>
<path d="M208.856 348.953C200.663 348.915 192.433 348.877 184.241 348.877C184.241 348.572 184.203 348.229 184.203 347.924C191.633 347.924 199.101 347.924 206.531 347.924C207.293 347.924 208.284 348.229 208.322 346.934C208.475 347.581 208.665 348.267 208.856 348.953Z" fill="#5981AD"/>
<path d="M277.059 234.302C278.011 240.551 278.925 246.8 279.878 253.049C281.364 262.651 282.85 272.291 284.336 281.893C286.051 293.019 287.765 304.145 289.518 315.232C289.823 317.099 290.09 319.005 290.394 320.872C290.623 322.129 290.356 322.739 288.87 322.662C286.165 322.586 283.422 322.662 280.716 322.701C276.22 315.042 271.724 307.421 267.266 299.763C266.352 298.162 267.228 296.41 267.38 294.733C268.524 283.95 269.781 273.205 271.038 262.46C272.067 253.544 273.058 244.59 274.086 235.674C274.315 233.731 275.954 234.493 277.059 234.302Z" fill="#6DB5DE"/>
<path d="M248.101 371.51C246.005 364.003 244.215 356.459 242.5 348.877C242.957 348.458 243.529 348.419 244.1 348.419C248.558 348.419 253.016 348.419 257.512 348.419C257.97 348.419 258.389 348.534 258.77 348.724C262.733 356.307 266.657 363.851 270.62 371.433C269.972 372.119 269.134 372.005 268.296 372.005C262.351 372.005 256.407 372.005 250.502 372.005C249.625 372.005 248.825 372.043 248.101 371.51Z" fill="#FEFEFE"/>
<path d="M249.816 379.397C249.283 377.111 248.749 374.786 248.254 372.5C248.825 371.967 249.549 372.005 250.235 372.005C256.56 372.005 262.885 372.005 269.172 372.005C269.82 372.005 270.43 372.081 271.039 372.348C272.487 374.748 273.783 377.225 274.888 379.778C268.258 385.531 261.628 391.285 254.808 397.191C253.36 391.666 251.95 386.37 250.578 381.073C250.426 380.464 250.502 379.74 249.816 379.397Z" fill="#FEFEFE"/>
<path d="M242.197 347.886C240.94 342.666 239.644 337.446 238.387 332.226C238.653 331.921 239.034 331.807 239.415 331.807C242.692 331.769 245.969 331.769 249.246 331.807C249.589 331.807 249.856 331.959 250.122 332.15C253.056 337.256 255.685 342.514 258.314 347.772C257.781 348.343 257.095 348.343 256.409 348.343C252.256 348.343 248.141 348.343 243.988 348.343C243.302 348.382 242.692 348.343 242.197 347.886Z" fill="#FEFEFE"/>
<path d="M271.039 372.348C264.638 372.386 258.275 372.424 251.874 372.462C250.654 372.462 249.473 372.5 248.254 372.5C248.216 372.158 248.14 371.853 248.102 371.51C255.608 371.472 263.076 371.472 270.582 371.434C270.735 371.738 270.887 372.043 271.039 372.348Z" fill="#5881AE"/>
<path d="M242.195 347.886C247.568 347.848 252.94 347.81 258.313 347.771C258.465 348.076 258.618 348.381 258.77 348.686C253.359 348.724 247.911 348.8 242.5 348.838C242.386 348.534 242.272 348.229 242.195 347.886Z" fill="#5981AE"/>
<path d="M242.083 227.177C242.045 218.756 242.007 210.335 241.969 201.915C242.235 201.915 242.502 201.915 242.769 201.915C243.264 202.372 243.417 202.981 243.417 203.629C243.455 208.544 243.188 213.498 242.845 218.413C242.883 221.385 242.617 224.281 242.083 227.177Z" fill="#5981AD"/>
<path d="M242.846 218.451C242.808 212.964 242.808 207.44 242.77 201.953C243.379 201.915 244.027 201.686 244.446 202.372C244.027 207.363 243.608 212.393 243.151 217.384C243.151 217.727 242.96 218.07 242.846 218.451Z" fill="#DAE1EA"/>
<path d="M250.084 332.188C246.16 332.226 242.273 332.226 238.349 332.264C238.311 331.997 238.272 331.731 238.234 331.464C242.045 331.426 245.855 331.426 249.665 331.388C249.818 331.654 249.932 331.921 250.084 332.188Z" fill="#5881AE"/>
<path d="M262.965 120.375C262.508 120.413 262.089 120.451 261.631 120.451C258.355 120.489 258.354 120.489 258.354 123.88C258.354 127.615 258.393 131.349 258.316 135.083C258.316 136.111 258.545 136.454 259.65 136.492C264.565 136.569 266.737 138.855 266.737 143.77C266.737 149.676 266.737 155.544 266.737 161.45C266.737 164.879 264.756 167.47 261.784 167.965C261.136 168.08 260.183 168.423 259.993 167.508C259.802 166.479 260.869 166.67 261.479 166.555C263.651 166.098 265.213 164.46 265.213 162.174C265.289 155.582 265.289 148.99 265.213 142.398C265.175 139.845 263.232 138.055 260.641 137.978C259.117 137.94 257.592 137.978 256.068 138.017C255.382 138.512 254.659 138.588 253.973 138.017C254.087 137.521 254.163 136.988 254.277 136.492C254.659 135.997 255.268 135.997 255.84 135.807C256.869 134.549 256.145 133.063 256.373 131.73C256.373 131.082 256.373 130.434 256.335 129.786C256.335 127.691 256.64 125.633 256.792 123.538C257.059 120.184 257.821 116.946 258.393 113.669C258.507 113.631 258.659 113.593 258.774 113.555C259.688 113.059 260.564 112.983 261.441 113.631C261.974 115.841 262.47 118.089 262.965 120.375Z" fill="#FCFCFC"/>
<path d="M254.046 137.94C254.731 137.94 255.455 137.94 256.141 137.94C255.532 144.76 254.884 151.581 254.274 158.401C254.046 160.992 253.779 163.583 253.512 166.174C251.797 166.25 250.312 164.879 250.235 163.012C250.197 162.173 250.121 161.259 250.388 160.421C251.226 153.524 252.521 146.704 253.665 139.845C253.779 139.197 253.931 138.588 254.046 137.94Z" fill="#6DB5DE"/>
<path d="M253.741 167.927C252.864 170.404 253.207 173.033 252.826 175.548C252.521 177.605 252.483 179.701 252.331 181.758C246.768 180.463 246.768 180.463 247.759 174.938C248.368 171.585 249.016 168.27 249.664 164.917C251.15 165.755 252.483 166.822 253.741 167.927Z" fill="#6DB5DE"/>
<path d="M237.092 183.587C235.263 183.587 233.434 183.587 231.605 183.587C231.034 183.587 230.348 183.587 230.348 182.787C230.386 181.987 231.11 182.101 231.643 182.101C235.415 182.101 239.226 182.101 242.998 182.101C243.531 182.101 244.293 181.949 244.331 182.749C244.37 183.702 243.531 183.549 242.96 183.549C241.016 183.587 239.035 183.587 237.092 183.587Z" fill="#0A0606"/>
<path d="M256.828 123.5C256.828 125.671 256.866 127.805 256.866 129.977C256.638 130.663 256.79 131.387 256.752 132.073C256.6 133.521 256.828 135.007 256.181 136.378C255.571 136.378 254.961 136.416 254.352 136.416C255.152 132.111 255.99 127.805 256.828 123.5Z" fill="#73B5DB"/>
<path d="M241.776 125.785C241.09 125.824 240.633 125.862 240.519 125.29C240.405 124.719 240.824 124.49 241.281 124.414C243.682 123.957 246.082 123.499 248.482 123.042C248.978 122.966 249.435 123.08 249.511 123.575C249.626 124.109 249.206 124.376 248.749 124.452C246.387 124.947 243.948 125.366 241.776 125.785Z" fill="#0A0606"/>
<path d="M253.741 167.927C251.988 167.47 250.693 166.403 249.664 164.955C249.664 163.393 249.969 161.907 250.388 160.421C250.464 162.859 250.54 165.298 253.474 166.174C253.627 166.289 253.779 166.403 253.932 166.479C254.579 166.746 255.913 166.289 255.646 167.546C255.494 168.461 254.465 167.927 253.741 167.927Z" fill="#F8F9FA"/>
<path d="M225.318 195.133C224.213 194.599 224.48 194.066 225.318 193.532C227.033 193.57 228.709 193.57 230.424 193.608C230.995 193.608 231.719 193.608 231.719 194.332C231.719 195.094 231.033 195.056 230.462 195.056C228.709 195.094 227.033 195.094 225.318 195.133Z" fill="#0C0808"/>
<path d="M225.317 190.407C224.44 189.874 224.136 189.341 225.355 188.807C227.108 188.807 228.86 188.845 230.613 188.845C231.147 188.845 231.718 188.883 231.68 189.569C231.68 190.217 231.108 190.293 230.575 190.331C228.822 190.369 227.07 190.407 225.317 190.407Z" fill="#180F0F"/>
<path d="M251.988 113.631C251.988 114.888 251.835 116.069 250.997 117.365C250.387 115.993 249.854 114.812 249.32 113.631C250.235 112.83 251.111 112.792 251.988 113.631Z" fill="#F6F4F6"/>
<path d="M248.179 110.43C249.284 111.192 250.35 111.992 251.608 112.488C250.884 113.669 249.931 113.097 249.017 112.831C248.75 112.03 247.798 111.459 248.179 110.43Z" fill="#F7F4F3"/>
<path d="M248.98 112.831C249.819 112.64 250.771 113.097 251.571 112.488C251.838 112.602 252.105 112.716 252.372 112.869C252.257 113.136 252.143 113.402 251.991 113.669C251.114 113.669 250.238 113.669 249.323 113.669C249.247 113.364 249.095 113.097 248.98 112.831Z" fill="#5E81AA"/>
<path d="M337.605 348.801C351.818 348.801 366.03 348.839 380.242 348.839C395.522 348.839 410.839 348.877 426.118 348.801C427.795 348.801 428.252 349.258 428.214 350.935C428.099 357.107 428.099 363.242 428.214 369.414C428.252 371.053 427.833 371.548 426.118 371.548C399.332 371.472 372.546 371.51 345.798 371.51C344.959 371.51 344.159 371.51 343.321 371.548C341.225 364.004 339.282 356.421 337.605 348.801Z" fill="#FEFEFE"/>
<path d="M11.33 263.298C9.23436 262.765 8.81526 260.288 9.12008 258.764C9.46301 257.049 10.7966 256.097 12.9684 256.097C53.7764 256.097 94.5844 256.097 135.431 256.097C135.659 258.154 135.011 260.136 135.05 262.155C135.088 262.955 134.707 263.336 133.906 263.26C133.64 263.26 133.411 263.26 133.144 263.26C92.565 263.298 51.9475 263.298 11.33 263.298Z" fill="#FEFEFE"/>
<path d="M168.58 72.0227C167.704 72.0227 167.247 71.6035 167.17 70.9177C167.132 70.1937 167.551 69.7365 168.313 69.6984C168.999 69.6603 169.418 70.0413 169.457 70.6891C169.571 71.413 169.19 71.8703 168.58 72.0227Z" fill="#130B0B"/>
<path d="M242.881 82.5768C242.843 79.7953 242.919 77.0139 242.767 74.2324C242.691 72.7845 243.072 72.2891 244.634 72.3272C251.15 72.4034 257.665 72.3653 264.143 72.3653C264.409 73.1274 264.676 73.8894 264.981 74.7277C260.066 74.8801 255.455 75.9089 250.845 77.0138C248.749 77.5092 246.691 78.195 245.396 80.1002C244.139 80.4812 243.796 81.7767 242.881 82.5768Z" fill="#FEFEFE"/>
<path d="M256.979 92.7886C256.979 93.5507 256.56 94.0079 255.836 94.046C255.074 94.0841 254.655 93.6269 254.655 92.903C254.617 92.2171 254.998 91.8361 255.684 91.7599C256.408 91.6837 256.827 92.1028 256.979 92.7886Z" fill="#0C0807"/>
<path d="M261.437 113.593C260.56 113.555 259.646 113.555 258.77 113.517C258.846 113.212 258.884 112.907 258.96 112.564C259.684 113.212 261.132 111.992 261.437 113.593Z" fill="#617DA3"/>
<path d="M305.868 21.9937C333.34 21.9937 360.812 21.9937 388.322 21.9937C392.323 21.9937 393.58 23.251 393.58 27.2137C393.58 30.3762 393.618 33.5769 393.58 36.7394C393.542 39.7495 392.056 41.3498 389.046 41.426C386.074 41.5022 383.064 41.3879 380.092 41.4641C378.987 41.5022 378.682 41.0831 378.682 40.0162C378.72 37.6158 378.644 35.1772 378.72 32.7767C378.758 31.6336 378.377 31.1002 377.196 31.2526C376.891 31.2907 376.548 31.2526 376.244 31.2526C329.644 31.2526 283.082 31.2526 236.483 31.2526C233.778 31.2526 234.12 30.9478 234.082 33.7293C234.082 35.8249 234.044 37.9206 234.082 40.0162C234.12 41.045 233.854 41.5022 232.711 41.4641C229.281 41.3879 225.852 41.5022 222.423 41.426C219.413 41.3498 217.965 39.7876 217.965 36.7013C217.965 33.3483 217.965 29.9571 217.965 26.6041C217.965 23.3653 219.337 21.9937 222.613 21.9937C250.39 21.9937 278.129 21.9937 305.868 21.9937Z" fill="#FEFEFE"/>
<path d="M306.439 41.4264C283.348 41.4264 260.258 41.3883 237.168 41.4645C235.339 41.4645 234.729 40.9692 234.882 39.1403C235.034 37.3113 234.996 35.4443 234.882 33.6154C234.806 32.3199 235.301 31.8626 236.52 32.0532C236.787 32.0913 237.016 32.0532 237.282 32.0532C283.272 32.0532 329.262 32.0532 375.29 32.0532C377.729 32.0532 377.729 32.0532 377.729 34.4917C377.729 36.3969 377.691 38.302 377.729 40.2071C377.767 41.1216 377.424 41.5026 376.51 41.4264C376.014 41.3883 375.481 41.4264 374.985 41.4264C352.124 41.4264 329.3 41.4264 306.439 41.4264Z" fill="#FEFEFE"/>
<path d="M372.28 11.2486C372.28 14.0301 372.242 16.8497 372.318 19.6312C372.357 20.6981 371.976 21.0791 370.909 21.041C368.813 20.9648 366.717 20.9648 364.622 21.041C363.479 21.0791 363.25 20.5838 363.25 19.5931C363.288 13.8777 363.288 8.16229 363.25 2.44689C363.25 1.38001 363.593 0.998984 364.66 0.998984C366.641 1.07519 368.584 1.07519 370.566 0.998984C371.861 0.922778 372.357 1.30381 372.318 2.6755C372.204 5.53321 372.28 8.39091 372.28 11.2486Z" fill="#FEFEFE"/>
<path d="M241.816 11.0582C241.816 8.27667 241.854 5.45707 241.816 2.67557C241.778 1.53249 242.007 0.922847 243.379 0.999053C245.398 1.11336 247.456 1.07526 249.475 0.999053C250.58 0.96095 250.885 1.38008 250.885 2.44696C250.847 8.16236 250.847 13.8778 250.885 19.5932C250.885 20.6219 250.694 21.1173 249.551 21.0411C247.456 20.9649 245.36 20.9649 243.264 21.0411C242.197 21.0792 241.816 20.7363 241.854 19.6313C241.854 16.7736 241.816 13.9159 241.816 11.0582Z" fill="#FEFEFE"/>
<path d="M60.6364 331.426C48.0625 331.426 35.5267 331.388 22.9528 331.464C21.3144 331.464 20.6666 331.197 20.7047 329.33C20.819 319.69 20.7809 310.05 20.7047 300.41C20.7047 298.924 20.9715 298.353 22.648 298.353C47.9482 298.391 73.2484 298.391 98.5867 298.353C100.187 298.353 100.416 298.886 100.416 300.296C100.377 310.05 100.339 319.842 100.416 329.597C100.416 331.159 99.9203 331.464 98.4724 331.464C85.8985 331.388 73.2865 331.426 60.6364 331.426Z" fill="#FEFEFE"/>
<path d="M60.8275 332.226C68.4862 332.226 76.1829 332.264 83.8415 332.188C85.3656 332.188 85.9372 332.493 85.8991 334.131C85.7848 338.132 85.8229 342.133 85.8991 346.134C85.9372 347.391 85.6705 347.924 84.2607 347.886C68.6386 347.848 53.0546 347.848 37.4325 347.886C36.2513 347.886 35.7559 347.62 35.7559 346.324C35.8321 342.133 35.8321 337.941 35.7559 333.75C35.7178 332.455 36.2132 332.188 37.3944 332.188C45.2435 332.264 53.0165 332.226 60.8275 332.226Z" fill="#FEFEFE"/>
<path d="M8.47496 400.353C6.37932 400.353 4.28366 400.315 2.22611 400.353C1.15924 400.391 0.96875 399.896 0.96875 398.982C0.96875 398.067 1.19734 397.61 2.22611 397.61C6.53172 397.648 10.8373 397.648 15.1429 397.61C16.1717 397.61 16.4003 398.029 16.4003 398.982C16.4003 399.896 16.1717 400.391 15.1429 400.353C12.8949 400.315 10.6849 400.353 8.47496 400.353Z" fill="#FCFCFD"/>
<path d="M277.556 72.3657C306.934 72.3657 336.273 72.3657 365.65 72.3276C367.136 72.3276 367.403 72.823 367.403 74.1566C367.364 84.3681 367.326 94.5796 367.403 104.791C367.403 106.239 367.021 106.582 365.612 106.582C338.483 106.544 311.315 106.544 284.186 106.544C283.577 106.544 282.738 106.925 282.434 105.934C283.234 103.229 283.157 100.6 282.167 97.9327C280.262 92.7888 278.699 87.5306 276.566 82.463C275.804 80.7102 274.927 79.0337 273.556 77.7001C272.984 77.1667 272.755 76.8238 273.67 76.3665C275.346 75.4902 276.528 73.9661 277.556 72.3657Z" fill="#FEFEFE"/>
<path d="M273.136 101.781C272.336 98.0467 271.65 94.6556 270.888 91.2644C270.659 90.35 270.888 90.1213 271.764 90.2357C272.64 90.35 273.517 90.2738 274.393 90.5405C276.489 91.1882 278.089 92.3313 278.546 94.5032C279.003 96.6369 277.899 98.3134 276.336 99.647C275.384 100.409 274.317 100.981 273.136 101.781Z" fill="#FC9993"/>
<path d="M376.432 331.426C363.82 331.426 351.208 331.388 338.558 331.464C336.958 331.464 336.538 331.045 336.577 329.444C336.653 319.728 336.653 310.012 336.577 300.334C336.577 298.734 337.072 298.314 338.634 298.314C363.858 298.353 389.12 298.353 414.344 298.314C415.83 298.314 416.44 298.581 416.44 300.258C416.364 310.012 416.364 319.804 416.44 329.559C416.44 331.121 415.906 331.426 414.497 331.426C401.808 331.388 389.12 331.426 376.432 331.426Z" fill="#FEFEFE"/>
<path d="M376.51 347.886C368.89 347.886 361.269 347.848 353.649 347.924C352.239 347.924 351.667 347.696 351.705 346.095C351.82 341.98 351.782 337.827 351.705 333.712C351.667 332.531 352.087 332.226 353.23 332.226C368.89 332.264 384.588 332.264 400.248 332.226C401.468 332.226 401.734 332.645 401.734 333.788C401.696 337.98 401.658 342.171 401.734 346.362C401.772 347.658 401.315 347.962 400.096 347.924C392.247 347.848 384.36 347.886 376.51 347.886Z" fill="#FEFEFE"/>
<path d="M428.138 400.353C426.118 400.353 424.099 400.315 422.041 400.353C421.089 400.391 420.479 400.239 420.517 399.058C420.517 397.991 420.86 397.61 421.927 397.648C426.156 397.686 430.424 397.686 434.653 397.648C435.644 397.648 435.987 397.953 435.987 398.944C435.987 400.01 435.682 400.43 434.577 400.391C432.443 400.315 430.31 400.353 428.138 400.353Z" fill="#FCFCFD"/>
<path d="M87.4219 192.046C87.4219 186.941 87.4219 181.873 87.4219 176.767C87.5743 176.767 87.7267 176.767 87.8791 176.767C87.8791 180.996 87.8791 185.188 87.8791 189.417C87.8791 190.141 87.6505 190.941 88.1458 191.627C90.0509 195.361 92.8324 198.371 95.9568 201.039C99.6528 204.239 102.853 207.935 106.245 211.402C109.178 214.413 112.874 216.089 116.723 217.346C121.105 218.832 125.715 215.746 126.515 211.174C128.077 202.258 128.535 193.304 127.811 184.311C127.773 183.664 127.849 183.054 128.192 182.482C128.23 181.987 128.42 181.568 128.916 181.378C130.325 191.399 129.64 201.343 127.925 211.288C126.896 217.194 121.028 220.7 115.465 218.49C110.969 216.661 106.74 214.413 103.349 210.564C99.2718 205.916 94.6233 201.724 90.2796 197.304C88.8698 195.818 87.5743 194.218 87.4219 192.046Z" fill="#5C84B0"/>
<path d="M95.7676 93.7793C95.6152 95.7225 95.0818 97.2847 93.672 98.3516C91.8811 99.6852 89.8236 100.562 87.728 101.247C85.6324 101.933 83.8415 99.7995 84.6798 97.7039C86.3182 93.5888 88.0328 89.5118 89.7855 85.4729C90.357 84.1774 91.9574 83.8726 92.4527 84.9776C93.8625 87.8734 95.0818 90.8454 95.7676 93.7793Z" fill="#202B6D"/>
<path d="M106.398 102.772C106.512 103.381 106.093 103.648 105.674 103.953C103.769 105.325 101.902 106.696 99.9968 108.106C99.5777 108.411 99.1204 108.83 98.7013 108.258C98.2059 107.611 98.7013 107.23 99.1966 106.887C100.721 105.782 102.245 104.639 103.807 103.534C104.607 103 104.95 102.505 104.76 101.4C104.036 97.2087 103.464 93.0174 102.816 88.8261C102.778 88.5212 102.74 88.1783 102.702 87.8735C102.702 87.4544 102.588 86.9209 103.197 86.8066C103.883 86.6923 104.074 87.1876 104.15 87.7211C104.379 89.2071 104.607 90.7312 104.836 92.2172C105.369 95.7608 105.903 99.2662 106.398 102.772Z" fill="#030303"/>
<path d="M128.191 182.521C129.182 192.046 128.687 201.496 127.125 210.907C126.172 216.584 120.609 219.785 115.275 217.499C110.626 215.517 106.397 213.003 103.12 208.964C99.6906 204.734 95.2707 201.419 91.5747 197.419C90.0125 195.742 88.4884 194.028 88.1836 191.627C88.1836 187.207 88.1836 182.749 88.1836 177.986C89.2505 178.863 89.5934 179.853 90.0506 180.73C93.2131 186.979 98.0903 191.094 105.063 192.389C111.883 193.685 117.828 191.741 122.971 187.131C124.686 185.607 126.439 184.083 128.191 182.521Z" fill="#FEFEFE"/>
<path d="M158.713 126.128C162.333 126.128 164.772 127.653 164.734 129.977C164.695 133.635 163.286 135.883 160.999 135.921C157.38 136.035 154.941 134.511 154.903 132.187C154.865 128.529 156.351 126.167 158.713 126.128Z" fill="#010101"/>
<path d="M277.441 152.495C277.441 148.571 278.203 147.847 282.052 147.847C285.824 147.847 286.624 148.647 286.624 152.61C286.624 156.267 285.786 157.068 281.976 157.068C278.203 157.029 277.441 156.267 277.441 152.495Z" fill="#6DB5DE"/>
<path d="M256.179 136.378C256.027 134.854 256.484 133.33 256.598 131.844C256.675 131.653 256.789 131.653 256.903 131.844C256.903 133.063 256.941 134.32 256.941 135.54C256.941 136.035 256.979 136.568 256.179 136.378Z" fill="#3D4245"/>
<path d="M256.864 131.806H256.711H256.559C256.521 131.158 256.368 130.51 256.826 129.938C256.864 130.586 256.864 131.196 256.864 131.806Z" fill="#576770"/>
</svg>
