<svg width="28" height="28" viewBox="0 0 28 28" fill="none" xmlns="http://www.w3.org/2000/svg">
<rect width="28" height="28" rx="14" fill="#0D257B"/>
<path d="M21.356 20.0105L18.4 17.0532C20.6119 14.0975 20.0088 9.90829 17.053 7.69646C14.0972 5.48464 9.90804 6.08773 7.69622 9.0435C5.4844 11.9993 6.08749 16.1884 9.04326 18.4003C11.4176 20.177 14.6786 20.177 17.053 18.4003L20.0102 21.3575C20.3819 21.7292 20.9844 21.7292 21.356 21.3575C21.7276 20.9859 21.7276 20.3834 21.356 20.0118L21.356 20.0105ZM13.0728 17.8295C10.4458 17.8295 8.31629 15.7 8.31629 13.073C8.31629 10.4461 10.4458 8.31653 13.0728 8.31653C15.6997 8.31653 17.8293 10.4461 17.8293 13.073C17.8265 15.6988 15.6986 17.8267 13.0728 17.8295Z" fill="white"/>
</svg>
