<svg width="98" height="93" viewBox="0 0 98 93" fill="none" xmlns="http://www.w3.org/2000/svg">
<rect y="23.6001" width="63" height="72" rx="4" transform="rotate(-22 0 23.6001)" fill="white"/>
<rect y="23.6001" width="63" height="72" rx="4" transform="rotate(-22 0 23.6001)" stroke="#95A6CD" stroke-width="2"/>
<rect x="7.98828" y="24.6865" width="20" height="20" transform="rotate(-22 7.98828 24.6865)" fill="#95A6CD"/>
<rect x="31.9375" y="22.5608" width="26" height="2" transform="rotate(-22 31.9375 22.5608)" fill="#95A6CD"/>
<rect x="33.0625" y="25.3423" width="26" height="3" rx="1.5" transform="rotate(-22 33.0625 25.3423)" fill="#95A6CD"/>
<circle cx="24.2355" cy="51.5563" r="5" transform="rotate(-22 24.2355 51.5563)" fill="#E3C57F"/>
<rect x="31.457" y="45.4033" width="26" height="2" transform="rotate(-22 31.457 45.4033)" fill="#95A6CD"/>
<rect x="32.582" y="48.1848" width="26" height="3" rx="1.5" transform="rotate(-22 32.582 48.1848)" fill="#95A6CD"/>
<circle cx="29.4816" cy="64.5368" r="5" transform="rotate(-22 29.4816 64.5368)" fill="#E3C57F"/>
<rect x="36.7031" y="58.3838" width="26" height="2" transform="rotate(-22 36.7031 58.3838)" fill="#95A6CD"/>
<rect x="37.8281" y="61.1653" width="26" height="3" rx="1.5" transform="rotate(-22 37.8281 61.1653)" fill="#95A6CD"/>
<circle cx="34.7238" cy="77.5175" r="5" transform="rotate(-22 34.7238 77.5175)" fill="#E3C57F"/>
<rect x="41.9453" y="71.3645" width="26" height="2" transform="rotate(-22 41.9453 71.3645)" fill="#95A6CD"/>
<rect x="43.0703" y="74.146" width="26" height="3" rx="1.5" transform="rotate(-22 43.0703 74.146)" fill="#95A6CD"/>
<rect x="33.1875" y="19.1802" width="63" height="72" rx="4" fill="white"/>
<rect x="33.1875" y="19.1802" width="63" height="72" rx="4" stroke="#95A6CD" stroke-width="2"/>
<circle cx="50.1875" cy="33.1802" r="9.67742" stroke="#0D257B" stroke-width="0.645161"/>
<mask id="mask0_40001601_15413" style="mask-type:alpha" maskUnits="userSpaceOnUse" x="40" y="23" width="20" height="20">
<circle cx="50.1947" cy="33.1903" r="9.03226" fill="#D9D9D9" stroke="black" stroke-width="0.645161"/>
</mask>
<g mask="url(#mask0_40001601_15413)">
<ellipse cx="50.2085" cy="45.4371" rx="3.54839" ry="4.83871" fill="#6D6D6D"/>
<circle cx="50.1903" cy="34.4735" r="4.83871" fill="#E4E8F3"/>
<path d="M45.0234 31.5705C45.0234 31.5705 45.8708 27.4657 47.9267 27.0544C49.7505 26.6895 52.1202 29.3124 52.1202 29.3124C52.1202 29.3124 52.8481 28.7003 53.4105 28.6673C54.765 28.5876 54.7009 31.8931 54.7009 31.8931" stroke="#4C67A5" stroke-width="0.645161"/>
</g>
<rect x="63.1875" y="30.1802" width="26" height="2" fill="#95A6CD"/>
<rect x="63.1875" y="33.1802" width="26" height="3" rx="1.5" fill="#95A6CD"/>
<circle cx="45.1875" cy="54.1802" r="5" fill="#E3C57F"/>
<rect x="54.1875" y="51.1802" width="26" height="2" fill="#95A6CD"/>
<rect x="54.1875" y="54.1802" width="26" height="3" rx="1.5" fill="#95A6CD"/>
<circle cx="45.1875" cy="68.1802" r="5" fill="#E3C57F"/>
<rect x="54.1875" y="65.1802" width="26" height="2" fill="#95A6CD"/>
<rect x="54.1875" y="68.1802" width="26" height="3" rx="1.5" fill="#95A6CD"/>
<circle cx="45.1875" cy="82.1802" r="5" fill="#E3C57F"/>
<rect x="54.1875" y="79.1802" width="26" height="2" fill="#95A6CD"/>
<rect x="54.1875" y="82.1802" width="26" height="3" rx="1.5" fill="#95A6CD"/>
<g clip-path="url(#clip0_40001601_15413)">
<path d="M81.1424 83.1989C80.6117 83.048 80.1395 82.7393 79.7882 82.3139C79.7251 82.2484 79.636 82.1561 79.584 82.1109C79.5161 82.0967 79.3875 82.0828 79.298 82.0731C78.7543 82.0545 78.2291 81.8714 77.7917 81.5481C77.5606 81.3566 77.3716 81.1193 77.2366 80.8513L75.6118 83.6661C75.5332 83.802 75.4947 83.9573 75.5006 84.1142C75.5065 84.2711 75.5566 84.4231 75.6452 84.5527C75.7337 84.6824 75.8571 84.7843 76.0011 84.8469C76.145 84.9095 76.3038 84.9301 76.459 84.9063L77.9095 84.6858L78.4442 86.0534C78.5008 86.1998 78.5979 86.3272 78.7242 86.4205C78.8505 86.5138 79.0008 86.5692 79.1574 86.5803C79.179 86.5819 79.2005 86.5827 79.2221 86.5827C79.3682 86.5831 79.5118 86.5447 79.6382 86.4715C79.7647 86.3983 79.8695 86.2929 79.9419 86.1661L81.6275 83.2463C81.615 83.2465 81.6034 83.249 81.5907 83.249C81.4398 83.2493 81.2894 83.2325 81.1424 83.1989Z" fill="#0D257B"/>
<path d="M88.7615 80.8511C88.6266 81.1193 88.4378 81.3568 88.2068 81.5487C87.7693 81.8719 87.2441 82.055 86.7005 82.0737C86.6101 82.0834 86.4811 82.0972 86.4136 82.1115C86.3615 82.1567 86.2716 82.2498 86.2094 82.3149C85.8588 82.7391 85.388 83.047 84.8589 83.1983C84.7104 83.2325 84.5584 83.2497 84.406 83.2495C84.3939 83.2495 84.383 83.2471 84.3711 83.2469L86.0563 86.1662C86.1288 86.293 86.2336 86.3984 86.36 86.4716C86.4865 86.5448 86.63 86.5832 86.7761 86.5828C86.7977 86.5828 86.8193 86.582 86.8408 86.5804C86.9976 86.5693 87.148 86.5138 87.2743 86.4204C87.4007 86.327 87.4979 86.1996 87.5546 86.053L88.0888 84.6859L89.5388 84.9064C89.694 84.9303 89.8528 84.9098 89.9969 84.8473C90.141 84.7848 90.2645 84.6828 90.3531 84.5531C90.4417 84.4235 90.4919 84.2714 90.4978 84.1145C90.5037 83.9575 90.4652 83.8021 90.3866 83.6662L88.7615 80.8511Z" fill="#0D257B"/>
<path d="M82.9987 70.7495C82.1746 70.7495 81.369 70.9939 80.6838 71.4517C79.9986 71.9096 79.4646 72.5603 79.1492 73.3217C78.8338 74.083 78.7513 74.9208 78.9121 75.7291C79.0729 76.5373 79.4697 77.2797 80.0524 77.8625C80.6351 78.4452 81.3776 78.842 82.1858 79.0028C82.9941 79.1636 83.8319 79.081 84.5932 78.7657C85.3546 78.4503 86.0053 77.9163 86.4632 77.2311C86.921 76.5458 87.1654 75.7403 87.1654 74.9162C87.1641 73.8115 86.7247 72.7525 85.9435 71.9713C85.1624 71.1902 84.1034 70.7508 82.9987 70.7495ZM85.012 73.8973L83.3454 76.3973C83.3112 76.4486 83.266 76.4916 83.2132 76.5233C83.1603 76.555 83.1011 76.5746 83.0398 76.5806C83.0259 76.582 83.0121 76.5828 82.9987 76.5828C82.8882 76.5828 82.7822 76.5389 82.7041 76.4608L81.4541 75.2108C81.3782 75.1322 81.3362 75.0269 81.3372 74.9177C81.3381 74.8084 81.3819 74.7039 81.4592 74.6267C81.5364 74.5494 81.641 74.5056 81.7502 74.5046C81.8594 74.5037 81.9647 74.5457 82.0433 74.6216L82.934 75.5123L84.3187 73.4351C84.38 73.3432 84.4753 73.2795 84.5836 73.2579C84.6919 73.2362 84.8044 73.2585 84.8963 73.3198C84.9882 73.381 85.052 73.4763 85.0737 73.5846C85.0954 73.6929 85.0732 73.8054 85.012 73.8973Z" fill="#0D257B"/>
<path d="M84.6708 82.3864C85.0407 82.2668 85.3672 82.0409 85.6095 81.737C85.7337 81.5901 85.8797 81.4632 86.0424 81.3606C86.2246 81.2926 86.4162 81.2536 86.6105 81.2451C86.9929 81.2389 87.365 81.12 87.6802 80.9034C87.9574 80.6344 88.152 80.2918 88.2409 79.9159C88.2921 79.7239 88.3719 79.5408 88.4777 79.3727C88.6122 79.2324 88.7674 79.1137 88.938 79.0207C89.282 78.8453 89.5676 78.5735 89.7599 78.2386C89.8941 77.8788 89.9237 77.4883 89.8454 77.1123C89.8095 76.9124 89.8041 76.7081 89.8295 76.5065C89.89 76.323 89.978 76.1497 90.0903 75.9926C90.3269 75.6803 90.4691 75.3067 90.5 74.9161C90.4689 74.5258 90.3269 74.1526 90.0907 73.8403C89.9781 73.683 89.89 73.5096 89.8294 73.326C89.804 73.1245 89.8094 72.9204 89.8453 72.7205C89.9235 72.3446 89.8941 71.9542 89.7603 71.5942C89.5678 71.2597 89.2824 70.9881 88.9387 70.8126C88.7679 70.7193 88.6126 70.6003 88.4781 70.4598C88.3722 70.2916 88.2922 70.1085 88.2409 69.9166C88.1522 69.5408 87.9578 69.1982 87.6806 68.9294C87.3654 68.7128 86.9933 68.5939 86.6108 68.5878C86.4166 68.5792 86.2249 68.5402 86.0428 68.4722C85.8803 68.3694 85.7343 68.2425 85.6098 68.0958C85.3675 67.7915 85.0409 67.5653 84.6708 67.4453C84.2964 67.3923 83.9147 67.4505 83.573 67.6126C83.3911 67.6924 83.1977 67.7433 83 67.7632C82.8025 67.7433 82.6093 67.6925 82.4275 67.6127C82.0858 67.4504 81.7038 67.3924 81.3293 67.446C80.9594 67.5655 80.6329 67.7914 80.3905 68.0953C80.2663 68.2421 80.1203 68.3691 79.9576 68.4717C79.7754 68.5396 79.5838 68.5786 79.3895 68.5872C79.0071 68.5934 78.635 68.7122 78.3198 68.9289C78.0426 69.1979 77.848 69.5405 77.7591 69.9164C77.7079 70.1084 77.6281 70.2915 77.5222 70.4596C77.3878 70.5999 77.2326 70.7186 77.062 70.8116C76.718 70.987 76.4324 71.2588 76.2401 71.5936C76.1059 71.9535 76.0763 72.344 76.1546 72.7199C76.1905 72.9199 76.1959 73.1242 76.1705 73.3258C76.11 73.5093 76.022 73.6826 75.9097 73.8397C75.6731 74.152 75.5309 74.5256 75.5 74.9161C75.5311 75.3064 75.6731 75.6797 75.9093 75.992C76.0219 76.1492 76.11 76.3226 76.1706 76.5063C76.196 76.7078 76.1906 76.9121 76.1547 77.112C76.0765 77.4879 76.1059 77.8783 76.2398 78.2383C76.4322 78.5728 76.7176 78.8444 77.0613 79.0199C77.2321 79.1132 77.3874 79.2322 77.5219 79.3727C77.6278 79.5408 77.7078 79.724 77.7591 79.9159C77.8478 80.2917 78.0422 80.6343 78.3194 80.9031C78.6346 81.1197 79.0067 81.2385 79.3892 81.2447C79.5834 81.2533 79.7751 81.2923 79.9572 81.3603C80.1197 81.4631 80.2657 81.59 80.3902 81.7366C80.6325 82.0409 80.9591 82.2671 81.3292 82.387C81.7036 82.4398 82.0853 82.3816 82.427 82.2197C82.6089 82.1399 82.8023 82.089 83 82.0691C83.1975 82.0889 83.3907 82.1397 83.5725 82.2196C83.8369 82.3334 84.1193 82.3999 84.4067 82.4161C84.4956 82.4164 84.5842 82.4065 84.6708 82.3864ZM83 79.9161C82.0111 79.9161 81.0444 79.6229 80.2221 79.0735C79.3999 78.5241 78.759 77.7432 78.3806 76.8296C78.0022 75.9159 77.9031 74.9106 78.0961 73.9407C78.289 72.9708 78.7652 72.0799 79.4645 71.3806C80.1637 70.6813 81.0546 70.2051 82.0245 70.0122C82.9945 69.8193 83.9998 69.9183 84.9134 70.2967C85.827 70.6752 86.6079 71.316 87.1573 72.1383C87.7068 72.9605 88 73.9272 88 74.9161C87.9986 76.2418 87.4713 77.5127 86.5339 78.4501C85.5966 79.3874 84.3256 79.9147 83 79.9161Z" fill="#0D257B"/>
</g>
<defs>
<clipPath id="clip0_40001601_15413">
<rect width="20" height="20" fill="white" transform="translate(73 67.0005)"/>
</clipPath>
</defs>
</svg>
