<svg width="119" height="96" viewBox="0 0 119 96" fill="none" xmlns="http://www.w3.org/2000/svg">
<path d="M1.03073 47.5814C0.461474 46.6348 0.767358 45.406 1.71394 44.8367L74.5564 1.03064C75.503 0.461384 76.7319 0.767267 77.3011 1.71385L77.8165 2.57082L1.5461 48.4383L1.03073 47.5814Z" fill="#0D257B"/>
<circle cx="2.05726" cy="46.3798" r="0.5" transform="rotate(-31.0219 2.05726 46.3798)" fill="white"/>
<circle cx="3.77211" cy="45.349" r="0.5" transform="rotate(-31.0219 3.77211 45.349)" fill="white"/>
<circle cx="5.48695" cy="44.3183" r="0.5" transform="rotate(-31.0219 5.48695 44.3183)" fill="white"/>
<rect x="3.60538" y="48.9506" width="86" height="52" transform="rotate(-31.0219 3.60538 48.9506)" fill="white"/>
<rect x="3.60538" y="48.9506" width="86" height="52" transform="rotate(-31.0219 3.60538 48.9506)" stroke="#AEBCD9" stroke-width="3"/>
<rect x="11.1992" y="54.7883" width="23" height="15.5832" rx="1.05539" transform="rotate(-31.0219 11.1992 54.7883)" fill="#E3C57F"/>
<rect x="35.1953" y="40.3582" width="23" height="15.5832" rx="1.05539" transform="rotate(-31.0219 35.1953 40.3582)" fill="#AEBCD9"/>
<rect x="59.1914" y="25.928" width="23" height="15.5832" rx="1.05539" transform="rotate(-31.0219 59.1914 25.928)" fill="#AEBCD9"/>
<rect x="20.7773" y="70.7136" width="23" height="15.5832" rx="1.05539" transform="rotate(-31.0219 20.7773 70.7136)" fill="#AEBCD9"/>
<rect x="44.7734" y="56.2834" width="23" height="15.5832" rx="1.05539" transform="rotate(-31.0219 44.7734 56.2834)" fill="#AEBCD9"/>
<rect x="68.7695" y="41.8533" width="23" height="15.5832" rx="1.05539" transform="rotate(-31.0219 68.7695 41.8533)" fill="#E3C57F"/>
<path d="M29.5781 39.7854C29.5781 38.6808 30.4736 37.7854 31.5781 37.7854H116.578C117.683 37.7854 118.578 38.6808 118.578 39.7854V40.7854H29.5781V39.7854Z" fill="#0D257B"/>
<circle cx="31.0781" cy="39.2854" r="0.5" fill="white"/>
<circle cx="33.0781" cy="39.2854" r="0.5" fill="white"/>
<circle cx="35.0781" cy="39.2854" r="0.5" fill="white"/>
<rect x="31.0781" y="42.2854" width="86" height="52" fill="white"/>
<rect x="31.0781" y="42.2854" width="86" height="52" stroke="#AEBCD9" stroke-width="3"/>
<circle cx="51.0781" cy="68.2854" r="15" stroke="#0D257B"/>
<mask id="mask0_40001601_15271" style="mask-type:alpha" maskUnits="userSpaceOnUse" x="36" y="53" width="30" height="30">
<circle cx="51.0781" cy="68.2854" r="14" fill="#D9D9D9" stroke="black"/>
</mask>
<g mask="url(#mask0_40001601_15271)">
<ellipse cx="51.0781" cy="87.2854" rx="5.5" ry="7.5" fill="#6D6D6D"/>
<circle cx="51.0781" cy="70.2854" r="7.5" fill="#E4E8F3"/>
<path d="M43.0781 65.7847C43.0781 65.7847 44.3915 59.4223 47.5781 58.7847C50.4051 58.2191 54.0781 62.2847 54.0781 62.2847C54.0781 62.2847 55.2064 61.336 56.0781 61.2847C58.1775 61.1612 58.0781 66.2847 58.0781 66.2847" stroke="#4C67A5"/>
</g>
<rect x="69.5781" y="56.2854" width="43" height="6" rx="3" fill="#AEBCD9"/>
<rect x="69.5781" y="65.2854" width="43" height="6" rx="3" fill="#AEBCD9"/>
<rect x="69.5781" y="74.2854" width="43" height="6" rx="3" fill="#AEBCD9"/>
</svg>
