<svg width="96" height="96" viewBox="0 0 96 96" fill="none" xmlns="http://www.w3.org/2000/svg">
<g clip-path="url(#clip0_40001601_15475)">
<path d="M94.6482 51.84C93.1632 49.545 90.6432 48.18 87.8982 48.18C86.3532 48.18 84.8382 48.63 83.5332 49.47C80.1432 51.675 78.9732 56.01 80.6232 59.58L71.3682 65.865C69.4332 63.135 66.8082 60.915 63.7332 59.505L71.4582 37.545C73.0782 38.01 74.7882 38.25 76.5432 38.25C80.8032 38.25 84.7632 36.855 87.9432 34.47C88.0182 34.41 88.0782 34.365 88.1382 34.305C92.6982 30.81 95.6532 25.32 95.6532 19.11C95.6532 8.58 87.0732 0 76.5432 0C68.6082 0 61.7832 4.845 58.8882 11.745L53.7132 9.585C54.0282 7.875 53.7732 6.12 52.9482 4.545C51.9882 2.64 50.3232 1.245 48.2982 0.585C47.5032 0.315 46.6632 0.195 45.8382 0.195C44.5932 0.195 43.3332 0.495 42.1932 1.065C40.2882 2.04 38.8932 3.69 38.2332 5.73C37.5732 7.77 37.7532 9.915 38.7282 11.82C39.7032 13.725 41.3532 15.135 43.3932 15.795C44.1882 16.05 45.0132 16.185 45.8382 16.185C47.0982 16.185 48.3432 15.87 49.4832 15.3C50.9982 14.52 52.1982 13.305 52.9632 11.82L58.1232 13.965C57.6432 15.6 57.4032 17.325 57.4032 19.11C57.4032 21.36 57.7932 23.505 58.4982 25.5L40.7082 33.255C37.5582 27.03 31.0932 22.755 23.6532 22.755C21.2082 22.755 18.8382 23.22 16.6782 24.075L12.2982 15.09C13.7532 14.22 14.8782 12.885 15.5382 11.265C16.3632 9.27 16.3482 7.08 15.5232 5.085C14.2932 2.07 11.3532 0.12 8.08321 0.12C7.01821 0.12 5.9682 0.33 4.9782 0.75C0.853205 2.445 -1.0968 7.2 0.628205 11.31C1.4532 13.305 3.0132 14.865 5.0082 15.675C5.9832 16.08 7.03321 16.29 8.08321 16.29C8.7732 16.29 9.46321 16.2 10.1382 16.02L14.5482 25.05C8.5932 28.305 4.5282 34.62 4.5282 41.85C4.5282 48.03 7.4832 53.55 12.0582 57.045C12.1182 57.105 12.1932 57.165 12.2682 57.21C15.4482 59.58 19.3932 60.975 23.6532 60.975C27.8982 60.975 31.8432 59.58 35.0232 57.21C35.1132 57.165 35.1882 57.105 35.2632 57.03C35.5182 56.835 35.7582 56.64 35.9832 56.43L41.9082 63.705C38.6532 67.14 36.6432 71.775 36.6432 76.875C36.6432 78.09 36.7632 79.275 36.9882 80.445L29.7432 82.035C28.6032 78.9 25.6032 76.725 22.1832 76.725C21.6582 76.725 21.1332 76.77 20.6082 76.875C18.5082 77.295 16.6932 78.51 15.4932 80.31C14.3082 82.095 13.8732 84.24 14.2932 86.325C15.0582 90.09 18.3582 92.805 22.1832 92.805C22.7232 92.805 23.2332 92.745 23.7582 92.64C25.8582 92.22 27.6882 91.005 28.8732 89.22C29.8482 87.765 30.3132 86.055 30.2082 84.33L37.5732 82.725C38.7732 86.475 41.1132 89.715 44.1582 92.04C44.1582 92.04 44.1582 92.04 44.1732 92.055C44.2632 92.115 44.3532 92.19 44.4432 92.25C47.6232 94.605 51.5382 95.985 55.7682 95.985C60.0132 95.985 63.9582 94.59 67.1382 92.22C67.2282 92.175 67.3032 92.115 67.3782 92.04C71.9382 88.545 74.8782 83.055 74.8782 76.86C74.8782 73.605 74.0682 70.53 72.6132 67.845L81.9132 61.53C83.4282 63.24 85.5882 64.23 87.9282 64.23C89.4732 64.23 90.9882 63.765 92.2932 62.925C94.0932 61.77 95.3232 59.955 95.7732 57.855C96.2382 55.77 95.8332 53.625 94.6482 51.84ZM61.0332 81.195C62.5182 79.8 63.4332 77.82 63.4332 75.63C63.4332 71.415 59.9832 67.965 55.7682 67.965C51.5382 67.965 48.1032 71.415 48.1032 75.63C48.1032 77.82 49.0182 79.785 50.5032 81.195C46.7982 82.44 44.6382 85.005 44.0232 88.8C41.9232 86.745 40.3632 84.135 39.5832 81.225C39.5832 81.18 39.5682 81.135 39.5682 81.105C39.5532 81.03 39.5382 80.97 39.5082 80.91C39.4932 80.895 39.4932 80.88 39.4932 80.865C39.1782 79.59 39.0132 78.255 39.0132 76.875C39.0132 67.635 46.5282 60.105 55.7832 60.105C57.9282 60.105 59.9832 60.51 61.8732 61.245L61.8882 61.26H61.9032C65.3232 62.61 68.1882 65.055 70.0932 68.145C70.1082 68.16 70.1232 68.175 70.1232 68.19C71.6532 70.71 72.5382 73.695 72.5382 76.875C72.5382 81.54 70.6182 85.755 67.5282 88.815C66.9282 85.005 64.7382 82.44 61.0332 81.195ZM16.6332 26.64C18.7782 25.65 21.1482 25.095 23.6682 25.095C30.5682 25.095 36.4932 29.28 39.0732 35.235V35.265C39.0732 35.28 39.0882 35.28 39.0882 35.295C39.9582 37.32 40.4382 39.54 40.4382 41.865C40.4382 46.53 38.5182 50.745 35.4282 53.805C34.8282 49.995 32.6532 47.445 28.9332 46.185C30.4182 44.805 31.3332 42.825 31.3332 40.635C31.3332 36.405 27.8832 32.97 23.6682 32.97C19.4382 32.97 16.0032 36.405 16.0032 40.635C16.0032 42.825 16.9182 44.79 18.4032 46.2C14.6982 47.445 12.5382 49.995 11.9232 53.79C8.83321 50.76 6.91321 46.545 6.91321 41.865C6.8982 35.13 10.9032 29.31 16.6332 26.64ZM76.5432 2.355C85.7682 2.355 93.2982 9.87 93.2982 19.125C93.2982 23.775 91.3782 28.005 88.3032 31.05C87.6882 27.24 85.5132 24.705 81.8082 23.46C83.2932 22.065 84.2082 20.085 84.2082 17.895C84.2082 13.665 80.7582 10.23 76.5432 10.23C72.3132 10.23 68.8782 13.665 68.8782 17.895C68.8782 20.085 69.7932 22.05 71.2782 23.46C67.5732 24.705 65.4132 27.255 64.7982 31.05C63.2382 29.535 61.9782 27.705 61.1082 25.665V25.65C60.2682 23.64 59.7882 21.45 59.7882 19.125C59.7882 17.25 60.1032 15.45 60.6582 13.77C60.6882 13.695 60.7032 13.62 60.7332 13.545C63.0282 7.035 69.2532 2.355 76.5432 2.355ZM37.7082 54.81C40.8582 51.405 42.7782 46.86 42.7782 41.865C42.7782 39.6 42.3882 37.44 41.6682 35.43C41.6682 35.43 41.6682 35.43 41.6682 35.415L59.4432 27.66C60.7482 30.27 62.6532 32.55 64.9632 34.29C65.0082 34.35 65.0832 34.395 65.1432 34.455C66.4032 35.385 67.7682 36.18 69.2382 36.78L61.5282 58.65C59.6982 58.065 57.7632 57.765 55.7682 57.765C51.1782 57.765 46.9632 59.4 43.6482 62.1L37.7082 54.81Z" fill="#AEBCD9"/>
</g>
<defs>
<clipPath id="clip0_40001601_15475">
<rect width="96" height="96" fill="white"/>
</clipPath>
</defs>
</svg>
