<svg width="400" height="637" viewBox="0 0 400 637" fill="none" xmlns="http://www.w3.org/2000/svg">
<g opacity="0.1" clip-path="url(#clip0_9424_8146)">
<path d="M-135.867 403.227C-148.305 390.788 -148.354 370.491 -135.867 358.004L121.006 101.132C133.444 88.6932 153.742 88.645 166.229 101.132L354.351 289.254C366.838 301.741 366.838 321.99 354.351 334.477L181.319 507.509C180.837 507.991 180.258 508.377 179.583 508.666C84.9917 544.44 5.44213 533.447 -63.6454 474.966C-65.0436 473.761 -66.5863 472.508 -68.0327 471.158L-135.867 403.227ZM159.286 108.074C150.656 99.4444 136.578 99.4444 127.948 108.074L-128.924 364.947C-137.554 373.577 -137.554 387.655 -128.924 396.285L-61.1866 464.022C-59.9813 465.131 -58.6314 466.288 -57.2333 467.397C9.54014 523.95 83.4489 534.315 175.244 499.795L347.457 327.583C356.087 318.953 356.087 304.875 347.457 296.245L159.286 108.074Z" fill="#161C1C"/>
<path d="M151.754 206.037L110.581 247.21C80.159 277.631 35.2738 288.383 -5.56161 275.124L-30.005 267.266L-37.9599 242.726C-51.17 201.843 -40.3705 157.102 -9.99705 126.728L31.2241 85.5074C39.6129 93.8962 50.6052 98.1389 61.6457 98.1871C72.6862 98.2353 83.6303 93.848 92.0192 85.4592L95.7797 81.6986L155.466 141.385L151.705 145.145C134.879 161.971 134.879 189.163 151.754 206.037Z" fill="#161C1C"/>
<path d="M-33.4841 270.728C-34.0144 270.198 -34.4001 269.523 -34.6894 268.751L-42.6443 244.212C-56.4811 201.448 -45.2959 155.068 -13.4761 123.248L27.745 82.027C29.6735 80.0985 32.759 80.0985 34.6875 82.027C41.9193 89.2588 51.5134 93.2603 61.6379 93.2603C71.7624 93.2603 81.3565 89.2587 88.5883 82.027L92.3488 78.2664C94.2773 76.338 97.3629 76.338 99.2913 78.2664L158.978 137.953C160.906 139.881 160.906 142.967 158.978 144.895L155.217 148.656C140.368 163.505 140.368 187.707 155.217 202.557C157.146 204.485 157.146 207.571 155.217 209.499L114.044 250.672C82.1761 282.54 35.7963 293.725 -7.06398 279.792L-31.5074 271.933C-32.2788 271.741 -32.9056 271.307 -33.4841 270.728ZM31.3609 92.2961L-6.58184 130.239C-35.7982 159.455 -46.0191 201.978 -33.3394 241.271L-26.2041 263.448L-4.12308 270.583C35.2178 283.311 77.837 273.09 107.053 243.874L144.948 205.98C129.617 187.177 130.725 159.359 148.226 141.858L148.612 141.472L95.8201 88.6802L95.5308 88.9695C86.467 98.0333 74.414 103.047 61.6379 102.999C50.501 103.047 39.9426 99.2386 31.3609 92.2961Z" fill="#161C1C"/>
<path d="M-68.1264 470.971C-70.0066 469.091 -70.0548 466.054 -68.2228 464.125C-66.3908 462.197 -63.3052 462.1 -61.3767 463.932C-60.075 465.138 -58.7251 466.295 -57.3751 467.355C-51.8308 471.357 -45.2257 473.526 -38.2832 473.526C-29.6051 473.526 -21.5055 470.152 -15.3344 463.981C-2.70292 451.349 -2.70292 430.811 -15.3344 418.179C-17.0218 416.492 -17.2629 413.84 -15.913 411.912C-14.563 409.983 -11.9596 409.308 -9.83827 410.273L179.923 499.561C181.707 500.38 182.768 502.212 182.72 504.189C182.672 506.166 181.418 507.901 179.586 508.576C85.0426 544.398 5.49311 533.406 -63.5462 474.973C-65.1372 473.767 -66.68 472.418 -68.1264 470.971ZM1.29867 426.327C6.84303 441.321 3.66104 458.87 -8.39192 470.923C-16.0094 478.54 -25.941 482.88 -36.5958 483.313C22.2708 523.956 87.2604 530.32 165.171 503.514L1.29867 426.327Z" fill="#161C1C"/>
<path d="M304.33 312.627L195.275 203.572C193.346 201.643 193.346 198.558 195.275 196.629C197.203 194.701 200.289 194.701 202.217 196.629L311.273 305.685C313.201 307.613 313.201 310.699 311.273 312.627C309.344 314.556 306.259 314.556 304.33 312.627Z" fill="#161C1C"/>
<path d="M265.24 319.029L172.529 226.318C170.6 224.39 170.6 221.304 172.529 219.376C174.457 217.447 177.543 217.447 179.471 219.376L272.183 312.087C274.111 314.015 274.111 317.101 272.183 319.029C270.254 320.958 267.12 320.91 265.24 319.029Z" fill="#161C1C"/>
<path d="M250.337 349.651L149.767 249.081C147.839 247.152 147.839 244.067 149.767 242.138C151.696 240.21 154.781 240.21 156.71 242.138L257.279 342.708C259.208 344.637 259.208 347.722 257.279 349.651C255.351 351.579 252.265 351.579 250.337 349.651Z" fill="#161C1C"/>
<path d="M215.329 360.165L127.005 271.841C125.077 269.913 125.077 266.827 127.005 264.898C128.934 262.97 132.019 262.97 133.948 264.899L222.224 353.174C224.152 355.103 224.152 358.188 222.224 360.117C220.295 362.045 217.21 362.045 215.329 360.165Z" fill="#161C1C"/>
<path d="M198.539 417.889L77.7202 297.071C75.7917 295.142 75.7917 292.056 77.7201 290.128C79.6486 288.2 82.7342 288.2 84.6627 290.128L205.481 410.947C207.41 412.875 207.41 415.961 205.481 417.889C203.553 419.818 200.419 419.77 198.539 417.889Z" fill="#161C1C"/>
<path d="M159.417 424.279L42.8413 307.703C40.9128 305.774 40.9128 302.689 42.8413 300.76C44.7697 298.832 47.8553 298.832 49.7838 300.76L166.36 417.337C168.288 419.265 168.288 422.351 166.36 424.279C164.432 426.208 161.346 426.208 159.417 424.279Z" fill="#161C1C"/>
<path d="M144.604 454.977L-4.61189 305.761C-6.54037 303.833 -6.54036 300.747 -4.61188 298.819C-2.68341 296.89 0.40215 296.89 2.33062 298.819L151.546 448.035C153.475 449.963 153.475 453.049 151.546 454.977C149.618 456.906 146.484 456.857 144.604 454.977Z" fill="#161C1C"/>
<path d="M-55.1796 406.39C-58.4098 403.16 -60.5311 398.435 -61.399 393.711C-61.8329 391.155 -62.0739 388.6 -62.0257 386.045C-68.1968 384.213 -73.9822 381.32 -79.1409 377.415C-81.3587 375.776 -81.6479 372.69 -80.0087 370.569C-78.3695 368.448 -75.3322 368.014 -73.1626 369.701C-69.4503 372.546 -65.2077 374.763 -60.8204 376.258C-58.1688 364.928 -51.1781 354.563 -41.2946 348.343C-34.5932 344.149 -24.758 341.449 -17.0441 346.463C-9.47483 351.429 -7.11247 362.566 -11.6926 371.389C-16.0799 379.729 -24.4687 383.876 -30.7362 385.9C-37.6787 388.118 -45.0069 388.793 -52.1905 388.07C-52.0941 389.42 -51.9494 390.722 -51.7566 392.072C-50.9852 396.411 -48.43 400.894 -45.4408 400.894C-44.3802 400.894 -42.982 400.364 -41.5357 399.785C-40.6197 399.448 -39.7519 399.062 -38.8358 398.821C-33.5325 397.182 -28.4221 398.339 -25.7222 401.714C-23.1188 404.992 -22.9259 409.813 -25.2883 414.394C-26.5418 416.804 -29.4827 417.72 -31.8933 416.467C-34.3039 415.213 -35.2199 412.272 -33.9664 409.862C-33.3879 408.801 -33.3397 407.885 -33.3879 407.644C-33.4843 407.74 -34.4968 407.596 -35.8467 408.078C-36.5699 408.319 -37.1966 408.56 -37.9198 408.801C-40.0893 409.621 -42.4999 410.585 -45.3926 410.585C-49.346 410.585 -52.6244 408.946 -55.1796 406.39ZM-21.3832 355.431C-21.6724 355.141 -22.0099 354.9 -22.3474 354.659C-26.2043 352.152 -32.1344 354.129 -36.0395 356.588C-43.7534 361.409 -49.2014 369.46 -51.2745 378.283C-45.3926 378.862 -39.3662 378.331 -33.7254 376.547C-30.0131 375.342 -23.3116 372.498 -20.3707 366.857C-18.4905 363.337 -18.6351 358.179 -21.3832 355.431Z" fill="#161C1C"/>
<path d="M101.76 206.181L86.6216 221.319C84.886 223.055 81.9933 223.055 80.2576 221.319L62.0818 203.143C60.3462 201.408 57.4534 201.408 55.7178 203.143L37.542 221.319C35.8063 223.055 32.9136 223.055 31.178 221.319L16.0395 206.181C14.3039 204.445 14.3039 201.552 16.0395 199.817L34.2154 181.641C35.951 179.905 35.951 177.013 34.2153 175.277L15.9913 157.053C14.2557 155.317 14.2557 152.425 15.9913 150.689L31.1298 135.55C32.8654 133.815 35.7581 133.815 37.4937 135.55L55.6696 153.726C57.4052 155.462 60.2979 155.462 62.0336 153.726L80.2094 135.55C81.945 133.815 84.8377 133.815 86.5734 135.55L101.712 150.689C103.447 152.425 103.447 155.317 101.712 157.053L83.536 175.229C81.8004 176.964 81.8004 179.857 83.536 181.593L101.712 199.769C103.496 201.552 103.544 204.397 101.76 206.181Z" fill="white"/>
<path d="M27.6794 224.768L12.5409 209.629C8.87677 205.965 8.87678 199.987 12.5409 196.323L30.7167 178.147L12.4927 160.501C8.82856 156.837 8.82856 150.859 12.4927 147.195L27.6312 132.056C31.2953 128.392 37.2735 128.392 40.9376 132.056L59.1135 150.232L76.7108 132.056C80.3749 128.392 86.3532 128.392 90.0173 132.056L105.156 147.195C108.82 150.859 108.82 156.837 105.156 160.501L87.0282 178.629L105.252 196.275C108.916 199.939 108.916 205.917 105.252 209.581L90.1137 224.719C86.4496 228.384 80.4714 228.384 76.8073 224.719L58.6314 206.544L40.9859 224.768C37.3218 228.432 31.3435 228.432 27.6794 224.768ZM37.6592 171.783C41.3233 175.447 41.3233 181.425 37.6592 185.089L19.4834 203.265L34.6219 217.825L52.2674 199.601C55.9315 195.937 61.9098 195.937 65.5739 199.601L83.7498 217.777L98.0687 202.88L80.1339 184.945C76.4698 181.281 76.4698 175.302 80.1339 171.638L98.2615 153.511L83.123 138.951L65.5257 157.126C61.8616 160.791 55.8833 160.791 52.2192 157.126L34.0916 138.999L19.5316 154.137L37.6592 171.783Z" fill="#161C1C"/>
<path d="M71.0521 478.533C69.9914 480.944 67.1469 482.053 64.6881 480.944L21.7796 461.659C19.369 460.598 18.2601 457.754 19.369 455.295C20.4296 452.884 23.2741 451.776 25.7329 452.884L68.6415 472.169C71.0521 473.326 72.1127 476.123 71.0521 478.533Z" fill="white"/>
<path d="M83.6529 484.286C82.5922 486.697 79.7477 487.805 77.2889 486.697C74.8783 485.636 73.7695 482.791 74.8783 480.333C75.939 477.922 78.7835 476.813 81.2423 477.922C83.6529 478.983 84.7618 481.827 83.6529 484.286Z" fill="white"/>
</g>
<defs>
<clipPath id="clip0_9424_8146">
<rect width="450" height="450" fill="white" transform="translate(81.1953) rotate(45)"/>
</clipPath>
</defs>
</svg>
