<svg width="191" height="223" viewBox="0 0 191 223" fill="none" xmlns="http://www.w3.org/2000/svg">
<path d="M111.152 139.417C116.671 153.301 110.475 168.169 114.367 169.79C117.938 172.142 132.133 154.962 127.875 133.486C123.05 109.171 95.7993 109.732 94.5084 113.805C92.5079 117.519 106.697 125.154 111.152 139.417Z" fill="#D5A54D"/>
<path d="M57.5097 139.417C51.9908 153.301 58.1872 168.169 54.292 169.79C50.7239 172.142 36.5297 154.962 40.7898 133.486C45.6095 109.171 72.8591 109.732 74.1521 113.805C76.1534 117.519 61.9622 125.154 57.5097 139.417Z" fill="#D5A54D"/>
<path d="M88.0146 3.00534C93.2985 12.3389 102.86 27.2215 107.047 36.7708H61.6191C65.8401 27.1397 75.5299 12.0468 80.7872 2.76639C82.9272 -1.01183 85.7985 -0.908269 88.0146 3.00534Z" fill="#D5A54D"/>
<path d="M51.123 95.64C51.123 72.4162 55.1627 51.495 61.6174 36.7656H107.045C113.501 51.495 117.54 72.4163 117.54 95.64C117.54 118.447 113.645 139.031 107.393 153.713H61.2707C55.0179 139.031 51.123 118.447 51.123 95.64Z" fill="#0D257B"/>
<path d="M65.7617 72.6612C65.7617 82.919 74.0762 91.2316 84.334 91.2316C94.5886 91.2316 102.9 82.9191 102.9 72.6612C102.9 62.4081 94.5885 54.0938 84.334 54.0938C74.0762 54.0936 65.7617 62.4081 65.7617 72.6612Z" fill="#ECEDED"/>
<path d="M69.8711 72.6578C69.8711 80.6476 76.3457 87.1236 84.3353 87.1236C92.3229 87.1236 98.7956 80.6477 98.7956 72.6578C98.7956 64.6708 92.3229 58.1953 84.3353 58.1953C76.3457 58.1953 69.8711 64.6708 69.8711 72.6578Z" fill="white"/>
<path d="M64.7901 160.594H103.689L107.258 153.719H61.4082L64.7901 160.594Z" fill="#ECEDED"/>
<path d="M92.5822 160L97.6849 183.415L92.5822 171.708L94.5303 200.093L88.3837 174.113V214.527L83.636 177.962L78.9182 210.678L78.8365 173.472L74.5055 198.169V172.189L66.6504 188.868L74.5055 160H92.5822Z" fill="#407BFF"/>
<path opacity="0.5" d="M78.1423 160L74.5039 180.749V172.189V160H78.1423Z" fill="white"/>
<path opacity="0.8" d="M78.9192 193.259L78.8457 160H88.3847V174.113V197.107L83.6361 160.542L78.9192 193.259Z" fill="white"/>
<path opacity="0.3" d="M89.168 160H92.584L93.1559 162.627L94.0029 174.964L92.584 171.708L92.8472 175.553L89.168 160Z" fill="white"/>
<path d="M71.7291 202.618C71.7291 202.618 77.1849 184.726 67.3989 185.75C67.3989 185.75 66.0364 168.361 55.2237 181.264C55.2237 181.264 48.0794 169.828 45.4005 179.849C45.4005 179.849 25.1206 166.991 25.9793 178.377C25.9793 178.377 11.5419 171.162 9.99592 176.991C8.44996 182.82 27.4055 188.894 27.4055 188.894C27.4055 188.894 11.2641 183.501 10.753 185.611C10.2419 187.721 70.8331 206.364 71.7291 202.618Z" fill="#407BFF"/>
<path opacity="0.8" d="M71.7291 202.618C71.7291 202.618 77.1849 184.726 67.3989 185.75C67.3989 185.75 66.0364 168.361 55.2237 181.264C55.2237 181.264 48.0794 169.828 45.4005 179.849C45.4005 179.849 25.1206 166.991 25.9793 178.377C25.9793 178.377 11.5419 171.162 9.99592 176.991C8.44996 182.82 27.4055 188.894 27.4055 188.894C27.4055 188.894 11.2641 183.501 10.753 185.611C10.2419 187.721 70.8331 206.364 71.7291 202.618Z" fill="white"/>
<path d="M93.391 203.075C93.391 203.075 87.051 182.282 98.4229 183.473C98.4229 183.473 100.006 163.265 112.572 178.26C112.572 178.26 120.873 164.971 123.987 176.616C123.987 176.616 147.554 161.674 146.556 174.905C146.556 174.905 163.333 166.521 165.13 173.295C166.926 180.069 144.899 187.127 144.899 187.127C144.899 187.127 163.656 180.86 164.25 183.312C164.844 185.762 94.4313 207.428 93.391 203.075Z" fill="#407BFF"/>
<path opacity="0.8" d="M93.391 203.075C93.391 203.075 87.051 182.282 98.4229 183.473C98.4229 183.473 100.006 163.265 112.572 178.26C112.572 178.26 120.873 164.971 123.987 176.616C123.987 176.616 147.554 161.674 146.556 174.905C146.556 174.905 163.333 166.521 165.13 173.295C166.926 180.069 144.899 187.127 144.899 187.127C144.899 187.127 163.656 180.86 164.25 183.312C164.844 185.762 94.4313 207.428 93.391 203.075Z" fill="white"/>
<path d="M76.217 219.148C76.217 219.148 71.1497 175.821 94.9001 189.681C94.9001 189.681 99.8657 170.968 112.425 181.826C112.425 181.826 132.223 174.024 124.758 196.757C124.758 196.757 143.759 183.183 143.08 204.219C143.08 204.219 166.152 193.362 163.89 208.516C163.89 208.516 178.367 206.254 177.688 212.814C177.01 219.373 139.233 217.111 139.233 217.111C139.233 217.111 155.295 218.7 154.842 220.846C154.606 221.967 133.278 220.529 112.897 219.682C94.2692 218.91 76.433 223.037 76.217 219.148Z" fill="#407BFF"/>
<path opacity="0.7" d="M76.217 219.148C76.217 219.148 71.1497 175.821 94.9001 189.681C94.9001 189.681 99.8657 170.968 112.425 181.826C112.425 181.826 132.223 174.024 124.758 196.757C124.758 196.757 143.759 183.183 143.08 204.219C143.08 204.219 166.152 193.362 163.89 208.516C163.89 208.516 178.367 206.254 177.688 212.814C177.01 219.373 139.233 217.111 139.233 217.111C139.233 217.111 155.295 218.7 154.842 220.846C154.606 221.967 133.278 220.529 112.897 219.682C94.2692 218.91 76.433 223.037 76.217 219.148Z" fill="white"/>
<path d="M89.8863 217.7C89.8863 217.7 91.3787 192.28 78.7578 196.766C78.7578 196.766 71.3902 174.194 61.213 194.728C61.213 194.728 48.1 181.883 47.7623 196C47.7623 196 16.8131 185.477 21.5935 200.267C21.5935 200.267 0.181542 195.342 0.000892637 203.55C-0.178849 211.757 26.846 213.727 26.846 213.727C26.846 213.727 3.76185 211.757 3.76095 214.712C3.76004 217.668 89.9009 222.943 89.8863 217.7Z" fill="#407BFF"/>
<path opacity="0.7" d="M89.8863 217.7C89.8863 217.7 91.3787 192.28 78.7578 196.766C78.7578 196.766 71.3902 174.194 61.213 194.728C61.213 194.728 48.1 181.883 47.7623 196C47.7623 196 16.8131 185.477 21.5935 200.267C21.5935 200.267 0.181542 195.342 0.000892637 203.55C-0.178849 211.757 26.846 213.727 26.846 213.727C26.846 213.727 3.76185 211.757 3.76095 214.712C3.76004 217.668 89.9009 222.943 89.8863 217.7Z" fill="white"/>
<path d="M105.876 221.801C105.876 221.801 129.655 223.711 128.891 220.276C128.125 216.842 110.585 216.079 110.585 216.079C110.585 216.079 133.803 206.165 125.879 201.081C117.957 195.998 102.977 206.165 102.977 206.165C102.977 206.165 121.185 192.114 110.077 188.625C98.9681 185.135 89.2902 199.047 89.2902 199.047C89.2902 199.047 92.7915 188.01 86.1819 188.063C79.5723 188.116 79.614 198.793 79.614 198.793C79.614 198.793 67.1837 185.32 61.0489 192.183C54.9141 199.046 67.24 207.182 67.24 207.182C67.24 207.182 49.087 197.111 45.6456 205.196C42.2041 213.282 62.1982 217.096 62.1982 217.096C62.1982 217.096 42.2278 215.762 41.5805 218.844C40.9332 221.926 90.4902 219.793 105.876 221.801Z" fill="#407BFF"/>
<path opacity="0.9" d="M105.876 221.801C105.876 221.801 129.655 223.711 128.891 220.276C128.125 216.842 110.585 216.079 110.585 216.079C110.585 216.079 133.803 206.165 125.879 201.081C117.957 195.998 102.977 206.165 102.977 206.165C102.977 206.165 121.185 192.114 110.077 188.625C98.9681 185.135 89.2902 199.047 89.2902 199.047C89.2902 199.047 92.7915 188.01 86.1819 188.063C79.5723 188.116 79.614 198.793 79.614 198.793C79.614 198.793 67.1837 185.32 61.0489 192.183C54.9141 199.046 67.24 207.182 67.24 207.182C67.24 207.182 49.087 197.111 45.6456 205.196C42.2041 213.282 62.1982 217.096 62.1982 217.096C62.1982 217.096 42.2278 215.762 41.5805 218.844C40.9332 221.926 90.4902 219.793 105.876 221.801Z" fill="white"/>
<path d="M190.39 219.365C190.39 220.999 156.724 222.324 115.193 222.324C73.6664 222.324 40 221 40 219.365C40 217.73 73.6664 216.406 115.193 216.406C156.725 216.406 190.39 217.73 190.39 219.365Z" fill="#F8F8F8"/>
<path d="M127.459 209.141L128.919 219.597H139.412V218.245L134.825 214.924L133.366 209.141H127.459Z" fill="#68A1C6"/>
<path d="M139.413 218.047H133.318V218.449H139.413V218.047Z" fill="white"/>
<path d="M134.909 212.953H132.777V213.357H134.909V212.953Z" fill="white"/>
<path d="M134.645 211.828H132.514V212.232H134.645V211.828Z" fill="white"/>
<path d="M134.309 210.75H132.18V211.153H134.309V210.75Z" fill="white"/>
<path d="M103.955 209.141L103.379 219.597H86.959V217.943L96.9803 214.74L97.5582 209.141H103.955Z" fill="#68A1C6"/>
<path d="M98.8394 212.953H96.7109V213.357H98.8394V212.953Z" fill="white"/>
<path d="M99.0855 211.828H96.957V212.232H99.0855V211.828Z" fill="white"/>
<path d="M98.9919 210.75H96.8594V211.153H98.9919V210.75Z" fill="white"/>
<path d="M130.351 132.375V145.481L133.914 209.625L126.893 209.99L114.744 154.095L109.96 179.947L104.494 209.625H97.1191L98.9416 177.7L101.261 144.109L101.726 132.375H130.351Z" fill="#7FB5D6"/>
<path d="M129.643 206.055H126.264V206.457H129.643V206.055Z" fill="black"/>
<path d="M133.168 203.805H128.207V204.204H133.168V203.805Z" fill="black"/>
<path d="M104.762 206.863L104.798 206.461L99.954 206.055L99.9219 206.455L104.762 206.863Z" fill="black"/>
<path d="M100.516 204.178L100.55 203.776L97.5665 203.523L97.5332 203.926L100.516 204.178Z" fill="black"/>
<path d="M106.396 96.8203L94.5977 104.361L99.8513 118.835L96.0401 185.1H115.253L114.487 103.672L106.396 96.8203Z" fill="#EBEBEB"/>
<path d="M136.431 103.431L121.462 96.1484L114.488 103.67L115.254 185.098H134.993L130.58 147.054L136.431 103.431Z" fill="#F5F5F5"/>
<path opacity="0.06" d="M129.506 130.821L130.58 147.055L132.178 135.141L133.192 127.574L130.262 120.57L129.506 130.821Z" fill="black"/>
<path opacity="0.06" d="M101.617 135.13L98.041 150.335L99.2549 130.377L100.142 126.142L100.087 118.953L101.617 135.13Z" fill="black"/>
<path d="M140.189 117.719L144.782 133.355L118.656 141.489L116.902 136.198L134.056 128.22L131.217 122.647L140.189 117.719Z" fill="#F79570"/>
<path d="M136.43 103.43L143.45 124.467L132.934 127.037L130.826 121.594L136.43 103.43Z" fill="#F5F5F5"/>
<path d="M90.8828 126.359L91.7708 139.653L98.28 142.737L99.3768 128.836L90.8828 126.359Z" fill="#F79570"/>
<path d="M94.6387 104.359L94.543 104.911L90.8828 126.356L99.3768 128.833L101.034 120.79L94.6387 104.359Z" fill="#EBEBEB"/>
<path d="M100.303 123.25L99.8522 120.213L99.4824 114.695L99.9525 114.664L100.32 120.161L100.767 123.178L100.303 123.25Z" fill="black"/>
<path d="M104.832 135.382L120.86 151.484L120.68 151.852L102.997 148.759L85.6094 134.353L85.7976 133.984L104.832 135.382Z" fill="#E1D8C7"/>
<path d="M104.247 135.979L120.68 151.85L102.813 149.127L85.6094 134.352L104.247 135.979Z" fill="#2C2B32"/>
<path d="M94.4614 147.053L100.879 145.014L97.0237 138.414L90.6035 140.456L94.4614 147.053Z" fill="#F79570"/>
<path d="M99.5825 129.992L100.087 128.298L90.6777 125.508L90.1738 127.198L99.5825 129.992Z" fill="#E1E1E1"/>
<path d="M132.546 127.713L144.2 125.232L143.75 123.211L131.957 125.771L132.546 127.713Z" fill="#E1E1E1"/>
<path d="M132.271 125.849L130.028 120.928L128.889 114.931L129.354 114.844L130.489 120.811L132.703 125.65L132.271 125.849Z" fill="black"/>
<path d="M135.552 105.577L135.137 105.354L136.223 103.32L136.643 103.542L135.552 105.577Z" fill="black"/>
<path d="M95.2026 106.356L94.4141 104.452L94.8552 104.273L95.6358 106.176L95.2026 106.356Z" fill="black"/>
<path d="M112.347 140.513L111.963 140.247L116.122 134.164L116.513 134.431L112.347 140.513Z" fill="black"/>
<path d="M113.6 143.462L119.538 142.194L118.292 134.734L112.627 136.773L113.6 143.462Z" fill="#F79570"/>
<path d="M107.407 94.9766L106.178 96.6314L114.344 103.547V100.967L107.407 94.9766Z" fill="#E1E1E1"/>
<path d="M121.828 95.7561C121.792 95.7987 120.636 94.5781 120.636 94.5781L114.344 100.969V103.549L114.488 103.671L121.828 95.7561Z" fill="#E1E1E1"/>
<path d="M104.894 79.7665V86.3216L103.41 88.3052L104.894 89.894V93.8656L108.926 94.3578L108.321 95.839L114.268 100.967L120.086 95.0559V84.6306L114.162 77.7891L104.894 79.7665Z" fill="#F79570"/>
<path d="M119.691 89.8433C117.553 88.6054 119.741 86.722 118.451 85.4251C117.159 84.1373 115.187 85.394 114.097 84.9978C113.006 84.5966 112.203 83.2376 113.701 80.9787C115.446 78.3383 112.272 77.6577 109.961 79.3176C107.56 81.047 103.37 80.8649 102.376 76.9948C101.383 73.1215 104.516 73.3904 106.023 74.6853C107.75 76.1621 110.557 74.2395 111.447 73.6614C112.32 73.0977 116.314 71.7749 117.853 75.8467C119.39 79.9144 121.245 76.8551 121.676 79.717C122.098 82.5168 121.827 91.0866 119.691 89.8433Z" fill="#525557"/>
<path opacity="0.05" d="M108.927 94.36L113.039 92.5781L110.202 97.4712L108.322 95.8412L108.927 94.36Z" fill="black"/>
<path d="M113.357 95.0266L104.851 94.3399L104.52 90.3022L103.273 88.3169L104.896 85.8672L114.002 88.9119L120.142 89.0113L120.087 90.5338L114.469 91.6596L113.357 95.0266Z" fill="#EBEBEB"/>
</svg>
