<svg width="24" height="24" viewBox="0 0 24 24" fill="none" xmlns="http://www.w3.org/2000/svg">
<path d="M2.50391 9.21484C2.45184 7.75042 2.94798 6.3282 3.87695 5.25879C4.80022 4.19603 6.0743 3.56807 7.41992 3.5C8.26059 3.51567 9.08449 3.76587 9.80957 4.22754C10.5377 4.69119 11.1416 5.3527 11.5566 6.14844L12 6.99902L12.4434 6.14844C12.8584 5.3527 13.4623 4.69119 14.1904 4.22754C14.9152 3.76605 15.7388 3.51585 16.5791 3.5C17.9251 3.56782 19.1996 4.19577 20.123 5.25879C21.052 6.3282 21.5482 7.75042 21.4961 9.21484V9.23242C21.4961 11.0869 20.5707 13.0848 19.1787 15.0254C17.9672 16.7143 16.4354 18.3145 14.9609 19.6768L14.333 20.2461C13.6755 20.8325 12.849 21.1504 12 21.1504C11.2573 21.1504 10.5321 20.9067 9.92188 20.4531L9.66699 20.2461C8.00919 18.7703 6.20595 16.9557 4.82129 15.0254C3.42935 13.0849 2.50391 11.0869 2.50391 9.23242V9.21484Z" stroke="#6D6D6D"/>
</svg>
