<svg width="24" height="24" viewBox="0 0 24 24" fill="none" xmlns="http://www.w3.org/2000/svg">
<path d="M21.8991 6.20804C21.6447 6.08422 21.3603 6.03549 21.0792 6.06755C20.7981 6.0996 20.532 6.21113 20.3121 6.38904L17.7491 8.43904V8.00004C17.8078 7.49338 17.7512 6.98 17.5835 6.4983C17.4158 6.0166 17.1414 5.57906 16.7807 5.2184C16.42 4.85774 15.9825 4.5833 15.5008 4.4156C15.0191 4.24791 14.5057 4.19131 13.9991 4.25004H4.99906C4.4924 4.19131 3.97902 4.24791 3.49732 4.4156C3.01563 4.5833 2.57808 4.85774 2.21742 5.2184C1.85676 5.57906 1.58232 6.0166 1.41463 6.4983C1.24694 6.98 1.19034 7.49338 1.24906 8.00004V16C1.19034 16.5067 1.24694 17.0201 1.41463 17.5018C1.58232 17.9835 1.85676 18.421 2.21742 18.7817C2.57808 19.1423 3.01563 19.4168 3.49732 19.5845C3.97902 19.7522 4.4924 19.8088 4.99906 19.75H13.9991C14.5057 19.8088 15.0191 19.7522 15.5008 19.5845C15.9825 19.4168 16.42 19.1423 16.7807 18.7817C17.1414 18.421 17.4158 17.9835 17.5835 17.5018C17.7512 17.0201 17.8078 16.5067 17.7491 16V15.561L20.3121 17.611C20.5765 17.8246 20.9061 17.9411 21.2461 17.941C21.4721 17.9407 21.6952 17.8898 21.8991 17.792C22.1545 17.6704 22.3701 17.4786 22.5206 17.239C22.6711 16.9994 22.7504 16.722 22.7491 16.439V7.56104C22.7504 7.2781 22.6711 7.00064 22.5206 6.76106C22.3701 6.52148 22.1545 6.32967 21.8991 6.20804ZM16.2491 16C16.2491 17.577 15.5761 18.25 13.9991 18.25H4.99906C3.42206 18.25 2.74906 17.577 2.74906 16V8.00004C2.74906 6.42304 3.42206 5.75004 4.99906 5.75004H13.9991C15.5761 5.75004 16.2491 6.42304 16.2491 8.00004V16ZM21.2491 16.44L17.7491 13.64V10.36L21.2491 7.56004V16.44Z" fill="#0D257B"/>
</svg>
