<svg width="22" height="16" viewBox="0 0 22 16" fill="none" xmlns="http://www.w3.org/2000/svg">
<path d="M20.6725 1.9805C20.4181 1.85668 20.1337 1.80795 19.8527 1.84001C19.5716 1.87207 19.3055 1.98359 19.0855 2.1615L16.5225 4.2115V3.7725C16.5812 3.26584 16.5246 2.75246 16.3569 2.27076C16.1892 1.78906 15.9148 1.35152 15.5541 0.990858C15.1935 0.630197 14.7559 0.355757 14.2742 0.188065C13.7925 0.0203739 13.2792 -0.0362267 12.7725 0.0224974H3.7725C3.26584 -0.0362267 2.75246 0.0203739 2.27076 0.188065C1.78906 0.355757 1.35152 0.630197 0.990858 0.990858C0.630197 1.35152 0.355757 1.78906 0.188065 2.27076C0.0203739 2.75246 -0.0362267 3.26584 0.0224974 3.7725V11.7725C-0.0362267 12.2792 0.0203739 12.7925 0.188065 13.2742C0.355757 13.7559 0.630197 14.1935 0.990858 14.5541C1.35152 14.9148 1.78906 15.1892 2.27076 15.3569C2.75246 15.5246 3.26584 15.5812 3.7725 15.5225H12.7725C13.2792 15.5812 13.7925 15.5246 14.2742 15.3569C14.7559 15.1892 15.1935 14.9148 15.5541 14.5541C15.9148 14.1935 16.1892 13.7559 16.3569 13.2742C16.5246 12.7925 16.5812 12.2792 16.5225 11.7725V11.3335L19.0855 13.3835C19.3499 13.5971 19.6796 13.7136 20.0195 13.7135C20.2456 13.7132 20.4687 13.6623 20.6725 13.5645C20.928 13.4429 21.1435 13.2511 21.294 13.0115C21.4446 12.7719 21.5238 12.4944 21.5225 12.2115V3.3335C21.5238 3.05056 21.4446 2.7731 21.294 2.53352C21.1435 2.29394 20.928 2.10213 20.6725 1.9805ZM15.0225 11.7725C15.0225 13.3495 14.3495 14.0225 12.7725 14.0225H3.7725C2.1955 14.0225 1.5225 13.3495 1.5225 11.7725V3.7725C1.5225 2.1955 2.1955 1.5225 3.7725 1.5225H12.7725C14.3495 1.5225 15.0225 2.1955 15.0225 3.7725V11.7725ZM20.0225 12.2125L16.5225 9.4125V6.1325L20.0225 3.3325V12.2125Z" fill="white"/>
</svg>
