<svg width="27" height="24" viewBox="0 0 27 24" fill="none" xmlns="http://www.w3.org/2000/svg">
<g clip-path="url(#clip0_40000203_14510)">
<mask id="mask0_40000203_14510" style="mask-type:luminance" maskUnits="userSpaceOnUse" x="0" y="0" width="27" height="24">
<path d="M0 0H27V24H0V0Z" fill="white"/>
</mask>
<g mask="url(#mask0_40000203_14510)">
<path d="M8.13452 15.8935C8.13452 18.4094 4.56728 21.7852 4.56728 21.7852C4.56728 21.7852 1 18.4094 1 15.8935C1 13.8968 2.59712 12.278 4.56728 12.278C6.5374 12.278 8.13452 13.8968 8.13452 15.8935Z" stroke="#0D257B" stroke-width="2" stroke-miterlimit="10"/>
<path d="M5.25234 15.8939C5.25234 16.2772 4.94575 16.5879 4.56758 16.5879C4.1894 16.5879 3.88281 16.2772 3.88281 15.8939C3.88281 15.5106 4.1894 15.1998 4.56758 15.1998C4.94575 15.1998 5.25234 15.5106 5.25234 15.8939Z" stroke="#0D257B" stroke-width="1.40625" stroke-miterlimit="10"/>
<path d="M25.2947 5.58103C25.2947 8.09691 21.7274 11.4727 21.7274 11.4727C21.7274 11.4727 18.1602 8.09691 18.1602 5.58103C18.1602 3.58425 19.7573 1.96552 21.7274 1.96552C23.6976 1.96552 25.2947 3.58425 25.2947 5.58103Z" stroke="#0D257B" stroke-width="2" stroke-miterlimit="10"/>
<path d="M22.4125 5.57941C22.4125 5.9627 22.1059 6.27344 21.7277 6.27344C21.3496 6.27344 21.043 5.9627 21.043 5.57941C21.043 5.19611 21.3496 4.88538 21.7277 4.88538C22.1059 4.88538 22.4125 5.19611 22.4125 5.57941Z" stroke="#0D257B" stroke-width="1.40625" stroke-miterlimit="10"/>
<path d="M8.34375 21.7852H18.1853C19.5902 21.7852 20.7291 20.6308 20.7291 19.2069V19.2068C20.7291 17.7829 19.5902 16.6286 18.1853 16.6286H14.3052C12.9003 16.6286 11.7613 15.4742 11.7613 14.0503C11.7613 12.6263 12.9003 11.472 14.3052 11.472H17.954" stroke="#0D257B" stroke-width="2" stroke-miterlimit="10" stroke-linecap="round"/>
</g>
</g>
<defs>
<clipPath id="clip0_40000203_14510">
<rect width="27" height="24" fill="white"/>
</clipPath>
</defs>
</svg>
