<svg width="24" height="24" viewBox="0 0 24 24" fill="none" xmlns="http://www.w3.org/2000/svg">
<g clip-path="url(#clip0_40000220_18910)">
<path fill-rule="evenodd" clip-rule="evenodd" d="M12.7028 22.9219C12.7028 23.3102 12.388 23.625 11.9997 23.625C8.89519 23.625 5.976 22.4156 3.77991 20.2194C1.58423 18.0238 0.375 15.1046 0.375 11.9997C0.375 8.89472 1.58423 5.97553 3.77991 3.77986C5.97553 1.58419 8.89495 0.375 12.0003 0.375C15.1057 0.375 18.0251 1.58419 20.2208 3.77986C20.252 3.81098 20.2825 3.84272 20.3134 3.87422V2.98284C20.3134 2.59453 20.6282 2.27972 21.0165 2.27972C21.4048 2.27972 21.7196 2.59453 21.7196 2.98284V5.56992C21.7196 5.95823 21.4048 6.27305 21.0165 6.27305H18.4295C18.0412 6.27305 17.7263 5.95823 17.7263 5.56992C17.7263 5.18161 18.0412 4.8668 18.4295 4.8668H19.3173C19.2871 4.83586 19.257 4.80478 19.2265 4.77422C15.2421 0.78975 8.75873 0.78975 4.77431 4.77422C0.790218 8.75836 0.790218 15.241 4.77431 19.2251C6.70481 21.1556 9.27084 22.2188 11.9998 22.2188C12.3881 22.2188 12.7029 22.5336 12.7029 22.9219L12.7028 22.9219ZM19.1325 11.9997C19.1325 15.9328 15.9328 19.1325 11.9997 19.1325C8.06667 19.1325 4.86684 15.9327 4.86684 11.9997C4.86684 8.06662 8.06658 4.8668 11.9997 4.8668C15.9329 4.8668 19.1325 8.06662 19.1325 11.9997ZM14.7324 12.766L12.7028 11.5938V8.2898C12.7028 7.90148 12.388 7.58667 11.9997 7.58667C11.6114 7.58667 11.2965 7.90148 11.2965 8.2898V11.9996C11.2965 12.2508 11.4305 12.4829 11.648 12.6085L14.0291 13.9837C14.1399 14.0477 14.2608 14.0781 14.3801 14.0781C14.6231 14.0781 14.8594 13.952 14.9896 13.7265C15.1839 13.3902 15.0687 12.9602 14.7324 12.766V12.766ZM22.9219 11.2968C22.5339 11.2968 22.219 11.613 22.219 11.9997C22.219 12.3863 22.5339 12.7026 22.9219 12.7026C23.3099 12.7026 23.6248 12.3863 23.6248 11.9997C23.6248 11.613 23.3085 11.2968 22.9219 11.2968ZM14.6452 21.8695C14.2692 21.9705 14.0473 22.3559 14.1482 22.7305C14.2479 23.1066 14.6333 23.3285 15.0093 23.2288C15.384 23.1278 15.6059 22.7425 15.5062 22.3678C15.4053 21.9918 15.0199 21.7699 14.6452 21.8695ZM17.1087 20.8491C16.7725 21.0431 16.6582 21.4736 16.8522 21.8097C17.0462 22.1459 17.4767 22.2615 17.8129 22.0675C18.1491 21.8735 18.2633 21.443 18.0694 21.1068C17.8754 20.7706 17.4462 20.655 17.1087 20.8491ZM19.2254 19.2254C18.9517 19.5004 18.9517 19.9455 19.2254 20.2192C19.5004 20.4943 19.9455 20.4943 20.2206 20.2192C20.4943 19.9455 20.4943 19.5004 20.2206 19.2254C19.9455 18.9503 19.5004 18.9503 19.2254 19.2254ZM21.8097 16.8522C21.4736 16.6569 21.043 16.7725 20.8491 17.1087C20.655 17.4449 20.7706 17.8754 21.1068 18.0693C21.443 18.2633 21.8735 18.1477 22.0675 17.8116C22.2615 17.4754 22.1459 17.0462 21.8097 16.8522H21.8097ZM22.7318 14.1469C22.3558 14.0473 21.9705 14.2692 21.8708 14.6439C21.7699 15.0199 21.9931 15.4052 22.3678 15.5062C22.7425 15.6059 23.1278 15.384 23.2288 15.008C23.3298 14.6333 23.1066 14.2479 22.7318 14.147V14.1469ZM22.7318 9.85247C23.1066 9.7515 23.3298 9.36614 23.2288 8.99147C23.1278 8.61544 22.7425 8.39353 22.3678 8.49319C21.9931 8.59416 21.7699 8.97952 21.8708 9.35555C21.9705 9.73027 22.3558 9.95213 22.7318 9.85247Z" fill="white"/>
</g>
<defs>
<clipPath id="clip0_40000220_18910">
<rect width="24" height="24" fill="white"/>
</clipPath>
</defs>
</svg>
