<svg width="16" height="16" viewBox="0 0 16 16" fill="none" xmlns="http://www.w3.org/2000/svg">
<path d="M7.87691 15.9997C7.74751 15.8995 7.60558 15.8118 7.48453 15.6991C5.95674 14.2465 4.6001 12.6519 3.52731 10.8319C2.897 9.75911 2.40026 8.63205 2.14145 7.40899C1.53201 4.53291 2.93039 1.73198 5.59358 0.513087C8.02301 -0.597271 11.0201 0.141576 12.6815 2.27463C13.9421 3.89008 14.2636 5.71006 13.796 7.68449C13.4913 8.97852 12.9111 10.1557 12.2056 11.2744C11.1746 12.9149 9.92231 14.3717 8.51557 15.6991C8.39869 15.8118 8.25677 15.8995 8.12319 15.9997C8.04388 15.9997 7.96039 15.9997 7.87691 15.9997ZM11.3332 6.10244C11.4167 4.29916 9.96822 2.75885 8.11067 2.66701C6.30738 2.57935 4.7629 4.02365 4.67107 5.88121C4.57923 7.69702 6.03605 9.24985 7.9103 9.33333C9.70942 9.41264 11.2497 7.96417 11.3332 6.10244Z" fill="#0D257B"/>
</svg>
