<svg width="16" height="21" viewBox="0 0 16 21" fill="none" xmlns="http://www.w3.org/2000/svg">
<path d="M13.524 6.14625H11.477C11.063 6.14625 10.727 6.48175 10.727 6.89625C10.727 7.31075 11.063 7.64625 11.477 7.64625H13.5245C13.938 7.64625 14.2745 7.98275 14.2745 8.39625V18.2042C14.2745 18.6177 13.938 18.9542 13.5245 18.9542H2.25C1.8365 18.9542 1.5 18.6177 1.5 18.2042V8.39625C1.5 7.98275 1.8365 7.64625 2.25 7.64625H4.2975C4.712 7.64625 5.0475 7.31075 5.0475 6.89625C5.0475 6.48175 4.712 6.14625 4.2975 6.14625H2.25C1.0095 6.14625 0 7.15575 0 8.39625V18.2042C0 19.4447 1.0095 20.4542 2.25 20.4542H13.5245C14.765 20.4542 15.7745 19.4447 15.7745 18.2042V8.39625C15.774 7.15525 14.765 6.14625 13.524 6.14625ZM5.0905 4.63225L7.162 2.56075V12.4348C7.162 12.8488 7.4975 13.1848 7.912 13.1848C8.3265 13.1848 8.662 12.8488 8.662 12.4348V2.56075L10.7335 4.63225C10.88 4.77875 11.072 4.85175 11.264 4.85175C11.456 4.85175 11.648 4.77875 11.7945 4.63225C12.0875 4.33975 12.0875 3.86425 11.7945 3.57175L8.443 0.21975C8.1495 -0.07325 7.675 -0.07325 7.382 0.21975L4.03 3.57175C3.737 3.86425 3.737 4.33975 4.03 4.63225C4.323 4.92525 4.7975 4.92525 5.0905 4.63225Z" fill="#6D6D6D"/>
</svg>
