<svg width="16" height="16" viewBox="0 0 16 16" fill="none" xmlns="http://www.w3.org/2000/svg">
<path d="M15.9998 6.48715C15.8811 6.93527 15.5128 7.16194 15.2103 7.44168C14.2517 8.32841 13.2865 9.20727 12.32 10.0848C12.2359 10.1611 12.2253 10.2286 12.2488 10.3357C12.5789 11.8376 12.9046 13.3408 13.2319 14.8434C13.3213 15.2532 13.2109 15.6164 12.9162 15.8284C12.5896 16.0636 12.257 16.0475 11.9212 15.8372C10.6589 15.0465 9.39404 14.2597 8.13326 13.4669C8.0338 13.4044 7.96476 13.4083 7.86812 13.4689C6.60641 14.2606 5.33842 15.0419 4.08047 15.8395C3.50751 16.2028 2.90913 15.8801 2.7673 15.3583C2.72211 15.1916 2.72776 15.0262 2.76416 14.8594C3.09112 13.3625 3.41557 11.8645 3.74755 10.3688C3.77893 10.2276 3.75131 10.1464 3.64745 10.0521C2.53981 9.04578 1.43781 8.03294 0.332985 7.02338C0.0417962 6.7574 -0.0733614 6.43049 0.0474443 6.04461C0.163229 5.67348 0.425236 5.47039 0.799891 5.43403C1.55108 5.36098 2.30196 5.28793 3.05347 5.21685C3.78928 5.14708 4.5251 5.07731 5.26154 5.01343C5.37513 5.0036 5.41749 4.94169 5.45734 4.84408C6.03281 3.43096 6.61331 2.01947 7.18847 0.606348C7.3416 0.229646 7.59952 0.00264251 7.99583 2.19745e-05C8.39998 -0.00259856 8.65979 0.229319 8.81542 0.611589C9.38462 2.00997 9.96135 3.40508 10.5262 4.80543C10.5895 4.96233 10.6724 5.00688 10.8236 5.02064C12.2902 5.15461 13.7565 5.29547 15.2225 5.4373C15.5925 5.47301 15.8306 5.69117 15.9602 6.04821C15.9703 6.07639 15.959 6.11668 15.9998 6.12847C15.9998 6.2477 15.9998 6.36759 15.9998 6.48715Z" fill="#F9CB74"/>
</svg>
