<svg width="36" height="10" viewBox="0 0 36 10" fill="none" xmlns="http://www.w3.org/2000/svg">
<g clip-path="url(#clip0_727_9266)">
<path d="M4.06 0.91626L0 9.90626H4.86L5.46 8.47626H6.84L7.44 9.90626H12.79V8.80626L13.27 9.89626H16.04L16.52 8.77626V9.89626H27.65L29 8.50626L30.27 9.89626L35.99 9.91626L31.92 5.43626L35.99 0.91626H30.36L29.04 2.28626L27.82 0.91626H15.71L14.67 3.23626L13.6 0.91626H8.75V1.97626L8.21 0.91626H4.06ZM5 2.19626H7.37L10.06 8.29626V2.19626H12.66L14.74 6.56626L16.66 2.19626H19.24V8.64626H17.67L17.66 3.59626L15.37 8.64626H13.96L11.65 3.59626V8.64626H8.42L7.81 7.19626H4.5L3.89 8.64626H2.15L5 2.19626ZM20.68 2.19626H27.07L29.02 4.30626L31.04 2.19626H33L30.03 5.43626L33 8.63626H30.96L29 6.50626L26.97 8.64626H20.68C20.68 8.63626 20.68 2.19626 20.68 2.19626ZM6.16 3.28626L5.06 5.85626H7.24C7.25 5.85626 6.16 3.28626 6.16 3.28626ZM22.26 3.52626V4.70626H25.75V6.01626H22.26V7.30626H26.17L27.99 5.41626L26.25 3.53626L22.26 3.52626Z" fill="#2478BC"/>
</g>
<defs>
<clipPath id="clip0_727_9266">
<rect width="35.99" height="9" fill="white" transform="translate(0 0.91626)"/>
</clipPath>
</defs>
</svg>
