<svg width="39" height="16" viewBox="0 0 39 16" fill="none" xmlns="http://www.w3.org/2000/svg">
<path d="M0 5.99127C0.0718587 5.72292 0.125999 5.449 0.218529 5.18715C0.662478 3.93549 1.53266 3.11745 2.95703 2.97724C3.4 2.9336 3.90005 3.02924 4.31349 3.19452C5.00746 3.47308 5.63549 3.49165 6.32455 3.18616C7.22819 2.78596 8.1594 2.80082 9.06994 3.21123C9.54145 3.42479 9.89779 3.73214 10.1134 4.09984C8.13676 5.39607 8.40845 7.97462 10.4864 8.93194C10.1006 9.98582 9.52373 10.932 8.6634 11.7064C8.19681 12.1261 7.62784 12.2125 7.01557 12.0286C6.86398 11.9831 6.71632 11.9227 6.57064 11.8615C5.85599 11.5606 5.14528 11.5755 4.42472 11.8531C3.20312 12.3229 2.65877 12.1837 1.83289 11.2096C0.89085 10.101 0.288419 8.8493 0.0698899 7.43792C0.0561088 7.34878 0.0236248 7.26336 0 7.17608C0 6.78145 0 6.38589 0 5.99127Z" fill="black"/>
<path d="M38.7995 3.9716C38.7473 4.07281 38.6853 4.17031 38.6459 4.27523C37.6133 7.00234 36.5847 9.73038 35.5511 12.4566C35.4438 12.7398 35.3148 13.0155 35.1898 13.2932C34.614 14.5681 33.5666 15.1307 32.1255 15.0908C31.906 15.0843 31.6865 15.0611 31.4463 15.0444C31.4463 14.6033 31.4463 14.1799 31.4463 13.7426C31.78 13.7194 32.1078 13.7101 32.4316 13.672C32.8401 13.6237 33.1335 13.4 33.3195 13.062C33.6079 12.5383 33.7339 12.0369 33.4849 11.4185C32.5271 9.03677 31.6333 6.63093 30.7169 4.23438C30.6755 4.1276 30.6421 4.01896 30.585 3.85368C31.2051 3.85368 31.7888 3.84161 32.3706 3.86761C32.4523 3.87132 32.5586 4.05146 32.597 4.1666C33.2644 6.16573 33.9229 8.16858 34.5835 10.1696C34.6159 10.268 34.6524 10.3664 34.7075 10.5243C34.7784 10.333 34.8345 10.1965 34.8797 10.0572C35.5245 8.09987 36.1722 6.14252 36.8061 4.18145C36.8879 3.92982 37.002 3.83139 37.2895 3.84347C37.7915 3.86389 38.2965 3.83882 38.7995 3.83325C38.7995 3.87875 38.7995 3.92518 38.7995 3.9716Z" fill="black"/>
<path d="M15.4333 8.2118C15.4333 9.50618 15.4333 10.7541 15.4333 12.0225C14.8122 12.0225 14.2294 12.0225 13.6191 12.0225C13.6191 8.29259 13.6191 4.57659 13.6191 0.842017C13.7048 0.834588 13.7757 0.822517 13.8465 0.822517C15.3221 0.824374 16.7986 0.803947 18.2742 0.836446C20.3699 0.883801 21.8789 2.31375 21.9607 4.28224C22.0473 6.37516 20.7016 7.95181 18.5912 8.15052C17.7013 8.23409 16.7986 8.19602 15.9019 8.2118C15.767 8.21459 15.6332 8.2118 15.4333 8.2118ZM15.4589 6.7475C16.1952 6.7475 16.8813 6.75215 17.5664 6.74472C17.7741 6.74286 17.9828 6.71779 18.1886 6.689C19.1719 6.55158 19.8374 5.97775 20.0146 5.07521C20.0717 4.78365 20.0677 4.47445 20.047 4.17639C19.985 3.28685 19.4239 2.55795 18.4977 2.4196C17.5044 2.27196 16.4817 2.2961 15.4589 2.24411C15.4589 3.79476 15.4589 5.2507 15.4589 6.7475Z" fill="black"/>
<path d="M28.1015 12.0248C28.1015 11.5902 28.1015 11.1909 28.1015 10.6858C27.5955 11.4249 26.9783 11.866 26.177 12.0703C25.4506 12.255 24.7369 12.2095 24.0429 11.9533C23.032 11.5791 22.4473 10.7369 22.4542 9.70064C22.4611 8.70617 23.0025 7.91785 24.0764 7.61607C24.854 7.39787 25.6888 7.34866 26.5019 7.25302C26.998 7.19452 27.501 7.1908 27.9932 7.16388C28.193 6.09606 27.8367 5.39873 26.9931 5.16381C25.8512 4.84625 24.9072 5.24738 24.4544 6.25391C23.912 6.25391 23.3647 6.25391 22.8164 6.25391C22.8942 5.10624 23.6777 4.24642 24.9889 3.89265C26.0609 3.60294 27.1329 3.61873 28.1664 4.03564C29.198 4.45255 29.7867 5.20188 29.8005 6.27248C29.8251 8.12862 29.8113 9.9857 29.8113 11.8418C29.8113 11.8966 29.7946 11.9514 29.7828 12.0229C29.2315 12.0248 28.696 12.0248 28.1015 12.0248ZM28.0001 8.37097C27.7441 8.37097 27.5089 8.35426 27.2785 8.37376C26.5826 8.43411 25.8758 8.45733 25.1956 8.59196C24.5361 8.72289 24.2201 9.1853 24.2536 9.7517C24.2841 10.2735 24.6916 10.6737 25.3177 10.7972C27.0009 11.1306 28.2649 9.99498 28.0001 8.37097Z" fill="black"/>
<path d="M5.2557 2.74885C5.03618 1.46654 6.4074 -0.0163295 7.77075 0.000384148C8.08968 1.27062 6.65645 2.85099 5.2557 2.74885Z" fill="black"/>
</svg>
