<svg width="30" height="30" viewBox="0 0 30 30" fill="none" xmlns="http://www.w3.org/2000/svg">
<g clip-path="url(#clip0_1453_16502)">
<circle cx="15" cy="15" r="14" stroke="#E2E8FF" stroke-width="2"/>
<path d="M20.7249 10.2986L18.3862 7.79271C17.4991 6.84227 16.3196 6.31885 15.0648 6.31885H12.035C10.1848 6.31817 8.67969 7.9309 8.67969 9.91335V19.9796C8.67969 21.9621 10.1848 23.5748 12.035 23.5748H18.7454C20.5956 23.5748 22.1007 21.9621 22.1007 19.9796V13.857C22.1007 12.5126 21.6122 11.249 20.7252 10.2979V10.2986H20.7249ZM19.7762 11.3154C19.9895 11.5439 20.17 11.7977 20.3163 12.0704H17.4032C17.0336 12.0704 16.7323 11.7475 16.7323 11.3515V8.22985C16.9867 8.38657 17.2242 8.58003 17.4369 8.80854L19.7756 11.3144L19.7762 11.3154ZM20.7585 19.9793C20.7585 21.1687 19.8555 22.1363 18.7454 22.1363H12.035C10.925 22.1363 10.0219 21.1687 10.0219 19.9793V9.91335C10.0219 8.72395 10.925 7.75631 12.035 7.75631H15.0648C15.1743 7.75631 15.2828 7.76204 15.3904 7.77283V11.3515C15.3904 12.5409 16.2935 13.5085 17.4035 13.5085H20.7434C20.7535 13.6235 20.7589 13.7401 20.7589 13.8574L20.7585 19.9793ZM17.7388 15.6652H13.0416C12.1168 15.6652 11.3641 16.4721 11.3641 17.4627V18.9008C11.3641 19.8917 12.1171 20.6982 13.0416 20.6982H17.7388C18.6636 20.6982 19.4163 19.8913 19.4163 18.9008V17.4627C19.4163 16.4721 18.6636 15.6652 17.7388 15.6652ZM18.0745 18.9008C18.0745 19.0993 17.9241 19.2604 17.7388 19.2604H13.0416C12.8563 19.2604 12.706 19.0993 12.706 18.9008V17.4627C12.706 17.2641 12.8563 17.103 13.0416 17.103H17.7388C17.9241 17.103 18.0745 17.2641 18.0745 17.4627V18.9008ZM11.3638 13.5082C11.3638 13.1112 11.6645 12.7893 12.0347 12.7893H13.3769C13.7475 12.7893 14.0479 13.1115 14.0479 13.5082C14.0479 13.9049 13.7471 14.2271 13.3769 14.2271H12.0347C11.6645 14.2274 11.3638 13.9052 11.3638 13.5082ZM11.3638 10.6323C11.3638 10.2352 11.6645 9.91335 12.0347 9.91335H13.3769C13.7475 9.91335 14.0479 10.2356 14.0479 10.6323C14.0479 11.0289 13.7471 11.3512 13.3769 11.3512H12.0347C11.6645 11.3512 11.3638 11.0289 11.3638 10.6323Z" fill="#E2E8FF"/>
</g>
<defs>
<clipPath id="clip0_1453_16502">
<rect width="30" height="30" fill="white"/>
</clipPath>
</defs>
</svg>
