<svg width="13" height="14" viewBox="0 0 13 14" fill="none" xmlns="http://www.w3.org/2000/svg">
<g clip-path="url(#clip0_640_3460)">
<path d="M6.5 0.916016C2.91586 0.916016 0 3.83187 0 7.41602C0 11.0002 2.91586 13.916 6.5 13.916C10.0841 13.916 13 11.0002 13 7.41602C13 3.83187 10.0841 0.916016 6.5 0.916016ZM6.45074 9.26801C6.24102 9.47773 5.96553 9.58209 5.68852 9.58209C5.41176 9.58209 5.13322 9.47646 4.92146 9.26521L3.97414 8.29504C3.75908 8.08658 3.75375 7.74355 3.96221 7.5285C4.17066 7.31369 4.51369 7.30811 4.7285 7.51656L5.58873 8.39711C5.64104 8.45068 5.72609 8.45373 5.78221 8.40396L8.61275 5.89639C8.82603 5.68691 9.16881 5.68996 9.37854 5.90273L9.37904 5.90324C9.58902 6.11652 9.58648 6.4598 9.37346 6.66979L6.45125 9.26801H6.45074Z" fill="#0D257B"/>
</g>
<defs>
<clipPath id="clip0_640_3460">
<rect width="13" height="13" fill="white" transform="translate(0 0.916016)"/>
</clipPath>
</defs>
</svg>
