<svg width="85" height="91" viewBox="0 0 85 91" fill="none" xmlns="http://www.w3.org/2000/svg">
<path d="M84.1305 31.55L84.1205 32.81C84.1105 34.11 83.3805 34.95 82.2505 34.95C81.1505 34.94 80.4405 34.09 80.4305 32.79C80.4205 31.33 80.4205 29.87 80.4305 28.41V26.82C80.4305 25.28 80.4405 23.75 80.4205 22.2C80.3605 16.15 76.5005 11.48 70.8105 10.6C69.2805 10.36 67.8005 10.42 66.3605 10.48L65.8805 10.5C65.3805 10.51 64.8805 10.53 64.3705 10.53H62.8705V13.57C62.8705 14.03 62.8805 14.48 62.8705 14.94C62.8505 16.21 62.0805 17.09 61.0205 17.09C59.9705 17.07 59.1905 16.18 59.1705 14.97C59.1605 14.33 59.1605 13.68 59.1605 13L59.1705 10.49H24.9105V14.91C24.9005 16.22 24.1805 17.07 23.0505 17.08C21.9805 17.08 21.2305 16.2 21.2105 14.94V10.51L19.1205 10.43C15.0405 10.27 10.8305 10.1 7.30047 13.55C4.98047 15.82 3.78047 18.48 3.74047 21.46C3.71047 23.82 3.71047 26.2 3.71047 28.53V37.94C3.71047 50.32 3.71047 62.7 3.72047 75.08C3.72047 80.94 7.26047 85.53 12.7305 86.78C13.6305 86.98 14.6605 87.08 15.9705 87.09C19.1005 87.09 19.9905 87.1 20.3005 87.1H20.6505C20.9405 87.1 21.8205 87.1 25.0305 87.09C26.1805 87.09 26.7805 87.42 27.1505 88.28C27.3505 88.74 27.3305 89.27 27.0905 89.74C26.8605 90.22 26.4405 90.56 25.9405 90.68C25.6605 90.76 25.3005 90.79 24.8605 90.79C21.5105 90.79 20.6405 90.8 20.3405 90.8H20.2105L15.5105 90.79C8.38047 90.77 2.37047 86.27 0.570474 79.58C0.220474 78.28 0.0404738 76.81 0.0404738 75.33C-0.00952625 58.49 -0.00952625 40.6 0.0204738 22.15C0.0304738 13.39 6.68047 6.74 15.4905 6.69H21.2105V2.14C21.2205 0.81 21.9105 0.01 23.0605 0C24.1905 0 24.9005 0.81 24.9105 2.12C24.9205 2.8 24.9205 3.49 24.9205 4.21V6.61H26.4205C36.8105 6.62 47.1505 6.62 57.6705 6.62H59.1705L59.1605 4.13C59.1605 3.46 59.1605 2.8 59.1705 2.16C59.1905 0.81 59.8805 0.01 61.0305 0.01C62.1705 0.01 62.8405 0.79 62.8705 2.13V6.7H65.5905C66.5205 6.71 67.4205 6.71 68.3105 6.69C70.4805 6.64 72.3505 6.95 74.1205 7.62C80.0805 9.84 84.0005 15.42 84.1105 21.85C84.1705 25.14 84.1505 28.55 84.1305 31.55Z" fill="#0D257B"/>
<path d="M27.8408 47.87C27.8408 48.5 27.5408 49.07 27.0108 49.35C26.6508 49.55 26.1508 49.68 25.7508 49.69C24.9508 49.69 24.3508 49.69 23.8908 49.7H23.2208C23.0708 49.7 22.9108 49.7 22.7808 49.71L19.9308 49.7C19.2908 49.7 18.7308 49.49 18.3508 49.1C18.0208 48.77 17.8508 48.32 17.8608 47.8C17.8808 46.7 18.6908 46.02 19.9608 46.01H20.5108C21.6608 46 22.0008 46 22.2208 46H22.5008L24.7008 46.02C24.9208 46.02 25.1208 46.02 25.2608 46.01C25.4908 46.02 25.7708 46.03 26.0808 46.03C26.9008 46.04 27.5708 46.56 27.7808 47.36C27.8208 47.53 27.8408 47.7 27.8408 47.87Z" fill="#F5C86F"/>
<path d="M27.8408 57.87C27.8408 58.5 27.5408 59.07 27.0108 59.35C26.6508 59.55 26.1508 59.68 25.7508 59.69C24.9508 59.69 24.3508 59.69 23.8908 59.7H23.2208C23.0708 59.7 22.9108 59.7 22.7808 59.71L19.9308 59.7C19.2908 59.7 18.7308 59.49 18.3508 59.1C18.0208 58.77 17.8508 58.32 17.8608 57.8C17.8808 56.7 18.6908 56.02 19.9608 56.01H20.5108C21.6608 56 22.0008 56 22.2208 56H22.5008L24.7008 56.02C24.9208 56.02 25.1208 56.02 25.2608 56.01C25.4908 56.02 25.7708 56.03 26.0808 56.03C26.9008 56.04 27.5708 56.56 27.7808 57.36C27.8208 57.53 27.8408 57.7 27.8408 57.87Z" fill="#F5C86F"/>
<path d="M27.8408 67.87C27.8408 68.5 27.5408 69.07 27.0108 69.35C26.6508 69.55 26.1508 69.68 25.7508 69.69C24.9508 69.69 24.3508 69.69 23.8908 69.7H23.2208C23.0708 69.7 22.9108 69.7 22.7808 69.71L19.9308 69.7C19.2908 69.7 18.7308 69.49 18.3508 69.1C18.0208 68.77 17.8508 68.32 17.8608 67.8C17.8808 66.7 18.6908 66.02 19.9608 66.01H20.5108C21.6608 66 22.0008 66 22.2208 66H22.5008L24.7008 66.02C24.9208 66.02 25.1208 66.02 25.2608 66.01C25.4908 66.02 25.7708 66.03 26.0808 66.03C26.9008 66.04 27.5708 66.56 27.7808 67.36C27.8208 67.53 27.8408 67.7 27.8408 67.87Z" fill="#F5C86F"/>
<path d="M67.5108 27.4892C67.4908 28.5892 66.6908 29.2692 65.4108 29.2792C64.1408 29.2892 34.1108 29.2892 31.4408 29.2892H23.4308C22.2708 29.2892 21.1108 29.2892 19.9408 29.2792C18.6908 29.2692 17.8708 28.5592 17.8608 27.4692C17.8508 26.9592 18.0208 26.5292 18.3508 26.1892C18.7108 25.8092 19.2808 25.5992 19.9508 25.5892C24.4008 25.5692 60.9808 25.5692 65.4308 25.5892C66.0908 25.5992 66.6608 25.8092 67.0208 26.1792C67.3508 26.5192 67.5208 26.9592 67.5108 27.4892Z" fill="#F5C86F"/>
<path d="M67.5108 37.915C67.4908 39.015 66.6908 39.695 65.4108 39.705C64.1408 39.715 34.1108 39.715 31.4408 39.715H23.4308C22.2708 39.715 21.1108 39.715 19.9408 39.705C18.6908 39.695 17.8708 38.985 17.8608 37.895C17.8508 37.385 18.0208 36.955 18.3508 36.615C18.7108 36.235 19.2808 36.025 19.9508 36.015C24.4008 35.995 60.9808 35.995 65.4308 36.015C66.0908 36.025 66.6608 36.235 67.0208 36.605C67.3508 36.945 67.5208 37.385 67.5108 37.915Z" fill="#F5C86F"/>
<path d="M82.36 49.6891V62.7491C82.36 63.1026 82.0635 63.3991 81.71 63.3991H68.65C68.2965 63.3991 68 63.1026 68 62.7491V49.6891C68 49.3356 68.2965 49.0391 68.65 49.0391H81.71C82.0635 49.0391 82.36 49.3356 82.36 49.6891Z" fill="white" stroke="#0D257B" stroke-width="3.5"/>
<path d="M82.36 75.4098V88.4698C82.36 88.8233 82.0635 89.1198 81.71 89.1198H68.65C68.2965 89.1198 68 88.8233 68 88.4698V75.4098C68 75.0563 68.2965 74.7598 68.65 74.7598H81.71C82.0635 74.7598 82.36 75.0563 82.36 75.4098Z" fill="white" stroke="#0D257B" stroke-width="3.5"/>
<path d="M55.6608 75.4098V88.4698C55.6608 88.8233 55.3643 89.1198 55.0108 89.1198H41.9508C41.5973 89.1198 41.3008 88.8233 41.3008 88.4698V75.4098C41.3008 75.0563 41.5973 74.7598 41.9508 74.7598H55.0108C55.3643 74.7598 55.6608 75.0563 55.6608 75.4098Z" fill="white" stroke="#0D257B" stroke-width="3.5"/>
<path d="M55.6608 49.6891V62.7491C55.6608 63.1026 55.3643 63.3991 55.0108 63.3991H41.9508C41.5973 63.3991 41.3008 63.1026 41.3008 62.7491V49.6891C41.3008 49.3356 41.5973 49.0391 41.9508 49.0391H55.0108C55.3643 49.0391 55.6608 49.3356 55.6608 49.6891Z" stroke="#0D257B" stroke-width="3.5" stroke-linejoin="round"/>
</svg>
