<svg width="97" height="96" viewBox="0 0 97 96" fill="none" xmlns="http://www.w3.org/2000/svg">
<path d="M87.9175 54.4625C89.5784 52.7211 90.505 50.407 90.505 48.0005C90.505 45.594 89.5784 43.28 87.9175 41.5385L86.0725 39.6005C85.6831 39.1927 85.4026 38.6934 85.2569 38.1487C85.1111 37.604 85.1048 37.0313 85.2385 36.4835L85.8655 33.8915C86.4356 31.552 86.0817 29.0827 84.8776 26.9974C83.6735 24.9121 81.7117 23.3713 79.4005 22.6955L76.8415 21.9425C76.2991 21.7852 75.8052 21.4935 75.4055 21.0944C75.0059 20.6953 74.7135 20.2018 74.5555 19.6595L73.8055 17.1005C73.1317 14.7861 71.5898 12.8215 69.5019 11.6168C67.414 10.4121 64.9415 10.0606 62.6005 10.6355L60.0085 11.2625C59.4601 11.3972 58.8865 11.3911 58.341 11.2448C57.7956 11.0985 57.2959 10.8166 56.8885 10.4255L54.9535 8.58353C53.2121 6.92267 50.898 5.99609 48.4915 5.99609C46.0851 5.99609 43.771 6.92267 42.0295 8.58353L40.0915 10.4285C39.6825 10.8161 39.1831 11.0953 38.6388 11.2409C38.0945 11.3866 37.5224 11.394 36.9745 11.2625L34.4005 10.6355C32.0598 10.0652 29.5893 10.4188 27.5026 11.6228C25.4158 12.8268 23.8733 14.7886 23.1955 17.1005L22.4425 19.6595C22.2852 20.202 21.9935 20.6959 21.5944 21.0955C21.1953 21.4951 20.7018 21.7875 20.1595 21.9455L17.6005 22.6955C15.2874 23.3713 13.3241 24.9135 12.1198 27.0009C10.9155 29.0882 10.5629 31.5597 11.1355 33.9005L11.7625 36.4925C11.8961 37.041 11.8894 37.6143 11.7432 38.1596C11.5969 38.7049 11.3157 39.2045 10.9255 39.6125L9.08353 41.5475C7.42267 43.289 6.49609 45.603 6.49609 48.0095C6.49609 50.416 7.42267 52.7301 9.08353 54.4715L10.9285 56.4095C11.3179 56.8174 11.5984 57.3166 11.7442 57.8614C11.8899 58.4061 11.8962 58.9787 11.7625 59.5265L11.1355 62.1185C10.5681 64.4568 10.9232 66.9238 12.1271 69.007C13.3311 71.0903 15.2913 72.6297 17.6005 73.3055L20.1595 74.0585C20.702 74.2158 21.1959 74.5075 21.5955 74.9066C21.9952 75.3057 22.2875 75.7993 22.4455 76.3415L23.1985 78.9035C23.8724 81.2171 25.4139 83.181 27.5012 84.3851C29.5886 85.5893 32.0604 85.9405 34.4005 85.3655L36.9925 84.7385C37.541 84.6052 38.1143 84.612 38.6595 84.7583C39.2047 84.9045 39.7044 85.1856 40.1125 85.5755L42.0475 87.4175C43.7893 89.0777 46.1033 90.0038 48.5095 90.0038C50.9158 90.0038 53.2297 89.0777 54.9715 87.4175L56.9095 85.5725C57.3171 85.1826 57.8163 84.9018 58.3611 84.7561C58.906 84.6103 59.4787 84.6043 60.0265 84.7385L62.6185 85.3655C64.9567 85.9322 67.4234 85.5767 69.5065 84.3729C71.5895 83.1691 73.1291 81.2094 73.8055 78.9005L74.5585 76.3415C74.7158 75.7991 75.0075 75.3051 75.4066 74.9055C75.8057 74.5059 76.2993 74.2135 76.8415 74.0555L79.4035 73.3025C81.7155 72.6261 83.6775 71.0841 84.8812 68.9975C86.0848 66.9109 86.4374 64.4405 85.8655 62.1005L85.2385 59.5085C85.105 58.96 85.1116 58.3867 85.2579 57.8414C85.4042 57.2962 85.6854 56.7965 86.0755 56.3885L87.9175 54.4625ZM83.5675 50.3255L81.7315 52.2575C80.6452 53.3906 79.8621 54.7794 79.4547 56.2953C79.0472 57.8113 79.0286 59.4055 79.4005 60.9305L80.0275 63.5225C80.2321 64.3646 80.1044 65.2531 79.6708 66.0035C79.2373 66.7538 78.5313 67.3083 77.6995 67.5515L75.1375 68.3045C73.6323 68.7438 72.2621 69.5554 71.1536 70.6645C70.0451 71.7735 69.2341 73.1441 68.7955 74.6495L68.0425 77.2085C67.7948 78.0374 67.2396 78.7401 66.4905 79.1729C65.7415 79.6057 64.8553 79.7358 64.0135 79.5365L61.4305 78.9005C59.9069 78.5284 58.3141 78.5458 56.7989 78.9511C55.2838 79.3564 53.895 80.1365 52.7605 81.2195L50.8255 83.0585C50.2 83.6581 49.367 83.9928 48.5005 83.9928C47.634 83.9928 46.8011 83.6581 46.1755 83.0585L44.2435 81.2225C43.1092 80.1382 41.7201 79.3571 40.2043 78.9513C38.6885 78.5455 37.0949 78.528 35.5705 78.9005L32.9785 79.5275C32.1365 79.7306 31.2487 79.6022 30.4987 79.1688C29.7487 78.7355 29.1941 78.0304 28.9495 77.1995L28.1965 74.6375C27.7573 73.1323 26.9456 71.7621 25.8366 70.6536C24.7276 69.5451 23.357 68.7341 21.8515 68.2955L19.2925 67.5425C18.4612 67.2986 17.7556 66.7441 17.3222 65.9939C16.8888 65.2438 16.7607 64.3556 16.9645 63.5135L17.6005 60.9305C17.9737 59.4069 17.9569 57.8138 17.5516 56.2985C17.1463 54.7831 16.3655 53.3943 15.2815 52.2605L13.4425 50.3255C12.843 49.7 12.5082 48.867 12.5082 48.0005C12.5082 47.134 12.843 46.3011 13.4425 45.6755L15.2785 43.7435C16.3633 42.6095 17.1447 41.2204 17.5506 39.7045C17.9564 38.1886 17.9736 36.5948 17.6005 35.0705L16.9735 32.4785C16.7697 31.6365 16.8978 30.7483 17.3312 29.9981C17.7646 29.248 18.4702 28.6934 19.3015 28.4495L21.8635 27.6965C23.3671 27.256 24.7355 26.4437 25.8423 25.3348C26.9492 24.2258 27.7588 22.8559 28.1965 21.3515L28.9495 18.7925C29.1966 17.9633 29.7518 17.26 30.501 16.8271C31.2502 16.3942 32.1367 16.2645 32.9785 16.4645L35.5705 17.0915C37.0943 17.4619 38.6866 17.4437 40.2015 17.0385C41.7163 16.6333 43.1052 15.8542 44.2405 14.7725L46.1755 12.9335C46.8011 12.334 47.634 11.9992 48.5005 11.9992C49.367 11.9992 50.2 12.334 50.8255 12.9335L52.7575 14.7695C53.8911 15.8552 55.2799 16.6378 56.7957 17.0452C58.3115 17.4526 59.9054 17.4716 61.4305 17.1005L64.0225 16.4735C64.8645 16.272 65.7516 16.401 66.5012 16.8342C67.2508 17.2673 67.8057 17.9714 68.0515 18.8015L68.8045 21.3635C69.2438 22.8688 70.0554 24.239 71.1645 25.3475C72.2735 26.456 73.6441 27.267 75.1495 27.7055L77.7085 28.4585C78.5403 28.7018 79.2463 29.2562 79.6798 30.0065C80.1134 30.7569 80.2411 31.6454 80.0365 32.4875L79.4095 35.0795C79.0363 36.6031 79.0532 38.1962 79.4585 39.7116C79.8638 41.2269 80.6445 42.6157 81.7285 43.7495L83.5675 45.6845C84.1645 46.3096 84.4975 47.1407 84.4975 48.005C84.4975 48.8693 84.1645 49.7004 83.5675 50.3255ZM68.0845 35.4725C68.3574 35.7568 68.5715 36.0919 68.7148 36.459C68.8581 36.826 68.9277 37.2176 68.9196 37.6115C68.9116 38.0055 68.826 38.3939 68.6678 38.7547C68.5095 39.1156 68.2818 39.4417 67.9975 39.7145L46.2235 60.6005C45.6649 61.1368 44.9204 61.4363 44.146 61.4363C43.3716 61.4363 42.6272 61.1368 42.0685 60.6005L29.0005 48.0755C28.7163 47.8027 28.4886 47.4766 28.3303 47.1157C28.1721 46.7549 28.0866 46.3664 28.0785 45.9725C28.0622 45.177 28.3625 44.4076 28.9135 43.8335C29.4645 43.2595 30.221 42.9278 31.0165 42.9115C31.812 42.8952 32.5815 43.1955 33.1555 43.7465L44.1475 54.3005L63.8425 35.4005C64.4146 34.8475 65.1829 34.5445 65.9784 34.558C66.774 34.5715 67.5315 34.9005 68.0845 35.4725Z" fill="#12B76A"/>
</svg>
