<svg width="59" height="64" viewBox="0 0 59 64" fill="none" xmlns="http://www.w3.org/2000/svg">
<path d="M51.7777 46.7507C51.9719 47.1203 51.9393 47.4866 51.6993 47.8267C51.6307 47.9249 51.5442 48.0132 51.4593 48.0982C49.2325 50.3304 47.0041 52.5626 44.7741 54.7949C44.4835 55.0876 44.1978 55.2331 43.9121 55.2331C43.6247 55.2331 43.3391 55.0876 43.0468 54.7949C42.0085 53.7564 40.9702 52.7164 39.9352 51.6747C39.5483 51.2871 39.4601 50.8259 39.6805 50.4024C40.0185 49.7564 40.8315 49.6518 41.3849 50.1963C42.1604 50.96 42.9244 51.7368 43.6949 52.507C43.7602 52.5724 43.8288 52.6362 43.9659 52.7671C44.0296 52.6673 44.0721 52.5659 44.1423 52.4923C46.0997 50.5283 48.0604 48.5659 50.0194 46.6019C50.2529 46.3664 50.5092 46.1898 50.8536 46.1914C51.2699 46.1963 51.585 46.3844 51.7777 46.7507Z" fill="#CEE8FA"/>
<path opacity="0.7" d="M57.498 20.082V55.2333H55.9749C56.5854 53.8531 56.9234 52.3257 56.9266 50.7198C56.9364 44.5301 51.9115 39.4933 45.729 39.495C39.5548 39.4966 34.5462 44.5105 34.5364 50.6985C34.5347 52.311 34.8743 53.8465 35.4865 55.2333H10.2262C5.29756 55.2333 1.30273 51.2317 1.30273 46.2946V20.082H57.498Z" fill="url(#paint0_linear_307_6409)"/>
<path d="M-7.64442e-05 11.7287C0.120732 11.2381 0.226847 10.7426 0.365613 10.2569C1.34677 6.82766 4.41268 4.29945 7.96019 4.13101C10.2408 4.02308 12.528 4.08849 14.8136 4.07705C15.0764 4.07541 15.3376 4.07705 15.6903 4.07705C15.6903 3.09095 15.6805 2.16045 15.6935 1.22995C15.705 0.472793 16.1996 -0.0390628 16.8445 0.00509093C17.4404 0.045974 17.8534 0.498958 17.8632 1.16781C17.8762 2.10648 17.8664 3.04352 17.8664 4.02962C25.4741 4.02962 33.0327 4.02962 40.6975 4.02962C40.6975 3.50141 40.6926 2.98138 40.6992 2.46135C40.704 1.95113 40.6812 1.436 40.7416 0.932319C40.8118 0.353415 41.3162 -0.0292508 41.8517 0.00509093C42.4035 0.0394327 42.8329 0.458075 42.8557 1.04679C42.8835 1.80231 42.8672 2.55947 42.8704 3.31498C42.8704 3.53575 42.8704 3.75816 42.8704 4.03943C43.1871 4.05415 43.4451 4.07541 43.703 4.07705C46.0082 4.09176 48.3182 4.0149 50.6168 4.13428C54.9708 4.35832 58.4922 7.99855 58.5216 12.3681C58.5787 20.7475 58.5428 29.1269 58.5412 37.508C58.5412 38.3044 58.1069 38.7688 57.4311 38.7492C56.7536 38.7295 56.3683 38.2488 56.3666 37.3804C56.3617 32.1065 56.365 26.8342 56.365 21.5603C56.365 21.2986 56.365 21.037 56.365 20.7312C38.2993 20.7312 20.2957 20.7312 2.23161 20.7312C2.22018 20.9618 2.20222 21.1793 2.20222 21.3968C2.20059 30.1441 2.19732 38.8931 2.20222 47.6404C2.20385 51.5521 4.95958 54.3011 8.88094 54.3044C15.7164 54.3093 22.5502 54.306 29.3856 54.306C29.6093 54.306 29.8379 54.2929 30.0583 54.3223C30.6117 54.3976 30.9855 54.8178 31.0035 55.3559C31.0215 55.9184 30.6492 56.373 30.0746 56.4679C29.9146 56.4941 29.7497 56.4859 29.5864 56.4859C22.6498 56.4859 15.7131 56.4924 8.77483 56.4842C4.32615 56.4793 0.857007 53.5194 0.114201 49.1204C0.0946109 49.0026 0.037472 48.8898 -0.00170898 48.7753C-7.64442e-05 36.4221 -7.64442e-05 24.0754 -7.64442e-05 11.7287ZM2.22344 18.4728C20.2859 18.4728 38.2912 18.4728 56.3275 18.4728C56.3422 18.342 56.3634 18.2438 56.3634 18.1474C56.3601 16.185 56.3993 14.221 56.3389 12.2618C56.2458 9.2463 53.8264 6.58072 50.8258 6.33706C48.697 6.16372 46.5469 6.24385 44.405 6.22586C42.8688 6.21278 42.8933 6.22422 42.8574 7.75816C42.8443 8.30108 42.9896 8.56928 43.5218 8.78841C45.267 9.50632 46.3037 11.4752 45.9723 13.2806C45.6049 15.2855 44.0508 16.7197 42.095 16.8604C40.1735 16.9977 38.345 15.7598 37.7638 13.9266C37.1745 12.0672 37.8732 9.90697 39.6054 9.06642C40.6273 8.57091 40.8347 7.9544 40.6959 6.99937C40.6926 6.97974 40.6926 6.95848 40.6959 6.93886C40.7808 6.38939 40.5767 6.21278 39.9988 6.21441C32.8581 6.23404 25.7157 6.2275 18.5733 6.22913C18.3562 6.22913 18.1374 6.24875 17.8632 6.26347C17.8632 6.84728 17.8942 7.37713 17.8534 7.90043C17.8175 8.35832 17.9709 8.56274 18.4117 8.73935C20.0279 9.38203 21.0842 11.0599 21.0123 12.7508C20.9356 14.5725 19.7879 16.0983 18.0787 16.6559C16.389 17.2054 14.5703 16.656 13.4635 15.2577C11.7167 13.055 12.5591 9.8481 15.1777 8.70665C15.3621 8.62651 15.6478 8.4777 15.6576 8.34524C15.7066 7.66331 15.6805 6.97484 15.6805 6.30272C15.5401 6.26674 15.4829 6.23894 15.4258 6.23894C13.0798 6.23894 10.729 6.15881 8.38792 6.26347C5.06733 6.41229 2.53689 8.73117 2.25609 11.9904C2.07488 14.1098 2.22344 16.2651 2.22344 18.4728ZM18.797 12.5676C18.7839 11.4442 17.8828 10.5562 16.7579 10.5595C15.6478 10.5627 14.7271 11.4851 14.7303 12.5889C14.7336 13.7222 15.6935 14.6658 16.8118 14.6331C17.9334 14.6003 18.8084 13.6895 18.797 12.5676ZM39.7572 12.584C39.7555 13.7156 40.6371 14.6216 41.7554 14.6347C42.8835 14.6478 43.8369 13.6976 43.8238 12.5742C43.8108 11.4654 42.8917 10.5627 41.7766 10.5595C40.66 10.5562 39.7588 11.4605 39.7572 12.584Z" fill="#0D257B"/>
<path d="M34.8042 35.768C35.6809 35.768 36.5575 35.7598 37.4342 35.7712C38.146 35.7794 38.6113 36.1931 38.6358 36.8097C38.6619 37.4409 38.1803 37.9331 37.4538 37.9413C35.6596 37.9593 33.8655 37.9593 32.0713 37.9413C31.3742 37.9348 30.9057 37.4687 30.8975 36.8604C30.891 36.2275 31.3759 35.781 32.1121 35.7729C33.0084 35.7598 33.9063 35.768 34.8042 35.768Z" fill="#0D257B"/>
<path d="M45.6686 29.395C44.7935 29.395 43.9168 29.4064 43.0418 29.3917C42.33 29.3803 41.886 28.9583 41.8778 28.3304C41.8696 27.7024 42.3104 27.238 43.014 27.2298C44.8262 27.2086 46.6399 27.2086 48.452 27.2298C49.1557 27.238 49.5948 27.7041 49.585 28.332C49.5769 28.9616 49.1312 29.3803 48.4178 29.3917C47.5019 29.4064 46.586 29.395 45.6686 29.395Z" fill="#0D257B"/>
<path d="M12.9116 29.3821C12.0349 29.3821 11.1599 29.3919 10.2832 29.3788C9.54041 29.369 9.0686 28.9356 9.0686 28.2929C9.0686 27.6486 9.53878 27.2071 10.2832 27.2038C12.0562 27.1924 13.8275 27.1907 15.6004 27.2055C16.3367 27.2104 16.7922 27.6682 16.7775 28.324C16.7628 28.9503 16.3138 29.3673 15.6004 29.3788C14.7058 29.3919 13.8079 29.3821 12.9116 29.3821Z" fill="#0D257B"/>
<path d="M23.8727 35.768C24.7477 35.768 25.6244 35.7598 26.4994 35.7712C27.2194 35.781 27.6634 36.1882 27.6765 36.8178C27.6912 37.4769 27.2455 37.9331 26.501 37.9397C24.7297 37.9577 22.9568 37.956 21.1855 37.9413C20.4411 37.9348 19.9709 37.4883 19.9693 36.8505C19.966 36.2111 20.4411 35.7794 21.1839 35.7712C22.0801 35.7598 22.9764 35.768 23.8727 35.768Z" fill="#0D257B"/>
<path d="M12.8383 46.4398C11.9632 46.4398 11.0866 46.4496 10.2115 46.4365C9.49158 46.4251 9.05569 46.0163 9.04753 45.3785C9.03773 44.7391 9.46546 44.2779 10.1707 44.2697C11.9828 44.2485 13.795 44.2501 15.6071 44.2697C16.296 44.2763 16.7629 44.7571 16.758 45.367C16.7531 45.9786 16.2829 46.4251 15.5891 46.4365C14.6716 46.4496 13.7558 46.4382 12.8383 46.4398Z" fill="#0D257B"/>
<path d="M23.7713 46.4579C22.8963 46.4579 22.0196 46.471 21.1446 46.4547C20.4279 46.4416 19.9789 46.0213 19.9692 45.3999C19.9594 44.7768 20.4001 44.3107 21.107 44.3026C22.9192 44.2813 24.7313 44.2813 26.5434 44.3026C27.2633 44.3107 27.6845 44.7539 27.6796 45.3933C27.6747 46.0311 27.247 46.4416 26.5222 46.4547C25.6031 46.471 24.6872 46.4579 23.7713 46.4579Z" fill="#0D257B"/>
<path d="M23.8741 29.3965C22.9779 29.3965 22.0816 29.4063 21.187 29.3932C20.4833 29.3834 20.0148 28.9566 19.9968 28.345C19.9789 27.7432 20.4474 27.2411 21.1315 27.233C22.9632 27.2117 24.7965 27.2101 26.6282 27.2362C27.2927 27.246 27.7155 27.7186 27.7139 28.3221C27.7122 28.9549 27.2698 29.3834 26.5613 29.3948C25.665 29.4063 24.7688 29.3948 23.8741 29.3965Z" fill="#0D257B"/>
<path d="M34.7926 29.3969C33.8963 29.3969 33.0001 29.4084 32.1054 29.3936C31.3887 29.3822 30.9561 28.9684 30.9512 28.3274C30.9463 27.6929 31.3757 27.2383 32.0875 27.2301C33.8996 27.2088 35.7117 27.2088 37.5238 27.2317C38.2095 27.2399 38.6797 27.7354 38.6666 28.3388C38.6519 28.9488 38.1817 29.3838 37.4814 29.3936C36.5851 29.4067 35.6888 29.3969 34.7926 29.3969Z" fill="#0D257B"/>
<path d="M12.9183 35.7484C13.7934 35.7484 14.6684 35.7369 15.5435 35.7517C16.2846 35.7631 16.7646 36.2046 16.7581 36.8342C16.7516 37.4475 16.2993 37.8988 15.5876 37.9054C13.7967 37.9266 12.0058 37.9266 10.2149 37.907C9.45899 37.8988 9.02964 37.4508 9.04923 36.7852C9.06718 36.1474 9.49001 35.7631 10.2312 35.7517C11.1258 35.7386 12.0221 35.7484 12.9183 35.7484Z" fill="#0D257B"/>
<path d="M58.7911 48.3959C58.525 46.9977 58.0924 45.7172 57.4981 44.5545C56.3064 42.2193 54.4583 40.3599 51.9622 38.9781C50.3329 38.077 48.5698 37.5864 46.7087 37.4605C46.6417 37.4556 46.5764 37.4327 46.5095 37.418H44.9537C44.4427 37.4867 43.9268 37.5308 43.4207 37.6273C39.2202 38.4335 36.0841 40.7246 34.0206 44.4711C33.1259 46.095 32.6378 47.8513 32.5072 49.7058C32.5023 49.781 32.4795 49.8562 32.4631 49.9298V51.4883C32.5317 52.0001 32.5758 52.5153 32.6721 53.0222C32.8207 53.7957 33.0182 54.5333 33.2663 55.2332C34.3667 58.3485 36.4514 60.7508 39.501 62.4384C41.1319 63.3411 42.8934 63.8301 44.7545 63.9576C44.8215 63.9609 44.8884 63.9854 44.9537 64.0001H46.5095C47.0205 63.9315 47.538 63.8873 48.0441 63.7908C52.2446 62.983 55.3807 60.6919 57.4426 56.947C58.3389 55.3231 58.827 53.5651 58.956 51.7107C58.9609 51.6355 58.9854 51.5619 59.0001 51.4883V49.9298C58.9315 49.418 58.8874 48.9028 58.7911 48.3959ZM45.7341 61.9233C41.1629 61.9249 37.2253 59.171 35.4866 55.2332C34.8744 53.8464 34.5348 52.3109 34.5365 50.6984C34.5463 44.5104 39.5549 39.4965 45.7292 39.4948C51.9116 39.4932 56.9365 44.53 56.9268 50.7197C56.9235 52.3256 56.5855 53.853 55.975 55.2332C54.2396 59.1727 50.3068 61.9216 45.7341 61.9233Z" fill="#0D257B"/>
<path d="M51.6993 47.8267C51.6307 47.9249 51.5442 48.0132 51.4593 48.0982C49.2325 50.3304 47.0041 52.5626 44.7741 54.7949C44.4835 55.0876 44.1978 55.2331 43.9121 55.2331C43.6247 55.2331 43.3391 55.0876 43.0468 54.7949C42.0085 53.7564 40.9702 52.7164 39.9352 51.6747C39.5483 51.2871 39.4601 50.8259 39.6805 50.4024C40.0185 49.7564 40.8315 49.6518 41.3849 50.1963C42.1604 50.96 42.9244 51.7368 43.6949 52.507C43.7602 52.5724 43.8288 52.6362 43.9659 52.7671C44.0296 52.6673 44.0721 52.5659 44.1423 52.4923C46.0997 50.5283 48.0604 48.5659 50.0194 46.6019C50.2529 46.3664 50.5092 46.1898 50.8536 46.1914C51.2699 46.1963 51.585 46.3844 51.7777 46.7507C51.9719 47.1203 51.9393 47.4866 51.6993 47.8267Z" fill="#0D257B"/>
<defs>
<linearGradient id="paint0_linear_307_6409" x1="1.67636" y1="16.849" x2="56.6398" y2="53.8311" gradientUnits="userSpaceOnUse">
<stop stop-color="#D5A54C"/>
<stop offset="1" stop-color="#E2C27A"/>
</linearGradient>
</defs>
</svg>
