<svg width="97" height="97" viewBox="0 0 97 97" fill="none" xmlns="http://www.w3.org/2000/svg">
<path d="M27.38 81.18C27.37 81.18 27.36 81.18 27.36 81.18C22.75 81.19 18.13 81.19 13.52 81.18C7.68001 81.17 3.75001 77.25 3.75001 71.43C3.75001 61.94 3.75001 52.44 3.75001 42.95V31.42H28C47.11 31.42 66.22 31.42 85.33 31.43C86.97 31.43 87.64 30.78 87.65 29.19L87.66 27.13C87.68 24.5 87.69 21.78 87.64 19.11C87.49 11.56 81.89 6.07 74.33 6.05C72.3 6.05 70.27 6.05 68.24 6.05H64.33V4.87C64.33 3.96 64.34 3.09 64.33 2.22C64.31 0.82 63.63 0 62.46 0C62.45 0 62.45 0 62.44 0C61.27 0 60.6 0.8 60.59 2.2C60.58 3.1 60.59 4.01 60.59 4.93V6H27.09V4.93C27.09 4.01 27.09 3.11 27.09 2.2C27.07 0.82 26.37 0 25.21 0C24.04 0 23.36 0.81 23.35 2.21C23.34 3.17 23.34 4.13 23.35 5.12V6.04H22.4C21.42 6.04 20.44 6.04 19.47 6.04C17.31 6.04 15.09 6.03 12.89 6.05C7.23001 6.1 2.15001 9.95 0.55001 15.4C0.41001 15.88 0.28001 16.38 0.17001 16.85C0.12001 17.06 0.0700098 17.27 0.0100098 17.47V73.44L0.0200098 73.5C0.0400098 73.55 0.0600098 73.6 0.0800098 73.65C0.12001 73.74 0.16001 73.82 0.17001 73.9C1.18001 79.75 5.50001 84 11.19 84.74C12.48 84.91 13.8 84.94 15.11 84.94C15.6 84.94 16.09 84.94 16.57 84.93C17.23 84.92 17.89 84.92 18.54 84.92C21.75 84.95 24.91 84.94 27.58 84.92C28.38 84.92 29.07 84.56 29.42 83.96C29.74 83.42 29.74 82.78 29.43 82.19C28.95 81.3 28.09 81.18 27.38 81.18ZM27.18 21.02C26.64 21.56 25.94 21.85 25.21 21.85H25.2C24.45 21.85 23.75 21.55 23.22 21.01C22.69 20.47 22.4 19.76 22.4 19.02C22.41 17.53 23.68 16.26 25.17 16.24C25.18 16.24 25.19 16.24 25.21 16.24C25.93 16.24 26.63 16.53 27.16 17.06C27.71 17.6 28.01 18.3 28.01 19.04C28.01 19.78 27.72 20.48 27.18 21.02ZM23.27 12.77L23.14 12.82C22.96 12.89 22.77 12.97 22.58 13.06C19.71 14.32 18.16 17.36 18.82 20.45C19.45 23.44 22.14 25.61 25.21 25.61C28.26 25.61 31.01 23.38 31.6 20.43C32.23 17.29 30.66 14.26 27.79 13.08C27.19 12.83 27.02 12.57 27.07 11.96C27.11 11.44 27.1 10.93 27.09 10.39C27.09 10.21 27.08 10.03 27.08 9.85H60.58C60.58 10.06 60.58 10.27 60.59 10.48C60.6 11.18 60.61 11.84 60.55 12.5C60.54 12.61 60.26 12.86 59.91 13.02C57.59 14.08 56.26 15.83 55.96 18.24C55.64 20.79 56.57 22.92 58.65 24.38C60.84 25.93 63.24 26.07 65.58 24.79C67.89 23.52 69.05 21.45 68.96 18.81C68.86 16.17 67.53 14.21 65.13 13.13C64.46 12.83 64.27 12.53 64.32 11.85C64.35 11.38 64.35 10.89 64.34 10.38C64.34 10.19 64.33 10 64.33 9.79H68.13C70.16 9.79 72.19 9.79 74.22 9.79C79.77 9.8 83.65 13.5 83.87 18.99C83.95 20.98 83.93 23.02 83.91 25C83.9 25.87 83.89 26.73 83.89 27.61H3.78001C3.79001 26.61 3.78001 25.59 3.77001 24.6C3.74001 22.27 3.72001 19.86 3.96001 17.53C4.39001 13.42 8.05001 10.05 12.28 9.86C14.83 9.74 17.44 9.77 19.97 9.8C21.06 9.81 22.16 9.82 23.27 9.83V12.77ZM64.38 21.05C63.86 21.57 63.17 21.85 62.43 21.85C62.42 21.85 62.42 21.85 62.41 21.85C61.67 21.84 60.98 21.55 60.46 21.02C59.93 20.48 59.64 19.76 59.65 19C59.67 17.49 60.9 16.25 62.41 16.24C62.42 16.24 62.42 16.24 62.43 16.24C63.17 16.24 63.86 16.53 64.39 17.05C64.93 17.58 65.22 18.29 65.22 19.05C65.21 19.81 64.91 20.52 64.38 21.05Z" fill="#0D257B"/>
<path d="M96.6896 44.1695C96.6396 43.9795 96.5896 43.7995 96.5596 43.6095C96.0496 40.6195 94.7396 38.3795 92.5496 36.7795C90.6696 35.3995 88.5096 34.3995 85.9496 33.7495C84.3796 33.3495 83.0996 33.8195 82.1396 35.1395L80.9496 36.7795C78.4795 40.1895 75.9996 43.6095 73.5496 47.0295C72.3896 48.6295 72.5396 50.3095 73.9496 51.7495C74.5896 52.4095 75.2496 53.0595 75.8996 53.6995C76.4296 54.2195 76.9496 54.7395 77.4796 55.2695C78.1996 55.9995 78.2296 56.3395 77.6496 57.1895C72.2296 64.9595 65.3896 71.7595 57.3296 77.4195C56.6296 77.9095 56.1096 77.8595 55.4796 77.2295C54.1596 75.9195 52.8396 74.6895 51.7296 73.6595C50.2096 72.2495 48.6696 72.1395 46.9996 73.2995C43.4396 75.7795 39.5796 78.4795 35.2196 81.5595C33.6496 82.6695 33.1796 84.0595 33.8296 85.6995C34.7196 87.9695 35.6296 89.9095 36.6196 91.6495C37.9196 93.9295 40.0496 95.4495 42.6196 95.9295C44.0796 96.1995 45.4996 96.3395 46.8596 96.3395C47.4696 96.3395 48.0596 96.3095 48.6396 96.2595C54.2196 95.7195 59.0696 93.2995 62.6796 91.2495C71.2496 86.3795 78.7196 79.8795 85.4996 71.3695C90.4796 65.1295 93.6596 59.4295 95.5096 53.4395C95.8796 52.2395 96.1396 50.9795 96.3996 49.7695C96.5196 49.1995 96.6395 48.6295 96.7696 48.0595V48.0195C96.7696 46.8295 96.7696 45.6395 96.7696 44.4495L96.6896 44.1695ZM80.3296 52.8695C79.5496 52.0695 78.7596 51.2695 77.9696 50.4795C77.5296 50.0395 77.0896 49.5995 76.6596 49.1595C76.6596 49.1495 76.6596 49.1395 76.6596 49.1295L81.9096 41.8495C82.1996 41.4395 82.4996 41.0395 82.7896 40.6395C83.4496 39.7395 84.1196 38.8095 84.7596 37.8795C85.0396 37.4695 85.2896 37.3895 85.7296 37.5695C86.0196 37.6895 86.3096 37.7895 86.5996 37.8895C86.9496 38.0095 87.3196 38.1395 87.6596 38.2895C91.8696 40.1395 93.4496 42.9095 92.9396 47.5395C92.4996 51.4995 91.1896 55.3895 88.9196 59.4095C81.4496 72.6795 70.9996 82.8095 57.8696 89.5295C53.4196 91.7995 49.5496 92.7995 45.7096 92.6895C42.5996 92.5895 40.4696 91.3295 39.1996 88.8195C38.6496 87.7395 38.1096 86.5395 37.5496 85.1595C37.4696 84.9595 37.5796 84.5195 37.6896 84.4295C40.7996 82.2095 43.8596 80.0695 47.0896 77.7995L49.0996 76.3895L49.1996 76.4795C49.4396 76.6895 49.6596 76.8995 49.8896 77.1095C50.2396 77.4395 50.5796 77.7695 50.9296 78.0995C51.6596 78.7995 52.4096 79.5195 53.1696 80.2095C54.9296 81.8095 57.2096 81.9995 59.0996 80.6995C67.7696 74.7395 75.0996 67.4395 80.8996 59.0095C82.2996 57.0095 82.0696 54.6595 80.3296 52.8695Z" fill="#0D257B"/>
<path d="M41.5697 71.6695C42.1197 71.6595 42.6197 71.4595 42.9597 71.0995C43.2997 70.7495 43.4697 70.2695 43.4597 69.7595C43.4297 68.7095 42.6297 67.9795 41.4797 67.9695C40.5197 67.9495 39.5497 67.9595 38.6097 67.9595C38.1897 67.9595 37.7697 67.9595 37.3497 67.9595H36.1097C35.1497 67.9595 34.1797 67.9495 33.2197 67.9695C32.0497 67.9895 31.2697 68.6895 31.2497 69.7595C31.2397 70.2895 31.4097 70.7695 31.7497 71.1195C32.0897 71.4795 32.5697 71.6695 33.1297 71.6795C34.5297 71.6995 35.9497 71.7095 37.3597 71.7095C38.7697 71.7095 40.1697 71.6895 41.5697 71.6695Z" fill="#F9CB74"/>
<path d="M24.66 54.8102C23.74 54.8002 22.82 54.8002 21.9 54.8102H20.62H19.38C18.48 54.8102 17.57 54.8102 16.66 54.8102C15.37 54.8202 14.52 55.5502 14.52 56.6602C14.52 57.1602 14.69 57.6002 15.02 57.9302C15.4 58.3202 15.98 58.5302 16.65 58.5302C18.14 58.5402 19.54 58.5402 20.87 58.5402C22.2 58.5402 23.45 58.5402 24.66 58.5302C25.33 58.5302 25.87 58.3202 26.25 57.9402C26.58 57.6002 26.75 57.1402 26.74 56.6202C26.7 55.5202 25.91 54.8202 24.66 54.8102Z" fill="#F9CB74"/>
<path d="M41.3705 54.8295C38.6805 54.8095 35.9605 54.8095 33.2705 54.8295C32.0605 54.8395 31.2405 55.5894 31.2405 56.6894C31.2405 57.8094 32.0305 58.5395 33.2605 58.5595C33.8205 58.5695 34.3705 58.5695 34.9305 58.5695C35.3305 58.5695 35.7205 58.5695 36.1205 58.5695H37.3105H38.4705C39.4305 58.5695 40.3905 58.5695 41.3605 58.5595C42.5805 58.5495 43.4205 57.8294 43.4505 56.7594C43.4705 56.2494 43.3005 55.7995 42.9605 55.4495C42.5905 55.0595 42.0205 54.8395 41.3705 54.8295Z" fill="#F9CB74"/>
<path d="M50.0399 54.8308C49.3699 54.8308 48.8199 55.0408 48.4399 55.4208C48.1099 55.7508 47.9399 56.2108 47.9499 56.7408C47.9699 57.8808 48.7699 58.5608 50.0899 58.5708C51.0199 58.5808 51.9499 58.5808 52.8799 58.5708H54.0399H55.1999C55.5899 58.5708 55.9799 58.5708 56.3599 58.5708C56.8999 58.5708 57.4499 58.5708 57.9899 58.5608C59.2799 58.5508 60.1299 57.8308 60.1399 56.7208C60.1499 56.2208 59.9699 55.7708 59.6399 55.4408C59.2599 55.0508 58.6799 54.8408 58.0199 54.8408C55.3899 54.8208 52.6899 54.8208 50.0399 54.8308Z" fill="#F9CB74"/>
<path d="M58.0797 41.7494C55.4497 41.7294 52.7897 41.7294 50.1697 41.7494C48.8197 41.7594 48.0297 42.4094 47.9997 43.5494C47.9897 44.0794 48.1497 44.5294 48.4597 44.8594C48.8297 45.2494 49.4197 45.4594 50.1597 45.4694C51.0797 45.4894 51.9897 45.4794 52.9097 45.4794C53.6897 45.4794 54.4697 45.4794 55.2397 45.4794C55.6097 45.4794 55.9897 45.4794 56.3697 45.4794C56.9297 45.4794 57.4997 45.4794 58.0697 45.4594C59.3697 45.4394 60.1997 44.6994 60.2097 43.5894C60.2197 42.4794 59.3797 41.7494 58.0797 41.7494Z" fill="#F9CB74"/>
<path d="M24.66 67.8998C22.2 67.8798 19.58 67.8798 16.66 67.8998C15.38 67.9098 14.52 68.6498 14.52 69.7598C14.52 70.8698 15.35 71.5998 16.65 71.6298C17.57 71.6498 18.48 71.6398 19.4 71.6398C20.22 71.6398 21.04 71.6398 21.86 71.6398C22.27 71.6398 22.69 71.6398 23.11 71.6398C23.62 71.6398 24.14 71.6398 24.65 71.6298C25.34 71.6198 25.89 71.4098 26.26 71.0298C26.58 70.6998 26.74 70.2498 26.72 69.7198C26.7 68.5898 25.93 67.9098 24.66 67.8998Z" fill="#F9CB74"/>
<path d="M24.67 41.6908C21.79 41.6708 19.18 41.6708 16.67 41.6908C16.02 41.7008 15.45 41.9208 15.06 42.3108C14.73 42.6508 14.56 43.1008 14.57 43.6108C14.59 44.6908 15.41 45.4008 16.65 45.4208C17.58 45.4308 18.51 45.4308 19.44 45.4308H20.6H21.79C22.19 45.4308 22.58 45.4308 22.98 45.4308C23.54 45.4308 24.09 45.4308 24.65 45.4208C25.96 45.4108 26.78 44.7008 26.78 43.5808C26.79 42.4408 25.96 41.7008 24.67 41.6908Z" fill="#F9CB74"/>
<path d="M41.4098 41.7494C38.7598 41.7294 36.0698 41.7294 33.4098 41.7494C32.1298 41.7594 31.2698 42.4994 31.2698 43.6094C31.2698 44.7194 32.1098 45.4494 33.4098 45.4794C34.3198 45.4994 35.2498 45.4894 36.1498 45.4894C36.9398 45.4894 37.7398 45.4894 38.5298 45.4894C38.9098 45.4894 39.2998 45.4894 39.6898 45.4894C40.2598 45.4894 40.8398 45.4894 41.4098 45.4694C42.0998 45.4494 42.6498 45.2394 43.0098 44.8594C43.3298 44.5294 43.4898 44.0694 43.4698 43.5394C43.4598 42.4294 42.6798 41.7594 41.4098 41.7494Z" fill="#F9CB74"/>
</svg>
