<svg width="48" height="9" viewBox="0 0 48 9" fill="none" xmlns="http://www.w3.org/2000/svg">
<g clip-path="url(#clip0_727_9262)">
<path fill-rule="evenodd" clip-rule="evenodd" d="M3.06285 1.07602H0.922852V8.23602H3.05285C4.18285 8.23602 5.00285 7.97602 5.72285 7.40602C6.57285 6.73602 7.08285 5.71602 7.08285 4.65602C7.08285 2.54602 5.43285 1.07602 3.06285 1.07602ZM4.77285 6.45602C4.31285 6.85602 3.72285 7.02602 2.77285 7.02602H2.38285V2.28602H2.77285C3.71285 2.28602 4.28285 2.44602 4.77285 2.86602C5.27285 3.29602 5.57285 3.95602 5.57285 4.64602C5.57285 5.33602 5.27285 6.02602 4.77285 6.45602ZM7.75285 1.07602H9.20285V8.23602H7.75285V1.07602ZM12.7729 3.82602C14.4329 4.40602 14.9229 4.92602 14.9229 6.05602C14.9229 7.43602 13.8529 8.40602 12.3429 8.40602C11.2329 8.40602 10.4229 7.98602 9.75285 7.04602L10.6929 6.17602C11.0329 6.79602 11.5929 7.13602 12.2829 7.13602C12.9329 7.13602 13.4129 6.70602 13.4129 6.12602C13.4129 5.82602 13.2629 5.56602 12.9729 5.38602C12.8229 5.29602 12.5329 5.16602 11.9629 4.97602C10.6129 4.49602 10.1429 3.99602 10.1429 3.00602C10.1429 1.83602 11.1529 0.956016 12.4729 0.956016C13.2929 0.956016 14.0429 1.22602 14.6729 1.75602L13.9129 2.70602C13.5329 2.29602 13.1729 2.12602 12.7329 2.12602C12.1029 2.12602 11.6429 2.46602 11.6429 2.91602C11.6429 3.30602 11.8929 3.51602 12.7729 3.82602ZM15.3929 4.65602C15.3929 2.57602 17.1628 0.916016 19.3729 0.916016C20.0028 0.916016 20.5329 1.04602 21.1729 1.35602V2.99602C20.5729 2.42602 20.0429 2.18602 19.3429 2.18602C18.0029 2.17602 16.9029 3.25602 16.8929 4.59602C16.8929 4.60602 16.8929 4.62602 16.8929 4.63602C16.8929 6.08602 17.9329 7.10602 19.4029 7.10602C20.0629 7.10602 20.5829 6.88602 21.1629 6.32602V7.96602C20.5029 8.26602 19.9629 8.38602 19.3329 8.38602C17.1129 8.39602 15.3829 6.76602 15.3929 4.65602ZM32.9829 5.88602L35.0028 1.07602H36.5829L33.3529 8.41602H32.5729L29.4029 1.07602H30.9929L32.9829 5.88602ZM37.2429 8.23602V1.07602H41.3829V2.28602H38.7029V3.87602H41.2829V5.08602H38.7029V7.01602H41.3829V8.22602L37.2429 8.23602ZM47.1529 3.18602C47.1529 1.84602 46.1928 1.07602 44.5028 1.07602H42.3428V8.23602H43.8029V5.35602H43.9929L46.0028 8.23602H47.7929L45.4529 5.21602C46.5528 5.00602 47.1529 4.28602 47.1529 3.18602ZM44.2329 4.36602H43.8129V2.20602H44.2629C45.1729 2.20602 45.6628 2.57602 45.6628 3.26602C45.6529 3.98602 45.1629 4.37602 44.2329 4.36602Z" fill="#1A1919"/>
<path fill-rule="evenodd" clip-rule="evenodd" d="M29.6027 4.67604C29.6027 6.73604 27.8527 8.40604 25.7027 8.40604C23.5527 8.40604 21.8027 6.73604 21.8027 4.67604C21.8027 2.61604 23.5527 0.946045 25.7027 0.946045C27.8527 0.946045 29.6027 2.61604 29.6027 4.67604Z" fill="#E6772F"/>
</g>
<defs>
<clipPath id="clip0_727_9262">
<rect width="46.89" height="7.5" fill="white" transform="translate(0.919922 0.916016)"/>
</clipPath>
</defs>
</svg>
