<svg width="232" height="155" viewBox="0 0 232 155" fill="none" xmlns="http://www.w3.org/2000/svg">
<path d="M0 111.68H12.7403C22.9952 111.68 30.0963 119.256 30.0963 129.143V129.25C30.0963 139.137 22.9952 146.82 12.7403 146.82H0V111.68ZM7.18469 118.656V139.843H12.7403C18.5674 139.843 22.5775 135.584 22.5775 129.357V129.25C22.5775 123.022 18.5674 118.656 12.7403 118.656H7.18469Z" fill="white"/>
<path d="M39.1797 133.511V133.404C39.1797 125.679 44.965 119.408 52.7554 119.408C60.5458 119.408 66.2476 125.529 66.2476 133.319V133.426C66.2476 141.151 60.4622 147.422 52.6719 147.422C44.8815 147.422 39.1797 141.301 39.1797 133.511ZM59.2509 133.511V133.404C59.2509 129.445 56.5984 125.978 52.6719 125.978C48.7453 125.978 46.1973 129.295 46.1973 133.297V133.404C46.1973 137.363 48.8498 140.83 52.7763 140.83C56.7028 140.83 59.2509 137.513 59.2509 133.511Z" fill="white"/>
<path d="M74.8176 133.511V133.404C74.8176 125.721 80.2688 119.408 87.9339 119.408C92.654 119.408 95.5363 121.12 97.9172 123.924L93.573 128.953C91.9439 127.155 90.4401 126 87.8712 126C84.3206 126 81.8143 129.317 81.8143 133.319V133.426C81.8143 137.599 84.2789 140.852 88.1636 140.852C90.5446 140.852 92.1737 139.739 93.9072 137.984L98.0634 142.5C95.6407 145.367 92.842 147.422 87.8503 147.422C80.3315 147.422 74.8385 141.151 74.8385 133.511H74.8176Z" fill="white"/>
<path d="M108.776 111.68H112.452V127.281H131.291V111.68H134.967V146.82H131.291V131.005H112.452V146.82H108.776V111.68Z" fill="#F9CB74"/>
<path d="M166.335 120.861H170.157L160.027 147.655C157.98 153.027 155.599 154.974 152.007 154.974C150.002 154.974 148.498 154.525 146.869 153.669L148.08 150.608C149.25 151.272 150.315 151.571 151.861 151.571C154.054 151.571 155.37 150.373 156.811 146.713L145.846 120.861H149.814L158.586 142.498L166.335 120.861Z" fill="#F9CB74"/>
<path d="M177.441 120.861H181.409L189.534 142.391L197.7 120.861H201.564L191.058 147.013H187.884L177.441 120.861Z" fill="#F9CB74"/>
<path d="M208.965 133.906V133.799C208.965 126.33 213.811 120.295 220.536 120.295C227.679 120.295 231.772 126.416 231.772 133.991C231.772 134.548 231.772 134.805 231.731 135.254H212.599C213.121 140.882 216.797 144.028 221.1 144.028C224.462 144.028 226.697 142.573 228.702 140.369L230.937 142.53C228.514 145.484 225.611 147.388 220.995 147.388C214.416 147.388 208.965 141.91 208.965 133.884V133.906ZM228.138 132.408C227.762 127.742 225.298 123.569 220.431 123.569C216.192 123.569 213.1 127.379 212.599 132.408H228.138Z" fill="#F9CB74"/>
<mask id="mask0_718_4446" style="mask-type:luminance" maskUnits="userSpaceOnUse" x="101" y="35" width="21" height="25">
<path d="M111.514 59.5896L107.337 57.1286L101.343 53.576V41.5488L111.514 35.5352L121.665 41.5488V53.576L115.67 57.1286L111.514 59.5896Z" fill="white"/>
</mask>
<g mask="url(#mask0_718_4446)">
<path d="M121.659 49.2531L111.989 35.5352H121.659V49.2531Z" fill="#F9CB74"/>
<path d="M121.661 50.8581L110.863 35.5352H111.991L121.661 49.2531V50.8581Z" fill="#F9CB74"/>
<path d="M121.661 52.4632L109.714 35.5352H110.863L121.661 50.8581L121.661 52.4632Z" fill="#F9CB74"/>
<path d="M121.667 54.0896L108.593 35.5352H109.721L121.667 52.4632V54.0896Z" fill="#F9CB74"/>
<path d="M121.667 55.6947L107.444 35.5352H108.593L121.667 54.0896L121.667 55.6947Z" fill="#F9CB74"/>
<path d="M121.66 57.2998L106.309 35.5352H107.437L121.66 55.6947V57.2998Z" fill="#F9CB74"/>
<path d="M121.66 58.22L121.347 58.4554L105.161 35.5352H106.309L121.66 57.2998L121.66 58.22Z" fill="#F9CB74"/>
<path d="M121.349 58.4554L120.597 59.0118L104.035 35.5352H105.162L121.349 58.4554Z" fill="#F9CB74"/>
<path d="M120.6 59.0118L119.848 59.5682L102.993 35.685L103.181 35.5352H104.037L120.6 59.0118Z" fill="#F9CB74"/>
<path d="M119.847 59.5698L119.826 59.5912H118.74L102.241 36.2215L102.993 35.6865L119.847 59.5698Z" fill="#F9CB74"/>
<path d="M117.593 59.5914L101.511 36.7782L102.241 36.2215L118.74 59.5912L117.593 59.5914Z" fill="#F9CB74"/>
<path d="M116.463 59.5859L101.342 38.1423V36.901L101.509 36.7726L117.591 59.5859H116.463Z" fill="#F9CB74"/>
<path d="M115.335 59.5861L101.342 39.769V38.1423L116.463 59.5859L115.335 59.5861Z" fill="#F9CB74"/>
<path d="M114.186 59.591L101.342 41.3789V39.7739L115.335 59.591H114.186Z" fill="#F9CB74"/>
<path d="M113.058 59.5873L101.342 42.9803V41.3752L114.186 59.5873H113.058Z" fill="#F9CB74"/>
<path d="M111.91 59.5858L101.342 44.6053V42.9788L113.058 59.5858H111.91Z" fill="#F9CB74"/>
<path d="M110.782 59.5852L101.342 46.2097V44.6053L111.91 59.5858L110.782 59.5852Z" fill="#F9CB74"/>
<path d="M109.633 59.5837L101.342 47.8133V46.2082L110.782 59.5837H109.633Z" fill="#F9CB74"/>
<path d="M108.505 59.5956L101.342 49.4302V47.8251L109.633 59.5956H108.505Z" fill="#F9CB74"/>
<path d="M107.357 59.5907L101.342 51.0518V49.4254L108.505 59.5907H107.357Z" fill="#F9CB74"/>
<path d="M106.229 59.5901L101.342 52.6562V51.0518L107.357 59.5907L106.229 59.5901Z" fill="#F9CB74"/>
<path d="M105.101 59.5875L101.342 54.2587V52.6537L106.229 59.5875H105.101Z" fill="#F9CB74"/>
<path d="M103.952 59.5938L101.342 55.8915V54.265L105.101 59.5938H103.952Z" fill="#F9CB74"/>
<path d="M102.824 59.5843L101.342 57.487V55.8819L103.952 59.5843H102.824Z" fill="#F9CB74"/>
<path d="M101.676 59.5984L101.342 59.1061V57.5011L102.824 59.5984H101.676Z" fill="#F9CB74"/>
<path d="M101.342 59.1002L101.676 59.5945H101.342V59.1002Z" fill="#F9CB74"/>
</g>
<path d="M138.811 31.395V63.7102L122.687 73.2549L111.492 79.8464L100.319 73.2549L84.1948 63.7102V31.395L111.492 15.2588L121.664 21.2724V38.1362L111.492 32.1012L98.4389 39.8269V55.2783L106.146 59.858L111.492 63.0253L116.839 59.858L124.567 55.2783V44.4281H124.546V8.0039L138.811 0V31.395Z" fill="white"/>
<path d="M179.264 0V63.7102H165.02V39.9339H144.009V25.3171H165.02V8.0039L179.264 0Z" fill="white"/>
<mask id="mask1_718_4446" style="mask-type:luminance" maskUnits="userSpaceOnUse" x="73" y="64" width="22" height="25">
<path d="M83.9148 88.6833L79.7585 86.2222L73.7434 82.6697V70.621L83.9148 64.6074L94.0861 70.621V82.6697L88.0919 86.2222L83.9148 88.6833Z" fill="white"/>
</mask>
<g mask="url(#mask1_718_4446)">
<path d="M94.0838 64.9496L93.8538 64.6074H94.0838V64.9496Z" fill="#F9CB74"/>
<path d="M94.0845 66.5549L92.7061 64.6074H93.8548L94.0845 64.9498V66.5549Z" fill="#F9CB74"/>
<path d="M94.0864 68.1814L91.5801 64.6074H92.7079L94.0864 66.5549V68.1814Z" fill="#F9CB74"/>
<path d="M94.0864 69.7864L90.4314 64.6074H91.5801L94.0864 68.1814V69.7864Z" fill="#F9CB74"/>
<path d="M94.0883 71.3915L89.3054 64.6074H90.4333L94.0883 69.7864V71.3915Z" fill="#F9CB74"/>
<path d="M94.0811 73.0179L88.1704 64.6074H89.2982L94.0811 71.3915V73.0179Z" fill="#F9CB74"/>
<path d="M94.0809 74.623L87.0215 64.6074H88.1702L94.0809 73.0179V74.623Z" fill="#F9CB74"/>
<path d="M94.0874 76.228L85.9001 64.6074H87.028L94.0874 74.623V76.228Z" fill="#F9CB74"/>
<path d="M94.0874 77.8545L84.7515 64.6074H85.9002L94.0874 76.228V77.8545Z" fill="#F9CB74"/>
<path d="M94.0892 79.4596L83.6255 64.6074H84.7533L94.0892 77.8545V79.4596Z" fill="#F9CB74"/>
<path d="M94.089 81.0646L82.4766 64.6074H83.6253L94.089 79.4596V81.0646Z" fill="#F9CB74"/>
<path d="M94.0909 82.6911L81.3506 64.6074H82.4784L94.0909 81.0646V82.6911Z" fill="#F9CB74"/>
<path d="M94.0829 84.2961L80.1938 64.6074H81.3426L94.0829 82.6911V84.2961Z" fill="#F9CB74"/>
<path d="M94.0837 85.9012L79.0669 64.6074H80.1947L94.0837 84.2961V85.9012Z" fill="#F9CB74"/>
<path d="M94.0847 87.3137L93.9803 87.3779L77.9192 64.6074H79.0679L94.0847 85.9012V87.3137Z" fill="#F9CB74"/>
<path d="M93.981 87.3779L93.2499 87.9343L76.792 64.6074H77.9198L93.981 87.3779Z" fill="#F9CB74"/>
<path d="M93.252 87.9343L92.5002 88.4907L75.6663 64.6074H76.7941L93.252 87.9343Z" fill="#F9CB74"/>
<path d="M92.499 88.4907L92.2275 88.6833H91.4965L74.8923 65.1424L75.6024 64.6074H75.6651L92.499 88.4907Z" fill="#F9CB74"/>
<path d="M90.3683 88.6873L74.1401 65.7029L74.892 65.1465L91.4962 88.6873H90.3683Z" fill="#F9CB74"/>
<path d="M89.2197 88.6798L73.7434 66.744V65.9949L74.1402 65.6953L90.3684 88.6798H89.2197Z" fill="#F9CB74"/>
<path d="M88.0919 88.6819L73.7434 68.3512V66.7461L89.2197 88.6819H88.0919Z" fill="#F9CB74"/>
<path d="M86.9432 88.6823L73.7434 69.978V68.3516L88.0919 88.6823H86.9432Z" fill="#F9CB74"/>
<path d="M85.8154 88.6867L73.7434 71.5875V69.9824L86.9432 88.6867H85.8154Z" fill="#F9CB74"/>
<path d="M84.6666 88.6852L73.7434 73.191V71.5859L85.8154 88.6852H84.6666Z" fill="#F9CB74"/>
<path d="M83.5388 88.6895L73.7434 74.8218V73.1953L84.6666 88.6895H83.5388Z" fill="#F9CB74"/>
<path d="M82.3901 88.6861L73.7434 76.4234V74.8184L83.5388 88.6861H82.3901Z" fill="#F9CB74"/>
<path d="M81.2623 88.6865L73.7434 78.0289V76.4238L82.3901 88.6865H81.2623Z" fill="#F9CB74"/>
<path d="M80.1344 88.681L73.7434 79.6499V78.0234L81.2623 88.681H80.1344Z" fill="#F9CB74"/>
<path d="M78.9857 88.6757L73.7434 81.2496V79.6445L80.1344 88.6757H78.9857Z" fill="#F9CB74"/>
<path d="M77.8579 88.678L73.7434 82.857V81.252L78.9857 88.678H77.8579Z" fill="#F9CB74"/>
<path d="M76.7092 88.6765L73.7434 84.4819V82.8555L77.8579 88.6765H76.7092Z" fill="#F9CB74"/>
<path d="M75.5814 88.6828L73.7434 86.0933V84.4883L76.7092 88.6828H75.5814Z" fill="#F9CB74"/>
<path d="M74.4326 88.6832L73.7434 87.6988V86.0938L75.5814 88.6832H74.4326Z" fill="#F9CB74"/>
<path d="M73.7434 87.6992L74.4326 88.6837H73.7434V87.6992Z" fill="#F9CB74"/>
</g>
<mask id="mask2_718_4446" style="mask-type:luminance" maskUnits="userSpaceOnUse" x="52" y="64" width="21" height="25">
<path d="M62.7092 88.9118L58.5529 86.4293L52.5378 82.8982V70.8496L62.7092 64.8359L72.8805 70.8496V82.8982L66.8863 86.4293L62.7092 88.9118Z" fill="white"/>
</mask>
<g mask="url(#mask2_718_4446)">
<path d="M72.8804 65.6096L72.3374 64.8359H72.8804V65.6096Z" fill="#F9CB74"/>
<path d="M72.8859 67.2114L71.2151 64.8359H72.3429L72.8859 65.6064V67.2114Z" fill="#F9CB74"/>
<path d="M72.8785 68.8165L70.0798 64.8359H71.2077L72.8785 67.2114V68.8165Z" fill="#F9CB74"/>
<path d="M72.8795 70.4429L68.9321 64.8359H70.0808L72.8795 68.8165V70.4429Z" fill="#F9CB74"/>
<path d="M72.8804 72.048L67.8052 64.8359H68.933L72.8804 70.4429V72.048Z" fill="#F9CB74"/>
<path d="M72.8814 73.6531L66.6575 64.8359H67.8062L72.8814 72.048V73.6531Z" fill="#F9CB74"/>
<path d="M72.8833 75.2795L65.5315 64.8359H66.6593L72.8833 73.6531V75.2795Z" fill="#F9CB74"/>
<path d="M72.8833 76.8846L64.3828 64.8359H65.5315L72.8833 75.2795V76.8846Z" fill="#F9CB74"/>
<path d="M72.8759 78.4896L63.2476 64.8359H64.3754L72.8759 76.8846V78.4896Z" fill="#F9CB74"/>
<path d="M72.8805 80.1161L62.1035 64.8359H63.2522L72.8805 78.4896V80.1161Z" fill="#F9CB74"/>
<path d="M72.8778 81.7212L60.9729 64.8359H62.1007L72.8778 80.1161V81.7212Z" fill="#F9CB74"/>
<path d="M72.8843 83.3262L59.8516 64.8359H60.9794L72.8843 81.7212V83.3262Z" fill="#F9CB74"/>
<path d="M72.8796 84.9527L58.6982 64.8359H59.847L72.8796 83.3262V84.9527Z" fill="#F9CB74"/>
<path d="M72.8769 86.5577L57.5676 64.8359H58.6955L72.8769 84.9527V86.5577Z" fill="#F9CB74"/>
<path d="M72.8769 87.5208L72.5845 87.7562L56.4189 64.8359H57.5677L72.8769 86.5577V87.5208Z" fill="#F9CB74"/>
<path d="M72.5863 87.7562L71.8345 88.3126L55.293 64.8359H56.4208L72.5863 87.7562Z" fill="#F9CB74"/>
<path d="M71.8357 88.3126L71.1047 88.8476L54.229 64.9643L54.3961 64.8359H55.2942L71.8357 88.3126Z" fill="#F9CB74"/>
<path d="M71.1064 88.852L71.0438 88.9162H69.9995L53.4998 65.5252L54.2308 64.9688L71.1064 88.852Z" fill="#F9CB74"/>
<path d="M68.8505 88.9125L52.7476 66.0779L53.4994 65.5215L69.9992 88.9125H68.8505Z" fill="#F9CB74"/>
<path d="M67.7218 88.9089L52.5378 67.4011V66.2026L52.7467 66.0742L68.8496 88.9089H67.7218Z" fill="#F9CB74"/>
<path d="M66.5731 88.9101L52.5378 69.0074V67.4023L67.7218 88.9101H66.5731Z" fill="#F9CB74"/>
<path d="M65.4452 88.9105L52.5378 70.6129V69.0078L66.5731 88.9105H65.4452Z" fill="#F9CB74"/>
<path d="M64.3174 88.9129L52.5378 72.2417V70.6152L65.4452 88.9129H64.3174Z" fill="#F9CB74"/>
<path d="M63.1687 88.9115L52.5378 73.8453V72.2402L64.3174 88.9115H63.1687Z" fill="#F9CB74"/>
<path d="M62.0408 88.908L52.5378 75.4469V73.8418L63.1687 88.908H62.0408Z" fill="#F9CB74"/>
<path d="M60.8921 88.9162L52.5378 77.0815V75.4551L62.0408 88.9162H60.8921Z" fill="#F9CB74"/>
<path d="M59.7643 88.9186L52.5378 78.689V77.084L60.8921 88.9186H59.7643Z" fill="#F9CB74"/>
<path d="M58.6156 88.9151L52.5378 80.2906V78.6855L59.7643 88.9151H58.6156Z" fill="#F9CB74"/>
<path d="M52.5378 80.293L58.6156 88.9175H52.5378V80.293Z" fill="#F9CB74"/>
</g>
<mask id="mask3_718_4446" style="mask-type:luminance" maskUnits="userSpaceOnUse" x="62" y="45" width="22" height="25">
<path d="M73.1311 69.949L68.9748 67.4879L62.9597 63.9354V51.9082L73.1311 45.8945L83.3024 51.9082V63.9354L77.3082 67.4879L73.1311 69.949Z" fill="white"/>
</mask>
<g mask="url(#mask3_718_4446)">
<path d="M83.3066 46.4517L82.9109 45.8945H83.3066V46.4517Z" fill="#F9CB74"/>
<path d="M83.3005 48.056L81.7759 45.8945H82.9037L83.3005 46.4509V48.056Z" fill="#F9CB74"/>
<path d="M83.3012 49.6611L80.6487 45.8945H81.7765L83.3012 48.056V49.6611Z" fill="#F9CB74"/>
<path d="M83.3022 51.2875L79.501 45.8945H80.6497L83.3022 49.6611V51.2875Z" fill="#F9CB74"/>
<path d="M83.3043 52.8926L78.3752 45.8945H79.5031L83.3043 51.2875V52.8926Z" fill="#F9CB74"/>
<path d="M83.3041 54.4976L77.2263 45.8945H78.375L83.3041 52.8926V54.4976Z" fill="#F9CB74"/>
<path d="M83.3059 56.1241L76.1003 45.8945H77.2282L83.3059 54.4976V56.1241Z" fill="#F9CB74"/>
<path d="M83.3013 57.7292L74.947 45.8945H76.0957L83.3013 56.1241V57.7292Z" fill="#F9CB74"/>
<path d="M83.2985 59.3342L73.8164 45.8945H74.9442L83.2985 57.7292V59.3342Z" fill="#F9CB74"/>
<path d="M83.2986 60.9607L72.6677 45.8945H73.8164L83.2986 59.3342V60.9607Z" fill="#F9CB74"/>
<path d="M83.3051 62.5657L71.5464 45.8945H72.6742L83.3051 60.9607V62.5657Z" fill="#F9CB74"/>
<path d="M83.3069 64.1708L70.4204 45.8945H71.5482L83.3069 62.5657V64.1708Z" fill="#F9CB74"/>
<path d="M83.3069 65.7759L69.2717 45.8945H70.4204L83.3069 64.1708V65.7759Z" fill="#F9CB74"/>
<path d="M83.2995 67.4023L68.1365 45.8945H69.2643L83.2995 65.7759V67.4023Z" fill="#F9CB74"/>
<path d="M83.3005 68.5794L83.1126 68.7292L66.9888 45.8945H68.1375L83.3005 67.4023V68.5794Z" fill="#F9CB74"/>
<path d="M83.1134 68.7292L82.3615 69.2856L65.8618 45.8945H66.9896L83.1134 68.7292Z" fill="#F9CB74"/>
<path d="M82.3608 69.2856L81.6089 69.842L64.7542 45.9373L64.8168 45.8945H65.8611L82.3608 69.2856Z" fill="#F9CB74"/>
<path d="M81.6089 69.8402L81.4418 69.9472H80.5646L64.0022 46.492L64.7541 45.9355L81.6089 69.8402Z" fill="#F9CB74"/>
<path d="M79.419 69.9475L63.2534 47.0486L64.0053 46.4922L80.5677 69.9475H79.419Z" fill="#F9CB74"/>
<path d="M78.2901 69.9418L62.96 48.2414V47.257L63.2524 47.043L79.4179 69.9418H78.2901Z" fill="#F9CB74"/>
<path d="M77.1414 69.9445L62.96 49.8492V48.2441L78.2901 69.9445H77.1414Z" fill="#F9CB74"/>
<path d="M76.0135 69.9469L62.96 51.4566V49.8516L77.1414 69.9469H76.0135Z" fill="#F9CB74"/>
<path d="M74.8648 69.9493L62.96 53.0854V51.459L76.0135 69.9493H74.8648Z" fill="#F9CB74"/>
<path d="M73.737 69.9537L62.96 54.6949V53.0898L74.8648 69.9537H73.737Z" fill="#F9CB74"/>
<path d="M72.6092 69.9482L62.96 56.2945V54.6895L73.737 69.9482H72.6092Z" fill="#F9CB74"/>
<path d="M71.4605 69.9525L62.96 57.9253V56.2988L72.6092 69.9525H71.4605Z" fill="#F9CB74"/>
<path d="M70.3326 69.953L62.96 59.5308V57.9258L71.4605 69.953H70.3326Z" fill="#F9CB74"/>
<path d="M69.1839 69.9534L62.96 61.1363V59.5312L70.3326 69.9534H69.1839Z" fill="#F9CB74"/>
<path d="M68.0561 69.9499L62.96 62.7593V61.1328L69.1839 69.9499H68.0561Z" fill="#F9CB74"/>
<path d="M66.9074 69.9504L62.96 64.3648V62.7598L68.0561 69.9504H66.9074Z" fill="#F9CB74"/>
<path d="M65.7795 69.945L62.96 65.9644V64.3594L66.9074 69.945H65.7795Z" fill="#F9CB74"/>
<path d="M64.6308 69.9571L62.96 67.5816V65.9766L65.7795 69.9571H64.6308Z" fill="#F9CB74"/>
<path d="M63.503 69.9497L62.96 69.2007V67.5742L64.6308 69.9497H63.503Z" fill="#F9CB74"/>
<path d="M62.96 69.2031L63.503 69.9553H62.96V69.2031Z" fill="#F9CB74"/>
</g>
</svg>
