<svg width="85" height="55" viewBox="0 0 85 55" fill="none" xmlns="http://www.w3.org/2000/svg">
<path d="M0 39.6367H4.63191C8.36022 39.6367 10.9419 42.3252 10.9419 45.8339V45.8719C10.9419 49.3806 8.36022 52.107 4.63191 52.107H0V39.6367ZM2.6121 42.1126V49.6312H4.63191C6.75044 49.6312 8.20836 48.1199 8.20836 45.9099V45.8719C8.20836 43.6619 6.75044 42.1126 4.63191 42.1126H2.6121Z" fill="#F5C86F"/>
<path d="M14.2451 47.3837V47.3458C14.2451 44.6041 16.3484 42.3789 19.1807 42.3789C22.013 42.3789 24.086 44.551 24.086 47.3154V47.3534C24.086 50.095 21.9826 52.3202 19.1503 52.3202C16.318 52.3202 14.2451 50.1482 14.2451 47.3837ZM21.5422 47.3837V47.3458C21.5422 45.9408 20.5779 44.7104 19.1503 44.7104C17.7228 44.7104 16.7964 45.8876 16.7964 47.3078V47.3458C16.7964 48.7508 17.7608 49.9811 19.1883 49.9811C20.6158 49.9811 21.5422 48.8039 21.5422 47.3837Z" fill="#F5C86F"/>
<path d="M27.1992 47.3837V47.3458C27.1992 44.6193 29.1811 42.3789 31.9678 42.3789C33.6839 42.3789 34.7318 42.9865 35.5974 43.9814L34.018 45.7661C33.4257 45.1281 32.879 44.718 31.945 44.718C30.6542 44.718 29.743 45.8952 29.743 47.3154V47.3534C29.743 48.8343 30.639 49.9887 32.0513 49.9887C32.917 49.9887 33.5093 49.5938 34.1395 48.971L35.6506 50.5735C34.7697 51.5911 33.7522 52.3202 31.9374 52.3202C29.2039 52.3202 27.2068 50.095 27.2068 47.3837H27.1992Z" fill="#F5C86F"/>
<path d="M39.5459 39.6367H40.8823V45.1732H47.7315V39.6367H49.0679V52.107H47.7315V46.4946H40.8823V52.107H39.5459V39.6367Z" fill="#F5C86F"/>
<path d="M60.4731 42.8945H61.8626L58.1799 52.403C57.4358 54.3092 56.5701 55.0003 55.2641 55.0003C54.5351 55.0003 53.9884 54.8408 53.3961 54.537L53.8365 53.451C54.2618 53.6865 54.649 53.7928 55.2109 53.7928C56.0082 53.7928 56.4866 53.3675 57.0105 52.0688L53.024 42.8945H54.4668L57.656 50.5727L60.4731 42.8945Z" fill="#F5C86F"/>
<path d="M64.5127 42.8945H65.9554L68.9092 50.5347L71.8782 42.8945H73.283L69.4635 52.1751H68.3093L64.5127 42.8945Z" fill="#F5C86F"/>
<path d="M75.9709 47.5274V47.4895C75.9709 44.8389 77.7326 42.6973 80.1776 42.6973C82.7745 42.6973 84.2628 44.8693 84.2628 47.5578C84.2628 47.7553 84.2628 47.8464 84.2476 48.0059H77.2922C77.482 50.0033 78.8184 51.1197 80.3827 51.1197C81.6052 51.1197 82.4177 50.6032 83.1466 49.821L83.9591 50.5881C83.0783 51.6361 82.0228 52.312 80.3447 52.312C77.9528 52.312 75.9709 50.3678 75.9709 47.5198V47.5274ZM82.9416 46.9958C82.8049 45.3402 81.9089 43.8592 80.1397 43.8592C78.5982 43.8592 77.4744 45.2111 77.2922 46.9958H82.9416Z" fill="#F5C86F"/>
<mask id="mask0_480_5890" style="mask-type:luminance" maskUnits="userSpaceOnUse" x="36" y="12" width="9" height="10">
<path d="M40.533 21.1437L39.0144 20.2704L36.8351 19.0097V14.7415L40.533 12.6074L44.2234 14.7415V19.0097L42.0441 20.2704L40.533 21.1437Z" fill="white"/>
</mask>
<g mask="url(#mask0_480_5890)">
<path d="M44.2234 17.4756L40.7077 12.6074H44.2234V17.4756Z" fill="#F5C86F"/>
<path d="M44.2233 18.0452L40.2976 12.6074H40.7076L44.2233 17.4756V18.0452Z" fill="#F5C86F"/>
<path d="M44.2234 18.6147L39.88 12.6074H40.2976L44.2234 18.0452V18.6147Z" fill="#F5C86F"/>
<path d="M44.2234 19.1919L39.47 12.6074H39.88L44.2234 18.6147V19.1919Z" fill="#F5C86F"/>
<path d="M44.2234 19.7615L39.0524 12.6074H39.47L44.2234 19.1919V19.7615Z" fill="#F5C86F"/>
<path d="M44.2234 20.3311L38.6423 12.6074H39.0523L44.2234 19.7615V20.3311Z" fill="#F5C86F"/>
<path d="M44.2234 20.6577L44.1095 20.7412L38.2247 12.6074H38.6423L44.2234 20.3311V20.6577Z" fill="#F5C86F"/>
<path d="M44.1095 20.7412L43.8361 20.9387L37.8146 12.6074H38.2247L44.1095 20.7412Z" fill="#F5C86F"/>
<path d="M43.8361 20.9387L43.5627 21.1362L37.4349 12.6606L37.5033 12.6074H37.8146L43.8361 20.9387Z" fill="#F5C86F"/>
<path d="M43.5627 21.1357L43.5551 21.1433H43.1603L37.1616 12.85L37.4349 12.6602L43.5627 21.1357Z" fill="#F5C86F"/>
<path d="M42.7427 21.1449L36.8958 13.049L37.1616 12.8516L43.1603 21.1449H42.7427Z" fill="#F5C86F"/>
<path d="M42.3326 21.1427L36.8351 13.5329V13.0924L36.8958 13.0469L42.7427 21.1427H42.3326Z" fill="#F5C86F"/>
<path d="M41.9226 21.1449L36.8351 14.1123V13.5352L42.3326 21.1449H41.9226Z" fill="#F5C86F"/>
<path d="M41.505 21.1439L36.8351 14.6809V14.1113L41.9226 21.1439H41.505Z" fill="#F5C86F"/>
<path d="M41.0949 21.1427L36.8351 15.2493V14.6797L41.505 21.1427H41.0949Z" fill="#F5C86F"/>
<path d="M40.6773 21.1434L36.8351 15.8272V15.25L41.0949 21.1434H40.6773Z" fill="#F5C86F"/>
<path d="M40.2673 21.1443L36.8351 16.3977V15.8281L40.6773 21.1443H40.2673Z" fill="#F5C86F"/>
<path d="M39.8496 21.1451L36.8351 16.968V16.3984L40.2673 21.1451H39.8496Z" fill="#F5C86F"/>
<path d="M39.4396 21.1438L36.8351 17.5364V16.9668L39.8496 21.1438H39.4396Z" fill="#F5C86F"/>
<path d="M39.022 21.1445L36.8351 18.1143V17.5371L39.4396 21.1445H39.022Z" fill="#F5C86F"/>
<path d="M38.6119 21.1435L36.8351 18.6829V18.1133L39.022 21.1435H38.6119Z" fill="#F5C86F"/>
<path d="M38.2019 21.1442L36.8351 19.2532V18.6836L38.6119 21.1442H38.2019Z" fill="#F5C86F"/>
<path d="M37.7842 21.145L36.8351 19.8311V19.2539L38.2019 21.145H37.7842Z" fill="#F5C86F"/>
<path d="M37.3742 21.1439L36.8351 20.3997V19.8301L37.7842 21.1439H37.3742Z" fill="#F5C86F"/>
<path d="M36.9566 21.1427L36.8351 20.968V20.3984L37.3742 21.1427H36.9566Z" fill="#F5C86F"/>
<path d="M36.8351 20.9688L36.9566 21.1434H36.8351V20.9688Z" fill="#F5C86F"/>
</g>
<path d="M50.4575 11.1413V22.6091L44.5955 25.9963L40.5255 28.3354L36.463 25.9963L30.601 22.6091V11.1413L40.5255 5.41495L44.2234 7.54903V13.5336L40.5255 11.3919L35.7796 14.1335V19.6168L38.5816 21.2421L40.5255 22.3661L42.4693 21.2421L45.2789 19.6168V15.7664H45.2713V2.84038L50.4575 0V11.1413Z" fill="#F5C86F"/>
<path d="M65.1657 0V22.6091H59.9871V14.1715H52.3482V8.98441H59.9871V2.84038L65.1657 0Z" fill="#F5C86F"/>
<mask id="mask1_480_5890" style="mask-type:luminance" maskUnits="userSpaceOnUse" x="26" y="22" width="9" height="10">
<path d="M30.5023 31.4717L28.9913 30.5983L26.8044 29.3376V25.0618L30.5023 22.9277L34.2003 25.0618V29.3376L32.021 30.5983L30.5023 31.4717Z" fill="white"/>
</mask>
<g mask="url(#mask1_480_5890)">
<path d="M34.2003 23.0492L34.1168 22.9277H34.2003V23.0492Z" fill="#F5C86F"/>
<path d="M34.2003 23.6188L33.6991 22.9277H34.1167L34.2003 23.0492V23.6188Z" fill="#F5C86F"/>
<path d="M34.2003 24.196L33.2891 22.9277H33.6991L34.2003 23.6188V24.196Z" fill="#F5C86F"/>
<path d="M34.2003 24.7656L32.8715 22.9277H33.2891L34.2003 24.196V24.7656Z" fill="#F5C86F"/>
<path d="M34.2003 25.3352L32.4614 22.9277H32.8715L34.2003 24.7656V25.3352Z" fill="#F5C86F"/>
<path d="M34.2003 25.9124L32.0514 22.9277H32.4614L34.2003 25.3352V25.9124Z" fill="#F5C86F"/>
<path d="M34.2003 26.482L31.6337 22.9277H32.0514L34.2003 25.9124V26.482Z" fill="#F5C86F"/>
<path d="M34.2003 27.0516L31.2237 22.9277H31.6337L34.2003 26.482V27.0516Z" fill="#F5C86F"/>
<path d="M34.2003 27.6288L30.8061 22.9277H31.2237L34.2003 27.0516V27.6288Z" fill="#F5C86F"/>
<path d="M34.2002 28.1984L30.396 22.9277H30.806L34.2002 27.6288V28.1984Z" fill="#F5C86F"/>
<path d="M34.2003 28.768L29.9784 22.9277H30.396L34.2003 28.1984V28.768Z" fill="#F5C86F"/>
<path d="M34.2003 29.3452L29.5684 22.9277H29.9784L34.2003 28.768V29.3452Z" fill="#F5C86F"/>
<path d="M34.2002 29.9148L29.1507 22.9277H29.5683L34.2002 29.3452V29.9148Z" fill="#F5C86F"/>
<path d="M34.2003 30.4844L28.7407 22.9277H29.1508L34.2003 29.9148V30.4844Z" fill="#F5C86F"/>
<path d="M34.2003 30.9856L34.1623 31.0084L28.3231 22.9277H28.7407L34.2003 30.4844V30.9856Z" fill="#F5C86F"/>
<path d="M34.1623 31.0084L33.8965 31.2058L27.913 22.9277H28.3231L34.1623 31.0084Z" fill="#F5C86F"/>
<path d="M33.8965 31.2058L33.6232 31.4033L27.503 22.9277H27.913L33.8965 31.2058Z" fill="#F5C86F"/>
<path d="M33.6232 31.4033L33.5245 31.4717H33.2587L27.222 23.1176L27.4802 22.9277H27.503L33.6232 31.4033Z" fill="#F5C86F"/>
<path d="M32.8487 31.4712L26.9487 23.3146L27.222 23.1172L33.2587 31.4712H32.8487Z" fill="#F5C86F"/>
<path d="M32.431 31.471L26.8044 23.6866V23.4208L26.9487 23.3145L32.8486 31.471H32.431Z" fill="#F5C86F"/>
<path d="M32.021 31.472L26.8044 24.2571V23.6875L32.431 31.472H32.021Z" fill="#F5C86F"/>
<path d="M31.6033 31.4727L26.8044 24.835V24.2578L32.021 31.4727H31.6033Z" fill="#F5C86F"/>
<path d="M31.1933 31.4717L26.8044 25.4036V24.834L31.6033 31.4717H31.1933Z" fill="#F5C86F"/>
<path d="M30.7757 31.4724L26.8044 25.9739V25.4043L31.1933 31.4724H30.7757Z" fill="#F5C86F"/>
<path d="M30.3656 31.4711L26.8044 26.5498V25.9727L30.7757 31.4711H30.3656Z" fill="#F5C86F"/>
<path d="M29.948 31.4701L26.8044 27.1184V26.5488L30.3656 31.4701H29.948Z" fill="#F5C86F"/>
<path d="M29.538 31.4708L26.8044 27.6887V27.1191L29.948 31.4708H29.538Z" fill="#F5C86F"/>
<path d="M29.1279 31.4716L26.8044 28.2666V27.6895L29.538 31.4716H29.1279Z" fill="#F5C86F"/>
<path d="M28.7103 31.4725L26.8044 28.8372V28.2676L29.1279 31.4725H28.7103Z" fill="#F5C86F"/>
<path d="M28.3003 31.4713L26.8044 29.4055V28.8359L28.7103 31.4713H28.3003Z" fill="#F5C86F"/>
<path d="M27.8826 31.472L26.8044 29.9834V29.4062L28.3003 31.472H27.8826Z" fill="#F5C86F"/>
<path d="M27.4726 31.471L26.8044 30.552V29.9824L27.8826 31.471H27.4726Z" fill="#F5C86F"/>
<path d="M27.055 31.4717L26.8044 31.1223V30.5527L27.4726 31.4717H27.055Z" fill="#F5C86F"/>
<path d="M26.8044 31.1211L27.055 31.4704H26.8044V31.1211Z" fill="#F5C86F"/>
</g>
<mask id="mask2_480_5890" style="mask-type:luminance" maskUnits="userSpaceOnUse" x="19" y="23" width="8" height="9">
<path d="M22.7951 31.5537L21.284 30.6727L19.0972 29.4196V25.1438L22.7951 23.0098L26.493 25.1438V29.4196L24.3138 30.6727L22.7951 31.5537Z" fill="white"/>
</mask>
<g mask="url(#mask2_480_5890)">
<path d="M26.493 23.2832L26.2956 23.0098H26.493V23.2832Z" fill="#F5C86F"/>
<path d="M26.4931 23.8528L25.8856 23.0098H26.2957L26.4931 23.2832V23.8528Z" fill="#F5C86F"/>
<path d="M26.493 24.4224L25.4755 23.0098H25.8856L26.493 23.8528V24.4224Z" fill="#F5C86F"/>
<path d="M26.4931 24.9995L25.0579 23.0098H25.4756L26.4931 24.4224V24.9995Z" fill="#F5C86F"/>
<path d="M26.4931 25.5691L24.6479 23.0098H25.0579L26.4931 24.9995V25.5691Z" fill="#F5C86F"/>
<path d="M26.4931 26.1387L24.2303 23.0098H24.6479L26.4931 25.5691V26.1387Z" fill="#F5C86F"/>
<path d="M26.493 26.7159L23.8202 23.0098H24.2302L26.493 26.1387V26.7159Z" fill="#F5C86F"/>
<path d="M26.4931 27.2855L23.4026 23.0098H23.8202L26.4931 26.7159V27.2855Z" fill="#F5C86F"/>
<path d="M26.4931 27.8551L22.9926 23.0098H23.4026L26.4931 27.2855V27.8551Z" fill="#F5C86F"/>
<path d="M26.493 28.4323L22.5749 23.0098H22.9925L26.493 27.8551V28.4323Z" fill="#F5C86F"/>
<path d="M26.493 29.0019L22.1649 23.0098H22.5749L26.493 28.4323V29.0019Z" fill="#F5C86F"/>
<path d="M26.493 29.5715L21.7548 23.0098H22.1649L26.493 29.0019V29.5715Z" fill="#F5C86F"/>
<path d="M26.4931 30.1487L21.3372 23.0098H21.7549L26.4931 29.5715V30.1487Z" fill="#F5C86F"/>
<path d="M26.4931 30.7183L20.9272 23.0098H21.3372L26.4931 30.1487V30.7183Z" fill="#F5C86F"/>
<path d="M26.493 31.06L26.3867 31.1436L20.5095 23.0098H20.9272L26.493 30.7183V31.06Z" fill="#F5C86F"/>
<path d="M26.3867 31.1436L26.1134 31.341L20.0995 23.0098H20.5095L26.3867 31.1436Z" fill="#F5C86F"/>
<path d="M26.1134 31.341L25.8476 31.5309L19.7122 23.0553L19.773 23.0098H20.0995L26.1134 31.341Z" fill="#F5C86F"/>
<path d="M25.8476 31.5322L25.8248 31.555H25.4452L19.4465 23.2541L19.7122 23.0566L25.8476 31.5322Z" fill="#F5C86F"/>
<path d="M25.0275 31.5548L19.1731 23.4514L19.4465 23.2539L25.4452 31.5548H25.0275Z" fill="#F5C86F"/>
<path d="M24.6175 31.5527L19.0972 23.9201V23.4948L19.1731 23.4492L25.0275 31.5527H24.6175Z" fill="#F5C86F"/>
<path d="M24.1999 31.5544L19.0972 24.4915V23.9219L24.6175 31.5544H24.1999Z" fill="#F5C86F"/>
<path d="M23.7898 31.5552L19.0972 25.0618V24.4922L24.1999 31.5552H23.7898Z" fill="#F5C86F"/>
<path d="M23.3798 31.552L19.0972 25.6358V25.0586L23.7898 31.552H23.3798Z" fill="#F5C86F"/>
<path d="M22.9622 31.5529L19.0972 26.2063V25.6367L23.3798 31.5529H22.9622Z" fill="#F5C86F"/>
<path d="M22.5521 31.5536L19.0972 26.7766V26.207L22.9622 31.5536H22.5521Z" fill="#F5C86F"/>
<path d="M22.1345 31.5543L19.0972 27.3545V26.7773L22.5521 31.5543H22.1345Z" fill="#F5C86F"/>
<path d="M21.7245 31.5533L19.0972 27.9231V27.3535L22.1345 31.5533H21.7245Z" fill="#F5C86F"/>
<path d="M21.3068 31.5521L19.0972 28.4915V27.9219L21.7245 31.5521H21.3068Z" fill="#F5C86F"/>
<path d="M19.0972 28.4922L21.3068 31.5528H19.0972V28.4922Z" fill="#F5C86F"/>
</g>
<mask id="mask3_480_5890" style="mask-type:luminance" maskUnits="userSpaceOnUse" x="22" y="16" width="9" height="9">
<path d="M26.5842 24.8273L25.0731 23.954L22.8862 22.6933V18.4251L26.5842 16.291L30.2821 18.4251V22.6933L28.1028 23.954L26.5842 24.8273Z" fill="white"/>
</mask>
<g mask="url(#mask3_480_5890)">
<path d="M30.2821 16.4885L30.1378 16.291H30.2821V16.4885Z" fill="#F5C86F"/>
<path d="M30.2821 17.0581L29.7278 16.291H30.1378L30.2821 16.4885V17.0581Z" fill="#F5C86F"/>
<path d="M30.282 17.6277L29.3177 16.291H29.7277L30.282 17.0581V17.6277Z" fill="#F5C86F"/>
<path d="M30.2821 18.2049L28.9001 16.291H29.3177L30.2821 17.6277V18.2049Z" fill="#F5C86F"/>
<path d="M30.2821 18.7744L28.4901 16.291H28.9001L30.2821 18.2049V18.7744Z" fill="#F5C86F"/>
<path d="M30.2821 19.344L28.0724 16.291H28.4901L30.2821 18.7744V19.344Z" fill="#F5C86F"/>
<path d="M30.282 19.9212L27.6624 16.291H28.0724L30.282 19.344V19.9212Z" fill="#F5C86F"/>
<path d="M30.2821 20.4908L27.2448 16.291H27.6624L30.2821 19.9212V20.4908Z" fill="#F5C86F"/>
<path d="M30.2821 21.0604L26.8347 16.291H27.2448L30.2821 20.4908V21.0604Z" fill="#F5C86F"/>
<path d="M30.2821 21.6376L26.4171 16.291H26.8347L30.2821 21.0604V21.6376Z" fill="#F5C86F"/>
<path d="M30.2821 22.2072L26.0071 16.291H26.4171L30.2821 21.6376V22.2072Z" fill="#F5C86F"/>
<path d="M30.2821 22.7768L25.597 16.291H26.007L30.2821 22.2072V22.7768Z" fill="#F5C86F"/>
<path d="M30.2821 23.3464L25.1794 16.291H25.597L30.2821 22.7768V23.3464Z" fill="#F5C86F"/>
<path d="M30.2821 23.9236L24.7693 16.291H25.1794L30.2821 23.3464V23.9236Z" fill="#F5C86F"/>
<path d="M30.2821 24.3413L30.2137 24.3944L24.3517 16.291H24.7693L30.2821 23.9236V24.3413Z" fill="#F5C86F"/>
<path d="M30.2137 24.3944L29.9404 24.5919L23.9417 16.291H24.3517L30.2137 24.3944Z" fill="#F5C86F"/>
<path d="M29.9404 24.5919L29.667 24.7894L23.5392 16.3062L23.562 16.291H23.9417L29.9404 24.5919Z" fill="#F5C86F"/>
<path d="M29.667 24.7898L29.6063 24.8278H29.2874L23.2659 16.5041L23.5392 16.3066L29.667 24.7898Z" fill="#F5C86F"/>
<path d="M28.8697 24.8276L22.9925 16.7014L23.2659 16.5039L29.2873 24.8276H28.8697Z" fill="#F5C86F"/>
<path d="M28.4597 24.8274L22.8862 17.1265V16.7771L22.9925 16.7012L28.8698 24.8274H28.4597Z" fill="#F5C86F"/>
<path d="M28.0421 24.8279L22.8862 17.6965V17.127L28.4597 24.8279H28.0421Z" fill="#F5C86F"/>
<path d="M27.632 24.8286L22.8862 18.2669V17.6973L28.0421 24.8286H27.632Z" fill="#F5C86F"/>
<path d="M27.2144 24.8274L22.8862 18.8428V18.2656L27.632 24.8274H27.2144Z" fill="#F5C86F"/>
<path d="M26.8044 24.8283L22.8862 19.4133V18.8438L27.2144 24.8283H26.8044Z" fill="#F5C86F"/>
<path d="M26.3943 24.8271L22.8862 19.9817V19.4121L26.8044 24.8271H26.3943Z" fill="#F5C86F"/>
<path d="M25.9767 24.8278L22.8862 20.5596V19.9824L26.3943 24.8278H25.9767Z" fill="#F5C86F"/>
<path d="M25.5667 24.8268L22.8862 21.1282V20.5586L25.9767 24.8268H25.5667Z" fill="#F5C86F"/>
<path d="M25.149 24.8275L22.8862 21.6985V21.1289L25.5667 24.8275H25.149Z" fill="#F5C86F"/>
<path d="M24.739 24.8282L22.8862 22.2764V21.6992L25.149 24.8282H24.739Z" fill="#F5C86F"/>
<path d="M24.3214 24.8291L22.8862 22.8469V22.2773L24.739 24.8291H24.3214Z" fill="#F5C86F"/>
<path d="M23.9113 24.8279L22.8862 23.4153V22.8457L24.3214 24.8279H23.9113Z" fill="#F5C86F"/>
<path d="M23.4937 24.8267L22.8862 23.9837V23.4141L23.9113 24.8267H23.4937Z" fill="#F5C86F"/>
<path d="M23.0837 24.8274L22.8862 24.5616V23.9844L23.4937 24.8274H23.0837Z" fill="#F5C86F"/>
<path d="M22.8862 24.5625L23.0837 24.8283H22.8862V24.5625Z" fill="#F5C86F"/>
</g>
</svg>
