<svg width="20" height="10" viewBox="0 0 20 10" fill="none" xmlns="http://www.w3.org/2000/svg">
<path d="M18.7501 9.99338C18.4186 9.99377 18.1008 9.86007 17.8673 9.62192L11.4758 3.14738C10.6624 2.32338 9.34421 2.32298 8.53088 3.14698L2.14834 9.61362C1.66885 10.1164 0.877764 10.1303 0.381483 9.64487C-0.114798 9.15909 -0.128464 8.35763 0.350637 7.85484C0.360788 7.84416 0.370939 7.83388 0.381483 7.82359L6.76324 1.35775C8.55352 -0.452446 11.4523 -0.452446 13.2422 1.35775L19.6337 7.8323C20.1218 8.32638 20.1222 9.12784 19.6341 9.62232C19.3999 9.86007 19.0816 9.99338 18.7501 9.99338Z" fill="#323232"/>
</svg>
