<svg width="335" height="312" viewBox="0 0 335 312" fill="none" xmlns="http://www.w3.org/2000/svg">
<g clip-path="url(#clip0_40000910_21194)">
<path d="M45.1495 60.7049C76.8661 53.5022 81.3383 63.7001 133.198 30.2894C226.04 -29.5433 303.373 2.90471 304.589 95.952C305.376 155.963 370.938 183.312 304.661 245.427C261.781 285.595 270.082 329.542 179.708 304.885C150.621 296.951 134.003 281.351 87.5635 289.16C6.65305 302.763 41.8043 226.582 14.4883 171.51C-12.148 117.792 -2.13029 71.4378 45.1495 60.7049Z" fill="#EEF4FF"/>
<path d="M225.038 27.7788H96.2398C87.367 27.7788 80.1758 34.3576 80.1758 42.4874V285.865C80.1758 293.995 87.367 300.574 96.2398 300.574H225.038C233.911 300.574 241.102 293.995 241.102 285.865V42.4874C241.102 34.3754 233.911 27.7788 225.038 27.7788ZM228.741 268.393H92.5369V59.9594H228.741V268.393Z" fill="#E1E6EF"/>
<path d="M80.1758 42.4821V285.86C80.1758 292.795 85.4529 298.607 92.5369 300.141V28.1836C85.435 29.7169 80.1758 35.5468 80.1758 42.4821Z" fill="#D4DAE8"/>
<path d="M228.744 28.1836V300.141C235.846 298.607 241.105 292.777 241.105 285.86V42.4821C241.105 35.5468 235.828 29.7169 228.744 28.1836Z" fill="#D4DAE8"/>
<g opacity="0.9">
<path d="M113.611 36.4434C113.611 39.4742 111.053 41.9524 107.886 41.9524C104.738 41.9524 102.162 39.492 102.162 36.4434C102.162 33.4125 104.72 30.9343 107.886 30.9343C111.053 30.9343 113.611 33.3947 113.611 36.4434Z" fill="#404459"/>
<path d="M111.017 36.4415C111.017 38.0996 109.622 39.4545 107.886 39.4545C106.169 39.4545 104.756 38.1174 104.756 36.4415C104.756 34.7834 106.151 33.4285 107.886 33.4285C109.622 33.4285 111.017 34.7834 111.017 36.4415Z" fill="#2F2F38"/>
<path d="M129.816 36.4409C129.816 37.885 128.6 39.0438 127.115 39.0438C125.63 39.0438 124.414 37.885 124.414 36.4409C124.414 34.9967 125.63 33.8379 127.115 33.8379C128.6 33.8379 129.816 34.9967 129.816 36.4409Z" fill="#404459"/>
<path d="M146.062 36.4409C146.062 37.885 144.845 39.0438 143.36 39.0438C141.876 39.0438 140.659 37.885 140.659 36.4409C140.659 34.9967 141.876 33.8379 143.36 33.8379C144.845 33.8379 146.062 34.9967 146.062 36.4409Z" fill="#404459"/>
</g>
<path d="M233.393 51.7385V276.592C233.393 280.265 230.406 283.243 226.72 283.243H94.5768C90.8917 283.243 87.9043 280.265 87.9043 276.592V51.7385C87.9043 48.0837 90.8917 45.0885 94.5768 45.0885H226.72C230.406 45.0706 233.393 48.0837 233.393 51.7385Z" fill="#627CF9"/>
<path opacity="0.3" d="M225.486 126.742V256.249C225.486 262.542 220.37 267.623 214.091 267.623H87.9043V115.35H214.091C220.37 115.35 225.486 120.449 225.486 126.742Z" fill="white"/>
<path opacity="0.3" d="M233.411 158.067H162.286H148.226V72.6686C148.226 66.3751 153.342 61.2939 159.639 61.2939H184.683H233.394V158.067H233.411Z" fill="white"/>
<g opacity="0.05">
<path d="M233.392 51.7394V276.593C233.392 280.266 230.405 283.243 226.72 283.243H132.947L188.331 45.0715H226.72C230.405 45.0894 233.392 48.0667 233.392 51.7394Z" fill="#5671F5"/>
</g>
<path d="M248.492 251.077H115.884C111.197 251.077 107.404 247.297 107.404 242.626V61.6661C107.404 56.995 111.197 53.2153 115.884 53.2153H248.492C253.179 53.2153 256.972 56.995 256.972 61.6661V242.608C256.972 247.297 253.179 251.077 248.492 251.077Z" fill="white"/>
<path d="M236.525 172.168H127.851C125.49 172.168 123.594 170.261 123.594 167.925C123.594 165.572 125.508 163.682 127.851 163.682H236.543C238.904 163.682 240.8 165.59 240.8 167.925C240.782 170.278 238.886 172.168 236.525 172.168Z" fill="#D1DDF2"/>
<path d="M236.525 155.498H127.851C125.49 155.498 123.594 153.59 123.594 151.254C123.594 148.901 125.508 147.011 127.851 147.011H236.543C238.904 147.011 240.8 148.919 240.8 151.254C240.782 153.608 238.886 155.498 236.525 155.498Z" fill="#D1DDF2"/>
<path d="M236.525 188.839H127.851C125.49 188.839 123.594 186.932 123.594 184.596C123.594 182.243 125.508 180.353 127.851 180.353H236.543C238.904 180.353 240.8 182.26 240.8 184.596C240.782 186.949 238.886 188.839 236.525 188.839Z" fill="#D1DDF2"/>
<path d="M217.509 205.505H127.851C125.49 205.505 123.594 203.598 123.594 201.262C123.594 198.909 125.508 197.019 127.851 197.019H217.527C219.888 197.019 221.785 198.927 221.785 201.262C221.767 203.616 219.871 205.505 217.509 205.505Z" fill="#D1DDF2"/>
<path d="M215.003 68.8674C200.692 68.8674 189.082 80.4204 189.082 94.701C189.082 108.982 200.674 120.552 215.003 120.552C229.332 120.552 240.941 108.982 240.941 94.701C240.941 80.4204 229.332 68.8674 215.003 68.8674ZM232.247 99.3365H219.654V111.888H210.352V99.3365H197.758V90.0656H210.352V77.5143H219.654V90.0656H232.247V99.3365Z" fill="#F56990"/>
<path d="M187.132 126.044C182.016 124.885 174.843 123.263 171.444 122.496L171.301 116.024C174.574 112.565 177.276 107.93 178.385 102.653C179.118 101.815 179.744 100.87 180.209 99.8536C180.442 99.3722 180.621 98.873 180.764 98.356C180.979 97.5894 181.086 96.8584 181.086 96.1453C181.086 93.3284 180.853 91.9377 179.279 91.8664C179.279 91.8664 179.011 88.9069 179.064 83.6296C179.118 77.4431 174.396 73.3069 168.832 72.2906L167.419 72.0232C164.736 71.524 162.017 71.2744 159.28 71.2566C156.561 71.2744 153.841 71.524 151.14 72.0232L149.727 72.2906C144.182 73.3069 139.441 77.4431 139.495 83.6296C139.548 88.9069 139.28 91.8664 139.28 91.8664C137.724 91.9199 137.473 93.3105 137.473 96.1453C137.473 96.8584 137.581 97.6072 137.795 98.356C137.938 98.873 138.135 99.3722 138.35 99.8536C138.815 100.852 139.441 101.797 140.174 102.653C141.284 107.894 143.967 112.512 147.205 115.971L147.062 122.514C143.734 123.227 136.865 124.707 131.445 126.079C125.059 127.702 123.109 132.926 123.627 137.882H194.878C195.343 132.819 193.071 127.399 187.132 126.044Z" fill="#D1DDF2"/>
<path d="M203.073 237.92H161.285C155.739 237.92 151.231 233.428 151.231 227.901C151.231 222.374 155.739 217.881 161.285 217.881H203.073C208.618 217.881 213.126 222.374 213.126 227.901C213.126 233.428 208.636 237.92 203.073 237.92Z" fill="#627CF9"/>
</g>
<defs>
<clipPath id="clip0_40000910_21194">
<rect width="334.286" height="312" fill="white"/>
</clipPath>
</defs>
</svg>
