<svg width="570" height="388" viewBox="0 0 570 388" fill="none" xmlns="http://www.w3.org/2000/svg">
<path d="M85.4238 118.65C100.681 138.097 120.728 148.449 132.967 144.07C134.474 143.57 135.871 142.81 137.096 141.834C148.531 132.829 143.921 107.854 126.8 86.0456C109.679 64.2373 86.5418 53.8661 75.1077 62.8712C73.8826 63.8469 72.8197 65.0188 71.9764 66.3571C64.8511 77.2482 70.1708 99.1875 85.4285 118.635L85.4238 118.65Z" stroke="#0D257B" stroke-miterlimit="10"/>
<path d="M89.4121 115.515C101.739 131.218 117.926 139.585 127.811 136.048C129.029 135.649 130.157 135.028 131.143 134.249C140.371 126.984 136.655 106.809 122.834 89.2C109.012 71.5915 90.3255 63.2157 81.0832 70.4762C80.0973 71.2549 79.2298 72.216 78.5477 73.3003C72.7972 82.0903 77.0852 99.8127 89.4121 115.515Z" fill="#42C588" stroke="#0D257B" stroke-miterlimit="10"/>
<path d="M78.1457 124.397C95.2667 146.206 118.38 156.601 129.814 147.596C131.058 146.611 132.102 145.449 132.969 144.086C120.734 148.45 100.688 138.098 85.4254 118.665C70.1678 99.2176 64.848 77.2782 71.9734 66.3872C70.4473 66.8975 69.0693 67.6478 67.825 68.6335C56.391 77.6385 61.0247 102.589 78.1457 124.397Z" fill="#0D257B" stroke="#0D257B" stroke-miterlimit="10"/>
<path d="M136.172 142.531L129.203 148.041" stroke="#0D257B" stroke-miterlimit="10"/>
<path d="M74.9988 62.9997C74.9988 62.9997 71.9993 65 71.4988 65.4993C70.9984 65.9985 67.4993 68.5 66.9988 69.4993C66.4984 70.4985 68.4988 69.504 68.4988 69.504L71.9988 66.004L74.9988 62.9997Z" fill="#0D257B" stroke="#0D257B" stroke-width="0.75" stroke-miterlimit="10"/>
<path d="M133 149.028C133 149.028 138.732 155.994 147.033 166.053C147.278 166.053 147.583 166.053 147.935 166.068C147.981 166.068 148.011 166.068 148.057 166.068C148.424 166.068 148.822 166.068 149.25 166.099C150.488 166.13 153.194 166.221 153.224 166.221C153.163 166.145 153.102 166.068 153.041 165.992C150.595 162.823 150.977 159.577 153.209 157.127C153.561 156.729 153.958 156.361 154.401 156.025L138.09 142L138.014 142.092C136.642 143.032 135.872 143.56 134.5 144.5C133.128 145.44 131 146.5 131 146.5L133 148.997V149.028Z" fill="#EAC14B" stroke="#0D257B" stroke-width="2" stroke-miterlimit="10" stroke-linejoin="round"/>
<path d="M363.843 379.013C450.854 379.013 521.39 308.367 521.39 221.221C521.39 134.075 450.854 63.4297 363.843 63.4297C276.833 63.4297 206.297 134.075 206.297 221.221C206.297 308.367 276.833 379.013 363.843 379.013Z" fill="#0D257B"/>
<path d="M126.924 174.508H128.407C126.007 175.595 124.325 177.999 124.325 180.8C124.325 184.613 127.428 187.721 131.235 187.721H135.974C133.864 188.594 132.351 190.676 132.351 193.095C132.351 196.279 134.965 198.898 138.144 198.898H142.165C140.728 198.898 139.413 199.495 138.465 200.444C137.518 201.393 136.921 202.71 136.921 204.149C136.921 207.043 139.276 209.416 142.165 209.416H180.825L192.581 227.544L193.529 226.12L213.723 195.835L214.074 195.315L200.194 174.339C200.026 174.033 199.827 173.757 199.628 173.482L199.552 173.375C198.833 172.456 197.947 171.675 196.861 171.109L159.041 151.113C157.803 150.455 156.473 150.148 155.143 150.148C152.132 150.148 149.197 151.771 147.699 154.634C147.179 155.599 146.888 156.64 146.781 157.681H126.924C122.307 157.681 118.531 161.463 118.531 166.087C118.531 170.711 122.307 174.508 126.924 174.508Z" fill="white" stroke="#0D257B" stroke-width="3" stroke-linecap="round" stroke-linejoin="round"/>
<path d="M160.723 174.506H126.924C122.307 174.506 118.531 170.725 118.531 166.101C118.531 161.477 122.307 157.695 126.924 157.695H146.781" stroke="#0D257B" stroke-width="3" stroke-linecap="round" stroke-linejoin="round"/>
<path d="M146.766 157.807C146.857 156.735 147.163 155.648 147.698 154.638C149.854 150.55 154.959 148.973 159.041 151.132L196.861 171.127" stroke="#002068" stroke-linecap="round" stroke-linejoin="round"/>
<path d="M168.003 187.721H131.238C127.431 187.721 124.328 184.598 124.328 180.8C124.328 176.988 126.667 174.508 130.473 174.508" stroke="#0D257B" stroke-width="3" stroke-linecap="round" stroke-linejoin="round"/>
<path d="M160.724 198.896H138.161C134.981 198.896 132.367 196.277 132.367 193.093C132.367 189.908 134.997 187.719 136.923 187.719" stroke="#0D257B" stroke-width="3" stroke-linecap="round" stroke-linejoin="round"/>
<path d="M180.826 209.417H142.181C139.292 209.417 136.938 207.044 136.938 204.166C136.938 201.272 139.307 198.914 142.181 198.914" stroke="#002068" stroke-linecap="round" stroke-linejoin="round"/>
<g opacity="0.24">
<path d="M288.234 240.377C293.6 222.938 310.003 210.781 328.301 210.781C349.718 210.781 367.971 227.409 370.004 248.69L330.762 285.344L288.234 240.361V240.377Z" fill="white"/>
<path d="M328.282 211.546C338.631 211.546 348.537 215.42 356.135 222.432C363.518 229.245 368.135 238.447 369.174 248.384L330.774 284.272L289.071 240.162C294.467 223.259 310.457 211.531 328.267 211.531M328.267 210C308.914 210 292.572 222.876 287.344 240.56L330.697 286.415L370.764 248.981C368.869 227.133 350.555 210 328.267 210Z" fill="#002068"/>
</g>
<path d="M400.886 220.875L370.786 249.001L330.719 286.435" stroke="#EAC14B" stroke-width="3" stroke-linecap="round" stroke-linejoin="round"/>
<path d="M269.613 221.788L248.318 199.481L244.986 198.424L241.944 199.159L240.996 199.787L227.635 186.773L224.685 185.548L221.887 185.227L217.164 186.314L215.253 187.462L185.856 231.618L184.969 234.022L184.648 236.318L184.771 238.707L185.474 241.953L186.926 245.566L188.761 248.75L191.986 252.9L195.67 257.554L196.052 258.044L196.496 258.105L195.074 260.019L194.753 261.244L194.463 263.234L194.906 264.75L195.701 266.281L200.47 271.931L212.792 286.43L242.922 321.844L269.613 221.788Z" fill="#0D257B"/>
<path d="M26.0008 247.51C26.0008 247.51 25.2408 188.24 70.9708 191.1" stroke="#EAC14B" stroke-width="3" stroke-miterlimit="10" stroke-linecap="round" stroke-linejoin="round" stroke-dasharray="9 12"/>
<path d="M358.689 167.021C348.997 167.021 341.109 159.12 341.109 149.414V130.413C343.922 131.301 346.98 131.929 350.22 132.296C351.764 132.465 353.339 132.557 354.883 132.557C363.887 132.557 372.661 129.77 381.008 124.273V149.429C381.008 159.136 373.12 167.036 363.428 167.036H358.689V167.021Z" fill="white"/>
<mask id="path-20-outside-1_9593_19098" maskUnits="userSpaceOnUse" x="339.344" y="121.805" width="43" height="47" fill="black">
<rect fill="white" x="339.344" y="121.805" width="43" height="47"/>
<path d="M380.242 125.668V149.415C380.242 158.708 372.706 166.256 363.427 166.256H358.688C349.409 166.256 341.872 158.708 341.872 149.415V131.44C344.456 132.19 347.223 132.726 350.127 133.048C351.702 133.216 353.307 133.308 354.882 133.308C363.61 133.308 372.125 130.736 380.242 125.652M381.771 122.805C374.617 127.765 365.475 131.761 354.882 131.761C353.383 131.761 351.855 131.685 350.295 131.516C346.673 131.118 343.355 130.383 340.344 129.342V149.399C340.344 159.504 348.599 167.772 358.688 167.772H363.427C373.516 167.772 381.771 159.504 381.771 149.399V122.805Z"/>
</mask>
<path d="M380.242 125.668V149.415C380.242 158.708 372.706 166.256 363.427 166.256H358.688C349.409 166.256 341.872 158.708 341.872 149.415V131.44C344.456 132.19 347.223 132.726 350.127 133.048C351.702 133.216 353.307 133.308 354.882 133.308C363.61 133.308 372.125 130.736 380.242 125.652M381.771 122.805C374.617 127.765 365.475 131.761 354.882 131.761C353.383 131.761 351.855 131.685 350.295 131.516C346.673 131.118 343.355 130.383 340.344 129.342V149.399C340.344 159.504 348.599 167.772 358.688 167.772H363.427C373.516 167.772 381.771 159.504 381.771 149.399V122.805Z" fill="#0D257B"/>
<path d="M341.872 131.44L342.012 130.96L341.372 130.774V131.44H341.872ZM350.127 133.048L350.072 133.544L350.074 133.545L350.127 133.048ZM381.771 122.805H382.271V121.85L381.486 122.394L381.771 122.805ZM350.295 131.516L350.241 132.013L350.242 132.014L350.295 131.516ZM340.344 129.342L340.507 128.87L339.844 128.64V129.342H340.344ZM379.742 125.668V149.415H380.742V125.668H379.742ZM379.742 149.415C379.742 158.433 372.429 165.756 363.427 165.756V166.756C372.983 166.756 380.742 158.984 380.742 149.415H379.742ZM363.427 165.756H358.688V166.756H363.427V165.756ZM358.688 165.756C349.686 165.756 342.372 158.433 342.372 149.415H341.372C341.372 158.984 349.132 166.756 358.688 166.756V165.756ZM342.372 149.415V131.44H341.372V149.415H342.372ZM341.733 131.92C344.347 132.679 347.142 133.22 350.072 133.544L350.182 132.551C347.303 132.232 344.565 131.701 342.012 130.96L341.733 131.92ZM350.074 133.545C351.665 133.715 353.288 133.808 354.882 133.808V132.808C353.326 132.808 351.739 132.717 350.181 132.55L350.074 133.545ZM354.882 133.808C363.713 133.808 372.319 131.204 380.508 126.076L379.977 125.229C371.931 130.267 363.507 132.808 354.882 132.808V133.808ZM381.486 122.394C374.39 127.314 365.346 131.261 354.882 131.261V132.261C365.605 132.261 374.844 128.216 382.056 123.216L381.486 122.394ZM354.882 131.261C353.401 131.261 351.89 131.186 350.349 131.019L350.242 132.014C351.82 132.184 353.366 132.261 354.882 132.261V131.261ZM350.35 131.019C346.761 130.625 343.48 129.898 340.507 128.87L340.18 129.815C343.23 130.869 346.584 131.612 350.241 132.013L350.35 131.019ZM339.844 129.342V149.399H340.844V129.342H339.844ZM339.844 149.399C339.844 159.78 348.322 168.272 358.688 168.272V167.272C348.876 167.272 340.844 159.229 340.844 149.399H339.844ZM358.688 168.272H363.427V167.272H358.688V168.272ZM363.427 168.272C373.793 168.272 382.271 159.78 382.271 149.399H381.271C381.271 159.229 373.239 167.272 363.427 167.272V168.272ZM382.271 149.399V122.805H381.271V149.399H382.271Z" fill="#0D257B" mask="url(#path-20-outside-1_9593_19098)"/>
<path d="M356.869 131.778L340.344 149.416V129.359L344.334 130.508L348.599 131.319L352.008 131.687L354.515 131.778H356.869Z" fill="#0D257B"/>
<path d="M280.097 149.22L275.893 148.562C266.079 147.016 256.265 151.303 250.716 159.54L237.523 179.107" stroke="#EAC14B" stroke-width="3" stroke-linecap="round" stroke-linejoin="round"/>
<path d="M458.24 185.492C465.028 199.195 464.584 215.379 457.063 228.699L391.039 345.626" stroke="#EAC14B" stroke-width="3" stroke-linecap="round" stroke-linejoin="round"/>
<path d="M196.3 258.351L189.819 250.19C185.905 245.26 182.068 236.012 186.93 229.965L190.889 224.024L191.837 222.6L212.031 192.316L212.382 191.795L215.256 187.462C219.72 184.094 225.988 184.568 229.916 188.549L241.381 200.17" stroke="#EAC14B" stroke-width="3" stroke-miterlimit="10"/>
<path d="M244.303 322.783L196.057 266.761C194.162 264.541 194.085 261.295 195.843 258.983L239.946 200.894C242.254 197.848 246.749 197.603 249.378 200.389L287.381 240.595L330.735 286.45L338.195 294.335L370.786 328.815" stroke="#EAC14B" stroke-width="3" stroke-linecap="round" stroke-linejoin="round"/>
<path d="M112 281.168V285.832C112 287.244 110.848 288.396 109.436 288.396H104.402V293.431C104.402 294.843 103.244 296 101.832 296H97.1736C95.7616 296 94.6042 294.843 94.6042 293.431V288.396H89.5694C88.1574 288.396 87 287.244 87 285.832V281.168C87 279.756 88.1574 278.604 89.5694 278.604H94.6042V273.564C94.6042 272.152 95.7616 271 97.1736 271H101.832C103.244 271 104.402 272.152 104.402 273.564V278.604H109.436C110.848 278.604 112 279.756 112 281.168Z" fill="#DFE7FF"/>
<path d="M92 258.66V260.34C92 260.848 91.5854 261.262 91.0771 261.262H89.2646V263.075C89.2646 263.583 88.8479 264 88.3396 264H86.6625C86.1542 264 85.7375 263.583 85.7375 263.075V261.262H83.925C83.4167 261.262 83 260.848 83 260.34V258.66C83 258.152 83.4167 257.737 83.925 257.737H85.7375V255.923C85.7375 255.415 86.1542 255 86.6625 255H88.3396C88.8479 255 89.2646 255.415 89.2646 255.923V257.737H91.0771C91.5854 257.737 92 258.152 92 258.66Z" fill="#EEF0F8"/>
<path d="M221.688 266.547C221.688 266.547 246.024 297.658 272.272 330.836C298.535 363.999 347.193 375.222 372.294 363.999" stroke="#EAC14B" stroke-width="3" stroke-linecap="round" stroke-linejoin="round"/>
<path d="M220.617 167.898C229.193 144.182 253.515 129.622 278.753 133.664L338.464 143.524" stroke="#EAC14B" stroke-width="3" stroke-linecap="round" stroke-linejoin="round"/>
<path d="M383.547 150.445L438.931 159.31C468.114 163.98 487.834 191.631 482.789 220.782L476.491 257.145" stroke="#EAC14B" stroke-width="3" stroke-linecap="round" stroke-linejoin="round"/>
<path d="M356.188 167.608C356.233 167.915 356.31 168.221 356.386 168.527L357.67 173.534L361.935 190.146C364.504 200.159 374.685 206.191 384.682 203.619C394.68 201.047 400.703 190.835 398.135 180.822L392.586 159.203C391.072 153.324 386.96 148.838 381.778 146.633V149.419C381.778 159.524 373.523 167.792 363.433 167.792H358.695C357.838 167.792 356.998 167.731 356.188 167.608Z" fill="white"/>
<path d="M320.414 191.538C328.608 197.815 340.349 196.238 346.616 188.032L357.669 173.533L360.145 170.287C360.757 169.491 361.292 168.649 361.75 167.791H358.693C357.837 167.791 356.996 167.73 356.186 167.607C347.273 166.383 340.349 158.666 340.349 149.418V140.875C336.542 141.916 333.041 144.182 330.458 147.55L316.914 165.295C310.646 173.502 312.205 185.245 320.414 191.538Z" fill="white"/>
<path d="M330.992 49.9129C321.912 62.1002 318.059 70.2149 314.192 75.6348C310.324 81.0548 303.476 86.3676 304.729 91.2976C305.983 96.2277 312.923 95.0641 315.155 95.753C314.375 108.124 324.526 128.732 350.299 131.534C372.863 133.984 389.694 117.8 395.87 109.104C402.045 100.407 395.289 65.7901 393.943 64.4274C392.598 63.0648 341.8 45.6719 341.8 45.6719L330.992 49.9282V49.9129Z" fill="white"/>
<path d="M369.805 75.8342C370.141 76.7069 371.089 77.1663 371.991 76.9519C378.809 75.2677 387.614 75.972 388.822 84.5766C389.8 91.6195 383.945 95.9371 371.731 95.9831C370.982 95.9831 370.386 96.6261 370.447 97.361C370.508 98.0959 371.166 98.6165 371.884 98.5246L382.998 98.6777C382.998 98.6777 381.194 100.408 380.047 107.221C378.901 114.034 384.618 120.71 384.618 120.71C384.618 120.71 415.589 105.476 415.589 77.3959C415.589 40.8035 378.121 34.817 378.121 34.817C378.121 34.817 376.363 24.9569 343.542 24.7579C343.542 24.7579 340.179 15.5715 326.895 17.5006C316.393 19.0164 317.692 30.4075 317.692 30.4075C317.692 30.4075 303.062 28.6621 303.062 42.8091C303.062 56.9562 326.925 55.5476 326.925 55.5476C326.925 55.5476 353.601 54.0472 361.275 62.7436C366.595 68.776 368.888 73.4917 369.79 75.8036L369.805 75.8342Z" fill="#EAC14B"/>
<path d="M339.869 92.9531C349.042 106.105 339.487 118.675 327.609 110.453" stroke="#0D257B" stroke-width="2" stroke-linecap="round" stroke-linejoin="round"/>
<path d="M348.756 70.1206C348.756 70.1206 341.464 62.1744 330.992 63.828" stroke="#0D257B" stroke-width="2" stroke-linecap="round" stroke-linejoin="round"/>
<path d="M380.11 81.7109C375.998 82.8286 374.928 88.172 378.306 90.7748L378.963 91.2801" stroke="#0D257B" stroke-width="2" stroke-linecap="round" stroke-linejoin="round"/>
<path d="M337.411 79.0187C339.041 79.0187 340.362 77.2639 340.362 75.0992C340.362 72.9345 339.041 71.1797 337.411 71.1797C335.782 71.1797 334.461 72.9345 334.461 75.0992C334.461 77.2639 335.782 79.0187 337.411 79.0187Z" fill="#0D257B"/>
<path d="M228.555 207.279L217.258 196.516" stroke="white" stroke-linecap="round" stroke-linejoin="round"/>
<path d="M223.756 214.731L212.031 203.555" stroke="white" stroke-linecap="round" stroke-linejoin="round"/>
<path d="M218.084 221.863L206.695 211.008" stroke="white" stroke-linecap="round" stroke-linejoin="round"/>
<path d="M213.022 228.621L201.633 217.766" stroke="white" stroke-linecap="round" stroke-linejoin="round"/>
<path d="M207.334 236.824L195.945 225.969" stroke="white" stroke-linecap="round" stroke-linejoin="round"/>
<path d="M201.862 243.466L191.375 233.453" stroke="white" stroke-linecap="round" stroke-linejoin="round"/>
<path d="M521.599 34.5105L523.922 27.3758C525.115 23.7318 527.927 20.8381 531.535 19.552L538.598 17.0411L531.474 14.7139C527.836 13.5196 524.946 10.7025 523.662 7.08915L521.155 0.015625L518.832 7.15039C517.639 10.7943 514.826 13.688 511.219 14.9741L504.156 17.4851L511.28 19.8123C514.918 21.0065 517.807 23.8237 519.092 27.437L521.599 34.5105Z" fill="#DB999B"/>
<path d="M90.6284 47L92.0489 42.6528C92.7677 40.4279 94.4792 38.6822 96.687 37.8949L101 36.3716L96.6528 34.9511C94.4279 34.2323 92.6822 32.5208 91.8949 30.313L90.3716 26L88.9511 30.3472C88.2323 32.5721 86.5208 34.3178 84.313 35.1051L80 36.6284L84.3472 38.0489C86.5721 38.7677 88.3178 40.4792 89.1051 42.687L90.6284 47Z" stroke="#EAC14B" stroke-width="2" stroke-miterlimit="10" stroke-linejoin="round"/>
<path d="M563.925 284C553.117 315.525 537.12 322.394 524.554 322.394C516.268 322.394 509.252 317.54 509.252 310.359C509.252 305.506 512.875 302.459 518.516 302.459C524.156 302.459 529.018 306.731 529.018 314.784C529.018 322.838 519.02 344.38 488.981 344.38C474.78 344.38 466.632 339.633 462 334.627" stroke="#EAC14B" stroke-width="3" stroke-miterlimit="10" stroke-linecap="round" stroke-linejoin="round" stroke-dasharray="15 10"/>
</svg>
