<svg width="69" height="96" viewBox="0 0 69 96" fill="none" xmlns="http://www.w3.org/2000/svg">
<path d="M34.5122 60.2084C39.5265 60.2084 43.5913 56.1406 43.5913 51.1228C43.5913 46.1049 39.5265 42.0371 34.5122 42.0371C29.498 42.0371 25.4331 46.1049 25.4331 51.1228C25.4331 56.1406 29.498 60.2084 34.5122 60.2084Z" fill="#F5C86F"/>
<path d="M68.4094 35.9691V46.7457C68.4094 47.4372 68.053 48.0597 67.4545 48.408C67.1518 48.5847 66.8189 48.6722 66.4843 48.6722C66.1598 48.6722 65.8337 48.588 65.5361 48.4198C64.9358 48.0782 64.5626 47.4372 64.5626 46.7457V35.9691C64.5626 35.3062 64.5626 34.6803 64.4785 34.019L64.4617 33.8525L62.0658 26.4022L61.9717 26.2272C61.1092 24.7382 60.0415 23.3535 58.8007 22.1118L46.3153 9.58031C45.0627 8.3302 43.684 7.26516 42.2162 6.41548L42.0548 6.31789L34.7461 3.98086L34.5998 3.9287L34.3964 3.89842C33.7188 3.81261 33.0345 3.81261 32.4293 3.81261H16.2533C9.39352 3.81261 3.81155 9.3986 3.81155 16.2633V66.5154C3.81155 70.9791 6.23433 75.1299 10.1367 77.3475C10.9975 77.901 11.2615 79.0384 10.7352 79.9403C10.2913 80.7294 9.29096 81.0793 8.40322 80.758C5.09439 78.9274 2.51357 75.9897 1.13153 72.4883L0.986933 72.1064C0.897824 71.8624 0.812076 71.6084 0.733054 71.3493C0.692703 71.2214 0.654033 71.0952 0.617044 70.9657C0.580055 70.8344 0.544747 70.7049 0.514483 70.5921L0.422011 70.2085C0.416967 70.1867 0.411923 70.1631 0.403516 70.1278L0.33122 69.7946C0.196714 69.1418 0.10256 68.4621 0.0487582 67.7773C0.0302637 67.5114 0.0168132 67.2439 0.00504395 66.9663L0.00336263 66.7964C0.00168132 66.7156 0 66.6315 0 66.5507V16.2633C0 7.29544 7.29019 0 16.2516 0H32.4662C33.011 0 33.5591 0.0185078 34.0904 0.0555234C39.632 0.43241 44.8811 2.79468 48.8759 6.7116L48.8826 6.71833C48.9314 6.76544 48.9801 6.81256 49.0289 6.86303L62.0036 19.8841H62.0288C66.1447 24.2452 68.4094 29.9557 68.4094 35.9691Z" fill="#0D257B"/>
<path d="M61.9886 58.2681L61.9079 58.2176C61.1176 57.728 60.2719 57.3259 59.3943 57.023C58.0627 56.562 56.6672 56.3281 55.2498 56.3281C54.5134 56.3281 53.7804 56.3921 53.0708 56.5166C46.9946 57.5681 42.5845 62.8193 42.5845 69.0026C42.5845 69.6908 42.64 70.3806 42.7526 71.0536C43.1242 73.325 44.1178 75.4568 45.6277 77.2201C46.5625 78.3171 47.6705 79.2391 48.9197 79.9643L49.7587 80.4488V95.0969C49.7587 95.7548 50.3303 96.0005 50.6901 96.0005C50.9188 96.0005 51.1239 95.9113 51.3021 95.7363L55.2498 91.7857L59.2009 95.7363C59.3758 95.9113 59.5826 96.0005 59.8113 96.0005C60.1711 96.0005 60.7427 95.7548 60.7427 95.0969V80.4522L61.5817 79.966C64.798 78.1 67.0291 74.9419 67.705 71.2993C67.8463 70.5404 67.9169 69.7682 67.9169 69.0026C67.9169 64.6163 65.7009 60.6034 61.9886 58.2681ZM64.0633 69.8826C63.9809 70.7121 63.7792 71.5264 63.4664 72.3037C63.1537 73.0777 62.73 73.8062 62.2071 74.4725C61.1597 75.8034 59.7659 76.8028 58.177 77.3631C57.2388 77.6962 56.2536 77.8645 55.2498 77.8645C52.474 77.8645 49.8192 76.5252 48.148 74.2841C47.0013 72.7429 46.396 70.9156 46.396 69.0026C46.396 64.1165 50.3673 60.1407 55.2498 60.1407C56.4368 60.1407 57.5936 60.3763 58.6881 60.8407C61.9785 62.2355 64.1053 65.439 64.1053 69.0026C64.1053 69.3021 64.0919 69.5982 64.0633 69.8826Z" fill="#0D257B"/>
<path d="M56.4855 45.0563C56.1391 45.5829 55.5809 45.8891 54.9521 45.8975H54.8798C54.1115 45.8975 53.4255 45.4365 53.1262 44.7181C51.7913 41.5078 49.6005 38.6963 46.7893 36.5881C43.4856 34.1114 39.5597 32.757 35.4371 32.6729C30.2216 32.5702 25.2533 34.5152 21.4586 38.1579C17.6622 41.8022 15.5152 46.6833 15.4126 51.9041C15.3084 57.2983 17.3495 62.3712 21.1661 66.1905L24.0495 69.0121C24.0663 69.0289 24.0831 69.0474 24.1067 69.0676L24.1201 69.0794C24.1487 69.1063 24.1756 69.1315 24.1924 69.1467L35.5901 80.3103C35.9247 80.64 36.1264 81.0792 36.155 81.5503C36.192 82.0904 35.9902 82.6288 35.6086 83.0208L35.5581 83.0679C34.81 83.7695 33.6532 83.7561 32.9218 83.0393L18.486 68.901C14.0541 64.4794 11.6078 58.5956 11.5977 52.3349C11.5876 46.0742 14.0154 40.182 18.4339 35.7468C22.8507 31.3134 28.7286 28.8653 34.9865 28.8535H35.0252C41.2679 28.8535 47.1424 31.2831 51.5626 35.6947C53.7567 37.8836 55.4683 40.4327 56.6503 43.2728C56.8941 43.86 56.8335 44.5263 56.4855 45.0563Z" fill="#0D257B"/>
</svg>
