<svg width="59" height="60" viewBox="0 0 59 60" fill="none" xmlns="http://www.w3.org/2000/svg">
<rect y="0.00976562" width="59" height="59" rx="8" fill="#0D257B" fill-opacity="0.1"/>
<g clip-path="url(#clip0_208_2292)">
<path d="M39.7684 36.1838C42.5798 31.5221 44 27.855 44 25.2415C43.9901 17.3847 37.7275 11.0185 30 11.0098C22.2718 11.0185 16.0092 17.3847 16 25.2415C16 27.855 17.4202 31.5221 20.2316 36.1838V36.1844C21.3625 38.0594 22.7176 40.0948 24.2969 42.2879C24.389 42.4163 24.4849 42.5399 24.5836 42.6603L27.1511 46.481C28.5213 48.5198 31.4794 48.5198 32.8496 46.481L35.4223 42.6522C35.5197 42.5339 35.6137 42.4129 35.7038 42.2879C37.2824 40.0955 38.6375 38.0601 39.7684 36.1858V36.1838ZM30 19.5056C33.0988 19.5056 35.6104 22.0597 35.6104 25.2094C35.6104 28.3591 33.0981 30.9131 30 30.9131C26.9019 30.9131 24.3896 28.3591 24.3896 25.2094C24.3896 22.0597 26.9012 19.5056 30 19.5056Z" fill="#0D257B"/>
</g>
<defs>
<clipPath id="clip0_208_2292">
<rect width="28" height="37" fill="white" transform="translate(16 11.0098)"/>
</clipPath>
</defs>
</svg>
