<svg width="85" height="96" viewBox="0 0 85 96" fill="none" xmlns="http://www.w3.org/2000/svg">
<g clip-path="url(#clip0_607_957)">
<path d="M83.5514 77.3537C82.7447 75.0765 81.1109 73.2384 78.2618 71.4003C73.738 68.49 68.622 67.0399 63.7612 65.9064C62.5358 65.6205 61.3104 65.3754 60.0135 65.1201C59.4212 65.0078 58.829 64.8853 58.2163 64.7627L56.8479 64.4768L57.6853 62.9859C57.7976 62.7817 57.8997 62.5978 58.012 62.4242C59.0945 60.7291 60.1871 59.034 61.2696 57.349C63.4549 53.9588 65.7116 50.4459 67.8867 46.974C72.1756 40.1015 73.5134 32.5755 71.8591 24.6104C70.2456 16.8087 66.2018 10.5591 59.8603 6.03536C50.4656 -0.653293 40.4479 -1.78679 30.0729 2.6655C20.0246 6.98504 13.9282 14.7663 11.9369 25.8052C10.5992 33.2291 11.9982 40.3568 16.1135 46.974C18.2988 50.5174 20.6067 54.0711 22.8226 57.5124C23.8846 59.1463 24.9364 60.7802 25.978 62.4242C26.0903 62.5978 26.1924 62.7714 26.3048 62.9757L27.1217 64.4257L25.5695 64.8138C25.3755 64.8648 25.2121 64.9159 25.0385 64.9363C19.902 65.8043 15.4804 66.9684 11.5183 68.5104C8.65898 69.6235 5.38104 71.1144 2.77706 73.7592C0.254772 76.3223 -0.541739 79.008 0.346677 81.9592C0.836838 83.6135 1.82737 85.0635 3.35912 86.4217C6.53496 89.2401 10.4256 90.8025 13.4585 91.8339C19.1566 93.7945 25.5899 95.0404 33.1262 95.6326C34.0044 95.7041 34.8826 95.7858 35.771 95.8573L37.4457 96.0003L46.5035 95.9594C46.7383 95.9186 46.9834 95.8777 47.2285 95.8471C48.4539 95.7245 49.6793 95.6122 50.9149 95.4999C53.5291 95.265 56.2352 95.0199 58.8596 94.6319C65.538 93.6618 71.1034 92.0075 75.8621 89.5975C77.9759 88.5253 80.6309 86.9731 82.4077 84.4713C84.0518 82.1532 84.4296 79.8352 83.5514 77.3537ZM21.6074 48.7508L19.2281 45.0338C13.4176 35.9454 13.8567 23.5994 20.3105 14.991C26.5192 6.70933 34.7396 3.0127 44.7369 4.03387C54.2439 4.99377 61.5453 10.0383 65.8342 18.6264C70.4601 27.8475 69.878 37.0686 64.1186 46.0243C59.2885 53.5299 54.4992 61.0457 49.7099 68.5717L43.5012 78.3136C43.3787 78.5076 43.2459 78.6915 43.0928 78.9161L41.9593 80.6113L38.5996 75.3522C37.0066 72.8299 35.4238 70.3587 33.8512 67.8875C29.7665 61.5052 25.6921 55.1229 21.6074 48.7508ZM78.9358 82.868C76.7607 85.329 73.8504 86.6055 71.3076 87.6062C65.8852 89.7507 59.8399 91.0986 52.8245 91.7318C50.3431 91.9564 47.8208 92.0994 45.3802 92.2423C44.2569 92.3036 43.1438 92.3649 42.0308 92.4364L41.9899 92.4466H41.9388C32.0029 92.2117 24.436 91.211 17.4002 89.2095C14.2039 88.3006 10.4971 87.0548 7.16808 84.7266C6.37157 84.1751 5.62612 83.5012 4.94193 82.7251C3.22637 80.7849 3.23658 78.6608 4.98278 76.9044C6.25924 75.6177 7.67866 74.5149 9.09809 73.7082C13.8772 70.9816 19.0647 69.7767 23.9561 68.8678C24.5484 68.7555 25.1508 68.6738 25.7431 68.5921C26.5192 68.4798 27.2545 68.3879 27.9693 68.2245C29.4908 67.8875 30.1341 68.9087 30.4099 69.3376C32.3399 72.3908 34.2801 75.4339 36.2203 78.477L40.1416 84.6551C40.6624 85.4618 41.0606 85.7988 41.6223 85.8907C42.5515 86.0336 43.1847 85.7069 43.7872 84.747C45.8601 81.469 47.9535 78.1911 50.0367 74.9233L52.1914 71.5433C52.7122 70.7161 53.2228 69.8992 53.7742 69.1027C54.0703 68.6738 54.7749 68.0815 55.5306 68.1836C61.0551 68.9189 67.5191 70.0626 73.6563 73.0138C75.2698 73.7898 77.3223 74.9131 78.946 76.7717C80.7534 78.8344 80.7432 80.8257 78.9358 82.868Z" fill="#0D257B"/>
<path d="M51.3745 21.4141C48.8522 18.9122 45.5232 17.5234 42.0001 17.5234H41.9593C34.6477 17.5541 28.6943 23.5177 28.6739 30.819C28.6637 34.3625 30.0525 37.7119 32.5747 40.2444C35.1072 42.7769 38.4465 44.1657 41.9899 44.1657H42.0001C45.5436 44.1657 48.8828 42.7769 51.4051 40.2444C53.9274 37.7221 55.3162 34.3727 55.3162 30.8293C55.3059 27.2858 53.9069 23.9466 51.3745 21.4141ZM42.041 40.4691H41.9695C39.4472 40.4691 37.0475 39.4581 35.2196 37.6302C33.361 35.7819 32.3603 33.3515 32.3705 30.8088C32.4114 25.5192 36.7207 21.2303 41.9899 21.2303C41.9899 21.2303 42.0001 21.2303 42.0103 21.2303C47.2898 21.2405 51.5991 25.5498 51.6195 30.8293C51.6195 30.8395 51.6195 30.8395 51.6195 30.8497C51.6195 36.1189 47.3306 40.4282 42.041 40.4691Z" fill="#F5C86F"/>
</g>
<defs>
<clipPath id="clip0_607_957">
<rect width="84.0115" height="96" fill="white"/>
</clipPath>
</defs>
</svg>
