<svg width="59" height="59" viewBox="0 0 59 59" fill="none" xmlns="http://www.w3.org/2000/svg">
<rect width="59" height="59" rx="8" fill="#0D257B" fill-opacity="0.1"/>
<g clip-path="url(#clip0_184_1194)">
<path d="M30.0001 29C35.1547 29 39.3334 24.7467 39.3334 19.5C39.3334 14.2533 35.1547 10 30.0001 10C24.8454 10 20.6667 14.2533 20.6667 19.5C20.6667 24.7467 24.8454 29 30.0001 29Z" fill="#0D257B"/>
<path d="M30 32.166C22.2716 32.1749 16.0087 38.5496 16 46.416C16 47.2903 16.6964 47.9991 17.5553 47.9991H42.444C43.3029 47.9991 43.9993 47.2903 43.9993 46.416C43.9912 38.5496 37.7284 32.1742 30 32.166Z" fill="#0D257B"/>
</g>
<defs>
<clipPath id="clip0_184_1194">
<rect width="28" height="38" fill="white" transform="translate(16 10)"/>
</clipPath>
</defs>
</svg>
