<svg width="20" height="13" viewBox="0 0 20 13" fill="none" xmlns="http://www.w3.org/2000/svg">
<g clip-path="url(#clip0_727_9268)">
<path d="M7.56494 2.19604H13.2449V11.626H7.56494V2.19604Z" fill="#F26122"/>
<path d="M10.385 11.636C9.355 12.466 8.075 12.916 6.755 12.916C3.475 12.886 0.835 10.206 0.865 6.91602C0.835 3.63602 3.465 0.946016 6.755 0.916016C8.075 0.916016 9.355 1.36602 10.385 2.19602C7.775 4.31602 7.385 8.14602 9.505 10.746C9.765 11.076 10.065 11.366 10.385 11.636Z" fill="#EA1D25"/>
<path d="M19.925 6.91602C19.955 10.196 17.325 12.886 14.035 12.916C12.715 12.916 11.435 12.466 10.405 11.636C13.015 9.51602 13.405 5.68602 11.285 3.07602C11.015 2.75602 10.725 2.45602 10.395 2.19602C11.425 1.36602 12.715 0.916016 14.035 0.916016C17.315 0.946016 19.955 3.62602 19.925 6.91602Z" fill="#F69E1E"/>
</g>
<defs>
<clipPath id="clip0_727_9268">
<rect width="19.06" height="12" fill="white" transform="translate(0.859863 0.916016)"/>
</clipPath>
</defs>
</svg>
