<svg width="110" height="95" viewBox="0 0 110 95" fill="none" xmlns="http://www.w3.org/2000/svg">
<g clip-path="url(#clip0_944_7920)">
<path d="M99.7995 11.06C99.7795 9.42 99.4495 7.79 98.8595 6.47C96.9495 2.18 93.4695 0 88.5295 0C88.5295 0 88.5195 0 88.5095 0C69.1495 0.02 49.7795 0.01 30.4195 0.01H11.3195C10.9895 0.01 10.6495 0.01 10.3195 0.02C4.64951 0.23 0.229512 4.64 0.0495124 10.28C-0.0104876 12.19 -0.000487586 14.13 0.00951241 16.02V18.13C0.00951241 30.25 0.00951241 42.37 0.0195124 54.48C0.0195124 55.46 0.0195124 56.42 0.189512 57.3C1.18951 62.69 5.42951 66.18 10.9895 66.19C18.7895 66.2 26.5995 66.2 34.3995 66.19H44.5195C44.7795 66.19 45.0095 66.19 45.2595 66.17C46.2395 66.08 46.9695 65.31 46.9995 64.36C47.0295 63.4 46.3195 62.58 45.3595 62.44C45.0895 62.4 44.7995 62.4 44.4995 62.41H11.3395C6.60951 62.41 3.79951 59.58 3.79951 54.83V18.24H96.0095V34.51C95.9995 34.68 95.9995 34.85 96.0095 35.02C96.0195 35.89 96.2895 37.34 97.8795 37.37C98.3895 37.38 98.8895 37.21 99.2195 36.89C99.6195 36.49 99.8395 35.85 99.8395 35.02L99.8495 30.58C99.8595 24.18 99.8795 17.57 99.7995 11.06ZM95.9995 14.34H3.70951L3.72951 13.81C3.75951 13.33 3.75951 12.86 3.76951 12.39C3.78951 11.36 3.79951 10.38 3.97951 9.39C4.58951 6.05 7.31951 3.81 10.7695 3.8C16.4995 3.79 22.2395 3.79 27.9695 3.79H88.4095C93.2195 3.79 95.9895 6.57 95.9995 11.42L96.0095 12.99L95.9995 14.34Z" fill="#0D257B"/>
<path d="M101.82 50.7805C96.9497 45.9105 90.4497 43.2305 83.5297 43.2305H83.4997C69.2297 43.2405 57.6297 54.8605 57.6397 69.1305C57.6497 76.0605 60.3397 82.5705 65.2197 87.4405C70.0997 92.3205 76.5997 95.0005 83.5097 95.0005H83.5397C90.4797 94.9905 96.9797 92.3005 101.86 87.4105C106.73 82.5305 109.41 76.0205 109.41 69.0905C109.4 62.1605 106.71 55.6505 101.82 50.7805ZM83.5097 91.2205C83.5097 91.2205 83.4997 91.2205 83.4897 91.2205C71.3097 91.2105 61.3997 81.2805 61.4097 69.0805C61.4197 63.1805 63.7297 57.6405 67.9097 53.4705C72.0897 49.3005 77.6297 47.0105 83.5197 47.0105H83.5497C89.4497 47.0205 94.9897 49.3205 99.1697 53.5105C103.34 57.6905 105.63 63.2405 105.63 69.1405C105.61 81.3205 95.6997 91.2205 83.5097 91.2205Z" fill="#0D257B"/>
<path d="M32.5995 52.2899C32.5995 52.8099 32.4395 53.2299 32.1195 53.5599C31.6995 53.9799 31.0295 54.2099 30.1995 54.2099H11.7595C10.7095 54.2099 10.0695 53.8199 9.73951 52.9699C9.41951 52.1299 9.59951 51.3899 10.2495 50.9399C10.6595 50.6499 11.3095 50.4699 11.9495 50.4499C13.3995 50.4199 14.8695 50.4199 16.3195 50.4199H18.7295L21.1595 50.4299L23.7395 50.4199C25.8795 50.4199 28.0195 50.4199 30.1595 50.4299C31.0695 50.4299 32.5895 50.6799 32.5995 52.2899Z" fill="#F5C86F"/>
<path d="M22.959 40.28C22.979 41.49 22.149 42.19 20.709 42.22C19.689 42.23 18.669 42.23 17.649 42.23L16.329 42.22L14.959 42.23C13.959 42.23 12.949 42.23 11.949 42.22C10.499 42.2 9.61905 41.49 9.59905 40.33C9.58905 39.82 9.75905 39.37 10.089 39.04C10.489 38.63 11.129 38.4 11.879 38.39C15.069 38.37 17.969 38.37 20.759 38.39C22.129 38.4 22.949 39.11 22.959 40.28Z" fill="#F5C86F"/>
<path d="M83.9998 78C82.9498 78 82.0898 78.9 82.0898 80C82.0898 81.1 82.9498 82 83.9998 82C85.0498 82 85.9099 81.1 85.9099 80C85.9099 78.9 85.0498 78 83.9998 78Z" fill="#F5C86F"/>
<path d="M91.87 63.9809C91.3 60.5509 88.66 57.7309 85.44 57.1409C83.15 56.7109 80.88 57.3009 79.05 58.8009C77.28 60.2809 76.1599 62.4809 75.9899 64.8509C75.9099 65.9509 76.7 66.9209 77.78 67.0009C78.23 67.0209 78.7199 66.8609 79.0899 66.5509C79.4899 66.2009 79.75 65.6909 79.79 65.1509C79.88 63.8809 80.47 62.7109 81.41 61.9409C82.35 61.1609 83.54 60.8409 84.75 61.0709C86.42 61.3809 87.81 62.8609 88.11 64.6609C88.43 66.6309 87.5999 68.5109 85.99 69.4509C82.76 71.3609 82.08 73.5209 82.08 75.0009C82.08 76.1009 82.9399 77.0009 83.99 77.0009C85.04 77.0009 85.9 76.1009 85.9 75.0009C85.9 74.5409 86.5 73.7309 87.86 72.9409C90.86 71.1809 92.47 67.5809 91.87 63.9809Z" fill="#F5C86F"/>
</g>
<defs>
<clipPath id="clip0_944_7920">
<rect width="109.41" height="95" fill="white"/>
</clipPath>
</defs>
</svg>
