<svg width="30" height="30" viewBox="0 0 30 30" fill="none" xmlns="http://www.w3.org/2000/svg">
<circle cx="15" cy="15" r="14" stroke="#0D257B" stroke-width="2"/>
<path d="M10.3043 18.6242C10.9038 18.6242 11.3898 18.1382 11.3898 17.5387C11.3898 16.9391 10.9038 16.4531 10.3043 16.4531C9.70476 16.4531 9.21875 16.9391 9.21875 17.5387C9.21875 18.1382 9.70476 18.6242 10.3043 18.6242Z" fill="#F5C86F" stroke="#F5C86F" stroke-width="0.25"/>
<path d="M20.0703 8.49219H9.93873C8.97942 8.49334 8.05973 8.87493 7.38139 9.55327C6.70306 10.2316 6.32146 11.1513 6.32031 12.1106L6.32031 17.9001C6.32146 18.8594 6.70306 19.7791 7.38139 20.4574C8.05973 21.1358 8.97942 21.5174 9.93873 21.5185H20.0703C21.0296 21.5174 21.9493 21.1358 22.6277 20.4574C23.306 19.7791 23.6876 18.8594 23.6887 17.9001V12.1106C23.6876 11.1513 23.306 10.2316 22.6277 9.55327C21.9493 8.87493 21.0296 8.49334 20.0703 8.49219ZM9.93873 9.93956H20.0703C20.6461 9.93956 21.1983 10.1683 21.6055 10.5754C22.0126 10.9826 22.2414 11.5348 22.2414 12.1106H7.76768C7.76768 11.5348 7.99642 10.9826 8.40357 10.5754C8.81072 10.1683 9.36293 9.93956 9.93873 9.93956ZM20.0703 20.0711H9.93873C9.36293 20.0711 8.81072 19.8424 8.40357 19.4352C7.99642 19.0281 7.76768 18.4759 7.76768 17.9001V13.558H22.2414V17.9001C22.2414 18.4759 22.0126 19.0281 21.6055 19.4352C21.1983 19.8424 20.6461 20.0711 20.0703 20.0711Z" fill="#F5C86F" stroke="#F5C86F" stroke-width="0.25"/>
</svg>
