<svg width="38" height="38" viewBox="0 0 38 38" fill="none" xmlns="http://www.w3.org/2000/svg">
<circle cx="19" cy="19" r="18" stroke="#F5C86F" stroke-width="2"/>
<path d="M13.0417 23.5837C13.8011 23.5837 14.4167 22.9681 14.4167 22.2087C14.4167 21.4493 13.8011 20.8337 13.0417 20.8337C12.2824 20.8337 11.6667 21.4493 11.6667 22.2087C11.6667 22.9681 12.2824 23.5837 13.0417 23.5837Z" fill="#F5C86F" stroke="#F5C86F" stroke-width="0.25"/>
<path d="M25.4167 10.75H12.5833C11.3682 10.7515 10.2033 11.2348 9.34403 12.094C8.48481 12.9533 8.00146 14.1182 8 15.3333L8 22.6667C8.00146 23.8818 8.48481 25.0467 9.34403 25.906C10.2033 26.7652 11.3682 27.2485 12.5833 27.25H25.4167C26.6318 27.2485 27.7967 26.7652 28.656 25.906C29.5152 25.0467 29.9985 23.8818 30 22.6667V15.3333C29.9985 14.1182 29.5152 12.9533 28.656 12.094C27.7967 11.2348 26.6318 10.7515 25.4167 10.75ZM12.5833 12.5833H25.4167C26.146 12.5833 26.8455 12.8731 27.3612 13.3888C27.8769 13.9045 28.1667 14.604 28.1667 15.3333H9.83333C9.83333 14.604 10.1231 13.9045 10.6388 13.3888C11.1545 12.8731 11.854 12.5833 12.5833 12.5833ZM25.4167 25.4167H12.5833C11.854 25.4167 11.1545 25.1269 10.6388 24.6112C10.1231 24.0955 9.83333 23.396 9.83333 22.6667V17.1667H28.1667V22.6667C28.1667 23.396 27.8769 24.0955 27.3612 24.6112C26.8455 25.1269 26.146 25.4167 25.4167 25.4167Z" fill="#F5C86F" stroke="#F5C86F" stroke-width="0.25"/>
</svg>
