<svg width="56" height="15" viewBox="0 0 56 15" fill="none" xmlns="http://www.w3.org/2000/svg">
<g clip-path="url(#clip0_500_1903)">
<path d="M55.9996 1.26698C55.8406 2.00772 55.6539 2.74426 55.5309 3.49131C55.1004 6.0839 54.6953 8.68071 54.2732 11.2754C54.1799 11.8436 53.9084 12.0793 53.3315 12.0961C52.7419 12.1108 52.1523 12.1003 51.5945 12.1003C51.4185 11.347 53.0177 0.877674 53.4206 0.0422363C54.252 0.0885326 55.1258 0.134829 55.9996 0.18323C55.9996 0.543078 55.9996 0.905031 55.9996 1.26698Z" fill="#159AD6"/>
<path d="M0 11.8226C0.0848356 11.164 0.150583 10.5306 0.250265 9.90135C0.712619 6.97206 1.18558 4.04698 1.65642 1.12189C1.67975 0.968272 1.72641 0.820966 1.75398 0.667346C1.83881 0.221219 2.10392 -0.00184549 2.56416 0.000258891C4.22906 0.0086764 5.89396 -0.00394986 7.55673 0.0402421C8.01273 0.0528683 8.48144 0.187548 8.9141 0.347481C10.1421 0.804131 10.7338 1.67534 10.632 2.97374C10.5769 3.68502 10.4327 4.40893 10.2036 5.08443C9.55461 6.9931 8.04878 7.7612 6.13998 7.9064C5.57158 7.94849 4.99682 7.91903 4.42418 7.92955C3.74549 7.94218 3.60764 8.06213 3.50159 8.71028C3.37646 9.47416 3.26829 10.2381 3.13256 10.9998C2.99046 11.7869 2.78261 11.9531 1.99364 11.9594C1.44645 11.9636 0.901379 11.9573 0.354189 11.9489C0.284199 11.9468 0.212089 11.8984 0 11.8226ZM4.63203 2.45817C4.43054 3.58401 4.25663 4.56255 4.06999 5.62105C4.5684 5.62105 4.97773 5.63578 5.38706 5.61895C6.66384 5.56634 7.2895 4.90556 7.26405 3.65346C7.25345 3.08948 7.06045 2.76541 6.49629 2.64757C5.92365 2.52551 5.32556 2.52341 4.63203 2.45817Z" fill="#293D81"/>
<path d="M34.0403 11.9215C33.0731 11.9215 32.1739 11.9215 31.1919 11.9215C31.1919 11.5638 31.1495 11.2376 31.1983 10.9241C31.7009 7.7212 32.2205 4.52255 32.7359 1.32179C32.7677 1.11766 32.8123 0.917747 32.861 0.715727C32.9904 0.170694 33.1537 0.0107609 33.703 0.00865652C35.3404 0.00234339 36.9798 0.000239015 38.6171 0.0402222C39.0477 0.0507441 39.4803 0.19805 39.9003 0.322209C41.2237 0.717832 41.8133 1.49856 41.7391 3.1568C41.7115 3.76287 41.5503 4.37945 41.3616 4.96236C40.7635 6.81421 39.3849 7.75066 37.2322 7.91059C36.6893 7.95058 36.1399 7.92111 35.5949 7.92953C34.8462 7.94216 34.7147 8.06421 34.5959 8.81337C34.4581 9.67617 34.3181 10.539 34.1739 11.4018C34.1505 11.5512 34.0996 11.6964 34.0403 11.9215ZM35.0413 5.61682C35.6309 5.61682 36.1187 5.63576 36.6065 5.61261C37.8048 5.5579 38.3754 4.90765 38.3478 3.71236C38.3351 3.16943 38.0784 2.83694 37.5949 2.66438C36.9459 2.4329 36.2863 2.47709 35.5991 2.57179C35.4125 3.59452 35.2364 4.5499 35.0413 5.61682Z" fill="#159AD6"/>
<path d="M17.2785 4.60033C17.34 4.47406 17.4355 4.27625 17.5564 4.02583C18.4747 4.16472 19.4439 3.74595 20.322 4.34359C19.953 6.66262 19.603 8.89746 19.2403 11.1302C19.1449 11.7173 18.8819 11.9425 18.305 11.9572C17.6645 11.972 17.024 11.9614 16.3581 11.9614C16.3199 11.6353 16.2944 11.4122 16.2669 11.187C15.7557 11.4248 15.2679 11.7447 14.7335 11.8899C10.9774 12.9 9.55848 10.1096 10.0442 7.76531C10.6083 5.04014 13.2679 3.21354 15.883 3.9143C16.3602 4.04267 16.7886 4.35411 17.2785 4.60033ZM12.7122 7.9547C12.708 9.33307 13.1364 9.86548 14.182 10.038C15.3994 10.238 16.7631 9.24258 16.8649 8.01573C16.9116 7.45176 16.7865 6.86253 16.2881 6.48795C15.5882 5.96396 14.8013 5.884 14.0145 6.26489C13.2128 6.6542 12.7483 7.30024 12.7122 7.9547Z" fill="#293D81"/>
<path d="M48.2655 4.69092C48.3524 4.14168 48.626 4.00489 49.0565 4.02804C49.6016 4.0575 50.1488 4.01752 50.6939 4.04277C51.1732 4.06592 51.3429 4.28267 51.2665 4.74774C50.9208 6.87947 50.5687 9.01121 50.2124 11.1429C50.117 11.7111 49.8476 11.9447 49.2729 11.9573C48.6536 11.9721 48.0343 11.9594 47.3662 11.9594C47.3047 11.6817 47.258 11.467 47.2071 11.225C47.152 11.2355 47.0778 11.2313 47.0247 11.265C45.9579 11.9447 44.8296 12.2099 43.5444 12.0163C42.0788 11.7953 41.2368 10.661 41.0247 9.51205C40.4691 6.48385 42.9441 3.61769 45.9622 3.75237C46.7957 3.79025 47.5316 4.05329 48.2655 4.69092ZM45.9855 6.05456C44.8699 6.04824 43.8519 6.7953 43.7225 7.88537C43.5465 9.36474 44.1891 10.0613 45.5295 10.055C46.5094 10.0508 47.2474 9.52888 47.6631 8.63031C48.3036 7.25195 47.5231 6.06297 45.9855 6.05456Z" fill="#159AD6"/>
<path d="M21.3363 14.9561C21.0203 14.5184 21.2514 14.2743 21.4296 14.0239C22.0595 13.14 22.6915 12.2562 23.3554 11.3282C22.8082 9.72253 22.2504 8.09374 21.6947 6.46285C21.5356 5.99988 21.3596 5.54113 21.2281 5.07185C21.156 4.81512 21.1602 4.53734 21.1221 4.19012C22.0362 4.08701 22.857 4.09121 23.6799 4.17329C24.0701 4.21327 24.1443 4.55418 24.2377 4.84248C24.5706 5.87152 24.8867 6.90477 25.2133 7.93802C25.2599 8.08322 25.3172 8.22421 25.402 8.44938C25.5611 8.24315 25.6841 8.10005 25.788 7.94433C26.454 6.92791 27.1581 5.93465 27.7605 4.88456C28.1486 4.20906 28.6279 3.93549 29.3978 4.01967C29.9556 4.08069 30.524 4.03229 31.0139 4.03229C31.2981 4.50788 31.0097 4.72884 30.8421 4.96874C29.2281 7.27935 27.6099 9.58574 25.9916 11.8921C25.4275 12.696 24.8336 13.4809 24.3076 14.3101C23.9747 14.8362 23.5611 15.0445 22.9503 14.994C22.3904 14.9456 21.8262 14.9645 21.3363 14.9561Z" fill="#293D81"/>
</g>
<defs>
<clipPath id="clip0_500_1903">
<rect width="56" height="15" fill="white" transform="translate(0 0.000244141)"/>
</clipPath>
</defs>
</svg>
