<svg width="139" height="96" viewBox="0 0 139 96" fill="none" xmlns="http://www.w3.org/2000/svg">
<g clip-path="url(#clip0_10_776)">
<path d="M138.001 93.0505C138.001 93.3105 138.001 93.5605 137.991 93.8305C137.961 95.1205 137.161 95.9805 135.991 95.9805C135.431 95.9805 134.921 95.7705 134.561 95.3905C134.191 95.0105 134.001 94.4605 134.031 93.8705C134.501 84.2705 128.171 75.1605 118.971 72.2205C113.861 70.5805 109.121 71.0405 104.891 73.5705L103.091 74.6505L103.641 76.6805C103.861 77.4805 104.091 78.2805 104.321 79.0805L104.371 79.2705C104.901 81.0905 105.451 82.9805 105.781 84.8505C106.341 87.9405 106.551 91.1705 106.681 93.6405C106.711 94.2105 106.541 94.7305 106.201 95.1105C105.871 95.4705 105.401 95.6805 104.881 95.7005C104.291 95.7305 103.761 95.5605 103.391 95.2205C103.021 94.8805 102.811 94.3905 102.791 93.8005C102.591 87.5605 101.591 82.5405 99.6614 78.0305C95.0314 67.2205 87.6314 60.2805 77.6714 57.4005C65.6414 53.9305 54.9214 56.9805 45.8014 66.4905C39.5514 73.0005 36.0514 81.2505 35.4114 90.9905C35.3714 91.4105 35.3614 91.8305 35.3514 92.2505L35.3414 92.5905C35.3214 92.9505 35.3114 93.2905 35.2814 93.6205C35.1614 94.9805 34.3614 95.7505 33.1614 95.7005C32.0614 95.6505 31.3314 94.7705 31.3214 93.5105C31.3214 88.4605 32.1814 83.4805 33.8814 78.7205C33.9914 78.4005 34.1014 78.0805 34.2214 77.7505L35.2714 74.7105L33.2214 73.5805C27.5014 70.4405 21.6114 70.4605 15.7214 73.6605C7.89142 77.9005 3.95142 84.6005 4.02142 93.5805C4.03142 94.5505 3.63142 95.3605 2.95142 95.7605C2.41142 96.0805 1.76142 96.0705 1.13142 95.7305C0.421416 95.3405 0.101416 94.8305 0.0514159 94.0305C-0.738584 81.5605 8.69141 69.7105 21.0814 67.6105C22.2714 67.4105 23.4614 67.3105 24.6214 67.3105C28.1014 67.3105 31.5014 68.1905 35.0114 69.9905L37.2014 71.1105L38.5914 69.0905C46.3014 57.9405 56.5114 52.2705 68.9414 52.2305H69.0614C81.4414 52.2305 91.6014 57.8205 99.2814 68.8505L100.441 70.5205L102.391 69.9205C103.221 69.6705 104.031 69.3905 104.811 69.1205L104.981 69.0605C106.581 68.5105 108.241 67.9305 109.851 67.6605C116.871 66.4805 123.421 68.5005 129.321 73.6705C135.081 78.7205 138.001 85.2405 138.001 93.0505Z" fill="#293275"/>
<path d="M83.1913 6.15C81.2313 4.18 78.9413 2.65 76.4413 1.61C73.9413 0.57 71.2313 0.02 68.4213 0H68.3413C62.8113 0 57.6113 2.14 53.7013 6.01C49.7613 9.92 47.5813 15.13 47.5613 20.71C47.5113 32.08 56.7313 41.37 68.1113 41.42H68.2113C79.7413 41.42 89.1613 32.23 89.2313 20.94C89.2713 15.35 87.1213 10.1 83.1913 6.15ZM68.3513 37.46H68.2913C63.7813 37.44 59.5613 35.68 56.4113 32.51C53.2413 29.33 51.5213 25.11 51.5513 20.62C51.6213 11.44 59.2013 3.96 68.4513 3.96C72.9313 3.97 77.1513 5.72 80.3213 8.9C83.5213 12.1 85.2713 16.34 85.2513 20.82C85.2113 30 77.6313 37.46 68.3513 37.46Z" fill="#293275"/>
<path d="M76.3817 15.4791C75.8217 12.0491 73.1717 9.23909 69.9417 8.62909C67.6517 8.19909 65.3817 8.78909 63.5717 10.2991C61.7917 11.7691 60.6817 13.9791 60.5117 16.3491C60.4317 17.4491 61.2217 18.4091 62.2617 18.4891C62.7617 18.5291 63.2317 18.3691 63.6117 18.0491C64.0117 17.6991 64.2717 17.1891 64.3117 16.6491C64.4017 15.3891 64.9917 14.2191 65.9317 13.4391C66.8817 12.6491 68.0617 12.3391 69.2717 12.5691C70.9417 12.8791 72.3217 14.3591 72.6217 16.1591C72.9417 18.1191 72.1117 19.9991 70.5117 20.9491C67.9517 22.4491 66.6017 24.3691 66.6017 26.4991C66.6017 27.5991 67.4617 28.4991 68.5117 28.4991C69.5617 28.4991 70.4217 27.5991 70.4217 26.4991C70.4217 26.0491 71.0317 25.2391 72.3817 24.4391C75.3617 22.6791 76.9717 19.0791 76.3817 15.4791Z" fill="#F9CB74"/>
<path d="M68.5021 29.5C67.4521 29.5 66.5921 30.4 66.5921 31.5C66.5921 32.6 67.4521 33.5 68.5021 33.5C69.5521 33.5 70.4121 32.6 70.4121 31.5C70.4121 30.4 69.5521 29.5 68.5021 29.5Z" fill="#F9CB74"/>
<path d="M34.6208 29.1702L34.4008 28.9402C31.5508 26.1902 27.8208 24.6702 23.8408 24.6602C15.2008 24.6602 8.40084 31.3802 8.36084 39.9502C8.34084 44.0202 9.96084 47.8702 12.8908 50.7902C15.7808 53.6602 19.5908 55.2402 23.5908 55.2402H23.6708C32.2808 55.2002 39.0508 48.5102 39.0808 40.0102C39.0808 35.9202 37.5008 32.0702 34.6208 29.1702ZM23.7508 51.2902H23.7008C20.6708 51.2902 17.8208 50.1202 15.6808 47.9802C13.5208 45.8302 12.3408 42.9502 12.3508 39.8902C12.3708 36.8302 13.5708 33.9902 15.7308 31.8802C17.8608 29.7902 20.7208 28.6402 23.8008 28.6402H23.8708C30.0908 28.6902 35.1208 33.8002 35.0908 40.0302C35.0608 46.2102 29.9808 51.2702 23.7508 51.2902Z" fill="#293275"/>
<path d="M128.401 39.0999C128.311 37.1399 127.841 35.2499 127.031 33.5199C126.221 31.7799 125.061 30.1999 123.611 28.8599C120.691 26.1599 116.851 24.6699 112.781 24.6699C112.541 24.6699 112.301 24.6699 112.061 24.6899C108.211 24.8599 104.411 26.6799 101.661 29.6899C98.911 32.6899 97.4409 36.6099 97.6309 40.4299C98.0509 48.7499 104.651 55.2599 112.681 55.2599C112.891 55.2599 113.101 55.2599 113.311 55.2399C115.491 55.1399 117.561 54.6599 119.461 53.7999C121.351 52.9399 123.021 51.7399 124.411 50.2299C127.181 47.2399 128.601 43.2899 128.401 39.0999ZM124.431 39.9799C124.421 43.0299 123.201 45.8899 121.001 48.0499C118.861 50.1399 116.041 51.2899 113.081 51.2899H112.921C106.641 51.1799 101.571 46.0799 101.621 39.9199C101.671 33.6999 106.811 28.6399 113.071 28.6399H113.131C119.361 28.6799 124.431 33.7499 124.431 39.9599V39.9799Z" fill="#293275"/>
</g>
<defs>
<clipPath id="clip0_10_776">
<rect width="138" height="96" fill="white" transform="translate(0.00128174)"/>
</clipPath>
</defs>
</svg>
