<svg width="97" height="96" viewBox="0 0 97 96" fill="none" xmlns="http://www.w3.org/2000/svg">
<path d="M96.0002 3.38C95.7502 5.2 95.5402 7.02 95.2402 8.84C93.1402 21.66 88.9802 33.65 80.7302 43.9C78.4902 46.68 75.7702 49.08 73.2702 51.65C73.0602 51.87 72.8102 52.06 72.6402 52.22C73.2502 53.78 73.9802 55.24 74.3902 56.79C75.5802 61.27 74.6002 65.34 71.6502 68.89C68.1302 73.13 63.4602 75.59 58.2402 77C56.2102 77.55 54.0702 77.7 51.9702 77.98C51.0902 78.1 50.3702 77.72 50.0002 76.87C49.6402 76.03 49.8802 75.3 50.5002 74.65C52.8802 72.16 53.9002 69.17 53.7802 65.77C53.7302 64.37 53.3402 64.15 52.0402 64.61C49.6902 65.44 47.3302 66.27 44.9502 67.01C42.8902 67.65 42.7402 67.61 40.7302 67.17C40.0902 68.16 39.4902 69.17 38.8202 70.14C36.5802 73.37 33.3102 75.1 29.6602 76.07C26.6302 76.88 23.5102 77.39 20.4102 77.94C18.9002 78.2 17.8702 77.28 18.0202 75.84C18.4602 71.48 19.3202 67.21 21.0602 63.15C22.5002 59.81 24.9302 57.46 28.0602 55.73C28.3002 55.6 28.5502 55.47 28.9102 55.28C28.0402 53.34 28.7902 51.49 29.3702 49.67C30.0002 47.68 30.7502 45.73 31.4602 43.76C31.8302 42.76 31.5702 42.28 30.4902 42.22C27.1602 42.03 24.2002 42.94 21.6702 45.17C21.5502 45.27 21.4402 45.38 21.3302 45.49C20.6902 46.12 19.9502 46.35 19.1102 45.98C18.2602 45.61 17.9702 44.9 17.9902 44C18.0702 41.07 18.6702 38.24 19.6702 35.49C21.0202 31.78 22.9102 28.39 25.7102 25.57C30.5502 20.72 36.6102 19.79 42.6902 22.94C42.9902 23.1 43.2902 23.26 43.6702 23.46C44.0202 23.07 44.3702 22.68 44.7102 22.28C51.2002 14.77 59.2402 9.47 68.4102 5.82C76.0102 2.82 83.8702 0.92 92.0002 0.15C92.2102 0.13 92.4102 0.05 92.6302 0C93.7602 0 94.8802 0 96.0102 0C96.0002 1.13 96.0002 2.25 96.0002 3.38ZM87.3702 24.38C87.2402 24.23 87.0902 24.01 86.9002 23.82C82.0002 18.91 77.0902 14.01 72.2002 9.1C71.8002 8.7 71.4702 8.63 70.9902 8.86C67.7002 10.44 64.2902 11.79 61.1402 13.6C49.7802 20.12 42.1702 30 36.5502 41.58C36.4302 41.83 36.5602 42.37 36.7602 42.58C42.2802 48.15 47.8402 53.68 53.3702 59.24C53.7902 59.66 54.1102 59.66 54.5902 59.41C56.2402 58.53 57.9302 57.72 59.5602 56.79C72.4302 49.44 81.9402 39.15 87.1002 25.1C87.1602 24.9 87.2502 24.7 87.3702 24.38ZM22.2102 40.2C26.0002 38.51 29.6502 37.88 33.3302 38.98C35.8902 34.82 38.4702 30.61 41.0602 26.39C37.6902 24.08 32.9302 24.37 29.4602 27.25C25.9502 30.17 23.9702 34.05 22.6702 38.33C22.5102 38.89 22.4002 39.47 22.2102 40.2ZM55.8802 73.63C56.0302 73.66 56.0902 73.69 56.1402 73.68C61.1102 72.5 65.5602 70.38 68.8802 66.36C71.8702 62.74 71.6902 58.22 69.5902 54.94C65.3702 57.53 61.1602 60.12 56.9802 62.68C58.2402 66.38 57.3802 70.01 55.8802 73.63ZM21.9902 73.98C25.6502 73.4 29.0202 72.68 32.1402 71.1C34.6302 69.84 36.2202 67.77 37.3302 65.29C37.4502 65.02 37.3402 64.48 37.1402 64.27C35.3602 62.43 33.5502 60.62 31.7102 58.84C31.5102 58.64 31.0102 58.53 30.7602 58.63C28.8302 59.44 27.1002 60.59 25.8802 62.3C23.4302 65.72 22.7702 69.76 21.9902 73.98ZM75.9402 7.21C80.2302 11.5 84.5202 15.79 88.8202 20.09C90.4102 14.89 91.5402 9.5 92.0802 3.97C88.9302 4 79.9902 5.81 75.9402 7.21ZM50.0002 61.51C44.7702 56.28 39.6802 51.19 34.5002 46C33.8102 48.21 33.1302 50.46 32.4002 52.71C32.1402 53.5 32.3702 54.13 32.9102 54.67C35.7102 57.48 38.5002 60.3 41.3402 63.07C41.7002 63.42 42.4002 63.77 42.8202 63.66C45.2502 63.02 47.6402 62.24 50.0002 61.51Z" fill="#293275"/>
<path d="M37.2904 64.5191C37.3904 64.7691 37.4204 65.0991 37.3304 65.2891C36.2204 67.7691 34.6304 69.8491 32.1404 71.0991C29.0104 72.6691 25.6404 73.3991 21.9904 73.9791C22.7704 69.7691 23.4304 65.7191 25.8904 62.2991C27.1104 60.5891 28.8504 59.4491 30.7704 58.6291C30.9004 58.5691 31.0804 58.5691 31.3004 58.6291L31.6204 58.7591L28.4504 55.5391C28.0904 55.7291 28.3204 55.6091 28.0704 55.7391C24.9404 57.4591 22.5004 59.8191 21.0704 63.1591C19.3204 67.2191 18.4704 71.4891 18.0304 75.8491C17.8904 77.2791 18.9104 78.2091 20.4204 77.9491C23.5204 77.3991 26.6404 76.8891 29.6704 76.0791C33.3204 75.1091 36.6004 73.3791 38.8404 70.1491C39.5104 69.1791 39.7504 68.6491 40.3804 67.6591L37.2904 64.5191Z" fill="#F9CB74"/>
<path d="M2.25007 95.9994C0.580072 94.9294 0.460072 93.7994 1.87007 92.3794C5.82007 88.4294 9.77007 84.4794 13.7201 80.5294C13.9601 80.2894 14.2101 80.0394 14.5001 79.8594C15.2501 79.3694 16.2001 79.4894 16.8101 80.1094C17.4201 80.7194 17.5301 81.6994 17.0301 82.4294C16.8201 82.7394 16.5501 82.9994 16.2801 83.2694C12.4901 87.0694 8.70007 90.8694 4.89007 94.6494C4.41007 95.1294 3.88007 95.5494 3.36007 95.9994C3.00007 95.9994 2.63007 95.9994 2.25007 95.9994Z" fill="#F9CB74"/>
<path d="M17.2501 95.9994C15.5801 94.9294 15.4601 93.7994 16.8701 92.3794C20.8201 88.4294 24.7701 84.4794 28.7201 80.5294C28.9601 80.2894 29.2101 80.0394 29.5001 79.8594C30.2501 79.3694 31.2001 79.4894 31.8101 80.1094C32.4201 80.7194 32.5301 81.6994 32.0301 82.4294C31.8201 82.7394 31.5501 82.9994 31.2801 83.2694C27.4901 87.0694 23.7001 90.8694 19.8901 94.6494C19.4101 95.1294 18.8801 95.5494 18.3601 95.9994C18.0001 95.9994 17.6301 95.9994 17.2501 95.9994Z" fill="#F9CB74"/>
<path d="M0 77.6305C0.43 77.1405 0.83 76.6305 1.29 76.1705C5.1 72.3405 8.92 68.5305 12.73 64.7105C12.97 64.4705 13.21 64.2105 13.48 64.0105C14.19 63.4905 15.17 63.5505 15.81 64.1205C16.49 64.7205 16.63 65.7205 16.13 66.5005C15.95 66.7905 15.7 67.0405 15.46 67.2705C11.51 71.2205 7.56 75.1705 3.61 79.1205C2.2 80.5405 1.08 80.4205 0 78.7505C0 78.3805 0 78.0005 0 77.6305Z" fill="#F9CB74"/>
<path d="M45.6102 79.0398C45.4702 79.2798 45.2902 79.8298 44.9302 80.2098C43.2902 81.9198 41.6002 83.5798 39.9202 85.2398C39.0302 86.1198 37.8602 86.1498 37.1002 85.3698C36.3502 84.5798 36.3902 83.5098 37.2502 82.6298C38.9302 80.9198 40.6302 79.2298 42.3302 77.5398C42.9302 76.9398 43.6402 76.6998 44.4602 77.0598C45.1902 77.3798 45.5702 77.9398 45.6102 79.0398Z" fill="#F9CB74"/>
<path d="M10.0703 57.2504C10.2003 57.0304 10.3703 56.5104 10.7203 56.1504C12.3903 54.4204 14.1003 52.7204 15.8203 51.0404C16.6703 50.2104 17.8303 50.1904 18.5703 50.9504C19.3203 51.7204 19.3203 52.7904 18.4903 53.6304C16.7603 55.3904 15.0103 57.1304 13.2503 58.8604C12.6703 59.4304 11.9603 59.6004 11.1803 59.2504C10.4403 58.9204 10.0903 58.3504 10.0703 57.2504Z" fill="#F9CB74"/>
<path d="M66.5703 38.4898C61.3803 38.4598 57.2703 34.3098 57.2803 29.1098C57.2903 23.9398 61.4703 19.7498 66.6103 19.7598C71.7703 19.7598 76.0403 24.0698 75.9703 29.2098C75.8903 34.4098 71.7303 38.5198 66.5703 38.4898ZM66.5903 34.7398C69.6903 34.7498 72.1903 32.2998 72.2303 29.1798C72.2703 26.0798 69.7003 23.4898 66.5903 23.5098C63.5003 23.5298 61.0203 26.0298 61.0203 29.1398C61.0203 32.2598 63.4703 34.7298 66.5903 34.7398Z" fill="#F9CB74"/>
</svg>
