<svg width="38" height="38" viewBox="0 0 38 38" fill="none" xmlns="http://www.w3.org/2000/svg">
<g clip-path="url(#clip0_1031_5571)">
<circle cx="19" cy="19" r="18" stroke="white" stroke-width="2"/>
<path d="M26.2572 13.041L23.2949 9.8669C22.1713 8.663 20.6772 8 19.0878 8H15.2501C12.9065 7.99915 11 10.0419 11 12.553V25.3037C11 27.8148 12.9065 29.8576 15.2501 29.8576H23.7499C26.0935 29.8576 28 27.8148 28 25.3037V17.5484C28 15.8454 27.3812 14.2449 26.2576 13.0401V13.041H26.2572ZM25.0556 14.329C25.3257 14.6184 25.5544 14.9399 25.7397 15.2853H22.0498C21.5816 15.2853 21.1999 14.8763 21.1999 14.3747V10.4206C21.5223 10.6191 21.8231 10.8642 22.0924 11.1536L25.0548 14.3277L25.0556 14.329ZM26.2999 25.3033C26.2999 26.8098 25.156 28.0355 23.7499 28.0355H15.2501C13.844 28.0355 12.7001 26.8098 12.7001 25.3033V12.553C12.7001 11.0465 13.844 9.82079 15.2501 9.82079H19.0878C19.2265 9.82079 19.3639 9.82805 19.5002 9.84171V14.3747C19.5002 15.8813 20.6441 17.1069 22.0502 17.1069H26.2808C26.2935 17.2525 26.3003 17.4002 26.3003 17.5488L26.2999 25.3033ZM22.4749 19.8388H16.5251C15.3537 19.8388 14.4002 20.8608 14.4002 22.1155V23.9371C14.4002 25.1923 15.3541 26.2139 16.5251 26.2139H22.4749C23.6463 26.2139 24.5998 25.1918 24.5998 23.9371V22.1155C24.5998 20.8608 23.6463 19.8388 22.4749 19.8388ZM22.9 23.9371C22.9 24.1886 22.7096 24.3926 22.4749 24.3926H16.5251C16.2904 24.3926 16.1 24.1886 16.1 23.9371V22.1155C16.1 21.864 16.2904 21.66 16.5251 21.66H22.4749C22.7096 21.66 22.9 21.864 22.9 22.1155V23.9371ZM14.3998 17.1065C14.3998 16.6036 14.7807 16.1959 15.2497 16.1959H16.9498C17.4192 16.1959 17.7997 16.604 17.7997 17.1065C17.7997 17.609 17.4188 18.0171 16.9498 18.0171H15.2497C14.7807 18.0175 14.3998 17.6094 14.3998 17.1065ZM14.3998 13.4636C14.3998 12.9607 14.7807 12.553 15.2497 12.553H16.9498C17.4192 12.553 17.7997 12.9612 17.7997 13.4636C17.7997 13.9661 17.4188 14.3743 16.9498 14.3743H15.2497C14.7807 14.3743 14.3998 13.9661 14.3998 13.4636Z" fill="white"/>
</g>
<defs>
<clipPath id="clip0_1031_5571">
<rect width="38" height="38" fill="white"/>
</clipPath>
</defs>
</svg>
