<svg width="73" height="96" viewBox="0 0 73 96" fill="none" xmlns="http://www.w3.org/2000/svg">
<g clip-path="url(#clip0_832_4678)">
<path d="M71.0004 20.13C65.7904 14.96 60.6204 9.76 55.4204 4.58C53.8504 3.02 52.2304 1.52 50.6304 0H6.76044C6.12044 0.22 5.45044 0.38 4.84044 0.67C1.69044 2.16 0.0304369 4.67 0.0204369 8.16C-0.00956314 16.13 0.0104369 24.1 0.0104369 32.06V87.18C0.0104369 91.89 2.06044 94.59 6.62044 95.88C6.67044 95.89 6.71044 95.96 6.76044 96H65.2604C65.3104 95.95 65.3404 95.89 65.4004 95.88C69.9704 94.59 72.0104 91.9 72.0104 87.18C72.0104 65.66 72.0104 44.14 72.0304 22.63C72.0304 21.61 71.7204 20.84 71.0004 20.13ZM48.0104 16.02C48.0404 19.67 50.3904 22.74 53.9004 23.68C54.7004 23.9 55.5604 23.98 56.3904 23.99C59.8904 24.02 63.3904 24 66.8904 24H68.0204V87.31C68.0204 90.47 66.4604 92.01 63.2904 92.01H8.74044C5.52044 92.01 3.99044 90.47 3.99044 87.23V8.78C3.99044 5.49 5.51044 3.98 8.81044 3.98H48.0104C48.0104 8.09 47.9904 12.05 48.0104 16.02ZM59.6004 20.01C58.4404 20.01 57.2804 20.04 56.1304 20.01C53.8304 19.94 52.1104 18.44 52.0304 16.2C51.9304 13.18 52.0104 10.16 52.0104 7.34C56.2004 11.53 60.4704 15.8 64.6804 20.01H59.6004Z" fill="#0D257B"/>
<path d="M58.11 44.1494C57.85 44.1294 57.57 44.1294 57.31 44.1394H14.47C14.29 44.1394 14.1 44.1394 13.91 44.1494C12.9 44.2294 12.15 44.9894 12.14 45.9694C12.12 46.9394 12.86 47.7494 13.86 47.8594C14.06 47.8794 14.27 47.8794 14.47 47.8694H57.52C57.72 47.8694 57.94 47.8794 58.14 47.8594C59.14 47.7594 59.88 46.9494 59.88 45.9794C59.87 44.9994 59.13 44.2294 58.11 44.1494Z" fill="#F5C86F"/>
<path d="M57.2903 56.1403C43.1203 56.1303 28.9403 56.1303 14.7703 56.1403H14.4703C14.2303 56.1403 13.9903 56.1403 13.7503 56.1703C12.9103 56.2703 12.2503 56.9303 12.1503 57.7803C12.0503 58.6103 12.5103 59.4103 13.2503 59.6803C13.6003 59.8103 14.0203 59.8603 14.5803 59.8603C20.2003 59.8703 25.8203 59.8703 31.4403 59.8703H57.3003C58.4803 59.8703 59.8803 59.5403 59.8803 57.9903C59.8803 56.4603 58.4703 56.1403 57.2903 56.1403Z" fill="#F5C86F"/>
<path d="M58.1107 68.1509C57.8407 68.1309 57.5707 68.1309 57.3007 68.1409H19.0607C18.6407 68.1409 18.2207 68.1409 17.7907 68.1309H16.5407C15.6707 68.1309 14.7807 68.1409 13.9107 68.1609C12.9107 68.1909 12.1507 68.9709 12.1407 69.9809C12.1307 70.9409 12.8707 71.7509 13.8707 71.8609C14.0707 71.8809 14.2807 71.8709 14.4807 71.8709H57.5307C57.7307 71.8809 57.9407 71.8809 58.1507 71.8609C59.1407 71.7509 59.8907 70.9509 59.8807 69.9809C59.8707 69.0009 59.1207 68.2309 58.1107 68.1509Z" fill="#F5C86F"/>
<path d="M17.8403 27.8505C19.2703 27.9805 20.1803 28.8705 20.1303 30.0805C20.0703 31.3005 19.1103 32.1105 17.6803 32.1405H16.0603C15.3903 32.1405 14.7003 32.1305 14.0303 32.1505C12.9403 32.1805 12.1703 32.9205 12.1403 33.9505C12.1103 34.9905 12.9203 35.8105 14.0203 35.8705C14.4403 35.8905 14.8603 35.8805 15.3003 35.8705H16.0003L16.0303 35.9505C16.0603 36.0205 16.0803 36.0805 16.1003 36.1305C16.1303 36.2105 16.1503 36.2705 16.1703 36.3405C16.5103 37.3605 17.1703 37.9105 18.0603 37.8705C19.1903 37.8305 19.6903 36.9105 19.9003 36.1405C19.9903 35.8005 20.3103 35.4205 20.6503 35.2305C23.0903 33.9005 24.3003 31.3705 23.7303 28.7605C23.1603 26.1605 20.9703 24.3005 18.2703 24.1305C16.7503 24.0405 15.8403 23.1905 15.8803 21.9305C15.9303 20.6605 16.8803 19.9005 18.4103 19.8905C18.8303 19.8905 19.2403 19.8905 19.6603 19.9005C20.4203 19.9005 21.2003 19.9105 21.9703 19.8705C23.1003 19.8205 23.8903 19.0405 23.8703 17.9705C23.8603 16.9605 23.1103 16.2105 22.0003 16.1205C21.8303 16.1105 21.6503 16.1205 21.4803 16.1205C21.2103 16.1305 20.9403 16.1405 20.6803 16.0805C20.3603 16.0105 19.9503 15.7805 19.8103 15.4805C19.3503 14.5005 18.7703 14.1105 17.8503 14.1605C16.9903 14.2205 16.3903 14.7805 16.1303 15.7805C16.0503 16.1005 15.8203 16.5205 15.5103 16.6905C12.9803 18.0805 11.7303 20.5305 12.2403 23.0605C12.8003 25.8405 14.8403 27.5805 17.8403 27.8505Z" fill="#F5C86F"/>
<path d="M37.6105 80.1406H14.1005C14.1005 80.1406 14.1005 80.1406 14.0905 80.1406C13.2205 80.1406 12.6305 80.5106 12.2905 81.2806C12.0405 81.8606 12.0805 82.4806 12.4105 82.9706C12.7705 83.5306 13.4505 83.8606 14.2105 83.8606C16.9605 83.8806 19.7605 83.8706 22.4605 83.8706H37.7205C38.4605 83.8706 39.0505 83.6406 39.4205 83.2306C39.7605 82.8506 39.9005 82.3506 39.8405 81.7706C39.7105 80.4306 38.5605 80.1406 37.6105 80.1406Z" fill="#F5C86F"/>
<path d="M34.2008 32.1492C33.4908 32.1492 32.9008 32.3992 32.5308 32.8492C32.2008 33.2592 32.0808 33.8092 32.2008 34.4092C32.3808 35.3192 33.1708 35.8692 34.3208 35.8692C37.3408 35.8792 40.3608 35.8692 43.3808 35.8692H52.8608C54.4908 35.8692 56.1108 35.8692 57.7308 35.8792C57.7408 35.8792 57.7408 35.8792 57.7408 35.8792C58.6708 35.8792 59.2808 35.5592 59.6608 34.8692C59.9708 34.2792 59.9808 33.6392 59.6608 33.1092C59.3108 32.5092 58.6108 32.1492 57.8008 32.1392C55.0708 32.1292 52.3008 32.1392 49.6108 32.1392H42.8208C39.9908 32.1392 37.0708 32.1292 34.2008 32.1492Z" fill="#F5C86F"/>
</g>
<defs>
<clipPath id="clip0_832_4678">
<rect width="72.03" height="96" fill="white"/>
</clipPath>
</defs>
</svg>
