<svg width="38" height="38" viewBox="0 0 38 38" fill="none" xmlns="http://www.w3.org/2000/svg">
<circle cx="19" cy="19" r="18" stroke="white" stroke-width="2"/>
<path d="M22.7501 17.5294C19.8557 17.5294 17.5002 19.8845 17.5002 22.7793C17.5002 25.6579 19.8561 28 22.7501 28C25.6442 28 28 25.6449 28 22.7501C28 19.8715 25.6442 17.5294 22.7501 17.5294ZM22.7501 26.4999C20.6822 26.4999 19 24.8307 19 22.7793C19 20.7114 20.6822 19.0292 22.7501 19.0292C24.818 19.0292 26.5002 20.6987 26.5002 22.7498C26.4999 24.8177 24.8177 26.4999 22.7501 26.4999ZM28 15.2499V16.75C28 17.1641 27.6646 17.4999 27.2501 17.4999C26.8353 17.4999 26.5002 17.1638 26.5002 16.75V15.2499C26.5002 14.0092 25.4909 12.9999 24.2502 12.9999H13.7501C12.5095 12.9999 11.5001 14.0092 11.5001 15.2499V15.9998H18.2501C18.6643 15.9998 19 16.3359 19 16.7496C19 17.1634 18.6639 17.4995 18.2501 17.4995H11.5001V24.2495C11.5001 25.4902 12.5095 26.4995 13.7501 26.4995H16.75C17.1641 26.4995 17.4999 26.8356 17.4999 27.2494C17.4999 27.6632 17.1641 28 16.75 28H13.7501C11.6822 28 10 26.3178 10 24.2499V15.2499C10 13.1823 11.6822 11.5001 13.7501 11.5001H14.5V10.7499C14.5 10.3361 14.8361 10 15.2499 10C15.6637 10 15.9998 10.3361 15.9998 10.7499V11.4998H21.9999V10.7499C21.9999 10.3361 22.3353 10 22.7501 10C23.1646 10 23.5 10.3361 23.5 10.7499V11.4998H24.2499C26.3178 11.5001 28 13.1823 28 15.2499Z" fill="white" stroke="white" stroke-width="0.5"/>
<path d="M24.797 21.1971C24.5271 20.9344 24.0883 20.9344 23.8189 21.1966L22.5439 22.4323L22.1816 22.0797C21.9117 21.817 21.4729 21.817 21.2024 22.0797C20.9325 22.3424 20.9325 22.7696 21.2024 23.0328L21.9511 23.7615C22.1093 23.9154 22.3193 24 22.5428 24C22.7663 24 22.9762 23.9154 23.1333 23.762L24.797 22.1496C24.9277 22.0225 25 21.8533 25 21.6731C25 21.4934 24.9277 21.3242 24.797 21.1971Z" fill="white"/>
</svg>
