<svg width="30" height="30" viewBox="0 0 30 30" fill="none" xmlns="http://www.w3.org/2000/svg">
<circle cx="15" cy="15" r="14" stroke="#0D257B" stroke-width="2"/>
<path d="M17.9565 13.8349C15.6714 13.8349 13.8119 15.6942 13.8119 17.9795C13.8119 20.2521 15.6717 22.1012 17.9565 22.1012C20.2413 22.1012 22.1012 20.2418 22.1012 17.9565C22.1012 15.6839 20.2413 13.8349 17.9565 13.8349ZM17.9565 20.9168C16.324 20.9168 14.9959 19.599 14.9959 17.9795C14.9959 16.347 16.324 15.0189 17.9565 15.0189C19.5891 15.0189 20.9171 16.337 20.9171 17.9562C20.9169 19.5888 19.5888 20.9168 17.9565 20.9168ZM22.1012 12.0353V13.2196C22.1012 13.5465 21.8364 13.8116 21.5091 13.8116C21.1816 13.8116 20.9171 13.5462 20.9171 13.2196V12.0353C20.9171 11.0558 20.1203 10.259 19.1408 10.259H10.8512C9.87177 10.259 9.07493 11.0558 9.07493 12.0353V12.6273H14.4039C14.7308 12.6273 14.9959 12.8926 14.9959 13.2193C14.9959 13.546 14.7306 13.8113 14.4039 13.8113H9.07493V19.1403C9.07493 20.1197 9.87177 20.9166 10.8512 20.9166H13.2196C13.5465 20.9166 13.8116 21.1819 13.8116 21.5086C13.8116 21.8353 13.5465 22.1012 13.2196 22.1012H10.8512C9.2187 22.1012 7.89062 20.7731 7.89062 19.1405V12.0353C7.89062 10.403 9.2187 9.07493 10.8512 9.07493H11.4433V8.48264C11.4433 8.15596 11.7086 7.89062 12.0353 7.89062C12.3619 7.89062 12.6273 8.15596 12.6273 8.48264V9.07465H17.3642V8.48264C17.3642 8.15596 17.629 7.89062 17.9565 7.89062C18.2837 7.89062 18.5485 8.15596 18.5485 8.48264V9.07465H19.1405C20.7731 9.07493 22.1012 10.403 22.1012 12.0353Z" fill="#F5C86F" stroke="#F5C86F" stroke-width="0.5"/>
<path d="M19.5758 16.7337C19.3627 16.5263 19.0162 16.5263 18.8036 16.7333L17.797 17.7089L17.511 17.4305C17.2979 17.2232 16.9514 17.2232 16.7379 17.4305C16.5249 17.6379 16.5249 17.9751 16.7379 18.1829L17.329 18.7582C17.4539 18.8798 17.6197 18.9465 17.7961 18.9465C17.9725 18.9465 18.1383 18.8798 18.2623 18.7587L19.5758 17.4857C19.6789 17.3853 19.736 17.2518 19.736 17.1095C19.736 16.9677 19.6789 16.8341 19.5758 16.7337Z" fill="#F5C86F"/>
</svg>
