<svg width="20" height="10" viewBox="0 0 20 10" fill="none" xmlns="http://www.w3.org/2000/svg">
<path d="M1.24988 0.00662119C1.58138 0.0062256 1.89922 0.139933 2.13272 0.378076L8.52424 6.85262C9.33758 7.67662 10.6558 7.67702 11.4691 6.85302L17.8517 0.386383C18.3312 -0.116406 19.1222 -0.130251 19.6185 0.355132C20.1148 0.840911 20.1285 1.64237 19.6494 2.14516C19.6392 2.15584 19.6291 2.16612 19.6185 2.17641L13.2368 8.64225C11.4465 10.4524 8.54767 10.4524 6.75778 8.64225L0.366256 2.1677C-0.121825 1.67362 -0.122215 0.872162 0.365866 0.37768C0.600145 0.139933 0.918373 0.00662119 1.24988 0.00662119Z" fill="#323232"/>
</svg>
