<svg width="38" height="38" viewBox="0 0 38 38" fill="none" xmlns="http://www.w3.org/2000/svg">
<g clip-path="url(#clip0_480_8276)">
<g clip-path="url(#clip1_480_8276)">
<circle cx="19" cy="19" r="18" stroke="#F5C86F" stroke-width="2"/>
</g>
<g clip-path="url(#clip2_480_8276)">
<path d="M19.2293 18.4818C22.6225 18.4818 25.3821 15.9069 25.3821 12.7409C25.3821 9.57489 22.6225 7 19.2293 7C15.8361 7 13.0764 9.57489 13.0764 12.7409C13.0764 15.9069 15.8361 18.4818 19.2293 18.4818ZM19.2293 8.91379C21.4914 8.91379 23.331 10.6302 23.331 12.7409C23.331 14.8516 21.4914 16.568 19.2293 16.568C16.9671 16.568 15.1275 14.8516 15.1275 12.7409C15.1275 10.6302 16.9671 8.91379 19.2293 8.91379Z" fill="#F5C86F"/>
<path d="M26.9747 28.0864H25.2682C25.26 28.0864 25.2519 28.0859 25.2437 28.0859L21.5342 28.0864L21.465 28.0859C21.4568 28.0859 21.4486 28.0864 21.4405 28.0864H20.4296C19.8821 28.0855 19.4042 28.5318 19.4042 29.0431C19.4033 29.2983 19.51 29.5382 19.7047 29.7194C19.8989 29.9006 20.1556 29.9997 20.4296 29.9997L21.5347 29.9993L26.9756 29.9997C27.2496 29.9997 27.5063 29.9011 27.7005 29.7194C27.8947 29.5382 28.0014 29.2978 28.0009 29.0431C28 28.5318 27.5222 28.0859 26.9747 28.0864Z" fill="#F5C86F"/>
<path d="M25.9931 24.8676H24.2867C24.2785 24.8676 24.2703 24.8672 24.2621 24.8672L20.2642 24.8676L20.195 24.8672C20.1868 24.8672 20.1787 24.8676 20.1705 24.8676H19.1596C18.6121 24.8667 18.1343 25.313 18.1343 25.8243C18.1333 26.0795 18.24 26.3195 18.4347 26.5007C18.6289 26.6819 18.8856 26.781 19.1596 26.781L20.2647 26.7805L25.9941 26.781C26.2681 26.781 26.5248 26.6823 26.719 26.5007C26.9132 26.3195 27.0199 26.0791 27.0194 25.8243C27.0184 25.3126 26.5406 24.8667 25.9931 24.8676Z" fill="#F5C86F"/>
<path d="M24.6597 23.2055C24.3511 23.6298 23.7401 23.7495 23.2762 23.484C23.1109 23.3777 22.9407 23.2782 22.7657 23.1853C22.7263 23.1638 22.6864 23.1432 22.646 23.123C22.5821 23.0902 22.5177 23.0584 22.4528 23.0279C22.4254 23.0149 22.398 23.0023 22.3706 22.9898C22.3235 22.9682 22.2764 22.9472 22.2288 22.9265C21.4756 22.6009 20.6521 22.3937 19.7864 22.3305C19.7782 22.33 19.7705 22.3296 19.7629 22.3291C19.7138 22.3255 19.6648 22.3228 19.6158 22.3201C19.5908 22.3188 19.5663 22.3179 19.5413 22.317C19.5023 22.3152 19.4634 22.3139 19.4245 22.313C19.3711 22.3116 19.3177 22.3107 19.2644 22.3103C19.2514 22.3103 19.2384 22.3098 19.2254 22.3098C19.212 22.3098 19.199 22.3103 19.186 22.3103C19.1327 22.3107 19.0793 22.3116 19.026 22.313C18.987 22.3139 18.9481 22.3152 18.9091 22.317C18.8846 22.3179 18.8596 22.3188 18.8351 22.3201C18.7856 22.3228 18.7366 22.3255 18.6875 22.3291C18.6799 22.3296 18.6722 22.33 18.6645 22.3305C14.9689 22.6005 12.0511 25.492 12.0511 29.0079C12.0511 29.0662 12.0453 29.1231 12.0348 29.1783C11.9487 29.625 11.5291 29.9645 11.0253 29.9645C10.4595 29.9645 10 29.5358 10 29.0079C10 25.0345 12.9005 21.681 16.8292 20.6925C16.8571 20.6831 16.885 20.675 16.9138 20.6683C17.4272 20.544 17.9531 20.4638 18.4847 20.4243C18.5054 20.4229 18.5256 20.4212 18.5462 20.4198C18.6029 20.4162 18.6592 20.4126 18.7159 20.4099C18.7539 20.4081 18.7923 20.4064 18.8303 20.405C18.8755 20.4032 18.9212 20.4014 18.9664 20.4001C19.0394 20.3983 19.1125 20.3974 19.186 20.3969C19.1976 20.3969 19.2096 20.3965 19.2211 20.3965H19.2293C19.2413 20.3965 19.2528 20.3969 19.2644 20.3969C19.3379 20.3974 19.411 20.3983 19.4841 20.4001C19.5292 20.4014 19.5749 20.4032 19.6201 20.405C19.6585 20.4064 19.6965 20.4081 19.7345 20.4099C19.7912 20.4126 19.8475 20.4162 19.9042 20.4198C19.9249 20.4212 19.9455 20.4229 19.9662 20.4243C20.2983 20.449 20.6281 20.4898 20.954 20.5467C20.9877 20.5517 21.0208 20.5579 21.054 20.5647C21.1093 20.575 21.1646 20.5858 21.2198 20.5974C21.3261 20.6189 21.4313 20.6427 21.5366 20.6683C21.5409 20.6692 21.5453 20.6705 21.5496 20.6719C21.5597 20.6741 21.5698 20.6768 21.5794 20.6795C21.5933 20.6835 21.6078 20.6876 21.6212 20.6925C22.4192 20.893 23.1748 21.1912 23.8723 21.5729C23.9257 21.6021 23.979 21.6321 24.0319 21.6622C24.079 21.6891 24.1261 21.7164 24.1727 21.7443C24.1833 21.7505 24.1939 21.7568 24.2045 21.7635C24.2328 21.7806 24.2617 21.7981 24.29 21.8156C24.3174 21.8322 24.3448 21.8492 24.3717 21.8662C24.377 21.8694 24.3823 21.873 24.3876 21.8761C24.391 21.8784 24.3943 21.8806 24.3977 21.8828C24.8577 22.182 24.9755 22.7713 24.6597 23.2055Z" fill="#F5C86F"/>
</g>
</g>
<defs>
<clipPath id="clip0_480_8276">
<rect width="38" height="38" fill="white"/>
</clipPath>
<clipPath id="clip1_480_8276">
<rect width="38" height="38" fill="white"/>
</clipPath>
<clipPath id="clip2_480_8276">
<rect width="18" height="23" fill="white" transform="translate(10 7)"/>
</clipPath>
</defs>
</svg>
