<svg width="30" height="30" viewBox="0 0 30 30" fill="none" xmlns="http://www.w3.org/2000/svg">
<circle cx="15" cy="15" r="14" stroke="#0D257B" stroke-width="2"/>
<path d="M15.0025 14.2076C17.6148 14.2076 19.7393 12.2601 19.7393 9.86554C19.7393 7.47094 17.6148 5.52344 15.0025 5.52344C12.3902 5.52344 10.2656 7.47094 10.2656 9.86554C10.2656 12.2601 12.3902 14.2076 15.0025 14.2076ZM15.0025 6.97092C16.744 6.97092 18.1602 8.26914 18.1602 9.86554C18.1602 11.4619 16.744 12.7602 15.0025 12.7602C13.2609 12.7602 11.8447 11.4619 11.8447 9.86554C11.8447 8.26914 13.2609 6.97092 15.0025 6.97092Z" fill="#F5C86F"/>
<path d="M21.257 22.1019H19.8466C19.8399 22.1019 19.8331 22.1016 19.8264 22.1016L16.7604 22.1019L16.7032 22.1016C16.6965 22.1016 16.6897 22.1019 16.683 22.1019H15.8474C15.3949 22.1012 15 22.4694 15 22.8912C14.9992 23.1018 15.0874 23.2997 15.2483 23.4492C15.4088 23.5987 15.621 23.6805 15.8474 23.6805L16.7608 23.6801L21.2578 23.6805C21.4843 23.6805 21.6964 23.5991 21.857 23.4492C22.0175 23.2997 22.1057 23.1014 22.1053 22.8912C22.1045 22.4694 21.7096 22.1016 21.257 22.1019Z" fill="#F5C86F"/>
<path d="M20.5033 19.7347H19.1387C19.1322 19.7347 19.1256 19.7344 19.1191 19.7344L15.922 19.7347L15.8667 19.7344C15.8601 19.7344 15.8536 19.7347 15.8471 19.7347H15.0387C14.6008 19.734 14.2188 20.1022 14.2188 20.524C14.218 20.7346 14.3033 20.9326 14.459 21.082C14.6143 21.2315 14.8196 21.3133 15.0387 21.3133L15.9224 21.313L20.5041 21.3133C20.7232 21.3133 20.9285 21.2319 21.0838 21.082C21.2391 20.9326 21.3244 20.7342 21.324 20.524C21.3232 20.1018 20.9411 19.734 20.5033 19.7347Z" fill="#F5C86F"/>
<path d="M19.5991 18.099C19.3528 18.4491 18.8651 18.5479 18.4949 18.3288C18.3629 18.2411 18.2271 18.159 18.0875 18.0824C18.056 18.0646 18.0242 18.0476 17.9919 18.0309C17.9409 18.0039 17.8895 17.9776 17.8377 17.9525C17.8158 17.9417 17.794 17.9314 17.7721 17.921C17.7345 17.9032 17.6969 17.8858 17.6589 17.8688C17.0577 17.6002 16.4005 17.4292 15.7095 17.377C15.703 17.3766 15.6968 17.3763 15.6907 17.3759C15.6516 17.3729 15.6124 17.3707 15.5733 17.3685C15.5533 17.3674 15.5338 17.3666 15.5138 17.3659C15.4827 17.3644 15.4517 17.3633 15.4206 17.3626C15.378 17.3615 15.3354 17.3607 15.2928 17.3603C15.2825 17.3603 15.2721 17.36 15.2618 17.36C15.251 17.36 15.2407 17.3603 15.2303 17.3603C15.1877 17.3607 15.1451 17.3615 15.1025 17.3626C15.0715 17.3633 15.0404 17.3644 15.0093 17.3659C14.9897 17.3666 14.9698 17.3674 14.9502 17.3685C14.9107 17.3707 14.8716 17.3729 14.8324 17.3759C14.8263 17.3763 14.8202 17.3766 14.814 17.377C11.8644 17.5998 9.53554 19.9856 9.53554 22.8866C9.53554 22.9347 9.53094 22.9817 9.5225 23.0273C9.45382 23.3958 9.11888 23.676 8.7168 23.676C8.26522 23.676 7.89844 23.3222 7.89844 22.8866C7.89844 19.6082 10.2135 16.8411 13.3492 16.0255C13.3714 16.0177 13.3937 16.0111 13.4167 16.0055C13.8265 15.903 14.2462 15.8368 14.6705 15.8042C14.687 15.8031 14.7031 15.8016 14.7196 15.8005C14.7649 15.7975 14.8098 15.7946 14.8551 15.7924C14.8854 15.7909 14.9161 15.7894 14.9464 15.7883C14.9824 15.7868 15.0189 15.7853 15.055 15.7842C15.1133 15.7827 15.1716 15.782 15.2303 15.7816C15.2395 15.7816 15.2491 15.7812 15.2583 15.7812H15.2648C15.2744 15.7812 15.2836 15.7816 15.2928 15.7816C15.3515 15.782 15.4099 15.7827 15.4682 15.7842C15.5042 15.7853 15.5407 15.7868 15.5767 15.7883C15.6074 15.7894 15.6377 15.7909 15.6681 15.7924C15.7133 15.7946 15.7582 15.7975 15.8035 15.8005C15.82 15.8016 15.8365 15.8031 15.853 15.8042C16.1181 15.8245 16.3813 15.8582 16.6414 15.9052C16.6683 15.9093 16.6947 15.9145 16.7212 15.92C16.7653 15.9285 16.8095 15.9374 16.8536 15.947C16.9384 15.9648 17.0224 15.9844 17.1064 16.0055C17.1099 16.0063 17.1133 16.0074 17.1168 16.0085C17.1248 16.0103 17.1329 16.0125 17.1406 16.0148C17.1517 16.0181 17.1632 16.0214 17.1739 16.0255C17.8108 16.1909 18.414 16.437 18.9707 16.7519C19.0132 16.776 19.0558 16.8008 19.098 16.8256C19.1356 16.8478 19.1732 16.8704 19.2104 16.8933C19.2189 16.8985 19.2273 16.9037 19.2358 16.9092C19.2584 16.9233 19.2814 16.9377 19.3041 16.9522C19.3259 16.9658 19.3478 16.9799 19.3693 16.994C19.3735 16.9966 19.3777 16.9995 19.3819 17.0021C19.3846 17.004 19.3873 17.0058 19.39 17.0077C19.7572 17.2545 19.8512 17.7408 19.5991 18.099Z" fill="#F5C86F"/>
</svg>
