<svg width="28" height="10" viewBox="0 0 28 10" fill="none" xmlns="http://www.w3.org/2000/svg">
<g clip-path="url(#clip0_727_9273)">
<path fill-rule="evenodd" clip-rule="evenodd" d="M19.9002 6.94626C19.9102 5.56626 18.7702 4.97626 17.8602 4.49626C17.2502 4.17626 16.7402 3.90626 16.7502 3.49626C16.7602 3.18626 17.0602 2.84626 17.7002 2.76626C18.4602 2.69626 19.2302 2.82626 19.9202 3.15626L20.3202 1.30626C19.6502 1.04626 18.9302 0.91626 18.2102 0.91626C15.9902 0.91626 14.4202 2.09626 14.4102 3.79626C14.4002 5.04626 15.5302 5.74626 16.3802 6.16626C17.2602 6.59626 17.5502 6.86626 17.5502 7.24626C17.5502 7.83626 16.8502 8.08626 16.2002 8.09626C15.1002 8.11626 14.4502 7.80626 13.9302 7.56626L13.8902 7.54626L13.4802 9.45626C14.0102 9.69626 14.9802 9.90626 15.9802 9.91626C18.3502 9.91626 19.9002 8.74626 19.9002 6.94626ZM10.5702 1.07626L6.92023 9.78626H4.54023L2.74023 2.83626C2.63023 2.40626 2.54023 2.25626 2.20023 2.07626C1.67023 1.77626 0.780234 1.50626 -0.00976562 1.32626L0.0402344 1.06626H3.87023C4.39023 1.06626 4.82023 1.44626 4.90023 1.95626L5.85023 6.98626L8.19023 1.06626C8.20023 1.06626 10.5702 1.07626 10.5702 1.07626ZM27.8602 9.77626H25.7802L25.5102 8.48626H22.6202L22.1502 9.78626H19.7902L23.1702 1.71626C23.3302 1.32626 23.7102 1.06626 24.1302 1.07626H26.0502L27.8602 9.77626ZM23.2702 6.69626L24.4602 3.42626L25.1402 6.70626C25.1302 6.69626 23.2702 6.69626 23.2702 6.69626ZM11.9302 9.77626L13.7902 1.06626H11.5302L9.67023 9.76626L11.9302 9.77626Z" fill="#122D98"/>
</g>
<defs>
<clipPath id="clip0_727_9273">
<rect width="27.87" height="9" fill="white" transform="translate(-0.00976562 0.91626)"/>
</clipPath>
</defs>
</svg>
