<svg width="100" height="100" viewBox="0 0 100 100" fill="none" xmlns="http://www.w3.org/2000/svg">
<rect width="100" height="100" rx="12" fill="#0D257B" fill-opacity="0.05"/>
<path d="M33.3657 67.2656L28.8828 62.7577" stroke="#0D257B" stroke-width="3" stroke-miterlimit="10" stroke-linecap="round" stroke-linejoin="round"/>
<path d="M66.6445 67.2656L71.1274 62.7577" stroke="#0D257B" stroke-width="3" stroke-miterlimit="10" stroke-linecap="round" stroke-linejoin="round"/>
<mask id="mask0_4889_20392" style="mask-type:luminance" maskUnits="userSpaceOnUse" x="20" y="20" width="61" height="61">
<path d="M20.0117 20.0352H80.0117V80.0352H20.0117V20.0352Z" fill="white"/>
</mask>
<g mask="url(#mask0_4889_20392)">
<path d="M37.012 25.9096C41.558 21.8224 47.9572 19.9406 54.3668 21.4169C64.8174 23.8242 71.3379 34.2475 68.9306 44.6981C66.5235 55.1487 56.1002 61.6691 45.6496 59.2619C35.1989 56.8548 28.6785 46.4314 31.0858 35.9809C31.7306 33.1809 32.951 30.663 34.5931 28.5235" stroke="#CC922F" stroke-width="2.57143" stroke-miterlimit="10" stroke-linecap="round" stroke-linejoin="round"/>
<path d="M44.689 58.9961C45.9148 57.1919 48.1114 55.6435 49.2051 55.1589C51.0893 54.3239 54.8338 54.5692 55.7533 50.5777C56.1903 48.6809 53.4867 47.2414 51.2455 46.67C49.0044 46.0984 47.4912 38.9162 42.6007 40.13C41.0353 40.5183 36.765 36.972 37.2144 35.9548C38.3051 33.4861 36.0716 32.6243 37.2306 31.1731C37.8611 30.3838 38.6433 29.512 39.6594 30.3713C40.6755 31.2307 40.3017 33.0177 41.2116 33.1906C42.1214 33.3633 42.7419 31.2505 43.288 30.0568C45.2547 25.7573 50.8 27.1517 52.6054 25.4348C53.9781 24.1293 54.5377 22.5486 54.3161 21.3872" stroke="#CC922F" stroke-width="2.57143" stroke-miterlimit="10" stroke-linecap="round" stroke-linejoin="round"/>
<path d="M31.1523 35.7041C32.8893 38.5677 36.9338 40.9666 38.2379 41.8575C38.6644 42.1489 38.7952 42.7193 38.5329 43.1644C37.7898 44.4264 36.7683 46.9589 39.0454 48.8384C42.1982 51.4408 42.1961 52.6471 40.9141 55.3388C40.5902 56.0189 40.3468 56.5902 40.1615 57.0742" stroke="#CC922F" stroke-width="2.57143" stroke-miterlimit="10" stroke-linecap="round" stroke-linejoin="round"/>
<path d="M59.772 23.539C58.5652 26.6 62.2685 27.8593 61.8757 28.8675C61.7132 29.2844 61.8155 29.8152 61.9856 30.2856C62.2387 30.9865 62.037 31.7709 61.4584 32.2403C60.462 33.0483 59.1113 34.3656 58.8488 35.7355C58.2046 39.0988 59.355 40.5077 60.6028 41.5375C62.5355 43.1328 63.9986 42.574 64.7862 43.7453C66.4924 46.2829 58.584 53.0023 61.2453 56.1602" stroke="#CC922F" stroke-width="2.57143" stroke-miterlimit="10" stroke-linecap="round" stroke-linejoin="round"/>
<path d="M46.3041 70.2969L46.2267 69.4559C46.0393 67.4198 44.8011 65.6299 42.9619 64.7366L37.4783 62.0728L32.6041 56.9217C32.1409 56.4425 31.4 56.3271 30.8352 56.6808C30.2047 57.0752 29.9971 57.8873 30.3488 58.5327L31.9092 60.9577C29.6054 59.8344 27.5903 58.1973 26.0187 56.1727C25.7767 55.8608 25.572 55.5218 25.4085 55.1624L23.904 51.8521C23.6421 51.276 23.0162 50.9333 22.3988 51.071C21.662 51.2355 21.2138 51.9836 21.4157 52.7106L22.6207 57.0486C23.1299 58.6532 25.0467 62.41 26.2452 63.5919C28.865 66.1758 33.6012 68.7496 34.9753 70.235C35.0338 70.2983 35.0898 70.3673 35.1434 70.4414" stroke="#0D257B" stroke-width="2.57143" stroke-miterlimit="10" stroke-linecap="round" stroke-linejoin="round"/>
<path d="M64.8846 70.4258C64.9364 70.3546 64.9904 70.2883 65.0469 70.2274C66.421 68.7419 71.1571 66.1681 73.777 63.5843C74.9755 62.4023 76.8923 58.6455 77.4015 57.041L78.5952 52.7438C78.7844 52.0623 78.4293 51.3262 77.7587 51.1011C77.1091 50.8831 76.4135 51.1946 76.1363 51.8046L74.6136 55.1547C74.4502 55.5141 74.2455 55.853 74.0034 56.165C72.4319 58.1896 70.4168 59.8268 68.113 60.95L69.6734 58.525C70.0251 57.8797 69.8175 57.0676 69.187 56.6731C68.6221 56.3195 67.8813 56.4349 67.418 56.9141L62.5439 62.0652L57.0602 64.7289C55.2211 65.6223 53.9829 67.4122 53.7955 69.4483L53.7148 70.3258" stroke="#0D257B" stroke-width="2.57143" stroke-miterlimit="10" stroke-linecap="round" stroke-linejoin="round"/>
<path d="M36.139 73.8441H46.9023C47.542 73.8441 48.0607 74.3627 48.0607 75.0026V77.9899C48.0607 78.6298 47.542 79.1484 46.9023 79.1484H36.139C35.4991 79.1484 34.9805 78.6298 34.9805 77.9899V75.0026C34.9805 74.3627 35.4991 73.8441 36.139 73.8441Z" stroke="#0D257B" stroke-width="2.57143" stroke-miterlimit="10" stroke-linecap="round" stroke-linejoin="round"/>
<path d="M63.8787 73.8441H53.1154C52.4757 73.8441 51.957 74.3627 51.957 75.0026V77.9899C51.957 78.6298 52.4757 79.1484 53.1154 79.1484H63.8787C64.5186 79.1484 65.0373 78.6298 65.0373 77.9899V75.0026C65.0373 74.3627 64.5186 73.8441 63.8787 73.8441Z" stroke="#0D257B" stroke-width="2.57143" stroke-miterlimit="10" stroke-linecap="round" stroke-linejoin="round"/>
</g>
</svg>
