<svg width="138" height="141" viewBox="0 0 138 141" fill="none" xmlns="http://www.w3.org/2000/svg">
<g clip-path="url(#clip0_4889_20769)">
<path d="M71.694 49.8078C69.8282 48.164 67.3798 47.1719 64.6896 47.1719C58.8403 47.1719 54.1016 51.9106 54.1016 57.7599C54.1016 59.7936 54.6742 61.699 55.6713 63.3131C60.6306 67.0466 60.6971 66.8128 61.0912 67.7359C61.185 67.7704 61.2787 67.805 61.3775 67.8346C61.5354 67.573 61.8809 67.3854 62.1228 67.188C63.0239 66.4705 64.6036 65.5408 65.2573 65.1888C65.2622 65.1839 65.2721 65.1789 65.277 65.1789C67.9675 63.7333 69.361 66.2016 67.5378 67.9777C72.023 66.7321 75.2974 62.6248 75.2974 57.7599C75.2974 54.5909 73.9054 51.7427 71.694 49.8078ZM68.1005 61.4966C65.2669 63.7057 61.0899 62.2401 60.2421 58.7619H59.2352C59.1019 58.7619 58.9883 58.6534 58.9883 58.5151C58.9883 58.3819 59.1019 58.2683 59.2352 58.2683H60.1483C60.0803 57.8211 60.0845 57.306 60.1483 56.8862H59.013C58.8798 56.8862 58.7662 56.7727 58.7662 56.6394C58.7662 56.5012 58.8798 56.3926 59.013 56.3926H60.2471C61.0916 52.9356 65.2614 51.472 68.0857 53.658C68.1943 53.7419 68.214 53.8949 68.1301 54.0035C68.0462 54.1121 67.8932 54.1318 67.7846 54.0479C65.2787 52.1216 61.6041 53.3344 60.7555 56.3926H66.6937C66.8319 56.3926 66.9405 56.5012 66.9405 56.6394C66.9405 56.7727 66.8319 56.8862 66.6937 56.8862H60.6469C60.5725 57.3752 60.5784 57.7915 60.6419 58.2683H65.8298C65.9631 58.2683 66.0766 58.3819 66.0766 58.5151C66.0766 58.6534 65.9631 58.7619 65.8298 58.7619H60.7506C61.5946 61.8406 65.3038 63.0563 67.7994 61.1066C67.908 61.0227 68.061 61.0424 68.1449 61.151C68.2288 61.2547 68.2091 61.4127 68.1005 61.4966Z" fill="#006BFF"/>
<path d="M56.287 80.4214C54.0566 80.3746 50.2792 78.7126 48.7376 79.303C47.2007 79.9169 43.6819 78.539 43.5413 79.4714C43.3445 80.8959 40.4892 100.116 40.4892 100.116C35.3568 103.266 28.2433 106.684 22.9531 109.119C23.2155 113.721 25.0177 117.745 26.906 121.934C26.9435 122.023 27.929 124.3 27.9759 124.393C35.6155 122.435 36.9632 122.594 46.0598 118.895C51.5537 116.618 52.374 114.796 53.3713 111.619C61.9595 84.2617 60.733 87.8579 61.2524 86.5306C61.6629 85.4817 62.0807 83.6569 60.9328 83.0113C56.3363 80.4264 56.3363 80.4263 56.287 80.4214Z" fill="#00C0AD"/>
<path d="M99.8513 112.793C94.5794 114.353 89.4261 114.965 83.9322 114.555C82.5412 108.476 79.6754 98.8381 78.0088 94.1592C77.4735 92.6555 77.8139 92.0967 76.1824 91.5776C69.7706 89.5069 45.2898 85.537 45.2278 85.5259C42.9917 85.131 41.2789 84.7904 40.6026 84.5633C36.2835 82.8949 34.3337 76.626 35.622 73.2595C36.6734 72.4007 39.7092 77.1937 41.1505 76.7346V79.3359L54.567 79.331C57.4497 81.4536 60.7471 82.9542 64.0148 84.4301C64.6466 84.7164 65.2933 85.0076 65.9843 85.0965C66.6754 85.1804 67.4257 85.0323 67.9242 84.5485C68.4178 84.0598 68.556 83.1862 68.1019 82.658C68.8769 82.9344 69.8049 82.9097 70.4466 82.3914C71.0834 81.8781 71.2611 80.7971 70.6687 80.2245C71.6115 80.7428 72.9394 80.2886 73.3935 79.3261C90.616 79.3396 84.6759 79.3349 85.9609 79.3359C89.0289 80.8235 91.4446 83.067 92.9258 86.4736C93.9735 88.8949 94.3863 92.2095 94.6485 93.478C95.9863 99.9345 98.3753 106.307 99.8513 112.793Z" fill="#00C0AD"/>
<path d="M41.1497 71.2323V77.4814C39.7034 77.5456 38.0695 77.6246 37.8622 77.6443C37.8474 77.6493 37.8277 77.6493 37.8128 77.6493C35.0634 77.9109 32.7335 75.4675 32.8372 72.4663C32.9507 69.322 32.8866 66.1678 32.8224 63.0185C34.4474 66.7552 37.6649 68.3775 41.1497 71.2323ZM48.4659 36.8355C48.6436 38.0992 48.4857 39.5405 48.4462 40.666C48.3672 42.7096 48.1204 44.7432 47.7008 46.7424C47.7008 46.5745 47.454 46.4561 47.0591 46.3672C41.7402 45.1523 34.4985 46.8657 29.3976 51.333C29.368 46.693 29.3581 41.9247 31.0216 37.6599C32.6349 33.5114 34.3361 31.512 39.0231 31.2824C41.4587 31.1656 44.2786 31.8468 46.2249 33.3062C46.373 33.3555 46.526 33.4148 46.6692 33.474C48.387 34.1453 49.8826 35.2461 51.1512 36.5887H48.4314C48.4462 36.6726 48.4561 36.7516 48.4659 36.8355Z" fill="#FE9E93"/>
<path d="M106.795 47.1719C100.946 47.1719 96.207 51.9106 96.207 57.7599C96.207 62.0001 98.6948 65.6627 102.288 67.3607C109.228 70.6427 117.403 65.5905 117.403 57.7599C117.403 51.9152 112.665 47.1719 106.795 47.1719ZM113.656 56.1261L106.124 56.284L103.127 61.7977C103.083 61.8816 102.999 61.926 102.91 61.926C102.871 61.926 102.831 61.9211 102.797 61.8964C102.673 61.8323 102.629 61.6841 102.693 61.5657L105.758 55.9237C105.803 55.8447 105.882 55.7953 105.971 55.7953L113.646 55.6324C113.795 55.6423 113.893 55.741 113.898 55.8743C113.903 56.0125 113.795 56.1261 113.656 56.1261Z" fill="#FFB904"/>
<path d="M58.7323 94.5457C59.7966 91.1637 60.3444 89.1858 60.6821 88.1435C56.2346 87.3488 49.6942 86.327 45.227 85.5274L58.7323 94.5457ZM32.6344 21.2605C33.2056 21.5591 34.0223 21.5697 34.6655 21.2417C35.1978 24.9726 37.9238 28.0102 41.5924 28.9355C41.4759 29.7047 41.4421 30.1787 41.3028 31.3926C41.4657 31.4173 41.6286 31.4469 41.7914 31.4765C41.8956 30.5396 41.9473 29.933 42.0702 29.0912C43.1402 30.2451 44.3579 31.2331 45.9399 32.4832L46.1057 33.219C46.1451 33.2486 46.1846 33.2782 46.2241 33.3078C46.3722 33.3572 46.5252 33.4164 46.6684 33.4757L45.667 29.0379C48.4865 28.4741 50.9785 26.6212 52.2593 23.9147L53.7036 23.6626C54.1066 23.5942 54.2976 23.1266 54.0567 22.7934C53.7028 22.3053 53.3966 21.8839 53.0467 21.3965C53.3131 19.7471 53.1338 18.1699 52.5889 16.6952C53.5631 16.5576 55.1271 16.0597 54.9106 14.8222C54.8133 14.2659 54.1048 13.8579 53.6396 14.178C54.1435 13.9517 54.6413 13.6691 54.9807 13.2332C55.8916 12.0634 55.0427 10.6331 53.3813 10.9533C56.3541 9.20001 56.0522 6.36882 53.8206 5.27181C50.9279 3.84988 43.8844 6.39379 41.138 8.04593C38.8941 9.39581 36.933 11.3224 35.8593 13.7018C35.6015 14.2733 35.2213 13.6794 33.9333 14.0356C32.0531 14.5555 30.5604 17.017 31.3476 19.3463C31.4349 20.0233 31.8662 20.8633 32.6344 21.2605ZM53.6569 23.0829C53.6831 23.119 53.6646 23.1686 53.6205 23.1762L52.0526 23.4497C51.9778 23.4627 51.8968 23.532 51.8699 23.5907C50.1531 27.3599 45.9714 29.431 41.921 28.5129C38.2184 27.6739 35.478 24.5744 35.1017 20.7999C35.0821 20.6064 34.8396 20.5103 34.6925 20.6397C34.2618 21.0219 33.4068 21.1075 32.8619 20.8224C32.3606 20.5632 32.1309 20.1805 31.9229 19.6469C31.6631 18.9835 31.869 17.9525 32.6285 17.5037C33.3278 17.1591 34.5051 17.2711 34.7278 18.2345C34.7926 18.5148 34.9572 19.864 35.6008 19.4473C36.0309 19.1688 35.7623 18.5449 35.8436 18.1264C35.9676 17.4881 36.7506 17.2094 37.3986 17.2629C38.0466 17.3165 38.6787 17.5781 39.3263 17.5193C40.3035 17.4305 41.0898 16.6082 41.4312 15.6884C41.744 14.8455 41.351 12.8571 42.1982 12.5957C43.2107 12.2832 44.8029 12.8398 45.7113 13.2605C48.1507 14.3901 48.8442 16.8625 52.0797 16.7389C52.2551 17.1918 52.3947 17.6606 52.4935 18.1434L51.3513 17.8845C51.2187 17.8537 51.0861 17.9378 51.056 18.0708C51.0259 18.2036 51.1093 18.336 51.2423 18.3661C52.6252 18.6669 52.4834 18.6642 52.5836 18.6558C52.7267 19.653 52.6972 20.5333 52.5453 21.4186C52.5453 21.4188 52.5453 21.4191 52.5453 21.4193C52.5343 21.4843 52.5497 21.5503 52.5877 21.6035C52.5876 21.6034 52.5878 21.6037 52.5877 21.6035C52.9019 22.0426 53.2334 22.4992 53.6569 23.0829Z" fill="black"/>
<path d="M48.9551 17.3399L47.7755 17.0726C47.6432 17.0423 47.5104 17.1259 47.4803 17.2589C47.4501 17.3917 47.5335 17.5241 47.6666 17.5542C48.9046 17.8324 48.8479 17.8275 48.9008 17.8275C49.1931 17.8275 49.2411 17.4047 48.9551 17.3399ZM33.4354 18.4175C32.6131 18.6333 32.7963 19.7465 33.2187 19.7465C33.4216 19.7465 33.5423 19.509 33.411 19.3455C33.2842 19.1867 33.3639 18.9464 33.5607 18.8948C33.6925 18.8603 33.7713 18.7253 33.7366 18.5935C33.7022 18.4616 33.5672 18.3833 33.4354 18.4175ZM46.7483 23.2117C46.3612 23.5764 45.5906 22.7941 46.52 21.8786C46.6172 21.7829 46.6184 21.6265 46.5229 21.5294C46.427 21.4325 46.271 21.4308 46.1737 21.5267C44.7313 22.9476 46.2674 24.3448 47.0867 23.5709C47.186 23.4773 47.1905 23.3212 47.097 23.2221C47.0038 23.1228 46.8468 23.118 46.7483 23.2117ZM49.7073 91.3935C49.5837 91.3615 49.4554 91.4364 49.4234 91.5613L45.226 107.907C44.9984 108.792 44.347 109.499 43.4814 109.799L26.2059 115.931C25.9148 116.035 26.0716 116.474 26.3621 116.371L43.6357 110.239C44.6478 109.889 45.4111 109.061 45.6776 108.023L49.8751 91.6775C49.9071 91.5526 49.8319 91.4256 49.7073 91.3935ZM117.403 57.7597C117.403 65.5688 109.25 70.653 102.289 67.3605C109.233 72.2555 118.988 67.3188 118.988 58.6828C118.988 54.4476 116.5 50.7899 112.902 49.1017C115.626 51.012 117.403 54.1761 117.403 57.7597Z" fill="black"/>
<path d="M125.08 36.3435H107.071C107.096 34.8383 106.511 33.4005 105.428 32.3666C104.577 31.5462 103.543 30.9419 102.438 30.619C98.6023 29.51 93.969 31.8633 91.3686 34.8897C91.0918 35.2074 90.704 35.7724 90.7785 36.3452C81.7245 36.3445 60.4672 36.3424 48.3833 36.3419C48.403 36.4208 48.4178 36.5048 48.4326 36.5887C48.4474 36.6726 48.4573 36.7516 48.4672 36.8355H82.8564V48.4074C82.8564 48.5333 82.9515 48.6551 83.1212 48.6551C83.2307 48.6785 86.3555 48.484 88.9459 51.0748C90.5099 52.6388 91.3713 54.7138 91.3713 56.9175C91.3713 61.4887 87.6494 65.1741 83.1337 65.1838L83.1326 65.184C83.1227 65.1841 83.1132 65.1855 83.1033 65.1855C82.9669 65.1855 82.8565 65.2959 82.8565 65.4323V79.0939H73.8731C74.2251 78.052 73.5337 77.2596 72.632 76.6436C72.8423 76.5963 73.0482 76.5134 73.2264 76.3625C73.7853 75.8891 73.7663 75.0166 73.4245 74.4466C72.2304 72.4554 65.6782 71.3165 64.6211 71.0296C64.3606 70.9587 64.1078 70.89 63.8431 70.8486C64.6689 70.3064 65.4994 69.9143 66.4192 69.3344C72.0939 69.1201 76.618 64.4603 76.618 58.7471C76.618 54.9857 74.6584 51.6835 71.6967 49.8077C73.9081 51.7427 75.3001 54.5908 75.3001 57.7598C75.3001 62.3794 72.3467 66.3022 68.2148 67.7543C69.4731 65.9205 68.2021 63.7402 66.0923 64.4776C65.4383 64.7066 65.2531 64.8849 61.3085 67.6533C60.509 66.2633 61.951 67.8619 51.7941 60.0749L47.0998 56.4715C47.0997 56.4017 46.9806 51.639 47.3121 46.8312C47.5787 46.9596 47.8353 47.1126 48.0772 47.2952C48.1808 47.3742 48.329 47.3544 48.403 47.2508C48.482 47.1471 48.4622 47.004 48.3586 46.925C45.5261 44.7564 33.7984 45.8113 29.1865 51.4959C29.1076 51.5946 29.1224 51.7427 29.2211 51.8216C29.3363 51.9112 29.4806 51.8821 29.5518 51.7871C30.0899 51.1257 30.7266 50.5136 31.4523 49.9607C31.3889 52.2418 31.3481 57.626 31.6694 59.8873C32.655 66.112 36.8801 68.0481 40.904 71.3369V79.3423C40.904 79.4787 41.0144 79.5891 41.1508 79.5891C53.6555 79.5833 52.3778 79.5982 52.489 79.5822C53.0193 79.6638 53.6643 79.6301 54.4842 79.3455C56.735 81.5299 63.0332 84.149 64.2803 84.6546C64.8284 84.8769 65.3953 85.1066 66.0063 85.1979C67.7636 85.4599 68.9857 84.331 68.589 83.0856C69.0074 83.1673 69.1435 83.1668 69.4101 83.1495C69.5072 83.2314 68.7207 83.0097 81.4525 85.9239C82.7253 86.2119 83.7432 87.1692 84.1085 88.4221L90.8129 111.4C90.8442 111.508 90.9428 111.578 91.0498 111.578C91.2146 111.578 91.3326 111.42 91.2867 111.262L84.5824 88.2837C84.1669 86.8588 83.0093 85.7701 81.5617 85.4425L70.39 82.8974C71.4138 82.3909 71.6737 81.3452 71.214 80.4673C72.3569 80.5856 73.1599 80.1901 73.6162 79.5875C129.786 79.5828 68.9108 79.5842 125.08 79.5842C125.217 79.5842 125.327 79.4738 125.327 79.3374V36.5903C125.327 36.4539 125.217 36.3435 125.08 36.3435ZM41.3976 71.7169C41.4493 71.7557 45.1236 74.6033 51.305 79.0954H41.3976V71.7169ZM52.5313 79.1109C51.0075 78.6067 39.6605 69.7826 38.2049 68.6786C37.245 67.7483 33.0317 65.5822 32.1335 59.8182C31.804 57.5731 31.8495 52.0474 31.9311 49.6103C36.2204 46.6099 44.3077 45.7375 46.858 46.6436C46.559 50.6586 46.5681 54.3159 46.6704 58.3423C46.6704 58.4706 46.7741 58.5693 46.9024 58.5693H46.9073C47.0357 58.5693 47.1393 58.4608 47.1344 58.3324L47.1098 57.0683C49.9012 59.2019 55.397 63.4826 60.2053 66.951C60.6454 67.2791 60.8836 67.7397 61.0297 68.2689C61.033 68.32 61.3257 69.6622 60.9507 71.0282C60.9211 71.0529 60.8964 71.0924 60.8865 71.1319C59.7492 75.4888 55.3575 79.5834 52.5313 79.1109ZM70.5035 79.8373L70.5019 79.8366C68.1984 79.2151 65.8733 78.1775 63.7571 77.1227C63.6354 77.0624 63.4871 77.1118 63.4261 77.2335C63.3652 77.3555 63.4148 77.5037 63.5368 77.5645C68.0647 79.8212 70.4127 80.3252 70.3616 80.31C70.905 80.4715 71.088 81.4094 70.7838 81.9152C70.4833 82.4148 69.8096 82.704 69.0801 82.6611C68.1887 82.6044 67.888 82.3942 62.1335 79.7717C62.0089 79.7151 61.8631 79.7701 61.8065 79.8939C61.7501 80.0181 61.8048 80.1644 61.9287 80.221C66.8106 82.4432 67.335 82.7086 67.9528 82.9184C68.6238 83.8334 67.6894 84.9522 66.0791 84.7096C65.5264 84.6269 64.9872 84.4085 64.4659 84.1972C63.2627 83.7095 57.3012 81.2322 54.9889 79.1431C57.8609 77.8676 60.4382 74.4388 61.2864 71.4428C61.4933 71.2359 61.7817 69.2205 61.4757 68.1388C65.4987 65.3154 65.6772 65.1458 66.2553 64.9435C66.7265 64.7787 67.1933 64.7893 67.5373 64.9722C68.008 65.2224 68.2917 65.852 68.2117 66.4692C67.9454 68.5319 64.8074 69.4305 62.9605 70.8722C62.7688 71.0216 62.8864 71.3337 63.135 71.3126C63.8154 71.2493 64.3604 71.5002 65.0878 71.6558C67.3449 72.1393 69.6792 72.6394 71.7595 73.7069C72.2442 73.9556 72.7299 74.2482 73.0013 74.7004C73.2317 75.0853 73.2613 75.6859 72.9073 75.986C71.9017 76.8375 67.5776 74.8732 65.0297 74.2417C64.8988 74.2094 64.7638 74.2892 64.7308 74.422C64.698 74.5541 64.7788 74.6881 64.9111 74.7209C67.3506 75.3259 69.3031 76.3554 71.6601 76.6576C72.0578 76.8296 72.5379 77.147 72.9193 77.4924C73.3776 77.9081 73.6416 78.5277 73.3405 79.1029C73.225 79.1249 73.1381 79.2226 73.1381 79.3407C73.1381 79.3531 73.1432 79.3637 73.145 79.3757C72.4786 80.1249 71.4775 80.0842 70.5035 79.8373ZM91.742 35.2126C95.0581 31.3542 101.198 28.9777 105.087 32.7226C106.26 33.8438 106.742 35.4405 106.548 36.8769C106.326 38.6228 106.643 41.6201 105.661 42.1664C105.21 42.417 104.659 41.9592 104.441 41.4766C104.03 40.5595 104.219 39.268 104.24 37.4932C104.242 37.357 104.133 37.2452 103.997 37.2435C103.956 37.2356 103.92 37.2448 103.886 37.261C103.753 37.2719 103.652 37.3843 103.658 37.5175C103.735 39.096 103.664 40.6863 103.449 42.2447C103.341 43.0274 103.057 44.0577 102.302 43.8063C102.01 43.7094 101.721 43.4252 101.567 43.0825C101.227 42.3242 101.299 41.7535 101.37 37.3249C101.372 37.1888 101.263 37.0765 101.127 37.0743C100.999 37.0846 100.878 37.1808 100.876 37.3172C100.814 41.3397 100.771 41.8026 100.892 42.5094C100.862 42.5481 100.84 42.5931 100.837 42.645C100.816 43.043 100.794 43.4544 100.645 43.8114C100.494 44.1755 100.059 44.5761 99.6545 44.5923C99.2648 44.6043 98.8671 44.2223 98.6917 43.8318C98.3347 43.0362 98.2755 41.5606 98.2522 40.6864C98.4149 39.2796 98.4696 37.8535 98.401 36.4365C98.3942 36.3004 98.2749 36.188 98.1424 36.202C98.0064 36.2088 97.9013 36.3245 97.9079 36.4604C97.9843 38.0379 97.9136 39.6282 97.6984 41.1873C97.5895 41.9754 97.3048 42.999 96.5514 42.7489C96.2588 42.6518 95.9703 42.3676 95.8165 42.0251C95.4768 41.2685 95.5477 40.6991 95.6191 36.2678C95.6215 36.1163 95.4473 35.9318 95.2614 35.9998C94.7429 36.1882 93.688 36.8756 92.3937 36.8981C92.1498 36.9036 91.5516 36.8745 91.3363 36.505C91.3363 36.505 91.3248 36.4789 91.3236 36.4766C91.0905 36.0364 91.5376 35.4469 91.742 35.2126ZM124.833 79.0906C112.322 79.0906 95.8574 79.0906 83.3805 79.0906V65.6774C88.0897 65.5343 91.8806 61.6594 91.8806 56.9207C91.8806 52.175 88.0684 48.3109 83.3805 48.1663V36.8371C85.5276 36.8403 87.5784 36.8381 90.9736 36.8388C91.3287 37.3285 92.0076 37.3937 92.4031 37.3917C93.6544 37.3699 94.7217 36.7773 95.1201 36.5935C95.056 40.5795 94.9709 41.347 95.3663 42.2271C95.8869 43.3887 97.2589 43.7562 97.8697 42.4604C97.9393 43.0583 98.052 43.6118 98.2414 44.0338C98.4963 44.602 99.0472 45.1148 99.6743 45.0854C100.295 45.0608 100.887 44.5149 101.101 44.001C101.168 43.8391 101.21 43.6714 101.242 43.5034C101.637 44.148 102.374 44.5682 103.029 44.2033C103.815 43.7645 103.911 42.55 104.007 41.7073C104.362 42.4594 105.191 42.9927 105.901 42.5978C107.174 41.8891 106.795 39.1358 107.047 36.8371H124.833V79.0906ZM18.8205 111.393C18.1615 111.557 17.7593 112.227 17.9234 112.886C18.1906 113.956 19.6147 114.153 20.1741 113.222C20.7341 112.29 19.8883 111.128 18.8205 111.393ZM19.2972 113.304C18.9005 113.403 18.5006 113.161 18.4026 112.766C18.2436 112.13 18.9389 111.619 19.4985 111.955C20.0583 112.292 19.9333 113.145 19.2972 113.304Z" fill="black"/>
<path d="M35.7155 128.164C35.1246 127.999 34.9528 127.062 34.3337 126.568C33.2073 125.668 31.3049 126.737 30.6253 125.699C30.5026 125.512 30.4239 125.187 30.2723 124.944C29.8971 124.34 28.9897 124.116 28.3445 124.558C23.3225 115.197 23.5079 108.692 23.1944 108.278C23.1204 108.04 22.9006 108.071 22.8914 108.074C19.2295 108.658 12.5689 110.711 10.3114 111.453C10.0384 111.542 9.92533 111.58 10.9188 115.861C11.3859 117.873 11.9258 120.03 12.0174 120.317C13.2557 124.202 13.7208 128.841 16.4168 132.147C17.8608 133.917 19.9782 135.166 22.2257 135.575C27.6627 136.559 29.4074 131.559 25.4424 128.237C24.7629 127.667 24.2756 127.336 23.924 127.147C26.0004 126.362 26.8391 125.803 28.2509 125.027C28.4624 125.204 28.4979 125.31 28.4207 125.544C28.3662 125.708 28.1841 125.965 28.1033 126.184C27.983 126.51 28.038 126.952 28.3771 127.131C28.52 127.206 28.6726 127.21 28.795 127.214C29.0277 127.22 29.0467 127.195 28.9953 127.602C28.8919 128.455 29.3417 129.348 30.0891 129.773C30.3723 129.934 30.616 129.504 30.333 129.343C29.7536 129.014 29.405 128.323 29.4904 127.621C29.6299 126.517 28.7682 126.779 28.6068 126.694C28.5342 126.655 28.515 126.494 28.5665 126.355C28.677 126.054 29.2249 125.448 28.7878 124.872C29.1497 124.74 29.6391 124.86 29.8531 125.205C30.1212 125.634 30.1161 126.791 32.2527 126.687L32.3663 126.681C33.8559 126.602 34.0625 126.836 34.5492 127.64C34.8035 128.061 35.0667 128.495 35.5825 128.639C35.7124 128.676 35.8503 128.599 35.8866 128.468C35.9233 128.337 35.8466 128.201 35.7155 128.164ZM26.747 125.302C26.7496 125.249 26.7387 125.194 26.7051 125.147C25.922 124.051 25.3894 122.768 25.1645 121.439C25.1416 121.305 25.0155 121.215 24.8798 121.237C24.7456 121.26 24.655 121.387 24.6776 121.522C24.915 122.924 25.4771 124.277 26.3036 125.434C26.3246 125.464 26.3525 125.484 26.3819 125.501C25.7778 125.825 25.1058 126.149 24.1856 126.514C24.1864 126.44 24.1586 126.368 24.0968 126.318C23.3286 125.704 22.8926 124.675 22.9859 123.696C23.0169 123.372 22.5256 123.321 22.4947 123.649C22.3869 124.777 22.8847 125.962 23.7623 126.68C23.3767 126.826 22.9881 126.963 23.0416 126.944C22.9131 126.989 22.8458 127.13 22.8914 127.259C22.937 127.387 23.0777 127.454 23.2062 127.409C23.304 127.376 23.8422 127.539 25.1252 128.615C28.6947 131.606 27.2602 135.992 22.3139 135.089C20.1801 134.701 18.1702 133.515 16.7996 131.835C14.1868 128.632 13.7211 124.037 12.4879 120.167C12.2801 119.516 10.6797 112.928 10.6115 111.874C12.9432 111.113 19.1792 109.201 22.7697 108.594C23.0329 109.81 23.2966 116.099 27.8509 124.684C27.4254 124.92 27.2337 125.033 26.747 125.302ZM102.231 116.995C102.149 117.082 102.077 117.162 102.015 117.236C101.64 115.012 101.232 114.032 100.772 112.584C101.382 112.091 101.566 113.09 102.36 113.09C102.549 113.09 102.733 113.024 102.86 112.866C102.961 112.741 102.995 112.592 103.022 112.472C103.073 112.247 103.052 112.221 103.441 112.351C104.26 112.618 105.222 112.348 105.783 111.697C105.872 111.594 105.86 111.438 105.757 111.349C105.654 111.26 105.498 111.271 105.409 111.375C104.974 111.88 104.229 112.089 103.557 111.869C102.499 111.519 102.594 112.411 102.476 112.557C102.424 112.621 102.262 112.608 102.135 112.531C101.849 112.356 101.367 111.71 100.724 112.027C100.664 111.647 100.876 111.19 101.255 111.046C101.733 110.865 102.865 111.092 103.173 108.978L103.189 108.866C103.402 107.387 103.669 107.231 104.553 106.909C105.014 106.741 105.491 106.567 105.732 106.088C105.794 105.967 105.745 105.818 105.623 105.757C105.501 105.696 105.353 105.745 105.292 105.866C105.138 106.17 104.789 106.298 104.383 106.445C103.281 106.848 102.937 107.146 102.685 108.907C102.428 110.67 101.665 110.363 101.08 110.584C100.411 110.838 100.024 111.687 100.329 112.4C91.4688 115.174 83.3714 114.304 83.3605 114.309C83.1157 114.335 83.0723 114.618 83.1021 114.567C82.9678 118.275 83.6952 125.205 83.9869 127.562C83.9978 127.651 84.0069 127.723 84.1447 127.776C84.8654 128.058 92.5473 127.654 93.0137 127.601C98.446 126.98 105.959 128.042 109.457 121.583C112.754 115.512 107.105 111.804 102.231 116.995ZM108.922 121.529C105.457 127.582 98.1658 126.514 92.9561 127.11C92.2468 127.196 85.4812 127.482 84.4597 127.349C84.1629 124.911 83.4901 118.425 83.5902 114.787C84.7776 114.778 91.2475 115.678 100.357 112.91C100.511 113.384 100.579 113.578 100.751 114.112C100.699 114.099 100.644 114.1 100.591 114.123C99.3634 114.68 97.9985 114.956 96.6551 114.919C96.5225 114.92 96.4051 115.023 96.4015 115.159C96.3979 115.295 96.5054 115.408 96.6415 115.412C98.0968 115.45 99.5251 115.149 100.795 114.573C100.827 114.558 100.854 114.537 100.876 114.512C101.076 115.166 101.264 115.887 101.445 116.86C101.373 116.845 101.296 116.858 101.236 116.909C100.485 117.544 99.3909 117.772 98.4478 117.492C98.3164 117.453 98.1798 117.528 98.141 117.658C98.1019 117.789 98.1764 117.926 98.307 117.965C99.3842 118.287 100.642 118.037 101.525 117.306C101.576 117.603 101.623 117.915 101.646 118.065C101.694 118.391 102.181 118.315 102.134 117.994C102.133 117.982 102.136 117.963 102.144 117.94C102.21 117.815 102.235 117.712 102.585 117.34C107.112 112.572 112.181 115.823 108.922 121.529Z" fill="black"/>
<path d="M85.8893 118.315C85.1632 119.117 85.7566 120.422 86.8638 120.371C87.5396 120.337 88.0661 119.764 88.0325 119.08C87.9777 117.994 86.625 117.502 85.8893 118.315ZM86.8392 119.878C86.1861 119.914 85.816 119.131 86.2552 118.646C86.6921 118.163 87.5063 118.445 87.5394 119.104C87.5598 119.511 87.2466 119.858 86.8392 119.878Z" fill="black"/>
</g>
<defs>
<clipPath id="clip0_4889_20769">
<rect width="138" height="140.556" fill="white"/>
</clipPath>
</defs>
</svg>
