<svg width="345" height="345" viewBox="0 0 345 345" fill="none" xmlns="http://www.w3.org/2000/svg">
<g clip-path="url(#clip0_4889_20783)">
<path d="M235.513 147.39L232.141 143.968C229.722 147.942 227.366 151.965 225.06 156.013C220.949 163.232 217.063 170.565 213.353 177.997C210.803 179.839 208.269 179.798 205.42 179.614C197.135 179.188 188.725 179.162 180.453 178.711C180.034 161.104 178.664 124.439 185.103 106.832C187.522 100.239 191.608 94.0726 197.561 90.3377C198.038 90.0369 198.564 89.761 199.103 89.5479C199.517 89.36 199.955 89.1971 200.394 89.0592C203.251 88.1694 206.598 88.0565 209.418 88.4075C207.801 89.5793 206.912 90.6508 206.723 90.8389C200.081 98.0331 202.562 112.033 205.821 115.517L224.107 135.132L233.244 144.946L235.513 147.39Z" fill="#FFC100"/>
<path d="M189.048 273.689C179.423 284.063 169.516 291.017 157.294 298.602C138.654 277.416 128.69 265.48 102.529 234.129C99.95 231.037 103.372 223.703 110.706 216.847C110.816 216.749 110.914 216.651 111.011 216.553C120.093 208.156 131.008 204.22 134.137 208.046C134.243 208.175 137.72 212.411 137.498 212.141C137.604 212.269 171.926 254.333 189.048 273.689Z" fill="#00C0AD"/>
<path d="M212.803 187.883C204.599 187.027 197.071 190.885 195.356 193.247C193.955 195.178 194.577 197.631 198.289 198.323C198.352 198.361 198.427 198.373 198.49 198.398C202.062 199.514 206.048 199.213 209.407 197.571C195.469 215.873 192.978 216.173 193.79 218.853C154.09 219.486 143.68 219.127 143.806 219.129C68.7571 304.905 83.2825 288.304 81.3767 290.482C70.6731 282.172 61.1476 273.787 52.3867 261.63L111.883 192.583C117.504 186.285 122.564 178.445 137.113 178.445L149.872 178.658C181.001 179.084 208.689 178.103 213.129 178.445C212.753 179.197 212.377 179.949 212.001 180.701C210.873 182.995 211.65 185.589 212.803 187.883ZM205.094 215.559C204.467 216.586 203.803 217.639 203.164 218.73C202.826 218.73 202.475 218.73 202.124 218.742C203.064 217.577 204.054 216.11 205.094 215.559Z" fill="#00C0AD"/>
<path d="M119.844 46.4453C103.288 46.4453 89.8516 59.8686 89.8516 76.4379C89.8516 87.693 96.0557 97.4943 105.23 102.62C125.042 113.704 149.837 99.4179 149.837 76.4379C149.837 59.9248 136.424 46.4453 119.844 46.4453ZM118.491 66.0101C118.491 68.7925 116.247 71.0359 113.465 71.0359C110.695 71.0359 108.439 68.7925 108.439 66.0101C108.439 63.2401 110.695 60.9841 113.465 60.9841C116.247 60.9841 118.491 63.2401 118.491 66.0101ZM99.1138 87.4298C99.1138 79.5086 105.544 73.079 113.465 73.079C121.398 73.079 127.816 79.5086 127.816 87.4298H99.1138ZM140.061 73.3171H128.166C127.828 73.3171 127.54 73.0414 127.54 72.6904C127.54 72.3394 127.828 72.0637 128.166 72.0637H140.061C140.412 72.0637 140.687 72.3394 140.687 72.6904C140.687 73.0414 140.412 73.3171 140.061 73.3171ZM142.618 68.5292H128.166C127.828 68.5292 127.54 68.241 127.54 67.9025C127.54 67.5517 127.828 67.2758 128.166 67.2758H142.618C142.956 67.2758 143.244 67.5517 143.244 67.9025C143.244 68.241 142.956 68.5292 142.618 68.5292Z" fill="#006BFF"/>
<path d="M322.082 217.164H231.295C240.87 201.387 234.285 212.241 239.769 203.178C242.933 202.762 247.068 201.615 248.477 198.753C252.104 191.449 256.039 184.042 260.507 176.107C269.071 160.917 271.31 158.883 273.593 152.849C277.464 142.493 275.424 132.251 268.667 123.612C266.451 120.776 266.81 121.358 235.521 87.8403C232.192 84.2718 220.479 81.7778 211.51 86.4498C211.31 83.9985 211.098 81.3402 210.879 79.0605C211.297 80.2808 211.46 80.394 212.848 80.5776C215.062 80.8704 217.319 80.8279 219.52 80.4491C219.924 80.3796 220.257 80.0859 220.392 79.6982L221.996 75.081L222.377 79.5733C222.412 79.9831 222.71 80.3242 223.113 80.4053C226.574 81.1024 230.243 81.4729 234.394 80.4598C234.749 80.3731 235.041 80.1067 235.15 79.7579C235.676 78.0767 236.136 75.9779 236.262 74.3421L236.747 79.865C236.78 80.2439 237.075 80.5547 237.453 80.597C241.443 81.0442 245.524 80.6654 249.364 79.4924C249.765 79.37 249.999 78.9473 249.904 78.5391C247.692 69.0034 245.952 57.7584 238.548 50.7603C236.768 49.0783 234.938 47.1597 234.617 44.7319C234.339 42.6301 235.257 40.5567 235.356 38.4386C235.488 35.6136 234.08 33.0548 231.881 31.3764C237.953 31.0499 243.919 28.6755 248.488 24.6545C249.925 23.3902 251.295 21.8338 251.515 19.933C251.796 17.5087 250.275 14.5195 245.49 12.8985C233.709 8.90746 223.641 17.774 225.732 27.3298C220.476 24.0723 215.899 20.9463 209.776 20.4008C197.7 19.325 190.75 30.1533 185.828 41.0974C183.763 44.7609 182.709 48.9156 182.86 53.3249C181.755 54.515 180.857 55.4712 179.839 56.5586C179.171 57.2724 179.481 58.4403 180.418 58.7238L184.03 59.8333C184.557 61.4416 185.25 62.9609 186.088 64.3764L185.649 77.6351C185.643 78.0201 185.88 78.3781 186.243 78.5065C188.167 79.1868 190.172 79.4387 192.214 79.2933C192.593 79.2663 192.913 78.9919 193.015 78.6258L193.647 76.3506C193.832 76.8102 193.808 77.323 193.855 77.8166C193.985 79.1839 195.005 79.4137 196.167 79.6258C197.389 79.8487 198.638 79.8952 199.87 79.7554L199.104 89.5456C199.518 89.3578 199.957 89.1948 200.395 89.057L200.811 83.7813C203.864 81.8609 206.404 78.0471 209.243 75.7496C209.618 78.3864 210.02 83.5879 210.308 87.1295C207.999 88.5459 207.507 89.2187 206.288 90.437C199.318 97.9858 202.087 112.391 205.388 115.921L231.479 143.919C229.227 147.622 226.957 151.486 224.546 155.72C221.979 160.227 219.416 164.952 216.881 169.808C211.843 171.062 182.528 178.396 180.542 178.697C191.072 178.609 201.726 178.461 212.467 178.447C212.049 179.871 209.496 181.809 211.845 187.222C211.696 187.237 198.912 187.347 194.877 192.902C193.7 194.521 193.763 196.595 195.515 197.862L134.093 199.945C133.967 200.003 133.528 200.204 133.655 200.146C131.036 202.977 69.5018 269.519 67.8164 272.694L68.9241 273.282C70.2081 270.861 112.206 225.182 134.398 201.188L198.615 199.01L198.615 198.987C201.628 199.448 204.538 199.263 207.521 198.617C202.04 205.154 198.491 210.131 194.909 215.007C193.732 216.617 192.514 218.281 194.083 220.619C194.829 221.732 196.078 222.405 197.319 222.405C198.735 222.405 199.836 221.532 200.846 220.536C201.688 219.706 202.427 218.924 203.135 218.136C202.319 219.657 201.515 221.228 200.685 222.896C200.128 224.015 199.652 225.036 199.469 226.194C199.247 227.605 199.565 228.937 200.343 229.848C202.632 232.533 205.647 231.677 207.79 229.008C208.134 232.238 212.546 233.645 215.625 230.045C216.512 229.008 216.93 227.892 217.756 226.428C217.622 229.461 219.418 231.077 221.138 231.019C222.73 230.954 223.774 229.574 224.586 228.232C226.51 225.048 228.517 221.741 230.534 218.417H322.082C324.076 218.417 325.117 220.164 324.309 221.386L237.937 324.505C237.047 325.839 234.621 325.989 233.553 324.439C219.157 307.975 197.929 284.214 189.81 273.006C189.586 272.695 189.158 272.63 188.813 272.903C188.144 273.113 176.907 287.718 154.154 298.949C153.48 297.109 151.288 296.199 149.601 296.903C148.141 297.511 147.257 299.407 143.716 296.6C142.245 295.441 140.711 294.166 138.812 294.267C136.811 294.376 135.061 296.06 133.603 295.527C133.275 295.409 132.917 295.577 132.8 295.903C132.682 296.228 132.851 296.588 133.175 296.706C135.32 297.479 137.07 295.616 138.88 295.518C140.545 295.43 142.345 297.112 142.937 297.583C147.198 300.959 148.908 298.548 150.082 298.06C151.037 297.661 152.226 298.143 152.775 298.945C151.028 299.488 151.27 301.514 151.045 302.335C150.946 302.699 150.68 302.999 150.462 302.975C150.09 302.926 149.581 302.204 148.723 302.295C147.92 302.379 147.528 303.106 147.219 303.679C146.409 305.164 144.661 306.085 142.986 305.905C142.146 305.834 142.042 307.067 142.856 307.152C145.082 307.376 147.296 306.157 148.372 304.182C148.498 303.948 148.709 303.557 148.855 303.541C148.929 303.537 149.137 303.659 149.306 303.772C149.564 303.946 149.886 304.161 150.292 304.218C151.253 304.346 152.022 303.516 152.255 302.665C152.598 301.409 152.142 300.175 153.656 300.057C155.415 303.715 156.323 306.114 159.471 310.82C158.466 310.694 156.971 310.658 154.725 310.833C145.605 311.541 140.382 318.446 143.748 324.811C146.695 330.38 154.842 333.082 161.155 333.082C174.867 333.082 184.21 321.709 194.153 314.271C194.299 314.162 207.373 303.226 210.297 299.83L232.564 325.205C234.053 327.393 237.609 327.264 238.939 325.255L325.31 222.137C326.769 219.958 325.019 217.164 322.082 217.164ZM180.753 57.4154C181.788 56.3109 182.91 55.1159 183.95 53.9937L183.951 53.9921C184.067 53.8658 184.123 53.7041 184.116 53.5415L184.116 53.5397C184.021 51.4348 184.192 49.4916 184.729 47.2856C184.962 47.3185 185.871 47.2942 188.065 47.3029C188.411 47.3029 188.691 47.0226 188.691 46.6762C188.691 46.3298 188.411 46.0495 188.065 46.0495H185.077C185.425 44.9155 185.858 43.8214 186.375 42.7745C186.498 42.6683 186.621 42.5621 186.744 42.4561C191.254 42.2463 195.85 41.6711 199.883 39.6454C202.828 38.1659 205.441 35.7871 206.893 32.8751C207.187 32.2855 208.054 32.4062 208.136 33.0598C208.561 36.4493 209.818 39.8489 212.021 42.2295C214.27 44.6597 217.268 46.3736 220.488 47.1325C222.322 47.565 223.651 47.1283 224.722 48.8257C227.173 52.711 226.282 54.9269 227.398 55.4907C227.784 55.6859 228.273 55.5525 228.602 55.2719C229.537 54.4756 230.087 51.8091 230.232 50.4571C230.842 49.7111 231.837 49.245 232.832 49.3078C235.559 49.4521 237.245 52.6947 235.694 55.5445C234.079 58.5209 229.887 59.4381 228.304 57.6351C227.982 57.2666 227.334 57.4172 227.223 57.9093C225.134 67.0456 217.69 73.5443 208.257 74.466C197.935 75.4831 188.193 69.0297 185.112 59.14C185.068 58.9987 184.885 58.7841 184.697 58.7275C184.565 58.6835 180.498 57.3303 180.753 57.4154ZM212.531 180.968C212.797 180.449 218.096 169.441 225.575 156.306C227.896 152.231 230.086 148.501 232.253 144.925L235.092 147.805C235.318 148.035 235.689 148.04 235.923 147.818C236.156 147.594 236.168 147.224 235.947 146.987L206.254 115.112C203.256 111.907 200.735 98.1976 207.141 91.2583C207.252 91.1481 207.35 91.038 207.432 90.9431C215.268 82.5856 230.752 84.4644 234.655 88.6481C264.709 120.82 265.581 121.586 267.734 124.342C274.21 132.624 276.225 142.425 272.485 152.431C270.221 158.411 268.142 160.153 259.475 175.525C254.997 183.479 251.053 190.904 247.415 198.228C244.682 203.781 222.914 206.182 213.405 187.753C213.381 187.644 213.336 187.545 213.263 187.471C211.925 184.753 211.689 182.679 212.531 180.968ZM223.572 227.618C222.891 228.745 222.119 229.793 221.09 229.835C220.144 229.87 219.362 228.971 219.103 228.105C218.79 227.052 218.973 225.842 219.135 224.775C219.163 224.591 219.097 224.42 218.98 224.292C221.219 220.433 223.873 216.04 225.58 212.282C225.723 211.967 225.584 211.596 225.269 211.453C224.953 211.307 224.582 211.449 224.439 211.764C222.075 216.968 217.753 223.617 216.001 227.052C215.596 227.848 215.212 228.599 214.673 229.23C212.662 231.58 210.05 231.235 209.26 229.664C208.726 228.601 209.187 227.211 209.662 225.992C212.028 219.923 215.042 215.848 218.094 210.007C218.255 209.701 218.137 209.322 217.829 209.162C217.524 208.999 217.144 209.12 216.984 209.427C213.974 215.186 210.97 219.261 208.561 225.375C208.389 225.527 207.482 227.839 206.025 229.069C203.575 231.136 202.154 230.04 201.296 229.035C200.757 228.403 200.542 227.438 200.708 226.388C200.862 225.407 201.297 224.479 201.807 223.454C208.42 210.172 211.053 208.455 211.334 207.396C211.846 206.694 212.372 205.983 212.933 205.251C213.143 204.976 213.091 204.583 212.816 204.373C212.544 204.163 212.148 204.214 211.938 204.489C209.1 208.198 200.773 220.598 197.666 221.123C196.752 221.28 195.703 220.784 195.123 219.921C194.092 218.384 194.688 217.432 195.92 215.747C196.933 214.421 201.142 208.145 209.6 198.093C209.697 198.064 209.792 198.045 209.889 198.016C210.203 197.922 210.38 197.592 210.287 197.278C210.192 196.965 209.863 196.785 209.549 196.881C209.433 196.916 209.318 196.943 209.203 196.976C209.088 196.976 208.978 197.005 208.878 197.065C202.951 198.699 192.227 198.571 195.835 193.598C199.841 188.084 212.311 188.461 212.437 188.45C218.006 199.036 227.986 204.047 238.296 203.334C235.991 207.145 233.592 211.098 231.184 215.064C228.606 219.312 226.027 223.56 223.572 227.618ZM193.402 313.267C185.15 319.442 177.394 328.257 167.278 331.019C158.655 333.376 148.006 330.184 144.856 324.224C142.059 318.935 146.366 312.738 154.823 312.082C159.064 311.751 160.407 312.215 160.567 312.421C160.766 312.705 161.156 312.773 161.44 312.575C161.723 312.377 161.792 311.986 161.594 311.702C161.197 311.135 160.834 310.603 160.494 310.094C163.367 309.905 166.143 308.191 167.585 305.7C167.759 305.4 167.656 305.017 167.357 304.844C167.056 304.669 166.673 304.772 166.501 305.072C165.25 307.233 162.83 308.717 160.336 308.854C160.136 308.864 159.971 308.974 159.864 309.127C158.499 307.01 157.587 305.347 156.814 303.785C156.836 303.788 156.854 303.805 156.876 303.805C157.497 303.805 162.354 301.925 166.212 298.083C166.457 297.839 166.458 297.442 166.214 297.196C165.969 296.952 165.573 296.95 165.327 297.195C162.903 299.61 159.91 301.474 156.672 302.585C156.534 302.633 156.431 302.73 156.357 302.844C155.748 301.567 155.491 300.992 154.989 299.937C167.949 293.408 178.995 285.498 189.165 274.248C195.221 282.501 205.799 294.484 209.151 298.493L209.135 298.506L209.497 298.919C207.737 301.044 194.788 312.229 193.402 313.267Z" fill="black"/>
<path d="M194.211 47.3002H197.237C197.583 47.3002 197.864 47.0199 197.864 46.6735C197.864 46.3272 197.583 46.0469 197.237 46.0469H194.211C193.864 46.0469 193.584 46.3272 193.584 46.6735C193.584 47.0199 193.864 47.3002 194.211 47.3002ZM193.488 60.2842C193.875 60.4727 194.301 60.5644 194.727 60.5644C195.38 60.5644 196.034 60.3472 196.547 59.9286C197.394 59.2377 197.78 58.0626 197.509 57.0039C197.424 56.6685 197.082 56.4654 196.747 56.5523C196.411 56.6379 196.209 56.9794 196.295 57.3148C196.445 57.8999 196.223 58.5755 195.755 58.9574C195.287 59.3399 194.58 59.4206 194.036 59.1569C193.725 59.0045 193.35 59.1361 193.198 59.4464C193.047 59.7578 193.177 60.133 193.488 60.2842ZM139.595 247.399L172.383 286.58L173.344 285.776L139.847 245.747C140.123 243.927 143.819 219.36 143.819 219.127H143.807L116.509 250.323C142.548 281.377 133.567 270.666 135.51 272.984C136.403 268.091 138.001 257.879 139.595 247.399ZM118.563 126.13C120.093 126.13 121.333 124.89 121.333 123.361C121.333 121.831 120.093 120.591 118.563 120.591C117.034 120.591 115.794 121.831 115.794 123.361C115.794 124.89 117.034 126.13 118.563 126.13ZM104.313 126.13C105.842 126.13 107.083 124.89 107.083 123.361C107.083 121.831 105.842 120.591 104.313 120.591C102.784 120.591 101.543 121.831 101.543 123.361C101.543 124.89 102.784 126.13 104.313 126.13ZM132.814 126.13C133.821 126.13 134.703 125.56 135.108 124.902C136.362 123.073 135.006 120.591 132.814 120.591C131.074 120.591 129.74 122.204 130.107 123.912C130.325 125.115 131.433 126.13 132.814 126.13Z" fill="black"/>
<path d="M92.7713 129.915C94.0424 131.432 95.9453 132.401 98.0813 132.401H144.155C147.964 132.401 151.111 129.324 151.111 125.458C151.111 123.321 150.14 121.418 148.622 120.154C147.52 117.351 144.794 115.359 141.605 115.359H95.5264C91.368 115.359 87.9843 118.742 87.9843 122.901C87.9843 126.086 89.9729 128.811 92.7713 129.915ZM95.5264 116.544H141.605C145.111 116.544 147.963 119.395 147.963 122.901C147.963 126.406 145.111 129.258 141.605 129.258H95.5264C92.021 129.258 89.1691 126.406 89.1691 122.901C89.1691 119.395 92.021 116.544 95.5264 116.544ZM153.656 78.9816C153.656 67.7391 147.464 57.9504 138.315 52.8242C145.334 58.3014 149.833 66.8368 149.833 76.4373C149.833 99.414 125.039 113.704 105.226 102.62C110.315 106.606 116.72 108.974 123.676 108.974C140.232 108.974 153.656 95.5509 153.656 78.9816ZM52.1741 260.249C53.8958 259.313 54.4758 257.015 53.5331 255.446C52.7215 254.094 50.711 253.504 52.9719 249.58C53.9177 247.948 54.9434 246.257 54.5624 244.388C54.1624 242.418 52.2441 240.946 52.5545 239.418C52.6236 239.079 52.4045 238.748 52.0655 238.679C51.7252 238.613 51.3954 238.829 51.3268 239.168C50.8733 241.398 52.9739 242.864 53.3348 244.638C53.6672 246.271 52.2655 248.299 51.8862 248.954C49.1667 253.672 51.8136 255.013 52.4584 256.092C52.9901 256.975 52.6941 258.219 51.9774 258.884C51.1864 257.239 49.2115 257.767 48.3703 257.669C47.9964 257.624 47.6537 257.394 47.6513 257.186C47.6475 256.813 48.2849 256.202 48.0711 255.366C47.8691 254.584 47.0925 254.301 46.4811 254.08C44.8936 253.496 43.7333 251.908 43.6599 250.218C43.6249 249.394 42.371 249.441 42.4077 250.271C42.502 252.453 43.9995 254.503 46.1507 255.293C47.0239 255.609 46.9387 255.647 46.6941 256.158C46.5601 256.439 46.3936 256.789 46.3979 257.199C46.4089 258.172 47.3453 258.808 48.2204 258.913C48.5448 258.951 48.8734 258.94 49.2014 258.924C50.348 258.868 50.7897 258.97 51.0061 259.919C47.624 262.206 45.4068 263.439 41.2076 267.245C41.1874 266.232 41.0032 264.746 40.502 262.551C38.045 251.774 27.8322 248.434 22.3437 256.634C18.999 261.633 17.7817 270.585 21.2201 278.425C25.5749 288.353 35.5136 294.762 42.8655 302.058C43.4647 302.653 59.0451 316.391 60.5116 316.391C60.7031 316.391 60.806 316.29 60.9253 316.172C65.2129 311.929 77.5585 299.254 83.1196 291.651C83.1349 291.631 83.4526 291.183 83.0119 290.736C82.7203 290.119 66.6084 281.136 52.1741 260.249ZM60.3206 315.006C58.0177 313.632 44.9805 302.391 43.748 301.168C36.4116 293.885 26.5871 287.54 22.3682 277.922C18.8738 269.956 20.2309 258.843 25.8112 254.746C30.6407 251.205 37.3913 254.557 39.2805 262.83C40.2266 266.977 39.9647 268.375 39.7848 268.563C39.5332 268.801 39.5216 269.197 39.7597 269.449C39.9971 269.7 40.3931 269.712 40.6452 269.474C40.8794 269.255 41.2842 268.868 42.0766 268.15C42.6834 270.965 44.7844 273.461 47.4597 274.523C47.7789 274.65 48.1446 274.496 48.2736 274.172C48.4009 273.85 48.2443 273.486 47.9223 273.358C45.6017 272.437 43.7798 270.26 43.2804 267.813C43.2403 267.616 43.1076 267.469 42.9405 267.386C44.8289 265.731 46.3371 264.588 47.7652 263.598C47.7703 263.683 47.7907 263.768 47.8324 263.848C49.4915 267.056 51.899 269.892 54.7944 272.051C55.0723 272.258 55.4649 272.2 55.6713 271.923C55.8782 271.646 55.8207 271.253 55.5434 271.046C52.7999 269 50.5184 266.312 48.945 263.272C48.8774 263.142 48.767 263.055 48.6434 262.998C49.86 262.181 50.2967 261.906 51.3195 261.22C59.7267 273.21 69.3353 283.012 81.7506 291.285C81.7677 291.298 81.7855 291.311 81.8032 291.324C76.2739 298.74 64.7367 310.618 60.3206 315.006Z" fill="black"/>
<path d="M66.1913 292.895C64.3795 294.971 65.9642 298.26 68.7592 298.07C71.5301 297.883 72.6902 294.416 70.6031 292.594C69.3026 291.461 67.3234 291.595 66.1913 292.895ZM68.6741 296.82C67.0192 296.939 66.0416 294.975 67.1349 293.718C67.8142 292.941 68.999 292.859 69.7793 293.539C71.0404 294.641 70.3251 296.709 68.6741 296.82ZM188.848 285.45C186.652 287.324 187.972 290.954 190.88 290.954C193.546 290.954 194.979 287.819 193.256 285.798C192.138 284.487 190.16 284.332 188.848 285.45ZM192.094 289.253C190.823 290.341 188.88 289.33 189.01 287.681C189.143 286.007 191.23 285.356 192.303 286.612C192.973 287.397 192.885 288.578 192.094 289.253Z" fill="black"/>
</g>
<defs>
<clipPath id="clip0_4889_20783">
<rect width="345" height="345" fill="white"/>
</clipPath>
</defs>
</svg>
