<svg width="138" height="138" viewBox="0 0 138 138" fill="none" xmlns="http://www.w3.org/2000/svg">
<g clip-path="url(#clip0_4889_20700)">
<path d="M93.6099 6.1875L93.4844 25.229L93.5446 25.2038C95.1526 24.5087 86.5953 28.208 116.085 15.4597L93.6099 6.1875ZM102.897 18.5471L100.739 17.4176L98.5849 18.5471L98.9965 16.1475L97.2545 14.4507L99.6642 14.0993L100.738 11.9155L101.818 14.0993L104.222 14.4507L102.481 16.1475L102.897 18.5471Z" fill="#00C0AD"/>
<path d="M102.205 85.22C100.683 95.4739 99.331 96.0356 97.7567 100.597C96.1804 99.909 94.0267 98.9703 91.7074 97.9713C80.4222 93.0884 78.6108 92.4187 66.1297 87.459C64.7894 86.6156 64.9902 82.8807 66.6669 79.2662C68.193 76.2139 67.2552 71.9159 68.5244 72.4287C68.5756 72.4445 72.8037 73.7451 72.7513 73.7289C81.3359 76.7265 102.154 85.1981 102.205 85.22Z" fill="#006BFF"/>
<path d="M92.9147 107.808C90.259 110.75 86.0722 112.231 83.4919 113.637C82.3774 114.239 79.8422 115.012 78.7177 115.67C76.3833 111.423 71.9405 102.632 69.9877 99.4747C67.4971 95.4185 65.2774 90.7545 62.4825 86.0759C36.4392 86.065 38.0164 86.0965 37.5675 86.0156C33.8279 85.2933 32.5367 79.209 34.1739 75.5386C34.7326 76.1076 35.8179 76.3936 36.6087 76.4974L36.6388 76.5175C37.3517 77.9733 38.0645 79.4393 39.0133 80.7545C39.5806 81.5377 40.2332 82.2706 40.6499 83.1441C41.0314 83.9373 41.2623 84.8911 42.0053 85.363C42.7338 85.8266 43.4172 85.421 43.4511 84.6301C43.4662 84.2837 43.3558 83.9473 43.2453 83.616C43.7457 84.5543 45.2036 86.3164 46.1871 85.9253C46.5686 85.7747 46.7745 85.343 46.7795 84.9363C46.7895 84.5799 46.6741 84.2335 46.5436 83.8972C46.7695 84.4443 47.0305 84.9966 47.4924 85.3681C47.9894 85.7697 48.8026 85.855 49.2293 85.3831C49.5055 85.0769 49.5506 84.6301 49.5255 84.2184C49.4402 82.9333 48.6269 81.7736 47.9743 80.6993C48.4512 80.9553 48.888 81.7686 49.3147 82.1351C49.7414 82.5066 50.3287 82.7425 50.886 82.622C51.4432 82.4965 51.9101 81.9393 51.8047 81.382C51.6717 80.6729 50.8802 80.3685 46.5235 74.645C48.275 75.5013 50.3084 75.1166 50.9763 74.5245C51.1972 74.3287 51.3529 74.0426 51.3328 73.7464C51.2841 73.1145 50.4703 72.7089 49.8719 72.4462C53.5868 72.3658 57.0557 72.2855 58.6873 72.1901C61.0317 72.0596 63.3861 71.8839 65.7356 72.0345C67.9318 72.1727 70.0581 72.4782 71.579 74.0576C71.579 74.0576 71.5841 74.0576 71.5841 74.0627C72.2417 74.7354 72.7337 75.5587 73.2106 76.4422C74.9375 79.63 82.3322 91.3119 84.3804 94.4093C84.4909 94.575 84.6164 94.7658 84.767 94.9866C86.5843 97.7026 91.1074 104.369 92.9147 107.808Z" fill="#006BFF"/>
<path d="M57.0314 72.7693C56.9661 74.2804 54.6669 73.5575 53.7332 74.6569C52.4129 76.2031 51.4038 75.2794 49.7773 76.4993C49.3958 76.7854 48.9992 77.0515 48.5875 77.2925C47.8847 76.4189 47.1919 75.5404 46.5142 74.6468C48.2658 75.5032 50.2991 75.1185 50.9671 74.5263C51.188 74.3306 51.3436 74.0444 51.3235 73.7482C51.2883 73.2914 50.8667 72.9751 50.4701 72.7492C50.2693 72.6388 50.199 72.3627 49.9932 72.2723C48.6779 71.6749 47.1919 71.439 45.7361 71.4339C46.0925 70.691 46.3134 69.8626 45.9519 69.1347C43.8562 64.898 41.7597 61.0254 39.1747 56.765L38.0352 57.9197C40.6825 55.075 42.0214 53.6332 48.0303 47.1916C49.1607 45.9782 50.2638 40.5028 46.8154 38.065C48.0705 37.9106 49.6899 38.0213 50.8114 38.7176C53.2317 40.2341 54.6307 42.8056 55.425 45.5852C55.927 47.4075 56.1479 49.3152 56.3236 51.2027C56.8362 56.8636 57.2651 67.1138 57.0314 72.7693Z" fill="#FFC100"/>
<path d="M55.4324 45.5842C58.6042 47.8411 58.953 48.6917 59.2628 48.6917C59.4785 48.6917 59.5865 48.4298 59.4284 48.2801L59.193 48.0598C64.4686 45.6307 66.2491 44.3744 79.6345 38.3C82.1596 37.1591 85.2973 41.6973 85.1765 46.2355C85.1596 46.2849 85.1573 46.3368 85.1727 46.3879C85.0946 48.1632 84.4835 49.5614 83.4448 50.012C74.6414 53.8138 59.8454 60.6753 58.319 60.9911C57.8521 61.0915 57.3953 61.1216 56.9334 61.0915C56.9384 61.2521 56.9434 61.4128 56.9485 61.5684C58.805 61.6569 58.4626 61.6272 74.4939 54.495C77.4859 53.1546 80.5783 51.7691 83.6356 50.4438C84.8423 49.9229 85.5512 48.3988 85.6461 46.4568L86.2379 46.0434C89.0553 46.506 93.7551 44.9782 96.5045 43.5618C96.9286 43.3416 97.7179 42.9318 97.9076 42.1547C98.0225 41.6915 97.8316 41.0591 97.65 40.7535C98.2864 40.4158 98.4431 39.5407 98.3277 38.8407C98.267 38.4749 98.0734 38.1312 97.739 37.9427C98.0628 37.5363 98.2298 37.1542 98.2365 36.7789C98.2495 36.0301 97.6505 35.3579 96.8012 35.2816C97.0104 34.7004 96.6747 33.9927 96.2626 33.6327C95.598 33.0503 94.7385 33.2621 93.7439 33.4157V27.04L116.136 17.3559L113.867 16.4222L93.7439 25.1188V5.01663C93.7439 4.87789 93.6316 4.76562 93.4929 4.76562C93.3541 4.76562 93.2419 4.87789 92.5548 5.50645V33.6423C92.1984 33.7283 91.7373 33.8014 91.3023 33.98C91.8045 32.5973 92.019 31.1177 90.9539 30.2517C90.1859 29.6318 89.0525 29.734 88.3166 30.4885C87.6473 31.1796 87.5289 32.1468 87.2194 32.9358C86.591 34.5367 84.9525 35.4567 84.45 37.3005C84.3033 37.7882 84.2396 38.1266 84.2539 38.3647C83.7398 38.4157 83.2654 38.5317 82.798 38.7188C81.8367 37.8537 80.6023 37.342 79.4387 37.8683C67.8024 43.1592 68.1997 43.2047 58.8202 47.7108C58.77 47.6692 57.6517 46.5518 55.2115 44.8463C55.2918 45.0922 55.3621 45.3383 55.4324 45.5842ZM97.6931 40.0266C97.5835 40.2348 97.4261 40.3422 97.1328 40.4092C92.7694 40.802 93.0209 40.762 92.7836 40.8292C92.5408 40.795 92.312 40.4937 92.2472 40.2183C91.9558 38.9837 93.6087 39.0792 94.5004 38.8301C94.5516 38.8159 97.1518 38.3615 97.2021 38.3536C97.2067 38.3528 97.211 38.35 97.2156 38.3491C97.5072 38.24 97.7747 38.5779 97.8326 38.9225C97.891 39.2791 97.8622 39.7049 97.6931 40.0266ZM97.7345 36.7701C97.7266 37.2204 97.2705 37.7836 97.1202 37.8545C96.2019 38.0803 93.0649 38.4605 92.386 38.8498C92.2086 38.8641 92.0436 38.8196 91.8131 38.6911C91.4794 38.5055 91.3182 37.832 91.7447 37.2486C92.2769 36.5207 93.4041 36.333 94.2346 36.1624C94.9871 36.0014 95.7117 35.7918 96.4502 35.7886C96.5023 35.7911 96.9522 35.6696 97.3852 36.0354C97.6122 36.2269 97.7394 36.4948 97.7345 36.7701ZM94.5844 33.7987C95.1063 33.7264 95.5679 33.6918 95.9319 34.0105C96.2605 34.2975 96.5668 34.9723 96.1971 35.3001C95.6553 35.3318 95.2975 35.4095 93.8363 35.7325C93.1447 35.8738 92.6612 35.9786 92.1197 36.2856C91.6579 36.5374 90.9642 36.2205 90.7504 35.5082C90.7388 35.4697 90.7172 35.4379 90.6913 35.4104C90.7863 35.2117 90.882 35.004 90.9763 34.7895C91.4054 34.24 93.9877 33.882 94.5844 33.7987ZM84.9439 37.4005C85.1778 36.5397 85.7369 35.87 86.3286 35.1611C87.4858 33.7748 87.6293 33.3734 87.9291 32.3934C88.109 31.8048 88.2791 31.2489 88.6767 30.8383C89.2307 30.2708 90.0739 30.1863 90.6379 30.642C92.0382 31.7803 90.5046 34.6211 89.7616 36.1722C89.7018 36.2972 89.7547 36.447 89.8798 36.5071C90.0043 36.5671 90.1545 36.5142 90.2146 36.3889C90.2393 36.3384 90.4359 35.9354 90.4112 35.986C90.6175 36.3725 90.9745 36.718 91.4482 36.8277C90.7318 37.663 90.8095 38.9176 91.9147 39.2872C91.5509 39.8759 91.7116 40.6995 92.261 41.1296C91.4626 41.9129 91.8393 43.6265 93.1196 43.6265C93.518 43.6265 94.3073 43.433 95.3914 43.2828C95.5929 43.2552 95.8245 43.2664 96.0692 43.1806L96.0748 43.1786L95.9934 42.9411L95.8841 42.7134C95.7461 42.762 95.5124 42.7593 95.3227 42.7857C94.1134 42.9526 93.4649 43.1348 93.0786 43.124C92.2663 43.1035 92.0909 41.7657 92.7448 41.3809C92.9478 41.2612 92.8023 41.3032 97.1513 40.9117C97.247 40.9763 97.3939 41.3796 97.4355 41.6963C97.53 42.3864 96.8857 42.7981 96.2738 43.1159C93.9736 44.301 91.4591 45.122 89.002 45.4901C86.6622 45.8415 86.3078 45.4039 86.0141 45.5877L85.655 45.8383C85.6157 43.5592 84.7793 40.8237 83.1901 39.1067C83.9238 38.8509 84.4294 38.8612 84.6667 38.8357L84.6667 38.8348C84.9407 38.8292 85.0068 38.4524 84.7552 38.3516C84.7471 38.2636 84.7581 38.0187 84.9439 37.4005ZM62.6714 132.729H35.6982L22.214 109.375L35.6982 86.0165H37.5657C37.1239 85.9312 36.7022 85.7605 36.3056 85.5145H35.412L21.6367 109.375L35.412 133.231H62.9576L72.3955 116.896L71.9587 116.645L62.6714 132.729ZM99.8808 93.9283C99.931 93.8028 99.8708 93.6522 99.7453 93.602L82.0442 86.2776C79.6872 83.4288 87.8674 93.3159 71.2659 73.2503C71.286 73.3023 71.5972 74.1105 71.5772 74.0585C71.5772 74.0585 71.5822 74.0585 71.5822 74.0636C72.2398 74.7363 72.7318 75.5596 73.2087 76.4431C74.9177 79.6048 82.458 91.5152 84.3786 94.4103C84.489 94.5759 84.6145 94.7667 84.7651 94.9876C86.9639 95.9213 89.4138 96.9705 91.708 97.9645L82.7269 87.1059L99.5545 94.0639C99.661 94.1171 99.823 94.0655 99.8808 93.9283ZM51.9482 24.2682C52.0869 24.2682 52.1992 24.156 52.1992 24.0172C52.1992 23.8785 52.0869 23.7662 51.9482 23.7662H50.9297C50.791 23.7662 50.6787 23.8785 50.6787 24.0172C50.6787 24.156 50.791 24.2682 50.9297 24.2682H51.9482ZM51.9894 28.1829C51.8197 28.265 51.5999 28.2395 51.454 28.1211C51.3082 28.002 51.2388 27.7914 51.2856 27.6093C51.3202 27.475 51.2393 27.3382 51.105 27.3036C50.9711 27.27 50.8339 27.3502 50.7993 27.4843C50.7039 27.8554 50.8395 28.2677 51.1368 28.5101C51.3165 28.6567 51.5454 28.7327 51.7746 28.7327C51.9239 28.7327 52.0732 28.7006 52.209 28.6344C52.3338 28.5736 52.3855 28.4233 52.3249 28.2988C52.2644 28.1745 52.1144 28.1223 51.9894 28.1829Z" fill="black"/>
<path d="M27.4204 63.8766C29.7901 67.8364 31.9268 71.7605 33.6454 75.2272C34.1016 76.1395 35.3513 76.5403 36.3538 76.7047C37.9624 79.3638 39.8171 82.4096 41.3766 84.9888C41.6642 85.4638 42.0357 85.9461 42.6057 85.9461C43.1444 85.9461 43.7347 85.4538 43.7435 84.5096C43.9605 84.9083 44.1126 85.2763 44.3946 85.6056C45.4119 86.7939 46.9014 86.4014 47.0843 85.322C48.428 86.9203 50.1413 85.7894 49.9023 84.2767C49.8099 83.691 49.3822 82.9142 48.8101 81.8297C49.3718 82.4313 49.9009 83.0484 50.5869 83.0484C51.0174 83.0484 51.4507 82.8148 51.7091 82.4295C52.2528 81.6189 51.816 81.0215 51.4304 80.4942L51.3171 80.3383C51.1268 80.0724 50.9289 79.812 50.7358 79.5481H64.0796C65.0618 79.5481 65.9499 80.0488 66.4553 80.8879C82.2999 106.985 81.789 106.547 82.1416 106.335C82.2602 106.263 82.2982 106.109 82.2264 105.99L66.885 80.6286C66.2881 79.6375 65.2395 79.046 64.0796 79.046H50.3665C48.9272 77.1049 48.6199 76.6904 47.2532 75.0591C48.61 75.337 51.2489 75.4959 51.6652 74.182C51.776 73.8266 51.6922 73.405 51.4395 73.0527C50.8791 72.286 48.6781 71.0941 46.1407 71.1132C46.3924 70.4496 46.5043 69.7103 46.1707 69.0323C44.0526 64.7539 42.0124 60.9832 39.4487 56.753L48.2089 47.3553C49.3234 46.1555 50.2621 41.2759 47.9027 38.7156C47.8063 38.627 47.3136 38.0533 46.5673 37.6112C46.6144 36.9764 46.7935 34.7412 46.9227 33.8438C47.8486 34.6092 48.6857 35.8313 49.68 36.477L49.8204 38.2788C50.0011 38.3341 50.1768 38.3993 50.3425 38.4796L50.0796 35.1599C50.4811 35.2012 50.8874 35.1842 51.2851 35.1117C51.6762 35.0403 52.0195 34.9629 52.0632 34.5027C52.0791 34.3366 52.071 34.164 52.1335 34.0093L52.3462 34.7751C52.3804 34.8983 52.4883 34.9907 52.6159 34.9997C53.3031 35.0487 53.978 34.964 54.6256 34.7349C54.7478 34.6917 54.8273 34.5712 54.8255 34.4417L54.6804 30.0567C54.9755 29.5678 55.2168 29.0401 55.4014 28.4822L56.5974 28.1148C56.9411 28.0113 57.056 27.5823 56.8104 27.3201C56.4558 26.9415 56.1763 26.644 55.8047 26.2434C55.8575 24.6115 55.4191 23.1172 54.6246 21.8386C52.977 18.2606 50.6482 14.8258 46.7045 15.1772C44.6356 15.3615 43.089 16.4226 41.3338 17.5108C42.0447 14.2679 38.6148 11.3203 34.6837 12.6519C32.7069 13.3216 31.7946 14.9548 33.6744 16.6088C35.2158 17.9652 37.2297 18.7535 39.278 18.8607C38.5297 19.4254 38.0498 20.2917 38.0946 21.2485C38.128 21.9614 38.437 22.6593 38.3434 23.3668C38.2353 24.1839 37.6192 24.8297 37.0202 25.3958C34.5281 27.7513 33.9424 31.5363 33.1978 34.7459C33.166 34.8832 33.2447 35.0255 33.3795 35.0668C34.672 35.4616 36.0457 35.5891 37.3887 35.4386C37.5159 35.4243 37.6154 35.3197 37.6266 35.1921L37.7895 33.3332C37.832 33.8838 37.9868 34.5903 38.164 35.1561C38.2007 35.2736 38.2988 35.3631 38.4184 35.3923C39.8156 35.7334 41.0506 35.6087 42.2154 35.3741C42.351 35.3467 42.4515 35.2318 42.4632 35.094L42.5914 33.582L43.1314 35.136C43.1767 35.2665 43.2888 35.3654 43.425 35.3888C44.1656 35.5163 44.9255 35.5306 45.6705 35.432C46.07 35.3792 46.1677 35.3424 46.2755 35.0775C46.2098 35.7715 46.1389 36.6501 46.0854 37.3451C43.2038 35.8842 39.273 36.5017 38.013 37.8521C26.8695 49.7792 27.4639 49.1084 26.8531 49.8955C21.4239 56.7971 27.1677 63.0591 27.4204 63.8766ZM56.452 27.6343L55.1342 28.0393C55.0618 28.0614 54.9871 28.1427 54.9678 28.2045C53.9365 31.5154 50.6759 33.671 47.2196 33.3349C44.0622 33.0266 41.5703 30.8511 40.8712 27.7932C40.8258 27.5933 40.5655 27.5375 40.438 27.6833C39.9225 28.2697 38.5456 27.9632 38.0159 26.9869C37.7772 26.5481 37.7713 26.0466 37.9353 25.6765C38.2861 24.8849 39.3353 24.6562 39.8298 25.3924C39.8806 25.7927 40.0643 26.6558 40.3679 26.9144C40.6172 27.1268 40.9203 27.0727 41.0132 26.491C41.1121 25.872 41.3395 25.2747 41.6739 24.7447C42.0345 24.1734 42.4817 24.3203 43.0991 24.1748C44.1827 23.9193 45.1919 23.3424 45.9489 22.5245C46.6904 21.7232 47.1136 20.5789 47.2566 19.438C47.2842 19.218 47.576 19.1774 47.675 19.3759C48.1636 20.356 49.0433 21.1567 50.0345 21.6547C51.3918 22.3365 52.9389 22.5301 54.4568 22.6007C54.4713 22.6132 54.4857 22.6256 54.5001 22.6381C54.6846 22.9993 54.8397 23.3772 54.9634 23.7702H54.0125C53.8738 23.7702 53.7615 23.8824 53.7615 24.0212C53.7615 24.1599 53.8738 24.2722 54.0125 24.2722H55.1039C55.2797 25.0096 55.3324 25.6371 55.3014 26.3295L55.3015 26.3302C55.2988 26.3949 55.321 26.46 55.3677 26.5107L55.3681 26.5114C55.6784 26.8465 56.1786 27.3559 56.452 27.6343ZM51.0553 73.3309C51.4488 73.8799 51.2651 74.5054 50.1209 74.6904C48.8957 74.887 47.683 74.7395 46.4816 74.3811C46.3561 74.3438 46.2239 74.4149 46.1864 74.5404C46.1489 74.6659 46.2203 74.798 46.3458 74.8355C46.3734 74.8438 46.4004 74.8492 46.428 74.8572C47.7868 76.4724 48.4437 77.233 51.0252 80.7906C51.4404 81.3585 51.6253 81.6534 51.2921 82.1498C51.1058 82.4278 50.7705 82.5866 50.4766 82.5371C50.2175 82.4932 49.9883 82.3106 49.7238 82.05C48.1569 80.5062 47.7658 79.6559 45.6982 76.9536C45.6143 76.8436 45.4565 76.823 45.3464 76.9068C45.2363 76.9909 45.2153 77.1485 45.2996 77.2586C45.4878 77.5046 45.6646 77.7433 45.8362 77.979C45.9697 78.3915 46.8737 79.0273 49.0399 83.3788C49.2103 83.7208 49.3554 84.0304 49.4066 84.3552C49.4603 84.6969 49.3914 85.0097 49.2174 85.2136C48.9402 85.5396 48.4793 85.8941 47.6819 85.2205C47.3978 84.9805 47.0022 84.376 46.9029 84.0826C46.8891 84.0417 46.8638 84.0095 46.8342 83.9821C46.0199 81.9203 45.0061 80.5409 44.0034 78.6212C43.9391 78.4979 43.7867 78.4506 43.6646 78.5148C43.5415 78.5791 43.4942 78.7308 43.5582 78.8536C44.5835 80.8152 45.5988 82.1892 46.3946 84.2302C46.5512 84.6322 46.7041 85.0901 46.5316 85.4335C46.278 85.9384 45.4345 86.0485 44.776 85.2791C44.5209 84.9813 44.3655 84.5897 44.1549 84.2137C43.3217 82.7274 42.1782 80.9137 41.4948 79.4098C41.4376 79.2838 41.2891 79.2264 41.1626 79.285C41.0364 79.3424 40.9805 79.4912 41.0378 79.6174C41.6124 80.8822 42.4903 82.3356 43.2477 83.6398C43.2137 83.6881 43.1967 83.7486 43.2062 83.8115C43.2602 84.1669 43.3212 84.5699 43.2182 84.9155C43.1349 85.1937 42.8841 85.4754 42.5873 85.4712C42.2588 85.4578 42.0063 85.1133 41.7825 84.7432C40.2722 82.2459 38.701 79.6658 36.9532 76.7784C40.637 77.1 44.1628 75.1968 45.933 71.5902C48.3895 71.5084 50.5717 72.6689 51.0553 73.3309ZM25.829 52.4658C26.9136 50.1087 27.5216 49.7743 38.3594 38.1784C38.9718 37.5208 40.5833 36.9836 42.3805 36.9836C45.9158 36.9836 47.4923 38.9976 47.5613 39.0469C49.6999 41.3712 48.8615 45.9597 47.8625 47.034C46.8405 48.1309 51.5648 43.0603 37.8674 57.7621C37.6579 57.9832 37.9871 58.31 38.2087 58.0884L39.1325 57.1496C41.703 61.4004 43.7435 65.1954 45.744 69.2431C46.6347 71.0445 42.818 77.1188 36.618 76.2573C36.5571 76.2095 36.4773 76.1974 36.4021 76.2213C35.5668 76.0791 34.4526 75.7772 34.0721 75.0163C32.4107 71.6651 30.2062 67.5957 27.8271 63.6306C27.3031 62.413 23.3141 58.1996 25.829 52.4658ZM104.583 107.628C102.791 105.332 99.4107 106.165 97.6756 109.349C97.2439 110.141 97.0101 110.691 96.8912 111.078C95.7039 109.184 94.9972 108.478 93.9123 107.192C94.2051 106.656 94.5654 107.024 95.0952 107.107C95.4442 107.161 95.8747 107.018 95.9842 106.645C96.0308 106.487 96.0046 106.334 95.9833 106.211C95.9439 105.978 95.9134 105.964 96.3299 105.934C97.202 105.866 98.0021 105.238 98.2757 104.408C98.3191 104.276 98.2472 104.134 98.1156 104.091C97.984 104.048 97.842 104.119 97.7987 104.251C97.5869 104.894 96.9669 105.381 96.2495 105.436C95.1223 105.518 95.556 106.323 95.5026 106.503C95.4793 106.583 95.3212 106.635 95.1729 106.611C94.8449 106.56 94.1346 106.138 93.6504 106.688C93.4451 106.351 93.4691 105.84 93.7681 105.559C94.1125 105.236 95.302 104.988 94.765 102.869C94.6327 102.352 94.3945 101.594 94.6755 101.048C95.0005 100.418 95.978 100.048 96.0443 99.1578C96.0546 99.0195 95.9509 98.8992 95.8127 98.8889C95.6761 98.8781 95.5538 98.982 95.5438 99.1205C95.4973 99.7438 94.5988 100.101 94.2294 100.818C93.5717 102.095 94.9863 103.824 94.1066 104.69C93.9415 104.852 93.6445 104.986 93.4242 105.193C92.8901 105.696 92.8644 106.645 93.4261 107.193C93.1857 107.391 93.1278 107.436 93.0739 107.479C85.1644 113.906 78.4838 115.296 78.2257 115.591C78.0031 115.713 78.0799 115.926 78.083 115.935C79.4001 119.469 82.7821 125.698 83.9739 127.8C84.1366 128.087 84.3319 128.089 88.2474 126.31C93.7888 123.793 91.4328 124.738 95.5825 122.762C98.4316 121.406 101.377 120.003 103.383 117.564C105.738 114.701 106.463 110.037 104.583 107.628ZM102.996 117.245C100.326 120.492 95.8378 121.878 92.2265 123.883C91.6188 124.221 85.3716 127.137 84.3337 127.416C83.1081 125.244 79.9514 119.411 78.6262 115.951C80.8575 114.993 85.934 113.943 93.6502 107.66C93.9712 108.036 94.1363 108.222 94.4882 108.636C94.4345 108.644 94.3823 108.666 94.3422 108.709C93.4058 109.71 92.2341 110.498 90.9538 110.989C90.8241 111.038 90.7594 111.183 90.8092 111.313C90.8588 111.443 91.0042 111.507 91.1332 111.457C92.4844 110.94 93.7208 110.108 94.7089 109.052C94.7336 109.026 94.7507 108.995 94.7619 108.963C95.2048 109.5 95.6618 110.104 96.2097 110.947C96.1365 110.961 96.0695 111.003 96.0325 111.075C95.5742 111.964 94.6351 112.605 93.6401 112.708C93.3152 112.742 93.3545 113.236 93.6921 113.208C94.839 113.089 95.9202 112.355 96.46 111.336C96.6914 111.705 96.8359 111.949 96.8677 112.002C96.939 112.121 97.0934 112.159 97.2118 112.088C97.331 112.017 97.3697 111.863 97.2986 111.744C97.2496 111.652 97.3013 111.084 98.1163 109.589C99.9904 106.152 103.741 105.821 104.842 109.197C105.533 111.321 105.068 114.724 102.996 117.245Z" fill="black"/>
<path d="M82.1637 118.364C81.8722 119.18 82.48 120.038 83.3443 120.038C84.2555 120.038 84.87 119.081 84.475 118.248C83.9943 117.235 82.5339 117.325 82.1637 118.364ZM83.0913 119.491C82.7034 119.353 82.4963 118.925 82.6366 118.532C82.859 117.907 83.7356 117.86 84.0216 118.463C84.1988 118.837 83.7182 119.714 83.0913 119.491ZM116.339 85.3612C116.028 81.1016 112.946 77.7216 110.356 77.3377C107.479 76.9128 105.601 79.8413 106.54 83.3475C106.773 84.2186 106.984 84.7785 107.164 85.1405C104.971 84.5806 103.944 84.5584 102.327 84.3806C102.255 84.1095 102.287 84.0002 102.488 83.8509C102.625 83.7485 102.93 83.6387 103.126 83.5034C103.416 83.3021 103.629 82.9013 103.45 82.5552C103.311 82.2847 103.027 82.2008 103.003 82.1027C102.99 82.0456 103.109 81.9137 103.21 81.8019C103.795 81.1519 103.942 80.1459 103.567 79.3554C103.508 79.2301 103.358 79.1769 103.233 79.2362C103.107 79.2955 103.054 79.4453 103.114 79.5706C103.404 80.1829 103.29 80.9624 102.808 81.4977C102.051 82.3349 102.916 82.6126 103.004 82.7851C103.042 82.8589 102.964 83.0048 102.84 83.0908C102.57 83.2782 101.762 83.4622 101.79 84.1961C101.411 84.0944 101.074 83.7088 101.097 83.297C101.125 82.7783 101.802 81.8196 99.964 80.6621C99.5116 80.3788 98.816 79.9941 98.6432 79.4049C98.444 78.7261 98.8976 77.7834 98.3309 77.0921C98.243 76.9848 98.0846 76.9688 97.9777 77.0571C97.8706 77.1448 97.8549 77.3032 97.9427 77.4103C98.3373 77.8923 97.9355 78.7754 98.1613 79.5461C98.3764 80.2788 99.0568 80.6864 99.6965 81.0872C100.415 81.5394 100.757 81.9802 100.743 82.4344C100.729 82.8449 100.274 83.598 101.039 84.3265C101.304 84.5795 101.639 84.7191 101.975 84.7232C100.751 94.8895 96.7474 100.989 96.759 101.281C96.6817 101.521 96.883 101.623 96.8923 101.628C100.65 103.458 109.265 106.18 109.447 106.18C109.678 106.18 109.956 105.732 111.409 102.133C113.659 96.5543 112.656 98.7299 114.274 94.5048C115.402 91.5579 116.568 88.5108 116.339 85.3612ZM112.616 97.6309C112.409 98.2944 109.896 104.714 109.337 105.632C106.951 104.904 100.641 102.856 97.2973 101.265C98.0392 99.531 101.192 94.8065 102.46 84.9001C102.91 84.9475 103.188 84.9707 103.74 85.0292C103.707 85.0722 103.684 85.124 103.684 85.1827C103.696 86.5537 103.392 87.9328 102.803 89.1704C102.743 89.2957 102.796 89.4454 102.921 89.505C103.047 89.5642 103.196 89.5114 103.256 89.3861C103.877 88.0801 104.199 86.625 104.186 85.1783C104.186 85.142 104.177 85.1081 104.163 85.077C104.854 85.1605 105.602 85.2832 106.581 85.516C106.537 85.5767 106.518 85.6536 106.54 85.7308C106.822 86.6907 106.584 87.8024 105.934 88.5632C105.795 88.726 105.912 88.9772 106.125 88.9772C106.196 88.9772 106.266 88.9473 106.316 88.8892C107.065 88.0121 107.342 86.7353 107.03 85.6251C107.268 85.6857 107.517 85.7517 107.784 85.8259C108.089 85.9106 108.234 85.4468 107.919 85.3423C107.82 85.3094 107.466 84.8636 107.025 83.2175C106.011 79.4299 108.508 76.6115 111.625 78.2962C113.591 79.3578 115.6 82.1382 115.838 85.3974C116.144 89.5925 113.85 93.6827 112.616 97.6309Z" fill="black"/>
<path d="M102.157 98.9288C100.938 99.4716 101.31 101.326 102.667 101.326C103.569 101.326 104.179 100.394 103.81 99.5646C103.53 98.9345 102.792 98.6467 102.157 98.9288ZM103.366 100.343C103.215 100.737 102.775 100.92 102.397 100.774C101.632 100.48 101.831 99.3225 102.666 99.3225C103.189 99.3225 103.556 99.8508 103.366 100.343Z" fill="black"/>
</g>
<defs>
<clipPath id="clip0_4889_20700">
<rect width="138" height="138" fill="white"/>
</clipPath>
</defs>
</svg>
