<svg width="415" height="415" viewBox="0 0 415 415" fill="none" xmlns="http://www.w3.org/2000/svg">
<g clip-path="url(#clip0_4889_20633)">
<path d="M53.1591 377.383H361.828C362.38 377.383 362.828 377.831 362.828 378.383V379.495C362.828 380.048 362.38 380.495 361.828 380.495H53.1591C52.6068 380.495 52.1591 380.048 52.1591 379.495V378.383C52.1591 377.831 52.6068 377.383 53.1591 377.383Z" fill="#16162B"/>
<path d="M173.627 222.979C177.777 219.846 174.872 210.633 176.595 206.379C178.317 202.125 181.388 202.561 181.388 202.561C182.632 200.951 184.353 199.775 186.306 199.2C186.306 199.2 186.16 194.427 188.256 194.033C190.352 193.639 197.573 193.535 200.851 192.684C204.13 191.833 199.98 197.83 194.17 198.266C195.565 199.551 196.862 200.938 198.05 202.416L198.237 202.665C198.984 200.59 201.868 193.618 205.437 194.012C209.587 194.448 204.192 200.548 204.088 207.437C204.088 213.227 202.304 219.203 191.078 228.187C188.671 230.096 186.472 242.028 186.14 246.157C179.566 245.973 173.26 243.517 168.295 239.206C172.092 229.183 171.2 224.805 173.627 222.979Z" fill="white"/>
<path d="M170.872 228.393C171.515 225.446 171.889 223.662 173.341 222.562C175.645 220.819 175.582 216.877 175.416 213.038C175.211 210.723 175.422 208.39 176.039 206.149C177.657 202.123 180.189 201.999 181.102 201.999C182.309 200.543 183.907 199.464 185.708 198.886C185.708 197.579 185.957 194.01 188.074 193.595C188.925 193.45 190.543 193.325 192.39 193.201C195.175 193.101 197.949 192.796 200.69 192.288C201.956 191.956 202.474 192.599 202.495 193.139C202.495 194.695 199.32 197.953 195.253 198.72C196 199.488 197.183 200.692 198.055 201.791C199.3 198.7 201.997 193.325 205.462 193.678C205.8 193.691 206.13 193.779 206.428 193.938C206.726 194.096 206.985 194.319 207.185 194.591C207.89 195.712 207.185 197.413 206.417 199.799C205.372 202.286 204.747 204.93 204.57 207.622C204.57 214.055 202.184 220.072 191.373 228.746C189.174 230.489 186.953 241.984 186.601 246.362V246.819H185.978C179.34 246.588 172.978 244.1 167.946 239.764L167.677 239.536L167.801 239.204C169.111 235.687 170.137 232.072 170.872 228.393ZM185.667 245.781C186.082 241.631 188.178 229.991 190.771 227.936C202.454 218.599 203.512 212.54 203.595 207.601C203.762 204.79 204.401 202.026 205.483 199.426C206.189 197.475 206.79 195.815 206.375 195.131C206.375 195.027 206.147 194.757 205.379 194.674H205.151C202.703 194.674 200.213 198.969 198.719 202.974L198.304 203.825L197.64 202.829C196.477 201.355 195.207 199.968 193.842 198.679L192.992 197.89H194.154C195.497 197.762 196.8 197.365 197.987 196.723C199.174 196.082 200.22 195.208 201.063 194.155C201.275 193.889 201.437 193.587 201.541 193.263C201.541 193.263 201.541 193.263 200.98 193.263C198.201 193.801 195.385 194.12 192.556 194.218C190.73 194.363 189.132 194.467 188.406 194.612C187.057 194.861 186.85 198.139 186.891 199.26V199.696H186.476C184.663 200.224 183.055 201.296 181.87 202.767L181.662 203.016H181.351C181.247 203.016 178.695 202.621 177.201 206.522C176.635 208.638 176.445 210.836 176.641 213.017C176.641 217.167 176.807 221.317 174.068 223.392C172.926 224.243 172.594 225.799 171.993 228.6C171.276 232.205 170.284 235.75 169.025 239.204C173.718 243.133 179.556 245.44 185.667 245.781ZM313.321 106.404L312.159 106.632C307.532 82.9976 301.597 60.5461 301.535 60.3178L302.697 60.0273C302.759 60.1726 308.673 82.6241 313.321 106.404ZM275.411 136.948L274.29 137.342C274.29 137.051 264.04 108.458 261.84 100.22L262.981 99.9296C265.181 108.022 275.307 136.574 275.411 136.948ZM286.823 113.189C287.461 117.164 289.201 120.88 291.845 123.917L290.911 124.664C288.149 121.46 286.331 117.552 285.661 113.376C283.586 100.531 278.876 77.9553 278.814 77.7271L279.996 77.4781C280.121 77.7063 284.727 100.324 286.823 113.189ZM316.537 207.103C327.452 202.746 337.287 202.642 339.051 206.896L337.951 207.352C336.685 204.198 327.95 203.825 316.994 208.224C306.038 212.623 299.979 218.931 301.244 222.064L300.124 222.521C298.422 218.267 305.623 211.482 316.537 207.103ZM308.943 190.503C321.787 184.507 334.071 184.424 336.768 190.337L335.689 190.835C333.262 185.627 321.496 185.959 309.441 191.582C304.043 193.951 299.191 197.405 295.185 201.729C291.99 205.402 290.869 208.763 292.011 211.212C292.109 211.419 292.22 211.62 292.343 211.814L291.367 212.478C291.202 212.233 291.056 211.977 290.932 211.71C289.583 208.826 290.766 204.987 294.272 200.941C298.408 196.508 303.399 192.957 308.943 190.503Z" fill="black"/>
<path d="M281.677 102.149C290.187 93.8143 300.304 87.2981 311.412 82.9968H311.682C321.559 79.5938 329.34 80.2163 333.573 84.719C334.437 85.6226 335.139 86.6686 335.648 87.8108L334.569 88.288C334.112 87.2764 333.495 86.3446 332.743 85.5283C328.821 81.3783 321.497 80.901 311.993 84.1173C300.937 88.348 290.872 94.8111 282.424 103.104C265.202 119.351 255.594 139.229 260.056 149.355L258.956 149.833C254.287 139.022 263.812 118.977 281.677 102.149ZM293.131 136.532C300.966 130.527 309.96 126.21 319.546 123.854C327.97 122.069 334.279 123.356 337.308 127.485C337.999 128.408 338.5 129.458 338.781 130.577L337.64 130.888C337.382 129.917 336.946 129.002 336.353 128.19C333.614 124.455 327.721 123.335 319.753 125.016C310.353 127.346 301.531 131.584 293.837 137.466C285.915 143.05 279.226 150.205 274.186 158.485C270.202 165.561 269.518 171.516 272.257 175.231L272.672 175.749L271.78 176.538C271.609 176.346 271.45 176.146 271.302 175.936C268.273 171.786 268.937 165.416 273.149 157.904C278.266 149.48 285.069 142.203 293.131 136.532ZM301.66 169.815C307.716 165.647 314.545 162.733 321.746 161.245C328.116 160.166 332.743 161.245 334.818 164.441L333.822 165.105C331.996 162.366 327.846 161.432 321.953 162.428C314.919 163.85 308.244 166.673 302.324 170.728C290.62 178.447 282.818 188.822 283.773 195.192L282.59 195.358C281.573 188.386 289.417 177.866 301.66 169.815Z" fill="black"/>
<path d="M277.567 184.882C282.464 193.618 287.527 202.644 292.258 211.961C301.491 230.076 315.788 228.291 321.515 226.673C331.081 223.996 338.738 216.132 338.115 209.533C337.949 207.458 337.596 204.719 337.202 201.607C334.205 182.505 334.066 163.064 336.787 143.922C341.643 113.419 330.085 60.3823 329.919 59.8428L331.081 59.5938C331.205 60.1332 342.784 113.378 338.011 144.088C335.3 163.12 335.44 182.45 338.426 201.441C338.841 204.574 339.173 207.292 339.36 209.45C339.879 216.173 332.741 223.975 323.445 227.295C322.905 227.482 322.345 227.669 321.785 227.814C309.335 231.342 297.819 225.615 291.137 212.501C286.406 203.205 281.343 194.178 276.467 185.526C265.718 166.332 255.572 148.175 252.044 132.488L253.206 132.24C256.754 147.719 266.86 165.771 277.567 184.882Z" fill="black"/>
<path d="M275.43 137.161C272.774 155.359 284.954 176.212 294.645 192.978C298.268 198.887 301.552 204.998 304.48 211.28C309.149 222.34 314.585 227.569 319.814 225.992C325.043 224.415 329.007 215.471 327.596 207.981C326.288 201.029 325.396 183.911 324.359 164.074C323.819 153.699 323.259 142.784 322.574 132.243C321.889 121.702 312.199 107.032 312.199 106.866L313.195 106.223C313.61 106.845 323.155 121.474 323.84 132.16C324.525 142.846 325.106 153.553 325.645 163.928C326.683 183.724 327.575 200.801 328.882 207.669C330.397 215.7 326.371 224.933 320.582 226.967H320.271C316.868 228.004 310.166 227.361 303.505 211.57C300.609 205.331 297.345 199.268 293.732 193.414C283.834 176.648 271.529 155.628 274.247 136.953L275.43 137.161ZM254.846 133.135L258.104 136.061L180.976 222.672C180.591 223.104 180.05 223.365 179.472 223.398C178.894 223.431 178.327 223.233 177.895 222.848C177.463 222.463 177.201 221.922 177.168 221.344C177.135 220.766 177.333 220.199 177.718 219.767L254.846 133.135Z" fill="black"/>
<path d="M254.784 132.281L258.934 135.996L181.412 223.146C181.099 223.504 180.698 223.776 180.25 223.934C179.78 224.097 179.275 224.133 178.787 224.038C178.298 223.944 177.844 223.721 177.469 223.395C177.194 223.152 176.969 222.856 176.809 222.526C176.648 222.196 176.555 221.837 176.533 221.471C176.512 221.104 176.564 220.737 176.685 220.391C176.807 220.044 176.995 219.725 177.241 219.452L254.784 132.281ZM178.278 222.419C178.602 222.691 179.017 222.828 179.438 222.8C179.86 222.773 180.254 222.585 180.54 222.274L257.294 136.099L254.908 134.024L178.133 220.199C177.992 220.356 177.884 220.54 177.817 220.74C177.749 220.939 177.722 221.151 177.739 221.361C177.778 221.769 177.971 222.148 178.278 222.419Z" fill="black"/>
<path d="M184.006 210.113L189.754 215.239L179.939 226.547C179.262 227.309 178.31 227.772 177.293 227.832C176.275 227.892 175.275 227.546 174.513 226.869C173.751 226.192 173.289 225.24 173.228 224.222C173.168 223.205 173.515 222.205 174.191 221.443L184.006 210.113Z" fill="#D9EDDF"/>
<path d="M183.964 209.264L190.604 215.178L180.395 226.943C179.9 227.513 179.263 227.943 178.548 228.188C177.62 228.515 176.609 228.524 175.676 228.213C174.742 227.903 173.937 227.292 173.388 226.475C172.84 225.658 172.578 224.682 172.645 223.7C172.711 222.718 173.102 221.786 173.755 221.05L183.964 209.264ZM174.917 226.424C175.568 226.977 176.407 227.259 177.26 227.213C178.112 227.166 178.915 226.795 179.503 226.175L188.82 215.282L183.964 210.966L174.544 221.839C174.265 222.163 174.054 222.54 173.921 222.947C173.789 223.354 173.739 223.783 173.774 224.209C173.809 224.636 173.927 225.051 174.124 225.431C174.32 225.812 174.59 226.149 174.917 226.424ZM327.513 55.8801C337.888 65.1969 330.376 90.8024 310.539 113.088C290.702 135.373 266.134 145.873 255.676 136.556C245.218 127.239 252.813 101.675 272.65 79.3484C292.487 57.0214 317.055 46.5634 327.513 55.8801ZM258.623 133.278C267.234 140.934 288.98 130.58 307.095 110.121C325.209 89.6611 333.198 66.8361 324.587 59.1794C315.976 51.5226 294.209 61.8769 275.97 82.3364C257.73 102.796 250.011 125.6 258.623 133.278Z" fill="black"/>
<path d="M272.212 78.9533C282.857 66.9805 295.411 57.8713 306.616 54.0533C315.704 50.8785 323.216 51.3973 327.905 55.5265C338.612 65.0508 331.018 91.092 310.994 113.627C300.329 125.599 287.775 134.709 276.57 138.527C267.481 141.66 259.928 141.1 255.218 136.95C249.968 132.281 248.993 123.628 252.168 112.589C255.343 101.55 262.564 89.8055 272.212 78.9533ZM256.069 136.12C260.385 139.958 267.523 140.394 276.176 137.365C287.215 133.505 299.582 124.5 310.102 112.693C329.69 90.6978 337.326 65.4035 327.117 56.315C322.822 52.497 315.684 52.0405 307.01 55.07C295.992 58.9295 283.625 67.9143 273.105 79.7418C263.56 90.4695 256.505 102.276 253.371 112.942C250.238 123.607 251.193 131.783 256.069 136.12Z" fill="black"/>
<path d="M308.299 57.73C315.603 55.1778 321.372 55.5305 324.899 58.726C333.739 66.611 325.978 89.851 307.573 110.601C297.073 122.366 285.163 131.185 274.829 134.796C267.505 137.348 261.736 137.016 258.229 133.8C249.39 125.915 257.171 102.675 275.576 82.0283C286.034 70.1593 297.966 61.3405 308.299 57.73ZM259.018 132.804C262.276 135.709 267.629 135.978 274.518 133.571C284.644 130.023 296.409 121.329 306.764 109.709C324.733 89.519 332.535 67.0468 324.194 59.5975C320.936 56.6925 315.562 56.4435 308.673 58.8505C298.547 62.378 286.781 71.093 276.448 82.713C258.478 102.903 250.656 125.396 259.018 132.804Z" fill="black"/>
<path d="M293.731 126.221C298.483 131.247 301.719 137.511 303.069 144.294C304.086 149.191 305.808 157.346 307.779 166.663C312.635 189.695 319.275 221.256 319.918 226.215L318.756 226.361C318.092 221.464 311.452 189.924 306.596 166.912C304.646 157.699 302.944 149.399 301.907 144.543C300.612 137.945 297.459 131.855 292.818 126.989L290.909 124.665L291.843 123.918C292.445 124.686 293.088 125.453 293.731 126.221Z" fill="black"/>
<path d="M261.987 152.115C265.888 156.265 273.233 156.763 282.633 153.526C293.676 149.271 303.737 142.811 312.202 134.54C329.507 118.272 339.114 98.3103 334.549 88.1843L335.628 87.707C340.463 98.4348 330.96 118.479 313.032 135.432C304.52 143.779 294.395 150.303 283.276 154.605H283.027C273.15 158.008 265.369 157.386 261.115 152.883C260.251 151.948 259.55 150.875 259.04 149.708L260.14 149.21C260.589 150.274 261.214 151.256 261.987 152.115ZM314.733 165.997C330.379 154.522 339.986 139.769 337.558 130.95L338.699 130.639C341.272 139.852 331.458 155.124 315.397 166.91C309.23 171.522 302.421 175.206 295.187 177.845C284.812 181.476 275.868 181.29 271.739 176.559L272.631 175.77C278.856 182.846 297.739 178.447 314.733 165.997ZM284.625 197.495C288.422 203.347 302.574 200.712 316.144 191.789C329.715 182.867 337.641 170.873 333.823 165.105L334.819 164.441C338.969 170.873 331.146 183.323 316.787 192.785C312.531 195.624 307.946 197.937 303.134 199.674C294.087 202.828 286.534 202.496 283.629 198.159C283.08 197.314 282.725 196.357 282.591 195.358L283.774 195.192C283.887 196.012 284.178 196.798 284.625 197.495ZM318.261 210.464C330.088 204.945 338.077 195.939 335.691 190.835L336.77 190.337C339.529 196.23 331.603 205.546 318.759 211.543C317.016 212.352 315.273 213.058 313.571 213.618C303.404 217.166 294.336 216.834 291.369 212.435L292.344 211.771C295.436 216.399 306.827 215.797 318.261 210.464ZM322.203 221.192C333.18 216.793 339.197 210.485 337.952 207.352L339.052 206.895C340.754 211.17 333.553 217.934 322.639 222.312C321.85 222.624 321.041 222.935 320.253 223.205C310.313 226.67 301.723 226.462 300.125 222.52L301.246 222.063C302.491 225.217 311.247 225.612 322.203 221.192Z" fill="black"/>
<path d="M187.988 202.418C188.808 202.311 189.641 202.451 190.38 202.821C191.119 203.191 191.732 203.773 192.138 204.493C192.927 206.379 193.62 208.304 194.213 210.261C194.33 212.256 194.041 214.254 193.362 216.133C192.594 217.627 187.386 216.59 188.444 211.299C187.894 210.6 187.479 209.805 187.22 208.954C187.22 208.954 184.502 209.369 183.817 208.954C183.221 209.932 182.479 210.813 181.618 211.568L181.14 202.521C181.14 202.521 186.037 202.667 187.988 202.418Z" fill="white"/>
<path d="M191.682 204.805C191.341 204.157 190.811 203.63 190.162 203.292C189.513 202.955 188.776 202.824 188.051 202.916C185.738 203.081 183.417 203.123 181.099 203.041V202.024C181.099 202.024 186.017 202.149 187.905 201.9C188.844 201.796 189.793 201.976 190.628 202.416C191.464 202.856 192.149 203.536 192.595 204.369C193.176 205.635 194.462 209.432 194.67 210.241C194.82 212.356 194.515 214.478 193.778 216.466C193.575 216.759 193.301 216.995 192.981 217.151C192.662 217.307 192.307 217.379 191.952 217.358C191.514 217.351 191.079 217.274 190.665 217.13C189.576 216.717 188.683 215.909 188.164 214.867C187.645 213.824 187.538 212.625 187.864 211.507C187.413 210.912 187.037 210.264 186.743 209.577C185.809 209.733 184.856 209.733 183.921 209.577C183.359 210.476 182.659 211.281 181.846 211.963L181.245 211.133C182.053 210.423 182.752 209.598 183.32 208.685L183.61 208.208L184.046 208.54C185.046 208.74 186.076 208.74 187.075 208.54H187.594V209.079C187.838 209.837 188.226 210.542 188.735 211.154L188.881 211.341V211.569C188.196 214.993 190.312 216.01 190.956 216.238C191.599 216.466 192.657 216.404 192.823 216.072C193.449 214.309 193.724 212.441 193.632 210.573C193.089 208.616 192.438 206.69 191.682 204.805Z" fill="black"/>
<path d="M182.304 215.2L181.91 211.672C182.305 212.803 182.44 214.009 182.304 215.2Z" fill="#E8A188"/>
<path d="M189.318 209.577C189.55 211.152 189.696 212.738 189.754 214.329C189.446 215.815 188.847 217.226 187.99 218.479C187.139 219.433 183.404 217.669 185.23 213.893C184.932 213.241 184.769 212.535 184.753 211.818C183.768 211.823 182.79 211.648 181.869 211.299L181.163 205.074C182.928 205.841 184.753 206.458 186.621 206.921C187.296 207.015 187.923 207.325 188.409 207.803C188.894 208.281 189.213 208.903 189.318 209.577Z" fill="white"/>
<path d="M184.667 211.459H185.248V212.02C185.287 212.624 185.442 213.216 185.705 213.763V213.97L185.601 214.178C185.394 214.467 185.246 214.795 185.166 215.142C185.086 215.489 185.076 215.849 185.136 216.2C185.196 216.551 185.324 216.887 185.515 217.188C185.705 217.489 185.953 217.749 186.244 217.954C186.867 218.369 187.406 218.348 187.531 218.203C188.308 217.012 188.864 215.691 189.17 214.302C189.17 213.68 188.921 210.629 188.734 209.654C188.613 209.119 188.331 208.634 187.927 208.264C187.523 207.893 187.016 207.654 186.472 207.579C184.558 207.12 182.69 206.488 180.891 205.691L181.285 204.757C183.004 205.506 184.781 206.117 186.597 206.583C187.347 206.676 188.052 206.997 188.615 207.501C189.179 208.005 189.575 208.67 189.751 209.405C189.938 210.463 190.187 213.555 190.187 214.261C189.895 215.907 189.251 217.472 188.298 218.846C188.157 218.993 187.985 219.108 187.796 219.183C187.606 219.258 187.403 219.292 187.199 219.282C186.647 219.265 186.112 219.085 185.663 218.763C184.915 218.231 184.39 217.44 184.191 216.543C183.992 215.646 184.132 214.707 184.584 213.908C184.387 213.428 184.248 212.926 184.169 212.414C183.618 212.386 183.07 212.316 182.53 212.206C182.806 213.184 182.869 214.21 182.717 215.215L181.721 215.028C181.846 213.845 181.682 212.649 181.243 211.542L180.081 208.617L182.156 211.003C182.959 211.306 183.81 211.461 184.667 211.459ZM192.22 198.802C194.554 200.512 196.57 202.619 198.175 205.027C198.341 205.525 198.57 206.583 198.819 207.683C199.068 208.783 199.317 209.758 199.503 210.443C199.875 211.331 199.985 212.307 199.82 213.256C199.654 214.205 199.22 215.086 198.57 215.796C198.118 216.215 197.526 216.452 196.91 216.46C196.596 216.46 196.285 216.397 195.997 216.273C194.627 215.692 193.797 213.949 193.714 211.48H194.731C194.731 213.555 195.436 214.966 196.391 215.381C196.646 215.482 196.926 215.507 197.195 215.451C197.464 215.396 197.711 215.264 197.906 215.07C198.396 214.481 198.713 213.768 198.823 213.01C198.933 212.252 198.831 211.478 198.528 210.775C198.321 210.09 198.072 209.011 197.823 207.953C197.574 206.894 197.345 205.878 197.2 205.4C195.688 203.244 193.847 201.34 191.743 199.756C189.977 199.393 188.156 199.393 186.389 199.756L186.223 198.74C188.205 198.343 190.247 198.364 192.22 198.802Z" fill="black"/>
<path d="M169.978 235.119C175.829 232.006 182.988 236.322 188.383 233.563C199.63 232.546 192.035 264.688 192.035 264.688C204.485 252.092 222.953 251.989 237.146 244.456C259.825 232.401 246.172 273.901 230.153 289.131C217.039 301.706 191.516 318.638 172.987 311.956C151.469 304.05 155.619 259.376 161.844 244.851C163.047 241.8 164.936 231.093 169.978 235.119Z" fill="white"/>
<path d="M238.782 246.927C242.351 245.039 240.546 241.221 245.941 235.369C253.888 226.696 263.661 224.558 288.105 230.078C308.855 234.747 305.659 247.363 303.958 249.956C301.177 254.231 313.669 255.953 315.744 270.333C317.466 282.887 319.541 321.627 320.973 378.088H312.05C312.05 378.088 224.527 378.627 224.61 378.316L210.541 378.025C210.541 333.392 211.164 300.151 215.459 290.315C217.285 286.186 228.905 252.156 238.782 246.927Z" fill="white"/>
<path d="M255.76 230.327L279.809 221.633C278.897 229.68 279.711 237.829 282.195 245.537C262.275 258.36 253.747 248.151 253.747 248.151C257.295 241.366 255.76 230.327 255.76 230.327Z" fill="white"/>
<path d="M255.22 230.329V229.935L280.452 220.805L280.328 221.635C279.425 229.617 280.224 237.701 282.672 245.352L282.797 245.746L282.465 245.954C275.721 250.311 269.538 252.511 264.06 252.511C262.083 252.611 260.108 252.293 258.263 251.578C256.418 250.863 254.745 249.766 253.353 248.361L253.124 248.112L253.29 247.8C256.756 241.347 255.22 230.453 255.22 230.329ZM263.997 251.494C269.185 251.494 275.057 249.419 281.51 245.269C279.203 237.845 278.399 230.037 279.145 222.299L256.32 230.599C256.569 232.674 257.42 241.866 254.245 248.049C256.929 250.442 260.448 251.68 264.039 251.494H263.997Z" fill="black"/>
<path d="M254.701 200.509C255.214 198.252 255.979 196.059 256.983 193.973C259.473 189.034 269.205 181.191 281.883 192.603C297.425 206.568 285.701 217.752 285.701 217.752C288.793 220.657 288.399 224.268 285.058 227.235C284.153 227.955 283.096 228.459 281.967 228.711C280.839 228.963 279.668 228.955 278.543 228.688C267.566 240.1 254.431 235.12 249.7 230.057C243.786 223.687 245.052 213.457 251.153 206.9C252.861 205.107 254.082 202.907 254.701 200.509Z" fill="white"/>
<path d="M252.605 217.606C255.573 222.503 257.357 223.478 258.166 223.624C258.347 223.69 258.546 223.69 258.727 223.624C258.773 223.58 258.827 223.546 258.887 223.523C258.946 223.501 259.01 223.49 259.073 223.492C259.137 223.494 259.199 223.508 259.257 223.535C259.315 223.561 259.368 223.598 259.411 223.644C259.455 223.691 259.489 223.745 259.512 223.805C259.534 223.864 259.545 223.927 259.543 223.991C259.541 224.055 259.526 224.117 259.5 224.175C259.474 224.233 259.437 224.285 259.391 224.329C259.213 224.475 259.006 224.58 258.784 224.637C258.562 224.694 258.33 224.703 258.104 224.661C256.382 224.433 254.265 222.254 251.879 218.166C251.858 218.099 251.858 218.026 251.879 217.959C251.87 217.869 251.887 217.778 251.927 217.697C251.967 217.617 252.03 217.549 252.107 217.502C252.191 217.468 252.283 217.46 252.372 217.478C252.461 217.497 252.542 217.541 252.605 217.606Z" fill="black"/>
<path d="M254.204 200.386C254.736 198.095 255.516 195.869 256.528 193.746C258.209 190.605 261.005 188.206 264.365 187.024C267.725 185.841 271.407 185.959 274.685 187.355C277.459 188.511 280.003 190.156 282.196 192.211C287.591 197.045 290.351 202.108 290.496 207.234C290.467 211.134 288.988 214.884 286.346 217.754C286.939 218.324 287.414 219.007 287.741 219.762C288.069 220.517 288.244 221.33 288.255 222.153C288.182 223.216 287.885 224.251 287.385 225.191C286.884 226.132 286.191 226.956 285.35 227.61C284.425 228.364 283.343 228.903 282.184 229.186C281.025 229.47 279.817 229.491 278.648 229.249C275.867 232.397 272.182 234.609 268.096 235.583C264.011 236.556 259.724 236.243 255.823 234.686C253.38 233.709 251.173 232.223 249.349 230.328C243.58 224.103 244.203 213.728 250.801 206.466C252.433 204.76 253.604 202.668 254.204 200.386ZM250.054 229.706C251.815 231.48 253.939 232.853 256.279 233.731C259.931 235.163 269.352 237.508 278.171 228.336L278.378 228.129H278.669C279.715 228.381 280.804 228.39 281.854 228.157C282.905 227.923 283.887 227.452 284.728 226.78C285.462 226.223 286.071 225.518 286.514 224.71C286.957 223.902 287.225 223.009 287.301 222.091C287.274 221.321 287.087 220.565 286.751 219.871C286.415 219.178 285.938 218.563 285.35 218.065L284.956 217.712L285.35 217.318C287.978 214.59 289.463 210.959 289.5 207.171C289.5 202.337 286.782 197.543 281.615 192.916C279.495 190.94 277.044 189.352 274.373 188.227C271.33 186.931 267.913 186.819 264.792 187.913C261.671 189.007 259.071 191.228 257.504 194.14C256.5 196.212 255.735 198.391 255.221 200.635C254.592 203.112 253.334 205.385 251.569 207.234C245.323 214.019 244.68 223.875 250.096 229.706H250.054Z" fill="black"/>
<path d="M274.848 212.443L273.914 212.858C272.872 210.466 270.968 208.555 268.581 207.504L268.934 206.55C271.591 207.679 273.709 209.79 274.848 212.443ZM262.73 201.279L262.169 202.13C260.523 201.028 258.567 200.483 256.588 200.574L256.401 199.557C258.643 199.41 260.871 200.016 262.73 201.279ZM259.804 211.82C260.572 212.09 261.132 212.941 261.422 214.289L260.406 214.497C260.198 213.542 259.887 212.899 259.472 212.795C259.306 212.763 259.135 212.766 258.97 212.806C258.805 212.845 258.651 212.919 258.517 213.024L258.206 212.629L257.874 212.214C258.144 212.005 258.458 211.86 258.793 211.791C259.128 211.723 259.474 211.733 259.804 211.82Z" fill="black"/>
<path d="M279.207 179.595C279.207 179.595 296.139 172.83 305.788 196.485C313.963 216.488 295.828 231.138 287.362 232.051C285.734 232.224 284.088 232.01 282.559 231.426C281.03 230.842 279.661 229.904 278.564 228.689C282.257 229.581 292.217 224.684 285.722 217.754C285.281 217.27 284.731 216.897 284.118 216.666C283.505 216.436 282.846 216.353 282.195 216.426C279.56 216.613 275.513 221.862 275.513 221.862C275.825 218.729 287.216 206.383 287.216 206.383C283.789 207.137 280.402 208.065 277.07 209.163L271.612 202.731C271.58 198.877 272.357 195.06 273.895 191.526C270.584 193.046 268 195.802 266.695 199.203C262.15 196.112 253.332 198.166 253.332 198.166C253.332 198.166 252.439 195.697 254.597 189.368C256.921 182.603 267.504 171.71 279.207 179.595Z" fill="black"/>
<path d="M264.677 177.728C266.996 176.643 269.562 176.19 272.112 176.416C274.663 176.642 277.109 177.538 279.202 179.014C283.237 177.771 287.574 177.932 291.506 179.471C297.731 181.898 302.628 187.563 306.197 196.278C307.826 199.988 308.535 204.036 308.264 208.078C307.993 212.121 306.75 216.038 304.641 219.497C300.18 226.988 292.336 231.947 287.356 232.549C285.626 232.76 283.871 232.532 282.252 231.885C280.666 231.265 279.245 230.285 278.102 229.022L277.147 227.839L278.621 228.192C280.183 228.318 281.751 228.032 283.167 227.362C284.584 226.692 285.8 225.661 286.692 224.374C287.834 222.423 287.356 220.327 285.281 218.149C284.904 217.718 284.427 217.386 283.891 217.183C283.356 216.981 282.778 216.913 282.21 216.987C280.239 217.111 276.981 220.805 275.985 222.216L274.886 223.627L275.072 221.863C275.342 219.124 282.895 210.513 285.842 207.338C282.439 208.106 277.334 209.745 277.272 209.766H276.961L271.151 202.96V202.773C271.113 199.335 271.696 195.919 272.873 192.688C270.273 194.217 268.274 196.59 267.208 199.411L267.001 200.075L266.42 199.681C265.959 199.365 265.465 199.101 264.946 198.893C260.402 197.108 253.534 198.685 253.472 198.706H253.015L252.87 198.27C252.87 198.27 251.936 195.552 254.136 189.14C256.104 184.155 259.863 180.085 264.677 177.728ZM253.721 197.585C257.547 196.72 261.529 196.834 265.299 197.917C265.691 198.079 266.073 198.266 266.44 198.478C267.857 195.206 270.427 192.569 273.661 191.07L274.969 190.427L274.346 191.755C272.87 195.159 272.121 198.834 272.147 202.545L277.272 208.583C280.52 207.506 283.824 206.606 287.17 205.885L288.643 205.657L287.626 206.736C284.129 210.498 280.845 214.454 277.791 218.584C278.946 217.264 280.483 216.335 282.19 215.928C282.911 215.841 283.642 215.93 284.321 216.186C285 216.443 285.607 216.86 286.091 217.402C289.099 220.618 288.601 223.253 287.647 224.892C286.766 226.151 285.617 227.199 284.282 227.96C282.947 228.721 281.46 229.175 279.928 229.291C280.757 229.978 281.688 230.531 282.688 230.931C284.149 231.513 285.733 231.72 287.294 231.532C292.046 231.034 299.516 226.2 303.894 219.082C305.926 215.762 307.124 211.999 307.388 208.115C307.652 204.231 306.973 200.341 305.409 196.776C301.944 188.31 297.109 182.853 291.278 180.529C287.504 179.037 283.328 178.912 279.471 180.176H279.222L278.994 180.01C277.032 178.557 274.712 177.664 272.281 177.427C269.851 177.189 267.402 177.616 265.195 178.661C260.601 180.899 257.021 184.79 255.173 189.555C254.094 192.089 253.598 194.834 253.721 197.585Z" fill="black"/>
<path d="M270.658 212.188C270.772 212.294 270.86 212.425 270.918 212.569C270.975 212.714 271 212.87 270.99 213.025C270.98 213.18 270.937 213.332 270.862 213.468C270.787 213.605 270.683 213.723 270.557 213.815C270.431 213.906 270.287 213.969 270.134 213.999C269.981 214.028 269.823 214.023 269.672 213.985C269.522 213.946 269.381 213.875 269.261 213.776C269.141 213.677 269.044 213.553 268.977 213.412C268.864 213.305 268.775 213.175 268.718 213.03C268.66 212.886 268.636 212.73 268.645 212.575C268.655 212.419 268.699 212.268 268.774 212.131C268.849 211.995 268.953 211.877 269.078 211.785C269.204 211.693 269.349 211.63 269.502 211.601C269.655 211.572 269.812 211.576 269.963 211.615C270.114 211.653 270.254 211.725 270.375 211.824C270.495 211.923 270.592 212.047 270.658 212.188Z" fill="black"/>
<path d="M271.07 211.898C271.335 212.241 271.461 212.67 271.423 213.102C271.41 213.315 271.349 213.523 271.245 213.709C271.14 213.896 270.996 214.057 270.821 214.181C270.616 214.334 270.373 214.431 270.118 214.46C269.862 214.489 269.604 214.45 269.369 214.347C269.045 214.22 268.765 214.004 268.56 213.724C268.287 213.386 268.161 212.953 268.208 212.521C268.254 212.089 268.47 211.693 268.809 211.421C269.175 211.196 269.614 211.12 270.035 211.209C270.455 211.298 270.826 211.544 271.07 211.898ZM269.39 213.122C269.475 213.256 269.608 213.354 269.761 213.396C269.914 213.438 270.077 213.422 270.22 213.351C270.276 213.316 270.323 213.267 270.356 213.209C270.388 213.151 270.406 213.085 270.406 213.019C270.422 212.834 270.371 212.65 270.261 212.5C270.17 212.375 270.049 212.275 269.908 212.209C269.832 212.168 269.746 212.146 269.659 212.146C269.572 212.146 269.487 212.168 269.41 212.209C269.346 212.266 269.294 212.336 269.258 212.413C269.222 212.491 269.203 212.576 269.201 212.661C269.199 212.747 269.214 212.832 269.247 212.912C269.279 212.991 269.328 213.063 269.39 213.122ZM258.641 203.743C258.746 203.853 258.825 203.983 258.875 204.126C258.925 204.269 258.944 204.421 258.93 204.572C258.916 204.723 258.869 204.869 258.794 205C258.719 205.131 258.617 205.245 258.494 205.333C258.371 205.422 258.231 205.483 258.082 205.512C257.934 205.542 257.781 205.539 257.633 205.504C257.486 205.47 257.348 205.404 257.228 205.311C257.109 205.219 257.01 205.102 256.94 204.968C256.836 204.855 256.758 204.722 256.709 204.577C256.66 204.432 256.641 204.279 256.655 204.126C256.669 203.974 256.714 203.826 256.788 203.692C256.862 203.559 256.963 203.442 257.085 203.349C257.212 203.271 257.354 203.219 257.502 203.196C257.65 203.174 257.801 203.181 257.946 203.218C258.091 203.255 258.227 203.32 258.347 203.41C258.466 203.501 258.566 203.614 258.641 203.743Z" fill="black"/>
<path d="M259.033 203.353C259.301 203.702 259.427 204.139 259.386 204.577C259.37 204.789 259.308 204.996 259.204 205.182C259.1 205.369 258.957 205.53 258.784 205.656C258.574 205.8 258.332 205.891 258.079 205.92C257.825 205.949 257.569 205.915 257.332 205.822C257.007 205.688 256.726 205.465 256.522 205.179C256.257 204.841 256.134 204.413 256.181 203.986C256.227 203.56 256.439 203.168 256.771 202.896C257.134 202.664 257.573 202.582 257.995 202.667C258.417 202.752 258.789 202.998 259.033 203.353ZM257.352 204.577C257.439 204.706 257.562 204.807 257.705 204.867C257.778 204.909 257.86 204.931 257.944 204.931C258.028 204.931 258.11 204.909 258.182 204.867C258.238 204.826 258.284 204.774 258.316 204.712C258.349 204.651 258.367 204.584 258.369 204.515C258.38 204.33 258.329 204.148 258.224 203.996C258.132 203.876 258.011 203.783 257.871 203.726C257.795 203.684 257.709 203.662 257.622 203.662C257.535 203.662 257.45 203.684 257.373 203.726C257.301 203.778 257.242 203.845 257.198 203.923C257.154 204 257.128 204.086 257.12 204.174C257.112 204.263 257.123 204.352 257.152 204.435C257.182 204.519 257.229 204.596 257.29 204.66L257.352 204.577ZM319.374 197.231C330.89 204.452 328.961 223.854 316.428 219.475C303.895 215.097 313.294 205.739 299.537 206.776C299.537 206.776 307.858 189.99 319.374 197.231Z" fill="black"/>
<path d="M317.472 195.654C318.242 195.972 318.985 196.354 319.692 196.795C327.017 201.402 329.154 210.801 326.478 216.383C324.631 220.201 320.834 221.529 316.31 219.952L315.542 219.662C313.735 219.095 312.106 218.068 310.814 216.682C309.523 215.296 308.614 213.599 308.176 211.756C307.574 209.93 307.097 208.477 305.23 207.751C303.418 207.191 301.507 207.029 299.627 207.274H298.735L299.129 206.465C299.171 206.402 306.724 191.442 317.472 195.654ZM305.603 206.797C306.531 207.217 307.342 207.859 307.964 208.665C308.587 209.472 309.001 210.419 309.172 211.424C309.566 213.125 310.397 214.694 311.583 215.975C312.77 217.256 314.27 218.205 315.937 218.728L316.663 218.998C320.813 220.409 323.946 219.288 325.565 215.947C328.055 210.76 326.042 201.983 319.174 197.646C318.513 197.242 317.818 196.895 317.099 196.608C308.633 193.288 302.179 203.269 300.499 206.216C302.208 206.058 303.932 206.256 305.562 206.797H305.603Z" fill="black"/>
<path d="M260.41 254.809L243.81 245.056C248.168 243.396 260.41 243.687 260.41 254.809Z" fill="white"/>
<path d="M243.578 244.582C245.745 243.87 248.04 243.634 250.306 243.888C252.572 244.142 254.757 244.881 256.713 246.055C258.09 247.043 259.193 248.365 259.919 249.897C260.645 251.429 260.97 253.12 260.863 254.811C260.863 254.949 260.808 255.081 260.711 255.178C260.614 255.275 260.482 255.33 260.344 255.33C260.207 255.33 260.075 255.275 259.977 255.178C259.88 255.081 259.825 254.949 259.825 254.811C259.929 253.292 259.644 251.771 258.998 250.391C258.352 249.012 257.365 247.82 256.132 246.926C254.315 245.847 252.288 245.168 250.188 244.936C248.087 244.703 245.961 244.922 243.952 245.578C243.822 245.619 243.682 245.61 243.559 245.552C243.436 245.494 243.339 245.392 243.288 245.266C243.261 245.202 243.247 245.134 243.247 245.064C243.247 244.995 243.261 244.926 243.288 244.863C243.315 244.799 243.355 244.741 243.405 244.693C243.455 244.644 243.513 244.607 243.578 244.582Z" fill="black"/>
<path d="M262.043 250.352C271.651 238.587 288.79 238.795 296.156 241.264L259.802 257.304C257.997 252.075 261.027 251.618 262.043 250.352Z" fill="white"/>
<path d="M260.886 250.702C261.175 250.505 261.44 250.275 261.675 250.017C271.78 237.567 289.376 238.459 296.327 240.762C296.453 240.813 296.555 240.91 296.613 241.033C296.671 241.156 296.68 241.297 296.639 241.426C296.62 241.491 296.588 241.552 296.545 241.604C296.502 241.655 296.448 241.697 296.387 241.727C296.326 241.756 296.26 241.772 296.192 241.774C296.125 241.776 296.058 241.764 295.995 241.738C289.542 239.663 272.133 238.833 262.463 250.681C262.167 250.989 261.84 251.267 261.488 251.511C260.326 252.382 258.998 253.378 260.285 257.134C260.331 257.263 260.325 257.406 260.266 257.53C260.208 257.655 260.103 257.751 259.973 257.798H259.807C259.703 257.8 259.601 257.768 259.515 257.709C259.43 257.649 259.365 257.564 259.33 257.466C257.795 253.005 259.579 251.677 260.886 250.702Z" fill="black"/>
<path d="M266.923 251.074C267.194 251.074 267.459 251.155 267.684 251.305C267.91 251.456 268.085 251.669 268.189 251.92C268.292 252.17 268.319 252.445 268.267 252.711C268.214 252.977 268.083 253.221 267.892 253.412C267.7 253.604 267.456 253.734 267.191 253.787C266.925 253.84 266.65 253.813 266.399 253.709C266.149 253.605 265.935 253.43 265.785 253.205C265.634 252.979 265.554 252.715 265.554 252.444C265.554 252.081 265.698 251.732 265.955 251.475C266.212 251.218 266.56 251.074 266.923 251.074Z" fill="black"/>
<path d="M266.92 250.539C267.294 250.539 267.659 250.65 267.969 250.857C268.28 251.065 268.522 251.36 268.665 251.705C268.808 252.05 268.845 252.429 268.772 252.796C268.699 253.162 268.52 253.498 268.256 253.763C267.991 254.027 267.655 254.206 267.289 254.279C266.922 254.352 266.543 254.315 266.198 254.172C265.853 254.029 265.558 253.787 265.35 253.476C265.143 253.166 265.032 252.801 265.032 252.427C265.032 251.927 265.231 251.446 265.585 251.092C265.939 250.738 266.42 250.539 266.92 250.539ZM266.92 253.299C267.151 253.299 267.373 253.207 267.537 253.044C267.7 252.88 267.792 252.658 267.792 252.427C267.792 252.196 267.7 251.975 267.537 251.811C267.373 251.648 267.151 251.556 266.92 251.556C266.689 251.556 266.468 251.648 266.304 251.811C266.141 251.975 266.049 252.196 266.049 252.427C266.049 252.658 266.141 252.88 266.304 253.044C266.468 253.207 266.689 253.299 266.92 253.299Z" fill="white"/>
<path d="M266.776 251.945L267.066 252.921C263.663 253.958 255.011 279.315 254.616 295.105C254.471 300.77 255.467 304.152 257.521 304.899L257.169 305.875C254.637 304.941 253.434 301.31 253.6 295.064C253.952 280.331 262.232 253.336 266.776 251.945Z" fill="black"/>
<path d="M253.143 251.074C253.413 251.078 253.676 251.162 253.899 251.315C254.121 251.468 254.293 251.683 254.394 251.934C254.494 252.184 254.518 252.459 254.463 252.723C254.408 252.988 254.276 253.23 254.084 253.419C253.891 253.609 253.647 253.737 253.382 253.788C253.117 253.839 252.843 253.811 252.594 253.707C252.345 253.603 252.132 253.427 251.983 253.202C251.833 252.978 251.753 252.714 251.753 252.444C251.759 252.079 251.908 251.73 252.168 251.474C252.428 251.218 252.778 251.074 253.143 251.074Z" fill="black"/>
<path d="M253.143 250.539C253.516 250.539 253.882 250.65 254.192 250.857C254.503 251.065 254.745 251.36 254.888 251.705C255.03 252.05 255.068 252.429 254.995 252.796C254.922 253.162 254.742 253.498 254.478 253.763C254.214 254.027 253.878 254.206 253.511 254.279C253.145 254.352 252.765 254.315 252.42 254.172C252.075 254.029 251.78 253.787 251.573 253.476C251.365 253.166 251.255 252.801 251.255 252.427C251.255 251.927 251.454 251.446 251.808 251.092C252.162 250.738 252.642 250.539 253.143 250.539ZM253.143 253.299C253.256 253.299 253.369 253.276 253.473 253.232C253.578 253.188 253.673 253.124 253.752 253.042C253.831 252.961 253.894 252.865 253.935 252.759C253.977 252.654 253.997 252.541 253.994 252.427C253.994 252.202 253.904 251.985 253.745 251.826C253.585 251.666 253.369 251.577 253.143 251.577C253.03 251.574 252.917 251.594 252.811 251.635C252.705 251.677 252.609 251.739 252.528 251.818C252.447 251.898 252.382 251.992 252.338 252.097C252.294 252.201 252.271 252.314 252.271 252.427C252.271 252.658 252.363 252.88 252.527 253.044C252.69 253.207 252.912 253.299 253.143 253.299Z" fill="white"/>
<path d="M252.581 252.383H253.598C252.962 261.741 251.006 270.962 247.788 279.773C245.713 286.185 244.011 290.812 245.09 300.087L244.073 300.212C243.154 293.173 244.106 286.016 246.833 279.462C249.997 270.746 251.932 261.632 252.581 252.383Z" fill="black"/>
<path d="M282.443 218.413C283.102 218.384 283.753 218.571 284.296 218.946C284.839 219.32 285.245 219.862 285.452 220.488C285.747 221.491 285.687 222.565 285.283 223.528C284.878 224.492 284.154 225.287 283.232 225.779L282.692 224.908C282.692 224.908 285.411 223.206 284.498 220.758C284.353 220.328 284.072 219.958 283.698 219.703C283.323 219.448 282.875 219.323 282.423 219.347C281.851 219.35 281.292 219.518 280.814 219.831C280.335 220.143 279.957 220.588 279.725 221.111L278.771 220.737C279.09 220.034 279.608 219.44 280.26 219.027C280.912 218.614 281.671 218.401 282.443 218.413Z" fill="black"/>
<path d="M282.197 218.645C282.516 218.889 282.774 219.203 282.954 219.563C283.134 219.922 283.23 220.318 283.234 220.72C283.206 221.121 283.095 221.512 282.91 221.869C282.724 222.226 282.467 222.541 282.155 222.795L281.512 222.006C281.884 221.679 282.127 221.23 282.197 220.74C282.187 220.491 282.119 220.248 282.001 220.028C281.882 219.809 281.715 219.62 281.512 219.475L282.197 218.645ZM240.697 246.035C240.697 246.035 238.746 252.758 247.897 257.074L247.461 258.007C237.501 253.318 239.701 245.806 239.722 245.723L240.697 246.035Z" fill="black"/>
<path opacity="0.8" d="M287.793 222.027V222.276C287.803 222.194 287.803 222.11 287.793 222.027Z" fill="#856494"/>
<path d="M197.123 205.221C197.522 206.383 197.821 207.577 198.015 208.79L194.757 210.616L192.682 204.391L194.612 202.191C195.566 203.098 196.409 204.115 197.123 205.221ZM236.34 373.503C237.315 372.86 246.715 372.985 249.869 372.673C252.388 372.575 254.884 372.157 257.298 371.428C254.559 370.889 246.923 372.009 243.727 371.428C240.532 370.847 241.362 366.718 245.055 366.905C248.749 367.092 263.523 365.743 263.523 365.743C261.738 365.39 259.85 366.448 257.92 365.411C255.99 364.373 255.306 361.012 256.82 361.261C261.904 362.07 262.029 359.829 267.195 360.493C271.639 360.88 276.105 360.95 280.558 360.701C282.751 365.596 284.684 370.604 286.348 375.703C278.333 381.567 269.485 386.197 260.099 389.439C254.787 391.141 246.404 392.884 247.794 388.962C248.396 387.323 252.401 386.638 253.708 385.767C256.322 384.024 258.294 382.841 258.294 382.841C248.043 385.435 239.121 384.459 237.149 381.741C235.178 379.023 238.747 378.629 238.747 378.629C235.199 377.985 233.414 375.578 236.34 373.503Z" fill="white"/>
<path d="M236.042 373.167C236.706 372.732 239.196 372.628 244.342 372.483C246.542 372.483 248.638 372.358 249.841 372.254C251.045 372.151 252.061 372.005 252.933 371.881H251.107C248.645 372.15 246.161 372.15 243.699 371.881C243.167 371.808 242.666 371.583 242.258 371.234C241.849 370.884 241.55 370.425 241.396 369.91C241.281 369.42 241.306 368.907 241.467 368.431C241.629 367.954 241.92 367.532 242.309 367.212C243.113 366.559 244.141 366.246 245.172 366.341C247.247 366.341 252.995 366.05 257.519 365.697C256.964 365.354 256.491 364.894 256.133 364.35C255.774 363.805 255.539 363.188 255.444 362.543C255.382 362.263 255.392 361.972 255.472 361.697C255.552 361.422 255.699 361.171 255.9 360.966C256.036 360.85 256.195 360.766 256.368 360.719C256.54 360.673 256.72 360.665 256.896 360.697C258.564 361.021 260.287 360.906 261.897 360.365C263.588 359.804 265.389 359.662 267.147 359.95C271.556 360.325 275.987 360.395 280.406 360.157H280.738L280.883 360.427C283.095 365.364 285.028 370.421 286.672 375.574L286.797 375.927L286.486 376.135C278.428 382.035 269.531 386.693 260.092 389.954C257.643 390.743 249.509 393.108 247.455 391.012C247.199 390.709 247.036 390.338 246.984 389.945C246.933 389.551 246.995 389.151 247.164 388.792C247.579 387.63 249.571 386.717 251.314 386.178C252.031 385.969 252.726 385.691 253.389 385.348L255.464 384.02C246.749 385.7 238.864 384.933 236.789 382.048C235.586 380.409 236.271 379.413 236.789 378.957C236.898 378.862 237.016 378.778 237.142 378.708C236.54 378.529 235.986 378.216 235.522 377.791C235.058 377.367 234.697 376.843 234.465 376.259C234.35 375.642 234.442 375.004 234.727 374.445C235.013 373.885 235.475 373.436 236.042 373.167ZM235.42 376.01C235.669 376.944 237.018 377.795 238.761 378.085L241.852 378.666L238.719 379.102C238.211 379.176 237.728 379.368 237.308 379.662C237.121 379.828 236.644 380.243 237.474 381.384C239.279 383.874 247.994 384.85 258.079 382.318L261.44 381.488L258.452 383.293C258.452 383.293 256.377 384.476 253.887 386.178C253.188 386.568 252.451 386.888 251.688 387.132C250.215 387.651 248.43 388.377 248.181 389.207C247.932 390.037 248.181 390.265 248.181 390.369C249.219 391.427 253.97 390.888 259.78 389.041C269.024 385.857 277.744 381.318 285.656 375.574C284.992 373.645 281.817 364.224 280.219 361.236C275.835 361.485 271.438 361.416 267.064 361.029C265.444 360.753 263.782 360.888 262.229 361.423C260.476 361.999 258.605 362.12 256.792 361.776C256.668 361.776 256.44 361.776 256.523 362.481C256.601 362.998 256.792 363.49 257.082 363.924C257.373 364.358 257.756 364.723 258.203 364.992C259.191 365.418 260.288 365.519 261.337 365.282C262.112 365.148 262.906 365.148 263.681 365.282L267.188 365.967L263.64 366.278C263.017 366.278 248.721 367.627 245.089 367.44C244.345 367.385 243.606 367.607 243.014 368.063C242.768 368.254 242.582 368.513 242.479 368.807C242.376 369.102 242.36 369.42 242.433 369.723C242.537 370.056 242.735 370.351 243.004 370.572C243.274 370.793 243.602 370.931 243.948 370.968C246.328 371.216 248.727 371.216 251.107 370.968C253.239 370.765 255.386 370.765 257.519 370.968L259.054 371.279L257.622 371.922C255.153 372.73 252.583 373.184 249.986 373.271C248.741 373.396 246.625 373.437 244.405 373.499C241.815 373.461 239.226 373.635 236.665 374.018C235.648 374.641 235.233 375.325 235.42 376.01Z" fill="black"/>
<path d="M242.166 378.147C243.888 378.147 245.59 378.147 247.312 377.981C249.034 377.815 250.715 377.752 252.396 377.545C253.246 377.545 254.076 377.296 254.906 377.151H256.214L257.5 377.047C256.736 377.483 255.938 377.858 255.114 378.167C254.242 378.333 253.391 378.479 252.52 378.582C250.805 378.79 249.082 378.935 247.353 379.018C245.631 379.018 243.909 379.163 242.187 379.184H239.593C238.742 379.018 237.871 378.873 237.02 378.624C237.891 378.437 238.742 378.313 239.614 378.167L242.166 378.147Z" fill="black"/>
<path d="M270.597 356.902C283.546 349.048 295.406 339.525 305.872 328.578C295.376 314.323 287.879 298.087 283.835 280.853C280.868 266.847 285.91 263.942 290.911 258.256C293.285 255.535 296.641 253.867 300.244 253.618C303.846 253.369 307.4 254.56 310.126 256.928C311.474 258.09 344.114 290.481 345.006 328.101C345.961 366.592 294.646 378.897 285.122 384.395C278.606 388.172 264.164 360.782 270.597 356.902Z" fill="white"/>
<path d="M270.324 356.402C283.103 348.612 294.844 339.234 305.267 328.493C296.35 316.209 289.554 302.518 285.16 287.989C285.121 287.857 285.137 287.715 285.203 287.594C285.269 287.474 285.38 287.384 285.513 287.346C285.577 287.327 285.644 287.321 285.71 287.329C285.776 287.336 285.84 287.357 285.899 287.39C285.957 287.423 286.007 287.467 286.048 287.52C286.089 287.573 286.118 287.634 286.135 287.698C290.527 302.244 297.354 315.939 306.325 328.202C306.406 328.294 306.452 328.412 306.452 328.534C306.452 328.657 306.406 328.775 306.325 328.866C295.794 339.834 283.881 349.383 270.884 357.273C267.668 359.224 270.365 368.208 274.681 375.409C278.499 381.841 282.608 385.265 284.89 383.958C287.581 382.586 290.352 381.38 293.19 380.347C310.122 373.603 345.335 359.597 344.588 328.036C344.131 308.614 335.001 290.686 327.407 279.046C327.335 278.932 327.31 278.795 327.337 278.664C327.364 278.532 327.441 278.416 327.552 278.34C327.606 278.299 327.669 278.269 327.735 278.254C327.802 278.239 327.871 278.238 327.938 278.252C328.005 278.266 328.068 278.294 328.123 278.334C328.178 278.374 328.224 278.426 328.258 278.485C335.914 290.23 345.148 308.365 345.605 328.016C345.957 342.541 338.882 353.434 329.44 361.61C317.945 371.57 302.984 377.546 293.584 381.281C290.795 382.31 288.065 383.494 285.409 384.829C281.964 386.904 277.109 381.551 273.83 375.927C269.182 368.25 266.423 358.788 270.324 356.402Z" fill="black"/>
<path d="M215.647 23.8632C222.798 25.2721 229.37 28.7694 234.533 33.9131C239.696 39.0568 243.217 45.6159 244.653 52.761C246.089 59.906 245.373 67.3164 242.598 74.055C239.822 80.7937 235.111 86.558 229.059 90.6194C223.008 94.6807 215.888 96.8565 208.601 96.8719C201.313 96.8872 194.184 94.7414 188.116 90.7056C182.047 86.6698 177.312 80.9253 174.508 74.1984C171.704 67.4715 170.957 60.0642 172.363 52.9132C173.296 48.1631 175.157 43.6434 177.837 39.6125C180.518 35.5816 183.967 32.1183 187.986 29.4206C192.006 26.7229 196.518 24.8435 201.264 23.89C206.01 22.9364 210.898 22.9273 215.647 23.8632Z" fill="#1A1C4B"/>
<path d="M211.644 23.8632C218.792 25.2758 225.362 28.7761 230.521 33.9215C235.681 39.0668 239.2 45.6264 240.632 52.771C242.065 59.9157 241.347 67.3246 238.57 74.0615C235.793 80.7983 231.081 86.5606 225.029 90.62C218.978 94.6794 211.859 96.8537 204.572 96.868C197.285 96.8823 190.158 94.7361 184.09 90.7005C178.023 86.6649 173.288 80.9212 170.485 74.1954C167.681 67.4695 166.934 60.0634 168.339 52.9132C169.272 48.161 171.133 43.6394 173.815 39.6069C176.497 35.5744 179.948 32.1101 183.97 29.4121C187.992 26.7142 192.506 24.8354 197.255 23.8833C202.003 22.9311 206.893 22.9243 211.644 23.8632Z" fill="#EAA94F"/>
<path d="M196.521 39.1328C198.216 39.462 199.792 40.2403 201.084 41.3863C202.376 42.5324 203.337 44.0043 203.866 45.6483C203.971 45.9813 203.94 46.3422 203.781 46.6528C203.622 46.9635 203.347 47.199 203.015 47.3083C202.804 47.3602 202.583 47.3602 202.372 47.3083C202.14 47.2652 201.925 47.1591 201.749 47.0018C201.573 46.8444 201.444 46.6418 201.376 46.4161C200.989 45.2103 200.287 44.13 199.342 43.2871C198.397 42.4443 197.244 41.8696 196.002 41.6228C194.762 41.3773 193.479 41.4714 192.288 41.8951C191.098 42.3188 190.043 43.0563 189.237 44.0298C189.008 44.2943 188.686 44.4594 188.337 44.4904C187.989 44.5213 187.642 44.4157 187.37 44.1958C187.237 44.0858 187.128 43.9506 187.048 43.798C186.967 43.6455 186.918 43.4786 186.903 43.307C186.887 43.1353 186.906 42.9623 186.958 42.798C187.009 42.6336 187.093 42.481 187.204 42.3491C188.327 41.0286 189.784 40.0336 191.423 39.4679C193.062 38.9022 194.822 38.7865 196.521 39.1328ZM223.288 44.4033C224.995 44.7404 226.58 45.5311 227.876 46.6921C229.173 47.8532 230.132 49.3419 230.654 51.0018C230.759 51.3348 230.727 51.6956 230.565 52.005C230.404 52.3143 230.126 52.5469 229.793 52.6514C229.46 52.756 229.099 52.724 228.79 52.5625C228.481 52.401 228.248 52.1233 228.144 51.7903C227.763 50.5835 227.065 49.5013 226.123 48.6569C225.181 47.8126 224.028 47.2372 222.787 46.9911C221.546 46.745 220.262 46.8372 219.068 47.2581C217.875 47.679 216.817 48.413 216.005 49.3833C215.854 49.5652 215.657 49.7035 215.434 49.7837C215.212 49.864 214.972 49.8834 214.739 49.8398C214.524 49.7943 214.324 49.6943 214.158 49.5493C214.024 49.4407 213.913 49.3067 213.831 49.1549C213.749 49.0031 213.697 48.8365 213.68 48.6648C213.663 48.4932 213.68 48.3197 213.73 48.1546C213.78 47.9894 213.862 47.8358 213.971 47.7026C215.087 46.369 216.54 45.3593 218.179 44.779C219.817 44.1986 221.582 44.0689 223.288 44.4033Z" fill="#1A1C4B"/>
<path d="M180.687 50.651C181.758 50.7513 182.749 51.264 183.45 52.0809C184.15 52.8978 184.506 53.9549 184.442 55.0292C184.01 55.9858 183.267 56.7678 182.333 57.248C181.4 57.7282 180.331 57.8783 179.302 57.6738C178.272 57.4693 177.342 56.9223 176.663 56.1219C175.984 55.3214 175.596 54.3147 175.561 53.2655C175.912 52.2518 176.642 51.4133 177.597 50.9259C178.553 50.4384 179.66 50.3399 180.687 50.651ZM228.847 60.1752C229.915 60.2755 230.903 60.7853 231.603 61.5976C232.303 62.41 232.662 63.4619 232.603 64.5327C232.164 65.4829 231.417 66.2577 230.484 66.7328C229.551 67.2078 228.486 67.3554 227.459 67.1519C226.432 66.9484 225.503 66.4056 224.821 65.6107C224.14 64.8159 223.746 63.815 223.701 62.769C224.056 61.7544 224.791 60.9171 225.751 60.4333C226.711 59.9495 227.821 59.857 228.847 60.1752Z" fill="white"/>
<path d="M187.308 68.4766C187.657 68.482 187.989 68.6243 188.234 68.8728C188.478 69.1212 188.616 69.4559 188.615 69.8046C188.461 73.2762 189.557 76.6882 191.703 79.4212C193.849 82.1541 196.905 84.027 200.314 84.6998C203.723 85.3727 207.261 84.8009 210.285 83.0882C213.308 81.3756 215.618 78.6356 216.794 75.3656C216.923 75.0382 217.178 74.7757 217.5 74.6356C217.823 74.4955 218.189 74.4894 218.516 74.6186C218.836 74.7562 219.091 75.0124 219.226 75.3335C219.361 75.6545 219.367 76.0155 219.242 76.3408C217.728 80.0397 214.975 83.0973 211.455 84.9909C207.935 86.8845 203.866 87.4964 199.945 86.7219C196.023 85.9474 192.493 83.8348 189.957 80.7451C187.421 77.6555 186.037 73.7809 186.042 69.7838C186.047 69.4457 186.181 69.1222 186.416 68.8793C186.651 68.6364 186.97 68.4924 187.308 68.4766ZM124.83 79.9306C129.227 78.3067 134.007 78.0234 138.566 79.1167C143.124 80.21 147.256 82.6307 150.438 86.0725C153.62 89.5143 155.71 93.8226 156.444 98.4525C157.177 103.082 156.521 107.826 154.558 112.082C152.595 116.339 149.414 119.918 145.416 122.367C141.419 124.815 136.785 126.023 132.102 125.838C127.418 125.652 122.894 124.082 119.103 121.325C115.312 118.568 112.423 114.749 110.803 110.35C109.722 107.432 109.228 104.329 109.348 101.22C109.469 98.1106 110.201 95.0555 111.504 92.2297C112.808 89.404 114.655 86.863 116.942 84.7525C119.228 82.642 121.909 81.0034 124.83 79.9306Z" fill="#1A1C4B"/>
<path d="M122.63 81.2792C127.023 79.6612 131.798 79.382 136.35 80.4769C140.901 81.5718 145.026 83.9916 148.203 87.4305C151.38 90.8694 153.466 95.173 154.198 99.7972C154.929 104.421 154.273 109.159 152.313 113.41C150.352 117.662 147.175 121.236 143.183 123.683C139.192 126.129 134.564 127.337 129.886 127.154C125.208 126.971 120.689 125.405 116.901 122.654C113.113 119.903 110.225 116.09 108.603 111.699C107.522 108.781 107.028 105.678 107.149 102.569C107.269 99.4592 108.002 96.4042 109.305 93.5784C110.608 90.7526 112.455 88.2117 114.742 86.1012C117.029 83.9907 119.709 82.3521 122.63 81.2792Z" fill="#EAA94F"/>
<path d="M119.454 94.7051C120.499 94.3215 121.627 94.2249 122.722 94.4257C123.817 94.6264 124.838 95.117 125.679 95.8464C125.829 96.0108 125.912 96.2255 125.912 96.4481C125.912 96.6708 125.829 96.8855 125.679 97.0499C125.58 97.1518 125.459 97.2299 125.326 97.2782C125.184 97.332 125.03 97.347 124.881 97.3214C124.731 97.2959 124.591 97.2308 124.475 97.1329C123.865 96.5916 123.119 96.2263 122.317 96.0759C121.515 95.9255 120.688 95.9958 119.923 96.2792C119.158 96.5626 118.485 97.0484 117.974 97.6849C117.464 98.3213 117.136 99.0844 117.026 99.8926C116.985 100.113 116.861 100.309 116.68 100.441C116.498 100.572 116.273 100.629 116.051 100.598C115.832 100.562 115.636 100.443 115.504 100.264C115.372 100.086 115.315 99.8633 115.345 99.6437C115.516 98.5247 115.989 97.4736 116.713 96.6035C117.437 95.7333 118.385 95.077 119.454 94.7051ZM135.908 88.6254C136.955 88.2445 138.085 88.1513 139.18 88.3557C140.275 88.5601 141.295 89.0545 142.133 89.7874C142.216 89.8596 142.285 89.9475 142.334 90.046C142.383 90.1445 142.412 90.2518 142.42 90.3616C142.428 90.4714 142.414 90.5817 142.379 90.6861C142.344 90.7905 142.289 90.887 142.216 90.9701C142.144 91.0533 142.056 91.1213 141.958 91.1705C141.859 91.2196 141.752 91.2489 141.642 91.2566C141.532 91.2643 141.422 91.2503 141.318 91.2154C141.213 91.1805 141.117 91.1254 141.034 91.0532C140.419 90.5203 139.672 90.1623 138.871 90.0165C138.071 89.8708 137.246 89.9426 136.483 90.2246C135.719 90.5066 135.046 90.9884 134.532 91.6195C134.019 92.2507 133.684 93.0082 133.564 93.8129C133.545 93.9629 133.484 94.1047 133.389 94.222C133.293 94.3394 133.167 94.4277 133.024 94.4769C132.888 94.5088 132.746 94.5088 132.609 94.4769C132.39 94.4411 132.194 94.3213 132.062 94.143C131.931 93.9647 131.874 93.7421 131.904 93.5224C132.073 92.4228 132.533 91.3885 133.238 90.5273C133.942 89.666 134.864 89.0093 135.908 88.6254Z" fill="#1A1C4B"/>
<path d="M114.618 106.325C115.06 106.27 115.509 106.34 115.912 106.528C116.316 106.717 116.658 107.015 116.9 107.389C117.141 107.764 117.272 108.198 117.278 108.644C117.283 109.089 117.162 109.527 116.93 109.907C116.698 110.287 116.363 110.593 115.964 110.791C115.565 110.989 115.118 111.07 114.675 111.026C114.232 110.981 113.81 110.812 113.459 110.538C113.107 110.265 112.84 109.898 112.689 109.479C112.537 108.806 112.654 108.1 113.014 107.511C113.375 106.922 113.95 106.497 114.618 106.325ZM144.208 95.4519C144.65 95.3966 145.098 95.4671 145.502 95.6554C145.905 95.8437 146.248 96.1422 146.489 96.5163C146.731 96.8905 146.862 97.3253 146.867 97.7706C146.872 98.216 146.752 98.6538 146.519 99.0337C146.287 99.4136 145.952 99.7201 145.553 99.9181C145.154 100.116 144.707 100.197 144.264 100.153C143.821 100.108 143.4 99.9391 143.048 99.6655C142.697 99.3918 142.43 99.0246 142.278 98.6059C142.132 97.9329 142.251 97.2296 142.611 96.6422C142.97 96.0548 143.542 95.6285 144.208 95.4519Z" fill="white"/>
<path d="M124.202 113.857C124.297 113.797 124.403 113.757 124.513 113.74C124.624 113.722 124.736 113.727 124.845 113.754C124.954 113.781 125.056 113.83 125.145 113.898C125.234 113.965 125.309 114.05 125.364 114.147C126.487 116.027 128.233 117.455 130.299 118.182C132.364 118.91 134.619 118.892 136.673 118.131C138.733 117.369 140.455 115.898 141.528 113.981C142.626 112.104 143.036 109.903 142.69 107.756C142.653 107.64 142.641 107.518 142.655 107.397C142.669 107.276 142.709 107.16 142.772 107.056C142.835 106.952 142.919 106.862 143.019 106.793C143.12 106.725 143.234 106.678 143.353 106.657C143.473 106.636 143.596 106.641 143.714 106.672C143.832 106.702 143.941 106.758 144.036 106.834C144.13 106.911 144.207 107.007 144.262 107.116C144.316 107.225 144.346 107.344 144.35 107.466C144.666 109.358 144.485 111.301 143.825 113.103C143.164 114.904 142.047 116.504 140.583 117.744C139.119 118.984 137.358 119.823 135.472 120.179C133.586 120.534 131.64 120.393 129.825 119.77C127.381 118.916 125.312 117.235 123.974 115.019C123.853 114.833 123.81 114.608 123.853 114.391C123.895 114.175 124.021 113.983 124.202 113.857ZM187.054 115.226C190.799 115.339 194.427 116.559 197.479 118.734C200.53 120.908 202.869 123.939 204.198 127.442C205.527 130.946 205.787 134.764 204.946 138.416C204.105 142.067 202.199 145.387 199.471 147.956C196.743 150.524 193.314 152.226 189.619 152.846C185.924 153.466 182.127 152.976 178.71 151.438C175.293 149.901 172.409 147.384 170.422 144.207C168.436 141.03 167.436 137.335 167.549 133.59C167.701 128.568 169.841 123.813 173.499 120.369C177.156 116.925 182.032 115.075 187.054 115.226Z" fill="#1A1C4B"/>
<path d="M185.023 115.559C188.768 115.672 192.396 116.893 195.447 119.067C198.499 121.241 200.837 124.272 202.166 127.775C203.496 131.279 203.756 135.098 202.915 138.749C202.073 142.4 200.168 145.72 197.44 148.289C194.712 150.858 191.283 152.559 187.588 153.179C183.892 153.799 180.096 153.309 176.679 151.772C173.262 150.234 170.378 147.717 168.391 144.54C166.404 141.363 165.404 137.668 165.518 133.923C165.669 128.902 167.81 124.146 171.467 120.702C175.125 117.258 180.001 115.408 185.023 115.559Z" fill="#EAA94F"/>
<path d="M178.634 124.501C179.53 124.519 180.404 124.783 181.16 125.262C181.917 125.741 182.529 126.417 182.93 127.219C183.009 127.376 183.023 127.558 182.969 127.725C182.915 127.892 182.796 128.031 182.639 128.111C182.53 128.137 182.416 128.137 182.307 128.111C182.185 128.111 182.065 128.075 181.962 128.009C181.859 127.943 181.777 127.849 181.726 127.738C181.426 127.162 180.977 126.677 180.427 126.332C179.877 125.988 179.245 125.796 178.596 125.777C177.947 125.758 177.305 125.912 176.735 126.224C176.166 126.536 175.69 126.994 175.356 127.551C175.313 127.628 175.255 127.695 175.185 127.749C175.116 127.803 175.037 127.843 174.952 127.867C174.867 127.89 174.778 127.896 174.691 127.884C174.603 127.873 174.519 127.844 174.443 127.8C174.286 127.709 174.172 127.559 174.126 127.384C174.079 127.209 174.103 127.023 174.194 126.866C174.656 126.112 175.311 125.494 176.092 125.078C176.873 124.662 177.751 124.463 178.634 124.501ZM192.661 124.999C193.555 125.026 194.425 125.293 195.18 125.771C195.936 126.249 196.549 126.921 196.957 127.717C197.039 127.879 197.054 128.068 196.997 128.241C196.941 128.414 196.818 128.558 196.656 128.64C196.493 128.723 196.305 128.737 196.132 128.681C195.959 128.625 195.815 128.502 195.732 128.339C195.442 127.757 194.999 127.264 194.451 126.912C193.903 126.561 193.27 126.364 192.62 126.342C191.969 126.321 191.325 126.476 190.755 126.791C190.185 127.106 189.711 127.569 189.383 128.132C189.326 128.24 189.239 128.329 189.132 128.388C189.025 128.447 188.903 128.474 188.781 128.464C188.68 128.494 188.571 128.494 188.47 128.464C188.313 128.373 188.199 128.223 188.153 128.048C188.106 127.873 188.13 127.687 188.221 127.53C188.661 126.745 189.308 126.094 190.09 125.648C190.872 125.202 191.761 124.978 192.661 124.999Z" fill="#1A1C4B"/>
<path d="M171.574 131.743C171.851 131.677 172.14 131.674 172.419 131.735C172.698 131.797 172.959 131.92 173.183 132.097C173.407 132.274 173.588 132.499 173.713 132.756C173.837 133.013 173.902 133.294 173.902 133.58C173.902 133.865 173.837 134.147 173.713 134.403C173.588 134.66 173.407 134.885 173.183 135.062C172.959 135.239 172.698 135.363 172.419 135.424C172.14 135.485 171.851 135.482 171.574 135.416C171.296 135.482 171.007 135.485 170.729 135.424C170.45 135.363 170.189 135.239 169.965 135.062C169.741 134.885 169.56 134.66 169.435 134.403C169.311 134.147 169.246 133.865 169.246 133.58C169.246 133.294 169.311 133.013 169.435 132.756C169.56 132.499 169.741 132.274 169.965 132.097C170.189 131.92 170.45 131.797 170.729 131.735C171.007 131.674 171.296 131.677 171.574 131.743ZM196.806 132.511C197.148 132.605 197.456 132.793 197.696 133.053C197.936 133.314 198.098 133.637 198.163 133.986C198.228 134.334 198.194 134.694 198.064 135.024C197.934 135.353 197.714 135.64 197.429 135.851C197.144 136.061 196.806 136.188 196.452 136.215C196.099 136.242 195.745 136.169 195.431 136.005C195.117 135.841 194.856 135.591 194.677 135.285C194.498 134.979 194.409 134.629 194.42 134.275C194.458 134.001 194.55 133.737 194.691 133.5C194.832 133.262 195.019 133.055 195.242 132.891C195.464 132.727 195.717 132.608 195.985 132.543C196.254 132.478 196.533 132.467 196.806 132.511Z" fill="white"/>
<path d="M176.366 140.209C176.545 140.179 176.728 140.221 176.876 140.326C177.024 140.431 177.124 140.59 177.154 140.769C177.444 142.514 178.34 144.102 179.686 145.251C180.989 146.402 182.657 147.056 184.396 147.098C186.148 147.157 187.866 146.6 189.25 145.523C190.634 144.446 191.597 142.918 191.97 141.205C192.009 141.029 192.117 140.877 192.268 140.779C192.419 140.682 192.603 140.649 192.779 140.686C192.865 140.705 192.947 140.742 193.019 140.793C193.091 140.845 193.152 140.91 193.198 140.986C193.245 141.061 193.276 141.145 193.289 141.232C193.303 141.32 193.298 141.409 193.277 141.495C192.833 143.512 191.698 145.311 190.069 146.58C188.44 147.849 186.419 148.509 184.354 148.446C182.291 148.385 180.314 147.605 178.765 146.241C177.215 144.877 176.191 143.015 175.868 140.976C175.836 140.809 175.871 140.636 175.963 140.493C176.056 140.35 176.2 140.248 176.366 140.209Z" fill="#1A1C4B"/>
</g>
<defs>
<clipPath id="clip0_4889_20633">
<rect width="415" height="415" fill="white" transform="matrix(-1 0 0 1 415 0)"/>
</clipPath>
</defs>
</svg>
