<svg width="100" height="100" viewBox="0 0 100 100" fill="none" xmlns="http://www.w3.org/2000/svg">
<rect width="100" height="100" rx="12" fill="#0D257B" fill-opacity="0.05"/>
<path d="M75.7459 38.4442L54.8412 22.7335C53.3303 21.6079 51.4977 21 49.615 21C47.7323 21 45.8997 21.6079 44.3888 22.7335L23.4841 38.4442C22.4051 39.2598 21.5291 40.3146 20.9247 41.526C20.3202 42.7373 20.0038 44.0724 20 45.4268V71.6113C20 73.4632 20.7342 75.2392 22.0409 76.5487C23.3477 77.8582 25.1201 78.5938 26.9682 78.5938H72.2618C74.1099 78.5938 75.8823 77.8582 77.189 76.5487C78.4958 75.2392 79.23 73.4632 79.23 71.6113V45.4268C79.2262 44.0724 78.9098 42.7373 78.3053 41.526C77.7009 40.3146 76.8249 39.2598 75.7459 38.4442ZM37.0164 75.1578L34.4277 64.6287H51.0609C51.2547 64.6291 51.4428 64.6942 51.5955 64.8137C51.7482 64.9332 51.8568 65.1003 51.9041 65.2886L54.3599 75.1578H37.0164ZM61.8094 75.1578H57.942L55.2837 64.4402C55.0493 63.496 54.5061 62.6578 53.7407 62.0591C52.9753 61.4605 52.0318 61.136 51.0609 61.1375H46.1309C47.2278 59.672 48.757 58.5894 50.502 58.0432C52.247 57.497 54.1192 57.5148 55.8536 58.0941C57.5879 58.6734 59.0963 59.7848 60.1653 61.2709C61.2342 62.757 61.8094 64.5425 61.8094 66.3744V75.1578ZM47.8729 48.918C47.8729 47.8823 48.1795 46.8698 48.7537 46.0086C49.328 45.1474 50.1442 44.4761 51.0991 44.0798C52.0541 43.6834 53.1049 43.5797 54.1187 43.7818C55.1325 43.9838 56.0637 44.4826 56.7946 45.215C57.5255 45.9474 58.0232 46.8805 58.2249 47.8964C58.4265 48.9122 58.323 49.9652 57.9275 50.9221C57.5319 51.879 56.8621 52.6969 56.0026 53.2724C55.1432 53.8478 54.1328 54.1549 53.0991 54.1549C51.713 54.1549 50.3837 53.6032 49.4037 52.6211C48.4236 51.639 47.8729 50.3069 47.8729 48.918ZM75.7459 71.6113C75.7459 72.5372 75.3788 73.4252 74.7254 74.08C74.072 74.7347 73.2002 75.1578 72.2762 75.1578H65.2935V66.3744C65.2892 64.135 64.6691 61.9401 63.5012 60.0308C62.3334 58.1215 60.6631 56.5717 58.6737 55.5514C60.0448 54.401 61.0293 52.8556 61.4935 51.125C61.9576 49.3945 61.879 47.5627 61.2682 45.8785C60.6575 44.1943 59.5442 42.7393 58.0795 41.7111C56.6149 40.6829 54.87 40.1313 53.0817 40.1313C51.2934 40.1313 49.5485 40.6829 48.0838 41.7111C46.6192 42.7393 45.5059 44.1943 44.8952 45.8785C44.2844 47.5627 44.2058 49.3945 44.6699 51.125C45.1341 52.8556 46.1186 54.401 47.4897 55.5514C45.1396 56.7786 43.2524 58.7396 42.1137 61.1375H34.4277C33.8982 61.1371 33.3756 61.2577 32.8995 61.49C32.4235 61.7224 32.0065 62.0604 31.6804 62.4784C31.3542 62.8964 31.1275 63.3834 31.0173 63.9025C30.9072 64.4215 30.9165 64.9588 31.0447 65.4736L33.4986 75.1578H26.9538C26.0298 75.1578 25.158 74.7347 24.5046 74.08C23.8512 73.4252 23.4841 72.5372 23.4841 71.6113V45.4268C23.4857 44.614 23.6753 43.8128 24.0381 43.0858C24.4008 42.3589 24.9267 41.7262 25.5746 41.2372L46.4793 25.5265C47.3857 24.8509 48.4853 24.4861 49.615 24.4861C50.7447 24.4861 51.8443 24.8509 52.7507 25.5265L73.6554 41.2372C74.3033 41.7262 74.8292 42.3589 75.192 43.0858C75.5547 43.8128 75.7443 44.614 75.7459 45.4268V71.6113Z" fill="#0D257B"/>
<g clip-path="url(#clip0_4889_20465)">
<path d="M75.7459 38.4403L54.8412 22.7296C53.3303 21.604 51.4977 20.9961 49.615 20.9961C47.7323 20.9961 45.8997 21.604 44.3888 22.7296L23.4841 38.4403C22.4051 39.2559 21.5291 40.3107 20.9247 41.5221C20.3202 42.7334 20.0038 44.0685 20 45.4229V71.6074C20 73.4593 20.7342 75.2353 22.0409 76.5448C23.3477 77.8543 25.1201 78.5899 26.9682 78.5899H72.2618C74.1099 78.5899 75.8823 77.8543 77.189 76.5448C78.4958 75.2353 79.23 73.4593 79.23 71.6074V45.4229C79.2262 44.0685 78.9098 42.7334 78.3053 41.5221C77.7009 40.3107 76.8249 39.2559 75.7459 38.4403ZM37.0373 75.0986L34.4277 64.6248H51.0609C51.2547 64.6252 51.4428 64.6903 51.5955 64.8098C51.7482 64.9293 51.8568 65.0964 51.9041 65.2847L54.3599 75.1539L37.0373 75.0986ZM61.8046 75.1539H57.9596L55.2837 64.4363C55.0493 63.4921 54.5061 62.6539 53.7407 62.0552C52.9753 61.4566 52.0318 61.1321 51.0609 61.1336H46.1309C47.2278 59.668 48.757 58.5855 50.502 58.0393C52.247 57.4931 54.1192 57.5109 55.8536 58.0902C57.5879 58.6695 59.0963 59.7809 60.1653 61.267C61.2342 62.7531 61.8094 64.5386 61.8094 66.3705L61.8046 75.1539ZM47.8729 48.9141C47.8729 47.8784 48.1795 46.8659 48.7537 46.0047C49.328 45.1434 50.1442 44.4722 51.0991 44.0759C52.0541 43.6795 53.1049 43.5758 54.1187 43.7778C55.1325 43.9799 56.0637 44.4787 56.7946 45.2111C57.5255 45.9435 58.0232 46.8766 58.2249 47.8925C58.4265 48.9083 58.323 49.9613 57.9275 50.9182C57.5319 51.8751 56.8621 52.693 56.0026 53.2685C55.1432 53.8439 54.1328 54.151 53.0991 54.151C51.713 54.151 50.3837 53.5993 49.4037 52.6172C48.4236 51.6351 47.8729 50.303 47.8729 48.9141ZM75.7459 71.6074C75.7459 72.5333 75.3788 73.4213 74.7254 74.0761C74.072 74.7308 73.2002 75.1539 72.2762 75.1539H65.2935V66.3705C65.2892 64.1311 64.6691 61.9362 63.5012 60.0269C62.3334 58.1176 60.6631 56.5678 58.6737 55.5475C60.0448 54.3971 61.0293 52.8517 61.4935 51.1211C61.9576 49.3906 61.879 47.5588 61.2682 45.8746C60.6575 44.1904 59.5442 42.7354 58.0795 41.7072C56.6149 40.679 54.87 40.1274 53.0817 40.1274C51.2934 40.1274 49.5485 40.679 48.0838 41.7072C46.6192 42.7354 45.5059 44.1904 44.8952 45.8746C44.2844 47.5588 44.2058 49.3906 44.6699 51.1211C45.1341 52.8517 46.1186 54.3971 47.4897 55.5475C45.1396 56.7747 43.2524 58.7357 42.1137 61.1336H34.4277C33.8982 61.1332 33.3756 61.2537 32.8995 61.4861C32.4235 61.7185 32.0065 62.0565 31.6804 62.4745C31.3542 62.8925 31.1275 63.3795 31.0173 63.8985C30.9072 64.4175 30.9165 64.9549 31.0447 65.4697L33.4986 75.1539H26.9538C26.0298 75.1539 25.158 74.7308 24.5046 74.0761C23.8512 73.4213 23.4841 72.5333 23.4841 71.6074V45.4229C23.4857 44.6101 23.6753 43.8089 24.0381 43.0819C24.4008 42.355 24.9267 41.7223 25.5746 41.2333L46.4793 25.5226C47.3857 24.847 48.4853 24.4822 49.615 24.4822C50.7447 24.4822 51.8443 24.847 52.7507 25.5226L73.6554 41.2333C74.3033 41.7223 74.8292 42.355 75.192 43.0819C75.5547 43.8089 75.7443 44.6101 75.7459 45.4229V71.6074Z" fill="#CC922F"/>
</g>
<defs>
<clipPath id="clip0_4889_20465">
<rect width="34.5236" height="35.3417" fill="white" transform="translate(30.7969 39.8164)"/>
</clipPath>
</defs>
</svg>
