<svg width="138" height="143" viewBox="0 0 138 143" fill="none" xmlns="http://www.w3.org/2000/svg">
<path d="M70.7062 86.7467C70.6804 87.0813 70.8555 87.416 71.1129 87.6374C71.8803 88.3239 74.2077 88.7612 76.2253 87.7764C75.4788 88.7546 74.7168 89.7277 73.9394 90.6904C70.818 94.6113 70.39 94.7802 70.2016 95.3652C69.7022 95.324 69.2131 95.2056 68.7395 95.0151C67.2516 94.4127 65.7791 93.7949 64.3221 93.1565C64.2243 93.1205 64.1265 93.0742 64.0286 93.033C59.3531 90.9988 52.7973 87.8989 45.5456 84.1313C43.811 86.6664 41.4984 90.1835 39.1049 94.0266C36.1703 98.7169 27.8452 114.167 27.3201 114.543C22.5114 111.902 17.1467 109.282 13.5273 105.142C13.5891 105.008 13.6509 104.941 13.723 104.813C13.7551 104.758 33.7868 69.5616 34.8059 68.2998C35.5206 67.4253 35.6683 66.4054 38.1164 64.9738C44.5407 61.2953 49.9358 65.736 50.6375 65.8954C56.2374 68.8664 62.8134 72.4022 70.145 75.59C70.9121 75.9298 74.4182 77.5721 77.878 79.1836C77.5021 79.9198 77.1315 80.6612 76.7659 81.4026C76.3952 82.1543 76.5548 82.9935 76.8895 83.776C76.9101 83.8224 76.9255 83.8636 76.9461 83.9048C75.0721 84.1416 73.4503 84.6049 71.6844 85.5986C71.2262 85.856 70.7474 86.2216 70.7062 86.7467Z" fill="#00C0AD"/>
<path d="M85.856 68.5278L84.5483 67.2098C81.9557 71.4548 79.2838 76.2932 76.7638 81.4041C76.3931 82.1558 76.5527 82.995 76.8874 83.7776C76.908 83.8239 76.9234 83.8651 76.944 83.9063C75.07 84.1431 73.4482 84.6065 71.6823 85.6001C71.2241 85.8575 70.7453 86.2231 70.7041 86.7482C70.6506 87.4432 71.3381 87.9114 72.0066 88.1023C73.3864 88.5296 74.9258 88.4112 76.2232 87.7779C75.4767 88.7561 74.7147 89.7292 73.9373 90.692C71.8395 90.5462 69.8481 90.2378 67.7746 89.8528C67.5532 89.8116 67.3318 89.7704 67.131 89.6674C67.0538 89.6314 66.9869 89.5799 66.9251 89.5232C66.714 89.3328 66.5853 89.0496 66.5853 88.7613C66.5647 84.3181 65.8182 79.875 65.7512 75.4062C65.6307 68.3398 65.9739 60.8233 68.413 54.1996C69.973 49.9573 73.0981 45.7922 77.6133 44.4639C78.3723 44.2403 79.8229 43.878 80.5428 44.2271C78.3665 44.2989 76.149 45.0502 74.725 46.6777C72.1559 49.4579 73.1187 54.8689 74.3801 56.2178C75.987 57.9419 82.987 65.4504 85.856 68.5278Z" fill="#006BFF"/>
<path d="M118.519 116.097C73.9225 115.916 72.9665 116.49 66.3341 115.222C64.4943 114.87 62.8948 114.336 61.3246 113.384C55.8513 109.985 54.1872 102.616 60.1456 96.5899C61.4276 95.308 62.8486 94.2062 64.321 93.161C64.4169 93.093 71.7394 88.069 71.7914 88.0332C73.1824 88.53 74.822 88.4654 76.2243 87.7809C75.4777 88.7591 74.7158 89.7322 73.9383 90.6949C70.8167 94.6162 70.389 94.7847 70.2006 95.3698C69.9691 96.0647 70.5257 96.7844 71.2148 96.94C71.8532 97.079 72.5277 96.8062 73.0219 96.3788C73.5058 95.9618 74.0104 95.0248 74.5562 94.7365C73.8096 95.9618 72.8778 97.3004 72.7799 98.7729C72.7439 99.2465 72.8005 99.7562 73.1146 100.106C73.6088 100.652 74.5407 100.554 75.1122 100.096C75.6888 99.6327 75.9874 98.9222 76.2655 98.2426C76.0956 98.6802 75.9205 99.1281 75.9308 99.5966C75.936 100.065 76.1728 100.559 76.6052 100.729C77.7411 101.177 79.4074 99.1721 79.9878 98.083C79.8642 98.4588 79.7355 98.8501 79.7509 99.2465C79.7972 100.148 80.5702 100.621 81.4139 100.086C82.2686 99.54 82.526 98.4485 82.9687 97.5372C83.4475 96.5384 84.1941 95.6941 84.8428 94.7931C85.9343 93.2846 86.7529 91.6062 87.5715 89.933L87.6384 89.8866C87.556 89.8866 87.4788 89.8866 87.3964 89.8815C88.5452 89.7355 90.1439 89.3216 90.6554 88.2803C91.3968 86.7872 92.1639 85.3045 92.9516 83.832C94.8212 87.2414 95.0187 91.722 92.0352 94.2268C89.5636 96.3003 87.3536 98.0549 84.5596 99.5503C121.944 99.6828 118.381 99.6305 118.828 99.6636C119.899 105.033 118.761 116.097 118.519 116.097Z" fill="#00C0AD"/>
<path d="M56.4276 23.324C56.4122 23.0923 56.3916 22.8606 56.371 22.6289L35.875 23.1283C35.4533 32.5074 37.3306 41.929 46.4705 44.237C46.5847 44.2681 46.698 44.2625 46.8103 44.2319C54.5639 41.8739 57.3235 34.3262 56.4276 23.324ZM49.2249 35.8965L46.4036 34.5013L43.6543 36.0304L44.1125 32.9207L41.806 30.7738L44.9054 30.2486L46.2285 27.3912L47.6907 30.1817L50.8158 30.5575L48.6174 32.8074L49.2249 35.8965Z" fill="#FFC100"/>
<path d="M50.0918 50.1444C49.399 50.1612 52.6014 50.0834 43.3164 50.3091C45.002 48.8734 44.9129 45.8825 44.6653 43.6573H44.6705C44.9235 43.7628 45.667 44.0224 45.8958 44.0744C46.4659 44.2592 46.6111 44.2888 46.8122 44.234C47.1917 44.1215 47.9026 43.8704 48.4185 43.6367C48.3008 45.8716 48.3591 48.8077 50.0918 50.1444Z" fill="#006BFF"/>
<path d="M47.2276 44.0938C47.0518 44.1588 46.7803 44.2585 46.6406 44.2585C46.78 44.2458 46.7951 44.2379 47.2276 44.0938Z" fill="#006BFF"/>
<path d="M56.375 56.0509C52.5143 56.1452 66.1994 55.8109 37.6192 56.5091L37.5625 54.1356L39.7506 54.0841L39.6579 50.2382C41.0895 50.2035 34.4728 50.3641 53.6566 49.8984C53.6579 49.9504 53.7555 53.9966 53.7493 53.7392L54.9025 53.7134L56.3183 53.6774L56.3338 54.3725L56.375 56.0509Z" fill="#FE9E93"/>
<path d="M68.8669 90.0506C68.5013 89.9888 68.1358 89.9219 67.7754 89.855C67.554 89.8138 67.3326 89.7726 67.1318 89.6696C67.0546 89.6336 66.9877 89.5821 66.9259 89.5255L64.0273 93.0316V93.0367C64.1251 93.0779 64.2229 93.1242 64.3208 93.1603C65.0602 92.6357 65.1712 92.5634 68.8669 90.0506ZM44.6639 43.6578C44.3087 43.5188 43.974 43.3592 43.6445 43.1945C43.974 43.4107 44.319 43.6115 44.6742 43.7968C44.6742 43.7505 44.6691 43.7041 44.6639 43.6578ZM50.492 49.975C49.6116 48.6467 49.4726 46.6233 49.5859 44.3065C56.2583 41.3667 58.5287 33.8706 57.5351 23.3008L56.4282 23.3265C57.0856 31.4034 55.9381 40.525 48.4172 43.6372C48.3036 45.7922 48.3571 48.6065 49.9051 49.9904L50.492 49.975Z" fill="black"/>
<path d="M53.7528 53.7378L54.9059 53.712L54.8289 50.5664L53.6758 50.5974L53.7528 53.7378Z" fill="black"/>
<path d="M115.463 107.837C100.574 108.394 85.5044 108.471 70.6717 108.064C67.826 107.98 66.4449 106.939 68.0666 104.517C69.1169 102.946 70.5481 101.386 72.4325 99.7698C72.4994 99.9552 72.5921 100.12 72.7105 100.264C73.5883 101.292 74.7427 100.995 75.5917 99.9625C75.7507 101.226 77.462 101.71 78.6375 100.337C78.9813 99.9357 79.1558 99.4831 79.4345 98.9874C79.4027 100.149 80.1123 100.74 80.7572 100.718C81.4626 100.689 81.8935 99.9768 82.1007 99.6344C83.9063 96.6479 85.805 93.5325 87.9156 90.044C89.0173 89.8521 90.3809 89.3911 90.8691 88.3866C94.3969 81.2804 97.733 75.8762 97.7623 75.8243C112.307 100.952 111.868 100.632 112.236 100.42C112.359 100.349 112.402 100.192 112.331 100.069L98.0663 75.32C98.0966 75.2677 98.6673 74.2822 98.6317 74.3436L98.633 74.3416C98.8914 73.6902 103.239 68.5 100.337 62.0573C98.9267 58.9491 97.669 58.2872 85.8648 45.5102C85.1698 44.774 83.7333 44.2282 82.0961 44.0429C81.8272 42.5444 81.6275 41.1413 81.4345 40.1197C85.1406 39.0604 87.8207 35.8834 88.2489 32.0681C88.9249 32.384 89.7501 32.34 90.3161 32.0221C91.0881 31.5924 91.5092 30.7124 91.5722 30.0062C92.3648 27.3528 90.303 24.3672 87.6531 24.6091C87.3204 24.6394 86.9895 24.8181 86.7923 24.4146C85.624 22.0235 83.5655 20.1215 81.2368 18.8159C78.3821 17.2155 71.1274 14.8469 68.2266 16.3848C65.9787 17.5766 65.7789 20.473 68.8516 22.1606C68.7664 22.1469 68.6823 22.1268 68.5955 22.1218C68.2349 22.101 67.8567 22.1855 67.5461 22.3646C64.2547 16.7614 64.6395 17.0868 64.2988 16.993C64.0151 16.993 64.3776 16.7012 58.4539 26.8365C58.3537 27.0094 58.481 27.2228 58.6764 27.2228C58.9592 27.2228 58.5327 27.6206 64.2985 17.7651L67.1468 22.7035C66.7089 23.2571 66.8671 24.0202 67.2928 24.5337C67.6523 24.9673 68.1683 25.2398 68.689 25.4547C68.2049 25.143 67.4956 25.5808 67.4138 26.1508C67.2322 27.4159 68.8345 27.8753 69.8321 27.9862C69.4373 29.1651 69.262 30.4344 69.3653 31.7411C69.3913 32.0765 69.4426 32.4299 69.5121 32.7907C69.1242 33.3676 68.7595 33.9027 68.5276 34.2439C68.2898 34.5953 68.5029 35.07 68.9183 35.1273L70.3957 35.3389C71.785 38.0547 74.3799 39.8635 77.2684 40.3519L76.3556 45.0777C75.2405 45.6932 74.6409 46.4239 74.5433 46.5141C71.8455 49.4333 72.9215 55.0143 74.2035 56.3837L84.2739 67.1904C81.656 71.483 79.0407 76.2374 76.5461 81.2972C76.2063 81.9819 76.2269 82.7851 76.6079 83.7427C76.6092 83.7461 76.6109 83.7498 76.6121 83.7533C73.7127 83.7444 71.225 85.1004 70.593 85.9666C69.9544 86.8477 70.2341 88.0459 72.0079 88.3314C73.1783 88.5211 74.319 88.4465 75.4564 88.2043C73.5367 90.4942 72.3583 92.0953 70.6081 94.5073C70.1501 95.1335 69.676 95.7811 70.2884 96.6939C70.5795 97.1278 71.0672 97.3907 71.5518 97.3907C72.105 97.3907 72.535 97.0485 72.9254 96.6637C73.2188 96.3746 73.4784 96.1006 73.7278 95.8265C72.6581 97.8307 72.3398 98.4844 72.3398 99.1726C70.301 100.897 68.7616 102.55 67.6393 104.234C65.8256 106.905 67.3294 108.487 70.6614 108.579C86.1091 108.998 101.135 108.893 115.484 108.352C115.826 108.34 115.803 107.814 115.463 107.837ZM70.7911 34.9885C70.7571 34.9194 70.6615 34.8566 70.5966 34.8475L68.9485 34.587C68.9111 34.5004 70.0812 33.0255 70.036 32.7988V32.7974C69.9585 32.4185 69.9058 32.0498 69.8781 31.7006C69.8324 31.1212 69.8468 30.5499 69.9093 29.9905C69.9124 29.9906 69.9147 29.9934 69.9178 29.9934C69.9389 29.9934 69.9606 29.9909 69.9822 29.9851L71.2638 29.653C71.4015 29.6173 71.4845 29.477 71.4488 29.3393C71.4131 29.202 71.2733 29.1183 71.135 29.1547L69.9871 29.4522C70.0727 28.9598 70.2002 28.4804 70.364 28.0158C73.6539 28.0371 74.3252 25.4813 76.7393 24.2723C77.6518 23.8153 79.257 23.1985 80.2984 23.4852C81.1699 23.7252 80.8314 25.7637 81.1765 26.6128C81.5531 27.5395 82.38 28.3528 83.3785 28.4128C84.0402 28.4526 84.6762 28.1662 85.3349 28.0914C85.9936 28.0167 86.8001 28.2762 86.9464 28.9228C87.0431 29.3506 86.7923 29.9935 87.235 30.2612C87.9038 30.6658 88.0295 29.2858 88.0868 28.9982C88.1294 28.7839 88.1904 28.62 88.2817 28.4883C88.748 28.0292 89.6018 27.9291 90.1772 28.1789C90.9809 28.6042 91.2282 29.6627 90.9833 30.3483C90.7892 30.8966 90.5675 31.2928 90.0647 31.5726C89.5217 31.8773 88.6514 31.8175 88.2009 31.4437C88.0415 31.3103 87.7938 31.4245 87.7796 31.6239C87.5146 35.4792 84.8207 38.7211 81.076 39.6908C76.9783 40.7511 72.657 38.7727 70.7911 34.9885ZM77.1156 43.8596C78.6838 42.5402 79.891 41.4974 80.9432 40.2907C81.1235 41.2557 81.3516 42.8019 81.5658 44.0017C80.1149 43.8918 78.3983 44.1176 76.9374 44.7842L77.1156 43.8596ZM76.9785 81.5134C79.467 76.4664 82.2224 71.4872 84.5931 67.6022L85.6795 68.6988C85.7773 68.7915 85.9266 68.7967 86.0244 68.704C86.1171 68.6113 86.1222 68.4569 86.0347 68.359L74.5588 56.0491C73.4004 54.8134 72.4222 49.526 74.9089 46.8385L75.0118 46.7252C77.8919 43.6084 83.8912 44.134 85.5095 45.8448C98.0579 59.2737 97.5557 58.6964 98.2932 59.6272C104.022 67.1386 98.4156 73.4148 98.2168 74.0931L98.2082 74.0879C98.178 74.1406 94.2685 80.4519 90.4366 88.1703C89.7497 89.5605 86.7876 89.8253 85.1543 89.6531C81.3988 89.2279 78.4551 86.8251 77.1072 83.6809C76.7366 82.8056 76.6902 82.0951 76.9785 81.5134ZM73.2974 97.7877C74.9571 94.4594 76.0888 92.7404 77.5964 90.7549C77.8044 90.4856 77.3979 90.1712 77.1897 90.4408C75.8376 92.2231 74.4941 94.3949 72.5645 96.2972C72.2562 96.6004 71.9888 96.813 71.6836 96.8648C71.3336 96.9254 70.937 96.7361 70.7157 96.4071C70.2536 95.7177 70.676 95.3159 71.1567 94.6277C72.7018 92.4695 74.3197 90.3543 76.3077 87.9912C76.3421 87.9812 76.3758 87.9745 76.4102 87.9641C76.5389 87.9254 76.6118 87.7899 76.5731 87.6612C76.5349 87.5327 76.3987 87.4593 76.2704 87.498C76.2275 87.5109 76.1853 87.5208 76.1425 87.5331C76.0963 87.5331 76.0518 87.5448 76.0114 87.5691C74.6257 87.9515 73.3045 88.0491 72.0853 87.8512C70.7394 87.6342 70.5288 86.8844 70.9867 86.2527C71.5485 85.4818 74.0252 84.1639 76.8312 84.2408C76.9827 84.5668 77.2846 85.0561 77.4625 85.3438C79.5721 88.7145 83.3348 90.5435 87.2903 90.1371C85.4399 93.1954 83.6496 96.1338 81.6844 99.3825C81.4234 99.8144 81.1278 100.216 80.7371 100.232C80.3837 100.253 80.082 99.9034 79.984 99.5733C79.8638 99.1708 79.9342 98.7045 79.9965 98.2932C80.0074 98.2216 79.9842 98.1541 79.9412 98.1025C80.8075 96.6106 81.8299 94.9165 82.4868 93.4696C82.5456 93.3403 82.4883 93.1878 82.3591 93.1289C82.2299 93.0704 82.0776 93.1272 82.0182 93.2569C81.4692 94.4651 80.6708 95.8316 79.8985 97.1532C78.4461 99.6347 78.5789 99.6143 78.2464 100.002C77.4783 100.9 76.4805 100.772 76.1799 100.173C75.9758 99.7679 76.1533 99.2349 76.3358 98.7671C77.2518 96.4176 78.4159 94.8458 79.5938 92.5912C79.6597 92.4653 79.6109 92.3097 79.4847 92.2438C79.3595 92.1784 79.2042 92.2267 79.1373 92.3529C77.9775 94.5721 76.819 96.1448 75.8876 98.503L75.8871 98.5033C75.851 98.529 75.8253 98.5702 75.8099 98.6166C75.6966 98.9564 75.2384 99.6617 74.9089 99.9397C73.9719 100.727 73.4261 100.31 73.1018 99.9294C72.8754 99.6637 72.8229 99.2605 72.8752 98.9152C72.937 98.5393 73.1018 98.1841 73.2974 97.7877ZM22.8715 105.93C22.9942 106.003 23.1519 105.963 23.2247 105.841L40.1151 77.6358C41.1546 75.9756 43.2137 75.3353 45.0116 76.1154L57.8883 81.697C58.0193 81.7535 58.1704 81.6932 58.2269 81.563C58.2833 81.4325 58.2234 81.2809 58.0929 81.2244L45.2163 75.6428C43.1845 74.7624 40.8549 75.4849 39.6759 77.3668L22.7827 105.577C22.7098 105.699 22.7496 105.857 22.8715 105.93ZM27.5585 114.242C18.9185 110.671 13.6456 105.074 13.3209 104.813C13.9286 104.304 13.9671 103.354 13.4776 102.814C13.0526 102.345 12.2203 102.272 12.8021 100.559C13.0474 99.8416 13.319 99.0971 13.023 98.3905C12.7141 97.6516 11.8446 97.2142 11.8478 96.5961C11.8485 96.4541 11.7339 96.3382 11.5916 96.3374H11.5904C11.4488 96.3374 11.3337 96.4518 11.3329 96.5936C11.3302 97.1408 11.6826 97.5202 12.0233 97.887C12.6753 98.5891 12.8414 98.8528 12.3521 100.283L12.3144 100.394C11.6126 102.46 12.7548 102.783 13.0962 103.16C13.3702 103.462 13.3515 103.966 13.1289 104.28C12.6857 103.7 11.9615 104.062 11.6168 104.088C11.4717 104.098 11.3191 104.036 11.3028 103.959C11.2733 103.818 11.4736 103.518 11.3257 103.209C11.1844 102.915 10.8556 102.864 10.5964 102.824C9.92943 102.719 9.35199 102.187 9.19236 101.531C9.15867 101.393 9.01915 101.307 8.88139 101.342C8.74312 101.375 8.65841 101.515 8.69209 101.653C8.89949 102.505 9.64963 103.196 10.5597 103.339C10.6635 103.355 10.8377 103.382 10.8616 103.432C10.9039 103.52 10.7387 103.775 10.799 104.064C10.8797 104.449 11.2995 104.63 11.6557 104.601C11.8793 104.584 12.193 104.476 12.3694 104.469C12.618 104.457 12.7069 104.519 12.8203 104.772C11.9173 105.698 10.9948 106.453 9.55429 108.399C9.46163 108.002 9.27626 107.436 8.91074 106.622C6.76977 101.84 1.36245 102.094 0.822492 107.724C0.59596 110.036 1.22921 112.461 2.55752 114.366C5.03308 117.92 9.40453 119.655 12.9059 121.97C13.2847 122.225 20.2197 126.238 20.9066 126.238C21.0251 126.238 21.0611 126.181 21.1074 126.109C22.4615 124.112 26.328 118.17 27.924 114.747C27.9292 114.736 28.0167 114.536 27.8056 114.386C27.7651 114.322 27.7142 114.311 27.5585 114.242ZM20.7728 125.687C19.7482 125.322 13.7657 121.929 13.1891 121.543C9.69789 119.234 5.3762 117.511 2.9797 114.072C1.71832 112.265 1.12111 109.969 1.33734 107.776C1.82588 102.665 6.54415 102.583 8.44221 106.833C9.13212 108.378 9.13727 108.95 9.08577 109.037C8.88902 109.32 9.30951 109.614 9.5028 109.336C9.80258 108.92 9.91709 108.766 9.9564 108.712C10.4162 109.769 11.4356 110.585 12.5693 110.795C12.9044 110.858 12.9974 110.35 12.6628 110.288C11.6809 110.107 10.7972 109.395 10.4118 108.474C10.3807 108.4 10.318 108.352 10.2465 108.33C10.292 108.275 10.9507 107.392 11.8386 106.485C11.9098 106.71 13.2639 108.3 15.2576 109.252C15.5672 109.4 15.7841 108.932 15.4794 108.787C14.2423 108.197 13.1374 107.319 12.2839 106.247C12.2487 106.203 12.2004 106.178 12.1495 106.164C12.4507 105.868 12.1317 106.187 13.0501 105.268C13.1067 105.32 13.1582 105.371 13.2148 105.423C14.1605 106.179 18.7754 111.162 27.3474 114.716C27.3525 114.716 27.3577 114.721 27.368 114.721C25.7668 118.067 22.168 123.618 20.7728 125.687Z" fill="black"/>
<path d="M22.4497 115.92C21.1586 115.92 20.7124 117.625 21.8216 118.267C22.4064 118.606 23.1909 118.411 23.5411 117.804C24.0174 116.972 23.4294 115.92 22.4497 115.92ZM23.0932 117.547C22.7208 118.205 21.7031 117.932 21.7031 117.176C21.7031 116.636 22.288 116.232 22.8204 116.532C23.1756 116.733 23.2992 117.191 23.0932 117.547ZM133.023 111.106C132.85 106.58 133.098 108.837 132.761 102.961C132.508 98.4922 132.39 98.4871 132.091 98.4768C129.677 98.3944 122.582 98.2915 118.844 98.7651C118.834 98.7651 118.613 98.796 118.602 99.0534C118.436 99.4287 120.35 105.9 118.304 115.976C118.267 116.164 118.322 115.95 118.215 116.414C117.468 116.175 116.64 116.64 116.443 117.347C116.272 117.959 116.654 118.701 114.895 119.121C114.156 119.296 113.382 119.463 112.941 120.089C112.481 120.745 112.574 121.713 112.049 122.04C111.929 122.115 111.892 122.274 111.967 122.395C112.041 122.514 112.199 122.553 112.322 122.477C113.099 121.993 112.944 120.982 113.363 120.386C113.746 119.841 114.716 119.692 115.014 119.622C117.137 119.114 116.801 117.978 116.939 117.486C117.049 117.095 117.485 116.84 117.869 116.862C117.617 117.551 118.343 118.016 118.512 118.244C118.599 118.361 118.627 118.523 118.57 118.578C118.472 118.673 118.106 118.668 117.924 118.958C117.749 119.235 117.882 119.541 117.986 119.781C118.253 120.401 118.11 121.173 117.64 121.658C117.541 121.76 117.544 121.923 117.645 122.022C117.748 122.122 117.911 122.118 118.009 122.016C118.62 121.387 118.805 120.384 118.442 119.538C118.4 119.441 118.33 119.279 118.36 119.232C118.411 119.149 118.714 119.154 118.928 118.948C119.211 118.675 119.138 118.223 118.926 117.938C118.792 117.757 118.535 117.551 118.434 117.404C118.293 117.199 118.296 117.091 118.449 116.861C120.571 117.412 121.948 117.594 123.257 117.696C122.968 117.979 122.592 118.443 122.098 119.184C119.871 122.524 121.151 126.181 124.549 126.181C127.091 126.181 130.562 123.928 132.04 120.435C133.27 117.521 133.142 114.262 133.023 111.106ZM131.561 120.234C130.312 123.199 127.526 125.221 125.295 125.599C121.863 126.2 120.33 122.784 122.525 119.467C123.468 118.062 123.946 117.747 124.049 117.747C124.209 117.763 124.317 117.645 124.322 117.506V117.485C124.322 117.351 124.214 117.243 124.08 117.233C123.711 117.212 123.505 117.198 123.309 117.186C123.959 116.234 124.107 114.935 123.68 113.864C123.553 113.546 123.076 113.739 123.201 114.055C123.571 114.982 123.439 116.109 122.866 116.926C122.82 116.991 122.812 117.069 122.831 117.141C122.779 117.134 121.724 117.056 120.42 116.78C120.416 116.779 120.413 116.778 120.41 116.777C120.432 116.753 120.458 116.732 120.47 116.698C120.948 115.331 121.11 113.849 120.942 112.411C120.901 112.069 120.392 112.135 120.43 112.471C120.59 113.832 120.436 115.235 119.984 116.528C119.966 116.581 119.97 116.634 119.984 116.683C119.755 116.631 118.984 116.455 118.746 116.399C118.789 116.215 118.799 116.131 118.808 116.079C120.741 106.535 119.117 99.575 119.117 99.2491C122.793 98.8217 129.419 98.9093 131.911 98.9865C132.148 100.047 132.462 106.92 132.447 107.61C132.337 111.684 133.209 116.346 131.561 120.234Z" fill="black"/>
<path d="M123.765 100.853C123.43 100.863 123.121 101.007 122.89 101.254C122.157 102.053 122.716 103.365 123.816 103.365C123.868 103.354 124.331 103.403 124.743 102.964C125.516 102.12 124.847 100.785 123.765 100.853ZM123.847 102.85C123.135 102.867 122.848 102.06 123.271 101.604C123.714 101.11 124.541 101.425 124.558 102.078C124.579 102.496 124.242 102.84 123.847 102.85ZM74.7553 28.2196L73.5617 28.5288C73.424 28.5645 73.341 28.7047 73.3767 28.8425C73.4069 28.9584 73.5115 29.0353 73.6261 29.0353C73.6472 29.0353 73.6688 29.0328 73.6904 29.027L74.884 28.7178C75.0218 28.6821 75.1048 28.5418 75.0691 28.4041C75.0334 28.2668 74.8941 28.1829 74.7553 28.2196ZM89.2972 29.6439C89.4968 29.6896 89.5818 29.928 89.4606 30.0899C89.3757 30.2038 89.3988 30.3652 89.5124 30.4501C89.6251 30.5346 89.7875 30.513 89.8729 30.3981C90.2192 29.9342 89.9707 29.2703 89.4129 29.1422C89.077 29.0681 88.9682 29.568 89.2972 29.6439ZM76.5322 32.7096C76.4291 32.6136 76.2647 32.6186 76.1686 32.7235C76.0716 32.8275 76.0781 32.9904 76.1822 33.0872C77.1695 34.0038 76.3749 34.777 75.9997 34.4445C75.7433 34.2176 75.4039 34.604 75.6578 34.8296C76.5579 35.627 78.0328 34.0997 76.5322 32.7096ZM68.2293 115.799H29.3121C29.1698 115.799 29.0547 115.914 29.0547 116.056C29.0547 116.198 29.1698 116.314 29.3121 116.314H68.2293C68.3715 116.314 68.4867 116.198 68.4867 116.056C68.4867 115.914 68.3715 115.799 68.2293 115.799ZM36.2256 66.2757L41.5285 57.1114L57.5454 56.7201L57.4888 54.3467L56.3355 54.3724L56.3767 56.0508C56.3161 56.0523 38.7183 56.4846 38.7741 56.4833L38.7895 57.1783L40.9313 57.1268L35.7828 66.0182C35.6118 66.3115 36.061 66.5682 36.2256 66.2757Z" fill="black"/>
</svg>
