<svg width="100" height="100" viewBox="0 0 100 100" fill="none" xmlns="http://www.w3.org/2000/svg">
<rect width="100" height="100" rx="12" fill="#0D257B" fill-opacity="0.05"/>
<path d="M50.1005 40.9305C50.9262 40.9305 51.595 40.2613 51.595 39.436C51.595 38.6106 50.9262 37.9414 50.1005 37.9414C43.4974 37.9414 38.1445 43.2943 38.1445 49.8978C38.1445 56.5008 43.4974 61.8537 50.1005 61.8537C56.7039 61.8537 62.0568 56.5008 62.0568 49.8978C62.0568 49.072 61.3876 48.4032 60.5623 48.4032C59.737 48.4032 59.0677 49.072 59.0677 49.8978C59.0677 54.8502 55.0533 58.8651 50.1005 58.8651C45.1481 58.8651 41.1332 54.8502 41.1332 49.8978C41.1332 44.945 45.1481 40.9305 50.1005 40.9305Z" fill="#0D257B"/>
<path d="M78.6151 41.0221C78.3556 40.238 77.5096 39.8127 76.7251 40.0723C75.9588 40.3259 75.5322 41.1416 75.7606 41.9156C80.23 56.1484 72.3156 71.3095 58.0828 75.7789C43.8505 80.2484 28.6894 72.3339 24.22 58.1011C19.7501 43.8684 27.665 28.7073 41.8973 24.2379C47.166 22.5836 52.8146 22.5836 58.0828 24.2379C58.8738 24.4763 59.7083 24.0287 59.9468 23.2377C60.1816 22.4586 59.7508 21.6351 58.9768 21.3833C43.173 16.425 26.3416 25.217 21.3833 41.0212C16.425 56.8249 25.2174 73.6563 41.0212 78.6147C56.8254 83.573 73.6563 74.781 78.6146 58.9768C80.4484 53.1323 80.4484 46.8666 78.6151 41.0221Z" fill="#0D257B"/>
<path d="M52.9453 30.6785C52.9531 29.8275 52.2994 29.1162 51.4507 29.0525C51.0044 29.0146 50.5577 28.9766 50.0994 28.9766C38.5436 28.9766 29.1758 38.3444 29.1758 49.9002C29.1758 61.4556 38.5436 70.8234 50.0994 70.8234C61.6548 70.8234 71.0227 61.4556 71.0227 49.9002C71.0227 49.3596 70.9897 48.8195 70.9233 48.283C70.8039 47.4627 70.0422 46.8947 69.2219 47.0141C68.4016 47.1331 67.8335 47.8953 67.9525 48.7156C67.9571 48.7467 67.9626 48.7774 67.969 48.8085C68.0015 49.1706 68.0336 49.5295 68.0336 49.8993C68.034 59.8045 60.0047 67.8339 50.0999 67.8348C40.1947 67.8353 32.1653 59.8054 32.1649 49.9007C32.1644 39.9959 40.1933 31.9661 50.0985 31.9657H50.099C50.4698 31.9657 50.8291 31.9977 51.1903 32.0297L51.4704 32.0531C52.2513 32.0865 52.9114 31.4804 52.9444 30.6995C52.9448 30.6922 52.9448 30.6853 52.9453 30.6785Z" fill="#0D257B"/>
<path d="M59.066 33.4614V38.8207L49.0422 48.8445C48.4485 49.418 48.432 50.3642 49.0056 50.9579C49.5791 51.5516 50.5253 51.5681 51.119 50.9945C51.1314 50.9826 51.1437 50.9702 51.1556 50.9579L61.1794 40.9341H66.5387C66.9351 40.9341 67.315 40.7766 67.5956 40.496L76.5625 31.5288C77.1461 30.9451 77.1461 29.999 76.5625 29.4153C76.2823 29.1352 75.9024 28.9777 75.506 28.9777H71.0223V24.4941C71.0223 23.6688 70.3531 22.9995 69.5273 23C69.1314 23 68.7515 23.1575 68.4713 23.4376L59.504 32.4049C59.2234 32.685 59.066 33.065 59.066 33.4614ZM62.0551 34.0803L68.0333 28.1021V30.4723C68.0333 31.2976 68.7025 31.9668 69.5278 31.9668H71.898L65.9198 37.945H62.0551V34.0803Z" fill="#CC922F"/>
</svg>
