<svg width="20" height="20" viewBox="0 0 20 20" fill="none" xmlns="http://www.w3.org/2000/svg">
<path d="M13.75 5V5.625M13.75 8.125V8.75M13.75 11.25V11.875M13.75 14.375V15M6.25 10.625H10.625M6.25 12.5H8.75M2.8125 4.375C2.29473 4.375 1.875 4.79473 1.875 5.3125V7.83446C2.62225 8.26672 3.125 9.07465 3.125 10C3.125 10.9254 2.62225 11.7333 1.875 12.1655V14.6875C1.875 15.2053 2.29473 15.625 2.8125 15.625H17.1875C17.7053 15.625 18.125 15.2053 18.125 14.6875V12.1655C17.3777 11.7333 16.875 10.9254 16.875 10C16.875 9.07465 17.3777 8.26672 18.125 7.83446V5.3125C18.125 4.79473 17.7053 4.375 17.1875 4.375H2.8125Z" stroke="#262626" stroke-linecap="round" stroke-linejoin="round"/>
</svg>
