<svg width="20" height="20" viewBox="0 0 20 20" fill="none" xmlns="http://www.w3.org/2000/svg">
<path d="M3.41529 16.5847C4.63568 17.8051 6.61432 17.8051 7.83471 16.5847L13.1694 11.25M5.625 17.5C3.89911 17.5 2.5 16.1009 2.5 14.375V3.4375C2.5 2.91973 2.91973 2.5 3.4375 2.5H7.8125C8.33027 2.5 8.75 2.91973 8.75 3.4375V6.83058M5.625 17.5C7.35089 17.5 8.75 16.1009 8.75 14.375V6.83058M5.625 17.5H16.5625C17.0803 17.5 17.5 17.0803 17.5 16.5625V12.1875C17.5 11.6697 17.0803 11.25 16.5625 11.25H13.1694M8.75 6.83058L11.1493 4.43131C11.5154 4.06519 12.109 4.06519 12.4751 4.43131L15.5687 7.5249C15.9348 7.89102 15.9348 8.48461 15.5687 8.85073L13.1694 11.25M5.625 14.375H5.63125V14.3813H5.625V14.375Z" stroke="#262626" stroke-linecap="round" stroke-linejoin="round"/>
</svg>
