<svg width="20" height="20" viewBox="0 0 20 20" fill="none" xmlns="http://www.w3.org/2000/svg">
<path d="M9.56663 2.91374C9.72675 2.52875 10.2721 2.52875 10.4322 2.91374L12.2039 7.17328C12.2714 7.33558 12.424 7.44647 12.5992 7.46052L17.1978 7.82918C17.6134 7.8625 17.7819 8.38118 17.4653 8.65243L13.9617 11.6536C13.8282 11.768 13.7699 11.9474 13.8106 12.1184L14.8811 16.6058C14.9778 17.0114 14.5366 17.3319 14.1808 17.1146L10.2438 14.7099C10.0938 14.6183 9.9051 14.6183 9.7551 14.7099L5.8181 17.1146C5.46228 17.3319 5.02106 17.0114 5.11781 16.6058L6.18822 12.1184C6.229 11.9474 6.1707 11.768 6.03721 11.6536L2.53361 8.65243C2.21695 8.38118 2.38548 7.8625 2.80109 7.82918L7.39963 7.46052C7.57485 7.44647 7.72748 7.33558 7.79498 7.17328L9.56663 2.91374Z" stroke="#262626" stroke-linecap="round" stroke-linejoin="round"/>
</svg>
