<svg width="18" height="18" viewBox="0 0 18 18" fill="none" xmlns="http://www.w3.org/2000/svg">
<path d="M9 1.3125C13.2375 1.3125 16.6875 4.7625 16.6875 9C16.6875 13.2375 13.2375 16.6875 9 16.6875C4.7625 16.6875 1.3125 13.2375 1.3125 9C1.3125 4.7625 4.7625 1.3125 9 1.3125ZM9 0C4.035 0 0 4.035 0 9C0 13.965 4.035 18 9 18C13.965 18 18 13.965 18 9C18 4.035 13.965 0 9 0Z" fill="#0D257B"/>
<path d="M4.875 10.125C5.49632 10.125 6 9.62132 6 9C6 8.37868 5.49632 7.875 4.875 7.875C4.25368 7.875 3.75 8.37868 3.75 9C3.75 9.62132 4.25368 10.125 4.875 10.125Z" fill="#0D257B"/>
<path d="M9 10.125C9.62132 10.125 10.125 9.62132 10.125 9C10.125 8.37868 9.62132 7.875 9 7.875C8.37868 7.875 7.875 8.37868 7.875 9C7.875 9.62132 8.37868 10.125 9 10.125Z" fill="#0D257B"/>
<path d="M13.125 10.125C13.7463 10.125 14.25 9.62132 14.25 9C14.25 8.37868 13.7463 7.875 13.125 7.875C12.5037 7.875 12 8.37868 12 9C12 9.62132 12.5037 10.125 13.125 10.125Z" fill="#0D257B"/>
</svg>
