<svg width="24" height="25" viewBox="0 0 24 25" fill="none" xmlns="http://www.w3.org/2000/svg">
<g clip-path="url(#clip0_2828_30701)">
<path d="M18 0.889648H8C7.02823 0.890927 6.0779 1.17535 5.26521 1.70815C4.45252 2.24094 3.81271 2.99901 3.424 3.88965H2C1.73478 3.88965 1.48043 3.99501 1.29289 4.18254C1.10536 4.37008 1 4.62443 1 4.88965C1 5.15486 1.10536 5.40922 1.29289 5.59676C1.48043 5.78429 1.73478 5.88965 2 5.88965H3V7.88965H2C1.73478 7.88965 1.48043 7.99501 1.29289 8.18254C1.10536 8.37008 1 8.62443 1 8.88965C1 9.15487 1.10536 9.40922 1.29289 9.59676C1.48043 9.78429 1.73478 9.88965 2 9.88965H3V11.8896H2C1.73478 11.8896 1.48043 11.995 1.29289 12.1825C1.10536 12.3701 1 12.6244 1 12.8896C1 13.1549 1.10536 13.4092 1.29289 13.5968C1.48043 13.7843 1.73478 13.8896 2 13.8896H3V15.8896H2C1.73478 15.8896 1.48043 15.995 1.29289 16.1825C1.10536 16.3701 1 16.6244 1 16.8896C1 17.1549 1.10536 17.4092 1.29289 17.5968C1.48043 17.7843 1.73478 17.8896 2 17.8896H3V19.8896H2C1.73478 19.8896 1.48043 19.995 1.29289 20.1825C1.10536 20.3701 1 20.6244 1 20.8896C1 21.1549 1.10536 21.4092 1.29289 21.5968C1.48043 21.7843 1.73478 21.8896 2 21.8896H3.424C3.81271 22.7803 4.45252 23.5384 5.26521 24.0711C6.0779 24.6039 7.02823 24.8884 8 24.8896H18C19.3256 24.8881 20.5964 24.3608 21.5338 23.4234C22.4711 22.4861 22.9984 21.2152 23 19.8896V5.88965C22.9984 4.56405 22.4711 3.29321 21.5338 2.35587C20.5964 1.41853 19.3256 0.891236 18 0.889648ZM21 19.8896C21 20.6853 20.6839 21.4484 20.1213 22.011C19.5587 22.5736 18.7956 22.8896 18 22.8896H8C7.20435 22.8896 6.44129 22.5736 5.87868 22.011C5.31607 21.4484 5 20.6853 5 19.8896V5.88965C5 5.094 5.31607 4.33094 5.87868 3.76833C6.44129 3.20572 7.20435 2.88965 8 2.88965H18C18.7956 2.88965 19.5587 3.20572 20.1213 3.76833C20.6839 4.33094 21 5.094 21 5.88965V19.8896ZM13 12.8896C13.7956 12.8896 14.5587 12.5736 15.1213 12.011C15.6839 11.4484 16 10.6853 16 9.88965C16 9.094 15.6839 8.33094 15.1213 7.76833C14.5587 7.20572 13.7956 6.88965 13 6.88965C12.2044 6.88965 11.4413 7.20572 10.8787 7.76833C10.3161 8.33094 10 9.094 10 9.88965C10 10.6853 10.3161 11.4484 10.8787 12.011C11.4413 12.5736 12.2044 12.8896 13 12.8896ZM18 18.8896C18 19.1549 17.8946 19.4092 17.7071 19.5968C17.5196 19.7843 17.2652 19.8896 17 19.8896C16.7348 19.8896 16.4804 19.7843 16.2929 19.5968C16.1054 19.4092 16 19.1549 16 18.8896C16 18.094 15.6839 17.3309 15.1213 16.7683C14.5587 16.2057 13.7956 15.8896 13 15.8896C12.2044 15.8896 11.4413 16.2057 10.8787 16.7683C10.3161 17.3309 10 18.094 10 18.8896C10 19.1549 9.89464 19.4092 9.70711 19.5968C9.51957 19.7843 9.26522 19.8896 9 19.8896C8.73478 19.8896 8.48043 19.7843 8.29289 19.5968C8.10536 19.4092 8 19.1549 8 18.8896C8.211 12.2816 17.791 12.2836 18 18.8896Z" fill="#0D257B"/>
</g>
<defs>
<clipPath id="clip0_2828_30701">
<rect width="24" height="24" fill="white" transform="translate(0 0.889648)"/>
</clipPath>
</defs>
</svg>
