<svg width="25" height="23" viewBox="0 0 25 23" fill="none" xmlns="http://www.w3.org/2000/svg">
<path d="M3.81249 21.7656H20.3124C21.8657 21.7656 23.1249 20.5064 23.1249 18.9531C23.1249 18.4529 22.9944 17.9832 22.7655 17.5763L14.5155 2.57632C14.0335 1.7195 13.1156 1.14069 12.0625 1.14069C11.0094 1.14069 10.0914 1.7195 9.60946 2.57632L1.35948 17.5763C1.13059 17.9832 1 18.4529 1 18.9531C1 20.5064 2.2592 21.7656 3.81249 21.7656Z" stroke="#0D257B" stroke-width="2" stroke-miterlimit="10" stroke-linecap="round" stroke-linejoin="round"/>
<path d="M12.0625 7.70314V13.3281" stroke="#0D257B" stroke-width="2" stroke-miterlimit="10" stroke-linecap="round" stroke-linejoin="round"/>
<path d="M12.0625 17.0156C12.028 17.0156 12 17.0436 12 17.0781C12 17.1126 12.028 17.1406 12.0625 17.1406C12.097 17.1406 12.125 17.1126 12.125 17.0781C12.125 17.0436 12.097 17.0156 12.0625 17.0156Z" fill="#0D257B" stroke="#0D257B" stroke-width="2"/>
</svg>
