<svg width="24" height="24" viewBox="0 0 24 24" fill="none" xmlns="http://www.w3.org/2000/svg">
<path d="M17.0002 10.0392C13.1409 10.0392 10.0003 13.1794 10.0003 17.0391C10.0003 20.8772 13.1414 24 17.0002 24C20.8589 24 24 20.8598 24 17.0002C24 13.162 20.8589 10.0392 17.0002 10.0392ZM17.0002 21.9998C14.243 21.9998 12 19.7742 12 17.0391C12 14.2819 14.243 12.0389 17.0002 12.0389C19.7573 12.0389 22.0003 14.265 22.0003 16.9997C21.9998 19.7569 19.7569 21.9998 17.0002 21.9998ZM18.7069 17.2931C19.0978 17.6841 19.0978 18.3159 18.7069 18.7073C18.5119 18.9023 18.2559 19.0003 18 19.0003C17.7441 19.0003 17.4881 18.9023 17.2931 18.7073L16.2933 17.7075C16.1053 17.5195 16.0003 17.2655 16.0003 17.0006V15C16.0003 14.4478 16.4475 14.0002 17.0002 14.0002C17.5528 14.0002 18 14.4478 18 15V16.5858L18.7069 17.2931ZM24 6.99984V9C24 9.55219 23.5528 9.99984 23.0002 9.99984C22.447 9.99984 22.0003 9.55172 22.0003 9V6.99984C22.0003 5.34562 20.6545 3.99984 19.0003 3.99984H5.00016C3.34594 3.99984 2.00016 5.34562 2.00016 6.99984V7.99969H11.0002C11.5523 7.99969 12 8.44781 12 8.99953C12 9.55125 11.5519 9.99938 11.0002 9.99938H2.00016V18.9994C2.00016 20.6536 3.34594 21.9994 5.00016 21.9994H9C9.55219 21.9994 9.99984 22.4475 9.99984 22.9992C9.99984 23.5509 9.55219 24 9 24H5.00016C2.24297 24 0 21.757 0 18.9998V6.99984C0 4.24312 2.24297 2.00016 5.00016 2.00016H6V0.999844C6 0.448125 6.44812 0 6.99984 0C7.55156 0 7.99969 0.448125 7.99969 0.999844V1.99969H15.9998V0.999844C15.9998 0.448125 16.447 0 17.0002 0C17.5528 0 18 0.448125 18 0.999844V1.99969H18.9998C21.757 2.00016 24 4.24312 24 6.99984Z" fill="#0D257B"/>
</svg>
