<svg width="40" height="40" viewBox="0 0 40 40" fill="none" xmlns="http://www.w3.org/2000/svg">
<circle cx="20" cy="20" r="20" fill="#0D257B" fill-opacity="0.03"/>
<g clip-path="url(#clip0_2093_4784)">
<path d="M23.704 18.5458C20.8454 18.5458 18.519 20.8719 18.519 23.7309C18.519 26.574 20.8457 28.8872 23.704 28.8872C26.5624 28.8872 28.8891 26.5611 28.8891 23.7021C28.8891 20.859 26.5624 18.5458 23.704 18.5458ZM23.704 27.4056C21.6617 27.4056 20.0002 25.7569 20.0002 23.7309C20.0002 21.6885 21.6617 20.0271 23.704 20.0271C25.7464 20.0271 27.4079 21.676 27.4079 23.7017C27.4075 25.7441 25.7461 27.4056 23.704 27.4056ZM24.9683 23.9191C25.2579 24.2087 25.2579 24.6767 24.9683 24.9667C24.8238 25.1111 24.6342 25.1837 24.4447 25.1837C24.2551 25.1837 24.0655 25.1111 23.9211 24.9667L23.1804 24.226C23.0412 24.0868 22.9634 23.8986 22.9634 23.7024V22.2205C22.9634 21.8115 23.2947 21.4799 23.704 21.4799C24.1134 21.4799 24.4447 21.8115 24.4447 22.2205V23.3951L24.9683 23.9191ZM28.8891 16.2944V17.776C28.8891 18.1851 28.5579 18.5167 28.1485 18.5167C27.7388 18.5167 27.4079 18.1847 27.4079 17.776V16.2944C27.4079 15.0691 26.411 14.0722 25.1856 14.0722H14.8151C13.5898 14.0722 12.5929 15.0691 12.5929 16.2944V17.0351H19.2596C19.6686 17.0351 20.0002 17.367 20.0002 17.7757C20.0002 18.1844 19.6683 18.5163 19.2596 18.5163H12.5929V25.183C12.5929 26.4083 13.5898 27.4052 14.8151 27.4052H17.778C18.187 27.4052 18.5186 27.7372 18.5186 28.1458C18.5186 28.5545 18.187 28.8872 17.778 28.8872H14.8151C12.7728 28.8872 11.1113 27.2257 11.1113 25.1833V16.2944C11.1113 14.2524 12.7728 12.591 14.8151 12.591H15.5558V11.85C15.5558 11.4413 15.8877 11.1094 16.2964 11.1094C16.7051 11.1094 17.037 11.4413 17.037 11.85V12.5906H22.9631V11.85C22.9631 11.4413 23.2943 11.1094 23.704 11.1094C24.1134 11.1094 24.4447 11.4413 24.4447 11.85V12.5906H25.1853C27.2276 12.591 28.8891 14.2524 28.8891 16.2944Z" fill="#0D257B"/>
</g>
<defs>
<clipPath id="clip0_2093_4784">
<rect width="17.7778" height="17.7778" fill="white" transform="translate(11.1113 11.1094)"/>
</clipPath>
</defs>
</svg>
