<svg width="24" height="24" viewBox="0 0 24 24" fill="none" xmlns="http://www.w3.org/2000/svg">
<path d="M24 6.99984V7.99969H0V6.99984C0 4.23891 2.23922 2.00016 5.00016 2.00016H6V0.999844C6 0.448125 6.44812 0 6.99984 0C7.55203 0 7.99969 0.448125 7.99969 0.999844V1.99969H15.9998V0.999844C15.9998 0.448125 16.448 0 17.0002 0C17.5519 0 18 0.448125 18 0.999844V1.99969H18.9998C21.7608 2.00016 24 4.23891 24 6.99984ZM24 17.0002C24 20.8598 20.8589 24 17.0002 24C13.1414 24 10.0003 20.8598 10.0003 17.0002C10.0003 13.1405 13.1414 10.0003 17.0002 10.0003C20.8589 10.0003 24 13.14 24 17.0002ZM18.9998 17.5861L18 16.5858V15C18 14.4478 17.5519 14.0002 17.0002 14.0002C16.448 14.0002 16.0003 14.4483 16.0003 15V17.0002C16.0003 17.265 16.1053 17.52 16.2933 17.707L17.5861 18.9998C17.9761 19.3898 18.6103 19.3898 19.0003 18.9998C19.3898 18.6098 19.3898 17.9761 18.9998 17.5861ZM8.00016 17.0002C8.00016 14.1713 9.30797 11.6503 11.3494 10.0003H0V19.0003C0 21.7608 2.23922 24 5.00016 24H11.3494C9.30797 22.35 8.00016 19.8291 8.00016 17.0002Z" fill="#0D257B"/>
</svg>
