<svg width="22" height="26" viewBox="0 0 22 26" fill="none" xmlns="http://www.w3.org/2000/svg">
<path d="M18.9489 3.63484L10.9998 1L3.05078 3.63484C1.82734 4.03703 1.00047 5.17937 1 6.46703V12.9911C1 20.515 10.2002 24.67 10.5939 24.843L10.9478 25L11.3158 24.8781C11.7109 24.7459 20.9997 21.5683 20.9997 12.9911V6.46703C20.9992 5.17937 20.1723 4.0375 18.9489 3.63484ZM19 12.9911C19 19.2541 12.6508 22.2072 11.0472 22.8522C9.44031 22.0492 3.00016 18.4853 3.00016 12.9911V6.46703C3.00016 6.03766 3.27625 5.65703 3.68406 5.52297L10.9998 3.09719L18.3156 5.52297C18.7239 5.65656 19 6.03719 18.9995 6.46703L19 12.9911Z" fill="#0D257B" stroke="#0D257B" stroke-width="0.5"/>
</svg>
