<svg width="40" height="40" viewBox="0 0 40 40" fill="none" xmlns="http://www.w3.org/2000/svg">
<circle cx="20" cy="20" r="20" fill="#0D257B" fill-opacity="0.03"/>
<path d="M27.6468 21.2269L26.2883 16.1646C25.3022 12.4916 21.6275 10.3422 18.0812 11.3634C15.7097 12.0462 13.895 14.0273 13.3607 16.5156L12.3086 21.4143C11.8802 23.4107 13.0953 25.3886 15.0229 25.8323C15.2777 25.8909 15.5378 25.9204 15.7989 25.9204H16.5956C16.9885 27.9244 18.8759 29.2192 20.811 28.8124C22.2181 28.5167 23.3175 27.3777 23.6034 25.9204H24.2028C26.1774 25.9204 27.7782 24.2629 27.7782 22.2179C27.7782 21.8829 27.7343 21.5497 27.6478 21.2269H27.6468ZM20.0994 27.4017C19.1937 27.3978 18.3876 26.8049 18.0859 25.9204H22.1132C21.8112 26.8049 21.0054 27.3975 20.0994 27.4017ZM25.9102 23.5617C25.5063 24.1167 24.8731 24.442 24.2017 24.4392H15.7989C14.614 24.4389 13.6537 23.4443 13.654 22.2172C13.654 22.0551 13.6711 21.8937 13.7053 21.7354L14.7565 16.836C15.3839 13.9131 18.1804 12.0705 21.0027 12.7204C22.8902 13.155 24.3925 14.6313 24.9103 16.5607L26.2689 21.6229C26.4512 22.2919 26.3181 23.0101 25.9102 23.5617Z" fill="#0D257B"/>
</svg>
