<svg width="21" height="25" viewBox="0 0 21 25" fill="none" xmlns="http://www.w3.org/2000/svg">
<path d="M20.6207 3.24313C20.6224 2.80743 20.5198 2.37765 20.3215 1.98969C20.1232 1.60174 19.8349 1.26689 19.4807 1.01313C19.2916 0.867827 19.0828 0.749993 18.8607 0.663135C18.4865 0.523318 18.0902 0.452178 17.6907 0.453135H4.2207C3.72937 0.55538 3.24764 0.699232 2.7807 0.883135C1.94724 1.21747 1.23508 1.7972 0.738605 2.54548C0.24213 3.29377 -0.015211 4.17527 0.000695303 5.07313C0.000695303 11.2031 0.000695303 17.3331 0.000695303 23.4531C-0.0064901 23.6802 0.0638718 23.903 0.200195 24.0848C0.336518 24.2665 0.530675 24.3964 0.750695 24.4531H1.1107C1.33443 24.4003 1.53314 24.2721 1.67338 24.09C1.81363 23.9078 1.88684 23.6829 1.8807 23.4531C1.89856 23.2206 2.00501 23.0038 2.17806 22.8475C2.35111 22.6912 2.57757 22.6073 2.8107 22.6131C3.04278 22.6075 3.26808 22.6917 3.43952 22.8482C3.61096 23.0048 3.71529 23.2215 3.7307 23.4531C3.72404 23.6816 3.79583 23.9054 3.93411 24.0873C4.07239 24.2693 4.26882 24.3984 4.49069 24.4531H4.8707C5.09257 24.3984 5.289 24.2693 5.42728 24.0873C5.56556 23.9054 5.63735 23.6816 5.6307 23.4531C5.64856 23.2206 5.75501 23.0038 5.92806 22.8475C6.10111 22.6912 6.32757 22.6073 6.5607 22.6131C6.79278 22.6075 7.01808 22.6917 7.18952 22.8482C7.36096 23.0048 7.46529 23.2215 7.4807 23.4531C7.47404 23.6816 7.54583 23.9054 7.68411 24.0873C7.82239 24.2693 8.01882 24.3984 8.24069 24.4531H8.6207C8.84257 24.3984 9.039 24.2693 9.17728 24.0873C9.31556 23.9054 9.38735 23.6816 9.3807 23.4531C9.40451 23.2244 9.51223 23.0126 9.68307 22.8586C9.8539 22.7047 10.0757 22.6194 10.3057 22.6194C10.5357 22.6194 10.7575 22.7047 10.9283 22.8586C11.0992 23.0126 11.2069 23.2244 11.2307 23.4531C11.2246 23.6829 11.2978 23.9078 11.438 24.09C11.5783 24.2721 11.777 24.4003 12.0007 24.4531H12.3807C12.6026 24.3984 12.799 24.2693 12.9373 24.0873C13.0756 23.9054 13.1474 23.6816 13.1407 23.4531C13.1561 23.2215 13.2604 23.0048 13.4319 22.8482C13.6033 22.6917 13.8286 22.6075 14.0607 22.6131C14.2955 22.6047 14.5245 22.6874 14.6997 22.844C14.8749 23.0006 14.9828 23.2188 15.0007 23.4531C14.9935 23.6802 15.0639 23.903 15.2002 24.0848C15.3365 24.2665 15.5307 24.3964 15.7507 24.4531H16.1407C16.3845 24.3793 16.594 24.2209 16.7315 24.0065C16.869 23.792 16.9254 23.5355 16.8907 23.2831C16.8907 20.3931 16.8907 13.8231 16.8907 9.45313H17.8907C18.6246 9.44529 19.3262 9.14956 19.8442 8.62962C20.3623 8.10968 20.6555 7.4071 20.6607 6.67313C20.6474 5.52647 20.634 4.38313 20.6207 3.24313ZM15.0007 20.8531C14.5283 20.6851 14.0195 20.6466 13.5271 20.7416C13.0348 20.8365 12.5768 21.0615 12.2007 21.3931C11.6798 20.9388 11.0119 20.6884 10.3207 20.6884C9.62946 20.6884 8.96161 20.9388 8.44069 21.3931C7.91792 20.9427 7.25078 20.6949 6.5607 20.6949C5.87061 20.6949 5.20347 20.9427 4.6807 21.3931C4.30247 21.0652 3.84507 20.842 3.35389 20.7455C2.86271 20.649 2.35484 20.6827 1.8807 20.8431V5.22313C1.86958 4.83843 1.93732 4.45553 2.07976 4.09799C2.22219 3.74046 2.4363 3.41586 2.70891 3.14419C2.98152 2.87252 3.30685 2.65953 3.66487 2.51832C4.0229 2.37712 4.40603 2.31069 4.7907 2.32313H15.1207C15.0627 2.63055 15.0227 2.94107 15.0007 3.25313C15.0007 4.37313 15.0007 5.50313 15.0007 6.62313V20.8531ZM18.7407 6.67313C18.7387 6.90271 18.65 7.12303 18.4923 7.28994C18.3347 7.45685 18.1198 7.55801 17.8907 7.57313H16.8907V6.23313C16.8907 5.23313 16.8907 4.23313 16.8907 3.28313C16.9077 3.05065 17.0105 2.83276 17.1791 2.67178C17.3476 2.5108 17.57 2.41821 17.8031 2.41198C18.0361 2.40575 18.2631 2.48632 18.4401 2.63806C18.617 2.78981 18.7313 3.00189 18.7607 3.23313C18.7507 4.37313 18.7507 5.52313 18.7407 6.67313Z" fill="#0D257B"/>
<path d="M4.72091 14.1341H12.0709C12.1707 14.144 12.2712 14.144 12.3709 14.1341C12.5978 14.0903 12.8003 13.9637 12.939 13.7789C13.0776 13.594 13.1425 13.3641 13.1209 13.1341C13.1007 12.9024 12.9936 12.6871 12.821 12.5312C12.6485 12.3754 12.4234 12.2907 12.1909 12.2941H4.72091C4.59 12.2805 4.4577 12.2946 4.33258 12.3354C4.20746 12.3762 4.0923 12.4429 3.99456 12.531C3.89683 12.6191 3.81869 12.7268 3.7652 12.8471C3.71172 12.9673 3.68408 13.0975 3.68408 13.2291C3.68408 13.3607 3.71172 13.4908 3.7652 13.6111C3.81869 13.7313 3.89683 13.839 3.99456 13.9271C4.0923 14.0153 4.20746 14.0819 4.33258 14.1227C4.4577 14.1635 4.59 14.1776 4.72091 14.1641V14.1341Z" fill="#0D257B"/>
<path d="M12.1306 16.0136H4.75056C4.5583 16.0013 4.36705 16.0498 4.20378 16.152C4.04051 16.2543 3.91347 16.4052 3.84056 16.5836C3.77638 16.7268 3.7495 16.884 3.76244 17.0405C3.77538 17.1969 3.82771 17.3476 3.91456 17.4783C4.00141 17.6091 4.11995 17.7158 4.25914 17.7884C4.39832 17.861 4.55362 17.8972 4.71056 17.8936H12.1306C12.2615 17.9071 12.3938 17.893 12.5189 17.8522C12.644 17.8114 12.7592 17.7448 12.8569 17.6566C12.9546 17.5685 13.0328 17.4608 13.0863 17.3406C13.1398 17.2203 13.1674 17.0902 13.1674 16.9586C13.1674 16.827 13.1398 16.6968 13.0863 16.5766C13.0328 16.4563 12.9546 16.3486 12.8569 16.2605C12.7592 16.1724 12.644 16.1057 12.5189 16.0649C12.3938 16.0241 12.2615 16.01 12.1306 16.0236V16.0136Z" fill="#0D257B"/>
<path d="M6.63066 8.513H7.50066V9.453C7.50066 9.57644 7.52498 9.69867 7.57222 9.81272C7.61946 9.92676 7.6887 10.0304 7.77598 10.1177C7.86327 10.205 7.9669 10.2742 8.08094 10.3214C8.19499 10.3687 8.31722 10.393 8.44066 10.393C8.56411 10.393 8.68634 10.3687 8.80039 10.3214C8.91443 10.2742 9.01806 10.205 9.10534 10.1177C9.19263 10.0304 9.26187 9.92676 9.30911 9.81272C9.35635 9.69867 9.38066 9.57644 9.38066 9.453V8.513H10.2607C10.51 8.513 10.7491 8.41396 10.9253 8.23768C11.1016 8.06139 11.2007 7.8223 11.2007 7.573C11.2007 7.32369 11.1016 7.0846 10.9253 6.90831C10.7491 6.73203 10.51 6.633 10.2607 6.633H9.38066V5.633C9.36276 5.40755 9.26897 5.19482 9.11459 5.02955C8.96021 4.86427 8.75437 4.75621 8.53066 4.723C8.30202 4.70108 8.07336 4.76455 7.88872 4.90118C7.70408 5.03781 7.57654 5.23793 7.53066 5.463C7.52039 5.59947 7.52039 5.73652 7.53066 5.873V6.593H6.62066C6.49722 6.593 6.37499 6.61731 6.26094 6.66455C6.1469 6.71179 6.04327 6.78103 5.95598 6.86831C5.8687 6.9556 5.79946 7.05923 5.75222 7.17327C5.70498 7.28732 5.68066 7.40955 5.68066 7.533C5.68066 7.65644 5.70498 7.77867 5.75222 7.89272C5.79946 8.00676 5.8687 8.11039 5.95598 8.19768C6.04327 8.28496 6.1469 8.3542 6.26094 8.40144C6.37499 8.44868 6.49722 8.473 6.62066 8.473L6.63066 8.513Z" fill="#0D257B"/>
</svg>
