<svg width="14" height="16" viewBox="0 0 14 16" fill="none" xmlns="http://www.w3.org/2000/svg">
<g clip-path="url(#clip0_1823_12569)">
<path d="M13.2998 2.66656H11.1299C10.7949 1.11563 9.36265 0.001875 7.70005 0H6.29995C4.63735 0.001875 3.20477 1.11563 2.87009 2.66656H0.699885C0.313357 2.66656 0 2.965 0 3.33344C0 3.70187 0.313357 4 0.699885 4H1.39977V12.6666C1.40207 14.5066 2.96787 15.9978 4.89985 16H9.09982C11.0318 15.9978 12.5976 14.5066 12.5999 12.6666V4H13.2998C13.6863 4 13.9997 3.70156 13.9997 3.33344C13.9997 2.96531 13.6866 2.66656 13.2998 2.66656ZM6.29995 1.33344H7.70005C8.58959 1.33437 9.38266 1.86844 9.68027 2.66687H4.31973C4.61734 1.86812 5.41041 1.33437 6.29995 1.33344ZM11.1998 12.6666C11.1998 13.7712 10.2597 14.6666 9.09982 14.6666H4.89985C3.73994 14.6666 2.79987 13.7712 2.79987 12.6666V4H11.1998V12.6666Z" fill="#A90000"/>
<path d="M5.60028 12.0001C5.9868 12.0001 6.30016 11.7017 6.30016 11.3336V7.33355C6.30016 6.96543 5.9868 6.66699 5.60028 6.66699C5.21375 6.66699 4.90039 6.96543 4.90039 7.33355V11.3336C4.90006 11.7017 5.21342 12.0001 5.60028 12.0001Z" fill="#A90000"/>
<path d="M8.3991 12.0001C8.78563 12.0001 9.09899 11.7017 9.09899 11.3336V7.33355C9.09899 6.96543 8.78563 6.66699 8.3991 6.66699C8.01258 6.66699 7.69922 6.96543 7.69922 7.33355V11.3336C7.69922 11.7017 8.01258 12.0001 8.3991 12.0001Z" fill="#A90000"/>
</g>
<defs>
<clipPath id="clip0_1823_12569">
<rect width="14" height="16" fill="white"/>
</clipPath>
</defs>
</svg>
