<svg width="10" height="16" viewBox="0 0 10 16" fill="none" xmlns="http://www.w3.org/2000/svg">
<path d="M9.04801 9.74096C8.97073 9.47929 8.87697 9.25156 8.76686 9.05816C8.65681 8.86458 8.49919 8.67575 8.29369 8.49104C8.08844 8.30644 7.9038 8.15776 7.74008 8.04474C7.57646 7.93162 7.3517 7.80515 7.06592 7.66517C6.78039 7.52522 6.55416 7.42108 6.38762 7.35259C6.22087 7.28419 5.97966 7.19044 5.66414 7.07138C5.3844 6.9643 5.17611 6.88242 5.03907 6.82591C4.90219 6.76934 4.72218 6.68903 4.49895 6.58479C4.27581 6.48071 4.10912 6.38839 3.99897 6.30808C3.88886 6.22777 3.77133 6.12957 3.6463 6.01351C3.52127 5.89746 3.43348 5.77393 3.38285 5.64298C3.33235 5.51201 3.30701 5.36912 3.30701 5.21435C3.30701 4.80967 3.48552 4.4792 3.84267 4.22332C4.19984 3.96744 4.66122 3.83943 5.22675 3.83943C5.47662 3.83943 5.73138 3.87362 5.99014 3.94214C6.24889 4.01066 6.47065 4.08784 6.6552 4.17422C6.8399 4.2606 7.01394 4.35585 7.17769 4.45996C7.34141 4.56417 7.45743 4.64298 7.52595 4.69655C7.59441 4.75015 7.63779 4.78584 7.65546 4.80372C7.73295 4.86324 7.81311 4.88404 7.89645 4.86624C7.98571 4.8603 8.05423 4.81261 8.10195 4.72341L8.82531 3.4198C8.89671 3.30081 8.88195 3.18769 8.78068 3.08048C8.74491 3.04477 8.70043 3.00315 8.64649 2.95548C8.59307 2.90782 8.47695 2.82154 8.29822 2.69648C8.11968 2.57151 7.9307 2.45989 7.73142 2.36166C7.53193 2.26352 7.27292 2.16376 6.95443 2.06262C6.63612 1.96133 6.30716 1.89293 5.96777 1.85725V0.285716C5.96777 0.202434 5.94104 0.133945 5.88762 0.080342C5.83408 0.0268641 5.76559 0 5.68212 0H4.47665C4.39928 0 4.33232 0.0282401 4.27578 0.0848141C4.21923 0.141388 4.19096 0.208314 4.19096 0.285716V1.8929C3.25638 2.07141 2.49743 2.47024 1.91409 3.0893C1.3308 3.7084 1.03905 4.42853 1.03905 5.25006C1.03905 5.49409 1.06444 5.72623 1.11504 5.94637C1.16558 6.16669 1.22813 6.36462 1.30256 6.54019C1.37693 6.71589 1.48264 6.88846 1.61952 7.05815C1.7564 7.22778 1.88591 7.37364 2.00791 7.4956C2.12997 7.61754 2.28921 7.74407 2.48558 7.87498C2.68207 8.00602 2.85023 8.11176 2.99015 8.19207C3.1301 8.27213 3.31608 8.3647 3.54816 8.46862C3.78031 8.57285 3.96342 8.65163 4.09736 8.70533C4.23131 8.75884 4.41432 8.83333 4.64656 8.92837C4.96796 9.05338 5.20611 9.15014 5.36085 9.21863C5.51571 9.28711 5.71208 9.38234 5.95032 9.50437C6.18835 9.62628 6.36239 9.73792 6.47259 9.83916C6.58271 9.94039 6.68238 10.0654 6.77173 10.2142C6.86108 10.3629 6.90583 10.5207 6.90583 10.6874C6.90583 11.1577 6.72278 11.5207 6.3566 11.7765C5.99057 12.0325 5.56631 12.1605 5.08423 12.1605C4.86419 12.1605 4.64377 12.1368 4.42361 12.0892C3.64977 11.9342 2.92657 11.5622 2.25394 10.973L2.23608 10.9551C2.18248 10.8898 2.11102 10.863 2.02182 10.8749C1.92656 10.8868 1.85808 10.9226 1.81645 10.9822L0.896755 12.1875C0.807437 12.3065 0.813473 12.4285 0.914643 12.5535C0.944447 12.5893 0.996518 12.643 1.07089 12.7143C1.14544 12.7859 1.28386 12.8973 1.48614 13.0494C1.68848 13.2012 1.90874 13.3439 2.14689 13.478C2.385 13.6119 2.68705 13.7443 3.0532 13.8753C3.41935 14.0061 3.79873 14.0983 4.19162 14.1518V15.7143C4.19162 15.7918 4.21992 15.8587 4.27643 15.9153C4.33301 15.972 4.39993 16.0001 4.4773 16.0001H5.68278C5.76625 16.0001 5.83474 15.9734 5.88825 15.9199C5.94176 15.8664 5.9684 15.7979 5.9684 15.7144V14.1519C6.91502 13.9971 7.68438 13.5908 8.27658 12.9331C8.86884 12.2753 9.16507 11.491 9.16507 10.5804C9.16475 10.2828 9.12613 10.003 9.04801 9.74096Z" fill="#6D6D6D"/>
</svg>
