<svg width="24" height="24" viewBox="0 0 24 24" fill="none" xmlns="http://www.w3.org/2000/svg">
<g clip-path="url(#clip0_9795_29653)">
<path d="M15.4187 17.2936C15.2354 17.4765 15.2354 17.7737 15.4187 17.9564C15.6016 18.1397 15.8988 18.1397 16.0816 17.9564C16.2648 17.7737 16.2648 17.4765 16.0816 17.2936C15.8988 17.1105 15.6016 17.1105 15.4187 17.2936Z" fill="#0D257B"/>
<path d="M7.91872 17.2936C7.73543 17.4765 7.73543 17.7737 7.91872 17.9564C8.10164 18.1397 8.39882 18.1397 8.58156 17.9564C8.76485 17.7737 8.76485 17.4765 8.58156 17.2936C8.39882 17.1105 8.10164 17.1105 7.91872 17.2936Z" fill="#0D257B"/>
<path d="M21.375 3.88086C22.4913 3.88087 23.4004 4.78776 23.4004 5.90234V14.0547C23.4004 14.7067 23.1461 15.3233 22.6865 15.79L18.8047 19.7275C18.7466 19.7865 18.7129 19.8685 18.7129 19.9512V23.5312C18.7129 23.873 18.4355 24.1504 18.0938 24.1504H13.4062C13.0645 24.1504 12.7871 23.873 12.7871 23.5312V17.2598C12.7871 16.356 13.1533 15.4718 13.792 14.833L17.5078 11.1172L17.6143 11.0186C18.1037 10.5942 18.7496 10.4444 19.3496 10.5674V5.90625C19.3496 4.7896 20.2583 3.88086 21.375 3.88086ZM14.0254 22.9121H17.4746V21.5254H14.0254V22.9121ZM21.375 5.11914C20.9409 5.11914 20.5879 5.47219 20.5879 5.90625V11.375C21.1591 12.1705 21.0837 13.2698 20.3721 13.9814L17.5635 16.7891C17.3218 17.0307 16.9301 17.0307 16.6885 16.7891C16.4471 16.5474 16.4468 16.1555 16.6885 15.9141L19.4971 13.1064C19.7989 12.8046 19.8073 12.3251 19.5166 12.0137V12.0127C19.5103 12.006 19.5045 11.9993 19.5 11.9941V11.9951C19.2353 11.7042 18.7082 11.667 18.3828 11.9922L14.667 15.708C14.2591 16.116 14.0254 16.6826 14.0254 17.2598V20.2871H17.4746V19.9512C17.4746 19.5399 17.6342 19.1512 17.9229 18.8584L21.8047 14.9219C22.0357 14.6874 22.1621 14.3794 22.1621 14.0547V5.90234C22.1621 5.47128 21.8099 5.11915 21.375 5.11914Z" fill="#0D257B" stroke="#0D257B" stroke-width="0.3"/>
<path d="M2.625 3.88086C3.74165 3.88086 4.65039 4.7896 4.65039 5.90625V10.5674C5.29476 10.4353 5.99175 10.6182 6.49121 11.1172L10.208 14.833C10.8467 15.4718 11.2129 16.3562 11.2129 17.2598V23.5312C11.2129 23.873 10.9355 24.1504 10.5938 24.1504H5.90625C5.56451 24.1504 5.28712 23.873 5.28711 23.5312V19.958C5.28711 19.8721 5.25437 19.7918 5.19336 19.7314L1.33594 15.9111C0.862011 15.4417 0.599677 14.8159 0.599609 14.1514V5.90234C0.599609 4.78756 1.50867 3.88086 2.625 3.88086ZM6.52539 22.9121H9.97461V21.5254H6.52539V22.9121ZM2.625 5.11914C2.19031 5.11914 1.83789 5.47129 1.83789 5.90234V14.1514C1.83796 14.4831 1.96796 14.795 2.20605 15.0312L6.06348 18.8516C6.36078 19.1456 6.52539 19.5397 6.52539 19.958V20.2871H9.97461V17.2598C9.97461 16.6826 9.74089 16.1162 9.33301 15.708L5.61719 11.9922C5.31175 11.6869 4.79901 11.677 4.4834 12.0137C4.19285 12.3251 4.2011 12.8046 4.50293 13.1064L7.31152 15.9141C7.55307 16.1556 7.55298 16.5475 7.31152 16.7891C7.06988 17.0307 6.67807 17.0308 6.43652 16.7891L3.62793 13.9814C2.91607 13.2698 2.8409 12.1705 3.41211 11.375V5.90625C3.41211 5.47219 3.05906 5.11914 2.625 5.11914Z" fill="#0D257B" stroke="#0D257B" stroke-width="0.3"/>
<path d="M11.6162 0.0839844C11.8284 -0.127571 12.1716 -0.127572 12.3838 0.0839844C12.5121 0.211983 13.1356 0.845932 13.7275 1.66211C14.0234 2.07012 14.3129 2.52502 14.5283 2.98633C14.7435 3.44705 14.8877 3.91933 14.8877 4.35938C14.8877 4.40543 14.8803 4.45806 14.8438 4.70898C14.8071 4.96085 14.7391 5.41774 14.6182 6.27734L16.6367 8.69922C16.7731 8.86298 16.8015 9.09134 16.709 9.2832L14.834 13.1738C14.6344 13.588 14.0436 13.5816 13.8506 13.167L13.0596 11.4658H10.9404L10.1494 13.167C9.95613 13.582 9.36551 13.5877 9.16602 13.1738L7.29102 9.2832C7.19847 9.09127 7.22713 8.86293 7.36328 8.69922L9.38086 6.27734C9.25961 5.41528 9.19283 4.95825 9.15625 4.70703C9.1198 4.45672 9.11231 4.40552 9.1123 4.35938C9.1123 3.91933 9.25654 3.44705 9.47168 2.98633C9.68714 2.52502 9.97656 2.07012 10.2725 1.66211C10.8644 0.845935 11.4879 0.211986 11.6162 0.0839844ZM13.9668 10.8379L14.3525 11.667L15.5762 9.125L14.4111 7.72754L13.9668 10.8379ZM8.42285 9.12598L9.64746 11.666L10.0322 10.8379L9.58789 7.72754L8.42285 9.12598ZM11.0654 10.3779H12.9346L13.0469 9.59082H10.9531L11.0654 10.3779ZM10.7979 8.50293H13.2021L13.7158 4.90332H10.2842L10.7979 8.50293ZM12 1.2627C11.7062 1.59026 11.3503 2.01822 11.0332 2.47266C10.7191 2.92281 10.4468 3.39438 10.3047 3.81543H13.6953C13.5532 3.39444 13.2809 2.92284 12.9668 2.47266C12.6497 2.01819 12.2939 1.59026 12 1.2627Z" fill="#0D257B" stroke="#0D257B" stroke-width="0.15"/>
<path d="M11.5312 6.70312H12.4687C12.7277 6.70312 12.9375 6.49329 12.9375 6.23437C12.9375 5.97565 12.7277 5.76562 12.4687 5.76562H11.5312C11.2723 5.76562 11.0625 5.97565 11.0625 6.23437C11.0625 6.49329 11.2723 6.70312 11.5312 6.70312Z" fill="#0D257B"/>
</g>
<defs>
<clipPath id="clip0_9795_29653">
<rect width="24" height="24" fill="white"/>
</clipPath>
</defs>
</svg>
