<svg width="12" height="16" viewBox="0 0 12 16" fill="none" xmlns="http://www.w3.org/2000/svg">
<path d="M5.87691 15.9997C5.74751 15.8995 5.60558 15.8118 5.48453 15.6991C3.95674 14.2465 2.6001 12.6519 1.52731 10.8319C0.896998 9.75911 0.400259 8.63205 0.141454 7.40899C-0.467991 4.53291 0.930392 1.73198 3.59358 0.513087C6.02301 -0.597271 9.02014 0.141576 10.6815 2.27463C11.9421 3.89008 12.2636 5.71006 11.796 7.68449C11.4913 8.97852 10.9111 10.1557 10.2056 11.2744C9.17459 12.9149 7.92231 14.3717 6.51557 15.6991C6.39869 15.8118 6.25677 15.8995 6.12319 15.9997C6.04388 15.9997 5.96039 15.9997 5.87691 15.9997ZM9.33321 6.10244C9.4167 4.29916 7.96822 2.75885 6.11067 2.66701C4.30738 2.57935 2.7629 4.02365 2.67107 5.88121C2.57923 7.69702 4.03605 9.24985 5.9103 9.33333C7.70942 9.41264 9.24972 7.96417 9.33321 6.10244Z" fill="#6D6D6D"/>
</svg>
