<svg width="18" height="18" viewBox="0 0 18 18" fill="none" xmlns="http://www.w3.org/2000/svg">
<path d="M13.568 2.45092C13.5324 2.33042 13.5063 2.24658 13.4825 2.16217C13.3492 1.68574 13.603 1.2043 14.0689 1.04827C14.5253 0.896121 15.035 1.11268 15.1966 1.57079C15.5187 2.48368 15.8302 3.40157 16.1162 4.32668C16.2905 4.89085 15.8819 5.44002 15.2833 5.45279C14.3676 5.47278 13.4508 5.46779 12.5352 5.45335C12.0965 5.44669 11.7689 5.14683 11.6839 4.73314C11.6034 4.34056 11.8099 3.97851 12.2753 3.73252C12.2098 3.68921 12.1581 3.65145 12.1037 3.61924C8.50711 1.51249 3.76886 3.61258 2.92482 7.68782C2.18907 11.2411 4.5085 14.5772 8.1073 15.1431C11.3902 15.6595 14.6036 13.3306 15.1272 10.0472C15.1828 9.69962 15.1927 9.34535 15.22 8.9933C15.2516 8.57739 15.4815 8.27031 15.8541 8.15592C16.2011 8.04931 16.6015 8.15259 16.7986 8.45911C16.9114 8.63458 16.9913 8.86725 16.9908 9.07437C16.9869 12.6604 14.5353 15.8055 11.0375 16.7318C6.60359 17.9067 2.08134 15.0942 1.1679 10.5947C0.276667 6.20576 3.20024 1.91285 7.60921 1.15822C9.67987 0.803388 11.6073 1.20542 13.3792 2.33709C13.4303 2.36929 13.4825 2.39928 13.568 2.45092Z" fill="#0D257B" stroke="#0D257B" stroke-width="0.5"/>
</svg>
