<svg width="42" height="43" viewBox="0 0 42 43" fill="none" xmlns="http://www.w3.org/2000/svg">
<g clip-path="url(#clip0_1823_12511)">
<path d="M16.5307 0.419426L15.5969 0.375L15.4991 0.428311C15.0189 0.677094 14.3875 1.11247 14.3875 1.99209C14.3786 4.40885 14.3786 6.83449 14.3875 9.25124C14.3875 9.92651 14.7699 10.4685 15.428 10.7262C15.6325 10.8061 15.837 10.8417 16.0416 10.8417C16.3528 10.8417 16.6552 10.7528 16.9219 10.5751C17.3844 10.2641 17.66 9.72215 17.66 9.12685C17.66 8.33607 17.66 7.5453 17.66 6.67456C17.66 5.26182 17.6511 3.84908 17.6778 2.43635C17.6956 1.44122 17.3132 0.783716 16.5307 0.419426Z" fill="#F5C86F"/>
<path d="M8.8393 18.021C9.54182 18.021 10.0932 17.6389 10.3599 16.9725C10.5645 16.4661 10.5111 15.9241 10.2088 15.4798C9.89752 15.0178 9.35507 14.7424 8.75926 14.7424C8.04785 14.7424 7.33644 14.7424 6.62503 14.7424H6.38492C4.94431 14.7424 3.50371 14.7513 2.0631 14.7246C1.07601 14.7246 0.409062 15.0889 0.0444633 15.8708L0 16.8126L0.0533559 16.9104C0.195638 17.1858 0.631378 18.0299 1.65403 18.0299H2.61444C3.55706 18.0299 4.50858 18.0299 5.4512 18.0299C6.58056 18.0299 7.70993 18.0299 8.8393 18.021Z" fill="#F5C86F"/>
<path d="M11.3835 19.8865C10.761 19.7265 10.1741 19.8954 9.68497 20.3929C8.93798 21.1482 8.18211 21.8945 7.43512 22.6498L6.03008 24.0536C5.57656 24.4979 5.13193 24.9421 4.69619 25.4041C4.20709 25.9106 4.09149 26.5681 4.36716 27.2167C4.72286 28.043 5.48763 28.1674 6.02119 28.1941L6.15458 28.203L6.27019 28.1319C6.30576 28.1141 6.35022 28.0875 6.41247 28.0608C6.59921 27.9631 6.89267 27.8209 7.12388 27.5988C8.35107 26.3993 9.56047 25.182 10.7788 23.9648L11.8992 22.8452C12.0237 22.7208 12.1482 22.5964 12.246 22.4632C12.5751 22.0189 12.664 21.4414 12.4773 20.9172C12.2994 20.4018 11.8903 20.0198 11.3835 19.8865Z" fill="#F5C86F"/>
<path d="M7.05099 5.11122C6.84646 4.90686 6.59747 4.79135 6.37515 4.68473C6.28623 4.64919 6.20619 4.60476 6.12616 4.56034L5.98388 4.48926L5.8327 4.51591C5.1035 4.63142 4.57884 5.01348 4.34763 5.5999C4.08085 6.2574 4.21424 6.89713 4.71223 7.40358C6.38405 9.08287 8.05586 10.7622 9.73658 12.4237C10.0834 12.7702 10.528 12.9479 10.9549 12.9479C11.3639 12.9479 11.7641 12.7969 12.0753 12.4859C12.3955 12.1749 12.5644 11.7751 12.5733 11.3397C12.5733 10.8865 12.3955 10.4512 12.0576 10.1047C10.3946 8.43425 8.73171 6.76385 7.05099 5.11122Z" fill="#F5C86F"/>
<path d="M27.9059 6.22181C27.7992 5.50211 27.4079 4.95123 26.8388 4.72022C26.1719 4.45366 25.5138 4.58694 24.998 5.09339C23.3173 6.7638 21.6455 8.4342 19.9737 10.1224C19.6446 10.4511 19.4668 10.8776 19.4668 11.3219C19.4668 11.7572 19.6447 12.166 19.9559 12.4681C20.276 12.7879 20.6851 12.9478 21.0942 12.9478C21.521 12.9478 21.9567 12.779 22.3036 12.4325C23.9754 10.771 25.6472 9.10947 27.3012 7.43018C27.5058 7.22582 27.6214 6.97704 27.737 6.74603C27.7725 6.66606 27.817 6.57721 27.8615 6.50613L27.9326 6.37285L27.9059 6.22181Z" fill="#F5C86F"/>
<path d="M41.6626 34.6713L41.3425 34.3514C41.2535 34.2181 41.1468 34.0937 41.0312 33.9782C39.0304 31.9613 37.0206 29.9533 35.0109 27.9541L34.7352 27.6787C34.7263 27.6698 34.7174 27.6698 34.7085 27.6609C34.7174 27.6609 34.7174 27.652 34.7174 27.652C35.7045 26.6747 36.6827 25.6973 37.6609 24.7199C38.1678 24.2135 38.3723 23.6004 38.2389 23.0406C38.1055 22.4809 37.652 22.0277 36.9851 21.8056L16.941 15.1418C16.034 14.8308 15.4559 15.1773 15.118 15.5149C14.6556 15.9858 14.54 16.59 14.7801 17.292L21.4674 37.3635C21.6897 38.0032 22.1254 38.4474 22.6857 38.5807C23.2459 38.714 23.8506 38.5096 24.3397 38.0298C25.3268 37.0436 26.3139 36.0573 27.301 35.0622C27.3098 35.0622 27.3098 35.0533 27.3098 35.0533L33.6325 41.3707L34.2906 42.037C34.7352 42.4813 35.4644 42.4813 35.909 42.037L41.6626 36.2884C42.1161 35.8352 42.1161 35.1155 41.6626 34.6713ZM27.3098 31.0906C27.0875 31.0906 26.8741 31.1439 26.6518 31.2505C26.4206 31.3571 26.1983 31.5259 25.9671 31.7569L23.7972 33.9427L18.8885 19.2467L33.5881 24.1424L31.3471 26.3814C31.1426 26.5858 30.9914 26.799 30.8847 27.0212C30.5912 27.6609 30.7513 28.3362 31.3649 28.9492C33.4991 31.0906 35.6423 33.223 37.7765 35.3554L34.9931 38.1098C33.1968 36.2972 31.3916 34.4936 29.5864 32.6988L28.6526 31.7658C28.1991 31.3127 27.7634 31.0906 27.3098 31.0906Z" fill="#0D257B"/>
</g>
<defs>
<clipPath id="clip0_1823_12511">
<rect width="42" height="42" fill="white" transform="translate(0 0.375)"/>
</clipPath>
</defs>
</svg>
