<svg width="16" height="16" viewBox="0 0 16 16" fill="none" xmlns="http://www.w3.org/2000/svg">
<g clip-path="url(#clip0_1823_12567)">
<path d="M12.5419 6.6663C12.7478 6.6663 12.9425 6.57099 13.0684 6.40819C13.1944 6.24538 13.2384 6.03351 13.1878 5.83415C12.9806 5.02293 12.5578 4.28139 11.9659 3.68954L9.6425 1.3662C8.76125 0.485294 7.58938 0 6.34281 0H3.33281C1.49531 0 0 1.49525 0 3.33331V12.6664C0 14.5041 1.49531 15.9994 3.33344 15.9994H5.33344C5.70156 15.9994 6 15.7006 6 15.3328C6 14.965 5.70125 14.6663 5.33344 14.6663H3.33344C2.23062 14.6663 1.33344 13.7691 1.33344 12.6664V3.33331C1.33344 2.23054 2.23062 1.33339 3.33344 1.33339H6.34344C6.45219 1.33339 6.56 1.3387 6.66687 1.3487V4.66669C6.66687 5.76946 7.56406 6.66661 8.66687 6.66661H12.5419V6.6663ZM8 4.66638V1.77274C8.25281 1.91805 8.48812 2.09804 8.7 2.30991L11.0234 4.63326C11.2328 4.84262 11.4122 5.07855 11.5588 5.33323H8.66687C8.29937 5.33323 8 5.03387 8 4.66638ZM15.4147 7.91907C14.6587 7.16316 13.3413 7.16316 12.5859 7.91907L8.11469 12.3901C7.61125 12.8936 7.33344 13.5635 7.33344 14.276V15.3331C7.33344 15.7013 7.63219 15.9997 8 15.9997H9.05719C9.77 15.9997 10.4391 15.7216 10.9425 15.2185L15.4137 10.7474C15.7919 10.3693 15.9997 9.86743 15.9997 9.33276C16 8.79841 15.7919 8.29624 15.4147 7.91907ZM14.4712 9.8043L9.99938 14.2754C9.74813 14.5272 9.41344 14.666 9.05656 14.666H8.66594V14.2754C8.66594 13.9195 8.80469 13.5848 9.05656 13.3326L13.5284 8.86153C13.7797 8.60966 14.2191 8.60966 14.4712 8.86153C14.5972 8.98684 14.6666 9.15433 14.6666 9.33276C14.6666 9.5115 14.5972 9.67837 14.4712 9.8043Z" fill="#6D6D6D"/>
</g>
<defs>
<clipPath id="clip0_1823_12567">
<rect width="16" height="16" fill="white"/>
</clipPath>
</defs>
</svg>
