<svg width="22" height="26" viewBox="0 0 22 26" fill="none" xmlns="http://www.w3.org/2000/svg">
<path d="M13 15.7764C13 15.5112 13.1054 15.2568 13.2929 15.0693C13.4804 14.8817 13.7348 14.7764 14 14.7764C14.2652 14.7764 14.5196 14.8817 14.7071 15.0693C14.8946 15.2568 15 15.5112 15 15.7764C15 16.0416 14.8946 16.2959 14.7071 16.4835C14.5196 16.671 14.2652 16.7764 14 16.7764C13.7348 16.7764 13.4804 16.671 13.2929 16.4835C13.1054 16.2959 13 16.0416 13 15.7764ZM10 8.77637C10 8.51115 10.1054 8.2568 10.2929 8.06926C10.4804 7.88172 10.7348 7.77637 11 7.77637C11.2652 7.77637 11.5196 7.88172 11.7071 8.06926C11.8946 8.2568 12 8.51115 12 8.77637C12 9.04158 11.8946 9.29594 11.7071 9.48347C11.5196 9.67101 11.2652 9.77637 11 9.77637C10.7348 9.77637 10.4804 9.67101 10.2929 9.48347C10.1054 9.29594 10 9.04158 10 8.77637ZM6 14.2764C6.00013 13.8784 6.15835 13.4968 6.43984 13.2155C6.72133 12.9342 7.10304 12.7762 7.501 12.7764C7.89896 12.7765 8.28056 12.9347 8.56187 13.2162C8.84317 13.4977 9.00113 13.8794 9.001 14.2774C9.00087 14.6753 8.84265 15.0569 8.56116 15.3382C8.27967 15.6195 7.89796 15.7775 7.5 15.7774C7.10204 15.7772 6.72044 15.619 6.43913 15.3375C6.15783 15.056 5.99987 14.6743 6 14.2764Z" fill="#0D257B"/>
<path d="M0.431135 17.0736C0.233084 17.188 0.0885697 17.3763 0.0293821 17.5972C-0.0298055 17.8181 0.00118153 18.0535 0.115527 18.2515L0.977844 19.7451C1.09301 19.9415 1.2812 20.0844 1.50134 20.1426C1.72149 20.2008 1.95572 20.1696 2.15292 20.0557C2.35012 19.9419 2.49428 19.7547 2.55394 19.5349C2.6136 19.3151 2.58392 19.0807 2.47138 18.8828L4.01234 17.9928C4.54448 18.729 5.18868 19.3773 5.92151 19.9141L5.11524 21.0998C5.04853 21.1933 5.00117 21.2991 4.97594 21.4112C4.95071 21.5232 4.94811 21.6392 4.96831 21.7522C4.9885 21.8653 5.03107 21.9732 5.09353 22.0696C5.15599 22.166 5.23707 22.2489 5.33202 22.3135C5.42696 22.3781 5.53386 22.4231 5.64644 22.4459C5.75902 22.4686 5.875 22.4686 5.98759 22.4459C6.10017 22.4233 6.20709 22.3783 6.30206 22.3137C6.39704 22.2491 6.47815 22.1662 6.54065 22.0699L7.40987 20.7911C8.27161 21.191 9.19399 21.4446 10.1391 21.5413V23.3099C9.9104 23.3099 9.69107 23.4007 9.52935 23.5625C9.36763 23.7242 9.27678 23.9435 9.27678 24.1722C9.27678 24.4009 9.36763 24.6202 9.52935 24.782C9.69107 24.9437 9.9104 25.0345 10.1391 25.0345H11.8637C12.0924 25.0345 12.3118 24.9437 12.4735 24.782C12.6352 24.6202 12.7261 24.4009 12.7261 24.1722C12.7261 23.9435 12.6352 23.7242 12.4735 23.5625C12.3118 23.4007 12.0924 23.3099 11.8637 23.3099V21.5413C12.8089 21.445 13.7314 21.1914 14.593 20.7911L15.4622 22.0699C15.5247 22.1662 15.6058 22.2491 15.7008 22.3137C15.7957 22.3783 15.9027 22.4233 16.0152 22.4459C16.1278 22.4686 16.2438 22.4686 16.3564 22.4459C16.469 22.4231 16.5759 22.3781 16.6708 22.3135C16.7658 22.2489 16.8468 22.166 16.9093 22.0696C16.9718 21.9732 17.0143 21.8653 17.0345 21.7522C17.0547 21.6392 17.0521 21.5232 17.0269 21.4112C17.0017 21.2991 16.9543 21.1933 16.8876 21.0998L16.0813 19.9141C16.8142 19.3773 17.4584 18.729 17.9905 17.9928L19.5315 18.8828C19.4189 19.0807 19.3892 19.3151 19.4489 19.5349C19.5086 19.7547 19.6527 19.9419 19.8499 20.0557C20.0471 20.1696 20.2813 20.2008 20.5015 20.1426C20.7216 20.0844 20.9098 19.9415 21.025 19.7451L21.8873 18.2515C21.9999 18.0536 22.0295 17.8192 21.9699 17.5994C21.9102 17.3796 21.7661 17.1924 21.5688 17.0786C21.3716 16.9647 21.1374 16.9335 20.9173 16.9917C20.6971 17.0499 20.5089 17.1928 20.3938 17.3892L18.8563 16.501C19.2418 15.6542 19.4865 14.7501 19.5806 13.8244H20.4869C20.7156 13.8244 20.9349 13.7336 21.0967 13.5718C21.2584 13.4101 21.3492 13.1908 21.3492 12.9621C21.3492 12.7334 21.2584 12.5141 21.0967 12.3523C20.9349 12.1906 20.7156 12.0998 20.4869 12.0998H19.5806C19.4866 11.1741 19.2419 10.2699 18.8563 9.42314L20.3938 8.53495C20.5089 8.73139 20.6971 8.87431 20.9173 8.93251C21.1374 8.99072 21.3716 8.95948 21.5688 8.84562C21.7661 8.73177 21.9102 8.54453 21.9699 8.32477C22.0295 8.10502 21.9999 7.87059 21.8873 7.67263L21.025 6.1791C20.9684 6.08103 20.893 5.99508 20.8031 5.92615C20.7133 5.85721 20.6108 5.80665 20.5014 5.77734C20.2805 5.71815 20.0451 5.74914 19.8471 5.86349C19.649 5.97784 19.5045 6.16619 19.4453 6.38709C19.3861 6.608 19.4171 6.84336 19.5315 7.04142L17.9905 7.93133C17.4584 7.19514 16.8142 6.54686 16.0813 6.01009L16.8876 4.8244C16.9543 4.73091 17.0017 4.62504 17.0269 4.51299C17.0521 4.40095 17.0547 4.28499 17.0345 4.17193C17.0143 4.05887 16.9718 3.95098 16.9093 3.8546C16.8468 3.75822 16.7658 3.67528 16.6708 3.61066C16.5759 3.54604 16.469 3.50104 16.3564 3.4783C16.2438 3.45556 16.1278 3.45553 16.0152 3.47823C15.9027 3.50092 15.7957 3.54588 15.7008 3.61046C15.6058 3.67504 15.5247 3.75794 15.4622 3.85429L14.593 5.13225C13.7313 4.73217 12.8089 4.47889 11.8637 4.38289V2.61428C12.0924 2.61428 12.3118 2.52343 12.4735 2.36172C12.6352 2.2 12.7261 1.98067 12.7261 1.75197C12.7261 1.52326 12.6352 1.30393 12.4735 1.14222C12.3118 0.980499 12.0924 0.889648 11.8637 0.889648H10.1391C9.9104 0.889648 9.69107 0.980499 9.52935 1.14222C9.36763 1.30393 9.27678 1.52326 9.27678 1.75197C9.27678 1.98067 9.36763 2.2 9.52935 2.36172C9.69107 2.52343 9.9104 2.61428 10.1391 2.61428V4.38289C9.19392 4.4792 8.27147 4.73276 7.40987 5.13311L6.54065 3.85429C6.41056 3.66894 6.21279 3.54219 5.99003 3.50143C5.76728 3.46067 5.53744 3.50917 5.35014 3.63645C5.16284 3.76372 5.03313 3.95957 4.98902 4.18168C4.94491 4.4038 4.98994 4.63435 5.11438 4.82354L5.92065 6.00922C5.18782 6.546 4.54362 7.19427 4.01148 7.93047L2.47138 7.04142C2.58392 6.84347 2.6136 6.60903 2.55394 6.38928C2.49428 6.16952 2.35012 5.98229 2.15292 5.86843C1.95572 5.75457 1.72149 5.72334 1.50134 5.78154C1.2812 5.83974 1.09301 5.98266 0.977844 6.1791L0.115527 7.67263C0.00297993 7.87059 -0.026701 8.10502 0.032961 8.32477C0.0926231 8.54453 0.236784 8.73177 0.433985 8.84562C0.631186 8.95948 0.865417 8.99072 1.08556 8.93251C1.30571 8.87431 1.4939 8.73139 1.60906 8.53495L3.14657 9.42314C2.7605 10.2698 2.51581 11.174 2.42222 12.0998H1.51593C1.28723 12.0998 1.0679 12.1906 0.90618 12.3523C0.744464 12.5141 0.653613 12.7334 0.653613 12.9621C0.653613 13.1908 0.744464 13.4101 0.90618 13.5718C1.0679 13.7336 1.28723 13.8244 1.51593 13.8244H2.42222C2.51622 14.7501 2.7609 15.6543 3.14657 16.501L1.60906 17.3892C1.55252 17.2911 1.47718 17.205 1.38735 17.136C1.29752 17.067 1.19496 17.0164 1.08555 16.9871C0.976142 16.9578 0.862024 16.9504 0.749731 16.9652C0.637437 16.98 0.529173 17.0169 0.431135 17.0736ZM11.0014 6.06355C14.8051 6.06355 17.9 9.15841 17.9 12.9621C17.9 16.7658 14.8051 19.8606 11.0014 19.8606C7.19774 19.8606 4.10288 16.7658 4.10288 12.9621C4.10288 9.15841 7.19774 6.06355 11.0014 6.06355Z" fill="#0D257B"/>
</svg>
