<svg width="24" height="20" viewBox="0 0 24 20" fill="none" xmlns="http://www.w3.org/2000/svg">
<path d="M7.35275 7.38139C6.78935 7.38139 6.32145 7.83975 6.32145 8.41269C6.32145 8.97608 6.78935 9.44398 7.35275 9.44398C7.92569 9.44398 8.38404 8.97608 8.38404 8.41269C8.38404 7.83975 7.92569 7.38139 7.35275 7.38139ZM7.35275 7.38139C6.78935 7.38139 6.32145 7.83975 6.32145 8.41269C6.32145 8.97608 6.78935 9.44398 7.35275 9.44398C7.92569 9.44398 8.38404 8.97608 8.38404 8.41269C8.38404 7.83975 7.92569 7.38139 7.35275 7.38139ZM7.35275 7.38139C6.78935 7.38139 6.32145 7.83975 6.32145 8.41269C6.32145 8.97608 6.78935 9.44398 7.35275 9.44398C7.92569 9.44398 8.38404 8.97608 8.38404 8.41269C8.38404 7.83975 7.92569 7.38139 7.35275 7.38139ZM7.35275 7.38139C6.78935 7.38139 6.32145 7.83975 6.32145 8.41269C6.32145 8.97608 6.78935 9.44398 7.35275 9.44398C7.92569 9.44398 8.38404 8.97608 8.38404 8.41269C8.38404 7.83975 7.92569 7.38139 7.35275 7.38139ZM22.5548 4.05833C22.5166 3.96284 22.4784 3.86735 22.4402 3.75277C22.3543 3.50449 22.2683 3.23712 22.106 2.99839C21.5903 2.20582 20.8073 1.80477 19.7951 1.80477H15.3453C15.3166 0.744824 14.5623 0 13.5023 0H9.09067C8.03073 0 7.27635 0.744824 7.24771 1.80477H2.9029C1.40371 1.80477 0.420157 2.56869 0.0572941 4.02014L0 16.5771L0.019098 16.663C0.114588 17.0737 0.286471 17.6084 0.697079 18.0572C1.21273 18.6206 1.85251 18.9262 2.59733 18.9548H15.4217C14.906 18.1718 14.5718 17.2455 14.5241 16.2429H13.636C13.1013 16.2429 12.7384 15.9469 12.6811 15.479C12.6429 15.2116 12.7193 14.9633 12.8816 14.7723C13.0631 14.5814 13.3113 14.4668 13.6074 14.4668H14.7055C14.8869 13.7888 15.202 13.1681 15.6222 12.6238H13.6074C13.3495 12.6238 13.1204 12.5474 12.9485 12.3851C12.767 12.2227 12.6716 11.9936 12.6716 11.7357C12.6716 11.2678 13.0058 10.8954 13.4737 10.8668C13.6074 10.8477 13.741 10.8477 13.8652 10.8572H17.9426C18.5633 10.5994 19.2413 10.4657 19.9575 10.4657C20.9124 10.4657 21.8004 10.7045 22.5834 11.1342V4.18247L22.5548 4.05833ZM7.35275 5.63392C8.89014 5.63392 10.1315 6.8753 10.1315 8.41269C10.1315 9.94053 8.89014 11.1915 7.35275 11.1915C5.8249 11.1915 4.57398 9.94053 4.57398 8.41269C4.57398 6.8753 5.8249 5.63392 7.35275 5.63392ZM10.7904 16.3384C10.3034 16.3384 9.91188 15.9469 9.91188 15.4694C9.91188 14.6387 9.43443 13.8747 8.68006 13.5119L7.99253 13.3018C7.93524 13.3018 7.83975 13.2922 7.73471 13.2922H6.97079C6.77026 13.2922 6.56973 13.3209 6.3692 13.3782L5.68167 13.7124C5.14692 14.1039 4.80316 14.7628 4.80316 15.4694C4.80316 15.9469 4.41165 16.3384 3.92465 16.3384C3.4472 16.3384 3.05569 15.9469 3.05569 15.4694C3.05569 13.3018 4.81271 11.5448 6.97079 11.5448H7.73471C9.90234 11.5448 11.6594 13.3018 11.6594 15.4694C11.6594 15.9469 11.2678 16.3384 10.7904 16.3384ZM9.02382 3.60953C9.02382 3.59998 9.01428 3.57133 9.01428 3.51404V1.88116C9.01428 1.82386 9.02382 1.78567 9.02382 1.78567C9.03337 1.77612 9.06202 1.77612 9.11932 1.77612H13.5596C13.5692 1.79522 13.5692 1.82386 13.5692 1.88116V3.60953H9.02382ZM19.2222 8.96653C19.0789 9.00473 18.9453 9.01428 18.8402 9.01428H13.7124C13.5978 9.01428 13.4546 9.00473 13.3113 8.96653C12.9294 8.86149 12.6716 8.51773 12.6716 8.11667C12.6716 7.70606 12.9294 7.37185 13.3209 7.27635C13.4641 7.23816 13.6074 7.22861 13.7028 7.22861H18.8498C18.993 7.22861 19.1171 7.24771 19.2317 7.27635C19.6137 7.38139 19.8715 7.73471 19.8715 8.12622C19.862 8.52728 19.6041 8.87104 19.2222 8.96653ZM7.35275 9.44398C7.92569 9.44398 8.38404 8.97608 8.38404 8.41269C8.38404 7.83975 7.92569 7.38139 7.35275 7.38139C6.78935 7.38139 6.32145 7.83975 6.32145 8.41269C6.32145 8.97608 6.78935 9.44398 7.35275 9.44398ZM7.35275 7.38139C6.78935 7.38139 6.32145 7.83975 6.32145 8.41269C6.32145 8.97608 6.78935 9.44398 7.35275 9.44398C7.92569 9.44398 8.38404 8.97608 8.38404 8.41269C8.38404 7.83975 7.92569 7.38139 7.35275 7.38139ZM7.35275 7.38139C6.78935 7.38139 6.32145 7.83975 6.32145 8.41269C6.32145 8.97608 6.78935 9.44398 7.35275 9.44398C7.92569 9.44398 8.38404 8.97608 8.38404 8.41269C8.38404 7.83975 7.92569 7.38139 7.35275 7.38139ZM7.35275 7.38139C6.78935 7.38139 6.32145 7.83975 6.32145 8.41269C6.32145 8.97608 6.78935 9.44398 7.35275 9.44398C7.92569 9.44398 8.38404 8.97608 8.38404 8.41269C8.38404 7.83975 7.92569 7.38139 7.35275 7.38139ZM7.35275 7.38139C6.78935 7.38139 6.32145 7.83975 6.32145 8.41269C6.32145 8.97608 6.78935 9.44398 7.35275 9.44398C7.92569 9.44398 8.38404 8.97608 8.38404 8.41269C8.38404 7.83975 7.92569 7.38139 7.35275 7.38139Z" fill="#0D257B"/>
<path d="M16.739 16.2437C16.949 16.2437 17.1496 16.1577 17.2928 16.0145C17.4265 15.8808 17.5124 15.7185 17.5315 15.5371C17.5602 15.3747 17.5984 15.2124 17.6557 15.0596C18.0472 13.9901 19.174 13.3121 20.3007 13.484C20.5204 13.5127 20.74 13.5795 20.9405 13.6654C21.036 13.7132 21.1315 13.7609 21.227 13.8182L21.1602 13.8851C21.036 14.0092 20.9692 14.1715 20.9692 14.353C20.9692 14.5249 21.036 14.6872 21.1602 14.8113C21.2843 14.9355 21.4466 15.0023 21.6185 15.0023H23.0318C23.3946 15.0023 23.6906 14.7063 23.6906 14.3434V12.9302C23.6906 12.7583 23.6238 12.5864 23.4997 12.4718C23.2514 12.2235 22.8217 12.2235 22.5734 12.4718L22.392 12.6532C22.2965 12.5769 22.1914 12.51 22.0864 12.4432C21.8095 12.2713 21.5039 12.1281 21.1888 12.023C20.5968 11.832 19.9474 11.7843 19.3363 11.8798C19.0116 11.9275 18.6965 12.0135 18.4005 12.1376C17.8275 12.3763 17.331 12.7296 16.9299 13.188C16.5098 13.6654 16.2042 14.2384 16.0419 14.8495C16.0037 15.0023 15.9655 15.1551 15.9464 15.2983C15.9082 15.5657 15.9941 15.8331 16.1851 16.0145C16.2997 16.1291 16.4525 16.2055 16.6244 16.2341C16.653 16.2341 16.7008 16.2437 16.739 16.2437Z" fill="#0D257B"/>
<path d="M23.2989 15.5564C23.2607 15.5469 23.2225 15.5469 23.1652 15.5469C22.7642 15.5469 22.4204 15.8524 22.3727 16.2535C22.2008 17.4376 21.1599 18.3352 19.9663 18.3352C19.8517 18.3352 19.7276 18.3256 19.613 18.3065C19.2788 18.2588 18.9732 18.1442 18.6867 17.9723L18.7631 17.8959C18.8968 17.7622 18.9637 17.5808 18.9541 17.3994C18.9446 17.2371 18.8777 17.0843 18.7631 16.9697C18.639 16.8455 18.4767 16.7787 18.3048 16.7787H16.8915C16.5478 16.7787 16.2613 17.0461 16.2422 17.3803V18.8508C16.2422 19.0227 16.309 19.1946 16.4332 19.3092C16.6814 19.5575 17.1111 19.5575 17.3594 19.3092L17.5409 19.1278C18.2379 19.653 19.0973 19.949 19.9854 19.949C21.1408 19.949 22.239 19.4524 23.0124 18.593C23.5281 18.0105 23.8719 17.2943 23.996 16.4922C24.0342 16.053 23.7382 15.6328 23.2989 15.5564Z" fill="#0D257B"/>
</svg>
