<svg width="26" height="22" viewBox="0 0 26 22" fill="none" xmlns="http://www.w3.org/2000/svg">
<path d="M2.77671 17.1145V5.64236C2.77671 4.94505 3.13014 4.59162 3.82745 4.58207H8.25011C8.25011 4.60117 8.25011 4.62028 8.25011 4.63938C8.27877 5.63281 9.02384 6.37788 9.98861 6.38743C11.517 6.39698 13.0644 6.39698 14.5928 6.38743C15.5575 6.37788 16.3026 5.63281 16.3408 4.64893C16.3408 4.62983 16.3408 4.61073 16.3408 4.59162H20.7635C21.4608 4.59162 21.8142 4.94505 21.8142 5.65191V12.2716L22.139 12.3575C22.225 12.3767 22.3014 12.4053 22.3873 12.434C22.5879 12.5008 22.779 12.5772 22.9605 12.6632L23.5814 12.9593V5.18386L23.5527 5.05968C23.5145 4.96416 23.4858 4.86863 23.4381 4.75401C23.3521 4.50565 23.2566 4.23819 23.1038 3.99939C22.5879 3.20655 21.8047 2.80536 20.7921 2.80536H16.3408C16.3122 1.74507 15.5575 1.00955 14.4972 1C13.0358 1 11.5456 1 10.0841 1C9.02384 1 8.26921 1.74507 8.24056 2.80536H3.90386C2.40417 2.80536 1.4203 3.56954 1.05731 5.02147L1 17.5921L1.00955 17.6686C1.10507 18.0889 1.27701 18.6238 1.68776 19.0727C2.20358 19.6363 2.85312 19.9324 3.59819 19.9706C3.67461 19.9706 3.74148 19.9706 3.82745 19.9706H16.6083V18.1939H3.8561C3.13969 18.1939 2.77671 17.8309 2.77671 17.1145ZM11.068 2.77671H14.4686C14.5259 2.77671 14.5546 2.77671 14.5641 2.77671C14.5641 2.79581 14.5737 2.82447 14.5737 2.88178C14.5737 3.42625 14.5737 3.97073 14.5737 4.5152C14.5737 4.57252 14.5641 4.60117 14.5737 4.61073C14.5641 4.61073 14.5354 4.62028 14.4877 4.62028H10.1128C10.0746 4.62028 10.0459 4.62028 10.0364 4.62028H10.0268C10.0268 4.61073 10.0173 4.58207 10.0173 4.52476C10.0173 3.98028 10.0173 3.43581 10.0173 2.89133C10.0173 2.82447 10.0268 2.79581 10.0173 2.78626C10.0364 2.78626 10.065 2.77671 10.1223 2.77671H11.068Z" fill="#0D257B" stroke="#0D257B" stroke-width="0.25"/>
<path d="M20.8684 9.12837C20.8684 8.72718 20.6105 8.3833 20.2284 8.27823C20.1137 8.24957 19.9896 8.23047 19.8367 8.23047C18.1651 8.23047 16.4266 8.23047 14.6881 8.23047C14.5926 8.23047 14.4493 8.23047 14.306 8.26868C13.9144 8.37375 13.666 8.69853 13.666 9.10927C13.666 9.52001 13.9144 9.86389 14.2965 9.95941C14.4397 9.99762 14.583 10.0072 14.6977 10.0072H16.0827H19.8272C19.9322 10.0072 20.066 9.99762 20.2093 9.95941C20.6105 9.87344 20.8684 9.52957 20.8684 9.12837Z" fill="#0D257B" stroke="#0D257B" stroke-width="0.25"/>
<path d="M17.6973 13.5119C18.0411 13.1776 18.4328 12.9006 18.8626 12.6904L20.5343 11.8594H14.8698C14.7456 11.8594 14.6119 11.8594 14.4782 11.8689C14.0197 11.9071 13.6758 12.2701 13.6758 12.7477C13.6758 13.0056 13.7713 13.2349 13.9528 13.3973C14.1247 13.5501 14.354 13.6361 14.6119 13.6361H15.8346H17.5731L17.6973 13.5119Z" fill="#0D257B" stroke="#0D257B" stroke-width="0.25"/>
<path d="M16.4461 15.4727H14.612C14.3159 15.4727 14.058 15.5873 13.8861 15.7783C13.7237 15.9694 13.6473 16.2177 13.6855 16.4756C13.7428 16.9437 14.1058 17.2398 14.6407 17.2398H15.5386H16.4938L16.341 16.6858C16.2932 16.5329 16.2837 16.361 16.3123 16.1986C16.3219 16.1318 16.3314 16.0553 16.3505 15.9789L16.4461 15.4727Z" fill="#0D257B" stroke="#0D257B" stroke-width="0.25"/>
<path d="M17.7451 17.249C17.9552 17.249 18.1558 17.1631 18.2991 17.0198C18.4328 16.8861 18.5188 16.7237 18.5379 16.5422C18.5666 16.3798 18.6048 16.2174 18.6621 16.0646C19.0537 14.9947 20.1809 14.3165 21.308 14.4885C21.5277 14.5171 21.7474 14.584 21.948 14.67C22.0436 14.7177 22.1391 14.7655 22.2346 14.8228L22.1677 14.8897C22.0436 15.0138 21.9767 15.1762 21.9767 15.3577C21.9767 15.5297 22.0436 15.692 22.1677 15.8162C22.2919 15.9404 22.4543 16.0073 22.6262 16.0073H24.04C24.403 16.0073 24.6991 15.7111 24.6991 15.3482V13.9344C24.6991 13.7625 24.6322 13.5906 24.508 13.4759C24.2597 13.2276 23.8298 13.2276 23.5815 13.4759L23.4 13.6574C23.3045 13.581 23.1994 13.5141 23.0943 13.4473C22.8173 13.2753 22.5116 13.1321 22.1964 13.027C21.6042 12.8359 20.9546 12.7882 20.3433 12.8837C20.0185 12.9315 19.7033 13.0174 19.4072 13.1416C18.834 13.3804 18.3373 13.7338 17.9361 14.1923C17.5158 14.67 17.2102 15.2431 17.0478 15.8544C17.0096 16.0073 16.9714 16.1601 16.9522 16.3034C16.914 16.5708 17 16.8383 17.1911 17.0198C17.3057 17.1344 17.4585 17.2108 17.6305 17.2395C17.6591 17.249 17.6973 17.249 17.7451 17.249Z" fill="#0D257B" stroke="#0D257B" stroke-width="0.25"/>
<path d="M24.2973 16.5603C24.2591 16.5508 24.2209 16.5508 24.1636 16.5508C23.7624 16.5508 23.4185 16.8565 23.3708 17.2576C23.1988 18.4421 22.1577 19.34 20.9636 19.34C20.849 19.34 20.7248 19.3305 20.6102 19.3114C20.2759 19.2636 19.9702 19.149 19.6836 18.977L19.7601 18.9006C19.8938 18.7669 19.9607 18.5854 19.9511 18.4039C19.9416 18.2415 19.8747 18.0887 19.7601 17.9741C19.6359 17.8499 19.4735 17.783 19.3016 17.783H17.8878C17.544 17.783 17.2574 18.0505 17.2383 18.3848V19.8558C17.2383 20.0278 17.3051 20.1997 17.4293 20.3143C17.6777 20.5627 18.1075 20.5627 18.3559 20.3143L18.5374 20.1329C19.2347 20.6582 20.0944 20.9543 20.9827 20.9543C22.1386 20.9543 23.2371 20.4576 24.0108 19.5979C24.5266 19.0152 24.8705 18.2988 24.9947 17.4964C25.0424 17.057 24.7367 16.6368 24.2973 16.5603Z" fill="#0D257B" stroke="#0D257B" stroke-width="0.25"/>
<path d="M4.04785 16.4728C4.04785 16.9504 4.43949 17.3516 4.92665 17.3516C5.40426 17.3516 5.80545 16.96 5.80545 16.4728C5.80545 15.7755 6.14933 15.1069 6.69381 14.7152L7.38156 14.3809C7.57261 14.3236 7.78276 14.2949 7.98335 14.2949H8.74753C8.84305 14.2949 8.94812 14.3045 9.00544 14.3045L9.69319 14.5146C10.4383 14.8776 10.9254 15.6418 10.9254 16.4728C10.9254 16.9504 11.3171 17.3516 11.8042 17.3516C12.2818 17.3516 12.683 16.96 12.683 16.4728C12.683 14.3045 10.9254 12.5469 8.75708 12.5469H7.9738C5.80545 12.5469 4.04785 14.314 4.04785 16.4728Z" fill="#0D257B" stroke="#0D257B" stroke-width="0.25"/>
<path d="M11.1346 9.4164C11.1346 7.88806 9.88323 6.63672 8.35488 6.63672C6.82653 6.63672 5.5752 7.88806 5.5752 9.4164C5.5752 10.9448 6.82653 12.1961 8.35488 12.1961C9.88323 12.1961 11.1346 10.9543 11.1346 9.4164ZM7.32325 9.4164C7.32325 8.84327 7.78175 8.38477 8.35488 8.38477C8.92801 8.38477 9.38652 8.84327 9.38652 9.4164C9.38652 9.98954 8.92801 10.448 8.35488 10.448C7.78175 10.448 7.32325 9.98954 7.32325 9.4164Z" fill="#0D257B" stroke="#0D257B" stroke-width="0.25"/>
</svg>
