<svg width="26" height="26" viewBox="0 0 26 26" fill="none" xmlns="http://www.w3.org/2000/svg">
<path d="M23.5471 1C23.7928 1.11188 24.0615 1.19179 24.2803 1.34362C24.7588 1.67625 24.9985 2.15672 24.9985 2.74306C25.0005 6.24118 25.0005 9.74029 24.9985 13.2384C24.9975 14.2123 24.2523 14.9985 23.2774 15.0034C20.7632 15.0174 18.248 15.0164 15.7337 15.0044C14.7608 14.9995 13.9967 14.2253 13.9937 13.2514C13.9857 9.75328 13.9877 6.25416 13.9927 2.75605C13.9937 1.92797 14.5291 1.2657 15.3332 1.04795C15.3691 1.03796 15.4021 1.01698 15.4361 1.001C18.1411 1 20.8441 1 23.5471 1Z" fill="#0D257B"/>
<path d="M23.5012 2.89689C23.5012 4.599 23.5012 6.30111 23.5012 8.00322C23.5012 9.69734 23.5012 11.3915 23.5012 13.0846C23.5012 13.4332 23.4412 13.4951 23.0936 13.4951C20.6963 13.4961 18.2999 13.4961 15.9025 13.4951C15.5619 13.4951 15.505 13.4392 15.505 13.1006C15.504 9.69634 15.504 6.29212 15.505 2.8879C15.505 2.56127 15.5719 2.49933 15.9095 2.49933M23.5471 1C23.7928 1.11188 24.0615 1.19179 24.2803 1.34362C24.7588 1.67625 24.9985 2.15672 24.9985 2.74306C25.0005 6.24118 25.0005 9.74029 24.9985 13.2384C24.9975 14.2123 24.2523 14.9985 23.2774 15.0034C20.7632 15.0174 18.248 15.0164 15.7337 15.0044C14.7608 14.9995 13.9967 14.2253 13.9937 13.2514C13.9857 9.75328 13.9877 6.25416 13.9927 2.75605C13.9937 1.92797 14.5291 1.2657 15.3332 1.04795C15.3691 1.03796 15.4021 1.01698 15.4361 1.001C18.1411 1 20.8441 1 23.5471 1Z" stroke="#0D257B" stroke-width="0.5"/>
<path d="M1 12.4371C1.01498 12.4102 1.03496 12.3852 1.04295 12.3572C1.27869 11.4992 1.93397 10.9927 2.82598 10.9917C5.1684 10.9897 7.51081 10.9897 9.85422 10.9917C10.072 10.9917 10.2937 10.9877 10.5075 11.0227C11.4035 11.1695 12.0038 11.8718 12.0088 12.7807C12.0158 13.9674 12.0108 15.1541 12.0108 16.3418C12.0108 18.6223 12.0128 20.9017 12.0098 23.1822C12.0088 24.0952 11.4435 24.7944 10.5674 24.9722C10.4386 24.9982 10.3037 24.9982 10.1719 24.9982C7.72757 24.9992 5.28327 24.9992 2.83997 24.9992C1.91899 24.9992 1.29867 24.5257 1.04295 23.6307C1.03196 23.6017 1.01398 23.5748 1 23.5468C1 19.8439 1 16.141 1 12.4371Z" fill="#0D257B"/>
<path d="M10.4945 12.9096C10.4955 16.3068 10.4955 19.7031 10.4945 23.0993C10.4945 23.4359 10.4306 23.4998 10.1009 23.4998C7.6966 23.5008 5.29126 23.5008 2.88692 23.4998C2.57826 23.4998 2.49934 23.4209 2.49934 23.1143C2.49934 21.4052 2.49934 19.6951 2.49934 17.985C2.49934 16.2988 2.49934 14.6117 2.49735 12.9246C2.49735 12.559 2.55229 12.5031 2.91688 12.5031M1 12.4371C1.01498 12.4102 1.03496 12.3852 1.04295 12.3572C1.27869 11.4992 1.93397 10.9927 2.82598 10.9917C5.1684 10.9897 7.51081 10.9897 9.85422 10.9917C10.072 10.9917 10.2937 10.9877 10.5075 11.0227C11.4035 11.1695 12.0038 11.8718 12.0088 12.7807C12.0158 13.9674 12.0108 15.1541 12.0108 16.3418C12.0108 18.6223 12.0128 20.9017 12.0098 23.1822C12.0088 24.0952 11.4435 24.7944 10.5674 24.9722C10.4386 24.9982 10.3037 24.9982 10.1719 24.9982C7.72757 24.9992 5.28327 24.9992 2.83997 24.9992C1.91899 24.9992 1.29867 24.5257 1.04295 23.6307C1.03196 23.6017 1.01398 23.5748 1 23.5468C1 19.8439 1 16.141 1 12.4371Z" stroke="#0D257B" stroke-width="0.5"/>
<path d="M10.5624 1C10.6044 1.01698 10.6453 1.03896 10.6883 1.05094C11.4624 1.2657 11.9979 1.92697 12.0048 2.73008C12.0168 4.2444 12.0198 5.75772 12.0038 7.27203C11.9939 8.23397 11.2327 8.99912 10.2698 9.00411C7.75654 9.0171 5.24431 9.0141 2.73109 9.00511C1.92897 9.00211 1.26471 8.46171 1.05094 7.68857C1.03896 7.64562 1.01698 7.60467 1 7.56271C1 5.8596 1 4.15649 1 2.45339C1.10289 2.21965 1.1808 1.97092 1.31365 1.75616C1.57337 1.33663 1.9929 1.13085 2.4524 1C5.15641 1 7.85943 1 10.5624 1Z" fill="#0D257B"/>
<path d="M2.87193 2.49933C2.58025 2.49933 2.49934 2.58124 2.49934 2.87692C2.49835 4.28935 2.49835 5.70278 2.49934 7.11521C2.49934 7.42087 2.56827 7.49479 2.86594 7.49579C5.28527 7.49679 7.70559 7.49679 10.1249 7.49579C10.4326 7.49579 10.4945 7.43186 10.4955 7.1212C10.4975 5.70877 10.4965 4.29534 10.4955 2.88291C10.4955 2.56726 10.4256 2.50033 10.1079 2.50033M10.5624 1C10.6044 1.01698 10.6453 1.03896 10.6883 1.05094C11.4624 1.2657 11.9979 1.92697 12.0048 2.73008C12.0168 4.2444 12.0198 5.75772 12.0038 7.27203C11.9939 8.23397 11.2327 8.99912 10.2698 9.00411C7.75654 9.0171 5.24431 9.0141 2.73109 9.00511C1.92897 9.00211 1.26471 8.46171 1.05094 7.68857C1.03896 7.64562 1.01698 7.60467 1 7.56271C1 5.8596 1 4.15649 1 2.45339C1.10289 2.21965 1.1808 1.97092 1.31365 1.75616C1.57337 1.33663 1.9929 1.13085 2.4524 1C5.15641 1 7.85943 1 10.5624 1Z" stroke="#0D257B" stroke-width="0.5"/>
<path d="M19.4843 24.9988C18.2577 24.9988 17.0321 24.9998 15.8054 24.9988C14.7626 24.9978 13.9964 24.2436 13.9924 23.2038C13.9864 21.7354 13.9874 20.267 13.9924 18.7987C13.9964 17.7608 14.7616 16.9937 15.8014 16.9917C18.2697 16.9877 20.737 16.9867 23.2052 16.9917C24.2471 16.9937 24.9983 17.7608 24.9983 18.8056C24.9993 20.274 25.0003 21.7424 24.9983 23.2108C24.9973 24.2416 24.2411 24.9968 23.2092 24.9978C21.9676 25.0008 20.726 24.9988 19.4843 24.9988Z" fill="#0D257B"/>
<path d="M15.9033 18.504C18.2997 18.503 20.696 18.503 23.0924 18.504C23.441 18.504 23.5009 18.5659 23.5009 18.9135C23.5009 20.311 23.5019 21.7074 23.5009 23.1049C23.4999 23.4255 23.424 23.5004 23.0984 23.5004C21.8967 23.5004 20.694 23.5004 19.4923 23.5004C18.2987 23.5004 17.104 23.5014 15.9093 23.5004C15.5637 23.5004 15.5037 23.4395 15.5037 23.0879M19.4843 24.9988C18.2577 24.9988 17.0321 24.9998 15.8054 24.9988C14.7626 24.9978 13.9964 24.2436 13.9924 23.2038C13.9864 21.7354 13.9874 20.267 13.9924 18.7987C13.9964 17.7608 14.7616 16.9937 15.8014 16.9917C18.2697 16.9877 20.737 16.9867 23.2052 16.9917C24.2471 16.9937 24.9983 17.7608 24.9983 18.8056C24.9993 20.274 25.0003 21.7424 24.9983 23.2108C24.9973 24.2416 24.2411 24.9968 23.2092 24.9978C21.9676 25.0008 20.726 24.9988 19.4843 24.9988Z" stroke="#0D257B" stroke-width="0.5"/>
</svg>
