<svg width="26" height="26" viewBox="0 0 26 26" fill="none" xmlns="http://www.w3.org/2000/svg">
<path d="M23.547 1C23.7928 1.11188 24.0615 1.19179 24.2802 1.34362C24.7587 1.67625 24.9984 2.15672 24.9984 2.74306C25.0004 6.24118 25.0004 9.74029 24.9984 13.2384C24.9974 14.2123 24.2523 14.9985 23.2773 15.0034C20.7631 15.0174 18.2479 15.0164 15.7337 15.0044C14.7607 14.9995 13.9966 14.2253 13.9936 13.2514C13.9856 9.75328 13.9876 6.25416 13.9926 2.75605C13.9936 1.92797 14.529 1.2657 15.3331 1.04795C15.3691 1.03796 15.402 1.01698 15.436 1.001C18.141 1 20.844 1 23.547 1ZM23.5011 8.00322C23.5011 6.30111 23.5011 4.599 23.5011 2.89689C23.5011 2.57425 23.4262 2.49933 23.1005 2.49933C20.7032 2.49933 18.3068 2.49933 15.9095 2.49933C15.5719 2.49933 15.5049 2.56127 15.5049 2.8879C15.5039 6.29212 15.5039 9.69634 15.5049 13.1006C15.5049 13.4392 15.5619 13.4951 15.9025 13.4951C18.2998 13.4961 20.6962 13.4961 23.0935 13.4951C23.4412 13.4951 23.5011 13.4332 23.5011 13.0846C23.5011 11.3915 23.5011 9.69734 23.5011 8.00322Z" fill="#0D257B" stroke="#0D257B" stroke-width="0.5"/>
<path d="M1 12.4371C1.01498 12.4102 1.03496 12.3852 1.04295 12.3572C1.27869 11.4992 1.93397 10.9927 2.82598 10.9917C5.1684 10.9897 7.51081 10.9897 9.85422 10.9917C10.072 10.9917 10.2937 10.9877 10.5075 11.0227C11.4035 11.1695 12.0038 11.8718 12.0088 12.7807C12.0158 13.9674 12.0108 15.1541 12.0108 16.3418C12.0108 18.6223 12.0128 20.9017 12.0098 23.1822C12.0088 24.0952 11.4435 24.7944 10.5674 24.9722C10.4386 24.9982 10.3037 24.9982 10.1719 24.9982C7.72757 24.9992 5.28327 24.9992 2.83997 24.9992C1.91899 24.9992 1.29867 24.5257 1.04295 23.6307C1.03196 23.6017 1.01398 23.5748 1 23.5468C1 19.8439 1 16.141 1 12.4371ZM2.49934 17.985C2.49934 19.6951 2.49934 21.4052 2.49934 23.1143C2.49934 23.4209 2.57826 23.4998 2.88692 23.4998C5.29126 23.5008 7.6966 23.5008 10.1009 23.4998C10.4306 23.4998 10.4945 23.4359 10.4945 23.0993C10.4955 19.7031 10.4955 16.3068 10.4945 12.9096C10.4945 12.556 10.4406 12.5031 10.085 12.5031C7.6956 12.5021 5.30624 12.5021 2.91688 12.5031C2.55229 12.5031 2.49735 12.559 2.49735 12.9246C2.49934 14.6117 2.49934 16.2988 2.49934 17.985Z" fill="#0D257B" stroke="#0D257B" stroke-width="0.5"/>
<path d="M10.5624 1C10.6044 1.01698 10.6453 1.03896 10.6883 1.05094C11.4624 1.2657 11.9979 1.92697 12.0048 2.73008C12.0168 4.2444 12.0198 5.75772 12.0038 7.27203C11.9939 8.23397 11.2327 8.99912 10.2698 9.00411C7.75654 9.0171 5.24431 9.0141 2.73109 9.00511C1.92897 9.00211 1.26471 8.46171 1.05094 7.68857C1.03896 7.64562 1.01698 7.60466 1 7.56271C1 5.8596 1 4.15649 1 2.45339C1.10289 2.21965 1.1808 1.97092 1.31365 1.75616C1.57337 1.33663 1.9929 1.13085 2.4524 1C5.15641 1 7.85942 1 10.5624 1ZM6.50192 2.49933C5.29226 2.49933 4.0826 2.49834 2.87193 2.49933C2.58025 2.49933 2.49934 2.58124 2.49934 2.87692C2.49835 4.28935 2.49835 5.70278 2.49934 7.11521C2.49934 7.42087 2.56827 7.49479 2.86594 7.49579C5.28527 7.49679 7.70559 7.49679 10.1249 7.49579C10.4326 7.49579 10.4945 7.43186 10.4955 7.1212C10.4975 5.70877 10.4965 4.29534 10.4955 2.88291C10.4955 2.56726 10.4256 2.50033 10.1079 2.50033C8.90627 2.49834 7.7036 2.49933 6.50192 2.49933Z" fill="#0D257B" stroke="#0D257B" stroke-width="0.5"/>
<path d="M19.4846 24.9988C18.2579 24.9988 17.0323 24.9998 15.8057 24.9988C14.7628 24.9978 13.9966 24.2436 13.9927 23.2038C13.9867 21.7354 13.9877 20.267 13.9927 18.7987C13.9966 17.7608 14.7618 16.9937 15.8017 16.9917C18.2699 16.9877 20.7372 16.9867 23.2055 16.9917C24.2473 16.9937 24.9985 17.7608 24.9985 18.8056C24.9995 20.274 25.0005 21.7424 24.9985 23.2108C24.9975 24.2416 24.2413 24.9968 23.2095 24.9978C21.9678 25.0008 20.7262 24.9988 19.4846 24.9988ZM19.4926 23.5004C20.6943 23.5004 21.8969 23.5004 23.0986 23.5004C23.4242 23.5004 23.5002 23.4255 23.5012 23.1049C23.5022 21.7074 23.5012 20.311 23.5012 18.9135C23.5012 18.5659 23.4412 18.504 23.0926 18.504C20.6962 18.503 18.2999 18.503 15.9035 18.504C15.5619 18.504 15.505 18.5599 15.504 18.8965C15.503 20.294 15.503 21.6904 15.504 23.0879C15.504 23.4395 15.5639 23.5004 15.9095 23.5004C17.1042 23.5014 18.2989 23.5004 19.4926 23.5004Z" fill="#0D257B" stroke="#0D257B" stroke-width="0.5"/>
</svg>
