<svg width="17" height="8" viewBox="0 0 17 8" fill="none" xmlns="http://www.w3.org/2000/svg">
<path d="M-0.000299454 1.11975C0.0716515 1.42528 0.293347 1.6448 0.540226 1.8581C2.77562 3.78785 5.00742 5.72072 7.23877 7.65398C7.58997 7.95835 7.99829 8.08602 8.47631 7.93889C8.64899 7.88596 8.81807 7.78787 8.94848 7.67539C11.2527 5.68919 13.5519 3.69794 15.8503 1.7063C16.1988 1.40465 16.3175 1.04268 16.143 0.639058C15.9798 0.259957 15.6443 0.0447183 15.1771 0.00501777C14.7998 -0.0272875 14.4891 0.103491 14.226 0.332352C13.6972 0.792411 13.1661 1.25052 12.6364 1.70941C11.1731 2.97633 9.7098 4.24285 8.24652 5.51015C8.2056 5.54557 8.17097 5.58605 8.08283 5.67557C8.03741 5.60629 8.01628 5.54946 7.97311 5.51171C5.98504 3.78785 3.99472 2.06633 2.00531 0.34325C1.66444 0.0482212 1.26917 -0.0782754 0.796098 0.0497781C0.423307 0.150586 0.17643 0.367771 0.0568123 0.691214C0.0379257 0.74298 0.018589 0.794357 -0.000747681 0.845734C-0.000297546 0.937201 -0.000299454 1.02828 -0.000299454 1.11975Z" fill="#323232"/>
</svg>
