<svg width="105" height="137" viewBox="0 0 105 137" fill="none" xmlns="http://www.w3.org/2000/svg">
<path d="M28.5412 102.224L4.52188 115.325C3.14029 116.096 1.84757 117.016 0.666992 118.069C15.1582 130.317 33.5257 137.025 52.4999 137C72.1054 137 90.0675 129.983 104.032 118.336C102.739 117.224 101.317 116.272 99.7974 115.499L74.0769 102.64C72.4476 101.825 71.0773 100.573 70.1196 99.0236C69.1619 97.4741 68.6546 95.6885 68.6545 93.8669V83.7756C69.3775 82.9523 70.2038 81.8952 71.0878 80.6467C74.5582 75.7147 77.2545 70.2813 79.0831 64.5345C82.3821 63.5169 84.8122 60.4701 84.8122 56.8491V46.0773C84.8122 43.7078 83.7581 41.5905 82.1208 40.1081V24.5367C82.1208 24.5367 85.3195 0.304688 52.5029 0.304688C19.6862 0.304688 22.885 24.5367 22.885 24.5367V40.1081C22.0423 40.8582 21.3671 41.7775 20.9034 42.806C20.4396 43.8344 20.1978 44.9491 20.1936 46.0773V56.8491C20.1936 59.6863 21.6851 62.1833 23.9178 63.6263C26.6092 75.3428 33.6568 83.7756 33.6568 83.7756V93.6178C33.6545 95.3793 33.1784 97.1077 32.2784 98.6218C31.3783 100.136 30.0875 101.38 28.5412 102.224Z" fill="white"/>
</svg>
