<svg width="12" height="14" viewBox="0 0 12 14" fill="none" xmlns="http://www.w3.org/2000/svg">
<path d="M5.99988 7.04988C7.68194 7.04988 9.04986 5.68198 9.04986 3.99994C9.04986 2.31791 7.68217 0.95 5.99988 0.95C4.31759 0.95 2.94991 2.31791 2.94991 3.99994C2.94991 5.68198 4.31783 7.04988 5.99988 7.04988ZM5.99988 2.05006C7.07523 2.05006 7.94979 2.92461 7.94979 3.99994C7.94979 5.07527 7.07523 5.94982 5.99988 5.94982C4.92454 5.94982 4.04998 5.07527 4.04998 3.99994C4.04998 2.92461 4.92454 2.05006 5.99988 2.05006ZM10.5001 13.0498C10.8038 13.0498 11.0497 12.8043 11.05 12.5003V12.4999C11.0497 9.99094 9.00904 7.95041 6.50003 7.95041H5.49996C2.99081 7.95041 0.95 9.99119 0.95 12.5003C0.95 12.8045 1.19576 13.05 1.49968 13.05C1.80361 13.05 2.0496 12.8043 2.0496 12.5001C2.0496 11.3655 2.6007 10.3568 3.44959 9.72737V10.6059C3.14977 10.7907 2.94967 11.122 2.94967 11.5003C2.94967 12.0805 3.41948 12.5503 3.99974 12.5503C4.58002 12.5503 5.04981 12.0803 5.04981 11.5003C5.04981 11.122 4.84995 10.7907 4.54989 10.6059V9.18321C4.85187 9.09638 5.17032 9.04977 5.49996 9.04977H6.50027C6.65245 9.04977 6.8026 9.06013 6.95019 9.07947V10.5509C6.36616 10.7733 5.95012 11.3383 5.95012 11.9997V12.4996C5.95012 12.8036 6.19609 13.0495 6.50003 13.0495C6.80396 13.0495 7.04995 12.8038 7.04995 12.4996V11.9997C7.04995 11.7515 7.25204 11.5498 7.50034 11.5498C7.7486 11.5498 7.95026 11.7512 7.95026 11.9997V12.4996C7.95026 12.8035 8.19599 13.0495 8.50018 13.0495C8.8041 13.0495 9.05009 12.8038 9.05009 12.4996V11.9997C9.05009 11.3383 8.63382 10.7733 8.05002 10.5509V9.41819C9.17618 9.98715 9.94993 11.1553 9.94993 12.4999C9.94993 12.8038 10.1962 13.0498 10.5001 13.0498Z" fill="#0D257B" stroke="#0D257B" stroke-width="0.1"/>
</svg>
