<svg width="14" height="14" viewBox="0 0 14 14" fill="none" xmlns="http://www.w3.org/2000/svg">
<path d="M10.9744 5.83313C11.1546 5.83313 11.3249 5.74973 11.4351 5.60727C11.5453 5.46482 11.5839 5.27943 11.5396 5.10498C11.3583 4.39515 10.9883 3.74629 10.4704 3.22841L8.43735 1.19545C7.66624 0.42464 6.64083 0 5.55007 0H2.91627C1.30842 0 0 1.30837 0 2.9167V11.0833C0 12.6914 1.30842 13.9997 2.91681 13.9997H4.66685C4.98897 13.9997 5.2501 13.7383 5.2501 13.4165C5.2501 13.0947 4.98869 12.8333 4.66685 12.8333H2.91681C1.95183 12.8333 1.16678 12.0482 1.16678 11.0833V2.9167C1.16678 1.95176 1.95183 1.16673 2.91681 1.16673H5.55062C5.64577 1.16673 5.74011 1.17138 5.83363 1.18013V4.08344C5.83363 5.04838 6.61868 5.8334 7.58366 5.8334L10.9744 5.83313ZM7.00014 4.08316V1.55118C7.22135 1.67833 7.42725 1.83582 7.61265 2.02121L9.6457 4.05418C9.8289 4.23738 9.98586 4.44382 10.1141 4.66667H7.58366C7.26209 4.66667 7.00014 4.40472 7.00014 4.08316ZM13.4881 6.92932C12.8267 6.26789 11.6738 6.26789 11.0129 6.92932L7.10049 10.8416C6.65997 11.2821 6.41688 11.8683 6.41688 12.4917V13.4168C6.41688 13.7389 6.67829 14 7.00014 14H7.92519C8.54892 14 9.13436 13.7566 9.57487 13.3164L13.4873 9.40415C13.8182 9.0733 14 8.63417 14 8.16632C14.0003 7.69876 13.8182 7.25935 13.4881 6.92932ZM12.6626 8.57893L8.74962 12.4912C8.52978 12.7116 8.23692 12.833 7.92465 12.833H7.58284V12.4912C7.58284 12.1798 7.70425 11.8869 7.92465 11.6663L11.8376 7.75399C12.0575 7.5336 12.4419 7.5336 12.6626 7.75399C12.7728 7.86364 12.8335 8.01019 12.8335 8.16632C12.8335 8.32273 12.7728 8.46874 12.6626 8.57893Z" fill="#323232"/>
</svg>
