<svg width="18" height="15" viewBox="0 0 18 15" fill="none" xmlns="http://www.w3.org/2000/svg">
<g clip-path="url(#clip0_1823_12774)">
<path d="M17.4498 5.59522C16.2869 3.59171 13.6421 0.230469 8.99965 0.230469C4.35723 0.230469 1.71235 3.59171 0.549816 5.59522C-0.183272 6.8496 -0.183272 8.43486 0.549816 9.68924C1.7127 11.6928 4.35758 15.054 9 15.054C13.6424 15.054 16.2873 11.6928 17.4502 9.68924C18.1833 8.43486 18.1833 6.8496 17.4498 5.59522ZM16.1717 8.85906C15.1729 10.577 12.9125 13.468 9 13.468C5.08751 13.468 2.82674 10.5767 1.82797 8.85906C1.39255 8.11328 1.39255 7.17156 1.82797 6.42578C2.82674 4.70779 5.08716 1.81685 8.99965 1.81685C12.9121 1.81685 15.1729 4.70444 16.1713 6.42578C16.6071 7.17119 16.6071 8.11328 16.1717 8.85906Z" fill="#0D257B"/>
<path d="M9.00068 3.67676C6.93039 3.67676 5.25195 5.45237 5.25195 7.64251C5.25195 9.83266 6.93039 11.6083 9.00068 11.6083C11.071 11.6083 12.7494 9.83266 12.7494 7.64251C12.7469 5.45348 11.0703 3.67936 9.00068 3.67676ZM9.00068 10.0219C7.75837 10.0219 6.75151 8.95675 6.75151 7.64251C6.75151 6.32828 7.75837 5.26313 9.00068 5.26313C10.243 5.26313 11.2498 6.32828 11.2498 7.64251C11.2498 8.95675 10.243 10.0219 9.00068 10.0219Z" fill="#0D257B"/>
</g>
<defs>
<clipPath id="clip0_1823_12774">
<rect width="18" height="14.8235" fill="white"/>
</clipPath>
</defs>
</svg>
