<svg width="40" height="40" viewBox="0 0 40 40" fill="none" xmlns="http://www.w3.org/2000/svg">
<circle cx="20" cy="20" r="20" fill="#F5C86F"/>
<path d="M19.684 11C19.8949 11 20.1058 11 20.3167 11C20.3261 11.007 20.3345 11.0188 20.3444 11.0197C20.9625 11.0897 21.4853 11.3692 21.9845 11.7266C22.7727 12.2907 23.6566 12.6378 24.612 12.797C25.2911 12.9107 25.8806 13.1972 26.3639 13.6927C26.82 14.1605 27.0943 14.7223 27.2009 15.3643C27.3728 16.4014 27.7654 17.344 28.3859 18.1914C28.756 18.6967 28.9692 19.2585 28.997 19.886C29.0303 20.6384 28.7884 21.2993 28.3464 21.9028C27.7481 22.7201 27.3732 23.6369 27.2074 24.6369C26.9858 25.9736 26.0591 26.9599 24.7308 27.207C23.6289 27.4118 22.6271 27.8213 21.7192 28.4822C21.482 28.655 21.1988 28.772 20.924 28.8838C20.7324 28.9617 20.5201 28.9871 20.3167 29.0359C20.1058 29.0359 19.8949 29.0359 19.684 29.0359C19.6695 29.0275 19.6554 29.0125 19.6399 29.011C19.0598 28.9443 18.5591 28.6968 18.0899 28.3577C17.2797 27.772 16.3756 27.4028 15.3897 27.2384C14.0548 27.0158 13.0727 26.0863 12.8247 24.7576C12.627 23.6975 12.255 22.7196 11.62 21.8436C11.48 21.6506 11.3471 21.4425 11.2602 21.2222C11.1475 20.9367 11.0845 20.6318 11 20.335C11 20.1236 11 19.9123 11 19.7009C11.0085 19.6859 11.023 19.6718 11.0244 19.6563C11.0902 19.0809 11.3307 18.5826 11.6665 18.1176C12.2564 17.3018 12.6279 16.3915 12.7937 15.3981C13.0178 14.0577 13.944 13.076 15.2699 12.8285C16.3342 12.6298 17.3168 12.2564 18.1904 11.6087C18.5183 11.3654 18.8794 11.1888 19.2768 11.0911C19.4121 11.0578 19.5483 11.0301 19.684 11ZM19.9954 12.0559C19.5708 12.0615 19.1819 12.1907 18.8367 12.4448C17.8283 13.1883 16.7029 13.6401 15.4709 13.8632C14.6194 14.0173 14.0849 14.5536 13.8717 15.3981C13.8242 15.5855 13.7993 15.7781 13.7575 15.9669C13.5255 17.0049 13.0976 17.9551 12.4687 18.8128C12.1888 19.1946 12.0389 19.6169 12.0573 20.0931C12.0737 20.5233 12.2325 20.9 12.4842 21.2457C13.1718 22.1893 13.6152 23.2381 13.8209 24.3889C14.0107 25.4527 14.5917 26.0262 15.6527 26.2131C16.7715 26.4104 17.7921 26.8449 18.7165 27.5052C19.6084 28.1426 20.397 28.1421 21.2866 27.5048C22.2105 26.843 23.2325 26.4118 24.3503 26.2131C25.402 26.0262 25.9802 25.472 26.1718 24.4217C26.3864 23.248 26.8345 22.1785 27.5367 21.2152C27.6123 21.1114 27.6832 21.0015 27.7377 20.8859C28.0825 20.1546 28.0012 19.4614 27.5306 18.8132C26.8115 17.8231 26.3583 16.7241 26.1539 15.5184C26.0055 14.6424 25.3668 14.006 24.495 13.8524C24.3395 13.8252 24.1846 13.7946 24.0305 13.7599C22.9944 13.5264 22.0475 13.0957 21.1927 12.464C20.8371 12.201 20.4421 12.0615 19.9954 12.0559Z" fill="#0D257B" stroke="#0D257B" stroke-width="0.5" stroke-miterlimit="10"/>
<path d="M17.6529 20.3868C17.2308 20.0403 16.8101 19.6947 16.3894 19.3491C16.326 19.297 16.2603 19.2472 16.1993 19.1932C16.0152 19.0308 15.9565 18.8209 16.0321 18.6073C16.1096 18.3876 16.295 18.2547 16.5453 18.2537C17.1191 18.2505 17.6933 18.249 18.267 18.2556C18.3919 18.257 18.4506 18.2213 18.4929 18.0997C18.6872 17.541 18.8919 16.986 19.0938 16.4301C19.1995 16.139 19.377 15.9968 19.6258 16.0001C19.8695 16.0029 20.0409 16.1423 20.1442 16.425C20.3446 16.9752 20.5503 17.5236 20.739 18.0781C20.7888 18.2246 20.8611 18.2575 21.0024 18.2556C21.5471 18.2481 22.0917 18.2519 22.6364 18.2528C22.9326 18.2533 23.1218 18.3702 23.2059 18.6021C23.2899 18.8341 23.219 19.0463 22.9899 19.235C22.565 19.5853 22.1424 19.9393 21.7105 20.2806C21.6011 20.367 21.595 20.4356 21.6405 20.5577C21.8785 21.1939 22.1067 21.8338 22.3373 22.4728C22.4401 22.7583 22.3894 22.9865 22.1927 23.1395C21.9978 23.2917 21.7776 23.2898 21.5245 23.1316C20.9339 22.762 20.3423 22.3939 19.7549 22.0193C19.6577 21.9573 19.5906 21.9531 19.4901 22.0169C18.8882 22.401 18.283 22.7804 17.674 23.1541C17.3341 23.3626 16.9341 23.2076 16.8622 22.8362C16.8402 22.7231 16.865 22.5897 16.904 22.4785C17.1364 21.8155 17.3792 21.1558 17.6186 20.4952C17.6294 20.4623 17.6393 20.429 17.6529 20.3868ZM18.4135 21.3976C18.4243 21.408 18.4346 21.4183 18.4454 21.4286C18.7225 21.2554 19.0023 21.0868 19.2751 20.907C19.508 20.7535 19.7305 20.753 19.962 20.906C20.1625 21.038 20.3681 21.1615 20.5719 21.2882C20.6465 21.3347 20.7221 21.3803 20.7973 21.4258C20.7151 21.0953 20.6057 20.7943 20.4972 20.4924C20.3737 20.1482 20.4193 19.9802 20.6968 19.7506C20.8616 19.6144 21.0268 19.4782 21.2334 19.3083C20.9386 19.3083 20.6958 19.3092 20.4531 19.3078C20.2423 19.3069 20.0808 19.2148 19.9765 19.0317C19.9394 18.9665 19.9183 18.8913 19.892 18.82C19.8056 18.5885 19.7202 18.3566 19.6324 18.1195C19.607 18.1378 19.6 18.1401 19.5986 18.1443C19.5047 18.3965 19.4126 18.6491 19.3178 18.9012C19.2079 19.1942 19.0464 19.3069 18.7342 19.3083C18.5088 19.3092 18.2835 19.3083 18.0083 19.3083C18.2036 19.4698 18.359 19.5989 18.5149 19.7276C18.8267 19.9849 18.8689 20.1417 18.7295 20.5262C18.6243 20.8168 18.5187 21.107 18.4135 21.3976Z" fill="#0D257B"/>
</svg>
