<svg width="20" height="20" viewBox="0 0 20 20" fill="none" xmlns="http://www.w3.org/2000/svg">
<g clip-path="url(#clip0_40001522_435999)">
<path d="M18.3359 10.832C18.1149 10.832 17.903 10.9198 17.7467 11.0761C17.5904 11.2324 17.5026 11.4444 17.5026 11.6654V15.1762C17.5019 15.792 17.257 16.3823 16.8216 16.8177C16.3862 17.2531 15.7959 17.498 15.1801 17.4987H4.8251C4.20934 17.498 3.61899 17.2531 3.18358 16.8177C2.74817 16.3823 2.50327 15.792 2.5026 15.1762V11.6654C2.5026 11.4444 2.41481 11.2324 2.25853 11.0761C2.10225 10.9198 1.89028 10.832 1.66927 10.832C1.44826 10.832 1.2363 10.9198 1.08002 11.0761C0.923735 11.2324 0.835938 11.4444 0.835938 11.6654V15.1762C0.83704 16.2339 1.25768 17.2479 2.00556 17.9957C2.75343 18.7436 3.76745 19.1643 4.8251 19.1654H15.1801C16.2378 19.1643 17.2518 18.7436 17.9997 17.9957C18.7475 17.2479 19.1682 16.2339 19.1693 15.1762V11.6654C19.1693 11.4444 19.0815 11.2324 18.9252 11.0761C18.7689 10.9198 18.557 10.832 18.3359 10.832Z" fill="#0D257B"/>
<path d="M5.59195 7.25435L9.16945 3.67685V14.1652C9.16945 14.3862 9.25725 14.5982 9.41353 14.7544C9.56981 14.9107 9.78177 14.9985 10.0028 14.9985C10.2238 14.9985 10.4358 14.9107 10.592 14.7544C10.7483 14.5982 10.8361 14.3862 10.8361 14.1652V3.67685L14.4136 7.25435C14.5708 7.40615 14.7813 7.49015 14.9998 7.48825C15.2183 7.48635 15.4273 7.39871 15.5818 7.2442C15.7363 7.08969 15.8239 6.88068 15.8258 6.66219C15.8277 6.44369 15.7437 6.23319 15.5919 6.07602L10.5919 1.07602C10.4357 0.919794 10.2238 0.832031 10.0028 0.832031C9.78181 0.832031 9.56989 0.919794 9.41361 1.07602L4.41361 6.07602C4.26182 6.23319 4.17782 6.44369 4.17972 6.66219C4.18162 6.88068 4.26926 7.08969 4.42377 7.2442C4.57827 7.39871 4.78728 7.48635 5.00578 7.48825C5.22428 7.49015 5.43478 7.40615 5.59195 7.25435Z" fill="#0D257B"/>
</g>
<defs>
<clipPath id="clip0_40001522_435999">
<rect width="20" height="20" fill="white"/>
</clipPath>
</defs>
</svg>
