<svg width="16" height="14" viewBox="0 0 16 14" fill="none" xmlns="http://www.w3.org/2000/svg">
<path d="M15.511 4.76867C14.4773 2.98777 12.1263 0 7.99969 0C3.87309 0 1.52209 2.98777 0.488725 4.76867C-0.162908 5.88368 -0.162908 7.2928 0.488725 8.4078C1.5224 10.1887 3.87341 13.1765 8 13.1765C12.1266 13.1765 14.4776 10.1887 15.5113 8.4078C16.1629 7.2928 16.1629 5.88368 15.511 4.76867ZM14.3748 7.66986C13.487 9.19696 11.4778 11.7667 8 11.7667C4.52223 11.7667 2.51266 9.19663 1.62487 7.66986C1.23782 7.00694 1.23782 6.16986 1.62487 5.50694C2.51266 3.97984 4.52192 1.41011 7.99969 1.41011C11.4775 1.41011 13.487 3.97687 14.3745 5.50694C14.7619 6.16953 14.7619 7.00694 14.3748 7.66986Z" fill="#6D6D6D"/>
<path d="M8.00017 3.0625C6.15991 3.0625 4.66797 4.64082 4.66797 6.58762C4.66797 8.53441 6.15991 10.1127 8.00017 10.1127C9.84042 10.1127 11.3324 8.53441 11.3324 6.58762C11.3302 4.64181 9.8398 3.06481 8.00017 3.0625ZM8.00017 8.70262C6.89589 8.70262 6.00091 7.75582 6.00091 6.58762C6.00091 5.41941 6.89589 4.47261 8.00017 4.47261C9.10445 4.47261 9.99943 5.41941 9.99943 6.58762C9.99943 7.75582 9.10445 8.70262 8.00017 8.70262Z" fill="#6D6D6D"/>
</svg>
