<svg width="14" height="15" viewBox="0 0 14 15" fill="none" xmlns="http://www.w3.org/2000/svg">
<path opacity="0.4" d="M9.44352 1.66797H4.55518C2.43185 1.66797 1.16602 2.9338 1.16602 5.05714V9.93964C1.16602 12.0688 2.43185 13.3346 4.55518 13.3346H9.43768C11.561 13.3346 12.8268 12.0688 12.8268 9.94547V5.05714C12.8327 2.9338 11.5668 1.66797 9.44352 1.66797Z" fill="#22FF00"/>
<path d="M9.77003 4.58203H6.95253C6.71336 4.58203 6.51503 4.78036 6.51503 5.01953C6.51503 5.2587 6.71336 5.45703 6.95253 5.45703H8.71419L4.21086 9.96036C4.04169 10.1295 4.04169 10.4095 4.21086 10.5787C4.29836 10.6662 4.40919 10.707 4.52003 10.707C4.63086 10.707 4.74169 10.6662 4.82919 10.5787L9.33253 6.07536V7.83703C9.33253 8.0762 9.53086 8.27453 9.77003 8.27453C10.0092 8.27453 10.2075 8.0762 10.2075 7.83703V5.01953C10.2075 4.78036 10.0092 4.58203 9.77003 4.58203Z" fill="white"/>
</svg>
