<svg width="24" height="24" viewBox="0 0 24 24" fill="none" xmlns="http://www.w3.org/2000/svg">
<path d="M12 0C5.37281 0 0 5.37281 0 12C0 18.6272 5.37281 24 12 24C18.6272 24 24 18.6272 24 12C23.993 5.37562 18.6244 0.00703125 12 0ZM12 21.9998C6.47719 21.9998 2.00016 17.5228 2.00016 12C2.00016 6.47719 6.47719 2.00016 12 2.00016C17.5228 2.00016 21.9998 6.47719 21.9998 12C21.9937 17.5205 17.5205 21.9937 12 21.9998Z" fill="#0D257B"/>
<path d="M12.7172 5.0616C10.5436 4.66551 8.46096 6.10645 8.06487 8.28004C8.02175 8.51723 8.00018 8.7577 8.00018 8.99863C8.00018 9.55082 8.44784 9.99848 9.00003 9.99848C9.55221 9.99848 9.99987 9.55082 9.99987 8.99863C9.99893 7.89426 10.8938 6.99801 11.9982 6.99707C12.1233 6.99707 12.248 7.00879 12.3708 7.03176C13.1789 7.18879 13.8113 7.81926 13.9707 8.62692C14.1319 9.47676 13.7288 10.3346 12.9708 10.7518C11.7249 11.4736 10.9697 12.8161 10.9997 14.2557V14.9986C10.9997 15.5508 11.4474 15.9985 11.9996 15.9985C12.5517 15.9985 12.9994 15.5508 12.9994 14.9986V14.2557C12.9741 13.5474 13.3285 12.8794 13.9294 12.5035C15.8658 11.4399 16.5732 9.00801 15.5096 7.07207C14.9297 6.01504 13.9036 5.27629 12.7172 5.0616Z" fill="#0D257B"/>
<path d="M12 17C12.5522 17 12.9999 17.4477 12.9999 17.9998C12.9999 18.552 12.5522 18.9997 12 18.9997C11.4478 18.9997 11.0002 18.552 11.0002 17.9998C11.0002 17.4477 11.4478 17 12 17Z" fill="#0D257B"/>
</svg>
