<svg width="24" height="24" viewBox="0 0 24 24" fill="none" xmlns="http://www.w3.org/2000/svg">
<path d="M21.9994 5.72783V2.00434C21.9994 1.45226 21.5522 1.00469 20.9995 1.00469C20.4464 1.00469 19.9997 1.45272 19.9997 2.00434V4.36965L14.7965 0.859403C13.0973 -0.286468 10.9017 -0.286468 9.20248 0.859403L2.20264 5.58254C0.823574 6.5133 -0.000488281 8.06222 -0.000488281 9.72689V19.0012C-0.000488281 21.7578 2.24248 24.0004 4.99967 24.0004H7.99967C8.55279 24.0004 8.99951 23.5523 8.99951 23.0007V15.0021C8.99951 14.4514 9.44764 14.0025 9.99936 14.0025H13.9992C14.5514 14.0025 14.999 14.4514 14.999 15.0021V23.0007C14.999 23.5528 15.4462 24.0004 15.9989 24.0004H18.9989C21.7561 24.0004 23.999 21.7578 23.999 19.0012V9.72689C23.9995 8.14611 23.2556 6.66936 21.9994 5.72783ZM21.9994 19.0012C21.9994 20.6551 20.6536 22.0006 18.9994 22.0006H16.9992V15.0021C16.9992 13.3482 15.6534 12.0027 13.9992 12.0027H9.99936C8.34514 12.0027 6.99936 13.3482 6.99936 15.0021V22.0006H4.9992C3.34498 22.0006 1.9992 20.6551 1.9992 19.0012V9.72689C1.9992 8.72818 2.49326 7.79836 3.32107 7.24019L10.3214 2.51752C11.3414 1.82953 12.6572 1.82953 13.6762 2.51752L20.6761 7.24066C21.5039 7.79836 21.9979 8.72818 21.9979 9.72736V19.0016L21.9994 19.0012Z" fill="#0D257B"/>
</svg>
