<svg width="214" height="41" viewBox="0 0 214 41" fill="none" xmlns="http://www.w3.org/2000/svg">
<g clip-path="url(#clip0_10245_13150)">
<path d="M74.7188 5.9751H82.3587C88.5187 5.9751 92.7787 10.4151 92.7787 16.2051V16.2651C92.7787 22.0551 88.5187 26.5551 82.3587 26.5551H74.7188V5.9751ZM79.0287 10.0651V22.4751H82.3587C85.8587 22.4751 88.2687 19.9751 88.2687 16.3351V16.2751C88.2687 12.6251 85.8587 10.0751 82.3587 10.0751H79.0287V10.0651Z" fill="#0D257B"/>
<path d="M98.2422 18.7654V18.7054C98.2422 14.1754 101.712 10.5054 106.392 10.5054C111.072 10.5054 114.482 14.0954 114.482 18.6454V18.7054C114.482 23.2354 111.012 26.9054 106.332 26.9054C101.652 26.9054 98.2422 23.3154 98.2422 18.7654ZM110.282 18.7654V18.7054C110.282 16.3854 108.682 14.3554 106.332 14.3554C103.982 14.3554 102.442 16.2954 102.442 18.6454V18.7054C102.442 21.0254 104.042 23.0554 106.392 23.0554C108.742 23.0554 110.282 21.1154 110.282 18.7654Z" fill="#0D257B"/>
<path d="M119.625 18.7654V18.7054C119.625 14.2054 122.905 10.5054 127.495 10.5054C130.325 10.5054 132.055 11.5054 133.485 13.1554L130.885 16.0954C129.905 15.0354 129.005 14.3654 127.465 14.3654C125.335 14.3654 123.825 16.3054 123.825 18.6554V18.7154C123.825 21.1554 125.305 23.0654 127.635 23.0654C129.065 23.0654 130.045 22.4154 131.075 21.3854L133.565 24.0354C132.105 25.7154 130.425 26.9154 127.435 26.9154C122.925 26.9154 119.625 23.2454 119.625 18.7754V18.7654Z" fill="#0D257B"/>
<path d="M140.008 5.9751H142.218V15.1151H153.528V5.9751H155.738V26.5551H153.528V17.2951H142.218V26.5551H140.008V5.9751Z" fill="#D5A54D"/>
<path d="M174.556 11.355H176.856L170.776 27.055C169.546 30.205 168.116 31.345 165.956 31.345C164.756 31.345 163.856 31.085 162.876 30.585L163.606 28.795C164.306 29.175 164.946 29.355 165.876 29.355C167.196 29.355 167.976 28.645 168.846 26.505L162.266 11.365H164.646L169.906 24.035L174.556 11.365V11.355Z" fill="#D5A54D"/>
<path d="M181.219 11.355H183.599L188.469 23.965L193.369 11.355H195.689L189.389 26.675H187.489L181.219 11.355Z" fill="#D5A54D"/>
<path d="M200.141 19.0047V18.9447C200.141 14.5647 203.051 11.0347 207.081 11.0347C211.361 11.0347 213.831 14.6247 213.831 19.0647C213.831 19.3847 213.831 19.5347 213.801 19.8047H202.321C202.631 23.0947 204.841 24.9447 207.421 24.9447C209.441 24.9447 210.781 24.0947 211.981 22.7947L213.321 24.0547C211.861 25.7847 210.131 26.9047 207.361 26.9047C203.411 26.9047 200.141 23.7047 200.141 18.9947V19.0047ZM211.651 18.1247C211.431 15.3947 209.941 12.9547 207.031 12.9547C204.481 12.9547 202.631 15.1847 202.331 18.1247H211.661H211.651Z" fill="#D5A54D"/>
<path d="M27.4353 27.5946L25.4953 26.4746L22.6953 24.8646V19.3946L27.4353 16.6646L32.1653 19.3946V24.8646L29.3753 26.4746L27.4353 27.5946Z" fill="url(#paint0_linear_10245_13150)"/>
<path d="M40.1466 14.7949V29.4649L32.6366 33.8049L27.4266 36.8049L22.2266 33.8049L14.7266 29.4649V14.7949L27.4266 7.4549L32.1666 10.1849V17.8449L27.4266 15.1149L21.3566 18.6249V25.6449L24.9366 27.7149L27.4266 29.1549L29.9166 27.7149L33.5166 25.6449V20.7049H33.5066V4.1649L40.1366 0.524902V14.7849L40.1466 14.7949Z" fill="#0D257B"/>
<path d="M58.9803 0.524902V29.4749H53.4603V18.2849H42.5703V12.7549H53.4603V3.5549L58.9803 0.524902Z" fill="#0D257B"/>
<path d="M14.5972 40.8153L12.6572 39.6953L9.86719 38.0753V32.6153L14.5972 29.8853L19.3272 32.6153V38.0753L16.5372 39.6953L14.5972 40.8153Z" fill="url(#paint1_linear_10245_13150)"/>
<path d="M4.73 40.9149L2.8 39.7949L0 38.1849V32.7149L4.73 29.9849L9.47 32.7149V38.1849L6.67 39.7949L4.73 40.9149Z" fill="url(#paint2_linear_10245_13150)"/>
<path d="M9.58156 32.3145L7.65156 31.1945L4.85156 29.5745V24.1145L9.58156 21.3745L14.3216 24.1145V29.5745L11.5216 31.1945L9.58156 32.3145Z" fill="url(#paint3_linear_10245_13150)"/>
</g>
<defs>
<linearGradient id="paint0_linear_10245_13150" x1="30.1753" y1="20.1446" x2="2.36531" y2="40.2545" gradientUnits="userSpaceOnUse">
<stop stop-color="#E3C57F"/>
<stop offset="1" stop-color="#CC922F"/>
</linearGradient>
<linearGradient id="paint1_linear_10245_13150" x1="32.0472" y1="22.7253" x2="4.23719" y2="42.8353" gradientUnits="userSpaceOnUse">
<stop stop-color="#E3C57F"/>
<stop offset="1" stop-color="#CC922F"/>
</linearGradient>
<linearGradient id="paint2_linear_10245_13150" x1="28.7" y1="18.1249" x2="0.890001" y2="38.2349" gradientUnits="userSpaceOnUse">
<stop stop-color="#E3C57F"/>
<stop offset="1" stop-color="#CC922F"/>
</linearGradient>
<linearGradient id="paint3_linear_10245_13150" x1="26.2916" y1="14.7645" x2="-1.51844" y2="34.8745" gradientUnits="userSpaceOnUse">
<stop stop-color="#E3C57F"/>
<stop offset="1" stop-color="#CC922F"/>
</linearGradient>
<clipPath id="clip0_10245_13150">
<rect width="213.84" height="40.39" fill="white" transform="translate(0 0.524902)"/>
</clipPath>
</defs>
</svg>
