<svg width="24" height="24" viewBox="0 0 24 24" fill="none" xmlns="http://www.w3.org/2000/svg">
<path d="M21.9998 5.72783V2.00434C21.9998 1.45226 21.5527 1.00469 21 1.00469C20.4469 1.00469 20.0002 1.45272 20.0002 2.00434V4.36965L14.797 0.859403C13.0978 -0.286468 10.9022 -0.286468 9.20297 0.859403L2.20312 5.58254C0.824062 6.5133 0 8.06222 0 9.72689V19.0012C0 21.7578 2.24297 24.0004 5.00016 24.0004H8.00016C8.55328 24.0004 9 23.5523 9 23.0007V15.0021C9 14.4514 9.44812 14.0025 9.99984 14.0025H13.9997C14.5519 14.0025 14.9995 14.4514 14.9995 15.0021V23.0007C14.9995 23.5528 15.4467 24.0004 15.9994 24.0004H18.9994C21.7566 24.0004 23.9995 21.7578 23.9995 19.0012V9.72689C24 8.14611 23.2561 6.66936 21.9998 5.72783Z" fill="#0D257B"/>
</svg>
