<svg width="214" height="42" viewBox="0 0 214 42" fill="none" xmlns="http://www.w3.org/2000/svg">
<g clip-path="url(#clip0_6638_163174)">
<path d="M74.7188 6.25391H82.3587C88.5187 6.25391 92.7787 10.6939 92.7787 16.4839V16.5439C92.7787 22.3339 88.5187 26.8339 82.3587 26.8339H74.7188V6.25391ZM79.0287 10.3439V22.7539H82.3587C85.8587 22.7539 88.2687 20.2539 88.2687 16.6139V16.5539C88.2687 12.9039 85.8587 10.3539 82.3587 10.3539H79.0287V10.3439Z" fill="white"/>
<path d="M98.2422 19.0452V18.9852C98.2422 14.4552 101.712 10.7852 106.392 10.7852C111.072 10.7852 114.482 14.3752 114.482 18.9252V18.9852C114.482 23.5152 111.012 27.1852 106.332 27.1852C101.652 27.1852 98.2422 23.5952 98.2422 19.0452ZM110.282 19.0452V18.9852C110.282 16.6652 108.682 14.6352 106.332 14.6352C103.982 14.6352 102.442 16.5752 102.442 18.9252V18.9852C102.442 21.3052 104.042 23.3352 106.392 23.3352C108.742 23.3352 110.282 21.3952 110.282 19.0452Z" fill="white"/>
<path d="M119.625 19.0452V18.9852C119.625 14.4852 122.905 10.7852 127.495 10.7852C130.325 10.7852 132.055 11.7852 133.485 13.4352L130.885 16.3752C129.905 15.3152 129.005 14.6452 127.465 14.6452C125.335 14.6452 123.825 16.5852 123.825 18.9352V18.9952C123.825 21.4352 125.305 23.3452 127.635 23.3452C129.065 23.3452 130.045 22.6952 131.075 21.6652L133.565 24.3152C132.105 25.9952 130.425 27.1952 127.435 27.1952C122.925 27.1952 119.625 23.5252 119.625 19.0552V19.0452Z" fill="white"/>
<path d="M140.008 6.25391H142.218V15.3939H153.528V6.25391H155.738V26.8339H153.528V17.5739H142.218V26.8339H140.008V6.25391Z" fill="#D5A54D"/>
<path d="M174.556 11.6328H176.856L170.776 27.3328C169.546 30.4828 168.116 31.6228 165.956 31.6228C164.756 31.6228 163.856 31.3628 162.876 30.8628L163.606 29.0728C164.306 29.4528 164.946 29.6328 165.876 29.6328C167.196 29.6328 167.976 28.9228 168.846 26.7828L162.266 11.6428H164.646L169.906 24.3128L174.556 11.6428V11.6328Z" fill="#D5A54D"/>
<path d="M181.219 11.6348H183.599L188.469 24.2448L193.369 11.6348H195.689L189.389 26.9548H187.489L181.219 11.6348Z" fill="#D5A54D"/>
<path d="M200.141 19.2825V19.2225C200.141 14.8425 203.051 11.3125 207.081 11.3125C211.361 11.3125 213.831 14.9025 213.831 19.3425C213.831 19.6625 213.831 19.8125 213.801 20.0825H202.321C202.631 23.3725 204.841 25.2225 207.421 25.2225C209.441 25.2225 210.781 24.3725 211.981 23.0725L213.321 24.3325C211.861 26.0625 210.131 27.1825 207.361 27.1825C203.411 27.1825 200.141 23.9825 200.141 19.2725V19.2825ZM211.651 18.4025C211.431 15.6725 209.941 13.2325 207.031 13.2325C204.481 13.2325 202.631 15.4625 202.331 18.4025H211.661H211.651Z" fill="#D5A54D"/>
<path d="M27.4353 27.8753L25.4953 26.7553L22.6953 25.1453V19.6753L27.4353 16.9453L32.1653 19.6753V25.1453L29.3753 26.7553L27.4353 27.8753Z" fill="url(#paint0_linear_6638_163174)"/>
<path d="M40.1466 15.0747V29.7447L32.6366 34.0847L27.4266 37.0847L22.2266 34.0847L14.7266 29.7447V15.0747L27.4266 7.73469L32.1666 10.4647V18.1247L27.4266 15.3947L21.3566 18.9047V25.9247L24.9366 27.9947L27.4266 29.4347L29.9166 27.9947L33.5166 25.9247V20.9847H33.5066V4.44469L40.1366 0.804688V15.0647L40.1466 15.0747Z" fill="white"/>
<path d="M58.9803 0.804688V29.7547H53.4603V18.5647H42.5703V13.0347H53.4603V3.83469L58.9803 0.804688Z" fill="white"/>
<path d="M14.5972 41.0941L12.6572 39.9741L9.86719 38.3541V32.8941L14.5972 30.1641L19.3272 32.8941V38.3541L16.5372 39.9741L14.5972 41.0941Z" fill="url(#paint1_linear_6638_163174)"/>
<path d="M4.73 41.1956L2.8 40.0756L0 38.4656V32.9956L4.73 30.2656L9.47 32.9956V38.4656L6.67 40.0756L4.73 41.1956Z" fill="url(#paint2_linear_6638_163174)"/>
<path d="M9.58156 32.5943L7.65156 31.4743L4.85156 29.8543V24.3943L9.58156 21.6543L14.3216 24.3943V29.8543L11.5216 31.4743L9.58156 32.5943Z" fill="url(#paint3_linear_6638_163174)"/>
</g>
<defs>
<linearGradient id="paint0_linear_6638_163174" x1="30.1753" y1="20.4253" x2="2.36531" y2="40.5353" gradientUnits="userSpaceOnUse">
<stop stop-color="#E3C57F"/>
<stop offset="1" stop-color="#CC922F"/>
</linearGradient>
<linearGradient id="paint1_linear_6638_163174" x1="32.0472" y1="23.0041" x2="4.23719" y2="43.1141" gradientUnits="userSpaceOnUse">
<stop stop-color="#E3C57F"/>
<stop offset="1" stop-color="#CC922F"/>
</linearGradient>
<linearGradient id="paint2_linear_6638_163174" x1="28.7" y1="18.4056" x2="0.890001" y2="38.5156" gradientUnits="userSpaceOnUse">
<stop stop-color="#E3C57F"/>
<stop offset="1" stop-color="#CC922F"/>
</linearGradient>
<linearGradient id="paint3_linear_6638_163174" x1="26.2916" y1="15.0443" x2="-1.51844" y2="35.1543" gradientUnits="userSpaceOnUse">
<stop stop-color="#E3C57F"/>
<stop offset="1" stop-color="#CC922F"/>
</linearGradient>
<clipPath id="clip0_6638_163174">
<rect width="213.84" height="40.39" fill="white" transform="translate(0 0.804688)"/>
</clipPath>
</defs>
</svg>
