<svg width="16" height="16" viewBox="0 0 16 16" fill="none" xmlns="http://www.w3.org/2000/svg">
<path d="M8.3127 2.15001C8.0877 2.27501 8.07832 2.30626 8.06895 3.00313L8.05957 3.62501H7.4752C6.98145 3.62501 6.8752 3.63438 6.78145 3.68126C6.44395 3.85001 6.44395 4.36876 6.78145 4.53751C6.8752 4.58438 6.98145 4.59376 7.4627 4.59376H8.03145V5.13126C8.03145 5.42813 8.04707 5.72188 8.0627 5.78126C8.07832 5.84376 8.14082 5.94063 8.20332 6.00001C8.29082 6.08438 8.34082 6.10626 8.47832 6.11876C8.66582 6.13438 8.77832 6.09063 8.90645 5.95313C8.98457 5.87188 8.98457 5.86251 8.99395 5.23126L9.00332 4.59376H9.6002C10.1533 4.59376 10.2033 4.58751 10.3158 4.52501C10.5502 4.39376 10.6314 4.05313 10.4783 3.84688C10.3283 3.65001 10.3002 3.64063 9.64082 3.63126L9.03457 3.62188L9.0252 3.01563C9.01582 2.46251 9.00957 2.40313 8.9502 2.32501C8.79082 2.10938 8.52207 2.03438 8.3127 2.15001Z" fill="#0D257B"/>
<path d="M1.75026 4.36875C1.69089 4.39688 1.60964 4.46875 1.57214 4.52813L1.50026 4.63438V9.1C1.50026 14.0188 1.48464 13.6688 1.69401 13.8188C1.83776 13.9188 2.10026 13.9188 2.24401 13.8188C2.42526 13.6875 2.43776 13.6313 2.43776 12.9531V12.3438H7.98464H13.5315V12.8813C13.5315 13.4969 13.5596 13.6313 13.7065 13.7719C13.9159 13.9688 14.2909 13.9219 14.4378 13.6813C14.4971 13.5813 14.5003 13.5313 14.5003 11.4375C14.5003 9.07813 14.5034 9.11875 14.3034 8.71875C14.1753 8.45938 13.8346 8.11563 13.5721 7.975C13.4659 7.91875 13.2721 7.84688 13.1378 7.8125C12.9065 7.75313 12.7815 7.75 10.0659 7.75H7.23464L6.90026 7.82813C6.50339 7.91563 6.24089 8.03438 5.96589 8.24688C5.62214 8.5125 5.39401 8.83438 5.24714 9.2625L5.15964 9.51563L3.79714 9.525L2.43776 9.53125V7.08438V4.63438L2.36589 4.52813C2.28151 4.4 2.11901 4.3125 1.96901 4.3125C1.90964 4.3125 1.80964 4.3375 1.75026 4.36875Z" fill="#0D257B"/>
<path d="M3.91597 6.43125C3.27222 6.6625 2.98159 7.37813 3.28159 7.99063C3.47222 8.37813 3.83472 8.6 4.28159 8.59688C4.54722 8.59688 4.71909 8.54688 4.91909 8.40938C5.62534 7.92188 5.53159 6.83125 4.75659 6.475C4.51909 6.36563 4.15034 6.34688 3.91597 6.43125Z" fill="#0D257B"/>
</svg>
