<svg width="42" height="39" viewBox="0 0 42 39" fill="none" xmlns="http://www.w3.org/2000/svg">
<g clip-path="url(#clip0_1823_12490)">
<path d="M41.7142 18.0818C41.6449 18.0046 41.567 17.9189 41.4977 17.8417C38.1377 14.1293 34.5093 11.3772 30.4132 9.42235C27.4689 8.01626 24.6198 7.27892 21.7014 7.17604C18.9043 7.06458 16.0726 7.579 13.2928 8.69359C8.47794 10.6141 4.21732 13.6921 0.268454 18.099C0.0952577 18.2961 0 18.5534 0 18.8106V19.2736C0 19.5393 0.138557 19.8394 0.320412 20.0366L0.502268 20.2424C4.00082 24.092 7.76784 26.9127 12.0285 28.8675C14.6957 30.0936 17.2849 30.7538 19.9348 30.8995C20.2986 30.9167 20.6623 30.9338 21.026 30.9338C24.334 30.9338 27.6074 30.0936 30.9934 28.3874C34.9249 26.4069 38.5361 23.5776 41.7315 19.9852C41.9047 19.788 42 19.5393 42 19.2736V18.8106C42 18.5619 41.8788 18.279 41.7142 18.0818ZM5.43835 17.7131C8.25278 15.1667 11.0672 13.3062 14.0548 12.0459C17.259 10.6827 20.2899 10.254 23.3295 10.7084C25.4944 11.0342 27.6334 11.763 29.8503 12.9376C32.7427 14.4723 35.4012 16.4614 37.9645 19.0421C33.8338 23.0889 29.8936 25.5838 25.6157 26.8699C21.8313 28.0016 18.0816 27.7444 14.1414 26.0725C10.5909 24.5721 7.29155 22.2744 4.0701 19.0678C4.52907 18.5877 4.97072 18.1418 5.43835 17.7131Z" fill="#0D257B"/>
<path d="M41.2473 29.6481L41.2127 29.528C41.178 29.3994 41.1174 29.2108 40.9615 29.0222L40.6584 28.6535C40.1042 27.9848 39.55 27.3246 38.9784 26.673C38.4589 26.09 37.5842 26.0557 36.9607 26.5872C36.3545 27.1102 36.2506 27.9247 36.7356 28.5249C37.4803 29.4509 38.1125 30.2054 38.7446 30.8827C39.0217 31.1828 39.4201 31.2771 39.7751 31.2771C40.0003 31.2771 40.2081 31.2342 40.3553 31.1828C40.7537 31.037 40.9615 30.7112 41.0828 30.514L41.1347 30.4368C41.2993 30.2225 41.3426 29.9224 41.2473 29.6481Z" fill="#F5C86F"/>
<path d="M3.99283 26.2186C3.60314 26.2358 3.24809 26.4158 2.9883 26.7073C2.39077 27.3846 1.69799 28.182 1.0485 29.0136C0.719429 29.4337 0.650151 29.991 0.883966 30.4712C1.1351 30.9942 1.66335 31.3285 2.26953 31.3457L2.45139 31.3628L2.63324 31.2771C2.7718 31.2342 3.06623 31.1399 3.28273 30.8827C3.91489 30.1625 4.59036 29.3737 5.2485 28.5592C5.73345 27.9591 5.65551 27.1531 5.05799 26.6044C4.78087 26.3472 4.38252 26.1929 3.99283 26.2186Z" fill="#F5C86F"/>
<path d="M12.6784 30.9343L12.5918 30.9C12.2368 30.7543 11.8471 30.7629 11.5093 30.9086C11.1543 31.0629 10.8772 31.363 10.7386 31.7403C10.3922 32.6491 10.0718 33.5579 9.7514 34.4753C9.49161 35.2298 9.85532 36.0186 10.6087 36.3101C10.7906 36.3786 10.9811 36.4129 11.1629 36.4129C11.3708 36.4129 11.5786 36.3701 11.7691 36.2843C12.1242 36.13 12.4013 35.8385 12.5399 35.4613C12.791 34.7839 13.0335 34.1066 13.2759 33.4207L13.5357 32.7005C13.5617 32.6319 13.579 32.5633 13.5877 32.4948C13.6223 32.3747 13.631 32.2461 13.6223 32.1089C13.605 31.7746 13.4665 31.4831 13.2673 31.3116C13.0335 31.0887 12.9036 31.0201 12.6784 30.9343Z" fill="#F5C86F"/>
<path d="M32.0333 33.8059C31.7388 33.0257 31.4617 32.2883 31.1586 31.551C31.0287 31.2423 30.7776 31.0023 30.4659 30.8737C30.1108 30.7365 29.6778 30.7536 29.2881 30.9251C28.578 31.2423 28.2489 31.9454 28.4828 32.6399C28.8118 33.6173 29.1669 34.5861 29.5306 35.5292C29.6692 35.8893 29.9376 36.1722 30.2927 36.3094C30.4572 36.378 30.6391 36.4123 30.8122 36.4123C31.0114 36.4123 31.2193 36.3694 31.4098 36.2837C31.7302 36.1379 31.9294 35.9065 32.0766 35.735C32.1112 35.6921 32.1459 35.6492 32.1892 35.6064C32.423 35.3663 32.5009 35.0148 32.3797 34.6976L32.0333 33.8059Z" fill="#F5C86F"/>
<path d="M22.0231 32.7262C21.7459 32.4604 21.3822 32.3232 20.9752 32.3232C20.1439 32.3404 19.529 32.9834 19.5117 33.8665C19.5117 34.1752 19.5117 34.4752 19.5117 34.7839V35.1783V35.5898C19.5117 35.9071 19.5117 36.2243 19.5117 36.5329C19.5204 37.1331 19.7629 37.4932 19.9707 37.6904C20.2391 37.9476 20.6029 38.0848 20.9925 38.0848C21.0012 38.0848 21.0099 38.0848 21.0099 38.0848C21.8672 38.0762 22.4734 37.4417 22.4734 36.5415C22.482 35.6413 22.482 34.741 22.4734 33.8408C22.482 33.4121 22.3175 33.0091 22.0231 32.7262Z" fill="#F5C86F"/>
<path d="M5.50775 10.0313C5.46445 9.8855 5.41249 9.69688 5.25661 9.50826L5.01414 9.21675C4.44259 8.53943 3.87971 7.85353 3.28218 7.19335C2.75393 6.60177 1.90527 6.56747 1.27311 7.09904C0.658264 7.62204 0.554346 8.43654 1.03063 9.0367C1.77538 9.97124 2.4162 10.7171 3.03971 11.403C3.31682 11.7031 3.72383 11.806 4.07888 11.806C4.29538 11.806 4.49455 11.7717 4.63311 11.7203C5.04012 11.5745 5.24795 11.2487 5.36919 11.0515L5.71558 10.5971L5.54239 10.1599C5.52507 10.1084 5.51641 10.0655 5.50775 10.0313Z" fill="#F5C86F"/>
<path d="M41.1175 7.61356C40.8663 7.09056 40.3294 6.75619 39.7232 6.73904L39.5067 6.73047L39.3076 6.83335C39.169 6.8848 38.9006 6.98768 38.6841 7.23632C38.0346 7.98223 37.3938 8.72814 36.7702 9.49121C36.268 10.1085 36.3546 10.9916 36.9608 11.5146C37.2465 11.7632 37.5929 11.8833 37.9393 11.8833C38.3377 11.8833 38.736 11.7204 39.0218 11.3946C39.7579 10.5543 40.3727 9.84273 40.9616 9.08824C41.2907 8.65098 41.3513 8.09369 41.1175 7.61356Z" fill="#F5C86F"/>
<path d="M13.5605 5.51292C13.5259 5.37574 13.4913 5.27286 13.4566 5.17854C13.2574 4.62125 13.0583 4.06396 12.8591 3.51524L12.7812 3.28375C12.6946 3.03512 12.608 2.79505 12.504 2.55499C12.175 1.82622 11.3436 1.48327 10.6075 1.78335C9.85414 2.09201 9.49909 2.82077 9.74157 3.55811C10.0706 4.52694 10.417 5.4872 10.7721 6.40459C10.9106 6.76468 11.1791 7.04762 11.5341 7.19337C11.7073 7.26196 11.8805 7.29625 12.0624 7.29625C12.2529 7.29625 12.4521 7.25338 12.6339 7.17622C12.963 7.03904 13.1708 6.79898 13.3094 6.63608C13.3354 6.60178 13.3614 6.57606 13.3873 6.55034C13.6125 6.32742 13.7078 6.00162 13.6212 5.70154L13.5605 5.51292Z" fill="#F5C86F"/>
<path d="M31.3839 1.77518C31.0029 1.62943 30.5959 1.64658 30.2322 1.80948C29.8771 1.97238 29.6086 2.26388 29.4701 2.63255C29.1237 3.54994 28.786 4.4759 28.4742 5.41044C28.327 5.83912 28.3963 6.29353 28.6647 6.65363C28.9592 7.05659 29.4614 7.29666 30.033 7.29666L30.3794 7.28808L30.6218 7.07374C30.7864 6.96228 31.0981 6.74794 31.254 6.37069C31.635 5.41901 31.9728 4.45018 32.2499 3.61853C32.5097 2.8469 32.1373 2.05811 31.3839 1.77518Z" fill="#F5C86F"/>
<path d="M22.4894 1.52612C22.472 0.625881 21.8572 0 20.9999 0C20.1426 0 19.5191 0.643029 19.5104 1.5347C19.5017 2.43494 19.5017 3.33518 19.5104 4.23542C19.5191 5.10993 20.1599 5.77011 20.9999 5.77011C21.8485 5.77011 22.472 5.12708 22.4894 4.23542C22.498 3.91819 22.4894 3.60096 22.4894 3.28373V2.88077V2.46923C22.4894 2.152 22.4894 1.83478 22.4894 1.52612Z" fill="#F5C86F"/>
<path d="M20.9994 24.8636C24.3472 24.8636 27.0612 22.1765 27.0612 18.862C27.0612 15.5474 24.3472 12.8604 20.9994 12.8604C17.6515 12.8604 14.9375 15.5474 14.9375 18.862C14.9375 22.1765 17.6515 24.8636 20.9994 24.8636Z" fill="#F5C86F"/>
</g>
<defs>
<clipPath id="clip0_1823_12490">
<rect width="42" height="38.093" fill="white"/>
</clipPath>
</defs>
</svg>
