<svg width="96" height="96" viewBox="0 0 96 96" fill="none" xmlns="http://www.w3.org/2000/svg">
<path d="M78.6099 35.9289C78.4368 36.5318 78.2861 37.707 77.7781 38.7006C76.6532 40.9002 75.5144 43.1276 74.0853 45.1345C70.9227 49.5754 66.5377 52.1713 61.1449 53.031C60.4918 53.1343 59.8303 53.1845 59.1687 53.232C57.9462 53.3241 57.5526 53.9521 58.1108 55.0491C59.5679 57.8962 60.3243 60.9191 60.2964 64.1067C60.2657 67.4339 59.5428 70.5992 57.7982 73.4882C56.9329 74.9201 56.1374 76.3911 55.2833 77.8314C52.9442 81.7699 48.3917 83.012 44.4225 80.7399C36.7716 76.3576 29.1319 71.9474 21.509 67.5177C17.4756 65.173 16.2502 60.6372 18.5363 56.6038C19.7393 54.4825 20.8391 52.2662 22.3101 50.343C25.8941 45.6565 30.7704 43.2085 36.6544 42.7871C38.0835 42.6838 38.4296 42.1172 37.7932 40.8164C35.3118 35.7363 34.8261 30.4608 36.9503 25.2216C38.117 22.3438 39.7527 19.5944 41.5531 17.0544C43.8196 13.8528 48.1404 13.2973 51.8054 15.3936C56.584 18.129 61.3459 20.8952 66.1162 23.6501C68.9242 25.2719 71.735 26.8824 74.5346 28.5181C77.1529 30.0449 78.4759 32.3561 78.6099 35.9289ZM23.929 60.827C24.3561 61.201 24.7413 61.67 25.2325 61.9547C32.3503 66.0802 39.4819 70.1805 46.608 74.2921C48.8383 75.5788 48.8466 75.5956 50.0943 73.3877C51.0685 71.6599 52.2631 69.9991 52.8995 68.1513C54.1082 64.6427 53.6476 61.1592 52.0315 57.7957C51.5597 56.816 51.2248 55.6855 51.169 54.6081C50.9429 50.3207 54.2366 46.8679 58.5407 46.5608C63.2886 46.2231 67.0931 44.2413 69.4378 39.9065C70.0686 38.7425 70.7609 37.6121 71.4196 36.4621C72.1509 35.1864 72.0448 34.8124 70.7357 34.0588C63.6096 29.9472 56.4835 25.8357 49.3574 21.7242C47.1272 20.4374 47.1105 20.4262 45.8656 22.6397C44.8775 24.3982 43.6744 26.0925 43.0296 27.9738C41.835 31.4517 42.29 34.9213 43.9535 38.2122C46.2926 42.8457 43.6465 48.3026 38.5524 49.2963C37.5308 49.4945 36.4618 49.4666 35.4486 49.6926C31.6859 50.5272 28.5765 52.322 26.6756 55.8418C25.9638 57.1593 25.1795 58.4405 24.437 59.7412C24.2863 60.0092 24.1746 60.2995 23.929 60.827Z" fill="#0D257B"/>
<path d="M77.7462 76.6342C76.0575 76.6342 74.634 76.6761 73.216 76.623C71.5859 76.5616 70.2629 75.4395 69.9809 73.9853C69.6851 72.4557 70.3717 70.9428 71.7422 70.3064C72.2307 70.0803 72.8141 69.9603 73.3528 69.9575C77.4699 69.9296 81.5898 69.924 85.7069 69.9463C87.8702 69.9575 89.2267 71.3392 89.2323 73.494C89.2463 77.5414 89.2435 81.5887 89.2323 85.636C89.2267 87.7546 87.806 89.2619 85.8632 89.2507C83.9289 89.2368 82.55 87.7239 82.536 85.5858C82.5277 84.2711 82.5333 82.9564 82.5333 81.5245C80.8055 83.0206 79.2507 84.5056 77.5564 85.8091C66.9552 93.9763 54.9807 97.2672 41.711 95.5646C20.7542 92.8766 3.97589 76.6509 0.651494 55.9202C0.277464 53.5867 0.132319 51.2086 0.00950297 48.8471C-0.124478 46.2429 1.16788 44.6742 3.27807 44.6603C5.37152 44.6463 6.64155 46.1871 6.68621 48.7997C6.82298 56.5929 8.89689 63.853 13.2401 70.3092C22.2643 83.724 34.9952 90.0909 51.1148 89.1614C61.1633 88.5836 69.8023 84.4246 77.0289 77.3906C77.2075 77.2204 77.3666 77.0389 77.7462 76.6342Z" fill="#0D257B"/>
<path d="M13.4237 14.3856C15.7097 12.5183 17.8227 10.5895 20.1339 8.93429C46.3382 -9.81744 83.4007 2.27153 93.5469 32.8498C95.0849 37.4806 95.9223 42.2341 95.9781 47.1188C96.0088 49.7454 94.8169 51.3113 92.7263 51.3503C90.6328 51.3922 89.3293 49.8403 89.2763 47.2528C89.0809 37.7876 86.1026 29.2714 80.0511 22.0114C70.5943 10.6649 58.363 5.60989 43.6447 6.96365C34.026 7.84848 25.8057 11.9293 18.8917 18.6591C18.7661 18.7819 18.6461 18.9075 18.5345 19.0415C18.4954 19.0861 18.4926 19.1615 18.4284 19.3736C19.8826 19.3736 21.295 19.3401 22.7018 19.382C24.1561 19.4267 25.2447 20.1189 25.7917 21.4894C26.2998 22.7622 26.149 24.0322 25.133 24.9617C24.558 25.4893 23.6983 25.9861 22.9558 26.0029C18.5959 26.1006 14.2331 26.0866 9.87037 26.0364C8.13978 26.0168 6.75811 24.5961 6.74415 22.8599C6.70507 18.5697 6.70507 14.2768 6.74415 9.9838C6.7609 8.1611 8.26818 6.76268 10.0602 6.75431C11.8438 6.74593 13.3427 8.14157 13.4097 9.95868C13.4683 11.4241 13.4237 12.8867 13.4237 14.3856Z" fill="#0D257B"/>
</svg>
