<svg width="24" height="25" viewBox="0 0 24 25" fill="none" xmlns="http://www.w3.org/2000/svg">
<path d="M0 21.5435C0.0950025 21.1577 0.163129 20.7634 0.289383 20.3874C0.59314 19.4807 1.25253 18.6354 2.04755 18.0899C2.8482 18.8246 3.79885 19.2344 4.90825 19.2374C6.02141 19.2399 6.97768 18.8424 7.8252 18.0586C8.16584 18.3817 8.50335 18.7018 8.86336 19.0433C8.7196 19.1692 8.61147 19.2645 8.50272 19.3591C7.25706 20.4408 6.6233 21.7985 6.61017 23.4331C6.6058 23.9546 6.60955 24.4768 6.60955 24.9983C4.57824 24.9983 2.54694 24.9983 0.515638 24.9983C0.283757 24.8884 0.111878 24.7194 0 24.4915C0 23.5093 0 22.5264 0 21.5435Z" fill="#0D257B"/>
<path d="M17.3912 25.0016C17.3799 24.281 17.4124 23.5562 17.348 22.8399C17.2224 21.4393 16.5686 20.2875 15.4992 19.3605C15.4055 19.2794 15.3117 19.1983 15.2186 19.116C15.2073 19.1062 15.1998 19.0914 15.1523 19.0276C15.4655 18.6952 15.7855 18.3561 16.1136 18.0078C17.0061 18.8304 17.958 19.2383 19.0699 19.2401C20.1831 19.2419 21.1381 18.8402 21.9569 18.0864C22.8719 18.7511 23.4919 19.6087 23.8057 20.6751C23.8894 20.9601 23.9363 21.2556 24.0001 21.5462C24.0001 22.5291 24.0001 23.5119 24.0001 24.4948C23.8882 24.7227 23.7157 24.891 23.4844 25.0016C21.4538 25.0016 19.4225 25.0016 17.3912 25.0016Z" fill="#0D257B"/>
<path d="M8.01562 24.9997C8.03063 24.2718 7.99812 23.5389 8.0725 22.8165C8.16938 21.8736 8.64439 21.0977 9.37441 20.4453C10.1088 21.1554 10.9763 21.5425 12.0007 21.5418C13.0183 21.5412 13.8827 21.1634 14.622 20.4478C14.6939 20.5117 14.7646 20.5682 14.8277 20.6321C15.5777 21.3938 15.9696 22.3036 15.984 23.3651C15.9915 23.91 15.9852 24.4548 15.9852 24.9997C13.3283 24.9997 10.6719 24.9997 8.01562 24.9997Z" fill="#0D257B"/>
<path d="M7.61378 15.2335C7.59253 16.7103 6.37 17.8763 4.86434 17.8554C3.4093 17.8357 2.21427 16.628 2.22864 15.1918C2.24364 13.7138 3.46618 12.5374 4.96496 12.5589C6.43875 12.5804 7.63503 13.7887 7.61378 15.2335Z" fill="#0D257B"/>
<path d="M16.3867 15.2136C16.3805 13.7546 17.5924 12.5592 19.0774 12.5586C20.5544 12.558 21.7569 13.7319 21.7719 15.1884C21.7863 16.6437 20.5731 17.8514 19.0918 17.8557C17.6043 17.8606 16.393 16.6775 16.3867 15.2136Z" fill="#0D257B"/>
<path d="M14.2245 17.9725C14.2213 19.1777 13.2269 20.1557 12.0031 20.1569C10.7712 20.1581 9.76496 19.1624 9.77746 17.954C9.78996 16.7457 10.785 15.7776 12.01 15.7813C13.2338 15.7862 14.2276 16.7691 14.2245 17.9725Z" fill="#0D257B"/>
<path d="M14.2941 0.000679133C14.5792 0.133789 14.7537 0.355866 14.8976 0.629556C15.3718 1.52805 16.1414 1.99258 17.1752 2.03672C17.6834 2.05845 17.9942 2.36406 17.9949 2.86458C17.997 4.34102 18.0067 5.81813 17.9921 7.29457C17.9587 10.6678 15.6408 13.7049 12.3398 14.6971C12.1312 14.7596 11.8677 14.7576 11.6592 14.6937C8.30604 13.6669 6.02635 10.6481 6.00479 7.21783C5.99576 5.77535 6.00201 4.33219 6.0034 2.88971C6.0041 2.35523 6.30583 2.06117 6.84951 2.03468C7.86108 1.98646 8.6182 1.52873 9.08818 0.651289C9.23696 0.372844 9.40451 0.132431 9.70486 0C11.2351 0.000679133 12.7646 0.000679133 14.2941 0.000679133ZM11.1829 9.91534C10.8311 9.56559 8.78923 7.8467 8.50626 7.57233C8.14126 7.21851 9.5679 6.52919 9.24044 6.84362C8.91854 7.15331 8.93592 7.6287 9.28771 7.97506C9.74657 8.42668 10.2061 8.87763 10.6698 9.3245C11.0355 9.67697 11.4854 9.68512 11.8476 9.334C12.8161 8.39612 13.781 7.45484 14.7363 6.50474C14.8503 6.39132 14.9351 6.22154 14.9692 6.06466C15.0415 5.73392 15.403 6.77299 15.111 6.62155C14.7933 6.45652 15.1159 7.0202 14.8329 7.29457C14.1113 7.9934 12.5623 8.62906 11.8476 9.334C11.7815 9.39988 11.2462 9.81144 11.1829 9.91534Z" fill="#0D257B"/>
<path d="M10.0326 7.87688H10.9783V8.8538C10.9783 8.98209 11.0047 9.10912 11.056 9.22765C11.1074 9.34617 11.1826 9.45387 11.2775 9.54459C11.3724 9.6353 11.485 9.70726 11.609 9.75636C11.733 9.80545 11.8658 9.83072 12 9.83072C12.1342 9.83072 12.267 9.80545 12.391 9.75636C12.515 9.70726 12.6276 9.6353 12.7225 9.54459C12.8174 9.45387 12.8926 9.34617 12.944 9.22765C12.9953 9.10912 13.0217 8.98209 13.0217 8.8538V7.87688H13.9783C14.2492 7.87688 14.5091 7.77395 14.7007 7.59074C14.8924 7.40753 15 7.15905 15 6.89995C15 6.64086 14.8924 6.39237 14.7007 6.20916C14.5091 6.02595 14.2492 5.92303 13.9783 5.92303H13.0217V4.88375C13.0023 4.64944 12.9003 4.42837 12.7325 4.2566C12.5647 4.08483 12.341 3.97252 12.0978 3.93801C11.8493 3.91523 11.6008 3.98119 11.4001 4.12319C11.1994 4.26519 11.0607 4.47317 11.0109 4.70707C10.9997 4.84891 10.9997 4.99134 11.0109 5.13318V5.88146H10.0217C9.88756 5.88146 9.7547 5.90673 9.63074 5.95582C9.50677 6.00492 9.39414 6.07688 9.29926 6.16759C9.20438 6.25831 9.12912 6.366 9.07778 6.48453C9.02643 6.60305 9 6.73009 9 6.85838C9 6.98667 9.02643 7.11371 9.07778 7.23223C9.12912 7.35076 9.20438 7.45845 9.29926 7.54917C9.39414 7.63989 9.50677 7.71184 9.63074 7.76094C9.7547 7.81003 9.88756 7.8353 10.0217 7.8353L10.0326 7.87688Z" fill="white"/>
</svg>
