<svg width="24" height="25" viewBox="0 0 24 25" fill="none" xmlns="http://www.w3.org/2000/svg">
<path d="M0.00125 21.6185C0.111875 21.1997 0.1825 20.7658 0.34125 20.3645C0.77 19.278 1.53688 18.4614 2.59812 17.902C2.645 17.8773 2.68937 17.8479 2.73625 17.8197C1.36187 16.3685 1.81375 14.5069 2.87375 13.5936C3.99312 12.6291 5.70312 12.5702 6.84562 13.4902C7.52688 14.0382 7.91125 14.7395 7.96312 15.5927C8.01562 16.4442 7.70937 17.1803 7.09687 17.8155C8.25062 18.3899 9.05813 19.2426 9.53688 20.4077C9.62688 20.347 9.70687 20.2917 9.78813 20.2395C9.865 20.1902 9.945 20.1439 10.0431 20.0838C9.51437 19.4415 9.305 18.7264 9.485 17.9302C9.61938 17.3365 9.94625 16.8516 10.4538 16.4863C11.4725 15.7526 12.865 15.8343 13.7806 16.6738C14.6344 17.4567 14.9519 18.8718 13.965 20.079C14.1244 20.1836 14.2831 20.2875 14.4631 20.4059C14.6962 19.8435 15.0056 19.3381 15.4219 18.8965C15.84 18.453 16.33 18.0985 16.9037 17.8197C16.21 17.0788 15.9075 16.2357 16.0787 15.2592C16.2044 14.5406 16.5775 13.9559 17.155 13.4914C18.3137 12.5594 20.0312 12.6261 21.1606 13.6236C22.1944 14.537 22.6275 16.3787 21.2775 17.8052C21.5781 18.0035 21.8962 18.1826 22.1775 18.4049C23.1994 19.2119 23.7994 20.2497 23.9612 21.517C23.9656 21.5518 23.9869 21.5849 24 21.6191C24 22.5806 24 23.542 24 24.5034C23.8881 24.7264 23.7156 24.891 23.4844 24.9992C15.8281 24.9992 8.17188 24.9992 0.515625 24.9992C0.28375 24.8916 0.111875 24.7264 0 24.5034C0.00125 23.5414 0.00125 22.58 0.00125 21.6185ZM1.39938 23.6309C3.62563 23.6309 5.815 23.6309 8.01625 23.6309C7.99688 22.9844 8.11312 22.3787 8.3875 21.8018C8.41687 21.7399 8.40563 21.6552 8.39688 21.5831C8.21187 20.0574 6.82937 18.8141 5.18875 18.6958C3.53562 18.5768 2.0025 19.6019 1.54625 21.13C1.30187 21.9496 1.45438 22.7861 1.39938 23.6309ZM22.5556 23.6387C22.5556 22.9405 22.62 22.2597 22.5425 21.5939C22.3581 20.0021 20.9062 18.7516 19.2575 18.6922C17.5206 18.6291 16.0219 19.7233 15.6506 21.3175C15.5925 21.5662 15.5738 21.7976 15.7056 22.0343C15.7781 22.1641 15.8238 22.3144 15.85 22.4604C15.9188 22.8486 15.9706 23.2397 16.0306 23.6393C18.1987 23.6387 20.3825 23.6387 22.5556 23.6387ZM14.5788 23.6363C14.6038 22.613 14.2156 21.809 13.3063 21.2946C12.3888 20.7761 11.4475 20.8073 10.565 21.3728C9.74 21.9009 9.38937 22.6773 9.42688 23.6363C11.1481 23.6363 12.8481 23.6363 14.5788 23.6363ZM4.91812 14.183C4.01625 14.1848 3.28125 14.8957 3.28312 15.7646C3.285 16.6311 4.02562 17.3389 4.92812 17.3365C5.83 17.3341 6.565 16.6227 6.56312 15.755C6.56062 14.8873 5.82187 14.1812 4.91812 14.183ZM20.7194 15.7568C20.7181 14.8891 19.98 14.1824 19.0763 14.183C18.1744 14.1842 17.4381 14.8945 17.4394 15.7622C17.4406 16.6293 18.18 17.3377 19.0819 17.3365C19.9837 17.3353 20.7206 16.6245 20.7194 15.7568ZM12.0044 17.3377C11.3569 17.3365 10.8287 17.8437 10.83 18.4662C10.8313 19.0785 11.35 19.5833 11.9856 19.5899C12.6325 19.5965 13.1675 19.0924 13.1719 18.4722C13.1763 17.8497 12.6506 17.3389 12.0044 17.3377Z" fill="#0D257B"/>
<path d="M10.3425 7.49557H11.2125V8.39931C11.2125 8.518 11.2368 8.63552 11.284 8.74516C11.3312 8.85481 11.4005 8.95444 11.4878 9.03836C11.5751 9.12228 11.6787 9.18885 11.7927 9.23427C11.9068 9.27969 12.029 9.30306 12.1525 9.30306C12.2759 9.30306 12.3981 9.27969 12.5122 9.23427C12.6262 9.18885 12.7298 9.12228 12.8171 9.03836C12.9044 8.95444 12.9737 8.85481 13.0209 8.74516C13.0681 8.63552 13.0925 8.518 13.0925 8.39931V7.49557H13.9725C14.2218 7.49557 14.4609 7.40035 14.6371 7.23087C14.8134 7.06138 14.9125 6.83151 14.9125 6.59182C14.9125 6.35213 14.8134 6.12226 14.6371 5.95278C14.4609 5.78329 14.2218 5.68807 13.9725 5.68807H13.0925V4.72664C13.0746 4.50989 12.9808 4.30537 12.8264 4.14647C12.672 3.98757 12.4662 3.88367 12.2425 3.85174C12.0138 3.83067 11.7851 3.89169 11.6005 4.02305C11.4159 4.15441 11.2883 4.34682 11.2425 4.5632C11.2322 4.69441 11.2322 4.82618 11.2425 4.95739V5.64962H10.3325C10.209 5.64962 10.0868 5.67299 9.97273 5.71841C9.85869 5.76383 9.75506 5.8304 9.66778 5.91432C9.58049 5.99824 9.51125 6.09787 9.46401 6.20752C9.41677 6.31716 9.39246 6.43468 9.39246 6.55336C9.39246 6.67205 9.41677 6.78957 9.46401 6.89921C9.51125 7.00886 9.58049 7.10849 9.66778 7.19241C9.75506 7.27633 9.85869 7.3429 9.97273 7.38832C10.0868 7.43373 10.209 7.45711 10.3325 7.45711L10.3425 7.49557Z" fill="#0D257B"/>
<path d="M14.2941 0.000664331C14.5792 0.130873 14.7537 0.34811 14.8976 0.615835C15.3718 1.49475 16.1414 1.94915 17.1752 1.99233C17.6834 2.01359 17.9942 2.31254 17.9949 2.80215C17.997 4.24641 18.0067 5.69133 17.9921 7.13558C17.958 10.4353 15.6408 13.4062 12.3398 14.3768C12.1312 14.4379 11.8677 14.4359 11.6592 14.3735C8.30534 13.369 6.02565 10.4154 6.00479 7.06051C5.99576 5.64947 6.00201 4.23777 6.0034 2.82673C6.0041 2.3039 6.30514 2.01625 6.84951 1.99034C7.86108 1.94317 8.6182 1.49541 9.08818 0.637094C9.23696 0.364718 9.40451 0.129545 9.70486 0C11.2351 0.000664331 12.7646 0.000664331 14.2941 0.000664331ZM16.4793 5.49668C16.4633 5.49601 16.448 5.49535 16.432 5.49402C16.432 4.88018 16.4264 4.26567 16.4355 3.65183C16.4376 3.48708 16.4042 3.41333 16.2137 3.36816C15.1493 3.11439 14.3115 2.54306 13.7185 1.65751C13.6385 1.53793 13.5572 1.49142 13.4084 1.49209C12.4705 1.49873 11.5326 1.49807 10.5948 1.49209C10.4481 1.49142 10.3632 1.53328 10.2826 1.65419C9.6847 2.54705 8.84068 3.12169 7.76445 3.37347C7.59689 3.41267 7.56422 3.47711 7.56491 3.62326C7.56978 4.70214 7.55796 5.78101 7.57256 6.85989C7.57812 7.28107 7.59342 7.71023 7.67893 8.12145C8.15517 10.4174 9.54982 11.9925 11.826 12.8522C11.9199 12.888 12.0527 12.8953 12.1451 12.8615C14.438 12.0104 15.8654 10.4347 16.3089 8.12344C16.473 7.26646 16.4285 6.3736 16.4793 5.49668Z" fill="#0D257B"/>
</svg>
