<svg width="24" height="25" viewBox="0 0 24 25" fill="none" xmlns="http://www.w3.org/2000/svg">
<path d="M12 0.0341797C5.37281 0.0341797 0 5.40699 0 12.0342C0 18.6614 5.37281 24.0342 12 24.0342C18.6272 24.0342 24 18.6614 24 12.0342C23.993 5.4098 18.6244 0.0412109 12 0.0341797ZM12 22.034C6.47719 22.034 2.00016 17.557 2.00016 12.0342C2.00016 6.51137 6.47719 2.03434 12 2.03434C17.5228 2.03434 21.9998 6.51137 21.9998 12.0342C21.9937 17.5546 17.5205 22.0279 12 22.034Z" fill="#0D257B"/>
<path d="M12.717 5.09578C10.5434 4.69969 8.46078 6.14063 8.06469 8.31422C8.02156 8.55141 8 8.79188 8 9.03281C8 9.585 8.44766 10.0327 8.99984 10.0327C9.55203 10.0327 9.99969 9.585 9.99969 9.03281C9.99875 7.92844 10.8936 7.03219 11.998 7.03125C12.1231 7.03125 12.2478 7.04297 12.3706 7.06594C13.1788 7.22297 13.8111 7.85344 13.9705 8.6611C14.1317 9.51094 13.7286 10.3688 12.9706 10.7859C11.7247 11.5078 10.9695 12.8503 10.9995 14.2898V15.0328C10.9995 15.585 11.4472 16.0327 11.9994 16.0327C12.5516 16.0327 12.9992 15.585 12.9992 15.0328V14.2898C12.9739 13.5816 13.3283 12.9136 13.9292 12.5377C15.8656 11.4741 16.573 9.04219 15.5094 7.10625C14.9295 6.04922 13.9034 5.31047 12.717 5.09578Z" fill="#0D257B"/>
<path d="M11.9998 17.0342C12.552 17.0342 12.9997 17.4818 12.9997 18.034C12.9997 18.5862 12.552 19.0339 11.9998 19.0339C11.4477 19.0339 11 18.5862 11 18.034C11 17.4818 11.4477 17.0342 11.9998 17.0342Z" fill="#0D257B"/>
</svg>
