<svg width="20" height="28" viewBox="0 0 20 28" fill="none" xmlns="http://www.w3.org/2000/svg">
<path d="M16.0818 0H3.91818C2.87946 0.00144301 1.88369 0.414714 1.1492 1.1492C0.414714 1.88369 0.00144352 2.87946 5.13273e-07 3.91818V26.3636C-0.000178129 26.5318 0.0462783 26.6967 0.134205 26.84C0.222132 26.9833 0.348083 27.0994 0.498057 27.1755C0.648031 27.2515 0.81615 27.2844 0.983724 27.2706C1.1513 27.2568 1.31176 27.1968 1.44727 27.0973L5.81818 23.8927L9.40273 27.0464C9.56863 27.1921 9.7819 27.2725 10.0027 27.2725C10.2236 27.2725 10.4368 27.1921 10.6027 27.0464L14.1818 23.8927L18.55 27.0973C18.7069 27.2121 18.8965 27.2736 19.0909 27.2727C19.2337 27.2731 19.3746 27.2394 19.5018 27.1745C19.6517 27.0986 19.7776 26.9826 19.8655 26.8395C19.9534 26.6963 20 26.5316 20 26.3636V3.91818C19.9986 2.87946 19.5853 1.88369 18.8508 1.1492C18.1163 0.414714 17.1205 0.00144301 16.0818 0ZM10.9091 16.6109V17.2727C10.9091 17.5138 10.8133 17.7451 10.6428 17.9156C10.4723 18.086 10.2411 18.1818 10 18.1818C9.75889 18.1818 9.52766 18.086 9.35718 17.9156C9.18669 17.7451 9.09091 17.5138 9.09091 17.2727V16.6236H8.05182C7.81071 16.6236 7.57948 16.5279 7.40899 16.3574C7.23851 16.1869 7.14273 15.9557 7.14273 15.7145C7.14273 15.4734 7.23851 15.2422 7.40899 15.0717C7.57948 14.9012 7.81071 14.8055 8.05182 14.8055H10.7791C11.0547 14.8055 11.319 14.696 11.5138 14.5011C11.7087 14.3062 11.8182 14.0419 11.8182 13.7664C11.8182 13.4908 11.7087 13.2265 11.5138 13.0316C11.319 12.8367 11.0547 12.7273 10.7791 12.7273H9.22091C8.47488 12.7287 7.758 12.4377 7.224 11.9168C6.69001 11.3958 6.38141 10.6863 6.36441 9.94047C6.3474 9.19464 6.62333 8.47183 7.13302 7.92707C7.64272 7.3823 8.34559 7.05895 9.09091 7.02636V6.36364C9.09091 6.12253 9.18669 5.8913 9.35718 5.72081C9.52766 5.55032 9.75889 5.45455 10 5.45455C10.2411 5.45455 10.4723 5.55032 10.6428 5.72081C10.8133 5.8913 10.9091 6.12253 10.9091 6.36364V7.01273H11.9482C12.1893 7.01273 12.4205 7.10851 12.591 7.27899C12.7615 7.44948 12.8573 7.68071 12.8573 7.92182C12.8573 8.16292 12.7615 8.39415 12.591 8.56464C12.4205 8.73513 12.1893 8.83091 11.9482 8.83091H9.22091C8.94533 8.83091 8.68103 8.94038 8.48616 9.13525C8.2913 9.33012 8.18182 9.59442 8.18182 9.87C8.18182 10.1456 8.2913 10.4099 8.48616 10.6047C8.68103 10.7996 8.94533 10.9091 9.22091 10.9091H10.7791C11.5221 10.9126 12.2344 11.2058 12.7646 11.7264C13.2947 12.247 13.6008 12.9539 13.6177 13.6968C13.6346 14.4396 13.3611 15.1597 12.8552 15.7039C12.3494 16.2482 11.6512 16.5736 10.9091 16.6109Z" fill="#0D257B"/>
</svg>
