<svg width="18" height="20" viewBox="0 0 18 20" fill="none" xmlns="http://www.w3.org/2000/svg">
<path fill-rule="evenodd" clip-rule="evenodd" d="M1 13.5156C1.55225 13.5156 2 13.9654 2 14.5201V16.5289C2 16.7953 2.10547 17.0508 2.29297 17.2391C2.48047 17.4274 2.73486 17.5334 3 17.5334H15C15.2651 17.5334 15.5195 17.4274 15.707 17.2391C15.8945 17.0508 16 16.7953 16 16.5289V14.5201C16 13.9654 16.4478 13.5156 17 13.5156C17.5522 13.5156 18 13.9654 18 14.5201V16.5289C18 17.3279 17.6841 18.0945 17.1211 18.6595C16.5586 19.2244 15.7954 19.5423 15 19.5423H3C2.20459 19.5423 1.44141 19.2249 0.878418 18.6595C0.315918 18.0945 0 17.3279 0 16.5289V14.5201C0 13.9654 0.447754 13.5156 1 13.5156Z" fill="#0D257B"/>
<path fill-rule="evenodd" clip-rule="evenodd" d="M3.29297 7.78304C3.68359 7.39068 4.31689 7.39068 4.70703 7.78304L9 12.0951L13.293 7.78304C13.6836 7.39068 14.3169 7.39068 14.707 7.78304C15.0977 8.1754 15.0977 8.81151 14.707 9.20338L9.70703 14.2256C9.31641 14.6179 8.6831 14.6179 8.29297 14.2256L3.29297 9.20338C2.90234 8.81102 2.90234 8.17491 3.29297 7.78304Z" fill="#0D257B"/>
<path fill-rule="evenodd" clip-rule="evenodd" d="M9 0.458008C9.55225 0.458008 10 0.907749 10 1.46245V13.5157C10 14.0704 9.55225 14.5202 9 14.5202C8.44775 14.5202 8 14.0704 8 13.5157V1.46245C8 0.907749 8.44775 0.458008 9 0.458008Z" fill="#0D257B"/>
</svg>
