<svg width="21" height="29" viewBox="0 0 21 29" fill="none" xmlns="http://www.w3.org/2000/svg">
<path d="M16.6206 0H4.04944C2.97592 0.00149135 1.9468 0.428607 1.1877 1.1877C0.428607 1.9468 0.00149188 2.97592 5.30468e-07 4.04944V27.2468C-0.000184097 27.4206 0.0478287 27.591 0.138701 27.7391C0.229573 27.8873 0.359744 28.0073 0.514742 28.0858C0.66974 28.1644 0.843491 28.1985 1.01668 28.1842C1.18987 28.1699 1.35571 28.1079 1.49576 28.005L6.01309 24.6931L9.71772 27.9524C9.88918 28.103 10.1096 28.1861 10.3378 28.1861C10.566 28.1861 10.7865 28.103 10.9579 27.9524L14.6569 24.6931L19.1714 28.005C19.3336 28.1237 19.5295 28.1873 19.7305 28.1864C19.8781 28.1868 20.0236 28.152 20.1551 28.0849C20.31 28.0064 20.4401 27.8866 20.531 27.7386C20.6219 27.5907 20.67 27.4204 20.67 27.2468V4.04944C20.6685 2.97592 20.2414 1.9468 19.4823 1.1877C18.7232 0.428607 17.6941 0.00149135 16.6206 0ZM18.7909 25.3922L15.1624 22.7304C14.9897 22.6038 14.7789 22.54 14.565 22.5496C14.351 22.5592 14.1468 22.6415 13.9861 22.783L10.335 25.9953L6.68393 22.783C6.5232 22.6415 6.31896 22.5592 6.10504 22.5496C5.89111 22.54 5.68033 22.6038 5.50762 22.7304L1.87909 25.3922V4.04944C1.87959 3.47398 2.10841 2.92223 2.51532 2.51532C2.92223 2.10841 3.47398 1.87959 4.04944 1.87909H16.6206C17.196 1.87959 17.7478 2.10841 18.1547 2.51532C18.5616 2.92223 18.7904 3.47398 18.7909 4.04944V25.3922Z" fill="#0D257B"/>
<path d="M11.1405 11.274H9.53011C9.2453 11.274 8.97215 11.1608 8.77075 10.9595C8.56936 10.7581 8.45621 10.4849 8.45621 10.2001C8.45621 9.91528 8.56936 9.64212 8.77075 9.44073C8.97215 9.23933 9.2453 9.12619 9.53011 9.12619H12.3487C12.5979 9.12619 12.8369 9.0272 13.0131 8.851C13.1893 8.67481 13.2883 8.43583 13.2883 8.18665C13.2883 7.93746 13.1893 7.69849 13.0131 7.52229C12.8369 7.34609 12.5979 7.2471 12.3487 7.2471H11.2748V6.57626C11.2748 6.32708 11.1759 6.0881 10.9997 5.91191C10.8235 5.73571 10.5845 5.63672 10.3353 5.63672C10.0861 5.63672 9.84714 5.73571 9.67094 5.91191C9.49474 6.0881 9.39576 6.32708 9.39576 6.57626V7.26119C8.62547 7.29487 7.89905 7.62905 7.37228 8.19207C6.84551 8.75509 6.56034 9.50211 6.57792 10.2729C6.59549 11.0437 6.91442 11.777 7.46631 12.3154C8.0182 12.8538 8.75909 13.1546 9.53011 13.1531H11.1405C11.4253 13.1531 11.6985 13.2662 11.8999 13.4676C12.1012 13.669 12.2144 13.9422 12.2144 14.227C12.2144 14.5118 12.1012 14.785 11.8999 14.9863C11.6985 15.1877 11.4253 15.3009 11.1405 15.3009H8.32186C8.07267 15.3009 7.8337 15.3999 7.6575 15.5761C7.4813 15.7523 7.38231 15.9912 7.38231 16.2404C7.38231 16.4896 7.4813 16.7286 7.6575 16.9048C7.8337 17.081 8.07267 17.18 8.32186 17.18H9.39576V17.8508C9.39576 18.1 9.49474 18.339 9.67094 18.5152C9.84714 18.6914 10.0861 18.7904 10.3353 18.7904C10.5845 18.7904 10.8235 18.6914 10.9997 18.5152C11.1759 18.339 11.2748 18.1 11.2748 17.8508V17.1668C12.0418 17.1282 12.7634 16.7919 13.2862 16.2295C13.809 15.667 14.0917 14.9228 14.0742 14.1551C14.0567 13.3873 13.7404 12.6568 13.1925 12.1187C12.6446 11.5807 11.9084 11.2776 11.1405 11.274Z" fill="#0D257B"/>
</svg>
