<svg width="18" height="15" viewBox="0 0 18 15" fill="none" xmlns="http://www.w3.org/2000/svg">
<path d="M17.4498 5.36476C16.2869 3.36124 13.6421 0 8.99965 0C4.35723 0 1.71235 3.36124 0.549816 5.36476C-0.183272 6.61913 -0.183272 8.2044 0.549816 9.45877C1.7127 11.4623 4.35758 14.8235 9 14.8235C13.6424 14.8235 16.2873 11.4623 17.4502 9.45877C18.1833 8.2044 18.1833 6.61913 17.4498 5.36476ZM16.1717 8.62859C15.1729 10.3466 12.9125 13.2375 9 13.2375C5.08751 13.2375 2.82674 10.3462 1.82797 8.62859C1.39255 7.88281 1.39255 6.94109 1.82797 6.19531C2.82674 4.47732 5.08716 1.58638 8.99965 1.58638C12.9121 1.58638 15.1729 4.47398 16.1713 6.19531C16.6071 6.94072 16.6071 7.88281 16.1717 8.62859Z" fill="#0D257B"/>
<path d="M9.00068 3.44531C6.93039 3.44531 5.25195 5.22092 5.25195 7.41107C5.25195 9.60121 6.93039 11.3768 9.00068 11.3768C11.071 11.3768 12.7494 9.60121 12.7494 7.41107C12.7469 5.22204 11.0703 3.44791 9.00068 3.44531ZM9.00068 9.79045C7.75837 9.79045 6.75151 8.7253 6.75151 7.41107C6.75151 6.09683 7.75837 5.03169 9.00068 5.03169C10.243 5.03169 11.2498 6.09683 11.2498 7.41107C11.2498 8.7253 10.243 9.79045 9.00068 9.79045Z" fill="#0D257B"/>
</svg>
