<svg width="23" height="24" viewBox="0 0 23 24" fill="none" xmlns="http://www.w3.org/2000/svg">
<path d="M17.1888 0H16.8688H14.6888H10.6288C10.0788 0 9.62878 0.45 9.62878 1C9.62878 1.55 10.0788 2 10.6288 2H10.6588H16.8688H17.1888C18.8588 2 20.2188 3.34 20.2188 5V19C20.2188 20.66 18.8588 22 17.1888 22H16.8688H10.6588H10.6288C10.0788 22 9.62878 22.45 9.62878 23C9.62878 23.55 10.0788 24 10.6288 24H14.6888H16.8688H17.1888C19.9788 24 22.2388 21.76 22.2388 19V5C22.2388 2.24 19.9788 0 17.1888 0Z" fill="#0D257B"/>
<path d="M6.94875 17.2899L2.63875 13.0299L15.9388 12.9999C16.4988 12.9999 16.9488 12.5499 16.9488 11.9999C16.9488 11.4499 16.4988 10.9999 15.9388 10.9999L2.57875 11.0299L6.94875 6.70988C7.34875 6.32988 7.35875 5.68988 6.96875 5.29988C6.58875 4.89988 5.94875 4.88988 5.54875 5.26988C5.53875 5.27988 5.52875 5.28988 5.51875 5.28988L0.888754 9.87988C-0.291246 11.0499 -0.301246 12.9499 0.888754 14.1199L5.52875 18.7099C5.91875 19.1099 6.55875 19.1199 6.95875 18.7299C7.35875 18.3499 7.36875 17.7099 6.97875 17.3199C6.96875 17.3099 6.95875 17.2999 6.94875 17.2899Z" fill="#0D257B"/>
</svg>
