<svg width="20" height="24" viewBox="0 0 20 24" fill="none" xmlns="http://www.w3.org/2000/svg">
<path d="M9.99965 11.9998C13.3085 11.9998 15.9995 9.30872 15.9995 5.99988C15.9995 2.69104 13.309 0 9.99965 0C6.69034 0 3.99977 2.69104 3.99977 5.99988C3.99977 9.30872 6.69081 11.9998 9.99965 11.9998ZM9.99965 2.00012C12.2055 2.00012 13.9994 3.79399 13.9994 5.99988C13.9994 8.20578 12.2055 9.99965 9.99965 9.99965C7.79375 9.99965 5.99988 8.20578 5.99988 5.99988C5.99988 3.79399 7.79375 2.00012 9.99965 2.00012ZM19.9998 22.9997C19.9998 23.5528 19.5526 23.9995 18.9999 23.9995C18.4473 23.9995 17.9996 23.5524 17.9996 22.9997C17.9996 20.214 16.3628 17.8018 13.9999 16.6759V19.1715C15.1638 19.5845 16 20.6954 16 21.9994V22.9992C16 23.5524 15.5528 23.9991 15.0002 23.9991C14.4471 23.9991 14.0004 23.5519 14.0004 22.9992V21.9994C14.0004 21.4472 13.5522 20.9996 13.0005 20.9996C12.4488 20.9996 11.9998 21.4477 11.9998 21.9994V22.9992C11.9998 23.5524 11.5526 23.9991 10.9999 23.9991C10.4473 23.9991 10.0001 23.5519 10.0001 22.9992V21.9994C10.0001 20.6954 10.8359 19.5845 12.0002 19.1715V16.0717C11.6731 16.0248 11.3393 15.9995 11.0004 15.9995H8.99982C8.30468 15.9995 7.63391 16.1017 6.99971 16.2916V19.2685C7.59782 19.6145 7.99953 20.2604 7.99953 21.0005C7.99953 22.1053 7.1047 23.0006 5.99941 23.0006C4.89412 23.0006 3.9993 22.1058 3.9993 21.0005C3.9993 20.2604 4.40148 19.6145 4.99912 19.2685V17.2595C3.18697 18.5265 1.99918 20.6274 1.99918 23.0002C1.99918 23.5533 1.552 24 0.999355 24C0.44671 24 0 23.5538 0 23.0006C0 18.0376 4.0368 14.0008 8.99982 14.0008H10.9999C15.963 14.0008 19.9998 18.0376 19.9998 23.0006V22.9997Z" fill="#0D257B"/>
</svg>
