<svg width="21" height="24" viewBox="0 0 21 24" fill="none" xmlns="http://www.w3.org/2000/svg">
<path d="M19.5 0.6C19.3 0.5 19.1 0.3 18.9 0.3C18.5 0.1 18.1 0 17.7 0H4.2C3.7 0.1 3.2 0.2 2.7 0.4C1 1.3 0 2.7 0 4.6C0 10.8 0 16.9 0 23C0 23.5 0.3 23.8 0.8 24H1.2C1.7 23.8 2 23.5 2 23C2 22.5 2.4 22.2 2.9 22.2C3.4 22.2 3.8 22.6 3.8 23C3.8 23.5 4.1 23.9 4.6 24H5C5.5 23.8 5.7 23.5 5.8 23C5.8 22.5 6.2 22.2 6.7 22.2C7.2 22.2 7.6 22.6 7.6 23C7.6 23.5 7.9 23.9 8.4 24H8.8C9.3 23.8 9.5 23.5 9.6 23C9.6 22.5 10.1 22.2 10.5 22.2C11 22.2 11.4 22.6 11.4 23C11.4 23.5 11.7 23.9 12.2 24H12.6C13.1 23.8 13.3 23.5 13.4 23C13.4 22.5 13.9 22.2 14.3 22.2C14.8 22.2 15.2 22.6 15.2 23C15.2 23.5 15.5 23.9 16 24H16.4C17 23.8 17.2 23.4 17.2 22.8C17.2 19.9 17.2 13.3 17.2 9H18.2C19.7 9 21 7.7 21 6.2C21 5.1 21 3.9 21 2.8C20.6 1.9 20.2 1.1 19.5 0.6ZM6.6 6.2C6.9 6.2 7.2 6.2 7.5 6.2V5.5C7.5 5.4 7.5 5.2 7.5 5.1C7.6 4.6 8 4.3 8.5 4.4C9 4.4 9.3 4.8 9.3 5.3C9.3 5.6 9.3 5.9 9.3 6.3H10.2C10.8 6.3 11.2 6.7 11.2 7.2C11.2 7.7 10.8 8.1 10.2 8.1H9.4C9.4 8.4 9.4 8.7 9.4 9C9.4 9.6 9 10 8.5 10C8 10 7.6 9.6 7.6 9V8.1H6.6C6 8.1 5.6 7.7 5.6 7.1C5.6 6.6 6.1 6.2 6.6 6.2ZM12.1 17.4H8.4C7.2 17.4 5.9 17.4 4.7 17.4C4 17.4 3.5 16.7 3.8 16.1C4 15.7 4.3 15.5 4.7 15.5H12.1C12.7 15.5 13.1 15.9 13.1 16.4C13.1 17 12.7 17.4 12.1 17.4ZM12.4 13.7C12.3 13.7 12.2 13.7 12.1 13.7H8.4C7.2 13.7 5.9 13.7 4.7 13.7C4 13.7 3.6 13.1 3.8 12.5C3.9 12.1 4.3 11.9 4.7 11.9H12.2C12.7 11.9 13.1 12.3 13.1 12.7C13.2 13.1 12.8 13.6 12.4 13.7ZM18.7 6.2C18.7 6.7 18.3 7.1 17.8 7.1C17.5 7.1 17.2 7.1 16.8 7.1V2.8C16.8 2.1 17.4 1.7 18 1.9C18.4 2 18.6 2.4 18.6 2.8C18.8 3.9 18.8 5.1 18.7 6.2Z" fill="#0D257B"/>
</svg>
