<svg width="18" height="20" viewBox="0 0 18 20" fill="none" xmlns="http://www.w3.org/2000/svg">
<path d="M16.6468 11.2269L15.2883 6.16463C14.3022 2.49162 10.6275 0.342169 7.0812 1.36343C4.70974 2.04624 2.89503 4.02733 2.36074 6.51558L1.30858 11.4143C0.880212 13.4107 2.09527 15.3886 4.02294 15.8323C4.27769 15.8909 4.53779 15.9204 4.7989 15.9204H5.59565C5.98849 17.9244 7.87594 19.2192 9.81098 18.8124C11.2181 18.5167 12.3175 17.3777 12.6034 15.9204H13.2028C15.1774 15.9204 16.7782 14.2629 16.7782 12.2179C16.7782 11.8829 16.7343 11.5497 16.6478 11.2269H16.6468ZM9.09938 17.4017C8.1937 17.3978 7.38757 16.8049 7.0859 15.9204H11.1132C10.8112 16.8049 10.0054 17.3975 9.09938 17.4017ZM14.9102 13.5617C14.5063 14.1167 13.8731 14.442 13.2017 14.4392H4.7989C3.61401 14.4389 2.6537 13.4443 2.65403 12.2172C2.65403 12.0551 2.67113 11.8937 2.70531 11.7354L3.75647 6.83598C4.38394 3.91312 7.18042 2.07054 10.0027 2.72038C11.8902 3.15499 13.3925 4.63134 13.9103 6.56071L15.2689 11.6229C15.4512 12.2919 15.3181 13.0101 14.9102 13.5617Z" fill="#0D257B"/>
</svg>
