<svg width="18" height="18" viewBox="0 0 18 18" fill="none" xmlns="http://www.w3.org/2000/svg">
<g clip-path="url(#clip0_2093_5066)">
<path d="M12.704 7.54583C9.84536 7.54583 7.51897 9.87188 7.51897 12.7309C7.51897 15.574 9.8457 17.8872 12.704 17.8872C15.5624 17.8872 17.8891 15.5611 17.8891 12.7021C17.8891 9.85903 15.5624 7.54583 12.704 7.54583ZM12.704 16.4056C10.6617 16.4056 9.00022 14.7569 9.00022 12.7309C9.00022 10.6885 10.6617 9.02708 12.704 9.02708C14.7464 9.02708 16.4079 10.676 16.4079 12.7017C16.4075 14.7441 14.7461 16.4056 12.704 16.4056ZM13.9683 12.9191C14.2579 13.2087 14.2579 13.6767 13.9683 13.9667C13.8238 14.1111 13.6342 14.1837 13.4447 14.1837C13.2551 14.1837 13.0655 14.1111 12.9211 13.9667L12.1804 13.226C12.0412 13.0868 11.9634 12.8986 11.9634 12.7024V11.2205C11.9634 10.8115 12.2947 10.4799 12.704 10.4799C13.1134 10.4799 13.4447 10.8115 13.4447 11.2205V12.3951L13.9683 12.9191ZM17.8891 5.29444V6.77604C17.8891 7.18507 17.5579 7.51667 17.1485 7.51667C16.7388 7.51667 16.4079 7.18472 16.4079 6.77604V5.29444C16.4079 4.0691 15.411 3.07222 14.1856 3.07222H3.81515C2.5898 3.07222 1.59293 4.0691 1.59293 5.29444V6.03507H8.25959C8.66862 6.03507 9.00022 6.36701 9.00022 6.77569C9.00022 7.18438 8.66827 7.51632 8.25959 7.51632H1.59293V14.183C1.59293 15.4083 2.5898 16.4052 3.81515 16.4052H6.778C7.18702 16.4052 7.51862 16.7372 7.51862 17.1458C7.51862 17.5545 7.18702 17.8872 6.778 17.8872H3.81515C1.77279 17.8872 0.111328 16.2257 0.111328 14.1833V5.29444C0.111328 3.25243 1.77279 1.59097 3.81515 1.59097H4.55577V0.85C4.55577 0.441319 4.88772 0.109375 5.2964 0.109375C5.70508 0.109375 6.03702 0.441319 6.03702 0.85V1.59063H11.9631V0.85C11.9631 0.441319 12.2943 0.109375 12.704 0.109375C13.1134 0.109375 13.4447 0.441319 13.4447 0.85V1.59063H14.1853C16.2276 1.59097 17.8891 3.25243 17.8891 5.29444Z" fill="#0D257B"/>
</g>
<defs>
<clipPath id="clip0_2093_5066">
<rect width="17.7778" height="17.7778" fill="white" transform="translate(0.111328 0.109375)"/>
</clipPath>
</defs>
</svg>
