<svg width="22" height="23" viewBox="0 0 22 23" fill="none" xmlns="http://www.w3.org/2000/svg">
<path d="M1 15.7803C1 12.9523 1 11.5373 1.879 10.6593C2.757 9.78027 4.172 9.78027 7 9.78027H15C17.828 9.78027 19.243 9.78027 20.121 10.6593C21 11.5373 21 12.9523 21 15.7803C21 18.6083 21 20.0233 20.121 20.9013C19.243 21.7803 17.828 21.7803 15 21.7803H7C4.172 21.7803 2.757 21.7803 1.879 20.9013C1 20.0233 1 18.6083 1 15.7803Z" stroke="#0D257B" stroke-width="2"/>
<path d="M5 9.77841V7.77841C4.99856 6.31701 5.53053 4.90532 6.49606 3.80832C7.4616 2.71131 8.79432 2.0044 10.2441 1.82029C11.6938 1.63617 13.1609 1.98749 14.37 2.80832C15.5791 3.62915 16.4471 4.86304 16.811 6.27841" stroke="#0D257B" stroke-width="2" stroke-linecap="round"/>
<path d="M7 15.7803H7.009M10.991 15.7803H11M14.991 15.7803H15" stroke="#0D257B" stroke-width="2" stroke-linecap="round" stroke-linejoin="round"/>
</svg>
