<svg width="25" height="25" viewBox="0 0 25 25" fill="none" xmlns="http://www.w3.org/2000/svg">
<path d="M7.51 13.02C10 13.02 12.02 11 12.02 8.51C12.02 6.96 11.23 5.59 10.03 4.78C9.31 4.29 8.44 4 7.5 4C5.01 4 3 6.01 3 8.5C3 11 5.02 13.02 7.51 13.02Z" fill="#0D257B"/>
<path d="M14.99 8.24C15.71 8.73 16.59 9.02 17.53 9.02C20.02 9.01 22.03 6.99 22.04 4.51C22.04 2.02 20.02 0 17.53 0H17.52H17.5C15.01 0 13 2.01 13 4.5C13 6.06 13.79 7.43 14.99 8.24Z" fill="#0D257B"/>
<path d="M15.02 22.54V23.04C15.02 23.59 14.58 24.04 14.02 24.04H1C0.45 24.04 0 23.59 0 23.04V22.5C0 18.36 3.36 15 7.5 15C9.37 15 11.08 15.69 12.4 16.83C12.41 16.84 12.42 16.85 12.43 16.85C12.58 16.99 12.73 17.13 12.87 17.27C12.9 17.3 12.92 17.32 12.94 17.35C13.07 17.48 13.19 17.62 13.31 17.76C13.45 17.93 13.59 18.11 13.72 18.3C13.72 18.31 13.73 18.33 13.74 18.34C13.86 18.53 13.98 18.72 14.09 18.92C14.1 18.93 14.1 18.93 14.1 18.94C14.38 19.44 14.6 19.98 14.75 20.55C14.71 20.7 14.7 20.85 14.7 21C14.7 21.41 14.81 21.8 15 22.13C15.02 22.27 15.02 22.4 15.02 22.54Z" fill="#0D257B"/>
<path d="M21.5199 16.2795C21.1099 15.9195 20.5799 15.6995 19.9999 15.6995C18.7299 15.6995 17.6899 16.7395 17.6899 18.0095V18.6895H17.0099C16.7399 18.6895 16.4899 18.7395 16.2499 18.8195C15.3199 16.6195 13.5999 14.8595 11.4199 13.8795C11.6499 13.5595 11.8999 13.2695 12.1699 12.9995C12.2199 12.9295 12.2599 12.8495 12.3299 12.7795C12.8399 12.3295 13.4099 11.9595 14.0099 11.6695C14.1399 11.6095 14.2699 11.5595 14.3999 11.4995C14.4399 11.4895 14.4899 11.4695 14.5299 11.4495C15.0299 11.2595 15.5599 11.1095 16.1099 11.0395C16.3999 10.9995 16.7099 10.9795 17.0099 10.9795C20.8799 10.9695 24.0399 14.1195 24.0399 17.9895V18.0295C24.0399 18.3395 23.8899 18.5995 23.6699 18.7895C23.4599 18.7295 23.2299 18.6895 22.9899 18.6895H22.3099V18.0095C22.3099 17.4395 22.0999 16.9195 21.7499 16.5095" fill="#0D257B"/>
<path d="M24 21C24 21.56 23.55 22.01 22.99 22.01H21.01V23.99C21.01 24.55 20.56 25 20 25C19.44 25 18.99 24.55 18.99 23.99V22.01H17.01C16.45 22.01 16 21.56 16 21C16 20.44 16.45 19.99 17.01 19.99H18.99V18.01C18.99 17.45 19.44 17 20 17C20.56 17 21.01 17.45 21.01 18.01V19.99H22.99C23.55 19.99 24 20.44 24 21Z" fill="#0D257B"/>
</svg>
