<svg width="24" height="25" viewBox="0 0 24 25" fill="none" xmlns="http://www.w3.org/2000/svg">
<path d="M7.5 12.9998C5.01469 12.9998 3 10.9852 3 8.49984C3 6.01453 5.01469 3.99984 7.5 3.99984C9.98531 3.99984 12 6.01453 12 8.49984C11.9972 10.9842 9.98391 12.997 7.5 12.9998ZM7.5 6C6.11906 6 5.00016 7.11937 5.00016 8.49984C5.00016 9.88078 6.11953 10.9997 7.5 10.9997C8.88047 10.9997 9.99984 9.88031 9.99984 8.49984C9.99984 7.11937 8.88094 6 7.5 6ZM15 23.0002V22.5C15 18.3577 11.6423 15 7.5 15C3.35766 15 0 18.3577 0 22.5V23.0002C0 23.5523 0.447656 24 0.999844 24C1.55203 24 1.99969 23.5523 1.99969 23.0002V22.5C1.99969 19.4625 4.46203 17.0002 7.49953 17.0002C10.537 17.0002 12.9998 19.4625 12.9998 22.5V23.0002C12.9998 23.5523 13.4475 24 13.9997 24C14.5523 24 15 23.5523 15 23.0002ZM24 18C24 14.1342 20.8659 11.0002 16.9997 11.0002C15.278 11.0002 13.6163 11.6348 12.3328 12.7828C11.918 13.1475 11.8772 13.7794 12.2419 14.1942C12.6066 14.6091 13.2384 14.6498 13.6533 14.2852C13.658 14.2809 13.6627 14.2767 13.6673 14.273C15.7256 12.4322 18.8869 12.6084 20.7272 14.6672C21.547 15.5841 22.0003 16.7705 22.0003 18C22.0003 18.5522 22.448 18.9998 23.0002 18.9998C23.5523 18.9998 24 18.5522 24 18ZM17.4998 9C15.0145 9 12.9998 6.98531 12.9998 4.5C12.9998 2.01469 15.0145 0 17.4998 0C19.9852 0 21.9998 2.01469 21.9998 4.5C21.997 6.98391 19.9842 8.99719 17.4998 9ZM17.4998 2.00016C16.1194 2.00016 15 3.11906 15 4.5C15 5.88094 16.1194 6.99984 17.4998 6.99984C18.8803 6.99984 19.9997 5.88047 19.9997 4.5C19.9997 3.11953 18.8808 2.00016 17.4998 2.00016Z" fill="#0D257B"/>
<path d="M24 21C24 21.56 23.55 22.01 22.99 22.01H21.01V23.99C21.01 24.55 20.56 25 20 25C19.44 25 18.99 24.55 18.99 23.99V22.01H17.01C16.45 22.01 16 21.56 16 21C16 20.44 16.45 19.99 17.01 19.99H18.99V18.01C18.99 17.45 19.44 17 20 17C20.56 17 21.01 17.45 21.01 18.01V19.99H22.99C23.55 19.99 24 20.44 24 21Z" fill="#0D257B"/>
</svg>
