<svg width="75" height="21" viewBox="0 0 75 21" fill="none" xmlns="http://www.w3.org/2000/svg">
<g clip-path="url(#clip0_2964_9129)">
<path d="M74.6666 2.19354C74.4545 3.1812 74.2056 4.16324 74.0416 5.15931C73.4676 8.6161 72.9274 12.0785 72.3647 15.5381C72.2403 16.2957 71.8783 16.6099 71.1091 16.6324C70.323 16.652 69.5368 16.638 68.7931 16.638C68.5584 15.6335 70.6906 1.67446 71.2279 0.560547C72.3364 0.622275 73.5015 0.684004 74.6666 0.748538C74.6666 1.22834 74.6666 1.71094 74.6666 2.19354Z" fill="#159AD6"/>
<path d="M-0.00012207 16.2681C0.112992 15.3899 0.200655 14.5453 0.333565 13.7064C0.950037 9.80064 1.58065 5.90053 2.20843 2.00041C2.23954 1.79559 2.30175 1.59918 2.33851 1.39435C2.45163 0.799515 2.80511 0.502097 3.41875 0.504902C5.63862 0.516126 7.85848 0.499291 10.0755 0.558213C10.6835 0.575048 11.3085 0.754622 11.8853 0.967865C13.5227 1.57673 14.3116 2.73835 14.1759 4.46955C14.1024 5.41792 13.9101 6.38313 13.6047 7.2838C12.7394 9.8287 10.7316 10.8528 8.18651 11.0464C7.42865 11.1025 6.6623 11.0633 5.89878 11.0773C4.99387 11.0941 4.81006 11.2541 4.66866 12.1183C4.50182 13.1368 4.3576 14.1553 4.17662 15.171C3.98715 16.2204 3.71002 16.4421 2.65806 16.4505C1.92847 16.4561 1.20172 16.4477 0.472129 16.4364C0.37881 16.4336 0.282663 16.3691 -0.00012207 16.2681ZM6.17591 3.78212C5.90726 5.28324 5.67538 6.58796 5.42653 7.99929C6.09107 7.99929 6.63685 8.01893 7.18263 7.99649C8.88499 7.92634 9.71921 7.04531 9.68528 5.37583C9.67114 4.62387 9.4138 4.19177 8.66159 4.03464C7.89807 3.87191 7.10062 3.8691 6.17591 3.78212Z" fill="#293D81"/>
<path d="M45.387 16.3983C44.0975 16.3983 42.8985 16.3983 41.5892 16.3983C41.5892 15.9213 41.5326 15.4864 41.5977 15.0683C42.2679 10.7979 42.9607 6.53299 43.6479 2.26531C43.6903 1.99315 43.7497 1.72659 43.8147 1.45723C43.9872 0.730521 44.205 0.517278 44.9374 0.514472C47.1205 0.506054 49.3064 0.503248 51.4895 0.556559C52.0636 0.570588 52.6405 0.766997 53.2004 0.932541C54.965 1.46004 55.7511 2.501 55.6521 4.712C55.6154 5.52008 55.4004 6.34219 55.1488 7.11941C54.3513 9.58855 52.5132 10.8371 49.6429 11.0504C48.919 11.1037 48.1866 11.0644 47.4598 11.0756C46.4616 11.0925 46.2863 11.2552 46.1279 12.2541C45.9441 13.4045 45.7575 14.5549 45.5652 15.7053C45.5341 15.9045 45.4662 16.0981 45.387 16.3983ZM46.7218 7.99202C47.5079 7.99202 48.1583 8.01728 48.8087 7.98641C50.4065 7.91346 51.1671 7.04646 51.1304 5.45274C51.1134 4.72884 50.7712 4.28552 50.1265 4.05544C49.2612 3.74679 48.3817 3.80572 47.4655 3.93198C47.2166 5.29562 46.9819 6.56947 46.7218 7.99202Z" fill="#159AD6"/>
<path d="M23.0384 6.63767C23.1204 6.46932 23.2477 6.20558 23.4089 5.87168C24.6333 6.05687 25.9257 5.49851 27.0964 6.29536C26.6043 9.38739 26.1378 12.3672 25.6542 15.3442C25.5269 16.127 25.1763 16.4272 24.4071 16.4469C23.5531 16.4665 22.6991 16.4525 21.8111 16.4525C21.7602 16.0176 21.7263 15.7202 21.6895 15.4199C21.008 15.737 20.3576 16.1635 19.645 16.3571C14.6369 17.7039 12.745 13.9834 13.3926 10.8577C14.1448 7.22409 17.6909 4.78863 21.1777 5.72297C21.814 5.89413 22.3852 6.30939 23.0384 6.63767ZM16.9501 11.1102C16.9444 12.948 17.5156 13.6579 18.9098 13.888C20.5329 14.1545 22.3513 12.8273 22.487 11.1915C22.5492 10.4396 22.3824 9.65395 21.7178 9.15451C20.7846 8.45586 19.7355 8.34923 18.6864 8.85709C17.6174 9.37617 16.9981 10.2376 16.9501 11.1102Z" fill="#293D81"/>
<path d="M64.3534 6.75944C64.4694 6.02712 64.8342 5.84474 65.4082 5.87561C66.135 5.91489 66.8646 5.86158 67.5913 5.89525C68.2304 5.92611 68.4566 6.21511 68.3548 6.8352C67.8939 9.67751 67.4245 12.5198 66.9494 15.3621C66.8221 16.1197 66.463 16.4312 65.6967 16.448C64.8709 16.4676 64.0452 16.4508 63.1544 16.4508C63.0724 16.0804 63.0102 15.7942 62.9423 15.4716C62.8688 15.4856 62.7698 15.48 62.6991 15.5249C61.2767 16.4312 59.7723 16.7847 58.0586 16.5266C56.1046 16.2319 54.9819 14.7196 54.6991 13.1876C53.9582 9.15002 57.2583 5.32847 61.2824 5.50804C62.3937 5.55855 63.375 5.90928 64.3534 6.75944ZM61.3135 8.57763C59.826 8.56921 58.4687 9.56528 58.2962 11.0187C58.0615 12.9912 58.9183 13.9199 60.7055 13.9115C62.012 13.9059 62.9961 13.2101 63.5503 12.012C64.4043 10.1741 63.3637 8.58885 61.3135 8.57763Z" fill="#159AD6"/>
<path d="M28.4481 20.4454C28.0267 19.8618 28.335 19.5363 28.5725 19.2024C29.4124 18.024 30.2551 16.8455 31.1402 15.6081C30.4106 13.4673 29.6669 11.2956 28.926 9.12104C28.7139 8.50375 28.4792 7.89208 28.3039 7.26638C28.2077 6.92407 28.2134 6.5537 28.1625 6.09073C29.3813 5.95325 30.4757 5.95886 31.5729 6.06829C32.0932 6.1216 32.1922 6.57614 32.3166 6.96054C32.7606 8.3326 33.1819 9.71026 33.6174 11.0879C33.6796 11.2815 33.756 11.4695 33.8691 11.7697C34.0812 11.4948 34.2452 11.304 34.3838 11.0963C35.2717 9.74113 36.2106 8.41677 37.0137 7.01666C37.5312 6.11599 38.1703 5.75123 39.1968 5.86346C39.9405 5.94483 40.6984 5.8803 41.3516 5.8803C41.7305 6.51441 41.3459 6.80903 41.1225 7.12889C38.9705 10.2097 36.8129 13.2849 34.6552 16.3601C33.903 17.4319 33.1112 18.4785 32.4099 19.584C31.9659 20.2855 31.4145 20.5632 30.6001 20.4959C29.8535 20.4314 29.1013 20.4566 28.4481 20.4454Z" fill="#293D81"/>
</g>
<defs>
<clipPath id="clip0_2964_9129">
<rect width="74.6667" height="20" fill="white" transform="translate(0 0.5)"/>
</clipPath>
</defs>
</svg>
