<svg width="24" height="25" viewBox="0 0 24 25" fill="none" xmlns="http://www.w3.org/2000/svg">
<g clip-path="url(#clip0_1_34283)">
<path d="M20.7751 1.56543H18.3751C18.1568 1.56726 17.9481 1.65476 17.7937 1.80909C17.6394 1.96341 17.5519 2.17219 17.5501 2.39043V3.32843C17.5501 3.77843 17.9251 4.15243 18.3751 4.15243C18.8251 4.15243 19.2001 3.77843 19.2001 3.32843V3.21543H20.3631V9.74043C20.3631 12.0654 18.4881 13.9404 16.1631 13.9404H15.7501C15.1983 13.9414 14.6517 13.8333 14.1417 13.6226C13.6317 13.4119 13.1684 13.1025 12.7782 12.7123C12.388 12.3221 12.0787 11.8588 11.8679 11.3488C11.6572 10.8388 11.5492 10.2922 11.5501 9.74043V3.21543H12.7131V3.32843C12.7131 3.77843 13.0881 4.15343 13.5381 4.15343C13.9881 4.15343 14.3621 3.77843 14.3621 3.32843V2.39043C14.3603 2.17219 14.2728 1.96341 14.1184 1.80909C13.9641 1.65476 13.7553 1.56726 13.5371 1.56543H11.1371C10.4251 1.56543 9.82509 2.16543 9.82509 2.87843V9.77843C9.82509 12.9654 12.3751 15.5534 15.5631 15.6654V20.3904C15.5631 21.5904 14.6631 22.5654 13.5371 22.5654H8.02609C6.82609 22.5654 5.85109 21.5904 5.85109 20.3904V17.3154C7.20109 16.9404 8.21309 15.7404 8.21309 14.2774C8.21309 12.5534 6.78809 11.1274 5.06309 11.1274C3.33809 11.1274 1.91309 12.5534 1.91309 14.2774C1.91309 15.7034 2.88809 16.9404 4.20109 17.3154V20.3904C4.20043 20.8978 4.29987 21.4003 4.49372 21.8691C4.68757 22.338 4.97202 22.764 5.33077 23.1227C5.68952 23.4815 6.11553 23.7659 6.58438 23.9598C7.05324 24.1536 7.55574 24.2531 8.06309 24.2524H13.6131C15.6761 24.2524 17.3261 22.5284 17.3261 20.3904V15.5154C20.0261 14.9904 22.0891 12.5904 22.0891 9.74043V2.87843C22.0891 2.12843 21.4881 1.56543 20.7751 1.56543ZM3.60009 14.2404C3.60009 13.4154 4.27509 12.7784 5.06209 12.7784C5.84909 12.7784 6.52509 13.4534 6.52509 14.2404C6.50803 14.6168 6.3465 14.9722 6.07409 15.2325C5.80169 15.4929 5.43939 15.6382 5.06259 15.6382C4.68578 15.6382 4.32348 15.4929 4.05108 15.2325C3.77867 14.9722 3.61714 14.6168 3.60009 14.2404Z" fill="#0D257B"/>
</g>
<defs>
<clipPath id="clip0_1_34283">
<rect width="24" height="24" fill="white" transform="translate(0 0.889648)"/>
</clipPath>
</defs>
</svg>
