<svg width="24" height="24" viewBox="0 0 24 24" fill="none" xmlns="http://www.w3.org/2000/svg">
<path d="M11.9775 7.3875C12.5574 7.3875 13.0275 6.9174 13.0275 6.3375C13.0275 5.75761 12.5574 5.2875 11.9775 5.2875C11.3976 5.2875 10.9275 5.75761 10.9275 6.3375C10.9275 6.9174 11.3976 7.3875 11.9775 7.3875Z" fill="#A40104"/>
<path d="M14.25 17.25H12.75V9.075H10.5C10.3011 9.075 10.1103 9.15402 9.96967 9.29467C9.82902 9.43533 9.75 9.62609 9.75 9.825C9.75 10.0239 9.82902 10.2147 9.96967 10.3553C10.1103 10.496 10.3011 10.575 10.5 10.575H11.25V17.25H9.75C9.55109 17.25 9.36033 17.329 9.21967 17.4697C9.07902 17.6103 9 17.8011 9 18C9 18.1989 9.07902 18.3897 9.21967 18.5303C9.36033 18.671 9.55109 18.75 9.75 18.75H14.25C14.4489 18.75 14.6397 18.671 14.7803 18.5303C14.921 18.3897 15 18.1989 15 18C15 17.8011 14.921 17.6103 14.7803 17.4697C14.6397 17.329 14.4489 17.25 14.25 17.25Z" fill="#A40104"/>
<path d="M12 24C9.62663 24 7.30655 23.2962 5.33316 21.9776C3.35977 20.6591 1.8217 18.7849 0.913451 16.5922C0.00519937 14.3995 -0.232441 11.9867 0.230582 9.65892C0.693605 7.33115 1.83649 5.19295 3.51472 3.51472C5.19295 1.83649 7.33115 0.693605 9.65892 0.230582C11.9867 -0.232441 14.3995 0.00519937 16.5922 0.913451C18.7849 1.8217 20.6591 3.35977 21.9776 5.33316C23.2962 7.30655 24 9.62663 24 12C24 15.1826 22.7357 18.2348 20.4853 20.4853C18.2348 22.7357 15.1826 24 12 24ZM12 1.50001C9.9233 1.50001 7.89323 2.11582 6.16652 3.26957C4.4398 4.42333 3.09399 6.0632 2.29927 7.98183C1.50455 9.90045 1.29661 12.0117 1.70176 14.0485C2.1069 16.0853 3.10693 17.9562 4.57538 19.4246C6.04383 20.8931 7.91476 21.8931 9.95156 22.2982C11.9884 22.7034 14.0996 22.4955 16.0182 21.7007C17.9368 20.906 19.5767 19.5602 20.7304 17.8335C21.8842 16.1068 22.5 14.0767 22.5 12C22.5 9.21523 21.3938 6.54451 19.4246 4.57538C17.4555 2.60625 14.7848 1.50001 12 1.50001Z" fill="#A40104"/>
</svg>
