<svg width="40" height="40" viewBox="0 0 40 40" fill="none" xmlns="http://www.w3.org/2000/svg">
<circle cx="20" cy="20" r="20" fill="#0D257B" fill-opacity="0.03"/>
<g clip-path="url(#clip0_2093_4770)">
<path d="M20.0011 19.9983C22.4556 19.9983 24.4455 18.0083 24.4455 15.5538C24.4455 13.0993 22.4556 11.1094 20.0011 11.1094C17.5466 11.1094 15.5566 13.0993 15.5566 15.5538C15.5591 18.0073 17.5476 19.9958 20.0011 19.9983ZM20.0011 12.591C21.6375 12.591 22.9639 13.9177 22.9639 15.5538C22.9639 17.1899 21.6372 18.5167 20.0011 18.5167C18.365 18.5167 17.0382 17.1899 17.0382 15.5538C17.0382 13.9177 18.3646 12.591 20.0011 12.591Z" fill="#0D257B"/>
<path d="M20.0007 21.4805C16.3204 21.4846 13.3382 24.4669 13.334 28.1471C13.334 28.5562 13.6656 28.8878 14.0746 28.8878C14.4836 28.8878 14.8152 28.5562 14.8152 28.1471C14.8152 25.2836 17.1368 22.9621 20.0003 22.9621C22.8638 22.9621 25.1854 25.2836 25.1854 28.1471C25.1854 28.5562 25.517 28.8878 25.926 28.8878C26.335 28.8878 26.6666 28.5562 26.6666 28.1471C26.6632 24.4669 23.6809 21.4843 20.0007 21.4805Z" fill="#0D257B"/>
</g>
<defs>
<clipPath id="clip0_2093_4770">
<rect width="13.3333" height="17.7778" fill="white" transform="translate(13.334 11.1094)"/>
</clipPath>
</defs>
</svg>
