<svg width="21" height="24" viewBox="0 0 21 24" fill="none" xmlns="http://www.w3.org/2000/svg">
<path d="M20.1429 23.0002C20.1429 23.5533 19.6925 24 19.1359 24H1.00745C0.450378 24 0 23.5528 0 23.0002C0 19.4752 2.05644 16.4259 5.03583 14.9503V18.2784C4.43674 18.6244 4.02885 19.2623 4.02885 20.0016C4.02885 21.1064 4.93008 22.0017 6.04328 22.0017C7.15648 22.0017 8.05771 21.1069 8.05771 20.0016C8.05771 19.2638 7.64982 18.6258 7.05073 18.2784V14.2327C7.69939 14.0855 8.37212 14.0006 9.06516 14.0006H11.0796C11.42 14.0006 11.7552 14.0227 12.0866 14.0597V18.1847C10.9172 18.5986 10.0721 19.6987 10.0721 21.0005V22.0003C10.0721 22.5534 10.5225 23.0002 11.0791 23.0002C11.6357 23.0002 12.0856 22.553 12.0856 21.9998V21C12.0856 20.4478 12.5369 20.0002 13.0926 20.0002C13.6483 20.0002 14.0996 20.4483 14.0996 21V21.9998C14.0996 22.553 14.55 22.9997 15.1066 22.9997C15.6636 22.9997 16.1135 22.5525 16.1135 21.9998V21C16.1135 19.6978 15.2685 18.5981 14.0991 18.1842V14.5252C17.6148 15.7641 20.1429 19.0898 20.1429 23.0002ZM16.114 6C16.114 2.69109 13.4037 0 10.0712 0C6.73868 0 4.02838 2.69109 4.02838 6C4.02838 9.30891 6.73868 12 10.0712 12C13.4037 12 16.114 9.30891 16.114 6Z" fill="#0D257B"/>
</svg>
