<svg width="22" height="26" viewBox="0 0 22 26" fill="none" xmlns="http://www.w3.org/2000/svg">
<path d="M21.6207 3.79001C21.6224 3.35431 21.5198 2.92452 21.3215 2.53657C21.1232 2.14862 20.8349 1.81377 20.4807 1.56001C20.2916 1.4147 20.0828 1.29687 19.8607 1.21001C19.4865 1.07019 19.0902 0.999053 18.6907 1.00001H5.2207C4.72937 1.10226 4.24764 1.24611 3.7807 1.43001C2.94724 1.76434 2.23508 2.34407 1.7386 3.09236C1.24213 3.84064 0.984789 4.72214 1.0007 5.62001C1.0007 11.75 1.0007 17.88 1.0007 24C0.99351 24.2271 1.06387 24.4499 1.2002 24.6316C1.33652 24.8134 1.53068 24.9433 1.7507 25H2.1107C2.33443 24.9472 2.53314 24.819 2.67338 24.6368C2.81363 24.4547 2.88684 24.2298 2.8807 24C2.89856 23.7675 3.00501 23.5507 3.17806 23.3944C3.35111 23.2381 3.57757 23.1542 3.8107 23.16C4.04278 23.1543 4.26808 23.2386 4.43952 23.3951C4.61096 23.5516 4.71529 23.7684 4.7307 24C4.72404 24.2284 4.79583 24.4523 4.93411 24.6342C5.07239 24.8162 5.26882 24.9453 5.49069 25H5.8707C6.09257 24.9453 6.289 24.8162 6.42728 24.6342C6.56556 24.4523 6.63735 24.2284 6.6307 24C6.64856 23.7675 6.75501 23.5507 6.92806 23.3944C7.10111 23.2381 7.32757 23.1542 7.5607 23.16C7.79278 23.1543 8.01808 23.2386 8.18952 23.3951C8.36096 23.5516 8.46529 23.7684 8.4807 24C8.47404 24.2284 8.54583 24.4523 8.68411 24.6342C8.82239 24.8162 9.01882 24.9453 9.24069 25H9.6207C9.84257 24.9453 10.039 24.8162 10.1773 24.6342C10.3156 24.4523 10.3874 24.2284 10.3807 24C10.4045 23.7713 10.5122 23.5595 10.6831 23.4055C10.8539 23.2515 11.0757 23.1663 11.3057 23.1663C11.5357 23.1663 11.7575 23.2515 11.9283 23.4055C12.0992 23.5595 12.2069 23.7713 12.2307 24C12.2246 24.2298 12.2978 24.4547 12.438 24.6368C12.5783 24.819 12.777 24.9472 13.0007 25H13.3807C13.6026 24.9453 13.799 24.8162 13.9373 24.6342C14.0756 24.4523 14.1474 24.2284 14.1407 24C14.1561 23.7684 14.2604 23.5516 14.4319 23.3951C14.6033 23.2386 14.8286 23.1543 15.0607 23.16C15.2955 23.1516 15.5245 23.2343 15.6997 23.3909C15.8749 23.5474 15.9828 23.7657 16.0007 24C15.9935 24.2271 16.0639 24.4499 16.2002 24.6316C16.3365 24.8134 16.5307 24.9433 16.7507 25H17.1407C17.3845 24.9262 17.594 24.7678 17.7315 24.5533C17.869 24.3389 17.9254 24.0824 17.8907 23.83C17.8907 20.94 17.8907 14.37 17.8907 10H18.8907C19.6246 9.99216 20.3262 9.69644 20.8442 9.1765C21.3623 8.65656 21.6555 7.95398 21.6607 7.22001C21.6474 6.07334 21.634 4.93001 21.6207 3.79001ZM16.0007 21.4C15.5283 21.232 15.0195 21.1935 14.5271 21.2884C14.0348 21.3834 13.5768 21.6084 13.2007 21.94C12.6798 21.4856 12.0119 21.2353 11.3207 21.2353C10.6295 21.2353 9.96161 21.4856 9.44069 21.94C8.91792 21.4895 8.25078 21.2418 7.5607 21.2418C6.87061 21.2418 6.20347 21.4895 5.6807 21.94C5.30247 21.6121 4.84507 21.3888 4.35389 21.2924C3.86271 21.1959 3.35484 21.2295 2.8807 21.39V5.77001C2.86958 5.38531 2.93732 5.0024 3.07976 4.64487C3.22219 4.28733 3.4363 3.96274 3.70891 3.69106C3.98152 3.41939 4.30685 3.2064 4.66487 3.0652C5.0229 2.92399 5.40603 2.85757 5.7907 2.87001H16.1207C16.0627 3.17743 16.0227 3.48795 16.0007 3.80001C16.0007 4.92001 16.0007 6.05001 16.0007 7.17001V21.4ZM19.7407 7.22001C19.7387 7.44958 19.65 7.66991 19.4923 7.83681C19.3347 8.00372 19.1198 8.10488 18.8907 8.12001H17.8907V6.78001C17.8907 5.78001 17.8907 4.78001 17.8907 3.83001C17.9077 3.59752 18.0105 3.37964 18.1791 3.21866C18.3476 3.05768 18.57 2.96508 18.8031 2.95885C19.0361 2.95262 19.2631 3.0332 19.4401 3.18494C19.617 3.33668 19.7313 3.54876 19.7607 3.78001C19.7507 4.92001 19.7507 6.07001 19.7407 7.22001Z" fill="#0D257B" stroke="#0D257B" stroke-width="0.25"/>
<path d="M5.72042 14.6809H13.0704C13.1702 14.6909 13.2707 14.6909 13.3704 14.6809C13.5973 14.6372 13.7998 14.5106 13.9385 14.3257C14.0771 14.1409 14.142 13.911 14.1204 13.6809C14.1002 13.4493 13.9931 13.2339 13.8206 13.0781C13.648 12.9223 13.4229 12.8375 13.1904 12.8409H5.72042C5.58951 12.8274 5.45721 12.8415 5.33209 12.8823C5.20697 12.9231 5.09181 12.9897 4.99408 13.0779C4.89634 13.166 4.8182 13.2737 4.76471 13.3939C4.71123 13.5142 4.68359 13.6443 4.68359 13.7759C4.68359 13.9075 4.71123 14.0377 4.76471 14.1579C4.8182 14.2782 4.89634 14.3859 4.99408 14.474C5.09181 14.5622 5.20697 14.6288 5.33209 14.6696C5.45721 14.7104 5.58951 14.7245 5.72042 14.7109V14.6809Z" fill="#0D257B"/>
<path d="M13.1311 16.5605H5.75105C5.55879 16.5482 5.36754 16.5967 5.20427 16.6989C5.041 16.8012 4.91396 16.9521 4.84105 17.1304C4.77687 17.2737 4.74999 17.4309 4.76293 17.5873C4.77587 17.7438 4.8282 17.8944 4.91505 18.0252C5.0019 18.156 5.12044 18.2626 5.25962 18.3352C5.39881 18.4078 5.55411 18.444 5.71105 18.4405H13.1311C13.262 18.454 13.3943 18.4399 13.5194 18.3991C13.6445 18.3583 13.7597 18.2917 13.8574 18.2035C13.9551 18.1154 14.0333 18.0077 14.0868 17.8875C14.1402 17.7672 14.1679 17.6371 14.1679 17.5054C14.1679 17.3738 14.1402 17.2437 14.0868 17.1234C14.0333 17.0032 13.9551 16.8955 13.8574 16.8074C13.7597 16.7192 13.6445 16.6526 13.5194 16.6118C13.3943 16.571 13.262 16.5569 13.1311 16.5705V16.5605Z" fill="#0D257B"/>
<path d="M7.63066 9.05987H8.50066V9.99987C8.50066 10.1233 8.52498 10.2455 8.57222 10.3596C8.61946 10.4736 8.6887 10.5773 8.77598 10.6646C8.86327 10.7518 8.9669 10.8211 9.08094 10.8683C9.19499 10.9156 9.31722 10.9399 9.44066 10.9399C9.56411 10.9399 9.68634 10.9156 9.80039 10.8683C9.91443 10.8211 10.0181 10.7518 10.1053 10.6646C10.1926 10.5773 10.2619 10.4736 10.3091 10.3596C10.3564 10.2455 10.3807 10.1233 10.3807 9.99987V9.05987H11.2607C11.51 9.05987 11.7491 8.96083 11.9253 8.78455C12.1016 8.60827 12.2007 8.36917 12.2007 8.11987C12.2007 7.87057 12.1016 7.63147 11.9253 7.45519C11.7491 7.27891 11.51 7.17987 11.2607 7.17987H10.3807V6.17987C10.3628 5.95442 10.269 5.7417 10.1146 5.57642C9.96021 5.41115 9.75437 5.30308 9.53066 5.26987C9.30202 5.24795 9.07336 5.31142 8.88872 5.44805C8.70408 5.58468 8.57654 5.78481 8.53066 6.00987C8.52039 6.14634 8.52039 6.2834 8.53066 6.41987V7.13987H7.62066C7.49722 7.13987 7.37499 7.16418 7.26094 7.21142C7.1469 7.25866 7.04327 7.3279 6.95598 7.41519C6.8687 7.50248 6.79946 7.6061 6.75222 7.72015C6.70498 7.83419 6.68066 7.95643 6.68066 8.07987C6.68066 8.20331 6.70498 8.32555 6.75222 8.43959C6.79946 8.55364 6.8687 8.65726 6.95598 8.74455C7.04327 8.83184 7.1469 8.90108 7.26094 8.94832C7.37499 8.99556 7.49722 9.01987 7.62066 9.01987L7.63066 9.05987Z" fill="#0D257B"/>
</svg>
