<svg width="22" height="22" viewBox="0 0 22 22" fill="none" xmlns="http://www.w3.org/2000/svg">
<path d="M18.7782 3.22181C14.4824 -1.07394 7.51756 -1.07394 3.22181 3.22181C-1.07394 7.51756 -1.07394 14.4824 3.22181 18.7782C7.51756 23.0739 14.4824 23.0739 18.7782 18.7782C23.0739 14.4824 23.0739 7.51756 18.7782 3.22181ZM5.13607 5.13621C6.70236 3.56992 8.78487 2.70727 10.9999 2.70727C12.7047 2.70727 14.3304 3.21859 15.7031 4.16802L4.16788 15.7033C3.21859 14.3306 2.70727 12.7047 2.70727 11.0001C2.70727 8.78487 3.56978 6.7025 5.13607 5.13621ZM10.9999 19.2927C9.29535 19.2927 7.66943 18.7814 6.29672 17.8321L17.832 6.29686C18.7813 7.66957 19.2926 9.29549 19.2926 11.0001C19.2926 13.2151 18.4299 15.2976 16.8636 16.8639C15.2975 18.4301 13.215 19.2927 10.9999 19.2927Z" fill="#FF1515"/>
</svg>
