<svg width="20" height="24" viewBox="0 0 20 24" fill="none" xmlns="http://www.w3.org/2000/svg">
<path d="M14.0001 15.9999C14.0001 16.552 13.5525 16.9997 13.0003 16.9997H11.0001V18.9998C11.0001 19.552 10.5525 19.9997 10.0003 19.9997C9.44812 19.9997 9.00046 19.552 9.00046 18.9998V16.9997H7.00031C6.44812 16.9997 6.00046 16.552 6.00046 15.9999C6.00046 15.4477 6.44765 15 6.99984 15H8.99999V12.9999C8.99999 12.4477 9.44765 12 9.99983 12C10.552 12 10.9997 12.4477 10.9997 12.9999V15H12.9998C13.5525 15 14.0001 15.4477 14.0001 15.9999ZM20.0001 10.485V18.9998C19.9969 21.7598 17.76 23.9967 15 24H5.00015C2.24015 23.9967 0.00328125 21.7598 0 18.9998V5.00017C0.00328125 2.24018 2.24015 0.00330345 5.00015 2.21997e-05H9.51515C11.3728 -0.0046653 13.155 0.733146 14.4651 2.04986L17.9494 5.53595C19.2665 6.84564 20.0048 8.62783 20.0001 10.485ZM13.0509 3.46408C12.7364 3.15939 12.383 2.89689 12 2.68408V6.99986C12 7.55205 12.4476 7.9997 12.9998 7.9997H17.3156C17.1028 7.61673 16.8398 7.26376 16.5347 6.9497L13.0509 3.46408ZM18 10.485C18 10.32 17.9681 10.162 17.9531 9.99986H12.9998C11.3428 9.99986 9.99983 8.65689 9.99983 6.99986V2.04705C9.83765 2.03205 9.67874 2.00018 9.51468 2.00018H4.99968C3.34265 2.00018 1.99969 3.34314 1.99969 5.00017V19.0003C1.99969 20.6573 3.34265 22.0003 4.99968 22.0003H15C16.657 22.0003 18 20.6573 18 19.0003V10.485Z" fill="#0D257B"/>
</svg>
