<svg width="20" height="24" viewBox="0 0 20 24" fill="none" xmlns="http://www.w3.org/2000/svg">
<path d="M11.5999 6.99984V0.459844C12.4826 0.805781 13.2946 1.33875 13.9829 2.04984L17.3509 5.53594C18.0392 6.24703 18.5544 7.08703 18.8888 8.00016H12.5664C12.0331 8.00016 11.5999 7.55109 11.5999 6.99984ZM19.3098 9.99984H12.5664C10.9674 9.99984 9.66644 8.65406 9.66644 6.99984V0.0239062C9.51102 0.013125 9.35515 0 9.19791 0H4.83345C2.16819 0 0 2.24297 0 5.00016V19.0003C0 21.757 2.16819 24 4.83345 24H14.4999C17.1651 24 19.3333 21.757 19.3333 18.9998V10.485C19.3333 10.3219 19.3206 10.1611 19.3098 9.99984ZM12.5664 18H10.6329V20.0002C10.6329 20.5523 10.1998 21 9.66644 21C9.13312 21 8.69993 20.5519 8.69993 20.0002V18H6.76646C6.23269 18 5.79995 17.5519 5.79995 17.0002C5.79995 16.4484 6.23314 16.0003 6.76646 16.0003H8.69993V14.0002C8.69993 13.448 9.13312 13.0003 9.66644 13.0003C10.1998 13.0003 10.6329 13.4484 10.6329 14.0002V16.0003H12.5664C13.1002 16.0003 13.5329 16.4484 13.5329 17.0002C13.5329 17.5519 13.1002 18 12.5664 18Z" fill="#0D257B"/>
</svg>
