<svg width="24" height="24" viewBox="0 0 24 24" fill="none" xmlns="http://www.w3.org/2000/svg">
<path d="M10.2172 1.2925C8.52969 1.72375 7.16094 2.8675 6.44844 4.38625C5.82969 5.73625 5.82969 7.76125 6.44844 9.11125C7.38594 11.1363 9.16719 12.2425 11.4359 12.2613C13.2547 12.28 14.4922 11.7363 15.6359 10.48C18.7672 6.9925 16.4984 1.49875 11.8297 1.19875C11.2484 1.16125 10.5359 1.19875 10.2172 1.2925ZM12.5797 3.0175C15.5234 3.89875 16.3297 7.76125 13.9672 9.6925C12.1484 11.1925 9.93594 10.8925 8.36094 8.9425C7.89219 8.36125 7.77969 8.02375 7.72344 7.04875C7.62969 5.66125 7.92969 4.8925 8.88594 3.955C9.93594 2.9425 11.2109 2.62375 12.5797 3.0175Z" fill="#0D257B"/>
<path d="M16.9125 12.4312C16.8 12.5437 16.6875 12.9375 16.65 13.2937C16.6125 13.8187 16.4813 13.9688 16.0688 14.1187C15.6375 14.25 15.45 14.2125 15.1125 13.8937C14.0438 12.9 12.9 14.0437 13.8938 15.1125C14.2125 15.45 14.25 15.6375 14.1188 16.0687C13.9688 16.4812 13.8188 16.6125 13.2938 16.65C12.5063 16.725 12.1875 16.9875 12.1875 17.5125C12.1875 18.0938 12.5438 18.375 13.2563 18.375C13.7438 18.375 13.9313 18.4875 14.1375 18.9187C14.4 19.425 14.4 19.4812 13.9688 19.875C13.4062 20.4187 13.3688 21.0937 13.875 21.375C14.3438 21.6187 14.8313 21.4875 15.2625 21.0187C15.5438 20.7188 15.675 20.7 16.1438 20.8687C16.6125 21.0562 16.6875 21.1875 16.6875 21.75C16.6875 22.4812 16.95 22.875 17.4563 22.875C17.9625 22.875 18.375 22.35 18.375 21.675C18.375 21.1875 18.4688 21.0375 18.9188 20.8687C19.3875 20.7 19.5188 20.7375 19.9313 21.15C20.2875 21.5062 20.5125 21.5812 20.8875 21.4875C21.6188 21.3 21.7313 20.5312 21.15 19.9312C20.7375 19.5187 20.7 19.3875 20.8688 18.9187C21.0375 18.4688 21.1875 18.375 21.675 18.375C22.35 18.375 22.875 17.9625 22.875 17.4562C22.875 16.95 22.4813 16.6875 21.75 16.6875C21.1875 16.6875 21.0563 16.6125 20.8875 16.1625C20.7188 15.7125 20.7375 15.5625 21.1313 15.1125C21.6 14.55 21.675 14.0625 21.3375 13.725C20.9813 13.3687 20.3438 13.4625 19.875 13.9688C19.4813 14.4 19.425 14.4 18.9188 14.1375C18.4875 13.9312 18.375 13.7437 18.375 13.2562C18.375 12.9187 18.2813 12.5437 18.15 12.4125C17.85 12.1125 17.1562 12.1312 16.9125 12.4312ZM18.75 16.1062C19.05 16.4062 19.35 16.875 19.425 17.1562C19.725 18.3375 18.3375 19.725 17.1562 19.425C16.875 19.35 16.4062 19.05 16.1063 18.75C15.3188 17.9812 15.3563 17.0437 16.2 16.2C17.0438 15.3562 17.9813 15.3187 18.75 16.1062Z" fill="#0D257B"/>
<path d="M9.75 13.1243C6.4875 13.3868 3.61875 14.5306 2.26875 16.0493C1.3875 17.0618 1.125 17.8306 1.125 19.4431C1.125 20.4743 1.2 20.6993 1.66875 21.2243L2.2125 21.8431L6.84375 21.8993C10.8188 21.9556 11.5312 21.9181 11.925 21.6556C12.4125 21.3368 12.5063 20.7931 12.1313 20.4556C11.9625 20.3243 10.3125 20.2306 7.3875 20.2118L2.90625 20.1556L2.85 19.2181C2.775 17.9993 3.3 17.1931 4.6875 16.3493C6.075 15.5243 7.7625 15.0181 10.0125 14.7931C11.9625 14.5868 12.375 14.4368 12.375 13.8556C12.375 13.5556 11.6813 12.8993 11.4375 12.9556C11.3813 12.9743 10.6313 13.0493 9.75 13.1243Z" fill="#0D257B"/>
</svg>
