<svg width="24" height="24" viewBox="0 0 24 24" fill="none" xmlns="http://www.w3.org/2000/svg">
<path d="M15.9984 0H15.8672C14.9484 0.009375 14.1469 0.6375 13.9266 1.53281C13.6359 2.59688 12.5344 3.225 11.4703 2.93437C10.7906 2.74687 10.2563 2.21719 10.0688 1.53281C9.84844 0.6375 9.05156 0.009375 8.12813 0H7.99687C5.24062 0.0046875 3.00469 2.24062 3 5.00156V21C3 22.6547 4.34531 24 6 24H8.12813C9.04688 23.9906 9.84844 23.3625 10.0688 22.4672C10.3594 21.4031 11.4609 20.775 12.525 21.0656C13.2047 21.2531 13.7391 21.7828 13.9266 22.4672C14.1469 23.3625 14.9484 23.9906 15.8672 24H18C19.6547 24 21 22.6547 21 21V5.00156C20.9953 2.24062 18.7594 0.0046875 15.9984 0ZM18 21.9984L15.8578 21.9375C15.2672 19.8094 13.0641 18.5625 10.9359 19.1484C9.55781 19.5281 8.48906 20.6156 8.13281 21.9984H6C5.44688 21.9984 5.00156 21.5484 5.00156 21V17.0016H7.00313C7.55625 17.0016 8.00156 16.5516 8.00156 16.0031C8.00156 15.4547 7.55156 15 6.99844 15H5.00156V5.00156C5.00156 3.34687 6.34687 2.00156 8.00156 2.00156L8.14688 2.0625C8.62969 3.79688 10.2047 4.99687 12.0047 5.00156C13.8281 4.9875 15.4172 3.75938 15.9 2.00156H16.0078C17.6625 2.00156 19.0078 3.34687 19.0078 5.00156V15H17.0062C16.4531 15 16.0078 15.45 16.0078 15.9984C16.0078 16.5469 16.4578 16.9969 17.0062 16.9969H19.0078V21C18.9984 21.5531 18.5531 21.9984 18 21.9984Z" fill="#0D257B"/>
<path d="M12.998 15H10.9965C10.4434 15 9.99805 15.45 9.99805 15.9984C9.99805 16.5469 10.448 16.9969 10.9965 16.9969H12.998C13.5512 16.9969 13.9965 16.5469 13.9965 15.9984C13.9965 15.45 13.5512 15 12.998 15Z" fill="#0D257B"/>
</svg>
