<svg width="14" height="14" viewBox="0 0 14 14" fill="none" xmlns="http://www.w3.org/2000/svg">
<path d="M7 13C3.69156 13 1 10.3084 1 7C1 3.69156 3.69156 1 7 1C10.3084 1 13 3.69156 13 7C13 10.3084 10.3084 13 7 13ZM7 2.00008C4.24305 2.00008 2.00008 4.24305 2.00008 7C2.00008 9.75695 4.24305 11.9999 7 11.9999C9.75695 11.9999 11.9999 9.75695 11.9999 7C11.9999 4.24305 9.75695 2.00008 7 2.00008ZM9.50008 7C9.50008 6.72344 9.27648 6.50008 9.00016 6.50008H7.50016V4C7.50016 3.72344 7.27609 3.50008 7.00023 3.50008C6.72438 3.50008 6.50031 3.72367 6.50031 4V7C6.50031 7.27656 6.72438 7.49992 7.00023 7.49992H9.00016C9.27648 7.49992 9.50008 7.27656 9.50008 7Z" fill="#0D257B" stroke="#0D257B" stroke-width="0.2"/>
</svg>
