<svg width="96" height="96" viewBox="0 0 96 96" fill="none" xmlns="http://www.w3.org/2000/svg">
<path d="M96 43.875C96 46.6256 96 49.3744 96 52.125C95.8838 52.605 95.7281 53.0813 95.655 53.5688C92.8031 72.7913 82.3275 86.0344 64.2506 93.0619C60.4088 94.5544 56.1769 95.0475 52.125 96C49.3744 96 46.6256 96 43.875 96C43.4606 95.8894 43.0519 95.7244 42.6281 95.6756C23.1469 93.4331 7.11 79.8131 1.81875 60.8962C1.01625 58.0275 0.59625 55.0519 0 52.125C0 49.3744 0 46.6256 0 43.875C0.12 43.3312 0.27375 42.7931 0.358125 42.2456C3.34313 22.8 14.0531 9.55125 32.4487 2.68313C36.0844 1.32563 40.0575 0.871875 43.875 0C46.6256 0 49.3744 0 52.125 0C52.5412 0.110625 52.9519 0.27375 53.3737 0.3225C72.8925 2.58938 88.9013 16.1906 94.1738 35.1038C94.9762 37.9744 95.4019 40.9481 96 43.875ZM89.1675 48.0337C89.1994 25.4231 70.6763 6.86625 48.0356 6.83063C25.4306 6.795 6.86437 25.3256 6.8325 47.9587C6.80062 70.5638 25.3331 89.1338 47.9606 89.1694C70.5638 89.2031 89.1356 70.665 89.1675 48.0337Z" fill="#FFAE00"/>
<path d="M43.4612 48.2257C38.2618 43.0488 33.5312 38.3332 28.793 33.6232C27.758 32.5938 26.9237 31.3394 27.6474 29.9688C28.1724 28.9751 29.2599 27.7451 30.2049 27.6457C31.3505 27.5257 32.8899 28.1913 33.773 29.0294C38.1174 33.1582 42.3062 37.4519 46.5287 41.7044C46.9637 42.1432 47.2693 42.7094 47.7174 43.3319C48.5162 42.5876 49.0168 42.1469 49.4874 41.6763C53.7287 37.4407 57.9549 33.1882 62.2074 28.9619C64.1124 27.0682 66.1093 26.9257 67.6093 28.5082C69.0643 30.0419 68.8899 31.9319 67.0487 33.7826C62.3818 38.4719 57.6924 43.1388 52.8718 47.9557C53.3893 48.4994 53.8374 48.9888 54.3062 49.4576C58.5418 53.6988 62.8355 57.8876 66.9774 62.2188C67.793 63.0719 68.5018 64.5232 68.393 65.6107C68.2955 66.5838 67.1593 67.6994 66.1974 68.2826C64.8624 69.0907 63.548 68.3688 62.5074 67.3282C58.2193 63.0513 53.9349 58.7669 49.658 54.4788C49.1743 53.9932 48.7412 53.4569 48.1468 52.7894C47.528 53.3707 47.0368 53.8076 46.5718 54.2726C42.2855 58.5532 38.0012 62.8357 33.7205 67.1201C32.6499 68.1926 31.4724 68.9107 29.8768 68.3913C27.2724 67.5438 26.6068 64.6263 28.6449 62.5488C32.7549 58.3582 36.923 54.2238 41.0949 50.0951C41.7512 49.4463 42.5499 48.9382 43.4612 48.2257Z" fill="#FFAE00"/>
</svg>
