<svg width="96" height="96" viewBox="0 0 96 96" fill="none" xmlns="http://www.w3.org/2000/svg">
<path d="M96 45.1875C96 47.0625 96 48.9375 96 50.8125C95.9456 51.0825 95.8594 51.3488 95.8406 51.6206C95.3719 58.3162 93.6056 64.6631 90.3675 70.53C82.9031 84.0563 71.5594 92.3306 56.3625 95.2425C54.5306 95.5931 52.6631 95.7525 50.8125 96C48.9375 96 47.0625 96 45.1875 96C44.9456 95.9475 44.7075 95.8631 44.4637 95.8463C37.7344 95.3906 31.3575 93.6188 25.4625 90.3638C11.9363 82.8975 3.66375 71.5519 0.755625 56.3531C0.405 54.525 0.2475 52.6613 0 50.8125C0 48.9375 0 47.0625 0 45.1875C0.054375 44.9175 0.140625 44.6512 0.159375 44.3794C0.628125 37.6838 2.39438 31.3369 5.6325 25.47C13.095 11.9437 24.4406 3.66937 39.6375 0.7575C41.4675 0.405 43.3369 0.2475 45.1875 0C47.0625 0 48.9375 0 50.8125 0C51.0544 0.0525 51.2925 0.136875 51.5362 0.15375C58.2656 0.609375 64.6425 2.38125 70.5375 5.63625C84.0619 13.1025 92.3344 24.4481 95.2425 39.6469C95.595 41.475 95.7525 43.3387 96 45.1875ZM48.0094 88.5C70.3481 88.4925 88.4662 70.3875 88.5 48.0375C88.5319 25.6838 70.3556 7.4925 47.9906 7.5C25.6519 7.50938 7.53375 25.6125 7.5 47.9625C7.46812 70.3163 25.6444 88.5075 48.0094 88.5Z" fill="#12B76A"/>
<path d="M41.6092 55.4307C41.8398 55.0707 41.9917 54.7032 42.2505 54.4426C49.3305 47.3438 56.4255 40.2582 63.5092 33.1632C64.353 32.3176 65.2811 31.6744 66.528 31.6857C68.0336 31.6988 69.1755 32.3794 69.873 33.7051C70.5742 35.0382 70.4542 36.3601 69.588 37.5901C69.3386 37.9444 69.0273 38.2594 68.718 38.5688C60.6592 46.6332 52.5986 54.6938 44.5361 62.7544C42.423 64.8676 40.3998 64.8657 38.2867 62.7563C34.5311 59.0026 30.7717 55.2507 27.0236 51.4894C25.623 50.0851 25.308 48.4201 26.1067 46.8901C27.3255 44.5557 30.2711 44.1769 32.2717 46.1476C35.0767 48.9076 37.8405 51.7088 40.6248 54.4913C40.8667 54.7332 41.1161 54.9601 41.6092 55.4307Z" fill="#12B76A"/>
</svg>
