<svg width="25" height="25" viewBox="0 0 25 25" fill="none" xmlns="http://www.w3.org/2000/svg">
<path fill-rule="evenodd" clip-rule="evenodd" d="M5.11279 17.3757C5.14572 17.4854 5.15671 17.6006 5.14513 17.7145C5.13355 17.8285 5.09964 17.9391 5.04533 18.0399C4.99101 18.1408 4.91736 18.2299 4.82858 18.3023C4.7398 18.3747 4.63763 18.4289 4.52791 18.4618C3.52209 18.7641 2.77093 19.106 2.2907 19.4467C1.78721 19.8036 1.74419 20.0339 1.74419 20.0932C1.74419 20.1525 1.78721 20.3839 2.2907 20.7397C2.77093 21.0804 3.52209 21.4222 4.52791 21.7246C6.5314 22.3257 9.35 22.7094 12.5 22.7094C15.6512 22.7094 18.4686 22.3257 20.4721 21.7246C21.4779 21.4222 22.2291 21.0804 22.7093 20.7397C23.2128 20.3827 23.2558 20.1525 23.2558 20.0932C23.2558 20.0339 23.2128 19.8025 22.7093 19.4467C22.2291 19.106 21.4779 18.7641 20.4709 18.4618C20.2493 18.3952 20.0633 18.2433 19.9537 18.0395C19.8442 17.8357 19.82 17.5967 19.8866 17.3751C19.9532 17.1536 20.1051 16.9675 20.3089 16.8579C20.5127 16.7484 20.7517 16.7242 20.9733 16.7908C22.0698 17.1199 23.0221 17.5292 23.7186 18.0234C24.393 18.5025 25 19.1885 25 20.0932C25 20.9978 24.393 21.6839 23.7186 22.1629C23.0209 22.656 22.0698 23.0653 20.9733 23.3955C18.7663 24.0571 15.7709 24.4536 12.5 24.4536C9.22907 24.4536 6.23256 24.0571 4.02674 23.3955C2.93023 23.0653 1.97791 22.656 1.2814 22.1629C0.606977 21.6839 0 20.9978 0 20.0932C0 19.1885 0.606977 18.5025 1.2814 18.0234C1.97907 17.5292 2.93023 17.1199 4.02674 16.7908C4.13646 16.7579 4.25159 16.7469 4.36555 16.7585C4.47951 16.7701 4.59008 16.804 4.69093 16.8583C4.79178 16.9126 4.88095 16.9863 4.95333 17.0751C5.02571 17.1638 5.0799 17.266 5.11279 17.3757Z" fill="#0D257B"/>
<path fill-rule="evenodd" clip-rule="evenodd" d="M4.06934 8.27837C4.06934 3.70511 7.86469 0.0341797 12.4996 0.0341797C17.1345 0.0341797 20.9298 3.70511 20.9298 8.27837C20.9298 11.4935 18.8252 14.3714 16.9042 16.3528C15.7334 17.5526 14.4508 18.6382 13.074 19.5946L13.0042 19.6412L12.9856 19.6539L12.9798 19.6574L12.9775 19.6586L12.4996 18.9295L12.0228 19.6598L12.0193 19.6574L12.0135 19.6539L11.9949 19.6412C11.8856 19.5685 11.7774 19.4941 11.6705 19.4179C10.3893 18.5048 9.19228 17.479 8.09376 16.3528C6.17399 14.3714 4.06934 11.4923 4.06934 8.27837ZM12.4996 18.9295L12.0228 19.6598C12.1646 19.7523 12.3303 19.8016 12.4996 19.8016C12.6689 19.8016 12.8345 19.7523 12.9763 19.6598L12.4996 18.9295ZM12.4996 17.8656C13.6258 17.0473 14.6807 16.1351 15.6531 15.1388C17.51 13.2226 19.1856 10.776 19.1856 8.27837C19.1856 4.7086 16.2124 1.77837 12.4996 1.77837C8.78678 1.77837 5.81352 4.7086 5.81352 8.27837C5.81352 10.776 7.48794 13.2226 9.34608 15.1388C10.3184 16.1351 11.3733 17.0473 12.4996 17.8656Z" fill="#0D257B"/>
<path fill-rule="evenodd" clip-rule="evenodd" d="M8.7207 8.46462C8.7207 7.46234 9.11885 6.50112 9.82757 5.79241C10.5363 5.0837 11.4975 4.68555 12.4998 4.68555C13.502 4.68555 14.4633 5.0837 15.172 5.79241C15.8807 6.50112 16.2788 7.46234 16.2788 8.46462C16.2788 9.46689 15.8807 10.4281 15.172 11.1368C14.4633 11.8455 13.502 12.2437 12.4998 12.2437C11.4975 12.2437 10.5363 11.8455 9.82757 11.1368C9.11885 10.4281 8.7207 9.46689 8.7207 8.46462ZM12.4998 6.42973C11.9601 6.42973 11.4425 6.64412 11.0609 7.02574C10.6793 7.40735 10.4649 7.92493 10.4649 8.46462C10.4649 9.0043 10.6793 9.52188 11.0609 9.9035C11.4425 10.2851 11.9601 10.4995 12.4998 10.4995C13.0395 10.4995 13.557 10.2851 13.9387 9.9035C14.3203 9.52188 14.5347 9.0043 14.5347 8.46462C14.5347 7.92493 14.3203 7.40735 13.9387 7.02574C13.557 6.64412 13.0395 6.42973 12.4998 6.42973Z" fill="#0D257B"/>
</svg>
