<svg width="40" height="40" viewBox="0 0 40 40" fill="none" xmlns="http://www.w3.org/2000/svg">
<circle cx="20" cy="20" r="20" fill="#0D257B" fill-opacity="0.03"/>
<g clip-path="url(#clip0_2093_4796)">
<path fill-rule="evenodd" clip-rule="evenodd" d="M14.7194 16.7224C13.3539 16.7224 12.2371 17.8392 12.2371 19.2048V24.755C12.2371 26.1205 13.3539 27.2373 14.7194 27.2373H24.187C25.5525 27.2373 26.6693 26.1205 26.6693 24.755V24.3921H25.7209C24.5585 24.3921 23.4301 23.5421 23.3235 22.2864C23.2569 21.5754 23.5276 20.9111 23.9967 20.4501C24.4186 20.0196 24.9972 19.7738 25.622 19.7738H26.6693V19.2048C26.6693 17.8392 25.5525 16.7224 24.187 16.7224H14.7194ZM11 19.2048C11 17.156 12.6707 15.4854 14.7194 15.4854H24.187C26.2357 15.4854 27.9064 17.156 27.9064 19.2048V20.3923C27.9064 20.7339 27.6294 21.0108 27.2879 21.0108H25.622C25.3258 21.0108 25.0654 21.1256 24.8776 21.3186L24.8664 21.3298C24.647 21.5439 24.5244 21.8489 24.5553 22.1728L24.556 22.18C24.5997 22.7037 25.1031 23.1551 25.7209 23.1551H27.2879C27.6294 23.1551 27.9064 23.432 27.9064 23.7736V24.755C27.9064 26.8037 26.2357 28.4744 24.187 28.4744H14.7194C12.6707 28.4744 11 26.8037 11 24.755V19.2048Z" fill="#0D257B"/>
<path fill-rule="evenodd" clip-rule="evenodd" d="M21.1851 12.9699C21.1851 12.304 20.5195 11.8468 19.9033 12.0803L13.3549 14.5545C12.6813 14.8095 12.2371 15.4527 12.2371 16.178V19.9469C12.2371 20.2885 11.9601 20.5654 11.6185 20.5654C11.2769 20.5654 11 20.2885 11 19.9469V16.178C11 14.9407 11.76 13.8354 12.9171 13.3975L19.4649 10.9236C19.4647 10.9236 19.465 10.9235 19.4649 10.9236C20.8939 10.3822 22.4221 11.4423 22.4221 12.9699V16.1038C22.4221 16.4454 22.1452 16.7223 21.8036 16.7223C21.462 16.7223 21.1851 16.4454 21.1851 16.1038V12.9699Z" fill="#0D257B"/>
<path fill-rule="evenodd" clip-rule="evenodd" d="M25.6209 21.0105C25.3249 21.0105 25.0644 21.1253 24.8766 21.3183L24.8654 21.3294C24.6461 21.5436 24.5235 21.8486 24.5543 22.1724L24.555 22.1797C24.5986 22.7034 25.1021 23.1547 25.7199 23.1547H27.3221C27.4555 23.1461 27.5425 23.0418 27.5425 22.932V21.2332C27.5425 21.1233 27.4555 21.0191 27.3221 21.0105H25.6209ZM23.9958 20.4496C24.4177 20.0193 24.9961 19.7734 25.6209 19.7734H27.3363C27.3437 19.7734 27.3511 19.7736 27.3584 19.7738C28.1444 19.8019 28.7795 20.4379 28.7795 21.2332V22.932C28.7795 23.7273 28.1444 24.3633 27.3584 24.3914C27.3511 24.3916 27.3437 24.3918 27.3363 24.3918H25.7199C24.5575 24.3918 23.4292 23.5417 23.3225 22.2861C23.2559 21.575 23.5267 20.9107 23.9958 20.4496Z" fill="#0D257B"/>
<path fill-rule="evenodd" clip-rule="evenodd" d="M14.7109 19.6088C14.7109 19.2672 14.9879 18.9902 15.3295 18.9902H21.1024C21.444 18.9902 21.7209 19.2672 21.7209 19.6088C21.7209 19.9504 21.444 20.2273 21.1024 20.2273H15.3295C14.9879 20.2273 14.7109 19.9504 14.7109 19.6088Z" fill="#0D257B"/>
</g>
<defs>
<clipPath id="clip0_2093_4796">
<rect width="17.78" height="17.78" fill="white" transform="translate(11 10.7812)"/>
</clipPath>
</defs>
</svg>
