<svg width="22" height="23" viewBox="0 0 22 23" fill="none" xmlns="http://www.w3.org/2000/svg">
<path d="M17.4167 1.22559H4.58333C3.3682 1.22704 2.20326 1.71039 1.34403 2.56962C0.484808 3.42885 0.00145554 4.59379 0 5.80892L0 16.8089C0.00145554 18.024 0.484808 19.189 1.34403 20.0482C2.20326 20.9074 3.3682 21.3908 4.58333 21.3923H17.4167C18.6318 21.3908 19.7967 20.9074 20.656 20.0482C21.5152 19.189 21.9985 18.024 22 16.8089V5.80892C21.9985 4.59379 21.5152 3.42885 20.656 2.56962C19.7967 1.71039 18.6318 1.22704 17.4167 1.22559ZM4.58333 3.05892H17.4167C18.146 3.05892 18.8455 3.34865 19.3612 3.86438C19.8769 4.3801 20.1667 5.07957 20.1667 5.80892V6.72559H1.83333V5.80892C1.83333 5.07957 2.12306 4.3801 2.63879 3.86438C3.15452 3.34865 3.85399 3.05892 4.58333 3.05892ZM17.4167 19.5589H4.58333C3.85399 19.5589 3.15452 19.2692 2.63879 18.7535C2.12306 18.2377 1.83333 17.5383 1.83333 16.8089V8.55892H20.1667V16.8089C20.1667 17.5383 19.8769 18.2377 19.3612 18.7535C18.8455 19.2692 18.146 19.5589 17.4167 19.5589ZM17.4167 12.2256C17.4167 12.4687 17.3201 12.7019 17.1482 12.8738C16.9763 13.0457 16.7431 13.1423 16.5 13.1423H5.5C5.25689 13.1423 5.02373 13.0457 4.85182 12.8738C4.67991 12.7019 4.58333 12.4687 4.58333 12.2256C4.58333 11.9825 4.67991 11.7493 4.85182 11.5774C5.02373 11.4055 5.25689 11.3089 5.5 11.3089H16.5C16.7431 11.3089 16.9763 11.4055 17.1482 11.5774C17.3201 11.7493 17.4167 11.9825 17.4167 12.2256ZM13.75 15.8923C13.75 16.1354 13.6534 16.3685 13.4815 16.5404C13.3096 16.7123 13.0764 16.8089 12.8333 16.8089H5.5C5.25689 16.8089 5.02373 16.7123 4.85182 16.5404C4.67991 16.3685 4.58333 16.1354 4.58333 15.8923C4.58333 15.6491 4.67991 15.416 4.85182 15.2441C5.02373 15.0722 5.25689 14.9756 5.5 14.9756H12.8333C13.0764 14.9756 13.3096 15.0722 13.4815 15.2441C13.6534 15.416 13.75 15.6491 13.75 15.8923ZM2.75 4.89225C2.75 4.71095 2.80376 4.53373 2.90449 4.38298C3.00521 4.23224 3.14837 4.11474 3.31587 4.04536C3.48337 3.97598 3.66768 3.95783 3.8455 3.9932C4.02332 4.02857 4.18665 4.11587 4.31485 4.24407C4.44305 4.37227 4.53035 4.5356 4.56572 4.71342C4.60109 4.89124 4.58294 5.07555 4.51356 5.24305C4.44418 5.41054 4.32668 5.55371 4.17594 5.65443C4.02519 5.75516 3.84797 5.80892 3.66667 5.80892C3.42355 5.80892 3.19039 5.71234 3.01849 5.54043C2.84658 5.36853 2.75 5.13537 2.75 4.89225ZM5.5 4.89225C5.5 4.71095 5.55376 4.53373 5.65449 4.38298C5.75521 4.23224 5.89837 4.11474 6.06587 4.04536C6.23337 3.97598 6.41768 3.95783 6.5955 3.9932C6.77332 4.02857 6.93665 4.11587 7.06485 4.24407C7.19305 4.37227 7.28035 4.5356 7.31572 4.71342C7.35109 4.89124 7.33294 5.07555 7.26356 5.24305C7.19418 5.41054 7.07668 5.55371 6.92594 5.65443C6.77519 5.75516 6.59797 5.80892 6.41667 5.80892C6.17355 5.80892 5.94039 5.71234 5.76849 5.54043C5.59658 5.36853 5.5 5.13537 5.5 4.89225ZM8.25 4.89225C8.25 4.71095 8.30376 4.53373 8.40449 4.38298C8.50521 4.23224 8.64837 4.11474 8.81587 4.04536C8.98337 3.97598 9.16768 3.95783 9.3455 3.9932C9.52332 4.02857 9.68665 4.11587 9.81485 4.24407C9.94305 4.37227 10.0304 4.5356 10.0657 4.71342C10.1011 4.89124 10.0829 5.07555 10.0136 5.24305C9.94418 5.41054 9.82668 5.55371 9.67594 5.65443C9.52519 5.75516 9.34797 5.80892 9.16667 5.80892C8.92355 5.80892 8.69039 5.71234 8.51849 5.54043C8.34658 5.36853 8.25 5.13537 8.25 4.89225Z" fill="#0D257B"/>
</svg>
