<svg width="300" height="300" viewBox="0 0 300 300" fill="none" xmlns="http://www.w3.org/2000/svg">
<path d="M225 225C266.421 183.579 266.421 116.421 225 75C183.579 33.5786 116.421 33.5786 75 75C33.5786 116.421 33.5786 183.579 75 225C116.421 266.421 183.579 266.421 225 225Z" fill="#7E859F" fill-opacity="0.1"/>
<path d="M205.095 179.659C201.818 179.516 195.594 181.554 190.435 183.501C184.49 185.745 178.718 188.376 179.142 187.673C179.663 186.806 188.388 182.13 195.386 178.542C199.009 176.685 201.854 174.115 202.947 173.216C206.665 170.157 206.267 160.797 203.032 158.009C199.799 155.22 196.725 157.407 191.425 160.055C188.527 161.503 185.473 163.165 182.768 164.688C186.522 162.405 190.947 159.584 194.689 156.84C197.634 154.681 200.821 152.813 202.259 151.05C207.792 144.264 202.088 136.69 199.682 135.069C197.275 133.449 192.772 136.31 186.703 140.601C179.338 145.808 171.36 151.839 171.1 151.211C170.627 150.062 185.149 138.782 190.919 133.78C194.302 130.846 198.909 121.151 199.424 115.738C199.852 111.246 201.042 105.815 193.141 104.802C185.24 103.792 183.204 116.316 176.763 121.104C170.323 125.891 124.568 154.341 124.568 154.341C124.568 154.341 106.724 192.981 106.225 206.749C105.73 220.516 106.66 229.02 106.66 229.02L90 290.92H148.507L151.332 253.883C153.816 252.595 159.7 246.913 165.153 242.454C170.604 237.995 184.026 214.869 185.015 212.62C185.405 211.73 188.491 209.478 191.434 206.464C195.928 201.861 203.527 198.089 206.383 196.154C211.711 192.546 209.047 179.831 205.095 179.659Z" fill="#FAC4A8"/>
<path d="M107.168 222.864C97.1963 205.27 164.933 198.362 184.242 214.107C182.588 217.13 178.686 223.796 174.656 229.994C166.669 232.71 156.579 236.81 147.61 242.48C129.225 254.102 119.059 243.847 107.168 222.864Z" fill="#E5A98E"/>
<path d="M110.265 81.9171L165.76 71.2421C166.53 71.0938 167.297 71.0361 168.053 71.0572L169.647 70.7512C175.33 69.6583 180.879 73.6989 182.016 79.7602L206.07 208.075C207.129 213.73 201.339 218.896 201.339 218.896C201.339 218.896 198.884 222.088 194.208 222.998C189.532 223.908 138.71 233.675 138.71 233.675C132.65 234.841 126.734 230.531 125.524 224.069L101.469 95.7536C100.257 89.2885 104.202 83.0827 110.265 81.9171Z" fill="#323232"/>
<path d="M142.272 231.155C136.589 232.243 131.042 228.204 129.908 222.143L105.853 93.8279C104.718 87.7677 108.418 81.9495 114.098 80.8555L169.594 70.1794C175.277 69.0865 180.826 73.1271 181.963 79.1879L206.016 207.503C207.153 213.567 203.453 219.383 197.768 220.475L142.272 231.155Z" fill="#383838"/>
<path d="M201.152 207.071C201.78 210.422 199.555 213.69 196.208 214.334L141.507 224.856C138.16 225.5 134.907 223.285 134.279 219.935L110.716 94.2637C110.087 90.9134 112.312 87.6453 115.66 87.0011L170.359 76.4772C173.707 75.833 176.96 78.0476 177.588 81.3979L201.152 207.071Z" fill="#E6E6E6"/>
<path d="M201.152 207.071C201.78 210.422 199.555 213.69 196.208 214.334L141.507 224.856C138.16 225.5 134.907 223.285 134.279 219.935L110.716 94.2637C110.087 90.9134 112.312 87.6453 115.66 87.0011L170.359 76.4772C173.707 75.833 176.96 78.0476 177.588 81.3979L201.152 207.071Z" fill="#ABCCD5"/>
<mask id="mask0_9580_11030" style="mask-type:luminance" maskUnits="userSpaceOnUse" x="110" y="76" width="92" height="150">
<path d="M201.229 207.507C201.812 210.617 199.748 213.651 196.64 214.249L141.067 224.939C137.959 225.536 134.94 223.481 134.357 220.371L110.63 93.8253C110.047 90.7155 112.111 87.6812 115.219 87.0837L170.791 76.3926C173.899 75.7945 176.918 77.8503 177.501 80.9607L201.229 207.507Z" fill="white"/>
</mask>
<g mask="url(#mask0_9580_11030)">
<path d="M123.469 163.175L190.818 150.339L176.601 75.1006L109.25 87.9353L123.469 163.175Z" fill="#E9F6FF"/>
<path d="M133.709 201.414C134.161 203.815 136.494 205.406 138.894 204.948L190.331 195.144C192.731 194.687 194.326 192.348 193.874 189.947L187.931 158.327C187.479 155.926 185.146 154.335 182.746 154.792L131.307 164.595C128.907 165.053 127.313 167.392 127.764 169.793L133.709 201.414Z" fill="#C7E1E8"/>
<path d="M136.804 218.938C137.251 221.341 139.581 222.938 141.983 222.489L166.793 217.848C169.195 217.399 170.795 215.065 170.348 212.663L169.197 206.478C168.751 204.075 166.42 202.477 164.018 202.926L139.208 207.566C136.806 208.015 135.206 210.348 135.653 212.75L136.804 218.938Z" fill="#C7E1E8"/>
<path d="M172.554 212.412C173.001 214.815 175.332 216.416 177.734 215.971L193.607 213.032C196.009 212.587 197.609 210.258 197.163 207.855L196.013 201.669C195.566 199.267 193.235 197.666 190.832 198.11L174.959 201.048C172.556 201.493 170.956 203.822 171.403 206.224L172.554 212.412Z" fill="#C7E1E8"/>
<path d="M167.4 131.133L157.75 132.963L155.625 121.681L165.275 119.851L167.4 131.133Z" fill="#213C89"/>
<mask id="mask1_9580_11030" style="mask-type:luminance" maskUnits="userSpaceOnUse" x="100" y="67" width="93" height="97">
<path d="M128.869 163.429L192.678 138.349L164.779 67.0436L100.969 92.1229L128.869 163.429Z" fill="white"/>
</mask>
<g mask="url(#mask1_9580_11030)">
<path d="M121.847 103.233L121.562 103.287L133.308 165.644L133.592 165.591L121.847 103.233Z" fill="white"/>
</g>
<mask id="mask2_9580_11030" style="mask-type:luminance" maskUnits="userSpaceOnUse" x="101" y="68" width="93" height="98">
<path d="M129.385 165.208L193.193 140.127L165.295 68.8219L101.485 93.9012L129.385 165.208Z" fill="white"/>
</mask>
<g mask="url(#mask2_9580_11030)">
<path d="M131.581 101.396L131.297 101.45L143.042 163.807L143.327 163.754L131.581 101.396Z" fill="white"/>
</g>
<mask id="mask3_9580_11030" style="mask-type:luminance" maskUnits="userSpaceOnUse" x="101" y="70" width="93" height="97">
<path d="M129.885 166.971L193.693 141.891L165.795 70.5856L101.985 95.6649L129.885 166.971Z" fill="white"/>
</mask>
<g mask="url(#mask3_9580_11030)">
<path d="M141.307 99.5409L141.023 99.5942L152.769 161.953L153.052 161.9L141.307 99.5409Z" fill="white"/>
</g>
<mask id="mask4_9580_11030" style="mask-type:luminance" maskUnits="userSpaceOnUse" x="109" y="75" width="82" height="89">
<path d="M123.484 163.171L190.834 150.334L176.617 75.0962L109.266 87.9309L123.484 163.171Z" fill="white"/>
</mask>
<g mask="url(#mask4_9580_11030)">
<path d="M162.513 160.111L150.766 97.7527L151.05 97.6978L162.797 160.057L162.513 160.111Z" fill="white"/>
</g>
<mask id="mask5_9580_11030" style="mask-type:luminance" maskUnits="userSpaceOnUse" x="103" y="74" width="92" height="97">
<path d="M130.908 170.507L194.717 145.427L166.819 74.1217L103.009 99.201L130.908 170.507Z" fill="white"/>
</mask>
<g mask="url(#mask5_9580_11030)">
<path d="M160.784 95.8434L160.5 95.897L172.246 158.256L172.53 158.202L160.784 95.8434Z" fill="white"/>
</g>
<mask id="mask6_9580_11030" style="mask-type:luminance" maskUnits="userSpaceOnUse" x="109" y="75" width="82" height="89">
<path d="M123.484 163.171L190.834 150.334L176.617 75.0962L109.266 87.9309L123.484 163.171Z" fill="white"/>
</mask>
<g mask="url(#mask6_9580_11030)">
<path d="M181.981 156.416L170.234 94.0569L170.52 94.002L182.265 156.362L181.981 156.416Z" fill="white"/>
</g>
<mask id="mask7_9580_11030" style="mask-type:luminance" maskUnits="userSpaceOnUse" x="105" y="70" width="93" height="98">
<path d="M133.708 167.151L197.485 141.978L169.485 70.7081L105.706 95.8791L133.708 167.151Z" fill="white"/>
</mask>
<g mask="url(#mask7_9580_11030)">
<path d="M185.763 103.759L113.508 117.475L113.569 117.798L185.824 104.082L185.763 103.759Z" fill="white"/>
</g>
<mask id="mask8_9580_11030" style="mask-type:luminance" maskUnits="userSpaceOnUse" x="109" y="75" width="82" height="89">
<path d="M123.484 163.171L190.834 150.334L176.617 75.0962L109.266 87.9309L123.484 163.171Z" fill="white"/>
</mask>
<g mask="url(#mask8_9580_11030)">
<path d="M115.741 129.287L115.68 128.964L187.934 115.254L187.994 115.577L115.741 129.287Z" fill="white"/>
</g>
<mask id="mask9_9580_11030" style="mask-type:luminance" maskUnits="userSpaceOnUse" x="101" y="71" width="93" height="98">
<path d="M129.474 168.312L193.269 143.199L165.335 71.9084L101.538 97.02L129.474 168.312Z" fill="white"/>
</mask>
<g mask="url(#mask9_9580_11030)">
<path d="M190.106 126.772L117.844 140.421L117.905 140.745L190.167 127.096L190.106 126.772Z" fill="white"/>
</g>
<mask id="mask10_9580_11030" style="mask-type:luminance" maskUnits="userSpaceOnUse" x="109" y="75" width="82" height="89">
<path d="M123.484 163.171L190.834 150.334L176.617 75.0962L109.266 87.9309L123.484 163.171Z" fill="white"/>
</mask>
<g mask="url(#mask10_9580_11030)">
<path d="M120.068 152.288L120.008 151.964L192.261 138.253L192.322 138.577L120.068 152.288Z" fill="white"/>
</g>
<mask id="mask11_9580_11030" style="mask-type:luminance" maskUnits="userSpaceOnUse" x="109" y="75" width="82" height="89">
<path d="M123.484 163.171L190.834 150.334L176.617 75.0962L109.266 87.9309L123.484 163.171Z" fill="white"/>
</mask>
<g mask="url(#mask11_9580_11030)">
<path d="M124.576 105.176L125.065 107.774L124.751 107.833L124.324 105.565L124.308 105.568L123.754 106.11L123.693 105.79L124.262 105.235L124.576 105.176Z" fill="#0D257B"/>
<path d="M133.762 106.125L133.719 105.896L134.399 104.795C134.479 104.666 134.544 104.555 134.594 104.461C134.643 104.367 134.677 104.281 134.695 104.203C134.713 104.124 134.715 104.045 134.7 103.965C134.683 103.874 134.646 103.799 134.589 103.741C134.534 103.682 134.465 103.642 134.383 103.62C134.301 103.597 134.213 103.595 134.119 103.613C134.019 103.632 133.936 103.669 133.869 103.725C133.803 103.779 133.757 103.847 133.73 103.929C133.704 104.01 133.701 104.1 133.719 104.199L133.42 104.255C133.391 104.103 133.401 103.963 133.45 103.835C133.498 103.706 133.577 103.599 133.686 103.511C133.795 103.424 133.926 103.366 134.077 103.337C134.229 103.308 134.37 103.315 134.5 103.357C134.63 103.399 134.738 103.468 134.825 103.564C134.913 103.661 134.969 103.776 134.994 103.909C135.012 104.005 135.012 104.102 134.995 104.2C134.978 104.297 134.938 104.409 134.875 104.537C134.812 104.663 134.721 104.821 134.602 105.009L134.136 105.743L134.14 105.764L135.348 105.535L135.4 105.814L133.762 106.125Z" fill="#0D257B"/>
<path d="M144.279 104.167C144.111 104.199 143.957 104.199 143.815 104.166C143.674 104.133 143.555 104.073 143.459 103.985C143.363 103.897 143.299 103.785 143.267 103.65L143.587 103.589C143.609 103.672 143.652 103.739 143.714 103.79C143.776 103.84 143.851 103.874 143.939 103.892C144.027 103.909 144.121 103.908 144.221 103.889C144.333 103.868 144.428 103.83 144.507 103.775C144.586 103.719 144.643 103.652 144.679 103.574C144.715 103.495 144.725 103.41 144.707 103.319C144.689 103.223 144.65 103.144 144.589 103.08C144.528 103.015 144.447 102.971 144.348 102.947C144.249 102.923 144.134 102.923 144.002 102.948L143.794 102.988L143.741 102.709L143.949 102.669C144.052 102.65 144.139 102.614 144.21 102.562C144.282 102.51 144.333 102.446 144.364 102.37C144.396 102.293 144.404 102.21 144.387 102.118C144.37 102.03 144.336 101.958 144.285 101.9C144.234 101.842 144.169 101.802 144.092 101.779C144.015 101.756 143.928 101.753 143.833 101.772C143.743 101.789 143.662 101.821 143.588 101.869C143.516 101.916 143.46 101.975 143.422 102.047C143.384 102.117 143.371 102.196 143.383 102.283L143.078 102.34C143.058 102.203 143.076 102.076 143.134 101.959C143.191 101.842 143.277 101.742 143.39 101.661C143.505 101.58 143.637 101.525 143.786 101.497C143.947 101.466 144.091 101.473 144.218 101.516C144.345 101.558 144.449 101.626 144.531 101.72C144.613 101.814 144.665 101.923 144.688 102.045C144.716 102.192 144.701 102.324 144.643 102.442C144.587 102.559 144.497 102.65 144.373 102.715L144.377 102.735C144.546 102.731 144.687 102.777 144.8 102.872C144.914 102.966 144.986 103.095 145.017 103.26C145.043 103.401 145.029 103.536 144.973 103.663C144.918 103.789 144.831 103.896 144.711 103.986C144.591 104.075 144.447 104.136 144.279 104.167Z" fill="#0D257B"/>
<path d="M152.882 101.94L152.833 101.682L153.634 99.6586L153.822 99.623L153.897 100.024L153.77 100.048L153.165 101.576L153.169 101.597L154.706 101.305L154.759 101.584L152.882 101.94ZM154.205 102.241L154.089 101.63L154.067 101.509L153.715 99.6432L154.015 99.5864L154.504 102.184L154.205 102.241Z" fill="#0D257B"/>
<path d="M163.478 100.524C163.33 100.552 163.19 100.548 163.06 100.511C162.929 100.475 162.819 100.412 162.727 100.322C162.636 100.233 162.574 100.122 162.543 99.9918L162.847 99.9341C162.881 100.049 162.953 100.137 163.062 100.195C163.172 100.253 163.293 100.27 163.426 100.245C163.532 100.224 163.622 100.182 163.696 100.116C163.77 100.05 163.823 99.9692 163.854 99.8731C163.885 99.776 163.891 99.6721 163.87 99.5613C163.849 99.448 163.805 99.3517 163.738 99.2723C163.672 99.192 163.591 99.1342 163.495 99.099C163.399 99.0638 163.296 99.0562 163.185 99.0764C163.105 99.0906 163.026 99.1184 162.947 99.1596C162.868 99.2001 162.805 99.2448 162.758 99.294L162.457 99.3143L162.374 98.0058L163.723 97.7498L163.776 98.0288L162.69 98.2348L162.743 99.0183L162.758 99.0155C162.804 98.9631 162.864 98.9153 162.939 98.8721C163.014 98.829 163.095 98.7992 163.182 98.7826C163.341 98.7525 163.49 98.7637 163.628 98.8162C163.768 98.8677 163.885 98.9523 163.981 99.0699C164.077 99.1873 164.142 99.3302 164.173 99.4985C164.205 99.6642 164.195 99.8193 164.145 99.9636C164.096 100.107 164.014 100.229 163.899 100.328C163.783 100.427 163.643 100.492 163.478 100.524Z" fill="#0D257B"/>
<path d="M173.334 98.6528C173.227 98.6713 173.117 98.6712 173.003 98.6526C172.889 98.6339 172.779 98.5868 172.674 98.5113C172.569 98.4349 172.474 98.3228 172.391 98.1747C172.308 98.0258 172.244 97.8313 172.199 97.5911C172.155 97.3611 172.138 97.1532 172.148 96.9674C172.158 96.7808 172.192 96.6188 172.251 96.4815C172.31 96.3433 172.391 96.2315 172.495 96.1461C172.6 96.0605 172.725 96.0039 172.872 95.9761C173.017 95.9485 173.152 95.9532 173.276 95.99C173.401 96.0259 173.509 96.0886 173.601 96.1781C173.692 96.2676 173.761 96.3776 173.807 96.5081L173.498 96.5668C173.447 96.4555 173.373 96.3693 173.276 96.3081C173.178 96.2468 173.061 96.2292 172.924 96.2552C172.723 96.2934 172.581 96.411 172.498 96.608C172.416 96.8049 172.405 97.0616 172.463 97.378L172.484 97.3742C172.517 97.2933 172.562 97.2213 172.618 97.1582C172.674 97.0941 172.739 97.0406 172.813 96.9976C172.887 96.9546 172.969 96.9247 173.058 96.9078C173.207 96.8796 173.35 96.891 173.487 96.942C173.624 96.9921 173.743 97.0753 173.841 97.1914C173.94 97.3066 174.005 97.448 174.037 97.6155C174.067 97.7761 174.059 97.9301 174.012 98.0774C173.965 98.2238 173.884 98.3487 173.769 98.452C173.654 98.5544 173.509 98.6213 173.334 98.6528ZM173.281 98.3737C173.388 98.3535 173.478 98.3087 173.553 98.2394C173.628 98.1699 173.682 98.0857 173.714 97.9868C173.747 97.8877 173.753 97.7831 173.733 97.6732C173.712 97.5658 173.67 97.4727 173.605 97.3939C173.541 97.3141 173.462 97.2559 173.369 97.2194C173.276 97.1826 173.176 97.1744 173.07 97.1946C172.989 97.2099 172.918 97.2401 172.854 97.2854C172.791 97.3299 172.738 97.3845 172.696 97.4495C172.655 97.5142 172.626 97.5849 172.61 97.6616C172.594 97.7374 172.593 97.8142 172.607 97.892C172.627 97.9952 172.669 98.087 172.734 98.1675C172.8 98.2478 172.88 98.3075 172.975 98.3464C173.071 98.3852 173.173 98.3943 173.281 98.3737Z" fill="#0D257B"/>
<path d="M117.179 121.042L117.907 118.523L117.904 118.503L116.564 118.757L116.512 118.478L118.176 118.162L118.231 118.457L117.509 120.98L117.179 121.042Z" fill="#0D257B"/>
<path d="M127.132 119.196C126.957 119.229 126.798 119.227 126.652 119.191C126.508 119.153 126.388 119.087 126.293 118.992C126.198 118.896 126.138 118.778 126.112 118.638C126.091 118.528 126.093 118.422 126.12 118.321C126.146 118.219 126.191 118.129 126.255 118.052C126.32 117.974 126.399 117.918 126.49 117.883L126.487 117.867C126.357 117.859 126.245 117.808 126.151 117.714C126.057 117.62 125.998 117.504 125.973 117.366C125.947 117.234 125.958 117.11 126.006 116.993C126.054 116.876 126.132 116.777 126.239 116.694C126.347 116.611 126.477 116.556 126.629 116.527C126.779 116.498 126.919 116.503 127.049 116.54C127.179 116.578 127.287 116.642 127.374 116.733C127.463 116.824 127.519 116.936 127.545 117.068C127.57 117.206 127.556 117.336 127.502 117.458C127.448 117.58 127.364 117.668 127.248 117.723L127.251 117.738C127.348 117.737 127.44 117.761 127.527 117.811C127.614 117.859 127.689 117.926 127.752 118.011C127.814 118.096 127.856 118.193 127.878 118.303C127.903 118.443 127.889 118.576 127.834 118.7C127.78 118.823 127.693 118.928 127.572 119.016C127.452 119.103 127.305 119.163 127.132 119.196ZM127.079 118.917C127.197 118.894 127.294 118.856 127.373 118.802C127.451 118.748 127.507 118.681 127.54 118.603C127.574 118.525 127.582 118.439 127.565 118.346C127.546 118.248 127.504 118.166 127.44 118.1C127.376 118.035 127.297 117.988 127.203 117.962C127.109 117.935 127.007 117.932 126.897 117.953C126.787 117.974 126.692 118.014 126.613 118.074C126.535 118.133 126.478 118.205 126.442 118.29C126.407 118.374 126.399 118.466 126.419 118.564C126.435 118.657 126.473 118.734 126.532 118.794C126.591 118.855 126.668 118.896 126.761 118.918C126.855 118.939 126.961 118.939 127.079 118.917ZM126.847 117.684C126.94 117.666 127.019 117.632 127.084 117.581C127.149 117.53 127.197 117.467 127.225 117.392C127.254 117.318 127.261 117.235 127.245 117.146C127.227 117.058 127.192 116.985 127.139 116.928C127.086 116.87 127.02 116.829 126.942 116.808C126.863 116.785 126.776 116.783 126.68 116.801C126.583 116.819 126.502 116.853 126.436 116.904C126.37 116.953 126.323 117.014 126.296 117.088C126.268 117.161 126.263 117.241 126.281 117.329C126.297 117.418 126.331 117.493 126.385 117.552C126.439 117.611 126.505 117.652 126.585 117.675C126.665 117.699 126.752 117.702 126.847 117.684Z" fill="#0D257B"/>
<path d="M136.225 114.705C136.332 114.686 136.442 114.686 136.556 114.705C136.67 114.725 136.78 114.772 136.885 114.848C136.99 114.922 137.085 115.034 137.168 115.182C137.251 115.33 137.315 115.523 137.36 115.762C137.403 115.992 137.42 116.202 137.41 116.389C137.4 116.576 137.366 116.738 137.307 116.876C137.249 117.014 137.167 117.126 137.063 117.212C136.959 117.297 136.834 117.354 136.687 117.382C136.542 117.409 136.407 117.405 136.282 117.369C136.158 117.332 136.049 117.269 135.957 117.18C135.866 117.089 135.797 116.978 135.751 116.845L136.06 116.786C136.111 116.9 136.185 116.988 136.282 117.05C136.38 117.111 136.498 117.129 136.635 117.103C136.835 117.065 136.977 116.947 137.06 116.75C137.143 116.553 137.155 116.294 137.095 115.975L137.075 115.978C137.041 116.059 136.996 116.13 136.941 116.194C136.885 116.258 136.82 116.312 136.746 116.355C136.672 116.398 136.59 116.428 136.501 116.445C136.352 116.473 136.208 116.462 136.07 116.412C135.933 116.361 135.815 116.278 135.716 116.163C135.618 116.046 135.553 115.905 135.521 115.737C135.491 115.578 135.499 115.426 135.546 115.281C135.592 115.134 135.673 115.009 135.788 114.906C135.903 114.803 136.049 114.736 136.225 114.705ZM136.278 114.984C136.171 115.004 136.08 115.049 136.005 115.119C135.93 115.187 135.877 115.271 135.844 115.37C135.811 115.468 135.805 115.571 135.826 115.679C135.846 115.788 135.888 115.882 135.952 115.962C136.017 116.04 136.096 116.098 136.189 116.135C136.282 116.171 136.382 116.178 136.489 116.158C136.569 116.143 136.641 116.113 136.704 116.069C136.767 116.023 136.82 115.968 136.861 115.903C136.903 115.838 136.932 115.767 136.948 115.691C136.965 115.614 136.965 115.538 136.951 115.461C136.932 115.359 136.889 115.269 136.824 115.189C136.759 115.11 136.678 115.05 136.583 115.012C136.488 114.973 136.386 114.963 136.278 114.984Z" fill="#0D257B"/>
<path d="M145.951 112.893L146.44 115.491L146.126 115.551L145.699 113.283L145.683 113.285L145.129 113.827L145.068 113.507L145.637 112.953L145.951 112.893ZM148.041 115.224C147.85 115.26 147.678 115.239 147.524 115.161C147.369 115.081 147.238 114.949 147.13 114.764C147.021 114.578 146.94 114.343 146.887 114.061C146.834 113.78 146.824 113.534 146.858 113.321C146.892 113.108 146.967 112.936 147.081 112.806C147.197 112.675 147.349 112.591 147.539 112.555C147.728 112.519 147.9 112.541 148.054 112.621C148.209 112.701 148.341 112.833 148.45 113.019C148.559 113.204 148.64 113.437 148.693 113.718C148.746 114.001 148.756 114.248 148.722 114.461C148.689 114.674 148.615 114.845 148.5 114.975C148.385 115.105 148.232 115.188 148.041 115.224ZM147.989 114.945C148.178 114.909 148.308 114.79 148.378 114.587C148.449 114.385 148.452 114.114 148.388 113.776C148.346 113.551 148.286 113.364 148.208 113.215C148.131 113.066 148.04 112.958 147.934 112.892C147.83 112.826 147.715 112.805 147.59 112.829C147.402 112.865 147.273 112.985 147.202 113.19C147.131 113.395 147.128 113.666 147.191 114.003C147.234 114.228 147.293 114.415 147.37 114.563C147.447 114.711 147.538 114.818 147.642 114.883C147.747 114.948 147.863 114.969 147.989 114.945Z" fill="#0D257B"/>
<path d="M155.607 111.065L156.097 113.663L155.782 113.723L155.355 111.454L155.34 111.457L154.785 111.999L154.725 111.679L155.293 111.125L155.607 111.065ZM157.267 110.75L157.757 113.348L157.442 113.408L157.015 111.139L157 111.142L156.445 111.684L156.385 111.364L156.953 110.81L157.267 110.75Z" fill="#0D257B"/>
<path d="M165.217 109.235L165.706 111.833L165.392 111.892L164.964 109.624L164.949 109.627L164.394 110.169L164.334 109.849L164.902 109.294L165.217 109.235ZM166.453 111.691L166.41 111.463L167.09 110.361C167.17 110.232 167.235 110.121 167.285 110.027C167.335 109.933 167.368 109.847 167.386 109.769C167.405 109.69 167.406 109.611 167.391 109.532C167.374 109.44 167.337 109.365 167.281 109.307C167.225 109.248 167.156 109.208 167.074 109.186C166.992 109.164 166.904 109.162 166.81 109.179C166.71 109.198 166.627 109.236 166.561 109.291C166.495 109.346 166.448 109.414 166.422 109.495C166.396 109.576 166.392 109.666 166.411 109.765L166.111 109.822C166.083 109.67 166.093 109.529 166.141 109.401C166.19 109.273 166.268 109.165 166.377 109.078C166.487 108.99 166.617 108.932 166.769 108.904C166.921 108.875 167.062 108.881 167.191 108.923C167.321 108.965 167.429 109.034 167.517 109.131C167.604 109.227 167.66 109.342 167.686 109.476C167.704 109.571 167.704 109.668 167.686 109.766C167.67 109.863 167.629 109.975 167.566 110.103C167.503 110.23 167.412 110.387 167.294 110.575L166.828 111.31L166.832 111.33L168.039 111.101L168.092 111.38L166.453 111.691Z" fill="#0D257B"/>
<path d="M175.021 107.376L175.511 109.974L175.196 110.034L174.769 107.766L174.754 107.769L174.199 108.31L174.139 107.991L174.707 107.436L175.021 107.376ZM177.142 109.702C176.975 109.733 176.82 109.733 176.678 109.7C176.537 109.667 176.418 109.607 176.322 109.52C176.227 109.431 176.163 109.319 176.13 109.184L176.45 109.123C176.472 109.206 176.515 109.273 176.577 109.324C176.639 109.374 176.714 109.408 176.802 109.426C176.891 109.443 176.985 109.442 177.084 109.423C177.196 109.402 177.291 109.364 177.37 109.309C177.449 109.254 177.506 109.187 177.542 109.108C177.578 109.029 177.588 108.944 177.571 108.853C177.553 108.757 177.513 108.678 177.452 108.614C177.391 108.549 177.311 108.505 177.212 108.481C177.112 108.457 176.997 108.457 176.865 108.482L176.657 108.522L176.604 108.243L176.812 108.203C176.916 108.184 177.003 108.148 177.073 108.096C177.145 108.044 177.196 107.98 177.228 107.904C177.26 107.828 177.267 107.744 177.25 107.653C177.233 107.565 177.199 107.492 177.148 107.434C177.097 107.376 177.033 107.336 176.955 107.313C176.878 107.29 176.791 107.288 176.696 107.306C176.606 107.323 176.525 107.355 176.452 107.403C176.379 107.45 176.324 107.509 176.285 107.581C176.247 107.651 176.234 107.73 176.246 107.817L175.941 107.875C175.921 107.737 175.939 107.61 175.997 107.493C176.055 107.376 176.14 107.276 176.253 107.195C176.368 107.114 176.5 107.059 176.649 107.031C176.81 107 176.954 107.007 177.081 107.05C177.208 107.092 177.313 107.161 177.394 107.255C177.476 107.349 177.528 107.457 177.551 107.58C177.579 107.726 177.564 107.858 177.506 107.976C177.45 108.093 177.36 108.184 177.236 108.249L177.24 108.269C177.409 108.265 177.55 108.311 177.664 108.406C177.777 108.5 177.849 108.629 177.88 108.794C177.907 108.935 177.892 109.07 177.836 109.197C177.781 109.323 177.694 109.43 177.574 109.52C177.454 109.609 177.31 109.67 177.142 109.702Z" fill="#0D257B"/>
<path d="M119.654 129.653L120.144 132.251L119.829 132.31L119.402 130.042L119.387 130.045L118.832 130.587L118.772 130.267L119.34 129.712L119.654 129.653ZM120.729 131.588L120.681 131.329L121.482 129.306L121.669 129.27L121.745 129.671L121.618 129.695L121.013 131.224L121.017 131.244L122.554 130.953L122.606 131.232L120.729 131.588ZM122.052 131.889L121.937 131.277L121.914 131.157L121.563 129.291L121.862 129.234L122.351 131.832L122.052 131.889Z" fill="#0D257B"/>
<path d="M128.849 127.91L129.339 130.508L129.024 130.567L128.597 128.299L128.582 128.302L128.027 128.843L127.967 128.524L128.535 127.969L128.849 127.91ZM130.904 130.247C130.755 130.276 130.616 130.271 130.485 130.235C130.355 130.198 130.244 130.135 130.153 130.046C130.062 129.956 130 129.846 129.969 129.715L130.273 129.658C130.307 129.773 130.378 129.86 130.488 129.919C130.598 129.977 130.719 129.993 130.852 129.968C130.958 129.948 131.048 129.905 131.122 129.84C131.196 129.774 131.248 129.693 131.279 129.597C131.311 129.5 131.316 129.396 131.296 129.285C131.274 129.172 131.23 129.075 131.164 128.996C131.098 128.916 131.017 128.858 130.921 128.823C130.825 128.787 130.721 128.78 130.611 128.8C130.531 128.814 130.452 128.842 130.373 128.883C130.294 128.924 130.231 128.968 130.184 129.018L129.883 129.038L129.799 127.729L131.149 127.473L131.201 127.752L130.116 127.958L130.169 128.742L130.184 128.739C130.229 128.687 130.289 128.639 130.365 128.596C130.44 128.553 130.521 128.523 130.608 128.506C130.767 128.476 130.915 128.487 131.054 128.54C131.193 128.591 131.311 128.676 131.407 128.793C131.503 128.911 131.567 129.054 131.599 129.222C131.63 129.388 131.621 129.543 131.571 129.687C131.522 129.831 131.44 129.952 131.324 130.052C131.209 130.151 131.069 130.216 130.904 130.247Z" fill="#0D257B"/>
<path d="M138.451 126.09L138.94 128.688L138.626 128.748L138.199 126.48L138.183 126.483L137.629 127.024L137.568 126.704L138.137 126.15L138.451 126.09ZM140.556 128.418C140.45 128.437 140.339 128.437 140.225 128.418C140.112 128.399 140.002 128.352 139.897 128.277C139.791 128.201 139.697 128.088 139.614 127.94C139.531 127.791 139.466 127.597 139.421 127.357C139.378 127.127 139.361 126.919 139.371 126.733C139.38 126.546 139.415 126.384 139.474 126.247C139.533 126.109 139.614 125.997 139.718 125.912C139.823 125.826 139.948 125.769 140.094 125.742C140.24 125.714 140.375 125.719 140.499 125.756C140.624 125.791 140.732 125.854 140.823 125.944C140.915 126.033 140.983 126.143 141.03 126.274L140.72 126.332C140.67 126.221 140.596 126.135 140.498 126.074C140.401 126.012 140.284 125.995 140.147 126.021C139.946 126.059 139.804 126.177 139.721 126.374C139.639 126.57 139.627 126.827 139.686 127.144L139.706 127.14C139.74 127.059 139.785 126.987 139.84 126.924C139.896 126.86 139.962 126.806 140.036 126.763C140.11 126.72 140.192 126.69 140.28 126.673C140.429 126.645 140.572 126.657 140.71 126.708C140.847 126.758 140.965 126.841 141.064 126.957C141.163 127.072 141.228 127.214 141.26 127.381C141.29 127.542 141.282 127.696 141.235 127.843C141.188 127.989 141.107 128.114 140.991 128.218C140.877 128.32 140.732 128.387 140.556 128.418ZM140.504 128.139C140.61 128.119 140.701 128.074 140.775 128.005C140.851 127.936 140.905 127.851 140.937 127.752C140.97 127.653 140.976 127.549 140.955 127.439C140.935 127.331 140.892 127.238 140.828 127.159C140.764 127.08 140.685 127.021 140.591 126.985C140.498 126.948 140.399 126.94 140.292 126.96C140.212 126.975 140.14 127.006 140.077 127.051C140.013 127.095 139.961 127.15 139.919 127.215C139.877 127.28 139.849 127.35 139.833 127.427C139.816 127.503 139.815 127.58 139.83 127.658C139.849 127.761 139.892 127.853 139.957 127.933C140.023 128.013 140.103 128.073 140.198 128.112C140.294 128.151 140.396 128.16 140.504 128.139Z" fill="#0D257B"/>
<path d="M148.092 124.257L148.581 126.855L148.267 126.914L147.839 124.646L147.824 124.649L147.269 125.191L147.209 124.871L147.777 124.316L148.092 124.257ZM149.409 126.698L150.138 124.179L150.134 124.158L148.795 124.412L148.742 124.133L150.406 123.818L150.462 124.112L149.739 126.635L149.409 126.698Z" fill="#0D257B"/>
<path d="M157.74 122.428L158.229 125.026L157.915 125.086L157.488 122.818L157.473 122.821L156.918 123.362L156.858 123.042L157.426 122.488L157.74 122.428ZM159.815 124.762C159.641 124.795 159.481 124.793 159.336 124.757C159.191 124.72 159.072 124.653 158.977 124.558C158.882 124.463 158.821 124.344 158.796 124.204C158.774 124.094 158.777 123.989 158.803 123.887C158.829 123.785 158.875 123.695 158.939 123.618C159.004 123.54 159.082 123.484 159.174 123.449L159.171 123.434C159.04 123.425 158.928 123.374 158.835 123.281C158.741 123.186 158.681 123.07 158.656 122.932C158.63 122.801 158.642 122.676 158.69 122.559C158.738 122.443 158.815 122.343 158.922 122.26C159.03 122.178 159.16 122.122 159.312 122.093C159.463 122.064 159.603 122.069 159.733 122.107C159.862 122.144 159.971 122.209 160.058 122.3C160.146 122.391 160.203 122.502 160.229 122.634C160.254 122.772 160.239 122.902 160.185 123.024C160.132 123.146 160.047 123.234 159.932 123.289L159.935 123.305C160.032 123.304 160.124 123.328 160.211 123.377C160.298 123.425 160.373 123.492 160.435 123.577C160.498 123.662 160.54 123.759 160.561 123.869C160.587 124.009 160.572 124.142 160.518 124.266C160.464 124.389 160.376 124.495 160.255 124.583C160.135 124.669 159.988 124.729 159.815 124.762ZM159.763 124.483C159.88 124.461 159.978 124.422 160.056 124.368C160.134 124.314 160.19 124.248 160.224 124.169C160.257 124.091 160.265 124.006 160.249 123.912C160.229 123.814 160.188 123.733 160.124 123.667C160.06 123.601 159.98 123.555 159.886 123.528C159.793 123.501 159.691 123.498 159.581 123.519C159.47 123.54 159.375 123.58 159.296 123.64C159.218 123.699 159.161 123.771 159.126 123.856C159.091 123.941 159.083 124.032 159.102 124.13C159.119 124.223 159.157 124.3 159.215 124.361C159.275 124.421 159.351 124.462 159.445 124.484C159.538 124.506 159.644 124.505 159.763 124.483ZM159.53 123.25C159.623 123.232 159.702 123.198 159.767 123.147C159.833 123.096 159.88 123.033 159.909 122.959C159.938 122.884 159.944 122.802 159.928 122.712C159.911 122.624 159.876 122.552 159.823 122.494C159.77 122.436 159.704 122.396 159.625 122.374C159.547 122.351 159.459 122.349 159.364 122.367C159.267 122.385 159.185 122.42 159.119 122.47C159.053 122.519 159.007 122.581 158.979 122.654C158.952 122.727 158.947 122.807 158.964 122.895C158.98 122.985 159.015 123.059 159.068 123.118C159.122 123.177 159.189 123.218 159.269 123.242C159.348 123.265 159.436 123.268 159.53 123.25Z" fill="white"/>
<path d="M167.349 120.601L167.839 123.199L167.524 123.259L167.097 120.991L167.082 120.993L166.527 121.535L166.467 121.215L167.035 120.661L167.349 120.601ZM168.917 120.267C169.023 120.247 169.134 120.248 169.248 120.267C169.362 120.287 169.471 120.334 169.577 120.41C169.682 120.484 169.776 120.596 169.859 120.744C169.942 120.892 170.006 121.085 170.051 121.323C170.094 121.554 170.111 121.764 170.101 121.951C170.091 122.138 170.057 122.3 169.998 122.438C169.94 122.576 169.859 122.688 169.754 122.774C169.65 122.859 169.525 122.916 169.379 122.944C169.233 122.971 169.098 122.967 168.973 122.931C168.849 122.894 168.741 122.831 168.649 122.742C168.557 122.651 168.488 122.54 168.442 122.407L168.752 122.348C168.802 122.462 168.876 122.55 168.973 122.612C169.072 122.673 169.189 122.69 169.326 122.664C169.527 122.626 169.668 122.509 169.751 122.312C169.835 122.115 169.847 121.856 169.786 121.537L169.766 121.54C169.732 121.62 169.687 121.692 169.632 121.756C169.577 121.82 169.512 121.874 169.438 121.917C169.363 121.96 169.281 121.99 169.192 122.007C169.043 122.035 168.9 122.024 168.761 121.974C168.624 121.923 168.506 121.84 168.407 121.725C168.309 121.608 168.244 121.467 168.213 121.299C168.183 121.14 168.191 120.988 168.237 120.843C168.284 120.696 168.365 120.571 168.479 120.468C168.594 120.365 168.74 120.298 168.917 120.267ZM168.969 120.546C168.863 120.566 168.772 120.611 168.696 120.68C168.622 120.749 168.568 120.833 168.535 120.932C168.503 121.03 168.497 121.133 168.517 121.241C168.537 121.35 168.58 121.444 168.644 121.523C168.708 121.602 168.787 121.66 168.88 121.697C168.973 121.732 169.073 121.74 169.18 121.72C169.26 121.705 169.332 121.675 169.395 121.63C169.459 121.585 169.511 121.53 169.552 121.465C169.594 121.4 169.623 121.329 169.64 121.253C169.656 121.176 169.657 121.1 169.642 121.023C169.623 120.921 169.581 120.831 169.515 120.751C169.45 120.671 169.37 120.612 169.274 120.574C169.179 120.535 169.077 120.525 168.969 120.546Z" fill="#0D257B"/>
<path d="M176.73 121.514L176.687 121.286L177.368 120.184C177.448 120.055 177.513 119.944 177.562 119.85C177.612 119.756 177.646 119.67 177.664 119.592C177.682 119.513 177.684 119.434 177.669 119.354C177.652 119.263 177.615 119.188 177.558 119.13C177.502 119.071 177.434 119.031 177.351 119.009C177.269 118.987 177.181 118.984 177.088 119.002C176.988 119.021 176.905 119.058 176.838 119.114C176.772 119.169 176.726 119.236 176.699 119.318C176.673 119.399 176.67 119.489 176.688 119.588L176.389 119.645C176.36 119.492 176.37 119.352 176.419 119.224C176.467 119.095 176.546 118.988 176.655 118.9C176.764 118.813 176.895 118.755 177.046 118.726C177.198 118.697 177.339 118.704 177.469 118.746C177.598 118.788 177.707 118.857 177.794 118.954C177.882 119.05 177.938 119.165 177.963 119.299C177.981 119.394 177.981 119.491 177.964 119.589C177.947 119.686 177.907 119.798 177.843 119.926C177.781 120.052 177.69 120.21 177.571 120.398L177.105 121.133L177.109 121.153L178.316 120.924L178.369 121.203L176.73 121.514ZM179.747 120.978C179.555 121.015 179.383 120.993 179.229 120.915C179.075 120.836 178.943 120.703 178.835 120.518C178.726 120.332 178.645 120.098 178.592 119.815C178.539 119.534 178.53 119.288 178.563 119.076C178.598 118.862 178.672 118.691 178.787 118.56C178.902 118.429 179.054 118.345 179.244 118.309C179.433 118.273 179.605 118.296 179.759 118.376C179.914 118.455 180.046 118.588 180.155 118.774C180.264 118.959 180.345 119.192 180.398 119.472C180.451 119.755 180.461 120.003 180.428 120.216C180.394 120.428 180.32 120.599 180.205 120.73C180.091 120.859 179.938 120.942 179.747 120.978ZM179.694 120.699C179.883 120.663 180.013 120.544 180.084 120.341C180.154 120.139 180.158 119.868 180.094 119.53C180.051 119.305 179.991 119.118 179.913 118.969C179.836 118.82 179.745 118.713 179.64 118.647C179.535 118.581 179.421 118.56 179.295 118.583C179.108 118.619 178.979 118.739 178.908 118.945C178.837 119.149 178.833 119.42 178.897 119.757C178.939 119.982 178.999 120.169 179.076 120.317C179.153 120.466 179.243 120.572 179.347 120.638C179.452 120.703 179.568 120.723 179.694 120.699Z" fill="#0D257B"/>
<path d="M121.379 143.789L121.336 143.561L122.016 142.46C122.096 142.33 122.161 142.219 122.211 142.126C122.261 142.031 122.294 141.945 122.312 141.867C122.33 141.789 122.332 141.709 122.317 141.63C122.3 141.539 122.263 141.464 122.207 141.405C122.151 141.347 122.082 141.306 122 141.284C121.918 141.262 121.83 141.26 121.736 141.278C121.636 141.297 121.553 141.334 121.486 141.389C121.42 141.444 121.374 141.512 121.347 141.593C121.322 141.674 121.318 141.764 121.337 141.863L121.037 141.92C121.009 141.768 121.019 141.628 121.067 141.499C121.116 141.371 121.194 141.263 121.303 141.176C121.413 141.089 121.543 141.03 121.694 141.002C121.847 140.973 121.988 140.979 122.117 141.021C122.247 141.063 122.355 141.133 122.443 141.229C122.53 141.325 122.586 141.44 122.611 141.574C122.629 141.67 122.63 141.766 122.612 141.864C122.595 141.961 122.555 142.073 122.492 142.201C122.429 142.328 122.338 142.485 122.219 142.673L121.754 143.408L121.757 143.428L122.965 143.199L123.017 143.478L121.379 143.789ZM123.965 140.608L124.454 143.206L124.14 143.265L123.713 140.997L123.697 141L123.143 141.542L123.082 141.222L123.65 140.667L123.965 140.608Z" fill="#0D257B"/>
<path d="M130.574 142.049L130.531 141.821L131.212 140.72C131.292 140.591 131.356 140.479 131.406 140.386C131.456 140.292 131.49 140.205 131.507 140.128C131.526 140.049 131.527 139.97 131.512 139.89C131.495 139.799 131.458 139.724 131.402 139.665C131.346 139.607 131.277 139.566 131.195 139.544C131.113 139.522 131.025 139.52 130.931 139.538C130.831 139.557 130.748 139.594 130.682 139.65C130.616 139.704 130.569 139.772 130.543 139.853C130.517 139.935 130.513 140.025 130.532 140.123L130.233 140.18C130.204 140.028 130.214 139.888 130.262 139.759C130.311 139.631 130.39 139.523 130.498 139.436C130.608 139.349 130.738 139.291 130.89 139.262C131.042 139.233 131.183 139.24 131.313 139.282C131.442 139.324 131.551 139.393 131.638 139.489C131.725 139.586 131.782 139.701 131.807 139.834C131.825 139.93 131.825 140.027 131.808 140.124C131.791 140.221 131.751 140.334 131.687 140.461C131.624 140.588 131.533 140.745 131.415 140.933L130.949 141.668L130.953 141.689L132.16 141.459L132.213 141.739L130.574 142.049ZM132.736 141.639L132.693 141.411L133.374 140.309C133.454 140.18 133.519 140.069 133.569 139.976C133.618 139.881 133.652 139.795 133.67 139.717C133.688 139.638 133.69 139.559 133.675 139.48C133.658 139.388 133.621 139.314 133.564 139.255C133.508 139.196 133.44 139.156 133.357 139.134C133.275 139.112 133.187 139.11 133.094 139.128C132.994 139.147 132.911 139.184 132.844 139.239C132.778 139.294 132.732 139.362 132.705 139.443C132.679 139.524 132.676 139.614 132.694 139.713L132.395 139.77C132.366 139.618 132.376 139.477 132.425 139.349C132.473 139.221 132.552 139.113 132.661 139.026C132.77 138.938 132.901 138.88 133.052 138.852C133.204 138.823 133.345 138.829 133.475 138.871C133.604 138.913 133.713 138.983 133.8 139.079C133.888 139.175 133.944 139.29 133.969 139.424C133.987 139.52 133.987 139.616 133.97 139.714C133.953 139.811 133.913 139.923 133.849 140.051C133.787 140.178 133.696 140.335 133.577 140.523L133.111 141.258L133.115 141.278L134.322 141.049L134.375 141.328L132.736 141.639Z" fill="#0D257B"/>
<path d="M140.176 140.227L140.133 139.998L140.813 138.897C140.893 138.768 140.958 138.657 141.008 138.563C141.057 138.469 141.091 138.383 141.109 138.305C141.127 138.226 141.129 138.147 141.114 138.067C141.097 137.976 141.06 137.901 141.003 137.843C140.948 137.784 140.879 137.744 140.797 137.722C140.715 137.7 140.627 137.697 140.533 137.715C140.433 137.734 140.35 137.771 140.283 137.827C140.217 137.881 140.171 137.949 140.144 138.031C140.118 138.112 140.115 138.202 140.133 138.301L139.834 138.358C139.805 138.205 139.815 138.065 139.864 137.937C139.912 137.808 139.991 137.701 140.1 137.613C140.21 137.526 140.34 137.468 140.491 137.439C140.644 137.41 140.784 137.417 140.914 137.459C141.044 137.501 141.152 137.57 141.24 137.666C141.327 137.763 141.383 137.878 141.408 138.012C141.426 138.107 141.427 138.204 141.409 138.302C141.392 138.399 141.352 138.511 141.289 138.639C141.226 138.765 141.135 138.923 141.016 139.111L140.551 139.846L140.554 139.866L141.762 139.637L141.814 139.916L140.176 140.227ZM143.222 139.685C143.055 139.717 142.9 139.717 142.758 139.684C142.617 139.651 142.499 139.591 142.403 139.503C142.307 139.415 142.243 139.303 142.211 139.168L142.53 139.107C142.553 139.19 142.595 139.257 142.657 139.308C142.719 139.358 142.794 139.392 142.883 139.41C142.971 139.427 143.065 139.426 143.165 139.407C143.276 139.386 143.372 139.348 143.45 139.293C143.529 139.237 143.587 139.17 143.623 139.092C143.659 139.013 143.668 138.928 143.651 138.837C143.633 138.741 143.593 138.662 143.532 138.598C143.471 138.533 143.391 138.489 143.292 138.465C143.193 138.441 143.077 138.441 142.945 138.466L142.737 138.506L142.685 138.227L142.893 138.187C142.996 138.167 143.083 138.132 143.154 138.08C143.225 138.028 143.277 137.964 143.308 137.888C143.34 137.811 143.347 137.728 143.33 137.636C143.314 137.548 143.28 137.476 143.229 137.418C143.177 137.36 143.113 137.32 143.035 137.297C142.958 137.274 142.872 137.271 142.776 137.289C142.687 137.306 142.605 137.339 142.532 137.387C142.459 137.434 142.404 137.493 142.366 137.564C142.327 137.635 142.314 137.714 142.326 137.801L142.022 137.858C142.001 137.721 142.02 137.594 142.077 137.477C142.135 137.359 142.22 137.26 142.334 137.179C142.448 137.098 142.58 137.043 142.73 137.015C142.89 136.984 143.034 136.99 143.162 137.034C143.289 137.076 143.393 137.144 143.475 137.238C143.556 137.332 143.609 137.441 143.632 137.563C143.659 137.71 143.644 137.842 143.587 137.959C143.53 138.077 143.44 138.168 143.316 138.233L143.32 138.253C143.489 138.249 143.631 138.294 143.744 138.389C143.857 138.484 143.929 138.613 143.96 138.778C143.987 138.919 143.972 139.053 143.917 139.181C143.862 139.307 143.774 139.414 143.654 139.504C143.535 139.593 143.391 139.653 143.222 139.685Z" fill="#0D257B"/>
<path d="M149.816 138.393L149.773 138.165L150.454 137.064C150.534 136.934 150.599 136.823 150.648 136.73C150.698 136.635 150.732 136.549 150.749 136.471C150.768 136.393 150.77 136.313 150.755 136.234C150.737 136.143 150.701 136.068 150.644 136.009C150.588 135.951 150.519 135.91 150.437 135.888C150.355 135.866 150.267 135.864 150.173 135.882C150.074 135.901 149.99 135.938 149.924 135.993C149.858 136.048 149.812 136.116 149.785 136.197C149.759 136.278 149.755 136.368 149.774 136.467L149.475 136.524C149.446 136.372 149.456 136.232 149.505 136.103C149.553 135.975 149.632 135.867 149.741 135.78C149.85 135.693 149.981 135.634 150.132 135.606C150.284 135.577 150.425 135.583 150.555 135.625C150.684 135.667 150.793 135.737 150.88 135.833C150.967 135.929 151.024 136.044 151.049 136.178C151.067 136.274 151.067 136.37 151.05 136.468C151.033 136.565 150.993 136.677 150.929 136.805C150.866 136.932 150.776 137.089 150.657 137.277L150.191 138.012L150.195 138.032L151.402 137.803L151.455 138.082L149.816 138.393ZM151.762 137.472L151.713 137.214L152.514 135.191L152.702 135.155L152.777 135.556L152.65 135.58L152.045 137.108L152.049 137.129L153.586 136.837L153.639 137.116L151.762 137.472ZM153.085 137.773L152.969 137.162L152.947 137.041L152.595 135.175L152.894 135.118L153.384 137.716L153.085 137.773Z" fill="#0D257B"/>
<path d="M159.465 136.568L159.422 136.339L160.102 135.238C160.182 135.109 160.247 134.998 160.297 134.904C160.346 134.81 160.38 134.723 160.398 134.646C160.416 134.567 160.418 134.488 160.403 134.408C160.386 134.317 160.349 134.242 160.292 134.183C160.237 134.125 160.168 134.084 160.086 134.062C160.004 134.04 159.916 134.038 159.822 134.056C159.722 134.075 159.639 134.112 159.572 134.168C159.506 134.222 159.46 134.29 159.433 134.371C159.408 134.453 159.404 134.543 159.423 134.642L159.123 134.698C159.095 134.546 159.104 134.406 159.153 134.278C159.201 134.149 159.28 134.041 159.389 133.954C159.499 133.867 159.629 133.809 159.78 133.78C159.933 133.751 160.074 133.758 160.203 133.8C160.333 133.842 160.441 133.911 160.529 134.007C160.616 134.104 160.672 134.219 160.697 134.352C160.715 134.448 160.716 134.545 160.698 134.643C160.681 134.739 160.641 134.852 160.578 134.979C160.515 135.106 160.424 135.263 160.305 135.452L159.84 136.186L159.843 136.207L161.051 135.978L161.103 136.257L159.465 136.568ZM162.445 136.039C162.297 136.067 162.157 136.063 162.027 136.026C161.896 135.99 161.785 135.927 161.694 135.837C161.603 135.748 161.541 135.637 161.51 135.507L161.814 135.449C161.848 135.564 161.92 135.651 162.029 135.71C162.139 135.768 162.26 135.785 162.393 135.76C162.499 135.739 162.589 135.697 162.663 135.631C162.737 135.565 162.79 135.484 162.821 135.388C162.852 135.291 162.858 135.187 162.837 135.076C162.816 134.963 162.772 134.867 162.705 134.787C162.639 134.707 162.558 134.649 162.462 134.614C162.366 134.579 162.263 134.571 162.152 134.591C162.072 134.606 161.993 134.633 161.914 134.675C161.835 134.715 161.772 134.76 161.725 134.809L161.424 134.829L161.341 133.521L162.69 133.265L162.743 133.544L161.657 133.75L161.71 134.533L161.725 134.53C161.771 134.478 161.831 134.43 161.906 134.387C161.981 134.344 162.062 134.314 162.149 134.298C162.308 134.267 162.457 134.279 162.595 134.331C162.735 134.383 162.852 134.467 162.948 134.585C163.044 134.702 163.109 134.845 163.14 135.013C163.171 135.179 163.162 135.334 163.112 135.479C163.063 135.622 162.981 135.744 162.866 135.843C162.75 135.942 162.61 136.007 162.445 136.039Z" fill="#0D257B"/>
<path d="M169.074 134.737L169.031 134.509L169.712 133.408C169.792 133.279 169.856 133.167 169.906 133.074C169.956 132.98 169.99 132.893 170.007 132.816C170.026 132.737 170.027 132.658 170.012 132.578C169.995 132.487 169.958 132.412 169.902 132.353C169.846 132.295 169.777 132.254 169.695 132.232C169.613 132.21 169.525 132.208 169.431 132.226C169.331 132.245 169.248 132.282 169.182 132.338C169.116 132.392 169.069 132.46 169.043 132.541C169.017 132.623 169.013 132.713 169.032 132.811L168.733 132.868C168.704 132.716 168.714 132.576 168.762 132.447C168.811 132.319 168.89 132.211 168.998 132.124C169.108 132.037 169.238 131.979 169.39 131.95C169.542 131.921 169.683 131.928 169.813 131.97C169.942 132.012 170.051 132.081 170.138 132.177C170.225 132.274 170.282 132.389 170.307 132.522C170.325 132.618 170.325 132.715 170.308 132.812C170.291 132.909 170.251 133.022 170.187 133.149C170.124 133.276 170.033 133.433 169.915 133.621L169.449 134.356L169.453 134.377L170.66 134.147L170.713 134.427L169.074 134.737ZM172.106 134.199C171.999 134.218 171.888 134.217 171.774 134.199C171.661 134.18 171.551 134.133 171.446 134.058C171.34 133.981 171.246 133.869 171.163 133.721C171.08 133.572 171.016 133.378 170.97 133.137C170.927 132.907 170.91 132.699 170.92 132.514C170.929 132.327 170.964 132.165 171.023 132.028C171.082 131.89 171.163 131.778 171.267 131.692C171.372 131.607 171.497 131.55 171.643 131.522C171.789 131.495 171.924 131.499 172.048 131.536C172.173 131.572 172.281 131.635 172.372 131.724C172.464 131.814 172.533 131.924 172.579 132.054L172.27 132.113C172.219 132.002 172.145 131.916 172.047 131.854C171.95 131.793 171.833 131.775 171.696 131.801C171.495 131.84 171.353 131.957 171.27 132.154C171.188 132.351 171.176 132.608 171.235 132.924L171.255 132.92C171.289 132.84 171.334 132.768 171.389 132.704C171.445 132.64 171.511 132.587 171.585 132.544C171.659 132.501 171.741 132.471 171.829 132.454C171.978 132.426 172.121 132.437 172.259 132.488C172.396 132.538 172.514 132.621 172.613 132.738C172.712 132.853 172.777 132.994 172.809 133.162C172.839 133.322 172.831 133.476 172.784 133.624C172.737 133.77 172.656 133.895 172.541 133.998C172.426 134.101 172.281 134.168 172.106 134.199ZM172.053 133.92C172.159 133.9 172.25 133.855 172.325 133.786C172.4 133.716 172.454 133.632 172.486 133.533C172.519 133.434 172.525 133.329 172.504 133.219C172.484 133.112 172.442 133.019 172.377 132.94C172.313 132.86 172.234 132.802 172.14 132.766C172.048 132.729 171.948 132.721 171.841 132.741C171.761 132.756 171.689 132.786 171.626 132.832C171.563 132.876 171.51 132.931 171.468 132.996C171.427 133.06 171.398 133.131 171.382 133.208C171.365 133.284 171.364 133.36 171.379 133.438C171.398 133.541 171.441 133.633 171.506 133.714C171.572 133.794 171.652 133.854 171.747 133.893C171.843 133.931 171.945 133.941 172.053 133.92Z" fill="#0D257B"/>
<path d="M178.879 132.879L178.836 132.651L179.516 131.549C179.596 131.42 179.661 131.309 179.711 131.215C179.761 131.121 179.794 131.035 179.812 130.957C179.83 130.878 179.832 130.799 179.817 130.72C179.8 130.628 179.763 130.553 179.707 130.495C179.651 130.436 179.582 130.396 179.5 130.374C179.418 130.352 179.33 130.35 179.236 130.368C179.136 130.386 179.053 130.424 178.986 130.479C178.92 130.534 178.874 130.602 178.847 130.683C178.822 130.764 178.818 130.854 178.837 130.953L178.537 131.01C178.509 130.858 178.519 130.717 178.567 130.589C178.616 130.461 178.694 130.353 178.803 130.266C178.913 130.178 179.043 130.12 179.194 130.092C179.347 130.063 179.488 130.069 179.617 130.111C179.747 130.153 179.855 130.222 179.943 130.319C180.03 130.415 180.086 130.53 180.111 130.664C180.129 130.759 180.13 130.856 180.112 130.954C180.095 131.051 180.055 131.163 179.992 131.291C179.929 131.418 179.838 131.575 179.719 131.763L179.254 132.498L179.257 132.518L180.465 132.289L180.517 132.568L178.879 132.879ZM181.122 132.453L181.851 129.934L181.847 129.914L180.508 130.168L180.455 129.889L182.119 129.573L182.175 129.868L181.452 132.391L181.122 132.453Z" fill="#0D257B"/>
<path d="M123.519 155.159L123.476 154.931L124.157 153.83C124.237 153.701 124.302 153.589 124.352 153.496C124.401 153.401 124.435 153.315 124.453 153.237C124.471 153.159 124.473 153.079 124.458 153C124.441 152.909 124.404 152.834 124.347 152.775C124.291 152.717 124.223 152.676 124.14 152.654C124.058 152.632 123.97 152.63 123.877 152.648C123.777 152.667 123.694 152.704 123.627 152.76C123.561 152.814 123.515 152.882 123.488 152.963C123.462 153.044 123.459 153.134 123.477 153.233L123.178 153.29C123.149 153.138 123.159 152.998 123.208 152.869C123.256 152.741 123.335 152.633 123.444 152.546C123.553 152.459 123.684 152.401 123.835 152.372C123.987 152.343 124.128 152.35 124.258 152.392C124.387 152.433 124.496 152.503 124.583 152.599C124.671 152.696 124.727 152.811 124.752 152.944C124.77 153.04 124.77 153.136 124.753 153.234C124.736 153.331 124.696 153.444 124.632 153.571C124.57 153.698 124.479 153.855 124.36 154.043L123.894 154.778L123.898 154.798L125.105 154.569L125.158 154.848L123.519 155.159ZM126.52 154.627C126.346 154.66 126.187 154.658 126.041 154.622C125.897 154.584 125.777 154.518 125.682 154.423C125.587 154.327 125.527 154.209 125.501 154.069C125.48 153.959 125.482 153.853 125.508 153.752C125.535 153.65 125.58 153.56 125.644 153.483C125.709 153.405 125.788 153.349 125.879 153.314L125.876 153.298C125.746 153.29 125.634 153.239 125.54 153.145C125.446 153.051 125.386 152.935 125.361 152.797C125.336 152.665 125.347 152.541 125.395 152.424C125.443 152.307 125.52 152.208 125.628 152.125C125.735 152.042 125.865 151.987 126.018 151.958C126.168 151.929 126.308 151.934 126.438 151.971C126.568 152.009 126.676 152.073 126.763 152.164C126.851 152.255 126.908 152.367 126.934 152.499C126.959 152.637 126.945 152.767 126.891 152.889C126.837 153.011 126.753 153.099 126.637 153.154L126.64 153.169C126.737 153.168 126.829 153.192 126.916 153.242C127.003 153.29 127.078 153.357 127.141 153.442C127.203 153.527 127.245 153.624 127.266 153.734C127.292 153.874 127.278 154.007 127.223 154.131C127.169 154.254 127.082 154.359 126.961 154.447C126.841 154.534 126.694 154.594 126.52 154.627ZM126.468 154.348C126.585 154.325 126.683 154.287 126.761 154.233C126.84 154.179 126.896 154.112 126.929 154.034C126.962 153.956 126.971 153.87 126.954 153.777C126.935 153.679 126.893 153.597 126.829 153.531C126.765 153.466 126.686 153.419 126.591 153.393C126.498 153.366 126.396 153.363 126.286 153.384C126.175 153.405 126.081 153.445 126.002 153.505C125.924 153.564 125.867 153.636 125.831 153.721C125.796 153.805 125.788 153.897 125.808 153.995C125.824 154.088 125.862 154.165 125.921 154.225C125.98 154.286 126.057 154.327 126.15 154.349C126.244 154.37 126.349 154.37 126.468 154.348ZM126.236 153.115C126.329 153.097 126.408 153.063 126.472 153.012C126.538 152.961 126.585 152.898 126.614 152.823C126.643 152.749 126.649 152.666 126.633 152.577C126.616 152.489 126.581 152.416 126.528 152.359C126.475 152.301 126.409 152.26 126.331 152.239C126.252 152.216 126.165 152.214 126.069 152.232C125.972 152.25 125.891 152.284 125.825 152.335C125.759 152.384 125.712 152.445 125.685 152.519C125.657 152.592 125.652 152.672 125.67 152.76C125.686 152.849 125.72 152.924 125.773 152.983C125.827 153.042 125.894 153.083 125.974 153.106C126.054 153.13 126.141 153.133 126.236 153.115Z" fill="#0D257B"/>
<path d="M132.715 153.42L132.672 153.191L133.352 152.09C133.432 151.961 133.497 151.85 133.547 151.756C133.596 151.662 133.63 151.576 133.648 151.498C133.666 151.419 133.668 151.34 133.653 151.26C133.636 151.169 133.599 151.094 133.542 151.036C133.487 150.977 133.418 150.937 133.336 150.914C133.254 150.892 133.166 150.89 133.072 150.908C132.972 150.927 132.889 150.964 132.822 151.02C132.756 151.074 132.71 151.142 132.683 151.224C132.658 151.305 132.654 151.395 132.673 151.494L132.373 151.55C132.345 151.398 132.354 151.258 132.403 151.13C132.451 151.001 132.53 150.893 132.639 150.806C132.749 150.719 132.879 150.661 133.03 150.632C133.183 150.603 133.324 150.61 133.453 150.652C133.583 150.694 133.691 150.763 133.779 150.859C133.866 150.956 133.922 151.071 133.947 151.204C133.965 151.3 133.966 151.397 133.948 151.495C133.931 151.592 133.891 151.704 133.828 151.831C133.765 151.958 133.674 152.116 133.555 152.304L133.09 153.038L133.093 153.059L134.301 152.83L134.353 153.109L132.715 153.42ZM135.208 150.219C135.315 150.2 135.425 150.2 135.539 150.219C135.653 150.239 135.763 150.286 135.868 150.362C135.973 150.436 136.067 150.548 136.15 150.696C136.233 150.844 136.297 151.037 136.342 151.276C136.386 151.506 136.402 151.716 136.392 151.903C136.383 152.09 136.348 152.252 136.289 152.39C136.231 152.529 136.15 152.64 136.045 152.726C135.941 152.811 135.816 152.868 135.67 152.896C135.525 152.923 135.389 152.919 135.264 152.883C135.14 152.846 135.032 152.783 134.94 152.694C134.848 152.604 134.78 152.492 134.734 152.359L135.043 152.3C135.093 152.414 135.167 152.502 135.265 152.564C135.363 152.625 135.481 152.643 135.617 152.617C135.818 152.579 135.959 152.461 136.042 152.264C136.126 152.067 136.138 151.808 136.078 151.489L136.057 151.492C136.023 151.573 135.979 151.645 135.923 151.708C135.868 151.772 135.803 151.826 135.729 151.869C135.655 151.912 135.573 151.942 135.483 151.959C135.334 151.987 135.191 151.976 135.053 151.926C134.915 151.875 134.797 151.792 134.698 151.677C134.6 151.561 134.535 151.419 134.504 151.251C134.474 151.092 134.482 150.94 134.528 150.795C134.575 150.648 134.656 150.523 134.77 150.42C134.886 150.317 135.032 150.25 135.208 150.219ZM135.26 150.498C135.154 150.518 135.063 150.563 134.988 150.633C134.913 150.701 134.859 150.785 134.826 150.884C134.794 150.982 134.788 151.085 134.808 151.193C134.829 151.302 134.871 151.396 134.935 151.476C135 151.554 135.078 151.612 135.171 151.649C135.265 151.685 135.365 151.692 135.471 151.672C135.551 151.657 135.623 151.627 135.687 151.583C135.75 151.537 135.802 151.482 135.843 151.417C135.885 151.352 135.915 151.281 135.931 151.205C135.947 151.128 135.948 151.052 135.933 150.975C135.914 150.873 135.872 150.783 135.806 150.703C135.741 150.624 135.661 150.564 135.565 150.526C135.47 150.487 135.369 150.477 135.26 150.498Z" fill="#0D257B"/>
<path d="M143.201 151.462C143.033 151.494 142.879 151.494 142.737 151.461C142.596 151.428 142.477 151.368 142.381 151.28C142.285 151.192 142.221 151.08 142.189 150.945L142.509 150.884C142.531 150.967 142.573 151.034 142.636 151.085C142.698 151.135 142.773 151.169 142.861 151.187C142.949 151.204 143.043 151.203 143.143 151.184C143.255 151.163 143.35 151.125 143.429 151.07C143.508 151.014 143.565 150.947 143.601 150.869C143.637 150.79 143.646 150.705 143.629 150.614C143.611 150.518 143.572 150.439 143.511 150.375C143.449 150.31 143.369 150.266 143.27 150.242C143.171 150.218 143.056 150.218 142.924 150.243L142.716 150.283L142.663 150.004L142.871 149.964C142.974 149.944 143.061 149.909 143.132 149.857C143.204 149.805 143.255 149.741 143.286 149.665C143.318 149.588 143.326 149.505 143.309 149.413C143.292 149.325 143.258 149.253 143.207 149.195C143.156 149.137 143.091 149.097 143.013 149.074C142.936 149.051 142.85 149.048 142.755 149.066C142.665 149.083 142.584 149.116 142.51 149.164C142.438 149.211 142.382 149.27 142.344 149.341C142.306 149.412 142.292 149.491 142.304 149.578L142 149.635C141.98 149.498 141.998 149.371 142.056 149.254C142.113 149.136 142.199 149.037 142.312 148.956C142.426 148.875 142.558 148.82 142.708 148.792C142.869 148.761 143.013 148.767 143.14 148.811C143.267 148.853 143.371 148.921 143.453 149.015C143.535 149.109 143.587 149.218 143.61 149.34C143.638 149.487 143.623 149.619 143.565 149.736C143.508 149.854 143.418 149.945 143.295 150.01L143.299 150.03C143.468 150.026 143.609 150.072 143.722 150.166C143.836 150.261 143.908 150.39 143.939 150.555C143.965 150.696 143.951 150.83 143.895 150.958C143.84 151.084 143.752 151.191 143.633 151.281C143.513 151.37 143.369 151.43 143.201 151.462ZM145.444 151.037C145.253 151.073 145.08 151.052 144.926 150.973C144.772 150.894 144.641 150.762 144.533 150.576C144.424 150.39 144.343 150.156 144.29 149.874C144.237 149.593 144.227 149.346 144.261 149.134C144.295 148.921 144.37 148.749 144.484 148.619C144.6 148.487 144.752 148.404 144.941 148.368C145.131 148.332 145.303 148.354 145.457 148.434C145.612 148.513 145.744 148.646 145.852 148.832C145.962 149.017 146.043 149.25 146.096 149.531C146.149 149.813 146.159 150.061 146.125 150.274C146.092 150.486 146.018 150.658 145.903 150.788C145.788 150.918 145.635 151 145.444 151.037ZM145.392 150.758C145.581 150.722 145.711 150.602 145.781 150.4C145.852 150.197 145.855 149.927 145.791 149.589C145.749 149.364 145.689 149.177 145.611 149.028C145.534 148.879 145.442 148.771 145.337 148.705C145.233 148.639 145.118 148.618 144.993 148.642C144.805 148.677 144.676 148.798 144.605 149.003C144.534 149.207 144.531 149.478 144.594 149.816C144.637 150.041 144.696 150.227 144.773 150.376C144.85 150.524 144.941 150.631 145.045 150.696C145.15 150.761 145.266 150.782 145.392 150.758Z" fill="#0D257B"/>
</g>
<path d="M160.922 126.722L163.354 128.952L166.989 122.476" stroke="white" stroke-width="1.66597" stroke-miterlimit="10"/>
<path d="M112.729 106.366L180.079 93.5285L176.6 75.0967L109.25 87.9336L112.729 106.366Z" fill="#647CB2"/>
<path d="M138.125 93.4382L138.64 93.3405L139.213 96.3821C139.264 96.6536 139.257 96.8937 139.193 97.1023C139.129 97.311 139.016 97.4817 138.853 97.6145C138.69 97.7472 138.486 97.837 138.239 97.8838C138.006 97.9279 137.791 97.925 137.594 97.8749C137.397 97.8234 137.231 97.7286 137.097 97.5904C136.964 97.4522 136.877 97.2744 136.836 97.057L137.342 96.9608C137.365 97.0813 137.415 97.1809 137.491 97.2596C137.569 97.3367 137.665 97.3902 137.78 97.4201C137.894 97.45 138.019 97.4522 138.153 97.4267C138.301 97.3986 138.421 97.3435 138.513 97.2615C138.606 97.1794 138.667 97.0731 138.699 96.9423C138.731 96.8099 138.731 96.6558 138.697 96.4799L138.125 93.4382ZM142.464 92.6149L142.979 92.5172L143.509 95.3344C143.564 95.6252 143.545 95.898 143.45 96.1525C143.358 96.4054 143.2 96.6212 142.976 96.7998C142.753 96.977 142.475 97.0973 142.141 97.1606C141.807 97.2239 141.504 97.214 141.232 97.1309C140.959 97.0463 140.733 96.9035 140.553 96.7023C140.374 96.4995 140.257 96.2527 140.203 95.9618L139.672 93.1446L140.187 93.0469L140.71 95.8226C140.749 96.0303 140.83 96.2065 140.952 96.3513C141.073 96.4946 141.227 96.5966 141.414 96.6574C141.601 96.7165 141.813 96.7235 142.05 96.6786C142.287 96.6337 142.482 96.5493 142.635 96.4256C142.788 96.3005 142.894 96.1491 142.954 95.9713C143.015 95.7919 143.026 95.5983 142.986 95.3906L142.464 92.6149ZM147.381 91.6819L148.182 95.9368L147.684 96.0314L144.736 93.1305L144.695 93.1384L145.324 96.4791L144.809 96.5769L144.007 92.322L144.506 92.2274L147.463 95.135L147.505 95.1272L146.874 91.7781L147.381 91.6819ZM149.213 95.7412L148.411 91.4863L150.979 90.9991L151.065 91.4562L149.013 91.8456L149.283 93.2833L151.203 92.9191L151.289 93.3762L149.369 93.7404L149.642 95.1864L151.727 94.7907L151.813 95.2478L149.213 95.7412Z" fill="white"/>
<path d="M171.602 88.8755L173.354 89.6024L171.987 90.9207L171.602 88.8755Z" fill="white"/>
<path d="M117.602 100.181L118.968 98.8618L119.353 100.908L117.602 100.181Z" fill="white"/>
</g>
<g opacity="0.15">
<mask id="mask12_9580_11030" style="mask-type:luminance" maskUnits="userSpaceOnUse" x="105" y="69" width="102" height="163">
<path d="M142.28 231.153C136.597 232.241 131.05 228.202 129.916 222.141L105.861 93.826C104.726 87.7657 108.426 81.9476 114.106 80.8536L169.602 70.1775C175.285 69.0846 180.834 73.1251 181.971 79.186L206.024 207.501C207.161 213.565 203.461 219.381 197.776 220.473L142.28 231.153Z" fill="white"/>
</mask>
<g mask="url(#mask12_9580_11030)">
<path d="M210.411 228.558L222.459 201.488L76.4071 125.859L64.3594 152.93L210.411 228.558Z" fill="white"/>
<path d="M225.732 194.131L229.922 184.716L83.8713 109.086L79.6797 118.504L225.732 194.131Z" fill="white"/>
</g>
</g>
<path d="M160.455 78.3408L160.394 81.5217C160.394 81.5217 160.733 85.9793 157.604 86.5841L131.106 91.7014C127.977 92.3045 126.672 88.0362 126.672 88.0362L125.461 85.1002L160.455 78.3408Z" fill="#212121"/>
<path d="M110.22 134.206C115.451 133.465 119.308 138.82 120.685 146.233C122.062 153.648 122.33 159.921 122.499 163.126C122.671 166.332 127.446 179.777 127.572 181.518C127.807 184.732 137.598 191.191 143.404 206.155C149.209 221.12 144.003 244.348 129.369 246.646C114.738 248.942 109.754 242.436 105.91 233.441C102.07 224.447 97.3288 204.482 100.765 194.274C107.361 174.66 110.19 163.054 108.73 152.746C107.271 142.438 104.987 134.949 110.22 134.206Z" fill="#FAC4A8"/>
<path d="M107.282 136.971C108.357 135.621 110.402 134.581 112.026 138.372C113.397 141.577 115.74 148.535 115.157 151.697C114.576 154.859 109.256 157.074 108.962 155.372C108.668 153.669 105.84 138.778 107.282 136.971Z" fill="#FFE8DB"/>
<path d="M149.201 281.838C142.173 262.553 126.633 254.046 126.633 254.046C137.434 255.62 146.463 254.443 153.512 252.38C152.644 253.059 151.897 253.587 151.333 253.879L149.201 281.838Z" fill="#E5A98E"/>
<path d="M192.704 134.156C192.042 134.537 189.085 137.989 190.99 144.696C192.894 151.404 196.486 153.35 199.371 151.787C204.322 149.104 204.894 144.121 203.942 140.672C203.53 139.18 202.662 135.19 199.752 133.582C196.841 131.973 193.461 133.722 192.704 134.156Z" fill="#FAC4A8"/>
<path d="M196.242 134.123C196.242 134.123 198.834 135.856 200.188 139.348C201.691 143.224 201.691 147.102 201.691 147.102C201.691 147.102 204.509 145.584 203.1 140.78C202.245 137.867 201.034 135.835 199.436 134.797C198.4 134.123 196.908 133.824 196.242 134.123Z" fill="#FFE8DB"/>
<path d="M196.831 156.469C196.309 156.806 193.888 159.993 194.999 166.489C196.109 172.985 198.552 175.887 200.956 174.576C205.04 172.349 205.219 164.181 204.668 160.841C204.117 157.501 197.883 155.788 196.831 156.469Z" fill="#FAC4A8"/>
<path d="M204.956 164.664C204.644 161.844 203.826 159.759 202.454 158.507C201.563 157.695 200.163 157.138 199.461 157.283C199.461 157.283 201.678 159.359 202.374 162.802C203.147 166.624 202.455 170.16 202.455 170.16C202.455 170.16 205.473 169.315 204.956 164.664Z" fill="#FFE8DB"/>
<path d="M204.529 179.75C202.306 179.039 197.716 180.137 197.963 186.782C198.21 193.427 201.418 199.36 204.875 196.987C208.331 194.613 209.071 191.054 208.578 187.494C208.083 183.934 206.75 180.463 204.529 179.75Z" fill="#FAC4A8"/>
<path d="M207.666 187.662C207.329 185.062 206.447 183.14 204.969 181.985C204.009 181.237 202.499 180.722 201.742 180.856C201.742 180.856 204.133 182.77 204.883 185.945C205.716 189.469 204.97 192.73 204.97 192.73C204.97 192.73 208.222 191.95 207.666 187.662Z" fill="#FFE8DB"/>
<path d="M209.899 183.142C210.39 185.72 209.071 188.125 206.951 188.515L148.082 199.337C145.963 199.727 143.844 197.953 143.352 195.374L134.142 147.135C133.651 144.557 134.97 142.151 137.091 141.762L195.958 130.941C198.079 130.551 200.196 132.325 200.688 134.903L209.899 183.142Z" fill="#E3E3E3"/>
<g opacity="0.9">
<path d="M213.126 178.913C213.617 181.492 212.298 183.897 210.177 184.288L151.309 195.108C149.189 195.497 147.071 193.724 146.578 191.146L137.368 142.907C136.877 140.329 138.197 137.923 140.317 137.533L199.185 126.712C201.305 126.323 203.423 128.096 203.916 130.674L213.126 178.913Z" fill="white"/>
<path d="M158.838 172.783C159.412 175.79 156.531 184.969 156.531 184.969C156.531 184.969 150.46 177.436 149.886 174.429C149.312 171.423 150.85 168.618 153.323 168.164C155.794 167.71 158.264 169.778 158.838 172.783Z" fill="#D5A959"/>
<path d="M156.485 173.213C156.757 174.638 156.027 175.966 154.857 176.182C153.686 176.396 152.516 175.417 152.244 173.994C151.973 172.569 152.702 171.241 153.872 171.025C155.044 170.809 156.213 171.79 156.485 173.213Z" fill="#0D257B"/>
<path d="M205.669 173.842L163.182 181.652L162.766 179.473L205.254 171.663L205.669 173.842Z" fill="#D9D9D9"/>
<path d="M204.654 168.549L162.166 176.36L161.75 174.181L204.237 166.371L204.654 168.549Z" fill="#D9D9D9"/>
<path d="M203.645 163.258L161.158 171.068L160.742 168.889L203.229 161.08L203.645 163.258Z" fill="#D9D9D9"/>
<path d="M155.57 150.511C156.226 153.95 154.466 157.158 151.64 157.677C148.813 158.197 145.989 155.831 145.332 152.393C144.677 148.955 146.436 145.748 149.264 145.229C152.09 144.71 154.915 147.074 155.57 150.511Z" fill="#D4A34A"/>
<path d="M201.201 148.733L158.713 156.543L158.297 154.365L200.784 146.556L201.201 148.733Z" fill="#D9D9D9"/>
<path d="M200.185 143.442L157.698 151.252L157.281 149.074L199.77 141.264L200.185 143.442Z" fill="#D9D9D9"/>
<path d="M199.178 138.151L156.689 145.961L156.273 143.782L198.761 135.973L199.178 138.151Z" fill="#D9D9D9"/>
<path d="M148.545 149.596L149.46 153.862L148.558 154.056L147.827 150.645L147.802 150.651L146.956 151.473L146.784 150.673L147.697 149.777L148.545 149.596ZM152.078 153.362C151.757 153.431 151.46 153.44 151.188 153.389C150.917 153.337 150.691 153.235 150.51 153.084C150.33 152.932 150.215 152.741 150.165 152.51C150.127 152.333 150.132 152.161 150.181 151.995C150.231 151.827 150.315 151.679 150.434 151.55C150.553 151.42 150.697 151.323 150.864 151.258L150.858 151.229C150.62 151.232 150.412 151.161 150.233 151.016C150.053 150.87 149.939 150.681 149.889 150.447C149.841 150.226 149.864 150.016 149.956 149.816C150.048 149.615 150.196 149.441 150.4 149.294C150.605 149.145 150.851 149.04 151.138 148.979C151.426 148.917 151.693 148.912 151.939 148.964C152.187 149.015 152.394 149.114 152.56 149.26C152.727 149.404 152.834 149.586 152.882 149.805C152.931 150.04 152.903 150.261 152.797 150.466C152.692 150.672 152.532 150.822 152.318 150.915L152.325 150.945C152.501 150.936 152.67 150.966 152.83 151.037C152.992 151.105 153.129 151.206 153.244 151.338C153.359 151.469 153.436 151.623 153.476 151.8C153.524 152.031 153.496 152.253 153.394 152.465C153.291 152.678 153.126 152.863 152.899 153.022C152.672 153.18 152.399 153.293 152.078 153.362ZM151.936 152.699C152.079 152.669 152.198 152.616 152.294 152.542C152.39 152.466 152.458 152.376 152.498 152.272C152.539 152.165 152.547 152.052 152.521 151.931C152.494 151.808 152.44 151.705 152.357 151.624C152.274 151.542 152.173 151.485 152.055 151.454C151.936 151.421 151.807 151.42 151.668 151.449C151.53 151.479 151.413 151.533 151.317 151.612C151.22 151.689 151.151 151.782 151.109 151.892C151.068 151.999 151.061 152.115 151.087 152.238C151.113 152.359 151.166 152.46 151.246 152.54C151.325 152.619 151.425 152.673 151.544 152.703C151.664 152.731 151.794 152.73 151.936 152.699ZM151.527 150.793C151.647 150.768 151.748 150.72 151.83 150.652C151.913 150.583 151.971 150.5 152.006 150.403C152.04 150.305 152.045 150.2 152.021 150.088C151.997 149.977 151.95 149.885 151.879 149.813C151.808 149.74 151.722 149.689 151.62 149.662C151.518 149.633 151.406 149.631 151.284 149.658C151.163 149.684 151.061 149.731 150.979 149.799C150.896 149.867 150.837 149.948 150.802 150.044C150.769 150.139 150.764 150.241 150.788 150.352C150.812 150.465 150.86 150.559 150.931 150.633C151.002 150.708 151.089 150.76 151.193 150.789C151.296 150.817 151.408 150.819 151.527 150.793Z" fill="white"/>
<path d="M203.227 154.158L146.663 164.555L146.484 163.621L203.05 153.224L203.227 154.158Z" fill="#E8E8E8"/>
</g>
</svg>
