<svg width="81" height="81" viewBox="0 0 81 81" fill="none" xmlns="http://www.w3.org/2000/svg">
<g clip-path="url(#clip0_4174_59483)">
<path d="M80.6094 40.3496C80.6094 18.2582 62.7008 0.349609 40.6094 0.349609C18.518 0.349609 0.609375 18.2582 0.609375 40.3496C0.609375 62.441 18.518 80.3496 40.6094 80.3496C62.7008 80.3496 80.6094 62.441 80.6094 40.3496Z" fill="white"/>
<path d="M30.1641 48.335C31.5448 48.335 32.6641 47.2157 32.6641 45.835C32.6641 44.4542 31.5448 43.335 30.1641 43.335C28.7834 43.335 27.6641 44.4542 27.6641 45.835C27.6641 47.2157 28.7834 48.335 30.1641 48.335Z" fill="#CC922F" stroke="white" stroke-width="0.454545"/>
<path d="M52.6667 25H29.3333C27.124 25.0026 25.0059 25.8815 23.4437 27.4437C21.8815 29.0059 21.0026 31.124 21 33.3333L21 46.6667C21.0026 48.876 21.8815 50.9941 23.4437 52.5563C25.0059 54.1185 27.124 54.9974 29.3333 55H52.6667C54.876 54.9974 56.9941 54.1185 58.5563 52.5563C60.1185 50.9941 60.9974 48.876 61 46.6667V33.3333C60.9974 31.124 60.1185 29.0059 58.5563 27.4437C56.9941 25.8815 54.876 25.0026 52.6667 25ZM29.3333 28.3333H52.6667C53.9927 28.3333 55.2645 28.8601 56.2022 29.7978C57.1399 30.7355 57.6667 32.0073 57.6667 33.3333H24.3333C24.3333 32.0073 24.8601 30.7355 25.7978 29.7978C26.7355 28.8601 28.0073 28.3333 29.3333 28.3333ZM52.6667 51.6667H29.3333C28.0073 51.6667 26.7355 51.1399 25.7978 50.2022C24.8601 49.2645 24.3333 47.9927 24.3333 46.6667V36.6667H57.6667V46.6667C57.6667 47.9927 57.1399 49.2645 56.2022 50.2022C55.2645 51.1399 53.9927 51.6667 52.6667 51.6667Z" fill="#0D257B" stroke="white" stroke-width="0.454545"/>
</g>
<defs>
<clipPath id="clip0_4174_59483">
<rect width="80" height="79.8174" fill="white" transform="translate(0.609375 0.348633)"/>
</clipPath>
</defs>
</svg>
