<svg width="81" height="81" viewBox="0 0 81 81" fill="none" xmlns="http://www.w3.org/2000/svg">
<g clip-path="url(#clip0_4174_59462)">
<path d="M81 40C81 17.9086 63.0914 0 41 0C18.9086 0 1 17.9086 1 40C1 62.0914 18.9086 80 41 80C63.0914 80 81 62.0914 81 40Z" fill="white"/>
<path d="M50.1182 61.1875L50.1882 61.2589C47.4888 63.9091 43.9354 65.3598 40.1582 65.3598H40.1577C40.0693 65.3598 39.9786 65.3598 39.8878 65.3578C39.8877 65.3578 39.8876 65.3578 39.8875 65.3578L39.8896 65.2578L50.1182 61.1875ZM50.1182 61.1875L50.1882 61.2589C52.9535 58.5438 54.476 54.9145 54.476 51.04V35.6572C54.476 35.566 54.5503 35.4916 54.6416 35.4916H59.0459C59.1372 35.4916 59.2115 35.566 59.2115 35.6572V50.3164C59.2115 55.5754 57.038 60.7256 53.2473 64.4462L53.3174 64.5176M50.1182 61.1875L53.3174 64.5176M53.3174 64.5176L53.2473 64.4462M53.3174 64.5176L53.2473 64.4462M53.2473 64.4462C49.5716 68.0559 44.8169 69.9806 39.7907 69.8971L53.2473 64.4462ZM39.7501 72.0971L39.7504 72.0971L39.7529 72.0971C39.8808 72.099 40.0087 72.101 40.1377 72.101C45.5934 72.1 50.7824 69.9485 54.7888 66.0167L54.7188 65.9453L54.7888 66.0167C58.9972 61.8848 61.4115 56.1629 61.4115 50.3164V35.6572C61.4115 34.353 60.3501 33.2916 59.0459 33.2916H54.6416C53.3373 33.2916 52.276 34.353 52.276 35.6572V51.04C52.276 54.3198 50.987 57.3908 48.6467 59.6894C46.308 61.9865 43.2217 63.2498 39.9296 63.1578L39.9286 63.1578C33.3741 63.0388 28.0355 57.4088 28.0355 50.6016V35.6572C28.0355 34.353 26.9742 33.2916 25.6699 33.2916H21.2656C19.9614 33.2916 18.9 34.353 18.9 35.6572V50.8447C18.9 62.3484 28.2532 71.8812 39.7501 72.0971Z" fill="#0D257B" stroke="#0D257B" stroke-width="0.2"/>
<path d="M38.6656 70.9971C38.6656 71.605 39.1577 72.0971 39.7656 72.0971C40.3736 72.0971 40.8656 71.605 40.8656 70.9971V64.2578C40.8656 63.6498 40.3736 63.1578 39.7656 63.1578C39.1577 63.1578 38.6656 63.6498 38.6656 64.2578V70.9971Z" fill="#0D257B" stroke="#0D257B" stroke-width="0.2"/>
<path d="M20 42.4828H26.9355C27.5435 42.4828 28.0355 41.9908 28.0355 41.3828C28.0355 40.7748 27.5435 40.2828 26.9355 40.2828H20C19.392 40.2828 18.9 40.7748 18.9 41.3828C18.9 41.9908 19.392 42.4828 20 42.4828Z" fill="#0D257B" stroke="#0D257B" stroke-width="0.2"/>
<path d="M53.375 42.4828H60.3105C60.9185 42.4828 61.4105 41.9908 61.4105 41.3828C61.4105 40.7748 60.9185 40.2828 60.3105 40.2828H53.375C52.767 40.2828 52.275 40.7748 52.275 41.3828C52.275 41.9908 52.767 42.4828 53.375 42.4828Z" fill="#0D257B" stroke="#0D257B" stroke-width="0.2"/>
<path d="M39.2106 36.8996L39.2112 36.8999C39.3525 36.9598 39.4996 36.9889 39.6457 36.9889C40.071 36.9889 40.4771 36.7398 40.6565 36.324L40.6566 36.3239L42.4349 32.1911L42.4349 32.191C42.5809 31.8506 42.5466 31.4607 42.3426 31.1513C42.1394 30.8418 41.7935 30.6561 41.4241 30.6561H39.5379L40.6565 28.0573L40.6566 28.0572C40.8961 27.4987 40.6383 26.8521 40.0809 26.6115L40.0809 26.6115L40.0804 26.6113C39.5256 26.3752 38.8758 26.6281 38.635 27.1872L38.6349 27.1872L36.8566 31.321L36.8566 31.3211C36.7106 31.6615 36.7449 32.0514 36.9489 32.3608C37.152 32.6703 37.498 32.8561 37.8674 32.8561H39.7536L38.635 35.4538L38.6349 35.4539C38.3954 36.0124 38.6532 36.659 39.2106 36.8996Z" fill="#CC922F" stroke="#CC922F" stroke-width="0.2"/>
<path d="M35.8114 14.2525L35.8115 14.2518C36.0403 11.8807 37.9151 10.1 40.1641 10.1C42.4099 10.1 44.2829 11.8805 44.5128 14.2596L44.5128 14.2602C44.529 14.4184 44.5357 14.5722 44.5357 14.7344C44.5357 15.3774 44.4169 16.0619 44.1786 16.7709L44.1786 16.7712C43.8521 17.7525 43.2881 18.7392 42.5829 19.479C41.8767 20.2197 41.039 20.7027 40.1641 20.7027C39.2876 20.7027 38.4487 20.2197 37.7415 19.4787C37.0353 18.7387 36.4707 17.7515 36.1437 16.7692L36.1436 16.769C35.9063 16.0619 35.7875 15.3774 35.7875 14.7344C35.7875 14.5723 35.7942 14.4185 35.8114 14.2525ZM33.5875 14.7344C33.5875 15.6183 33.7459 16.5372 34.0565 17.4652C34.5051 18.8143 35.2859 20.171 36.3259 21.1918C37.3665 22.2132 38.6713 22.9027 40.1641 22.9027C41.6554 22.9027 42.959 22.2132 43.9985 21.1921C45.0376 20.1714 45.8177 18.8153 46.2658 17.4671C46.5774 16.5372 46.7357 15.6183 46.7357 14.7344C46.7357 14.4961 46.7249 14.2671 46.7011 14.0407C46.3632 10.5436 43.5554 7.9 40.1641 7.9C36.7699 7.9 33.9601 10.5434 33.6232 14.0329C33.5984 14.2671 33.5875 14.496 33.5875 14.7344Z" fill="#CC922F" stroke="#CC922F" stroke-width="0.2"/>
<path d="M48.0162 32.1934C48.0162 32.8013 48.5082 33.2934 49.1162 33.2934C49.7242 33.2934 50.2162 32.8013 50.2162 32.1934V27.8857C50.2162 23.9252 46.9947 20.7037 43.0342 20.7037H37.2852C33.3247 20.7037 30.1031 23.9252 30.1031 27.8857V32.1934C30.1031 32.8013 30.5952 33.2934 31.2031 33.2934C31.8111 33.2934 32.3031 32.8013 32.3031 32.1934V27.8857C32.3031 25.1392 34.5386 22.9037 37.2852 22.9037H43.0342C45.7807 22.9037 48.0162 25.1392 48.0162 27.8857V32.1934Z" fill="#CC922F" stroke="#CC922F" stroke-width="0.2"/>
</g>
<defs>
<clipPath id="clip0_4174_59462">
<rect width="80" height="79.8174" fill="white" transform="translate(0.609375 0.348633)"/>
</clipPath>
</defs>
</svg>
