<svg width="81" height="81" viewBox="0 0 81 81" fill="none" xmlns="http://www.w3.org/2000/svg">
<g clip-path="url(#clip0_4174_59452)">
<path d="M81 40C81 17.9086 63.0914 0 41 0C18.9086 0 1 17.9086 1 40C1 62.0914 18.9086 80 41 80C63.0914 80 81 62.0914 81 40Z" fill="white"/>
<path d="M33.4997 40.8396C29.3576 40.8396 25.9999 37.4549 25.9999 33.2796C25.9999 29.1043 29.3576 25.7197 33.4997 25.7197C37.6418 25.7197 40.9995 29.1043 40.9995 33.2796C40.9948 37.4533 37.6394 40.8348 33.4997 40.8396ZM33.4997 29.0799C31.1982 29.0799 29.3334 30.9605 29.3334 33.2796C29.3334 35.5996 31.199 37.4793 33.4997 37.4793C35.8004 37.4793 37.666 35.5988 37.666 33.2796C37.666 30.9605 35.8012 29.0799 33.4997 29.0799ZM45.9994 57.6399V56.7997C45.9994 49.8406 40.4034 44.1998 33.4997 44.1998C26.596 44.1998 21 49.8406 21 56.7997V57.6399C21 58.5676 21.7461 59.3197 22.6664 59.3197C23.5867 59.3197 24.3327 58.5676 24.3327 57.6399V56.7997C24.3327 51.6967 28.4365 47.56 33.4989 47.56C38.5613 47.56 42.6659 51.6967 42.6659 56.7997V57.6399C42.6659 58.5676 43.4119 59.3197 44.3322 59.3197C45.2533 59.3197 45.9994 58.5676 45.9994 57.6399ZM60.999 49.2398C60.999 42.7453 55.7757 37.4801 49.3321 37.4801C46.4626 37.4801 43.6932 38.5464 41.5542 40.475C40.8628 41.0876 40.7948 42.1492 41.4026 42.8461C42.0104 43.543 43.0635 43.6115 43.7549 42.9989C43.7627 42.9918 43.7705 42.9847 43.7783 42.9784C47.2087 39.8859 52.4773 40.182 55.5444 43.6407C56.9108 45.181 57.6663 47.1742 57.6663 49.2398C57.6663 50.1674 58.4123 50.9195 59.3326 50.9195C60.2529 50.9195 60.999 50.1674 60.999 49.2398ZM50.1657 34.1199C46.0236 34.1199 42.6659 30.7352 42.6659 26.5599C42.6659 22.3846 46.0236 19 50.1657 19C54.3078 19 57.6655 22.3846 57.6655 26.5599C57.6608 30.7329 54.3062 34.1152 50.1657 34.1199ZM50.1657 22.3602C47.865 22.3602 45.9994 24.24 45.9994 26.5599C45.9994 28.8799 47.865 30.7596 50.1657 30.7596C52.4664 30.7596 54.332 28.8791 54.332 26.5599C54.332 24.2408 52.4672 22.3602 50.1657 22.3602Z" fill="#0D257B"/>
<path d="M61.0049 54.2795C61.0049 55.2203 60.2549 55.9763 59.3216 55.9763H56.0217V59.3027C56.0217 60.2435 55.2717 60.9995 54.3384 60.9995C53.4051 60.9995 52.6551 60.2435 52.6551 59.3027V55.9763H49.3552C48.4219 55.9763 47.6719 55.2203 47.6719 54.2795C47.6719 53.3387 48.4219 52.5827 49.3552 52.5827H52.6551V49.2564C52.6551 48.3156 53.4051 47.5596 54.3384 47.5596C55.2717 47.5596 56.0217 48.3156 56.0217 49.2564V52.5827H59.3216C60.2549 52.5827 61.0049 53.3387 61.0049 54.2795Z" fill="#CC922F"/>
</g>
<defs>
<clipPath id="clip0_4174_59452">
<rect width="80" height="79.8174" fill="white" transform="translate(0.609375 0.348633)"/>
</clipPath>
</defs>
</svg>
