<svg width="81" height="81" viewBox="0 0 81 81" fill="none" xmlns="http://www.w3.org/2000/svg">
<g clip-path="url(#clip0_4174_59491)">
<path d="M80.6094 40.3496C80.6094 18.2582 62.7008 0.349609 40.6094 0.349609C18.518 0.349609 0.609375 18.2582 0.609375 40.3496C0.609375 62.441 18.518 80.3496 40.6094 80.3496C62.7008 80.3496 80.6094 62.441 80.6094 40.3496Z" fill="white"/>
<path d="M53.1875 25H51.625V23.4375C51.625 22.5745 50.9255 21.875 50.0625 21.875C49.1995 21.875 48.5 22.5745 48.5 23.4375V29.6875C48.5 30.5505 49.1995 31.25 50.0625 31.25C50.9255 31.25 51.625 30.5505 51.625 29.6875V28.125H53.1875C55.7722 28.125 57.875 30.2278 57.875 32.8125V51.5625C57.875 54.1472 55.7722 56.25 53.1875 56.25H28.8125C26.2278 56.25 24.125 54.1472 24.125 51.5625V32.8125C24.125 30.2278 26.2278 28.125 28.8125 28.125H30.375V29.6875C30.375 30.5505 31.0745 31.25 31.9375 31.25C32.8005 31.25 33.5 30.5505 33.5 29.6875V23.4375C33.5 22.5745 32.8005 21.875 31.9375 21.875C31.0745 21.875 30.375 22.5745 30.375 23.4375V25H28.8125C24.5047 25 21 28.5047 21 32.8125V51.5625C21 55.8703 24.5047 59.375 28.8125 59.375H53.1875C57.4954 59.375 61 55.8703 61 51.5625V32.8125C61 28.5047 57.4954 25 53.1875 25Z" fill="#0D257B"/>
<path d="M44.125 28.125C44.988 28.125 45.6875 27.4255 45.6875 26.5625C45.6875 25.6995 44.988 25 44.125 25H37.875C37.012 25 36.3125 25.6995 36.3125 26.5625C36.3125 27.4255 37.012 28.125 37.875 28.125H44.125ZM27.25 35.9375C27.25 36.8005 27.9495 37.5 28.8125 37.5H53.1875C54.0505 37.5 54.75 36.8005 54.75 35.9375C54.75 35.0745 54.0505 34.375 53.1875 34.375H28.8125C27.9495 34.375 27.25 35.0745 27.25 35.9375ZM47.7076 41.0827L39.4375 49.3528L35.8548 45.7702C35.2446 45.1599 34.2553 45.1599 33.6452 45.7702C33.035 46.3804 33.0349 47.3697 33.6452 47.9798L38.3327 52.6673C38.9428 53.2775 39.9321 53.2776 40.5423 52.6673L49.9173 43.2923C50.5276 42.6821 50.5276 41.6928 49.9173 41.0827C49.3071 40.4725 48.3178 40.4724 47.7076 41.0827Z" fill="#CC922F"/>
</g>
<defs>
<clipPath id="clip0_4174_59491">
<rect width="80" height="79.8174" fill="white" transform="translate(0.609375 0.348633)"/>
</clipPath>
</defs>
</svg>
