<svg width="24" height="24" viewBox="0 0 24 24" fill="none" xmlns="http://www.w3.org/2000/svg">
<path d="M12 0C9.62663 0 7.30655 0.703788 5.33316 2.02236C3.35977 3.34094 1.8217 5.21508 0.913451 7.4078C0.0051994 9.60051 -0.232441 12.0133 0.230582 14.3411C0.693605 16.6689 1.83649 18.807 3.51472 20.4853C5.19295 22.1635 7.33115 23.3064 9.65892 23.7694C11.9867 24.2324 14.3995 23.9948 16.5922 23.0865C18.7849 22.1783 20.6591 20.6402 21.9776 18.6668C23.2962 16.6934 24 14.3734 24 12C23.9966 8.81845 22.7312 5.76818 20.4815 3.51848C18.2318 1.26878 15.1816 0.00340334 12 0ZM17.7514 9.18L10.8943 16.0371C10.7318 16.1965 10.5133 16.2858 10.2857 16.2858C10.0581 16.2858 9.83963 16.1965 9.67715 16.0371L6.24858 12.6086C6.08717 12.4472 5.9965 12.2283 5.9965 12C5.9965 11.7717 6.08717 11.5528 6.24858 11.3914C6.40998 11.23 6.62889 11.1393 6.85715 11.1393C7.08541 11.1393 7.30432 11.23 7.46572 11.3914L10.2857 14.22L16.5343 7.96286C16.6957 7.80145 16.9146 7.71078 17.1429 7.71078C17.3711 7.71078 17.59 7.80145 17.7514 7.96286C17.9128 8.12426 18.0035 8.34317 18.0035 8.57143C18.0035 8.79969 17.9128 9.01859 17.7514 9.18Z" fill="#0D257B"/>
</svg>
