<svg width="24" height="24" viewBox="0 0 24 24" fill="none" xmlns="http://www.w3.org/2000/svg">
<g clip-path="url(#clip0_1526_7214)">
<path d="M12 0.000488281C5.36761 0.000488281 0 5.36749 0 12.0005C0 18.6328 5.367 24.0005 12 24.0005C18.6324 24.0005 24 18.6335 24 12.0005C24 5.36819 18.633 0.000488281 12 0.000488281ZM12 22.3261C6.30647 22.3261 1.67442 17.6941 1.67442 12.0005C1.67442 6.30691 6.30647 1.67491 12 1.67491C17.6935 1.67491 22.3256 6.30691 22.3256 12.0005C22.3256 17.6941 17.6935 22.3261 12 22.3261Z" fill="#0D257B"/>
<path d="M11.9997 10.0032C11.2889 10.0032 10.7834 10.3034 10.7834 10.7456V16.7637C10.7834 17.1428 11.2889 17.5219 11.9997 17.5219C12.6789 17.5219 13.2317 17.1428 13.2317 16.7637V10.7455C13.2317 10.3033 12.6789 10.0032 11.9997 10.0032Z" fill="#0D257B"/>
<path d="M12.0022 6.29126C11.2756 6.29126 10.707 6.81251 10.707 7.41274C10.707 8.01303 11.2757 8.55007 12.0022 8.55007C12.713 8.55007 13.2817 8.01303 13.2817 7.41274C13.2817 6.81251 12.713 6.29126 12.0022 6.29126Z" fill="#0D257B"/>
</g>
<defs>
<clipPath id="clip0_1526_7214">
<rect width="24" height="24" fill="white"/>
</clipPath>
</defs>
</svg>
