<svg width="16" height="16" viewBox="0 0 16 16" fill="none" xmlns="http://www.w3.org/2000/svg">
<g clip-path="url(#clip0_1526_7235)">
<path d="M8 0.000488281C3.57841 0.000488281 0 3.57849 0 8.00049C0 12.422 3.578 16.0005 8 16.0005C12.4216 16.0005 16 12.4225 16 8.00049C16 3.57896 12.422 0.000488281 8 0.000488281ZM8 14.8842C4.20431 14.8842 1.11628 11.7962 1.11628 8.00049C1.11628 4.20477 4.20431 1.11677 8 1.11677C11.7957 1.11677 14.8837 4.20477 14.8837 8.00049C14.8837 11.7962 11.7957 14.8842 8 14.8842Z" fill="#AAAAAA"/>
<path d="M8.0003 6.66846C7.52642 6.66846 7.18945 6.86858 7.18945 7.16343V11.1755C7.18945 11.4282 7.52642 11.6809 8.0003 11.6809C8.45311 11.6809 8.82164 11.4282 8.82164 11.1755V7.16336C8.82164 6.86855 8.45311 6.66846 8.0003 6.66846Z" fill="#AAAAAA"/>
<path d="M8.00409 4.19409C7.51969 4.19409 7.14062 4.54159 7.14062 4.94175C7.14062 5.34194 7.51972 5.69997 8.00409 5.69997C8.47797 5.69997 8.85709 5.34194 8.85709 4.94175C8.85709 4.54159 8.47794 4.19409 8.00409 4.19409Z" fill="#AAAAAA"/>
</g>
<defs>
<clipPath id="clip0_1526_7235">
<rect width="16" height="16" fill="white"/>
</clipPath>
</defs>
</svg>
