<svg width="54" height="54" viewBox="0 0 54 54" fill="none" xmlns="http://www.w3.org/2000/svg">
<g filter="url(#filter0_d_1526_7803)">
<rect x="2" y="2" width="50" height="50" rx="25" fill="white"/>
<path d="M38.6442 21.7844C38.0981 21.2384 37.3516 20.9277 36.5801 20.9277H22.4568C21.6903 20.9277 20.9388 21.2384 20.3977 21.7844C19.8466 22.3406 19.541 23.072 19.541 23.8486V30.1913C19.541 30.9678 19.8466 31.6993 20.3977 32.2554C20.9388 32.8015 21.6903 33.1121 22.4568 33.1121H36.5801C37.3466 33.1121 38.0981 32.8015 38.6442 32.2554C39.1953 31.6993 39.4959 30.9678 39.5009 30.1913V23.8486C39.4959 23.072 39.1953 22.3406 38.6442 21.7844ZM37.6923 30.1963C37.6923 30.8075 37.1913 31.3085 36.5801 31.3085H22.4619C22.1813 31.3035 21.9108 31.1983 21.7104 31.0079H21.6653L21.6352 30.9778C21.4298 30.7724 21.3146 30.4919 21.3146 30.2013V23.8586C21.3146 23.2474 21.8156 22.7464 22.4268 22.7464H36.5851C37.1963 22.7464 37.6973 23.2474 37.6973 23.8586V30.2013L37.6923 30.1963Z" fill="#0D257B"/>
<path d="M29.5162 23.8386C27.7627 23.8386 26.3398 25.2615 26.3398 27.02C26.3398 28.7785 27.7627 30.1963 29.5162 30.1963C31.2697 30.1963 32.6976 28.7735 32.6976 27.02C32.6976 25.2665 31.2697 23.8386 29.5162 23.8386ZM29.5162 28.3777C28.7697 28.3777 28.1585 27.7665 28.1585 27.02C28.1585 26.2735 28.7697 25.6623 29.5162 25.6623C30.2627 25.6623 30.8739 26.2685 30.8739 27.02C30.8739 27.7715 30.2677 28.3777 29.5162 28.3777Z" fill="#D5A54D"/>
<path d="M32.6563 17.496V15.7375C32.6563 14.7004 31.8146 13.8587 30.7725 13.8587H18.2475C17.2054 13.8587 16.3637 14.7004 16.3637 15.7425V38.2876C16.3637 39.3297 17.2054 40.1714 18.2475 40.1714H30.7776C31.8196 40.1663 32.6613 39.3247 32.6613 38.2826V36.8698C32.6613 36.3587 33.0772 35.9429 33.5882 35.9429C34.0992 35.9429 34.52 36.3637 34.52 36.8698V38.2826C34.52 40.3517 32.8367 42.0301 30.7725 42.0301H18.2475C16.1834 42.0351 14.5 40.3517 14.5 38.2876V15.7475C14.5 13.6834 16.1834 12 18.2475 12H30.7776C32.8417 11.995 34.525 13.6784 34.525 15.7425V17.501C34.525 18.017 34.1042 18.4329 33.5932 18.4329C33.0822 18.4329 32.6663 18.012 32.6663 17.501L32.6563 17.496Z" fill="#0D257B"/>
</g>
<defs>
<filter id="filter0_d_1526_7803" x="0" y="0" width="54" height="54" filterUnits="userSpaceOnUse" color-interpolation-filters="sRGB">
<feFlood flood-opacity="0" result="BackgroundImageFix"/>
<feColorMatrix in="SourceAlpha" type="matrix" values="0 0 0 0 0 0 0 0 0 0 0 0 0 0 0 0 0 0 127 0" result="hardAlpha"/>
<feOffset/>
<feGaussianBlur stdDeviation="1"/>
<feComposite in2="hardAlpha" operator="out"/>
<feColorMatrix type="matrix" values="0 0 0 0 0 0 0 0 0 0 0 0 0 0 0 0 0 0 0.15 0"/>
<feBlend mode="normal" in2="BackgroundImageFix" result="effect1_dropShadow_1526_7803"/>
<feBlend mode="normal" in="SourceGraphic" in2="effect1_dropShadow_1526_7803" result="shape"/>
</filter>
</defs>
</svg>
