<svg width="54" height="54" viewBox="0 0 54 54" fill="none" xmlns="http://www.w3.org/2000/svg">
<g filter="url(#filter0_d_1526_7794)">
<rect x="2" y="2" width="50" height="50" rx="25" fill="white"/>
<path d="M34.249 26.5363C33.9899 26.1978 33.5093 26.1309 33.1708 26.3858L32.8364 26.6366L30.1576 28.651L28.8829 27.6897C28.745 27.5853 28.582 27.5309 28.419 27.5309C28.1892 27.5309 27.9552 27.6396 27.8047 27.8402C27.6793 28.0032 27.6292 28.2038 27.6584 28.4044C27.6835 28.6092 27.7922 28.7889 27.9552 28.9142L29.6937 30.2307C29.957 30.4313 30.3456 30.4355 30.6215 30.2307L34.0985 27.6145C34.4329 27.3554 34.4997 26.8748 34.249 26.5363ZM34.249 26.5363C33.9899 26.1978 33.5093 26.1309 33.1708 26.3858L32.8364 26.6366L30.1576 28.651L28.8829 27.6897C28.745 27.5853 28.582 27.5309 28.419 27.5309C28.1892 27.5309 27.9552 27.6396 27.8047 27.8402C27.6793 28.0032 27.6292 28.2038 27.6584 28.4044C27.6835 28.6092 27.7922 28.7889 27.9552 28.9142L29.6937 30.2307C29.957 30.4313 30.3456 30.4355 30.6215 30.2307L34.0985 27.6145C34.4329 27.3554 34.4997 26.8748 34.249 26.5363ZM34.249 26.5363C33.9899 26.1978 33.5093 26.1309 33.1708 26.3858L32.8364 26.6366L30.1576 28.651L28.8829 27.6897C28.745 27.5853 28.582 27.5309 28.419 27.5309C28.1892 27.5309 27.9552 27.6396 27.8047 27.8402C27.6793 28.0032 27.6292 28.2038 27.6584 28.4044C27.6835 28.6092 27.7922 28.7889 27.9552 28.9142L29.6937 30.2307C29.957 30.4313 30.3456 30.4355 30.6215 30.2307L34.0985 27.6145C34.4329 27.3554 34.4997 26.8748 34.249 26.5363ZM34.249 26.5363C33.9899 26.1978 33.5093 26.1309 33.1708 26.3858L32.8364 26.6366L30.1576 28.651L28.8829 27.6897C28.745 27.5853 28.582 27.5309 28.419 27.5309C28.1892 27.5309 27.9552 27.6396 27.8047 27.8402C27.6793 28.0032 27.6292 28.2038 27.6584 28.4044C27.6835 28.6092 27.7922 28.7889 27.9552 28.9142L29.6937 30.2307C29.957 30.4313 30.3456 30.4355 30.6215 30.2307L34.0985 27.6145C34.4329 27.3554 34.4997 26.8748 34.249 26.5363ZM34.249 26.5363C33.9899 26.1978 33.5093 26.1309 33.1708 26.3858L32.8364 26.6366L30.1576 28.651L28.8829 27.6897C28.745 27.5853 28.582 27.5309 28.419 27.5309C28.1892 27.5309 27.9552 27.6396 27.8047 27.8402C27.6793 28.0032 27.6292 28.2038 27.6584 28.4044C27.6835 28.6092 27.7922 28.7889 27.9552 28.9142L29.6937 30.2307C29.957 30.4313 30.3456 30.4355 30.6215 30.2307L34.0985 27.6145C34.4329 27.3554 34.4997 26.8748 34.249 26.5363ZM34.249 26.5363C33.9899 26.1978 33.5093 26.1309 33.1708 26.3858L32.8364 26.6366L30.1576 28.651L28.8829 27.6897C28.745 27.5853 28.582 27.5309 28.419 27.5309C28.1892 27.5309 27.9552 27.6396 27.8047 27.8402C27.6793 28.0032 27.6292 28.2038 27.6584 28.4044C27.6835 28.6092 27.7922 28.7889 27.9552 28.9142L29.6937 30.2307C29.957 30.4313 30.3456 30.4355 30.6215 30.2307L34.0985 27.6145C34.4329 27.3554 34.4997 26.8748 34.249 26.5363ZM34.249 26.5363C33.9899 26.1978 33.5093 26.1309 33.1708 26.3858L32.8364 26.6366L30.1576 28.651L28.8829 27.6897C28.745 27.5853 28.582 27.5309 28.419 27.5309C28.1892 27.5309 27.9552 27.6396 27.8047 27.8402C27.6793 28.0032 27.6292 28.2038 27.6584 28.4044C27.6835 28.6092 27.7922 28.7889 27.9552 28.9142L29.6937 30.2307C29.957 30.4313 30.3456 30.4355 30.6215 30.2307L34.0985 27.6145C34.4329 27.3554 34.4997 26.8748 34.249 26.5363ZM39.3894 34.2761L37.2287 32.1113L37.3081 31.9734C37.9643 30.8534 38.3111 29.5829 38.3111 28.2999C38.3111 25.6378 36.8568 23.1888 34.5123 21.9058L34.4036 21.8431V17.8729C34.4036 16.0131 32.8866 14.4961 31.0269 14.4961H17.992C16.1323 14.4961 14.6152 16.0131 14.6152 17.8729V36.1233C14.6152 37.983 16.1323 39.4959 17.992 39.4959H31.0269C32.8908 39.4959 34.4036 37.983 34.4036 36.1233V34.7525L34.5123 34.694C35.1099 34.3639 35.6574 33.9585 36.138 33.4863L36.2843 33.34L38.3028 35.3627C38.5912 35.6511 39.0968 35.6511 39.3894 35.3627L39.4144 35.3376C39.6903 35.0367 39.6819 34.5645 39.3894 34.2761ZM32.8657 36.1191C32.8657 37.1347 32.0382 37.958 31.0269 37.958H17.992C16.9765 37.958 16.1532 37.1347 16.1532 36.1191V17.8729C16.1532 16.8573 16.9765 16.034 17.992 16.034H31.0269C32.0382 16.034 32.8657 16.8573 32.8657 17.8729V21.2496L32.6108 21.1911C32.08 21.0741 31.5451 21.0156 31.0269 21.0156C27.0107 21.0156 23.7384 24.2837 23.7384 28.2999C23.7384 32.3161 27.0107 35.5842 31.0269 35.5842C31.5451 35.5842 32.08 35.5257 32.6108 35.4087L32.8657 35.3502V36.1191ZM31.0269 34.0504C27.8549 34.0504 25.2763 31.4677 25.2763 28.2999C25.2763 25.1321 27.8549 22.5494 31.0269 22.5494C34.1988 22.5494 36.7732 25.1279 36.7732 28.2999C36.7732 31.4719 34.1947 34.0504 31.0269 34.0504ZM33.1708 26.3858L32.8364 26.6366L30.1576 28.651L28.8829 27.6897C28.745 27.5853 28.582 27.5309 28.419 27.5309C28.1892 27.5309 27.9552 27.6396 27.8047 27.8402C27.6793 28.0032 27.6292 28.2038 27.6584 28.4044C27.6835 28.6092 27.7922 28.7889 27.9552 28.9142L29.6937 30.2307C29.957 30.4313 30.3456 30.4355 30.6215 30.2307L34.0985 27.6145C34.4329 27.3554 34.4997 26.8748 34.249 26.5363C33.9899 26.1978 33.5093 26.1309 33.1708 26.3858Z" fill="#0D257B"/>
<path d="M34.2491 26.5364C33.9899 26.1979 33.5093 26.131 33.1708 26.3859L32.8365 26.6367L30.1576 28.6511L28.883 27.6898C28.7451 27.5854 28.5821 27.531 28.4191 27.531C28.1893 27.531 27.9552 27.6397 27.8048 27.8403C27.6794 28.0033 27.6292 28.2039 27.6585 28.4045C27.6836 28.6093 27.7922 28.789 27.9552 28.9143L29.6938 30.2308C29.957 30.4314 30.3457 30.4356 30.6215 30.2308L34.0986 27.6146C34.4329 27.3555 34.4998 26.8749 34.2491 26.5364Z" fill="#0D257B"/>
<path d="M25.8116 19.7117H19.2963C18.87 19.7117 18.5273 20.0544 18.5273 20.4806C18.5273 20.9069 18.87 21.2496 19.2963 21.2496H25.8116C26.2379 21.2496 26.5806 20.9027 26.5806 20.4806C26.5806 20.0585 26.2379 19.7117 25.8116 19.7117Z" fill="#D5A54D"/>
<path d="M21.9041 23.6235H19.2963C18.87 23.6235 18.5273 23.9662 18.5273 24.3925C18.5273 24.8188 18.87 25.1573 19.2963 25.1573H21.9041C22.3262 25.1573 22.6689 24.8146 22.6689 24.3925C22.6689 23.9704 22.3262 23.6235 21.9041 23.6235Z" fill="#D5A54D"/>
<path d="M20.6002 27.531H19.2963C18.87 27.531 18.5273 27.8779 18.5273 28.3C18.5273 28.7221 18.87 29.0689 19.2963 29.0689H20.6002C21.0223 29.0689 21.3692 28.7262 21.3692 28.3C21.3692 27.8737 21.0223 27.531 20.6002 27.531Z" fill="#D5A54D"/>
</g>
<defs>
<filter id="filter0_d_1526_7794" x="0" y="0" width="54" height="54" filterUnits="userSpaceOnUse" color-interpolation-filters="sRGB">
<feFlood flood-opacity="0" result="BackgroundImageFix"/>
<feColorMatrix in="SourceAlpha" type="matrix" values="0 0 0 0 0 0 0 0 0 0 0 0 0 0 0 0 0 0 127 0" result="hardAlpha"/>
<feOffset/>
<feGaussianBlur stdDeviation="1"/>
<feComposite in2="hardAlpha" operator="out"/>
<feColorMatrix type="matrix" values="0 0 0 0 0 0 0 0 0 0 0 0 0 0 0 0 0 0 0.15 0"/>
<feBlend mode="normal" in2="BackgroundImageFix" result="effect1_dropShadow_1526_7794"/>
<feBlend mode="normal" in="SourceGraphic" in2="effect1_dropShadow_1526_7794" result="shape"/>
</filter>
</defs>
</svg>
