<svg width="54" height="54" viewBox="0 0 54 54" fill="none" xmlns="http://www.w3.org/2000/svg">
<g filter="url(#filter0_d_1526_7768)">
<rect x="2" y="2" width="50" height="50" rx="25" fill="white"/>
<path d="M32.1529 18.0205H29.3084C29.3 17.9913 29.2875 17.9621 29.2792 17.937C29.2667 17.9078 29.2583 17.8828 29.2458 17.8578C28.4325 15.8892 26.4931 14.4961 24.2325 14.4961C21.9719 14.4961 20.0324 15.8892 19.2191 17.8578C19.2066 17.8828 19.1983 17.9078 19.1858 17.937C19.1774 17.9621 19.1649 17.9913 19.1566 18.0205H16.3121C15.261 18.0205 14.4102 18.8713 14.4102 19.9182V34.8831C14.4102 35.93 15.261 36.785 16.3121 36.785H28.8955C29.2166 36.785 29.4794 36.5223 29.4794 36.2011C29.4794 35.88 29.2166 35.6214 28.8955 35.6214H16.3121C15.9033 35.6214 15.5696 35.2919 15.5696 34.8831V19.9182C15.5696 19.5136 15.9033 19.1799 16.3121 19.1799H18.8604C18.8563 19.2091 18.8521 19.2342 18.8521 19.2592C18.8479 19.2884 18.8438 19.3134 18.8438 19.3384C18.8187 19.5303 18.8104 19.7222 18.8104 19.9182C18.8104 22.9087 21.242 25.3403 24.2325 25.3403C27.223 25.3403 29.6546 22.9087 29.6546 19.9182C29.6546 19.7222 29.6462 19.5303 29.6212 19.3384C29.6212 19.3134 29.617 19.2884 29.6129 19.2592C29.6129 19.2342 29.6087 19.2091 29.6045 19.1799H32.1529C32.5616 19.1799 32.8953 19.5136 32.8953 19.9182V25.6406C32.8953 25.9617 33.1539 26.2203 33.475 26.2203C33.7962 26.2203 34.0548 25.9617 34.0548 25.6406V19.9182C34.0548 18.8713 33.204 18.0205 32.1529 18.0205ZM24.2325 24.1808C21.8843 24.1808 19.9699 22.2705 19.9699 19.9182C19.9699 19.6638 19.9907 19.4135 20.0366 19.1716C20.045 19.1299 20.0533 19.0882 20.0616 19.0465C20.0741 18.9714 20.095 18.8963 20.1117 18.8254C20.1284 18.7879 20.1409 18.7503 20.1451 18.7086C20.1701 18.6252 20.1951 18.546 20.2243 18.4667C20.241 18.4292 20.2535 18.3917 20.2702 18.3541C20.8958 16.7775 22.4348 15.6598 24.2325 15.6598C26.0301 15.6598 27.5733 16.7775 28.1948 18.3583C28.2115 18.3958 28.2281 18.4375 28.2407 18.4751C28.2698 18.5543 28.2949 18.6336 28.3199 18.717C28.3491 18.8213 28.3783 18.9297 28.3991 19.0381C28.4075 19.084 28.4158 19.1216 28.4242 19.1674C28.4701 19.4093 28.4909 19.6638 28.4909 19.9182C28.4909 22.2705 26.5807 24.1808 24.2325 24.1808Z" fill="#0D257B"/>
<path d="M24.3332 19.3467C24.1872 19.3217 23.6575 19.1673 23.6575 18.8796V18.8295C23.6575 18.6752 23.7576 18.5376 23.9078 18.45H23.912C23.9411 18.4333 23.9703 18.4208 24.0037 18.4083H24.0079C24.0788 18.3832 24.1539 18.3707 24.2331 18.3707C24.304 18.3707 24.3749 18.3874 24.4375 18.4166C24.4709 18.4291 24.5042 18.4458 24.5292 18.4666C24.5751 18.5042 24.6127 18.5501 24.6335 18.6001C24.7545 18.8962 25.0923 19.0381 25.3884 18.9171C25.5344 18.8587 25.647 18.7503 25.7054 18.6043C25.768 18.4625 25.768 18.304 25.7096 18.1622C25.5719 17.8202 25.3008 17.5491 24.9714 17.3864C24.9463 17.3697 24.9213 17.3614 24.8921 17.3489C24.8671 17.3364 24.8421 17.328 24.8129 17.3155V16.84C24.8129 16.5189 24.5543 16.2561 24.2331 16.2561C23.9119 16.2561 23.6534 16.5189 23.6534 16.84V17.3072C23.6283 17.3155 23.5991 17.3238 23.5741 17.3364C23.5449 17.3447 23.5199 17.353 23.4949 17.3697C22.9026 17.6241 22.498 18.183 22.498 18.8295V18.8796C22.498 19.939 23.5241 20.3894 24.133 20.4895C24.2748 20.5187 24.8087 20.673 24.8087 20.9566V21.0109C24.8087 21.1652 24.7086 21.3028 24.5584 21.3862C24.5251 21.4029 24.4917 21.4196 24.4583 21.4321H24.4542C24.3874 21.4571 24.3123 21.4696 24.2331 21.4696C24.158 21.4696 24.0913 21.453 24.0287 21.4238H24.0246C23.9912 21.4113 23.962 21.3904 23.937 21.3695C23.8911 21.3362 23.8536 21.2903 23.8327 21.2403C23.7743 21.0943 23.6617 20.9817 23.5199 20.9233C23.449 20.8941 23.3697 20.8774 23.2947 20.8774C23.2196 20.8774 23.1487 20.8899 23.0778 20.9191C22.7775 21.0401 22.6357 21.3821 22.7566 21.6782C22.8943 22.016 23.1612 22.2913 23.4949 22.454C23.5199 22.4707 23.5449 22.479 23.5741 22.4915C23.5991 22.504 23.6242 22.5124 23.6534 22.5249V23.0003C23.6534 23.3215 23.9119 23.5801 24.2331 23.5801C24.5543 23.5801 24.8129 23.3215 24.8129 23.0003V22.5374C24.8379 22.529 24.8671 22.5207 24.8921 22.5082C24.9213 22.4998 24.9463 22.4873 24.9714 22.4748C25.5594 22.2162 25.9682 21.6573 25.9682 21.0109V20.9566C25.9682 19.9014 24.9422 19.4468 24.3332 19.3467Z" fill="#D5A54D"/>
<path d="M26.5519 28.1348C26.5478 28.1056 26.5394 28.0806 26.5269 28.0556C26.4977 27.9888 26.456 27.9263 26.4018 27.8721L26.1807 27.651L26.0848 27.5509L25.0838 26.5499C24.9712 26.4373 24.821 26.3789 24.6709 26.3789C24.5207 26.3789 24.3748 26.4373 24.2621 26.5499C24.1537 26.6584 24.0911 26.8043 24.0911 26.9628C24.0911 27.1213 24.1537 27.2631 24.2621 27.3716L24.4332 27.5426L24.5124 27.6218L24.5916 27.7011H17.6305C17.3094 27.7011 17.0508 27.9597 17.0508 28.2808C17.0508 28.602 17.3094 28.8606 17.6305 28.8606H24.5916L24.5124 28.9398L24.4332 29.019L24.2621 29.1901C24.1537 29.3027 24.0911 29.4445 24.0911 29.603C24.0911 29.7615 24.1537 29.9033 24.2621 30.0117C24.4832 30.2328 24.8628 30.2328 25.0838 30.0117L26.089 29.0107L26.1932 28.9064L26.4018 28.6937C26.4602 28.6353 26.4977 28.5728 26.5269 28.506C26.5394 28.481 26.5478 28.456 26.5519 28.4268C26.5686 28.3809 26.5728 28.3309 26.5728 28.2808C26.5728 28.2308 26.5686 28.1807 26.5519 28.1348Z" fill="#0D257B"/>
<path d="M19.2549 32.823H25.9908C26.312 32.823 26.5706 32.5644 26.5706 32.2432C26.5706 31.9221 26.312 31.6635 25.9908 31.6635H19.0297L19.109 31.5842L19.1924 31.5008L19.3592 31.334C19.4676 31.2214 19.5302 31.0754 19.5302 30.9211C19.5302 30.7667 19.4676 30.6208 19.3592 30.5123C19.2508 30.4039 19.0965 30.3413 18.9505 30.3413C18.8045 30.3413 18.6502 30.3997 18.5376 30.5123L17.5407 31.5091L17.4406 31.6134L17.2237 31.8303C17.1653 31.8887 17.1278 31.9513 17.0986 32.018C17.0861 32.043 17.0778 32.068 17.0736 32.0972C17.0569 32.1431 17.0527 32.1932 17.0527 32.2432C17.0527 32.2933 17.0569 32.3433 17.0736 32.3892C17.0736 32.4184 17.0861 32.4434 17.0986 32.4684C17.1278 32.5352 17.1695 32.5977 17.2237 32.652L17.4448 32.873L17.5407 32.9731L18.5417 33.9741C18.7628 34.191 19.1465 34.191 19.3634 33.9741C19.4718 33.8615 19.5344 33.7197 19.5344 33.5612C19.5344 33.4027 19.4718 33.2609 19.3634 33.1525L19.1924 32.9814L19.1131 32.9022L19.0339 32.823H19.2591H19.2549Z" fill="#0D257B"/>
<path d="M33.4686 27.6216C30.1945 27.6216 27.5293 30.2867 27.5293 33.5609C27.5293 36.835 30.1945 39.5001 33.4686 39.5001C36.7427 39.5001 39.4078 36.835 39.4078 33.5609C39.4078 30.2867 36.7427 27.6216 33.4686 27.6216ZM36.1337 35.2959C36.3923 35.5545 36.3923 35.9716 36.1337 36.2302C36.0044 36.3595 35.8376 36.422 35.6666 36.422C35.4956 36.422 35.3288 36.3595 35.1995 36.2302L33.4644 34.4951L31.7293 36.2302C31.6 36.3595 31.4332 36.422 31.2622 36.422C31.0912 36.422 30.9244 36.3595 30.7951 36.2302C30.5365 35.9716 30.5365 35.5545 30.7951 35.2959L32.5301 33.5609L30.7951 31.8258C30.5365 31.5672 30.5365 31.1501 30.7951 30.8915C31.0537 30.6329 31.4707 30.6329 31.7293 30.8915L33.4644 32.6266L35.1995 30.8915C35.4581 30.6329 35.8751 30.6329 36.1337 30.8915C36.3923 31.1501 36.3923 31.5672 36.1337 31.8258L34.3987 33.5609L36.1337 35.2959Z" fill="#D5A54D"/>
</g>
<defs>
<filter id="filter0_d_1526_7768" x="0" y="0" width="54" height="54" filterUnits="userSpaceOnUse" color-interpolation-filters="sRGB">
<feFlood flood-opacity="0" result="BackgroundImageFix"/>
<feColorMatrix in="SourceAlpha" type="matrix" values="0 0 0 0 0 0 0 0 0 0 0 0 0 0 0 0 0 0 127 0" result="hardAlpha"/>
<feOffset/>
<feGaussianBlur stdDeviation="1"/>
<feComposite in2="hardAlpha" operator="out"/>
<feColorMatrix type="matrix" values="0 0 0 0 0 0 0 0 0 0 0 0 0 0 0 0 0 0 0.15 0"/>
<feBlend mode="normal" in2="BackgroundImageFix" result="effect1_dropShadow_1526_7768"/>
<feBlend mode="normal" in="SourceGraphic" in2="effect1_dropShadow_1526_7768" result="shape"/>
</filter>
</defs>
</svg>
