<svg width="54" height="54" viewBox="0 0 54 54" fill="none" xmlns="http://www.w3.org/2000/svg">
<g filter="url(#filter0_d_1526_7784)">
<rect x="2" y="2" width="50" height="50" rx="25" fill="white"/>
<path d="M21.0935 31.7804V34.5123C21.0838 35.0024 20.7004 35.3906 20.2152 35.3955C19.7251 35.3906 19.3369 35.0024 19.332 34.5172V31.7804C19.332 31.2951 19.7251 30.9021 20.2103 30.9021C20.6956 30.9021 21.0935 31.2951 21.0935 31.7804Z" fill="#0D257B"/>
<path d="M30.2107 31.7806V34.5126C30.2058 35.0027 29.8176 35.3909 29.3324 35.3957C28.8471 35.3957 28.4492 35.0027 28.4492 34.5174V31.7806C28.4492 31.2954 28.8471 30.9023 29.3324 30.9023C29.8176 30.9023 30.2107 31.2954 30.2107 31.7806Z" fill="#0D257B"/>
<path d="M25.6443 30.412V34.5172C25.6443 35.0024 25.2512 35.3955 24.766 35.3955C24.2759 35.3906 23.8925 35.0024 23.8828 34.5172V30.412C23.8828 29.9267 24.2807 29.5337 24.766 29.5337C25.2512 29.5337 25.6443 29.9267 25.6443 30.412Z" fill="#0D257B"/>
<path d="M34.7614 27.6801V34.5124C34.7566 35.0025 34.3684 35.3907 33.8831 35.3955C33.3979 35.3907 33.0097 35.0025 33 34.5172V27.6801C33 27.1948 33.3979 26.8018 33.8831 26.8018C34.3684 26.8018 34.7614 27.1948 34.7614 27.6801Z" fill="#0D257B"/>
<path d="M34.7527 23.0167C34.7236 23.2496 34.6022 23.4583 34.413 23.599L29.8856 26.9909C29.0025 27.6508 27.7408 27.5586 26.9596 26.7822L25.8775 25.705C25.6979 25.5643 25.4408 25.5643 25.2661 25.705L20.7387 29.0677C20.5834 29.1794 20.4039 29.2424 20.2098 29.2424C19.9186 29.2424 19.6711 29.1114 19.511 28.8979C19.2587 28.5146 19.3315 28.0148 19.6857 27.7285L24.2082 24.2686C24.6061 23.9726 25.0768 23.8271 25.5524 23.8271C26.1298 23.8271 26.7024 24.0454 27.1343 24.4724L28.2164 25.5497C28.3959 25.6953 28.6531 25.6953 28.8278 25.5545L33.3552 22.1918C33.7434 21.9006 34.2965 21.9783 34.5877 22.3665C34.7284 22.5557 34.7866 22.7838 34.7527 23.0167Z" fill="#D5A54D"/>
<path d="M37.3002 13.8118H36.616C36.1307 13.8118 35.7377 14.2048 35.7377 14.6901C35.7377 15.1753 36.1307 15.5732 36.616 15.5732H37.3002C37.5719 15.5732 37.7903 15.7916 37.7903 16.0585V39.3019C37.7903 39.5688 37.5719 39.7871 37.3002 39.7871H16.7936C16.5267 39.7871 16.3083 39.5688 16.3083 39.3019V16.0585C16.3083 15.7916 16.5267 15.5732 16.7936 15.5732H20.0156V16.0585C20.0205 17.291 21.0298 18.3003 22.2623 18.3052H31.8314C33.064 18.3003 34.0733 17.291 34.0781 16.0585V14.6901C34.0733 13.4575 33.064 12.4531 31.8314 12.4434H22.2623C21.3986 12.4434 20.6222 12.9432 20.2437 13.7293L20.2049 13.8118H16.7936C15.561 13.8166 14.5517 14.8259 14.5469 16.0585V39.3019C14.5517 40.5344 15.561 41.5389 16.7936 41.5486H37.3002C38.5327 41.5389 39.542 40.5344 39.5469 39.3019V16.0585C39.542 14.8259 38.5327 13.8166 37.3002 13.8118ZM21.7771 14.6901C21.7771 14.4232 21.9954 14.2048 22.2623 14.2048H31.8314C32.1032 14.2048 32.3215 14.4232 32.3215 14.6901V16.0585C32.3215 16.3253 32.1032 16.5437 31.8314 16.5437H22.2623C21.9954 16.5437 21.7771 16.3253 21.7771 16.0585V14.6901Z" fill="#0D257B"/>
</g>
<defs>
<filter id="filter0_d_1526_7784" x="0" y="0" width="54" height="54" filterUnits="userSpaceOnUse" color-interpolation-filters="sRGB">
<feFlood flood-opacity="0" result="BackgroundImageFix"/>
<feColorMatrix in="SourceAlpha" type="matrix" values="0 0 0 0 0 0 0 0 0 0 0 0 0 0 0 0 0 0 127 0" result="hardAlpha"/>
<feOffset/>
<feGaussianBlur stdDeviation="1"/>
<feComposite in2="hardAlpha" operator="out"/>
<feColorMatrix type="matrix" values="0 0 0 0 0 0 0 0 0 0 0 0 0 0 0 0 0 0 0.15 0"/>
<feBlend mode="normal" in2="BackgroundImageFix" result="effect1_dropShadow_1526_7784"/>
<feBlend mode="normal" in="SourceGraphic" in2="effect1_dropShadow_1526_7784" result="shape"/>
</filter>
</defs>
</svg>
