<svg width="54" height="54" viewBox="0 0 54 54" fill="none" xmlns="http://www.w3.org/2000/svg">
<g filter="url(#filter0_d_1526_7778)">
<rect x="2" y="2" width="50" height="50" rx="25" fill="white"/>
<path d="M39.4521 28.6465L37.5446 17.8261C37.3175 16.5469 36.2011 15.6423 34.9445 15.6423C34.7932 15.6423 34.638 15.6575 34.4828 15.684L18.1217 18.5717C17.4291 18.6928 16.8235 19.0788 16.4186 19.6579C16.0136 20.2369 15.8585 20.9371 15.9796 21.6297L16.1272 22.4774L16.0818 22.4964C15.1167 22.9165 14.4922 23.8664 14.4922 24.9186V35.633C14.4922 37.0901 15.6768 38.2747 17.1339 38.2747H33.3777C34.831 38.2747 36.0156 37.0901 36.0156 35.633V31.9353L37.31 31.7045C38.0026 31.5834 38.6081 31.1973 39.0131 30.6183C39.418 30.043 39.5732 29.3428 39.4521 28.6465ZM34.672 35.633C34.672 36.3483 34.093 36.9311 33.3777 36.9311H17.1339C16.4186 36.9311 15.8358 36.3483 15.8358 35.633V30.3193H34.672V35.633ZM34.672 28.9757H15.8358V26.9698H34.672V28.9757ZM34.672 25.6263H15.8358V24.9186C15.8358 24.2033 16.4186 23.6204 17.1339 23.6204H33.3777C34.093 23.6204 34.672 24.2033 34.672 24.9186V25.6263ZM37.9117 29.85C37.7149 30.1338 37.4159 30.3231 37.0753 30.3836L36.0156 30.5691V24.9186C36.0156 23.4615 34.831 22.2769 33.3777 22.2769H17.4594L17.3042 21.395C17.2437 21.0544 17.3193 20.71 17.5161 20.4262C17.7167 20.1423 18.0119 19.9531 18.3563 19.8925L34.7175 17.0086C34.7932 16.9935 34.8689 16.9897 34.9445 16.9897C35.5728 16.9897 36.1102 17.4401 36.22 18.0607L38.1275 28.8811C38.188 29.2217 38.1123 29.5661 37.9117 29.85Z" fill="#0D257B"/>
<path d="M21.5008 33.877H18.1324C17.7237 33.877 17.3906 34.21 17.3906 34.6187C17.3906 35.0275 17.7237 35.3605 18.1324 35.3605H21.5008C21.9095 35.3605 22.2426 35.0275 22.2426 34.6187C22.2426 34.21 21.9095 33.877 21.5008 33.877Z" fill="#D5A54D"/>
</g>
<defs>
<filter id="filter0_d_1526_7778" x="0" y="0" width="54" height="54" filterUnits="userSpaceOnUse" color-interpolation-filters="sRGB">
<feFlood flood-opacity="0" result="BackgroundImageFix"/>
<feColorMatrix in="SourceAlpha" type="matrix" values="0 0 0 0 0 0 0 0 0 0 0 0 0 0 0 0 0 0 127 0" result="hardAlpha"/>
<feOffset/>
<feGaussianBlur stdDeviation="1"/>
<feComposite in2="hardAlpha" operator="out"/>
<feColorMatrix type="matrix" values="0 0 0 0 0 0 0 0 0 0 0 0 0 0 0 0 0 0 0.15 0"/>
<feBlend mode="normal" in2="BackgroundImageFix" result="effect1_dropShadow_1526_7778"/>
<feBlend mode="normal" in="SourceGraphic" in2="effect1_dropShadow_1526_7778" result="shape"/>
</filter>
</defs>
</svg>
