<svg width="54" height="54" viewBox="0 0 54 54" fill="none" xmlns="http://www.w3.org/2000/svg">
<g filter="url(#filter0_d_1526_7245)">
<rect x="2" y="2" width="50" height="50" rx="25" fill="white"/>
<path d="M30.9157 14.4915H17.0814C15.6554 14.4915 14.4922 15.6506 14.4922 17.0807V35.5222C14.4922 36.9523 15.6554 38.1114 17.0814 38.1114H25.3619V36.6229H17.0814C16.4768 36.6229 15.9807 36.1309 15.9807 35.5222V17.0807C15.9807 16.4719 16.4768 15.9799 17.0814 15.9799H30.9157C31.5202 15.9799 32.0122 16.4719 32.0122 17.0807V22.9012H33.5049V17.0807C33.5049 15.6506 32.3416 14.4915 30.9157 14.4915Z" fill="#0D257B"/>
<path d="M29.8055 18.9236C29.8055 19.2947 29.5762 19.6699 29.0675 19.6699H18.9233C18.4146 19.6699 18.1895 19.2947 18.1895 18.9236C18.1895 18.5525 18.4146 18.1772 18.9233 18.1772H29.0675C29.5762 18.1772 29.8055 18.5525 29.8055 18.9236Z" fill="#0D257B"/>
<path d="M24.2727 33.6792C24.2727 33.8752 24.206 34.0586 24.0892 34.1962C23.9558 34.3463 23.764 34.4214 23.5347 34.4214H18.9233C18.4146 34.4214 18.1895 34.0503 18.1895 33.6792C18.1895 33.3081 18.4146 32.9329 18.9233 32.9329H23.5347C24.0434 32.9329 24.2727 33.3081 24.2727 33.6792Z" fill="#0D257B"/>
<path d="M23.3512 29.9893C23.3512 30.1894 23.2845 30.3728 23.1636 30.5063C23.0343 30.6564 22.8426 30.7356 22.6132 30.7356H18.9233C18.4146 30.7356 18.1895 30.3603 18.1895 29.9893C18.1895 29.6182 18.4146 29.2429 18.9233 29.2429H22.6132C23.1219 29.2429 23.3512 29.6182 23.3512 29.9893Z" fill="#0D257B"/>
<path d="M23.3512 26.2993C23.3512 26.4994 23.2845 26.6829 23.1636 26.8163C23.0343 26.9664 22.8426 27.0456 22.6132 27.0456H18.9233C18.4146 27.0456 18.1895 26.6704 18.1895 26.2993C18.1895 25.9282 18.4146 25.5571 18.9233 25.5571H22.6132C23.1219 25.5571 23.3512 25.9282 23.3512 26.2993Z" fill="#0D257B"/>
<path d="M29.8055 22.6135C29.8055 22.9846 29.5762 23.3557 29.0675 23.3557H18.9233C18.4146 23.3557 18.1895 22.9846 18.1895 22.6135C18.1895 22.2424 18.4146 21.8672 18.9233 21.8672H29.0675C29.5762 21.8672 29.8055 22.2424 29.8055 22.6135Z" fill="#0D257B"/>
<path d="M36.7527 24.4271H36.1064V24.1436C36.1064 23.7684 35.7812 23.439 35.406 23.439C35.0307 23.439 34.7013 23.7558 34.7013 24.1436V24.4271H29.281V24.1436C29.281 23.7684 28.9516 23.439 28.5764 23.439C28.2011 23.439 27.8718 23.7558 27.8718 24.1436V24.4271H27.2297C25.7328 24.4271 24.5195 25.6446 24.5195 27.1373V36.6936C24.5195 38.1863 25.7328 39.4038 27.2297 39.4038H36.7819C38.2787 39.4038 39.492 38.1863 39.492 36.6936V27.1373C39.4628 25.6446 38.2329 24.4271 36.7527 24.4271ZM25.9246 27.1373C25.9246 26.4201 26.5084 25.8364 27.2297 25.8364H27.8718V26.1199C27.8718 26.4952 28.2011 26.8246 28.5764 26.8246C28.9516 26.8246 29.281 26.5077 29.281 26.1199V25.8364H34.7013V26.1199C34.7013 26.4952 35.0307 26.8246 35.406 26.8246C35.7812 26.8246 36.1064 26.5077 36.1064 26.1199V25.8364H36.7527C37.4699 25.8364 38.0577 26.4201 38.0577 27.1373V36.6936C38.0577 37.4108 37.4699 37.9945 36.7527 37.9945H27.2297C26.5084 37.9945 25.9246 37.4108 25.9246 36.6936V27.1373Z" fill="#0D257B"/>
<path d="M31.6928 30.0606C31.5093 30.219 31.3509 30.3566 31.1674 30.515C30.984 30.6735 31.009 30.9945 31.1674 31.153C31.28 31.2655 31.4176 31.2906 31.5552 31.2655V33.4337C31.5552 33.6838 31.7595 33.8881 32.0097 33.8881C32.2598 33.8881 32.4641 33.6838 32.4641 33.4337V30.3524C32.4641 29.9647 31.9638 29.8062 31.6886 30.0564L31.6928 30.0606Z" fill="#D5A54D"/>
<path d="M31.9899 28.0967C29.8927 28.0967 28.1582 29.8062 28.1582 31.9284C28.1582 34.0507 29.8677 35.7601 31.9899 35.7601C34.1122 35.7601 35.8217 34.0507 35.8217 31.9284C35.8217 29.8062 34.0872 28.0967 31.9899 28.0967ZM31.9899 34.8262C30.393 34.8262 29.0671 33.5253 29.0671 31.9034C29.0671 30.2815 30.3889 29.0056 31.9899 29.0056C33.591 29.0056 34.9127 30.3065 34.9127 31.9284C34.9127 33.5503 33.591 34.8262 31.9899 34.8262Z" fill="#D5A54D"/>
</g>
<defs>
<filter id="filter0_d_1526_7245" x="0" y="0" width="54" height="54" filterUnits="userSpaceOnUse" color-interpolation-filters="sRGB">
<feFlood flood-opacity="0" result="BackgroundImageFix"/>
<feColorMatrix in="SourceAlpha" type="matrix" values="0 0 0 0 0 0 0 0 0 0 0 0 0 0 0 0 0 0 127 0" result="hardAlpha"/>
<feOffset/>
<feGaussianBlur stdDeviation="1"/>
<feComposite in2="hardAlpha" operator="out"/>
<feColorMatrix type="matrix" values="0 0 0 0 0 0 0 0 0 0 0 0 0 0 0 0 0 0 0.15 0"/>
<feBlend mode="normal" in2="BackgroundImageFix" result="effect1_dropShadow_1526_7245"/>
<feBlend mode="normal" in="SourceGraphic" in2="effect1_dropShadow_1526_7245" result="shape"/>
</filter>
</defs>
</svg>
