<svg width="35" height="38" viewBox="0 0 35 38" fill="none" xmlns="http://www.w3.org/2000/svg">
<path d="M23.7811 38L20.8746 34.5021C22.2838 31.5342 23.5168 28.5662 24.5737 25.5983C25.6307 22.7364 26.2472 19.9275 26.4233 17.1715L19.8176 15.4226L19.8176 0H34.0859L34.0859 11.1297C34.0859 17.7015 33.029 23.0014 30.9152 27.0293C28.7133 31.1632 26.3353 34.8201 23.7811 38ZM3.96398 38L1.05748 34.5021C2.46669 31.5342 3.69975 28.5662 4.75666 25.5983C5.81358 22.7364 6.43011 19.9275 6.60626 17.1715L0.00056839 15.4226L0.00056839 0L14.2689 0V11.1297C14.2689 17.7015 13.212 23.0014 11.0981 27.0293C8.89623 31.1632 6.51818 34.8201 3.96398 38Z" fill="#A9A9A9"/>
</svg>
