<svg width="91" height="90" viewBox="0 0 91 90" fill="none" xmlns="http://www.w3.org/2000/svg">
<rect x="0.5" width="90" height="90" rx="45" fill="#0D257B" fill-opacity="0.03"/>
<path d="M62.2344 25.9062H60.2812V23.9531C60.2812 22.8744 59.4068 22 58.3281 22C57.2494 22 56.375 22.8744 56.375 23.9531V31.7656C56.375 32.8443 57.2494 33.7188 58.3281 33.7188C59.4068 33.7188 60.2812 32.8443 60.2812 31.7656V29.8125H62.2344C65.4652 29.8125 68.0938 32.441 68.0938 35.6719V59.1094C68.0938 62.3402 65.4652 64.9688 62.2344 64.9688H31.7656C28.5348 64.9688 25.9062 62.3402 25.9062 59.1094V35.6719C25.9062 32.441 28.5348 29.8125 31.7656 29.8125H33.7188V31.7656C33.7188 32.8443 34.5932 33.7188 35.6719 33.7188C36.7506 33.7188 37.625 32.8443 37.625 31.7656V23.9531C37.625 22.8744 36.7506 22 35.6719 22C34.5932 22 33.7188 22.8744 33.7188 23.9531V25.9062H31.7656C26.3809 25.9062 22 30.2871 22 35.6719V59.1094C22 64.4941 26.3809 68.875 31.7656 68.875H62.2344C67.6192 68.875 72 64.4941 72 59.1094V35.6719C72 30.2871 67.6192 25.9062 62.2344 25.9062Z" fill="#0D257B"/>
<path d="M50.9062 29.8125C51.985 29.8125 52.8594 28.9381 52.8594 27.8594C52.8594 26.7807 51.985 25.9062 50.9062 25.9062H43.0938C42.015 25.9062 41.1406 26.7807 41.1406 27.8594C41.1406 28.9381 42.015 29.8125 43.0938 29.8125H50.9062ZM29.8125 39.5781C29.8125 40.6568 30.6869 41.5312 31.7656 41.5312H62.2344C63.3131 41.5312 64.1875 40.6568 64.1875 39.5781C64.1875 38.4994 63.3131 37.625 62.2344 37.625H31.7656C30.6869 37.625 29.8125 38.4994 29.8125 39.5781ZM55.3845 46.0096L45.0469 56.3473L40.5686 51.8689C39.8058 51.1062 38.5691 51.1062 37.8064 51.8689C37.0438 52.6317 37.0437 53.8684 37.8064 54.6311L43.6658 60.4904C44.4285 61.2531 45.6651 61.2532 46.4279 60.4904L58.1467 48.7717C58.9095 48.0089 58.9095 46.7723 58.1467 46.0096C57.3839 45.2469 56.1473 45.2468 55.3845 46.0096Z" fill="#D5A54D"/>
</svg>
