<svg width="40" height="40" viewBox="0 0 40 40" fill="none" xmlns="http://www.w3.org/2000/svg">
<circle cx="20" cy="20" r="20" fill="#A90000" fill-opacity="0.2"/>
<circle cx="19.9992" cy="19.9992" r="17.2414" fill="#A90000"/>
<path d="M10.1484 20.6145C10.1484 20.1834 10.1484 19.814 10.1484 19.3829C10.21 19.0135 10.21 18.7056 10.2716 18.3361C10.641 16.3041 11.5031 14.5184 12.9809 13.0406C14.4588 11.6243 16.2445 10.6391 18.2765 10.2696C18.646 10.2081 19.0154 10.2081 19.3849 10.1465C19.8159 10.1465 20.1854 10.1465 20.6164 10.1465C20.9243 10.2081 21.2938 10.2081 21.6016 10.2696C23.4489 10.5775 25.0499 11.378 26.4662 12.6095C28.1903 14.1489 29.2371 16.0578 29.6681 18.3361C29.7297 18.7056 29.7913 19.0751 29.7913 19.4445C29.7913 19.8755 29.7913 20.245 29.7913 20.676C29.7913 20.9223 29.7297 21.1687 29.7297 21.415C29.4218 23.3854 28.6829 25.1095 27.3282 26.5874C25.7888 28.3115 23.9415 29.3583 21.6632 29.7893C21.2938 29.8509 20.9243 29.9125 20.5548 29.9125C20.1238 29.9125 19.7543 29.9125 19.3233 29.9125C19.077 29.9125 18.8307 29.8509 18.5844 29.8509C16.614 29.543 14.8898 28.8041 13.412 27.4494C11.6878 25.91 10.641 24.0627 10.2716 21.7844C10.21 21.3534 10.21 20.9839 10.1484 20.6145ZM28.4366 19.9987C28.4366 15.3189 24.6805 11.5627 20.0007 11.5627C15.3209 11.5627 11.5647 15.3189 11.5647 19.9987C11.5647 24.6785 15.3824 28.4347 20.0007 28.4347C24.6805 28.4347 28.4366 24.6785 28.4366 19.9987Z" fill="white"/>
<path d="M20.0014 19.0755C20.063 19.0139 20.1246 18.8908 20.1246 18.8908C21.0482 17.9671 22.0334 16.9819 22.9571 16.0583C23.1418 15.8735 23.3881 15.7504 23.696 15.8735C23.9423 15.9967 24.127 16.1814 24.1886 16.4277C24.2502 16.674 24.127 16.8588 23.9423 17.0435C23.0187 17.9671 22.095 18.8908 21.1098 19.8144C21.0482 19.876 20.9866 19.876 20.9251 19.9376C20.9866 19.9992 21.0482 20.0607 21.1098 20.1223C22.0334 21.046 22.9571 22.0312 23.9423 22.9548C24.127 23.1396 24.2502 23.3243 24.1886 23.5706C24.127 23.8785 24.0039 24.0632 23.696 24.1248C23.3881 24.2479 23.1418 24.1248 22.9571 23.94C22.0334 23.0164 21.0482 22.0312 20.1246 21.1075C20.063 21.046 20.0014 20.9844 19.9398 20.9844C19.8783 21.046 19.8167 21.1075 19.7551 21.1075C18.8315 22.0312 17.8463 22.9548 16.9226 23.94C16.7379 24.1248 16.4916 24.2479 16.2453 24.1864C15.6911 24.0632 15.5063 23.4474 15.8758 23.0164C15.9374 22.9548 15.9374 22.8933 15.999 22.8933C16.9226 21.9696 17.8463 21.046 18.7699 20.1223C18.8315 20.0607 18.893 19.9992 18.893 19.9376C18.8315 19.876 18.7699 19.8144 18.7699 19.7529C17.8463 18.8292 16.861 17.844 15.9374 16.9203C15.8142 16.7972 15.6911 16.5509 15.8142 16.243C15.8758 15.9967 16.1221 15.812 16.3684 15.7504C16.6147 15.6888 16.7995 15.812 16.9842 15.9967C17.9078 16.9203 18.8315 17.844 19.7551 18.7676C19.8783 18.8908 19.9398 18.9524 20.0014 19.0755Z" fill="white"/>
</svg>
