<svg width="91" height="90" viewBox="0 0 91 90" fill="none" xmlns="http://www.w3.org/2000/svg">
<rect x="0.5" width="90" height="90" rx="45" fill="#0D257B" fill-opacity="0.03"/>
<path d="M46 70C43.8971 70 42.1864 68.2893 42.1864 66.1864V65.4131L41.847 65.3443C39.2627 64.8196 36.8122 63.7987 34.5632 62.3097L34.2746 62.1186L33.7156 62.6777C32.9953 63.398 32.0376 63.7947 31.019 63.7947C30.0003 63.7947 29.0427 63.398 28.3225 62.6777C27.6021 61.9573 27.2054 60.9997 27.2054 59.981C27.2054 58.9624 27.6021 58.0048 28.3225 57.2845L28.8816 56.7254L28.6905 56.4367C27.2015 54.1878 26.1805 51.7372 25.6559 49.153L25.5869 48.8136H24.8136C22.7107 48.8136 21 47.1029 21 45C21 42.8971 22.7107 41.1864 24.8136 41.1864H25.5869L25.6557 40.847C26.1804 38.2627 27.2013 35.8122 28.6903 33.5633L28.8814 33.2746L28.3224 32.7155C27.602 31.9951 27.2053 31.0374 27.2053 30.0188C27.2053 29.0002 27.602 28.0425 28.3224 27.3221C29.0426 26.6019 30.0002 26.2053 31.0189 26.2053C32.0375 26.2053 32.9951 26.6019 33.7154 27.3221L34.2747 27.8815L34.5635 27.6904C36.8124 26.2013 39.2629 25.1804 41.8469 24.6558L42.1864 24.5869V23.8136C42.1864 21.7107 43.8971 20 46 20C48.1029 20 49.8136 21.7107 49.8136 23.8136V24.5869L50.153 24.6557C52.7372 25.1803 55.1876 26.2013 57.4364 27.6903L57.7252 27.8814L58.2844 27.322C59.0048 26.6018 59.9624 26.2052 60.981 26.2052C61.9997 26.2052 62.9573 26.6018 63.6777 27.322C65.1645 28.809 65.1645 31.2284 63.6777 32.7154L63.1185 33.2744L63.3097 33.5631C64.7988 35.8122 65.8197 38.2628 66.3443 40.8468L66.4131 41.1863H67.1864C69.2893 41.1863 71 42.897 71 44.9999C71 47.1028 69.2893 48.8135 67.1864 48.8135H66.413L66.3442 49.153C65.8197 51.7371 64.7987 54.1876 63.3096 56.4367L63.1184 56.7254L63.6775 57.2844C64.3979 58.0047 64.7946 58.9623 64.7946 59.9809C64.7946 60.9996 64.3979 61.9572 63.6775 62.6774C62.9572 63.3978 61.9996 63.7945 60.9809 63.7945C59.9623 63.7945 59.0047 63.3978 58.2843 62.6774L57.7254 62.1183L57.4367 62.3094C55.1878 63.7984 52.7372 64.8194 50.1529 65.344L49.8136 65.4131V66.1864C49.8136 68.2893 48.1029 70 46 70Z" stroke="#0D257B" stroke-width="4" stroke-miterlimit="10" stroke-linecap="round" stroke-linejoin="round"/>
<path d="M46.0009 57.7128C53.0215 57.7128 58.7128 52.0215 58.7128 45.0009C58.7128 37.9804 53.0215 32.2891 46.0009 32.2891C38.9804 32.2891 33.2891 37.9804 33.2891 45.0009C33.2891 52.0215 38.9804 57.7128 46.0009 57.7128Z" stroke="#D5A54D" stroke-width="4" stroke-miterlimit="10" stroke-linecap="round" stroke-linejoin="round"/>
<path d="M46 40.7637V45.001H50.2373" stroke="#D5A54D" stroke-width="4" stroke-miterlimit="10" stroke-linecap="round" stroke-linejoin="round"/>
</svg>
