<svg width="91" height="90" viewBox="0 0 91 90" fill="none" xmlns="http://www.w3.org/2000/svg">
<rect x="0.5" width="90" height="90" rx="45" fill="#0D257B" fill-opacity="0.03"/>
<path d="M56.3636 63.5085V65.8814C56.3636 69.8129 53.311 73 49.5455 73H26.8182C23.0526 73 20 69.8129 20 65.8814V24.1186C20 20.1871 23.0526 17 26.8182 17H49.5455C53.311 17 56.3636 20.1871 56.3636 24.1186V26.4915M35.9091 26.4915H40.4545M35.9091 63.5085H40.4545" stroke="#0D257B" stroke-width="4" stroke-miterlimit="10" stroke-linecap="round" stroke-linejoin="round"/>
<path d="M47.272 35.984C44.7617 35.984 42.7266 38.1088 42.7266 40.7298V49.2722C42.7266 51.8931 44.7617 54.0179 47.272 54.0179H65.4538C67.9642 54.0179 69.9993 51.8931 69.9993 49.2722V40.7298C69.9993 38.1088 67.9642 35.984 65.4538 35.984M47.272 35.984H65.4538M47.272 35.984V31.2383M65.4538 35.984V31.2383" stroke="#D5A54D" stroke-width="4" stroke-miterlimit="10" stroke-linecap="round" stroke-linejoin="round"/>
</svg>
