<svg width="40" height="40" viewBox="0 0 40 40" fill="none" xmlns="http://www.w3.org/2000/svg">
<circle cx="20" cy="20" r="20" fill="#24CCB8" fill-opacity="0.2"/>
<circle cx="19.9992" cy="19.9992" r="17.2414" fill="#24CCB8"/>
<g clip-path="url(#clip0_1_55111)">
<path d="M20.4306 21.3568C20.3074 21.3568 20.1843 21.3568 20.0611 21.3568H19.9996C19.5069 21.2953 19.0759 21.1721 18.6449 20.9258C17.8444 20.4332 17.3518 19.6943 17.167 18.7706C17.167 18.6475 17.1055 18.5243 17.1055 18.4012C17.1055 18.278 17.1055 18.1549 17.1055 18.0317V17.9701C17.1055 17.847 17.1055 17.7238 17.167 17.5391C17.3518 16.8002 17.7212 16.1844 18.337 15.6918C19.0759 15.1376 19.938 14.9529 20.8616 15.1376C21.6005 15.3224 22.2163 15.6918 22.7089 16.3076C23.2015 16.9849 23.4478 17.7238 23.3247 18.5243C23.2631 19.2017 23.0168 19.7559 22.5858 20.2485C22.0932 20.8027 21.4774 21.1105 20.8001 21.2953C20.6769 21.3568 20.5537 21.3568 20.4306 21.3568ZM19.7533 18.7706C19.6301 18.6475 19.5069 18.5859 19.3838 18.4628C19.1991 18.278 19.0143 18.1549 18.8912 17.9701C18.768 17.847 18.4601 17.9086 18.3986 18.1549C18.337 18.278 18.3986 18.4012 18.5217 18.4628C18.8296 18.7706 19.1991 19.0785 19.5069 19.3864C19.6917 19.5096 19.8148 19.5096 19.9996 19.3864C20.6769 18.7706 21.2927 18.0933 21.97 17.4775L22.0316 17.416C22.1547 17.2928 22.0932 17.0465 21.97 16.9233C21.8468 16.8618 21.6621 16.8618 21.539 16.9849C20.9848 17.5391 20.369 18.1549 19.7533 18.7706C19.8148 18.7706 19.8148 18.7091 19.7533 18.7706Z" fill="white"/>
<path d="M23.0783 10.1504H22.9551C22.2778 10.1504 21.7236 10.5814 21.6004 11.2588C21.4157 11.9977 20.6152 12.4287 19.8763 12.244C19.3837 12.1208 19.0142 11.7514 18.8911 11.2588C18.7063 10.5814 18.1521 10.1504 17.4748 10.1504H17.4132C15.4428 10.1504 13.8418 11.7514 13.8418 13.7218V27.6997C13.8418 28.8696 14.827 29.8548 15.997 29.8548H17.5364C18.2137 29.8548 18.7679 29.4238 18.8911 28.7465C19.0758 28.0075 19.8763 27.5149 20.6152 27.7612C21.1078 27.8844 21.4773 28.2538 21.6004 28.7465C21.7851 29.3622 22.3393 29.8548 22.9551 29.8548H24.4945C25.6645 29.8548 26.6497 28.8696 26.6497 27.6997V13.7218C26.6497 11.7514 25.0487 10.1504 23.0783 10.1504ZM24.5561 28.4386L23.0167 28.377C22.5856 26.8376 21.0462 25.9755 19.5068 26.4065C18.5216 26.6529 17.7827 27.4533 17.5364 28.4386H15.997C15.6275 28.4386 15.2581 28.1307 15.2581 27.6997V24.8671H16.6743C17.0438 24.8671 17.4132 24.5593 17.4132 24.1282C17.4132 23.6972 17.1053 23.3893 16.6743 23.3893H15.2581V13.7218C15.2581 12.5519 16.2433 11.5666 17.4132 11.5666L17.5364 11.6282C17.9058 12.8598 19.0142 13.7218 20.3073 13.7218C21.6004 13.7218 22.7704 12.8598 23.0783 11.5666C24.2482 11.5666 25.2334 12.5519 25.2334 13.7218V23.4509H23.8172C23.4477 23.4509 23.0783 23.7588 23.0783 24.1898C23.0783 24.6208 23.3861 24.9287 23.8172 24.9287H25.2334V27.7612C25.2334 28.1307 24.9255 28.4386 24.5561 28.4386Z" fill="white"/>
<path d="M20.9853 23.4512H19.569C19.1995 23.4512 18.8301 23.7591 18.8301 24.1901C18.8301 24.6211 19.138 24.929 19.569 24.929H20.9853C21.3547 24.929 21.7242 24.6211 21.7242 24.1901C21.7242 23.7591 21.3547 23.4512 20.9853 23.4512Z" fill="white"/>
</g>
<defs>
<clipPath id="clip0_1_55111">
<rect width="12.8079" height="19.7044" fill="white" transform="translate(13.8418 10.1465)"/>
</clipPath>
</defs>
</svg>
