<svg width="40" height="40" viewBox="0 0 40 40" fill="none" xmlns="http://www.w3.org/2000/svg">
<circle cx="20.2087" cy="20.2087" r="12.2477" fill="#0D257B" fill-opacity="0.2"/>
<circle cx="20.2088" cy="20.2049" r="10.5584" fill="#0D257B"/>
<g clip-path="url(#clip0_1_55088)">
<path d="M26.2425 17.1078V17.0701C26.0163 15.9011 24.885 15.1093 23.6783 15.3355L15.3825 16.9193C14.7037 16.957 14.1758 17.5226 14.1758 18.2391V19.1818C14.1758 19.5966 14.4397 19.936 14.8545 20.0114C14.8922 20.0114 14.8922 20.0114 14.93 20.0491C14.9677 20.0491 14.9677 20.0868 15.0054 20.0868C15.3825 20.2753 15.571 20.6901 15.4579 21.1049C15.3825 21.4066 15.1562 21.6328 14.8545 21.7083C14.4774 21.8214 14.1758 22.1608 14.1758 22.5378V23.4806C14.1758 24.197 14.7791 24.8003 15.4956 24.8003H24.0554C25.2621 24.8003 26.2425 23.8199 26.2425 22.6133V22.5755V22.5378C26.2425 22.1985 26.054 21.9345 25.7523 21.7837C25.7146 21.746 25.6392 21.746 25.6015 21.7083C25.149 21.5951 24.8473 21.1049 24.9981 20.6524C25.0358 20.5393 25.0735 20.4262 25.1867 20.313C25.2998 20.1622 25.4506 20.0868 25.6392 20.0491C25.8277 20.0114 25.9785 19.8982 26.0917 19.7851C26.2048 19.6343 26.3179 19.4457 26.3179 19.2195V19.1818C26.3179 18.767 26.2048 18.3899 26.0163 18.0505C26.1671 17.7866 26.2802 17.4472 26.2425 17.1078ZM23.8292 16.2028C24.5456 16.052 25.2244 16.5422 25.3752 17.2586V17.3341C25.3752 17.3341 25.3375 17.3341 25.3375 17.3718C24.9981 17.1078 24.5456 16.957 24.0931 16.957H20.0206L23.8292 16.2028ZM24.5456 19.6343C24.244 19.936 24.0554 20.3885 24.0554 20.841C24.0554 21.4066 24.3194 21.8968 24.7342 22.2362C24.9227 22.387 25.1112 22.4624 25.3375 22.5378V22.5755C25.3375 22.7264 25.2998 22.8772 25.2621 22.9903C25.0735 23.5183 24.5833 23.8576 24.0177 23.8576H20.6616H18.0598V23.4806V22.9903C18.0598 22.7641 17.8712 22.5378 17.6073 22.5378C17.3433 22.5378 17.1925 22.7264 17.1925 22.9903V23.6314V23.8576H15.4956C15.4202 23.8576 15.3447 23.8199 15.2693 23.7822C15.1562 23.7068 15.0431 23.556 15.0431 23.4051V22.8395V22.4624C15.9858 22.1985 16.5137 21.2557 16.2497 20.313C16.0989 19.7851 15.7218 19.3703 15.2316 19.1441C15.1562 19.1064 15.1185 19.1064 15.0431 19.0687V18.2391C15.0431 18.0128 15.2316 17.8243 15.4579 17.8243H17.1925H17.2302V17.9751V18.6916C17.2302 18.9178 17.4187 19.1441 17.645 19.1441C17.8712 19.1441 18.0975 18.9555 18.0975 18.6916V18.4653V17.862V17.7866H21.8683H22.7733H24.0931C24.3194 17.7866 24.5079 17.8243 24.6965 17.9374C24.9981 18.0882 25.2244 18.3522 25.3375 18.6539C25.3752 18.8047 25.4129 18.9555 25.4129 19.1064L25.3752 19.1818C25.3752 19.1818 25.3752 19.1818 25.3375 19.1818C24.9981 19.2572 24.7719 19.408 24.5456 19.6343Z" fill="white"/>
<path d="M17.6453 19.9727H17.6076C17.3813 19.9727 17.2305 20.1612 17.2305 20.3875V21.2549C17.2305 21.4812 17.419 21.6697 17.6453 21.6697C17.8716 21.6697 18.0979 21.4812 18.0979 21.2549V21.2172V20.3875C18.0979 20.1612 17.9093 19.9727 17.6453 19.9727Z" fill="white"/>
<path d="M22.2455 18.5781C22.1701 18.5781 22.0947 18.6158 22.0192 18.6536C21.9061 18.729 21.793 18.8798 21.793 19.0307V22.6888C21.793 22.7266 21.793 22.7643 21.793 22.802C21.8307 22.9905 22.0192 23.1037 22.2078 23.1037C22.4341 23.1037 22.6227 22.9151 22.6227 22.6511V22.6134V21.6329V19.0307C22.6604 18.7667 22.4718 18.5781 22.2455 18.5781Z" fill="white"/>
<path d="M20.5477 19.0664C20.4722 19.0664 20.4345 19.0664 20.3968 19.1041C20.246 19.1795 20.1328 19.3304 20.1328 19.519V22.2343C20.1328 22.4606 20.3214 22.6869 20.5854 22.6869C20.8494 22.6869 21.0379 22.4983 21.0379 22.2343V21.5932V19.5567C20.9625 19.255 20.7739 19.0664 20.5477 19.0664Z" fill="white"/>
</g>
<circle cx="20" cy="20" r="20" fill="#FFAE00" fill-opacity="0.2"/>
<circle cx="19.9992" cy="19.9992" r="17.2414" fill="#FFAE00"/>
<g clip-path="url(#clip1_1_55088)">
<path d="M23.0802 10.7598H22.9571C22.2797 10.7598 21.7255 11.1908 21.6024 11.8681C21.4176 12.6071 20.6171 13.0381 19.8782 12.8534C19.3856 12.7302 19.0162 12.3608 18.893 11.8681C18.7083 11.1908 18.1541 10.7598 17.4768 10.7598H17.4152C15.4447 10.7598 13.8438 12.3608 13.8438 14.3312V28.309C13.8438 29.479 14.829 30.4642 15.9989 30.4642H17.5383C18.2157 30.4642 18.7699 30.0332 18.893 29.3558C19.0777 28.6169 19.8782 28.1243 20.6171 28.3706C21.1098 28.4938 21.4792 28.8632 21.6024 29.3558C21.7871 29.9716 22.3413 30.4642 22.9571 30.4642H24.4965C25.6664 30.4642 26.6516 29.479 26.6516 28.309V14.3312C26.6516 12.3608 25.0506 10.7598 23.0802 10.7598ZM24.558 29.0479L23.0186 28.9864C22.5876 27.447 21.0482 26.5849 19.5088 27.0159C18.5236 27.2622 17.7846 28.0627 17.5383 29.0479H15.9989C15.6295 29.0479 15.26 28.7401 15.26 28.309V25.4765H16.6763C17.0457 25.4765 17.4152 25.1686 17.4152 24.7376C17.4152 24.3066 17.1073 23.9987 16.6763 23.9987H15.26V14.3312C15.26 13.1612 16.2452 12.176 17.4152 12.176L17.5383 12.2376C17.9078 13.4691 19.0162 14.3312 20.3093 14.3312C21.6024 14.3312 22.7723 13.4691 23.0802 12.176C24.2502 12.176 25.2354 13.1612 25.2354 14.3312V24.0603H23.8191C23.4497 24.0603 23.0802 24.3681 23.0802 24.7992C23.0802 25.2302 23.3881 25.5381 23.8191 25.5381H25.2354V28.3706C25.2354 28.7401 24.9275 29.0479 24.558 29.0479Z" fill="white"/>
<path d="M20.9872 24.0605H19.5709C19.2015 24.0605 18.832 24.3684 18.832 24.7995C18.832 25.2305 19.1399 25.5384 19.5709 25.5384H20.9872C21.3567 25.5384 21.7261 25.2305 21.7261 24.7995C21.7261 24.3684 21.3567 24.0605 20.9872 24.0605Z" fill="white"/>
<path d="M23.2646 16.5488H17.2917C16.9222 16.5488 16.5527 16.8567 16.5527 17.2877C16.5527 17.6572 16.8606 18.0267 17.2917 18.0267H23.2646C23.634 18.0267 24.0035 17.7188 24.0035 17.2877C23.9419 16.9183 23.634 16.5488 23.2646 16.5488Z" fill="white"/>
<path d="M22.4634 19.3809H18.0299C17.6605 19.3809 17.291 19.6887 17.291 20.1198C17.291 20.4892 17.5989 20.8587 18.0299 20.8587H22.4634C22.8329 20.8587 23.2023 20.5508 23.2023 20.1198C23.2023 19.6887 22.8329 19.3809 22.4634 19.3809Z" fill="white"/>
</g>
<defs>
<clipPath id="clip0_1_55088">
<rect width="12.0667" height="9.46484" fill="white" transform="translate(14.1758 15.3008)"/>
</clipPath>
<clipPath id="clip1_1_55088">
<rect width="12.8079" height="19.7044" fill="white" transform="translate(13.8418 10.7637)"/>
</clipPath>
</defs>
</svg>
