<svg width="40" height="40" viewBox="0 0 40 40" fill="none" xmlns="http://www.w3.org/2000/svg">
<circle cx="20" cy="20" r="20" fill="#24CCB8" fill-opacity="0.2"/>
<circle cx="19.9992" cy="19.9997" r="17.2414" fill="#24CCB8"/>
<g clip-path="url(#clip0_9593_19989)">
<path d="M20.4345 21.3578C20.3113 21.3578 20.1882 21.3578 20.065 21.3578H20.0035C19.5109 21.2962 19.0798 21.1731 18.6488 20.9268C17.8483 20.4342 17.3557 19.6953 17.171 18.7716C17.171 18.6485 17.1094 18.5253 17.1094 18.4022C17.1094 18.279 17.1094 18.1559 17.1094 18.0327V17.9711C17.1094 17.848 17.1094 17.7248 17.171 17.5401C17.3557 16.8012 17.7251 16.1854 18.3409 15.6928C19.0798 15.1386 19.9419 14.9539 20.8655 15.1386C21.6044 15.3233 22.2202 15.6928 22.7128 16.3086C23.2054 16.9859 23.4517 17.7248 23.3286 18.5253C23.267 19.2026 23.0207 19.7568 22.5897 20.2494C22.0971 20.8036 21.4813 21.1115 20.804 21.2962C20.6808 21.3578 20.5577 21.3578 20.4345 21.3578ZM19.7572 18.7716C19.634 18.6485 19.5109 18.5869 19.3877 18.4637C19.203 18.279 19.0182 18.1559 18.8951 17.9711C18.7719 17.848 18.4641 17.9095 18.4025 18.1559C18.3409 18.279 18.4025 18.4022 18.5256 18.4637C18.8335 18.7716 19.203 19.0795 19.5109 19.3874C19.6956 19.5105 19.8187 19.5105 20.0035 19.3874C20.6808 18.7716 21.2966 18.0943 21.9739 17.4785L22.0355 17.4169C22.1586 17.2938 22.0971 17.0475 21.9739 16.9243C21.8508 16.8627 21.666 16.8627 21.5429 16.9859C20.9887 17.5401 20.3729 18.1559 19.7572 18.7716C19.8187 18.7716 19.8187 18.71 19.7572 18.7716Z" fill="white"/>
<path d="M23.0802 10.1514H22.9571C22.2797 10.1514 21.7255 10.5824 21.6024 11.2597C21.4176 11.9987 20.6171 12.4297 19.8782 12.245C19.3856 12.1218 19.0162 11.7524 18.893 11.2597C18.7083 10.5824 18.1541 10.1514 17.4768 10.1514H17.4152C15.4447 10.1514 13.8438 11.7524 13.8438 13.7228V27.7006C13.8438 28.8706 14.829 29.8558 15.9989 29.8558H17.5383C18.2157 29.8558 18.7699 29.4248 18.893 28.7474C19.0777 28.0085 19.8782 27.5159 20.6171 27.7622C21.1098 27.8854 21.4792 28.2548 21.6024 28.7474C21.7871 29.3632 22.3413 29.8558 22.9571 29.8558H24.4965C25.6664 29.8558 26.6516 28.8706 26.6516 27.7006V13.7228C26.6516 11.7524 25.0506 10.1514 23.0802 10.1514ZM24.558 28.4395L23.0186 28.378C22.5876 26.8386 21.0482 25.9765 19.5088 26.4075C18.5236 26.6538 17.7846 27.4543 17.5383 28.4395H15.9989C15.6295 28.4395 15.26 28.1317 15.26 27.7006V24.8681H16.6763C17.0457 24.8681 17.4152 24.5602 17.4152 24.1292C17.4152 23.6982 17.1073 23.3903 16.6763 23.3903H15.26V13.7228C15.26 12.5528 16.2452 11.5676 17.4152 11.5676L17.5383 11.6292C17.9078 12.8607 19.0162 13.7228 20.3093 13.7228C21.6024 13.7228 22.7723 12.8607 23.0802 11.5676C24.2502 11.5676 25.2354 12.5528 25.2354 13.7228V23.4519H23.8191C23.4497 23.4519 23.0802 23.7597 23.0802 24.1908C23.0802 24.6218 23.3881 24.9297 23.8191 24.9297H25.2354V27.7622C25.2354 28.1317 24.9275 28.4395 24.558 28.4395Z" fill="white"/>
<path d="M20.9833 23.4521H19.567C19.1976 23.4521 18.8281 23.76 18.8281 24.1911C18.8281 24.6221 19.136 24.93 19.567 24.93H20.9833C21.3528 24.93 21.7222 24.6221 21.7222 24.1911C21.7222 23.76 21.3528 23.4521 20.9833 23.4521Z" fill="white"/>
</g>
<defs>
<clipPath id="clip0_9593_19989">
<rect width="12.8079" height="19.7044" fill="white" transform="translate(13.8438 10.1475)"/>
</clipPath>
</defs>
</svg>
