<svg width="40" height="40" viewBox="0 0 40 40" fill="none" xmlns="http://www.w3.org/2000/svg">
<circle cx="20" cy="20" r="20" fill="#0D257B" fill-opacity="0.2"/>
<circle cx="19.9992" cy="19.9953" r="17.2414" fill="#0D257B"/>
<g clip-path="url(#clip0_9593_19952)">
<path d="M29.8529 14.9406V14.879C29.4834 12.9701 27.6361 11.677 25.6657 12.0465L12.1189 14.6327C11.0105 14.6943 10.1484 15.6179 10.1484 16.7879V18.3273C10.1484 19.0046 10.5795 19.5588 11.2568 19.682C11.3184 19.682 11.3184 19.682 11.38 19.7435C11.4415 19.7435 11.4415 19.8051 11.5031 19.8051C12.1189 20.113 12.4268 20.7903 12.242 21.4677C12.1189 21.9603 11.7494 22.3297 11.2568 22.4529C10.641 22.6376 10.1484 23.1918 10.1484 23.8076V25.347C10.1484 26.5169 11.1337 27.5022 12.3036 27.5022H26.2814C28.2519 27.5022 29.8529 25.9012 29.8529 23.9307V23.8692V23.8076C29.8529 23.2534 29.545 22.8224 29.0524 22.5761C28.9908 22.5145 28.8677 22.5145 28.8061 22.4529C28.0672 22.2682 27.5745 21.4677 27.8209 20.7288C27.8824 20.544 27.944 20.3593 28.1287 20.1746C28.3135 19.9283 28.5598 19.8051 28.8677 19.7435C29.1755 19.682 29.4218 19.4972 29.6066 19.3125C29.7913 19.0662 29.976 18.7583 29.976 18.3889V18.3273C29.976 17.6499 29.7913 17.0342 29.4834 16.48C29.7297 16.049 29.9144 15.4948 29.8529 14.9406ZM25.912 13.4627C27.0819 13.2164 28.1903 14.0169 28.4366 15.1869V15.31C28.4366 15.31 28.375 15.31 28.375 15.3716C27.8209 14.9406 27.0819 14.6943 26.343 14.6943H19.6928L25.912 13.4627ZM27.0819 19.0662C26.5893 19.5588 26.2814 20.2977 26.2814 21.0366C26.2814 21.9603 26.7125 22.7608 27.3898 23.315C27.6977 23.5613 28.0056 23.6844 28.375 23.8076V23.8692C28.375 24.1155 28.3135 24.3618 28.2519 24.5465C27.944 25.4086 27.1435 25.9628 26.2199 25.9628H20.7396H16.4908V25.347V24.5465C16.4908 24.177 16.1829 23.8076 15.7519 23.8076C15.3209 23.8076 15.0745 24.1155 15.0745 24.5465V25.5933V25.9628H12.3036C12.1805 25.9628 12.0573 25.9012 11.9342 25.8396C11.7494 25.7164 11.5647 25.4701 11.5647 25.2238V24.3002V23.6844C13.1041 23.2534 13.9662 21.714 13.5351 20.1746C13.2888 19.3125 12.6731 18.6352 11.8726 18.2657C11.7494 18.2041 11.6878 18.2041 11.5647 18.1426V16.7879C11.5647 16.4184 11.8726 16.1105 12.242 16.1105H15.0745H15.1361V16.3568V17.5268C15.1361 17.8962 15.444 18.2657 15.8135 18.2657C16.1829 18.2657 16.5524 17.9578 16.5524 17.5268V17.1573V16.1721V16.049H22.71H24.1878H26.343C26.7125 16.049 27.0204 16.1105 27.3282 16.2953C27.8209 16.5416 28.1903 16.9726 28.375 17.4652C28.4366 17.7115 28.4982 17.9578 28.4982 18.2041L28.4366 18.3273C28.4366 18.3273 28.4366 18.3273 28.375 18.3273C27.8209 18.4504 27.4514 18.6967 27.0819 19.0662Z" fill="white"/>
<path d="M15.818 19.6201H15.7565C15.387 19.6201 15.1406 19.928 15.1406 20.2975V21.714C15.1406 22.0835 15.4485 22.3914 15.818 22.3914C16.1875 22.3914 16.557 22.0835 16.557 21.714V21.6524V20.2975C16.557 19.928 16.2491 19.6201 15.818 19.6201Z" fill="white"/>
<path d="M23.3249 17.3389C23.2018 17.3389 23.0786 17.4005 22.9554 17.462C22.7707 17.5852 22.5859 17.8315 22.5859 18.0779V24.0515C22.5859 24.1131 22.5859 24.1747 22.5859 24.2362C22.6475 24.5442 22.9554 24.7289 23.2634 24.7289C23.6329 24.7289 23.9408 24.421 23.9408 23.9899V23.9283V22.3271V18.0779C24.0024 17.6468 23.6944 17.3389 23.3249 17.3389Z" fill="white"/>
<path d="M20.5524 18.1396C20.4293 18.1396 20.3677 18.1396 20.3061 18.2012C20.0598 18.3244 19.875 18.5707 19.875 18.8787V23.3127C19.875 23.6822 20.1829 24.0517 20.614 24.0517C21.0451 24.0517 21.353 23.7438 21.353 23.3127V22.2658V18.9402C21.2298 18.4476 20.9219 18.1396 20.5524 18.1396Z" fill="white"/>
</g>
<defs>
<clipPath id="clip0_9593_19952">
<rect width="19.7044" height="15.4557" fill="white" transform="translate(10.1484 11.9873)"/>
</clipPath>
</defs>
</svg>
