<svg width="130" height="130" viewBox="0 0 130 130" fill="none" xmlns="http://www.w3.org/2000/svg">
<rect width="130" height="130" rx="65" fill="#0D257B" fill-opacity="0.03"/>
<g clip-path="url(#clip0_719_5765)">
<path d="M66.6992 86.6C66.6992 87.8 65.7992 88.7 64.5992 88.7H52.2992C51.0992 88.7 50.1992 87.8 50.1992 86.6C50.1992 85.4 51.0992 84.5 52.2992 84.5H64.5992C65.7992 84.5 66.6992 85.5 66.6992 86.6Z" fill="#0D257B"/>
<path d="M56.4004 55.8C56.4004 54.6 57.3004 53.7 58.5004 53.7H62.6004V49.6C62.6004 48.4 63.5004 47.5 64.7004 47.5C65.9004 47.5 66.8004 48.4 66.8004 49.6V53.7H70.9004C72.1004 53.7 73.0004 54.6 73.0004 55.8C73.0004 57 72.1004 57.9 70.9004 57.9H66.8004V62C66.8004 63.2 65.9004 64.1 64.7004 64.1C63.6004 64.1 62.6004 63.2 62.6004 62V57.9H58.5004C57.3004 57.9 56.4004 56.9 56.4004 55.8Z" fill="#0D257B"/>
<path d="M78.9992 74.2992C78.9992 75.4992 78.0992 76.3992 76.8992 76.3992H52.2992C51.0992 76.3992 50.1992 75.4992 50.1992 74.2992C50.1992 73.0992 51.0992 72.1992 52.2992 72.1992H76.7992C77.9992 72.1992 78.9992 73.0992 78.9992 74.2992Z" fill="#0D257B"/>
<path d="M76.9 35.2H75.7L75.5 34.5C74.2 31.2 71.1 29 67.7 29H61.6C58.1 29 55.1 31.2 53.9 34.5L53.7 35.2H52.5C44.4 35.2 38 41.6 38 49.6V86.6C38 94.5 44.4 101 52.3 101H76.8C84.7 101 91.1 94.5 91.1 86.6V49.6C91.2 41.6 84.8 35.2 76.9 35.2ZM87.1 50.6L87 86.6C87 92.3 82.4 96.9 76.8 96.9H52.3C46.6 96.9 42 92.3 42 86.6V49.6C42 43.9 46.6 39.3 52.2 39.3H55.3C56.5 39.3 57.4 38.3 57.4 37.2C57.4 34.9 59.2 33.1 61.5 33.1H67.6C69.9 33.1 71.7 34.9 71.7 37.2C71.7 38.4 72.6 39.3 73.8 39.3H76.9C82.5 39.3 87.1 43.9 87.1 49.6V50.6Z" fill="#0D257B"/>
<path d="M66.6992 86.6C66.6992 87.8 65.7992 88.7 64.5992 88.7H52.2992C51.0992 88.7 50.1992 87.8 50.1992 86.6C50.1992 85.4 51.0992 84.5 52.2992 84.5H64.5992C65.7992 84.5 66.6992 85.5 66.6992 86.6Z" fill="#0D257B"/>
<path d="M56.3984 55.8C56.3984 54.6 57.2984 53.7 58.4984 53.7H62.5984V49.6C62.5984 48.4 63.4984 47.5 64.6984 47.5C65.8984 47.5 66.7984 48.4 66.7984 49.6V53.7H70.8984C72.0984 53.7 72.9984 54.6 72.9984 55.8C72.9984 57 72.0984 57.9 70.8984 57.9H66.7984V62C66.7984 63.2 65.8984 64.1 64.6984 64.1C63.5984 64.1 62.5984 63.2 62.5984 62V57.9H58.4984C57.2984 57.9 56.3984 56.9 56.3984 55.8Z" fill="#0D257B"/>
<path d="M78.9992 74.2992C78.9992 75.4992 78.0992 76.3992 76.8992 76.3992H52.2992C51.0992 76.3992 50.1992 75.4992 50.1992 74.2992C50.1992 73.0992 51.0992 72.1992 52.2992 72.1992H76.7992C77.9992 72.1992 78.9992 73.0992 78.9992 74.2992Z" fill="#0D257B"/>
<path d="M78.9992 74.2992C78.9992 75.4992 78.0992 76.3992 76.8992 76.3992H52.2992C51.0992 76.3992 50.1992 75.4992 50.1992 74.2992C50.1992 73.0992 51.0992 72.1992 52.2992 72.1992H76.7992C77.9992 72.1992 78.9992 73.0992 78.9992 74.2992Z" fill="#D5A54D"/>
<path d="M66.6992 86.6C66.6992 87.8 65.7992 88.7 64.5992 88.7H52.2992C51.0992 88.7 50.1992 87.8 50.1992 86.6C50.1992 85.4 51.0992 84.5 52.2992 84.5H64.5992C65.7992 84.5 66.6992 85.5 66.6992 86.6Z" fill="#D5A54D"/>
<path d="M72.9008 55.8C72.9008 57 72.0008 57.9 70.8008 57.9H66.7008V62C66.7008 63.2 65.8008 64.1 64.6008 64.1C63.5008 64.1 62.5008 63.2 62.5008 62V57.9H58.4008C57.2008 57.9 56.3008 56.9 56.3008 55.8C56.3008 54.6 57.2008 53.7 58.4008 53.7H62.5008V49.6C62.5008 48.4 63.4008 47.5 64.6008 47.5C65.8008 47.5 66.7008 48.4 66.7008 49.6V53.7H70.8008C72.0008 53.7 72.9008 54.6 72.9008 55.8Z" fill="#D5A54D"/>
</g>
<defs>
<clipPath id="clip0_719_5765">
<rect width="53.2" height="72" fill="white" transform="translate(38 29)"/>
</clipPath>
</defs>
</svg>
