<svg width="44" height="44" viewBox="0 0 44 44" fill="none" xmlns="http://www.w3.org/2000/svg">
<rect width="43.998" height="44" rx="21.999" fill="#0D257B"/>
<path d="M33.56 31.4452L28.9149 26.7981C32.3906 22.1533 31.4429 15.5703 26.7981 12.0946C22.1533 8.6189 15.5703 9.56661 12.0946 14.2114C8.6189 18.8562 9.56661 25.4392 14.2114 28.9149C17.9425 31.7069 23.067 31.7069 26.7981 28.9149L31.4452 33.562C32.0292 34.146 32.976 34.146 33.56 33.562C34.144 32.978 34.144 32.0312 33.56 31.4472L33.56 31.4452ZM20.5435 28.0179C16.4154 28.0179 13.069 24.6715 13.069 20.5435C13.069 16.4154 16.4154 13.069 20.5435 13.069C24.6715 13.069 28.0179 16.4154 28.0179 20.5435C28.0136 24.6697 24.6697 28.0136 20.5435 28.0179Z" fill="white"/>
</svg>
