<svg width="130" height="130" viewBox="0 0 130 130" fill="none" xmlns="http://www.w3.org/2000/svg">
<rect width="130" height="130" rx="65" fill="#0D257B" fill-opacity="0.03"/>
<g clip-path="url(#clip0_719_5748)">
<path d="M82.3008 81.6992C83.3008 82.6992 83.3008 84.2992 82.3008 85.3992C81.8008 85.8992 81.1008 86.1992 80.5008 86.1992C79.8008 86.1992 79.2008 85.8992 78.7008 85.3992L75.6008 82.2992C75.1008 81.7992 74.8008 81.1992 74.8008 80.4992V74.2992C74.8008 72.8992 75.9008 71.6992 77.4008 71.6992C78.8008 71.6992 80.0008 72.8992 80.0008 74.2992V79.3992L80.2008 79.4992L82.3008 81.6992Z" fill="#D5A54D" stroke="#0D257B"/>
<path d="M77.4008 59.5C65.8008 59.5 56.3008 69 56.3008 80.6C56.3008 92.2 65.8008 101.6 77.4008 101.6C89.0008 101.6 98.5008 92 98.5008 80.4C98.5008 68.9 89.0008 59.5 77.4008 59.5ZM77.4008 96.3C68.6008 96.3 61.5008 89.2 61.5008 80.5C61.5008 71.7 68.7008 64.6 77.4008 64.6C86.2008 64.6 93.3008 71.7 93.3008 80.4C93.3008 89.2 86.2008 96.3 77.4008 96.3Z" fill="#D5A54D" stroke="#D5A54D"/>
<path d="M82.3008 85.3016C81.8008 85.8016 81.1008 86.1016 80.5008 86.1016C79.8008 86.1016 79.2008 85.8016 78.7008 85.3016L75.6008 82.2016C75.1008 81.7016 74.8008 81.1016 74.8008 80.4016V74.2016C74.8008 72.8016 75.9008 71.6016 77.4008 71.6016C78.8008 71.6016 80.0008 72.8016 80.0008 74.2016V79.3016L80.2008 79.4016L82.4008 81.6016C83.3008 82.7016 83.3008 84.3016 82.3008 85.3016Z" fill="#D5A54D" stroke="#0D257B"/>
<path d="M82.3008 85.3016C81.8008 85.8016 81.1008 86.1016 80.5008 86.1016C79.8008 86.1016 79.2008 85.8016 78.7008 85.3016L75.6008 82.2016C75.1008 81.7016 74.8008 81.1016 74.8008 80.4016V74.2016C74.8008 72.8016 75.9008 71.6016 77.4008 71.6016C78.8008 71.6016 80.0008 72.8016 80.0008 74.2016V79.3016L80.2008 79.4016L82.4008 81.6016C83.3008 82.7016 83.3008 84.3016 82.3008 85.3016Z" fill="#D5A54D" stroke="#D5A54D"/>
<path d="M30.7 52.7V53.2H31.2H59C60.4 53.2 61.6 54.4 61.6 55.8C61.6 57.2 60.4 58.4 59 58.4H31.2H30.7V58.9V86.6C30.7 92 35.1 96.4 40.5 96.4H52.8C54.2 96.4 55.4 97.6 55.4 99C55.4 100.4 54.2 101.6 52.8 101.6H40.4C32.2 101.6 25.5 94.9 25.5 86.7V49.7C25.5 41.5 32.2 34.8 40.4 34.8H43.5H44V34.2V31.1C44 29.7 45.2 28.5 46.6 28.5C48 28.5 49.2 29.7 49.2 31.1V34.2V34.7H49.7H74.4H74.9V34.2V31.1C74.9 29.7 76 28.5 77.5 28.5C78.9 28.5 80.1 29.7 80.1 31.1V34.2V34.7H80.6H83.7C91.9 34.7 98.6 41.4 98.6 49.6V55.8C98.6 57.2 97.5 58.4 96 58.4C94.6 58.4 93.4 57.2 93.4 55.8V49.6C93.4 44.2 89 39.8 83.6 39.8H40.4C35 39.8 30.6 44.2 30.6 49.6V52.7H30.7Z" fill="#0D257B" stroke="#0D257B"/>
</g>
<defs>
<clipPath id="clip0_719_5748">
<rect width="74" height="74" fill="white" transform="translate(25 28)"/>
</clipPath>
</defs>
</svg>
