<svg width="90" height="90" viewBox="0 0 90 90" fill="none" xmlns="http://www.w3.org/2000/svg">
<rect width="90" height="90" rx="45" fill="#0D257B" fill-opacity="0.03"/>
<g clip-path="url(#clip0_1_55601)">
<path d="M43.5467 68.0469C41.6081 68.0469 40.0311 66.4697 40.0311 64.5312V61.2229L39.7717 61.1305C37.8164 60.4332 36.0122 59.386 34.4093 58.0182L34.1994 57.8391L31.3197 59.5018C30.7864 59.81 30.1815 59.9727 29.5655 59.9735C28.3116 59.9735 27.1436 59.2997 26.5172 58.2149L24.5641 54.832C23.5949 53.1534 24.1722 50.999 25.851 50.0296L28.6792 48.3968L28.629 48.1254C28.4159 46.9742 28.3123 45.9521 28.3123 45C28.3123 44.0479 28.4159 43.0255 28.6289 41.8746L28.6791 41.6032L25.8509 39.9703C24.1722 39.0011 23.5948 36.8468 24.564 35.1679L26.5171 31.785C27.1435 30.7004 28.3116 30.0266 29.5656 30.0266C30.1786 30.0266 30.7852 30.1896 31.3196 30.4981L34.1994 32.1607L34.4093 31.9817C36.0132 30.6136 37.8173 29.5665 39.7716 28.8696L40.0311 28.7771V25.4688C40.0311 23.5303 41.6081 21.9531 43.5467 21.9531H47.4529C49.3915 21.9531 50.9686 23.5303 50.9686 25.4688V28.7771L51.2279 28.8695C53.1822 29.5664 54.9863 30.6135 56.5902 31.9816L56.8001 32.1606L59.6799 30.498C60.2131 30.1899 60.818 30.0272 61.4339 30.0265C62.6879 30.0265 63.8561 30.7003 64.4824 31.785L66.4355 35.1679C67.4047 36.8468 66.8274 39.0011 65.1486 39.9703L62.3204 41.6032L62.3706 41.8746C62.5837 43.0255 62.6873 44.0479 62.6873 45C62.6873 45.9521 62.5837 46.9742 62.3707 48.1251L62.3205 48.3965L65.1487 50.0294C66.8274 50.9988 67.4048 53.1532 66.4356 54.8318L64.4825 58.2147C63.8562 59.2994 62.6882 59.9733 61.4345 59.9733H61.4342C60.8182 59.9726 60.2132 59.8099 59.68 59.5016L56.8003 57.8389L56.5904 58.018C54.9875 59.3859 53.1833 60.433 51.228 61.1303L50.9686 61.2229V64.5312C50.9686 66.4697 49.3915 68.0469 47.4529 68.0469H43.5467Z" stroke="#0D257B" stroke-width="4" stroke-miterlimit="10" stroke-linecap="round" stroke-linejoin="round"/>
<path d="M45.5 52.8125C49.8147 52.8125 53.3125 49.3147 53.3125 45C53.3125 40.6853 49.8147 37.1875 45.5 37.1875C41.1853 37.1875 37.6875 40.6853 37.6875 45C37.6875 49.3147 41.1853 52.8125 45.5 52.8125Z" stroke="#D5A54D" stroke-width="4" stroke-miterlimit="10" stroke-linecap="round" stroke-linejoin="round"/>
</g>
<defs>
<clipPath id="clip0_1_55601">
<rect width="50" height="50" fill="white" transform="translate(20.5 20)"/>
</clipPath>
</defs>
</svg>
