<svg width="40" height="40" viewBox="0 0 40 40" fill="none" xmlns="http://www.w3.org/2000/svg">
<circle cx="20" cy="20" r="20" fill="#FFAE00" fill-opacity="0.2"/>
<circle cx="19.9992" cy="19.9997" r="17.2414" fill="#FFAE00"/>
<g clip-path="url(#clip0_9593_19976)">
<path d="M23.0802 10.7607H22.9571C22.2797 10.7607 21.7255 11.1918 21.6024 11.8691C21.4176 12.608 20.6171 13.0391 19.8782 12.8543C19.3856 12.7312 19.0162 12.3617 18.893 11.8691C18.7083 11.1918 18.1541 10.7607 17.4768 10.7607H17.4152C15.4447 10.7607 13.8438 12.3617 13.8438 14.3322V28.31C13.8438 29.48 14.829 30.4652 15.9989 30.4652H17.5383C18.2157 30.4652 18.7699 30.0341 18.893 29.3568C19.0777 28.6179 19.8782 28.1253 20.6171 28.3716C21.1098 28.4947 21.4792 28.8642 21.6024 29.3568C21.7871 29.9726 22.3413 30.4652 22.9571 30.4652H24.4965C25.6664 30.4652 26.6516 29.48 26.6516 28.31V14.3322C26.6516 12.3617 25.0506 10.7607 23.0802 10.7607ZM24.558 29.0489L23.0186 28.9873C22.5876 27.4479 21.0482 26.5859 19.5088 27.0169C18.5236 27.2632 17.7846 28.0637 17.5383 29.0489H15.9989C15.6295 29.0489 15.26 28.741 15.26 28.31V25.4775H16.6763C17.0457 25.4775 17.4152 25.1696 17.4152 24.7386C17.4152 24.3075 17.1073 23.9997 16.6763 23.9997H15.26V14.3322C15.26 13.1622 16.2452 12.177 17.4152 12.177L17.5383 12.2386C17.9078 13.4701 19.0162 14.3322 20.3093 14.3322C21.6024 14.3322 22.7723 13.4701 23.0802 12.177C24.2502 12.177 25.2354 13.1622 25.2354 14.3322V24.0612H23.8191C23.4497 24.0612 23.0802 24.3691 23.0802 24.8002C23.0802 25.2312 23.3881 25.5391 23.8191 25.5391H25.2354V28.3716C25.2354 28.741 24.9275 29.0489 24.558 29.0489Z" fill="white"/>
<path d="M20.9833 24.0615H19.567C19.1976 24.0615 18.8281 24.3694 18.8281 24.8004C18.8281 25.2315 19.136 25.5394 19.567 25.5394H20.9833C21.3528 25.5394 21.7222 25.2315 21.7222 24.8004C21.7222 24.3694 21.3528 24.0615 20.9833 24.0615Z" fill="white"/>
<path d="M23.2665 16.5498H17.2936C16.9241 16.5498 16.5547 16.8577 16.5547 17.2887C16.5547 17.6582 16.8626 18.0276 17.2936 18.0276H23.2665C23.636 18.0276 24.0054 17.7198 24.0054 17.2887C23.9439 16.9193 23.636 16.5498 23.2665 16.5498Z" fill="white"/>
<path d="M22.4615 19.3818H18.028C17.6585 19.3818 17.2891 19.6897 17.2891 20.1208C17.2891 20.4902 17.5969 20.8597 18.028 20.8597H22.4615C22.8309 20.8597 23.2004 20.5518 23.2004 20.1208C23.2004 19.6897 22.8309 19.3818 22.4615 19.3818Z" fill="white"/>
</g>
<defs>
<clipPath id="clip0_9593_19976">
<rect width="12.8079" height="19.7044" fill="white" transform="translate(13.8438 10.7646)"/>
</clipPath>
</defs>
</svg>
