<svg width="130" height="130" viewBox="0 0 130 130" fill="none" xmlns="http://www.w3.org/2000/svg">
<rect width="130" height="130" rx="65" fill="#0D257B" fill-opacity="0.03"/>
<g clip-path="url(#clip0_719_5783)">
<path d="M65 29C45.2 29 29 45.2 29 65C29 84.8 45.2 101 65 101C84.8 101 101 84.8 101 65C101 45.2 84.8 29 65 29ZM65 96.8C47.5 96.8 33.2 82.5 33.2 65C33.2 47.5 47.5 33.2 65 33.2C82.5 33.2 96.8 47.5 96.8 65C96.8 82.5 82.5 96.8 65 96.8Z" fill="#0D257B"/>
<path d="M76.2995 71.2008C76.2995 75.7008 72.5995 79.5008 67.9995 79.5008H66.9995V83.6008C66.9995 84.7008 66.0995 85.7008 64.8995 85.7008C63.7995 85.7008 62.7995 84.7008 62.7995 83.6008V79.5008H60.9995C58.0995 79.5008 55.2995 77.9008 53.7995 75.4008C53.1995 74.4008 53.5995 73.1008 54.5995 72.6008C54.8995 72.4008 55.2995 72.3008 55.6995 72.3008C55.8995 72.3008 56.0995 72.3008 56.2995 72.4008C56.7995 72.6008 57.1995 72.9008 57.4995 73.4008C58.1995 74.7008 59.5995 75.4008 60.9995 75.4008H67.9995C70.1995 75.4008 72.0995 73.6008 72.0995 71.3008C72.0995 69.7008 70.9995 68.3008 69.3995 68.0008L59.9995 66.3008C56.3995 65.7008 53.6995 62.6008 53.6995 58.8008C53.6995 54.3008 57.3995 50.5008 61.9995 50.5008H62.9995V46.4008C62.9995 45.3008 63.8995 44.3008 65.0995 44.3008C66.2995 44.3008 67.1995 45.2008 67.1995 46.4008V50.5008H68.9995C71.8995 50.5008 74.6995 52.1008 76.1995 54.6008C76.7995 55.6008 76.3995 56.9008 75.3995 57.4008C74.8995 57.7008 74.2995 57.8008 73.7995 57.6008C73.2995 57.5008 72.8995 57.1008 72.5995 56.6008C71.8995 55.3008 70.4995 54.6008 69.0995 54.6008H62.0995C59.8995 54.6008 57.9995 56.4008 57.9995 58.7008C57.9995 60.3008 59.1995 61.8008 60.7995 62.0008L70.0995 63.6008C73.6995 64.3008 76.2995 67.5008 76.2995 71.2008Z" fill="#D5A54D"/>
</g>
<defs>
<clipPath id="clip0_719_5783">
<rect width="72" height="72" fill="white" transform="translate(29 29)"/>
</clipPath>
</defs>
</svg>
