<svg width="90" height="90" viewBox="0 0 90 90" fill="none" xmlns="http://www.w3.org/2000/svg">
<rect width="90" height="90" rx="45" fill="#0D257B" fill-opacity="0.03"/>
<path d="M48.7373 57.7119H40.2627C37.9225 57.7119 36.0254 55.8147 36.0254 53.4746C36.0254 48.7942 39.8196 45 44.5 45C49.1804 45 52.9745 48.7942 52.9745 53.4746C52.9745 55.8147 51.0774 57.7119 48.7373 57.7119Z" stroke="#D5A54D" stroke-width="4" stroke-miterlimit="10" stroke-linecap="round" stroke-linejoin="round"/>
<path d="M44.499 40.7636C46.8392 40.7636 48.7363 38.8665 48.7363 36.5264C48.7363 34.1862 46.8392 32.2891 44.499 32.2891C42.1588 32.2891 40.2617 34.1862 40.2617 36.5264C40.2617 38.8665 42.1588 40.7636 44.499 40.7636Z" stroke="#D5A54D" stroke-width="4" stroke-miterlimit="10" stroke-linecap="round" stroke-linejoin="round"/>
<path d="M61.0254 65.7627H69.5M65.2627 61.5254V70M53.3956 68.4003C50.6268 69.4345 47.6294 70 44.5 70C30.4589 70 19.5 59.0411 19.5 45C19.5 30.9589 30.4589 20 44.5 20C58.5411 20 69.5 30.9589 69.5 45C69.5 48.1294 68.9345 51.1268 67.9003 53.8956" stroke="black" stroke-width="4" stroke-miterlimit="10" stroke-linecap="round" stroke-linejoin="round"/>
</svg>
