<svg width="130" height="130" viewBox="0 0 130 130" fill="none" xmlns="http://www.w3.org/2000/svg">
<rect width="130" height="130" rx="65" fill="#0D257B" fill-opacity="0.03"/>
<g clip-path="url(#clip0_719_5743)">
<path d="M43.4625 93.238L43.4617 93.2412C43.0445 94.8229 42.8066 96.4814 42.7471 98.1191L42.747 98.1217C42.7193 99.0123 42.5586 99.7189 42.2308 100.267C41.9207 100.786 41.4365 101.205 40.6733 101.498H40.6709H40.6684H40.6658H40.6633H40.6608H40.6583H40.6558H40.6532H40.6507H40.6482H40.6457H40.6432H40.6406H40.6381H40.6356H40.6331H40.6306H40.628H40.6255H40.623H40.6205H40.618H40.6154H40.6129H40.6104H40.6079H40.6053H40.6028H40.6003H40.5978H40.5952H40.5927H40.5902H40.5876H40.5851H40.5826H40.5801H40.5775H40.575H40.5725H40.5699H40.5674H40.5649H40.5624H40.5598H40.5573H40.5548H40.5522H40.5497H40.5472H40.5446H40.5421H40.5396H40.537H40.5345H40.532H40.5294H40.5269H40.5244H40.5218H40.5193H40.5168H40.5142H40.5117H40.5091H40.5066H40.5041H40.5015H40.499H40.4965H40.4939H40.4914H40.4888H40.4863H40.4838H40.4812H40.4787H40.4761H40.4736H40.4711H40.4685H40.466H40.4634H40.4609H40.4584H40.4558H40.4533H40.4507H40.4482H40.4456H40.4431H40.4406H40.438H40.4355H40.4329H40.4304H40.4278H40.4253H40.4228H40.4202H40.4177H40.4151H40.4126H40.41H40.4075H40.4049H40.4024H40.3998H40.3973H40.3947H40.3922H40.3897H40.3871H40.3846H40.382H40.3795H40.3769H40.3744H40.3718H40.3693H40.3667H40.3642H40.3616H40.3591H40.3565H40.354H40.3514H40.3489H40.3463H40.3438H40.3412H40.3387H40.3361H40.3336H40.331H40.3285H40.3259H40.3234H40.3208H40.3183H40.3157H40.3132H40.3106H40.3081H40.3055H40.3029H40.3004H40.2978H40.2953H40.2927H40.2902H40.2876H40.2851H40.2825H40.28H40.2774H40.2749H40.2723H40.2697H40.2672H40.2646H40.2621H40.2595H40.257H40.2544H40.2519H40.2493H40.2468H40.2442H40.2416H40.2391H40.2365H40.234H40.2314H40.2289H40.2263H40.2238H40.2212H40.2186H40.2161H40.2135H40.211H40.2084H40.2059H40.2033H40.2008H40.1982H40.1956H40.1931H40.1905H40.188H40.1854H40.1829H40.1803H40.1777H40.1752H40.1726H40.1701H40.1675H40.165H40.1624H40.1598H40.1573H40.1547H40.1522H40.1496H40.1471H40.1445H40.1419H40.1394H40.1368H40.1343H40.1317H40.1292H40.1266H40.124H40.1215H40.1189H40.1164H40.1138H40.1112H40.1087H40.1061H40.1036H40.101H40.0985H40.0959H40.0933H40.0908H40.0882H40.0857H40.0831H40.0806H40.078H40.0754H40.0729H40.0703H40.0678H40.0652H40.0627H40.0601H40.0575H40.055H40.0524H40.0499H40.0473H40.0448H40.0422H40.0396H40.0371H40.0345H40.032H40.0294H40.0269H40.0243H40.0217H40.0192H40.0166H40.0141H40.0115H40.009H40.0064H40.0039H40.0013H39.9987H39.9962H39.9936H39.9911H39.9885H39.986H39.9834H39.9809H39.9783H39.9757H39.9732H39.9706H39.9681H39.9655H39.963H39.9604H39.9579H39.9553H39.9528H39.9502H39.9476H39.9451H39.9425H39.94H39.9374H39.9349H39.9323H39.9298H39.9272H39.9247H39.9221H39.9196H39.917H39.9145H39.9119H39.9094H39.9068H39.9042H39.9017H39.8991H39.8966H39.894H39.8915H39.8889H39.8864H39.8838H39.8813H39.8787H39.8762H39.8736H39.8711H39.8685H39.866H39.8634H39.8609H39.8583H39.8558H39.8532H39.8507H39.8481H39.8456H39.8431H39.8405H39.838H39.8354H39.8329H39.8303H39.8278H39.8252H39.8227H39.8201H39.8176H39.815H39.8125H39.8099H39.8074H39.8049H39.8023H39.7998H39.7972H39.7947H39.7921H39.7896H39.7871H39.7845H39.782H39.7794H39.7769H39.7743H39.7718H39.7693H39.7667H39.7642H39.7616H39.7591H39.7565H39.754H39.7515H39.7489H39.7464H39.7438H39.7413H39.7388H39.7362H39.7337H39.7312H39.7286H39.7261H39.7235H39.721H39.7185H39.7159H39.7134H39.7109H39.7083H39.7058H39.7033H39.7007H39.6982H39.6956H39.6931H39.6906H39.688H39.6855H39.683H39.6804H39.6779H39.6754H39.6729H39.6703H39.6678H39.6653H39.6627H39.6602H39.6577H39.6551H39.6526H39.6501H39.6476H39.645H39.6425H39.64H39.6374H39.6349H39.6324H39.6299H39.6273H39.6248H39.6223H39.6198H39.6172H39.6147H39.6122H39.6097H39.6071H39.6046H39.6021H39.5996H39.597H39.5945H39.592H39.5895H39.587H39.5844H39.5819H39.5794H39.5769H39.5744H39.5718H39.5693H39.5691C38.6298 101.08 38.1486 100.733 37.8763 100.303C37.5935 99.8553 37.481 99.2312 37.5002 98.1074C37.6905 87.5014 44.7012 77.5067 54.6981 73.6409L54.6985 73.6408C68.6907 68.215 84.0052 74.5113 90.0265 88.1647C91.4154 91.3272 92.1395 94.6618 92.2539 98.1344L92.2539 98.1351C92.2921 99.2455 92.183 99.8627 91.9018 100.307C91.63 100.737 91.146 101.088 90.2115 101.513C89.8269 101.5 89.4557 101.499 89.0808 101.498C88.3383 101.213 87.8535 100.813 87.541 100.318C87.2126 99.7969 87.0446 99.1233 87.0264 98.2618C86.8273 87.9036 79.1242 78.9974 68.8629 77.1998C57.3979 75.1668 46.4989 82.02 43.4625 93.238Z" fill="#0D257B" stroke="#0D257B"/>
<path d="M46.793 46.4382V46.4373C46.793 36.5436 54.9449 28.4812 64.9153 28.5C74.9228 28.5188 83.0002 36.5981 82.9814 46.5522C82.9625 56.4302 74.8459 64.5092 64.9366 64.4904H64.9357C54.8692 64.4904 46.7741 56.4294 46.793 46.4382ZM64.9191 59.3124C72.0997 59.2723 77.7744 53.5662 77.7542 46.3973C77.734 39.3192 71.9551 33.6579 64.7985 33.678C57.7156 33.698 51.9806 39.4417 52.0008 46.4773C52.0209 53.6456 57.7744 59.3526 64.9191 59.3124Z" fill="#D5A54D" stroke="#D5A54D"/>
</g>
<defs>
<clipPath id="clip0_719_5743">
<rect width="55.7534" height="74" fill="white" transform="translate(37 28)"/>
</clipPath>
</defs>
</svg>
