<svg width="130" height="130" viewBox="0 0 130 130" fill="none" xmlns="http://www.w3.org/2000/svg">
<rect width="130" height="130" rx="65" fill="#0D257B" fill-opacity="0.03"/>
<g clip-path="url(#clip0_719_5756)">
<path d="M100.102 57.8401C94.3185 45.0223 81.9529 36.4103 67.9918 35.3088L67.0943 35.2086V31.1029C67.0943 30.0014 66.097 29 65.0001 29C63.8034 29 62.9059 30.0014 62.9059 31.1029V35.2086L61.9087 35.3088C47.9475 36.4103 35.5819 45.0223 29.798 57.9402C28.5016 61.2448 28.9005 65.2503 30.895 68.3547C32.9891 71.459 36.4794 73.3616 40.2689 73.3616H62.8062V92.8887C62.8062 95.1919 61.0112 96.9944 58.7176 96.9944C56.424 96.9944 54.6289 95.1919 54.6289 92.8887C54.6289 91.7872 53.6317 90.7858 52.5348 90.7858C51.4378 90.7858 50.4406 91.7872 50.4406 92.8887C50.4406 97.395 54.1303 101.1 58.6179 101.1C63.1054 101.1 66.7951 97.395 66.7951 92.8887V73.2615H89.3324C93.1219 73.2615 96.6122 71.459 98.7063 68.2545C100.9 65.2503 101.499 61.4451 100.102 57.8401ZM95.5152 65.9513C94.2188 67.854 92.0249 69.0556 89.6316 69.0556H40.3686C37.8755 69.0556 35.6817 67.854 34.3853 65.8512C33.0889 63.9485 32.7897 61.4451 33.6872 59.3421C38.1747 47.726 51.3381 39.3143 64.9004 39.3143C78.3629 39.3143 90.6288 47.1252 96.1135 59.242C97.1108 61.5452 96.8116 64.0487 95.5152 65.9513Z" fill="#0D257B"/>
<path d="M62.8051 73.2617V92.7888C62.8051 95.092 60.9103 96.8945 58.7164 96.8945C56.4228 96.8945 54.6278 95.092 54.6278 92.7888C54.6278 91.6873 53.6306 90.6859 52.5336 90.6859C51.4367 90.6859 50.4395 91.6873 50.4395 92.7888C50.4395 97.2951 54.1292 101 58.6167 101C63.1042 101 66.794 97.2951 66.794 92.7888V73.2617H62.8051Z" fill="#D5A54D"/>
<path d="M65.0004 29C63.8038 29 62.9062 30.0014 62.9062 31.1029V35.2086C63.704 35.2086 64.4021 35.1085 65.1999 35.1085C65.7982 35.1085 66.4963 35.1085 67.0946 35.1085V31.1029C67.0946 30.0014 66.0974 29 65.0004 29Z" fill="#D5A54D"/>
</g>
<defs>
<clipPath id="clip0_719_5756">
<rect width="71.9" height="72" fill="white" transform="translate(29 29)"/>
</clipPath>
</defs>
</svg>
