<svg width="206" height="208" viewBox="0 0 206 208" fill="none" xmlns="http://www.w3.org/2000/svg">
<g opacity="0.1">
<path d="M216.23 16.3656L193.843 -13.07L208.092 -47.0817L244.766 -51.7472L267.153 -22.3116L252.904 11.7001L216.23 16.3656Z" stroke="#0D257B" stroke-width="2"/>
<path d="M148.101 -12.2125L125.714 -41.6481L139.964 -75.6598L176.637 -80.3253L199.024 -50.8898L184.775 -16.8781L148.101 -12.2125Z" stroke="#0D257B" stroke-width="2"/>
<path d="M161.066 58.6508L138.679 29.2152L152.928 -4.79653L189.602 -9.46204L211.989 19.9735L197.74 53.9852L161.066 58.6508Z" stroke="#0D257B" stroke-width="2"/>
<path d="M225.566 92.3187L203.179 62.8831L217.428 28.8714L254.102 24.2059L276.489 53.6415L262.24 87.6532L225.566 92.3187Z" stroke="#0D257B" stroke-width="2"/>
<path d="M92.9354 30.0668L70.5484 0.631177L84.7975 -33.3805L121.471 -38.046L143.858 -8.61046L129.609 25.4012L92.9354 30.0668Z" stroke="#0D257B" stroke-width="2"/>
<path d="M164.76 132.209L142.373 102.774L156.622 68.7621L193.295 64.0966L215.683 93.5321L201.433 127.544L164.76 132.209Z" stroke="#0D257B" stroke-width="2"/>
<path d="M96.6288 103.631L74.2417 74.1956L88.4909 40.1839L125.165 35.5184L147.552 64.954L133.303 98.9657L96.6288 103.631Z" stroke="#0D257B" stroke-width="2"/>
<path d="M109.594 174.495L87.2066 145.059L101.456 111.047L138.129 106.382L160.517 135.817L146.267 169.829L109.594 174.495Z" stroke="#0D257B" stroke-width="2"/>
<path d="M174.094 208.162L151.707 178.727L165.956 144.715L202.629 140.05L225.017 169.485L210.767 203.497L174.094 208.162Z" stroke="#0D257B" stroke-width="2"/>
<path d="M41.4647 145.911L19.0777 116.475L33.3268 82.4632L70.0005 77.7977L92.3876 107.233L78.1385 141.245L41.4647 145.911Z" stroke="#0D257B" stroke-width="2"/>
<path d="M30.8983 77.7933L8.51125 48.3577L22.7604 14.346L59.4341 9.68053L81.8212 39.1161L67.5721 73.1278L30.8983 77.7933Z" stroke="#0D257B" stroke-width="2"/>
</g>
</svg>
