<svg width="570" height="388" viewBox="0 0 570 388" fill="none" xmlns="http://www.w3.org/2000/svg">
<path d="M85.4258 118.65C100.683 138.097 120.73 148.449 132.969 144.07C134.476 143.57 135.873 142.81 137.098 141.834C148.532 132.829 143.923 107.854 126.802 86.0456C109.681 64.2373 86.5437 53.8661 75.1097 62.8712C73.8846 63.8469 72.8216 65.0188 71.9784 66.3571C64.853 77.2482 70.1728 99.1875 85.4304 118.635L85.4258 118.65Z" stroke="#0D257B" stroke-miterlimit="10"/>
<path d="M89.4082 115.515C101.735 131.218 117.922 139.585 127.807 136.048C129.025 135.649 130.154 135.028 131.139 134.249C140.367 126.984 136.652 106.809 122.83 89.2C109.008 71.5915 90.3216 63.2157 81.0793 70.4762C80.0934 71.2549 79.2259 72.216 78.5438 73.3003C72.7933 82.0903 77.0813 99.8127 89.4082 115.515Z" fill="#42C588" stroke="#0D257B" stroke-miterlimit="10"/>
<path d="M78.1418 124.397C95.2628 146.206 118.376 156.601 129.81 147.596C131.054 146.611 132.098 145.449 132.965 144.086C120.731 148.45 100.684 138.098 85.4215 118.665C70.1639 99.2176 64.8441 77.2782 71.9695 66.3872C70.4434 66.8975 69.0654 67.6478 67.8211 68.6335C56.387 77.6385 61.0208 102.589 78.1418 124.397Z" fill="#0D257B" stroke="#0D257B" stroke-miterlimit="10"/>
<path d="M136.172 142.531L129.203 148.041" stroke="#0D257B" stroke-miterlimit="10"/>
<path d="M74.9988 62.9997C74.9988 62.9997 71.9993 65 71.4988 65.4993C70.9984 65.9985 67.4993 68.5 66.9988 69.4993C66.4984 70.4985 68.4988 69.504 68.4988 69.504L71.9988 66.004L74.9988 62.9997Z" fill="#0D257B" stroke="#0D257B" stroke-width="0.75" stroke-miterlimit="10"/>
<path d="M133 149.028C133 149.028 138.732 155.994 147.033 166.053C147.278 166.053 147.583 166.053 147.935 166.068C147.981 166.068 148.011 166.068 148.057 166.068C148.424 166.068 148.822 166.068 149.25 166.099C150.488 166.13 153.194 166.221 153.224 166.221C153.163 166.145 153.102 166.068 153.041 165.992C150.595 162.823 150.977 159.577 153.209 157.127C153.561 156.729 153.958 156.361 154.401 156.025L138.09 142L138.014 142.092C136.642 143.032 135.872 143.56 134.5 144.5C133.128 145.44 131 146.5 131 146.5L133 148.997V149.028Z" fill="#EAC14B" stroke="#0D257B" stroke-width="2" stroke-miterlimit="10" stroke-linejoin="round"/>
<path d="M363.841 379.013C450.852 379.013 521.388 308.367 521.388 221.221C521.388 134.075 450.852 63.4297 363.841 63.4297C276.831 63.4297 206.295 134.075 206.295 221.221C206.295 308.367 276.831 379.013 363.841 379.013Z" fill="#0D257B"/>
<path d="M126.926 174.508H128.409C126.008 175.595 124.327 177.999 124.327 180.8C124.327 184.613 127.43 187.721 131.237 187.721H135.976C133.866 188.594 132.353 190.676 132.353 193.095C132.353 196.279 134.967 198.898 138.146 198.898H142.167C140.73 198.898 139.415 199.495 138.467 200.444C137.52 201.393 136.923 202.71 136.923 204.149C136.923 207.043 139.277 209.416 142.167 209.416H180.827L192.583 227.544L193.531 226.12L213.725 195.835L214.076 195.315L200.196 174.339C200.028 174.033 199.829 173.757 199.63 173.482L199.554 173.375C198.835 172.456 197.949 171.675 196.863 171.109L159.043 151.113C157.805 150.455 156.475 150.148 155.145 150.148C152.134 150.148 149.199 151.771 147.701 154.634C147.181 155.599 146.89 156.64 146.783 157.681H126.926C122.309 157.681 118.533 161.463 118.533 166.087C118.533 170.711 122.309 174.508 126.926 174.508Z" fill="white" stroke="#0D257B" stroke-width="3" stroke-linecap="round" stroke-linejoin="round"/>
<path d="M160.725 174.506H126.926C122.309 174.506 118.533 170.725 118.533 166.101C118.533 161.477 122.309 157.695 126.926 157.695H146.783" stroke="#0D257B" stroke-width="3" stroke-linecap="round" stroke-linejoin="round"/>
<path d="M146.768 157.807C146.859 156.735 147.165 155.648 147.7 154.638C149.856 150.55 154.961 148.973 159.043 151.132L196.863 171.127" stroke="#002068" stroke-linecap="round" stroke-linejoin="round"/>
<path d="M168.001 187.721H131.236C127.429 187.721 124.326 184.598 124.326 180.8C124.326 176.988 126.665 174.508 130.471 174.508" stroke="#0D257B" stroke-width="3" stroke-linecap="round" stroke-linejoin="round"/>
<path d="M160.724 198.896H138.161C134.981 198.896 132.367 196.277 132.367 193.093C132.367 189.908 134.997 187.719 136.923 187.719" stroke="#0D257B" stroke-width="3" stroke-linecap="round" stroke-linejoin="round"/>
<path d="M180.828 209.417H142.183C139.294 209.417 136.939 207.044 136.939 204.166C136.939 201.272 139.309 198.914 142.183 198.914" stroke="#002068" stroke-linecap="round" stroke-linejoin="round"/>
<g opacity="0.24">
<path d="M288.234 240.377C293.6 222.938 310.003 210.781 328.301 210.781C349.718 210.781 367.971 227.409 370.004 248.69L330.762 285.344L288.234 240.361V240.377Z" fill="white"/>
<path d="M328.286 211.546C338.635 211.546 348.541 215.42 356.139 222.432C363.522 229.245 368.139 238.447 369.178 248.384L330.778 284.272L289.075 240.162C294.471 223.259 310.461 211.531 328.271 211.531M328.271 210C308.917 210 292.576 222.876 287.348 240.56L330.701 286.415L370.768 248.981C368.873 227.133 350.559 210 328.271 210Z" fill="#002068"/>
</g>
<path d="M400.882 220.875L370.782 249.001L330.715 286.435" stroke="#EAC14B" stroke-width="3" stroke-linecap="round" stroke-linejoin="round"/>
<path d="M269.613 221.788L248.318 199.481L244.986 198.424L241.944 199.159L240.996 199.787L227.635 186.773L224.685 185.548L221.887 185.227L217.164 186.314L215.253 187.462L185.856 231.618L184.969 234.022L184.648 236.318L184.771 238.707L185.474 241.953L186.926 245.566L188.761 248.75L191.986 252.9L195.67 257.554L196.052 258.044L196.496 258.105L195.074 260.019L194.753 261.244L194.463 263.234L194.906 264.75L195.701 266.281L200.47 271.931L212.792 286.43L242.922 321.844L269.613 221.788Z" fill="#0D257B"/>
<path d="M26.0008 247.51C26.0008 247.51 25.2408 188.24 70.9708 191.1" stroke="#EAC14B" stroke-width="3" stroke-miterlimit="10" stroke-linecap="round" stroke-linejoin="round" stroke-dasharray="9 12"/>
<path d="M358.689 167.021C348.997 167.021 341.109 159.12 341.109 149.414V130.413C343.922 131.301 346.98 131.929 350.22 132.296C351.764 132.465 353.339 132.557 354.883 132.557C363.887 132.557 372.661 129.77 381.008 124.273V149.429C381.008 159.136 373.12 167.036 363.428 167.036H358.689V167.021Z" fill="white"/>
<mask id="path-20-outside-1_1_53643" maskUnits="userSpaceOnUse" x="339.346" y="121.805" width="43" height="47" fill="black">
<rect fill="white" x="339.346" y="121.805" width="43" height="47"/>
<path d="M380.244 125.668V149.415C380.244 158.708 372.708 166.256 363.429 166.256H358.69C349.411 166.256 341.874 158.708 341.874 149.415V131.44C344.458 132.19 347.225 132.726 350.129 133.048C351.704 133.216 353.309 133.308 354.884 133.308C363.612 133.308 372.127 130.736 380.244 125.652M381.773 122.805C374.619 127.765 365.477 131.761 354.884 131.761C353.385 131.761 351.857 131.685 350.297 131.516C346.674 131.118 343.357 130.383 340.346 129.342V149.399C340.346 159.504 348.601 167.772 358.69 167.772H363.429C373.518 167.772 381.773 159.504 381.773 149.399V122.805Z"/>
</mask>
<path d="M380.244 125.668V149.415C380.244 158.708 372.708 166.256 363.429 166.256H358.69C349.411 166.256 341.874 158.708 341.874 149.415V131.44C344.458 132.19 347.225 132.726 350.129 133.048C351.704 133.216 353.309 133.308 354.884 133.308C363.612 133.308 372.127 130.736 380.244 125.652M381.773 122.805C374.619 127.765 365.477 131.761 354.884 131.761C353.385 131.761 351.857 131.685 350.297 131.516C346.674 131.118 343.357 130.383 340.346 129.342V149.399C340.346 159.504 348.601 167.772 358.69 167.772H363.429C373.518 167.772 381.773 159.504 381.773 149.399V122.805Z" fill="#0D257B"/>
<path d="M341.874 131.44L342.014 130.96L341.374 130.774V131.44H341.874ZM350.129 133.048L350.074 133.544L350.076 133.545L350.129 133.048ZM381.773 122.805H382.273V121.85L381.488 122.394L381.773 122.805ZM350.297 131.516L350.243 132.013L350.244 132.014L350.297 131.516ZM340.346 129.342L340.509 128.87L339.846 128.64V129.342H340.346ZM379.744 125.668V149.415H380.744V125.668H379.744ZM379.744 149.415C379.744 158.433 372.431 165.756 363.429 165.756V166.756C372.985 166.756 380.744 158.984 380.744 149.415H379.744ZM363.429 165.756H358.69V166.756H363.429V165.756ZM358.69 165.756C349.688 165.756 342.374 158.433 342.374 149.415H341.374C341.374 158.984 349.134 166.756 358.69 166.756V165.756ZM342.374 149.415V131.44H341.374V149.415H342.374ZM341.735 131.92C344.349 132.679 347.144 133.22 350.074 133.544L350.184 132.551C347.305 132.232 344.567 131.701 342.014 130.96L341.735 131.92ZM350.076 133.545C351.667 133.715 353.29 133.808 354.884 133.808V132.808C353.328 132.808 351.741 132.717 350.182 132.55L350.076 133.545ZM354.884 133.808C363.715 133.808 372.321 131.204 380.51 126.076L379.979 125.229C371.933 130.267 363.509 132.808 354.884 132.808V133.808ZM381.488 122.394C374.392 127.314 365.348 131.261 354.884 131.261V132.261C365.606 132.261 374.846 128.216 382.058 123.216L381.488 122.394ZM354.884 131.261C353.402 131.261 351.892 131.186 350.351 131.019L350.244 132.014C351.822 132.184 353.368 132.261 354.884 132.261V131.261ZM350.352 131.019C346.762 130.625 343.482 129.898 340.509 128.87L340.182 129.815C343.232 130.869 346.586 131.612 350.243 132.013L350.352 131.019ZM339.846 129.342V149.399H340.846V129.342H339.846ZM339.846 149.399C339.846 159.78 348.324 168.272 358.69 168.272V167.272C348.877 167.272 340.846 159.229 340.846 149.399H339.846ZM358.69 168.272H363.429V167.272H358.69V168.272ZM363.429 168.272C373.795 168.272 382.273 159.78 382.273 149.399H381.273C381.273 159.229 373.241 167.272 363.429 167.272V168.272ZM382.273 149.399V122.805H381.273V149.399H382.273Z" fill="#0D257B" mask="url(#path-20-outside-1_1_53643)"/>
<path d="M356.871 131.778L340.346 149.416V129.359L344.336 130.508L348.601 131.319L352.01 131.687L354.517 131.778H356.871Z" fill="#0D257B"/>
<path d="M280.101 149.22L275.897 148.562C266.083 147.016 256.269 151.303 250.72 159.54L237.527 179.107" stroke="#EAC14B" stroke-width="3" stroke-linecap="round" stroke-linejoin="round"/>
<path d="M458.238 185.492C465.026 199.195 464.582 215.379 457.061 228.699L391.037 345.626" stroke="#EAC14B" stroke-width="3" stroke-linecap="round" stroke-linejoin="round"/>
<path d="M196.299 258.351L189.817 250.19C185.903 245.26 182.066 236.012 186.928 229.965L190.887 224.024L191.835 222.6L212.029 192.316L212.38 191.795L215.254 187.462C219.718 184.094 225.986 184.568 229.914 188.549L241.38 200.17" stroke="#EAC14B" stroke-width="3" stroke-miterlimit="10"/>
<path d="M244.299 322.783L196.053 266.761C194.158 264.541 194.081 261.295 195.839 258.983L239.942 200.894C242.25 197.848 246.745 197.603 249.374 200.389L287.377 240.595L330.731 286.45L338.191 294.335L370.782 328.815" stroke="#EAC14B" stroke-width="3" stroke-linecap="round" stroke-linejoin="round"/>
<path d="M112 281.168V285.832C112 287.244 110.848 288.396 109.436 288.396H104.402V293.431C104.402 294.843 103.244 296 101.832 296H97.1736C95.7616 296 94.6042 294.843 94.6042 293.431V288.396H89.5694C88.1574 288.396 87 287.244 87 285.832V281.168C87 279.756 88.1574 278.604 89.5694 278.604H94.6042V273.564C94.6042 272.152 95.7616 271 97.1736 271H101.832C103.244 271 104.402 272.152 104.402 273.564V278.604H109.436C110.848 278.604 112 279.756 112 281.168Z" fill="#DFE7FF"/>
<path d="M92 258.66V260.34C92 260.848 91.5854 261.262 91.0771 261.262H89.2646V263.075C89.2646 263.583 88.8479 264 88.3396 264H86.6625C86.1542 264 85.7375 263.583 85.7375 263.075V261.262H83.925C83.4167 261.262 83 260.848 83 260.34V258.66C83 258.152 83.4167 257.737 83.925 257.737H85.7375V255.923C85.7375 255.415 86.1542 255 86.6625 255H88.3396C88.8479 255 89.2646 255.415 89.2646 255.923V257.737H91.0771C91.5854 257.737 92 258.152 92 258.66Z" fill="#EEF0F8"/>
<path d="M221.689 266.547C221.689 266.547 246.026 297.658 272.274 330.836C298.537 363.999 347.195 375.222 372.296 363.999" stroke="#EAC14B" stroke-width="3" stroke-linecap="round" stroke-linejoin="round"/>
<path d="M220.619 167.898C229.195 144.182 253.516 129.622 278.755 133.664L338.466 143.524" stroke="#EAC14B" stroke-width="3" stroke-linecap="round" stroke-linejoin="round"/>
<path d="M383.547 150.445L438.931 159.31C468.114 163.98 487.834 191.631 482.789 220.782L476.491 257.145" stroke="#EAC14B" stroke-width="3" stroke-linecap="round" stroke-linejoin="round"/>
<path d="M356.184 167.608C356.229 167.915 356.306 168.221 356.382 168.527L357.666 173.534L361.931 190.146C364.5 200.159 374.681 206.191 384.678 203.619C394.676 201.047 400.699 190.835 398.131 180.822L392.582 159.203C391.068 153.324 386.956 148.838 381.774 146.633V149.419C381.774 159.524 373.519 167.792 363.43 167.792H358.691C357.835 167.792 356.994 167.731 356.184 167.608Z" fill="white"/>
<path d="M320.412 191.538C328.606 197.815 340.347 196.238 346.614 188.032L357.667 173.533L360.143 170.287C360.755 169.491 361.29 168.649 361.748 167.791H358.691C357.835 167.791 356.994 167.73 356.184 167.607C347.272 166.383 340.347 158.666 340.347 149.418V140.875C336.54 141.916 333.039 144.182 330.456 147.55L316.912 165.295C310.644 173.502 312.203 185.245 320.412 191.538Z" fill="white"/>
<path d="M330.99 49.9129C321.91 62.1002 318.057 70.2149 314.19 75.6348C310.322 81.0548 303.474 86.3676 304.727 91.2976C305.981 96.2277 312.921 95.0641 315.153 95.753C314.373 108.124 324.524 128.732 350.297 131.534C372.861 133.984 389.692 117.8 395.868 109.104C402.043 100.407 395.287 65.7901 393.941 64.4274C392.596 63.0648 341.798 45.6719 341.798 45.6719L330.99 49.9282V49.9129Z" fill="white"/>
<path d="M369.805 75.8342C370.141 76.7069 371.089 77.1663 371.991 76.9519C378.809 75.2677 387.614 75.972 388.822 84.5766C389.8 91.6195 383.945 95.9371 371.731 95.9831C370.982 95.9831 370.386 96.6261 370.447 97.361C370.508 98.0959 371.166 98.6165 371.884 98.5246L382.998 98.6777C382.998 98.6777 381.194 100.408 380.047 107.221C378.901 114.034 384.618 120.71 384.618 120.71C384.618 120.71 415.589 105.476 415.589 77.3959C415.589 40.8035 378.121 34.817 378.121 34.817C378.121 34.817 376.363 24.9569 343.542 24.7579C343.542 24.7579 340.179 15.5715 326.895 17.5006C316.393 19.0164 317.692 30.4075 317.692 30.4075C317.692 30.4075 303.062 28.6621 303.062 42.8091C303.062 56.9562 326.925 55.5476 326.925 55.5476C326.925 55.5476 353.601 54.0472 361.275 62.7436C366.595 68.776 368.888 73.4917 369.79 75.8036L369.805 75.8342Z" fill="#EAC14B"/>
<path d="M339.873 92.9531C349.045 106.105 339.491 118.675 327.613 110.453" stroke="#0D257B" stroke-width="2" stroke-linecap="round" stroke-linejoin="round"/>
<path d="M348.754 70.1206C348.754 70.1206 341.462 62.1744 330.99 63.828" stroke="#0D257B" stroke-width="2" stroke-linecap="round" stroke-linejoin="round"/>
<path d="M380.108 81.7109C375.996 82.8286 374.926 88.172 378.304 90.7748L378.961 91.2801" stroke="#0D257B" stroke-width="2" stroke-linecap="round" stroke-linejoin="round"/>
<path d="M337.411 79.0187C339.041 79.0187 340.362 77.2639 340.362 75.0992C340.362 72.9345 339.041 71.1797 337.411 71.1797C335.782 71.1797 334.461 72.9345 334.461 75.0992C334.461 77.2639 335.782 79.0187 337.411 79.0187Z" fill="#0D257B"/>
<path d="M228.553 207.279L217.256 196.516" stroke="white" stroke-linecap="round" stroke-linejoin="round"/>
<path d="M223.752 214.731L212.027 203.555" stroke="white" stroke-linecap="round" stroke-linejoin="round"/>
<path d="M218.082 221.863L206.693 211.008" stroke="white" stroke-linecap="round" stroke-linejoin="round"/>
<path d="M213.022 228.621L201.633 217.766" stroke="white" stroke-linecap="round" stroke-linejoin="round"/>
<path d="M207.334 236.824L195.945 225.969" stroke="white" stroke-linecap="round" stroke-linejoin="round"/>
<path d="M201.862 243.466L191.375 233.453" stroke="white" stroke-linecap="round" stroke-linejoin="round"/>
<path d="M521.602 34.5105L523.926 27.3758C525.118 23.7318 527.931 20.8381 531.539 19.552L538.601 17.0411L531.478 14.7139C527.84 13.5196 524.95 10.7025 523.666 7.08915L521.159 0.015625L518.836 7.15039C517.643 10.7943 514.83 13.688 511.223 14.9741L504.16 17.4851L511.284 19.8123C514.922 21.0065 517.811 23.8237 519.095 27.437L521.602 34.5105Z" fill="#DB999B"/>
<path d="M90.6284 47L92.0489 42.6528C92.7677 40.4279 94.4792 38.6822 96.687 37.8949L101 36.3716L96.6528 34.9511C94.4279 34.2323 92.6822 32.5208 91.8949 30.313L90.3716 26L88.9511 30.3472C88.2323 32.5721 86.5208 34.3178 84.313 35.1051L80 36.6284L84.3472 38.0489C86.5721 38.7677 88.3178 40.4792 89.1051 42.687L90.6284 47Z" stroke="#EAC14B" stroke-width="2" stroke-miterlimit="10" stroke-linejoin="round"/>
<path d="M563.925 284C553.117 315.525 537.12 322.394 524.554 322.394C516.268 322.394 509.252 317.54 509.252 310.359C509.252 305.506 512.875 302.459 518.516 302.459C524.156 302.459 529.018 306.731 529.018 314.784C529.018 322.838 519.02 344.38 488.981 344.38C474.78 344.38 466.632 339.633 462 334.627" stroke="#EAC14B" stroke-width="3" stroke-miterlimit="10" stroke-linecap="round" stroke-linejoin="round" stroke-dasharray="15 10"/>
</svg>
