<svg width="40" height="40" viewBox="0 0 40 40" fill="none" xmlns="http://www.w3.org/2000/svg">
<circle cx="20" cy="20" r="20" fill="#0D257B" fill-opacity="0.2"/>
<circle cx="20.0011" cy="19.9953" r="17.2414" fill="#0D257B"/>
<g clip-path="url(#clip0_1_55074)">
<path d="M29.8529 14.9416V14.88C29.4834 12.9711 27.6361 11.678 25.6657 12.0475L12.1189 14.6337C11.0105 14.6953 10.1484 15.6189 10.1484 16.7888V18.3283C10.1484 19.0056 10.5795 19.5598 11.2568 19.6829C11.3184 19.6829 11.3184 19.6829 11.38 19.7445C11.4415 19.7445 11.4415 19.8061 11.5031 19.8061C12.1189 20.114 12.4268 20.7913 12.242 21.4687C12.1189 21.9613 11.7494 22.3307 11.2568 22.4539C10.641 22.6386 10.1484 23.1928 10.1484 23.8086V25.348C10.1484 26.5179 11.1337 27.5031 12.3036 27.5031H26.2814C28.2519 27.5031 29.8529 25.9022 29.8529 23.9317V23.8701V23.8086C29.8529 23.2544 29.545 22.8233 29.0524 22.577C28.9908 22.5155 28.8677 22.5155 28.8061 22.4539C28.0672 22.2691 27.5745 21.4687 27.8209 20.7297C27.8824 20.545 27.944 20.3603 28.1287 20.1755C28.3135 19.9292 28.5598 19.8061 28.8677 19.7445C29.1755 19.6829 29.4218 19.4982 29.6066 19.3135C29.7913 19.0672 29.976 18.7593 29.976 18.3898V18.3283C29.976 17.6509 29.7913 17.0352 29.4834 16.481C29.7297 16.0499 29.9144 15.4957 29.8529 14.9416ZM25.912 13.4637C27.0819 13.2174 28.1903 14.0179 28.4366 15.1879V15.311C28.4366 15.311 28.375 15.311 28.375 15.3726C27.8209 14.9416 27.0819 14.6953 26.343 14.6953H19.6928L25.912 13.4637ZM27.0819 19.0672C26.5893 19.5598 26.2814 20.2987 26.2814 21.0376C26.2814 21.9613 26.7125 22.7618 27.3898 23.3159C27.6977 23.5622 28.0056 23.6854 28.375 23.8086V23.8701C28.375 24.1164 28.3135 24.3627 28.2519 24.5475C27.944 25.4095 27.1435 25.9637 26.2199 25.9637H20.7396H16.4908V25.348V24.5475C16.4908 24.178 16.1829 23.8086 15.7519 23.8086C15.3209 23.8086 15.0745 24.1164 15.0745 24.5475V25.5943V25.9637H12.3036C12.1805 25.9637 12.0573 25.9022 11.9342 25.8406C11.7494 25.7174 11.5647 25.4711 11.5647 25.2248V24.3012V23.6854C13.1041 23.2544 13.9662 21.715 13.5351 20.1755C13.2888 19.3135 12.6731 18.6361 11.8726 18.2667C11.7494 18.2051 11.6878 18.2051 11.5647 18.1435V16.7888C11.5647 16.4194 11.8726 16.1115 12.242 16.1115H15.0745H15.1361V16.3578V17.5278C15.1361 17.8972 15.444 18.2667 15.8135 18.2667C16.1829 18.2667 16.5524 17.9588 16.5524 17.5278V17.1583V16.1731V16.0499H22.71H24.1878H26.343C26.7125 16.0499 27.0204 16.1115 27.3282 16.2962C27.8209 16.5425 28.1903 16.9736 28.375 17.4662C28.4366 17.7125 28.4982 17.9588 28.4982 18.2051L28.4366 18.3283C28.4366 18.3283 28.4366 18.3283 28.375 18.3283C27.8209 18.4514 27.4514 18.6977 27.0819 19.0672Z" fill="white"/>
<path d="M15.8141 19.6211H15.7526C15.3831 19.6211 15.1367 19.929 15.1367 20.2985V21.7149C15.1367 22.0844 15.4446 22.3924 15.8141 22.3924C16.1836 22.3924 16.5531 22.0844 16.5531 21.7149V21.6534V20.2985C16.5531 19.929 16.2452 19.6211 15.8141 19.6211Z" fill="white"/>
<path d="M23.3269 17.3398C23.2037 17.3398 23.0806 17.4014 22.9574 17.463C22.7726 17.5862 22.5879 17.8325 22.5879 18.0788V24.0525C22.5879 24.114 22.5879 24.1756 22.5879 24.2372C22.6495 24.5451 22.9574 24.7299 23.2653 24.7299C23.6348 24.7299 23.9427 24.422 23.9427 23.9909V23.9293V22.3281V18.0788C24.0043 17.6478 23.6964 17.3398 23.3269 17.3398Z" fill="white"/>
<path d="M20.5563 18.1406C20.4332 18.1406 20.3716 18.1406 20.31 18.2022C20.0637 18.3254 19.8789 18.5717 19.8789 18.8796V23.3137C19.8789 23.6832 20.1868 24.0527 20.6179 24.0527C21.049 24.0527 21.3569 23.7447 21.3569 23.3137V22.2667V18.9412C21.2337 18.4485 20.9258 18.1406 20.5563 18.1406Z" fill="white"/>
</g>
<defs>
<clipPath id="clip0_1_55074">
<rect width="19.7044" height="15.4557" fill="white" transform="translate(10.1484 11.9883)"/>
</clipPath>
</defs>
</svg>
