<svg width="91" height="90" viewBox="0 0 91 90" fill="none" xmlns="http://www.w3.org/2000/svg">
<rect x="0.5" width="90" height="90" rx="45" fill="#0D257B" fill-opacity="0.03"/>
<path d="M68.0938 45.0469C68.0938 57.991 57.9911 68.0938 45.0469 68.0938C32.1027 68.0938 22 57.991 22 45.0469C22 32.1027 32.1027 22 45.0469 22C57.9911 22 68.0938 32.1027 68.0938 45.0469Z" stroke="black" stroke-width="4" stroke-miterlimit="10" stroke-linecap="round" stroke-linejoin="round"/>
<path d="M52.8594 37.2344C52.8594 41.5491 49.3616 45.0469 45.0469 45.0469C40.7321 45.0469 37.2344 41.5491 37.2344 37.2344C37.2344 32.9196 40.7321 29.4219 45.0469 29.4219C49.3616 29.4219 52.8594 32.9196 52.8594 37.2344Z" stroke="#D5A54D" stroke-width="4" stroke-miterlimit="10" stroke-linecap="round" stroke-linejoin="round"/>
<path d="M34.1836 56.2695C35.9244 51.98 40.1322 48.955 45.0466 48.955C49.9608 48.955 54.1687 51.98 55.9096 56.2695" stroke="#D5A54D" stroke-width="4" stroke-miterlimit="10" stroke-linecap="round" stroke-linejoin="round"/>
</svg>
