<svg width="91" height="90" viewBox="0 0 91 90" fill="none" xmlns="http://www.w3.org/2000/svg">
<rect x="0.5" width="90" height="90" rx="45" fill="#0D257B" fill-opacity="0.03"/>
<g clip-path="url(#clip0_1_56296)">
<path d="M43.0469 44.6094H46.9531M54.7656 44.6094H58.6719M31.3281 52.4219H35.2344M43.0469 52.4219H46.9531M54.7656 52.4219H58.6719M31.3281 60.2344H35.2344M43.0469 60.2344H46.9531M52.8125 29.7656H62.1875C65.4235 29.7656 68.0469 32.389 68.0469 35.625V62.1875C68.0469 65.4235 65.4235 68.0469 62.1875 68.0469H27.8125C24.5765 68.0469 21.9531 65.4235 21.9531 62.1875V35.625C21.9531 32.389 24.5765 29.7656 27.8125 29.7656H45" stroke="#0D257B" stroke-width="4" stroke-miterlimit="10" stroke-linecap="round" stroke-linejoin="round"/>
<path d="M33.2812 37.5781C31.1239 37.5781 29.375 35.8292 29.375 33.6719V25.8594C29.375 23.7021 31.1239 21.9531 33.2812 21.9531C35.4386 21.9531 37.1875 23.7021 37.1875 25.8594V29.7656M56.7188 37.5781C54.5614 37.5781 52.8125 35.8292 52.8125 33.6719V25.8594C52.8125 23.7021 54.5614 21.9531 56.7188 21.9531C58.8761 21.9531 60.625 23.7021 60.625 25.8594V29.7656" stroke="#D5A54D" stroke-width="4" stroke-miterlimit="10" stroke-linecap="round" stroke-linejoin="round"/>
</g>
<defs>
<clipPath id="clip0_1_56296">
<rect width="50" height="50" fill="white" transform="translate(20 20)"/>
</clipPath>
</defs>
</svg>
