<svg width="74" height="74" viewBox="0 0 74 74" fill="none" xmlns="http://www.w3.org/2000/svg">
<g clip-path="url(#clip0_14035_17380)">
<path d="M15.5527 -0.25C18.8605 -0.25 21.5419 2.43153 21.542 5.73926V6.73926H41.7988V5.73926C41.7989 2.47502 44.4448 -0.17076 47.709 -0.170898C50.9733 -0.170898 53.62 2.47493 53.6201 5.73926V6.73926H54.3623C58.8837 6.73926 62.583 10.4717 62.583 14.9902V33.2939C68.4049 37.2094 72.3421 43.9133 72.3418 51.498C72.3418 63.3514 62.8382 73.0426 51.0557 73.3428L50.4922 73.3496C44.0472 73.3401 37.9359 70.4956 33.7783 65.5762H8.95605C4.43395 65.5762 0.757999 61.8418 0.757812 57.3242V14.9902C0.757812 10.4726 4.43391 6.73926 8.95605 6.73926H9.56348V5.73926C9.56355 2.43158 12.2451 -0.249927 15.5527 -0.25ZM50.4922 33.291C40.4446 33.2912 32.2991 41.4358 32.2988 51.4834C32.2988 61.5312 40.4444 69.6766 50.4922 69.6768L50.9619 69.6709C60.7881 69.411 68.6744 61.3696 68.6855 51.4834C68.6853 41.4357 60.5399 33.291 50.4922 33.291ZM4.40234 57.3242C4.40253 59.8375 6.45008 61.9316 8.95605 61.9316H31.2949C29.5632 58.7337 28.6544 55.1529 28.6602 51.5117L28.668 50.9492C28.9677 39.1661 38.6505 29.6458 50.5039 29.6455C53.4011 29.6444 56.2682 30.2215 58.9385 31.3389V23.4355H4.40234V57.3242ZM8.95605 10.3838C6.44985 10.3838 4.40234 12.4769 4.40234 14.9902V19.79H58.9385V14.9912L58.9316 14.7549C58.805 12.4134 56.9365 10.5338 54.5957 10.3926L54.3604 10.3838H53.6201V13.498L53.6191 13.5791C53.5871 14.5358 52.7879 15.2852 51.832 15.2578V15.2588H43.4639C42.5169 15.2315 41.7716 14.4411 41.7988 13.4941V10.3838H21.542V13.502C21.5418 14.5293 20.6655 15.2586 19.6816 15.2588H11.4072C10.4194 15.2588 9.56368 14.526 9.56348 13.502V10.3838H8.95605ZM15.5342 3.46484C14.2632 3.45137 13.2215 4.47121 13.208 5.74219V11.6133H17.8975V5.73926C17.8974 4.47324 16.8302 3.46484 15.5439 3.46484H15.5342ZM45.4434 11.6133H49.9756V5.69531L49.9609 5.46484C49.8336 4.32974 48.8648 3.45268 47.6982 3.46484L47.6934 3.46582V3.46484C47.6737 3.4647 47.6536 3.46455 47.6328 3.46484C46.4017 3.48704 45.4216 4.50405 45.4434 5.73535V11.6133Z" fill="#0D257B" stroke="#0D257B" stroke-width="0.5"/>
<path d="M49.4395 40.2056C50.4459 40.2056 51.2616 41.0214 51.2617 42.0278V51.2397H57.9014C58.9077 51.24 59.7236 52.0556 59.7236 53.062C59.7235 54.0683 58.9076 54.884 57.9014 54.8843H49.4688C48.4579 54.8856 47.6332 54.0748 47.6172 53.064V42.0278C47.6173 41.0214 48.4331 40.2057 49.4395 40.2056Z" fill="#CC922F" stroke="#CC922F" stroke-width="0.5"/>
</g>
<defs>
<clipPath id="clip0_14035_17380">
<rect width="73.1" height="73.1" fill="white"/>
</clipPath>
</defs>
</svg>
