<svg width="81" height="81" viewBox="0 0 81 81" fill="none" xmlns="http://www.w3.org/2000/svg">
<mask id="path-1-outside-1_14035_17394" maskUnits="userSpaceOnUse" x="14.3438" y="6.85693" width="53" height="67" fill="black">
<rect fill="white" x="14.3438" y="6.85693" width="53" height="67"/>
<path d="M66.2182 56.4419C66.2133 56.2107 66.136 55.9868 65.9973 55.8017C65.8586 55.6166 65.6655 55.4796 65.4449 55.4098C61.5462 54.1765 58.6295 53.0007 57.238 52.4103C57.101 52.3523 56.9538 52.3225 56.8051 52.3225C56.6564 52.3225 56.5093 52.3523 56.3723 52.4103C54.9801 53.0013 52.0622 54.1771 48.1654 55.4098C48.0035 55.4608 47.8556 55.5484 47.7331 55.6658C47.6106 55.7832 47.5168 55.9274 47.4591 56.0869C46.7856 55.7933 46.094 55.5428 45.3886 55.3371C46.8553 54.3447 47.9848 52.9291 48.6267 51.2786C49.2685 49.6282 49.3923 47.8214 48.9814 46.0989C48.5706 44.3763 47.6446 42.8199 46.3269 41.6368C45.0092 40.4538 43.3623 39.7004 41.6056 39.4769V25.9891C43.2234 26.2528 44.6949 27.0825 45.7577 28.3303C46.8205 29.5781 47.4056 31.1629 47.4085 32.802C47.4085 33.0957 47.5252 33.3774 47.7329 33.585C47.9406 33.7927 48.2222 33.9094 48.5159 33.9094C48.8096 33.9094 49.0913 33.7927 49.299 33.585C49.5067 33.3774 49.6234 33.0957 49.6234 32.802C49.6268 30.987 50.3443 29.2464 51.6208 27.9562C52.8973 26.666 54.6303 25.93 56.4451 25.9072C58.2598 25.8845 60.0107 26.5768 61.3192 27.8345C62.6277 29.0922 63.3886 30.8143 63.4377 32.6286C63.446 32.9166 63.5663 33.19 63.7729 33.3909C63.9796 33.5917 64.2563 33.7042 64.5444 33.7044H64.5691C64.8619 33.6979 65.1402 33.5758 65.3432 33.3647C65.5462 33.1536 65.6574 32.8708 65.6525 32.578C65.5379 25.9823 62.8373 19.6955 58.1325 15.0717C53.4276 10.4479 47.0948 7.85693 40.4982 7.85693C33.9016 7.85693 27.5688 10.4479 22.864 15.0717C18.1591 19.6955 15.4585 25.9823 15.3439 32.578C15.339 32.8708 15.4502 33.1536 15.6532 33.3647C15.8562 33.5758 16.1345 33.6979 16.4273 33.7044H16.4513C16.7395 33.7042 17.0162 33.5917 17.2228 33.3909C17.4295 33.19 17.5497 32.9166 17.5581 32.6286C17.6021 30.8786 18.3089 29.2106 19.5356 27.9617C20.7623 26.7129 22.4173 25.9763 24.1662 25.9009C25.9151 25.8255 27.6275 26.4169 28.957 27.5556C30.2866 28.6943 31.1343 30.2953 31.3287 32.035C31.3287 32.0698 31.3332 32.1046 31.3376 32.1394C31.3633 32.3593 31.3753 32.5806 31.3737 32.802C31.3737 33.0957 31.4904 33.3774 31.698 33.585C31.9057 33.7927 32.1874 33.9094 32.4811 33.9094C32.7748 33.9094 33.0565 33.7927 33.2642 33.585C33.4718 33.3774 33.5885 33.0957 33.5885 32.802C33.5915 31.1629 34.1765 29.5781 35.2394 28.3303C36.3022 27.0825 37.7737 26.2528 39.3914 25.9891V39.4769C37.6351 39.7 35.9884 40.4529 34.6706 41.6353C33.3529 42.8177 32.4266 44.3735 32.0151 46.0954C31.6036 47.8174 31.7264 49.6239 32.3672 51.2743C33.0081 52.9247 34.1364 54.3408 35.6021 55.3339C31.993 56.3961 28.824 58.5968 26.5681 61.6076C24.3121 64.6184 23.0902 68.2779 23.0845 72.0401C23.0846 72.3338 23.2014 72.6154 23.409 72.823C23.6167 73.0307 23.8982 73.1474 24.1919 73.1476H56.8051C56.8761 73.147 56.9469 73.1398 57.0165 73.1261C57.0452 73.1195 57.0735 73.1114 57.1013 73.102C57.1348 73.0925 57.169 73.0862 57.2019 73.0742C57.2108 73.0704 57.2196 73.0659 57.2285 73.0628L57.2431 73.0564C61.438 71.432 64.2154 68.0572 65.4962 63.0143C66.0257 60.865 66.2685 58.655 66.2182 56.4419ZM62.2151 25.6404C60.3194 24.1463 57.9099 23.4621 55.5119 23.737C53.1138 24.0118 50.9217 25.2236 49.4133 27.1079C48.9823 22.1195 47.692 14.6662 43.8837 10.3219C48.0436 10.9665 51.9488 12.7335 55.179 15.4328C58.4091 18.132 60.8418 21.6613 62.2151 25.6404ZM24.4627 23.6787C22.4014 23.6703 20.3983 24.362 18.7813 25.6404C20.1546 21.6613 22.5873 18.132 25.8174 15.4328C29.0476 12.7335 32.9528 10.9665 37.1127 10.3219C33.3095 14.6611 32.0173 22.1011 31.5844 27.0915C30.7301 26.0239 29.6462 25.1626 28.4133 24.5715C27.1803 23.9805 25.83 23.6749 24.4627 23.6775V23.6787ZM33.8739 26.5359C34.4188 21.0899 35.9888 13.2291 40.4982 10.2517C45.007 13.231 46.5776 21.0918 47.1225 26.5365C46.2711 25.6342 45.2444 24.9153 44.1053 24.424C42.9662 23.9326 41.7388 23.6792 40.4982 23.6792C39.2577 23.6792 38.0302 23.9326 36.8911 24.424C35.752 24.9153 34.7253 25.6336 33.8739 26.5359ZM33.9904 48.1217C33.9901 46.8345 34.3716 45.5762 35.0865 44.5058C35.8015 43.4354 36.8178 42.6011 38.0069 42.1084C39.196 41.6156 40.5046 41.4865 41.767 41.7375C43.0295 41.9885 44.1892 42.6082 45.0995 43.5183C46.0098 44.4284 46.6297 45.588 46.8809 46.8504C47.1321 48.1128 47.0033 49.4214 46.5108 50.6106C46.0183 51.7998 45.1841 52.8163 44.1139 53.5315C43.0437 54.2466 41.7854 54.6283 40.4982 54.6283C38.773 54.6256 37.1193 53.9391 35.8994 52.7192C34.6795 51.4994 33.993 49.8456 33.9904 48.1205V48.1217ZM40.4982 56.8432C42.9101 56.8448 45.287 57.4203 47.4326 58.522C47.5176 60.0378 47.7456 61.5421 48.1135 63.015C48.9804 66.4258 50.5359 69.0729 52.7488 70.9334H25.3385C25.6234 67.1061 27.3436 63.5277 30.1548 60.9149C32.9659 58.3021 36.6603 56.8477 40.4982 56.8432ZM63.3497 62.4708C62.2935 66.6252 60.0926 69.4412 56.8051 70.8479C53.5145 69.4412 51.3161 66.6252 50.2606 62.4708C49.8433 60.7694 49.6231 59.0258 49.6044 57.2741C52.8494 56.2205 55.363 55.2307 56.8051 54.6308C58.2461 55.2301 60.7596 56.2198 64.0059 57.2741C63.9871 59.0257 63.767 60.7694 63.3497 62.4708Z"/>
</mask>
<path d="M66.2182 56.4419C66.2133 56.2107 66.136 55.9868 65.9973 55.8017C65.8586 55.6166 65.6655 55.4796 65.4449 55.4098C61.5462 54.1765 58.6295 53.0007 57.238 52.4103C57.101 52.3523 56.9538 52.3225 56.8051 52.3225C56.6564 52.3225 56.5093 52.3523 56.3723 52.4103C54.9801 53.0013 52.0622 54.1771 48.1654 55.4098C48.0035 55.4608 47.8556 55.5484 47.7331 55.6658C47.6106 55.7832 47.5168 55.9274 47.4591 56.0869C46.7856 55.7933 46.094 55.5428 45.3886 55.3371C46.8553 54.3447 47.9848 52.9291 48.6267 51.2786C49.2685 49.6282 49.3923 47.8214 48.9814 46.0989C48.5706 44.3763 47.6446 42.8199 46.3269 41.6368C45.0092 40.4538 43.3623 39.7004 41.6056 39.4769V25.9891C43.2234 26.2528 44.6949 27.0825 45.7577 28.3303C46.8205 29.5781 47.4056 31.1629 47.4085 32.802C47.4085 33.0957 47.5252 33.3774 47.7329 33.585C47.9406 33.7927 48.2222 33.9094 48.5159 33.9094C48.8096 33.9094 49.0913 33.7927 49.299 33.585C49.5067 33.3774 49.6234 33.0957 49.6234 32.802C49.6268 30.987 50.3443 29.2464 51.6208 27.9562C52.8973 26.666 54.6303 25.93 56.4451 25.9072C58.2598 25.8845 60.0107 26.5768 61.3192 27.8345C62.6277 29.0922 63.3886 30.8143 63.4377 32.6286C63.446 32.9166 63.5663 33.19 63.7729 33.3909C63.9796 33.5917 64.2563 33.7042 64.5444 33.7044H64.5691C64.8619 33.6979 65.1402 33.5758 65.3432 33.3647C65.5462 33.1536 65.6574 32.8708 65.6525 32.578C65.5379 25.9823 62.8373 19.6955 58.1325 15.0717C53.4276 10.4479 47.0948 7.85693 40.4982 7.85693C33.9016 7.85693 27.5688 10.4479 22.864 15.0717C18.1591 19.6955 15.4585 25.9823 15.3439 32.578C15.339 32.8708 15.4502 33.1536 15.6532 33.3647C15.8562 33.5758 16.1345 33.6979 16.4273 33.7044H16.4513C16.7395 33.7042 17.0162 33.5917 17.2228 33.3909C17.4295 33.19 17.5497 32.9166 17.5581 32.6286C17.6021 30.8786 18.3089 29.2106 19.5356 27.9617C20.7623 26.7129 22.4173 25.9763 24.1662 25.9009C25.9151 25.8255 27.6275 26.4169 28.957 27.5556C30.2866 28.6943 31.1343 30.2953 31.3287 32.035C31.3287 32.0698 31.3332 32.1046 31.3376 32.1394C31.3633 32.3593 31.3753 32.5806 31.3737 32.802C31.3737 33.0957 31.4904 33.3774 31.698 33.585C31.9057 33.7927 32.1874 33.9094 32.4811 33.9094C32.7748 33.9094 33.0565 33.7927 33.2642 33.585C33.4718 33.3774 33.5885 33.0957 33.5885 32.802C33.5915 31.1629 34.1765 29.5781 35.2394 28.3303C36.3022 27.0825 37.7737 26.2528 39.3914 25.9891V39.4769C37.6351 39.7 35.9884 40.4529 34.6706 41.6353C33.3529 42.8177 32.4266 44.3735 32.0151 46.0954C31.6036 47.8174 31.7264 49.6239 32.3672 51.2743C33.0081 52.9247 34.1364 54.3408 35.6021 55.3339C31.993 56.3961 28.824 58.5968 26.5681 61.6076C24.3121 64.6184 23.0902 68.2779 23.0845 72.0401C23.0846 72.3338 23.2014 72.6154 23.409 72.823C23.6167 73.0307 23.8982 73.1474 24.1919 73.1476H56.8051C56.8761 73.147 56.9469 73.1398 57.0165 73.1261C57.0452 73.1195 57.0735 73.1114 57.1013 73.102C57.1348 73.0925 57.169 73.0862 57.2019 73.0742C57.2108 73.0704 57.2196 73.0659 57.2285 73.0628L57.2431 73.0564C61.438 71.432 64.2154 68.0572 65.4962 63.0143C66.0257 60.865 66.2685 58.655 66.2182 56.4419ZM62.2151 25.6404C60.3194 24.1463 57.9099 23.4621 55.5119 23.737C53.1138 24.0118 50.9217 25.2236 49.4133 27.1079C48.9823 22.1195 47.692 14.6662 43.8837 10.3219C48.0436 10.9665 51.9488 12.7335 55.179 15.4328C58.4091 18.132 60.8418 21.6613 62.2151 25.6404ZM24.4627 23.6787C22.4014 23.6703 20.3983 24.362 18.7813 25.6404C20.1546 21.6613 22.5873 18.132 25.8174 15.4328C29.0476 12.7335 32.9528 10.9665 37.1127 10.3219C33.3095 14.6611 32.0173 22.1011 31.5844 27.0915C30.7301 26.0239 29.6462 25.1626 28.4133 24.5715C27.1803 23.9805 25.83 23.6749 24.4627 23.6775V23.6787ZM33.8739 26.5359C34.4188 21.0899 35.9888 13.2291 40.4982 10.2517C45.007 13.231 46.5776 21.0918 47.1225 26.5365C46.2711 25.6342 45.2444 24.9153 44.1053 24.424C42.9662 23.9326 41.7388 23.6792 40.4982 23.6792C39.2577 23.6792 38.0302 23.9326 36.8911 24.424C35.752 24.9153 34.7253 25.6336 33.8739 26.5359ZM33.9904 48.1217C33.9901 46.8345 34.3716 45.5762 35.0865 44.5058C35.8015 43.4354 36.8178 42.6011 38.0069 42.1084C39.196 41.6156 40.5046 41.4865 41.767 41.7375C43.0295 41.9885 44.1892 42.6082 45.0995 43.5183C46.0098 44.4284 46.6297 45.588 46.8809 46.8504C47.1321 48.1128 47.0033 49.4214 46.5108 50.6106C46.0183 51.7998 45.1841 52.8163 44.1139 53.5315C43.0437 54.2466 41.7854 54.6283 40.4982 54.6283C38.773 54.6256 37.1193 53.9391 35.8994 52.7192C34.6795 51.4994 33.993 49.8456 33.9904 48.1205V48.1217ZM40.4982 56.8432C42.9101 56.8448 45.287 57.4203 47.4326 58.522C47.5176 60.0378 47.7456 61.5421 48.1135 63.015C48.9804 66.4258 50.5359 69.0729 52.7488 70.9334H25.3385C25.6234 67.1061 27.3436 63.5277 30.1548 60.9149C32.9659 58.3021 36.6603 56.8477 40.4982 56.8432ZM63.3497 62.4708C62.2935 66.6252 60.0926 69.4412 56.8051 70.8479C53.5145 69.4412 51.3161 66.6252 50.2606 62.4708C49.8433 60.7694 49.6231 59.0258 49.6044 57.2741C52.8494 56.2205 55.363 55.2307 56.8051 54.6308C58.2461 55.2301 60.7596 56.2198 64.0059 57.2741C63.9871 59.0257 63.767 60.7694 63.3497 62.4708Z" fill="#0D257B"/>
<path d="M66.2182 56.4419C66.2133 56.2107 66.136 55.9868 65.9973 55.8017C65.8586 55.6166 65.6655 55.4796 65.4449 55.4098C61.5462 54.1765 58.6295 53.0007 57.238 52.4103C57.101 52.3523 56.9538 52.3225 56.8051 52.3225C56.6564 52.3225 56.5093 52.3523 56.3723 52.4103C54.9801 53.0013 52.0622 54.1771 48.1654 55.4098C48.0035 55.4608 47.8556 55.5484 47.7331 55.6658C47.6106 55.7832 47.5168 55.9274 47.4591 56.0869C46.7856 55.7933 46.094 55.5428 45.3886 55.3371C46.8553 54.3447 47.9848 52.9291 48.6267 51.2786C49.2685 49.6282 49.3923 47.8214 48.9814 46.0989C48.5706 44.3763 47.6446 42.8199 46.3269 41.6368C45.0092 40.4538 43.3623 39.7004 41.6056 39.4769V25.9891C43.2234 26.2528 44.6949 27.0825 45.7577 28.3303C46.8205 29.5781 47.4056 31.1629 47.4085 32.802C47.4085 33.0957 47.5252 33.3774 47.7329 33.585C47.9406 33.7927 48.2222 33.9094 48.5159 33.9094C48.8096 33.9094 49.0913 33.7927 49.299 33.585C49.5067 33.3774 49.6234 33.0957 49.6234 32.802C49.6268 30.987 50.3443 29.2464 51.6208 27.9562C52.8973 26.666 54.6303 25.93 56.4451 25.9072C58.2598 25.8845 60.0107 26.5768 61.3192 27.8345C62.6277 29.0922 63.3886 30.8143 63.4377 32.6286C63.446 32.9166 63.5663 33.19 63.7729 33.3909C63.9796 33.5917 64.2563 33.7042 64.5444 33.7044H64.5691C64.8619 33.6979 65.1402 33.5758 65.3432 33.3647C65.5462 33.1536 65.6574 32.8708 65.6525 32.578C65.5379 25.9823 62.8373 19.6955 58.1325 15.0717C53.4276 10.4479 47.0948 7.85693 40.4982 7.85693C33.9016 7.85693 27.5688 10.4479 22.864 15.0717C18.1591 19.6955 15.4585 25.9823 15.3439 32.578C15.339 32.8708 15.4502 33.1536 15.6532 33.3647C15.8562 33.5758 16.1345 33.6979 16.4273 33.7044H16.4513C16.7395 33.7042 17.0162 33.5917 17.2228 33.3909C17.4295 33.19 17.5497 32.9166 17.5581 32.6286C17.6021 30.8786 18.3089 29.2106 19.5356 27.9617C20.7623 26.7129 22.4173 25.9763 24.1662 25.9009C25.9151 25.8255 27.6275 26.4169 28.957 27.5556C30.2866 28.6943 31.1343 30.2953 31.3287 32.035C31.3287 32.0698 31.3332 32.1046 31.3376 32.1394C31.3633 32.3593 31.3753 32.5806 31.3737 32.802C31.3737 33.0957 31.4904 33.3774 31.698 33.585C31.9057 33.7927 32.1874 33.9094 32.4811 33.9094C32.7748 33.9094 33.0565 33.7927 33.2642 33.585C33.4718 33.3774 33.5885 33.0957 33.5885 32.802C33.5915 31.1629 34.1765 29.5781 35.2394 28.3303C36.3022 27.0825 37.7737 26.2528 39.3914 25.9891V39.4769C37.6351 39.7 35.9884 40.4529 34.6706 41.6353C33.3529 42.8177 32.4266 44.3735 32.0151 46.0954C31.6036 47.8174 31.7264 49.6239 32.3672 51.2743C33.0081 52.9247 34.1364 54.3408 35.6021 55.3339C31.993 56.3961 28.824 58.5968 26.5681 61.6076C24.3121 64.6184 23.0902 68.2779 23.0845 72.0401C23.0846 72.3338 23.2014 72.6154 23.409 72.823C23.6167 73.0307 23.8982 73.1474 24.1919 73.1476H56.8051C56.8761 73.147 56.9469 73.1398 57.0165 73.1261C57.0452 73.1195 57.0735 73.1114 57.1013 73.102C57.1348 73.0925 57.169 73.0862 57.2019 73.0742C57.2108 73.0704 57.2196 73.0659 57.2285 73.0628L57.2431 73.0564C61.438 71.432 64.2154 68.0572 65.4962 63.0143C66.0257 60.865 66.2685 58.655 66.2182 56.4419ZM62.2151 25.6404C60.3194 24.1463 57.9099 23.4621 55.5119 23.737C53.1138 24.0118 50.9217 25.2236 49.4133 27.1079C48.9823 22.1195 47.692 14.6662 43.8837 10.3219C48.0436 10.9665 51.9488 12.7335 55.179 15.4328C58.4091 18.132 60.8418 21.6613 62.2151 25.6404ZM24.4627 23.6787C22.4014 23.6703 20.3983 24.362 18.7813 25.6404C20.1546 21.6613 22.5873 18.132 25.8174 15.4328C29.0476 12.7335 32.9528 10.9665 37.1127 10.3219C33.3095 14.6611 32.0173 22.1011 31.5844 27.0915C30.7301 26.0239 29.6462 25.1626 28.4133 24.5715C27.1803 23.9805 25.83 23.6749 24.4627 23.6775V23.6787ZM33.8739 26.5359C34.4188 21.0899 35.9888 13.2291 40.4982 10.2517C45.007 13.231 46.5776 21.0918 47.1225 26.5365C46.2711 25.6342 45.2444 24.9153 44.1053 24.424C42.9662 23.9326 41.7388 23.6792 40.4982 23.6792C39.2577 23.6792 38.0302 23.9326 36.8911 24.424C35.752 24.9153 34.7253 25.6336 33.8739 26.5359ZM33.9904 48.1217C33.9901 46.8345 34.3716 45.5762 35.0865 44.5058C35.8015 43.4354 36.8178 42.6011 38.0069 42.1084C39.196 41.6156 40.5046 41.4865 41.767 41.7375C43.0295 41.9885 44.1892 42.6082 45.0995 43.5183C46.0098 44.4284 46.6297 45.588 46.8809 46.8504C47.1321 48.1128 47.0033 49.4214 46.5108 50.6106C46.0183 51.7998 45.1841 52.8163 44.1139 53.5315C43.0437 54.2466 41.7854 54.6283 40.4982 54.6283C38.773 54.6256 37.1193 53.9391 35.8994 52.7192C34.6795 51.4994 33.993 49.8456 33.9904 48.1205V48.1217ZM40.4982 56.8432C42.9101 56.8448 45.287 57.4203 47.4326 58.522C47.5176 60.0378 47.7456 61.5421 48.1135 63.015C48.9804 66.4258 50.5359 69.0729 52.7488 70.9334H25.3385C25.6234 67.1061 27.3436 63.5277 30.1548 60.9149C32.9659 58.3021 36.6603 56.8477 40.4982 56.8432ZM63.3497 62.4708C62.2935 66.6252 60.0926 69.4412 56.8051 70.8479C53.5145 69.4412 51.3161 66.6252 50.2606 62.4708C49.8433 60.7694 49.6231 59.0258 49.6044 57.2741C52.8494 56.2205 55.363 55.2307 56.8051 54.6308C58.2461 55.2301 60.7596 56.2198 64.0059 57.2741C63.9871 59.0257 63.767 60.7694 63.3497 62.4708Z" stroke="#0D257B" stroke-width="1.2" mask="url(#path-1-outside-1_14035_17394)"/>
<path d="M54.5141 61.3254C54.3059 61.1299 54.0303 61.0224 53.7447 61.0252C53.4591 61.0281 53.1857 61.1412 52.9816 61.3409C52.7774 61.5405 52.6582 61.8114 52.649 62.0968C52.6398 62.3823 52.7412 62.6602 52.932 62.8727L54.9862 64.9774C55.0892 65.0829 55.2124 65.1668 55.3483 65.224C55.4843 65.2813 55.6303 65.3108 55.7778 65.3109C55.9251 65.3109 56.071 65.2815 56.2068 65.2245C56.3426 65.1675 56.4657 65.0839 56.5688 64.9787L60.6891 60.7698C60.7932 60.6665 60.8758 60.5434 60.9319 60.4079C60.9881 60.2723 61.0168 60.127 61.0163 59.9802C61.0158 59.8335 60.9862 59.6883 60.9291 59.5531C60.872 59.418 60.7887 59.2955 60.6838 59.1928C60.579 59.0901 60.4548 59.0093 60.3185 58.955C60.1822 58.9007 60.0364 58.8741 59.8897 58.8766C59.743 58.8792 59.5983 58.9108 59.4639 58.9698C59.3295 59.0288 59.2082 59.1138 59.107 59.2201L55.7791 62.6195L54.5141 61.3254Z" fill="#CC922F"/>
</svg>
