<svg width="61" height="61" viewBox="0 0 61 61" fill="none" xmlns="http://www.w3.org/2000/svg">
<path fill-rule="evenodd" clip-rule="evenodd" d="M0.851562 7.70615C0.851562 3.92128 3.91981 0.853027 7.70469 0.853027H53.3922C57.1772 0.853027 60.2453 3.92131 60.2453 7.70615V30.5499C60.2453 31.8115 59.2225 32.8343 57.9609 32.8343C56.6994 32.8343 55.6766 31.8115 55.6766 30.5499V7.70615C55.6766 6.44451 54.6538 5.42178 53.3922 5.42178H7.70469C6.44307 5.42178 5.42031 6.44454 5.42031 7.70615V53.3937C5.42031 54.6552 6.44304 55.678 7.70469 55.678H30.5484C31.81 55.678 32.8328 56.7008 32.8328 57.9624C32.8328 59.224 31.81 60.2468 30.5484 60.2468H7.70469C3.91984 60.2468 0.851562 57.1787 0.851562 53.3937V7.70615Z" fill="#0D257B"/>
<path fill-rule="evenodd" clip-rule="evenodd" d="M42.7344 35.8803C38.9496 35.8803 35.8812 38.9486 35.8812 42.7334C35.8812 46.5182 38.9496 49.5865 42.7344 49.5865C46.5191 49.5865 49.5875 46.5182 49.5875 42.7334C49.5875 38.9486 46.5191 35.8803 42.7344 35.8803ZM31.3125 42.7334C31.3125 36.4252 36.4261 31.3115 42.7344 31.3115C49.0426 31.3115 54.1562 36.4252 54.1562 42.7334C54.1562 49.0416 49.0426 54.1553 42.7344 54.1553C36.4261 54.1553 31.3125 49.0416 31.3125 42.7334Z" fill="#CC922F"/>
<path fill-rule="evenodd" clip-rule="evenodd" d="M48.5632 47.3981C49.3512 46.4127 50.7888 46.2531 51.7738 47.0411L59.3884 53.1328C60.3737 53.921 60.5333 55.3586 59.7454 56.3437C58.9571 57.329 57.5198 57.4886 56.5345 56.7003L48.9199 50.6087C47.9349 49.8207 47.7749 48.3831 48.5632 47.3981Z" fill="#CC922F"/>
<path fill-rule="evenodd" clip-rule="evenodd" d="M13.0312 18.3664C13.0312 17.1048 14.054 16.082 15.3156 16.082H45.774C47.0355 16.082 48.0583 17.1048 48.0583 18.3664C48.0583 19.628 47.0355 20.6508 45.774 20.6508H15.3156C14.054 20.6508 13.0312 19.628 13.0312 18.3664Z" fill="#0D257B"/>
<path fill-rule="evenodd" clip-rule="evenodd" d="M13.0312 30.55C13.0312 29.2884 14.054 28.2656 15.3156 28.2656H27.499C28.7605 28.2656 29.7833 29.2884 29.7833 30.55C29.7833 31.8116 28.7605 32.8344 27.499 32.8344H15.3156C14.054 32.8344 13.0312 31.8116 13.0312 30.55Z" fill="#0D257B"/>
</svg>
