<svg width="75" height="75" viewBox="0 0 75 75" fill="none" xmlns="http://www.w3.org/2000/svg">
<path d="M14.5303 57.4727C15.3199 57.4727 15.9598 58.1118 15.96 58.9014V64.5859C15.96 65.3745 15.3189 66.0156 14.5303 66.0156C13.74 66.0155 13.1016 65.3755 13.1016 64.5859V58.9014L13.1094 58.7559C13.1823 58.0349 13.7893 57.4728 14.5303 57.4727Z" fill="#0D257B" stroke="#0D257B" stroke-width="0.5"/>
<path d="M37.1611 30.9443C37.6061 30.5628 38.2279 30.4456 38.7822 30.6484L38.7812 30.6494C41.3354 31.5787 43.7156 32.9291 45.8535 34.666H45.8525C45.952 34.7464 46.0674 34.862 46.1211 35.0293C46.18 35.2127 46.1371 35.369 46.1055 35.4561C46.0382 35.6415 46.0224 35.6194 46.0186 35.707L46.0195 35.708C46.0194 35.7109 46.0195 35.7138 46.0195 35.7158C46.0213 35.7182 46.0234 35.7215 46.0264 35.7256C46.031 35.732 46.0403 35.7458 46.0498 35.7598C46.0659 35.7834 46.1109 35.8491 46.1348 35.9404C46.1636 36.0513 46.1551 36.1691 46.1074 36.2773C46.0668 36.3697 46.0069 36.4346 45.9658 36.4736C45.9223 36.5149 45.8736 36.5516 45.8271 36.584L45.7354 36.6475L45.624 36.6611L44.7676 36.7656L44.7246 36.7705L44.4336 37.1299L44.1494 37.4795L43.8008 37.1953C42.1824 35.8808 40.4079 34.8232 38.5146 34.04C35.4605 36.3884 31.7345 37.6757 27.9131 37.6758C24.1083 37.6758 20.3918 36.3981 17.3418 34.0645C9.21787 37.4177 3.80774 45.6192 3.80762 54.7715V64.6904H39.7979V67.9482H2.17871C1.27813 67.9481 0.549907 67.2199 0.549805 66.3193V54.7715C0.549932 43.9546 7.1835 34.2659 17.0742 30.6738C17.6301 30.4699 18.248 30.5857 18.6914 30.9678C21.2893 33.1925 24.5647 34.416 27.9131 34.416C31.2774 34.4159 34.5617 33.1849 37.1602 30.9443H37.1611Z" fill="#0D257B" stroke="#0D257B" stroke-width="0.9"/>
<path d="M27.915 0.549805C37.7705 0.549805 45.7578 8.89407 45.7578 19.1113C45.7576 29.3289 37.7705 37.6748 27.915 37.6748C18.059 37.6747 10.0732 29.3294 10.0732 19.1123C10.0734 8.89478 18.0591 0.549935 27.915 0.549805ZM27.915 3.80762C19.8932 3.80775 13.3311 10.6543 13.3311 19.1113C13.3313 27.5699 19.8934 34.4149 27.915 34.415C35.9363 34.415 42.4998 27.5699 42.5 19.1113C42.5 10.6543 35.9364 3.80762 27.915 3.80762Z" fill="#0D257B" stroke="#0D257B" stroke-width="0.9"/>
<path d="M48.75 46.0728C50.6444 44.7419 52.9197 44.2386 55.1523 44.6479H55.1533C57.382 45.0623 59.3252 46.3469 60.6299 48.2622H60.6309L60.6406 48.2759L60.6484 48.2866H60.6475C61.8519 50.1097 62.3592 52.2369 62.0918 54.3169L62.0283 54.7329C61.621 56.9874 60.3579 58.9609 58.4697 60.2886C57.0056 61.3167 55.314 61.853 53.5908 61.853C53.211 61.853 52.8298 61.8273 52.4492 61.7749L52.0684 61.7134C49.8375 61.299 47.8906 60.0122 46.583 58.0923H46.582C45.2824 56.1773 44.7881 53.8804 45.1924 51.6294L45.2783 51.2095C45.7592 49.1292 46.9812 47.3174 48.75 46.0728ZM53.6328 47.3657C52.4946 47.3657 51.3725 47.7216 50.3945 48.4106C49.125 49.3023 48.2777 50.6247 48.0068 52.1353C47.7355 53.6443 48.0691 55.1889 48.9482 56.4858H48.9492C49.8256 57.7742 51.1197 58.6298 52.5918 58.9038H52.5908C54.0553 59.1739 55.5621 58.8391 56.8271 57.9497C58.0965 57.058 58.9439 55.7364 59.2148 54.2271C59.4797 52.7506 59.1451 51.2017 58.2656 49.8667V49.8657C57.4463 48.6634 56.2607 47.8388 54.9053 47.5161L54.6318 47.4585C54.2972 47.3972 53.9646 47.3657 53.6328 47.3657Z" fill="#CC922F" stroke="#CC922F" stroke-width="0.5"/>
<mask id="path-5-outside-1_14035_17343" maskUnits="userSpaceOnUse" x="32.0938" y="31.4355" width="43" height="44" fill="black">
<rect fill="white" x="32.0938" y="31.4355" width="43" height="44"/>
<path d="M53.893 74.0999C53.7433 74.0999 53.5913 74.0861 53.4405 74.0585L46.5298 72.7781C45.2097 72.5329 44.3629 71.2975 44.6024 69.9653L45.1539 66.8951C45.0773 66.8444 45.0042 66.7926 44.9363 66.7408L44.8476 66.6827L42.2973 68.476C41.8362 68.8289 41.1925 68.9878 40.5679 68.883C39.9225 68.7776 39.3428 68.4063 38.9749 67.864L34.9923 62.0068C34.6445 61.5342 34.496 60.9044 34.6008 60.27C34.7056 59.6298 35.0677 59.0506 35.5956 58.6805L38.0918 56.8791C38.0717 56.7824 38.055 56.6903 38.04 56.6045C38.0314 56.5607 38.0245 56.5158 38.0175 56.4698L35.0038 55.9114C34.386 55.7956 33.8305 55.4255 33.4816 54.8935C33.1235 54.3466 33.009 53.6932 33.1564 53.053L34.4085 46.0853C34.5254 45.4342 34.8777 44.8764 35.4033 44.5125C35.926 44.1504 36.5651 44.0169 37.2041 44.1349L40.1954 44.6904C40.242 44.6162 40.2904 44.5453 40.3388 44.4791L40.413 44.3588L38.6341 41.7428C38.2876 41.2725 38.139 40.6438 38.2415 40.0094C38.3463 39.3692 38.7084 38.7895 39.2352 38.4176L45.0019 34.3641C45.4642 34.013 46.109 33.8575 46.7319 33.9577C47.3767 34.0625 47.957 34.4338 48.3248 34.9761L50.0945 37.5783C50.1274 37.5702 50.1602 37.561 50.1924 37.5523C50.231 37.5408 50.2713 37.531 50.3122 37.5241C50.3536 37.5161 50.3962 37.5086 50.4388 37.5028L50.9915 34.4269C51.1106 33.7735 51.463 33.2173 51.9892 32.8529C52.5102 32.492 53.148 32.3601 53.7882 32.477L60.6655 33.7516C61.9862 33.9963 62.8324 35.2323 62.5929 36.5644L62.0403 39.6346C62.118 39.6853 62.1911 39.7371 62.2596 39.7889L62.3477 39.8471L64.898 38.0538C65.3603 37.702 66.0051 37.5454 66.628 37.6468C67.2728 37.7515 67.8531 38.1229 68.221 38.6657L72.1726 44.5206C72.5168 44.9875 72.6654 45.6161 72.5629 46.25C72.4581 46.8902 72.096 47.4705 71.5692 47.8418L68.9941 49.6506C69.0045 49.6978 69.0154 49.7439 69.0269 49.7871C69.0379 49.8251 69.0471 49.8625 69.0528 49.9028C69.0615 49.9488 69.0695 49.9949 69.0765 50.0421L72.0891 50.6005C73.2963 50.8251 74.142 51.9425 74.1017 53.2551C74.0994 53.3127 74.0937 53.3702 74.0827 53.4272L72.8202 60.453C72.7022 61.1047 72.3499 61.6626 71.8225 62.027C71.2992 62.3874 70.6625 62.5163 70.0223 62.4018L67.0333 61.8462C66.9861 61.9205 66.9377 61.9913 66.8894 62.0575L66.8151 62.1767L68.5946 64.7938C68.9423 65.267 69.0908 65.8963 68.9861 66.5307C68.8807 67.1708 68.5192 67.75 67.9907 68.1202L62.2262 72.1725C61.7645 72.5248 61.122 72.6826 60.4968 72.5801C59.8532 72.4742 59.2729 72.104 58.9039 71.5628L57.1428 68.9711C57.0657 68.9866 56.9902 69.001 56.9171 69.0148C56.8751 69.0217 56.8337 69.0304 56.7899 69.0361L56.2372 72.1109C56.1204 72.762 55.768 73.3193 55.2419 73.6837C54.8423 73.9572 54.3766 74.0999 53.893 74.0999ZM44.8568 64.0557C45.1458 64.0557 45.4337 64.1623 45.6588 64.3707C45.7791 64.4818 45.9173 64.5652 46.0549 64.6562L46.3249 64.8352C46.4429 64.9227 46.6173 65.0413 46.9593 65.1997C47.4463 65.4248 47.7209 65.9504 47.6254 66.4789L46.9242 70.3827L53.8705 71.7396L54.6184 67.7874C54.7007 67.3274 55.045 66.9624 55.4992 66.8502C55.7416 66.7915 55.9799 66.7592 56.2102 66.731C56.3063 66.7183 56.4007 66.7074 56.4917 66.6913C56.6345 66.6648 56.981 66.6003 57.2038 66.5117C57.7202 66.3056 58.3086 66.4858 58.6189 66.9423L60.8555 70.233L66.6349 66.1876L64.4052 62.8272C64.1013 62.3793 64.1398 61.7817 64.502 61.3782C64.6119 61.2556 64.6942 61.1139 64.784 60.9729L64.9608 60.6994C65.0466 60.5803 65.1646 60.3995 65.3241 60.0472C65.5457 59.5521 66.0702 59.2763 66.6148 59.3701L70.4535 60.0823L71.7425 53.1169C71.7316 52.9966 71.6809 52.9246 71.6585 52.92L67.8197 52.2079C67.3614 52.1227 66.9959 51.775 66.8882 51.3202C66.8295 51.0761 66.8001 50.8377 66.7719 50.6092C66.7621 50.5251 66.7529 50.4416 66.7408 50.3628C66.7092 50.2413 66.681 50.1141 66.6551 49.9828C66.6269 49.8487 66.6033 49.7082 66.5549 49.5821C66.3557 49.0761 66.5301 48.501 66.9734 48.1872L70.2112 45.9121L66.267 39.987L63.0167 42.2592C62.5601 42.5788 61.9447 42.5373 61.5365 42.1591C61.4168 42.048 61.2786 41.9645 61.1405 41.8735L60.8705 41.6945C60.7524 41.607 60.5768 41.4867 60.236 41.3301C59.7484 41.1073 59.4732 40.5788 59.5688 40.0509L60.2717 36.1471L53.3587 34.7959L52.6115 38.7481C52.5292 39.2057 52.1861 39.5719 51.7353 39.6842C51.4912 39.744 51.2546 39.7763 51.0243 39.8045C50.9443 39.8148 50.8654 39.8246 50.79 39.8361C50.6685 39.8684 50.5413 39.8977 50.4129 39.9248C50.2839 39.9519 50.1498 39.9755 50.0318 40.0227C49.5177 40.2362 48.9259 40.0543 48.6121 39.5943L46.3755 36.3037L40.5961 40.3479L42.8258 43.7083C43.1309 44.1573 43.0906 44.7566 42.7268 45.1596C42.618 45.2811 42.5368 45.4204 42.4481 45.5603L42.2702 45.8366C42.1845 45.9552 42.0664 46.136 41.907 46.4883C41.6853 46.9834 41.1643 47.2592 40.6163 47.1653L36.7769 46.4532L35.4695 53.5274L39.2766 54.3029C39.7343 54.3881 40.0987 54.7346 40.2081 55.1871C40.2668 55.4335 40.2979 55.673 40.3261 55.9039C40.3376 56.0029 40.3497 56.0996 40.3647 56.1929C40.3894 56.3333 40.4522 56.6926 40.5431 56.9275C40.74 57.4283 40.5713 57.9983 40.135 58.3126L36.9646 60.6004L40.9271 66.5364L44.1804 64.2682C44.3842 64.1266 44.6214 64.0557 44.8568 64.0557Z"/>
</mask>
<path d="M53.893 74.0999C53.7433 74.0999 53.5913 74.0861 53.4405 74.0585L46.5298 72.7781C45.2097 72.5329 44.3629 71.2975 44.6024 69.9653L45.1539 66.8951C45.0773 66.8444 45.0042 66.7926 44.9363 66.7408L44.8476 66.6827L42.2973 68.476C41.8362 68.8289 41.1925 68.9878 40.5679 68.883C39.9225 68.7776 39.3428 68.4063 38.9749 67.864L34.9923 62.0068C34.6445 61.5342 34.496 60.9044 34.6008 60.27C34.7056 59.6298 35.0677 59.0506 35.5956 58.6805L38.0918 56.8791C38.0717 56.7824 38.055 56.6903 38.04 56.6045C38.0314 56.5607 38.0245 56.5158 38.0175 56.4698L35.0038 55.9114C34.386 55.7956 33.8305 55.4255 33.4816 54.8935C33.1235 54.3466 33.009 53.6932 33.1564 53.053L34.4085 46.0853C34.5254 45.4342 34.8777 44.8764 35.4033 44.5125C35.926 44.1504 36.5651 44.0169 37.2041 44.1349L40.1954 44.6904C40.242 44.6162 40.2904 44.5453 40.3388 44.4791L40.413 44.3588L38.6341 41.7428C38.2876 41.2725 38.139 40.6438 38.2415 40.0094C38.3463 39.3692 38.7084 38.7895 39.2352 38.4176L45.0019 34.3641C45.4642 34.013 46.109 33.8575 46.7319 33.9577C47.3767 34.0625 47.957 34.4338 48.3248 34.9761L50.0945 37.5783C50.1274 37.5702 50.1602 37.561 50.1924 37.5523C50.231 37.5408 50.2713 37.531 50.3122 37.5241C50.3536 37.5161 50.3962 37.5086 50.4388 37.5028L50.9915 34.4269C51.1106 33.7735 51.463 33.2173 51.9892 32.8529C52.5102 32.492 53.148 32.3601 53.7882 32.477L60.6655 33.7516C61.9862 33.9963 62.8324 35.2323 62.5929 36.5644L62.0403 39.6346C62.118 39.6853 62.1911 39.7371 62.2596 39.7889L62.3477 39.8471L64.898 38.0538C65.3603 37.702 66.0051 37.5454 66.628 37.6468C67.2728 37.7515 67.8531 38.1229 68.221 38.6657L72.1726 44.5206C72.5168 44.9875 72.6654 45.6161 72.5629 46.25C72.4581 46.8902 72.096 47.4705 71.5692 47.8418L68.9941 49.6506C69.0045 49.6978 69.0154 49.7439 69.0269 49.7871C69.0379 49.8251 69.0471 49.8625 69.0528 49.9028C69.0615 49.9488 69.0695 49.9949 69.0765 50.0421L72.0891 50.6005C73.2963 50.8251 74.142 51.9425 74.1017 53.2551C74.0994 53.3127 74.0937 53.3702 74.0827 53.4272L72.8202 60.453C72.7022 61.1047 72.3499 61.6626 71.8225 62.027C71.2992 62.3874 70.6625 62.5163 70.0223 62.4018L67.0333 61.8462C66.9861 61.9205 66.9377 61.9913 66.8894 62.0575L66.8151 62.1767L68.5946 64.7938C68.9423 65.267 69.0908 65.8963 68.9861 66.5307C68.8807 67.1708 68.5192 67.75 67.9907 68.1202L62.2262 72.1725C61.7645 72.5248 61.122 72.6826 60.4968 72.5801C59.8532 72.4742 59.2729 72.104 58.9039 71.5628L57.1428 68.9711C57.0657 68.9866 56.9902 69.001 56.9171 69.0148C56.8751 69.0217 56.8337 69.0304 56.7899 69.0361L56.2372 72.1109C56.1204 72.762 55.768 73.3193 55.2419 73.6837C54.8423 73.9572 54.3766 74.0999 53.893 74.0999ZM44.8568 64.0557C45.1458 64.0557 45.4337 64.1623 45.6588 64.3707C45.7791 64.4818 45.9173 64.5652 46.0549 64.6562L46.3249 64.8352C46.4429 64.9227 46.6173 65.0413 46.9593 65.1997C47.4463 65.4248 47.7209 65.9504 47.6254 66.4789L46.9242 70.3827L53.8705 71.7396L54.6184 67.7874C54.7007 67.3274 55.045 66.9624 55.4992 66.8502C55.7416 66.7915 55.9799 66.7592 56.2102 66.731C56.3063 66.7183 56.4007 66.7074 56.4917 66.6913C56.6345 66.6648 56.981 66.6003 57.2038 66.5117C57.7202 66.3056 58.3086 66.4858 58.6189 66.9423L60.8555 70.233L66.6349 66.1876L64.4052 62.8272C64.1013 62.3793 64.1398 61.7817 64.502 61.3782C64.6119 61.2556 64.6942 61.1139 64.784 60.9729L64.9608 60.6994C65.0466 60.5803 65.1646 60.3995 65.3241 60.0472C65.5457 59.5521 66.0702 59.2763 66.6148 59.3701L70.4535 60.0823L71.7425 53.1169C71.7316 52.9966 71.6809 52.9246 71.6585 52.92L67.8197 52.2079C67.3614 52.1227 66.9959 51.775 66.8882 51.3202C66.8295 51.0761 66.8001 50.8377 66.7719 50.6092C66.7621 50.5251 66.7529 50.4416 66.7408 50.3628C66.7092 50.2413 66.681 50.1141 66.6551 49.9828C66.6269 49.8487 66.6033 49.7082 66.5549 49.5821C66.3557 49.0761 66.5301 48.501 66.9734 48.1872L70.2112 45.9121L66.267 39.987L63.0167 42.2592C62.5601 42.5788 61.9447 42.5373 61.5365 42.1591C61.4168 42.048 61.2786 41.9645 61.1405 41.8735L60.8705 41.6945C60.7524 41.607 60.5768 41.4867 60.236 41.3301C59.7484 41.1073 59.4732 40.5788 59.5688 40.0509L60.2717 36.1471L53.3587 34.7959L52.6115 38.7481C52.5292 39.2057 52.1861 39.5719 51.7353 39.6842C51.4912 39.744 51.2546 39.7763 51.0243 39.8045C50.9443 39.8148 50.8654 39.8246 50.79 39.8361C50.6685 39.8684 50.5413 39.8977 50.4129 39.9248C50.2839 39.9519 50.1498 39.9755 50.0318 40.0227C49.5177 40.2362 48.9259 40.0543 48.6121 39.5943L46.3755 36.3037L40.5961 40.3479L42.8258 43.7083C43.1309 44.1573 43.0906 44.7566 42.7268 45.1596C42.618 45.2811 42.5368 45.4204 42.4481 45.5603L42.2702 45.8366C42.1845 45.9552 42.0664 46.136 41.907 46.4883C41.6853 46.9834 41.1643 47.2592 40.6163 47.1653L36.7769 46.4532L35.4695 53.5274L39.2766 54.3029C39.7343 54.3881 40.0987 54.7346 40.2081 55.1871C40.2668 55.4335 40.2979 55.673 40.3261 55.9039C40.3376 56.0029 40.3497 56.0996 40.3647 56.1929C40.3894 56.3333 40.4522 56.6926 40.5431 56.9275C40.74 57.4283 40.5713 57.9983 40.135 58.3126L36.9646 60.6004L40.9271 66.5364L44.1804 64.2682C44.3842 64.1266 44.6214 64.0557 44.8568 64.0557Z" fill="#CC922F"/>
<path d="M53.893 74.0999C53.7433 74.0999 53.5913 74.0861 53.4405 74.0585L46.5298 72.7781C45.2097 72.5329 44.3629 71.2975 44.6024 69.9653L45.1539 66.8951C45.0773 66.8444 45.0042 66.7926 44.9363 66.7408L44.8476 66.6827L42.2973 68.476C41.8362 68.8289 41.1925 68.9878 40.5679 68.883C39.9225 68.7776 39.3428 68.4063 38.9749 67.864L34.9923 62.0068C34.6445 61.5342 34.496 60.9044 34.6008 60.27C34.7056 59.6298 35.0677 59.0506 35.5956 58.6805L38.0918 56.8791C38.0717 56.7824 38.055 56.6903 38.04 56.6045C38.0314 56.5607 38.0245 56.5158 38.0175 56.4698L35.0038 55.9114C34.386 55.7956 33.8305 55.4255 33.4816 54.8935C33.1235 54.3466 33.009 53.6932 33.1564 53.053L34.4085 46.0853C34.5254 45.4342 34.8777 44.8764 35.4033 44.5125C35.926 44.1504 36.5651 44.0169 37.2041 44.1349L40.1954 44.6904C40.242 44.6162 40.2904 44.5453 40.3388 44.4791L40.413 44.3588L38.6341 41.7428C38.2876 41.2725 38.139 40.6438 38.2415 40.0094C38.3463 39.3692 38.7084 38.7895 39.2352 38.4176L45.0019 34.3641C45.4642 34.013 46.109 33.8575 46.7319 33.9577C47.3767 34.0625 47.957 34.4338 48.3248 34.9761L50.0945 37.5783C50.1274 37.5702 50.1602 37.561 50.1924 37.5523C50.231 37.5408 50.2713 37.531 50.3122 37.5241C50.3536 37.5161 50.3962 37.5086 50.4388 37.5028L50.9915 34.4269C51.1106 33.7735 51.463 33.2173 51.9892 32.8529C52.5102 32.492 53.148 32.3601 53.7882 32.477L60.6655 33.7516C61.9862 33.9963 62.8324 35.2323 62.5929 36.5644L62.0403 39.6346C62.118 39.6853 62.1911 39.7371 62.2596 39.7889L62.3477 39.8471L64.898 38.0538C65.3603 37.702 66.0051 37.5454 66.628 37.6468C67.2728 37.7515 67.8531 38.1229 68.221 38.6657L72.1726 44.5206C72.5168 44.9875 72.6654 45.6161 72.5629 46.25C72.4581 46.8902 72.096 47.4705 71.5692 47.8418L68.9941 49.6506C69.0045 49.6978 69.0154 49.7439 69.0269 49.7871C69.0379 49.8251 69.0471 49.8625 69.0528 49.9028C69.0615 49.9488 69.0695 49.9949 69.0765 50.0421L72.0891 50.6005C73.2963 50.8251 74.142 51.9425 74.1017 53.2551C74.0994 53.3127 74.0937 53.3702 74.0827 53.4272L72.8202 60.453C72.7022 61.1047 72.3499 61.6626 71.8225 62.027C71.2992 62.3874 70.6625 62.5163 70.0223 62.4018L67.0333 61.8462C66.9861 61.9205 66.9377 61.9913 66.8894 62.0575L66.8151 62.1767L68.5946 64.7938C68.9423 65.267 69.0908 65.8963 68.9861 66.5307C68.8807 67.1708 68.5192 67.75 67.9907 68.1202L62.2262 72.1725C61.7645 72.5248 61.122 72.6826 60.4968 72.5801C59.8532 72.4742 59.2729 72.104 58.9039 71.5628L57.1428 68.9711C57.0657 68.9866 56.9902 69.001 56.9171 69.0148C56.8751 69.0217 56.8337 69.0304 56.7899 69.0361L56.2372 72.1109C56.1204 72.762 55.768 73.3193 55.2419 73.6837C54.8423 73.9572 54.3766 74.0999 53.893 74.0999ZM44.8568 64.0557C45.1458 64.0557 45.4337 64.1623 45.6588 64.3707C45.7791 64.4818 45.9173 64.5652 46.0549 64.6562L46.3249 64.8352C46.4429 64.9227 46.6173 65.0413 46.9593 65.1997C47.4463 65.4248 47.7209 65.9504 47.6254 66.4789L46.9242 70.3827L53.8705 71.7396L54.6184 67.7874C54.7007 67.3274 55.045 66.9624 55.4992 66.8502C55.7416 66.7915 55.9799 66.7592 56.2102 66.731C56.3063 66.7183 56.4007 66.7074 56.4917 66.6913C56.6345 66.6648 56.981 66.6003 57.2038 66.5117C57.7202 66.3056 58.3086 66.4858 58.6189 66.9423L60.8555 70.233L66.6349 66.1876L64.4052 62.8272C64.1013 62.3793 64.1398 61.7817 64.502 61.3782C64.6119 61.2556 64.6942 61.1139 64.784 60.9729L64.9608 60.6994C65.0466 60.5803 65.1646 60.3995 65.3241 60.0472C65.5457 59.5521 66.0702 59.2763 66.6148 59.3701L70.4535 60.0823L71.7425 53.1169C71.7316 52.9966 71.6809 52.9246 71.6585 52.92L67.8197 52.2079C67.3614 52.1227 66.9959 51.775 66.8882 51.3202C66.8295 51.0761 66.8001 50.8377 66.7719 50.6092C66.7621 50.5251 66.7529 50.4416 66.7408 50.3628C66.7092 50.2413 66.681 50.1141 66.6551 49.9828C66.6269 49.8487 66.6033 49.7082 66.5549 49.5821C66.3557 49.0761 66.5301 48.501 66.9734 48.1872L70.2112 45.9121L66.267 39.987L63.0167 42.2592C62.5601 42.5788 61.9447 42.5373 61.5365 42.1591C61.4168 42.048 61.2786 41.9645 61.1405 41.8735L60.8705 41.6945C60.7524 41.607 60.5768 41.4867 60.236 41.3301C59.7484 41.1073 59.4732 40.5788 59.5688 40.0509L60.2717 36.1471L53.3587 34.7959L52.6115 38.7481C52.5292 39.2057 52.1861 39.5719 51.7353 39.6842C51.4912 39.744 51.2546 39.7763 51.0243 39.8045C50.9443 39.8148 50.8654 39.8246 50.79 39.8361C50.6685 39.8684 50.5413 39.8977 50.4129 39.9248C50.2839 39.9519 50.1498 39.9755 50.0318 40.0227C49.5177 40.2362 48.9259 40.0543 48.6121 39.5943L46.3755 36.3037L40.5961 40.3479L42.8258 43.7083C43.1309 44.1573 43.0906 44.7566 42.7268 45.1596C42.618 45.2811 42.5368 45.4204 42.4481 45.5603L42.2702 45.8366C42.1845 45.9552 42.0664 46.136 41.907 46.4883C41.6853 46.9834 41.1643 47.2592 40.6163 47.1653L36.7769 46.4532L35.4695 53.5274L39.2766 54.3029C39.7343 54.3881 40.0987 54.7346 40.2081 55.1871C40.2668 55.4335 40.2979 55.673 40.3261 55.9039C40.3376 56.0029 40.3497 56.0996 40.3647 56.1929C40.3894 56.3333 40.4522 56.6926 40.5431 56.9275C40.74 57.4283 40.5713 57.9983 40.135 58.3126L36.9646 60.6004L40.9271 66.5364L44.1804 64.2682C44.3842 64.1266 44.6214 64.0557 44.8568 64.0557Z" stroke="#CC922F" mask="url(#path-5-outside-1_14035_17343)"/>
</svg>
