<svg width="74" height="74" viewBox="0 0 74 74" fill="none" xmlns="http://www.w3.org/2000/svg">
<g clip-path="url(#clip0_14035_17362)">
<path d="M41.0107 33.0322C43.9624 33.0325 46.3535 35.426 46.3535 38.376V40.2285C46.3533 41.0681 45.6726 41.7488 44.833 41.749C43.9933 41.749 43.3118 41.0682 43.3115 40.2285V38.376C43.3115 37.1053 42.282 36.0744 41.0107 36.0742C40.3749 36.0742 39.8015 36.3306 39.3848 36.748L39.3828 36.749H39.3818C38.9644 37.1657 38.709 37.7399 38.709 38.376V45.9639C38.709 46.8036 38.0282 47.4841 37.1885 47.4844C36.3486 47.4844 35.667 46.8038 35.667 45.9639V38.376C35.667 36.9019 36.2662 35.5626 37.2324 34.5977C38.1972 33.6317 39.5365 33.0322 41.0107 33.0322Z" fill="#0D257B" stroke="#0D257B" stroke-width="0.9" stroke-miterlimit="10" stroke-linecap="round" stroke-linejoin="round"/>
<path d="M48.6592 34.8838C51.6108 34.884 54.002 37.2776 54.002 40.2275V43.1211C54.002 43.9609 53.3212 44.6414 52.4814 44.6416C51.6415 44.6416 50.96 43.961 50.96 43.1211V40.2275C50.96 38.9568 49.9304 37.926 48.6592 37.9258C48.0233 37.9258 47.45 38.1822 47.0332 38.5996H47.0322V38.6006C46.6135 39.0193 46.3574 39.5922 46.3574 40.2275V45.9629C46.3574 46.8026 45.6766 47.4831 44.8369 47.4834C43.997 47.4834 43.3154 46.8028 43.3154 45.9629V40.2275C43.3154 38.7525 43.9158 37.4154 44.8809 36.4502C45.8457 35.484 47.1846 34.8838 48.6592 34.8838Z" fill="#0D257B" stroke="#0D257B" stroke-width="0.9" stroke-miterlimit="10" stroke-linecap="round" stroke-linejoin="round"/>
<mask id="path-3-outside-1_14035_17362" maskUnits="userSpaceOnUse" x="10.9062" y="14.7754" width="29" height="43" fill="black">
<rect fill="white" x="10.9062" y="14.7754" width="29" height="43"/>
<path fill-rule="evenodd" clip-rule="evenodd" d="M31.423 18.723C31.9351 18.2099 32.6473 17.8994 33.4349 17.9178L31.423 18.723ZM33.4354 17.9178C34.9132 17.9534 36.119 19.2107 36.119 20.7464V38.3747C36.119 38.966 36.5984 39.4455 37.1898 39.4455C37.7812 39.4455 38.2606 38.966 38.2606 38.3747V20.7464C38.2606 18.1047 36.1828 15.8413 33.4862 15.7768L33.4857 15.7768C32.0891 15.7439 30.817 16.2985 29.9071 17.2102C29.0247 18.0945 28.4749 19.3183 28.4749 20.6693V51.4713C28.4749 51.5267 28.4603 51.5496 28.4513 51.5616C28.4377 51.5796 28.4115 51.6014 28.3724 51.6149C28.3332 51.6284 28.2992 51.6274 28.2773 51.6216C28.2628 51.6177 28.2372 51.6086 28.2029 51.5649L20.8477 42.1611C19.8644 40.9033 18.393 40.2407 16.906 40.2407C15.9087 40.2407 14.9043 40.5375 14.0316 41.1507L14.0312 41.151C11.7228 42.7747 11.2135 45.9846 12.9067 48.2415C12.9068 48.2417 12.9069 48.2418 12.907 48.242L18.4635 55.6543C18.8182 56.1275 19.4893 56.2236 19.9625 55.8688C20.4357 55.5141 20.5318 54.843 20.1771 54.3698L14.62 46.9566C13.6524 45.6671 13.9425 43.832 15.2629 42.9029C15.7638 42.551 16.3355 42.3823 16.906 42.3823C17.7605 42.3823 18.5991 42.762 19.1606 43.4801L19.1607 43.4803L26.5168 52.8853C27.8609 54.6016 30.6165 53.6514 30.6165 51.4713V20.6693C30.6165 19.9102 30.9234 19.2236 31.423 18.723"/>
</mask>
<path fill-rule="evenodd" clip-rule="evenodd" d="M31.423 18.723C31.9351 18.2099 32.6473 17.8994 33.4349 17.9178L31.423 18.723ZM33.4354 17.9178C34.9132 17.9534 36.119 19.2107 36.119 20.7464V38.3747C36.119 38.966 36.5984 39.4455 37.1898 39.4455C37.7812 39.4455 38.2606 38.966 38.2606 38.3747V20.7464C38.2606 18.1047 36.1828 15.8413 33.4862 15.7768L33.4857 15.7768C32.0891 15.7439 30.817 16.2985 29.9071 17.2102C29.0247 18.0945 28.4749 19.3183 28.4749 20.6693V51.4713C28.4749 51.5267 28.4603 51.5496 28.4513 51.5616C28.4377 51.5796 28.4115 51.6014 28.3724 51.6149C28.3332 51.6284 28.2992 51.6274 28.2773 51.6216C28.2628 51.6177 28.2372 51.6086 28.2029 51.5649L20.8477 42.1611C19.8644 40.9033 18.393 40.2407 16.906 40.2407C15.9087 40.2407 14.9043 40.5375 14.0316 41.1507L14.0312 41.151C11.7228 42.7747 11.2135 45.9846 12.9067 48.2415C12.9068 48.2417 12.9069 48.2418 12.907 48.242L18.4635 55.6543C18.8182 56.1275 19.4893 56.2236 19.9625 55.8688C20.4357 55.5141 20.5318 54.843 20.1771 54.3698L14.62 46.9566C13.6524 45.6671 13.9425 43.832 15.2629 42.9029C15.7638 42.551 16.3355 42.3823 16.906 42.3823C17.7605 42.3823 18.5991 42.762 19.1606 43.4801L19.1607 43.4803L26.5168 52.8853C27.8609 54.6016 30.6165 53.6514 30.6165 51.4713V20.6693C30.6165 19.9102 30.9234 19.2236 31.423 18.723" fill="#0D257B"/>
<path d="M31.423 18.723L31.2558 18.3052C31.0251 18.3976 30.9129 18.6595 31.0052 18.8902C31.0975 19.1209 31.3594 19.2331 31.5902 19.1408L31.423 18.723ZM33.6021 18.3356C33.8329 18.2432 33.945 17.9813 33.8527 17.7506C33.7603 17.5198 33.4984 17.4076 33.2677 17.5L33.6021 18.3356ZM33.6025 18.3356C33.8333 18.2432 33.9455 17.9813 33.8531 17.7506C33.7608 17.5199 33.4989 17.4077 33.2682 17.5L33.6025 18.3356ZM31.5902 19.1408L33.6021 18.3356L33.2677 17.5L31.2558 18.3052L31.5902 19.1408ZM31.5902 19.1408L33.6025 18.3356L33.2682 17.5L31.2558 18.3052L31.5902 19.1408ZM31.423 18.723L30.786 18.0872L30.7859 18.0873L31.423 18.723ZM33.4139 18.8175C33.9108 18.8291 34.3231 18.4357 34.3347 17.9388C34.3463 17.4419 33.9529 17.0296 33.4559 17.018L33.4139 18.8175ZM33.457 17.018C32.9601 17.0061 32.5476 17.3992 32.5356 17.8961C32.5236 18.393 32.9168 18.8055 33.4137 18.8175L33.457 17.018ZM33.4862 15.7768L33.5077 14.877L33.5073 14.877L33.4862 15.7768ZM33.4857 15.7768L33.4646 16.6765L33.4646 16.6765L33.4857 15.7768ZM29.9071 17.2102L29.2701 16.5745L29.2701 16.5745L29.9071 17.2102ZM28.4513 51.5616L29.1688 52.1049L29.1688 52.1048L28.4513 51.5616ZM28.3724 51.6149L28.6658 52.4657L28.6659 52.4657L28.3724 51.6149ZM28.2773 51.6216L28.5072 50.7514L28.5071 50.7514L28.2773 51.6216ZM28.2029 51.5649L27.494 52.1194L27.4943 52.1198L28.2029 51.5649ZM20.8477 42.1611L20.1387 42.7154L20.1388 42.7156L20.8477 42.1611ZM14.0316 41.1507L13.5142 40.4143L13.5132 40.415L14.0316 41.1507ZM14.0312 41.151L14.549 41.8871L14.5497 41.8866L14.0312 41.151ZM12.9067 48.2415L12.1868 48.7816L12.1868 48.7817L12.9067 48.2415ZM12.907 48.242L13.6272 47.7021L13.6269 47.7017L12.907 48.242ZM18.4635 55.6543L17.7433 56.1941L17.7433 56.1941L18.4635 55.6543ZM19.9625 55.8688L20.5024 56.589H20.5024L19.9625 55.8688ZM20.1771 54.3698L20.8972 53.83L20.8972 53.83L20.1771 54.3698ZM14.62 46.9566L15.3401 46.4167L15.3399 46.4164L14.62 46.9566ZM15.2629 42.9029L14.7455 42.1665L14.745 42.1669L15.2629 42.9029ZM19.1606 43.4801L18.4515 44.0345L18.4527 44.036L19.1606 43.4801ZM19.1607 43.4803L19.8696 42.9258L19.8685 42.9245L19.1607 43.4803ZM26.5168 52.8853L25.8079 53.4398L25.8082 53.4403L26.5168 52.8853ZM32.06 19.3588C32.4048 19.0133 32.8819 18.8051 33.4139 18.8175L33.4559 17.018C32.4128 16.9936 31.4653 17.4066 30.786 18.0872L32.06 19.3588ZM33.4137 18.8175C34.3821 18.8409 35.219 19.6781 35.219 20.7464H37.019C37.019 18.7434 35.4443 17.0659 33.457 17.018L33.4137 18.8175ZM35.219 20.7464V38.3747H37.019V20.7464H35.219ZM35.219 38.3747C35.219 39.4631 36.1013 40.3455 37.1898 40.3455V38.5455C37.0955 38.5455 37.019 38.469 37.019 38.3747H35.219ZM37.1898 40.3455C38.2782 40.3455 39.1606 39.4631 39.1606 38.3747H37.3606C37.3606 38.469 37.2841 38.5455 37.1898 38.5455V40.3455ZM39.1606 38.3747V20.7464H37.3606V38.3747H39.1606ZM39.1606 20.7464C39.1606 17.6415 36.7179 14.9539 33.5077 14.877L33.4646 16.6765C35.6477 16.7288 37.3606 18.5679 37.3606 20.7464H39.1606ZM33.5073 14.877L33.5069 14.877L33.4646 16.6765L33.465 16.6765L33.5073 14.877ZM33.5069 14.877C31.8542 14.8381 30.3469 15.4954 29.2701 16.5745L30.5441 17.846C31.287 17.1017 32.3239 16.6497 33.4646 16.6765L33.5069 14.877ZM29.2701 16.5745C28.2268 17.6199 27.5749 19.0693 27.5749 20.6693H29.3749C29.3749 19.5672 29.8225 18.5691 30.5442 17.846L29.2701 16.5745ZM27.5749 20.6693V51.4713H29.3749V20.6693H27.5749ZM27.5749 51.4713C27.5749 51.4204 27.5816 51.3404 27.6136 51.2455C27.6488 51.1409 27.6995 51.0636 27.7338 51.0183L29.1688 52.1048C29.2957 51.9374 29.3749 51.7239 29.3749 51.4713H27.5749ZM27.7339 51.0182C27.8327 50.8878 27.9569 50.8062 28.0789 50.7641L28.6659 52.4657C28.8662 52.3966 29.0427 52.2714 29.1688 52.1049L27.7339 51.0182ZM28.079 50.7641C28.201 50.722 28.3491 50.7097 28.5072 50.7514L28.0474 52.4917C28.2493 52.5451 28.4655 52.5348 28.6658 52.4657L28.079 50.7641ZM28.5071 50.7514C28.5623 50.766 28.6498 50.7956 28.7419 50.8562C28.8255 50.9112 28.8801 50.9699 28.9114 51.01L27.4943 52.1198C27.6501 52.3187 27.8441 52.438 28.0475 52.4917L28.5071 50.7514ZM28.9118 51.0104L21.5567 41.6066L20.1388 42.7156L27.494 52.1194L28.9118 51.0104ZM21.5568 41.6068C20.396 40.122 18.6586 39.3407 16.906 39.3407V41.1407C18.1274 41.1407 19.3328 41.6845 20.1387 42.7154L21.5568 41.6068ZM16.906 39.3407C15.7294 39.3407 14.5431 39.6913 13.5142 40.4143L14.5491 41.8871C15.2654 41.3837 16.0881 41.1407 16.906 41.1407V39.3407ZM13.5132 40.415L13.5128 40.4153L14.5497 41.8866L14.5501 41.8864L13.5132 40.415ZM13.5135 40.4148C10.79 42.3305 10.1885 46.1181 12.1868 48.7816L13.6266 47.7014C12.2384 45.8511 12.6557 43.2188 14.549 41.8871L13.5135 40.4148ZM12.1868 48.7817L12.1872 48.7822L13.6269 47.7017L13.6266 47.7014L12.1868 48.7817ZM12.1869 48.7818L17.7433 56.1941L19.1836 55.1145L13.6272 47.7021L12.1869 48.7818ZM17.7433 56.1941C18.3962 57.0651 19.6314 57.2418 20.5024 56.589L19.4227 55.1487C19.3472 55.2053 19.2402 55.19 19.1836 55.1145L17.7433 56.1941ZM20.5024 56.589C21.3733 55.9361 21.55 54.7009 20.8972 53.83L19.4569 54.9096C19.5135 54.9851 19.4982 55.0921 19.4227 55.1487L20.5024 56.589ZM15.3399 46.4164C14.6773 45.5334 14.8755 44.276 15.7809 43.639L14.745 42.1669C13.0096 43.388 12.6275 45.8009 13.9001 47.4967L15.3399 46.4164ZM15.7804 43.6393C16.125 43.3971 16.515 43.2823 16.906 43.2823V41.4823C16.1561 41.4823 15.4025 41.7049 14.7455 42.1665L15.7804 43.6393ZM16.906 43.2823C17.4943 43.2823 18.0672 43.5429 18.4515 44.0345L19.8696 42.9258C19.131 41.9811 18.0266 41.4823 16.906 41.4823V43.2823ZM18.4527 44.036L18.4529 44.0362L19.8685 42.9245L19.8684 42.9243L18.4527 44.036ZM25.8082 53.4403C27.6796 55.8298 31.5165 54.5071 31.5165 51.4713H29.7165C29.7165 52.7957 28.0422 53.3735 27.2254 52.3304L25.8082 53.4403ZM31.5165 51.4713V20.6693H29.7165V51.4713H31.5165ZM31.5165 20.6693C31.5165 20.1587 31.7215 19.698 32.0601 19.3587L30.7859 18.0873C30.1253 18.7493 29.7165 19.6617 29.7165 20.6693H31.5165ZM20.8972 53.83L15.3401 46.4167L13.8999 47.4964L19.4569 54.9096L20.8972 53.83ZM18.4518 44.0348L25.8079 53.4398L27.2257 52.3309L19.8696 42.9259L18.4518 44.0348Z" fill="#0D257B" mask="url(#path-3-outside-1_14035_17362)"/>
<path d="M56.3066 37.7783C59.258 37.7783 61.6494 40.1697 61.6514 43.1191V60.2441C61.6514 62.3776 61.0734 64.4692 59.9834 66.2979L59.7588 66.6602C58.372 68.8078 56.485 70.531 54.3086 71.7168H54.3076C52.1312 72.901 49.6615 73.5508 47.1045 73.5508H38.8525C34.1105 73.5508 29.6431 71.3164 26.7988 67.5225L21.1035 59.9238C20.6001 59.2518 20.7372 58.2986 21.4092 57.7949C22.0812 57.2915 23.0344 57.4277 23.5381 58.0996L29.2334 65.6982L29.4492 65.9785C31.7256 68.8358 35.1864 70.5097 38.8525 70.5098H47.1045C49.1445 70.5098 51.1152 69.9907 52.8535 69.0449C54.5918 68.0977 56.0972 66.7226 57.2031 65.0098H57.2041C58.1216 63.5896 58.6094 61.9344 58.6094 60.2441V43.1211C58.6085 41.8502 57.5785 40.8203 56.3066 40.8203C55.6703 40.8203 55.097 41.0759 54.6777 41.4951C54.2604 41.9125 54.0039 42.4873 54.0039 43.123V47.0078C54.0038 47.8476 53.3232 48.5282 52.4834 48.5283C51.6435 48.5283 50.962 47.8477 50.9619 47.0078V43.123C50.9619 41.6484 51.5628 40.3093 52.5273 39.3447C53.4928 38.3793 54.8299 37.7783 56.3066 37.7783Z" fill="#0D257B" stroke="#0D257B" stroke-width="0.9" stroke-miterlimit="10" stroke-linecap="round" stroke-linejoin="round"/>
<path fill-rule="evenodd" clip-rule="evenodd" d="M44.8143 8.51414C45.3743 8.32406 45.9824 8.62396 46.1725 9.18397C46.6351 10.547 46.8846 12.0038 46.8846 13.5158C46.8846 17.7479 44.9286 21.5301 41.8789 24.0083C41.42 24.3812 40.7456 24.3115 40.3726 23.8526C39.9997 23.3936 40.0694 22.7192 40.5284 22.3462C43.1011 20.2557 44.743 17.0734 44.743 13.5158C44.743 12.2408 44.5328 11.0164 44.1445 9.87228C43.9544 9.31227 44.2543 8.70421 44.8143 8.51414Z" fill="#CC922F" stroke="#CC922F" stroke-width="0.2" stroke-miterlimit="10" stroke-linecap="round" stroke-linejoin="round"/>
<path fill-rule="evenodd" clip-rule="evenodd" d="M33.3679 2.1416C27.0963 2.1416 21.9932 7.24598 21.9932 13.5164C21.9932 17.074 23.6351 20.2564 26.2066 22.347C26.6655 22.72 26.735 23.3945 26.3619 23.8533C25.9889 24.3122 25.3145 24.3818 24.8556 24.0087C21.8075 21.5306 19.8516 17.7485 19.8516 13.5164C19.8516 6.06336 25.9133 0 33.3679 0C37.3497 0 40.9341 1.73079 43.4067 4.47604C43.8025 4.91547 43.7671 5.59254 43.3277 5.98832C42.8883 6.3841 42.2112 6.34872 41.8154 5.9093C39.7307 3.59465 36.7161 2.1416 33.3679 2.1416Z" fill="#CC922F" stroke="#CC922F" stroke-width="0.2" stroke-miterlimit="10" stroke-linecap="round" stroke-linejoin="round"/>
<path fill-rule="evenodd" clip-rule="evenodd" d="M33.3664 6.81543C29.666 6.81543 26.665 9.8164 26.665 13.5168C26.665 14.6058 26.9245 15.6305 27.3838 16.538C27.6509 17.0656 27.4397 17.7099 26.912 17.977C26.3844 18.2441 25.7402 18.0328 25.4731 17.5052C24.8659 16.3056 24.5234 14.9505 24.5234 13.5168C24.5234 8.63363 28.4832 4.67383 33.3664 4.67383C38.2498 4.67383 42.2079 8.63389 42.2079 13.5168C42.2079 14.9602 41.8605 16.3264 41.2452 17.5325C40.9764 18.0593 40.3315 18.2685 39.8047 17.9997C39.2779 17.7309 39.0687 17.086 39.3375 16.5592C39.803 15.6469 40.0663 14.6133 40.0663 13.5168C40.0663 9.81615 37.0665 6.81543 33.3664 6.81543Z" fill="#CC922F" stroke="#CC922F" stroke-width="0.2" stroke-miterlimit="10" stroke-linecap="round" stroke-linejoin="round"/>
</g>
<defs>
<clipPath id="clip0_14035_17362">
<rect width="73.1" height="73.1" fill="white"/>
</clipPath>
</defs>
</svg>
