<svg width="69" height="69" viewBox="0 0 69 69" fill="none" xmlns="http://www.w3.org/2000/svg">
<path d="M43.7584 30.1736C43.7584 29.0383 42.8378 28.1177 41.7025 28.1177H19.0872C17.9519 28.1177 17.0312 29.0383 17.0312 30.1736C17.0312 31.3089 17.9519 32.2296 19.0872 32.2296H41.7025C42.8378 32.2296 43.7584 31.3089 43.7584 30.1736Z" fill="#0D257B"/>
<path d="M19.0794 38.5C17.944 38.5 17.0234 39.4206 17.0234 40.5559C17.0234 41.6913 17.944 42.6119 19.0794 42.6119H31.0701C32.2054 42.6119 33.126 41.6913 33.126 40.5559C33.126 39.4206 32.2054 38.5 31.0701 38.5H19.0794Z" fill="#0D257B"/>
<path d="M57.3052 30.2874C56.1698 30.2874 55.2492 31.208 55.2492 32.3433V48.9713C55.2492 52.0826 52.7182 54.6137 49.6068 54.6137H35.8549C35.4095 54.6137 34.9754 54.7576 34.6191 55.0271L22.7449 63.9568C22.4433 64.1829 22.1601 64.0893 22.0184 64.0116C21.8745 63.9385 21.637 63.758 21.6461 63.3902L21.8745 56.7427C21.8928 56.1853 21.6849 55.6439 21.2989 55.2442C20.9128 54.8421 20.3783 54.616 19.8209 54.616H10.2699C7.15859 54.616 4.6275 52.0872 4.6275 48.9735V21.7895C4.6275 18.6667 7.15859 16.1265 10.2699 16.1265H35.6036C36.739 16.1265 37.6596 15.2059 37.6596 14.0706C37.6596 12.9353 36.739 12.0146 35.6036 12.0146H10.2699C4.89249 12.0146 0.515625 16.4006 0.515625 21.7918V48.9735C0.515625 54.351 4.89249 58.7301 10.2699 58.7301H17.6918L17.5365 63.2577C17.4817 65.1172 18.4708 66.8077 20.1224 67.6643C20.8283 68.0321 21.589 68.2126 22.3428 68.2126C23.3548 68.2126 24.3576 67.8859 25.212 67.2485L36.5402 58.7301H49.6046C54.982 58.7301 59.3588 54.3533 59.3588 48.9735V32.3456C59.3611 31.208 58.4405 30.2874 57.3052 30.2874Z" fill="#0D257B"/>
<path d="M68.4183 10.7036C68.0459 9.56146 67.1299 8.7071 65.9671 8.41927L60.7131 7.11032L57.8439 2.51873C56.5715 0.476499 53.25 0.481068 51.9799 2.51873L49.1107 7.11032L43.8567 8.41927C42.6939 8.7071 41.7756 9.56146 41.4055 10.7036C41.0355 11.8458 41.273 13.0771 42.0452 13.9977L45.5265 18.1416L45.1473 23.5418C45.0628 24.7388 45.5928 25.8742 46.5637 26.5801C47.1667 27.0187 47.8749 27.2448 48.5922 27.2448C49.0285 27.2448 49.4694 27.1603 49.892 26.989L54.913 24.9604L59.9318 26.989C61.0443 27.4413 62.287 27.2859 63.2601 26.5823C64.231 25.8765 64.761 24.7411 64.6787 23.5418L64.2995 18.1416L67.7809 13.9954C68.5508 13.0771 68.7906 11.8458 68.4183 10.7036ZM60.6148 16.1336C60.2722 16.5425 60.1009 17.0679 60.1397 17.6025L60.5052 22.788L55.6852 20.8394C55.4384 20.7389 55.1757 20.6887 54.9153 20.6887C54.6549 20.6887 54.3922 20.7389 54.1455 20.8394L49.3277 22.788L49.691 17.6025C49.7275 17.0702 49.5562 16.5425 49.2158 16.1336L45.8738 12.1542L50.9177 10.8955C51.4339 10.7653 51.8817 10.4432 52.1627 9.99092L54.9176 5.58436L57.6726 9.99092C57.9558 10.4432 58.4013 10.7676 58.9176 10.8955L63.9615 12.1542L60.6148 16.1336Z" fill="#CC922F"/>
</svg>
