<svg width="251" height="296" viewBox="0 0 251 296" fill="none" xmlns="http://www.w3.org/2000/svg">
<path d="M145.242 280.521H29.5V296.001H145.242V280.521Z" fill="#0B0B0B"/>
<path d="M165.587 181.243C168.677 181.321 170.743 178.091 169.369 175.318L147.799 131.802C147.341 130.704 146.816 129.643 146.223 128.623L146.218 128.618C141.769 120.967 133.69 115.656 124.242 115.125L63.1376 111.692L63.1168 111.666L62.6641 111.676L62.5653 111.671C62.4977 111.671 62.4352 111.682 62.3676 111.682L52.2434 111.874C34.5546 112.212 18.6086 123.661 13.7182 140.665C13.5205 141.352 13.3436 142.044 13.1771 142.746L0.508845 185.727C-0.359987 188.676 1.75746 191.662 4.83219 191.818L35.2725 193.352L25.4761 274.659C25.0911 277.848 27.5779 280.651 30.7879 280.651H146.098C148.705 280.651 150.812 278.519 150.77 275.913L150.728 180.827L165.587 181.243Z" fill="white" stroke="black" stroke-width="0.172945" stroke-miterlimit="10"/>
<path d="M146.095 280.968H30.7902C29.167 280.968 27.6218 280.271 26.5449 279.059C25.468 277.847 24.9633 276.229 25.161 274.622L34.9159 193.653L4.81889 192.134C3.25811 192.056 1.84301 191.281 0.937765 190.002C0.0325149 188.727 -0.232818 187.136 0.209402 185.632L12.8777 142.651C13.0338 141.965 13.2159 141.263 13.4136 140.571C18.2312 123.827 34.1927 111.894 52.2405 111.551L62.4427 111.353C62.4844 111.348 62.526 111.348 62.5676 111.348L62.6769 111.353L63.1139 111.343C63.1607 111.338 63.2179 111.353 63.2647 111.379L124.26 114.807C133.515 115.327 141.829 120.43 146.496 128.456C147.089 129.481 147.625 130.563 148.093 131.676L169.652 175.177C170.344 176.576 170.261 178.199 169.418 179.521C168.575 180.837 167.129 181.612 165.579 181.56L151.048 181.149L151.09 275.907C151.11 277.249 150.601 278.518 149.654 279.48C148.707 280.437 147.443 280.968 146.095 280.968ZM62.5572 111.988L62.4896 111.993C62.4531 111.998 62.4115 111.998 62.3751 111.998L52.2561 112.191C34.4892 112.529 18.767 124.274 14.0327 140.753C13.8402 141.429 13.6581 142.126 13.4968 142.818L0.823307 185.82C0.438316 187.131 0.66723 188.525 1.45802 189.638C2.24882 190.751 3.48703 191.432 4.8501 191.5L35.2904 193.034C35.3789 193.04 35.4621 193.081 35.5194 193.149C35.5766 193.216 35.6026 193.305 35.5922 193.393L25.7957 274.7C25.624 276.13 26.0715 277.566 27.0287 278.643C27.9808 279.719 29.3543 280.338 30.7954 280.338H146.106C147.281 280.338 148.384 279.876 149.206 279.038C150.033 278.201 150.476 277.093 150.46 275.917L150.418 180.826C150.418 180.743 150.455 180.66 150.517 180.597C150.58 180.535 150.658 180.504 150.746 180.509L165.605 180.93C166.947 180.987 168.175 180.311 168.893 179.182C169.616 178.054 169.689 176.665 169.096 175.463L147.526 131.946C147.063 130.838 146.537 129.783 145.96 128.789C141.397 120.94 133.276 115.957 124.234 115.447L63.1295 112.014C63.0931 112.014 63.0566 112.003 63.0254 111.988L62.6821 111.993L62.5572 111.988Z" fill="#0B0B0B"/>
<path d="M183.904 141.866C187.639 135.021 188.914 126.75 185.553 119.489L181.255 121.055C181.255 121.055 177.14 109.205 176.474 100.55C174.82 97.6057 162.869 103.816 162.869 103.816C162.869 103.816 164.056 100.586 164.649 98.9685C165.278 97.2572 165.918 95.4314 165.538 93.6473C165.164 91.8631 163.333 90.2558 161.595 90.8228C159.888 91.3794 156.658 98.4536 155.638 100.118C149.509 110.136 149.582 123.239 150.659 134.563C151.231 140.597 148.5 202.751 149.546 205.508C155.841 222.169 179.294 222.507 186.057 206.034C186.916 202.793 187.41 199.48 187.535 196.156C187.707 191.662 180.257 151.463 180.142 150.101C179.981 148.186 180.886 146.506 181.937 144.904C182.618 143.869 183.357 142.87 183.904 141.866Z" fill="white" stroke="#262433" stroke-width="0.172945" stroke-miterlimit="10"/>
<path d="M167.936 218.517C167.832 218.517 167.727 218.517 167.629 218.517C159.252 218.398 152.213 213.456 149.253 205.623C148.702 204.156 149.097 189.081 149.763 166.252C150.2 151.354 150.611 137.289 150.351 134.589C149.336 123.936 148.993 110.376 155.377 99.9464C155.621 99.5458 156.011 98.802 156.464 97.9386C158.378 94.2714 160.205 90.9424 161.51 90.521C162.265 90.2714 163.102 90.3806 163.867 90.8227C164.861 91.3949 165.626 92.4508 165.86 93.5796C166.266 95.5094 165.542 97.486 164.955 99.0777L163.451 103.166C166.255 101.772 175.193 97.6109 176.754 100.394C176.775 100.435 176.79 100.477 176.796 100.524C177.389 108.269 180.812 118.729 181.452 120.644L185.447 119.187C185.604 119.13 185.775 119.203 185.843 119.354C188.964 126.1 188.361 134.36 184.183 142.017C183.793 142.735 183.304 143.453 182.825 144.155C182.617 144.462 182.409 144.769 182.206 145.076C181.057 146.834 180.318 148.353 180.463 150.069C180.495 150.418 181.051 153.575 181.821 157.945C183.975 170.137 187.981 192.832 187.856 196.166C187.731 199.521 187.227 202.871 186.368 206.117C183.216 213.805 176.171 218.517 167.936 218.517ZM162.327 91.0256C162.124 91.0256 161.916 91.0568 161.698 91.1244C160.532 91.5041 158.248 95.8839 157.021 98.2351C156.547 99.1453 156.167 99.8632 155.912 100.284C149.628 110.553 149.976 123.983 150.98 134.532C151.24 137.268 150.829 151.354 150.392 166.272C149.877 183.927 149.295 203.937 149.846 205.399C152.713 212.983 159.528 217.763 167.634 217.883C175.745 217.971 182.685 213.415 185.765 205.919C186.602 202.757 187.097 199.459 187.222 196.15C187.346 192.884 183.346 170.231 181.197 158.064C180.396 153.513 179.865 150.511 179.829 150.132C179.657 148.124 180.614 146.35 181.676 144.732C181.879 144.42 182.092 144.108 182.3 143.801C182.789 143.083 183.247 142.407 183.627 141.721C187.648 134.345 188.288 126.412 185.39 119.895L181.369 121.361C181.291 121.387 181.202 121.387 181.124 121.351C181.046 121.315 180.989 121.247 180.958 121.169C180.916 121.049 176.848 109.247 176.166 100.659C174.959 98.8228 167.488 101.783 163.019 104.108C162.905 104.17 162.759 104.149 162.66 104.066C162.561 103.978 162.525 103.842 162.572 103.718L164.351 98.8696C164.908 97.356 165.6 95.473 165.23 93.7252C165.033 92.7837 164.367 91.8631 163.539 91.3897C163.238 91.2024 162.816 91.0256 162.327 91.0256Z" fill="#0B0B0B"/>
<path d="M160.5 110.458L171.628 121.542L179.942 105.397L178.168 98.0571L163.06 103.67L160.5 110.458Z" fill="#0B0B0B"/>
<path d="M178.154 127.198C175.178 127.713 172.348 125.715 171.833 122.74L166.807 93.6367C166.292 90.6614 168.29 87.8317 171.266 87.3167C174.242 86.8018 177.072 88.7992 177.587 91.7745L182.613 120.878C183.128 123.853 181.13 126.683 178.154 127.198Z" fill="white" stroke="#262433" stroke-width="0.172945" stroke-miterlimit="10"/>
<path d="M177.21 127.598C176.024 127.598 174.874 127.234 173.886 126.537C172.622 125.647 171.784 124.316 171.519 122.792L166.493 93.6886C166.228 92.1645 166.576 90.6301 167.466 89.3661C168.356 88.1021 169.687 87.2646 171.212 86.9993C172.736 86.7341 174.271 87.0826 175.535 87.972C176.799 88.8615 177.637 90.1931 177.902 91.7172L182.928 120.82C183.469 123.962 181.352 126.963 178.209 127.51C177.876 127.567 177.543 127.598 177.21 127.598ZM172.211 87.5559C171.914 87.5559 171.618 87.5819 171.321 87.6339C169.963 87.868 168.782 88.617 167.986 89.7406C167.195 90.8641 166.883 92.2322 167.117 93.5846L172.143 122.688C172.377 124.045 173.126 125.226 174.25 126.022C175.374 126.813 176.737 127.125 178.095 126.891C180.894 126.407 182.777 123.738 182.293 120.94L177.268 91.8368C177.033 90.4792 176.284 89.2985 175.161 88.5026C174.292 87.8784 173.267 87.5559 172.211 87.5559Z" fill="#0B0B0B"/>
<path d="M177.993 91.7695L166.51 93.7513C164.783 94.0478 163.144 92.8931 162.848 91.1661L162.218 87.5198C161.922 85.7928 163.077 84.1543 164.804 83.8578L176.286 81.876C178.013 81.5795 179.652 82.7343 179.949 84.4612L180.578 88.1076C180.875 89.8345 179.72 91.473 177.993 91.7695Z" fill="#FFF9F3"/>
<path d="M166.549 94.0061C164.546 94.0061 162.767 92.5601 162.413 90.521L162.023 88.274C161.627 85.9904 163.167 83.8162 165.446 83.4208L175.529 81.6783C177.813 81.283 179.987 82.8174 180.383 85.101L180.773 87.3481C181.168 89.6316 179.628 91.8059 177.35 92.2012L167.267 93.9437C167.023 93.9905 166.783 94.0061 166.549 94.0061ZM176.252 82.2609C176.049 82.2609 175.846 82.2765 175.643 82.3129L165.561 84.0554C163.625 84.3883 162.325 86.2349 162.658 88.1699L163.048 90.417C163.381 92.352 165.228 93.6524 167.163 93.3195L177.246 91.577C179.181 91.2441 180.482 89.3975 180.149 87.4625L179.758 85.2154C179.457 83.4833 177.948 82.2609 176.252 82.2609Z" fill="#0B0B0B"/>
<path d="M150.036 78.4379L146.623 79.0257C145.452 79.2286 144.333 78.4431 144.131 77.2675L143.876 75.7747C143.673 74.6043 144.458 73.486 145.634 73.2831L149.047 72.6953L150.036 78.4379Z" fill="#F8EEE2"/>
<path d="M146.641 79.3064C146.038 79.3064 145.45 79.1192 144.945 78.7655C144.3 78.3129 143.873 77.6315 143.738 76.8512L143.644 76.3103C143.369 74.703 144.451 73.1737 146.053 72.8928L148.993 72.3831C149.076 72.3674 149.159 72.3883 149.232 72.4351C149.3 72.4819 149.347 72.5599 149.362 72.6431L150.351 78.3805C150.366 78.4638 150.345 78.547 150.299 78.6198C150.252 78.6874 150.174 78.7342 150.09 78.7498L147.151 79.2544C146.985 79.2908 146.813 79.3064 146.641 79.3064ZM148.785 73.0697L146.157 73.5222C144.898 73.7407 144.05 74.9423 144.269 76.201L144.362 76.742C144.466 77.3506 144.805 77.8864 145.309 78.2401C145.814 78.599 146.433 78.7342 147.042 78.6302L149.664 78.1777L148.785 73.0697Z" fill="#0B0B0B"/>
<path d="M180.18 85.7822L162.278 88.8719C156.123 89.9331 150.276 85.8082 149.214 79.6546L147.862 71.8366C146.8 65.6831 150.926 59.8364 157.081 58.7753L174.983 55.6855L180.18 85.7822Z" fill="white" stroke="#262433" stroke-width="0.172945" stroke-miterlimit="10"/>
<path d="M162.408 88.9605C155.649 88.9605 149.656 84.097 148.47 77.2152L147.981 74.3751C146.654 66.6871 151.831 59.3529 159.52 58.0264L174.93 55.3684C175.102 55.3372 175.268 55.4516 175.3 55.6285L180.497 85.7251C180.513 85.8083 180.492 85.8916 180.445 85.9644C180.398 86.032 180.32 86.0788 180.237 86.0944L164.827 88.7524C164.01 88.8929 163.204 88.9605 162.408 88.9605ZM174.722 56.0498L159.624 58.6558C152.278 59.925 147.336 66.9264 148.605 74.2711L149.094 77.1112C150.364 84.4559 157.366 89.3975 164.712 88.1283L179.81 85.5222L174.722 56.0498Z" fill="#0B0B0B"/>
<path d="M174.984 55.6801L180.182 85.7767C192.111 83.7169 204.405 85.4855 215.398 90.8379L239.725 102.687L225.408 19.7837L206.46 39.1025C197.902 47.8361 186.914 53.6203 174.984 55.6801Z" fill="white" stroke="#262433" stroke-width="0.172945" stroke-miterlimit="10"/>
<path d="M240.664 102.738C246.247 101.774 247.554 82.3452 243.582 59.3418C239.611 36.3385 231.865 18.4717 226.282 19.4354C220.698 20.399 219.391 39.8281 223.363 62.8315C227.335 85.8349 235.081 103.702 240.664 102.738Z" fill="#FFF9F3" stroke="#0B0B0B" stroke-width="0.172945" stroke-miterlimit="10" stroke-linecap="round" stroke-linejoin="round"/>
<path d="M239.248 93.7675C243.735 92.993 244.786 77.3775 241.594 58.8893C238.402 40.4011 232.176 26.0413 227.688 26.8159C223.2 27.5904 222.15 43.2059 225.342 61.6941C228.534 80.1823 234.76 94.5421 239.248 93.7675Z" fill="#F8EEE2"/>
<mask id="mask0_4201_75887" style="mask-type:luminance" maskUnits="userSpaceOnUse" x="223" y="26" width="21" height="68">
<path d="M239.248 93.769C243.735 92.9945 244.786 77.379 241.594 58.8908C238.402 40.4026 232.176 26.0428 227.688 26.8173C223.2 27.5919 222.15 43.2074 225.342 61.6956C228.534 80.1838 234.76 94.5435 239.248 93.769Z" fill="white"/>
</mask>
<g mask="url(#mask0_4201_75887)">
<path d="M216.156 55.8581L226.946 53.996C231.353 53.2365 235.541 56.191 236.301 60.5968C237.06 65.0026 234.105 69.1899 229.699 69.9494L218.908 71.8115L216.156 55.8581Z" fill="#F78D27" stroke="#0B0B0B" stroke-width="0.172945" stroke-miterlimit="10" stroke-linecap="round" stroke-linejoin="round"/>
</g>
<path d="M239.248 93.7675C243.735 92.993 244.786 77.3775 241.594 58.8893C238.402 40.4011 232.176 26.0413 227.688 26.8159C223.2 27.5904 222.15 43.2059 225.342 61.6941C228.534 80.1823 234.76 94.5421 239.248 93.7675Z" stroke="#0B0B0B" stroke-width="0.172941" stroke-miterlimit="10" stroke-linecap="round" stroke-linejoin="round"/>
<path d="M183.214 85.656C183.063 85.656 182.928 85.5468 182.902 85.3907L177.855 55.0912C177.829 54.9196 177.944 54.7531 178.115 54.7271C178.287 54.6959 178.454 54.8156 178.48 54.9872L183.526 85.2867C183.552 85.4583 183.438 85.6248 183.266 85.6508C183.245 85.656 183.23 85.656 183.214 85.656Z" fill="#0B0B0B"/>
<path d="M189.317 103.364L189.358 103.489C189.972 105.419 188.895 107.499 186.96 108.113L175.972 111.603C174.042 112.217 171.961 111.14 171.347 109.205L171.305 109.081C170.691 107.151 171.768 105.07 173.704 104.456L184.692 100.966C186.622 100.357 188.708 101.434 189.317 103.364Z" fill="#F8EEE2"/>
<path d="M174.86 112.092C174.226 112.092 173.596 111.941 173.018 111.639C172.066 111.145 171.364 110.318 171.042 109.304L171 109.179C170.334 107.078 171.499 104.82 173.601 104.154L184.589 100.664C186.691 99.9981 188.949 101.163 189.615 103.265L189.656 103.39C190.322 105.491 189.157 107.749 187.055 108.414L176.067 111.905C175.672 112.029 175.266 112.092 174.86 112.092ZM185.806 101.116C185.468 101.116 185.13 101.168 184.792 101.273L173.804 104.763C172.035 105.325 171.052 107.218 171.614 108.987L171.655 109.111C171.926 109.964 172.514 110.661 173.315 111.078C174.116 111.494 175.027 111.572 175.88 111.301L186.868 107.811C188.637 107.249 189.62 105.356 189.058 103.587L189.016 103.462C188.564 102.032 187.232 101.116 185.806 101.116Z" fill="#0B0B0B"/>
<path d="M186.956 95.3014L187.404 96.7058C187.903 98.2819 187.024 99.9829 185.447 100.487L173.174 104.383C171.598 104.883 169.897 104.004 169.392 102.428L168.945 101.023C168.445 99.4471 169.325 97.7462 170.901 97.2416L183.174 93.3456C184.755 92.8462 186.457 93.7253 186.956 95.3014Z" fill="#F8EEE2"/>
<path d="M172.697 104.674C172.062 104.674 171.438 104.524 170.855 104.222C169.903 103.728 169.201 102.901 168.878 101.886L168.837 101.761C168.514 100.747 168.608 99.6652 169.102 98.7133C169.596 97.7614 170.424 97.0592 171.438 96.7367L182.426 93.2464C184.528 92.5806 186.786 93.7458 187.452 95.8473L187.493 95.9721C187.816 96.9864 187.722 98.0683 187.228 99.0202C186.734 99.9721 185.907 100.674 184.887 100.997L173.899 104.487C173.509 104.612 173.103 104.674 172.697 104.674ZM183.643 93.6938C183.305 93.6938 182.967 93.7458 182.629 93.8498L171.641 97.3401C170.788 97.6106 170.091 98.1984 169.674 98.9994C169.258 99.8005 169.18 100.711 169.451 101.564L169.492 101.689C169.763 102.542 170.351 103.239 171.152 103.655C171.953 104.071 172.864 104.149 173.717 103.879L184.705 100.388C185.558 100.118 186.255 99.53 186.671 98.7289C187.088 97.9279 187.166 97.0176 186.895 96.1645L186.853 96.0397C186.401 94.6093 185.069 93.6938 183.643 93.6938Z" fill="#0B0B0B"/>
<path d="M189.375 110.974L189.385 111.005C189.989 112.914 188.927 114.968 187.018 115.572L179.521 117.954C177.612 118.558 175.557 117.496 174.953 115.587L174.943 115.556C174.339 113.647 175.401 111.593 177.31 110.989L184.807 108.607C186.711 108.003 188.766 109.07 189.375 110.974Z" fill="#F8EEE2"/>
<path d="M178.416 118.444C176.736 118.444 175.175 117.367 174.644 115.687C173.973 113.575 175.128 111.349 177.209 110.688L184.706 108.306C185.71 107.988 186.782 108.082 187.723 108.566C188.665 109.055 189.357 109.871 189.674 110.875L189.685 110.906C190.002 111.91 189.909 112.982 189.425 113.923C188.936 114.865 188.119 115.557 187.115 115.874L179.618 118.256C179.212 118.386 178.811 118.444 178.416 118.444ZM185.897 108.758C185.559 108.758 185.226 108.81 184.898 108.914L177.401 111.297C175.659 111.848 174.691 113.72 175.242 115.463C175.81 117.242 177.677 118.209 179.42 117.653L186.917 115.271C187.76 115.005 188.447 114.423 188.858 113.632C189.269 112.841 189.347 111.942 189.076 111.104L189.066 111.073C188.8 110.23 188.218 109.544 187.427 109.133C186.943 108.883 186.418 108.758 185.897 108.758Z" fill="#0B0B0B"/>
<path d="M191.413 118.01L191.455 118.135C192.069 120.065 190.992 122.146 189.056 122.76L185.347 123.94C183.417 124.554 181.336 123.477 180.722 121.542L180.68 121.417C180.066 119.488 181.143 117.407 183.079 116.793L186.788 115.612C188.718 115.004 190.799 116.081 191.413 118.01Z" fill="#F8EEE2"/>
<path d="M184.236 124.429C183.602 124.429 182.977 124.278 182.395 123.976C181.442 123.482 180.74 122.655 180.418 121.641L180.376 121.516C180.053 120.502 180.147 119.42 180.641 118.468C181.135 117.516 181.963 116.814 182.977 116.491L186.687 115.31C188.788 114.645 191.046 115.81 191.712 117.911L191.749 118.036C192.071 119.05 191.978 120.132 191.483 121.084C190.989 122.036 190.162 122.738 189.147 123.061L185.438 124.242C185.048 124.366 184.637 124.429 184.236 124.429ZM187.899 115.763C187.561 115.763 187.223 115.815 186.884 115.919L183.175 117.1C182.322 117.37 181.625 117.963 181.208 118.759C180.792 119.56 180.714 120.47 180.985 121.323L181.026 121.448C181.297 122.301 181.885 122.998 182.686 123.415C183.487 123.831 184.398 123.909 185.251 123.638L188.96 122.457C189.813 122.187 190.511 121.594 190.927 120.798C191.343 119.997 191.421 119.087 191.15 118.234L191.114 118.109C190.656 116.678 189.33 115.763 187.899 115.763Z" fill="#0B0B0B"/>
<path d="M162.721 104.439C162.721 104.439 164.074 100.585 164.667 98.9671C165.297 97.2557 165.937 95.43 165.557 93.6458C165.182 91.8617 163.351 90.2544 161.613 90.8213C159.907 91.3779 156.676 98.4521 155.656 100.117" fill="#F8EEE2"/>
<path d="M163.019 104.543L162.421 104.33C162.421 104.33 163.779 100.47 164.372 98.8527C164.928 97.3391 165.62 95.4561 165.251 93.7083C165.053 92.7668 164.387 91.8462 163.56 91.3728C163.133 91.1231 162.468 90.8838 161.718 91.1231C160.553 91.5028 158.269 95.8826 157.041 98.2338C156.568 99.144 156.188 99.8619 155.933 100.283C155.839 100.434 155.642 100.481 155.496 100.387C155.345 100.294 155.298 100.101 155.392 99.9503C155.637 99.5498 156.027 98.8059 156.479 97.9425C158.394 94.2753 160.22 90.9463 161.526 90.5249C162.28 90.2753 163.118 90.3845 163.883 90.8266C164.876 91.3988 165.641 92.4547 165.875 93.5835C166.281 95.5133 165.558 97.4899 164.97 99.0816C164.372 100.694 163.019 104.543 163.019 104.543Z" fill="#0B0B0B"/>
<path d="M159.7 115.056C159.518 115.056 159.378 114.91 159.383 114.733C159.425 111.232 162.302 104.595 162.421 104.314C162.494 104.153 162.681 104.08 162.843 104.148C163.004 104.221 163.077 104.408 163.009 104.569C162.978 104.637 160.059 111.368 160.023 114.743C160.018 114.915 159.877 115.056 159.7 115.056Z" fill="#0B0B0B"/>
<path d="M137.703 31.9036C137.854 31.7007 137.984 31.4874 138.072 31.2482C139.789 29.3079 140.929 26.8268 141.189 24.0439C141.834 17.0633 136.704 10.8838 129.722 10.2336C129.134 10.1764 128.552 10.1816 127.979 10.2076C121.825 4.89151 117.533 -0.856286 106.737 0.532548C102.575 1.06832 98.7096 3.21139 96.3424 6.67567C96.0147 7.15942 95.7233 7.67438 95.4632 8.21015C95.2499 8.63668 89.7456 9.25567 89.012 9.45854C83.8666 10.8838 77.2906 13.0008 74.7257 18.0932C73.5915 20.3455 73.2326 22.8839 73.1389 25.4223C69.2578 28.5017 67.6814 33.9478 69.2474 38.8789L73.2898 51.6177C74.1378 51.4045 75.0171 51.2796 75.9275 51.2796H81.0833C81.4006 51.8154 81.7128 52.3564 82.0249 52.9077C83.6273 55.7374 84.6626 58.744 84.5378 62.0314C91.2075 52.7049 123.131 55.1392 130.216 55.1392C137.302 55.1392 143.046 49.3966 143.046 42.312C143.051 38.0155 140.939 34.2287 137.703 31.9036Z" fill="#0B0B0B"/>
<path d="M84.5397 62.3433C84.5032 62.3433 84.472 62.3381 84.4356 62.3277C84.3003 62.2809 84.2171 62.1561 84.2223 62.0156C84.3316 59.1183 83.52 56.1898 81.7511 53.0584C81.4701 52.5643 81.1892 52.0753 80.9031 51.5916H75.9294C75.097 51.5916 74.2385 51.7008 73.3697 51.9193C73.2032 51.9609 73.042 51.8672 72.9899 51.706L68.9475 38.9672C67.3503 33.9372 68.9111 28.4495 72.8338 25.2557C72.9119 23.2947 73.1824 20.4598 74.4519 17.9422C76.9179 13.0527 82.8696 10.8212 88.941 9.14628C89.2012 9.07346 89.9452 8.96422 90.8868 8.82377C92.2603 8.62091 94.7992 8.2464 95.2154 8.01233C95.5067 7.42974 95.7928 6.93039 96.0946 6.48825C98.4358 3.06558 102.301 0.776862 106.713 0.209884C116.135 -1.00209 120.786 3.23723 125.703 7.72103C126.478 8.42845 127.279 9.15668 128.106 9.87451C128.725 9.8537 129.261 9.86411 129.766 9.91092C133.225 10.2334 136.357 11.8823 138.574 14.556C140.79 17.2296 141.841 20.6055 141.518 24.0697C141.263 26.8058 140.171 29.3442 138.36 31.4092C138.303 31.5445 138.236 31.6797 138.147 31.8202C141.43 34.3013 143.376 38.1974 143.376 42.3014C143.376 49.5525 137.476 55.446 130.229 55.446C129.292 55.446 127.945 55.4044 126.244 55.3523C115.547 55.0194 90.5018 54.2496 84.805 62.2081C84.7374 62.2965 84.6385 62.3433 84.5397 62.3433ZM75.9242 50.957H81.0799C81.1944 50.957 81.2985 51.0142 81.3557 51.113C81.673 51.654 81.9904 52.1949 82.3026 52.7463C83.9466 55.654 84.7894 58.4057 84.8622 61.1209C91.6308 53.6514 114.897 54.3692 126.254 54.7229C127.95 54.775 129.292 54.8166 130.218 54.8166C137.117 54.8166 142.731 49.204 142.731 42.3067C142.731 38.3066 140.78 34.5094 137.518 32.1583C137.45 32.1063 137.403 32.0334 137.388 31.9502C137.372 31.867 137.393 31.7786 137.445 31.7109C137.601 31.4977 137.705 31.3156 137.773 31.1336C137.788 31.0972 137.804 31.0659 137.83 31.0347C139.573 29.0633 140.624 26.6342 140.868 24.0125C141.175 20.7199 140.176 17.5105 138.069 14.9669C135.957 12.4233 132.981 10.8576 129.693 10.5507C129.183 10.5039 128.642 10.4935 127.992 10.5247C127.908 10.5299 127.83 10.4987 127.768 10.4467C126.899 9.69765 126.067 8.93301 125.255 8.19958C120.24 3.62215 115.906 -0.331087 106.776 0.849682C102.551 1.39585 98.8416 3.58054 96.6045 6.85756C96.3131 7.2841 96.0322 7.77305 95.746 8.35043C95.5795 8.68334 94.898 8.881 90.9649 9.46358C90.1168 9.58842 89.3208 9.70806 89.0971 9.76528C83.1714 11.4038 77.3601 13.5677 75.0085 18.2387C74.0616 20.1217 73.5674 22.4052 73.453 25.4378C73.4477 25.5314 73.4061 25.6198 73.3333 25.6771C69.5354 28.694 68.011 33.9632 69.5458 38.7904L73.4998 51.2483C74.3218 51.0506 75.1386 50.957 75.9242 50.957Z" fill="#0B0B0B"/>
<path d="M112.494 33.1678C111.168 32.4603 109.841 31.6645 108.353 31.446C104.68 30.9102 101.319 33.9948 97.6046 33.8908C94.9357 33.818 92.4176 31.8934 91.6528 29.3394C93.8379 40.5957 91.2002 52.6999 84.5305 62.0264C84.6554 58.739 83.6149 55.7324 82.0177 52.9027C81.7055 52.3566 81.3934 51.8156 81.076 51.2746H75.9202C75.0098 51.2746 74.1305 51.3995 73.2825 51.6127C68.543 52.8039 65 57.1004 65 62.1928V63.2592C65 69.2619 69.9164 74.1774 75.9202 74.1774H78.8337L75.915 110.625C75.0618 121.283 83.0114 130.615 93.6715 131.468L95.5548 131.619C106.215 132.472 115.548 124.524 116.396 113.866L117.494 100.139C127.129 99.9775 134.892 92.1334 134.892 82.4636V39.7998C134.892 37.9428 134.59 36.1639 134.054 34.4838C133.195 35.0039 132.285 35.4357 131.343 35.7634C125.173 37.8804 118.254 36.2367 112.494 33.1678Z" fill="white" stroke="#262433" stroke-width="0.172945" stroke-miterlimit="10"/>
<path d="M97.1256 131.998C96.5949 131.998 96.0591 131.977 95.5232 131.936L93.6399 131.785C88.4009 131.364 83.6353 128.929 80.2276 124.929C76.8199 120.929 75.1707 115.842 75.5921 110.599L78.4795 74.4942H75.9095C69.7132 74.4942 64.6719 69.4538 64.6719 63.2587V62.1924C64.6719 57.0427 68.1784 52.5641 73.1937 51.3054C74.1146 51.0765 75.0302 50.9568 75.9095 50.9568H81.0652C81.1797 50.9568 81.2837 51.0141 81.341 51.1129C81.6583 51.6539 81.9757 52.1948 82.2878 52.7462C83.911 55.6175 84.7539 58.3327 84.8423 61.0116C91.0022 51.9139 93.4266 40.1791 91.3351 29.4013C91.3039 29.2348 91.408 29.0736 91.5692 29.032C91.7357 28.9904 91.9022 29.0892 91.949 29.2504C92.6826 31.69 95.0602 33.5106 97.6095 33.5782C99.3055 33.625 100.95 32.9696 102.557 32.3402C104.43 31.6016 106.365 30.8421 108.394 31.1386C109.763 31.3363 110.99 32.0021 112.182 32.6419L112.645 32.8916C116.464 34.9254 123.955 37.9684 131.239 35.4664C132.144 35.1543 133.034 34.7382 133.887 34.218C133.97 34.166 134.074 34.1608 134.163 34.192C134.256 34.2284 134.324 34.3012 134.355 34.3949C134.922 36.1686 135.203 37.9892 135.203 39.8098V82.4631C135.203 92.1277 127.415 100.133 117.78 100.45L116.703 113.891C116.282 119.129 113.852 123.894 109.846 127.301C106.267 130.36 101.792 131.998 97.1256 131.998ZM75.9147 51.5914C75.0822 51.5914 74.2238 51.7007 73.355 51.9191C68.6206 53.1051 65.3118 57.3288 65.3118 62.1924V63.2587C65.3118 69.1053 70.067 73.8596 75.9147 73.8596H78.8281C78.9166 73.8596 78.9998 73.896 79.0622 73.9636C79.1247 74.0313 79.1507 74.1145 79.1455 74.2029L76.2268 110.651C75.821 115.722 77.413 120.643 80.7114 124.518C84.0099 128.388 88.6194 130.745 93.6919 131.15L95.5752 131.301C100.643 131.712 105.569 130.115 109.445 126.817C113.316 123.52 115.673 118.911 116.079 113.839L117.176 100.112C117.192 99.951 117.322 99.8209 117.489 99.8209C126.91 99.6649 134.574 91.878 134.574 82.4631V39.7993C134.574 38.1764 134.334 36.5535 133.871 34.9618C133.086 35.4092 132.274 35.7785 131.447 36.0646C123.935 38.6446 116.256 35.534 112.348 33.4482L111.885 33.1985C110.746 32.5847 109.57 31.9449 108.311 31.7628C106.449 31.4923 104.675 32.1894 102.802 32.928C101.137 33.5834 99.4043 34.2596 97.6042 34.2128C95.518 34.1556 93.5358 33.0372 92.3184 31.3623C93.8168 42.0517 91.0698 53.4432 84.7903 62.2132C84.707 62.3276 84.5614 62.3744 84.4313 62.3276C84.296 62.2808 84.2128 62.1559 84.218 62.0155C84.3272 59.1182 83.5156 56.1897 81.7468 53.0583C81.4658 52.5641 81.1849 52.0752 80.8987 51.5914H75.9147Z" fill="#0B0B0B"/>
<path d="M81.4339 74.2045L77.995 83.6091L75.8359 74.1733L81.4339 74.2045Z" fill="#0B0B0B"/>
<path d="M77.9894 83.9266C77.9842 83.9266 77.9738 83.9266 77.9686 83.9266C77.8282 83.9162 77.7085 83.8174 77.6773 83.6821L75.5234 74.2412C75.5026 74.1476 75.5234 74.0487 75.5859 73.9707C75.6483 73.8927 75.7627 73.8563 75.8356 73.8511L81.4284 73.8875C81.5324 73.8875 81.626 73.9395 81.6885 74.0227C81.7457 74.106 81.7613 74.2152 81.7249 74.314L78.286 83.7186C78.2444 83.8486 78.1247 83.9266 77.9894 83.9266ZM76.2362 74.4909L78.0623 82.491L80.9757 74.5221L76.2362 74.4909Z" fill="#0B0B0B"/>
<path d="M74.3984 59.2188L78.3992 63.6765L74.6534 66.1161" fill="#F8EEE2"/>
<path d="M74.6554 66.4386C74.5514 66.4386 74.4473 66.3865 74.3901 66.2929C74.2965 66.1473 74.3329 65.9496 74.4838 65.8508L77.9175 63.6089L74.1612 59.4268C74.0415 59.2967 74.0519 59.0939 74.1872 58.9794C74.3173 58.865 74.5202 58.8702 74.6346 59.0054L78.6406 63.4632C78.7031 63.5309 78.7291 63.6245 78.7187 63.7181C78.7083 63.8117 78.6562 63.895 78.5782 63.9418L74.8323 66.3865C74.7751 66.4178 74.7179 66.4386 74.6554 66.4386Z" fill="#0B0B0B"/>
<path d="M117.408 68.15H114.349C114.172 68.15 114.031 68.0096 114.031 67.8327C114.031 67.6559 114.172 67.5154 114.349 67.5154H117.408C118.417 67.5154 119.364 67.0733 120.014 66.2983C120.665 65.5284 120.935 64.5141 120.758 63.5206L118.87 52.7792C118.838 52.6076 118.953 52.4411 119.13 52.4099C119.296 52.3787 119.468 52.4931 119.499 52.67L121.388 63.4113C121.596 64.5921 121.273 65.7937 120.503 66.7092C119.733 67.6247 118.604 68.15 117.408 68.15Z" fill="#0B0B0B"/>
<path d="M127.427 58.4243C127.645 59.6311 126.844 60.791 125.637 61.0095C124.43 61.228 123.27 60.4269 123.052 59.2201C122.833 58.0134 123.634 56.8534 124.841 56.6349C126.048 56.4113 127.203 57.2175 127.427 58.4243Z" fill="#0B0B0B"/>
<path d="M115.483 88.4742C115.384 88.5002 115.275 88.495 115.171 88.4482C115.067 88.4014 112.616 87.3246 110.801 89.2492C110.624 89.4365 110.332 89.4417 110.145 89.27C109.958 89.0932 109.953 88.8019 110.124 88.6146C112.408 86.2011 115.525 87.5899 115.556 87.6055C115.785 87.7095 115.889 87.9852 115.785 88.2193C115.728 88.3493 115.613 88.4378 115.483 88.4742Z" fill="#0B0B0B"/>
<path d="M97.6665 50.1927C98.7746 50.3175 100.008 49.813 101.225 49.3917C102.442 48.9391 103.681 48.5178 104.763 48.1901C105.85 47.8624 107.114 47.5243 108.379 47.2226C109.627 46.8949 110.938 46.6296 111.776 45.917C112.587 45.2408 112.629 43.9924 111.1 42.9364C109.653 41.8961 106.49 41.2459 102.89 42.333C99.2949 43.4306 97.0734 45.7141 96.4855 47.3682C95.8456 49.0796 96.6 50.0887 97.6665 50.1927Z" fill="#0B0B0B"/>
<path d="M132.081 48.379C131.253 48.5351 130.343 48.1709 129.438 47.8745C128.533 47.5572 127.617 47.2607 126.81 47.037C126.004 46.8133 125.068 46.5896 124.126 46.3972C123.2 46.1839 122.227 46.0227 121.603 45.4661C120.999 44.9407 120.984 43.9004 122.123 42.9485C123.205 42.0174 125.562 41.3256 128.236 42.0642C130.905 42.8133 132.544 44.613 132.97 45.9655C133.444 47.3647 132.877 48.2386 132.081 48.379Z" fill="#0B0B0B"/>
<path d="M108.057 59.1943C107.958 60.5363 106.787 61.5402 105.445 61.4362C104.103 61.3374 103.099 60.167 103.203 58.825C103.302 57.483 104.472 56.4791 105.814 56.5831C107.157 56.6871 108.161 57.8523 108.057 59.1943Z" fill="#0B0B0B"/>
<path d="M103.125 61.5657C103.125 61.5657 105.3 60.0052 107.407 61.8674L103.125 61.5657Z" fill="#F8EEE2"/>
<path d="M107.406 62.1795C107.334 62.1795 107.255 62.1535 107.193 62.1015C105.31 60.437 103.39 61.7634 103.307 61.8206C103.166 61.9246 102.963 61.8882 102.864 61.7478C102.76 61.6073 102.797 61.4045 102.937 61.3057C102.963 61.29 105.346 59.6203 107.614 61.6282C107.745 61.7426 107.76 61.9454 107.64 62.0755C107.583 62.1431 107.495 62.1795 107.406 62.1795Z" fill="#0B0B0B"/>
<path d="M123.516 61.4055C123.516 61.4055 125.482 60.5264 127.298 61.4471L123.516 61.4055Z" fill="#F8EEE2"/>
<path d="M127.302 61.764C127.256 61.764 127.204 61.7536 127.157 61.7276C125.497 60.885 123.666 61.686 123.645 61.6964C123.484 61.7693 123.296 61.6964 123.224 61.5352C123.151 61.3739 123.224 61.1867 123.385 61.1138C123.468 61.0774 125.513 60.1775 127.443 61.1607C127.599 61.2387 127.661 61.4311 127.583 61.5872C127.526 61.7016 127.417 61.764 127.302 61.764Z" fill="#0B0B0B"/>
<path d="M102.478 68.6436C103.321 68.0818 104.439 68.2222 105.189 68.9037C106.546 70.1469 109.507 72.3575 113.747 72.7893C114.787 72.8933 115.323 74.1053 114.881 75.052C113.898 77.1326 111.265 80.342 105.787 77.7724C99.1172 74.6463 100.283 70.1052 102.478 68.6436Z" fill="#FFF9F3"/>
<path d="M109.528 79.037C108.425 79.037 107.14 78.7613 105.652 78.0591C101.349 76.0409 100.543 73.5649 100.449 72.2697C100.335 70.73 101.063 69.2007 102.301 68.3789C103.248 67.7495 104.528 67.8691 105.402 68.6702C106.755 69.9081 109.647 72.0512 113.778 72.4725C114.33 72.5298 114.814 72.8523 115.1 73.3568C115.417 73.9186 115.443 74.6052 115.167 75.1878C114.658 76.2593 113.008 79.037 109.528 79.037ZM102.65 68.9094C101.849 69.44 100.959 70.626 101.079 72.2229C101.23 74.2203 102.947 76.0929 105.917 77.4869C111.432 80.0721 113.815 76.5506 114.59 74.9225C114.777 74.5324 114.756 74.0538 114.543 73.6741C114.361 73.3464 114.064 73.1488 113.716 73.1123C109.398 72.6702 106.385 70.4387 104.97 69.1435C104.31 68.5349 103.358 68.4413 102.65 68.9094Z" fill="#0B0B0B"/>
<path d="M117.384 100.237C117.384 100.237 97.4894 101.522 92.5781 93.4648C92.5781 93.4648 97.0003 106.755 116.494 111.374L117.384 100.237Z" fill="#0B0B0B"/>
<path d="M116.493 111.692C116.467 111.692 116.446 111.687 116.42 111.681C96.9777 107.073 92.3214 93.6993 92.2746 93.5641C92.2225 93.408 92.2954 93.2416 92.4411 93.1739C92.5867 93.1063 92.7636 93.1583 92.8469 93.2988C97.602 101.101 117.164 99.9361 117.361 99.9205C117.455 99.9153 117.544 99.9465 117.611 100.014C117.674 100.082 117.71 100.17 117.7 100.264L116.81 111.4C116.805 111.494 116.753 111.577 116.68 111.635C116.623 111.671 116.56 111.692 116.493 111.692ZM93.929 95.5719C96.1193 99.4835 102.18 107.541 116.206 110.979L117.039 100.581C114.474 100.706 100.068 101.148 93.929 95.5719Z" fill="#0B0B0B"/>
<path d="M5.49219 237.808L7.26107 191.976L55.3902 193.521C55.3746 193.797 59.9737 159.476 59.9477 159.752L55.3902 193.521L48.9806 193.323L48.3407 208.575C48.3407 208.575 91.9696 186.265 95.705 181.771C95.705 181.771 108.332 169.183 113.373 165.765C113.914 165.401 114.476 165.037 115.105 164.871C115.74 164.704 116.463 164.767 116.968 165.183C117.624 165.724 117.733 166.681 117.696 167.529C117.582 170.166 116.536 172.637 115.496 175.081C115.803 174.983 147.689 164.418 149.448 163.976C152.47 163.216 152.325 167.383 150.181 169.646C147.45 172.533 134.75 179.222 134.058 179.383C137.123 179.269 140.057 178.65 140.791 183.643C141.295 187.087 138.247 188.044 135.151 188.403C137.102 188.476 138.777 189.126 138.959 191.446C139.729 195.368 136.467 196.959 133.221 197.36C133.122 197.37 133.106 197.5 133.2 197.537C135.869 198.582 134.022 203.482 130.099 204.907L108.165 214.156C105.912 215.17 47.1857 259.837 47.1857 259.837C40.3859 264.596 32.4832 265.662 25.3921 263.852C13.603 260.841 5.53901 249.964 5.49219 237.808Z" fill="white"/>
<path d="M55.3902 193.521L7.26107 191.976L5.49219 237.808C5.53901 249.964 13.603 260.841 25.3921 263.852C32.4832 265.662 40.3859 264.596 47.1857 259.837C47.1857 259.837 105.912 215.17 108.165 214.156L130.099 204.907C134.022 203.482 135.869 198.582 133.2 197.537C133.106 197.5 133.122 197.37 133.221 197.36C136.467 196.959 139.729 195.368 138.959 191.446C138.777 189.126 137.102 188.476 135.151 188.403C138.247 188.044 141.295 187.087 140.791 183.643C140.057 178.65 137.123 179.269 134.058 179.383C134.75 179.222 147.45 172.533 150.181 169.646C152.325 167.383 152.47 163.216 149.448 163.976C147.689 164.418 115.803 174.983 115.496 175.081C116.536 172.637 117.582 170.166 117.696 167.529C117.733 166.681 117.624 165.724 116.968 165.183C116.463 164.767 115.74 164.704 115.105 164.871C114.476 165.037 113.914 165.401 113.373 165.765C108.332 169.183 95.705 181.771 95.705 181.771C91.9696 186.265 48.3407 208.575 48.3407 208.575L48.9806 193.323L55.3902 193.521ZM55.3902 193.521C55.3746 193.797 59.9737 159.476 59.9477 159.752L55.3902 193.521Z" stroke="#262433" stroke-width="0.172945" stroke-miterlimit="10"/>
<path d="M32.0172 265.007C29.7905 265.007 27.5378 264.726 25.3007 264.154C13.496 261.142 5.2187 250.312 5.17188 237.808C5.17188 237.802 5.17188 237.797 5.17188 237.792L6.94076 191.955C6.94596 191.784 7.08123 191.648 7.26852 191.648L55.1063 193.183L59.4453 161.006C59.4921 160.657 59.5285 160.381 59.5649 160.168L59.6273 159.7L59.6482 159.705C59.721 159.398 59.799 159.409 59.9759 159.424C60.1476 159.44 60.2725 159.596 60.2621 159.768L58.4099 173.463C58.3267 174.093 58.2383 174.722 58.155 175.352L55.9179 191.96C55.8555 192.418 55.8086 192.767 55.767 193.027L55.6942 193.552C55.6838 193.625 55.6526 193.687 55.6057 193.734C55.5433 193.849 55.4705 193.838 55.3508 193.828C55.3456 193.828 55.3456 193.828 55.3404 193.828L49.2794 193.641L48.6759 208.028C53.4727 205.563 92.0134 185.692 95.4576 181.552C95.6032 181.406 108.183 168.881 113.193 165.484C113.776 165.089 114.353 164.719 115.024 164.548C115.831 164.34 116.627 164.48 117.168 164.922C117.787 165.437 118.068 166.29 118.011 167.528C117.902 170.01 117.001 172.314 116.06 174.545C116.247 174.483 116.476 174.41 116.736 174.322C142.416 165.833 148.654 163.835 149.362 163.658C150.803 163.294 151.463 163.991 151.724 164.439C152.514 165.786 151.911 168.267 150.402 169.859C148.181 172.205 139.3 177.146 135.648 178.982C138.108 178.899 140.45 179.227 141.095 183.586C141.266 184.772 141.053 185.77 140.45 186.556C139.674 187.56 138.358 188.09 137.063 188.392C138.421 188.871 139.149 189.864 139.269 191.409C139.549 192.839 139.321 194.098 138.582 195.118C137.489 196.626 135.549 197.282 133.905 197.568C134.472 198.01 134.768 198.691 134.758 199.55C134.732 201.521 133.02 204.169 130.19 205.199L108.272 214.442C106.523 215.232 67.6653 244.642 47.3596 260.086C42.7241 263.332 37.4383 265.007 32.0172 265.007ZM5.80659 237.813C5.85862 250.021 13.9382 260.596 25.4568 263.535C32.9537 265.449 40.6015 264.039 46.9903 259.566C49.3783 257.751 105.764 214.874 108.022 213.854L129.966 204.606C132.516 203.68 134.108 201.261 134.128 199.544C134.134 198.951 133.962 198.171 133.077 197.828C132.901 197.76 132.797 197.578 132.817 197.396C132.838 197.209 132.989 197.063 133.176 197.042C135.471 196.762 137.208 195.945 138.072 194.754C138.701 193.885 138.894 192.793 138.644 191.508C138.499 189.677 137.385 188.803 135.138 188.72C134.971 188.715 134.836 188.579 134.831 188.413C134.826 188.246 134.945 188.101 135.112 188.085C137.64 187.794 139.175 187.191 139.95 186.181C140.45 185.531 140.621 184.715 140.47 183.69C139.841 179.409 137.645 179.523 134.852 179.669C134.591 179.685 134.331 179.695 134.066 179.705C133.894 179.7 133.759 179.591 133.738 179.43C133.717 179.268 133.821 179.118 133.983 179.076C134.815 178.852 147.296 172.231 149.944 169.432C151.344 167.95 151.75 165.749 151.177 164.771C150.87 164.251 150.314 164.09 149.518 164.288C148.815 164.465 142.598 166.457 116.934 174.941C116.107 175.216 115.623 175.372 115.586 175.388C115.467 175.424 115.337 175.393 115.253 175.3C115.17 175.206 115.144 175.076 115.196 174.961C116.211 172.584 117.256 170.129 117.371 167.523C117.418 166.498 117.215 165.817 116.757 165.437C116.377 165.125 115.784 165.032 115.181 165.188C114.608 165.338 114.078 165.671 113.547 166.036C108.589 169.396 96.0507 181.88 95.9258 182.004C92.2112 186.478 50.2627 207.955 48.4782 208.866C48.3794 208.918 48.2597 208.913 48.1608 208.85C48.0672 208.788 48.01 208.684 48.0152 208.569L48.6447 193.635L7.55987 192.314L5.80659 237.813Z" fill="#0B0B0B"/>
<path d="M48.4296 200.7L29.5078 218.531L48.3412 208.903L48.4296 200.7Z" fill="#0B0B0B"/>
<path d="M115.211 175.483L103.344 181.012C103.344 181.012 114.467 172.185 116.704 171.478L115.211 175.483Z" fill="#0B0B0B"/>
<path d="M127.445 181.417C127.445 181.417 134.661 179.025 135.91 178.973L127.445 181.417Z" fill="#F8EEE2"/>
<path d="M127.444 181.735C127.308 181.735 127.183 181.652 127.142 181.517C127.085 181.35 127.178 181.168 127.345 181.116C127.641 181.017 134.618 178.713 135.898 178.656C136.069 178.645 136.22 178.786 136.231 178.963C136.236 179.14 136.101 179.285 135.924 179.296C134.935 179.337 129.54 181.064 127.542 181.725C127.511 181.73 127.475 181.735 127.444 181.735Z" fill="#0B0B0B"/>
<path d="M129.097 190.708C128.962 190.708 128.837 190.62 128.796 190.484C128.744 190.318 128.837 190.136 129.004 190.084L135.705 187.993C135.876 187.941 136.053 188.035 136.105 188.201C136.157 188.367 136.064 188.549 135.897 188.601L129.196 190.693C129.165 190.703 129.129 190.708 129.097 190.708Z" fill="#0B0B0B"/>
<path d="M129.131 198.766C128.991 198.766 128.866 198.677 128.825 198.537C128.778 198.365 128.871 198.193 129.043 198.141L132.674 197.096C132.846 197.044 133.018 197.143 133.07 197.314C133.117 197.481 133.023 197.658 132.851 197.71L129.22 198.755C129.189 198.766 129.163 198.766 129.131 198.766Z" fill="#0B0B0B"/>
</svg>
