<svg width="333" height="269" viewBox="0 0 333 269" fill="none" xmlns="http://www.w3.org/2000/svg">
<path d="M22.8136 256.177H95.3477C105.524 256.177 113.773 247.927 113.773 237.751L113.773 20.6998C113.773 10.5236 105.524 2.27409 95.3477 2.27409H22.8136C12.6373 2.27409 4.38786 10.5236 4.38786 20.6998L4.38786 237.751C4.38786 247.927 12.6373 256.177 22.8136 256.177Z" fill="#587AA3"/>
<path d="M20.1955 258.128H109.046C120.2 258.128 129.242 249.086 129.242 237.932L129.242 20.1962C129.242 9.04199 120.2 -0.000244141 109.046 -0.000244141H20.1955C9.04134 -0.000244141 -0.00088501 9.04199 -0.00088501 20.1962L-0.00088501 237.932C-0.00088501 249.086 9.04134 258.128 20.1955 258.128Z" fill="url(#paint0_linear_4174_48123)"/>
<g style="mix-blend-mode:screen" opacity="0.73">
<path d="M118.467 13.5288V244.929C118.466 246.407 118.175 247.87 117.609 249.234C117.043 250.599 116.214 251.839 115.169 252.884C114.124 253.928 112.884 254.757 111.518 255.322C110.153 255.887 108.69 256.177 107.213 256.177H20.3325C17.3487 256.177 14.4871 254.992 12.3767 252.883C10.2663 250.774 9.0798 247.913 9.07812 244.929V13.5288C9.07812 10.5439 10.2638 7.68134 12.3745 5.57074C14.4851 3.46014 17.3476 2.27441 20.3325 2.27441H107.213C108.691 2.274 110.154 2.56482 111.52 3.13025C112.885 3.69569 114.126 4.52467 115.171 5.56981C116.217 6.61496 117.046 7.8558 117.611 9.22143C118.176 10.5871 118.467 12.0507 118.467 13.5288Z" fill="#6BB0FF"/>
</g>
<path d="M70.4766 184.669C70.4766 184.669 82.6495 181.226 97.5212 184.669L90.3879 148.115C90.3879 148.115 72.5703 166.991 70.4766 184.669Z" fill="#B3B7C4"/>
<path d="M103.295 247.254C103.295 247.254 108.841 256.655 111.182 258.192C114.349 260.276 112.37 262.385 110.865 262.385C109.36 262.385 101.647 262.94 99.9464 261.011C98.2454 259.082 97.4123 253.304 95.8286 251.793C94.2448 250.282 92.8004 244.707 96.5983 242.816C100.751 240.735 103.295 247.254 103.295 247.254Z" fill="#2D2D30"/>
<path d="M101.212 242.319C101.212 242.319 107.23 254.125 108.339 255.753C109.447 257.381 106.277 257.378 104.319 256.605C102.361 255.832 97.287 247.999 96.7359 246.494C96.1847 244.99 96.587 242.813 96.587 242.813L101.212 242.319Z" fill="#EEA886"/>
<path d="M94.4531 249.04L95.9165 260.332L96.6958 260.364L96.4519 252.242L94.4531 249.04Z" fill="#2D2D30"/>
<path d="M55.7322 238.087C55.7322 238.087 57.0594 248.92 58.583 251.264C60.6641 254.432 57.9938 255.581 56.6096 254.983C55.2254 254.384 47.9368 251.815 47.1481 249.36C46.3594 246.905 47.8988 241.28 47.0531 239.262C46.2073 237.244 47.1101 231.555 51.3451 231.343C56.0014 231.099 55.7322 238.087 55.7322 238.087Z" fill="#2D2D30"/>
<path d="M55.788 232.734C55.788 232.734 56.6021 245.968 56.9568 247.897C57.3116 249.826 54.4228 248.562 52.934 247.073C51.4453 245.584 49.9248 236.373 50.0199 234.773C50.1149 233.174 51.3534 231.34 51.3534 231.34L55.788 232.734Z" fill="#EEA886"/>
<path d="M46.9144 236.196L43.75 247.131L44.45 247.473L47.4719 239.931L46.9144 236.196Z" fill="#2D2D30"/>
<path d="M108.219 138.904C108.323 140.315 108.336 141.73 108.257 143.143C108.193 144.21 109.958 150.523 110.246 151.321C110.49 151.993 110.816 151.451 110.905 150.932C110.959 150.634 110.696 148.34 110.737 147.067C110.775 145.996 110.952 145.547 111.218 145.8C111.485 146.054 113.046 149.984 113.211 151.818C113.376 153.652 114.994 157.492 115.72 156.64C116.445 155.787 116.337 147.964 115.32 145.322C114.304 142.68 112.289 139.598 112.289 139.598L108.219 138.904Z" fill="#EEA886"/>
<path d="M107.379 140.424C107.082 139.582 99.8247 127.941 98.0857 124.235C96.3468 120.529 94.8232 117.124 94.0091 115.683C93.9552 115.588 93.8665 115.423 93.7493 115.198C93.1824 114.115 91.9438 111.714 90.7022 109.455L90.4392 108.986L90.2207 108.093C89.3464 106.541 89.8532 105.505 89.6822 104.194C89.6232 103.752 89.4904 103.324 89.2894 102.927C89.2829 102.909 89.2744 102.892 89.2641 102.876C88.2029 100.776 87.3635 98.9293 87.1038 97.8618C86.2327 94.3173 82.0547 78.5967 82.0547 78.5967C82.0547 78.5967 88.7984 80.9724 89.8501 83.3892C91.4339 87.0541 93.3186 92.5751 93.8285 94.2825C94.3385 95.9898 99.1025 110.12 100.088 113.006C101.073 115.892 102.074 118.293 103.167 120.13C104.259 121.967 112.156 138.622 112.71 140.133C112.71 140.114 107.677 141.273 107.379 140.424Z" fill="#DBDFF0"/>
<path d="M78.874 155.812C79.1528 157.146 80.9203 162.73 82.9 168.939C84.7055 174.596 86.6853 180.766 87.8731 184.707C88.3166 186.176 88.6523 187.336 88.8234 188.039C89.9637 192.702 88.6808 200.019 88.2659 206.129C87.8509 212.239 90.1886 243.234 90.1886 243.234C91.7439 243.959 101.715 242.67 101.715 242.67C100.575 240.494 100.22 201.511 100.844 199.125C101.468 196.74 101.88 190.111 101.259 187.52C101.118 186.836 101.049 186.14 101.053 185.442C101.003 182.173 101.687 176.766 102.086 170.839C102.605 163.376 99.704 144.827 99.289 143.17C99.251 143.018 99.1908 142.803 99.1148 142.537C98.3514 139.936 95.8934 132.55 95.8934 132.55C90.9076 131.067 87.1541 130.798 84.3539 131.371C80.6447 132.125 78.6048 134.352 77.5848 137.177C75.1553 143.924 78.5256 154.08 78.874 155.812Z" fill="#3B3B40"/>
<path d="M50.0156 231.334L58.0042 237.805C58.8595 233.662 77.2219 200.887 78.473 197.675C79.7242 194.463 81.0546 188.248 81.0546 185.955C81.0546 185.546 81.0863 184.862 81.1433 183.969C81.365 180.513 81.9954 173.998 82.9045 168.926C83.0723 167.976 83.2529 167.083 83.4398 166.266C84.4439 161.891 84.6181 146.943 84.6276 138.157C84.6276 134.245 84.6086 131.552 84.6086 131.552L84.3584 131.362C82.4578 129.93 70.3482 121.226 66.1227 129.363C65.0206 131.527 64.2497 133.844 63.8357 136.237C62.4768 143.621 63.8072 151.942 64.9032 159.519C65.8535 166.003 67.6305 175.166 68.1468 181.964C68.4319 185.705 68.3273 188.733 67.4816 190.2C65.0964 194.346 62.7682 197.852 57.9472 212.477C56.3793 217.251 50.0156 231.334 50.0156 231.334Z" fill="#3B3B40"/>
<path d="M87.588 56.1196C87.588 56.1196 90.2234 39.0686 76.0992 39.3822C61.975 39.6958 62.1619 48.1279 62.4185 56.4871C62.6751 64.8463 68.0821 64.2286 61.9782 75.8694C55.8743 87.5102 67.2649 87.5102 67.2649 87.5102L76.0992 75.3879L87.588 56.1196Z" fill="#2D3133"/>
<path d="M77.6511 41.0204C77.6511 41.0204 87.2172 42.5282 87.5941 56.1202C87.971 69.7123 85.0125 72.6074 76.6438 69.7756C68.2751 66.9438 65.6334 52.7214 65.4433 50.52C65.2532 48.3185 64.7528 39.3828 77.6511 41.0204Z" fill="#EEA886"/>
<path d="M60.8518 88.2931C60.8138 92.9716 66.1923 104.159 67.0222 107.615C67.8521 111.071 69.1635 112.173 68.058 116.595C66.9525 121.017 63.5284 135.974 63.6646 137.286C63.8008 138.597 84.5737 145.195 99.1223 142.541C99.1223 142.541 93.465 121.429 93.0501 119.009C92.6351 116.589 93.5537 107.527 93.7596 104.97C93.9655 102.414 96.5534 96.9121 96.4679 94.3495C96.3792 91.7394 95.0963 89.4873 93.3003 86.6998C92.746 85.8351 92.16 84.9545 91.5772 84.0993C89.6766 81.3118 87.7761 78.7777 86.848 77.9067C86.2554 77.3507 85.62 76.8423 84.9474 76.3862C84.3399 75.9601 83.6811 75.6121 82.9867 75.3504L74.751 74.0391C74.751 74.0391 69.6259 75.8921 66.6801 76.5731C66.6896 76.5826 60.9373 77.422 60.8518 88.2931Z" fill="#E55353"/>
<path d="M84.9394 76.3867L89.6908 83.8939L94.0905 90.8245C94.0905 90.7865 93.7737 89.738 93.2891 86.7067C93.1941 86.1302 93.0927 85.4808 92.9724 84.7523C92.9397 84.5383 92.8932 84.3267 92.833 84.1188C90.9514 79.7824 85.1326 76.5166 84.9141 76.3994L84.9394 76.3867Z" fill="#E55353"/>
<path d="M71.2748 63.6681C72.1015 65.2329 72.9789 74.951 72.9789 74.951C72.9789 74.951 84.6768 79.3856 83.4794 76.8737C82.9378 75.7365 82.7762 74.2636 82.7667 72.9934C82.7581 72.2048 82.8015 71.4165 82.8966 70.6336C82.9251 70.3802 82.9504 70.2313 82.9504 70.2313C82.9504 70.2313 70.4354 62.0843 71.2748 63.6681Z" fill="#EEA886"/>
<path d="M81.5505 50.7731C81.5505 50.7731 76.6408 58.7617 72.1745 61.9103C67.7082 65.0589 69.9731 67.5739 69.9731 67.5739C69.9731 67.5739 58.3164 43.0316 69.3966 41.3338C80.4767 39.636 87.2775 39.5093 87.5911 56.12C87.5911 56.12 82.5578 50.6464 81.5505 50.7731Z" fill="#2D3133"/>
<path d="M76.2109 69.6162C78.0069 72.2643 82.7488 72.977 82.7488 72.977C82.7402 72.1884 82.7836 71.4001 82.8787 70.6172C79.822 71.2063 76.2109 69.6162 76.2109 69.6162Z" fill="#A77860"/>
<path d="M92.8418 84.0554C92.8418 84.0554 93.0952 84.5812 93.3043 86.7003L91.5812 84.0997C91.5812 84.0997 88.5054 79.6873 87.4633 78.5407C86.6983 77.7461 85.8605 77.0249 84.9609 76.3867C84.9609 76.3867 91.0015 79.2977 92.8418 84.0554Z" fill="#DBDFF0"/>
<path d="M66.909 112.229C69.0961 112.985 71.3231 113.619 73.5799 114.13C76.7886 114.808 73.469 118.656 73.469 118.656C73.469 118.656 67.9068 118.143 65.2333 117.884C63.9378 117.751 66.909 112.229 66.909 112.229Z" fill="#EEA886"/>
<path d="M69.5667 90.6342C69.5667 90.6342 62.0596 87.6915 59.8359 87.5205C59.8359 87.5205 61.3469 75.4616 68.721 76.7508C76.0951 78.04 69.5667 90.6342 69.5667 90.6342Z" fill="#E55353"/>
<path d="M82.9883 75.3501C82.9883 75.3501 88.503 83.8265 86.6341 84.5677C84.7653 85.3089 74.6702 83.5794 70.375 75.5275C70.3655 75.5275 76.7862 72.2364 82.9883 75.3501Z" fill="#EEA886"/>
<path d="M72.9363 74.5928C72.9363 74.5928 78.7805 84.2919 79.5502 102.737C80.3199 121.181 73.7725 180.089 74.1811 187.276L56.5156 179.642C56.5156 179.642 63.1675 131.47 65.3848 122.284C67.6021 113.098 60.6113 101.013 59.8352 87.5196C59.8352 87.5196 60.3262 78.2608 65.6952 76.7499C71.0643 75.239 72.9363 74.5928 72.9363 74.5928Z" fill="#DBDFF0"/>
<path d="M61.1347 84.343C61.1347 84.343 62.4556 75.4358 68.9839 76.9023C75.2557 78.3151 69.3799 89.9939 68.9174 91.375C68.455 92.756 63.8113 104.045 63.409 105.534C62.142 110.212 63.3298 110.323 65.2462 111.426C70.9035 114.685 82.5348 114.47 83.8747 115.366C85.2145 116.263 85.1417 119.05 82.8832 119.145C79.95 119.272 63.1968 117.694 60.8591 117.466C58.5911 117.244 54.0805 117.054 55.2652 108.999C56.0666 103.58 61.1347 84.343 61.1347 84.343Z" fill="#EEA886"/>
<path d="M82.9922 75.3506C82.9922 75.3506 89.2006 85.6673 89.5237 97.8783C89.8468 110.089 101.228 162.18 100.031 188.835L102.679 186.269C103.1 185.861 103.429 185.367 103.643 184.82C103.857 184.274 103.95 183.688 103.917 183.102C103.458 175.439 101.437 146.187 96.4353 130.159C90.6482 111.61 95.5136 99.3132 96.486 96.0031C97.4585 92.693 94.3511 88.2838 93.3185 86.7095C92.2858 85.1352 89.7676 77.8783 82.9922 75.3506Z" fill="#DBDFF0"/>
<path d="M69.4438 97.3965L64.2109 130.342L85.3544 133.7L91.414 100.887L69.4438 97.3965Z" fill="#616161"/>
<path d="M70.3766 99.4365L65.7266 128.695L84.5071 131.679L89.8888 102.534L70.3766 99.4365Z" fill="#E0CEC7"/>
<path d="M76.0781 101.086L76.4044 99.0303L83.997 100.237L83.9685 102.337L76.0781 101.086Z" fill="#616161"/>
<path d="M73.5796 114.124C73.5796 114.124 77.0639 114.706 77.3965 114.656C77.7291 114.605 79.1039 112.34 80.7035 111.935C82.3031 111.529 84.3018 111.216 84.796 110.908C85.2901 110.601 85.4295 112.175 83.8869 112.809C82.3443 113.443 81.9642 114.307 84.8371 114.884C86.4209 115.201 92.3791 114.538 91.885 115.543C91.5936 116.135 85.8666 116.556 85.8666 116.556C85.8666 116.556 92.0529 116.528 92.2619 116.902C92.6769 117.64 86.4716 117.899 86.2119 117.874C86.2119 117.874 91.5302 118.191 91.5777 118.656C91.6347 119.249 86.2499 118.998 86.2974 119.093C86.2974 119.093 90.5261 119.385 90.4817 119.746C90.4279 120.218 86.706 120.275 85.987 120.193C85.2679 120.11 77.9794 119.277 76.7567 119.033C75.534 118.789 73.4688 118.647 73.4688 118.647L73.5796 114.124Z" fill="#EEA886"/>
<path d="M60.1145 85.3058C60.1145 85.3058 54.1151 108.014 54.6156 113.595C55.1161 119.177 76.7157 120.228 76.7157 120.228V114.349C76.7157 114.349 65.4075 111.841 63.2852 109.246C62.1829 107.894 69.5633 90.6368 69.5633 90.6368C69.5633 90.6368 76.1646 79.8418 69.9054 77.0923C63.6463 74.3429 60.9539 82.04 60.1145 85.3058Z" fill="#DBDFF0"/>
<g style="mix-blend-mode:screen" opacity="0.98">
<path d="M116.094 2.26855H20.3357C14.1183 2.26855 9.07812 7.30872 9.07812 13.5261V244.92C9.07812 251.137 14.1183 256.178 20.3357 256.178H116.094C122.312 256.178 127.352 251.137 127.352 244.92V13.5261C127.352 7.30872 122.312 2.26855 116.094 2.26855Z" fill="#A3CDFF"/>
</g>
<path d="M97.5197 184.669C92.7284 183.573 87.8221 183.062 82.9078 183.145V168.942C82.9078 168.942 82.8539 164.32 82.6797 157.662C85.0496 154.319 87.6245 151.127 90.3895 148.103L97.5197 184.669Z" fill="#B3B7C4"/>
<path d="M103.295 247.254C103.295 247.254 108.841 256.655 111.182 258.192C114.349 260.276 112.37 262.385 110.865 262.385C109.36 262.385 101.647 262.94 99.9464 261.011C98.2454 259.082 97.4123 253.304 95.8286 251.793C94.2448 250.282 92.8004 244.707 96.5983 242.816C100.751 240.735 103.295 247.254 103.295 247.254Z" fill="#2D2D30"/>
<path d="M101.212 242.319C101.212 242.319 107.23 254.125 108.339 255.753C109.447 257.381 106.277 257.378 104.319 256.605C102.361 255.832 97.287 247.999 96.7359 246.494C96.1847 244.99 96.587 242.813 96.587 242.813L101.212 242.319Z" fill="#EEA886"/>
<path d="M94.4531 249.04L95.9165 260.332L96.6958 260.364L96.4519 252.242L94.4531 249.04Z" fill="#2D2D30"/>
<path d="M108.219 138.904C108.323 140.315 108.336 141.73 108.257 143.143C108.193 144.21 109.958 150.523 110.246 151.321C110.49 151.993 110.816 151.451 110.905 150.932C110.959 150.634 110.696 148.34 110.737 147.067C110.775 145.996 110.952 145.547 111.218 145.8C111.485 146.054 113.046 149.984 113.211 151.818C113.376 153.652 114.994 157.492 115.72 156.64C116.445 155.787 116.337 147.964 115.32 145.322C114.304 142.68 112.289 139.598 112.289 139.598L108.219 138.904Z" fill="#EEA886"/>
<path d="M107.379 140.424C107.082 139.582 99.8247 127.941 98.0857 124.235C96.3468 120.529 94.8232 117.124 94.0091 115.683C93.9552 115.588 93.8665 115.423 93.7493 115.198C93.1824 114.115 91.9438 111.714 90.7022 109.455L90.4392 108.986L90.2207 108.093C89.3464 106.541 89.8532 105.505 89.6822 104.194C89.6232 103.752 89.4904 103.324 89.2894 102.927C89.2829 102.909 89.2744 102.892 89.2641 102.876C88.2029 100.776 87.3635 98.9293 87.1038 97.8618C86.2327 94.3173 82.0547 78.5967 82.0547 78.5967C82.0547 78.5967 88.7984 80.9724 89.8501 83.3892C91.4339 87.0541 93.3186 92.5751 93.8285 94.2825C94.3385 95.9898 99.1025 110.12 100.088 113.006C101.073 115.892 102.074 118.293 103.167 120.13C104.259 121.967 112.156 138.622 112.71 140.133C112.71 140.114 107.677 141.273 107.379 140.424Z" fill="#DBDFF0"/>
<path d="M102.097 170.843C101.679 176.763 101.007 182.167 101.061 185.442C101.058 186.139 101.125 186.834 101.261 187.517C101.894 190.105 101.463 196.738 100.843 199.123C100.222 201.508 100.573 240.491 101.72 242.677C101.72 242.677 91.7454 243.944 90.1965 243.228C90.1965 243.228 87.862 212.24 88.2674 206.133C88.6729 200.025 89.9652 192.708 88.8344 188.043C88.657 187.33 88.3213 186.171 87.8841 184.701C87.2886 182.734 86.4936 180.2 85.632 177.463C84.7704 174.726 83.8138 171.761 82.9079 168.942C82.9079 168.942 82.7748 156.098 82.1128 142.455C81.9513 139.316 81.7771 136.161 81.5617 133.088C81.5617 132.86 81.5332 132.629 81.5078 132.401C82.3999 131.915 83.3614 131.569 84.3586 131.375C87.1619 130.795 90.9092 131.058 95.8981 132.55C95.8981 132.55 98.3498 139.937 99.1195 142.537C99.1987 142.807 99.2525 143.022 99.2937 143.171C99.7118 144.827 102.626 163.377 102.097 170.843Z" fill="#3B3B40"/>
<path d="M84.6311 138.169C84.6311 146.959 84.4442 161.907 83.4464 166.275C83.2563 167.095 83.0821 167.985 82.9047 168.942C82.9047 168.942 82.7717 156.097 82.1097 142.455C81.9481 139.316 81.7739 136.161 81.5585 133.088C81.5173 132.455 81.4762 131.821 81.4223 131.188C81.3685 130.554 81.3305 129.921 81.2734 129.287C82.3381 129.929 83.3689 130.626 84.3618 131.375L84.6057 131.565C84.6057 131.565 84.6311 134.26 84.6311 138.169Z" fill="#3B3B40"/>
<path d="M87.5825 56.1194L76.0969 75.3687C76.7304 74.127 76.1793 73.0501 75.1815 69.1413C74.8869 67.982 74.548 66.566 74.1964 64.8271C73.9683 63.6677 73.7117 62.3595 73.471 60.8771C72.0424 52.2772 75.3969 44.1904 77.0028 40.9531C77.0693 40.8327 77.1232 40.725 77.177 40.6173C77.5667 39.8635 77.8106 39.458 77.8106 39.458C90.0089 40.4843 87.5825 56.1194 87.5825 56.1194Z" fill="#2D3133"/>
<path d="M76.6542 69.7748C76.152 69.6039 75.6646 69.392 75.1971 69.1413C74.6998 67.1996 74.1043 64.5705 73.4866 60.8771C72.058 52.2772 75.4125 44.1904 77.0184 40.9531L77.652 41.0355C77.652 41.0355 87.2085 42.5464 87.5855 56.1321C87.9624 69.7178 85.0071 72.6066 76.6542 69.7748Z" fill="#EEA886"/>
<path d="M99.1255 142.54C93.8547 143.51 87.7476 143.256 82.1125 142.458C81.574 131.609 80.7251 120.231 79.3377 114.45C77.0856 105.04 75.9136 89.8764 75.7774 81.4253C75.7111 79.613 75.7651 77.7982 75.9389 75.993C75.9692 75.7765 76.0234 75.564 76.1005 75.3594C76.2782 75.0271 76.3717 74.6562 76.3729 74.2793L82.9931 75.3563C83.6866 75.6102 84.3437 75.9542 84.9475 76.3794C85.623 76.8278 86.2588 77.3333 86.848 77.8903C87.7793 78.7677 89.6798 81.3018 91.5804 84.0893C92.16 84.9413 92.7397 85.8156 93.2909 86.693C95.0837 89.4678 96.3792 91.7326 96.4584 94.3363C96.5376 96.9401 93.9655 102.395 93.7501 104.957C93.5348 107.52 92.632 116.576 93.0501 119.002C93.4682 121.429 99.1255 142.54 99.1255 142.54Z" fill="#0D257B"/>
<path d="M84.9394 76.3867L89.6908 83.8939L94.0905 90.8245C94.0905 90.7865 93.7737 89.738 93.2891 86.7067C93.1941 86.1302 93.0927 85.4808 92.9724 84.7523C92.9397 84.5383 92.8932 84.3267 92.833 84.1188C90.9514 79.7824 85.1326 76.5166 84.9141 76.3994L84.9394 76.3867Z" fill="#E55353"/>
<path d="M75.9421 75.9896C75.9724 75.7731 76.0266 75.5607 76.1037 75.3561C76.7372 74.1144 76.186 73.0375 75.1882 69.1287C74.8937 67.9694 74.5547 66.5534 74.2031 64.8145C77.6874 66.7815 82.9393 70.1993 82.9393 70.1993C82.9393 70.1993 82.9108 70.3482 82.8854 70.6048C82.7958 71.3881 82.7556 72.1762 82.7651 72.9646C82.7651 74.2316 82.9266 75.7014 83.4651 76.8322C84.2633 78.5237 79.3251 77.1078 75.9421 75.9896Z" fill="#EEA886"/>
<path d="M87.5838 56.1192C87.5838 56.1192 82.5569 50.6457 81.5464 50.7692C81.5464 50.7692 77.5299 57.3071 73.4723 60.8769C71.9867 51.9666 75.6547 43.5978 77.1783 40.6045C83.58 40.7122 87.3557 43.8544 87.5838 56.1192Z" fill="#2D3133"/>
<path d="M76.2109 69.6162C78.0069 72.2643 82.7488 72.977 82.7488 72.977C82.7402 72.1884 82.7836 71.4001 82.8787 70.6172C79.822 71.2063 76.2109 69.6162 76.2109 69.6162Z" fill="#A77860"/>
<path d="M92.8418 84.0554C92.8418 84.0554 93.0952 84.5812 93.3043 86.7003L91.5812 84.0997C91.5812 84.0997 88.5054 79.6873 87.4633 78.5407C86.6983 77.7461 85.8605 77.0249 84.9609 76.3867C84.9609 76.3867 91.0015 79.2977 92.8418 84.0554Z" fill="#DBDFF0"/>
<path d="M86.6295 84.5741C85.3624 85.0873 80.2531 84.4411 75.7774 81.4351C75.7111 79.6227 75.7651 77.8079 75.9389 76.0027C75.9692 75.7862 76.0234 75.5737 76.1005 75.3692C76.3152 74.9641 76.4045 74.5043 76.357 74.0483C78.6458 73.8906 80.9354 74.342 82.9931 75.3565C82.9931 75.3565 88.5015 83.8203 86.6295 84.5741Z" fill="#EEA886"/>
<path d="M79.4018 114.771C79.4013 114.724 79.3916 114.678 79.3733 114.634C79.3733 114.568 79.3479 114.514 79.3353 114.448C79.2276 113.976 79.1199 113.497 79.0185 112.99C76.9691 103.542 75.9048 89.4554 75.7812 81.4225V81.2324C77.3999 85.9648 79.1515 93.1741 79.557 102.734C79.671 105.778 79.6045 109.931 79.4018 114.771Z" fill="#DBDFF0"/>
<path d="M82.8815 119.152C82.3557 119.177 81.4117 119.136 80.1859 119.069C79.942 117.384 79.6728 115.876 79.375 114.635C81.6683 114.879 83.4073 115.053 83.8666 115.363C85.2097 116.266 85.1336 119.044 82.8815 119.152Z" fill="#EEA886"/>
<path d="M82.9922 75.3506C82.9922 75.3506 89.2006 85.6673 89.5237 97.8783C89.8468 110.089 101.228 162.18 100.031 188.835L102.679 186.269C103.1 185.861 103.429 185.367 103.643 184.82C103.857 184.274 103.95 183.688 103.917 183.102C103.458 175.439 101.437 146.187 96.4353 130.159C90.6482 111.61 95.5136 99.3132 96.486 96.0031C97.4585 92.693 94.3511 88.2838 93.3185 86.7095C92.2858 85.1352 89.7676 77.8783 82.9922 75.3506Z" fill="#DBDFF0"/>
<path d="M91.4112 100.887L85.358 133.694L81.5569 133.089C81.5157 132.455 81.4745 131.821 81.4207 131.188C81.1039 126.886 80.7206 122.845 80.2487 119.515C80.2233 119.367 80.2075 119.218 80.1822 119.069C79.9509 117.438 79.6817 115.984 79.3998 114.77C79.3993 114.724 79.3896 114.677 79.3713 114.634C79.3713 114.568 79.3459 114.514 79.3332 114.447C79.2256 113.975 79.1179 113.497 79.0165 112.99C78.2183 109.322 77.5721 104.942 77.0621 100.494C76.9924 99.8607 76.9259 99.2272 76.8594 98.5684L91.4112 100.887Z" fill="#616161"/>
<path d="M89.8943 102.531L84.5094 131.673L81.4211 131.188C81.1043 126.886 80.721 122.844 80.2491 119.515C80.2237 119.367 80.2079 119.218 80.1826 119.069C79.9513 117.437 79.6821 115.984 79.4002 114.77C79.3997 114.724 79.39 114.677 79.3717 114.634C79.3717 114.568 79.3463 114.514 79.3336 114.447C79.2259 113.975 79.1183 113.497 79.0169 112.99C78.2187 109.322 77.5725 104.941 77.0625 100.494L89.8943 102.531Z" fill="#E0CEC7"/>
<path d="M83.9953 100.237L83.9699 102.341L77.147 101.264C77.109 101.007 77.0805 100.75 77.0551 100.494C77.0013 100.035 76.9601 99.5784 76.9062 99.1191L83.9953 100.237Z" fill="#616161"/>
<path d="M91.5797 118.667C91.6462 119.259 86.255 119.003 86.3088 119.098C86.3088 119.098 90.4869 119.392 90.4869 119.756C90.433 120.228 86.7111 120.282 85.9984 120.203C85.555 120.149 82.7105 119.823 80.2556 119.516C80.2303 119.367 80.2144 119.218 80.1891 119.069C79.9452 117.384 79.676 115.876 79.3782 114.635C79.3782 114.568 79.3529 114.514 79.3402 114.448C79.2325 113.976 79.1248 113.497 79.0234 112.991C79.4945 112.506 80.0776 112.145 80.7213 111.939C82.305 111.533 84.3196 111.21 84.8042 110.916C85.2889 110.621 85.4378 112.167 83.9015 112.816C82.3652 113.466 81.9756 114.311 84.8518 114.891C86.4355 115.208 92.3874 114.54 91.8901 115.55C91.605 116.145 85.8717 116.564 85.8717 116.564C85.8717 116.564 92.058 116.535 92.2607 116.899C92.663 117.628 86.7745 117.884 86.2423 117.884C86.6604 117.91 91.548 118.208 91.5797 118.667Z" fill="#EEA886"/>
<path d="M104.164 50.2943L111.244 43.2148H150.537V9.60059H104.164V50.2943Z" fill="#F5C86F"/>
<path d="M241.37 114.117L235.745 108.488H204.516V81.7764H241.37V114.117Z" fill="#F5C86F"/>
<path d="M303.788 206.357H174.805V246.452H303.788V206.357Z" fill="url(#paint1_linear_4174_48123)"/>
<path d="M326.984 152.629L323.015 150.728C320.491 149.529 317.595 149.38 314.961 150.313C312.327 151.247 310.172 153.187 308.967 155.708L305.827 162.277L287.43 200.922H179.258V226.392H303.788L331.979 166.674C333.179 164.149 333.326 161.251 332.39 158.617C331.453 155.983 329.508 153.829 326.984 152.629Z" fill="url(#paint2_linear_4174_48123)"/>
<path d="M303.797 268.324V246.449H297.652V268.324H303.797Z" fill="url(#paint3_linear_4174_48123)"/>
<path d="M180.953 268.324V246.449H174.808V268.324H180.953Z" fill="url(#paint4_linear_4174_48123)"/>
<path d="M194.807 199.443C194.807 199.443 193.249 197.083 192.996 195.699C192.854 194.897 192.495 194.149 191.957 193.538C191.957 193.538 186.059 192.68 183.791 190.577C181.523 188.473 176.721 182.737 174.456 184.457C172.191 186.177 176.097 193.402 178.412 195.588C180.728 197.773 183.86 201.606 186.705 201.315C189.549 201.023 193.426 199.664 194.807 199.443Z" fill="#CFBFB8"/>
<path d="M194.804 199.082L191.953 193.539C191.953 193.539 205.574 191.043 209.558 188.642C210.559 188.04 211.551 187.438 212.476 186.868C214.582 185.569 216.324 184.445 216.942 183.922C218.906 182.249 226.793 176.665 228.922 174.612C231.05 172.56 233.565 173.811 236.885 173.846C240.205 173.881 252.235 177.213 255.83 177.688C259.425 178.163 272.409 180.552 272.409 180.552C270.135 186.814 194.804 199.082 194.804 199.082Z" fill="#25354D"/>
<path d="M273.186 180.361C273.186 180.361 265.856 181.416 263.971 181.562C262.039 181.708 251.124 182.585 245.862 183.092C240.601 183.599 230.259 183.294 228.206 184.197C226.154 185.1 214.297 189.104 210.417 190.371C206.537 191.638 181.323 196.24 181.323 196.24C181.323 196.24 180.889 199.655 183.122 202.278C183.122 202.278 194.234 201.286 200.1 202.148C205.967 203.009 216.211 201.695 222.429 198.876C228.647 196.057 238.504 198.629 244.012 200.564C249.521 202.499 270.579 204.048 273.208 203.462C275.837 202.876 281.076 200.346 284.874 196.215C288.672 192.084 273.186 180.361 273.186 180.361Z" fill="#2F4563"/>
<path d="M183.122 202.278C183.122 202.278 182.172 199.611 182.27 198.207C182.369 196.804 181.928 196.126 181.928 196.126C181.928 196.126 176.277 193.592 174.586 190.995C172.894 188.397 169.622 181.682 167.006 182.8C164.389 183.918 166.436 191.878 168.153 194.555C169.869 197.232 170.934 204.375 173.762 204.777C176.591 205.179 181.732 202.16 183.122 202.278Z" fill="#EDDAD3"/>
<path d="M289.663 175.667C289.663 175.667 298.929 196.693 284.548 201.79C273.078 205.857 251.922 202.107 251.922 202.107L264.931 181.606L289.663 175.667Z" fill="#2F4563"/>
<path d="M265.817 96.3321C269.342 97.1145 267.242 105.974 269.618 118.356C271.994 130.738 279.438 132.674 279.438 132.674C279.438 132.674 276.121 127.184 276.485 121.441C276.767 116.956 282.187 104.717 276.831 96.7185C272.681 90.5354 265.367 96.1484 265.367 96.1484L265.817 96.3321Z" fill="#323657"/>
<path d="M271.129 122.113L264.268 129.173C264.205 127.875 263.729 126.3 263.242 124.986C263.001 124.352 262.757 123.76 262.561 123.307C262.301 122.718 262.117 122.357 262.117 122.357L268.234 115.889L271.129 122.113Z" fill="#EEA886"/>
<path d="M262.963 128.479C262.709 130.775 261.989 132.996 260.847 135.004C259 138.137 255.944 143.335 256.378 146.724C256.812 150.113 258.246 151.333 259.545 152.549C260.844 153.766 264.407 162.549 264.841 165.929C265.275 169.309 265.548 176.331 264.724 181.498C264.724 181.498 288.779 184.288 291.199 180.085C291.199 180.085 288.215 166.572 286.805 163.186C285.396 159.8 282.45 139.537 281.186 136.094C279.922 132.651 276.941 129.318 275.117 126.93C273.492 124.801 270.514 120.813 270.514 120.813L262.963 128.479Z" fill="#EB4747"/>
<path d="M259.951 97.0509C256.784 97.2631 249.958 99.6578 249.844 108.137C250.161 109.48 250.585 110.796 251.111 112.071C251.861 113.782 250.876 119.189 251.323 119.401C251.77 119.613 253.515 119.74 253.515 119.74C253.515 119.74 256.017 125.236 258.016 124.957C260.015 124.678 267.417 122.233 270.17 114.72C272.923 107.206 272.767 96.1956 259.951 97.0509Z" fill="#EEA886"/>
<path d="M249.844 108.151C249.844 108.151 255.371 111.052 260.541 111.169C265.71 111.286 269.942 119.573 269.942 119.573C269.942 119.573 276.201 105.534 269.036 98.4135C261.871 91.2928 247.611 98.5339 249.844 108.151Z" fill="#323657"/>
<path d="M261.755 111.121C261.67 110.133 262.595 108.527 264.366 109.686C266.136 110.845 264.505 115.777 263.13 115.473C261.755 115.169 261.844 112.132 261.755 111.121Z" fill="#EEA886"/>
<path d="M267.458 119.382C267.363 119.543 264.845 123.664 263.236 124.985C262.995 124.352 262.751 123.759 262.555 123.306C262.555 123.306 266.15 121.165 267.458 119.382Z" fill="#A77860"/>
<path d="M216.239 188.362L249.852 182.017L249.299 179.091L215.686 185.436L216.239 188.362Z" fill="#C4C4C4"/>
<path d="M196.873 160.158L216.219 188.369L218.674 186.685L199.329 158.474L196.873 160.158Z" fill="#C4C4C4"/>
<path d="M222.657 184.124C222.489 183.376 222.657 182.128 225.01 180.871C227.364 179.613 232.441 176.753 234.228 176.674C236.014 176.594 239.534 176.889 240.246 176.883C240.959 176.876 239.115 181.137 239.115 181.137L222.657 184.124Z" fill="#EEA886"/>
<path d="M239.436 177.21C239.436 177.21 249.255 173.352 250.839 172.582C252.423 171.812 259.86 169.316 260.519 168.987C261.178 168.658 264.279 150.118 264.554 145.449C264.83 140.78 265.105 130.9 270.376 131.337C275.647 131.774 276.911 135.237 276.252 142.047C275.593 148.857 271.688 173.235 270.041 174.058C268.393 174.882 249.483 179.126 239.512 181.1C229.968 183.003 239.436 177.21 239.436 177.21Z" fill="#EEA886"/>
<path d="M264.013 146.902C264.013 146.902 271.616 148.318 275.99 148.758C275.99 148.758 281.438 133.237 274.02 130.754C265.227 127.814 263.263 139.845 264.013 146.902Z" fill="#EDDAD3"/>
<defs>
<linearGradient id="paint0_linear_4174_48123" x1="-0.00088501" y1="129.062" x2="129.242" y2="129.062" gradientUnits="userSpaceOnUse">
<stop stop-color="#0D257B"/>
<stop offset="1" stop-color="#FFD255"/>
</linearGradient>
<linearGradient id="paint1_linear_4174_48123" x1="174.805" y1="226.402" x2="303.785" y2="226.402" gradientUnits="userSpaceOnUse">
<stop stop-color="#5C5A56"/>
<stop offset="1" stop-color="#42413E"/>
</linearGradient>
<linearGradient id="paint2_linear_4174_48123" x1="256.128" y1="348.701" x2="256.128" y2="117.485" gradientUnits="userSpaceOnUse">
<stop offset="0.01" stop-color="#425499"/>
<stop offset="1" stop-color="#8379B8"/>
</linearGradient>
<linearGradient id="paint3_linear_4174_48123" x1="300.721" y1="235.765" x2="300.721" y2="275.787" gradientUnits="userSpaceOnUse">
<stop stop-color="#5C5A56"/>
<stop offset="1" stop-color="#42413E"/>
</linearGradient>
<linearGradient id="paint4_linear_4174_48123" x1="177.881" y1="235.765" x2="177.881" y2="275.787" gradientUnits="userSpaceOnUse">
<stop stop-color="#5C5A56"/>
<stop offset="1" stop-color="#42413E"/>
</linearGradient>
</defs>
</svg>
