<svg width="140" height="50" viewBox="0 0 140 50" fill="none" xmlns="http://www.w3.org/2000/svg">
<rect y="0.390015" width="139.504" height="49.0999" rx="8" fill="#01112D"/>
<path d="M47.8035 12.69C49.3035 12.59 50.5035 13.69 50.6035 15.09C50.6035 15.29 50.6035 15.39 50.6035 15.59C50.6035 17.49 49.6035 18.59 47.8035 18.59H45.6035V12.59H47.8035V12.69ZM46.6035 17.89H47.7035C48.7035 17.99 49.6035 17.19 49.7035 16.09C49.7035 15.99 49.7035 15.79 49.7035 15.69C49.8035 14.69 49.1035 13.69 48.1035 13.59C48.0035 13.59 47.9035 13.59 47.7035 13.59H46.6035V17.89Z" fill="white"/>
<path d="M51.7037 16.3898C51.6037 15.1898 52.4037 14.1898 53.6037 14.0898C54.8037 13.9898 55.8037 14.7898 55.9037 15.9898C55.9037 16.0898 55.9037 16.2898 55.9037 16.3898C56.0037 17.5898 55.2037 18.5898 54.0037 18.6898C52.8037 18.7898 51.8037 17.9898 51.7037 16.7898C51.7037 16.6898 51.7037 16.5898 51.7037 16.3898ZM55.0037 16.3898C55.0037 15.3898 54.6037 14.8898 53.8037 14.8898C53.0037 14.8898 52.6037 15.4898 52.6037 16.3898C52.6037 17.3898 53.0037 17.9898 53.8037 17.9898C54.6037 17.9898 55.0037 17.3898 55.0037 16.3898Z" fill="white"/>
<path d="M61.6031 18.6901H60.7031L59.8031 15.3901H59.7031L58.8031 18.6901H57.9031L56.7031 14.1901H57.6031L58.4031 17.5901H58.5031L59.4031 14.1901H60.3031L61.2031 17.5901H61.3031L62.1031 14.1901H63.0031L61.6031 18.6901Z" fill="white"/>
<path d="M63.9043 14.19H64.8043V14.89H64.9043C65.1043 14.39 65.7043 14.09 66.2043 14.09C67.0043 13.99 67.7043 14.59 67.8043 15.49C67.8043 15.59 67.8043 15.69 67.8043 15.79V18.69H66.9043V15.99C66.9043 15.29 66.6043 14.89 65.9043 14.89C65.3043 14.89 64.8043 15.29 64.8043 15.89C64.8043 15.99 64.8043 15.99 64.8043 16.09V18.69H63.9043V14.19Z" fill="white"/>
<path d="M69.1035 12.39H70.0035V18.69H69.1035V12.39Z" fill="white"/>
<path d="M71.2037 16.3898C71.1037 15.1898 71.9037 14.1898 73.1037 14.0898C74.3037 13.9898 75.3037 14.7898 75.4037 15.9898C75.4037 16.0898 75.4037 16.2898 75.4037 16.3898C75.5037 17.5898 74.7037 18.5898 73.5037 18.6898C72.3037 18.7898 71.3037 17.9898 71.2037 16.7898C71.2037 16.6898 71.2037 16.5898 71.2037 16.3898ZM74.6037 16.3898C74.6037 15.3898 74.2037 14.8898 73.4037 14.8898C72.6037 14.8898 72.2037 15.4898 72.2037 16.3898C72.2037 17.3898 72.6037 17.9898 73.4037 17.9898C74.1037 17.9898 74.6037 17.3898 74.6037 16.3898Z" fill="white"/>
<path d="M76.4027 17.39C76.4027 16.59 77.0027 16.09 78.1027 16.09L79.3027 15.99V15.59C79.3027 15.09 79.0027 14.89 78.4027 14.89C77.9027 14.89 77.6027 15.09 77.5027 15.39H76.6027C76.7027 14.59 77.4027 14.09 78.4027 14.09C79.5027 14.09 80.2027 14.69 80.2027 15.59V18.69H79.3027V18.09H79.2027C78.9027 18.59 78.4027 18.79 77.8027 18.79C77.1027 18.89 76.4027 18.29 76.3027 17.59C76.4027 17.49 76.4027 17.49 76.4027 17.39ZM79.3027 16.99V16.59L78.2027 16.69C77.6027 16.69 77.3027 16.99 77.3027 17.29C77.3027 17.69 77.7027 17.89 78.1027 17.89C78.7027 18.09 79.2027 17.69 79.3027 16.99C79.3027 17.09 79.3027 17.09 79.3027 16.99Z" fill="white"/>
<path d="M81.3027 16.39C81.3027 14.99 82.0027 14.09 83.2027 14.09C83.8027 14.09 84.3027 14.39 84.6027 14.89H84.7027V12.39H85.6027V18.69H84.7027V17.99H84.6027C84.3027 18.49 83.8027 18.79 83.2027 18.79C82.1027 18.79 81.3027 17.89 81.3027 16.39ZM82.3027 16.39C82.3027 17.39 82.8027 17.89 83.5027 17.89C84.2027 17.89 84.7027 17.29 84.7027 16.39C84.7027 15.49 84.2027 14.89 83.5027 14.89C82.7027 14.89 82.3027 15.49 82.3027 16.39Z" fill="white"/>
<path d="M89.2037 16.3898C89.1037 15.1898 89.9037 14.1898 91.1037 14.0898C92.3037 13.9898 93.3037 14.7898 93.4037 15.9898C93.4037 16.0898 93.4037 16.2898 93.4037 16.3898C93.5037 17.5898 92.7037 18.5898 91.5037 18.6898C90.3037 18.7898 89.3037 17.9898 89.2037 16.7898C89.2037 16.6898 89.2037 16.5898 89.2037 16.3898ZM92.6037 16.3898C92.6037 15.3898 92.2037 14.8898 91.4037 14.8898C90.6037 14.8898 90.2037 15.4898 90.2037 16.3898C90.2037 17.3898 90.6037 17.9898 91.4037 17.9898C92.1037 17.9898 92.6037 17.3898 92.6037 16.3898Z" fill="white"/>
<path d="M94.7031 14.19H95.6031V14.89H95.7031C95.9031 14.39 96.5031 14.09 97.0031 14.09C97.8031 13.99 98.5031 14.59 98.6031 15.49C98.6031 15.59 98.6031 15.69 98.6031 15.79V18.69H97.7031V15.99C97.7031 15.29 97.4031 14.89 96.7031 14.89C96.1031 14.89 95.6031 15.29 95.6031 15.89C95.6031 15.99 95.6031 15.99 95.6031 16.09V18.69H94.7031V14.19Z" fill="white"/>
<path d="M103.503 13.09V14.19H104.503V14.99H103.503V17.29C103.503 17.79 103.703 17.99 104.103 17.99C104.203 17.99 104.303 17.99 104.403 17.99V18.69C104.203 18.69 104.103 18.69 103.903 18.69C102.903 18.69 102.503 18.39 102.503 17.49V14.99H101.803V14.29H102.503V13.09H103.503Z" fill="white"/>
<path d="M105.703 12.39H106.603V14.89H106.703C106.903 14.39 107.503 13.99 108.103 14.09C108.903 14.09 109.603 14.69 109.703 15.49C109.703 15.59 109.703 15.69 109.703 15.79V18.69H108.803V15.99C108.803 15.29 108.503 14.89 107.803 14.89C107.203 14.89 106.703 15.29 106.703 15.89C106.703 15.99 106.703 15.99 106.703 16.09V18.69H105.803L105.703 12.39Z" fill="white"/>
<path d="M114.804 17.4901C114.604 18.2901 113.704 18.8901 112.804 18.7901C111.704 18.7901 110.704 17.8901 110.704 16.7901C110.704 16.6901 110.704 16.5901 110.704 16.4901C110.504 15.3901 111.304 14.2901 112.504 14.1901C112.604 14.1901 112.704 14.1901 112.804 14.1901C114.104 14.1901 114.804 15.0901 114.804 16.4901V16.7901H111.604C111.504 17.4901 112.004 17.9901 112.704 18.0901H112.804C113.204 18.1901 113.704 17.8901 113.904 17.5901L114.804 17.4901ZM111.604 15.9901H113.904C113.904 15.3901 113.504 14.8901 112.904 14.7901H112.804C112.204 14.8901 111.604 15.3901 111.604 15.9901Z" fill="white"/>
<path d="M34.8037 24.2899C34.8037 22.5899 35.7037 20.9899 37.2037 20.0899C36.3037 18.7899 34.8037 17.9899 33.2037 17.8899C31.5037 17.6899 29.9037 18.8899 29.0037 18.8899C28.1037 18.8899 26.8037 17.8899 25.4037 17.8899C23.5037 17.9899 21.8037 18.9899 20.9037 20.5899C19.0037 23.8899 20.4037 28.8899 22.3037 31.5899C23.2037 32.8899 24.3037 34.3899 25.7037 34.3899C27.1037 34.2899 27.6037 33.4899 29.3037 33.4899C31.0037 33.4899 31.4037 34.3899 32.9037 34.3899C34.4037 34.3899 35.3037 33.0899 36.2037 31.6899C36.9037 30.7899 37.4037 29.6899 37.7037 28.5899C35.9037 27.9899 34.8037 26.1899 34.8037 24.2899Z" fill="white"/>
<path d="M32.0042 16.1901C32.8042 15.1901 33.2042 13.9901 33.1042 12.6901C31.9042 12.7901 30.7042 13.3901 29.9042 14.3901C29.1042 15.2901 28.7042 16.4901 28.8042 17.7901C30.1042 17.7901 31.2042 17.1901 32.0042 16.1901Z" fill="white"/>
<path d="M52.3039 31.09H47.6039L46.5039 34.49H44.5039L49.0039 22.09H51.0039L55.5039 34.49H53.5039L52.3039 31.09ZM48.1039 29.59H51.9039L50.0039 24.09H49.9039L48.1039 29.59Z" fill="white"/>
<path d="M65.2031 29.9899C65.2031 32.7899 63.7031 34.5899 61.4031 34.5899C60.2031 34.6899 59.1031 33.9899 58.6031 32.9899V37.4899H56.7031V25.4899H58.5031V26.9899C59.1031 25.9899 60.2031 25.3899 61.4031 25.3899C63.6031 25.2899 65.2031 27.1899 65.2031 29.9899ZM63.2031 29.9899C63.2031 28.1899 62.3031 26.9899 60.8031 26.9899C59.4031 26.9899 58.4031 28.1899 58.4031 29.9899C58.4031 31.7899 59.4031 32.9899 60.8031 32.9899C62.3031 32.9899 63.2031 31.7899 63.2031 29.9899Z" fill="white"/>
<path d="M75.1035 29.9899C75.1035 32.7899 73.6035 34.5899 71.3035 34.5899C70.1035 34.6899 69.0035 33.9899 68.5035 32.9899V37.4899H66.6035V25.4899H68.4035V26.9899C69.0035 25.9899 70.1035 25.3899 71.3035 25.3899C73.6035 25.2899 75.1035 27.1899 75.1035 29.9899ZM73.2035 29.9899C73.2035 28.1899 72.3035 26.9899 70.8035 26.9899C69.4035 26.9899 68.4035 28.1899 68.4035 29.9899C68.4035 31.7899 69.4035 32.9899 70.8035 32.9899C72.3035 32.9899 73.2035 31.7899 73.2035 29.9899Z" fill="white"/>
<path d="M81.7039 30.99C81.8039 32.19 83.0039 32.99 84.7039 32.99C86.3039 32.99 87.4039 32.19 87.4039 31.09C87.4039 30.09 86.7039 29.59 85.1039 29.19L83.5039 28.79C81.2039 28.19 80.2039 27.19 80.2039 25.49C80.2039 23.39 82.1039 21.89 84.7039 21.89C87.3039 21.89 89.1039 23.39 89.2039 25.49H87.3039C87.2039 24.29 86.2039 23.49 84.7039 23.49C83.2039 23.49 82.2039 24.29 82.2039 25.39C82.2039 26.29 82.9039 26.79 84.5039 27.19L85.9039 27.49C88.4039 28.09 89.5039 29.09 89.5039 30.89C89.5039 33.19 87.6039 34.69 84.7039 34.69C81.9039 34.69 80.1039 33.29 80.0039 30.99H81.7039Z" fill="white"/>
<path d="M93.3031 23.29V25.39H95.0031V26.89H93.3031V31.89C93.3031 32.69 93.6031 32.99 94.4031 32.99C94.6031 32.99 94.8031 32.99 95.0031 32.99V34.49C94.7031 34.59 94.3031 34.59 94.0031 34.59C92.2031 34.59 91.5031 33.89 91.5031 32.19V26.99H90.2031V25.49H91.5031V23.39H93.3031V23.29Z" fill="white"/>
<path d="M96.1035 29.99C96.1035 27.19 97.8035 25.39 100.404 25.39C103.004 25.39 104.704 27.19 104.704 29.99C104.704 32.89 103.004 34.59 100.404 34.59C97.7035 34.59 96.1035 32.79 96.1035 29.99ZM102.804 29.99C102.804 27.99 101.904 26.89 100.404 26.89C98.9035 26.89 98.0035 27.99 98.0035 29.99C98.0035 31.99 98.9035 33.09 100.404 33.09C101.904 33.09 102.804 31.89 102.804 29.99Z" fill="white"/>
<path d="M106.203 25.3901H108.003V26.9901C108.203 25.9901 109.203 25.2901 110.203 25.3901C110.403 25.3901 110.603 25.3901 110.803 25.4901V27.1901C110.503 27.0901 110.203 27.0901 110.003 27.0901C109.003 27.0901 108.103 27.8901 108.103 28.8901C108.103 28.9901 108.103 29.0901 108.103 29.1901V34.5901H106.203V25.3901Z" fill="white"/>
<path d="M119.403 31.79C119.203 33.39 117.503 34.59 115.503 34.59C112.903 34.59 111.203 32.79 111.203 29.99C111.203 27.19 112.803 25.29 115.403 25.29C117.903 25.29 119.503 26.99 119.503 29.79V30.39H113.103V30.49C113.003 31.79 113.903 32.89 115.203 33.09C115.303 33.09 115.403 33.09 115.503 33.09C116.403 33.19 117.303 32.69 117.603 31.79H119.403ZM113.103 29.09H117.603C117.703 27.89 116.703 26.89 115.503 26.79C115.403 26.79 115.403 26.79 115.303 26.79C114.103 26.79 113.103 27.79 113.103 29.09Z" fill="white"/>
</svg>
