<svg width="345" height="199" viewBox="0 0 345 199" fill="none" xmlns="http://www.w3.org/2000/svg">
<g filter="url(#filter0_d_7252_6231)">
<path d="M295 27H50C38.9543 27 30 35.9543 30 47V146C30 157.046 38.9543 166 50 166H295C306.046 166 315 157.046 315 146V47C315 35.9543 306.046 27 295 27Z" fill="#E3C57F"/>
</g>
<path d="M84 49H261C266.304 49 271.391 51.1071 275.142 54.8579C278.893 58.6086 281 63.6957 281 69V164H64V69C64 63.6957 66.1071 58.6086 69.8579 54.8579C73.6086 51.1071 78.6957 49 84 49Z" fill="white"/>
<path d="M104.439 62.3115H103.095V60.9685C103.1 60.789 103.069 60.6104 103.003 60.4431C102.938 60.2758 102.84 60.1233 102.715 59.9946C102.589 59.8659 102.44 59.7636 102.274 59.6937C102.109 59.6239 101.931 59.5879 101.751 59.5879C101.572 59.5879 101.394 59.6239 101.229 59.6937C101.063 59.7636 100.913 59.8659 100.788 59.9946C100.663 60.1233 100.565 60.2758 100.499 60.4431C100.434 60.6104 100.403 60.789 100.408 60.9685V62.3115H86.971V60.9685C86.9817 60.7892 86.9544 60.6097 86.8906 60.4417C86.8269 60.2738 86.7283 60.1212 86.6013 59.9942C86.4743 59.8672 86.3217 59.7686 86.1538 59.7049C85.9858 59.6411 85.8063 59.6138 85.627 59.6245C85.4476 59.6138 85.2681 59.6411 85.1001 59.7049C84.9322 59.7686 84.7797 59.8672 84.6526 59.9942C84.5256 60.1212 84.427 60.2738 84.3633 60.4417C84.2995 60.6097 84.2722 60.7892 84.283 60.9685V62.3115H81.596C81.2397 62.3123 80.8984 62.4542 80.6465 62.7061C80.3946 62.9579 80.2527 63.2993 80.252 63.6555V82.4675C80.2527 82.8238 80.3946 83.1651 80.6465 83.417C80.8984 83.6689 81.2397 83.8108 81.596 83.8115H89.796C88.5274 81.6475 88.0595 79.1066 88.4739 76.6326C88.8883 74.1586 90.1588 71.9089 92.0633 70.2764C93.9678 68.6439 96.3854 67.7325 98.8936 67.7012C101.402 67.67 103.841 68.521 105.786 70.1055V63.6555C105.762 63.3064 105.613 62.9777 105.365 62.7305C105.117 62.4834 104.788 62.3345 104.439 62.3115Z" fill="#213C89"/>
<path d="M99.064 70.375C97.4694 70.375 95.9107 70.8478 94.585 71.7337C93.2592 72.6196 92.2258 73.8787 91.6156 75.3518C91.0054 76.8249 90.8458 78.4459 91.1569 80.0098C91.4679 81.5737 92.2358 83.0102 93.3633 84.1377C94.4907 85.2652 95.9273 86.033 97.4911 86.3441C99.055 86.6552 100.676 86.4955 102.149 85.8853C103.622 85.2751 104.881 84.2418 105.767 82.916C106.653 81.5902 107.126 80.0315 107.126 78.437C107.12 76.3008 106.268 74.2538 104.758 72.7433C103.247 71.2328 101.2 70.3813 99.064 70.375ZM101.751 79.781H99.064C98.8846 79.7918 98.7051 79.7644 98.5371 79.7007C98.3692 79.637 98.2167 79.5383 98.0896 79.4113C97.9626 79.2843 97.864 79.1318 97.8003 78.9638C97.7365 78.7959 97.7092 78.6163 97.72 78.437V74.406C97.7295 74.056 97.8752 73.7236 98.1262 73.4794C98.3771 73.2353 98.7133 73.0986 99.0635 73.0986C99.4136 73.0986 99.7498 73.2353 100.001 73.4794C100.252 73.7236 100.397 74.056 100.407 74.406V77.093H101.751C101.93 77.0881 102.109 77.1192 102.276 77.1845C102.444 77.2499 102.596 77.348 102.725 77.4733C102.854 77.5985 102.956 77.7483 103.026 77.9137C103.096 78.0792 103.132 78.2569 103.132 78.4365C103.132 78.6161 103.096 78.7938 103.026 78.9593C102.956 79.1247 102.854 79.2745 102.725 79.3997C102.596 79.525 102.444 79.6231 102.276 79.6884C102.109 79.7538 101.93 79.7859 101.751 79.781Z" fill="#213C89"/>
<path d="M122.396 75V73.74L125.636 70.68C125.892 70.448 126.08 70.24 126.2 70.056C126.32 69.872 126.4 69.704 126.44 69.552C126.488 69.4 126.512 69.26 126.512 69.132C126.512 68.796 126.396 68.54 126.164 68.364C125.94 68.18 125.608 68.088 125.168 68.088C124.816 68.088 124.488 68.156 124.184 68.292C123.888 68.428 123.636 68.64 123.428 68.928L122.012 68.016C122.332 67.536 122.78 67.156 123.356 66.876C123.932 66.596 124.596 66.456 125.348 66.456C125.972 66.456 126.516 66.56 126.98 66.768C127.452 66.968 127.816 67.252 128.072 67.62C128.336 67.988 128.468 68.428 128.468 68.94C128.468 69.212 128.432 69.484 128.36 69.756C128.296 70.02 128.16 70.3 127.952 70.596C127.752 70.892 127.456 71.224 127.064 71.592L124.376 74.124L124.004 73.416H128.744V75H122.396ZM130.842 75V67.32L131.682 68.16H129.162V66.6H132.786V75H130.842ZM134.401 72.372V70.872H137.797V72.372H134.401ZM142.509 75.144C141.821 75.144 141.205 74.976 140.661 74.64C140.117 74.296 139.689 73.8 139.377 73.152C139.065 72.504 138.909 71.72 138.909 70.8C138.909 69.88 139.065 69.096 139.377 68.448C139.689 67.8 140.117 67.308 140.661 66.972C141.205 66.628 141.821 66.456 142.509 66.456C143.205 66.456 143.821 66.628 144.357 66.972C144.901 67.308 145.329 67.8 145.641 68.448C145.953 69.096 146.109 69.88 146.109 70.8C146.109 71.72 145.953 72.504 145.641 73.152C145.329 73.8 144.901 74.296 144.357 74.64C143.821 74.976 143.205 75.144 142.509 75.144ZM142.509 73.5C142.837 73.5 143.121 73.408 143.361 73.224C143.609 73.04 143.801 72.748 143.937 72.348C144.081 71.948 144.153 71.432 144.153 70.8C144.153 70.168 144.081 69.652 143.937 69.252C143.801 68.852 143.609 68.56 143.361 68.376C143.121 68.192 142.837 68.1 142.509 68.1C142.189 68.1 141.905 68.192 141.657 68.376C141.417 68.56 141.225 68.852 141.081 69.252C140.945 69.652 140.877 70.168 140.877 70.8C140.877 71.432 140.945 71.948 141.081 72.348C141.225 72.748 141.417 73.04 141.657 73.224C141.905 73.408 142.189 73.5 142.509 73.5ZM146.958 73.236V71.928L150.918 66.6H152.958L149.082 71.928L148.134 71.652H154.746V73.236H146.958ZM151.482 75V73.236L151.542 71.652V70.08H153.378V75H151.482ZM155.601 72.372V70.872H158.997V72.372H155.601ZM159.802 75V73.74L163.042 70.68C163.298 70.448 163.486 70.24 163.606 70.056C163.726 69.872 163.806 69.704 163.846 69.552C163.894 69.4 163.918 69.26 163.918 69.132C163.918 68.796 163.802 68.54 163.57 68.364C163.346 68.18 163.014 68.088 162.574 68.088C162.222 68.088 161.894 68.156 161.59 68.292C161.294 68.428 161.042 68.64 160.834 68.928L159.418 68.016C159.738 67.536 160.186 67.156 160.762 66.876C161.338 66.596 162.002 66.456 162.754 66.456C163.378 66.456 163.922 66.56 164.386 66.768C164.858 66.968 165.222 67.252 165.478 67.62C165.742 67.988 165.874 68.428 165.874 68.94C165.874 69.212 165.838 69.484 165.766 69.756C165.702 70.02 165.566 70.3 165.358 70.596C165.158 70.892 164.862 71.224 164.47 71.592L161.782 74.124L161.41 73.416H166.15V75H159.802ZM170.552 75.144C169.864 75.144 169.248 74.976 168.704 74.64C168.16 74.296 167.732 73.8 167.42 73.152C167.108 72.504 166.952 71.72 166.952 70.8C166.952 69.88 167.108 69.096 167.42 68.448C167.732 67.8 168.16 67.308 168.704 66.972C169.248 66.628 169.864 66.456 170.552 66.456C171.248 66.456 171.864 66.628 172.4 66.972C172.944 67.308 173.372 67.8 173.684 68.448C173.996 69.096 174.152 69.88 174.152 70.8C174.152 71.72 173.996 72.504 173.684 73.152C173.372 73.8 172.944 74.296 172.4 74.64C171.864 74.976 171.248 75.144 170.552 75.144ZM170.552 73.5C170.88 73.5 171.164 73.408 171.404 73.224C171.652 73.04 171.844 72.748 171.98 72.348C172.124 71.948 172.196 71.432 172.196 70.8C172.196 70.168 172.124 69.652 171.98 69.252C171.844 68.852 171.652 68.56 171.404 68.376C171.164 68.192 170.88 68.1 170.552 68.1C170.232 68.1 169.948 68.192 169.7 68.376C169.46 68.56 169.268 68.852 169.124 69.252C168.988 69.652 168.92 70.168 168.92 70.8C168.92 71.432 168.988 71.948 169.124 72.348C169.268 72.748 169.46 73.04 169.7 73.224C169.948 73.408 170.232 73.5 170.552 73.5ZM174.978 75V73.74L178.218 70.68C178.474 70.448 178.662 70.24 178.782 70.056C178.902 69.872 178.982 69.704 179.022 69.552C179.07 69.4 179.094 69.26 179.094 69.132C179.094 68.796 178.978 68.54 178.746 68.364C178.522 68.18 178.19 68.088 177.75 68.088C177.398 68.088 177.07 68.156 176.766 68.292C176.47 68.428 176.218 68.64 176.01 68.928L174.594 68.016C174.914 67.536 175.362 67.156 175.938 66.876C176.514 66.596 177.178 66.456 177.93 66.456C178.554 66.456 179.098 66.56 179.562 66.768C180.034 66.968 180.398 67.252 180.654 67.62C180.918 67.988 181.05 68.428 181.05 68.94C181.05 69.212 181.014 69.484 180.942 69.756C180.878 70.02 180.742 70.3 180.534 70.596C180.334 70.892 180.038 71.224 179.646 71.592L176.958 74.124L176.586 73.416H181.326V75H174.978ZM183.424 75V67.32L184.264 68.16H181.744V66.6H185.368V75H183.424Z" fill="#6D6D6D"/>
<path d="M263.5 103H81.5C79.567 103 78 104.567 78 106.5C78 108.433 79.567 110 81.5 110H263.5C265.433 110 267 108.433 267 106.5C267 104.567 265.433 103 263.5 103Z" fill="#F0EFFF"/>
<path d="M263.5 120H81.5C79.567 120 78 121.567 78 123.5C78 125.433 79.567 127 81.5 127H263.5C265.433 127 267 125.433 267 123.5C267 121.567 265.433 120 263.5 120Z" fill="#F0EFFF"/>
<path d="M263.5 137H81.5C79.567 137 78 138.567 78 140.5C78 142.433 79.567 144 81.5 144H263.5C265.433 144 267 142.433 267 140.5C267 138.567 265.433 137 263.5 137Z" fill="#F0EFFF"/>
<defs>
<filter id="filter0_d_7252_6231" x="0" y="0" width="345" height="199" filterUnits="userSpaceOnUse" color-interpolation-filters="sRGB">
<feFlood flood-opacity="0" result="BackgroundImageFix"/>
<feColorMatrix in="SourceAlpha" type="matrix" values="0 0 0 0 0 0 0 0 0 0 0 0 0 0 0 0 0 0 127 0" result="hardAlpha"/>
<feOffset dy="3"/>
<feGaussianBlur stdDeviation="15"/>
<feColorMatrix type="matrix" values="0 0 0 0 0 0 0 0 0 0 0 0 0 0 0 0 0 0 0.102 0"/>
<feBlend mode="normal" in2="BackgroundImageFix" result="effect1_dropShadow_7252_6231"/>
<feBlend mode="normal" in="SourceGraphic" in2="effect1_dropShadow_7252_6231" result="shape"/>
</filter>
</defs>
</svg>
