<svg width="291" height="50" viewBox="0 0 291 50" fill="none" xmlns="http://www.w3.org/2000/svg">
<rect y="-0.000244141" width="140.7" height="48.6" rx="8" fill="#01112D"/>
<path d="M70.5996 25.7997C68.5996 25.7997 66.8996 27.2997 66.8996 29.4997C66.8996 31.5997 68.5996 33.1997 70.5996 33.1997C72.5996 33.1997 74.2996 31.5997 74.2996 29.4997C74.2996 27.3997 72.5996 25.7997 70.5996 25.7997ZM70.5996 31.6997C69.4996 31.6997 68.4996 30.7997 68.4996 29.4997C68.4996 28.1997 69.4996 27.2997 70.5996 27.2997C71.6996 27.2997 72.6996 28.1997 72.6996 29.4997C72.6996 30.7997 71.6996 31.6997 70.5996 31.6997ZM62.4996 25.7997C60.4996 25.7997 58.7996 27.2997 58.7996 29.4997C58.7996 31.5997 60.4996 33.1997 62.4996 33.1997C64.4996 33.1997 66.1996 31.5997 66.1996 29.4997C66.1996 27.3997 64.4996 25.7997 62.4996 25.7997ZM62.4996 31.6997C61.3996 31.6997 60.3996 30.7997 60.3996 29.4997C60.3996 28.1997 61.3996 27.2997 62.4996 27.2997C63.5996 27.2997 64.5996 28.1997 64.5996 29.4997C64.5996 30.7997 63.5996 31.6997 62.4996 31.6997ZM52.8996 26.9997V28.5997H56.6996C56.5996 29.4997 56.2996 30.0997 55.7996 30.5997C55.2996 31.0997 54.3996 31.6997 52.8996 31.6997C50.5996 31.6997 48.7996 29.8997 48.7996 27.5997C48.7996 25.2997 50.5996 23.4997 52.8996 23.4997C54.1996 23.4997 55.0996 23.9997 55.6996 24.5997L56.7996 23.4997C55.8996 22.5997 54.5996 21.8997 52.8996 21.8997C49.6996 21.8997 47.0996 24.3997 47.0996 27.5997C47.0996 30.7997 49.7996 33.2997 52.8996 33.2997C54.5996 33.2997 55.8996 32.6997 56.8996 31.6997C57.8996 30.6997 58.2996 29.1997 58.2996 28.0997C58.2996 27.6997 58.2996 27.3997 58.1996 27.0997H52.8996V26.9997ZM92.2996 28.1997C91.9996 27.3997 91.0996 25.8997 89.0996 25.8997C87.1996 25.8997 85.5996 27.3997 85.5996 29.5997C85.5996 31.5997 87.1996 33.2997 89.2996 33.2997C90.9996 33.2997 91.9996 32.2997 92.3996 31.6997L91.0996 30.8997C90.6996 31.4997 90.0996 31.8997 89.2996 31.8997C88.4996 31.8997 87.8996 31.4997 87.4996 30.7997L92.4996 28.7997L92.2996 28.1997ZM87.1996 29.3997C87.1996 27.9997 88.2996 27.2997 89.0996 27.2997C89.6996 27.2997 90.2996 27.5997 90.4996 28.0997L87.1996 29.3997ZM83.1996 32.8997H84.7996V22.1997H83.1996V32.8997ZM80.4996 26.6997C80.0996 26.2997 79.3996 25.8997 78.4996 25.8997C76.5996 25.8997 74.9996 27.4997 74.9996 29.5997C74.9996 31.6997 76.6996 33.1997 78.4996 33.1997C79.3996 33.1997 80.0996 32.7997 80.3996 32.3997H80.4996V32.8997C80.4996 34.2997 79.6996 35.0997 78.4996 35.0997C77.4996 35.0997 76.8996 34.3997 76.5996 33.7997L75.1996 34.3997C75.5996 35.3997 76.6996 36.5997 78.4996 36.5997C80.3996 36.5997 81.9996 35.4997 81.9996 32.7997V26.0997H80.4996V26.6997ZM78.6996 31.6997C77.5996 31.6997 76.5996 30.7997 76.5996 29.4997C76.5996 28.1997 77.4996 27.2997 78.6996 27.2997C79.7996 27.2997 80.6996 28.1997 80.6996 29.4997C80.6996 30.7997 79.7996 31.6997 78.6996 31.6997ZM99.8996 22.1997H95.9996V32.9997H97.5996V28.8997H99.8996C101.7 28.8997 103.5 27.5997 103.5 25.5997C103.5 23.4997 101.7 22.1997 99.8996 22.1997ZM99.9996 27.3997H97.6996V23.6997H99.9996C101.2 23.6997 101.9 24.6997 101.9 25.4997C101.9 26.3997 101.2 27.3997 99.9996 27.3997ZM110 25.7997C108.8 25.7997 107.6 26.2997 107.1 27.3997L108.5 27.9997C108.8 27.3997 109.4 27.1997 110 27.1997C110.8 27.1997 111.7 27.6997 111.7 28.5997V28.6997C111.4 28.4997 110.8 28.2997 110 28.2997C108.4 28.2997 106.9 29.0997 106.9 30.6997C106.9 32.0997 108.2 33.0997 109.6 33.0997C110.7 33.0997 111.3 32.5997 111.7 31.9997H111.8V32.7997H113.4V28.6997C113.3 26.8997 111.9 25.7997 110 25.7997ZM109.8 31.6997C109.3 31.6997 108.5 31.3997 108.5 30.7997C108.5 29.9997 109.4 29.5997 110.2 29.5997C110.9 29.5997 111.2 29.7997 111.7 29.9997C111.6 30.9997 110.7 31.6997 109.8 31.6997ZM119 26.0997L117.1 30.7997H117L115.1 26.0997H113.3L116.2 32.5997L114.5 36.1997H116.2L120.7 26.0997H119ZM104.4 32.8997H106V22.1997H104.4V32.8997Z" fill="white"/>
<path d="M20.4 13.5999C20.1 13.8999 20 14.2999 20 14.7999V33.7999C20 34.2999 20.1 34.6999 20.4 34.9999L20.5 35.0999L31.3 24.3999V24.0999L20.4 13.5999Z" fill="url(#paint0_linear_6491_8311)"/>
<path d="M34.7992 27.9998L31.1992 24.3998V24.0998L34.7992 20.4998H34.8992L39.1992 22.8998C40.3992 23.5998 40.3992 24.6998 39.1992 25.3998L34.7992 27.9998Z" fill="url(#paint1_linear_6491_8311)"/>
<path d="M34.9004 27.9999L31.2004 24.3999L20.4004 35.0999C20.8004 35.4999 21.5004 35.5999 22.2004 35.1999L34.9004 27.9999Z" fill="url(#paint2_linear_6491_8311)"/>
<path d="M34.9004 20.7001L22.2004 13.6001C21.5004 13.2001 20.8004 13.2001 20.4004 13.7001L31.3004 24.4001L34.9004 20.7001Z" fill="url(#paint3_linear_6491_8311)"/>
<path d="M52.3996 15.0998C52.3996 16.7998 51.1996 17.8998 49.3996 17.8998H47.5996V12.2998H49.3996C51.1996 12.2998 52.3996 13.3998 52.3996 15.0998ZM49.3996 17.1998C50.6996 17.1998 51.3996 16.3998 51.3996 15.1998C51.3996 13.8998 50.6996 13.0998 49.3996 13.0998H48.4996V17.1998H49.3996Z" fill="white"/>
<path d="M55.2 17.9997C53.9 17.9997 53 17.0997 53 15.6997C53 14.2997 54 13.3997 55.2 13.3997C56.5 13.3997 57.4 14.2997 57.4 15.6997C57.5 17.0997 56.5 17.9997 55.2 17.9997ZM55.2 17.1997C55.9 17.1997 56.6 16.6997 56.6 15.6997C56.6 14.6997 56 14.1997 55.3 14.1997C54.6 14.1997 54 14.6997 54 15.6997C53.9 16.6997 54.5 17.1997 55.2 17.1997Z" fill="white"/>
<path d="M57.9004 13.4998H58.8004L59.7004 16.9998L60.6004 13.4998H61.6004L62.5004 16.9998L63.4004 13.4998H64.3004L62.9004 17.8998H61.9004L61.0004 14.5998L60.1004 17.8998H59.1004L57.9004 13.4998Z" fill="white"/>
<path d="M68.1 15.3997C68.1 14.5997 67.7 14.1997 67 14.1997C66.3 14.1997 65.9 14.5997 65.9 15.3997V17.8997H65V13.4997H65.9V13.9997C66.2 13.5997 66.7 13.3997 67.2 13.3997C68.2 13.3997 69 13.9997 69 15.2997V17.8997H68.1V15.3997Z" fill="white"/>
<path d="M70.1992 11.9998H71.0992V17.8998H70.1992V11.9998Z" fill="white"/>
<path d="M74.2 17.9997C73 17.9997 72 17.0997 72 15.6997C72 14.2997 73 13.3997 74.2 13.3997C75.5 13.3997 76.4 14.2997 76.4 15.6997C76.5 17.0997 75.5 17.9997 74.2 17.9997ZM74.2 17.1997C74.9 17.1997 75.6 16.6997 75.6 15.6997C75.6 14.6997 75 14.1997 74.3 14.1997C73.6 14.1997 73 14.6997 73 15.6997C72.9 16.6997 73.5 17.1997 74.2 17.1997Z" fill="white"/>
<path d="M79.1996 13.3997C79.8996 13.3997 80.4996 13.7997 80.6996 14.0997V13.4997H81.5996V17.8997H80.6996V17.1997C80.3996 17.5997 79.8996 17.8997 79.1996 17.8997C78.0996 17.8997 77.0996 16.9997 77.0996 15.5997C77.0996 14.1997 77.9996 13.3997 79.1996 13.3997ZM79.3996 14.1997C78.6996 14.1997 78.0996 14.6997 78.0996 15.6997C78.0996 16.6997 78.7996 17.1997 79.3996 17.1997C80.0996 17.1997 80.6996 16.6997 80.6996 15.6997C80.6996 14.6997 80.0996 14.1997 79.3996 14.1997Z" fill="white"/>
<path d="M84.6 13.3998C85.2 13.3998 85.8 13.6998 86.1 14.0998V11.9998H87V17.8998H86.1V17.1998C85.8 17.5998 85.3 17.8998 84.6 17.8998C83.4 17.8998 82.5 16.9998 82.5 15.5998C82.5 14.1998 83.4 13.3998 84.6 13.3998ZM84.8 14.1998C84.1 14.1998 83.5 14.6998 83.5 15.6998C83.5 16.6998 84.2 17.1998 84.8 17.1998C85.5 17.1998 86.1 16.6998 86.1 15.6998C86.1 14.6998 85.5 14.1998 84.8 14.1998Z" fill="white"/>
<path d="M92.2 17.9997C91 17.9997 90 17.0997 90 15.6997C90 14.2997 91 13.3997 92.2 13.3997C93.5 13.3997 94.4 14.2997 94.4 15.6997C94.5 17.0997 93.5 17.9997 92.2 17.9997ZM92.2 17.1997C92.9 17.1997 93.6 16.6997 93.6 15.6997C93.6 14.6997 93 14.1997 92.3 14.1997C91.6 14.1997 91 14.6997 91 15.6997C91 16.6997 91.5 17.1997 92.2 17.1997Z" fill="white"/>
<path d="M98.6 15.3997C98.6 14.5997 98.2 14.1997 97.5 14.1997C96.8 14.1997 96.4 14.5997 96.4 15.3997V17.8997H95.5V13.4997H96.4V13.9997C96.7 13.5997 97.2 13.3997 97.7 13.3997C98.7 13.3997 99.5 13.9997 99.5 15.2997V17.8997H98.6V15.3997Z" fill="white"/>
<path d="M102.799 14.1997H102.299V13.4997H102.799V12.3997H103.699V13.4997H104.799V14.1997H103.699V16.5997C103.699 16.8997 103.799 17.0997 104.199 17.0997H104.799V17.8997H104.099C103.299 17.8997 102.799 17.5997 102.799 16.6997V14.1997Z" fill="white"/>
<path d="M105.699 11.9998H106.599V13.9998C106.899 13.5998 107.399 13.3998 107.999 13.3998C108.999 13.3998 109.799 13.9998 109.799 15.2998V17.8998H108.899V15.3998C108.899 14.5998 108.499 14.1998 107.799 14.1998C107.099 14.1998 106.699 14.5998 106.699 15.3998V17.8998H105.799V11.9998H105.699Z" fill="white"/>
<path d="M112.8 17.9997C111.5 17.9997 110.6 17.0997 110.6 15.6997C110.6 14.2997 111.5 13.3997 112.8 13.3997C114.1 13.3997 114.9 14.2997 114.9 15.5997C114.9 15.7997 114.9 15.8997 114.9 15.9997H111.5C111.6 16.6997 112.1 17.1997 112.8 17.1997C113.4 17.1997 113.7 16.8997 113.8 16.5997H114.8C114.5 17.3997 113.8 17.9997 112.8 17.9997ZM111.5 15.2997H113.9C113.9 14.5997 113.3 14.1997 112.7 14.1997C112.1 14.1997 111.6 14.5997 111.5 15.2997Z" fill="white"/>
<rect x="150.699" y="-0.000244141" width="139.504" height="49.0999" rx="8" fill="#01112D"/>
<path d="M198.503 12.2997C200.003 12.1997 201.203 13.2997 201.303 14.6997C201.303 14.8997 201.303 14.9997 201.303 15.1997C201.303 17.0997 200.303 18.1997 198.503 18.1997H196.303V12.1997H198.503V12.2997ZM197.303 17.4997H198.403C199.403 17.5997 200.303 16.7997 200.403 15.6997C200.403 15.5997 200.403 15.3997 200.403 15.2997C200.503 14.2997 199.803 13.2997 198.803 13.1997C198.703 13.1997 198.603 13.1997 198.403 13.1997H197.303V17.4997Z" fill="white"/>
<path d="M202.403 15.9996C202.303 14.7996 203.103 13.7996 204.303 13.6996C205.503 13.5996 206.503 14.3996 206.603 15.5996C206.603 15.6996 206.603 15.8996 206.603 15.9996C206.703 17.1996 205.903 18.1996 204.703 18.2996C203.503 18.3996 202.503 17.5996 202.403 16.3996C202.403 16.2996 202.403 16.1996 202.403 15.9996ZM205.703 15.9996C205.703 14.9996 205.303 14.4996 204.503 14.4996C203.703 14.4996 203.303 15.0996 203.303 15.9996C203.303 16.9996 203.703 17.5996 204.503 17.5996C205.303 17.5996 205.703 16.9996 205.703 15.9996Z" fill="white"/>
<path d="M212.302 18.2998H211.402L210.502 14.9998H210.402L209.502 18.2998H208.602L207.402 13.7998H208.302L209.102 17.1998H209.202L210.102 13.7998H211.002L211.902 17.1998H212.002L212.802 13.7998H213.702L212.302 18.2998Z" fill="white"/>
<path d="M214.604 13.7998H215.504V14.4998H215.604C215.804 13.9998 216.404 13.6998 216.904 13.6998C217.704 13.5998 218.404 14.1998 218.504 15.0998C218.504 15.1998 218.504 15.2998 218.504 15.3998V18.2998H217.604V15.5998C217.604 14.8998 217.304 14.4998 216.604 14.4998C216.004 14.4998 215.504 14.8998 215.504 15.4998C215.504 15.5998 215.504 15.5998 215.504 15.6998V18.2998H214.604V13.7998Z" fill="white"/>
<path d="M219.803 11.9998H220.703V18.2998H219.803V11.9998Z" fill="white"/>
<path d="M221.903 15.9996C221.803 14.7996 222.603 13.7996 223.803 13.6996C225.003 13.5996 226.003 14.3996 226.103 15.5996C226.103 15.6996 226.103 15.8996 226.103 15.9996C226.203 17.1996 225.403 18.1996 224.203 18.2996C223.003 18.3996 222.003 17.5996 221.903 16.3996C221.903 16.2996 221.903 16.1996 221.903 15.9996ZM225.303 15.9996C225.303 14.9996 224.903 14.4996 224.103 14.4996C223.303 14.4996 222.903 15.0996 222.903 15.9996C222.903 16.9996 223.303 17.5996 224.103 17.5996C224.803 17.5996 225.303 16.9996 225.303 15.9996Z" fill="white"/>
<path d="M227.102 16.9997C227.102 16.1997 227.702 15.6997 228.802 15.6997L230.002 15.5997V15.1997C230.002 14.6997 229.702 14.4997 229.102 14.4997C228.602 14.4997 228.302 14.6997 228.202 14.9997H227.302C227.402 14.1997 228.102 13.6997 229.102 13.6997C230.202 13.6997 230.902 14.2997 230.902 15.1997V18.2997H230.002V17.6997H229.902C229.602 18.1997 229.102 18.3997 228.502 18.3997C227.802 18.4997 227.102 17.8997 227.002 17.1997C227.102 17.0997 227.102 17.0997 227.102 16.9997ZM230.002 16.5997V16.1997L228.902 16.2997C228.302 16.2997 228.002 16.5997 228.002 16.8997C228.002 17.2997 228.402 17.4997 228.802 17.4997C229.402 17.6997 229.902 17.2997 230.002 16.5997C230.002 16.6997 230.002 16.6997 230.002 16.5997Z" fill="white"/>
<path d="M232.002 15.9998C232.002 14.5998 232.702 13.6998 233.902 13.6998C234.502 13.6998 235.002 13.9998 235.302 14.4998H235.402V11.9998H236.302V18.2998H235.402V17.5998H235.302C235.002 18.0998 234.502 18.3998 233.902 18.3998C232.802 18.3998 232.002 17.4998 232.002 15.9998ZM233.002 15.9998C233.002 16.9998 233.502 17.4998 234.202 17.4998C234.902 17.4998 235.402 16.8998 235.402 15.9998C235.402 15.0998 234.902 14.4998 234.202 14.4998C233.402 14.4998 233.002 15.0998 233.002 15.9998Z" fill="white"/>
<path d="M239.903 15.9996C239.803 14.7996 240.603 13.7996 241.803 13.6996C243.003 13.5996 244.003 14.3996 244.103 15.5996C244.103 15.6996 244.103 15.8996 244.103 15.9996C244.203 17.1996 243.403 18.1996 242.203 18.2996C241.003 18.3996 240.003 17.5996 239.903 16.3996C239.903 16.2996 239.903 16.1996 239.903 15.9996ZM243.303 15.9996C243.303 14.9996 242.903 14.4996 242.103 14.4996C241.303 14.4996 240.903 15.0996 240.903 15.9996C240.903 16.9996 241.303 17.5996 242.103 17.5996C242.803 17.5996 243.303 16.9996 243.303 15.9996Z" fill="white"/>
<path d="M245.402 13.7998H246.302V14.4998H246.402C246.602 13.9998 247.202 13.6998 247.702 13.6998C248.502 13.5998 249.202 14.1998 249.302 15.0998C249.302 15.1998 249.302 15.2998 249.302 15.3998V18.2998H248.402V15.5998C248.402 14.8998 248.102 14.4998 247.402 14.4998C246.802 14.4998 246.302 14.8998 246.302 15.4998C246.302 15.5998 246.302 15.5998 246.302 15.6998V18.2998H245.402V13.7998Z" fill="white"/>
<path d="M254.202 12.6997V13.7997H255.202V14.5997H254.202V16.8997C254.202 17.3997 254.402 17.5997 254.802 17.5997C254.902 17.5997 255.002 17.5997 255.102 17.5997V18.2997C254.902 18.2997 254.802 18.2997 254.602 18.2997C253.602 18.2997 253.202 17.9997 253.202 17.0997V14.5997H252.502V13.8997H253.202V12.6997H254.202Z" fill="white"/>
<path d="M256.402 11.9998H257.302V14.4998H257.402C257.602 13.9998 258.202 13.5998 258.802 13.6998C259.602 13.6998 260.302 14.2998 260.402 15.0998C260.402 15.1998 260.402 15.2998 260.402 15.3998V18.2998H259.502V15.5998C259.502 14.8998 259.202 14.4998 258.502 14.4998C257.902 14.4998 257.402 14.8998 257.402 15.4998C257.402 15.5998 257.402 15.5998 257.402 15.6998V18.2998H256.502L256.402 11.9998Z" fill="white"/>
<path d="M265.504 17.0998C265.304 17.8998 264.404 18.4998 263.504 18.3998C262.404 18.3998 261.404 17.4998 261.404 16.3998C261.404 16.2998 261.404 16.1998 261.404 16.0998C261.204 14.9998 262.004 13.8998 263.204 13.7998C263.304 13.7998 263.404 13.7998 263.504 13.7998C264.804 13.7998 265.504 14.6998 265.504 16.0998V16.3998H262.304C262.204 17.0998 262.704 17.5998 263.404 17.6998H263.504C263.904 17.7998 264.404 17.4998 264.604 17.1998L265.504 17.0998ZM262.304 15.5998H264.604C264.604 14.9998 264.204 14.4998 263.604 14.3998H263.504C262.904 14.4998 262.304 14.9998 262.304 15.5998Z" fill="white"/>
<path d="M185.503 23.8995C185.503 22.1995 186.403 20.5995 187.903 19.6995C187.003 18.3995 185.503 17.5995 183.903 17.4995C182.203 17.2995 180.603 18.4995 179.703 18.4995C178.803 18.4995 177.503 17.4995 176.103 17.4995C174.203 17.5995 172.503 18.5995 171.603 20.1995C169.703 23.4995 171.103 28.4995 173.003 31.1995C173.903 32.4995 175.003 33.9995 176.403 33.9995C177.803 33.8995 178.303 33.0995 180.003 33.0995C181.703 33.0995 182.103 33.9995 183.603 33.9995C185.103 33.9995 186.003 32.6995 186.903 31.2995C187.603 30.3995 188.103 29.2995 188.403 28.1995C186.603 27.5995 185.503 25.7995 185.503 23.8995Z" fill="white"/>
<path d="M182.703 15.7998C183.503 14.7998 183.903 13.5998 183.803 12.2998C182.603 12.3998 181.403 12.9998 180.603 13.9998C179.803 14.8998 179.403 16.0998 179.503 17.3998C180.803 17.3998 181.903 16.7998 182.703 15.7998Z" fill="white"/>
<path d="M203.003 30.6997H198.303L197.203 34.0997H195.203L199.703 21.6997H201.703L206.203 34.0997H204.203L203.003 30.6997ZM198.803 29.1997H202.603L200.703 23.6997H200.603L198.803 29.1997Z" fill="white"/>
<path d="M215.902 29.5996C215.902 32.3996 214.402 34.1996 212.102 34.1996C210.902 34.2996 209.802 33.5996 209.302 32.5996V37.0996H207.402V25.0996H209.202V26.5996C209.802 25.5996 210.902 24.9996 212.102 24.9996C214.302 24.8996 215.902 26.7996 215.902 29.5996ZM213.902 29.5996C213.902 27.7996 213.002 26.5996 211.502 26.5996C210.102 26.5996 209.102 27.7996 209.102 29.5996C209.102 31.3996 210.102 32.5996 211.502 32.5996C213.002 32.5996 213.902 31.3996 213.902 29.5996Z" fill="white"/>
<path d="M225.803 29.5996C225.803 32.3996 224.303 34.1996 222.003 34.1996C220.803 34.2996 219.703 33.5996 219.203 32.5996V37.0996H217.303V25.0996H219.103V26.5996C219.703 25.5996 220.803 24.9996 222.003 24.9996C224.303 24.8996 225.803 26.7996 225.803 29.5996ZM223.903 29.5996C223.903 27.7996 223.003 26.5996 221.503 26.5996C220.103 26.5996 219.103 27.7996 219.103 29.5996C219.103 31.3996 220.103 32.5996 221.503 32.5996C223.003 32.5996 223.903 31.3996 223.903 29.5996Z" fill="white"/>
<path d="M232.403 30.5998C232.503 31.7998 233.703 32.5998 235.403 32.5998C237.003 32.5998 238.103 31.7998 238.103 30.6998C238.103 29.6998 237.403 29.1998 235.803 28.7998L234.203 28.3998C231.903 27.7998 230.903 26.7998 230.903 25.0998C230.903 22.9998 232.803 21.4998 235.403 21.4998C238.003 21.4998 239.803 22.9998 239.903 25.0998H238.003C237.903 23.8998 236.903 23.0998 235.403 23.0998C233.903 23.0998 232.903 23.8998 232.903 24.9998C232.903 25.8998 233.603 26.3998 235.203 26.7998L236.603 27.0998C239.103 27.6998 240.203 28.6998 240.203 30.4998C240.203 32.7998 238.303 34.2998 235.403 34.2998C232.603 34.2998 230.803 32.8998 230.703 30.5998H232.403Z" fill="white"/>
<path d="M244.002 22.8997V24.9997H245.702V26.4997H244.002V31.4997C244.002 32.2997 244.302 32.5997 245.102 32.5997C245.302 32.5997 245.502 32.5997 245.702 32.5997V34.0997C245.402 34.1997 245.002 34.1997 244.702 34.1997C242.902 34.1997 242.202 33.4997 242.202 31.7997V26.5997H240.902V25.0997H242.202V22.9997H244.002V22.8997Z" fill="white"/>
<path d="M246.803 29.5998C246.803 26.7998 248.503 24.9998 251.103 24.9998C253.703 24.9998 255.403 26.7998 255.403 29.5998C255.403 32.4998 253.703 34.1998 251.103 34.1998C248.403 34.1998 246.803 32.3998 246.803 29.5998ZM253.503 29.5998C253.503 27.5998 252.603 26.4998 251.103 26.4998C249.603 26.4998 248.703 27.5998 248.703 29.5998C248.703 31.5998 249.603 32.6998 251.103 32.6998C252.603 32.6998 253.503 31.4998 253.503 29.5998Z" fill="white"/>
<path d="M256.902 25H258.702V26.6C258.902 25.6 259.902 24.9 260.902 25C261.102 25 261.302 25 261.502 25.1V26.8C261.202 26.7 260.902 26.7 260.702 26.7C259.702 26.7 258.802 27.5 258.802 28.5C258.802 28.6 258.802 28.7 258.802 28.8V34.2H256.902V25Z" fill="white"/>
<path d="M270.102 31.3997C269.902 32.9997 268.202 34.1997 266.202 34.1997C263.602 34.1997 261.902 32.3997 261.902 29.5997C261.902 26.7997 263.502 24.8997 266.102 24.8997C268.602 24.8997 270.202 26.5997 270.202 29.3997V29.9997H263.802V30.0997C263.702 31.3997 264.602 32.4997 265.902 32.6997C266.002 32.6997 266.102 32.6997 266.202 32.6997C267.102 32.7997 268.002 32.2997 268.302 31.3997H270.102ZM263.802 28.6997H268.302C268.402 27.4997 267.402 26.4997 266.202 26.3997C266.102 26.3997 266.102 26.3997 266.002 26.3997C264.802 26.3997 263.802 27.3997 263.802 28.6997Z" fill="white"/>
<defs>
<linearGradient id="paint0_linear_6491_8311" x1="30.2668" y1="34.0505" x2="15.8298" y2="19.443" gradientUnits="userSpaceOnUse">
<stop stop-color="#00A0FF"/>
<stop offset="0.0066" stop-color="#00A1FF"/>
<stop offset="0.2601" stop-color="#00BEFF"/>
<stop offset="0.5122" stop-color="#00D2FF"/>
<stop offset="0.7604" stop-color="#00DFFF"/>
<stop offset="1" stop-color="#00E3FF"/>
</linearGradient>
<linearGradient id="paint1_linear_6491_8311" x1="40.7424" y1="24.3365" x2="19.6803" y2="24.3365" gradientUnits="userSpaceOnUse">
<stop stop-color="#FFE000"/>
<stop offset="0.4087" stop-color="#FFBD00"/>
<stop offset="0.7754" stop-color="#FFA500"/>
<stop offset="1" stop-color="#FF9C00"/>
</linearGradient>
<linearGradient id="paint2_linear_6491_8311" x1="25.6396" y1="29.5401" x2="6.06184" y2="9.73124" gradientUnits="userSpaceOnUse">
<stop stop-color="#FF3A44"/>
<stop offset="1" stop-color="#C31162"/>
</linearGradient>
<linearGradient id="paint3_linear_6491_8311" x1="10.3835" y1="34.2133" x2="19.1254" y2="25.3683" gradientUnits="userSpaceOnUse">
<stop stop-color="#32A071"/>
<stop offset="0.0685" stop-color="#2DA771"/>
<stop offset="0.4762" stop-color="#15CF74"/>
<stop offset="0.8009" stop-color="#06E775"/>
<stop offset="1" stop-color="#00F076"/>
</linearGradient>
</defs>
</svg>
