<svg width="80" height="80" viewBox="0 0 80 80" fill="none" xmlns="http://www.w3.org/2000/svg">
<path d="M40 80C62.0914 80 80 62.0914 80 40C80 17.9086 62.0914 0 40 0C17.9086 0 0 17.9086 0 40C0 62.0914 17.9086 80 40 80Z" fill="#0D257B" fill-opacity="0.03"/>
<path d="M59.0667 19.3665H55.5V18.7332C55.5 17.4652 54.468 16.4332 53.2 16.4332C51.932 16.4332 50.9 17.4652 50.9 18.7332V19.3665H29.1V18.7332C29.1 17.4652 28.068 16.4332 26.8 16.4332C25.532 16.4332 24.5 17.4652 24.5 18.7332V19.3665H20.9333C19.2602 19.3665 17.9 20.7277 17.9 22.3999V53.1999C17.9 54.8721 19.2602 56.2332 20.9333 56.2332H31.2C31.6604 56.2332 32.0333 55.8603 32.0333 55.3999C32.0333 54.9395 31.6604 54.5665 31.2 54.5665H20.9333C20.1801 54.5665 19.5667 53.9531 19.5667 53.1999V28.3665H60.4333V53.1999C60.4333 53.9531 59.8199 54.5665 59.0667 54.5665H51C50.5396 54.5665 50.1667 54.9395 50.1667 55.3999C50.1667 55.8603 50.5396 56.2332 51 56.2332H59.0667C60.7398 56.2332 62.1 54.8721 62.1 53.1999V53.1917V53.1829V53.1735V53.1636V53.153V53.1418V53.13V53.1176V53.1047V53.0911V53.077V53.0623V53.047V53.0311V53.0146V52.9976V52.98V52.9618V52.9431V52.9238V52.9039V52.8835V52.8625V52.841V52.8189V52.7963V52.7731V52.7493V52.7251V52.7002V52.6749V52.649V52.6226V52.5956V52.5681V52.5401V52.5116V52.4825V52.4529V52.4228V52.3922V52.3611V52.3295V52.2973V52.2647V52.2315V52.1979V52.1637V52.1291V52.0939V52.0583V52.0222V51.9856V51.9485V51.9109V51.8729V51.8344V51.7954V51.7559V51.716V51.6755V51.6347V51.5933V51.5515V51.5093V51.4666V51.4234V51.3798V51.3358V51.2912V51.2463V51.2009V51.1551V51.1088V51.0621V51.015V50.9674V50.9194V50.871V50.8222V50.7729V50.7233V50.6732V50.6227V50.5718V50.5205V50.4687V50.4166V50.3641V50.3112V50.2578V50.2041V50.15V50.0955V50.0407V49.9854V49.9298V49.8737V49.8173V49.7605V49.7034V49.6459V49.588V49.5297V49.4711V49.4122V49.3528V49.2931V49.2331V49.1727V49.112V49.0509V48.9895V48.9277V48.8656V48.8031V48.7404V48.6772V48.6138V48.55V48.4859V48.4215V48.3568V48.2917V48.2264V48.1607V48.0947V48.0284V47.9618V47.8949V47.8277V47.7602V47.6924V47.6243V47.5559V47.4872V47.4182V47.349V47.2795V47.2097V47.1396V47.0692V46.9986V46.9277V46.8565V46.7851V46.7134V46.6414V46.5692V46.4967V46.424V46.351V46.2778V46.2043V46.1306V46.0566V45.9824V45.908V45.8333V45.7584V45.6833V45.6079V45.5324V45.4565V45.3805V45.3043V45.2278V45.1512V45.0743V44.9972V44.9199V44.8424V44.7647V44.6868V44.6087V44.5304V44.4519V44.3732V44.2944V44.2153V44.1361V44.0567V43.9771V43.8974V43.8175V43.7374V43.6571V43.5767V43.4961V43.4153V43.3344V43.2533V43.1721V43.0907V43.0092V42.9275V42.8457V42.7638V42.6817V42.5994V42.5171V42.4346V42.3519V42.2692V42.1863V42.1033V42.0202V41.9369V41.8536V41.7701V41.6865V41.6028V41.519V41.4351V41.3511V41.267V41.1828V41.0986V41.0142V40.9297V40.8451V40.7605V40.6758V40.591V40.5061V40.4211V40.3361V40.251V40.1658V40.0806V39.9953V39.9099V39.8245V39.739V39.6535V39.5679V39.4823V39.3966V39.3109V39.2251V39.1393V39.0535V38.9676V38.8817V38.7958V38.7098V38.6238V38.5378V38.4518V38.3657V38.2797V38.1936V38.1075V38.0214V37.9353V37.8492V37.7631V37.677V37.5909V37.5048V37.4187V37.3326V37.2465V37.1605V37.0744V36.9884V36.9024V36.8165V36.7305V36.6446V36.5587V36.4729V36.3871V36.3013V36.2156V36.1299V36.0442V35.9586V35.8731V35.7876V35.7022V35.6168V35.5315V35.4462V35.361V35.2759V35.1909V35.1059V35.021V34.9362V34.8514V34.7667V34.6822V34.5977V34.5133V34.4289V34.3447V34.2606V34.1766V34.0926V34.0088V33.9251V33.8415V33.758V33.6746V33.5913V33.5082V33.4251V33.3422V33.2594V33.1768V33.0942V33.0118V32.9296V32.8474V32.7654V32.6836V32.6019V32.5203V32.4389V32.3576V32.2765V32.1956V32.1148V32.0341V31.9537V31.8733V31.7932V31.7132V31.6334V31.5538V31.4743V31.3951V31.316V31.2371V31.1584V31.0798V31.0015V30.9233V30.8454V30.7676V30.6901V30.6127V30.5356V30.4586V30.3819V30.3054V30.2291V30.153V30.0772V30.0015V29.9261V29.8509V29.7759V29.7012V29.6267V29.5525V29.4784V29.4046V29.3311V29.2578V29.1848V29.112V29.0394V28.9671V28.8951V28.8233V28.7518V28.6806V28.6096V28.5389V28.4685V28.3983V28.3284V28.2588V28.1895V28.1205V28.0517V27.9832V27.9151V27.8472V27.7796V27.7123V27.6453V27.5786V27.5123V27.4462V27.3804V27.315V27.2498V27.185V27.1205V27.0563V26.9925V26.929V26.8658V26.8029V26.7403V26.6782V26.6163V26.5548V26.4936V26.4328V26.3723V26.3121V26.2524V26.1929V26.1339V26.0752V26.0168V25.9588V25.9012V25.844V25.7871V25.7306V25.6745V25.6187V25.5633V25.5084V25.4538V25.3996V25.3457V25.2923V25.2393V25.1867V25.1344V25.0826V25.0312V24.9802V24.9295V24.8794V24.8296V24.7802V24.7313V24.6827V24.6346V24.587V24.5397V24.4929V24.4465V24.4006V24.3551V24.31V24.2654V24.2212V24.1775V24.1342V24.0914V24.049V24.0071V23.9656V23.9246V23.8841V23.844V23.8044V23.7653V23.7266V23.6885V23.6508V23.6136V23.5768V23.5406V23.5048V23.4695V23.4348V23.4005V23.3667V23.3334V23.3006V23.2684V23.2366V23.2053V23.1746V23.1443V23.1146V23.0854V23.0568V23.0286V23.001V22.9739V22.9473V22.9213V22.8958V22.8708V22.8464V22.8225V22.7992V22.7764V22.7541V22.7325V22.7113V22.6907V22.6707V22.6513V22.6324V22.6141V22.5963V22.5791V22.5625V22.5465V22.531V22.5162V22.5019V22.4882V22.475V22.4625V22.4506V22.4392V22.4285V22.4183V22.4088V22.3999C62.1 20.7277 60.7398 19.3665 59.0667 19.3665ZM52.5667 18.7332C52.5667 18.3842 52.851 18.0999 53.2 18.0999C53.549 18.0999 53.8333 18.3842 53.8333 18.7332V22.3999C53.8333 22.7489 53.549 23.0332 53.2 23.0332C52.851 23.0332 52.5667 22.7489 52.5667 22.3999V22.3924V22.3849V22.3775V22.37V22.3626V22.3551V22.3477V22.3402V22.3328V22.3254V22.3179V22.3105V22.3031V22.2957V22.2882V22.2808V22.2734V22.266V22.2586V22.2512V22.2438V22.2364V22.229V22.2216V22.2142V22.2069V22.1995V22.1921V22.1847V22.1774V22.17V22.1626V22.1553V22.1479V22.1406V22.1332V22.1259V22.1185V22.1112V22.1038V22.0965V22.0892V22.0818V22.0745V22.0672V22.0598V22.0525V22.0452V22.0379V22.0306V22.0233V22.016V22.0087V22.0014V21.9941V21.9868V21.9795V21.9722V21.9649V21.9576V21.9504V21.9431V21.9358V21.9285V21.9213V21.914V21.9067V21.8995V21.8922V21.8849V21.8777V21.8704V21.8632V21.8559V21.8487V21.8415V21.8342V21.827V21.8197V21.8125V21.8053V21.7981V21.7908V21.7836V21.7764V21.7692V21.762V21.7547V21.7475V21.7403V21.7331V21.7259V21.7187V21.7115V21.7043V21.6971V21.6899V21.6827V21.6756V21.6684V21.6612V21.654V21.6468V21.6396V21.6325V21.6253V21.6181V21.611V21.6038V21.5966V21.5895V21.5823V21.5751V21.568V21.5608V21.5537V21.5465V21.5394V21.5322V21.5251V21.5179V21.5108V21.5036V21.4965V21.4894V21.4822V21.4751V21.468V21.4608V21.4537V21.4466V21.4395V21.4323V21.4252V21.4181V21.411V21.4039V21.3968V21.3896V21.3825V21.3754V21.3683V21.3612V21.3541V21.347V21.3399V21.3328V21.3257V21.3186V21.3115V21.3044V21.2973V21.2902V21.2831V21.2761V21.269V21.2619V21.2548V21.2477V21.2406V21.2336V21.2265V21.2194V21.2123V21.2053V21.1982V21.1911V21.184V21.177V21.1699V21.1628V21.1558V21.1487V21.1416V21.1346V21.1275V21.1205V21.1134V21.1063V21.0993V21.0922V21.0852V21.0781V21.0711V21.064V21.057V21.0499V21.0429V21.0358V21.0288V21.0217V21.0147V21.0076V21.0006V20.9935V20.9865V20.9795V20.9724V20.9654V20.9583V20.9513V20.9443V20.9372V20.9302V20.9232V20.9161V20.9091V20.9021V20.895V20.888V20.881V20.8739V20.8669V20.8599V20.8529V20.8458V20.8388V20.8318V20.8248V20.8177V20.8107V20.8037V20.7967V20.7896V20.7826V20.7756V20.7686V20.7616V20.7545V20.7475V20.7405V20.7335V20.7265V20.7194V20.7124V20.7054V20.6984V20.6914V20.6843V20.6773V20.6703V20.6633V20.6563V20.6493V20.6423V20.6352V20.6282V20.6212V20.6142V20.6072V20.6002V20.5931V20.5861V20.5791V20.5721V20.5651V20.5581V20.5511V20.5441V20.537V20.53V20.523V20.516V20.509V20.502V20.495V20.4879V20.4809V20.4739V20.4669V20.4599V20.4529V20.4458V20.4388V20.4318V20.4248V20.4178V20.4108V20.4038V20.3967V20.3897V20.3827V20.3757V20.3687V20.3616V20.3546V20.3476V20.3406V20.3336V20.3265V20.3195V20.3125V20.3055V20.2985V20.2914V20.2844V20.2774V20.2704V20.2633V20.2563V20.2493V20.2423V20.2352V20.2282V20.2212V20.2142V20.2071V20.2001V20.1931V20.186V20.179V20.172V20.1649V20.1579V20.1509V20.1438V20.1368V20.1298V20.1227V20.1157V20.1087V20.1016V20.0946V20.0875V20.0805V20.0734V20.0664V20.0594V20.0523V20.0453V20.0382V20.0312V20.0241V20.0171V20.01V20.003V19.9959V19.9888V19.9818V19.9747V19.9677V19.9606V19.9536V19.9465V19.9394V19.9324V19.9253V19.9182V19.9112V19.9041V19.897V19.89V19.8829V19.8758V19.8687V19.8617V19.8546V19.8475V19.8404V19.8333V19.8263V19.8192V19.8121V19.805V19.7979V19.7908V19.7837V19.7766V19.7695V19.7624V19.7553V19.7482V19.7411V19.734V19.7269V19.7198V19.7127V19.7056V19.6985V19.6914V19.6843V19.6772V19.6701V19.6629V19.6558V19.6487V19.6416V19.6344V19.6273V19.6202V19.6131V19.6059V19.5988V19.5917V19.5845V19.5774V19.5702V19.5631V19.556V19.5488V19.5417V19.5345V19.5274V19.5202V19.513V19.5059V19.4987V19.4916V19.4844V19.4772V19.4701V19.4629V19.4557V19.4485V19.4414V19.4342V19.427V19.4198V19.4126V19.4055V19.3983V19.3911V19.3839V19.3767V19.3695V19.3623V19.3551V19.3479V19.3407V19.3335V19.3262V19.319V19.3118V19.3046V19.2974V19.2902V19.2829V19.2757V19.2685V19.2612V19.254V19.2468V19.2395V19.2323V19.225V19.2178V19.2105V19.2033V19.196V19.1888V19.1815V19.1742V19.167V19.1597V19.1524V19.1452V19.1379V19.1306V19.1233V19.116V19.1088V19.1015V19.0942V19.0869V19.0796V19.0723V19.065V19.0577V19.0504V19.043V19.0357V19.0284V19.0211V19.0138V19.0064V18.9991V18.9918V18.9844V18.9771V18.9698V18.9624V18.9551V18.9477V18.9404V18.933V18.9257V18.9183V18.9109V18.9036V18.8962V18.8888V18.8814V18.8741V18.8667V18.8593V18.8519V18.8445V18.8371V18.8297V18.8223V18.8149V18.8075V18.8001V18.7927V18.7852V18.7778V18.7704V18.763V18.7555V18.7481V18.7406V18.7332ZM26.1667 18.7332C26.1667 18.3842 26.451 18.0999 26.8 18.0999C27.149 18.0999 27.4333 18.3842 27.4333 18.7332V22.3999C27.4333 22.7489 27.149 23.0332 26.8 23.0332C26.451 23.0332 26.1667 22.7489 26.1667 22.3999V22.3924V22.3849V22.3775V22.37V22.3626V22.3551V22.3477V22.3402V22.3328V22.3254V22.3179V22.3105V22.3031V22.2957V22.2882V22.2808V22.2734V22.266V22.2586V22.2512V22.2438V22.2364V22.229V22.2216V22.2142V22.2069V22.1995V22.1921V22.1847V22.1774V22.17V22.1626V22.1553V22.1479V22.1406V22.1332V22.1259V22.1185V22.1112V22.1038V22.0965V22.0892V22.0818V22.0745V22.0672V22.0598V22.0525V22.0452V22.0379V22.0306V22.0233V22.016V22.0087V22.0014V21.9941V21.9868V21.9795V21.9722V21.9649V21.9576V21.9504V21.9431V21.9358V21.9285V21.9213V21.914V21.9067V21.8995V21.8922V21.8849V21.8777V21.8704V21.8632V21.8559V21.8487V21.8415V21.8342V21.827V21.8197V21.8125V21.8053V21.7981V21.7908V21.7836V21.7764V21.7692V21.762V21.7547V21.7475V21.7403V21.7331V21.7259V21.7187V21.7115V21.7043V21.6971V21.6899V21.6827V21.6756V21.6684V21.6612V21.654V21.6468V21.6396V21.6325V21.6253V21.6181V21.611V21.6038V21.5966V21.5895V21.5823V21.5751V21.568V21.5608V21.5537V21.5465V21.5394V21.5322V21.5251V21.5179V21.5108V21.5036V21.4965V21.4894V21.4822V21.4751V21.468V21.4608V21.4537V21.4466V21.4395V21.4323V21.4252V21.4181V21.411V21.4039V21.3968V21.3896V21.3825V21.3754V21.3683V21.3612V21.3541V21.347V21.3399V21.3328V21.3257V21.3186V21.3115V21.3044V21.2973V21.2902V21.2831V21.2761V21.269V21.2619V21.2548V21.2477V21.2406V21.2336V21.2265V21.2194V21.2123V21.2053V21.1982V21.1911V21.184V21.177V21.1699V21.1628V21.1558V21.1487V21.1416V21.1346V21.1275V21.1205V21.1134V21.1063V21.0993V21.0922V21.0852V21.0781V21.0711V21.064V21.057V21.0499V21.0429V21.0358V21.0288V21.0217V21.0147V21.0076V21.0006V20.9935V20.9865V20.9795V20.9724V20.9654V20.9583V20.9513V20.9443V20.9372V20.9302V20.9232V20.9161V20.9091V20.9021V20.895V20.888V20.881V20.8739V20.8669V20.8599V20.8529V20.8458V20.8388V20.8318V20.8248V20.8177V20.8107V20.8037V20.7967V20.7896V20.7826V20.7756V20.7686V20.7616V20.7545V20.7475V20.7405V20.7335V20.7265V20.7194V20.7124V20.7054V20.6984V20.6914V20.6843V20.6773V20.6703V20.6633V20.6563V20.6493V20.6423V20.6352V20.6282V20.6212V20.6142V20.6072V20.6002V20.5931V20.5861V20.5791V20.5721V20.5651V20.5581V20.5511V20.5441V20.537V20.53V20.523V20.516V20.509V20.502V20.495V20.4879V20.4809V20.4739V20.4669V20.4599V20.4529V20.4458V20.4388V20.4318V20.4248V20.4178V20.4108V20.4038V20.3967V20.3897V20.3827V20.3757V20.3687V20.3616V20.3546V20.3476V20.3406V20.3336V20.3265V20.3195V20.3125V20.3055V20.2985V20.2914V20.2844V20.2774V20.2704V20.2633V20.2563V20.2493V20.2423V20.2352V20.2282V20.2212V20.2142V20.2071V20.2001V20.1931V20.186V20.179V20.172V20.1649V20.1579V20.1509V20.1438V20.1368V20.1298V20.1227V20.1157V20.1087V20.1016V20.0946V20.0875V20.0805V20.0734V20.0664V20.0594V20.0523V20.0453V20.0382V20.0312V20.0241V20.0171V20.01V20.003V19.9959V19.9888V19.9818V19.9747V19.9677V19.9606V19.9536V19.9465V19.9394V19.9324V19.9253V19.9182V19.9112V19.9041V19.897V19.89V19.8829V19.8758V19.8687V19.8617V19.8546V19.8475V19.8404V19.8333V19.8263V19.8192V19.8121V19.805V19.7979V19.7908V19.7837V19.7766V19.7695V19.7624V19.7553V19.7482V19.7411V19.734V19.7269V19.7198V19.7127V19.7056V19.6985V19.6914V19.6843V19.6772V19.6701V19.6629V19.6558V19.6487V19.6416V19.6344V19.6273V19.6202V19.6131V19.6059V19.5988V19.5917V19.5845V19.5774V19.5702V19.5631V19.556V19.5488V19.5417V19.5345V19.5274V19.5202V19.513V19.5059V19.4987V19.4916V19.4844V19.4772V19.4701V19.4629V19.4557V19.4485V19.4414V19.4342V19.427V19.4198V19.4126V19.4055V19.3983V19.3911V19.3839V19.3767V19.3695V19.3623V19.3551V19.3479V19.3407V19.3335V19.3262V19.319V19.3118V19.3046V19.2974V19.2902V19.2829V19.2757V19.2685V19.2612V19.254V19.2468V19.2395V19.2323V19.225V19.2178V19.2105V19.2033V19.196V19.1888V19.1815V19.1742V19.167V19.1597V19.1524V19.1452V19.1379V19.1306V19.1233V19.116V19.1088V19.1015V19.0942V19.0869V19.0796V19.0723V19.065V19.0577V19.0504V19.043V19.0357V19.0284V19.0211V19.0138V19.0064V18.9991V18.9918V18.9844V18.9771V18.9698V18.9624V18.9551V18.9477V18.9404V18.933V18.9257V18.9183V18.9109V18.9036V18.8962V18.8888V18.8814V18.8741V18.8667V18.8593V18.8519V18.8445V18.8371V18.8297V18.8223V18.8149V18.8075V18.8001V18.7927V18.7852V18.7778V18.7704V18.763V18.7555V18.7481V18.7406V18.7332Z" fill="#0D257B" stroke="#0D257B" stroke-width="0.2"/>
<path d="M48.7499 48.5155L48.7495 48.5157C47.84 49.046 46.6999 48.3787 46.6999 47.3334C46.6999 46.5802 47.3133 45.9668 48.0665 45.9668C48.8198 45.9668 49.4332 46.5802 49.4332 47.3334C49.4332 47.838 49.1584 48.2796 48.7499 48.5155ZM52.5665 47.3334C52.5665 44.8518 50.5482 42.8334 48.0665 42.8334C45.5849 42.8334 43.5665 44.8518 43.5665 47.3334C43.5665 49.531 45.1489 51.3647 47.2332 51.7558V55.7668C47.2332 59.149 44.4821 61.9001 41.0999 61.9001C37.7176 61.9001 34.9665 59.149 34.9665 55.7668V51.7806C38.269 51.3689 40.8332 48.5458 40.8332 45.1334V38.5334C40.8332 36.8607 39.4726 35.5001 37.7999 35.5001C37.3397 35.5001 36.9665 35.8732 36.9665 36.3334C36.9665 36.7936 37.3397 37.1668 37.7999 37.1668C38.5533 37.1668 39.1665 37.78 39.1665 38.5334V45.1334C39.1665 47.9088 36.9085 50.1668 34.1332 50.1668C31.3579 50.1668 29.0999 47.9088 29.0999 45.1334V38.5334C29.0999 37.78 29.7131 37.1668 30.4665 37.1668C30.9267 37.1668 31.2999 36.7936 31.2999 36.3334C31.2999 35.8732 30.9267 35.5001 30.4665 35.5001C28.7938 35.5001 27.4332 36.8607 27.4332 38.5334V45.1334C27.4332 48.5458 29.9974 51.3689 33.2999 51.7806V55.7668C33.2999 60.068 36.7986 63.5668 41.0999 63.5668C45.4011 63.5668 48.8999 60.068 48.8999 55.7668V51.7558C50.9842 51.3647 52.5665 49.531 52.5665 47.3334Z" fill="#CC922F" stroke="#CC922F" stroke-width="0.2"/>
</svg>
