<svg width="14" height="21" viewBox="0 0 14 21" fill="none" xmlns="http://www.w3.org/2000/svg">
<path d="M7 0C3.14038 0 0 3.14038 0 7C0 10.7179 6.37372 19.9787 6.64453 20.3711C6.72634 20.4897 6.85606 20.5625 7 20.5625C7.14394 20.5625 7.27366 20.4897 7.35547 20.3711C7.62628 19.9787 14 10.7179 14 7C14 3.14038 10.8596 0 7 0ZM7 3.5C8.93287 3.5 10.5 5.06713 10.5 7C10.5 8.93288 8.93287 10.5 7 10.5C5.06712 10.5 3.5 8.93288 3.5 7C3.5 5.06713 5.06712 3.5 7 3.5ZM7 5.25C6.03356 5.25 5.25 6.03356 5.25 7C5.25 7.96644 6.03356 8.75 7 8.75C7.96644 8.75 8.75 7.96644 8.75 7C8.75 6.75456 8.70428 6.52816 8.61328 6.31641C8.49297 6.46909 8.30331 6.5625 8.09375 6.5625C7.7315 6.5625 7.4375 6.2685 7.4375 5.90625C7.4375 5.69669 7.53091 5.50703 7.68359 5.38672C7.47184 5.29572 7.24544 5.25 7 5.25Z" fill="#0D257B"/>
</svg>
