<svg width="30" height="30" viewBox="0 0 30 30" fill="none" xmlns="http://www.w3.org/2000/svg">
<g clip-path="url(#clip0_4192_71962)">
<g clip-path="url(#clip1_4192_71962)">
<path d="M15 0C12.0333 0 9.13319 0.879735 6.66645 2.52796C4.19972 4.17618 2.27713 6.51886 1.14181 9.25975C0.00649929 12.0006 -0.290551 15.0166 0.288228 17.9264C0.867006 20.8361 2.29562 23.5088 4.3934 25.6066C6.49119 27.7044 9.16394 29.133 12.0737 29.7118C14.9834 30.2906 17.9994 29.9935 20.7403 28.8582C23.4811 27.7229 25.8238 25.8003 27.472 23.3336C29.1203 20.8668 30 17.9667 30 15C29.9957 11.0231 28.414 7.21026 25.6019 4.39815C22.7897 1.58604 18.9769 0.00430135 15 0ZM15 27.5C12.5277 27.5 10.111 26.7669 8.05538 25.3934C5.99976 24.0199 4.39761 22.0676 3.45151 19.7835C2.50542 17.4995 2.25788 14.9861 2.74019 12.5614C3.22251 10.1366 4.41302 7.90932 6.16117 6.16117C7.90933 4.41301 10.1366 3.2225 12.5614 2.74018C14.9861 2.25787 17.4995 2.50541 19.7836 3.45151C22.0676 4.3976 24.0199 5.99976 25.3934 8.05537C26.7669 10.111 27.5 12.5277 27.5 15C27.4964 18.3141 26.1782 21.4914 23.8348 23.8348C21.4914 26.1782 18.3141 27.4964 15 27.5Z" fill="#0D257B"/>
<path d="M14.9981 7.5C14.6666 7.5 14.3486 7.6317 14.1142 7.86612C13.8798 8.10054 13.7481 8.41848 13.7481 8.75V14.1562L9.53435 16.7963C9.25256 16.9723 9.05224 17.2531 8.97746 17.5768C8.90268 17.9005 8.95956 18.2407 9.1356 18.5225C9.31164 18.8043 9.59241 19.0046 9.91614 19.0794C10.2399 19.1542 10.5801 19.0973 10.8619 18.9213L15.6619 15.9213C15.8432 15.8076 15.9924 15.6493 16.095 15.4615C16.1977 15.2738 16.2504 15.0628 16.2481 14.8487V8.75C16.2481 8.41848 16.1164 8.10054 15.882 7.86612C15.6476 7.6317 15.3296 7.5 14.9981 7.5Z" fill="#0D257B"/>
</g>
</g>
<defs>
<clipPath id="clip0_4192_71962">
<rect width="30" height="30" fill="white"/>
</clipPath>
<clipPath id="clip1_4192_71962">
<rect width="30" height="30" fill="white"/>
</clipPath>
</defs>
</svg>
