<svg width="1278" height="254" viewBox="0 0 1278 254" fill="none" xmlns="http://www.w3.org/2000/svg">
<g clip-path="url(#clip0_7520_6379)">
<rect width="1278" height="254" rx="16" fill="#0D257B"/>
<path opacity="0.05" d="M1284.93 59.5798L1252.27 130.447L1206.29 134.678L1174.42 137.561L1155.95 111.481L1129.34 73.8027L1161.99 2.93519L1239.75 -4.2227L1256.59 19.5277L1239.54 56.5314L1222.7 32.7811L1185.53 36.211L1169.9 70.1231L1182.61 88.1003L1191.45 100.605L1206.69 99.1974L1228.71 97.2198L1239.71 73.3557L1239.66 73.3334L1276.47 -6.56761L1316.64 -9.37769L1284.9 59.5092L1284.93 59.5798Z" fill="white"/>
<path opacity="0.05" d="M66.1855 -16.5793L121.615 38.339L109.868 82.9936L101.678 113.932L70.8543 122.371L26.348 134.493L-29.0817 79.5751L-9.21929 4.0579L18.8601 -3.65179L47.8029 25.024L19.7235 32.7337L10.2371 68.8342L36.7618 95.1141L58 89.3215L72.7728 85.2935L76.6637 70.484L82.3341 49.1173L63.6687 30.6241L63.6312 30.6619L1.13584 -31.2568L12.2298 -69.9623L66.1103 -16.5789L66.1855 -16.5793Z" fill="white"/>
</g>
<defs>
<clipPath id="clip0_7520_6379">
<rect width="1278" height="254" rx="16" fill="white"/>
</clipPath>
</defs>
</svg>
