<svg width="80" height="80" viewBox="0 0 80 80" fill="none" xmlns="http://www.w3.org/2000/svg">
<path d="M40 80C62.0914 80 80 62.0914 80 40C80 17.9086 62.0914 0 40 0C17.9086 0 0 17.9086 0 40C0 62.0914 17.9086 80 40 80Z" fill="#F5F5F5"/>
<path d="M59.588 55.6064L62.7844 57.9824C64.2976 59.1071 66.0513 60.7711 65.3677 62.5282C65.3058 62.6874 65.219 62.8301 65.1014 62.9478C64.8097 63.2394 64.3641 63.3411 63.8958 63.3456C62.5265 63.3589 61.3886 62.4066 60.4911 61.3724L57.4062 57.8177" stroke="#CC922F" stroke-width="2.40039" stroke-linecap="round"/>
<path d="M15.0152 65.2083C14.8401 62.8812 16.1192 59.7492 21.6999 58.5953C23.9393 58.1322 26.2678 58.5507 28.5375 58.2716C31.533 57.9033 34.475 55.9349 32.9518 48.4901M23.9908 43.9715C24.089 42.1927 24.4504 38.1987 25.1108 36.4533C25.3199 35.5166 25.9034 34.1467 26.9839 32.9448M43.4455 22.8615C43.6779 26.1159 40.1845 28.2267 36.8274 29.3936C34.3096 30.2688 31.4482 30.0417 29.0926 31.2893C28.2434 31.739 27.5463 32.3192 26.9839 32.9448M45.0962 19.7658C48.4565 20.7289 54.4344 25.8039 51.4632 38.3992M50.4315 42.6153C49.5766 44.6496 46.9827 49.1488 43.4455 50.8706M56.2973 40.2566C59.0583 28.5518 58.1308 7.32383 32.3328 16.0509C31.5958 16.8765 24.8162 17.4072 22.5465 27.9032C22.4137 28.6335 21.9316 29.9843 20.917 31.4969C19.0717 34.2478 16.0809 36.2981 15.3255 39.5233C14.3694 43.6052 15.3607 49.4162 22.5465 55.3816M26.9839 32.9448C27.8433 39.5982 31.7021 52.6809 40.2621 51.7846" stroke="#0D257B" stroke-width="2.40039" stroke-linecap="round"/>
<circle cx="49.1719" cy="47.9394" r="9.60155" stroke="#CC922F" stroke-width="2.40039"/>
</svg>
