<svg width="27" height="25" viewBox="0 0 27 25" fill="none" xmlns="http://www.w3.org/2000/svg">
<g clip-path="url(#clip0_8863_10739)">
<mask id="mask0_8863_10739" style="mask-type:luminance" maskUnits="userSpaceOnUse" x="0" y="0" width="27" height="25">
<path d="M0 0.390137H27V24.3901H0V0.390137Z" fill="white"/>
</mask>
<g mask="url(#mask0_8863_10739)">
<path d="M8.13452 16.2837C8.13452 18.7995 4.56728 22.1753 4.56728 22.1753C4.56728 22.1753 1 18.7995 1 16.2837C1 14.2869 2.59712 12.6682 4.56728 12.6682C6.5374 12.6682 8.13452 14.2869 8.13452 16.2837Z" stroke="#0D257B" stroke-width="2" stroke-miterlimit="10"/>
<path d="M5.25234 16.284C5.25234 16.6673 4.94575 16.978 4.56758 16.978C4.1894 16.978 3.88281 16.6673 3.88281 16.284C3.88281 15.9007 4.1894 15.59 4.56758 15.59C4.94575 15.59 5.25234 15.9007 5.25234 16.284Z" stroke="#0D257B" stroke-width="1.40625" stroke-miterlimit="10"/>
<path d="M25.2947 5.97117C25.2947 8.48704 21.7274 11.8628 21.7274 11.8628C21.7274 11.8628 18.1602 8.48704 18.1602 5.97117C18.1602 3.97439 19.7573 2.35565 21.7274 2.35565C23.6976 2.35565 25.2947 3.97439 25.2947 5.97117Z" stroke="#0D257B" stroke-width="2" stroke-miterlimit="10"/>
<path d="M22.4125 5.96954C22.4125 6.35284 22.1059 6.66357 21.7277 6.66357C21.3496 6.66357 21.043 6.35284 21.043 5.96954C21.043 5.58625 21.3496 5.27551 21.7277 5.27551C22.1059 5.27551 22.4125 5.58625 22.4125 5.96954Z" stroke="#0D257B" stroke-width="1.40625" stroke-miterlimit="10"/>
<path d="M8.34375 22.1753H18.1853C19.5902 22.1753 20.7291 21.0209 20.7291 19.597V19.597C20.7291 18.1731 19.5902 17.0187 18.1853 17.0187H14.3052C12.9003 17.0187 11.7613 15.8644 11.7613 14.4405C11.7613 13.0165 12.9003 11.8621 14.3052 11.8621H17.954" stroke="#0D257B" stroke-width="2" stroke-miterlimit="10" stroke-linecap="round"/>
</g>
</g>
<defs>
<clipPath id="clip0_8863_10739">
<rect width="27" height="24" fill="white" transform="translate(0 0.390137)"/>
</clipPath>
</defs>
</svg>
