<svg width="202" height="135" viewBox="0 0 202 135" fill="none" xmlns="http://www.w3.org/2000/svg">
<path d="M0.046875 97.2867H11.1455C20.079 97.2867 26.2652 103.886 26.2652 112.5V112.593C26.2652 121.206 20.079 127.899 11.1455 127.899H0.046875V97.2867ZM6.30579 103.364V121.821H11.1455C16.2218 121.821 19.7151 118.111 19.7151 112.686V112.593C19.7151 107.168 16.2218 103.364 11.1455 103.364H6.30579Z" fill="#0D257B"/>
<path d="M34.1797 116.3V116.207C34.1797 109.477 39.2196 104.015 46.0061 104.015C52.7927 104.015 57.7598 109.346 57.7598 116.133V116.226C57.7598 122.956 52.7199 128.418 45.9333 128.418C39.1468 128.418 34.1797 123.087 34.1797 116.3ZM51.6646 116.3V116.207C51.6646 112.758 49.3539 109.738 45.9333 109.738C42.5128 109.738 40.293 112.628 40.293 116.114V116.207C40.293 119.656 42.6038 122.676 46.0243 122.676C49.4449 122.676 51.6646 119.787 51.6646 116.3Z" fill="#0D257B"/>
<path d="M65.2227 116.3V116.207C65.2227 109.514 69.9714 104.015 76.6488 104.015C80.7608 104.015 83.2716 105.506 85.3458 107.948L81.5613 112.329C80.1422 110.763 78.8322 109.757 76.5942 109.757C73.5012 109.757 71.3178 112.646 71.3178 116.133V116.226C71.3178 119.861 73.4648 122.695 76.8489 122.695C78.9231 122.695 80.3423 121.726 81.8524 120.197L85.4732 124.131C83.3626 126.629 80.9245 128.418 76.576 128.418C70.026 128.418 65.2409 122.956 65.2409 116.3H65.2227Z" fill="#0D257B"/>
<path d="M94.8047 97.2867H98.0069V110.878H114.418V97.2867H117.621V127.899H114.418V114.122H98.0069V127.899H94.8047V97.2867Z" fill="#F9CB74"/>
<path d="M144.95 105.284H148.28L139.456 128.625C137.673 133.304 135.598 135.001 132.469 135.001C130.722 135.001 129.412 134.609 127.993 133.864L129.048 131.198C130.067 131.776 130.995 132.037 132.342 132.037C134.252 132.037 135.398 130.993 136.654 127.805L127.102 105.284H130.559L138.2 124.132L144.95 105.284Z" fill="#F9CB74"/>
<path d="M154.625 105.284H158.082L165.16 124.039L172.274 105.284H175.64L166.488 128.066H163.722L154.625 105.284Z" fill="#F9CB74"/>
<path d="M182.086 116.646V116.553C182.086 110.047 186.307 104.789 192.166 104.789C198.388 104.789 201.954 110.121 201.954 116.721C201.954 117.206 201.954 117.429 201.918 117.821H185.252C185.707 122.724 188.909 125.465 192.657 125.465C195.586 125.465 197.533 124.197 199.28 122.277L201.227 124.159C199.116 126.732 196.587 128.391 192.566 128.391C186.835 128.391 182.086 123.619 182.086 116.628V116.646ZM198.789 115.341C198.461 111.277 196.314 107.642 192.075 107.642C188.381 107.642 185.688 110.96 185.252 115.341H198.789Z" fill="#F9CB74"/>
<mask id="mask0_5146_40671" style="mask-type:luminance" maskUnits="userSpaceOnUse" x="88" y="30" width="19" height="22">
<path d="M97.1928 51.9168L93.5539 49.7728L88.332 46.678V36.2005L97.1928 30.9618L106.035 36.2005V46.678L100.813 49.7728L97.1928 51.9168Z" fill="white"/>
</mask>
<g mask="url(#mask0_5146_40671)">
<path d="M106.032 42.9118L97.6075 30.9615H106.032V42.9118Z" fill="#F9CB74"/>
<path d="M106.033 44.3101L96.6265 30.9615H97.609L106.033 42.9118V44.3101Z" fill="#F9CB74"/>
<path d="M106.033 45.7083L95.626 30.9615H96.6265L106.033 44.3101L106.033 45.7083Z" fill="#F9CB74"/>
<path d="M106.039 47.1252L94.6488 30.9615H95.6313L106.039 45.7083V47.1252Z" fill="#F9CB74"/>
<path d="M106.039 48.5235L93.6484 30.9615H94.6488L106.039 47.1252L106.039 48.5235Z" fill="#F9CB74"/>
<path d="M106.033 49.9217L92.6596 30.9615H93.6421L106.033 48.5235V49.9217Z" fill="#F9CB74"/>
<path d="M106.033 50.7234L105.76 50.9284L91.6591 30.9615H92.6596L106.033 49.9217L106.033 50.7234Z" fill="#F9CB74"/>
<path d="M105.761 50.9284L105.106 51.4132L90.678 30.9615H91.6606L105.761 50.9284Z" fill="#F9CB74"/>
<path d="M105.109 51.4132L104.454 51.8979L89.7707 31.092L89.9344 30.9615H90.6804L105.109 51.4132Z" fill="#F9CB74"/>
<path d="M104.453 51.8992L104.435 51.9179H103.489L89.1153 31.5595L89.7703 31.0934L104.453 51.8992Z" fill="#F9CB74"/>
<path d="M102.489 51.9181L88.4794 32.0444L89.1153 31.5595L103.489 51.9179L102.489 51.9181Z" fill="#F9CB74"/>
<path d="M101.505 51.9132L88.332 33.2327V32.1514L88.4776 32.0396L102.487 51.9132H101.505Z" fill="#F9CB74"/>
<path d="M100.522 51.9134L88.332 34.6498V33.2327L101.505 51.9132L100.522 51.9134Z" fill="#F9CB74"/>
<path d="M99.5217 51.9177L88.332 36.0523V34.6541L100.522 51.9177H99.5217Z" fill="#F9CB74"/>
<path d="M98.5392 51.9145L88.332 37.4473V36.0491L99.5217 51.9145H98.5392Z" fill="#F9CB74"/>
<path d="M97.5385 51.9132L88.332 38.8629V37.4461L98.5392 51.9132H97.5385Z" fill="#F9CB74"/>
<path d="M96.556 51.9126L88.332 40.2606V38.8629L97.5385 51.9132L96.556 51.9126Z" fill="#F9CB74"/>
<path d="M95.5553 51.9113L88.332 41.6576V40.2593L96.556 51.9113H95.5553Z" fill="#F9CB74"/>
<path d="M94.5727 51.9217L88.332 43.0662V41.6679L95.5553 51.9217H94.5727Z" fill="#F9CB74"/>
<path d="M93.5721 51.9175L88.332 44.4788V43.0619L94.5728 51.9175H93.5721Z" fill="#F9CB74"/>
<path d="M92.5895 51.9169L88.332 45.8765V44.4788L93.5721 51.9175L92.5895 51.9169Z" fill="#F9CB74"/>
<path d="M91.607 51.9147L88.332 47.2725V45.8743L92.5895 51.9147H91.607Z" fill="#F9CB74"/>
<path d="M90.6063 51.9201L88.332 48.6949V47.278L91.607 51.9201H90.6063Z" fill="#F9CB74"/>
<path d="M89.6238 51.9118L88.332 50.0848V48.6866L90.6063 51.9118H89.6238Z" fill="#F9CB74"/>
<path d="M88.6231 51.9241L88.332 51.4953V50.0971L89.6238 51.9241H88.6231Z" fill="#F9CB74"/>
<path d="M88.332 51.4902L88.6231 51.9208H88.332V51.4902Z" fill="#F9CB74"/>
</g>
<path d="M120.973 27.3496V55.5009L106.927 63.8157L97.1748 69.5578L87.4407 63.8157L73.3945 55.5009V27.3496L97.1748 13.2926L106.036 18.5314V33.2222L97.1748 27.9648L85.8032 34.695V48.1554L92.517 52.1451L97.1748 54.9043L101.833 52.1451L108.565 48.1554V38.7033H108.546V6.97256L120.973 0V27.3496Z" fill="#0D257B"/>
<path d="M156.212 0V55.5008H143.804V34.7882H125.5V22.0549H143.804V6.97256L156.212 0Z" fill="#0D257B"/>
<mask id="mask1_5146_40671" style="mask-type:luminance" maskUnits="userSpaceOnUse" x="64" y="56" width="19" height="22">
<path d="M73.1498 77.2626L69.5291 75.1186L64.2891 72.0238V61.5277L73.1498 56.2889L82.0105 61.5277V72.0238L76.7887 75.1186L73.1498 77.2626Z" fill="white"/>
</mask>
<g mask="url(#mask1_5146_40671)">
<path d="M82.009 56.587L81.8086 56.2889H82.009V56.587Z" fill="#F9CB74"/>
<path d="M82.0094 57.9855L80.8086 56.2889H81.8093L82.0094 56.5872V57.9855Z" fill="#F9CB74"/>
<path d="M82.0115 59.4024L79.8281 56.2889H80.8106L82.0115 57.9855V59.4024Z" fill="#F9CB74"/>
<path d="M82.0122 60.8006L78.8281 56.2889H79.8288L82.0122 59.4024V60.8006Z" fill="#F9CB74"/>
<path d="M82.0142 62.1988L77.8477 56.2889H78.8302L82.0142 60.8006V62.1988Z" fill="#F9CB74"/>
<path d="M82.0045 63.6157L76.8555 56.2889H77.838L82.0045 62.1988V63.6157Z" fill="#F9CB74"/>
<path d="M82.0052 65.014L75.8555 56.2889H76.8562L82.0052 63.6157V65.014Z" fill="#F9CB74"/>
<path d="M82.0112 66.4122L74.8789 56.2889H75.8614L82.0112 65.014V66.4122Z" fill="#F9CB74"/>
<path d="M82.0119 67.8291L73.8789 56.2889H74.8796L82.0119 66.4122V67.8291Z" fill="#F9CB74"/>
<path d="M82.0139 69.2273L72.8984 56.2889H73.8809L82.0139 67.8291V69.2273Z" fill="#F9CB74"/>
<path d="M82.0146 70.6256L71.8984 56.2889H72.8991L82.0146 69.2273V70.6256Z" fill="#F9CB74"/>
<path d="M82.0127 72.0425L70.9141 56.2889H71.8966L82.0127 70.6256V72.0425Z" fill="#F9CB74"/>
<path d="M82.0095 73.4407L69.9102 56.2889H70.9109L82.0095 72.0425V73.4407Z" fill="#F9CB74"/>
<path d="M82.0076 74.8389L68.9258 56.2889H69.9083L82.0076 73.4407V74.8389Z" fill="#F9CB74"/>
<path d="M82.0083 76.0694L81.9174 76.1253L67.9258 56.2889H68.9265L82.0083 74.8389V76.0694Z" fill="#F9CB74"/>
<path d="M81.9194 76.1253L81.2826 76.61L66.9453 56.2889H67.9278L81.9194 76.1253Z" fill="#F9CB74"/>
<path d="M81.2846 76.61L80.6296 77.0948L65.9648 56.2889H66.9473L81.2846 76.61Z" fill="#F9CB74"/>
<path d="M80.627 77.0948L80.3905 77.2626H79.7537L65.2891 56.755L65.9077 56.2889H65.9623L80.627 77.0948Z" fill="#F9CB74"/>
<path d="M78.7699 77.2662L64.6328 57.2434L65.2878 56.7587L79.7524 77.2662H78.7699Z" fill="#F9CB74"/>
<path d="M77.7712 77.2594L64.2891 58.1501V57.4976L64.6348 57.2366L78.7719 77.2594H77.7712Z" fill="#F9CB74"/>
<path d="M76.7887 77.2646L64.2891 59.5535V58.1553L77.7712 77.2646H76.7887Z" fill="#F9CB74"/>
<path d="M75.788 77.2629L64.2891 60.9688V59.5519L76.7887 77.2629H75.788Z" fill="#F9CB74"/>
<path d="M74.8055 77.2674L64.2891 62.3715V60.9733L75.788 77.2674H74.8055Z" fill="#F9CB74"/>
<path d="M73.8048 77.2618L64.2891 63.7641V62.3658L74.8055 77.2618H73.8048Z" fill="#F9CB74"/>
<path d="M72.8223 77.2643L64.2891 65.1835V63.7666L73.8048 77.2643H72.8223Z" fill="#F9CB74"/>
<path d="M71.8216 77.2646L64.2891 66.5821V65.1838L72.8223 77.2646H71.8216Z" fill="#F9CB74"/>
<path d="M70.8391 77.2672L64.2891 67.9828V66.5846L71.8216 77.2672H70.8391Z" fill="#F9CB74"/>
<path d="M69.8566 77.2615L64.2891 69.3941V67.9772L70.8391 77.2615H69.8566Z" fill="#F9CB74"/>
<path d="M68.8559 77.2577L64.2891 70.7885V69.3903L69.8566 77.2577H68.8559Z" fill="#F9CB74"/>
<path d="M67.8734 77.2562L64.2891 72.1852V70.787L68.8559 77.2562H67.8734Z" fill="#F9CB74"/>
<path d="M66.8727 77.2587L64.2891 73.6046V72.1877L67.8734 77.2587H66.8727Z" fill="#F9CB74"/>
<path d="M65.8902 77.2632L64.2891 75.0074V73.6091L66.8727 77.2632H65.8902Z" fill="#F9CB74"/>
<path d="M64.8895 77.2616L64.2891 76.404V75.0057L65.8902 77.2616H64.8895Z" fill="#F9CB74"/>
<path d="M64.2891 76.4025L64.8895 77.2601H64.2891V76.4025Z" fill="#F9CB74"/>
</g>
<mask id="mask2_5146_40671" style="mask-type:luminance" maskUnits="userSpaceOnUse" x="45" y="56" width="19" height="22">
<path d="M54.6771 77.4577L51.0564 75.2951L45.8164 72.219V61.7229L54.6771 56.4841L63.5379 61.7229V72.219L58.316 75.2951L54.6771 77.4577Z" fill="white"/>
</mask>
<g mask="url(#mask2_5146_40671)">
<path d="M63.5395 57.1579L63.0664 56.4839H63.5395V57.1579Z" fill="#F9CB74"/>
<path d="M63.5415 58.5533L62.0859 56.4839H63.0684L63.5415 57.155V58.5533Z" fill="#F9CB74"/>
<path d="M63.5357 59.9515L61.0977 56.4839H62.0802L63.5357 58.5533V59.9515Z" fill="#F9CB74"/>
<path d="M63.5364 61.3684L60.0977 56.4839H61.0984L63.5364 59.9515V61.3684Z" fill="#F9CB74"/>
<path d="M63.5385 62.7666L59.1172 56.4839H60.0997L63.5385 61.3684V62.7666Z" fill="#F9CB74"/>
<path d="M63.5392 64.1649L58.1172 56.4839H59.1179L63.5392 62.7666V64.1649Z" fill="#F9CB74"/>
<path d="M63.5412 65.5818L57.1367 56.4839H58.1192L63.5412 64.1649V65.5818Z" fill="#F9CB74"/>
<path d="M63.5419 66.98L56.1367 56.4839H57.1374L63.5419 65.5818V66.98Z" fill="#F9CB74"/>
<path d="M63.5322 68.3783L55.1445 56.4839H56.127L63.5322 66.98V68.3783Z" fill="#F9CB74"/>
<path d="M63.5368 69.7951L54.1484 56.4839H55.1491L63.5368 68.3783V69.7951Z" fill="#F9CB74"/>
<path d="M63.5349 71.1934L53.1641 56.4839H54.1466L63.5349 69.7951V71.1934Z" fill="#F9CB74"/>
<path d="M63.5409 72.5916L52.1875 56.4839H53.17L63.5409 71.1934V72.5916Z" fill="#F9CB74"/>
<path d="M63.5377 74.0085L51.1836 56.4839H52.1843L63.5377 72.5916V74.0085Z" fill="#F9CB74"/>
<path d="M63.5358 75.4067L50.1992 56.4839H51.1817L63.5358 74.0085V75.4067Z" fill="#F9CB74"/>
<path d="M63.5326 76.2457L63.2779 76.4508L49.1953 56.4839H50.196L63.5326 75.4068V76.2457Z" fill="#F9CB74"/>
<path d="M63.2799 76.4508L62.6249 76.9355L48.2148 56.4839H49.1973L63.2799 76.4508Z" fill="#F9CB74"/>
<path d="M62.627 76.9355L61.9902 77.4016L47.2891 56.5957L47.4346 56.4839H48.217L62.627 76.9355Z" fill="#F9CB74"/>
<path d="M61.9903 77.4051L61.9357 77.461H61.026L46.6523 57.084L47.2891 56.5992L61.9903 77.4051Z" fill="#F9CB74"/>
<path d="M60.028 77.4583L46 57.566L46.655 57.0813L61.0287 77.4583H60.028Z" fill="#F9CB74"/>
<path d="M59.0438 77.4515L45.8164 58.7151V57.6711L45.9984 57.5592L60.0263 77.4515H59.0438Z" fill="#F9CB74"/>
<path d="M58.0431 77.4575L45.8164 60.1193V58.7211L59.0438 77.4575H58.0431Z" fill="#F9CB74"/>
<path d="M57.0606 77.46L45.8164 61.5201V60.1218L58.0431 77.46H57.0606Z" fill="#F9CB74"/>
<path d="M56.0781 77.4542L45.8164 62.9312V61.5143L57.0606 77.4542H56.0781Z" fill="#F9CB74"/>
<path d="M55.0774 77.4587L45.8164 64.3339V62.9357L56.0781 77.4587H55.0774Z" fill="#F9CB74"/>
<path d="M54.0949 77.4531L45.8164 65.7265V64.3282L55.0774 77.4531H54.0949Z" fill="#F9CB74"/>
<path d="M53.0942 77.4597L45.8164 67.15V65.7332L54.0949 77.4597H53.0942Z" fill="#F9CB74"/>
<path d="M52.1117 77.4642L45.8164 68.5528V67.1545L53.0942 77.4642H52.1117Z" fill="#F9CB74"/>
<path d="M51.111 77.4626L45.8164 69.9494V68.5511L52.1117 77.4626H51.111Z" fill="#F9CB74"/>
<path d="M45.8164 69.9519L51.111 77.4651H45.8164V69.9519Z" fill="#F9CB74"/>
</g>
<mask id="mask3_5146_40671" style="mask-type:luminance" maskUnits="userSpaceOnUse" x="54" y="39" width="19" height="22">
<path d="M63.7553 60.9332L60.1346 58.7893L54.8945 55.6945V45.217L63.7553 39.9783L72.616 45.217V55.6945L67.3942 58.7893L63.7553 60.9332Z" fill="white"/>
</mask>
<g mask="url(#mask3_5146_40671)">
<path d="M72.6181 40.4636L72.2734 39.9783H72.6181V40.4636Z" fill="#F9CB74"/>
<path d="M72.6134 41.8612L71.2852 39.9783H72.2677L72.6134 40.463V41.8612Z" fill="#F9CB74"/>
<path d="M72.6154 43.2595L70.3047 39.9783H71.2872L72.6154 41.8612V43.2595Z" fill="#F9CB74"/>
<path d="M72.6161 44.6764L69.3047 39.9783H70.3054L72.6161 43.2595V44.6764Z" fill="#F9CB74"/>
<path d="M72.6181 46.0746L68.3242 39.9783H69.3067L72.6181 44.6764V46.0746Z" fill="#F9CB74"/>
<path d="M72.6188 47.4728L67.3242 39.9783H68.3249L72.6188 46.0746V47.4728Z" fill="#F9CB74"/>
<path d="M72.617 48.8897L66.3398 39.9783H67.3223L72.617 47.4728V48.8897Z" fill="#F9CB74"/>
<path d="M72.6137 50.288L65.3359 39.9783H66.3366L72.6137 48.8897V50.288Z" fill="#F9CB74"/>
<path d="M72.6119 51.6862L64.3516 39.9783H65.3341L72.6119 50.288V51.6862Z" fill="#F9CB74"/>
<path d="M72.6126 53.1031L63.3516 39.9783H64.3523L72.6126 51.6862V53.1031Z" fill="#F9CB74"/>
<path d="M72.6185 54.5013L62.375 39.9783H63.3575L72.6185 53.1031V54.5013Z" fill="#F9CB74"/>
<path d="M72.6206 55.8996L61.3945 39.9783H62.377L72.6206 54.5013V55.8996Z" fill="#F9CB74"/>
<path d="M72.6212 57.2978L60.3945 39.9783H61.3952L72.6212 55.8996V57.2978Z" fill="#F9CB74"/>
<path d="M72.6116 58.7147L59.4023 39.9783H60.3848L72.6116 57.2978V58.7147Z" fill="#F9CB74"/>
<path d="M72.6123 59.7401L72.4485 59.8706L58.4023 39.9783H59.403L72.6123 58.7147V59.7401Z" fill="#F9CB74"/>
<path d="M72.4505 59.8706L71.7955 60.3553L57.4219 39.9783H58.4044L72.4505 59.8706Z" fill="#F9CB74"/>
<path d="M71.795 60.3553L71.14 60.84L56.457 40.0156L56.5116 39.9783H57.4213L71.795 60.3553Z" fill="#F9CB74"/>
<path d="M71.1388 60.8399L70.9932 60.9331H70.229L55.8008 40.5001L56.4558 40.0154L71.1388 60.8399Z" fill="#F9CB74"/>
<path d="M69.231 60.9304L55.1484 40.9822L55.8034 40.4974L70.2317 60.9304H69.231Z" fill="#F9CB74"/>
<path d="M68.2493 60.9236L54.8945 42.0194V41.1618L55.1493 40.9753L69.2318 60.9236H68.2493Z" fill="#F9CB74"/>
<path d="M67.2486 60.9342L54.8945 43.4283V42.03L68.2493 60.9342H67.2486Z" fill="#F9CB74"/>
<path d="M66.2661 60.9326L54.8945 44.8249V43.4266L67.2486 60.9326H66.2661Z" fill="#F9CB74"/>
<path d="M65.2654 60.9351L54.8945 46.2443V44.8274L66.2661 60.9351H65.2654Z" fill="#F9CB74"/>
<path d="M64.2829 60.9396L54.8945 47.647V46.2488L65.2654 60.9396H64.2829Z" fill="#F9CB74"/>
<path d="M63.3004 60.934L54.8945 49.0396V47.6414L64.2829 60.934H63.3004Z" fill="#F9CB74"/>
<path d="M62.2997 60.9323L54.8945 50.4548V49.038L63.3004 60.9323H62.2997Z" fill="#F9CB74"/>
<path d="M61.3172 60.9368L54.8945 51.8576V50.4594L62.2997 60.9368H61.3172Z" fill="#F9CB74"/>
<path d="M60.3165 60.9394L54.8945 53.2583V51.8601L61.3172 60.9394H60.3165Z" fill="#F9CB74"/>
<path d="M59.334 60.9337L54.8945 54.6696V53.2527L60.3165 60.9337H59.334Z" fill="#F9CB74"/>
<path d="M58.3333 60.9382L54.8945 56.0723V54.6741L59.334 60.9382H58.3333Z" fill="#F9CB74"/>
<path d="M57.3508 60.9284L54.8945 57.4607V56.0625L58.3333 60.9284H57.3508Z" fill="#F9CB74"/>
<path d="M56.3501 60.9432L54.8945 58.8738V57.4756L57.3508 60.9432H56.3501Z" fill="#F9CB74"/>
<path d="M55.3676 60.9334L54.8945 60.2809V58.864L56.3501 60.9334H55.3676Z" fill="#F9CB74"/>
<path d="M54.8945 60.2812L55.3676 60.9365H54.8945V60.2812Z" fill="#F9CB74"/>
</g>
</svg>
