<svg width="80" height="80" viewBox="0 0 80 80" fill="none" xmlns="http://www.w3.org/2000/svg">
<path d="M40 80C62.0914 80 80 62.0914 80 40C80 17.9086 62.0914 0 40 0C17.9086 0 0 17.9086 0 40C0 62.0914 17.9086 80 40 80Z" fill="#0D257B" fill-opacity="0.03"/>
<path d="M40.0312 40.1461C46.169 40.1461 51.1622 35.1528 51.1622 29.0151C51.1622 22.8774 46.169 17.8842 40.0312 17.8842C33.8935 17.8842 28.9003 22.8774 28.9003 29.0151C28.9003 35.1528 33.8935 40.1461 40.0312 40.1461ZM40.0312 19.9507C45.0293 19.9507 49.0956 24.0171 49.0956 29.015C49.0956 34.013 45.0293 38.0794 40.0312 38.0794C35.0332 38.0794 30.9669 34.013 30.9669 29.015C30.9669 24.0171 35.0332 19.9507 40.0312 19.9507Z" fill="#0D257B" stroke="#0D257B" stroke-width="0.176"/>
<path d="M48.089 49.675L48.1452 49.7427L48.089 49.675C47.0094 50.5725 46.1522 51.7286 45.5913 53.0224C44.9682 52.4781 44.2701 52.0232 43.5153 51.6771C44.6343 50.7028 45.3428 49.2681 45.3428 47.671C45.3428 44.7421 42.96 42.3594 40.0312 42.3594C37.1023 42.3594 34.7196 44.7421 34.7196 47.671C34.7196 49.2681 35.4282 50.7028 36.5472 51.6771C35.7925 52.0232 35.0942 52.478 34.4712 53.0223C33.9166 51.7427 33.0725 50.598 32.0083 49.7041C31.4123 49.2035 30.7568 48.7902 30.0627 48.472C31.1843 47.4976 31.8948 46.0612 31.8948 44.4619C31.8948 41.533 29.512 39.1503 26.5832 39.1503C23.6543 39.1503 21.2716 41.533 21.2716 44.4619C21.2716 46.0589 21.9801 47.4934 23.0987 48.4678C20.0641 49.8597 17.9432 53.0103 17.9432 56.6634L17.9433 57.8172C17.9433 58.3879 18.406 58.8504 18.9766 58.8504H31.4474C31.4104 59.186 31.3914 59.5272 31.3914 59.8728V61.0265C31.3914 61.5972 31.854 62.0598 32.4247 62.0598H47.6378C48.2085 62.0598 48.6711 61.5972 48.6711 61.0265V59.8727C48.6711 59.5271 48.6522 59.1859 48.6151 58.8503H61.0859C61.6566 58.8503 62.1193 58.3877 62.1193 57.817V56.6632C62.1193 53.0103 59.9985 49.8597 56.9638 48.4678C58.0825 47.4936 58.791 46.059 58.791 44.462C58.791 41.5331 56.4082 39.1504 53.4794 39.1504C50.5505 39.1504 48.1678 41.5331 48.1678 44.462C48.1678 46.0613 48.8784 47.4978 50 48.4722C49.3191 48.7841 48.6755 49.1875 48.089 49.675ZM53.4794 41.2171C55.2686 41.2171 56.7243 42.6728 56.7243 44.4621C56.7243 46.2513 55.2686 47.707 53.4794 47.707C51.6902 47.707 50.2344 46.2512 50.2344 44.4621C50.2344 42.6729 51.6903 41.2171 53.4794 41.2171ZM40.0313 44.4262C41.8205 44.4262 43.2763 45.8819 43.2763 47.6711C43.2763 49.4602 41.8205 50.916 40.0313 50.916C38.2421 50.916 36.7863 49.4602 36.7863 47.6711C36.7863 45.8819 38.2421 44.4262 40.0313 44.4262ZM23.3381 44.4621C23.3381 42.6729 24.7939 41.2171 26.5831 41.2171C28.3723 41.2171 29.8281 42.6728 29.8281 44.4621C29.8281 46.2513 28.3723 47.707 26.5831 47.707C24.794 47.707 23.3381 46.2512 23.3381 44.4621ZM20.0099 56.7838V56.6633C20.0099 52.8605 22.9625 49.7736 26.5832 49.7736C29.502 49.7736 32.1192 51.8692 32.9113 54.8045C32.5061 55.4142 32.1719 56.0783 31.921 56.7838H20.0099ZM46.6046 59.9932H33.458V59.8727C33.458 56.0699 36.4106 52.983 40.0313 52.983C43.6519 52.983 46.6046 56.0699 46.6046 59.8727V59.9932ZM60.0527 56.7838H48.1415C47.8907 56.0781 47.5564 55.4141 47.1512 54.8043C47.9495 51.8277 50.5217 49.7736 53.4794 49.7736C57.1 49.7736 60.0527 52.8605 60.0527 56.6633V56.7838Z" fill="#0D257B" stroke="#0D257B" stroke-width="0.176"/>
<path d="M41.9648 35.332H38.0977C37.5756 35.332 37.1523 34.9088 37.1523 34.3867V31.8945H34.6602C34.1381 31.8945 33.7148 31.4713 33.7148 30.9492V27.082C33.7148 26.56 34.1381 26.1367 34.6602 26.1367H37.1523V23.6445C37.1523 23.1225 37.5756 22.6992 38.0977 22.6992H41.9648C42.4869 22.6992 42.9102 23.1225 42.9102 23.6445V26.1367H45.4023C45.9243 26.1367 46.3476 26.56 46.3476 27.082V30.9492C46.3476 31.4713 45.9243 31.8945 45.4023 31.8945H42.9102V34.3867C42.9102 34.9089 42.4869 35.332 41.9648 35.332ZM39.043 33.4414H41.0195V30.9492C41.0195 30.4271 41.4428 30.0039 41.9648 30.0039H44.4569V28.0273H41.9648C41.4428 28.0273 41.0195 27.6041 41.0195 27.082V24.5898H39.043V27.082C39.043 27.6041 38.6197 28.0273 38.0977 28.0273H35.6055V30.0039H38.0977C38.6197 30.0039 39.043 30.4271 39.043 30.9492V33.4414Z" fill="#CC922F"/>
</svg>
