<svg width="581" height="344" viewBox="0 0 581 344" fill="none" xmlns="http://www.w3.org/2000/svg">
<path d="M576.1 141.188C575.717 140.453 574.811 140.168 574.077 140.551C573.342 140.934 573.057 141.84 573.44 142.575L576.1 141.188ZM555.184 181.353L554.886 179.883L555.184 181.353ZM512.529 210.094C511.882 210.612 511.778 211.556 512.296 212.202L520.739 222.737C521.257 223.383 522.201 223.487 522.848 222.969C523.494 222.451 523.598 221.507 523.08 220.861L515.575 211.497L524.939 203.992C525.586 203.474 525.69 202.53 525.172 201.884C524.654 201.237 523.71 201.133 523.063 201.651L512.529 210.094ZM573.44 142.575C576.132 147.737 578.352 155.743 576.512 163.053C575.601 166.673 573.692 170.144 570.308 173.068C566.912 176.003 561.962 178.447 554.886 179.883L555.482 182.823C562.936 181.311 568.396 178.686 572.269 175.338C576.154 171.981 578.371 167.959 579.422 163.785C581.505 155.509 578.988 146.727 576.1 141.188L573.44 142.575ZM554.886 179.883C546.063 181.673 539.98 180.383 536.109 177.873C532.246 175.367 530.399 171.532 530.218 167.796C530.035 164.026 531.545 160.466 534.271 158.455C536.932 156.491 541.049 155.791 546.567 158.316L547.815 155.588C541.539 152.717 536.217 153.29 532.489 156.041C528.826 158.744 526.998 163.34 527.221 167.941C527.446 172.575 529.75 177.324 534.477 180.39C539.195 183.45 546.142 184.718 555.482 182.823L554.886 179.883ZM546.567 158.316C551.957 160.783 555 165.346 555.963 170.864C556.934 176.425 555.782 182.959 552.681 189.118C546.492 201.411 532.719 211.877 513.631 209.773L513.303 212.755C533.803 215.015 548.687 203.722 555.36 190.467C558.691 183.852 560.021 176.664 558.918 170.348C557.808 163.989 554.22 158.519 547.815 155.588L546.567 158.316Z" fill="#CC922F"/>
<circle cx="434.533" cy="151.594" r="109.5" fill="#FFE6AD" fill-opacity="0.64"/>
<g filter="url(#filter0_d_9598_7290)">
<rect x="370.033" y="293.094" width="40" height="40" rx="8" fill="#A0DCB4"/>
</g>
<rect x="379.135" y="301.508" width="13.2188" height="2.92687" rx="1" fill="#0D257B"/>
<path d="M391.859 310.429V318.188H379.635V304.909H391.859V308.189V308.264H391.934H392.662H392.737V308.189V302.972C392.737 301.903 391.888 301.03 390.841 301.03H380.653C379.606 301.03 378.757 301.903 378.757 302.972V322.365C378.757 323.433 379.606 324.306 380.653 324.306H390.841C391.888 324.306 392.737 323.433 392.737 322.365V310.429V310.354H392.662H391.934H391.859V310.429ZM380.653 301.927H390.841C391.402 301.927 391.859 302.392 391.859 302.972V304.017H379.635V302.972C379.635 302.392 380.092 301.927 380.653 301.927ZM390.841 323.409H380.653C380.092 323.409 379.635 322.944 379.635 322.365V319.085H391.859V322.365C391.859 322.944 391.398 323.409 390.841 323.409Z" fill="#0D257B" stroke="#0D257B" stroke-width="0.15"/>
<path d="M384.289 302.972C384.289 302.766 384.456 302.599 384.662 302.599H386.825C387.031 302.599 387.198 302.766 387.198 302.972C387.198 303.178 387.031 303.345 386.825 303.345H384.662C384.456 303.345 384.289 303.178 384.289 302.972Z" fill="white"/>
<path d="M382.836 302.599H383.564V303.345H382.836V302.599Z" fill="#0D257B"/>
<path d="M385.746 319.757C384.942 319.757 384.289 320.426 384.289 321.25C384.289 322.074 384.942 322.743 385.746 322.743C386.55 322.743 387.203 322.074 387.203 321.25C387.203 320.426 386.55 319.757 385.746 319.757ZM385.746 321.992C385.346 321.992 385.017 321.659 385.017 321.245C385.017 320.835 385.346 320.499 385.746 320.499C386.145 320.499 386.474 320.831 386.474 321.245C386.474 321.659 386.145 321.992 385.746 321.992Z" fill="#0D257B"/>
<path d="M401.45 302.222V301.899V301.849H401.4H400.671H400.621V301.899V303.392V303.442H400.671H401.4H401.45V303.392V303.069H402.078V307.12C402.078 308.737 400.794 310.052 399.219 310.052C397.645 310.052 396.36 308.737 396.36 307.12V303.069H396.988V303.392V303.442H397.038H397.767H397.817V303.392V301.899V301.849H397.767H397.038H396.988V301.899V302.222H395.582H395.532V302.272V307.12C395.532 309.06 396.966 310.665 398.805 310.875V316.817C398.805 317.614 398.173 318.26 397.398 318.26C396.623 318.26 395.991 317.614 395.991 316.817V312.715C395.991 310.631 394.336 308.937 392.304 308.937C390.272 308.937 388.617 310.635 388.617 312.715V314.22C387.988 314.407 387.524 314.995 387.524 315.697C387.524 316.547 388.198 317.24 389.031 317.24C389.864 317.24 390.538 316.547 390.538 315.697C390.538 314.995 390.074 314.407 389.445 314.22V312.715C389.445 311.098 390.73 309.783 392.304 309.783C393.879 309.783 395.163 311.098 395.163 312.715V316.817C395.163 318.077 396.166 319.106 397.398 319.106C398.631 319.106 399.633 318.077 399.633 316.817V310.875C401.472 310.665 402.906 309.06 402.906 307.12V302.272V302.222H402.856H401.45ZM389.705 315.701C389.705 316.084 389.397 316.398 389.027 316.398C388.655 316.398 388.348 316.089 388.348 315.701C388.348 315.318 388.656 315.005 389.027 315.005C389.398 315.005 389.705 315.314 389.705 315.701Z" fill="#0D257B" stroke="#0D257B" stroke-width="0.1"/>
<path d="M398.855 306.373H399.584V307.12H398.855V306.373Z" fill="#0D257B"/>
<path d="M400.309 306.373H401.037V307.12H400.309V306.373Z" fill="#0D257B"/>
<path d="M397.4 306.373H398.129V307.12H397.4V306.373Z" fill="#0D257B"/>
<path d="M448.131 315.324C453.887 320.272 472.321 326.665 483.015 323.017C493.71 319.369 496.5 308.972 492.919 306.109C489.338 303.245 484.444 309.566 491.327 312.74C501.465 317.416 518.618 305.203 518.154 284.281" stroke="#D9D9D9" stroke-width="2" stroke-linecap="round" stroke-dasharray="5 5"/>
<path d="M31.2613 203.441C32.0489 203.697 32.8956 203.267 33.1524 202.479C33.4093 201.692 32.979 200.845 32.1914 200.588L31.2613 203.441ZM14.371 148.629L15.6126 149.471L14.371 148.629ZM27.1692 84.3998C27.2685 83.5774 26.6824 82.8301 25.8599 82.7307L12.4574 81.1114C11.635 81.012 10.8877 81.5982 10.7883 82.4206C10.6889 83.243 11.2751 83.9903 12.0975 84.0897L24.0109 85.5291L22.5715 97.4425C22.4721 98.2649 23.0582 99.0122 23.8807 99.1116C24.7031 99.211 25.4504 98.6248 25.5498 97.8024L27.1692 84.3998ZM32.1914 200.588C25.0848 198.271 15.8245 192.916 10.9143 184.504C8.47752 180.329 7.09906 175.386 7.58005 169.617C8.06224 163.833 10.4216 157.129 15.6126 149.471L13.1294 147.788C7.72242 155.764 5.12511 162.954 4.59042 169.367C4.05454 175.795 5.59901 181.349 8.32344 186.016C13.7357 195.288 23.7511 200.991 31.2613 203.441L32.1914 200.588ZM15.6126 149.471C22.0883 139.918 28.8562 135.585 34.7534 134.392C40.6409 133.201 45.873 135.091 49.4587 138.414C53.0689 141.76 54.9357 146.478 54.2221 150.896C53.5215 155.234 50.2677 159.644 42.8866 162.303L43.9035 165.126C52.0685 162.184 56.2717 157.022 57.1838 151.374C58.083 145.807 55.7182 140.125 51.4978 136.214C47.2529 132.28 41.0551 130.057 34.1585 131.452C27.2716 132.845 19.9013 137.798 13.1294 147.788L15.6126 149.471ZM42.8866 162.303C35.6382 164.915 28.6616 163.437 22.7712 159.205C16.8453 154.947 12.0249 147.892 9.33624 139.456C3.96715 122.609 7.2035 100.619 26.6058 85.4001L24.7542 83.0397C4.23421 99.1355 0.78194 122.494 6.47789 140.366C9.32176 149.29 14.4723 156.936 21.0207 161.641C27.6046 166.371 35.6057 168.115 43.9035 165.126L42.8866 162.303Z" fill="#DAF1E1"/>
<g filter="url(#filter1_d_9598_7290)">
<rect x="88.0332" y="147.094" width="359" height="72" rx="19" fill="#A5BCEF"/>
</g>
<g filter="url(#filter2_d_9598_7290)">
<rect x="82.0332" y="152.094" width="371" height="72" rx="19" fill="#7791CC"/>
</g>
<g filter="url(#filter3_d_9598_7290)">
<rect x="76.0332" y="159.094" width="383" height="74" rx="19" fill="#4C67A5"/>
</g>
<g filter="url(#filter4_d_9598_7290)">
<rect x="70.0859" y="169.787" width="399.533" height="96.2863" rx="15" fill="#F5F5FF"/>
</g>
<rect x="72.2988" y="167.573" width="395.106" height="96.2863" rx="15" fill="#F9FAFF"/>
<rect x="76.1288" y="170.971" width="387.253" height="88.4338" rx="10.2872" fill="white" stroke="white" stroke-width="3.42557"/>
<rect x="191.73" y="219.168" width="168.224" height="7.74718" rx="3.87359" fill="#F4F3F8"/>
<rect x="191.73" y="232.449" width="80.792" height="7.74718" rx="3.87359" fill="#F4F3F8"/>
<g filter="url(#filter5_dddd_9598_7290)">
<path d="M418.594 240.437C417.719 240.104 416.861 240.961 417.194 241.837L435.883 290.991C436.221 291.879 437.454 291.935 437.872 291.083L448.18 270.04C448.292 269.811 448.481 269.629 448.714 269.526L467.681 261.085C468.566 260.691 468.531 259.423 467.626 259.079L418.594 240.437Z" fill="#0D257B"/>
</g>
<g clip-path="url(#clip0_9598_7290)">
<path d="M135.59 241.401C131.472 241.401 127.472 241.401 123.355 241.401C116.532 241.401 110.885 236.813 109.474 230.108C109.356 229.167 109.238 228.226 109.238 227.167C109.238 219.05 109.238 210.933 109.238 202.815C109.238 195.639 114.297 189.875 121.238 188.699C122.061 188.581 122.767 188.581 123.59 188.581C131.59 188.581 139.707 188.581 147.707 188.581C155 188.581 160.765 193.522 161.823 200.58C161.941 201.286 161.941 202.11 161.941 202.815C161.941 210.933 161.941 219.05 161.941 227.167C161.941 234.343 157 240.107 149.942 241.284C149.236 241.401 148.412 241.401 147.589 241.401C143.707 241.401 139.707 241.401 135.59 241.401ZM135.707 192.11C131.59 192.11 127.472 192.11 123.473 192.11C117.473 192.11 112.767 196.816 112.767 202.815C112.767 210.933 112.767 219.05 112.767 227.167C112.767 233.167 117.473 237.872 123.473 237.872C131.59 237.872 139.707 237.872 147.942 237.872C153.941 237.872 158.647 233.167 158.647 227.167C158.647 219.05 158.647 210.933 158.647 202.698C158.647 201.992 158.647 201.404 158.529 200.698C157.353 195.639 153.118 192.11 147.824 192.11C143.824 192.11 139.707 192.11 135.707 192.11Z" fill="#F5C86F"/>
<path d="M131.471 219.166C131.353 219.166 131.236 219.166 131.118 219.166C128.647 219.166 126.177 219.166 123.707 219.166C122.765 219.166 122.295 218.696 122.295 217.755C122.295 215.872 122.295 214.108 122.295 212.225C122.295 211.402 122.765 210.814 123.707 210.814C126.177 210.814 128.647 210.814 131.118 210.814C131.236 210.814 131.353 210.814 131.471 210.814C131.471 210.696 131.471 210.579 131.471 210.461C131.471 207.99 131.471 205.52 131.471 203.05C131.471 202.108 131.941 201.638 132.883 201.638C134.765 201.638 136.529 201.638 138.412 201.638C139.353 201.638 139.823 202.108 139.823 203.05C139.823 205.52 139.823 207.99 139.823 210.461C139.823 210.579 139.823 210.696 139.823 210.814C139.941 210.814 140.059 210.814 140.176 210.814C142.647 210.814 145.117 210.814 147.588 210.814C148.529 210.814 148.999 211.284 148.999 212.225C148.999 214.108 148.999 215.872 148.999 217.755C148.999 218.578 148.529 219.166 147.588 219.166C145.117 219.166 142.647 219.166 140.176 219.166C140.059 219.166 139.941 219.166 139.823 219.166C139.823 219.284 139.823 219.402 139.823 219.519C139.823 221.99 139.823 224.46 139.823 226.93C139.823 227.872 139.353 228.342 138.412 228.342C136.647 228.342 134.765 228.342 133 228.342C132.059 228.342 131.588 227.872 131.588 226.93C131.588 224.46 131.588 221.99 131.588 219.519C131.471 219.402 131.471 219.284 131.471 219.166Z" fill="#0D257B"/>
</g>
<path d="M393.466 204.367V210.155H391.988V200.534H393.416V202.038H393.542C393.767 201.549 394.109 201.157 394.569 200.86C395.028 200.559 395.621 200.409 396.348 200.409C396.999 200.409 397.569 200.543 398.057 200.81C398.546 201.073 398.926 201.474 399.197 202.012C399.469 202.547 399.604 203.223 399.604 204.042V210.155H398.126V204.142C398.126 203.386 397.93 202.797 397.538 202.376C397.145 201.95 396.606 201.737 395.922 201.737C395.45 201.737 395.028 201.839 394.656 202.044C394.289 202.248 393.999 202.547 393.786 202.939C393.573 203.332 393.466 203.808 393.466 204.367Z" fill="#0D257B"/>
<path d="M385.373 210.355C384.504 210.355 383.742 210.148 383.087 209.735C382.435 209.322 381.926 208.743 381.559 208C381.195 207.257 381.014 206.388 381.014 205.395C381.014 204.393 381.195 203.518 381.559 202.77C381.926 202.023 382.435 201.443 383.087 201.029C383.742 200.616 384.504 200.409 385.373 200.409C386.241 200.409 387.001 200.616 387.653 201.029C388.308 201.443 388.818 202.023 389.181 202.77C389.548 203.518 389.732 204.393 389.732 205.395C389.732 206.388 389.548 207.257 389.181 208C388.818 208.743 388.308 209.322 387.653 209.735C387.001 210.148 386.241 210.355 385.373 210.355ZM385.373 209.027C386.033 209.027 386.575 208.858 387.001 208.52C387.427 208.182 387.743 207.737 387.947 207.186C388.152 206.635 388.254 206.038 388.254 205.395C388.254 204.752 388.152 204.152 387.947 203.597C387.743 203.042 387.427 202.593 387.001 202.25C386.575 201.908 386.033 201.737 385.373 201.737C384.713 201.737 384.17 201.908 383.744 202.25C383.319 202.593 383.003 203.042 382.799 203.597C382.594 204.152 382.492 204.752 382.492 205.395C382.492 206.038 382.594 206.635 382.799 207.186C383.003 207.737 383.319 208.182 383.744 208.52C384.17 208.858 384.713 209.027 385.373 209.027Z" fill="#0D257B"/>
<path d="M377.279 210.155V200.535H378.757V210.155H377.279ZM378.031 198.932C377.743 198.932 377.494 198.834 377.285 198.637C377.081 198.441 376.979 198.205 376.979 197.93C376.979 197.654 377.081 197.418 377.285 197.222C377.494 197.026 377.743 196.927 378.031 196.927C378.319 196.927 378.565 197.026 378.77 197.222C378.979 197.418 379.083 197.654 379.083 197.93C379.083 198.205 378.979 198.441 378.77 198.637C378.565 198.834 378.319 198.932 378.031 198.932Z" fill="#0D257B"/>
<path d="M375.056 200.534V201.787H370.07V200.534H375.056ZM371.523 198.229H373.002V207.399C373.002 207.816 373.062 208.13 373.183 208.338C373.308 208.543 373.467 208.681 373.659 208.752C373.855 208.819 374.062 208.852 374.279 208.852C374.442 208.852 374.576 208.844 374.68 208.827C374.784 208.806 374.868 208.789 374.931 208.777L375.231 210.105C375.131 210.142 374.991 210.18 374.812 210.217C374.632 210.259 374.404 210.28 374.129 210.28C373.711 210.28 373.302 210.19 372.901 210.011C372.505 209.831 372.175 209.558 371.912 209.19C371.653 208.823 371.523 208.359 371.523 207.8V198.229Z" fill="#0D257B"/>
<path d="M363.764 210.38C363.155 210.38 362.601 210.265 362.105 210.036C361.608 209.802 361.213 209.466 360.921 209.027C360.629 208.585 360.482 208.05 360.482 207.424C360.482 206.873 360.591 206.426 360.808 206.084C361.025 205.737 361.315 205.466 361.679 205.269C362.042 205.073 362.443 204.927 362.881 204.831C363.324 204.731 363.769 204.651 364.215 204.593C364.8 204.518 365.274 204.461 365.637 204.424C366.005 204.382 366.272 204.313 366.439 204.217C366.61 204.121 366.696 203.954 366.696 203.716V203.666C366.696 203.048 366.526 202.568 366.188 202.225C365.854 201.883 365.347 201.712 364.666 201.712C363.961 201.712 363.407 201.866 363.007 202.175C362.606 202.484 362.324 202.814 362.161 203.165L360.758 202.664C361.009 202.079 361.343 201.624 361.76 201.298C362.182 200.969 362.641 200.739 363.138 200.61C363.639 200.476 364.132 200.409 364.616 200.409C364.925 200.409 365.28 200.447 365.681 200.522C366.086 200.593 366.476 200.741 366.852 200.967C367.232 201.192 367.547 201.532 367.798 201.987C368.048 202.443 368.174 203.052 368.174 203.816V210.155H366.696V208.852H366.62C366.52 209.061 366.353 209.284 366.119 209.522C365.886 209.76 365.574 209.963 365.186 210.13C364.798 210.297 364.324 210.38 363.764 210.38ZM363.99 209.052C364.574 209.052 365.067 208.938 365.468 208.708C365.873 208.478 366.178 208.182 366.382 207.819C366.591 207.455 366.696 207.073 366.696 206.672V205.319C366.633 205.395 366.495 205.464 366.282 205.526C366.073 205.585 365.831 205.637 365.556 205.683C365.284 205.725 365.019 205.762 364.76 205.796C364.506 205.825 364.299 205.85 364.14 205.871C363.756 205.921 363.397 206.002 363.063 206.115C362.733 206.223 362.466 206.388 362.261 206.61C362.061 206.827 361.961 207.123 361.961 207.499C361.961 208.013 362.151 208.401 362.531 208.664C362.915 208.923 363.401 209.052 363.99 209.052Z" fill="#0D257B"/>
<path d="M352.095 204.367V210.155H350.617V200.534H352.045V202.038H352.17C352.396 201.549 352.738 201.157 353.198 200.86C353.657 200.559 354.25 200.409 354.976 200.409C355.628 200.409 356.198 200.543 356.686 200.81C357.175 201.073 357.555 201.474 357.826 202.012C358.098 202.547 358.233 203.223 358.233 204.042V210.155H356.755V204.142C356.755 203.386 356.559 202.797 356.166 202.376C355.774 201.95 355.235 201.737 354.551 201.737C354.079 201.737 353.657 201.839 353.285 202.044C352.918 202.248 352.628 202.547 352.415 202.939C352.202 203.332 352.095 203.808 352.095 204.367Z" fill="#0D257B"/>
<path d="M346.43 210.155V200.535H347.908V210.155H346.43ZM347.181 198.932C346.893 198.932 346.645 198.834 346.436 198.637C346.231 198.441 346.129 198.205 346.129 197.93C346.129 197.654 346.231 197.418 346.436 197.222C346.645 197.026 346.893 196.927 347.181 196.927C347.469 196.927 347.716 197.026 347.92 197.222C348.129 197.418 348.233 197.654 348.233 197.93C348.233 198.205 348.129 198.441 347.92 198.637C347.716 198.834 347.469 198.932 347.181 198.932Z" fill="#0D257B"/>
<path d="M331.1 210.155V200.534H332.528V202.038H332.653C332.853 201.524 333.177 201.125 333.624 200.841C334.07 200.553 334.607 200.409 335.233 200.409C335.868 200.409 336.396 200.553 336.818 200.841C337.244 201.125 337.576 201.524 337.814 202.038H337.914C338.16 201.541 338.53 201.146 339.023 200.854C339.515 200.557 340.106 200.409 340.795 200.409C341.655 200.409 342.359 200.678 342.906 201.217C343.453 201.752 343.726 202.585 343.726 203.716V210.155H342.248V203.716C342.248 203.006 342.054 202.499 341.666 202.194C341.277 201.889 340.82 201.737 340.294 201.737C339.618 201.737 339.094 201.942 338.722 202.351C338.35 202.756 338.165 203.269 338.165 203.891V210.155H336.661V203.566C336.661 203.019 336.484 202.578 336.129 202.244C335.774 201.906 335.317 201.737 334.757 201.737C334.373 201.737 334.014 201.839 333.68 202.044C333.35 202.248 333.083 202.532 332.878 202.896C332.678 203.255 332.578 203.67 332.578 204.142V210.155H331.1Z" fill="#0D257B"/>
<path d="M323.993 210.38C323.383 210.38 322.83 210.265 322.333 210.036C321.836 209.802 321.442 209.466 321.149 209.027C320.857 208.585 320.711 208.05 320.711 207.424C320.711 206.873 320.82 206.426 321.037 206.084C321.254 205.737 321.544 205.466 321.907 205.269C322.27 205.073 322.671 204.927 323.11 204.831C323.552 204.731 323.997 204.651 324.444 204.593C325.028 204.518 325.502 204.461 325.866 204.424C326.233 204.382 326.5 204.313 326.667 204.217C326.839 204.121 326.924 203.954 326.924 203.716V203.666C326.924 203.048 326.755 202.568 326.417 202.225C326.083 201.883 325.575 201.712 324.895 201.712C324.189 201.712 323.636 201.866 323.235 202.175C322.834 202.484 322.552 202.814 322.389 203.165L320.987 202.664C321.237 202.079 321.571 201.624 321.989 201.298C322.41 200.969 322.87 200.739 323.367 200.61C323.868 200.476 324.36 200.409 324.845 200.409C325.154 200.409 325.509 200.447 325.909 200.522C326.314 200.593 326.705 200.741 327.081 200.967C327.461 201.192 327.776 201.532 328.026 201.987C328.277 202.443 328.402 203.052 328.402 203.816V210.155H326.924V208.852H326.849C326.749 209.061 326.582 209.284 326.348 209.522C326.114 209.76 325.803 209.963 325.415 210.13C325.026 210.297 324.552 210.38 323.993 210.38ZM324.218 209.052C324.803 209.052 325.296 208.938 325.697 208.708C326.102 208.478 326.406 208.182 326.611 207.819C326.82 207.455 326.924 207.073 326.924 206.672V205.319C326.861 205.395 326.724 205.464 326.511 205.526C326.302 205.585 326.06 205.637 325.784 205.683C325.513 205.725 325.248 205.762 324.989 205.796C324.734 205.825 324.527 205.85 324.369 205.871C323.985 205.921 323.625 206.002 323.291 206.115C322.962 206.223 322.694 206.388 322.49 206.61C322.289 206.827 322.189 207.123 322.189 207.499C322.189 208.013 322.379 208.401 322.759 208.664C323.143 208.923 323.63 209.052 324.218 209.052Z" fill="#0D257B"/>
<path d="M312.737 200.535L315.042 204.468L317.347 200.535H319.05L315.944 205.345L319.05 210.155H317.347L315.042 206.422L312.737 210.155H311.033L314.09 205.345L311.033 200.535H312.737Z" fill="#0D257B"/>
<path d="M301.299 210.156V197.329H309.04V198.707H302.852V203.041H308.639V204.419H302.852V208.778H309.14V210.156H301.299Z" fill="#0D257B"/>
<path d="M281.652 209.931V200.311H283.08V201.814H283.206C283.406 201.3 283.73 200.902 284.176 200.618C284.623 200.329 285.16 200.185 285.786 200.185C286.421 200.185 286.949 200.329 287.371 200.618C287.797 200.902 288.129 201.3 288.367 201.814H288.467C288.713 201.317 289.083 200.922 289.575 200.63C290.068 200.334 290.659 200.185 291.348 200.185C292.208 200.185 292.912 200.455 293.459 200.993C294.006 201.528 294.279 202.361 294.279 203.492V209.931H292.801V203.492C292.801 202.783 292.607 202.275 292.218 201.97C291.83 201.666 291.373 201.513 290.847 201.513C290.17 201.513 289.646 201.718 289.275 202.127C288.903 202.532 288.717 203.046 288.717 203.668V209.931H287.214V203.342C287.214 202.795 287.037 202.355 286.682 202.021C286.327 201.682 285.87 201.513 285.31 201.513C284.926 201.513 284.567 201.616 284.233 201.82C283.903 202.025 283.636 202.309 283.431 202.672C283.231 203.031 283.13 203.447 283.13 203.918V209.931H281.652Z" fill="#0D257B"/>
<path d="M275.035 210.132C274.167 210.132 273.404 209.925 272.749 209.511C272.098 209.098 271.588 208.52 271.221 207.777C270.857 207.033 270.676 206.165 270.676 205.171C270.676 204.169 270.857 203.294 271.221 202.547C271.588 201.799 272.098 201.219 272.749 200.805C273.404 200.392 274.167 200.185 275.035 200.185C275.904 200.185 276.663 200.392 277.315 200.805C277.97 201.219 278.48 201.799 278.843 202.547C279.211 203.294 279.394 204.169 279.394 205.171C279.394 206.165 279.211 207.033 278.843 207.777C278.48 208.52 277.97 209.098 277.315 209.511C276.663 209.925 275.904 210.132 275.035 210.132ZM275.035 208.804C275.695 208.804 276.238 208.635 276.663 208.296C277.089 207.958 277.405 207.513 277.609 206.962C277.814 206.411 277.916 205.814 277.916 205.171C277.916 204.528 277.814 203.929 277.609 203.373C277.405 202.818 277.089 202.369 276.663 202.027C276.238 201.684 275.695 201.513 275.035 201.513C274.375 201.513 273.832 201.684 273.407 202.027C272.981 202.369 272.665 202.818 272.461 203.373C272.256 203.929 272.154 204.528 272.154 205.171C272.154 205.814 272.256 206.411 272.461 206.962C272.665 207.513 272.981 207.958 273.407 208.296C273.832 208.635 274.375 208.804 275.035 208.804Z" fill="#0D257B"/>
<path d="M269.007 200.309V201.562H264.021V200.309H269.007ZM265.475 198.004H266.953V207.173C266.953 207.591 267.013 207.904 267.134 208.113C267.26 208.318 267.418 208.455 267.61 208.526C267.807 208.593 268.013 208.627 268.23 208.627C268.393 208.627 268.527 208.618 268.631 208.602C268.736 208.581 268.819 208.564 268.882 208.551L269.182 209.879C269.082 209.917 268.942 209.954 268.763 209.992C268.583 210.034 268.356 210.055 268.08 210.055C267.663 210.055 267.253 209.965 266.852 209.785C266.456 209.606 266.126 209.332 265.863 208.965C265.604 208.597 265.475 208.134 265.475 207.574V198.004Z" fill="#0D257B"/>
<path d="M262.424 202.465L261.096 202.841C261.013 202.62 260.889 202.405 260.727 202.196C260.568 201.983 260.351 201.808 260.075 201.67C259.8 201.532 259.447 201.463 259.017 201.463C258.428 201.463 257.937 201.599 257.545 201.87C257.157 202.137 256.962 202.478 256.962 202.891C256.962 203.259 257.096 203.549 257.363 203.762C257.63 203.975 258.048 204.152 258.616 204.294L260.044 204.645C260.904 204.854 261.545 205.173 261.967 205.603C262.388 206.029 262.599 206.578 262.599 207.25C262.599 207.802 262.441 208.294 262.123 208.729C261.81 209.163 261.372 209.505 260.808 209.756C260.244 210.006 259.589 210.132 258.841 210.132C257.86 210.132 257.048 209.919 256.405 209.493C255.762 209.067 255.355 208.445 255.184 207.626L256.587 207.275C256.72 207.793 256.973 208.182 257.344 208.44C257.72 208.699 258.211 208.829 258.816 208.829C259.505 208.829 260.052 208.683 260.457 208.39C260.866 208.094 261.071 207.739 261.071 207.326C261.071 206.992 260.954 206.712 260.72 206.486C260.487 206.257 260.127 206.085 259.643 205.973L258.04 205.597C257.159 205.388 256.511 205.065 256.098 204.626C255.689 204.183 255.484 203.63 255.484 202.966C255.484 202.424 255.637 201.943 255.941 201.526C256.25 201.108 256.67 200.78 257.2 200.542C257.735 200.304 258.34 200.185 259.017 200.185C259.969 200.185 260.716 200.394 261.259 200.812C261.806 201.229 262.194 201.78 262.424 202.465Z" fill="#0D257B"/>
<path d="M251.422 205.998V200.311H252.9V209.931H251.422V208.303H251.322C251.097 208.791 250.746 209.207 250.27 209.549C249.794 209.887 249.192 210.057 248.466 210.057C247.865 210.057 247.33 209.925 246.863 209.662C246.395 209.395 246.027 208.994 245.76 208.459C245.493 207.921 245.359 207.242 245.359 206.424V200.311H246.838V206.324C246.838 207.025 247.034 207.585 247.426 208.002C247.823 208.42 248.328 208.629 248.942 208.629C249.309 208.629 249.683 208.535 250.063 208.347C250.447 208.159 250.769 207.871 251.028 207.482C251.291 207.094 251.422 206.599 251.422 205.998Z" fill="#0D257B"/>
<path d="M243.05 201.111H241.496C241.404 200.665 241.244 200.272 241.014 199.934C240.788 199.596 240.513 199.312 240.187 199.082C239.866 198.848 239.509 198.673 239.116 198.556C238.724 198.439 238.314 198.381 237.889 198.381C237.112 198.381 236.408 198.577 235.778 198.969C235.152 199.362 234.653 199.94 234.281 200.704C233.913 201.468 233.73 202.406 233.73 203.516C233.73 204.627 233.913 205.565 234.281 206.329C234.653 207.093 235.152 207.671 235.778 208.064C236.408 208.456 237.112 208.652 237.889 208.652C238.314 208.652 238.724 208.594 239.116 208.477C239.509 208.36 239.866 208.187 240.187 207.957C240.513 207.723 240.788 207.437 241.014 207.099C241.244 206.757 241.404 206.364 241.496 205.922H243.05C242.933 206.577 242.72 207.164 242.411 207.682C242.102 208.199 241.718 208.64 241.258 209.003C240.799 209.362 240.283 209.636 239.711 209.824C239.143 210.011 238.536 210.105 237.889 210.105C236.795 210.105 235.822 209.838 234.97 209.304C234.118 208.769 233.448 208.009 232.959 207.024C232.471 206.038 232.227 204.869 232.227 203.516C232.227 202.164 232.471 200.994 232.959 200.009C233.448 199.024 234.118 198.264 234.97 197.729C235.822 197.195 236.795 196.927 237.889 196.927C238.536 196.927 239.143 197.021 239.711 197.209C240.283 197.397 240.799 197.673 241.258 198.036C241.718 198.395 242.102 198.834 242.411 199.351C242.72 199.865 242.933 200.452 243.05 201.111Z" fill="#0D257B"/>
<path d="M220.244 210.131C219.442 210.131 218.734 209.928 218.121 209.523C217.507 209.114 217.027 208.538 216.68 207.795C216.333 207.047 216.16 206.164 216.16 205.145C216.16 204.135 216.333 203.258 216.68 202.515C217.027 201.772 217.509 201.197 218.127 200.792C218.745 200.387 219.459 200.185 220.269 200.185C220.895 200.185 221.39 200.289 221.753 200.498C222.121 200.703 222.4 200.936 222.593 201.2C222.789 201.458 222.941 201.671 223.05 201.838H223.175V197.103H224.653V209.931H223.225V208.452H223.05C222.941 208.628 222.787 208.849 222.586 209.116C222.386 209.379 222.1 209.615 221.728 209.824C221.357 210.029 220.862 210.131 220.244 210.131ZM220.444 208.803C221.037 208.803 221.538 208.649 221.947 208.34C222.357 208.026 222.668 207.594 222.881 207.043C223.094 206.488 223.2 205.847 223.2 205.12C223.2 204.402 223.096 203.774 222.887 203.235C222.678 202.692 222.369 202.271 221.96 201.97C221.551 201.665 221.046 201.513 220.444 201.513C219.818 201.513 219.296 201.673 218.878 201.995C218.465 202.312 218.154 202.744 217.945 203.291C217.741 203.834 217.638 204.444 217.638 205.12C217.638 205.805 217.743 206.427 217.951 206.987C218.164 207.542 218.478 207.985 218.891 208.315C219.308 208.64 219.826 208.803 220.444 208.803Z" fill="#0D257B"/>
<path d="M209.293 210.131C208.491 210.131 207.783 209.928 207.169 209.523C206.556 209.114 206.075 208.538 205.729 207.795C205.382 207.047 205.209 206.164 205.209 205.145C205.209 204.135 205.382 203.258 205.729 202.515C206.075 201.772 206.558 201.197 207.176 200.792C207.794 200.387 208.508 200.185 209.318 200.185C209.944 200.185 210.439 200.289 210.802 200.498C211.17 200.703 211.449 200.936 211.641 201.2C211.838 201.458 211.99 201.671 212.099 201.838H212.224V197.103H213.702V209.931H212.274V208.452H212.099C211.99 208.628 211.836 208.849 211.635 209.116C211.435 209.379 211.149 209.615 210.777 209.824C210.405 210.029 209.911 210.131 209.293 210.131ZM209.493 208.803C210.086 208.803 210.587 208.649 210.996 208.34C211.405 208.026 211.717 207.594 211.929 207.043C212.142 206.488 212.249 205.847 212.249 205.12C212.249 204.402 212.145 203.774 211.936 203.235C211.727 202.692 211.418 202.271 211.009 201.97C210.6 201.665 210.094 201.513 209.493 201.513C208.867 201.513 208.345 201.673 207.927 201.995C207.514 202.312 207.203 202.744 206.994 203.291C206.789 203.834 206.687 204.444 206.687 205.12C206.687 205.805 206.792 206.427 207 206.987C207.213 207.542 207.526 207.985 207.94 208.315C208.357 208.64 208.875 208.803 209.493 208.803Z" fill="#0D257B"/>
<path d="M194.466 209.931H192.838L197.548 197.103H199.151L203.861 209.931H202.233L198.4 199.133H198.299L194.466 209.931ZM195.068 204.92H201.632V206.298H195.068V204.92Z" fill="#0D257B"/>
<g filter="url(#filter6_d_9598_7290)">
<rect x="205.033" y="63.0938" width="58" height="58" rx="8" fill="#0D257B"/>
</g>
<path d="M233.677 92.5954C238.393 92.5954 242.229 88.7592 242.229 84.0438C242.229 79.3284 238.393 75.4923 233.677 75.4923C228.962 75.4923 225.126 79.3284 225.126 84.0438C225.126 88.7592 228.962 92.5954 233.677 92.5954ZM233.677 77.0904C237.511 77.0904 240.631 80.2097 240.631 84.0437C240.631 87.8778 237.511 90.9971 233.677 90.9971C229.843 90.9971 226.724 87.8778 226.724 84.0437C226.724 80.2097 229.843 77.0904 233.677 77.0904Z" fill="#E3C57F" stroke="#E3C57F" stroke-width="0.146667"/>
<path d="M239.858 99.901L239.905 99.9574L239.858 99.9011C239.031 100.589 238.373 101.475 237.942 102.466C237.467 102.052 236.935 101.705 236.361 101.441C237.217 100.692 237.759 99.5916 237.759 98.3669C237.759 96.1151 235.927 94.2832 233.676 94.2832C231.424 94.2832 229.592 96.1151 229.592 98.3669C229.592 99.5916 230.134 100.692 230.99 101.441C230.416 101.705 229.884 102.052 229.409 102.466C228.983 101.486 228.335 100.609 227.52 99.9234C227.064 99.5407 226.563 99.2244 226.033 98.9804C226.891 98.2314 227.435 97.1296 227.435 95.9031C227.435 93.6513 225.603 91.8194 223.351 91.8194C221.099 91.8194 219.267 93.6513 219.267 95.9031C219.267 97.1278 219.809 98.2281 220.665 98.9771C218.338 100.049 216.712 102.467 216.712 105.271L216.712 106.157C216.712 106.598 217.07 106.956 217.511 106.956H227.079C227.051 107.211 227.037 107.471 227.037 107.735V108.621C227.037 109.062 227.394 109.42 227.836 109.42H239.516C239.957 109.42 240.315 109.062 240.315 108.621V107.735C240.315 107.471 240.3 107.211 240.272 106.956H249.84C250.282 106.956 250.639 106.598 250.639 106.156V105.271C250.639 102.467 249.014 100.049 246.686 98.9772C247.542 98.2282 248.084 97.1278 248.084 95.9032C248.084 93.6514 246.252 91.8195 244 91.8195C241.748 91.8195 239.917 93.6514 239.917 95.9032C239.917 97.1296 240.46 98.2315 241.318 98.9805C240.798 99.2197 240.307 99.5284 239.858 99.901ZM244 93.4177C245.371 93.4177 246.486 94.5328 246.486 95.9033C246.486 97.2738 245.371 98.3888 244 98.3888C242.63 98.3888 241.515 97.2737 241.515 95.9033C241.515 94.5328 242.63 93.4177 244 93.4177ZM233.676 95.8815C235.046 95.8815 236.161 96.9965 236.161 98.367C236.161 99.7374 235.046 100.852 233.676 100.852C232.305 100.852 231.19 99.7374 231.19 98.367C231.19 96.9965 232.305 95.8815 233.676 95.8815ZM220.865 95.9033C220.865 94.5328 221.98 93.4177 223.351 93.4177C224.721 93.4177 225.836 94.5328 225.836 95.9033C225.836 97.2738 224.721 98.3888 223.351 98.3888C221.98 98.3888 220.865 97.2737 220.865 95.9033ZM218.31 105.357V105.271C218.31 102.354 220.575 99.987 223.351 99.987C225.588 99.987 227.595 101.593 228.203 103.843C227.893 104.309 227.637 104.818 227.445 105.357H218.31ZM238.716 107.821H228.635V107.735C228.635 104.818 230.899 102.451 233.676 102.451C236.452 102.451 238.716 104.818 238.716 107.735V107.821ZM249.041 105.357H239.906C239.714 104.818 239.458 104.309 239.148 103.842C239.761 101.561 241.733 99.987 244 99.987C246.777 99.987 249.041 102.354 249.041 105.271V105.357Z" fill="#E3C57F" stroke="#E3C57F" stroke-width="0.146667"/>
<path d="M235.16 88.8938H232.191C231.79 88.8938 231.465 88.5689 231.465 88.168V86.2547H229.552C229.151 86.2547 228.826 85.9297 228.826 85.5289V82.5599C228.826 82.1591 229.151 81.8341 229.552 81.8341H231.465V79.9208C231.465 79.52 231.79 79.195 232.191 79.195H235.16C235.561 79.195 235.886 79.52 235.886 79.9208V81.8341H237.799C238.2 81.8341 238.525 82.1591 238.525 82.5599V85.5289C238.525 85.9297 238.2 86.2547 237.799 86.2547H235.886V88.168C235.886 88.5689 235.561 88.8938 235.16 88.8938ZM232.917 87.4423H234.434V85.5289C234.434 85.1281 234.759 84.8032 235.16 84.8032H237.073V83.2857H235.16C234.759 83.2857 234.434 82.9607 234.434 82.5599V80.6465H232.917V82.5599C232.917 82.9607 232.592 83.2857 232.191 83.2857H230.278V84.8032H232.191C232.592 84.8032 232.917 85.1281 232.917 85.5289V87.4423Z" fill="#E3C57F"/>
<g filter="url(#filter7_d_9598_7290)">
<rect x="53.9062" y="6" width="73.1875" height="73.1875" rx="14" fill="#DFBD72"/>
</g>
<path d="M108.714 28.6312C109.976 27.5885 110.782 26.0121 110.782 24.2511C110.782 21.119 108.234 18.5708 105.101 18.5708C101.969 18.5708 99.4213 21.119 99.4213 24.2511C99.4213 26.0121 100.227 27.5886 101.489 28.6312C98.0847 30.0508 95.6855 33.4134 95.6855 37.3261L95.6855 44.7976C95.6855 46.5499 96.8742 48.0289 98.4874 48.473L98.4874 61.7952C98.4874 63.8973 100.197 65.6076 102.3 65.6076L107.903 65.6076C110.005 65.6076 111.716 63.8973 111.716 61.7952L111.716 48.4729C113.329 48.0288 114.517 46.5498 114.517 44.7975L114.517 37.326C114.517 33.4133 112.118 30.0508 108.714 28.6312ZM101.442 24.251C101.442 22.2334 103.084 20.5918 105.101 20.5918C107.119 20.5918 108.761 22.2334 108.761 24.251C108.761 26.2686 107.119 27.9101 105.101 27.9101C103.084 27.9101 101.442 26.2686 101.442 24.251ZM107.903 63.5864L106.112 63.5864L106.112 55.0708C106.112 54.5127 105.66 54.0602 105.101 54.0602C104.543 54.0602 104.091 54.5127 104.091 55.0708L104.091 63.5864L102.3 63.5864C101.312 63.5864 100.508 62.7828 100.508 61.7951L100.508 48.6098L109.694 48.6098L109.694 61.7951C109.694 62.7828 108.891 63.5864 107.903 63.5864ZM112.496 44.7975C112.496 45.7852 111.693 46.5887 110.705 46.5887L99.4979 46.5887C98.5102 46.5887 97.7067 45.7852 97.7067 44.7975L97.7067 37.326C97.7067 33.2485 101.024 29.9311 105.101 29.9311C109.179 29.9311 112.496 33.2484 112.496 37.326L112.496 44.7975Z" fill="#0D257B"/>
<path d="M105.103 35.3815C103.351 35.3815 101.872 36.5702 101.428 38.1833L95.577 38.1833C91.9299 38.1833 88.9629 41.1504 88.9629 44.7975L88.9629 58.9932C88.9629 61.5258 86.9024 63.5863 84.3698 63.5863C81.8373 63.5863 79.7768 61.5258 79.7768 58.9932L79.7768 48.485C81.4193 48.0749 82.7002 46.6891 82.9183 44.9444L83.2858 42.0042C84.181 41.5872 85.021 41.0458 85.7782 40.3891C87.7242 38.7014 88.9964 36.3676 89.3607 33.8176L90.0048 29.3087C90.0348 29.0985 90.05 28.8846 90.05 28.6726C90.05 26.1923 88.032 24.1743 85.5516 24.1743L84.4464 24.1743L84.4464 23.317C84.4464 22.7588 83.994 22.3064 83.4359 22.3064C82.8778 22.3064 82.4253 22.7588 82.4253 23.317L82.4253 27.0527C82.4253 27.6108 82.8778 28.0632 83.4359 28.0632C83.994 28.0632 84.4464 27.6108 84.4464 27.0527L84.4464 26.1954L85.5516 26.1954C86.9176 26.1954 88.0289 27.3067 88.0289 28.6726C88.0289 28.7893 88.0206 28.9072 88.004 29.0229L87.3599 33.5317C86.753 37.7807 83.0585 40.985 78.7662 40.985C74.474 40.985 70.7795 37.7808 70.1725 33.5317L69.5284 29.023C69.5119 28.9072 69.5035 28.7892 69.5035 28.6726C69.5035 27.3066 70.6149 26.1954 71.9809 26.1954L73.086 26.1954L73.086 27.0527C73.086 27.6108 73.5385 28.0632 74.0966 28.0632C74.6547 28.0632 75.1071 27.6108 75.1071 27.0527L75.1071 23.317C75.1071 22.7588 74.6547 22.3064 74.0966 22.3064C73.5385 22.3064 73.086 22.7588 73.086 23.317L73.086 24.1743L71.9809 24.1743C69.5004 24.1743 67.4824 26.1923 67.4824 28.6726C67.4824 28.8846 67.4977 29.0985 67.5276 29.3088L68.1717 33.8176C68.5361 36.3675 69.8083 38.7014 71.7542 40.3891C72.5115 41.0458 73.3515 41.5872 74.2466 42.0042L74.6142 44.9444C74.8324 46.6892 76.1131 48.0749 77.7557 48.485L77.7557 58.9932C77.7557 62.6403 80.7228 65.6074 84.3698 65.6074C88.0169 65.6074 90.984 62.6403 90.984 58.9932L90.984 44.7974C90.984 42.2648 93.0444 40.2043 95.577 40.2043L101.428 40.2043C101.872 41.8174 103.351 43.0061 105.103 43.0061C107.205 43.0061 108.915 41.2959 108.915 39.1938C108.916 37.0917 107.205 35.3815 105.103 35.3815ZM76.6197 44.6938L76.3748 42.7354C77.154 42.9141 77.9559 43.0062 78.7663 43.0062C79.5766 43.0062 80.3785 42.9141 81.1576 42.7354L80.9128 44.6938C80.7777 45.774 79.8549 46.5887 78.7663 46.5887C77.6776 46.5887 76.7547 45.774 76.6197 44.6938ZM105.103 40.985C104.115 40.985 103.312 40.1814 103.312 39.1938C103.312 38.2061 104.115 37.4025 105.103 37.4025C106.091 37.4025 106.894 38.2061 106.894 39.1938C106.894 40.1815 106.091 40.985 105.103 40.985Z" fill="#0D257B"/>
<g filter="url(#filter8_d_9598_7290)">
<rect x="496.033" y="132.094" width="69" height="69" rx="10" fill="white"/>
</g>
<path d="M548.538 147.284H545.175V146.678C545.175 145.492 544.21 144.526 543.024 144.526C541.838 144.526 540.872 145.492 540.872 146.678V147.284H520.359V146.678C520.359 145.492 519.394 144.526 518.208 144.526C517.022 144.526 516.056 145.492 516.056 146.678V147.284H512.693C511.126 147.284 509.852 148.558 509.852 150.124V179.076C509.852 180.642 511.126 181.917 512.693 181.917H522.344C522.77 181.917 523.116 181.571 523.116 181.144C523.116 180.717 522.77 180.372 522.344 180.372H512.693C511.979 180.372 511.398 179.79 511.398 179.076V155.722H549.834V179.076C549.834 179.79 549.252 180.372 548.538 180.372H540.956C540.529 180.372 540.183 180.717 540.183 181.144C540.183 181.571 540.529 181.917 540.956 181.917H548.538C550.105 181.917 551.379 180.642 551.379 179.076V179.069V179.06V179.051V179.042V179.032V179.022V179.011V178.999V178.987V178.974V178.961V178.947V178.933V178.918V178.902V178.886V178.87V178.852V178.835V178.817V178.798V178.779V178.759V178.739V178.718V178.697V178.675V178.653V178.63V178.607V178.583V178.558V178.534V178.508V178.482V178.456V178.429V178.402V178.374V178.346V178.317V178.288V178.258V178.228V178.197V178.166V178.134V178.102V178.07V178.037V178.003V177.969V177.935V177.9V177.865V177.829V177.793V177.756V177.719V177.681V177.643V177.605V177.566V177.527V177.487V177.447V177.406V177.365V177.324V177.282V177.24V177.197V177.154V177.111V177.067V177.022V176.978V176.933V176.887V176.841V176.795V176.748V176.701V176.654V176.606V176.558V176.509V176.46V176.411V176.361V176.311V176.26V176.209V176.158V176.107V176.055V176.002V175.95V175.897V175.843V175.79V175.735V175.681V175.626V175.571V175.516V175.46V175.404V175.347V175.291V175.234V175.176V175.118V175.06V175.002V174.943V174.884V174.825V174.765V174.705V174.645V174.585V174.524V174.463V174.401V174.339V174.277V174.215V174.152V174.09V174.026V173.963V173.899V173.835V173.771V173.706V173.642V173.576V173.511V173.445V173.38V173.313V173.247V173.18V173.113V173.046V172.979V172.911V172.843V172.775V172.707V172.638V172.569V172.5V172.431V172.362V172.292V172.222V172.152V172.081V172.011V171.94V171.869V171.798V171.726V171.654V171.583V171.51V171.438V171.366V171.293V171.22V171.147V171.074V171.001V170.927V170.853V170.779V170.705V170.631V170.556V170.482V170.407V170.332V170.257V170.181V170.106V170.03V169.955V169.879V169.803V169.726V169.65V169.574V169.497V169.42V169.343V169.266V169.189V169.112V169.034V168.957V168.879V168.801V168.723V168.645V168.567V168.489V168.411V168.332V168.254V168.175V168.096V168.017V167.938V167.859V167.78V167.701V167.622V167.542V167.463V167.383V167.304V167.224V167.144V167.064V166.984V166.904V166.824V166.744V166.664V166.584V166.503V166.423V166.343V166.262V166.182V166.101V166.021V165.94V165.859V165.779V165.698V165.617V165.536V165.456V165.375V165.294V165.213V165.132V165.051V164.97V164.889V164.808V164.728V164.647V164.566V164.485V164.404V164.323V164.242V164.161V164.08V163.999V163.918V163.837V163.757V163.676V163.595V163.514V163.434V163.353V163.272V163.192V163.111V163.03V162.95V162.869V162.789V162.709V162.628V162.548V162.468V162.388V162.308V162.228V162.148V162.068V161.988V161.908V161.829V161.749V161.67V161.59V161.511V161.432V161.352V161.273V161.194V161.115V161.037V160.958V160.879V160.801V160.722V160.644V160.566V160.488V160.41V160.332V160.255V160.177V160.099V160.022V159.945V159.868V159.791V159.714V159.637V159.561V159.485V159.408V159.332V159.256V159.18V159.105V159.029V158.954V158.879V158.804V158.729V158.654V158.58V158.505V158.431V158.357V158.283V158.21V158.136V158.063V157.99V157.917V157.844V157.772V157.699V157.627V157.555V157.484V157.412V157.341V157.27V157.199V157.128V157.058V156.987V156.917V156.848V156.778V156.709V156.64V156.571V156.502V156.434V156.365V156.297V156.23V156.162V156.095V156.028V155.961V155.895V155.829V155.763V155.697V155.632V155.566V155.502V155.437V155.373V155.309V155.245V155.181V155.118V155.055V154.992V154.93V154.868V154.806V154.744V154.683V154.622V154.562V154.501V154.441V154.382V154.322V154.263V154.204V154.146V154.088V154.03V153.972V153.915V153.858V153.802V153.746V153.69V153.634V153.579V153.524V153.47V153.415V153.362V153.308V153.255V153.202V153.15V153.098V153.046V152.995V152.944V152.893V152.843V152.793V152.744V152.695V152.646V152.598V152.55V152.502V152.455V152.408V152.362V152.316V152.27V152.225V152.18V152.136V152.092V152.048V152.005V151.962V151.92V151.878V151.836V151.795V151.754V151.714V151.674V151.635V151.596V151.557V151.519V151.482V151.444V151.408V151.371V151.336V151.3V151.265V151.231V151.196V151.163V151.13V151.097V151.065V151.033V151.002V150.971V150.941V150.911V150.881V150.852V150.824V150.796V150.769V150.742V150.715V150.689V150.664V150.639V150.614V150.59V150.567V150.544V150.521V150.5V150.478V150.457V150.437V150.417V150.398V150.379V150.361V150.343V150.326V150.309V150.293V150.277V150.262V150.248V150.234V150.22V150.207V150.195V150.183V150.172V150.161V150.151V150.142V150.133V150.124C551.379 148.558 550.105 147.284 548.538 147.284ZM542.418 146.678C542.418 146.344 542.69 146.072 543.024 146.072C543.358 146.072 543.63 146.344 543.63 146.678V150.124C543.63 150.458 543.358 150.73 543.024 150.73C542.69 150.73 542.418 150.458 542.418 150.124V150.117V150.11V150.103V150.096V150.089V150.082V150.075V150.068V150.061V150.054V150.047V150.04V150.033V150.026V150.019V150.012V150.005V149.998V149.991V149.984V149.978V149.971V149.964V149.957V149.95V149.943V149.936V149.929V149.922V149.915V149.908V149.901V149.894V149.887V149.88V149.874V149.867V149.86V149.853V149.846V149.839V149.832V149.825V149.818V149.811V149.805V149.798V149.791V149.784V149.777V149.77V149.763V149.757V149.75V149.743V149.736V149.729V149.722V149.715V149.709V149.702V149.695V149.688V149.681V149.674V149.667V149.661V149.654V149.647V149.64V149.633V149.627V149.62V149.613V149.606V149.599V149.593V149.586V149.579V149.572V149.565V149.559V149.552V149.545V149.538V149.531V149.525V149.518V149.511V149.504V149.497V149.491V149.484V149.477V149.47V149.464V149.457V149.45V149.443V149.437V149.43V149.423V149.416V149.41V149.403V149.396V149.389V149.383V149.376V149.369V149.362V149.356V149.349V149.342V149.336V149.329V149.322V149.315V149.309V149.302V149.295V149.288V149.282V149.275V149.268V149.262V149.255V149.248V149.242V149.235V149.228V149.221V149.215V149.208V149.201V149.195V149.188V149.181V149.175V149.168V149.161V149.155V149.148V149.141V149.135V149.128V149.121V149.115V149.108V149.101V149.095V149.088V149.081V149.075V149.068V149.061V149.055V149.048V149.041V149.035V149.028V149.021V149.015V149.008V149.001V148.995V148.988V148.981V148.975V148.968V148.961V148.955V148.948V148.941V148.935V148.928V148.922V148.915V148.908V148.902V148.895V148.888V148.882V148.875V148.869V148.862V148.855V148.849V148.842V148.835V148.829V148.822V148.816V148.809V148.802V148.796V148.789V148.782V148.776V148.769V148.763V148.756V148.749V148.743V148.736V148.73V148.723V148.716V148.71V148.703V148.696V148.69V148.683V148.677V148.67V148.663V148.657V148.65V148.644V148.637V148.63V148.624V148.617V148.611V148.604V148.597V148.591V148.584V148.578V148.571V148.564V148.558V148.551V148.545V148.538V148.531V148.525V148.518V148.512V148.505V148.498V148.492V148.485V148.479V148.472V148.465V148.459V148.452V148.446V148.439V148.433V148.426V148.419V148.413V148.406V148.4V148.393V148.386V148.38V148.373V148.367V148.36V148.353V148.347V148.34V148.334V148.327V148.32V148.314V148.307V148.301V148.294V148.287V148.281V148.274V148.268V148.261V148.254V148.248V148.241V148.235V148.228V148.221V148.215V148.208V148.202V148.195V148.189V148.182V148.175V148.169V148.162V148.156V148.149V148.142V148.136V148.129V148.122V148.116V148.109V148.103V148.096V148.089V148.083V148.076V148.07V148.063V148.056V148.05V148.043V148.037V148.03V148.023V148.017V148.01V148.004V147.997V147.99V147.984V147.977V147.97V147.964V147.957V147.951V147.944V147.937V147.931V147.924V147.918V147.911V147.904V147.898V147.891V147.884V147.878V147.871V147.864V147.858V147.851V147.845V147.838V147.831V147.825V147.818V147.811V147.805V147.798V147.791V147.785V147.778V147.772V147.765V147.758V147.752V147.745V147.738V147.732V147.725V147.718V147.712V147.705V147.698V147.692V147.685V147.678V147.672V147.665V147.658V147.652V147.645V147.638V147.632V147.625V147.618V147.612V147.605V147.598V147.592V147.585V147.578V147.572V147.565V147.558V147.552V147.545V147.538V147.531V147.525V147.518V147.511V147.505V147.498V147.491V147.485V147.478V147.471V147.464V147.458V147.451V147.444V147.438V147.431V147.424V147.417V147.411V147.404V147.397V147.39V147.384V147.377V147.37V147.363V147.357V147.35V147.343V147.336V147.33V147.323V147.316V147.309V147.303V147.296V147.289V147.282V147.276V147.269V147.262V147.255V147.249V147.242V147.235V147.228V147.221V147.215V147.208V147.201V147.194V147.188V147.181V147.174V147.167V147.16V147.153V147.147V147.14V147.133V147.126V147.119V147.113V147.106V147.099V147.092V147.085V147.078V147.072V147.065V147.058V147.051V147.044V147.037V147.031V147.024V147.017V147.01V147.003V146.996V146.989V146.983V146.976V146.969V146.962V146.955V146.948V146.941V146.934V146.928V146.921V146.914V146.907V146.9V146.893V146.886V146.879V146.872V146.865V146.858V146.852V146.845V146.838V146.831V146.824V146.817V146.81V146.803V146.796V146.789V146.782V146.775V146.768V146.761V146.754V146.747V146.74V146.733V146.726V146.719V146.713V146.706V146.699V146.692V146.685V146.678ZM517.602 146.678C517.602 146.344 517.874 146.072 518.208 146.072C518.542 146.072 518.814 146.344 518.814 146.678V150.124C518.814 150.458 518.542 150.73 518.208 150.73C517.874 150.73 517.602 150.458 517.602 150.124V150.117V150.11V150.103V150.096V150.089V150.082V150.075V150.068V150.061V150.054V150.047V150.04V150.033V150.026V150.019V150.012V150.005V149.998V149.991V149.984V149.978V149.971V149.964V149.957V149.95V149.943V149.936V149.929V149.922V149.915V149.908V149.901V149.894V149.887V149.88V149.874V149.867V149.86V149.853V149.846V149.839V149.832V149.825V149.818V149.811V149.805V149.798V149.791V149.784V149.777V149.77V149.763V149.757V149.75V149.743V149.736V149.729V149.722V149.715V149.709V149.702V149.695V149.688V149.681V149.674V149.667V149.661V149.654V149.647V149.64V149.633V149.627V149.62V149.613V149.606V149.599V149.593V149.586V149.579V149.572V149.565V149.559V149.552V149.545V149.538V149.531V149.525V149.518V149.511V149.504V149.497V149.491V149.484V149.477V149.47V149.464V149.457V149.45V149.443V149.437V149.43V149.423V149.416V149.41V149.403V149.396V149.389V149.383V149.376V149.369V149.362V149.356V149.349V149.342V149.336V149.329V149.322V149.315V149.309V149.302V149.295V149.288V149.282V149.275V149.268V149.262V149.255V149.248V149.242V149.235V149.228V149.221V149.215V149.208V149.201V149.195V149.188V149.181V149.175V149.168V149.161V149.155V149.148V149.141V149.135V149.128V149.121V149.115V149.108V149.101V149.095V149.088V149.081V149.075V149.068V149.061V149.055V149.048V149.041V149.035V149.028V149.021V149.015V149.008V149.001V148.995V148.988V148.981V148.975V148.968V148.961V148.955V148.948V148.941V148.935V148.928V148.922V148.915V148.908V148.902V148.895V148.888V148.882V148.875V148.869V148.862V148.855V148.849V148.842V148.835V148.829V148.822V148.816V148.809V148.802V148.796V148.789V148.782V148.776V148.769V148.763V148.756V148.749V148.743V148.736V148.73V148.723V148.716V148.71V148.703V148.696V148.69V148.683V148.677V148.67V148.663V148.657V148.65V148.644V148.637V148.63V148.624V148.617V148.611V148.604V148.597V148.591V148.584V148.578V148.571V148.564V148.558V148.551V148.545V148.538V148.531V148.525V148.518V148.512V148.505V148.498V148.492V148.485V148.479V148.472V148.465V148.459V148.452V148.446V148.439V148.433V148.426V148.419V148.413V148.406V148.4V148.393V148.386V148.38V148.373V148.367V148.36V148.353V148.347V148.34V148.334V148.327V148.32V148.314V148.307V148.301V148.294V148.287V148.281V148.274V148.268V148.261V148.254V148.248V148.241V148.235V148.228V148.221V148.215V148.208V148.202V148.195V148.189V148.182V148.175V148.169V148.162V148.156V148.149V148.142V148.136V148.129V148.122V148.116V148.109V148.103V148.096V148.089V148.083V148.076V148.07V148.063V148.056V148.05V148.043V148.037V148.03V148.023V148.017V148.01V148.004V147.997V147.99V147.984V147.977V147.97V147.964V147.957V147.951V147.944V147.937V147.931V147.924V147.918V147.911V147.904V147.898V147.891V147.884V147.878V147.871V147.864V147.858V147.851V147.845V147.838V147.831V147.825V147.818V147.811V147.805V147.798V147.791V147.785V147.778V147.772V147.765V147.758V147.752V147.745V147.738V147.732V147.725V147.718V147.712V147.705V147.698V147.692V147.685V147.678V147.672V147.665V147.658V147.652V147.645V147.638V147.632V147.625V147.618V147.612V147.605V147.598V147.592V147.585V147.578V147.572V147.565V147.558V147.552V147.545V147.538V147.531V147.525V147.518V147.511V147.505V147.498V147.491V147.485V147.478V147.471V147.464V147.458V147.451V147.444V147.438V147.431V147.424V147.417V147.411V147.404V147.397V147.39V147.384V147.377V147.37V147.363V147.357V147.35V147.343V147.336V147.33V147.323V147.316V147.309V147.303V147.296V147.289V147.282V147.276V147.269V147.262V147.255V147.249V147.242V147.235V147.228V147.221V147.215V147.208V147.201V147.194V147.188V147.181V147.174V147.167V147.16V147.153V147.147V147.14V147.133V147.126V147.119V147.113V147.106V147.099V147.092V147.085V147.078V147.072V147.065V147.058V147.051V147.044V147.037V147.031V147.024V147.017V147.01V147.003V146.996V146.989V146.983V146.976V146.969V146.962V146.955V146.948V146.941V146.934V146.928V146.921V146.914V146.907V146.9V146.893V146.886V146.879V146.872V146.865V146.858V146.852V146.845V146.838V146.831V146.824V146.817V146.81V146.803V146.796V146.789V146.782V146.775V146.768V146.761V146.754V146.747V146.74V146.733V146.726V146.719V146.713V146.706V146.699V146.692V146.685V146.678Z" fill="#0D257B" stroke="#0D257B" stroke-width="0.166667"/>
<path d="M538.847 174.682L538.847 174.683C537.985 175.185 536.904 174.553 536.904 173.562C536.904 172.848 537.486 172.267 538.2 172.267C538.914 172.267 539.495 172.848 539.495 173.562C539.495 174.04 539.235 174.459 538.847 174.682ZM542.419 173.562C542.419 171.235 540.527 169.343 538.2 169.343C535.873 169.343 533.98 171.235 533.98 173.562C533.98 175.626 535.468 177.347 537.427 177.71V181.489C537.427 184.675 534.836 187.265 531.651 187.265C528.466 187.265 525.875 184.675 525.875 181.489V177.733C528.979 177.351 531.39 174.699 531.39 171.494V165.29C531.39 163.724 530.116 162.449 528.549 162.449C528.122 162.449 527.776 162.795 527.776 163.222C527.776 163.649 528.122 163.995 528.549 163.995C529.263 163.995 529.844 164.576 529.844 165.29V171.494C529.844 174.109 527.717 176.236 525.102 176.236C522.488 176.236 520.36 174.109 520.36 171.494V165.29C520.36 164.576 520.942 163.995 521.656 163.995C522.082 163.995 522.428 163.649 522.428 163.222C522.428 162.795 522.082 162.449 521.656 162.449C520.089 162.449 518.815 163.724 518.815 165.29V171.494C518.815 174.699 521.226 177.351 524.33 177.733V181.489C524.33 185.527 527.614 188.811 531.651 188.811C535.688 188.811 538.972 185.527 538.972 181.489V177.71C540.931 177.347 542.419 175.626 542.419 173.562Z" fill="#0D257B" stroke="#0D257B" stroke-width="0.166667"/>
<defs>
<filter id="filter0_d_9598_7290" x="362.033" y="287.094" width="56" height="56" filterUnits="userSpaceOnUse" color-interpolation-filters="sRGB">
<feFlood flood-opacity="0" result="BackgroundImageFix"/>
<feColorMatrix in="SourceAlpha" type="matrix" values="0 0 0 0 0 0 0 0 0 0 0 0 0 0 0 0 0 0 127 0" result="hardAlpha"/>
<feOffset dy="2"/>
<feGaussianBlur stdDeviation="4"/>
<feComposite in2="hardAlpha" operator="out"/>
<feColorMatrix type="matrix" values="0 0 0 0 0.0509804 0 0 0 0 0.145098 0 0 0 0 0.482353 0 0 0 0.2 0"/>
<feBlend mode="normal" in2="BackgroundImageFix" result="effect1_dropShadow_9598_7290"/>
<feBlend mode="normal" in="SourceGraphic" in2="effect1_dropShadow_9598_7290" result="shape"/>
</filter>
<filter id="filter1_d_9598_7290" x="82.0332" y="141.094" width="371" height="84" filterUnits="userSpaceOnUse" color-interpolation-filters="sRGB">
<feFlood flood-opacity="0" result="BackgroundImageFix"/>
<feColorMatrix in="SourceAlpha" type="matrix" values="0 0 0 0 0 0 0 0 0 0 0 0 0 0 0 0 0 0 127 0" result="hardAlpha"/>
<feOffset/>
<feGaussianBlur stdDeviation="3"/>
<feColorMatrix type="matrix" values="0 0 0 0 0 0 0 0 0 0 0 0 0 0 0 0 0 0 0.15 0"/>
<feBlend mode="normal" in2="BackgroundImageFix" result="effect1_dropShadow_9598_7290"/>
<feBlend mode="normal" in="SourceGraphic" in2="effect1_dropShadow_9598_7290" result="shape"/>
</filter>
<filter id="filter2_d_9598_7290" x="76.0332" y="146.094" width="383" height="84" filterUnits="userSpaceOnUse" color-interpolation-filters="sRGB">
<feFlood flood-opacity="0" result="BackgroundImageFix"/>
<feColorMatrix in="SourceAlpha" type="matrix" values="0 0 0 0 0 0 0 0 0 0 0 0 0 0 0 0 0 0 127 0" result="hardAlpha"/>
<feOffset/>
<feGaussianBlur stdDeviation="3"/>
<feColorMatrix type="matrix" values="0 0 0 0 0 0 0 0 0 0 0 0 0 0 0 0 0 0 0.15 0"/>
<feBlend mode="normal" in2="BackgroundImageFix" result="effect1_dropShadow_9598_7290"/>
<feBlend mode="normal" in="SourceGraphic" in2="effect1_dropShadow_9598_7290" result="shape"/>
</filter>
<filter id="filter3_d_9598_7290" x="70.0332" y="153.094" width="395" height="86" filterUnits="userSpaceOnUse" color-interpolation-filters="sRGB">
<feFlood flood-opacity="0" result="BackgroundImageFix"/>
<feColorMatrix in="SourceAlpha" type="matrix" values="0 0 0 0 0 0 0 0 0 0 0 0 0 0 0 0 0 0 127 0" result="hardAlpha"/>
<feOffset/>
<feGaussianBlur stdDeviation="3"/>
<feColorMatrix type="matrix" values="0 0 0 0 0 0 0 0 0 0 0 0 0 0 0 0 0 0 0.15 0"/>
<feBlend mode="normal" in2="BackgroundImageFix" result="effect1_dropShadow_9598_7290"/>
<feBlend mode="normal" in="SourceGraphic" in2="effect1_dropShadow_9598_7290" result="shape"/>
</filter>
<filter id="filter4_d_9598_7290" x="64.0859" y="163.787" width="411.533" height="108.286" filterUnits="userSpaceOnUse" color-interpolation-filters="sRGB">
<feFlood flood-opacity="0" result="BackgroundImageFix"/>
<feColorMatrix in="SourceAlpha" type="matrix" values="0 0 0 0 0 0 0 0 0 0 0 0 0 0 0 0 0 0 127 0" result="hardAlpha"/>
<feOffset/>
<feGaussianBlur stdDeviation="3"/>
<feColorMatrix type="matrix" values="0 0 0 0 0 0 0 0 0 0 0 0 0 0 0 0 0 0 0.15 0"/>
<feBlend mode="normal" in2="BackgroundImageFix" result="effect1_dropShadow_9598_7290"/>
<feBlend mode="normal" in="SourceGraphic" in2="effect1_dropShadow_9598_7290" result="shape"/>
</filter>
<filter id="filter5_dddd_9598_7290" x="415.121" y="239.363" width="67.2031" height="71.3274" filterUnits="userSpaceOnUse" color-interpolation-filters="sRGB">
<feFlood flood-opacity="0" result="BackgroundImageFix"/>
<feColorMatrix in="SourceAlpha" type="matrix" values="0 0 0 0 0 0 0 0 0 0 0 0 0 0 0 0 0 0 127 0" result="hardAlpha"/>
<feOffset dx="1" dy="1"/>
<feGaussianBlur stdDeviation="1"/>
<feColorMatrix type="matrix" values="0 0 0 0 0.0509804 0 0 0 0 0.145098 0 0 0 0 0.482353 0 0 0 0.1 0"/>
<feBlend mode="normal" in2="BackgroundImageFix" result="effect1_dropShadow_9598_7290"/>
<feColorMatrix in="SourceAlpha" type="matrix" values="0 0 0 0 0 0 0 0 0 0 0 0 0 0 0 0 0 0 127 0" result="hardAlpha"/>
<feOffset dx="2" dy="3"/>
<feGaussianBlur stdDeviation="2"/>
<feColorMatrix type="matrix" values="0 0 0 0 0.0509804 0 0 0 0 0.145098 0 0 0 0 0.482353 0 0 0 0.09 0"/>
<feBlend mode="normal" in2="effect1_dropShadow_9598_7290" result="effect2_dropShadow_9598_7290"/>
<feColorMatrix in="SourceAlpha" type="matrix" values="0 0 0 0 0 0 0 0 0 0 0 0 0 0 0 0 0 0 127 0" result="hardAlpha"/>
<feOffset dx="5" dy="8"/>
<feGaussianBlur stdDeviation="2.5"/>
<feColorMatrix type="matrix" values="0 0 0 0 0.0509804 0 0 0 0 0.145098 0 0 0 0 0.482353 0 0 0 0.05 0"/>
<feBlend mode="normal" in2="effect2_dropShadow_9598_7290" result="effect3_dropShadow_9598_7290"/>
<feColorMatrix in="SourceAlpha" type="matrix" values="0 0 0 0 0 0 0 0 0 0 0 0 0 0 0 0 0 0 127 0" result="hardAlpha"/>
<feOffset dx="8" dy="13"/>
<feGaussianBlur stdDeviation="3"/>
<feColorMatrix type="matrix" values="0 0 0 0 0.0509804 0 0 0 0 0.145098 0 0 0 0 0.482353 0 0 0 0.01 0"/>
<feBlend mode="normal" in2="effect3_dropShadow_9598_7290" result="effect4_dropShadow_9598_7290"/>
<feBlend mode="normal" in="SourceGraphic" in2="effect4_dropShadow_9598_7290" result="shape"/>
</filter>
<filter id="filter6_d_9598_7290" x="197.033" y="57.0938" width="74" height="74" filterUnits="userSpaceOnUse" color-interpolation-filters="sRGB">
<feFlood flood-opacity="0" result="BackgroundImageFix"/>
<feColorMatrix in="SourceAlpha" type="matrix" values="0 0 0 0 0 0 0 0 0 0 0 0 0 0 0 0 0 0 127 0" result="hardAlpha"/>
<feOffset dy="2"/>
<feGaussianBlur stdDeviation="4"/>
<feComposite in2="hardAlpha" operator="out"/>
<feColorMatrix type="matrix" values="0 0 0 0 0.0509804 0 0 0 0 0.145098 0 0 0 0 0.482353 0 0 0 0.2 0"/>
<feBlend mode="normal" in2="BackgroundImageFix" result="effect1_dropShadow_9598_7290"/>
<feBlend mode="normal" in="SourceGraphic" in2="effect1_dropShadow_9598_7290" result="shape"/>
</filter>
<filter id="filter7_d_9598_7290" x="45.9062" y="0" width="89.1875" height="89.1875" filterUnits="userSpaceOnUse" color-interpolation-filters="sRGB">
<feFlood flood-opacity="0" result="BackgroundImageFix"/>
<feColorMatrix in="SourceAlpha" type="matrix" values="0 0 0 0 0 0 0 0 0 0 0 0 0 0 0 0 0 0 127 0" result="hardAlpha"/>
<feOffset dy="2"/>
<feGaussianBlur stdDeviation="4"/>
<feComposite in2="hardAlpha" operator="out"/>
<feColorMatrix type="matrix" values="0 0 0 0 0.0509804 0 0 0 0 0.145098 0 0 0 0 0.482353 0 0 0 0.2 0"/>
<feBlend mode="normal" in2="BackgroundImageFix" result="effect1_dropShadow_9598_7290"/>
<feBlend mode="normal" in="SourceGraphic" in2="effect1_dropShadow_9598_7290" result="shape"/>
</filter>
<filter id="filter8_d_9598_7290" x="488.033" y="126.094" width="85" height="85" filterUnits="userSpaceOnUse" color-interpolation-filters="sRGB">
<feFlood flood-opacity="0" result="BackgroundImageFix"/>
<feColorMatrix in="SourceAlpha" type="matrix" values="0 0 0 0 0 0 0 0 0 0 0 0 0 0 0 0 0 0 127 0" result="hardAlpha"/>
<feOffset dy="2"/>
<feGaussianBlur stdDeviation="4"/>
<feComposite in2="hardAlpha" operator="out"/>
<feColorMatrix type="matrix" values="0 0 0 0 0.0509804 0 0 0 0 0.145098 0 0 0 0 0.482353 0 0 0 0.2 0"/>
<feBlend mode="normal" in2="BackgroundImageFix" result="effect1_dropShadow_9598_7290"/>
<feBlend mode="normal" in="SourceGraphic" in2="effect1_dropShadow_9598_7290" result="shape"/>
</filter>
<clipPath id="clip0_9598_7290">
<rect width="52.8203" height="52.8203" fill="white" transform="translate(109.238 188.581)"/>
</clipPath>
</defs>
</svg>
