<svg width="128" height="24" viewBox="0 0 128 24" fill="none" xmlns="http://www.w3.org/2000/svg">
<path d="M21 10.2065C20.9911 10.4185 20.879 10.6606 20.6616 10.8518C19.791 11.6166 18.9199 12.3806 18.0484 13.144C17.6415 13.501 17.234 13.8575 16.826 14.2135C16.7677 14.2641 16.7528 14.309 16.7708 14.3877C17.084 15.7565 17.3947 17.1258 17.7028 18.4957C17.7652 18.771 17.8266 19.0468 17.894 19.3212C17.9923 19.7275 17.8668 20.129 17.5501 20.3563C17.2017 20.6063 16.8317 20.6225 16.4634 20.4041C15.2903 19.7067 14.1187 19.0065 12.9486 18.3036C12.6754 18.1403 12.3989 17.9809 12.1302 17.8117C12.0404 17.7551 11.9751 17.7546 11.8829 17.81C10.4599 18.6642 9.03387 19.5131 7.61258 20.367C7.31073 20.5482 7.00243 20.6163 6.6688 20.4794C6.22738 20.2982 5.99675 19.8341 6.10645 19.3518C6.41666 17.9867 6.72735 16.6215 7.03852 15.2564C7.104 14.9696 7.16256 14.6807 7.23354 14.396C7.25409 14.3138 7.23975 14.2653 7.17737 14.2111C6.64267 13.746 6.10932 13.2793 5.57732 12.811C4.8319 12.1567 4.08362 11.5069 3.3425 10.8477C3.03994 10.5791 2.92522 10.2361 3.04926 9.84396C3.1733 9.45177 3.45053 9.21565 3.86399 9.17311C4.59674 9.09806 5.33068 9.03521 6.06415 8.96805C6.78973 8.90161 7.51531 8.83565 8.24089 8.77016C8.48275 8.74842 8.72461 8.72404 8.96671 8.70564C9.04462 8.6999 9.08621 8.66573 9.11536 8.59474C9.77259 7.05038 10.4309 5.50665 11.0904 3.96355C11.2725 3.53695 11.5978 3.29868 12.0112 3.30943C12.4247 3.32019 12.723 3.52213 12.8869 3.90189C13.3331 4.93506 13.7736 5.97061 14.2159 7.00569C14.4411 7.53147 14.6667 8.05869 14.888 8.58686C14.9219 8.66812 14.9704 8.69966 15.0553 8.70635C15.6384 8.75575 16.2214 8.80753 16.8042 8.8617C17.6528 8.93881 18.5013 9.01657 19.3497 9.09496C19.6193 9.11885 19.8891 9.14275 20.158 9.17287C20.647 9.2307 21.0038 9.63866 21 10.2065Z" fill="#F9CB74"/>
<path d="M47 10.2065C46.9911 10.4185 46.879 10.6606 46.6616 10.8518C45.791 11.6166 44.9199 12.3806 44.0484 13.144C43.6415 13.501 43.234 13.8575 42.826 14.2135C42.7677 14.2641 42.7528 14.309 42.7708 14.3877C43.084 15.7565 43.3947 17.1258 43.7028 18.4957C43.7652 18.771 43.8266 19.0468 43.894 19.3212C43.9923 19.7275 43.8668 20.129 43.5501 20.3563C43.2017 20.6063 42.8317 20.6225 42.4634 20.4041C41.2903 19.7067 40.1187 19.0065 38.9486 18.3036C38.6754 18.1403 38.3989 17.9809 38.1302 17.8117C38.0404 17.7551 37.9751 17.7546 37.8829 17.81C36.4599 18.6642 35.0339 19.5131 33.6126 20.367C33.3107 20.5482 33.0024 20.6163 32.6688 20.4794C32.2274 20.2982 31.9968 19.8341 32.1065 19.3518C32.4167 17.9867 32.7274 16.6215 33.0385 15.2564C33.104 14.9696 33.1626 14.6807 33.2335 14.396C33.2541 14.3138 33.2398 14.2653 33.1774 14.2111C32.6427 13.746 32.1093 13.2793 31.5773 12.811C30.8319 12.1567 30.0836 11.5069 29.3425 10.8477C29.0399 10.5791 28.9252 10.2361 29.0493 9.84396C29.1733 9.45177 29.4505 9.21565 29.864 9.17311C30.5967 9.09806 31.3307 9.03521 32.0641 8.96805C32.7897 8.90161 33.5153 8.83565 34.2409 8.77016C34.4827 8.74842 34.7246 8.72404 34.9667 8.70564C35.0446 8.6999 35.0862 8.66573 35.1154 8.59474C35.7726 7.05038 36.4309 5.50665 37.0904 3.96355C37.2725 3.53695 37.5978 3.29868 38.0112 3.30943C38.4247 3.32019 38.723 3.52213 38.8869 3.90189C39.3331 4.93506 39.7736 5.97061 40.2159 7.00569C40.4411 7.53147 40.6667 8.05869 40.888 8.58686C40.9219 8.66812 40.9704 8.69966 41.0553 8.70635C41.6384 8.75575 42.2214 8.80753 42.8042 8.8617C43.6528 8.93881 44.5013 9.01657 45.3497 9.09496C45.6193 9.11885 45.8891 9.14275 46.158 9.17287C46.647 9.2307 47.0038 9.63866 47 10.2065Z" fill="#F9CB74"/>
<path d="M73 10.2065C72.9911 10.4185 72.879 10.6606 72.6616 10.8518C71.791 11.6166 70.9199 12.3806 70.0484 13.144C69.6415 13.501 69.234 13.8575 68.826 14.2135C68.7677 14.2641 68.7528 14.309 68.7708 14.3877C69.084 15.7565 69.3947 17.1258 69.7028 18.4957C69.7652 18.771 69.8266 19.0468 69.894 19.3212C69.9923 19.7275 69.8668 20.129 69.5501 20.3563C69.2017 20.6063 68.8317 20.6225 68.4634 20.4041C67.2903 19.7067 66.1187 19.0065 64.9486 18.3036C64.6754 18.1403 64.3989 17.9809 64.1302 17.8117C64.0404 17.7551 63.9751 17.7546 63.8829 17.81C62.4599 18.6642 61.0339 19.5131 59.6126 20.367C59.3107 20.5482 59.0024 20.6163 58.6688 20.4794C58.2274 20.2982 57.9968 19.8341 58.1065 19.3518C58.4167 17.9867 58.7274 16.6215 59.0385 15.2564C59.104 14.9696 59.1626 14.6807 59.2335 14.396C59.2541 14.3138 59.2398 14.2653 59.1774 14.2111C58.6427 13.746 58.1093 13.2793 57.5773 12.811C56.8319 12.1567 56.0836 11.5069 55.3425 10.8477C55.0399 10.5791 54.9252 10.2361 55.0493 9.84396C55.1733 9.45177 55.4505 9.21565 55.864 9.17311C56.5967 9.09806 57.3307 9.03521 58.0641 8.96805C58.7897 8.90161 59.5153 8.83565 60.2409 8.77016C60.4827 8.74842 60.7246 8.72404 60.9667 8.70564C61.0446 8.6999 61.0862 8.66573 61.1154 8.59474C61.7726 7.05038 62.4309 5.50665 63.0904 3.96355C63.2725 3.53695 63.5978 3.29868 64.0112 3.30943C64.4247 3.32019 64.723 3.52213 64.8869 3.90189C65.3331 4.93506 65.7736 5.97061 66.2159 7.00569C66.4411 7.53147 66.6667 8.05869 66.888 8.58686C66.9219 8.66812 66.9704 8.69966 67.0553 8.70635C67.6384 8.75575 68.2214 8.80753 68.8042 8.8617C69.6528 8.93881 70.5013 9.01657 71.3497 9.09496C71.6193 9.11885 71.8891 9.14275 72.158 9.17287C72.647 9.2307 73.0038 9.63866 73 10.2065Z" fill="#F9CB74"/>
<path d="M99 10.2065C98.9911 10.4185 98.879 10.6606 98.6616 10.8518C97.791 11.6166 96.9199 12.3806 96.0484 13.144C95.6415 13.501 95.234 13.8575 94.826 14.2135C94.7677 14.2641 94.7528 14.309 94.7708 14.3877C95.084 15.7565 95.3947 17.1258 95.7028 18.4957C95.7652 18.771 95.8266 19.0468 95.894 19.3212C95.9923 19.7275 95.8668 20.129 95.5501 20.3563C95.2017 20.6063 94.8317 20.6225 94.4634 20.4041C93.2903 19.7067 92.1187 19.0065 90.9486 18.3036C90.6754 18.1403 90.3989 17.9809 90.1302 17.8117C90.0404 17.7551 89.9751 17.7546 89.8829 17.81C88.4599 18.6642 87.0339 19.5131 85.6126 20.367C85.3107 20.5482 85.0024 20.6163 84.6688 20.4794C84.2274 20.2982 83.9968 19.8341 84.1065 19.3518C84.4167 17.9867 84.7274 16.6215 85.0385 15.2564C85.104 14.9696 85.1626 14.6807 85.2335 14.396C85.2541 14.3138 85.2398 14.2653 85.1774 14.2111C84.6427 13.746 84.1093 13.2793 83.5773 12.811C82.8319 12.1567 82.0836 11.5069 81.3425 10.8477C81.0399 10.5791 80.9252 10.2361 81.0493 9.84396C81.1733 9.45177 81.4505 9.21565 81.864 9.17311C82.5967 9.09806 83.3307 9.03521 84.0641 8.96805C84.7897 8.90161 85.5153 8.83565 86.2409 8.77016C86.4827 8.74842 86.7246 8.72404 86.9667 8.70564C87.0446 8.6999 87.0862 8.66573 87.1154 8.59474C87.7726 7.05038 88.4309 5.50665 89.0904 3.96355C89.2725 3.53695 89.5978 3.29868 90.0112 3.30943C90.4247 3.32019 90.723 3.52213 90.8869 3.90189C91.3331 4.93506 91.7736 5.97061 92.2159 7.00569C92.4411 7.53147 92.6667 8.05869 92.888 8.58686C92.9219 8.66812 92.9704 8.69966 93.0553 8.70635C93.6384 8.75575 94.2214 8.80753 94.8042 8.8617C95.6528 8.93881 96.5013 9.01657 97.3497 9.09496C97.6193 9.11885 97.8891 9.14275 98.158 9.17287C98.647 9.2307 99.0038 9.63866 99 10.2065Z" fill="#F9CB74"/>
<path d="M125 10.2065C124.991 10.4185 124.879 10.6606 124.662 10.8518C123.791 11.6166 122.92 12.3806 122.048 13.144C121.641 13.501 121.234 13.8575 120.826 14.2135C120.768 14.2641 120.753 14.309 120.771 14.3877C121.084 15.7565 121.395 17.1258 121.703 18.4957C121.765 18.771 121.827 19.0468 121.894 19.3212C121.992 19.7275 121.867 20.129 121.55 20.3563C121.202 20.6063 120.832 20.6225 120.463 20.4041C119.29 19.7067 118.119 19.0065 116.949 18.3036C116.675 18.1403 116.399 17.9809 116.13 17.8117C116.04 17.7551 115.975 17.7546 115.883 17.81C114.46 18.6642 113.034 19.5131 111.613 20.367C111.311 20.5482 111.002 20.6163 110.669 20.4794C110.227 20.2982 109.997 19.8341 110.106 19.3518C110.417 17.9867 110.727 16.6215 111.039 15.2564C111.104 14.9696 111.163 14.6807 111.234 14.396C111.254 14.3138 111.24 14.2653 111.177 14.2111C110.643 13.746 110.109 13.2793 109.577 12.811C108.832 12.1567 108.084 11.5069 107.343 10.8477C107.04 10.5791 106.925 10.2361 107.049 9.84396C107.173 9.45177 107.451 9.21565 107.864 9.17311C108.597 9.09806 109.331 9.03521 110.064 8.96805C110.79 8.90161 111.515 8.83565 112.241 8.77016C112.483 8.74842 112.725 8.72404 112.967 8.70564C113.045 8.6999 113.086 8.66573 113.115 8.59474C113.773 7.05038 114.431 5.50665 115.09 3.96355C115.273 3.53695 115.598 3.29868 116.011 3.30943C116.425 3.32019 116.723 3.52213 116.887 3.90189C117.333 4.93506 117.774 5.97061 118.216 7.00569C118.441 7.53147 118.667 8.05869 118.888 8.58686C118.922 8.66812 118.97 8.69966 119.055 8.70635C119.638 8.75575 120.221 8.80753 120.804 8.8617C121.653 8.93881 122.501 9.01657 123.35 9.09496C123.619 9.11885 123.889 9.14275 124.158 9.17287C124.647 9.2307 125.004 9.63866 125 10.2065Z" fill="#F9CB74"/>
</svg>
