<svg width="142" height="50" viewBox="0 0 142 50" fill="none" xmlns="http://www.w3.org/2000/svg">
<rect x="0.503906" y="0.640015" width="140.7" height="48.6" rx="8" fill="#01112D"/>
<path d="M71.1035 26.44C69.1035 26.44 67.4035 27.94 67.4035 30.14C67.4035 32.24 69.1035 33.84 71.1035 33.84C73.1035 33.84 74.8035 32.24 74.8035 30.14C74.8035 28.04 73.1035 26.44 71.1035 26.44ZM71.1035 32.34C70.0035 32.34 69.0035 31.44 69.0035 30.14C69.0035 28.84 70.0035 27.94 71.1035 27.94C72.2035 27.94 73.2035 28.84 73.2035 30.14C73.2035 31.44 72.2035 32.34 71.1035 32.34ZM63.0035 26.44C61.0035 26.44 59.3035 27.94 59.3035 30.14C59.3035 32.24 61.0035 33.84 63.0035 33.84C65.0035 33.84 66.7035 32.24 66.7035 30.14C66.7035 28.04 65.0035 26.44 63.0035 26.44ZM63.0035 32.34C61.9035 32.34 60.9035 31.44 60.9035 30.14C60.9035 28.84 61.9035 27.94 63.0035 27.94C64.1035 27.94 65.1035 28.84 65.1035 30.14C65.1035 31.44 64.1035 32.34 63.0035 32.34ZM53.4035 27.64V29.24H57.2035C57.1035 30.14 56.8035 30.74 56.3035 31.24C55.8035 31.74 54.9035 32.34 53.4035 32.34C51.1035 32.34 49.3035 30.54 49.3035 28.24C49.3035 25.94 51.1035 24.14 53.4035 24.14C54.7035 24.14 55.6035 24.64 56.2035 25.24L57.3035 24.14C56.4035 23.24 55.1035 22.54 53.4035 22.54C50.2035 22.54 47.6035 25.04 47.6035 28.24C47.6035 31.44 50.3035 33.94 53.4035 33.94C55.1035 33.94 56.4035 33.34 57.4035 32.34C58.4035 31.34 58.8035 29.84 58.8035 28.74C58.8035 28.34 58.8035 28.04 58.7035 27.74H53.4035V27.64ZM92.8035 28.84C92.5035 28.04 91.6035 26.54 89.6035 26.54C87.7035 26.54 86.1035 28.04 86.1035 30.24C86.1035 32.24 87.7035 33.94 89.8035 33.94C91.5035 33.94 92.5035 32.94 92.9035 32.34L91.6035 31.54C91.2035 32.14 90.6035 32.54 89.8035 32.54C89.0035 32.54 88.4035 32.14 88.0035 31.44L93.0035 29.44L92.8035 28.84ZM87.7035 30.04C87.7035 28.64 88.8035 27.94 89.6035 27.94C90.2035 27.94 90.8035 28.24 91.0035 28.74L87.7035 30.04ZM83.7035 33.54H85.3035V22.84H83.7035V33.54ZM81.0035 27.34C80.6035 26.94 79.9035 26.54 79.0035 26.54C77.1035 26.54 75.5035 28.14 75.5035 30.24C75.5035 32.34 77.2035 33.84 79.0035 33.84C79.9035 33.84 80.6035 33.44 80.9035 33.04H81.0035V33.54C81.0035 34.94 80.2035 35.74 79.0035 35.74C78.0035 35.74 77.4035 35.04 77.1035 34.44L75.7035 35.04C76.1035 36.04 77.2035 37.24 79.0035 37.24C80.9035 37.24 82.5035 36.14 82.5035 33.44V26.74H81.0035V27.34ZM79.2035 32.34C78.1035 32.34 77.1035 31.44 77.1035 30.14C77.1035 28.84 78.0035 27.94 79.2035 27.94C80.3035 27.94 81.2035 28.84 81.2035 30.14C81.2035 31.44 80.3035 32.34 79.2035 32.34ZM100.404 22.84H96.5035V33.64H98.1035V29.54H100.404C102.204 29.54 104.004 28.24 104.004 26.24C104.004 24.14 102.204 22.84 100.404 22.84ZM100.504 28.04H98.2035V24.34H100.504C101.704 24.34 102.404 25.34 102.404 26.14C102.404 27.04 101.704 28.04 100.504 28.04ZM110.504 26.44C109.304 26.44 108.104 26.94 107.604 28.04L109.004 28.64C109.304 28.04 109.904 27.84 110.504 27.84C111.304 27.84 112.204 28.34 112.204 29.24V29.34C111.904 29.14 111.304 28.94 110.504 28.94C108.904 28.94 107.404 29.74 107.404 31.34C107.404 32.74 108.704 33.74 110.104 33.74C111.204 33.74 111.804 33.24 112.204 32.64H112.304V33.44H113.904V29.34C113.804 27.54 112.404 26.44 110.504 26.44ZM110.304 32.34C109.804 32.34 109.004 32.04 109.004 31.44C109.004 30.64 109.904 30.24 110.704 30.24C111.404 30.24 111.704 30.44 112.204 30.64C112.104 31.64 111.204 32.34 110.304 32.34ZM119.504 26.74L117.604 31.44H117.504L115.604 26.74H113.804L116.704 33.24L115.004 36.84H116.704L121.204 26.74H119.504ZM104.904 33.54H106.504V22.84H104.904V33.54Z" fill="white"/>
<path d="M20.9039 14.2401C20.6039 14.5401 20.5039 14.9401 20.5039 15.4401V34.4401C20.5039 34.9401 20.6039 35.3401 20.9039 35.6401L21.0039 35.7401L31.8039 25.0401V24.7401L20.9039 14.2401Z" fill="url(#paint0_linear_8832_8470)"/>
<path d="M35.3031 28.64L31.7031 25.04V24.74L35.3031 21.14H35.4031L39.7031 23.54C40.9031 24.24 40.9031 25.34 39.7031 26.04L35.3031 28.64Z" fill="url(#paint1_linear_8832_8470)"/>
<path d="M35.4043 28.64L31.7043 25.04L20.9043 35.74C21.3043 36.14 22.0043 36.24 22.7043 35.84L35.4043 28.64Z" fill="url(#paint2_linear_8832_8470)"/>
<path d="M35.4043 21.3403L22.7043 14.2403C22.0043 13.8403 21.3043 13.8403 20.9043 14.3403L31.8043 25.0403L35.4043 21.3403Z" fill="url(#paint3_linear_8832_8470)"/>
<path d="M52.9035 15.7401C52.9035 17.4401 51.7035 18.5401 49.9035 18.5401H48.1035V12.9401H49.9035C51.7035 12.9401 52.9035 14.0401 52.9035 15.7401ZM49.9035 17.8401C51.2035 17.8401 51.9035 17.0401 51.9035 15.8401C51.9035 14.5401 51.2035 13.7401 49.9035 13.7401H49.0035V17.8401H49.9035Z" fill="white"/>
<path d="M55.7039 18.64C54.4039 18.64 53.5039 17.74 53.5039 16.34C53.5039 14.94 54.5039 14.04 55.7039 14.04C57.0039 14.04 57.9039 14.94 57.9039 16.34C58.0039 17.74 57.0039 18.64 55.7039 18.64ZM55.7039 17.84C56.4039 17.84 57.1039 17.34 57.1039 16.34C57.1039 15.34 56.5039 14.84 55.8039 14.84C55.1039 14.84 54.5039 15.34 54.5039 16.34C54.4039 17.34 55.0039 17.84 55.7039 17.84Z" fill="white"/>
<path d="M58.4043 14.14H59.3043L60.2043 17.64L61.1043 14.14H62.1043L63.0043 17.64L63.9043 14.14H64.8043L63.4043 18.54H62.4043L61.5043 15.24L60.6043 18.54H59.6043L58.4043 14.14Z" fill="white"/>
<path d="M68.6039 16.04C68.6039 15.24 68.2039 14.84 67.5039 14.84C66.8039 14.84 66.4039 15.24 66.4039 16.04V18.54H65.5039V14.14H66.4039V14.64C66.7039 14.24 67.2039 14.04 67.7039 14.04C68.7039 14.04 69.5039 14.64 69.5039 15.94V18.54H68.6039V16.04Z" fill="white"/>
<path d="M70.7031 12.64H71.6031V18.54H70.7031V12.64Z" fill="white"/>
<path d="M74.7039 18.64C73.5039 18.64 72.5039 17.74 72.5039 16.34C72.5039 14.94 73.5039 14.04 74.7039 14.04C76.0039 14.04 76.9039 14.94 76.9039 16.34C77.0039 17.74 76.0039 18.64 74.7039 18.64ZM74.7039 17.84C75.4039 17.84 76.1039 17.34 76.1039 16.34C76.1039 15.34 75.5039 14.84 74.8039 14.84C74.1039 14.84 73.5039 15.34 73.5039 16.34C73.4039 17.34 74.0039 17.84 74.7039 17.84Z" fill="white"/>
<path d="M79.7035 14.04C80.4035 14.04 81.0035 14.44 81.2035 14.74V14.14H82.1035V18.54H81.2035V17.84C80.9035 18.24 80.4035 18.54 79.7035 18.54C78.6035 18.54 77.6035 17.64 77.6035 16.24C77.6035 14.84 78.5035 14.04 79.7035 14.04ZM79.9035 14.84C79.2035 14.84 78.6035 15.34 78.6035 16.34C78.6035 17.34 79.3035 17.84 79.9035 17.84C80.6035 17.84 81.2035 17.34 81.2035 16.34C81.2035 15.34 80.6035 14.84 79.9035 14.84Z" fill="white"/>
<path d="M85.1039 14.04C85.7039 14.04 86.3039 14.34 86.6039 14.74V12.64H87.5039V18.54H86.6039V17.84C86.3039 18.24 85.8039 18.54 85.1039 18.54C83.9039 18.54 83.0039 17.64 83.0039 16.24C83.0039 14.84 83.9039 14.04 85.1039 14.04ZM85.3039 14.84C84.6039 14.84 84.0039 15.34 84.0039 16.34C84.0039 17.34 84.7039 17.84 85.3039 17.84C86.0039 17.84 86.6039 17.34 86.6039 16.34C86.6039 15.34 86.0039 14.84 85.3039 14.84Z" fill="white"/>
<path d="M92.7039 18.64C91.5039 18.64 90.5039 17.74 90.5039 16.34C90.5039 14.94 91.5039 14.04 92.7039 14.04C94.0039 14.04 94.9039 14.94 94.9039 16.34C95.0039 17.74 94.0039 18.64 92.7039 18.64ZM92.7039 17.84C93.4039 17.84 94.1039 17.34 94.1039 16.34C94.1039 15.34 93.5039 14.84 92.8039 14.84C92.1039 14.84 91.5039 15.34 91.5039 16.34C91.5039 17.34 92.0039 17.84 92.7039 17.84Z" fill="white"/>
<path d="M99.1039 16.04C99.1039 15.24 98.7039 14.84 98.0039 14.84C97.3039 14.84 96.9039 15.24 96.9039 16.04V18.54H96.0039V14.14H96.9039V14.64C97.2039 14.24 97.7039 14.04 98.2039 14.04C99.2039 14.04 100.004 14.64 100.004 15.94V18.54H99.1039V16.04Z" fill="white"/>
<path d="M103.303 14.84H102.803V14.14H103.303V13.04H104.203V14.14H105.303V14.84H104.203V17.24C104.203 17.54 104.303 17.74 104.703 17.74H105.303V18.54H104.603C103.803 18.54 103.303 18.24 103.303 17.34V14.84Z" fill="white"/>
<path d="M106.203 12.64H107.103V14.64C107.403 14.24 107.903 14.04 108.503 14.04C109.503 14.04 110.303 14.64 110.303 15.94V18.54H109.403V16.04C109.403 15.24 109.003 14.84 108.303 14.84C107.603 14.84 107.203 15.24 107.203 16.04V18.54H106.303V12.64H106.203Z" fill="white"/>
<path d="M113.304 18.64C112.004 18.64 111.104 17.74 111.104 16.34C111.104 14.94 112.004 14.04 113.304 14.04C114.604 14.04 115.404 14.94 115.404 16.24C115.404 16.44 115.404 16.54 115.404 16.64H112.004C112.104 17.34 112.604 17.84 113.304 17.84C113.904 17.84 114.204 17.54 114.304 17.24H115.304C115.004 18.04 114.304 18.64 113.304 18.64ZM112.004 15.94H114.404C114.404 15.24 113.804 14.84 113.204 14.84C112.604 14.84 112.104 15.24 112.004 15.94Z" fill="white"/>
<defs>
<linearGradient id="paint0_linear_8832_8470" x1="30.7707" y1="34.6908" x2="16.3337" y2="20.0833" gradientUnits="userSpaceOnUse">
<stop stop-color="#00A0FF"/>
<stop offset="0.0066" stop-color="#00A1FF"/>
<stop offset="0.2601" stop-color="#00BEFF"/>
<stop offset="0.5122" stop-color="#00D2FF"/>
<stop offset="0.7604" stop-color="#00DFFF"/>
<stop offset="1" stop-color="#00E3FF"/>
</linearGradient>
<linearGradient id="paint1_linear_8832_8470" x1="41.2463" y1="24.9768" x2="20.1842" y2="24.9768" gradientUnits="userSpaceOnUse">
<stop stop-color="#FFE000"/>
<stop offset="0.4087" stop-color="#FFBD00"/>
<stop offset="0.7754" stop-color="#FFA500"/>
<stop offset="1" stop-color="#FF9C00"/>
</linearGradient>
<linearGradient id="paint2_linear_8832_8470" x1="26.1435" y1="30.1802" x2="6.56575" y2="10.3714" gradientUnits="userSpaceOnUse">
<stop stop-color="#FF3A44"/>
<stop offset="1" stop-color="#C31162"/>
</linearGradient>
<linearGradient id="paint3_linear_8832_8470" x1="10.8874" y1="34.8536" x2="19.6293" y2="26.0086" gradientUnits="userSpaceOnUse">
<stop stop-color="#32A071"/>
<stop offset="0.0685" stop-color="#2DA771"/>
<stop offset="0.4762" stop-color="#15CF74"/>
<stop offset="0.8009" stop-color="#06E775"/>
<stop offset="1" stop-color="#00F076"/>
</linearGradient>
</defs>
</svg>
