<svg width="214" height="41" viewBox="0 0 214 41" fill="none" xmlns="http://www.w3.org/2000/svg">
<g clip-path="url(#clip0_8832_8420)">
<path d="M74.7188 5.4502H82.3587C88.5187 5.4502 92.7787 9.8902 92.7787 15.6802V15.7402C92.7787 21.5302 88.5187 26.0302 82.3587 26.0302H74.7188V5.4502ZM79.0287 9.5402V21.9502H82.3587C85.8587 21.9502 88.2687 19.4502 88.2687 15.8102V15.7502C88.2687 12.1002 85.8587 9.5502 82.3587 9.5502H79.0287V9.5402Z" fill="white"/>
<path d="M98.2422 18.2405V18.1805C98.2422 13.6505 101.712 9.98047 106.392 9.98047C111.072 9.98047 114.482 13.5705 114.482 18.1205V18.1805C114.482 22.7105 111.012 26.3805 106.332 26.3805C101.652 26.3805 98.2422 22.7905 98.2422 18.2405ZM110.282 18.2405V18.1805C110.282 15.8605 108.682 13.8305 106.332 13.8305C103.982 13.8305 102.442 15.7705 102.442 18.1205V18.1805C102.442 20.5005 104.042 22.5305 106.392 22.5305C108.742 22.5305 110.282 20.5905 110.282 18.2405Z" fill="white"/>
<path d="M119.625 18.2405V18.1805C119.625 13.6805 122.905 9.98047 127.495 9.98047C130.325 9.98047 132.055 10.9805 133.485 12.6305L130.885 15.5705C129.905 14.5105 129.005 13.8405 127.465 13.8405C125.335 13.8405 123.825 15.7805 123.825 18.1305V18.1905C123.825 20.6305 125.305 22.5405 127.635 22.5405C129.065 22.5405 130.045 21.8905 131.075 20.8605L133.565 23.5105C132.105 25.1905 130.425 26.3905 127.435 26.3905C122.925 26.3905 119.625 22.7205 119.625 18.2505V18.2405Z" fill="white"/>
<path d="M140.008 5.4502H142.218V14.5902H153.528V5.4502H155.738V26.0302H153.528V16.7702H142.218V26.0302H140.008V5.4502Z" fill="#D5A54D"/>
<path d="M174.556 10.8301H176.856L170.776 26.5301C169.546 29.6801 168.116 30.8201 165.956 30.8201C164.756 30.8201 163.856 30.5601 162.876 30.0601L163.606 28.2701C164.306 28.6501 164.946 28.8301 165.876 28.8301C167.196 28.8301 167.976 28.1201 168.846 25.9801L162.266 10.8401H164.646L169.906 23.5101L174.556 10.8401V10.8301Z" fill="#D5A54D"/>
<path d="M181.219 10.8302H183.599L188.469 23.4402L193.369 10.8302H195.689L189.389 26.1502H187.489L181.219 10.8302Z" fill="#D5A54D"/>
<path d="M200.141 18.4798V18.4198C200.141 14.0398 203.051 10.5098 207.081 10.5098C211.361 10.5098 213.831 14.0998 213.831 18.5398C213.831 18.8598 213.831 19.0098 213.801 19.2798H202.321C202.631 22.5698 204.841 24.4198 207.421 24.4198C209.441 24.4198 210.781 23.5698 211.981 22.2698L213.321 23.5298C211.861 25.2598 210.131 26.3798 207.361 26.3798C203.411 26.3798 200.141 23.1798 200.141 18.4698V18.4798ZM211.651 17.5998C211.431 14.8698 209.941 12.4298 207.031 12.4298C204.481 12.4298 202.631 14.6598 202.331 17.5998H211.661H211.651Z" fill="#D5A54D"/>
<path d="M27.4353 27.0696L25.4953 25.9496L22.6953 24.3396V18.8696L27.4353 16.1396L32.1653 18.8696V24.3396L29.3753 25.9496L27.4353 27.0696Z" fill="url(#paint0_linear_8832_8420)"/>
<path d="M40.1466 14.27V28.94L32.6366 33.28L27.4266 36.28L22.2266 33.28L14.7266 28.94V14.27L27.4266 6.93L32.1666 9.66V17.32L27.4266 14.59L21.3566 18.1V25.12L24.9366 27.19L27.4266 28.63L29.9166 27.19L33.5166 25.12V20.18H33.5066V3.64L40.1366 0V14.26L40.1466 14.27Z" fill="white"/>
<path d="M58.9803 0V28.95H53.4603V17.76H42.5703V12.23H53.4603V3.03L58.9803 0Z" fill="white"/>
<path d="M14.5972 40.2904L12.6572 39.1703L9.86719 37.5504V32.0904L14.5972 29.3604L19.3272 32.0904V37.5504L16.5372 39.1703L14.5972 40.2904Z" fill="url(#paint1_linear_8832_8420)"/>
<path d="M4.73 40.39L2.8 39.27L0 37.66V32.19L4.73 29.46L9.47 32.19V37.66L6.67 39.27L4.73 40.39Z" fill="url(#paint2_linear_8832_8420)"/>
<path d="M9.58156 31.7896L7.65156 30.6696L4.85156 29.0496V23.5896L9.58156 20.8496L14.3216 23.5896V29.0496L11.5216 30.6696L9.58156 31.7896Z" fill="url(#paint3_linear_8832_8420)"/>
</g>
<defs>
<linearGradient id="paint0_linear_8832_8420" x1="30.1753" y1="19.6196" x2="2.36531" y2="39.7296" gradientUnits="userSpaceOnUse">
<stop stop-color="#E3C57F"/>
<stop offset="1" stop-color="#CC922F"/>
</linearGradient>
<linearGradient id="paint1_linear_8832_8420" x1="32.0472" y1="22.2004" x2="4.23719" y2="42.3104" gradientUnits="userSpaceOnUse">
<stop stop-color="#E3C57F"/>
<stop offset="1" stop-color="#CC922F"/>
</linearGradient>
<linearGradient id="paint2_linear_8832_8420" x1="28.7" y1="17.6" x2="0.890001" y2="37.71" gradientUnits="userSpaceOnUse">
<stop stop-color="#E3C57F"/>
<stop offset="1" stop-color="#CC922F"/>
</linearGradient>
<linearGradient id="paint3_linear_8832_8420" x1="26.2916" y1="14.2396" x2="-1.51844" y2="34.3496" gradientUnits="userSpaceOnUse">
<stop stop-color="#E3C57F"/>
<stop offset="1" stop-color="#CC922F"/>
</linearGradient>
<clipPath id="clip0_8832_8420">
<rect width="213.84" height="40.39" fill="white"/>
</clipPath>
</defs>
</svg>
