<svg width="24" height="26" viewBox="0 0 24 26" fill="none" xmlns="http://www.w3.org/2000/svg">
<g clip-path="url(#clip0_10301_33063)">
<path d="M19.2338 9.80664C18.4533 9.80669 17.8184 10.4417 17.8184 11.2222C17.8184 12.0027 18.4534 12.6377 19.2338 12.6377C20.0144 12.6377 20.6494 12.0027 20.6494 11.2222C20.6494 10.4417 20.0144 9.80664 19.2338 9.80664ZM19.2338 11.9337C18.8415 11.9337 18.5224 11.6145 18.5224 11.2222C18.5224 10.8298 18.8415 10.5107 19.2338 10.5107C19.6261 10.5107 19.9454 10.8298 19.9454 11.2222C19.9454 11.6146 19.6261 11.9337 19.2338 11.9337Z" fill="#CC922F" stroke="#CC922F" stroke-width="0.192"/>
<path d="M19.2327 8.07923C19.1394 8.07923 19.0498 8.11632 18.9838 8.18234C18.9178 8.24836 18.8807 8.3379 18.8807 8.43126C18.8807 8.52463 18.9178 8.61417 18.9838 8.68019C19.0498 8.7462 19.1394 8.78329 19.2327 8.78329C20.5774 8.78329 21.6715 9.87731 21.6715 11.222C21.6715 12.3501 20.9015 13.3013 19.8596 13.5787C19.7617 13.6046 19.6623 13.6244 19.5619 13.6379C19.5546 13.6389 19.5472 13.6398 19.5398 13.6408C19.4943 13.6465 19.4486 13.651 19.4029 13.6542C19.3978 13.6545 19.3928 13.655 19.3877 13.6553C19.2845 13.6619 19.181 13.6619 19.0777 13.6553C19.0727 13.655 19.0676 13.6545 19.0626 13.6542C19.0168 13.651 18.9711 13.6465 18.9256 13.6408L18.9035 13.6379C18.8032 13.6244 18.7037 13.6046 18.6058 13.5787C17.5639 13.3013 16.794 12.3501 16.794 11.222C16.794 10.4106 17.196 9.65451 17.8694 9.19954C17.9802 9.12469 18.097 9.05908 18.2186 9.00337C18.2606 8.98412 18.2985 8.95678 18.3299 8.92291C18.3614 8.88904 18.3859 8.84931 18.402 8.80598C18.4181 8.76264 18.4255 8.71656 18.4238 8.67037C18.4221 8.62417 18.4113 8.57876 18.392 8.53673C18.3532 8.45186 18.2822 8.3859 18.1947 8.35337C18.1072 8.32083 18.0103 8.32439 17.9254 8.36325C17.7687 8.43506 17.6182 8.51964 17.4754 8.61614C16.6079 9.20222 16.09 10.1764 16.09 11.222C16.09 12.5767 16.9516 13.734 18.1556 14.1746V19.1993C18.1556 21.4307 16.3403 23.2461 14.1089 23.2461C11.8775 23.2461 10.0622 21.4307 10.0622 19.1993V16.1837C11.946 15.8377 13.6066 14.5691 14.8803 12.497C15.1353 12.0823 15.0745 11.561 14.7656 11.2152C16.0232 8.76787 16.5873 6.45881 16.2406 5.14251C15.9829 4.16428 15.1025 3.38883 13.6892 2.89026C13.6647 2.56983 13.4819 2.24325 13.1591 1.9515C12.8465 1.66889 12.4496 1.46259 12.1232 1.41314C11.4321 1.30842 10.7736 1.86183 10.6547 2.64675C10.5987 3.01584 10.6688 3.38409 10.8521 3.68381C11.0473 4.00298 11.3455 4.20764 11.6916 4.26009C11.7593 4.26999 11.8276 4.27482 11.8961 4.27453C12.1889 4.27453 12.5335 4.19531 12.8406 4.05286C13.12 3.92329 13.3371 3.75623 13.4824 3.56376C14.3457 3.87234 15.3205 4.41412 15.5596 5.32186C15.7881 6.18937 15.5476 8.15029 14.1503 10.8725C14.0051 10.8466 13.8561 10.851 13.7126 10.8852C13.5749 10.9177 13.4449 10.9772 13.3303 11.0602C13.2157 11.1432 13.1187 11.2481 13.045 11.3689C11.9197 13.1993 10.5537 14.1273 8.98493 14.1273C7.41602 14.1273 6.05004 13.1992 4.92481 11.3688C4.68687 10.9817 4.24198 10.7983 3.81949 10.8725C2.42215 8.15029 2.18163 6.18937 2.4102 5.32186C2.64893 4.41553 3.62018 3.87365 4.48737 3.56367C4.63268 3.75609 4.84985 3.92325 5.12923 4.05281C5.43635 4.19526 5.78093 4.27448 6.07381 4.27448C6.14221 4.27477 6.21054 4.26994 6.27823 4.26004C6.6244 4.20759 6.92252 4.00289 7.11776 3.68376C7.30104 3.38414 7.37116 3.01579 7.3152 2.6467C7.19632 1.86183 6.53796 1.30847 5.8467 1.41309C5.52031 1.46254 5.12332 1.66884 4.81071 1.95145C4.48798 2.2432 4.30521 2.56973 4.2807 2.89012C2.86732 3.38864 1.98724 4.16381 1.72948 5.14242C1.3827 6.45867 1.94679 8.76768 3.20431 11.2149C2.89549 11.5608 2.8347 12.082 3.0896 12.4968C4.36338 14.5689 6.02402 15.8376 7.90788 16.1836V17.9069C7.90788 18.0003 7.94497 18.0899 8.01099 18.1559C8.07701 18.2219 8.16655 18.259 8.25991 18.259C8.35328 18.259 8.44282 18.2219 8.50884 18.1559C8.57486 18.0899 8.61195 18.0003 8.61195 17.9069V15.8824C8.61193 15.7969 8.58077 15.7142 8.52427 15.65C8.46778 15.5857 8.38982 15.5442 8.30496 15.5332C6.5127 15.3021 4.91674 14.1246 3.68941 12.1281C3.58226 11.9538 3.63616 11.7252 3.80913 11.6167C3.81045 11.616 3.81185 11.6156 3.81317 11.6149C3.81823 11.6122 3.82287 11.6091 3.82774 11.6062C4.00095 11.511 4.2206 11.5673 4.32509 11.7374C5.5871 13.7904 7.15493 14.8313 8.98502 14.8313C10.8151 14.8313 12.3829 13.7904 13.6449 11.7375C13.6704 11.6957 13.704 11.6593 13.7437 11.6306C13.7834 11.6018 13.8284 11.5812 13.8761 11.57C13.9654 11.5485 14.0596 11.5611 14.1402 11.6053C14.1457 11.6085 14.151 11.6121 14.1567 11.6151C14.1581 11.6159 14.1596 11.6163 14.161 11.617C14.3338 11.7255 14.3876 11.954 14.2805 12.1283C13.0532 14.1247 11.4573 15.3022 9.66509 15.5333C9.58022 15.5443 9.50225 15.5858 9.44575 15.65C9.38925 15.7143 9.35809 15.7969 9.3581 15.8825V19.1994C9.3581 21.819 11.4893 23.9501 14.1088 23.9501C16.7284 23.9501 18.8596 21.819 18.8596 19.1994V14.3426C18.8694 14.3438 18.8793 14.3446 18.8891 14.3457C18.9458 14.352 19.0026 14.3568 19.0594 14.3599C19.0698 14.3604 19.0803 14.3608 19.0907 14.3613C19.1361 14.3633 19.1817 14.3647 19.2272 14.3647C19.229 14.3647 19.2308 14.3649 19.2326 14.3649C19.2345 14.3649 19.2363 14.3647 19.2381 14.3647C19.2836 14.3647 19.3292 14.3633 19.3746 14.3613C19.385 14.3608 19.3955 14.3604 19.4059 14.3599C19.4489 14.3575 19.4919 14.3542 19.5349 14.35C19.5487 14.3487 19.5625 14.3472 19.5762 14.3457C19.5861 14.3446 19.596 14.3438 19.6058 14.3426V19.1993C19.6058 20.6064 19.0723 21.946 18.1036 22.9713C18.0395 23.0392 18.005 23.1297 18.0076 23.2231C18.0103 23.3164 18.0499 23.4048 18.1178 23.469C18.183 23.5308 18.2696 23.5652 18.3595 23.5651C18.4074 23.5652 18.4548 23.5554 18.4988 23.5364C18.5429 23.5175 18.5825 23.4897 18.6154 23.4548C19.708 22.2983 20.3098 20.787 20.3098 19.1992V14.1746C21.5139 13.7339 22.3756 12.5767 22.3756 11.222C22.3756 9.48909 20.9657 8.07923 19.2327 8.07923ZM12.9856 2.99981C12.9348 3.33454 12.1622 3.61945 11.7973 3.56381C11.6601 3.543 11.5378 3.45511 11.4528 3.31622C11.3559 3.15783 11.3197 2.95748 11.3508 2.75208C11.4106 2.35772 11.7164 2.06306 12.0177 2.10904C12.1717 2.13239 12.4469 2.25642 12.6871 2.47354C12.8923 2.65912 13.0067 2.86073 12.9856 2.99981ZM5.28293 2.47364C5.52316 2.25651 5.79827 2.13248 5.95235 2.10914C5.97312 2.106 5.99393 2.10445 6.0147 2.10445C6.29501 2.10445 6.5636 2.38504 6.61929 2.75217C6.65041 2.95758 6.61423 3.15792 6.51729 3.31631C6.43235 3.4552 6.31001 3.54309 6.17281 3.5639C5.80765 3.61959 5.03524 3.33464 4.98452 2.9999C4.96343 2.86073 5.07781 2.65912 5.28293 2.47364Z" fill="white" stroke="white" stroke-width="0.192"/>
<path d="M17.7662 23.7728C17.7122 23.6966 17.6302 23.645 17.5382 23.6292C17.4462 23.6135 17.3517 23.635 17.2755 23.6889C16.3445 24.3479 15.249 24.6962 14.1073 24.6962C11.0762 24.6962 8.61031 22.2302 8.61031 19.1992C8.61031 19.1058 8.57322 19.0163 8.50721 18.9503C8.44119 18.8843 8.35165 18.8472 8.25828 18.8472C8.16492 18.8472 8.07538 18.8843 8.00936 18.9503C7.94334 19.0163 7.90625 19.1058 7.90625 19.1992C7.90625 22.6185 10.688 25.4002 14.1073 25.4002C15.3955 25.4002 16.6318 25.0072 17.6822 24.2636C17.72 24.2369 17.7521 24.203 17.7767 24.1639C17.8014 24.1247 17.8181 24.0811 17.8259 24.0356C17.8337 23.99 17.8324 23.9433 17.8222 23.8982C17.8119 23.8532 17.7929 23.8105 17.7662 23.7728Z" fill="#CC922F" stroke="#CC922F" stroke-width="0.192"/>
</g>
<defs>
<clipPath id="clip0_10301_33063">
<rect width="24" height="25.44" fill="white" transform="translate(0 0.439941)"/>
</clipPath>
</defs>
</svg>
