<svg width="22" height="26" viewBox="0 0 22 26" fill="none" xmlns="http://www.w3.org/2000/svg">
<path d="M18.0717 9.3667C17.2912 9.36675 16.6562 10.0018 16.6562 10.7822C16.6562 11.5628 17.2913 12.1978 18.0717 12.1978C18.8523 12.1978 19.4873 11.5627 19.4873 10.7822C19.4873 10.0017 18.8523 9.3667 18.0717 9.3667ZM18.0717 11.4937C17.6794 11.4937 17.3603 11.1746 17.3603 10.7822C17.3603 10.3899 17.6794 10.0707 18.0717 10.0707C18.464 10.0707 18.7832 10.3899 18.7832 10.7822C18.7832 11.1746 18.464 11.4937 18.0717 11.4937Z" fill="#CC922F" stroke="#CC922F" stroke-width="0.192"/>
<path d="M18.0726 7.63929C17.9792 7.63929 17.8897 7.67638 17.8237 7.7424C17.7576 7.80842 17.7206 7.89796 17.7206 7.99132C17.7206 8.08469 17.7576 8.17423 17.8237 8.24024C17.8897 8.30626 17.9792 8.34335 18.0726 8.34335C19.4173 8.34335 20.5114 9.43737 20.5114 10.7821C20.5114 11.9101 19.7413 12.8614 18.6994 13.1388C18.6015 13.1647 18.5021 13.1845 18.4017 13.198C18.3944 13.199 18.3871 13.1999 18.3797 13.2008C18.3341 13.2065 18.2884 13.211 18.2427 13.2142C18.2376 13.2146 18.2326 13.2151 18.2276 13.2154C18.1243 13.2219 18.0208 13.2219 17.9176 13.2154C17.9125 13.2151 17.9075 13.2146 17.9024 13.2142C17.8567 13.211 17.811 13.2066 17.7655 13.2008L17.7434 13.198C17.643 13.1845 17.5436 13.1647 17.4457 13.1388C16.4038 12.8614 15.6338 11.9101 15.6338 10.7821C15.6338 9.97062 16.0358 9.21457 16.7093 8.7596C16.8201 8.68475 16.9369 8.61913 17.0584 8.56343C17.1005 8.54418 17.1383 8.51684 17.1698 8.48297C17.2012 8.4491 17.2257 8.40937 17.2418 8.36603C17.2579 8.3227 17.2653 8.27662 17.2636 8.23042C17.2619 8.18423 17.2511 8.13882 17.2319 8.09679C17.193 8.01192 17.122 7.94596 17.0345 7.91343C16.947 7.88089 16.8502 7.88445 16.7653 7.92331C16.6086 7.99512 16.458 8.0797 16.3152 8.1762C15.4477 8.76227 14.9298 9.73643 14.9298 10.7821C14.9298 12.1368 15.7915 13.2941 16.9954 13.7347V18.7594C16.9954 20.9908 15.1801 22.8061 12.9487 22.8061C10.7173 22.8061 8.90201 20.9908 8.90201 18.7594V15.7437C10.7858 15.3978 12.4464 14.1291 13.7201 12.0571C13.9751 11.6424 13.9143 11.1211 13.6055 10.7752C14.8631 8.32793 15.4271 6.01887 15.0805 4.70257C14.8227 3.72434 13.9424 2.94888 12.5291 2.45032C12.5045 2.12988 12.3218 1.80331 11.999 1.51156C11.6864 1.22895 11.2894 1.02265 10.963 0.973196C10.272 0.868478 9.61348 1.42188 9.49451 2.20681C9.43854 2.5759 9.50866 2.94415 9.69195 3.24387C9.88718 3.56304 10.1854 3.7677 10.5315 3.82015C10.5992 3.83005 10.6675 3.83487 10.7359 3.83459C11.0288 3.83459 11.3734 3.75537 11.6805 3.61292C11.9598 3.48335 12.177 3.31629 12.3222 3.12382C13.1855 3.4324 14.1604 3.97418 14.3995 4.88192C14.628 5.74943 14.3874 7.71035 12.9901 10.4326C12.8449 10.4067 12.6959 10.411 12.5524 10.4453C12.4147 10.4777 12.2848 10.5372 12.1702 10.6202C12.0556 10.7033 11.9586 10.8082 11.8848 10.9289C10.7596 12.7594 9.39359 13.6874 7.82477 13.6874C6.25587 13.6874 4.88988 12.7593 3.76465 10.9288C3.52671 10.5417 3.08182 10.3584 2.65934 10.4326C1.26199 7.71035 1.02148 5.74943 1.25004 4.88192C1.48877 3.97559 2.46002 3.43371 3.32721 3.12373C3.47252 3.31615 3.6897 3.48331 3.96907 3.61287C4.2762 3.75532 4.62077 3.83454 4.91365 3.83454C4.98205 3.83483 5.05038 3.83 5.11807 3.8201C5.46424 3.76765 5.76237 3.56295 5.9576 3.24382C6.14088 2.9442 6.21101 2.57585 6.15504 2.20676C6.03616 1.42188 5.37781 0.868524 4.68654 0.973149C4.36015 1.0226 3.96317 1.2289 3.65056 1.51151C3.32782 1.80326 3.14506 2.12979 3.12054 2.45018C1.70717 2.9487 0.827087 3.72387 0.569321 4.70248C0.22254 6.01873 0.786634 8.32774 2.04415 10.775C1.73534 11.1208 1.67454 11.6421 1.92945 12.0568C3.20323 14.129 4.86387 15.3977 6.74773 15.7436V17.467C6.74773 17.5604 6.78482 17.6499 6.85083 17.7159C6.91685 17.782 7.00639 17.819 7.09976 17.819C7.19312 17.819 7.28266 17.782 7.34868 17.7159C7.4147 17.6499 7.45179 17.5604 7.45179 17.467V15.4425C7.45178 15.3569 7.42061 15.2743 7.36412 15.21C7.30762 15.1458 7.22966 15.1043 7.1448 15.0933C5.35254 14.8622 3.75659 13.6847 2.52926 11.6882C2.4221 11.5138 2.47601 11.2852 2.64898 11.1768C2.65029 11.1761 2.6517 11.1757 2.65301 11.175C2.65807 11.1723 2.66271 11.1692 2.66759 11.1663C2.84079 11.0711 3.06045 11.1274 3.16493 11.2975C4.42695 13.3504 5.99477 14.3914 7.82487 14.3914C9.65491 14.3914 11.2227 13.3505 12.4847 11.2976C12.5103 11.2557 12.5438 11.2194 12.5835 11.1906C12.6232 11.1619 12.6682 11.1413 12.7159 11.13C12.8053 11.1086 12.8995 11.1212 12.9801 11.1653C12.9856 11.1686 12.9908 11.1721 12.9966 11.1752C12.998 11.1759 12.9994 11.1764 13.0008 11.1771C13.1736 11.2856 13.2274 11.5141 13.1203 11.6884C11.8931 13.6848 10.2971 14.8623 8.50493 15.0934C8.42007 15.1043 8.34209 15.1458 8.28559 15.2101C8.2291 15.2744 8.19794 15.357 8.19795 15.4426V18.7594C8.19795 21.379 10.3291 23.5102 12.9487 23.5102C15.5683 23.5102 17.6994 21.379 17.6994 18.7594V13.9027C17.7093 13.9039 17.7191 13.9047 17.729 13.9058C17.7856 13.9121 17.8424 13.9168 17.8993 13.9199C17.9096 13.9205 17.9201 13.9209 17.9305 13.9213C17.976 13.9234 18.0215 13.9247 18.0671 13.9248C18.0689 13.9248 18.0707 13.9249 18.0725 13.9249C18.0743 13.9249 18.0761 13.9248 18.0779 13.9248C18.1234 13.9247 18.169 13.9234 18.2145 13.9213C18.2249 13.9209 18.2353 13.9205 18.2457 13.9199C18.2888 13.9176 18.3318 13.9143 18.3747 13.9101C18.3885 13.9088 18.4023 13.9073 18.4161 13.9058C18.4259 13.9047 18.4358 13.9039 18.4456 13.9027V18.7594C18.4456 20.1665 17.9122 21.5061 16.9435 22.5314C16.8794 22.5993 16.8448 22.6898 16.8475 22.7831C16.8501 22.8764 16.8898 22.9649 16.9576 23.029C17.0229 23.0909 17.1094 23.1253 17.1993 23.1251C17.2472 23.1252 17.2947 23.1155 17.3387 23.0965C17.3827 23.0775 17.4224 23.0497 17.4552 23.0149C18.5478 21.8584 19.1496 20.3471 19.1496 18.7593V13.7346C20.3538 13.294 21.2154 12.1368 21.2154 10.782C21.2154 9.04915 19.8056 7.63929 18.0726 7.63929ZM11.8254 2.55987C11.7746 2.8946 11.0021 3.17951 10.6371 3.12387C10.4999 3.10306 10.3776 3.01517 10.2926 2.87627C10.1957 2.71788 10.1595 2.51754 10.1906 2.31213C10.2504 1.91777 10.5562 1.62312 10.8575 1.6691C11.0115 1.69245 11.2867 1.81648 11.527 2.0336C11.7321 2.21918 11.8465 2.42079 11.8254 2.55987ZM4.12277 2.0337C4.36301 1.81657 4.63812 1.69254 4.7922 1.6692C4.81296 1.66606 4.83377 1.66451 4.85454 1.66451C5.13485 1.66451 5.40345 1.9451 5.45913 2.31223C5.49026 2.51763 5.45407 2.71798 5.35713 2.87637C5.2722 3.01526 5.14985 3.10315 5.01265 3.12396C4.64749 3.17965 3.87509 2.8947 3.82437 2.55996C3.80327 2.42079 3.91765 2.21918 4.12277 2.0337Z" fill="#0D257B" stroke="#0D257B" stroke-width="0.192"/>
<path d="M16.606 23.3329C16.5521 23.2567 16.4701 23.205 16.378 23.1893C16.286 23.1736 16.1915 23.195 16.1153 23.2489C15.1844 23.9079 14.0889 24.2562 12.9471 24.2562C9.91606 24.2562 7.45016 21.7903 7.45016 18.7593C7.45016 18.6659 7.41307 18.5764 7.34705 18.5103C7.28103 18.4443 7.19149 18.4072 7.09812 18.4072C7.00476 18.4072 6.91522 18.4443 6.8492 18.5103C6.78318 18.5764 6.74609 18.6659 6.74609 18.7593C6.74609 22.1786 9.52784 24.9603 12.9471 24.9603C14.2354 24.9603 15.4716 24.5672 16.5221 23.8236C16.5598 23.7969 16.5919 23.763 16.6166 23.7239C16.6412 23.6848 16.6579 23.6412 16.6657 23.5956C16.6735 23.5501 16.6722 23.5034 16.662 23.4583C16.6518 23.4132 16.6327 23.3706 16.606 23.3329Z" fill="#CC922F" stroke="#CC922F" stroke-width="0.192"/>
</svg>
