<svg width="32" height="28" viewBox="0 0 32 28" fill="none" xmlns="http://www.w3.org/2000/svg">
<path d="M28.1892 13.6353C27.9423 13.6356 27.6978 13.5872 27.4696 13.493C27.2414 13.3987 27.0341 13.2604 26.8593 13.086L19.0809 5.3075C18.7289 4.95443 18.5312 4.47622 18.5312 3.97767C18.5312 3.47912 18.7289 3.0009 19.0809 2.64783L20.341 1.38775C20.5159 1.21281 20.7235 1.07403 20.9521 0.979351C21.1806 0.88467 21.4256 0.835937 21.673 0.835938C21.9204 0.835937 22.1653 0.88467 22.3939 0.979351C22.6224 1.07403 22.8301 1.21281 23.005 1.38775L30.7835 9.16185C31.1357 9.51567 31.3335 9.9946 31.3335 10.4939C31.3335 10.9931 31.1357 11.4721 30.7835 11.8259L29.519 13.086C29.3446 13.2608 29.1373 13.3993 28.909 13.4936C28.6808 13.5879 28.4361 13.6361 28.1892 13.6353ZM21.6752 1.7104C21.5423 1.71022 21.4107 1.73632 21.288 1.78721C21.1653 1.83809 21.0538 1.91275 20.9601 2.00689L19.7 3.26697C19.6056 3.3606 19.5307 3.47199 19.4796 3.59471C19.4285 3.71744 19.4021 3.84908 19.4021 3.98203C19.4021 4.11498 19.4285 4.24661 19.4796 4.36934C19.5307 4.49207 19.6056 4.60346 19.7 4.69709L27.4741 12.4712C27.6644 12.6597 27.9214 12.7655 28.1892 12.7655C28.457 12.7655 28.714 12.6597 28.9042 12.4712L30.1643 11.2111C30.3528 11.0209 30.4586 10.7639 30.4586 10.496C30.4586 10.2282 30.3528 9.97123 30.1643 9.78099L22.3859 2.00253C22.2924 1.90951 22.1816 1.83582 22.0596 1.7857C21.9376 1.73557 21.807 1.70998 21.6752 1.7104Z" fill="#0D257B" stroke="#0D257B" stroke-width="1.0755"/>
<path d="M24.3306 19.9544C24.0406 19.9543 23.7537 19.8965 23.4864 19.7842C23.2191 19.6719 22.9769 19.5074 22.774 19.3004L22.0938 18.6245C22.0532 18.5839 22.0209 18.5356 21.9989 18.4825C21.9769 18.4294 21.9656 18.3725 21.9656 18.315C21.9656 18.2575 21.9769 18.2005 21.9989 18.1474C22.0209 18.0943 22.0532 18.0461 22.0938 18.0054C22.1345 17.9647 22.1827 17.9325 22.2358 17.9105C22.289 17.8885 22.3459 17.8772 22.4034 17.8772C22.4609 17.8772 22.5178 17.8885 22.5709 17.9105C22.624 17.9325 22.6723 17.9647 22.7129 18.0054L23.3931 18.6856C23.6111 18.9155 23.908 19.0544 24.2241 19.0746C24.5403 19.0949 24.8524 18.9948 25.0979 18.7946C25.2213 18.685 25.3203 18.5508 25.3887 18.4006C25.457 18.2504 25.4931 18.0876 25.4947 17.9226C25.4985 17.7612 25.4695 17.6007 25.4096 17.4508C25.3496 17.301 25.2599 17.1648 25.1459 17.0505L18.4836 10.4013C18.4507 10.3687 18.4089 10.3466 18.3634 10.3376C18.318 10.3287 18.2709 10.3333 18.2281 10.351C18.1852 10.3687 18.1486 10.3986 18.1227 10.4371C18.0968 10.4755 18.0828 10.5207 18.0825 10.567V12.6468C18.0825 13.1949 17.8648 13.7206 17.4772 14.1082C17.0896 14.4958 16.5639 14.7135 16.0158 14.7135C15.4677 14.7135 14.942 14.4958 14.5544 14.1082C14.1668 13.7206 13.9491 13.1949 13.9491 12.6468V9.12383C13.9336 8.90756 13.9336 8.69045 13.9491 8.47418C13.9902 7.88039 14.1989 7.31043 14.5508 6.83041C15.0378 6.22008 15.7367 5.81539 16.5085 5.69678H16.5652L20.5721 5.73602C20.6878 5.73602 20.7987 5.78196 20.8804 5.86372C20.9622 5.94549 21.0081 6.05639 21.0081 6.17203C21.0081 6.28767 20.9622 6.39857 20.8804 6.48034C20.7987 6.56211 20.6878 6.60804 20.5721 6.60804L16.6001 6.5688C16.0844 6.67423 15.6217 6.95645 15.292 7.3667C15.035 7.7181 14.8837 8.13562 14.856 8.5701C14.8403 8.74997 14.8403 8.93088 14.856 9.11075V12.6381C14.8528 12.937 14.9631 13.2261 15.1645 13.447C15.366 13.6678 15.6437 13.8042 15.9417 13.8284C16.1099 13.838 16.2782 13.8124 16.4359 13.753C16.5936 13.6937 16.7372 13.6021 16.8573 13.484C17.0784 13.2629 17.2037 12.9638 17.2061 12.6512V10.567C17.2051 10.3478 17.2693 10.1333 17.3908 9.95077C17.5122 9.76825 17.6852 9.62605 17.8878 9.54231C18.0904 9.45856 18.3133 9.43707 18.5281 9.48057C18.743 9.52408 18.94 9.63061 19.094 9.78657L25.7607 16.4445C25.9583 16.644 26.1133 16.8818 26.216 17.1432C26.3187 17.4046 26.367 17.6843 26.3581 17.965C26.3491 18.2457 26.283 18.5217 26.1638 18.776C26.0446 19.0304 25.8748 19.2577 25.6648 19.4442C25.2966 19.7705 24.8224 19.9518 24.3306 19.9544Z" fill="#0D257B" stroke="#0D257B" stroke-width="1.0755"/>
<path d="M21.8959 22.2787C21.3379 22.2775 20.8031 22.0548 20.4091 21.6596L19.7377 20.9881C19.6662 20.9047 19.6289 20.7974 19.6331 20.6877C19.6374 20.5779 19.6829 20.4739 19.7605 20.3962C19.8382 20.3185 19.9423 20.2731 20.052 20.2688C20.1617 20.2646 20.269 20.3019 20.3524 20.3733L21.0239 21.0448C21.1341 21.1769 21.2706 21.2846 21.4247 21.3611C21.5788 21.4375 21.7471 21.481 21.919 21.4887C22.0908 21.4965 22.2624 21.4684 22.4228 21.4062C22.5832 21.3439 22.7288 21.249 22.8505 21.1273C22.9721 21.0057 23.0671 20.86 23.1293 20.6997C23.1915 20.5393 23.2197 20.3677 23.2119 20.1958C23.2041 20.024 23.1606 19.8556 23.0842 19.7015C23.0078 19.5474 22.9001 19.4109 22.7679 19.3007L22.0965 18.6293C22.0251 18.5459 21.9877 18.4386 21.992 18.3289C21.9962 18.2191 22.0417 18.115 22.1193 18.0374C22.197 17.9597 22.3011 17.9142 22.4108 17.91C22.5206 17.9058 22.6278 17.9431 22.7113 18.0145L23.3827 18.686C23.6759 18.9813 23.8753 19.3568 23.9557 19.7651C24.0361 20.1735 23.9939 20.5965 23.8346 20.9809C23.6752 21.3654 23.4057 21.6941 23.06 21.9258C22.7142 22.1575 22.3077 22.2818 21.8916 22.2831L21.8959 22.2787Z" fill="#0D257B" stroke="#0D257B" stroke-width="1.0755"/>
<path d="M19.5355 24.6395C19.259 24.6396 18.9853 24.585 18.7301 24.4787C18.4749 24.3724 18.2433 24.2167 18.0487 24.0204C17.9675 23.9387 17.9219 23.8282 17.9219 23.713C17.9219 23.5978 17.9675 23.4873 18.0487 23.4056C18.1304 23.3244 18.2409 23.2788 18.3561 23.2788C18.4712 23.2788 18.5817 23.3244 18.6634 23.4056C18.9008 23.6036 19.2036 23.7056 19.5124 23.6916C19.8212 23.6777 20.1135 23.5488 20.3321 23.3302C20.5506 23.1117 20.6796 22.8193 20.6935 22.5105C20.7075 22.2017 20.6054 21.8989 20.4075 21.6616L19.7404 20.9857C19.669 20.9023 19.6316 20.795 19.6359 20.6853C19.6401 20.5756 19.6856 20.4715 19.7633 20.3938C19.8409 20.3162 19.945 20.2707 20.0547 20.2664C20.1645 20.2622 20.2718 20.2995 20.3552 20.371L21.0266 21.0424C21.3198 21.3378 21.5192 21.7132 21.5996 22.1216C21.68 22.5299 21.6379 22.9529 21.4785 23.3374C21.3191 23.7218 21.0496 24.0506 20.7039 24.2823C20.3582 24.514 19.9516 24.6382 19.5355 24.6395Z" fill="#0D257B" stroke="#0D257B" stroke-width="1.0755"/>
<path d="M17.1635 26.9998C16.8871 26.9997 16.6135 26.9449 16.3583 26.8387C16.1032 26.7324 15.8715 26.5768 15.6767 26.3807L14.7611 25.4869C14.6897 25.4035 14.6523 25.2962 14.6566 25.1864C14.6608 25.0767 14.7063 24.9726 14.784 24.895C14.8616 24.8173 14.9657 24.7718 15.0754 24.7676C15.1852 24.7633 15.2925 24.8007 15.3759 24.8721L16.2741 25.7703C16.5114 25.9682 16.8142 26.0703 17.123 26.0563C17.4318 26.0424 17.7242 25.9134 17.9427 25.6949C18.1613 25.4763 18.2902 25.184 18.3041 24.8752C18.3181 24.5664 18.2161 24.2636 18.0181 24.0262C17.9369 23.9445 17.8913 23.834 17.8913 23.7188C17.8913 23.6037 17.9369 23.4932 18.0181 23.4115C18.0998 23.3303 18.2103 23.2847 18.3255 23.2847C18.4407 23.2847 18.5512 23.3303 18.6329 23.4115C18.9219 23.7059 19.1183 24.0786 19.1978 24.4835C19.2772 24.8884 19.2363 25.3077 19.0799 25.6895C18.9236 26.0714 18.6587 26.399 18.3181 26.6319C17.9775 26.8648 17.5761 26.9927 17.1635 26.9998Z" fill="#0D257B" stroke="#0D257B" stroke-width="1.0755"/>
<path d="M13.5324 26.492C12.9783 26.4922 12.4468 26.2727 12.0543 25.8816C11.6643 25.4894 11.4453 24.9588 11.4453 24.4057C11.4453 23.8525 11.6643 23.3219 12.0543 22.9298L13.1182 21.8659C13.312 21.6715 13.5422 21.5172 13.7957 21.4118C14.0491 21.3063 14.3209 21.2519 14.5954 21.2515C14.8699 21.2511 15.1418 21.3047 15.3955 21.4094C15.6493 21.5141 15.88 21.6677 16.0744 21.8615C16.2688 22.0553 16.4231 22.2856 16.5285 22.539C16.6339 22.7925 16.6884 23.0642 16.6888 23.3387C16.6892 23.6132 16.6355 23.8851 16.5308 24.1389C16.4262 24.3926 16.2725 24.6233 16.0787 24.8177L15.0105 25.8816C14.8167 26.076 14.5863 26.2301 14.3326 26.3348C14.0789 26.4396 13.8069 26.493 13.5324 26.492ZM12.6604 25.2668C12.889 25.4931 13.1977 25.6201 13.5193 25.6201C13.841 25.6201 14.1497 25.4931 14.3783 25.2668L15.4421 24.1986C15.5651 24.0881 15.6642 23.9538 15.7335 23.8038C15.8028 23.6539 15.8409 23.4913 15.8453 23.3261C15.8497 23.161 15.8204 22.9966 15.7593 22.8431C15.6981 22.6896 15.6063 22.5502 15.4894 22.4334C15.3726 22.3166 15.2332 22.2247 15.0797 22.1636C14.9262 22.1024 14.7619 22.0731 14.5967 22.0775C14.4315 22.082 14.269 22.12 14.119 22.1893C13.969 22.2586 13.8347 22.3577 13.7243 22.4807L12.6604 23.5445C12.5438 23.6579 12.4512 23.7935 12.3879 23.9433C12.3247 24.093 12.2921 24.254 12.2921 24.4166C12.2921 24.5791 12.3247 24.7401 12.3879 24.8899C12.4512 25.0396 12.5438 25.1752 12.6604 25.2886V25.2668Z" fill="#0D257B" stroke="#0D257B" stroke-width="1.0755"/>
<path d="M10.8814 24.4667C10.6077 24.4667 10.3367 24.4128 10.0838 24.3081C9.83098 24.2033 9.60122 24.0498 9.40769 23.8563C9.01657 23.4647 8.79688 22.9339 8.79688 22.3804C8.79688 21.8269 9.01657 21.2961 9.40769 20.9045L10.7811 19.5311C10.9724 19.326 11.2029 19.1616 11.4591 19.0476C11.7152 18.9336 11.9917 18.8724 12.272 18.8675C12.5524 18.8626 12.8308 18.9143 13.0908 19.0193C13.3507 19.1243 13.5868 19.2806 13.7851 19.4789C13.9833 19.6771 14.1396 19.9133 14.2447 20.1732C14.3497 20.4332 14.4013 20.7116 14.3965 20.9919C14.3916 21.2723 14.3304 21.5487 14.2164 21.8049C14.1024 22.061 13.9379 22.2916 13.7329 22.4829L12.3595 23.8563C12.1654 24.0503 11.935 24.2042 11.6813 24.3089C11.4277 24.4137 11.1558 24.4673 10.8814 24.4667ZM12.2549 19.7927C12.0933 19.7907 11.933 19.8209 11.7833 19.8815C11.6336 19.9422 11.4975 20.032 11.3828 20.1458L10.0094 21.5193C9.89391 21.6332 9.80221 21.769 9.73963 21.9187C9.67705 22.0684 9.64482 22.229 9.64482 22.3913C9.64482 22.5535 9.67705 22.7142 9.73963 22.8639C9.80221 23.0136 9.89391 23.1493 10.0094 23.2633C10.2387 23.4899 10.5481 23.617 10.8705 23.617C11.1929 23.617 11.5023 23.4899 11.7316 23.2633L13.1007 21.8899C13.2711 21.719 13.3869 21.5012 13.4332 21.2644C13.4795 21.0275 13.4543 20.7822 13.3609 20.5597C13.2674 20.3372 13.1098 20.1475 12.9082 20.0148C12.7066 19.8821 12.47 19.8123 12.2287 19.8145L12.2549 19.7927Z" fill="#0D257B" stroke="#0D257B" stroke-width="1.0755"/>
<path d="M8.22735 22.4384C7.81481 22.438 7.4116 22.3155 7.06861 22.0863C6.72562 21.857 6.4582 21.5314 6.30009 21.1503C6.14199 20.7693 6.10027 20.3499 6.18021 19.9452C6.26015 19.5405 6.45816 19.1685 6.74927 18.8762L8.43228 17.1932C8.62353 16.9881 8.85409 16.8237 9.11024 16.7097C9.36638 16.5957 9.64286 16.5345 9.92319 16.5296C10.2035 16.5247 10.482 16.5764 10.7419 16.6814C11.0018 16.7864 11.238 16.9428 11.4362 17.141C11.6345 17.3393 11.7908 17.5754 11.8958 17.8353C12.0009 18.0953 12.0525 18.3737 12.0476 18.654C12.0428 18.9344 11.9815 19.2109 11.8675 19.467C11.7535 19.7231 11.5891 19.9537 11.3841 20.145L9.70543 21.828C9.31296 22.2191 8.78142 22.4386 8.22735 22.4384ZM9.91036 17.4548C9.7489 17.4533 9.58875 17.4837 9.4391 17.5443C9.28944 17.6049 9.15325 17.6945 9.03833 17.8079L7.35969 19.4909C7.13188 19.7216 7.00505 20.0334 7.00709 20.3576C7.00914 20.6818 7.13989 20.9919 7.37059 21.2197C7.60128 21.4475 7.91303 21.5744 8.23724 21.5723C8.56145 21.5703 8.87157 21.4395 9.09938 21.2088L10.7824 19.5302C10.9528 19.3593 11.0686 19.1415 11.1149 18.9047C11.1612 18.6678 11.136 18.4225 11.0425 18.2C10.949 17.9775 10.7915 17.7878 10.5898 17.6551C10.3882 17.5224 10.1517 17.4527 9.91036 17.4548Z" fill="#0D257B" stroke="#0D257B" stroke-width="1.0755"/>
<path d="M6.51296 19.4857C6.09952 19.4862 5.69522 19.364 5.3513 19.1346C5.00737 18.9051 4.73928 18.5787 4.581 18.1968C4.42271 17.8149 4.38135 17.3945 4.46215 16.9891C4.54295 16.5836 4.74227 16.2112 5.03488 15.9191L6.09875 14.8553C6.28999 14.6503 6.52056 14.4858 6.77671 14.3718C7.03285 14.2578 7.30933 14.1966 7.58966 14.1917C7.86998 14.1869 8.14842 14.2385 8.40837 14.3435C8.66832 14.4486 8.90445 14.6049 9.1027 14.8031C9.30095 15.0014 9.45726 15.2375 9.5623 15.4974C9.66734 15.7574 9.71896 16.0358 9.7141 16.3162C9.70923 16.5965 9.64797 16.873 9.53397 17.1291C9.41997 17.3853 9.25556 17.6158 9.05055 17.8071L7.98668 18.8753C7.79315 19.0688 7.56339 19.2223 7.31053 19.3271C7.05767 19.4318 6.78665 19.4857 6.51296 19.4857ZM7.57683 15.1256C7.41483 15.1229 7.25398 15.1533 7.10407 15.2147C6.95416 15.2762 6.81831 15.3675 6.7048 15.4831L5.64965 16.5339C5.53514 16.647 5.44402 16.7815 5.38149 16.9298C5.31897 17.0781 5.28627 17.2373 5.28526 17.3982C5.28424 17.5592 5.31494 17.7187 5.37559 17.8678C5.43625 18.0169 5.52567 18.1525 5.63875 18.2671C5.75184 18.3816 5.88637 18.4727 6.03467 18.5352C6.18297 18.5977 6.34213 18.6304 6.50307 18.6315C6.66401 18.6325 6.82357 18.6018 6.97264 18.5411C7.12172 18.4805 7.25738 18.391 7.3719 18.278L8.43577 17.2141C8.6062 17.0432 8.72194 16.8255 8.76827 16.5886C8.81459 16.3517 8.7894 16.1064 8.69591 15.8839C8.60241 15.6614 8.44484 15.4717 8.24323 15.339C8.04162 15.2063 7.8051 15.1366 7.56375 15.1387L7.57683 15.1256Z" fill="#0D257B" stroke="#0D257B" stroke-width="1.0755"/>
<path d="M6.15612 15.8591C6.05826 15.8627 5.96203 15.8333 5.88293 15.7755C5.80384 15.7178 5.74648 15.6351 5.72011 15.5408C5.47191 14.6371 5.46829 13.6837 5.70961 12.7781C5.95094 11.8726 6.42854 11.0474 7.09354 10.3871L9.9625 7.52688C10.6228 6.86461 11.476 6.42856 12.3995 6.28129C13.3231 6.13402 14.2695 6.28312 15.1031 6.70718C15.159 6.73536 15.2082 6.77526 15.2473 6.82417C15.2865 6.87307 15.3146 6.92983 15.3298 6.99058C15.3453 7.05234 15.3471 7.11674 15.3351 7.17926C15.323 7.24178 15.2974 7.30091 15.2601 7.35247C15.0028 7.70702 14.8516 8.12739 14.824 8.56459C14.8196 8.62191 14.8039 8.6778 14.7779 8.72903C14.7518 8.78027 14.7158 8.82584 14.672 8.86312C14.6283 8.9004 14.5776 8.92866 14.5228 8.94627C14.4681 8.96388 14.4104 8.97049 14.3531 8.96572C14.2958 8.96079 14.24 8.94456 14.189 8.91796C14.1379 8.89136 14.0927 8.85492 14.0558 8.81074C14.0189 8.76656 13.9911 8.71551 13.9741 8.66054C13.957 8.60557 13.951 8.54777 13.9564 8.49047C13.9871 8.07729 14.0951 7.67354 14.2747 7.30015C13.6424 7.07788 12.9601 7.03895 12.3067 7.18785C11.6532 7.33675 11.0552 7.66741 10.5816 8.14166L7.71704 11.0063C7.16561 11.5591 6.77027 12.2481 6.57117 13.0031C6.37207 13.7582 6.37629 14.5524 6.58341 15.3053C6.6143 15.4163 6.6 15.5351 6.54363 15.6355C6.48725 15.736 6.39339 15.8101 6.28256 15.8416C6.24176 15.8548 6.19896 15.8607 6.15612 15.8591ZM24.1591 15.9027C24.0679 15.9003 23.9798 15.8694 23.9071 15.8143C23.8344 15.7593 23.7808 15.6828 23.7538 15.5957C23.7269 15.5086 23.7279 15.4152 23.7568 15.3287C23.7857 15.2422 23.841 15.1669 23.9149 15.1135C25.6589 13.8403 25.393 11.5033 25.3886 11.4771C25.382 11.4199 25.3868 11.3619 25.4026 11.3065C25.4184 11.2511 25.445 11.1993 25.4809 11.1542C25.5167 11.109 25.5611 11.0714 25.6114 11.0434C25.6618 11.0154 25.7172 10.9976 25.7745 10.991C25.8317 10.9844 25.8897 10.9892 25.9452 11.005C26.0006 11.0208 26.0523 11.0474 26.0975 11.0832C26.1426 11.1191 26.1803 11.1634 26.2083 11.2138C26.2363 11.2642 26.2541 11.3196 26.2606 11.3769C26.2606 11.4902 26.5789 14.2371 24.4337 15.8155C24.3547 15.8748 24.2579 15.9056 24.1591 15.9027Z" fill="#0D257B" stroke="#0D257B" stroke-width="1.0755"/>
<path d="M3.94769 13.9924C3.45573 13.9874 2.98563 13.7884 2.63965 13.4386L1.36214 12.1742C1.01015 11.8211 0.8125 11.3429 0.8125 10.8444C0.8125 10.3458 1.01015 9.86759 1.36214 9.51452L8.96183 1.92355C9.31564 1.5713 9.79458 1.37354 10.2938 1.37354C10.7931 1.37354 11.2721 1.5713 11.6259 1.92355L12.8772 3.17927C13.0526 3.35351 13.1917 3.56071 13.2866 3.78894C13.3816 4.01716 13.4305 4.26191 13.4305 4.5091C13.4305 4.75629 13.3816 5.00104 13.2866 5.22927C13.1917 5.4575 13.0526 5.6647 12.8772 5.83894L5.28189 13.4386C5.10731 13.6148 4.89945 13.7544 4.6704 13.8495C4.44135 13.9446 4.19568 13.9931 3.94769 13.9924ZM10.2917 2.2462C10.1594 2.24587 10.0285 2.27192 9.90644 2.32283C9.78441 2.37374 9.67376 2.44849 9.58097 2.54269L1.98128 10.138C1.7917 10.3277 1.68521 10.5849 1.68521 10.8531C1.68521 11.1213 1.7917 11.3785 1.98128 11.5681L3.23699 12.8239C3.42916 13.007 3.68442 13.1091 3.94987 13.1091C4.21532 13.1091 4.47059 13.007 4.66275 12.8239L12.2624 5.22416C12.452 5.03448 12.5585 4.77728 12.5585 4.5091C12.5585 4.24093 12.452 3.98373 12.2624 3.79404L11.0067 2.54269C10.9134 2.44796 10.8021 2.37291 10.6792 2.32199C10.5564 2.27106 10.4246 2.24529 10.2917 2.2462Z" fill="#0D257B" stroke="#0D257B" stroke-width="1.0755"/>
</svg>
