<svg width="20" height="18" viewBox="0 0 20 18" fill="none" xmlns="http://www.w3.org/2000/svg">
<path fill-rule="evenodd" clip-rule="evenodd" d="M9.09004 0.635133C9.39875 0.712478 9.66409 0.909284 9.82769 1.18226C9.9913 1.45524 10.0398 1.78202 9.96244 2.09073L9.43444 4.19913H12.9624L13.6344 1.50753C13.6718 1.3537 13.7393 1.20878 13.8329 1.08113C13.9265 0.953474 14.0445 0.845606 14.18 0.763739C14.3154 0.681872 14.4658 0.627624 14.6224 0.60412C14.7789 0.580616 14.9386 0.588321 15.0921 0.626791C15.2457 0.66526 15.3901 0.733734 15.5171 0.828268C15.6441 0.922802 15.7511 1.04153 15.832 1.1776C15.9129 1.31368 15.9661 1.46442 15.9885 1.62114C16.0108 1.77785 16.002 1.93745 15.9624 2.09073L15.4344 4.19913H18.3984C18.7167 4.19913 19.0219 4.32556 19.247 4.55061C19.472 4.77565 19.5984 5.08087 19.5984 5.39913C19.5984 5.71739 19.472 6.02262 19.247 6.24766C19.0219 6.4727 18.7167 6.59913 18.3984 6.59913H14.8344L13.6344 11.3991H15.9984C16.3167 11.3991 16.6219 11.5256 16.847 11.7506C17.072 11.9756 17.1984 12.2809 17.1984 12.5991C17.1984 12.9174 17.072 13.2226 16.847 13.4477C16.6219 13.6727 16.3167 13.7991 15.9984 13.7991H13.0344L12.3624 16.4895C12.3265 16.6447 12.2599 16.7912 12.1667 16.9204C12.0735 17.0496 11.9555 17.159 11.8196 17.2421C11.6837 17.3253 11.5326 17.3805 11.3752 17.4046C11.2177 17.4288 11.057 17.4213 10.9024 17.3827C10.7478 17.344 10.6025 17.275 10.4749 17.1796C10.3473 17.0842 10.24 16.9644 10.1592 16.827C10.0784 16.6897 10.0258 16.5377 10.0043 16.3798C9.98293 16.222 9.99315 16.0614 10.0344 15.9075L10.5624 13.7991H7.03444L6.36244 16.4895C6.32645 16.6447 6.25992 16.7912 6.16673 16.9204C6.07354 17.0496 5.95555 17.159 5.81964 17.2421C5.68373 17.3253 5.53263 17.3805 5.37515 17.4046C5.21767 17.4288 5.05697 17.4213 4.90241 17.3827C4.74785 17.344 4.60253 17.275 4.47493 17.1796C4.34733 17.0842 4.24 16.9644 4.1592 16.827C4.07841 16.6897 4.02577 16.5377 4.00435 16.3798C3.98292 16.222 3.99315 16.0614 4.03444 15.9075L4.56244 13.7991H1.59844C1.28018 13.7991 0.974953 13.6727 0.749909 13.4477C0.524866 13.2226 0.398438 12.9174 0.398438 12.5991C0.398438 12.2809 0.524866 11.9756 0.749909 11.7506C0.974953 11.5256 1.28018 11.3991 1.59844 11.3991H5.16244L6.36244 6.59913H3.99844C3.68018 6.59913 3.37495 6.4727 3.14991 6.24766C2.92487 6.02262 2.79844 5.71739 2.79844 5.39913C2.79844 5.08087 2.92487 4.77565 3.14991 4.55061C3.37495 4.32556 3.68018 4.19913 3.99844 4.19913H6.96244L7.63444 1.50753C7.71178 1.19883 7.90859 0.933485 8.18156 0.769879C8.45454 0.606274 8.78133 0.557805 9.09004 0.635133ZM8.83444 6.59913L7.63444 11.3991H11.16L12.36 6.59913H8.83444Z" fill="#323232"/>
</svg>
