<svg width="1920" height="666" viewBox="0 0 1920 666" fill="none" xmlns="http://www.w3.org/2000/svg">
<g clip-path="url(#clip0_10306_20448)">
<rect width="1920" height="666" fill="#0D257B"/>
<g opacity="0.1" clip-path="url(#clip1_10306_20448)">
<path d="M608.83 665.73V588.14L676.03 549.34L743.23 588.14V665.73L676.03 704.53L608.83 665.73Z" fill="#E4E8F3"/>
<path d="M474.432 665.73V588.14L541.632 549.34L608.832 588.14V665.73L541.632 704.53L474.432 665.73Z" fill="#6D6D6D"/>
<path d="M541.631 548.4V470.8L608.831 432L676.031 470.8V548.4L608.831 587.2L541.631 548.4Z" fill="white"/>
<path d="M162.432 470.8V393.21L229.632 354.41L296.832 393.21V470.8L229.632 509.6L162.432 470.8Z" fill="white"/>
<path d="M296.83 393.211V315.611L364.03 276.811L431.23 315.611V393.211L364.03 432.001L296.83 393.211Z" fill="#6D6D6D"/>
<path d="M202.012 148.8V95.9801L247.752 69.5801L293.492 95.9801V148.8L247.752 175.21L202.012 148.8Z" fill="white"/>
<path d="M339.75 108.8V55.9801L385.49 29.5801L431.23 55.9801V108.8L385.49 135.21L339.75 108.8Z" stroke="#CC922F" stroke-width="3" stroke-miterlimit="10"/>
<path d="M572.832 325.561V283.991L608.832 263.211L644.832 283.991V325.561L608.832 346.351L572.832 325.561Z" fill="#E4E8F3"/>
<path d="M648.402 215.58V194.8L666.402 184.41L684.402 194.8V215.58L666.402 225.98L648.402 215.58Z" fill="white"/>
<path d="M620.661 289.621V236.801L666.401 210.391L712.141 236.801V289.621L666.401 316.021L620.661 289.621Z" stroke="#CC922F" stroke-width="3" stroke-miterlimit="10"/>
<path d="M312.72 335.05V275.8L364.03 246.18L415.34 275.8V335.05L364.03 364.67L312.72 335.05Z" stroke="#CC922F" stroke-width="3" stroke-miterlimit="10"/>
<path d="M364.027 424.45V365.21L415.337 335.59L466.637 365.21V424.45L415.337 454.08L364.027 424.45Z" stroke="#CC922F" stroke-width="3" stroke-miterlimit="10"/>
<path d="M261.417 424.45V365.21L312.717 335.59L364.027 365.21V424.45L312.717 454.08L261.417 424.45Z" stroke="#CC922F" stroke-width="3" stroke-miterlimit="10"/>
<path d="M415.339 514.19V454.95L466.639 425.33L517.949 454.95V514.19L466.639 543.81L415.339 514.19Z" stroke="#CC922F" stroke-width="3" stroke-miterlimit="10"/>
<path d="M312.72 514.19V454.95L364.03 425.33L415.34 454.95V514.19L364.03 543.81L312.72 514.19Z" stroke="#CC922F" stroke-width="3" stroke-miterlimit="10"/>
<path d="M210.109 514.19V454.95L261.419 425.33L312.719 454.95V514.19L261.419 543.81L210.109 514.19Z" stroke="#CC922F" stroke-width="3" stroke-miterlimit="10"/>
<path d="M466.638 602.911V543.671L517.948 514.051L569.258 543.671V602.911L517.948 632.541L466.638 602.911Z" stroke="#CC922F" stroke-width="3" stroke-miterlimit="10"/>
<path d="M364.027 602.911V543.671L415.337 514.051L466.637 543.671V602.911L415.337 632.541L364.027 602.911Z" stroke="#CC922F" stroke-width="3" stroke-miterlimit="10"/>
<path d="M261.417 602.911V543.671L312.717 514.051L364.027 543.671V602.911L312.717 632.541L261.417 602.911Z" stroke="#CC922F" stroke-width="3" stroke-miterlimit="10"/>
<path d="M158.798 602.911V543.671L210.108 514.051L261.418 543.671V602.911L210.108 632.541L158.798 602.911Z" stroke="#CC922F" stroke-width="3" stroke-miterlimit="10"/>
<path d="M517.949 691.579V632.339L569.259 602.719L620.559 632.339V691.579L569.259 721.209L517.949 691.579Z" stroke="#CC922F" stroke-width="3" stroke-miterlimit="10"/>
<path d="M415.339 691.579V632.339L466.639 602.719L517.949 632.339V691.579L466.639 721.209L415.339 691.579Z" stroke="#CC922F" stroke-width="3" stroke-miterlimit="10"/>
<path d="M312.72 691.579V632.339L364.03 602.719L415.34 632.339V691.579L364.03 721.209L312.72 691.579Z" stroke="#CC922F" stroke-width="3" stroke-miterlimit="10"/>
<path d="M210.109 691.579V632.339L261.419 602.719L312.719 632.339V691.579L261.419 721.209L210.109 691.579Z" stroke="#CC922F" stroke-width="3" stroke-miterlimit="10"/>
<path d="M107.499 691.579V632.339L158.799 602.719L210.109 632.339V691.579L158.799 721.209L107.499 691.579Z" stroke="#CC922F" stroke-width="3" stroke-miterlimit="10"/>
</g>
<g opacity="0.1" clip-path="url(#clip2_10306_20448)">
<path d="M1623.83 665.73V588.14L1691.03 549.34L1758.23 588.14V665.73L1691.03 704.53L1623.83 665.73Z" fill="#95A6CD"/>
<path d="M1489.43 665.73V588.14L1556.63 549.34L1623.83 588.14V665.73L1556.63 704.53L1489.43 665.73Z" fill="#4C67A5"/>
<path d="M1556.63 548.4V470.8L1623.83 432L1691.03 470.8V548.4L1623.83 587.2L1556.63 548.4Z" fill="#0D257B"/>
<path d="M1177.43 470.8V393.21L1244.63 354.41L1311.83 393.21V470.8L1244.63 509.6L1177.43 470.8Z" fill="#0D257B"/>
<path d="M1311.83 393.211V315.611L1379.03 276.811L1446.23 315.611V393.211L1379.03 432.001L1311.83 393.211Z" fill="#4C67A5"/>
<path d="M1217.01 148.8V95.9801L1262.75 69.5801L1308.49 95.9801V148.8L1262.75 175.21L1217.01 148.8Z" fill="#0D257B"/>
<path d="M1354.75 108.8V55.9801L1400.49 29.5801L1446.23 55.9801V108.8L1400.49 135.21L1354.75 108.8Z" stroke="#213C89" stroke-width="2" stroke-miterlimit="10"/>
<path d="M1587.83 325.561V283.991L1623.83 263.211L1659.83 283.991V325.561L1623.83 346.351L1587.83 325.561Z" fill="#95A6CD"/>
<path d="M1458 137.493V80.4931L1507.5 52L1557 80.4931V137.493L1507.5 166L1458 137.493Z" fill="#95A6CD"/>
<path d="M1663.4 215.58V194.8L1681.4 184.41L1699.4 194.8V215.58L1681.4 225.98L1663.4 215.58Z" fill="#0D257B"/>
<path d="M1635.66 289.621V236.801L1681.4 210.391L1727.14 236.801V289.621L1681.4 316.021L1635.66 289.621Z" stroke="#213C89" stroke-width="2" stroke-miterlimit="10"/>
<path d="M1327.72 335.05V275.8L1379.03 246.18L1430.34 275.8V335.05L1379.03 364.67L1327.72 335.05Z" stroke="#213C89" stroke-width="2" stroke-miterlimit="10"/>
<path d="M1379.03 424.45V365.21L1430.34 335.59L1481.64 365.21V424.45L1430.34 454.08L1379.03 424.45Z" stroke="#213C89" stroke-width="2" stroke-miterlimit="10"/>
<path d="M1276.42 424.45V365.21L1327.72 335.59L1379.03 365.21V424.45L1327.72 454.08L1276.42 424.45Z" stroke="#213C89" stroke-width="2" stroke-miterlimit="10"/>
<path d="M1430.34 514.19V454.95L1481.64 425.33L1532.95 454.95V514.19L1481.64 543.81L1430.34 514.19Z" stroke="#213C89" stroke-width="2" stroke-miterlimit="10"/>
<path d="M1327.72 514.19V454.95L1379.03 425.33L1430.34 454.95V514.19L1379.03 543.81L1327.72 514.19Z" stroke="#213C89" stroke-width="2" stroke-miterlimit="10"/>
<path d="M1225.11 514.19V454.95L1276.42 425.33L1327.72 454.95V514.19L1276.42 543.81L1225.11 514.19Z" stroke="#213C89" stroke-width="2" stroke-miterlimit="10"/>
<path d="M1481.64 602.911V543.671L1532.95 514.051L1584.26 543.671V602.911L1532.95 632.541L1481.64 602.911Z" stroke="#213C89" stroke-width="2" stroke-miterlimit="10"/>
<path d="M1379.03 602.911V543.671L1430.34 514.051L1481.64 543.671V602.911L1430.34 632.541L1379.03 602.911Z" stroke="#213C89" stroke-width="2" stroke-miterlimit="10"/>
<path d="M1276.42 602.911V543.671L1327.72 514.051L1379.03 543.671V602.911L1327.72 632.541L1276.42 602.911Z" stroke="#213C89" stroke-width="2" stroke-miterlimit="10"/>
<path d="M1173.8 602.911V543.671L1225.11 514.051L1276.42 543.671V602.911L1225.11 632.541L1173.8 602.911Z" stroke="#213C89" stroke-width="2" stroke-miterlimit="10"/>
<path d="M1532.95 691.579V632.339L1584.26 602.719L1635.56 632.339V691.579L1584.26 721.209L1532.95 691.579Z" stroke="#213C89" stroke-width="2" stroke-miterlimit="10"/>
<path d="M1430.34 691.579V632.339L1481.64 602.719L1532.95 632.339V691.579L1481.64 721.209L1430.34 691.579Z" stroke="#213C89" stroke-width="2" stroke-miterlimit="10"/>
<path d="M1327.72 691.579V632.339L1379.03 602.719L1430.34 632.339V691.579L1379.03 721.209L1327.72 691.579Z" stroke="#213C89" stroke-width="2" stroke-miterlimit="10"/>
<path d="M1225.11 691.579V632.339L1276.42 602.719L1327.72 632.339V691.579L1276.42 721.209L1225.11 691.579Z" stroke="#213C89" stroke-width="2" stroke-miterlimit="10"/>
<path d="M1122.5 691.579V632.339L1173.8 602.719L1225.11 632.339V691.579L1173.8 721.209L1122.5 691.579Z" stroke="#213C89" stroke-width="2" stroke-miterlimit="10"/>
</g>
</g>
<defs>
<clipPath id="clip0_10306_20448">
<rect width="1920" height="666" fill="white"/>
</clipPath>
<clipPath id="clip1_10306_20448">
<rect width="636.23" height="692.78" fill="white" transform="matrix(-1 0 0 1 743.23 29)"/>
</clipPath>
<clipPath id="clip2_10306_20448">
<rect width="636.23" height="692.78" fill="white" transform="matrix(-1 0 0 1 1758.23 29)"/>
</clipPath>
</defs>
</svg>
