<svg width="345" height="199" viewBox="0 0 345 199" fill="none" xmlns="http://www.w3.org/2000/svg">
<g filter="url(#filter0_d_7252_6250)">
<path d="M295 27H50C38.9543 27 30 35.9543 30 47V146C30 157.046 38.9543 166 50 166H295C306.046 166 315 157.046 315 146V47C315 35.9543 306.046 27 295 27Z" fill="#365297"/>
</g>
<g filter="url(#filter1_d_7252_6250)">
<path d="M271 68H74C68.4772 68 64 72.4772 64 78V116C64 121.523 68.4772 126 74 126H271C276.523 126 281 121.523 281 116V78C281 72.4772 276.523 68 271 68Z" fill="white"/>
</g>
<path d="M124.162 92V82.2H128.614C129.678 82.2 130.616 82.4053 131.428 82.816C132.24 83.2173 132.875 83.782 133.332 84.51C133.789 85.238 134.018 86.1013 134.018 87.1C134.018 88.0893 133.789 88.9527 133.332 89.69C132.875 90.418 132.24 90.9873 131.428 91.398C130.616 91.7993 129.678 92 128.614 92H124.162ZM126.43 90.138H128.502C129.155 90.138 129.72 90.0167 130.196 89.774C130.681 89.522 131.055 89.1673 131.316 88.71C131.587 88.2527 131.722 87.716 131.722 87.1C131.722 86.4747 131.587 85.938 131.316 85.49C131.055 85.0327 130.681 84.6827 130.196 84.44C129.72 84.188 129.155 84.062 128.502 84.062H126.43V90.138ZM139.158 92.112C138.356 92.112 137.642 91.944 137.016 91.608C136.4 91.272 135.91 90.8147 135.546 90.236C135.192 89.648 135.014 88.9807 135.014 88.234C135.014 87.478 135.192 86.8107 135.546 86.232C135.91 85.644 136.4 85.1867 137.016 84.86C137.642 84.524 138.356 84.356 139.158 84.356C139.952 84.356 140.661 84.524 141.286 84.86C141.912 85.1867 142.402 85.6393 142.756 86.218C143.111 86.7967 143.288 87.4687 143.288 88.234C143.288 88.9807 143.111 89.648 142.756 90.236C142.402 90.8147 141.912 91.272 141.286 91.608C140.661 91.944 139.952 92.112 139.158 92.112ZM139.158 90.32C139.522 90.32 139.849 90.236 140.138 90.068C140.428 89.9 140.656 89.662 140.824 89.354C140.992 89.0367 141.076 88.6633 141.076 88.234C141.076 87.7953 140.992 87.422 140.824 87.114C140.656 86.806 140.428 86.568 140.138 86.4C139.849 86.232 139.522 86.148 139.158 86.148C138.794 86.148 138.468 86.232 138.178 86.4C137.889 86.568 137.656 86.806 137.478 87.114C137.31 87.422 137.226 87.7953 137.226 88.234C137.226 88.6633 137.31 89.0367 137.478 89.354C137.656 89.662 137.889 89.9 138.178 90.068C138.468 90.236 138.794 90.32 139.158 90.32ZM147.282 92.112C146.638 92.112 146.018 92.0373 145.42 91.888C144.832 91.7293 144.366 91.5333 144.02 91.3L144.748 89.732C145.094 89.9467 145.5 90.124 145.966 90.264C146.442 90.3947 146.909 90.46 147.366 90.46C147.87 90.46 148.225 90.3993 148.43 90.278C148.645 90.1567 148.752 89.9887 148.752 89.774C148.752 89.5967 148.668 89.466 148.5 89.382C148.342 89.2887 148.127 89.2187 147.856 89.172C147.586 89.1253 147.287 89.0787 146.96 89.032C146.643 88.9853 146.321 88.9247 145.994 88.85C145.668 88.766 145.369 88.6447 145.098 88.486C144.828 88.3273 144.608 88.1127 144.44 87.842C144.282 87.5713 144.202 87.2213 144.202 86.792C144.202 86.316 144.338 85.896 144.608 85.532C144.888 85.168 145.29 84.8833 145.812 84.678C146.335 84.4633 146.96 84.356 147.688 84.356C148.202 84.356 148.724 84.412 149.256 84.524C149.788 84.636 150.232 84.7993 150.586 85.014L149.858 86.568C149.494 86.3533 149.126 86.2087 148.752 86.134C148.388 86.05 148.034 86.008 147.688 86.008C147.203 86.008 146.848 86.0733 146.624 86.204C146.4 86.3347 146.288 86.5027 146.288 86.708C146.288 86.8947 146.368 87.0347 146.526 87.128C146.694 87.2213 146.914 87.296 147.184 87.352C147.455 87.408 147.749 87.4593 148.066 87.506C148.393 87.5433 148.72 87.604 149.046 87.688C149.373 87.772 149.667 87.8933 149.928 88.052C150.199 88.2013 150.418 88.4113 150.586 88.682C150.754 88.9433 150.838 89.2887 150.838 89.718C150.838 90.1847 150.698 90.6 150.418 90.964C150.138 91.3187 149.732 91.5987 149.2 91.804C148.678 92.0093 148.038 92.112 147.282 92.112ZM155.266 92.112C154.379 92.112 153.688 91.888 153.194 91.44C152.699 90.9827 152.452 90.306 152.452 89.41V82.802H154.636V89.382C154.636 89.6993 154.72 89.9467 154.888 90.124C155.056 90.292 155.284 90.376 155.574 90.376C155.919 90.376 156.213 90.2827 156.456 90.096L157.044 91.636C156.82 91.7947 156.549 91.916 156.232 92C155.924 92.0747 155.602 92.112 155.266 92.112ZM151.29 86.316V84.636H156.512V86.316H151.29ZM161.775 92.112C160.917 92.112 160.161 91.944 159.507 91.608C158.863 91.272 158.364 90.8147 158.009 90.236C157.655 89.648 157.477 88.9807 157.477 88.234C157.477 87.478 157.65 86.8107 157.995 86.232C158.35 85.644 158.831 85.1867 159.437 84.86C160.044 84.524 160.73 84.356 161.495 84.356C162.233 84.356 162.895 84.5147 163.483 84.832C164.081 85.14 164.552 85.588 164.897 86.176C165.243 86.7547 165.415 87.45 165.415 88.262C165.415 88.346 165.411 88.444 165.401 88.556C165.392 88.6587 165.383 88.7567 165.373 88.85H159.255V87.576H164.225L163.385 87.954C163.385 87.562 163.306 87.2213 163.147 86.932C162.989 86.6427 162.769 86.4187 162.489 86.26C162.209 86.092 161.883 86.008 161.509 86.008C161.136 86.008 160.805 86.092 160.515 86.26C160.235 86.4187 160.016 86.6473 159.857 86.946C159.699 87.2353 159.619 87.5807 159.619 87.982V88.318C159.619 88.7287 159.708 89.0927 159.885 89.41C160.072 89.718 160.329 89.956 160.655 90.124C160.991 90.2827 161.383 90.362 161.831 90.362C162.233 90.362 162.583 90.3013 162.881 90.18C163.189 90.0587 163.469 89.8767 163.721 89.634L164.883 90.894C164.538 91.286 164.104 91.5893 163.581 91.804C163.059 92.0093 162.457 92.112 161.775 92.112ZM170.509 92.112C169.697 92.112 168.974 91.9487 168.339 91.622C167.705 91.286 167.205 90.824 166.841 90.236C166.487 89.648 166.309 88.9807 166.309 88.234C166.309 87.478 166.487 86.8107 166.841 86.232C167.205 85.644 167.705 85.1867 168.339 84.86C168.974 84.524 169.697 84.356 170.509 84.356C171.303 84.356 171.993 84.524 172.581 84.86C173.169 85.1867 173.603 85.658 173.883 86.274L172.189 87.184C171.993 86.8293 171.746 86.568 171.447 86.4C171.158 86.232 170.841 86.148 170.495 86.148C170.122 86.148 169.786 86.232 169.487 86.4C169.189 86.568 168.951 86.806 168.773 87.114C168.605 87.422 168.521 87.7953 168.521 88.234C168.521 88.6727 168.605 89.046 168.773 89.354C168.951 89.662 169.189 89.9 169.487 90.068C169.786 90.236 170.122 90.32 170.495 90.32C170.841 90.32 171.158 90.2407 171.447 90.082C171.746 89.914 171.993 89.648 172.189 89.284L173.883 90.208C173.603 90.8147 173.169 91.286 172.581 91.622C171.993 91.9487 171.303 92.112 170.509 92.112ZM179.26 92V82.2H181.136L185.308 89.116H184.314L188.416 82.2H190.278L190.306 92H188.178L188.164 85.462H188.556L185.28 90.964H184.258L180.912 85.462H181.388V92H179.26ZM196.061 92.112C195.258 92.112 194.544 91.944 193.919 91.608C193.303 91.272 192.813 90.8147 192.449 90.236C192.094 89.648 191.917 88.9807 191.917 88.234C191.917 87.478 192.094 86.8107 192.449 86.232C192.813 85.644 193.303 85.1867 193.919 84.86C194.544 84.524 195.258 84.356 196.061 84.356C196.854 84.356 197.563 84.524 198.189 84.86C198.814 85.1867 199.304 85.6393 199.659 86.218C200.013 86.7967 200.191 87.4687 200.191 88.234C200.191 88.9807 200.013 89.648 199.659 90.236C199.304 90.8147 198.814 91.272 198.189 91.608C197.563 91.944 196.854 92.112 196.061 92.112ZM196.061 90.32C196.425 90.32 196.751 90.236 197.041 90.068C197.33 89.9 197.559 89.662 197.727 89.354C197.895 89.0367 197.979 88.6633 197.979 88.234C197.979 87.7953 197.895 87.422 197.727 87.114C197.559 86.806 197.33 86.568 197.041 86.4C196.751 86.232 196.425 86.148 196.061 86.148C195.697 86.148 195.37 86.232 195.081 86.4C194.791 86.568 194.558 86.806 194.381 87.114C194.213 87.422 194.129 87.7953 194.129 88.234C194.129 88.6633 194.213 89.0367 194.381 89.354C194.558 89.662 194.791 89.9 195.081 90.068C195.37 90.236 195.697 90.32 196.061 90.32ZM205.291 92.112C204.479 92.112 203.755 91.9487 203.121 91.622C202.486 91.286 201.987 90.824 201.623 90.236C201.268 89.648 201.091 88.9807 201.091 88.234C201.091 87.478 201.268 86.8107 201.623 86.232C201.987 85.644 202.486 85.1867 203.121 84.86C203.755 84.524 204.479 84.356 205.291 84.356C206.084 84.356 206.775 84.524 207.363 84.86C207.951 85.1867 208.385 85.658 208.665 86.274L206.971 87.184C206.775 86.8293 206.527 86.568 206.229 86.4C205.939 86.232 205.622 86.148 205.277 86.148C204.903 86.148 204.567 86.232 204.269 86.4C203.97 86.568 203.732 86.806 203.555 87.114C203.387 87.422 203.303 87.7953 203.303 88.234C203.303 88.6727 203.387 89.046 203.555 89.354C203.732 89.662 203.97 89.9 204.269 90.068C204.567 90.236 204.903 90.32 205.277 90.32C205.622 90.32 205.939 90.2407 206.229 90.082C206.527 89.914 206.775 89.648 206.971 89.284L208.665 90.208C208.385 90.8147 207.951 91.286 207.363 91.622C206.775 91.9487 206.084 92.112 205.291 92.112ZM211.687 90.46L211.743 87.8L215.257 84.468H217.861L214.487 87.898L213.353 88.822L211.687 90.46ZM209.881 92V81.612H212.065V92H209.881ZM215.495 92L212.947 88.836L214.319 87.142L218.141 92H215.495ZM219.624 94.828C219.232 94.828 218.845 94.7673 218.462 94.646C218.079 94.5247 217.767 94.3567 217.524 94.142L218.322 92.588C218.49 92.7373 218.681 92.854 218.896 92.938C219.12 93.022 219.339 93.064 219.554 93.064C219.862 93.064 220.105 92.9893 220.282 92.84C220.469 92.7 220.637 92.462 220.786 92.126L221.178 91.202L221.346 90.964L224.048 84.468H226.148L222.746 92.462C222.503 93.0687 222.223 93.5447 221.906 93.89C221.598 94.2353 221.253 94.478 220.87 94.618C220.497 94.758 220.081 94.828 219.624 94.828ZM220.912 92.294L217.552 84.468H219.806L222.41 90.768L220.912 92.294Z" fill="black"/>
<path d="M141.26 110V101.6H142.244L147.8 108.5H147.284V101.6H148.484V110H147.5L141.944 103.1H142.46V110H141.26ZM153.662 110.072C152.982 110.072 152.382 109.932 151.862 109.652C151.35 109.372 150.95 108.988 150.662 108.5C150.382 108.012 150.242 107.452 150.242 106.82C150.242 106.188 150.378 105.628 150.65 105.14C150.93 104.652 151.31 104.272 151.79 104C152.278 103.72 152.826 103.58 153.434 103.58C154.05 103.58 154.594 103.716 155.066 103.988C155.538 104.26 155.906 104.644 156.17 105.14C156.442 105.628 156.578 106.2 156.578 106.856C156.578 106.904 156.574 106.96 156.566 107.024C156.566 107.088 156.562 107.148 156.554 107.204H151.142V106.376H155.954L155.486 106.664C155.494 106.256 155.41 105.892 155.234 105.572C155.058 105.252 154.814 105.004 154.502 104.828C154.198 104.644 153.842 104.552 153.434 104.552C153.034 104.552 152.678 104.644 152.366 104.828C152.054 105.004 151.81 105.256 151.634 105.584C151.458 105.904 151.37 106.272 151.37 106.688V106.88C151.37 107.304 151.466 107.684 151.658 108.02C151.858 108.348 152.134 108.604 152.486 108.788C152.838 108.972 153.242 109.064 153.698 109.064C154.074 109.064 154.414 109 154.718 108.872C155.03 108.744 155.302 108.552 155.534 108.296L156.17 109.04C155.882 109.376 155.522 109.632 155.09 109.808C154.666 109.984 154.19 110.072 153.662 110.072ZM161.01 110.072C160.33 110.072 159.73 109.932 159.21 109.652C158.698 109.372 158.298 108.988 158.01 108.5C157.73 108.012 157.59 107.452 157.59 106.82C157.59 106.188 157.726 105.628 157.998 105.14C158.278 104.652 158.658 104.272 159.138 104C159.626 103.72 160.174 103.58 160.782 103.58C161.398 103.58 161.942 103.716 162.414 103.988C162.886 104.26 163.254 104.644 163.518 105.14C163.79 105.628 163.926 106.2 163.926 106.856C163.926 106.904 163.922 106.96 163.914 107.024C163.914 107.088 163.91 107.148 163.902 107.204H158.49V106.376H163.302L162.834 106.664C162.842 106.256 162.758 105.892 162.582 105.572C162.406 105.252 162.162 105.004 161.85 104.828C161.546 104.644 161.19 104.552 160.782 104.552C160.382 104.552 160.026 104.644 159.714 104.828C159.402 105.004 159.158 105.256 158.982 105.584C158.806 105.904 158.718 106.272 158.718 106.688V106.88C158.718 107.304 158.814 107.684 159.006 108.02C159.206 108.348 159.482 108.604 159.834 108.788C160.186 108.972 160.59 109.064 161.046 109.064C161.422 109.064 161.762 109 162.066 108.872C162.378 108.744 162.65 108.552 162.882 108.296L163.518 109.04C163.23 109.376 162.87 109.632 162.438 109.808C162.014 109.984 161.538 110.072 161.01 110.072ZM168.154 110.072C167.538 110.072 166.986 109.936 166.498 109.664C166.018 109.392 165.638 109.012 165.358 108.524C165.078 108.036 164.938 107.468 164.938 106.82C164.938 106.172 165.078 105.608 165.358 105.128C165.638 104.64 166.018 104.26 166.498 103.988C166.986 103.716 167.538 103.58 168.154 103.58C168.69 103.58 169.174 103.7 169.606 103.94C170.038 104.18 170.382 104.54 170.638 105.02C170.902 105.5 171.034 106.1 171.034 106.82C171.034 107.54 170.906 108.14 170.65 108.62C170.402 109.1 170.062 109.464 169.63 109.712C169.198 109.952 168.706 110.072 168.154 110.072ZM168.25 109.064C168.65 109.064 169.01 108.972 169.33 108.788C169.658 108.604 169.914 108.344 170.098 108.008C170.29 107.664 170.386 107.268 170.386 106.82C170.386 106.364 170.29 105.972 170.098 105.644C169.914 105.308 169.658 105.048 169.33 104.864C169.01 104.68 168.65 104.588 168.25 104.588C167.842 104.588 167.478 104.68 167.158 104.864C166.838 105.048 166.582 105.308 166.39 105.644C166.198 105.972 166.102 106.364 166.102 106.82C166.102 107.268 166.198 107.664 166.39 108.008C166.582 108.344 166.838 108.604 167.158 108.788C167.478 108.972 167.842 109.064 168.25 109.064ZM170.422 110V108.284L170.494 106.808L170.374 105.332V101.096H171.526V110H170.422ZM180.324 103.58C180.844 103.58 181.3 103.68 181.692 103.88C182.092 104.08 182.404 104.384 182.628 104.792C182.852 105.2 182.964 105.716 182.964 106.34V110H181.812V106.472C181.812 105.856 181.66 105.392 181.356 105.08C181.06 104.768 180.64 104.612 180.096 104.612C179.688 104.612 179.332 104.692 179.028 104.852C178.724 105.012 178.488 105.248 178.32 105.56C178.16 105.872 178.08 106.26 178.08 106.724V110H176.928V101.096H178.08V105.356L177.852 104.9C178.06 104.484 178.38 104.16 178.812 103.928C179.244 103.696 179.748 103.58 180.324 103.58ZM187.928 110.072C187.248 110.072 186.648 109.932 186.128 109.652C185.616 109.372 185.216 108.988 184.928 108.5C184.648 108.012 184.508 107.452 184.508 106.82C184.508 106.188 184.644 105.628 184.916 105.14C185.196 104.652 185.576 104.272 186.056 104C186.544 103.72 187.092 103.58 187.7 103.58C188.316 103.58 188.86 103.716 189.332 103.988C189.804 104.26 190.172 104.644 190.436 105.14C190.708 105.628 190.844 106.2 190.844 106.856C190.844 106.904 190.84 106.96 190.832 107.024C190.832 107.088 190.828 107.148 190.82 107.204H185.408V106.376H190.22L189.752 106.664C189.76 106.256 189.676 105.892 189.5 105.572C189.324 105.252 189.08 105.004 188.768 104.828C188.464 104.644 188.108 104.552 187.7 104.552C187.3 104.552 186.944 104.644 186.632 104.828C186.32 105.004 186.076 105.256 185.9 105.584C185.724 105.904 185.636 106.272 185.636 106.688V106.88C185.636 107.304 185.732 107.684 185.924 108.02C186.124 108.348 186.4 108.604 186.752 108.788C187.104 108.972 187.508 109.064 187.964 109.064C188.34 109.064 188.68 109 188.984 108.872C189.296 108.744 189.568 108.552 189.8 108.296L190.436 109.04C190.148 109.376 189.788 109.632 189.356 109.808C188.932 109.984 188.456 110.072 187.928 110.072ZM192.444 110V101.096H193.596V110H192.444ZM199.167 110.072C198.639 110.072 198.155 109.952 197.715 109.712C197.283 109.464 196.935 109.1 196.671 108.62C196.415 108.14 196.287 107.54 196.287 106.82C196.287 106.1 196.411 105.5 196.659 105.02C196.915 104.54 197.259 104.18 197.691 103.94C198.131 103.7 198.623 103.58 199.167 103.58C199.791 103.58 200.343 103.716 200.823 103.988C201.303 104.26 201.683 104.64 201.963 105.128C202.243 105.608 202.383 106.172 202.383 106.82C202.383 107.468 202.243 108.036 201.963 108.524C201.683 109.012 201.303 109.392 200.823 109.664C200.343 109.936 199.791 110.072 199.167 110.072ZM195.795 112.328V103.64H196.899V105.356L196.827 106.832L196.947 108.308V112.328H195.795ZM199.071 109.064C199.479 109.064 199.843 108.972 200.163 108.788C200.491 108.604 200.747 108.344 200.931 108.008C201.123 107.664 201.219 107.268 201.219 106.82C201.219 106.364 201.123 105.972 200.931 105.644C200.747 105.308 200.491 105.048 200.163 104.864C199.843 104.68 199.479 104.588 199.071 104.588C198.671 104.588 198.307 104.68 197.979 104.864C197.659 105.048 197.403 105.308 197.211 105.644C197.027 105.972 196.935 106.364 196.935 106.82C196.935 107.268 197.027 107.664 197.211 108.008C197.403 108.344 197.659 108.604 197.979 108.788C198.307 108.972 198.671 109.064 199.071 109.064ZM205.056 107.348C205.056 107.036 205.108 106.764 205.212 106.532C205.316 106.3 205.444 106.092 205.596 105.908C205.756 105.724 205.928 105.556 206.112 105.404C206.296 105.244 206.468 105.088 206.628 104.936C206.788 104.776 206.916 104.608 207.012 104.432C207.116 104.256 207.168 104.052 207.168 103.82C207.168 103.436 207.016 103.124 206.712 102.884C206.408 102.644 205.988 102.524 205.452 102.524C204.972 102.524 204.556 102.604 204.204 102.764C203.852 102.924 203.552 103.16 203.304 103.472L202.428 102.848C202.764 102.424 203.192 102.096 203.712 101.864C204.232 101.624 204.84 101.504 205.536 101.504C206.112 101.504 206.612 101.592 207.036 101.768C207.46 101.936 207.788 102.18 208.02 102.5C208.26 102.812 208.38 103.192 208.38 103.64C208.38 103.976 208.328 104.264 208.224 104.504C208.12 104.744 207.988 104.956 207.828 105.14C207.668 105.324 207.496 105.496 207.312 105.656C207.136 105.816 206.968 105.976 206.808 106.136C206.648 106.296 206.516 106.472 206.412 106.664C206.308 106.856 206.256 107.084 206.256 107.348H205.056ZM205.668 110.072C205.444 110.072 205.256 109.996 205.104 109.844C204.96 109.692 204.888 109.512 204.888 109.304C204.888 109.08 204.96 108.896 205.104 108.752C205.256 108.608 205.444 108.536 205.668 108.536C205.892 108.536 206.076 108.608 206.22 108.752C206.364 108.896 206.436 109.08 206.436 109.304C206.436 109.512 206.364 109.692 206.22 109.844C206.076 109.996 205.892 110.072 205.668 110.072Z" fill="#6D6D6D"/>
<path d="M268 97C279.598 97 289 87.598 289 76C289 64.402 279.598 55 268 55C256.402 55 247 64.402 247 76C247 87.598 256.402 97 268 97Z" fill="#D9D9D9"/>
<path d="M262.484 74.5C263.879 77.2283 266.099 79.4477 268.827 80.843L270.945 78.725C271.071 78.5989 271.23 78.5104 271.403 78.4696C271.577 78.4288 271.758 78.4372 271.927 78.494C273.036 78.8585 274.196 79.0438 275.363 79.043C275.618 79.0435 275.863 79.1452 276.043 79.3256C276.224 79.5061 276.325 79.7508 276.326 80.006V83.365C276.325 83.6202 276.224 83.8649 276.043 84.0454C275.863 84.2258 275.618 84.3275 275.363 84.328C273.214 84.3281 271.086 83.9049 269.101 83.0825C267.115 82.2601 265.311 81.0547 263.792 79.535C262.272 78.0153 261.067 76.2112 260.245 74.2256C259.423 72.2401 259 70.112 259 67.963C259.001 67.7078 259.102 67.4631 259.283 67.2826C259.463 67.1022 259.708 67.0005 259.963 67H263.331C263.586 67.0005 263.831 67.1022 264.011 67.2826C264.192 67.4631 264.293 67.7078 264.294 67.963C264.292 69.1306 264.478 70.291 264.843 71.4C264.897 71.57 264.904 71.7517 264.861 71.9251C264.819 72.0984 264.729 72.2566 264.602 72.382L262.484 74.5Z" fill="#0D257B"/>
<defs>
<filter id="filter0_d_7252_6250" x="0" y="0" width="345" height="199" filterUnits="userSpaceOnUse" color-interpolation-filters="sRGB">
<feFlood flood-opacity="0" result="BackgroundImageFix"/>
<feColorMatrix in="SourceAlpha" type="matrix" values="0 0 0 0 0 0 0 0 0 0 0 0 0 0 0 0 0 0 127 0" result="hardAlpha"/>
<feOffset dy="3"/>
<feGaussianBlur stdDeviation="15"/>
<feColorMatrix type="matrix" values="0 0 0 0 0 0 0 0 0 0 0 0 0 0 0 0 0 0 0.102 0"/>
<feBlend mode="normal" in2="BackgroundImageFix" result="effect1_dropShadow_7252_6250"/>
<feBlend mode="normal" in="SourceGraphic" in2="effect1_dropShadow_7252_6250" result="shape"/>
</filter>
<filter id="filter1_d_7252_6250" x="44" y="48" width="257" height="98" filterUnits="userSpaceOnUse" color-interpolation-filters="sRGB">
<feFlood flood-opacity="0" result="BackgroundImageFix"/>
<feColorMatrix in="SourceAlpha" type="matrix" values="0 0 0 0 0 0 0 0 0 0 0 0 0 0 0 0 0 0 127 0" result="hardAlpha"/>
<feOffset/>
<feGaussianBlur stdDeviation="10"/>
<feColorMatrix type="matrix" values="0 0 0 0 0 0 0 0 0 0 0 0 0 0 0 0 0 0 0.059 0"/>
<feBlend mode="normal" in2="BackgroundImageFix" result="effect1_dropShadow_7252_6250"/>
<feBlend mode="normal" in="SourceGraphic" in2="effect1_dropShadow_7252_6250" result="shape"/>
</filter>
</defs>
</svg>
