<svg width="752" height="558" viewBox="0 0 752 558" fill="none" xmlns="http://www.w3.org/2000/svg">
<g clip-path="url(#clip0_10301_32686)">
<g opacity="0.14">
<path opacity="0.26" d="M582 -112.356V224.471L410.056 324.119L290.771 393L171.715 324.119L0 224.471V-112.356L290.771 -280.885L399.295 -218.203V-42.3274L290.771 -105.009L151.796 -24.4184V136.763L233.762 184.291L290.771 217.354L347.78 184.291L430.204 136.763V23.3391H429.975V-356.424L581.771 -440V-112.586L582 -112.356Z" fill="#0D257B"/>
<path d="M513.902 950.079L277.286 813.468L277.027 652.255L277.023 540.516L373.701 484.811L513.352 404.59L749.968 541.2L750.417 813.83L662.365 864.65L538.815 793.319L626.867 742.499L626.623 612.177L513.395 546.805L446.762 585.113L400.412 611.755L400.514 665.216L400.47 742.398L480.148 788.4L480.241 788.239L747.019 942.264L744.16 1082.8L514.156 950.011L513.902 950.079Z" fill="#CC922F"/>
</g>
</g>
<g clip-path="url(#clip1_10301_32686)">
<path d="M369.865 432.962C369.865 432.962 355.637 452.171 332.68 452.171C309.723 452.171 309.402 443.714 309.402 429.921C309.402 416.127 338.232 385.447 355.423 365.731C372.614 346.015 390.82 325.285 431.288 325.285C471.757 325.285 550.446 356.126 577.973 394.544C590.966 412.678 604.863 432.337 618.484 452.171C633.719 474.356 695 540 735.5 567L566 577L534 550C515.426 541.406 505.012 536.587 486.439 527.993C467.865 519.398 447.999 501.714 443.701 495.124C443.701 495.124 439.403 507.503 421.705 507.503C404.007 507.503 365.807 492.35 365.807 449.37C365.807 443.554 369.865 432.935 369.865 432.935V432.962Z" fill="#FFC8B3"/>
<path d="M310.473 439.631L309.031 437.39C309.031 437.39 318.428 431.307 327.957 419.649C337.247 408.283 334.631 392.73 334.578 392.596L337.194 392.143C337.327 392.836 340.05 409.057 330.013 421.356C320.216 433.335 310.846 439.391 310.473 439.658V439.631Z" fill="#E8A691"/>
<path d="M442.58 495.845C442.474 495.658 430.701 477.196 422.506 469.833C418.449 466.204 409.479 462.256 400.804 458.441C391.755 454.466 382.385 450.33 377.366 446.142L376.058 445.048C367.409 437.765 365.087 435.817 364.073 428.427C363.939 428.027 360.255 414.314 367.303 403.935C371.414 397.853 378.327 394.251 387.83 393.21C388.765 393.104 389.726 393.024 390.713 392.997C413.243 392.01 445.063 406.523 468.34 417.115C470.769 418.235 473.119 419.303 475.361 420.29C483.076 423.785 487.934 425.786 491.564 426.959C513.507 434.029 519.833 440.192 520.1 440.432L518.205 442.327C518.205 442.327 512.092 436.377 490.737 429.494C487 428.267 482.061 426.239 474.266 422.718C472.024 421.704 469.675 420.637 467.246 419.543C444.235 409.058 412.656 394.758 390.82 395.665C389.913 395.692 389.005 395.772 388.151 395.878C379.448 396.812 373.202 400.04 369.518 405.429C363.165 414.767 366.635 427.76 366.689 427.893C367.596 434.43 369.145 435.737 377.767 442.994L379.075 444.088C383.8 448.063 392.982 452.091 401.872 455.986C411.161 460.068 419.917 463.937 424.295 467.859C432.757 475.462 444.342 493.657 444.849 494.404L442.607 495.845H442.58Z" fill="#E8A691"/>
<path d="M406.623 459.694L404.301 458.386C404.301 458.386 410.28 447.501 410.921 430.88C411.535 414.899 375.124 403.001 374.75 402.894L375.578 400.359C377.152 400.866 414.311 413.005 413.59 431.014C412.923 448.328 406.863 459.267 406.623 459.72V459.694Z" fill="#E8A691"/>
<path d="M411.722 393.05L409.453 391.663C421.305 372.427 411.135 343.747 411.028 343.454L413.537 342.547C413.991 343.774 424.268 372.721 411.722 393.077V393.05Z" fill="#E8A691"/>
<path d="M282.228 359.033C210.554 359.033 152.254 300.766 152.254 229.133C152.254 157.5 210.554 99.2324 282.228 99.2324C353.902 99.2324 412.202 157.5 412.202 229.133C412.202 300.766 353.902 359.033 282.228 359.033ZM282.228 123.217C223.794 123.217 176.279 170.732 176.279 229.106C176.279 287.48 223.821 334.996 282.228 334.996C340.635 334.996 388.178 287.48 388.178 229.106C388.178 170.732 340.635 123.217 282.228 123.217Z" fill="#1D3E89"/>
<path d="M474.827 421.515C451.149 410.87 415.272 393.262 390.766 394.329L342.797 326.805L365.567 317.547C366.234 318.427 455.794 403.48 474.827 421.515Z" fill="#1D3E89"/>
<path d="M282.231 335.023C340.745 335.023 388.18 287.615 388.18 229.133C388.18 170.652 340.745 123.244 282.231 123.244C223.716 123.244 176.281 170.652 176.281 229.133C176.281 287.615 223.716 335.023 282.231 335.023Z" fill="#E09E34"/>
<path d="M425.979 107.13C396.909 107.13 373.258 83.4928 373.258 54.4393C373.258 25.3857 396.909 1.74805 425.979 1.74805C455.049 1.74805 478.7 25.3857 478.7 54.4393C478.7 83.4928 455.049 107.13 425.979 107.13ZM425.979 9.7251C401.313 9.7251 381.266 29.7878 381.266 54.4126C381.266 79.0374 401.34 99.1001 425.979 99.1001C450.618 99.1001 470.692 79.0374 470.692 54.4126C470.692 29.7878 450.618 9.7251 425.979 9.7251Z" fill="#FDFEFC"/>
<path d="M425.978 9.72461C401.313 9.72461 381.266 29.7873 381.266 54.4121C381.266 79.0369 401.34 99.0996 425.978 99.0996C450.617 99.0996 470.691 79.0369 470.691 54.4121C470.691 29.7873 450.617 9.72461 425.978 9.72461Z" fill="#AEBCD9"/>
<path d="M438.366 83.1468C437.859 82.9067 437.378 82.6666 436.898 82.3998C435.643 81.7062 435.002 80.639 434.976 79.1983C434.976 77.7577 434.949 76.3437 434.976 74.903C434.976 74.5562 435.136 74.156 435.349 73.8892C437.325 71.2747 438.846 68.3933 440.021 65.3252C440.154 64.9784 440.448 64.6316 440.742 64.4448C442.557 63.2442 443.545 61.6168 443.571 59.4291C443.571 57.4816 443.678 55.5073 443.545 53.5864C443.464 52.5193 443.091 51.4254 442.637 50.465C442.37 49.878 442.156 49.3444 442.156 48.6775C442.183 46.223 442.156 43.7952 442.183 41.3407C442.237 35.8715 439.407 31.256 434.308 29.2284C427.848 26.6672 421.228 26.6138 414.795 29.3351C409.643 31.4961 407.16 35.6847 407.107 41.2873C407.107 43.8485 407.134 46.4097 407.107 48.9709C407.107 49.3978 406.867 49.8247 406.733 50.2515C406.386 51.3187 405.826 52.3592 405.745 53.453C405.585 55.4806 405.692 57.5349 405.692 59.5625C405.692 61.1366 406.333 62.4439 407.401 63.5644C407.641 63.8312 407.881 64.1513 407.988 64.4982C408.949 67.8597 410.497 70.9278 412.472 73.8092C412.713 74.156 412.873 74.6362 412.873 75.0631C412.926 76.2903 412.873 77.5176 412.873 78.7448C412.873 80.4256 412.152 81.6261 410.684 82.4265C406.893 84.4808 403.103 86.5351 399.339 88.6161C398.511 89.0696 397.711 89.5232 396.776 90.0567C396.776 90.0567 394.587 91.1773 393.68 91.7642C400.727 98.3806 409.91 102.516 419.573 103.636C420.427 103.743 421.308 103.85 422.162 103.957H427.047C428.783 103.743 430.518 103.556 432.226 103.263C440.608 101.849 448.002 98.2739 454.302 92.6446C453.048 91.8976 442.61 85.3079 438.312 83.1468H438.366Z" fill="#FDFEFC"/>
<path d="M123.557 164.517C94.487 164.517 70.8359 140.88 70.8359 111.826C70.8359 82.7724 94.487 59.1348 123.557 59.1348C152.627 59.1348 176.278 82.7724 176.278 111.826C176.278 140.88 152.627 164.517 123.557 164.517ZM123.557 67.1118C98.8916 67.1118 78.8442 87.1745 78.8442 111.799C78.8442 136.424 98.9183 156.487 123.557 156.487C148.196 156.487 168.27 136.424 168.27 111.799C168.27 87.1745 148.196 67.1118 123.557 67.1118Z" fill="#FDFEFC"/>
<path d="M123.557 67.1387C98.8911 67.1387 78.8438 87.2014 78.8438 111.826C78.8438 136.451 98.9178 156.514 123.557 156.514C148.195 156.514 168.269 136.451 168.269 111.826C168.269 87.2014 148.195 67.1387 123.557 67.1387Z" fill="#E3C57F"/>
<path d="M135.944 140.534C135.437 140.293 134.956 140.053 134.476 139.787C133.221 139.093 132.58 138.026 132.554 136.585C132.554 135.144 132.527 133.73 132.554 132.29C132.554 131.943 132.714 131.543 132.928 131.276C134.903 128.661 136.424 125.78 137.599 122.712C137.732 122.365 138.026 122.018 138.32 121.832C140.135 120.631 141.123 119.004 141.149 116.816C141.149 114.868 141.256 112.894 141.123 110.973C141.043 109.906 140.669 108.812 140.215 107.852C139.948 107.265 139.735 106.731 139.735 106.064C139.761 103.61 139.735 101.182 139.761 98.7274C139.815 93.2582 136.985 88.6427 131.886 86.6151C125.426 84.0539 118.806 84.0006 112.373 86.7218C107.221 88.8828 104.738 93.0715 104.685 98.6741C104.685 101.235 104.712 103.796 104.685 106.358C104.685 106.785 104.445 107.211 104.311 107.638C103.964 108.705 103.404 109.746 103.324 110.84C103.163 112.867 103.27 114.922 103.27 116.949C103.27 118.523 103.911 119.831 104.979 120.951C105.219 121.218 105.459 121.538 105.566 121.885C106.527 125.246 108.075 128.315 110.051 131.196C110.291 131.543 110.451 132.023 110.451 132.45C110.504 133.677 110.451 134.904 110.451 136.132C110.451 137.812 109.73 139.013 108.262 139.813C104.471 141.868 100.681 143.922 96.917 146.003C96.0895 146.456 95.2886 146.91 94.3543 147.443C94.3543 147.443 92.1654 148.564 91.2578 149.151C98.3051 155.767 107.488 159.903 117.151 161.023C118.005 161.13 118.886 161.237 119.741 161.343H124.626C126.361 161.13 128.096 160.943 129.804 160.65C138.186 159.236 145.581 155.661 151.88 150.031C150.626 149.284 140.188 142.695 135.891 140.534H135.944Z" fill="#FDFEFC"/>
<path d="M135.01 483.039C105.94 483.039 82.2891 459.401 82.2891 430.347C82.2891 401.294 105.94 377.656 135.01 377.656C164.08 377.656 187.731 401.294 187.731 430.347C187.731 459.401 164.08 483.039 135.01 483.039ZM135.01 385.633C110.345 385.633 90.2973 405.696 90.2973 430.321C90.2973 454.946 110.371 475.008 135.01 475.008C159.649 475.008 179.723 454.946 179.723 430.321C179.723 405.696 159.649 385.633 135.01 385.633Z" fill="#FDFEFC"/>
<path d="M135.01 385.633C110.344 385.633 90.2969 405.695 90.2969 430.32C90.2969 454.945 110.371 475.008 135.01 475.008C159.649 475.008 179.723 454.945 179.723 430.32C179.723 405.695 159.649 385.633 135.01 385.633Z" fill="#C7EAD2"/>
<path d="M147.421 459.053C146.913 458.813 146.433 458.573 145.952 458.306C144.698 457.612 144.057 456.545 144.03 455.105C144.03 453.664 144.004 452.25 144.03 450.809C144.03 450.462 144.191 450.062 144.404 449.795C146.379 447.181 147.901 444.3 149.076 441.231C149.209 440.885 149.503 440.538 149.796 440.351C151.612 439.15 152.599 437.523 152.626 435.335C152.626 433.388 152.733 431.414 152.599 429.493C152.519 428.426 152.145 427.332 151.692 426.371C151.425 425.784 151.211 425.251 151.211 424.584C151.238 422.129 151.211 419.701 151.238 417.247C151.291 411.778 148.462 407.162 143.363 405.135C136.903 402.573 130.283 402.52 123.85 405.241C118.698 407.402 116.215 411.591 116.162 417.194C116.162 419.755 116.188 422.316 116.162 424.877C116.162 425.304 115.921 425.731 115.788 426.158C115.441 427.225 114.88 428.265 114.8 429.359C114.64 431.387 114.747 433.441 114.747 435.469C114.747 437.043 115.387 438.35 116.455 439.471C116.695 439.737 116.936 440.058 117.042 440.404C118.003 443.766 119.552 446.834 121.527 449.715C121.767 450.062 121.928 450.542 121.928 450.969C121.981 452.197 121.928 453.424 121.928 454.651C121.928 456.332 121.207 457.532 119.739 458.333C115.948 460.387 112.157 462.441 108.394 464.522C107.566 464.976 106.765 465.429 105.831 465.963C105.831 465.963 103.642 467.084 102.734 467.67C109.782 474.287 118.964 478.422 128.628 479.543C129.482 479.649 130.363 479.756 131.217 479.863H136.102C137.837 479.649 139.572 479.463 141.281 479.169C149.663 477.755 157.057 474.18 163.357 468.551C162.102 467.804 151.665 461.214 147.367 459.053H147.421Z" fill="#FDFEFC"/>
<mask id="mask0_10301_32686" style="mask-type:luminance" maskUnits="userSpaceOnUse" x="176" y="39" width="229" height="297">
<path d="M279.828 39.8184C221.395 39.8184 176.281 170.733 176.281 229.133C176.281 287.534 223.824 335.023 282.231 335.023C300.196 335.023 317.147 330.514 331.989 322.59C343.948 316.214 360.845 322.217 369.521 311.945C379.558 300.073 400.193 273.821 404.25 258.373C406.492 249.809 388.18 238.364 388.18 229.133C388.18 170.733 338.235 39.8184 279.828 39.8184Z" fill="white"/>
</mask>
<g mask="url(#mask0_10301_32686)">
<path d="M248.142 78.3432C254.895 66.8712 268.403 59.4544 281.776 61.6421C284.499 62.4158 287.249 63.2695 289.438 65.1371C292.988 65.2972 296.699 65.3772 299.955 66.9779C298.167 67.9117 299.181 71.3533 296.298 70.4729C295.017 70.9798 295.391 77.4628 296.058 73.1942C297.579 72.874 296.298 75.5953 298.167 75.5419C297.9 77.4895 299.048 77.863 300.649 77.8897C300.409 79.7039 303.105 81.9983 300.542 83.1188C299.154 81.5981 298.193 79.5705 296.298 78.5833C294.99 77.4895 293.121 77.6763 291.76 76.7158C291.627 73.7811 292.027 70.3929 290.452 67.7783C289.064 67.1647 287.622 66.5511 286.261 65.8574C286.074 67.0046 287.889 67.0046 287.516 68.3119C282.444 67.5382 276.891 68.8455 273.021 72.3138C272.033 73.0875 270.511 73.3542 270.325 74.8216C268.483 74.288 268.99 76.7425 267.575 76.6891C266.214 76.7692 266.214 78.7701 265.012 79.1703C264.132 79.4104 262.69 80.9044 264.479 80.8511C263.571 82.3985 260.875 82.0249 261.195 84.4261C258.579 84.5595 257.645 87.3341 255.83 88.7481C256.364 91.0425 254.495 89.6018 253.534 90.1087C251.692 90.8291 249.423 91.416 248.515 93.3369C247.741 94.9376 245.526 94.3774 244.645 95.7914C243.337 97.4188 239.413 97.3121 240.801 94.4041C243.15 90.4289 245.259 86.0535 246.54 81.5714C246.78 81.0645 247.101 80.5843 246.834 80.024C247.207 79.4371 247.661 78.8768 248.115 78.3699L248.142 78.3432Z" fill="#49557B"/>
<path d="M286.288 65.8574C287.65 66.5511 289.091 67.138 290.479 67.7783C292.054 70.3929 291.654 73.8078 291.787 76.7158C293.149 77.6763 295.017 77.4895 296.325 78.5834C298.22 79.5438 299.181 81.5714 300.57 83.1188C303.105 81.9983 300.436 79.7306 300.676 77.8897C299.075 77.863 297.927 77.4895 298.194 75.5419C296.325 75.5686 297.606 72.874 296.085 73.1942C295.418 77.4895 295.044 70.9798 296.325 70.4729C299.208 71.3533 298.194 67.9117 299.982 66.9779C300.356 67.138 300.73 67.2714 301.103 67.4315C308.952 71.9936 310.019 81.9182 313.116 89.6018C313.543 90.9625 314.077 92.2964 314.744 93.5503C315.945 95.9781 317.334 98.2992 318.642 100.647C318.588 101.207 318.642 101.741 318.642 102.301C313.249 100.247 308.551 96.5917 304.6 92.4565C301.21 88.7214 300.917 83.0654 296.912 79.8373C295.337 78.3699 293.149 78.0765 291.227 77.3561C290.346 75.3819 291.627 73.1675 290.799 71.1666C288.424 69.5925 283.459 67.058 281.75 70.8197C281.243 73.461 285.354 70.0194 284.473 72.5806C278.52 71.5134 273.261 76.1556 270.245 80.7977C267.469 85.9735 264.452 91.1492 259.941 95.0177C254.389 99.2863 248.569 103.208 242.082 105.983C238.719 107.664 234.715 110.518 235.569 114.814C237.731 121.67 243.097 126.792 245.846 133.382C247.742 138.505 246.941 144.908 242.67 148.643C237.865 152.138 231.645 153.498 227.454 157.98C223.397 161.209 219.953 168.118 224.251 172.494C225.025 173.027 224.571 173.988 224.518 174.735C222.996 175.935 221.795 177.509 221.074 179.297C219.232 178.336 218.298 176.175 216.296 175.455C216.509 175.188 216.563 174.948 216.429 174.735C216.189 174.495 215.949 174.281 215.709 174.068C215.709 173.934 215.655 173.694 215.628 173.561C211.384 165.21 212.665 154.245 219.686 147.736C223.13 144.161 228.735 142.853 231.245 138.425C231.965 137.224 232.526 135.89 232.713 134.476C232.9 133.035 233.167 131.488 232.713 130.074C231.325 124.125 228.522 118.095 230.097 111.932C230.47 110.785 229.323 112.172 228.896 112.386C228.815 112.226 228.629 111.879 228.549 111.719C231.939 108.384 234.475 104.275 237.945 100.994C238.799 99.4731 239.787 97.7123 239.733 95.9248C239.707 95.6847 239.653 95.4445 239.6 95.2044C239.76 95.0444 239.947 94.8576 240.107 94.6975C240.267 94.6442 240.614 94.5374 240.774 94.4841C239.386 97.3921 243.31 97.4988 244.618 95.8714C245.526 94.4841 247.742 95.0177 248.489 93.4169C249.397 91.496 251.639 90.8824 253.508 90.1888C254.469 89.6552 256.337 91.1225 255.803 88.8281C257.619 87.4141 258.553 84.6395 261.169 84.5061C260.849 82.105 263.518 82.4785 264.452 80.9311C262.664 80.9845 264.105 79.4904 264.986 79.2503C266.214 78.8235 266.187 76.8492 267.549 76.7692C268.964 76.8225 268.456 74.3681 270.298 74.9016C270.458 73.4343 272.007 73.1675 272.994 72.3938C276.865 68.8988 282.417 67.6182 287.489 68.3919C287.863 67.1113 286.048 67.0847 286.235 65.9375L286.288 65.8574Z" fill="#465277"/>
<path d="M281.749 70.7658C283.457 67.0041 288.449 69.5386 290.798 71.1126C291.626 73.1136 290.344 75.3546 291.225 77.3022C293.147 78.0492 295.336 78.316 296.911 79.7833C300.915 83.0115 301.209 88.6942 304.599 92.4026C308.55 96.5378 313.248 100.22 318.64 102.247C318.614 101.714 318.56 101.153 318.64 100.593C319.601 101.847 320.429 103.181 321.417 104.408C323.499 106.836 324.967 109.717 325.608 112.839C327.316 119.989 324.406 127.032 324.566 134.129C324.7 134.182 324.94 134.315 325.074 134.395V134.689C325.127 135.142 325.127 135.596 325.154 136.05C324.46 135.649 324.486 136.13 324.62 136.69C324.326 140.878 328.063 143.706 331.187 145.787C333.456 147.228 335.378 149.122 337.273 150.99C337.78 151.817 338.314 152.644 338.875 153.444C339.035 153.871 339.195 154.325 339.382 154.752C337.967 155.312 337.94 152.084 336.819 152.697C335.831 153.871 338.554 153.925 337.567 155.285C336.098 156.833 336.205 153.604 334.844 153.684C333.936 156.913 336.232 160.167 334.79 163.369C334.15 167.157 329.451 168.251 328.117 171.399C326.569 170.839 325.047 170.279 323.499 169.745C327.61 169.665 330.813 165.69 331.026 161.742C331.267 157.126 328.277 153.098 325.394 149.763C321.764 147.015 317.172 144.96 315.143 140.665C315.837 135.809 318.774 131.728 321.069 127.539C322.511 125.378 319.174 126.365 320.242 124.311C319.414 121.91 322.111 120.736 321.176 118.281C322.137 114.92 316.078 117.801 317.252 114.333C317.145 111.745 316.211 108.063 313.568 107.023C314.209 109.557 315.384 112.012 315.09 114.706C314.609 114.039 313.542 109.957 313.942 113.692C314.396 119.722 311.299 125.058 309.057 130.42C307.295 133.755 306.094 137.517 306.601 141.332C304.546 135.809 308.683 130.714 309.698 125.565C312.287 123.084 312.874 118.815 313.275 115.213C314.369 111.665 308.95 112.812 307.536 114.333C307.696 111.265 308.63 107.663 306.841 104.942C306.414 104.942 305.587 104.915 305.16 104.888C303.772 104.782 302.704 106.409 303.211 107.663C303.531 109.077 301.156 108.757 300.942 107.583C301.903 103.795 297.445 104.408 295.203 103.901C293.147 103.581 291.038 103.581 289.01 103.901C286.634 104.168 283.377 104.915 282.656 107.583C281.829 110.491 283.244 113.452 284.925 115.8C284.685 116.04 284.445 116.307 284.205 116.547C281.669 114.626 282.203 111.025 280.387 108.784C279.453 108.517 278.412 108.383 277.504 108.784C275.93 109.344 276.383 111.558 275.716 112.865C275.556 111.612 275.583 110.331 275.316 109.104C274.782 105.689 271.685 103.634 268.295 103.928C265.946 103.714 263.49 103.448 261.168 103.928C259.673 104.168 258.205 104.381 256.736 104.728C256.576 107.129 256.603 109.557 257.377 111.852C257.484 112.732 257.11 112.972 256.363 112.572C256.202 112.252 256.069 111.905 255.936 111.558C255.775 110.438 255.669 109.05 254.307 108.837C254.227 106.889 252.866 104.515 250.623 104.915C251.931 104.782 252.065 103.474 252.759 102.594C253.72 103.341 254.868 102.887 255.962 102.834C261.808 103.234 268.135 101.847 273.714 104.275C275.529 104.755 275.449 108.49 277.531 107.29C278.813 106.889 281.909 108.784 281.882 106.436C282.443 105.715 283.03 104.995 283.644 104.301C287.515 103.128 291.546 102.674 295.577 102.754C296.751 102.781 297.952 102.807 299.127 102.861C300.034 102.994 300.969 103.181 301.903 103.101C301.796 102.461 301.529 101.9 301.289 101.313C301.102 100.7 300.648 100.246 300.221 99.7927C297.418 95.7374 296.271 89.7347 291.572 87.2802C290.718 86.8266 289.864 86.3998 288.983 85.9729C288.583 85.4126 287.969 85.0925 287.355 84.7723C289.65 83.5718 291.012 80.6638 289.704 78.316C288.503 74.7677 284.472 72.66 280.841 73.2737C276.09 74.5276 272.299 78.1826 269.95 82.3979C266.907 88.6408 262.556 94.4035 256.656 98.1652C254.948 99.1524 253.693 100.753 251.931 101.66C251.051 102.06 252.412 103.474 251.211 103.634C249.582 105.262 247.393 104.275 245.551 105.289C242.775 106.409 239.519 107.37 238.317 110.464C238.05 113.266 238.211 116.467 240.052 118.788C240.346 118.628 240.64 118.468 240.933 118.308C243.122 122.016 244.671 126.232 247.66 129.38C248.728 130.207 248.541 131.968 249.796 132.715C250.009 136.023 251.451 139.758 250.41 143.093C248.808 143.573 249.742 145.414 251.131 145.307C251.478 146.428 250.303 147.121 249.689 147.868C247.874 149.362 246.299 151.15 244.404 152.564C243.977 153.684 243.042 154.298 241.974 154.725C239.145 157.259 237.196 161.581 238.931 165.21C239.812 165.53 239.332 164.116 240.052 164.356C241.307 164.329 243.069 164.436 243.096 166.037C241.734 166.517 240.693 168.331 239.118 167.984C239.786 167.664 240.079 166.784 239.252 166.357C236.796 164.143 236.983 160.141 238.878 157.633C239.599 156.006 241.28 154.992 241.948 153.364C238.397 154.378 234.82 156.673 233.139 160.087C231.884 163.236 233.779 166.09 234.874 168.918C235.274 169.559 236.155 169.505 236.822 169.772C232.738 171.319 228.601 172.76 224.677 174.654C224.73 173.907 225.184 172.947 224.41 172.413C220.112 168.011 223.529 161.101 227.613 157.9C231.804 153.418 237.997 152.057 242.829 148.562C247.1 144.827 247.901 138.424 246.005 133.302C243.282 126.739 237.917 121.589 235.728 114.733C234.9 110.438 238.905 107.583 242.241 105.902C248.701 103.128 254.547 99.2057 260.1 94.9371C264.611 91.0686 267.628 85.8662 270.404 80.7171C273.42 76.075 278.679 71.4061 284.632 72.5C285.513 69.9388 281.402 73.407 281.909 70.7391L281.749 70.7658Z" fill="#414B6F"/>
<path d="M280.735 73.327C284.365 72.7401 288.369 74.8211 289.597 78.3694C290.905 80.7171 289.544 83.6252 287.248 84.8257C287.862 85.1192 288.476 85.466 288.877 86.0263C288.209 85.9462 287.515 85.9196 286.821 85.9196C286.714 85.9196 286.528 85.9196 286.421 85.9196C286.18 85.3593 285.887 84.8257 285.513 84.3455C285.513 83.2516 284.258 82.4246 283.217 82.558C279.4 81.5442 275.316 83.6785 273.554 87.0934C270.991 91.6022 267.975 96.0843 263.357 98.6988C261.328 99.8727 259.113 100.673 257.137 101.927C259.246 101.927 261.141 100.673 263.223 100.38C263.731 100.326 264.238 100.273 264.745 100.22C267.895 100.646 271.178 101.127 273.874 102.887C273.714 103.074 273.554 103.288 273.367 103.448C267.601 102.461 261.622 101.047 255.856 102.861C254.761 102.887 253.587 103.368 252.653 102.621C251.985 103.474 251.825 104.808 250.517 104.942C249.102 107.049 249.583 109.904 249.743 112.305C250.223 115.16 251.211 118.335 253.72 120.069C254.681 121.349 257.217 120.202 257.538 121.883C258.338 127.752 261.275 133.142 265.706 137.01C265.706 137.41 265.733 137.81 265.759 138.211C265.679 142.346 265.599 146.481 265.733 150.616C265.679 150.696 265.519 150.83 265.466 150.883C264.371 151.924 263.143 152.831 262.049 153.871C261.221 154.698 260.34 155.499 259.62 156.406C258.445 155.312 257.164 157.9 256.55 158.673C253 158.54 251.078 162.809 249.396 165.423C245.525 165.823 241.895 168.091 238.131 169.265C236.823 169.212 237.971 167.398 238.932 167.984C240.507 168.331 241.574 166.517 242.909 166.037C242.909 164.436 241.094 164.329 239.866 164.356C239.145 164.116 239.626 165.53 238.745 165.21C237.01 161.581 238.958 157.259 241.788 154.725C242.856 154.298 243.79 153.684 244.217 152.564C246.112 151.15 247.687 149.389 249.503 147.868C250.117 147.121 251.291 146.454 250.944 145.307C249.556 145.414 248.622 143.6 250.223 143.093C251.291 139.758 249.823 136.023 249.609 132.715C248.355 131.968 248.542 130.207 247.474 129.38C244.484 126.205 242.936 122.016 240.747 118.308C240.453 118.468 240.16 118.628 239.866 118.788C238.024 116.467 237.864 113.292 238.131 110.464C239.332 107.37 242.589 106.409 245.365 105.289C247.207 104.275 249.396 105.262 251.024 103.634C252.252 103.474 250.864 102.06 251.745 101.66C253.507 100.78 254.761 99.1524 256.47 98.1653C262.369 94.4035 266.72 88.6141 269.764 82.3979C272.113 78.1826 275.876 74.5276 280.655 73.2737L280.735 73.327Z" fill="#3D466A"/>
<path d="M240.16 94.6169C241.468 89.4145 243.977 84.5055 246.887 80.0234C247.154 80.5837 246.834 81.0906 246.593 81.5708C244.378 85.6794 242.162 89.8947 240.854 94.4035C240.694 94.4568 240.347 94.5635 240.187 94.6169H240.16Z" fill="#655357"/>
<path d="M273.553 87.068C275.315 83.6531 279.399 81.5188 283.216 82.5326C283.67 82.7994 284.151 83.0395 284.551 83.3863C281.668 82.826 278.385 82.9061 276.303 85.2538C272.405 90.643 269.415 97.126 263.196 100.381C261.114 100.674 259.218 101.902 257.109 101.928C259.085 100.674 261.3 99.874 263.329 98.7001C267.947 96.0856 270.964 91.5768 273.526 87.0947L273.553 87.068Z" fill="#DB8680"/>
<path d="M283.218 82.533C284.26 82.4263 285.514 83.2266 285.514 84.3205C282.578 84.027 279.375 83.4401 276.972 85.6278C276.812 85.5477 276.465 85.361 276.305 85.2543C278.414 82.9065 281.67 82.7998 284.553 83.3867C284.153 83.0399 283.672 82.7998 283.218 82.533Z" fill="#61435B"/>
<path d="M276.972 85.6269C279.375 83.4393 282.578 84.0529 285.515 84.3197C285.888 84.7999 286.182 85.3335 286.422 85.8937C280.843 86.7741 275.397 89.4687 272.381 94.4044C271.58 94.9379 270.352 98.1928 269.258 96.4053C272.515 93.3105 273.956 88.9085 276.946 85.6003L276.972 85.6269Z" fill="#F38576"/>
<path d="M276.302 85.2539C276.462 85.3606 276.809 85.5207 276.97 85.6274C273.98 88.9356 272.512 93.3377 269.282 96.4324C267.893 97.8198 266.452 99.2338 264.717 100.221C264.21 100.274 263.703 100.328 263.195 100.381C269.388 97.1261 272.378 90.6698 276.302 85.2539Z" fill="#75343A"/>
<path d="M286.424 85.8945C286.424 85.8945 286.718 85.8945 286.825 85.8945L286.985 86.0546C290.295 88.6158 292.03 92.3775 294.192 95.8191C294.459 96.4861 295.153 96.4861 295.767 96.4328C297.262 98.3803 299.131 100.008 301.16 101.342C301.4 101.929 301.694 102.489 301.774 103.129C300.839 103.209 299.905 103.023 298.997 102.889C298.704 102.649 298.41 102.436 298.116 102.222C297.129 101.342 295.874 100.781 294.539 100.648C293.178 100.461 291.763 100.248 290.429 100.648C288.32 101.315 284.956 101.182 283.835 103.503C283.728 103.796 283.622 104.09 283.515 104.383C282.901 105.077 282.314 105.77 281.753 106.517C280.712 107.745 278.79 106.731 277.402 107.371C275.346 108.572 275.4 104.837 273.584 104.356C273.478 104.09 273.398 103.796 273.318 103.503C273.478 103.316 273.638 103.129 273.825 102.942C271.102 101.155 267.819 100.701 264.695 100.275C266.43 99.3141 267.845 97.9001 269.26 96.4861C270.354 98.2736 271.582 95.0188 272.383 94.4852C275.4 89.5229 280.845 86.855 286.424 85.9746V85.8945Z" fill="#FCBB88"/>
<path d="M286.82 85.9199C287.514 85.9199 288.182 85.9199 288.876 86.0266C289.73 86.4535 290.611 86.8804 291.465 87.3339C294.348 91.4958 295.923 96.6182 300.114 99.8464C300.514 100.3 300.968 100.754 301.182 101.367C299.153 100.006 297.284 98.4057 295.79 96.4582C292.72 93.0966 292.827 86.2667 287.007 86.1067L286.847 85.9466L286.82 85.9199Z" fill="#5C4559"/>
<path d="M287.008 86.0814C292.827 86.2414 292.72 93.0713 295.79 96.4329C295.176 96.4862 294.456 96.5129 294.215 95.8192C292.053 92.3776 290.318 88.6426 287.008 86.0547V86.0814Z" fill="#EB9881"/>
<path d="M291.465 87.334C296.19 89.7618 297.338 95.7913 300.114 99.8465C295.923 96.645 294.348 91.5226 291.465 87.334Z" fill="#DE9D8A"/>
<path d="M237.168 96.6978C237.995 96.1642 238.823 95.6573 239.65 95.1504C239.704 95.3905 239.757 95.6306 239.784 95.8707C234.685 99.419 229.747 104.115 228.332 110.384C228.038 111.104 228.466 112.358 227.531 112.625C227.531 107.289 230.735 102.38 234.819 99.1523C235.7 98.4319 236.581 97.6849 237.168 96.6978Z" fill="#5F464D"/>
<path d="M290.453 100.62C291.788 100.246 293.203 100.46 294.564 100.62C293.203 100.62 291.815 100.62 290.453 100.62Z" fill="#8F6E5A"/>
<path d="M283.859 103.448C284.954 101.127 288.344 101.261 290.453 100.594C291.814 100.647 293.176 100.62 294.564 100.594C295.872 100.727 297.126 101.287 298.141 102.168C297.927 102.168 297.5 102.114 297.313 102.088C296.059 101.954 294.751 101.741 293.523 102.088C293.122 102.141 292.722 102.194 292.321 102.221C289.492 102.381 286.689 102.968 283.886 103.422L283.859 103.448Z" fill="#444763"/>
<path d="M255.883 102.862C261.622 101.047 267.628 102.461 273.394 103.449C273.474 103.742 273.554 104.009 273.661 104.302C268.055 101.874 261.756 103.262 255.91 102.862H255.883Z" fill="#C29F96"/>
<path d="M293.496 102.141C294.724 101.795 296.032 102.008 297.287 102.141C296.005 102.141 294.751 102.141 293.496 102.141Z" fill="#8A6F54"/>
<path d="M283.859 103.449C286.662 102.995 289.438 102.408 292.294 102.248C293.335 102.408 294.403 102.595 295.444 102.755C291.413 102.702 287.382 103.128 283.512 104.302C283.618 104.009 283.725 103.715 283.832 103.422L283.859 103.449Z" fill="#A29CA9"/>
<path d="M292.297 102.274C292.697 102.247 293.098 102.194 293.498 102.141C294.753 102.141 296.034 102.141 297.289 102.141C297.502 102.141 297.929 102.194 298.116 102.221C298.41 102.461 298.703 102.674 298.997 102.888C297.796 102.834 296.621 102.808 295.447 102.781C294.379 102.621 293.338 102.461 292.297 102.274Z" fill="#E8D1B9"/>
<path d="M261.062 103.955C263.412 103.474 265.841 103.768 268.19 103.955C265.814 104.035 263.438 104.088 261.062 103.955Z" fill="#BD9191"/>
<path d="M288.957 103.982C291.012 103.662 293.095 103.662 295.15 103.982C293.068 104.036 291.012 104.116 288.957 103.982Z" fill="#987A78"/>
<path d="M256.633 104.756C258.101 104.409 259.57 104.196 261.065 103.955C263.44 104.089 265.816 104.062 268.192 103.955C271.582 103.662 274.679 105.716 275.212 109.131C274.972 114.494 270.007 119.643 264.375 118.122C260.958 117.669 258.475 114.974 257.274 111.879C256.5 109.585 256.473 107.157 256.633 104.756ZM265.416 105.209C263.36 105.796 261.251 106.89 259.65 108.251C260.771 108.944 261.999 109.531 263.307 109.772C263.681 109.905 264.081 110.038 264.481 110.065C266.003 110.812 269.233 111.105 269.34 108.864C269.633 109.051 270.621 109.345 270.594 108.864C270.941 109.265 271.128 109.958 271.769 109.825C271.662 107.717 269.607 106.383 267.791 105.716C268.699 105.69 271.555 106.116 268.726 105.263C268.165 105.396 265.336 104.142 265.416 105.236V105.209Z" fill="#F7BB8B"/>
<path d="M282.606 107.637C283.327 104.996 286.583 104.222 288.959 103.955C291.015 104.088 293.097 104.008 295.152 103.955C297.395 104.462 301.852 103.822 300.891 107.637C300.838 112.172 298.089 117.108 293.364 118.095C290.294 118.922 287.117 117.988 284.848 115.854C283.166 113.506 281.752 110.571 282.579 107.637H282.606ZM288.105 105.289C288.265 105.663 288.772 105.636 289.119 105.796C287.998 106.303 286.877 106.943 286.343 108.09C285.702 108.277 285.275 109.398 285.088 110.118C285.916 110.331 286.557 109.398 286.557 108.704C286.957 108.357 287.117 107.61 287.758 107.69C288.078 108.571 287.998 110.331 289.119 110.438C289.36 110.998 290.854 110.998 291.121 110.438C291.815 110.518 292.429 110.145 292.99 109.771C293.604 109.905 294.111 109.531 294.618 109.264C295.072 109.878 297.208 108.597 297.848 108.01C295.953 107.397 294.431 105.823 292.429 105.529C291.282 104.675 289.52 105.129 288.132 105.289H288.105Z" fill="#F7BA8C"/>
<path d="M250.546 104.916C252.789 104.515 254.15 106.89 254.23 108.837C254.203 110.758 254.177 112.679 254.177 114.6C253.483 114.6 252.842 114.76 252.308 115.187C250.867 114.627 250.84 112.519 249.932 111.692C249.906 111.852 249.825 112.146 249.799 112.279C249.639 109.878 249.158 107.023 250.573 104.916H250.546Z" fill="#F79D76"/>
<path d="M265.416 105.21C265.336 104.116 268.165 105.37 268.726 105.236C271.555 106.09 268.672 105.663 267.792 105.69C266.991 105.556 266.217 105.37 265.416 105.183V105.21Z" fill="#AC735C"/>
<path d="M288.102 105.29C289.49 105.129 291.251 104.676 292.399 105.53C291.278 105.53 290.184 105.53 289.116 105.77C288.796 105.61 288.288 105.663 288.102 105.263V105.29Z" fill="#BA725B"/>
<path d="M303.185 107.716C302.677 106.462 303.772 104.808 305.133 104.941C303.879 105.982 303.505 107.582 303.558 109.156C303.345 109.156 302.891 109.183 302.677 109.21C301.129 110.037 301.61 113.185 300.248 114.652C299.02 116.867 296.778 118.174 294.509 119.081C290.905 119.962 286.661 119.588 284.125 116.6C284.365 116.36 284.605 116.12 284.846 115.853C287.088 117.987 290.291 118.921 293.361 118.094C298.086 117.107 300.836 112.198 300.889 107.636C301.103 108.81 303.478 109.156 303.158 107.716H303.185Z" fill="#5E5B6D"/>
<path d="M305.134 104.941C305.561 104.941 306.415 104.968 306.815 104.995C308.604 107.689 307.67 111.318 307.509 114.386C306.655 117.801 304.386 121.536 300.329 121.109C299.822 122.79 299.661 124.551 299.154 126.231C299.127 124.657 297.739 128.099 297.099 126.071C294.696 126.792 291.813 126.151 290.505 123.83C289.304 122.203 290.585 119.295 292.721 119.828C292.267 121.536 290.879 123.804 293.095 124.871C294.269 124.817 295.924 125.751 296.725 124.444C297.259 123.51 298.46 125.858 298.487 124.417C298.861 122.736 301.637 119.988 299.127 119.108C299.074 118.388 299.661 117.801 299.715 117.08C297.926 117.854 296.298 118.975 294.589 119.855C294.589 119.615 294.589 119.348 294.563 119.108C296.832 118.201 299.074 116.894 300.302 114.679C301.663 113.212 301.156 110.064 302.731 109.237C302.251 111.665 301.53 114.039 301.183 116.493C300.916 117.587 302.838 117.961 303.238 117.027C303.906 114.519 304.36 111.745 303.612 109.21C303.585 107.636 303.932 106.035 305.187 104.995L305.134 104.941Z" fill="#F7AF85"/>
<path d="M259.648 108.278C261.223 106.917 263.332 105.823 265.414 105.236C266.189 105.396 266.989 105.583 267.79 105.743C269.632 106.384 271.661 107.717 271.768 109.852C271.1 109.985 270.913 109.292 270.593 108.891C270.219 108.118 268.991 107.531 269.338 108.891C269.258 111.132 266.002 110.839 264.48 110.092C264.32 109.185 264.24 108.278 264.106 107.371C262.718 107.691 261.784 108.891 263.306 109.798C261.998 109.558 260.77 108.971 259.648 108.278Z" fill="#464B65"/>
<path d="M289.092 105.795C290.186 105.555 291.281 105.529 292.375 105.555C294.377 105.822 295.899 107.396 297.794 108.036C297.154 108.623 295.018 109.877 294.564 109.29C295.232 108.17 293.737 107.77 292.989 107.343C292.963 108.17 292.936 108.997 292.936 109.824C292.375 110.197 291.761 110.544 291.067 110.491C290.56 110.491 289.572 110.491 289.065 110.491C287.944 110.411 288.024 108.65 287.704 107.743C287.063 107.663 286.903 108.41 286.503 108.757C286.449 108.597 286.342 108.303 286.289 108.143C286.823 106.996 287.971 106.329 289.065 105.849L289.092 105.795Z" fill="#42486C"/>
<path d="M277.453 107.317C278.815 106.65 280.737 107.69 281.804 106.463C281.831 108.811 278.761 106.916 277.453 107.317Z" fill="#AB9598"/>
<path d="M313.542 107.051C316.185 108.065 317.119 111.746 317.226 114.361C316.051 117.829 322.111 114.948 321.15 118.309C322.084 120.764 319.388 121.938 320.216 124.339C319.121 126.393 322.458 125.406 321.043 127.567C318.747 131.782 315.811 135.838 315.117 140.693C317.172 144.988 321.764 147.043 325.368 149.791C328.251 153.126 331.24 157.154 331 161.77C330.813 165.718 327.61 169.693 323.472 169.773C322.645 169.533 321.844 169.213 321.043 168.893C321.55 168.199 322.298 167.852 323.072 167.559C322.725 165.985 324.754 165.265 324.38 163.61C325.928 156.46 318.827 152.165 314.076 148.777C313.756 147.203 312.554 145.442 310.659 145.735C308.79 143.468 307.215 140.533 307.936 137.518C309.057 131.649 313.275 126.687 313.862 120.63C312.474 123.965 311.3 127.567 309.057 130.448C311.3 125.086 314.396 119.75 313.942 113.721C313.542 109.985 314.61 114.041 315.09 114.734C315.384 112.04 314.209 109.585 313.569 107.051H313.542Z" fill="#434F75"/>
<path d="M263.304 109.797C261.783 108.863 262.69 107.689 264.105 107.369C264.239 108.276 264.319 109.183 264.479 110.09C264.078 110.064 263.678 109.93 263.304 109.797Z" fill="#EAE3DC"/>
<path d="M293.014 107.316C293.762 107.743 295.257 108.143 294.589 109.263C294.082 109.53 293.575 109.93 292.961 109.77C292.961 108.943 292.988 108.116 293.014 107.289V107.316Z" fill="#EEEBF1"/>
<path d="M269.334 108.865C268.961 107.504 270.215 108.064 270.589 108.865C270.616 109.345 269.655 109.078 269.334 108.865Z" fill="#F3D9D5"/>
<path d="M285.062 110.117C285.249 109.424 285.676 108.277 286.317 108.09C286.371 108.25 286.477 108.543 286.531 108.703C286.531 109.397 285.89 110.331 285.062 110.117Z" fill="#816E76"/>
<path d="M277.426 108.81C278.333 108.437 279.374 108.543 280.309 108.81C279.321 108.81 278.387 108.81 277.426 108.81Z" fill="#B0969B"/>
<path d="M254.202 108.865C255.537 109.078 255.67 110.465 255.83 111.586C255.43 113.507 257.592 115.668 255.937 117.375C254.469 117.375 254.469 115.668 254.148 114.601C254.148 112.68 254.175 110.759 254.202 108.838V108.865Z" fill="#F48171"/>
<path d="M275.611 112.892C276.278 111.585 275.851 109.371 277.399 108.811C278.36 108.811 279.321 108.811 280.282 108.811C282.097 111.052 281.563 114.653 284.099 116.574C286.635 119.589 290.88 119.936 294.483 119.055C294.483 119.295 294.483 119.536 294.51 119.802C293.896 119.802 293.282 119.802 292.668 119.802C290.533 119.269 289.251 122.177 290.453 123.804C291.761 126.125 294.644 126.766 297.046 126.045C297.687 128.073 299.075 124.631 299.102 126.205C298.087 130.474 295.204 133.889 292.241 136.984C292.161 137.064 292.001 137.224 291.921 137.304C287.997 140.372 283.672 143.947 278.36 143.44C273.395 143.44 269.257 140.052 265.654 137.01C261.222 133.115 258.286 127.726 257.485 121.883C257.165 120.176 254.629 121.35 253.668 120.069C255.003 120.096 256.284 120.443 257.645 119.856C258.58 121.643 258.793 123.831 260.555 125.138C262.504 125.618 264.746 126.712 266.588 125.298C268.457 124.605 267.949 122.364 268.27 120.763C267.229 119.455 265.227 120.016 263.838 119.455C268.697 120.336 274.089 117.695 275.557 112.866L275.611 112.892ZM280.816 121.937C279.481 121.91 278.173 121.937 276.839 121.963C276.251 121.937 275.477 121.723 275.103 122.31C275.023 123.697 277.319 123.137 278.227 123.858C278.574 123.858 279.241 123.804 279.561 123.778C280.576 123.537 281.644 123.431 282.631 123.111C283.245 122.017 281.323 120.629 280.816 121.937ZM269.364 127.619C270.138 128.393 271.046 129.033 272.034 129.487C274.81 134.476 283.299 134.236 285.888 129.407C286.689 128.58 288.397 128.313 288.397 127.059C287.116 127.566 286.021 128.606 284.473 127.939C280.015 126.632 275.477 127.779 270.993 128.1C270.779 127.406 269.097 126.392 269.364 127.619Z" fill="#FCBB89"/>
<path d="M275.211 109.131C275.478 110.358 275.451 111.639 275.611 112.893C274.143 117.722 268.751 120.363 263.892 119.482C260.395 118.629 257.486 115.961 256.258 112.599C257.005 112.999 257.406 112.759 257.272 111.879C258.447 114.974 260.956 117.668 264.373 118.122C270.005 119.642 274.997 114.493 275.211 109.131Z" fill="#5E5E75"/>
<path d="M302.679 109.212C302.893 109.212 303.346 109.185 303.56 109.158C304.307 111.693 303.88 114.467 303.186 116.975C302.786 117.936 300.864 117.535 301.131 116.442C301.478 113.987 302.199 111.613 302.679 109.185V109.212Z" fill="#F98159"/>
<path d="M227.534 112.626C228.468 112.332 228.041 111.105 228.335 110.385C228.388 110.812 228.415 111.265 228.601 111.665C228.682 111.825 228.868 112.172 228.948 112.332C227.827 113.533 228.041 115.24 228.148 116.734C228.842 120.763 229.963 124.685 231.137 128.58C231.725 131.061 233.246 134.93 230.203 136.37C224.304 140.532 216.776 142.56 212.265 148.482C206.472 155.072 207.54 165.797 212.985 172.254C213.946 173.054 215.014 175.055 216.429 174.655C216.562 174.868 216.509 175.108 216.295 175.375C210.957 173.081 208.501 167.078 207.727 161.662C207.727 160.088 207.833 158.541 207.727 156.966C208.127 153.311 209.862 149.95 212.158 147.149C216.082 142.746 221.634 140.399 226.733 137.651C228.094 136.93 229.402 136.157 230.577 135.17C224.491 130.688 222.275 121.563 225.932 114.894C226.546 114.2 227.16 113.453 227.534 112.572V112.626ZM226.946 114.76C223.129 120.816 224.838 130.688 231.111 134.369C230.977 127.619 227.534 121.403 227.107 114.6L226.92 114.733L226.946 114.76Z" fill="#605A72"/>
<path d="M289.094 110.438C289.601 110.438 290.589 110.438 291.096 110.438C290.829 110.998 289.334 110.998 289.094 110.438Z" fill="#AB787D"/>
<path d="M249.902 111.693C250.837 112.546 250.863 114.627 252.278 115.188C252.812 114.761 253.453 114.574 254.147 114.601C254.467 115.641 254.44 117.375 255.935 117.375C257.617 115.668 255.455 113.507 255.828 111.586C255.962 111.933 256.095 112.253 256.256 112.6C257.484 115.961 260.393 118.629 263.89 119.483C265.278 120.043 267.28 119.483 268.321 120.79C267.974 122.391 268.482 124.632 266.64 125.326C264.798 126.74 262.555 125.619 260.607 125.166C258.845 123.858 258.658 121.671 257.697 119.883C256.336 120.47 255.054 120.123 253.72 120.097C251.237 118.336 250.249 115.188 249.742 112.333C249.769 112.173 249.849 111.879 249.876 111.746L249.902 111.693Z" fill="#FAAD81"/>
<path d="M307.511 114.36C308.926 112.84 314.345 111.693 313.251 115.241C312.823 118.816 312.263 123.084 309.674 125.592C308.632 130.741 304.522 135.837 306.577 141.36C308.179 146.695 312.85 150.11 317.201 153.152C320.218 155.553 323.848 158.888 322.407 163.183C322.086 165.424 319.417 165.984 318.99 168.145C315.573 166.838 312.183 165.504 308.713 164.33C308.819 164.731 308.953 165.131 309.086 165.531C308.446 165.077 307.778 164.464 306.924 164.651C307.004 165.371 307.191 166.118 307.031 166.865C305.376 164.624 304.495 161.636 301.879 160.302C299.93 158.354 298.302 156.113 296.273 154.219C295.072 153.072 293.817 152.005 292.563 150.937C292.429 149.977 292.376 149.043 292.242 148.083C292.376 144.401 292.429 140.693 292.296 137.011C295.259 133.916 298.115 130.501 299.156 126.233C299.663 124.552 299.823 122.791 300.331 121.11C304.388 121.537 306.684 117.802 307.511 114.387V114.36Z" fill="#3D486C"/>
<path d="M294.536 119.829C296.244 118.922 297.873 117.802 299.661 117.055C299.608 117.775 299.047 118.362 299.074 119.082C301.556 119.963 298.807 122.711 298.433 124.391C298.433 125.859 297.205 123.484 296.671 124.418C295.87 125.725 294.215 124.792 293.041 124.845C290.825 123.778 292.24 121.51 292.667 119.803C293.281 119.803 293.895 119.829 294.509 119.803L294.536 119.829Z" fill="#FDA67B"/>
<path d="M309.029 130.447C311.272 127.565 312.446 123.99 313.834 120.629C313.274 126.685 309.056 131.647 307.908 137.517C307.187 140.532 308.762 143.466 310.631 145.734C312.526 145.414 313.727 147.201 314.048 148.775C318.826 152.164 325.9 156.459 324.352 163.609C324.725 165.263 322.697 165.983 323.044 167.557C322.27 167.851 321.522 168.198 321.015 168.891C320.321 168.678 319.627 168.438 318.96 168.144C319.387 165.983 322.083 165.423 322.376 163.182C323.818 158.887 320.187 155.579 317.171 153.151C312.82 150.109 308.122 146.694 306.547 141.359C306.039 137.543 307.241 133.808 309.003 130.447H309.029Z" fill="#48557B"/>
<path d="M329.156 120.631C328.356 111.907 323.257 104.677 318.986 97.3666C318.772 96.8863 318.532 96.3794 318.318 95.8992C317.464 95.0722 317.277 92.4843 316.156 92.5643C316.984 94.2985 317.705 96.086 318.612 97.7934C319.6 99.9544 321.015 101.875 322.162 103.956C323.764 106.678 325.366 109.452 326.407 112.44C329.29 119.564 329.21 127.887 325.045 134.477V134.771C327.395 132.076 328.809 128.634 329.103 125.086C329.29 123.619 329.53 122.125 329.156 120.684V120.631Z" fill="#606060"/>
<path d="M280.841 121.909C281.348 120.602 283.243 121.989 282.656 123.083C281.668 123.403 280.6 123.51 279.586 123.75C278.305 123.617 280.707 122.683 280.841 121.909Z" fill="#F36D51"/>
<path d="M275.13 122.285C275.531 121.724 276.305 121.911 276.865 121.938C277.239 122.578 278.36 123.005 278.227 123.832C277.346 123.112 275.024 123.672 275.104 122.285H275.13Z" fill="#EF6146"/>
<path d="M276.867 121.964C278.175 121.937 279.51 121.91 280.845 121.937C280.711 122.711 278.309 123.618 279.59 123.778C279.243 123.778 278.576 123.831 278.255 123.858C278.362 123.031 277.241 122.604 276.894 121.964H276.867Z" fill="#FD9571"/>
<path d="M269.392 127.62C269.125 126.393 270.833 127.407 271.02 128.1C271.42 129.488 275.638 129.274 272.568 129.621C272.435 129.594 272.168 129.514 272.034 129.488C271.047 129.034 270.139 128.367 269.365 127.62H269.392Z" fill="#D8513D"/>
<path d="M284.501 127.914C286.049 128.581 287.144 127.54 288.425 127.033C288.425 128.287 286.69 128.581 285.916 129.381C285.275 129.514 284.634 129.701 283.967 129.701C280.764 129.594 277.267 128.927 274.197 129.808C273.663 129.861 273.102 129.728 272.595 129.594C275.665 129.248 271.421 129.434 271.047 128.074C275.532 127.754 280.07 126.606 284.527 127.914H284.501Z" fill="#F96F59"/>
<path d="M272.062 129.486C272.062 129.486 272.463 129.593 272.596 129.62C273.104 129.753 273.664 129.913 274.198 129.833C277.455 129.753 280.711 129.833 283.968 129.726C284.635 129.726 285.276 129.54 285.917 129.406C283.301 134.235 274.839 134.475 272.062 129.486Z" fill="#FC8767"/>
<path d="M274.168 129.834C277.238 128.953 280.735 129.62 283.938 129.727C280.681 129.861 277.425 129.727 274.168 129.834Z" fill="#DF4936"/>
<path d="M324.622 136.718C324.489 136.158 324.462 135.704 325.156 136.078C328.466 141.147 334.285 144.028 337.596 149.15C337.489 149.337 337.329 149.711 337.222 149.898C334.018 144.562 328.359 141.547 324.622 136.691V136.718Z" fill="#414B6F"/>
<path d="M265.734 137.012C269.338 140.053 273.449 143.415 278.441 143.441C283.78 143.948 288.104 140.373 292.001 137.305C292.295 140.88 291.708 144.509 292.268 148.057C292.402 149.017 292.482 149.951 292.589 150.912C292.509 151.232 292.429 151.552 292.375 151.872C288.665 154.727 283.78 156.327 279.162 154.833C274.01 152.672 269.472 148.964 266.028 144.615C266.028 142.481 266.028 140.347 265.788 138.239C265.788 137.839 265.761 137.439 265.734 137.038V137.012Z" fill="#FD7968"/>
<path d="M292 137.305C292 137.305 292.24 137.064 292.32 136.984C292.481 140.666 292.4 144.374 292.267 148.056C291.706 144.508 292.267 140.88 292 137.305Z" fill="#AF5F66"/>
<path d="M265.762 138.211C266.029 140.319 266.002 142.453 266.002 144.587C266.002 146.588 265.922 148.589 266.002 150.563L265.708 150.617C265.601 146.481 265.655 142.346 265.735 138.211H265.762Z" fill="#AE7270"/>
<path d="M332.734 141.227C336.952 144.561 340.823 149.124 341.704 154.593C341.624 154.78 341.463 155.153 341.383 155.34C340.342 149.684 336.578 145.255 332.734 141.253V141.227Z" fill="#3D486C"/>
<path d="M295.525 165.318C295.418 167.532 295.124 169.72 294.831 171.907C291.894 172.948 288.824 173.588 285.941 174.602L285.701 174.682C281.11 174.655 276.518 174.468 271.927 174.709C269.685 173.935 267.255 174.148 265.04 173.321C264.453 173.108 263.865 172.894 263.278 172.734C263.251 172.227 263.171 171.24 263.145 170.76C263.251 166.305 263.145 161.743 264.96 157.554C265.173 155.26 266.321 152.832 266.001 150.564C265.894 148.563 266.001 146.562 266.001 144.588C269.444 148.937 273.982 152.672 279.134 154.806C283.752 156.3 288.638 154.673 292.348 151.845C293.149 155.153 293.416 158.674 294.911 161.769C295.418 162.863 295.338 164.117 295.498 165.318H295.525Z" fill="#FEBB88"/>
<path d="M213.306 171.853C208.581 163.369 211.598 151.95 219.393 146.348C219.446 146.721 219.179 147.015 218.992 147.308C215.015 150.75 212.185 155.632 211.945 160.968C211.251 165.343 212.292 170.386 215.629 173.507C215.629 173.64 215.682 173.88 215.709 174.014C214.881 173.32 214.08 172.627 213.306 171.88V171.853Z" fill="#544756"/>
<path d="M337.566 149.175C338.794 150.936 339.781 152.91 340.262 155.018C339.942 155.125 339.648 154.964 339.381 154.778C339.194 154.351 339.034 153.897 338.874 153.47C338.847 152.377 338.153 151.523 337.592 150.642C337.459 150.402 337.326 150.162 337.219 149.895C337.326 149.709 337.486 149.335 337.592 149.148L337.566 149.175Z" fill="#414B6F"/>
<path d="M265.467 150.91C265.467 150.91 265.681 150.697 265.734 150.643L266.028 150.59C266.348 152.858 265.174 155.285 264.987 157.58C263.172 161.742 263.278 166.331 263.172 170.786C262.985 167.878 262.584 164.97 262.638 162.035C264.773 158.834 265.147 154.672 265.467 150.91Z" fill="#F7BFA1"/>
<path d="M337.594 150.645C338.154 151.525 338.848 152.379 338.875 153.473C338.315 152.645 337.781 151.845 337.273 151.018C337.354 150.938 337.514 150.751 337.594 150.645Z" fill="#414B6F"/>
<path d="M262.047 153.898C263.141 152.831 264.369 151.951 265.464 150.91C265.143 154.645 264.77 158.807 262.634 162.035C262.447 159.341 262.421 156.593 262.047 153.925V153.898Z" fill="#F7E1DE"/>
<path d="M292.348 151.871C292.401 151.55 292.481 151.23 292.561 150.91C293.816 151.977 295.07 153.044 296.272 154.192C295.818 157.9 295.951 161.635 295.498 165.344C295.337 164.17 295.418 162.916 294.91 161.795C293.415 158.7 293.148 155.179 292.348 151.871Z" fill="#F6E3DF"/>
<path d="M336.82 152.752C337.941 152.138 337.967 155.366 339.382 154.806C339.649 154.966 339.943 155.126 340.263 155.046C340.53 156.193 340.797 157.341 340.957 158.514C341.144 161.342 340.717 164.144 339.702 166.758C338.475 169.586 336.472 172.174 333.883 173.855C332.041 172.894 330.039 172.228 328.117 171.427C329.425 168.306 334.15 167.185 334.791 163.397C336.232 160.195 333.963 156.94 334.844 153.712C336.206 153.632 336.125 156.86 337.567 155.313C338.555 153.952 335.832 153.899 336.82 152.725V152.752Z" fill="#465074"/>
<path d="M232.981 160.114C234.663 156.699 238.24 154.404 241.79 153.391C241.123 154.991 239.441 156.032 238.72 157.659C236.825 160.167 236.638 164.169 239.094 166.383C239.948 166.81 239.628 167.664 238.96 168.011C237.973 167.424 236.852 169.238 238.16 169.291C237.679 169.478 237.172 169.638 236.691 169.798C236.024 169.558 235.143 169.612 234.743 168.945C233.648 166.117 231.753 163.235 233.008 160.114H232.981Z" fill="#445077"/>
<path d="M273.741 224.864C273.741 225.958 272.78 225.318 272.62 224.677C265.76 215.1 258.846 205.548 251.772 196.131C253.694 193.063 256.683 190.822 258.499 187.674C258.098 187.807 257.698 187.994 257.271 188.1C253.774 186.953 250.464 185.352 247.207 183.645C247.501 175.881 249.743 167.904 254.655 161.741C256.79 160.434 258.018 158.246 259.647 156.406C260.367 155.499 261.222 154.671 262.076 153.871C262.449 156.566 262.476 159.287 262.663 161.982C262.61 164.916 262.983 167.824 263.197 170.732C263.224 171.239 263.304 172.226 263.33 172.707C263.437 174.601 263.864 176.468 264.238 178.309C267.228 193.836 270.778 209.284 273.741 224.811V224.864Z" fill="#FCFEFD"/>
<path d="M309.912 181.217C309.485 182.071 309.057 182.951 308.443 183.698C304.92 185.273 300.916 186.687 299.074 190.395C296.751 194.05 296.244 198.532 296.004 202.774C295.951 205.522 295.737 208.377 294.856 210.991C290.852 215.206 288.556 220.756 284.445 224.891C287.355 207.443 291.92 190.262 294.749 172.813C294.776 172.6 294.829 172.146 294.856 171.933C295.123 169.745 295.443 167.558 295.55 165.343C295.977 161.635 295.87 157.9 296.324 154.191C298.353 156.059 299.955 158.327 301.93 160.274C304.546 161.635 305.427 164.596 307.082 166.837C309.271 171.319 309.725 176.335 309.965 181.244L309.912 181.217Z" fill="#FCFDFD"/>
<path d="M341.383 155.313C341.463 155.127 341.623 154.753 341.704 154.566C341.837 155.367 342.024 156.167 342.157 156.968C342.131 158.515 342.077 160.089 342.157 161.663C341.704 166.492 339.595 171.508 335.35 174.122C335.217 174.069 334.95 173.989 334.816 173.935C337.486 172.415 339.141 169.8 340.395 167.079C340.983 165.425 341.383 163.717 341.437 161.957C341.437 161.716 341.517 161.263 341.543 161.049C341.837 159.502 341.864 157.901 341.543 156.354C341.49 156.007 341.437 155.634 341.383 155.287V155.313Z" fill="#3D486C"/>
<path d="M256.55 158.701C257.164 157.954 258.445 155.34 259.62 156.434C257.992 158.248 256.737 160.462 254.628 161.769C249.743 167.932 247.501 175.909 247.18 183.673C247.18 183.833 247.154 184.127 247.127 184.26C246.914 186.101 246.647 188.048 247.074 189.889C247.474 195.705 248.061 201.495 248.782 207.284C249.369 207.818 250.17 207.978 250.864 208.298C250.758 208.378 250.544 208.511 250.464 208.591C248.702 208.271 246.86 208.004 245.125 208.618C245.018 208.538 244.805 208.378 244.698 208.298C245.098 208.138 245.552 208.031 245.979 207.951C246.753 208.058 246.807 207.151 246.353 206.75C246.059 204.643 245.926 202.508 245.579 200.427C245.766 199.921 245.819 199.307 245.419 198.853C245.098 196.266 244.911 193.678 244.645 191.09C244.725 188.849 244.778 186.581 244.751 184.34C244.751 183.139 244.751 181.912 244.751 180.712C245.339 175.456 246.486 169.96 249.396 165.451C251.051 162.81 253 158.568 256.55 158.701Z" fill="#495A7F"/>
<path d="M341.543 156.379C341.864 157.926 341.81 159.527 341.543 161.074C341.49 159.5 341.543 157.953 341.543 156.379Z" fill="#3D486C"/>
<path d="M207.728 161.688C207.434 160.14 207.434 158.54 207.728 156.992C207.808 158.566 207.728 160.114 207.728 161.688Z" fill="#AC989E"/>
<path d="M390.557 248.048C373.98 223.717 355.988 200.373 338.396 176.762C337.542 175.828 336.501 175.054 335.433 174.361C334.899 174.227 334.366 174.094 333.885 173.827C332.043 172.867 330.041 172.2 328.119 171.399C326.571 170.839 325.049 170.279 323.501 169.745C322.673 169.505 321.873 169.185 321.072 168.865C320.378 168.651 319.684 168.411 319.016 168.118C315.599 166.811 312.209 165.477 308.739 164.303C308.846 164.703 308.979 165.103 309.113 165.503C311.702 169.985 312.45 175.321 312.423 180.444C313.25 180.043 314.158 179.723 314.692 178.95C316.694 180.604 312.877 180.977 312.396 182.551C311.755 185.006 314.772 185.139 316.107 186.393C320.885 189.488 322.887 195.491 322.433 200.986C322.006 202.614 323.287 205.202 321.552 206.269C320.938 212.645 320.351 219.022 319.497 225.371C319.043 228.172 319.096 231.161 317.788 233.748C316.454 236.523 313.33 238.07 310.287 237.644C310.127 238.577 309.273 238.604 308.499 238.551C308.792 239.591 310.047 238.978 310.741 238.951C312.663 238.551 314.852 238.844 316.32 237.35C316.587 238.497 315.413 240.231 314.505 240.952C310.261 243.486 305.482 240.472 300.998 241.112C298.008 240.258 293.123 238.017 295.045 234.202C293.844 232.575 292.856 230.6 292.963 228.519C293.23 223.45 294.004 218.408 294.618 213.339C294.244 212.992 293.844 213.339 293.603 213.659C291.121 216.754 289.065 220.195 286.61 223.344C285.889 224.678 284.394 225.718 284.367 227.345C284.634 230.227 284.447 233.135 284.501 236.043C284.501 238.737 284.527 241.459 284.447 244.153C284.527 247.488 284.527 250.823 284.447 254.158C284.607 275.475 284.447 296.818 284.501 318.161C284.501 319.468 284.501 320.776 284.501 322.083C284.501 332.675 284.501 343.293 284.501 353.884H334.232C334.125 350.603 334.045 347.321 333.405 344.093C325.53 344.84 317.628 344.36 309.727 344.44C308.659 343.239 309.22 341.372 309.006 339.931C308.579 333.155 308.312 326.378 308.018 319.575C305.909 319.415 303.774 319.815 301.692 319.415C300.918 318.961 300.677 318.108 300.838 317.281C301.825 316.507 302.893 315.813 303.934 315.093C301.345 315.467 298.702 315.573 296.219 316.48C295.392 316.854 294.805 316.053 294.484 315.386C294.137 314.853 293.363 313.812 294.538 313.572C297.1 311.785 299.93 310.397 302.866 309.384C302.626 308.53 301.932 308.263 301.131 308.29C298.248 308.61 294.938 310.691 292.242 309.064C291.468 306.769 294.378 305.809 296.113 305.382C301.265 303.728 306.417 301.94 311.836 301.46C312.263 300.82 311.595 300.526 311.168 300.233C306.63 299.326 302.119 301.086 297.554 300.846C296.486 301.06 294.591 300.446 294.805 299.059C295.419 297.405 297.608 297.298 299.076 296.845C306.977 294.497 315.413 294.657 323.234 297.245C322.246 291.429 320.618 285.693 320.218 279.797C319.951 278.783 319.924 277.716 319.871 276.675C319.417 274.221 319.71 271.713 319.897 269.258C320.004 267.684 320.137 266.137 320.298 264.563C320.298 264.136 320.298 263.736 320.298 263.336C320.298 261.815 320.645 260.294 320.938 258.8C320.992 257.279 321.179 255.759 321.499 254.265C323.074 243.113 325.209 232.014 327.318 220.969C330.495 205.922 333.164 190.502 336.661 175.695C336.474 179.456 335.326 183.058 334.632 186.74C332.524 198.025 329.988 209.23 327.879 220.489C339.571 230.894 350.889 241.779 361.567 253.197C363.275 254.265 364.343 256.079 365.731 257.493C366.185 257.92 366.532 258.587 367.226 258.587C364.61 262.135 362.047 265.71 359.565 269.365C362.661 270.619 365.945 271.606 368.721 273.527C370.51 274.034 372.351 274.914 373.633 276.275C371.818 275.741 370.162 274.728 368.721 273.527C365.491 272.486 362.475 270.859 359.245 269.792C357.963 271.766 356.735 273.767 355.374 275.688C353.772 277.956 352.438 280.383 350.782 282.598C350.782 282.651 350.782 282.705 350.782 282.758C350.782 282.785 350.782 282.838 350.782 282.865C350.782 282.891 350.782 282.945 350.782 282.971C350.782 282.998 350.782 283.051 350.782 283.078C350.782 283.131 350.782 283.185 350.782 283.211C350.782 283.238 350.782 283.265 350.782 283.292C350.782 283.372 350.836 283.452 350.863 283.532C350.863 283.585 350.916 283.612 350.943 283.665C350.969 283.692 350.996 283.745 351.023 283.772C351.049 283.825 351.103 283.852 351.156 283.905C351.183 283.932 351.21 283.958 351.236 283.985C351.236 283.985 351.316 284.039 351.343 284.065C351.503 284.172 351.69 284.225 351.877 284.279C351.904 284.279 351.957 284.279 352.01 284.305C352.037 284.305 352.09 284.305 352.144 284.305C352.197 284.305 352.251 284.305 352.304 284.305C352.331 284.305 352.357 284.305 352.384 284.305C352.384 284.305 352.411 284.305 352.437 284.305C352.518 284.305 352.598 284.305 352.651 284.305C358.203 286.333 363.462 289.241 368.134 292.869C370.082 293.99 371.31 295.991 373.232 297.165C373.633 296.658 374.006 296.097 374.407 295.591C377.076 291.936 379.505 288.12 381.961 284.332C382.095 283.958 382.228 283.612 382.362 283.238C379.933 280.784 376.97 278.969 374.38 276.728C377.77 277.902 380.013 280.97 382.922 282.945L383.136 282.838C384.444 279.797 386.686 277.209 388.315 274.327C389.462 272.273 390.664 270.219 391.998 268.298C393.306 265.363 395.308 262.695 395.976 259.494C396.67 254.772 392.425 251.65 390.53 247.835L390.557 248.048ZM370.189 256.025C369.922 256.479 368.721 257.199 369.095 256.159C370.376 254.878 371.844 253.811 373.392 252.904C373.526 252.877 373.793 252.797 373.926 252.744C373.019 254.158 371.177 254.665 370.189 256.025Z" fill="#FDFEFC"/>
<path d="M306.923 164.624C307.777 164.464 308.445 165.051 309.085 165.504C311.675 169.986 312.422 175.322 312.395 180.444C312.395 180.978 312.395 182.018 312.395 182.552C311.755 185.006 314.771 185.14 316.106 186.394C320.884 189.489 322.886 195.491 322.432 200.987C322.005 202.615 323.287 205.203 321.552 206.27C320.938 206.136 320.35 205.976 319.763 205.79C319.363 202.695 320.163 199.493 319.443 196.452C318.855 191.81 315.092 187.808 310.607 186.581C309.886 186.154 309.272 186.154 308.738 186.581C305.829 187.514 302.679 188.928 301.371 191.916C300.97 192.583 300.597 193.304 300.276 194.024C298.675 196.905 299.769 201.147 297.66 203.468C297.126 203.202 296.592 202.988 296.059 202.748C296.299 198.506 296.806 194.051 299.128 190.369C300.97 186.661 304.948 185.247 308.498 183.673C310.233 184.526 310.046 182.472 309.966 181.191C309.726 176.282 309.299 171.267 307.083 166.785C307.27 166.038 307.083 165.317 306.977 164.57L306.923 164.624Z" fill="#4E5D83"/>
<path d="M273.663 315.6C273.556 317.788 273.556 319.976 273.583 322.19V353.992H223.825C224.466 350.79 224.199 347.455 224.973 344.254C232.794 344.441 240.616 343.987 248.437 344.601C248.864 344.601 249.398 344.681 249.585 344.174C249.772 335.716 250.386 327.286 250.573 318.829C250.466 318.428 250.786 317.708 250.279 317.575C249.932 326.379 249.718 335.183 248.998 343.96C240.989 344.067 232.981 343.907 225 344.014C225 343.373 225.053 342.76 225.08 342.146C225.08 342.013 225.106 341.719 225.106 341.586C225.106 341.426 225.133 341.132 225.16 340.999C225.56 338.865 225.8 336.677 225.987 334.516C226.601 330.061 227.295 325.632 228.096 321.23C228.283 319.816 228.55 318.428 228.763 317.041C236.131 317.174 243.525 317.521 250.92 317.308C250.813 317.175 250.573 316.908 250.439 316.774C243.258 316.454 235.971 317.175 228.87 316.427C230.472 307.303 232.634 298.286 234.209 289.161C235.063 289.161 235.971 289.161 236.825 289.215C238.16 289.428 239.548 289.455 240.909 289.402C242.057 289.428 243.232 289.482 244.406 289.508C245.447 289.668 246.515 289.775 247.583 289.695C248.757 289.722 249.905 289.775 251.08 289.802C252.334 289.989 253.589 289.989 254.844 289.989C256.098 290.015 257.38 290.042 258.661 290.122C259.809 290.229 260.957 290.282 262.131 290.282C263.386 290.335 264.667 290.389 265.948 290.469C266.936 290.762 269.712 290.976 268.698 288.895C265.922 283.052 262.932 277.289 260.049 271.5C259.862 270.86 259.569 270.246 259.248 269.659C260.183 268.485 261.117 267.311 262.024 266.137C264.56 265.55 263.786 262.162 262.024 261.042C260.797 260.055 262.799 258.694 261.464 257.653C259.248 255.386 259.275 251.704 256.419 249.943C255.137 248.449 257.433 248.369 258.394 248.903C259.408 249.41 261.224 247.836 259.462 247.462C258.127 246.982 260.263 246.021 259.595 245.274C259.008 244.581 261.33 244.367 260.129 243.834C256.365 243.087 260.449 238.124 257.593 236.63C256.686 236.017 256.045 235.083 255.031 234.629C254.23 234.256 254.577 232.682 253.589 232.815C252.601 232.922 252.655 235.11 251.507 234.283C250.412 233.375 247.476 234.122 248.01 232.122C247.102 233.962 244.326 231.668 244.139 234.016C242.831 233.002 241.977 231.295 240.269 231.908C238.08 227.399 235.757 222.944 233.835 218.328C231.54 205.256 228.63 192.236 225.453 179.35C225.507 182.925 226.841 186.287 227.535 189.755C228.897 195.625 230.098 201.547 231.326 207.443C231.78 210.351 233.034 213.179 232.768 216.167C232.073 214.593 231.032 213.206 229.057 213.42C225.213 213.339 221.369 213.473 217.552 213.019C216.965 211.952 216.457 210.832 215.977 209.711C214.482 208.937 212.24 209.951 210.531 209.151C213.014 198.853 216.671 188.821 221.102 179.217C221.85 177.429 223.051 175.855 224.546 174.655C228.47 172.734 232.607 171.32 236.692 169.773C237.199 169.612 237.679 169.452 238.16 169.266C241.924 168.092 245.554 165.824 249.425 165.424C246.515 169.906 245.367 175.428 244.78 180.684C244.139 179.937 242.671 179.804 243.472 181.084C244.406 181.911 244.513 183.112 244.513 184.313C244.486 186.554 244.38 188.821 244.7 191.062C244.967 193.65 245.154 196.238 245.474 198.826C245.287 199.333 245.234 199.947 245.634 200.4C245.981 202.508 246.115 204.615 246.408 206.723C246.275 207.123 246.141 207.523 246.035 207.924C245.607 208.004 245.154 208.11 244.753 208.27C239.281 209.951 238.427 217.875 242.404 221.53C245.821 225.985 253.723 224.011 255.164 218.782C256.846 214.887 254.924 209.818 250.92 208.27C250.226 207.95 249.398 207.79 248.837 207.257C248.117 201.467 247.556 195.678 247.129 189.862C247.209 188.101 247.236 186.314 247.182 184.553C249.718 187.141 253.669 187.247 256.365 189.462C254.684 191.783 252.308 193.597 250.893 196.131C258.421 206.59 266.322 216.834 273.743 227.373C273.45 233.909 273.663 240.472 273.61 247.035C273.663 269.872 273.503 292.736 273.69 315.574L273.663 315.6Z" fill="#FDFEFD"/>
<path d="M300.223 194.049C302.92 194.503 305.482 191.995 308.045 191.168C312.449 191.168 315.866 194.289 319.417 196.45C320.137 199.492 319.337 202.693 319.737 205.788C319.684 214.165 318.482 222.596 317.148 230.866C316.454 233.161 315.172 235.722 312.449 235.909C311.649 236.229 310.741 236.176 310.634 235.135C310.527 234.441 309.647 234.415 309.086 234.335C307.031 235.482 304.601 234.628 302.466 234.148C302.012 233.027 300.277 233.294 300.544 234.602C296.353 235.162 294.11 230.386 294.618 226.865C295.338 220.648 295.766 214.325 297.234 208.243C300.33 204.454 303.133 200.426 306.203 196.611C306.577 196.317 306.977 195.09 306.096 195.57C303.213 198.985 300.677 202.693 298.061 206.322C297.26 206.775 297.581 205.548 297.421 205.094C297.501 204.561 297.554 204.001 297.634 203.467C299.743 201.146 298.649 196.877 300.25 194.023L300.223 194.049Z" fill="#FDFEFD"/>
<path d="M327.289 221.075C330.466 206.028 333.135 190.608 336.632 175.801C336.445 179.563 335.297 183.164 334.603 186.846C332.494 198.131 329.958 209.336 327.85 220.595C327.716 220.702 327.423 220.942 327.289 221.049V221.075Z" fill="#D1DADD"/>
<path d="M314.663 178.949C316.665 180.603 312.848 180.977 312.367 182.551C312.367 182.017 312.367 180.977 312.367 180.443C313.195 180.043 314.102 179.723 314.636 178.949H314.663Z" fill="#DADDE5"/>
<path d="M225.425 179.35C228.602 192.236 231.511 205.255 233.807 218.328C233.407 217.634 233.033 216.94 232.713 216.22C233.006 213.232 231.725 210.404 231.271 207.496C230.043 201.573 228.842 195.677 227.481 189.808C226.813 186.34 225.452 182.951 225.398 179.403L225.425 179.35Z" fill="#D4DEE1"/>
<path d="M243.441 181.112C242.641 179.832 244.135 179.965 244.749 180.712C244.749 181.913 244.749 183.113 244.749 184.34H244.456C244.456 183.14 244.349 181.939 243.415 181.112H243.441Z" fill="#CFD7E0"/>
<path d="M308.445 183.7C309.059 182.953 309.486 182.072 309.913 181.219C309.967 182.499 310.18 184.554 308.445 183.7Z" fill="#94A6BC"/>
<path d="M273.713 227.372C266.292 216.807 258.391 206.589 250.863 196.13C252.278 193.596 254.653 191.808 256.335 189.461C253.639 187.246 249.688 187.14 247.152 184.552V184.231C247.152 184.071 247.152 183.778 247.179 183.645C250.436 185.352 253.746 186.953 257.243 188.1C257.643 187.993 258.044 187.806 258.471 187.673C256.656 190.821 253.692 193.089 251.744 196.13C258.844 205.521 265.732 215.099 272.592 224.677C272.752 225.317 273.686 225.958 273.713 224.864C273.9 225.691 273.74 226.518 273.713 227.372Z" fill="#D9DFE4"/>
<path d="M244.483 184.312H244.777C244.777 186.554 244.75 188.821 244.67 191.062C244.377 188.821 244.457 186.554 244.483 184.312Z" fill="#9BACBE"/>
<path d="M247.098 189.862C246.645 188.021 246.938 186.1 247.152 184.232V184.553C247.205 186.313 247.178 188.101 247.098 189.862Z" fill="#A7AEBC"/>
<path d="M308.684 186.607C309.217 186.18 309.831 186.18 310.552 186.607C309.965 186.927 309.244 186.954 308.684 186.607Z" fill="#9CA6C0"/>
<path d="M301.316 191.943C302.624 188.955 305.774 187.541 308.684 186.607C309.271 186.954 309.965 186.928 310.553 186.607C315.037 187.835 318.774 191.837 319.388 196.479C315.838 194.344 312.421 191.196 308.017 191.196C308.844 190.636 310.366 190.529 309.939 189.169C306.922 189.489 304.466 192.103 301.316 191.97V191.943Z" fill="#F3F4F7"/>
<path d="M301.316 191.942C304.466 192.075 306.922 189.461 309.939 189.141C310.366 190.501 308.844 190.608 308.017 191.168C305.454 191.969 302.918 194.476 300.195 194.05C300.516 193.329 300.889 192.609 301.29 191.942H301.316Z" fill="#E3E4ED"/>
<path d="M306.068 195.597C306.949 195.117 306.575 196.37 306.174 196.637C303.105 200.452 300.302 204.481 297.205 208.269C297.205 207.202 297.152 206.162 297.365 205.121C297.525 205.548 297.232 206.775 298.006 206.348C300.622 202.72 303.158 199.012 306.041 195.597H306.068Z" fill="#DEE6EB"/>
<path d="M245.447 198.852C245.847 199.278 245.794 199.892 245.607 200.426C245.206 199.999 245.26 199.385 245.447 198.852Z" fill="#9FAABD"/>
<path d="M296.004 202.773C296.538 203.014 297.072 203.254 297.606 203.494C297.552 204.027 297.472 204.588 297.392 205.121C297.179 206.162 297.205 207.202 297.232 208.269C295.764 214.352 295.337 220.675 294.616 226.891C294.109 230.413 296.351 235.189 300.542 234.628C300.516 235.162 300.409 235.695 300.249 236.202C298.353 236.149 296.431 235.562 295.043 234.228C293.842 232.601 292.854 230.626 292.961 228.545C293.228 223.476 294.002 218.434 294.616 213.365C294.696 212.565 294.776 211.791 294.856 210.991C295.737 208.349 295.951 205.521 296.004 202.773Z" fill="#93AFC4"/>
<path d="M198.381 208.856C197.607 206.695 198.488 203.467 201.157 203.467C205.375 203.04 207.431 207.362 210.474 209.176C212.155 209.977 214.398 208.963 215.919 209.737C214.024 209.577 215.359 211.497 214.691 212.458C207.057 212.404 199.369 211.791 191.761 212.218C192.268 211.124 191.441 210.03 191.414 208.91C193.683 208.403 196.059 209.123 198.381 208.856Z" fill="#B2CCD6"/>
<path d="M319.707 205.816C320.294 206.003 320.908 206.163 321.495 206.297C320.881 212.673 320.294 219.049 319.44 225.399C318.986 228.2 319.039 231.188 317.731 233.776C317.785 232.762 317.865 231.668 317.117 230.895C318.452 222.598 319.653 214.194 319.707 205.816Z" fill="#8DACBF"/>
<path d="M246.382 206.723C246.835 207.15 246.755 208.03 246.008 207.923C246.115 207.523 246.248 207.123 246.382 206.723Z" fill="#A7B5CB"/>
<path d="M242.373 221.556C238.422 217.901 239.277 210.004 244.722 208.297C244.829 208.377 245.043 208.537 245.149 208.617C240.158 210.271 238.983 217.635 243.227 220.703C247.579 224.705 255.72 220.729 254.946 214.78C254.653 212.085 252.784 209.871 250.462 208.59C250.568 208.51 250.755 208.377 250.862 208.297C254.866 209.844 256.761 214.913 255.106 218.808C252.891 221.156 249.901 223.744 246.324 223.077C244.936 222.73 243.815 221.636 242.347 221.556H242.373Z" fill="#5A7088"/>
<path d="M245.15 208.617C246.859 208.004 248.727 208.27 250.489 208.59C252.812 209.871 254.68 212.085 254.974 214.78C255.775 220.729 247.633 224.705 243.255 220.703C238.984 217.635 240.159 210.271 245.177 208.617H245.15ZM246.699 212.592C245.15 213.126 244.296 215.874 245.898 216.834C247.153 218.702 250.463 217.395 250.249 215.234C250.81 213.286 248.327 211.925 246.699 212.592Z" fill="#C3DCE4"/>
<path d="M214.697 212.459C215.337 211.499 214.029 209.578 215.925 209.738C216.405 210.858 216.912 211.979 217.5 213.046C216.592 213.126 215.658 213.446 215.951 214.54C216.245 215.18 216.645 215.767 217.019 216.354C217.153 219.076 213.656 215.474 213.842 216.781C213.682 216.648 213.389 216.408 213.229 216.274C212.294 215.02 210.159 215.207 208.717 215.287C205.621 215.714 202.444 215.1 199.321 214.94C197.799 215.127 199.988 216.621 199.001 217.235C197.799 217.075 197.105 215.874 195.877 215.874C194.649 212.939 191.58 213.313 188.99 213.42C185.733 212.486 182.29 213.393 178.953 212.806C178.953 212.433 179.06 212.166 179.354 211.952C183.491 211.659 187.629 212.086 191.766 212.246C199.374 211.846 207.062 212.433 214.697 212.486V212.459Z" fill="#91B1C7"/>
<path d="M294.855 211.019C294.774 211.819 294.694 212.593 294.614 213.393C294.241 213.046 293.84 213.393 293.6 213.713C291.117 216.808 289.062 220.25 286.606 223.398C285.885 224.732 284.39 225.772 284.364 227.4C284.123 226.573 284.23 225.719 284.444 224.892C288.581 220.757 290.85 215.207 294.855 210.992V211.019Z" fill="#DAE4E9"/>
<path d="M246.699 212.593C248.327 211.926 250.81 213.287 250.249 215.235C250.462 217.396 247.152 218.703 245.898 216.835C244.296 215.848 245.15 213.1 246.699 212.593Z" fill="#5D7495"/>
<path d="M178.977 212.779C182.314 213.34 185.758 212.459 189.014 213.393C191.604 213.286 194.673 212.913 195.901 215.847C196.489 216.861 197.343 217.822 198.544 218.115C204.844 218.515 211.117 218.835 217.417 218.809C218.378 218.195 217.524 216.995 217.043 216.354C216.669 215.767 216.242 215.207 215.975 214.54C220.62 213.846 225.265 214.727 229.91 214.647C232.232 215.927 232.659 218.835 233.861 220.996C238.025 229.907 242.963 238.418 246.407 247.676C246.033 247.916 245.686 248.182 245.339 248.449C244.458 248.876 243.577 249.303 242.696 249.757C240.561 246.342 237.971 243.22 235.195 240.339C234.768 239.779 234.768 240.766 234.581 241.032C234.768 239.538 232.926 240.365 232.019 240.125C232.286 240.819 232.739 241.379 233.167 241.993C233.086 242.5 233.353 242.953 233.647 243.354C235.756 246.155 237.117 249.436 239.333 252.184C237.785 253.572 236.076 254.986 235.302 256.987C234.608 258.854 234.261 260.882 234.208 262.883C231.805 265.764 227.32 265.471 223.93 266.804C221.181 266.858 218.591 268.058 215.815 267.978C213.359 267.365 210.877 268.192 208.474 268.619C208.394 268.512 208.234 268.298 208.181 268.192C207.06 265.977 205.752 263.87 204.63 261.682C204.844 261.469 205.057 261.255 205.271 261.042C205.805 263.256 207.834 264.617 208.314 266.831C208.741 268.699 210.77 266.831 211.731 266.431C212.051 264.19 211.331 262.056 211.117 259.868C212.906 259.734 213.973 259.334 213.733 257.253C216.242 256.88 218.885 257.2 221.421 257.067C224.491 258.347 221.955 253.492 225.025 254.585C226.039 254.532 225.692 253.305 225.639 252.585C224.357 251.491 222.088 252.958 220.834 251.811C220.78 250.45 220.7 249.09 220.834 247.729C222.516 246.715 225.345 247.222 226.119 245.034C227.614 244.207 229.162 247.062 230.444 245.461C230.07 244.741 231.405 241.886 229.67 242.66C227.908 243.62 227.481 239.939 229.162 240.232C230.284 240.099 230.337 238.365 230.15 237.457C227.427 238.711 227.641 234.656 228.255 233.055C232.179 233.589 229.883 228.573 230.47 226.466C230.257 224.411 227.08 226.252 225.826 225.345C226.359 221.423 221.341 223.718 219.232 223.131C218.031 222.997 218.458 224.598 218.138 225.398C215.735 225.425 213.413 225.772 211.304 226.732C210.663 228.627 208.421 227.933 206.819 227.986C205.805 227.986 206.819 225.879 205.671 226.199C206.259 230.708 198.277 225.292 198.838 229.774C198.838 230.921 196.889 229.961 196.622 230.814C197.77 232.575 194.46 233.509 195.528 231.054C194.86 229.08 192.992 232.255 191.71 231.268C191.203 230.414 189.201 227.613 188.32 229.48C190.162 232.442 191.203 235.91 193.285 238.711C193.259 239.085 193.179 239.832 193.152 240.205C189.201 232.975 185.17 225.799 181.433 218.435C180.579 216.594 178.951 214.94 178.844 212.833L178.977 212.779Z" fill="#7293B8"/>
<path d="M215.95 214.541C215.629 213.447 216.59 213.127 217.498 213.047C221.315 213.5 225.159 213.34 229.003 213.447C231.005 213.26 232.046 214.648 232.714 216.195C233.034 216.915 233.408 217.636 233.808 218.303C235.73 222.945 238.053 227.374 240.241 231.882C242.724 236.978 245.42 242.02 247.529 247.276C247.155 247.41 246.755 247.516 246.381 247.623C242.938 238.392 237.999 229.855 233.835 220.944C232.66 218.783 232.206 215.875 229.884 214.594C225.239 214.701 220.568 213.794 215.95 214.488V214.541Z" fill="#89A6C3"/>
<path d="M199.022 217.208C200.009 216.595 197.82 215.127 199.342 214.914C202.465 215.074 205.615 215.688 208.738 215.261C210.18 215.181 212.315 214.994 213.25 216.248C212.476 217.208 214.211 218.409 213.864 216.755C213.677 215.448 217.147 219.049 217.04 216.328C217.547 216.995 218.375 218.169 217.414 218.783C211.114 218.783 204.841 218.489 198.541 218.089C197.34 217.795 196.512 216.835 195.898 215.821C197.1 215.821 197.82 217.022 199.022 217.182V217.208Z" fill="#83A4C2"/>
<path d="M213.84 216.78C214.214 218.434 212.452 217.234 213.226 216.273C213.386 216.407 213.68 216.647 213.84 216.78Z" fill="#C8E1F6"/>
<path d="M246.329 223.077C249.906 223.744 252.896 221.156 255.111 218.809C253.67 224.038 245.768 225.985 242.352 221.557C243.82 221.637 244.941 222.73 246.329 223.077Z" fill="#879BBB"/>
<path d="M218.242 225.372C218.536 224.572 218.135 222.971 219.336 223.105C221.445 223.691 226.464 221.397 225.93 225.319C227.185 226.226 230.361 224.385 230.575 226.439C229.987 228.547 232.283 233.563 228.359 233.029C227.745 234.63 227.505 238.685 230.254 237.431C230.441 238.312 230.415 240.072 229.267 240.206C227.585 239.939 228.012 243.621 229.774 242.634C231.509 241.86 230.174 244.715 230.548 245.435C229.267 247.036 227.692 244.154 226.224 245.008C225.449 247.196 222.62 246.716 220.938 247.703C220.805 249.063 220.885 250.424 220.938 251.785C222.166 252.932 224.462 251.464 225.743 252.558C225.796 253.279 226.143 254.506 225.129 254.559C222.059 253.439 224.595 258.321 221.525 257.04C218.963 257.147 216.347 256.854 213.837 257.227C214.078 259.281 213.01 259.682 211.221 259.842C211.435 262.029 212.129 264.164 211.835 266.405C210.901 266.805 208.872 268.672 208.418 266.805C207.938 264.591 205.909 263.203 205.375 261.016C205.135 261.202 204.922 261.416 204.735 261.656C202.546 257.841 200.757 253.812 198.462 250.05C196.806 246.742 195.205 243.407 193.363 240.206C193.39 239.832 193.47 239.085 193.496 238.712C191.414 235.91 190.373 232.442 188.531 229.481C189.412 227.613 191.388 230.415 191.921 231.268C193.203 232.255 195.071 229.054 195.739 231.055C194.698 233.509 198.008 232.576 196.833 230.815C197.1 229.961 199.049 230.895 199.049 229.774C198.488 225.292 206.47 230.708 205.883 226.199C207.004 225.879 206.016 227.987 207.03 227.987C208.632 227.933 210.874 228.627 211.515 226.733C213.624 225.772 215.946 225.426 218.349 225.399L218.242 225.372Z" fill="#7495BC"/>
<path d="M312.423 235.937C315.146 235.75 316.454 233.189 317.121 230.895C317.869 231.668 317.789 232.762 317.735 233.776C316.401 236.55 313.278 238.098 310.234 237.671C310.314 236.844 310.475 236.017 310.608 235.163C310.688 236.204 311.596 236.257 312.423 235.937Z" fill="#9CBBCE"/>
<path d="M240.242 231.908C241.951 231.294 242.805 233.028 244.113 234.015C244.3 231.667 247.076 233.962 247.984 232.121C247.45 234.122 250.386 233.375 251.48 234.282C252.628 235.109 252.575 232.921 253.563 232.815C254.55 232.681 254.203 234.282 255.004 234.629C256.018 235.082 256.659 236.016 257.567 236.63C260.423 238.124 256.339 243.086 260.103 243.833C261.304 244.367 258.982 244.553 259.569 245.274C260.236 246.021 258.101 246.981 259.435 247.461C261.197 247.835 259.382 249.409 258.368 248.902C257.407 248.369 255.138 248.422 256.392 249.943C259.248 251.677 259.222 255.359 261.437 257.653C262.772 258.693 260.77 260.054 261.998 261.041C263.733 262.162 264.534 265.55 261.998 266.137C262.131 265.63 262.238 265.123 262.372 264.643C263.012 263.309 262.238 262.028 261.117 261.308C259.809 260.614 261.998 259.174 261.251 258.16C260.61 256.959 259.302 256.319 258.608 255.172C258.608 255.012 258.608 254.718 258.608 254.558C258.421 252.717 256.205 251.944 255.271 250.476C254.283 248.422 251.507 248.262 249.585 248.875C249.585 248.449 249.585 248.022 249.585 247.595C250.039 245.647 248.437 246.901 247.53 247.328C245.421 242.072 242.725 237.03 240.242 231.934V231.908Z" fill="#FBF6F4"/>
<path d="M300.543 234.63C300.249 233.323 302.011 233.083 302.465 234.177C302.145 234.764 302.011 235.404 302.011 236.071C302.011 236.605 302.171 237.138 302.332 237.618C300.863 238.152 300.383 237.298 300.223 236.151C300.383 235.644 300.49 235.11 300.516 234.577L300.543 234.63Z" fill="#6E84A2"/>
<path d="M300.97 241.138C297.981 240.285 293.096 238.044 295.018 234.229C296.406 235.562 298.328 236.123 300.223 236.203C300.383 237.35 300.864 238.177 302.332 237.67C304.334 237.643 306.363 237.857 308.311 238.364L308.445 238.604C308.738 239.644 309.993 239.031 310.687 239.004C312.609 238.604 314.798 238.897 316.266 237.403C316.533 238.551 315.359 240.285 314.451 241.005C310.207 243.54 305.428 240.525 300.944 241.165L300.97 241.138Z" fill="#FBF5F5"/>
<path d="M302.466 234.203C304.601 234.657 307.03 235.51 309.086 234.39C309.192 235.164 309.379 235.964 309.353 236.764C306.87 237.058 304.414 235.51 302.012 236.124C302.012 235.457 302.145 234.79 302.466 234.23V234.203Z" fill="#DEE6EF"/>
<path d="M309.083 234.363C309.644 234.443 310.525 234.443 310.632 235.164C310.498 235.991 310.338 236.818 310.258 237.671C310.098 238.605 309.244 238.632 308.469 238.579L308.336 238.338C308.71 237.832 309.11 237.325 309.377 236.738C309.377 235.937 309.217 235.164 309.11 234.363H309.083Z" fill="#68798E"/>
<path d="M302.012 236.096C304.414 235.483 306.87 237.03 309.353 236.737C309.086 237.324 308.712 237.831 308.312 238.337C306.363 237.857 304.334 237.617 302.332 237.644C302.145 237.137 302.012 236.63 302.012 236.096Z" fill="#B8C3D5"/>
<path d="M231.992 240.099C232.873 240.339 234.742 239.512 234.555 241.006C234.235 241.487 233.621 241.673 233.14 241.967C232.713 241.38 232.259 240.793 231.992 240.099Z" fill="#96A8CA"/>
<path d="M234.555 241.006C234.768 240.739 234.742 239.752 235.169 240.312C237.945 243.193 240.534 246.341 242.67 249.73C241.549 250.53 240.428 251.33 239.333 252.157C237.118 249.436 235.756 246.128 233.647 243.327C233.354 242.926 233.087 242.473 233.167 241.966C233.647 241.673 234.261 241.486 234.582 241.006H234.555Z" fill="#455077"/>
<path d="M247.527 247.302C248.435 246.875 250.037 245.621 249.583 247.568C248.916 248.662 248.275 249.756 247.394 250.717C245.979 250.53 246.833 248.315 245.285 248.449C245.632 248.182 246.006 247.915 246.353 247.675C246.727 247.568 247.127 247.435 247.501 247.328L247.527 247.302Z" fill="#F7CCB2"/>
<path d="M247.424 250.716C248.305 249.783 248.946 248.662 249.613 247.568C249.613 247.995 249.613 248.422 249.613 248.849C249.453 249.409 249.88 249.329 250.254 249.276C250.12 250.423 249.239 251.117 248.358 251.73C248.198 251.864 247.878 252.104 247.718 252.211C247.317 252.504 246.917 252.797 246.49 253.118C245.102 254.025 243.874 255.145 242.539 256.132C243.02 253.625 245.822 252.504 247.371 250.716H247.424Z" fill="#EE9473"/>
<path d="M242.673 249.729C243.553 249.276 244.434 248.849 245.315 248.422C246.837 248.288 245.983 250.503 247.424 250.69C245.876 252.477 243.073 253.598 242.592 256.105C241.925 256.959 240.67 257.226 240.163 258.213C241.818 258.693 243.206 257.84 244.514 257.066C245.636 256.372 246.703 255.598 247.638 254.665C248.705 254.051 248.278 253.064 247.771 252.21C247.931 252.077 248.252 251.837 248.412 251.73C249.319 251.81 248.599 252.851 249.133 253.277C250.36 254.371 248.011 255.198 247.504 256.052C248.412 256.239 249.319 256.292 250.227 256.452C249.399 258.08 249.026 260.881 251.775 260.641C253.938 262.455 251.321 264.963 249.907 266.404C251.882 266.804 254.098 265.87 255.913 264.936C256.34 265.55 256.687 266.404 257.515 265.817C259.089 264.936 259.063 267.737 260.558 267.337C260.371 266.644 260.05 266.003 259.944 265.31C260.771 265.096 261.599 264.883 262.4 264.589C262.266 265.096 262.159 265.576 262.026 266.083C261.118 267.284 260.184 268.431 259.25 269.605C254.018 274.861 245.796 273.073 239.416 275.848C234.344 278.142 229.619 281.264 225.348 284.812C222.305 286.973 219.262 289.161 215.952 290.922C214.163 290.735 213.496 288.681 212.588 287.4C211.173 281.717 209.438 274.887 213.336 269.818C216.432 267.577 220.676 268.511 223.933 266.724C227.323 265.39 231.808 265.683 234.21 262.802C234.985 260.961 235.091 258.88 235.305 256.906C236.079 254.905 237.787 253.491 239.336 252.104C240.43 251.276 241.551 250.476 242.673 249.676V249.729Z" fill="#FDBB88"/>
<path d="M249.612 248.85C251.561 248.209 254.31 248.37 255.298 250.451C256.206 251.918 258.448 252.692 258.635 254.532C257.14 256.72 255.512 258.881 254.47 261.309C256.099 259.441 257.514 257.387 258.608 255.146C259.302 256.293 260.61 256.907 261.251 258.134C261.998 259.148 259.809 260.589 261.117 261.282C262.238 261.976 262.986 263.283 262.372 264.617C261.571 264.911 260.744 265.124 259.916 265.337C260.023 266.031 260.343 266.698 260.53 267.365C259.035 267.739 259.089 264.964 257.487 265.844C256.659 266.458 256.286 265.578 255.885 264.964C254.07 265.898 251.854 266.832 249.879 266.431C251.294 264.991 253.91 262.483 251.748 260.669C248.998 260.935 249.372 258.107 250.199 256.48C249.292 256.32 248.384 256.24 247.477 256.08C247.984 255.226 250.333 254.399 249.105 253.305C248.544 252.878 249.292 251.811 248.384 251.758C249.238 251.118 250.119 250.424 250.279 249.303C249.879 249.357 249.479 249.437 249.639 248.876L249.612 248.85Z" fill="#FCB584"/>
<path d="M197.798 251.09C197.985 250.716 198.172 250.343 198.359 249.996C200.654 253.758 202.416 257.786 204.632 261.601C205.753 263.816 207.061 265.924 208.182 268.111C205.112 268.858 201.882 269.712 199.266 271.579C202.363 270.672 205.352 269.392 208.476 268.565C210.878 268.138 213.361 267.338 215.817 267.924C213.895 268.458 212.48 269.845 211.492 271.553C208.582 275.635 209.677 281.424 210.771 286.04C207.995 289.508 203.03 290.682 198.786 289.668C197.958 288.761 197.451 287.587 196.65 286.653C195.422 283.718 195.182 280.517 194.701 277.396C194.621 272.993 195.342 268.671 196.063 264.376C196.41 262.482 196.677 260.588 196.864 258.667C197.478 256.212 197.691 253.651 197.798 251.117V251.09Z" fill="#FDFDFC"/>
<path d="M246.512 253.118C246.912 252.825 247.313 252.531 247.74 252.211C248.247 253.065 248.674 254.025 247.606 254.665C247.152 254.212 246.618 253.785 246.512 253.118Z" fill="#9A92A7"/>
<path d="M373.416 252.932C373.416 252.932 373.816 252.825 373.95 252.771C373.042 254.185 371.2 254.692 370.213 256.053C369.946 256.507 368.745 257.227 369.118 256.186C370.4 254.906 371.868 253.839 373.416 252.932Z" fill="#DFE3E5"/>
<path d="M242.562 256.132C243.897 255.145 245.125 254.024 246.513 253.117C246.593 253.811 247.154 254.211 247.607 254.665C246.7 255.598 245.605 256.372 244.484 257.066C243.496 257.119 242.429 257.332 242.562 256.132Z" fill="#595A79"/>
<path d="M254.469 261.308C255.51 258.88 257.138 256.719 258.633 254.531C258.633 254.691 258.633 254.985 258.633 255.145C257.539 257.386 256.124 259.44 254.495 261.308H254.469Z" fill="#E79563"/>
<path d="M240.133 258.24C240.64 257.28 241.895 256.987 242.562 256.133C242.429 257.333 243.523 257.12 244.484 257.067C243.149 257.84 241.761 258.721 240.133 258.214V258.24Z" fill="#E37455"/>
<path d="M234.207 262.857C234.26 260.856 234.607 258.828 235.302 256.961C235.088 258.935 234.954 261.016 234.207 262.857Z" fill="#DCBFB0"/>
<path d="M215.812 267.924C218.589 268.004 221.178 266.803 223.927 266.75C220.671 268.537 216.426 267.577 213.33 269.845C209.433 274.914 211.168 281.744 212.582 287.426C209.539 282.784 209.673 276.675 211.488 271.579C212.502 269.871 213.89 268.511 215.812 267.951V267.924Z" fill="#EFBF9C"/>
<path d="M199.266 271.607C201.882 269.739 205.112 268.886 208.181 268.139C208.262 268.245 208.422 268.459 208.475 268.566C205.352 269.393 202.362 270.7 199.266 271.58V271.607Z" fill="#D5DBE0"/>
<path d="M359.376 269.445L359.59 269.525C362.686 270.779 365.97 271.766 368.746 273.687C365.516 272.647 362.5 271.019 359.27 269.952C359.296 269.819 359.35 269.579 359.376 269.445Z" fill="#DEE2E6"/>
<path d="M239.414 275.876C245.794 273.101 254.016 274.889 259.248 269.633C259.568 270.22 259.835 270.833 260.049 271.474C259.355 274.328 262.345 276.543 262.879 279.211C264.133 282.545 266.509 285.4 267.55 288.842C267.737 289.856 266.989 290.629 265.975 290.442C264.694 290.362 263.439 290.309 262.158 290.256C261.01 290.149 259.835 290.096 258.688 290.096C257.406 290.042 256.152 290.016 254.87 289.962C253.616 289.776 252.361 289.776 251.106 289.776C249.932 289.722 248.784 289.695 247.609 289.669C246.542 289.482 245.501 289.402 244.433 289.482C243.258 289.429 242.11 289.402 240.936 289.375C239.574 289.162 238.213 289.162 236.852 289.189C235.971 289.162 235.09 289.135 234.236 289.135C233.515 289.055 232.821 289.002 232.127 288.948C229.591 288.815 227.001 288.975 224.492 288.442C224.893 287.268 225.133 286.04 225.373 284.813C229.644 281.292 234.369 278.143 239.441 275.849L239.414 275.876Z" fill="#7090B6"/>
<path d="M210.77 286.039C209.676 281.424 208.581 275.661 211.491 271.553C209.676 276.648 209.542 282.758 212.586 287.4C213.52 288.707 214.161 290.735 215.949 290.922C219.232 289.188 222.302 286.973 225.345 284.812C225.078 286.013 224.865 287.267 224.464 288.441C221.822 294.31 214.694 293.803 209.356 294.63C206.392 294.71 202.896 295.804 200.306 293.91C198.411 292.176 197.717 289.561 196.516 287.373C196.542 287.187 196.622 286.84 196.676 286.653C197.477 287.587 197.984 288.761 198.811 289.668C203.029 290.682 207.994 289.508 210.797 286.039H210.77Z" fill="#FBEEEB"/>
<path d="M260.021 271.473C262.904 277.262 265.894 283.025 268.67 288.867C269.685 290.948 266.908 290.708 265.921 290.441C266.935 290.602 267.682 289.855 267.496 288.841C266.455 285.399 264.079 282.544 262.824 279.21C262.29 276.542 259.301 274.327 259.995 271.473H260.021Z" fill="#80A0BE"/>
<path d="M368.746 273.688C370.535 274.194 372.377 275.075 373.658 276.435C371.843 275.902 370.188 274.888 368.746 273.688Z" fill="#DCE3E6"/>
<path d="M374.461 276.996C377.851 278.17 380.093 281.238 383.003 283.212C382.87 283.292 382.576 283.426 382.443 283.506C380.013 281.051 377.05 279.237 374.461 276.996Z" fill="#DCDEE0"/>
<path d="M350.168 284.626C350.221 283.959 350.355 283.292 350.809 282.785C350.595 283.986 351.476 284.626 352.731 284.573C351.93 284.573 350.969 284.493 351.076 285.56C350.969 285.533 350.729 285.48 350.622 285.453C350.462 285.186 350.301 284.919 350.168 284.653V284.626Z" fill="#FDDECC"/>
<path d="M351.074 285.533C350.968 284.465 351.929 284.519 352.73 284.545C358.282 286.573 363.541 289.481 368.212 293.109C367.705 293.936 367.064 294.684 366.344 295.351C363.034 291.642 358.709 288.787 353.771 287.8C352.783 287.16 350.3 288.147 350.461 286.386C350.674 286.12 350.914 285.853 351.074 285.559V285.533Z" fill="#F78571"/>
<path d="M349.633 287.561C349.846 287.134 350.14 286.734 350.487 286.387C350.327 288.148 352.809 287.16 353.797 287.801C358.736 288.788 363.06 291.643 366.37 295.351C365.863 295.831 365.276 296.258 364.742 296.738C364.368 297.032 364.074 297.432 363.834 297.832C363.781 297.912 363.701 298.072 363.647 298.126C363.247 298.419 362.846 298.712 362.419 298.979C360.604 297.992 361.058 295.378 359.349 294.31C358.682 293.243 357.721 292.47 356.547 291.989C356.6 290.335 355.132 289.642 353.797 289.295C352.302 288.948 351.261 287.481 349.659 287.561H349.633Z" fill="#FDA97D"/>
<path d="M349.631 287.562C351.233 287.482 352.274 288.976 353.769 289.296C355.077 289.643 356.571 290.336 356.518 291.99C357.719 292.471 358.654 293.218 359.321 294.312C361.056 295.379 360.576 297.993 362.391 298.98C355.237 304.343 349.124 311.199 341.916 316.268C338.526 318.83 334.282 320.67 329.931 320.03C327.128 319.897 324.538 318.67 321.762 318.349C321.762 315.735 318.052 317.736 316.583 316.402C314.982 315.788 317.544 315.655 317.811 314.881C318.719 313.28 320.614 313.414 322.082 312.72C321.842 310.853 319.653 312.053 318.425 311.573C316.637 310.933 314.768 311.173 312.953 310.799C313.647 307.758 317.651 308.558 319.707 307.091C320.187 306.824 321.735 306.797 320.748 306.157C315.943 306.317 311.058 306.237 306.306 307.064C306.386 307.171 306.546 307.358 306.626 307.438C304.758 307.651 302.889 307.971 301.074 308.425C298.191 308.745 294.881 310.826 292.185 309.198C292.025 306.797 295.602 307.704 296.056 305.517C301.208 303.863 306.36 302.075 311.778 301.595C313.22 301.648 314.635 301.408 316.05 301.061C317.411 301.515 318.852 301.648 320.321 301.515C318.025 300.261 315.115 300.261 312.579 300.234C312.099 300.288 311.592 300.341 311.111 300.368C306.573 299.461 302.062 301.221 297.497 300.981C296.429 301.195 294.534 300.581 294.748 299.194C296.563 299.381 298.164 298.553 299.019 296.979C306.92 294.632 315.356 294.792 323.177 297.38C327.421 299.354 331.933 302.048 336.818 302.395C339.941 300.501 341.81 297.246 344.079 294.525C345.76 292.07 348.029 290.096 349.604 287.562H349.631Z" fill="#FEB988"/>
<path d="M236.824 289.188C238.186 289.162 239.547 289.188 240.908 289.375C239.547 289.402 238.159 289.402 236.824 289.188Z" fill="#AFBDCF"/>
<path d="M244.406 289.507C245.474 289.427 246.515 289.507 247.583 289.694C246.515 289.774 245.447 289.668 244.406 289.507Z" fill="#B8C7DE"/>
<path d="M251.078 289.801C252.333 289.801 253.587 289.801 254.842 289.988C253.587 289.988 252.306 289.988 251.078 289.801Z" fill="#BECFE3"/>
<path d="M258.66 290.121C259.808 290.121 260.983 290.174 262.13 290.281C260.956 290.281 259.808 290.228 258.66 290.121Z" fill="#B2C3D3"/>
<path d="M368.184 293.109C370.133 294.23 371.361 296.231 373.283 297.405C371.468 298.659 368.959 297.618 366.903 297.938C365.675 298.579 365.088 297.565 364.688 296.738C365.221 296.258 365.782 295.831 366.316 295.35C367.037 294.683 367.677 293.963 368.184 293.109Z" fill="#F4D4D2"/>
<path d="M294.777 299.193C295.391 297.539 297.58 297.432 299.048 296.979C298.194 298.526 296.566 299.38 294.777 299.193Z" fill="#FAD8C0"/>
<path d="M312.609 300.234C315.145 300.234 318.055 300.261 320.351 301.515C318.909 301.648 317.468 301.515 316.08 301.061C314.932 300.715 313.757 300.528 312.609 300.234Z" fill="#EF9167"/>
<path d="M311.141 300.368C311.621 300.368 312.128 300.314 312.609 300.234C313.757 300.528 314.931 300.715 316.079 301.061C314.691 301.408 313.276 301.648 311.808 301.595C312.235 300.955 311.568 300.661 311.141 300.368Z" fill="#FFEED5"/>
<path d="M292.214 309.197C291.44 306.903 294.35 305.942 296.085 305.516C295.631 307.703 292.054 306.796 292.214 309.197Z" fill="#FBDDC4"/>
<path d="M306.309 307.063C311.06 306.236 315.945 306.29 320.75 306.156C321.738 306.797 320.19 306.823 319.709 307.09C315.919 307.09 312.101 306.797 308.337 307.223C307.777 307.277 307.216 307.357 306.629 307.437C306.549 307.33 306.389 307.143 306.309 307.063Z" fill="#EE8B60"/>
<path d="M308.34 307.223C312.104 306.796 315.921 307.062 319.712 307.089C317.629 308.557 313.652 307.756 312.958 310.798C314.773 311.171 316.642 310.931 318.43 311.571C319.631 312.051 321.847 310.878 322.087 312.718C320.619 313.412 318.724 313.279 317.816 314.879C317.576 315.653 315.013 315.813 316.588 316.4C318.03 317.734 321.74 315.733 321.767 318.348C315.013 317.441 308.393 319.228 301.693 319.495C300.919 319.041 300.679 318.188 300.839 317.361C302.307 317.441 303.134 316.027 304.442 315.707C308.367 314.052 312.691 314.106 316.668 312.825C318.163 312.879 320.085 313.385 321.26 312.158C318.697 312.078 316.108 312.078 313.545 312.105C312.558 312.372 314.56 312.532 315.147 312.638C309.781 312.265 304.469 313.199 299.424 314.959C297.822 315.573 296.114 315.973 294.432 315.44C294.085 314.906 293.311 313.866 294.486 313.626C297.048 311.838 299.878 310.451 302.814 309.437C305.323 308.823 307.779 308.023 310.315 307.649C312.05 307.062 309.007 307.276 308.313 307.143L308.34 307.223Z" fill="#FAB386"/>
<path d="M306.659 307.436C307.219 307.356 307.78 307.276 308.367 307.223C309.061 307.356 312.104 307.143 310.369 307.73C307.833 308.103 305.351 308.903 302.868 309.517C302.628 308.663 301.934 308.397 301.133 308.423C302.948 307.97 304.817 307.65 306.685 307.436H306.659Z" fill="#FEF0D9"/>
<path d="M315.172 312.692C314.585 312.585 312.583 312.425 313.57 312.159C316.133 312.159 318.696 312.132 321.285 312.212C320.11 313.439 318.188 312.906 316.693 312.879C316.186 312.826 315.679 312.746 315.172 312.692Z" fill="#F28466"/>
<path d="M299.45 315.013C304.495 313.226 309.808 312.319 315.173 312.692C315.68 312.746 316.187 312.799 316.695 312.879C312.69 314.16 308.366 314.106 304.469 315.76C303.134 316.081 302.306 317.468 300.865 317.415C301.853 316.641 302.92 315.947 303.961 315.227C301.372 315.6 298.729 315.707 296.247 316.614C295.419 316.988 294.832 316.187 294.512 315.52C296.193 316.054 297.902 315.627 299.504 315.04L299.45 315.013Z" fill="#FEF0E4"/>
<path d="M228.762 317.014C228.788 316.854 228.842 316.56 228.868 316.4C235.969 317.147 243.257 316.4 250.437 316.747C250.544 316.881 250.784 317.147 250.918 317.281C243.524 317.494 236.156 317.147 228.762 317.014Z" fill="#D5DEDF"/>
<path d="M250.251 317.547C250.785 317.68 250.438 318.427 250.545 318.801C250.358 327.258 249.744 335.689 249.557 344.146C249.371 344.626 248.837 344.573 248.41 344.573C240.615 343.959 232.767 344.413 224.945 344.226V343.986C232.954 343.879 240.962 344.013 248.97 343.932C249.691 335.155 249.904 326.351 250.251 317.547Z" fill="#D3DADD"/>
<path d="M284.419 224.891C284.206 225.718 284.126 226.572 284.339 227.399C284.606 230.28 284.419 233.188 284.473 236.096C284.473 238.791 284.499 241.512 284.419 244.207C284.499 247.541 284.499 250.876 284.419 254.211C284.579 275.528 284.419 296.871 284.473 318.214C284.473 319.522 284.473 320.829 284.473 322.136C280.949 321.843 277.292 322.67 273.848 321.869V322.136H273.555C273.555 319.949 273.555 317.734 273.635 315.546C273.448 292.709 273.608 269.845 273.555 247.008C273.608 240.445 273.394 233.908 273.688 227.345C273.741 226.492 273.902 225.665 273.688 224.838C270.725 209.284 267.175 193.863 264.185 178.336C263.811 176.468 263.357 174.628 263.277 172.733C263.865 172.893 264.452 173.107 265.039 173.32C267.255 174.147 269.711 173.934 271.926 174.708C276.518 174.467 281.109 174.627 285.701 174.681L285.941 174.601C288.824 173.56 291.894 172.92 294.83 171.906C294.83 172.12 294.75 172.573 294.723 172.787C291.894 190.261 287.329 207.416 284.419 224.864V224.891Z" fill="#101082"/>
<path d="M301.691 319.523C308.392 319.256 315.012 317.469 321.765 318.376C324.542 318.723 327.131 319.95 329.934 320.057C330.147 320.723 330.334 321.417 330.575 322.111C330.681 324.085 331.135 326.006 331.429 327.954C330.468 325.712 330.094 323.285 329.213 321.044C322.486 319.309 315.386 318.109 308.445 319.63C308.338 319.63 308.125 319.656 308.018 319.683C305.909 319.523 303.774 319.923 301.691 319.523Z" fill="#FDF1E8"/>
<path d="M308.469 319.629C315.409 318.082 322.51 319.309 329.237 321.043C330.091 323.311 330.491 325.712 331.452 327.953C332.28 331.315 332.467 334.783 332.947 338.225C332.947 338.598 333.001 338.972 333.027 339.372C333.054 340.092 333.161 340.813 333.294 341.56V341.853C333.348 342.547 333.401 343.267 333.374 343.987C325.473 343.987 317.598 344.041 309.697 343.987C309.163 335.904 309.056 327.766 308.469 319.683V319.629Z" fill="#FEFEFC"/>
<path d="M308.016 319.682C308.016 319.682 308.336 319.656 308.443 319.629C309.03 327.713 309.137 335.823 309.671 343.934C317.545 344.014 325.447 343.934 333.348 343.934V344.174C325.527 344.921 317.599 344.44 309.724 344.521C308.656 343.32 309.217 341.452 309.003 340.012C308.576 333.235 308.309 326.459 308.016 319.656V319.682Z" fill="#D6DDDE"/>
<path d="M284.473 353.965H273.875C273.875 343.346 273.875 332.755 273.875 322.163V321.896C277.319 322.697 280.976 321.896 284.499 322.163C284.499 332.755 284.499 343.373 284.499 353.965H284.473Z" fill="#E09E34"/>
<path d="M273.876 353.966H273.582V322.164H273.876C273.902 332.756 273.876 343.347 273.876 353.966Z" fill="#6C7B8F"/>
</g>
</g>
<defs>
<clipPath id="clip0_10301_32686">
<rect width="752" height="558" fill="white"/>
</clipPath>
<clipPath id="clip1_10301_32686">
<rect width="740" height="558" fill="white" transform="translate(10)"/>
</clipPath>
</defs>
</svg>
