<svg width="578" height="560" viewBox="0 0 578 560" fill="none" xmlns="http://www.w3.org/2000/svg">
<g clip-path="url(#clip0_8898_6983)">
<g opacity="0.14">
<path opacity="0.26" d="M581.998 -110.356V226.471L410.054 326.119L290.769 395L171.713 326.119L-0.00195312 226.471V-110.356L290.769 -278.885L399.293 -216.203V-40.3274L290.769 -103.009L151.794 -22.4184V138.763L233.76 186.291L290.769 219.354L347.779 186.291L430.202 138.763V25.3391H429.973V-354.424L581.769 -438V-110.586L581.998 -110.356Z" fill="#0D257B"/>
<path d="M513.898 952.079L277.282 815.468L277.023 654.255L277.019 542.516L373.697 486.811L513.348 406.59L749.964 543.2L750.413 815.83L662.361 866.65L538.811 795.319L626.863 744.499L626.619 614.177L513.391 548.805L446.758 587.113L400.408 613.755L400.51 667.216L400.466 744.398L480.145 790.4L480.237 790.239L747.016 944.264L744.156 1084.8L514.152 952.011L513.898 952.079Z" fill="#CC922F"/>
</g>
<path d="M369.865 434.962C369.865 434.962 355.637 454.17 332.68 454.17C309.723 454.17 309.402 445.713 309.402 431.92C309.402 418.127 338.232 387.446 355.423 367.73C372.614 348.014 390.82 327.285 431.288 327.285C471.757 327.285 538.519 368.744 577.973 396.544V529.992H486.439C486.439 529.992 447.999 503.714 443.701 497.124C443.701 497.124 439.403 509.503 421.705 509.503C404.007 509.503 365.807 494.349 365.807 451.369C365.807 445.553 369.865 434.935 369.865 434.935V434.962Z" fill="#FFC8B3"/>
<path d="M310.471 441.631L309.029 439.39C309.029 439.39 318.426 433.307 327.956 421.649C337.245 410.283 334.629 394.73 334.576 394.596L337.192 394.143C337.325 394.836 340.048 411.057 330.011 423.356C320.214 435.335 310.845 441.391 310.471 441.658V441.631Z" fill="#E8A691"/>
<path d="M442.58 497.844C442.474 497.657 430.701 479.196 422.506 471.832C418.449 468.204 409.479 464.255 400.804 460.44C391.755 456.465 382.385 452.33 377.366 448.141L376.058 447.047C367.409 439.764 365.087 437.816 364.073 430.426C363.939 430.026 360.255 416.313 367.303 405.935C371.414 399.852 378.327 396.25 387.83 395.21C388.765 395.103 389.726 395.023 390.713 394.996C413.243 394.009 445.063 408.523 468.34 419.114C470.769 420.235 473.119 421.302 475.361 422.289C483.076 425.784 487.934 427.785 491.564 428.959C513.507 436.029 519.833 442.192 520.1 442.432L518.205 444.326C518.205 444.326 512.092 438.377 490.737 431.493C487 430.266 482.061 428.238 474.266 424.717C472.024 423.703 469.675 422.636 467.246 421.542C444.235 411.057 412.656 396.757 390.82 397.664C389.913 397.691 389.005 397.771 388.151 397.878C379.448 398.811 373.202 402.04 369.518 407.429C363.165 416.766 366.635 429.759 366.689 429.893C367.596 436.429 369.145 437.736 377.767 444.993L379.075 446.087C383.8 450.062 392.982 454.09 401.872 457.986C411.161 462.068 419.917 465.936 424.295 469.858C432.757 477.461 444.342 495.656 444.849 496.404L442.607 497.844H442.58Z" fill="#E8A691"/>
<path d="M406.623 461.694L404.301 460.387C404.301 460.387 410.28 449.502 410.921 432.881C411.535 416.9 375.124 405.001 374.75 404.894L375.578 402.36C377.152 402.867 414.311 415.006 413.59 433.014C412.923 450.329 406.863 461.267 406.623 461.721V461.694Z" fill="#E8A691"/>
<path d="M411.722 395.049L409.453 393.662C421.305 374.426 411.135 345.746 411.028 345.453L413.537 344.546C413.991 345.773 424.268 374.72 411.722 395.076V395.049Z" fill="#E8A691"/>
<path d="M282.228 361.034C210.554 361.034 152.254 302.767 152.254 231.133C152.254 159.5 210.554 101.233 282.228 101.233C353.902 101.233 412.202 159.5 412.202 231.133C412.202 302.767 353.902 361.034 282.228 361.034ZM282.228 125.217C223.794 125.217 176.279 172.733 176.279 231.107C176.279 289.481 223.821 336.996 282.228 336.996C340.635 336.996 388.178 289.481 388.178 231.107C388.178 172.733 340.635 125.217 282.228 125.217Z" fill="#1D3E89"/>
<path d="M474.827 423.516C451.149 412.871 415.272 395.263 390.766 396.33L342.797 328.806L365.567 319.548C366.234 320.428 455.794 405.481 474.827 423.516Z" fill="#1D3E89"/>
<path d="M282.229 337.023C340.743 337.023 388.178 289.615 388.178 231.133C388.178 172.652 340.743 125.244 282.229 125.244C223.714 125.244 176.279 172.652 176.279 231.133C176.279 289.615 223.714 337.023 282.229 337.023Z" fill="#E09E34"/>
<path d="M425.977 109.13C396.907 109.13 373.256 85.4923 373.256 56.4388C373.256 27.3852 396.907 3.74756 425.977 3.74756C455.047 3.74756 478.698 27.3852 478.698 56.4388C478.698 85.4923 455.047 109.13 425.977 109.13ZM425.977 11.7246C401.312 11.7246 381.264 31.7873 381.264 56.4121C381.264 81.0369 401.338 101.1 425.977 101.1C450.616 101.1 470.69 81.0369 470.69 56.4121C470.69 31.7873 450.616 11.7246 425.977 11.7246Z" fill="#FDFEFC"/>
<path d="M425.977 11.7246C401.311 11.7246 381.264 31.7873 381.264 56.4121C381.264 81.0369 401.338 101.1 425.977 101.1C450.615 101.1 470.689 81.0369 470.689 56.4121C470.689 31.7873 450.615 11.7246 425.977 11.7246Z" fill="#AEBCD9"/>
<path d="M438.364 85.1454C437.857 84.9053 437.376 84.6652 436.896 84.3984C435.641 83.7047 435 82.6376 434.974 81.1969C434.974 79.7562 434.947 78.3422 434.974 76.9015C434.974 76.5547 435.134 76.1545 435.347 75.8877C437.323 73.2732 438.844 70.3918 440.019 67.3237C440.152 66.9769 440.446 66.6301 440.74 66.4433C442.555 65.2428 443.543 63.6154 443.569 61.4277C443.569 59.4801 443.676 57.5058 443.543 55.5849C443.463 54.5178 443.089 53.4239 442.635 52.4635C442.368 51.8765 442.154 51.343 442.154 50.676C442.181 48.2215 442.154 45.7937 442.181 43.3392C442.235 37.87 439.405 33.2545 434.306 31.2269C427.846 28.6657 421.226 28.6124 414.793 31.3336C409.641 33.4947 407.158 37.6833 407.105 43.2859C407.105 45.8471 407.132 48.4083 407.105 50.9695C407.105 51.3963 406.865 51.8232 406.731 52.2501C406.384 53.3172 405.824 54.3577 405.744 55.4516C405.583 57.4792 405.69 59.5334 405.69 61.5611C405.69 63.1351 406.331 64.4424 407.399 65.5629C407.639 65.8297 407.879 66.1499 407.986 66.4967C408.947 69.8583 410.495 72.9264 412.471 75.8077C412.711 76.1545 412.871 76.6348 412.871 77.0616C412.924 78.2889 412.871 79.5161 412.871 80.7433C412.871 82.4241 412.15 83.6247 410.682 84.425C406.891 86.4793 403.101 88.5336 399.337 90.6146C398.509 91.0681 397.709 91.5217 396.774 92.0553C396.774 92.0553 394.585 93.1758 393.678 93.7627C400.725 100.379 409.908 104.514 419.571 105.635C420.425 105.742 421.306 105.848 422.16 105.955H427.046C428.781 105.742 430.516 105.555 432.224 105.261C440.606 103.847 448.001 100.272 454.3 94.6431C453.046 93.8961 442.608 87.3064 438.311 85.1454H438.364Z" fill="#FDFEFC"/>
<path d="M123.557 166.516C94.487 166.516 70.8359 142.879 70.8359 113.825C70.8359 84.7717 94.487 61.134 123.557 61.134C152.627 61.134 176.278 84.7717 176.278 113.825C176.278 142.879 152.627 166.516 123.557 166.516ZM123.557 69.1111C98.8916 69.1111 78.8442 89.1738 78.8442 113.799C78.8442 138.423 98.9183 158.486 123.557 158.486C148.196 158.486 168.27 138.423 168.27 113.799C168.27 89.1738 148.196 69.1111 123.557 69.1111Z" fill="#FDFEFC"/>
<path d="M123.557 69.1379C98.8911 69.1379 78.8438 89.2006 78.8438 113.825C78.8438 138.45 98.9178 158.513 123.557 158.513C148.195 158.513 168.269 138.45 168.269 113.825C168.269 89.2006 148.195 69.1379 123.557 69.1379Z" fill="#E3C57F"/>
<path d="M135.944 142.532C135.437 142.292 134.956 142.052 134.476 141.785C133.221 141.091 132.58 140.024 132.554 138.583C132.554 137.143 132.527 135.729 132.554 134.288C132.554 133.941 132.714 133.541 132.928 133.274C134.903 130.66 136.424 127.778 137.599 124.71C137.732 124.363 138.026 124.017 138.32 123.83C140.135 122.629 141.123 121.002 141.149 118.814C141.149 116.867 141.256 114.892 141.123 112.971C141.043 111.904 140.669 110.81 140.215 109.85C139.948 109.263 139.735 108.729 139.735 108.062C139.761 105.608 139.735 103.18 139.761 100.726C139.815 95.2565 136.985 90.641 131.886 88.6134C125.426 86.0522 118.806 85.9989 112.373 88.7201C107.221 90.8811 104.738 95.0697 104.685 100.672C104.685 103.234 104.712 105.795 104.685 108.356C104.685 108.783 104.445 109.21 104.311 109.637C103.964 110.704 103.404 111.744 103.324 112.838C103.163 114.866 103.27 116.92 103.27 118.948C103.27 120.522 103.911 121.829 104.979 122.949C105.219 123.216 105.459 123.536 105.566 123.883C106.527 127.245 108.075 130.313 110.051 133.194C110.291 133.541 110.451 134.021 110.451 134.448C110.504 135.675 110.451 136.903 110.451 138.13C110.451 139.811 109.73 141.011 108.262 141.812C104.471 143.866 100.681 145.92 96.917 148.001C96.0895 148.455 95.2886 148.908 94.3543 149.442C94.3543 149.442 92.1654 150.562 91.2578 151.149C98.3051 157.766 107.488 161.901 117.151 163.021C118.005 163.128 118.886 163.235 119.741 163.342H124.626C126.361 163.128 128.096 162.941 129.804 162.648C138.186 161.234 145.581 157.659 151.88 152.03C150.626 151.283 140.188 144.693 135.891 142.532H135.944Z" fill="#FDFEFC"/>
<path d="M135.008 485.038C105.938 485.038 82.2871 461.401 82.2871 432.347C82.2871 403.293 105.938 379.656 135.008 379.656C164.078 379.656 187.729 403.293 187.729 432.347C187.729 461.401 164.078 485.038 135.008 485.038ZM135.008 387.633C110.343 387.633 90.2954 407.696 90.2954 432.32C90.2954 456.945 110.369 477.008 135.008 477.008C159.647 477.008 179.721 456.945 179.721 432.32C179.721 407.696 159.647 387.633 135.008 387.633Z" fill="#FDFEFC"/>
<path d="M135.008 387.633C110.342 387.633 90.2949 407.695 90.2949 432.32C90.2949 456.945 110.369 477.008 135.008 477.008C159.647 477.008 179.721 456.945 179.721 432.32C179.721 407.695 159.647 387.633 135.008 387.633Z" fill="#C7EAD2"/>
<path d="M147.421 461.054C146.913 460.813 146.433 460.573 145.952 460.307C144.698 459.613 144.057 458.546 144.03 457.105C144.03 455.664 144.004 454.25 144.03 452.81C144.03 452.463 144.191 452.063 144.404 451.796C146.379 449.181 147.901 446.3 149.076 443.232C149.209 442.885 149.503 442.538 149.796 442.352C151.612 441.151 152.599 439.524 152.626 437.336C152.626 435.388 152.733 433.414 152.599 431.493C152.519 430.426 152.145 429.332 151.692 428.372C151.425 427.785 151.211 427.251 151.211 426.584C151.238 424.13 151.211 421.702 151.238 419.247C151.291 413.778 148.462 409.163 143.363 407.135C136.903 404.574 130.283 404.521 123.85 407.242C118.698 409.403 116.215 413.591 116.162 419.194C116.162 421.755 116.188 424.316 116.162 426.878C116.162 427.305 115.921 427.731 115.788 428.158C115.441 429.225 114.88 430.266 114.8 431.36C114.64 433.387 114.747 435.442 114.747 437.469C114.747 439.043 115.387 440.351 116.455 441.471C116.695 441.738 116.936 442.058 117.042 442.405C118.003 445.766 119.552 448.835 121.527 451.716C121.767 452.063 121.928 452.543 121.928 452.97C121.981 454.197 121.928 455.424 121.928 456.652C121.928 458.332 121.207 459.533 119.739 460.333C115.948 462.388 112.157 464.442 108.394 466.523C107.566 466.976 106.765 467.43 105.831 467.963C105.831 467.963 103.642 469.084 102.734 469.671C109.782 476.287 118.964 480.423 128.628 481.543C129.482 481.65 130.363 481.757 131.217 481.863H136.102C137.837 481.65 139.572 481.463 141.281 481.17C149.663 479.756 157.057 476.181 163.357 470.551C162.102 469.804 151.665 463.215 147.367 461.054H147.421Z" fill="#FDFEFC"/>
<mask id="mask0_8898_6983" style="mask-type:luminance" maskUnits="userSpaceOnUse" x="176" y="41" width="229" height="297">
<path d="M279.826 41.8184C221.393 41.8184 176.279 172.733 176.279 231.133C176.279 289.534 223.822 337.023 282.229 337.023C300.194 337.023 317.145 332.514 331.987 324.59C343.946 318.214 360.843 324.217 369.519 313.945C379.556 302.073 400.191 275.821 404.248 260.373C406.49 251.809 388.178 240.364 388.178 231.133C388.178 172.733 338.233 41.8184 279.826 41.8184Z" fill="white"/>
</mask>
<g mask="url(#mask0_8898_6983)">
<path d="M248.14 80.343C254.893 68.871 268.401 61.4542 281.774 63.6419C284.497 64.4156 287.247 65.2693 289.436 67.1368C292.986 67.2969 296.697 67.377 299.953 68.9777C298.165 69.9115 299.179 73.3531 296.296 72.4727C295.015 72.9796 295.389 79.4626 296.056 75.1939C297.577 74.8738 296.296 77.595 298.165 77.5417C297.898 79.4893 299.046 79.8628 300.647 79.8895C300.407 81.7036 303.103 83.998 300.541 85.1186C299.152 83.5978 298.191 81.5702 296.296 80.5831C294.988 79.4893 293.12 79.676 291.758 78.7156C291.625 75.7809 292.025 72.3926 290.45 69.7781C289.062 69.1645 287.621 68.5508 286.259 67.8572C286.072 69.0044 287.887 69.0044 287.514 70.3117C282.442 69.538 276.889 70.8452 273.019 74.3135C272.031 75.0872 270.51 75.354 270.323 76.8214C268.481 76.2878 268.988 78.7422 267.573 78.6889C266.212 78.7689 266.212 80.7699 265.01 81.17C264.13 81.4102 262.688 82.9042 264.477 82.8508C263.569 84.3982 260.873 84.0247 261.193 86.4258C258.577 86.5592 257.643 89.3339 255.828 90.7478C256.362 93.0422 254.493 91.6016 253.532 92.1085C251.69 92.8288 249.421 93.4157 248.513 95.3366C247.739 96.9374 245.524 96.3771 244.643 97.7911C243.335 99.4185 239.411 99.3118 240.799 96.4038C243.148 92.4286 245.257 88.0532 246.538 83.5712C246.778 83.0643 247.099 82.584 246.832 82.0238C247.205 81.4368 247.659 80.8766 248.113 80.3697L248.14 80.343Z" fill="#49557B"/>
<path d="M286.286 67.8572C287.648 68.5508 289.089 69.1378 290.477 69.7781C292.052 72.3926 291.652 75.8075 291.785 78.7156C293.147 79.676 295.015 79.4893 296.323 80.5831C298.219 81.5436 299.179 83.5712 300.568 85.1186C303.104 83.998 300.434 81.7303 300.674 79.8895C299.073 79.8628 297.925 79.4893 298.192 77.5417C296.323 77.5684 297.605 74.8738 296.083 75.1939C295.416 79.4893 295.042 72.9796 296.323 72.4727C299.206 73.3531 298.192 69.9115 299.98 68.9777C300.354 69.1378 300.728 69.2712 301.101 69.4312C308.95 73.9934 310.017 83.918 313.114 91.6016C313.541 92.9622 314.075 94.2962 314.742 95.5501C315.943 97.9779 317.332 100.299 318.64 102.647C318.586 103.207 318.64 103.741 318.64 104.301C313.247 102.247 308.549 98.5915 304.598 94.4562C301.208 90.7212 300.915 85.0652 296.91 81.837C295.336 80.3697 293.147 80.0762 291.225 79.3559C290.344 77.3816 291.625 75.1673 290.798 73.1663C288.422 71.5923 283.457 69.0577 281.748 72.8195C281.241 75.4607 285.352 72.0191 284.471 74.5803C278.518 73.5131 273.259 78.1553 270.243 82.7975C267.467 87.9732 264.45 93.149 259.939 97.0174C254.387 101.286 248.567 105.208 242.081 107.983C238.717 109.663 234.713 112.518 235.567 116.813C237.729 123.67 243.095 128.792 245.844 135.382C247.74 140.504 246.939 146.907 242.668 150.642C237.863 154.137 231.643 155.498 227.452 159.98C223.395 163.208 219.951 170.118 224.249 174.494C225.023 175.027 224.569 175.988 224.516 176.735C222.994 177.935 221.793 179.509 221.072 181.297C219.23 180.336 218.296 178.175 216.294 177.455C216.507 177.188 216.561 176.948 216.427 176.735C216.187 176.494 215.947 176.281 215.707 176.068C215.707 175.934 215.653 175.694 215.627 175.561C211.382 167.21 212.663 156.245 219.684 149.735C223.128 146.16 228.733 144.853 231.243 140.424C231.963 139.224 232.524 137.89 232.711 136.476C232.898 135.035 233.165 133.488 232.711 132.074C231.323 126.124 228.52 120.095 230.095 113.932C230.469 112.785 229.321 114.172 228.894 114.386C228.813 114.225 228.627 113.879 228.547 113.719C231.937 110.384 234.473 106.275 237.943 102.994C238.797 101.473 239.785 99.712 239.731 97.9245C239.705 97.6844 239.651 97.4443 239.598 97.2042C239.758 97.0441 239.945 96.8574 240.105 96.6973C240.265 96.6439 240.612 96.5372 240.772 96.4838C239.384 99.3919 243.308 99.4986 244.616 97.8712C245.524 96.4838 247.74 97.0174 248.487 95.4167C249.395 93.4958 251.637 92.8822 253.506 92.1885C254.467 91.6549 256.335 93.1223 255.801 90.8279C257.617 89.4139 258.551 86.6393 261.167 86.5059C260.847 84.1048 263.516 84.4783 264.45 82.9309C262.662 82.9842 264.103 81.4902 264.984 81.2501C266.212 80.8232 266.185 78.849 267.547 78.7689C268.962 78.8223 268.454 76.3678 270.296 76.9014C270.457 75.434 272.005 75.1673 272.992 74.3936C276.863 70.8986 282.416 69.618 287.487 70.3917C287.861 69.1111 286.046 69.0844 286.233 67.9372L286.286 67.8572Z" fill="#465277"/>
<path d="M281.749 72.7661C283.457 69.0043 288.449 71.5388 290.798 73.1129C291.626 75.1138 290.344 77.3549 291.225 79.3024C293.147 80.0495 295.336 80.3162 296.911 81.7836C300.915 85.0118 301.209 90.6944 304.599 94.4028C308.55 98.5381 313.248 102.22 318.64 104.247C318.614 103.714 318.56 103.154 318.64 102.593C319.601 103.847 320.429 105.181 321.417 106.408C323.499 108.836 324.967 111.718 325.608 114.839C327.316 121.989 324.406 129.032 324.566 136.129C324.7 136.182 324.94 136.316 325.074 136.396V136.689C325.127 137.143 325.127 137.596 325.154 138.05C324.46 137.65 324.486 138.13 324.62 138.69C324.326 142.879 328.063 145.707 331.187 147.788C333.456 149.228 335.378 151.123 337.273 152.99C337.78 153.817 338.314 154.644 338.875 155.445C339.035 155.871 339.195 156.325 339.382 156.752C337.967 157.312 337.94 154.084 336.819 154.698C335.831 155.871 338.554 155.925 337.567 157.285C336.098 158.833 336.205 155.605 334.844 155.685C333.936 158.913 336.232 162.168 334.79 165.369C334.15 169.158 329.451 170.251 328.117 173.4C326.569 172.839 325.047 172.279 323.499 171.746C327.61 171.665 330.813 167.69 331.026 163.742C331.267 159.126 328.277 155.098 325.394 151.763C321.764 149.015 317.172 146.961 315.143 142.665C315.837 137.81 318.774 133.728 321.069 129.539C322.511 127.378 319.174 128.365 320.242 126.311C319.414 123.91 322.111 122.736 321.176 120.282C322.137 116.92 316.078 119.801 317.252 116.333C317.145 113.745 316.211 110.063 313.568 109.023C314.209 111.557 315.384 114.012 315.09 116.707C314.609 116.04 313.542 111.958 313.942 115.693C314.396 121.722 311.299 127.058 309.057 132.421C307.295 135.755 306.094 139.517 306.601 143.332C304.546 137.81 308.683 132.714 309.698 127.565C312.287 125.084 312.874 120.815 313.275 117.213C314.369 113.665 308.95 114.812 307.536 116.333C307.696 113.265 308.63 109.663 306.841 106.942C306.414 106.942 305.587 106.915 305.16 106.889C303.772 106.782 302.704 108.409 303.211 109.663C303.531 111.077 301.156 110.757 300.942 109.583C301.903 105.795 297.445 106.408 295.203 105.902C293.147 105.581 291.038 105.581 289.01 105.902C286.634 106.168 283.377 106.915 282.656 109.583C281.829 112.491 283.244 115.453 284.925 117.8C284.685 118.04 284.445 118.307 284.205 118.547C281.669 116.626 282.203 113.025 280.387 110.784C279.453 110.517 278.412 110.384 277.504 110.784C275.93 111.344 276.383 113.558 275.716 114.866C275.556 113.612 275.583 112.331 275.316 111.104C274.782 107.689 271.685 105.635 268.295 105.928C265.946 105.715 263.49 105.448 261.168 105.928C259.673 106.168 258.205 106.382 256.736 106.729C256.576 109.13 256.603 111.557 257.377 113.852C257.484 114.732 257.11 114.972 256.363 114.572C256.202 114.252 256.069 113.905 255.936 113.558C255.775 112.438 255.669 111.051 254.307 110.837C254.227 108.89 252.866 106.515 250.623 106.915C251.931 106.782 252.065 105.475 252.759 104.594C253.72 105.341 254.868 104.888 255.962 104.834C261.808 105.235 268.135 103.847 273.714 106.275C275.529 106.755 275.449 110.49 277.531 109.29C278.813 108.89 281.909 110.784 281.882 108.436C282.443 107.716 283.03 106.995 283.644 106.302C287.515 105.128 291.546 104.674 295.577 104.754C296.751 104.781 297.952 104.808 299.127 104.861C300.034 104.994 300.969 105.181 301.903 105.101C301.796 104.461 301.529 103.901 301.289 103.314C301.102 102.7 300.648 102.246 300.221 101.793C297.418 97.7377 296.271 91.7349 291.572 89.2804C290.718 88.8269 289.864 88.4 288.983 87.9731C288.583 87.4129 287.969 87.0927 287.355 86.7726C289.65 85.572 291.012 82.664 289.704 80.3162C288.503 76.7679 284.472 74.6603 280.841 75.2739C276.09 76.5278 272.299 80.1828 269.95 84.3981C266.907 90.6411 262.556 96.4037 256.656 100.165C254.948 101.153 253.693 102.753 251.931 103.66C251.051 104.061 252.412 105.475 251.211 105.635C249.582 107.262 247.393 106.275 245.551 107.289C242.775 108.409 239.519 109.37 238.317 112.465C238.05 115.266 238.211 118.467 240.052 120.788C240.346 120.628 240.64 120.468 240.933 120.308C243.122 124.017 244.671 128.232 247.66 131.38C248.728 132.207 248.541 133.968 249.796 134.715C250.009 138.023 251.451 141.758 250.41 145.093C248.808 145.573 249.742 147.414 251.131 147.307C251.478 148.428 250.303 149.122 249.689 149.869C247.874 151.363 246.299 153.15 244.404 154.564C243.977 155.685 243.042 156.298 241.974 156.725C239.145 159.26 237.196 163.582 238.931 167.21C239.812 167.53 239.332 166.116 240.052 166.356C241.307 166.33 243.069 166.436 243.096 168.037C241.734 168.517 240.693 170.332 239.118 169.985C239.786 169.665 240.079 168.784 239.252 168.357C236.796 166.143 236.983 162.141 238.878 159.633C239.599 158.006 241.28 156.992 241.948 155.365C238.397 156.378 234.82 158.673 233.139 162.088C231.884 165.236 233.779 168.09 234.874 170.918C235.274 171.559 236.155 171.505 236.822 171.772C232.738 173.32 228.601 174.76 224.677 176.654C224.73 175.907 225.184 174.947 224.41 174.413C220.112 170.011 223.529 163.101 227.613 159.9C231.804 155.418 237.997 154.057 242.829 150.562C247.1 146.827 247.901 140.424 246.005 135.302C243.282 128.739 237.917 123.59 235.728 116.733C234.9 112.438 238.905 109.583 242.241 107.902C248.701 105.128 254.547 101.206 260.1 96.9373C264.611 93.0689 267.628 87.8664 270.404 82.7174C273.42 78.0752 278.679 73.4064 284.632 74.5002C285.513 71.939 281.402 75.4073 281.909 72.7394L281.749 72.7661Z" fill="#414B6F"/>
<path d="M280.733 75.3273C284.363 74.7403 288.367 76.8213 289.595 80.3696C290.903 82.7174 289.542 85.6254 287.246 86.826C287.86 87.1194 288.474 87.4663 288.875 88.0265C288.207 87.9465 287.513 87.9198 286.819 87.9198C286.712 87.9198 286.526 87.9198 286.419 87.9198C286.179 87.3595 285.885 86.826 285.511 86.3457C285.511 85.2519 284.257 84.4248 283.215 84.5582C279.398 83.5444 275.314 85.6788 273.552 89.0937C270.99 93.6024 267.973 98.0845 263.355 100.699C261.326 101.873 259.111 102.673 257.135 103.927C259.244 103.927 261.139 102.673 263.221 102.38C263.729 102.327 264.236 102.273 264.743 102.22C267.893 102.647 271.176 103.127 273.872 104.888C273.712 105.074 273.552 105.288 273.365 105.448C267.599 104.461 261.62 103.047 255.854 104.861C254.759 104.888 253.585 105.368 252.651 104.621C251.983 105.475 251.823 106.809 250.515 106.942C249.1 109.05 249.581 111.904 249.741 114.305C250.221 117.16 251.209 120.335 253.718 122.069C254.679 123.35 257.215 122.202 257.536 123.883C258.336 129.753 261.273 135.142 265.704 139.01C265.704 139.41 265.731 139.811 265.757 140.211C265.677 144.346 265.597 148.481 265.731 152.617C265.677 152.697 265.517 152.83 265.464 152.883C264.369 153.924 263.141 154.831 262.047 155.871C261.219 156.699 260.338 157.499 259.618 158.406C258.443 157.312 257.162 159.9 256.548 160.674C252.998 160.54 251.076 164.809 249.394 167.424C245.523 167.824 241.893 170.091 238.129 171.265C236.821 171.212 237.969 169.398 238.93 169.985C240.505 170.332 241.572 168.517 242.907 168.037C242.907 166.436 241.092 166.33 239.864 166.356C239.143 166.116 239.624 167.53 238.743 167.21C237.008 163.582 238.956 159.26 241.786 156.725C242.854 156.298 243.788 155.685 244.215 154.564C246.11 153.15 247.685 151.389 249.501 149.869C250.115 149.122 251.289 148.455 250.942 147.307C249.554 147.414 248.62 145.6 250.221 145.093C251.289 141.758 249.821 138.023 249.607 134.715C248.353 133.968 248.54 132.207 247.472 131.38C244.482 128.205 242.934 124.017 240.745 120.308C240.451 120.468 240.158 120.628 239.864 120.788C238.022 118.467 237.862 115.293 238.129 112.465C239.33 109.37 242.587 108.409 245.363 107.289C247.205 106.275 249.394 107.262 251.022 105.635C252.25 105.475 250.862 104.061 251.743 103.66C253.505 102.78 254.759 101.153 256.468 100.166C262.367 96.4038 266.718 90.6144 269.762 84.3982C272.111 80.1829 275.875 76.5278 280.653 75.2739L280.733 75.3273Z" fill="#3D466A"/>
<path d="M240.158 96.6172C241.466 91.4147 243.975 86.5058 246.885 82.0237C247.152 82.5839 246.832 83.0908 246.592 83.5711C244.376 87.6796 242.16 91.8949 240.852 96.4037C240.692 96.4571 240.345 96.5638 240.185 96.6172H240.158Z" fill="#655357"/>
<path d="M273.553 89.067C275.315 85.6521 279.399 83.5178 283.216 84.5316C283.67 84.7984 284.151 85.0385 284.551 85.3853C281.668 84.8251 278.385 84.9051 276.303 87.2529C272.405 92.642 269.415 99.1251 263.196 102.38C261.114 102.673 259.218 103.901 257.109 103.927C259.085 102.673 261.3 101.873 263.329 100.699C267.947 98.0846 270.964 93.5758 273.526 89.0937L273.553 89.067Z" fill="#DB8680"/>
<path d="M283.217 84.5318C284.258 84.425 285.512 85.2254 285.512 86.3193C282.576 86.0258 279.373 85.4389 276.97 87.6265C276.81 87.5465 276.463 87.3597 276.303 87.253C278.412 84.9053 281.668 84.7986 284.551 85.3855C284.151 85.0387 283.67 84.7986 283.217 84.5318Z" fill="#61435B"/>
<path d="M276.97 87.6262C279.373 85.4385 282.576 86.0521 285.513 86.3189C285.886 86.7992 286.18 87.3327 286.42 87.893C280.841 88.7734 275.396 91.468 272.379 96.4036C271.578 96.9372 270.35 100.192 269.256 98.4046C272.513 95.3098 273.954 90.9077 276.944 87.5995L276.97 87.6262Z" fill="#F38576"/>
<path d="M276.302 87.2527C276.462 87.3594 276.809 87.5195 276.97 87.6262C273.98 90.9344 272.512 95.3364 269.282 98.4312C267.893 99.8185 266.452 101.233 264.717 102.22C264.21 102.273 263.703 102.326 263.195 102.38C269.388 99.1249 272.378 92.6685 276.302 87.2527Z" fill="#75343A"/>
<path d="M286.421 87.8933C286.421 87.8933 286.714 87.8933 286.821 87.8933L286.981 88.0534C290.291 90.6146 292.026 94.3763 294.189 97.8179C294.455 98.4849 295.15 98.4849 295.763 98.4315C297.258 100.379 299.127 102.007 301.156 103.34C301.396 103.927 301.69 104.488 301.77 105.128C300.835 105.208 299.901 105.021 298.993 104.888C298.7 104.648 298.406 104.434 298.113 104.221C297.125 103.341 295.87 102.78 294.536 102.647C293.174 102.46 291.759 102.247 290.425 102.647C288.316 103.314 284.952 103.18 283.831 105.502C283.724 105.795 283.618 106.088 283.511 106.382C282.897 107.076 282.31 107.769 281.749 108.516C280.708 109.743 278.786 108.73 277.398 109.37C275.342 110.571 275.396 106.835 273.581 106.355C273.474 106.088 273.394 105.795 273.314 105.502C273.474 105.315 273.634 105.128 273.821 104.941C271.098 103.154 267.815 102.7 264.691 102.273C266.427 101.313 267.841 99.8989 269.256 98.4849C270.351 100.272 271.579 97.0176 272.379 96.484C275.396 91.5217 280.841 88.8538 286.421 87.9733V87.8933Z" fill="#FCBB88"/>
<path d="M286.82 87.9197C287.514 87.9197 288.182 87.9197 288.876 88.0264C289.73 88.4533 290.611 88.8801 291.465 89.3337C294.348 93.4956 295.923 98.618 300.114 101.846C300.514 102.3 300.968 102.753 301.182 103.367C299.153 102.006 297.284 100.405 295.79 98.4579C292.72 95.0964 292.827 88.2665 287.007 88.1064L286.847 87.9464L286.82 87.9197Z" fill="#5C4559"/>
<path d="M287.008 88.0802C292.827 88.2402 292.72 95.0701 295.79 98.4316C295.176 98.485 294.456 98.5117 294.215 97.818C292.053 94.3764 290.318 90.6413 287.008 88.0535V88.0802Z" fill="#EB9881"/>
<path d="M291.465 89.3337C296.19 91.7615 297.338 97.791 300.114 101.846C295.923 98.6448 294.348 93.5224 291.465 89.3337Z" fill="#DE9D8A"/>
<path d="M237.168 98.698C237.995 98.1644 238.823 97.6575 239.65 97.1506C239.704 97.3907 239.757 97.6309 239.784 97.871C234.685 101.419 229.747 106.115 228.332 112.384C228.038 113.105 228.466 114.359 227.531 114.625C227.531 109.29 230.735 104.381 234.819 101.152C235.7 100.432 236.581 99.6852 237.168 98.698Z" fill="#5F464D"/>
<path d="M290.451 102.62C291.786 102.246 293.201 102.46 294.562 102.62C293.201 102.62 291.813 102.62 290.451 102.62Z" fill="#8F6E5A"/>
<path d="M283.857 105.448C284.952 103.127 288.342 103.26 290.451 102.594C291.812 102.647 293.174 102.62 294.562 102.594C295.87 102.727 297.124 103.287 298.139 104.168C297.925 104.168 297.498 104.114 297.311 104.088C296.057 103.954 294.749 103.741 293.521 104.088C293.12 104.141 292.72 104.194 292.32 104.221C289.49 104.381 286.687 104.968 283.884 105.421L283.857 105.448Z" fill="#444763"/>
<path d="M255.881 104.861C261.62 103.047 267.626 104.461 273.392 105.448C273.472 105.741 273.552 106.008 273.659 106.302C268.053 103.874 261.754 105.261 255.908 104.861H255.881Z" fill="#C29F96"/>
<path d="M293.494 104.141C294.722 103.794 296.03 104.007 297.285 104.141C296.003 104.141 294.749 104.141 293.494 104.141Z" fill="#8A6F54"/>
<path d="M283.857 105.448C286.66 104.995 289.436 104.408 292.292 104.248C293.333 104.408 294.401 104.594 295.442 104.754C291.411 104.701 287.38 105.128 283.51 106.302C283.617 106.008 283.723 105.715 283.83 105.421L283.857 105.448Z" fill="#A29CA9"/>
<path d="M292.293 104.274C292.693 104.248 293.094 104.194 293.494 104.141C294.749 104.141 296.03 104.141 297.285 104.141C297.498 104.141 297.925 104.194 298.112 104.221C298.406 104.461 298.7 104.674 298.993 104.888C297.792 104.835 296.617 104.808 295.443 104.781C294.375 104.621 293.334 104.461 292.293 104.274Z" fill="#E8D1B9"/>
<path d="M261.061 105.955C263.41 105.475 265.839 105.768 268.188 105.955C265.812 106.035 263.436 106.088 261.061 105.955Z" fill="#BD9191"/>
<path d="M288.955 105.982C291.011 105.661 293.093 105.661 295.148 105.982C293.066 106.035 291.011 106.115 288.955 105.982Z" fill="#987A78"/>
<path d="M256.629 106.755C258.098 106.408 259.566 106.195 261.061 105.955C263.436 106.088 265.812 106.061 268.188 105.955C271.578 105.661 274.675 107.716 275.209 111.131C274.968 116.493 270.003 121.642 264.371 120.121C260.954 119.668 258.471 116.973 257.27 113.878C256.496 111.584 256.469 109.156 256.629 106.755ZM265.412 107.209C263.356 107.796 261.247 108.889 259.646 110.25C260.767 110.944 261.995 111.531 263.303 111.771C263.677 111.904 264.077 112.038 264.477 112.064C265.999 112.811 269.229 113.105 269.336 110.864C269.629 111.05 270.617 111.344 270.59 110.864C270.937 111.264 271.124 111.958 271.765 111.824C271.658 109.717 269.603 108.383 267.788 107.716C268.695 107.689 271.551 108.116 268.722 107.262C268.161 107.395 265.332 106.142 265.412 107.235V107.209Z" fill="#F7BB8B"/>
<path d="M282.602 109.637C283.323 106.995 286.579 106.222 288.955 105.955C291.011 106.088 293.093 106.008 295.148 105.955C297.391 106.462 301.849 105.821 300.888 109.637C300.834 114.172 298.085 119.108 293.36 120.095C290.29 120.922 287.113 119.988 284.844 117.854C283.163 115.506 281.748 112.571 282.575 109.637H282.602ZM288.101 107.289C288.261 107.662 288.768 107.636 289.115 107.796C287.994 108.303 286.873 108.943 286.339 110.09C285.699 110.277 285.271 111.397 285.085 112.118C285.912 112.331 286.553 111.397 286.553 110.704C286.953 110.357 287.113 109.61 287.754 109.69C288.074 110.57 287.994 112.331 289.115 112.438C289.356 112.998 290.851 112.998 291.117 112.438C291.812 112.518 292.425 112.144 292.986 111.771C293.6 111.904 294.107 111.531 294.614 111.264C295.068 111.878 297.204 110.597 297.844 110.01C295.949 109.396 294.428 107.822 292.425 107.529C291.278 106.675 289.516 107.129 288.128 107.289H288.101Z" fill="#F7BA8C"/>
<path d="M250.542 106.915C252.785 106.515 254.146 108.89 254.226 110.837C254.199 112.758 254.173 114.679 254.173 116.6C253.479 116.6 252.838 116.76 252.304 117.187C250.863 116.627 250.836 114.519 249.928 113.692C249.902 113.852 249.822 114.145 249.795 114.279C249.635 111.878 249.154 109.023 250.569 106.915H250.542Z" fill="#F79D76"/>
<path d="M265.412 107.209C265.332 106.115 268.161 107.369 268.722 107.235C271.551 108.089 268.669 107.662 267.788 107.689C266.987 107.556 266.213 107.369 265.412 107.182V107.209Z" fill="#AC735C"/>
<path d="M288.102 107.289C289.49 107.129 291.251 106.675 292.399 107.529C291.278 107.529 290.184 107.529 289.116 107.769C288.796 107.609 288.288 107.662 288.102 107.262V107.289Z" fill="#BA725B"/>
<path d="M303.183 109.717C302.676 108.463 303.77 106.809 305.131 106.942C303.877 107.982 303.503 109.583 303.556 111.157C303.343 111.157 302.889 111.184 302.676 111.211C301.127 112.038 301.608 115.186 300.246 116.653C299.018 118.867 296.776 120.175 294.507 121.082C290.903 121.962 286.659 121.589 284.123 118.601C284.363 118.361 284.604 118.12 284.844 117.854C287.086 119.988 290.289 120.922 293.359 120.095C298.084 119.108 300.834 114.199 300.887 109.636C301.101 110.81 303.476 111.157 303.156 109.717H303.183Z" fill="#5E5B6D"/>
<path d="M305.132 106.942C305.559 106.942 306.413 106.969 306.813 106.995C308.602 109.69 307.668 113.318 307.508 116.387C306.653 119.801 304.384 123.537 300.327 123.11C299.82 124.79 299.659 126.551 299.152 128.232C299.126 126.658 297.737 130.1 297.097 128.072C294.694 128.792 291.811 128.152 290.503 125.831C289.302 124.204 290.583 121.295 292.719 121.829C292.265 123.537 290.877 125.804 293.093 126.871C294.267 126.818 295.922 127.752 296.723 126.445C297.257 125.511 298.458 127.859 298.485 126.418C298.859 124.737 301.635 121.989 299.126 121.109C299.072 120.388 299.659 119.801 299.713 119.081C297.924 119.855 296.296 120.975 294.588 121.856C294.588 121.616 294.587 121.349 294.561 121.109C296.83 120.202 299.072 118.894 300.3 116.68C301.661 115.213 301.154 112.065 302.729 111.237C302.249 113.665 301.528 116.04 301.181 118.494C300.914 119.588 302.836 119.962 303.236 119.028C303.904 116.52 304.358 113.745 303.61 111.211C303.583 109.637 303.93 108.036 305.185 106.995L305.132 106.942Z" fill="#F7AF85"/>
<path d="M259.645 110.277C261.219 108.916 263.328 107.823 265.41 107.236C266.185 107.396 266.985 107.582 267.786 107.742C269.628 108.383 271.657 109.717 271.764 111.851C271.096 111.984 270.91 111.291 270.589 110.891C270.215 110.117 268.988 109.53 269.335 110.891C269.254 113.132 265.998 112.838 264.476 112.091C264.316 111.184 264.236 110.277 264.102 109.37C262.714 109.69 261.78 110.891 263.302 111.798C261.994 111.558 260.766 110.971 259.645 110.277Z" fill="#464B65"/>
<path d="M289.088 107.796C290.183 107.555 291.277 107.529 292.371 107.555C294.374 107.822 295.895 109.396 297.79 110.037C297.15 110.624 295.014 111.877 294.56 111.291C295.228 110.17 293.733 109.77 292.985 109.343C292.959 110.17 292.932 110.997 292.932 111.824C292.371 112.198 291.757 112.544 291.063 112.491C290.556 112.491 289.569 112.491 289.061 112.491C287.94 112.411 288.02 110.65 287.7 109.743C287.059 109.663 286.899 110.41 286.499 110.757C286.445 110.597 286.339 110.303 286.285 110.143C286.819 108.996 287.967 108.329 289.061 107.849L289.088 107.796Z" fill="#42486C"/>
<path d="M277.451 109.316C278.813 108.649 280.735 109.69 281.802 108.463C281.829 110.81 278.759 108.916 277.451 109.316Z" fill="#AB9598"/>
<path d="M313.54 109.05C316.183 110.063 317.117 113.745 317.224 116.36C316.049 119.828 322.109 116.947 321.148 120.308C322.082 122.763 319.386 123.936 320.214 126.338C319.119 128.392 322.456 127.405 321.041 129.566C318.745 133.781 315.809 137.836 315.115 142.692C317.17 146.987 321.762 149.042 325.366 151.789C328.249 155.124 331.238 159.153 330.998 163.768C330.811 167.717 327.608 171.692 323.47 171.772C322.643 171.532 321.842 171.212 321.041 170.892C321.548 170.198 322.296 169.851 323.07 169.558C322.723 167.984 324.752 167.263 324.378 165.609C325.926 158.459 318.825 154.164 314.074 150.776C313.754 149.202 312.552 147.441 310.657 147.734C308.788 145.467 307.213 142.532 307.934 139.517C309.055 133.648 313.273 128.685 313.86 122.629C312.472 125.964 311.298 129.566 309.055 132.447C311.298 127.085 314.394 121.749 313.94 115.719C313.54 111.984 314.608 116.039 315.088 116.733C315.382 114.039 314.207 111.584 313.567 109.05H313.54Z" fill="#434F75"/>
<path d="M263.302 111.798C261.781 110.864 262.688 109.69 264.103 109.37C264.237 110.277 264.317 111.184 264.477 112.091C264.077 112.064 263.676 111.931 263.302 111.798Z" fill="#EAE3DC"/>
<path d="M293.012 109.316C293.76 109.743 295.255 110.144 294.587 111.264C294.08 111.531 293.573 111.931 292.959 111.771C292.959 110.944 292.986 110.117 293.012 109.29V109.316Z" fill="#EEEBF1"/>
<path d="M269.334 110.864C268.961 109.503 270.215 110.063 270.589 110.864C270.616 111.344 269.655 111.077 269.334 110.864Z" fill="#F3D9D5"/>
<path d="M285.059 112.118C285.245 111.424 285.673 110.277 286.313 110.09C286.367 110.25 286.473 110.544 286.527 110.704C286.527 111.397 285.886 112.331 285.059 112.118Z" fill="#816E76"/>
<path d="M277.424 110.811C278.331 110.437 279.373 110.544 280.307 110.811C279.319 110.811 278.385 110.811 277.424 110.811Z" fill="#B0969B"/>
<path d="M254.2 110.864C255.535 111.077 255.668 112.465 255.828 113.585C255.428 115.506 257.59 117.667 255.935 119.374C254.467 119.374 254.467 117.667 254.146 116.6C254.146 114.679 254.173 112.758 254.2 110.837V110.864Z" fill="#F48171"/>
<path d="M275.609 114.892C276.276 113.585 275.849 111.371 277.397 110.81C278.358 110.81 279.319 110.81 280.28 110.81C282.095 113.051 281.561 116.653 284.097 118.574C286.633 121.589 290.878 121.935 294.482 121.055C294.482 121.295 294.482 121.535 294.508 121.802C293.894 121.802 293.28 121.802 292.666 121.802C290.531 121.268 289.249 124.177 290.451 125.804C291.759 128.125 294.642 128.765 297.044 128.045C297.685 130.073 299.073 126.631 299.1 128.205C298.085 132.474 295.202 135.889 292.239 138.983C292.159 139.063 291.999 139.224 291.919 139.304C287.995 142.372 283.67 145.947 278.358 145.44C273.393 145.44 269.255 142.052 265.652 139.01C261.22 135.115 258.284 129.726 257.483 123.883C257.163 122.176 254.627 123.349 253.666 122.069C255.001 122.096 256.282 122.442 257.643 121.855C258.578 123.643 258.791 125.831 260.553 127.138C262.502 127.618 264.744 128.712 266.586 127.298C268.455 126.604 267.947 124.363 268.268 122.763C267.227 121.455 265.225 122.016 263.837 121.455C268.695 122.336 274.087 119.694 275.555 114.866L275.609 114.892ZM280.814 123.936C279.479 123.91 278.171 123.936 276.837 123.963C276.249 123.936 275.475 123.723 275.101 124.31C275.021 125.697 277.317 125.137 278.225 125.857C278.572 125.857 279.239 125.804 279.559 125.777C280.574 125.537 281.642 125.43 282.629 125.11C283.243 124.016 281.321 122.629 280.814 123.936ZM269.362 129.619C270.136 130.393 271.044 131.033 272.032 131.487C274.808 136.476 283.297 136.235 285.886 131.407C286.687 130.58 288.395 130.313 288.395 129.059C287.114 129.566 286.019 130.606 284.471 129.939C280.013 128.632 275.475 129.779 270.991 130.099C270.777 129.406 269.095 128.392 269.362 129.619Z" fill="#FCBB89"/>
<path d="M275.209 111.131C275.476 112.358 275.449 113.638 275.609 114.892C274.141 119.721 268.749 122.363 263.89 121.482C260.393 120.628 257.484 117.96 256.256 114.599C257.003 114.999 257.404 114.759 257.27 113.879C258.445 116.973 260.954 119.668 264.371 120.121C270.003 121.642 274.995 116.493 275.209 111.131Z" fill="#5E5E75"/>
<path d="M302.677 111.211C302.891 111.211 303.344 111.184 303.558 111.157C304.305 113.692 303.878 116.467 303.184 118.974C302.784 119.935 300.862 119.535 301.129 118.441C301.476 115.986 302.197 113.612 302.677 111.184V111.211Z" fill="#F98159"/>
<path d="M227.532 114.626C228.466 114.332 228.039 113.105 228.333 112.385C228.386 112.811 228.413 113.265 228.6 113.665C228.68 113.825 228.866 114.172 228.947 114.332C227.825 115.533 228.039 117.24 228.146 118.734C228.84 122.763 229.961 126.685 231.135 130.58C231.723 133.061 233.244 136.929 230.201 138.37C224.302 142.532 216.774 144.559 212.263 150.482C206.47 157.072 207.538 167.797 212.983 174.253C213.944 175.054 215.012 177.055 216.427 176.654C216.56 176.868 216.507 177.108 216.293 177.375C210.955 175.08 208.499 169.078 207.725 163.662C207.725 162.088 207.831 160.54 207.725 158.966C208.125 155.311 209.86 151.95 212.156 149.148C216.08 144.746 221.632 142.398 226.731 139.651C228.092 138.93 229.4 138.157 230.575 137.169C224.489 132.687 222.273 123.563 225.93 116.893C226.544 116.2 227.158 115.453 227.532 114.572V114.626ZM226.944 116.76C223.127 122.816 224.836 132.687 231.109 136.369C230.975 129.619 227.532 123.403 227.105 116.6L226.918 116.733L226.944 116.76Z" fill="#605A72"/>
<path d="M289.09 112.438C289.597 112.438 290.585 112.438 291.092 112.438C290.825 112.998 289.33 112.998 289.09 112.438Z" fill="#AB787D"/>
<path d="M249.902 113.692C250.837 114.546 250.863 116.627 252.278 117.187C252.812 116.76 253.453 116.573 254.147 116.6C254.467 117.64 254.44 119.375 255.935 119.375C257.617 117.667 255.455 115.506 255.828 113.585C255.962 113.932 256.095 114.252 256.256 114.599C257.484 117.961 260.393 120.628 263.89 121.482C265.278 122.042 267.28 121.482 268.321 122.789C267.974 124.39 268.482 126.631 266.64 127.325C264.798 128.739 262.555 127.618 260.607 127.165C258.845 125.858 258.658 123.67 257.697 121.882C256.336 122.469 255.054 122.123 253.72 122.096C251.237 120.335 250.249 117.187 249.742 114.332C249.769 114.172 249.849 113.879 249.876 113.745L249.902 113.692Z" fill="#FAAD81"/>
<path d="M307.507 116.36C308.922 114.839 314.341 113.692 313.247 117.24C312.82 120.815 312.259 125.084 309.67 127.592C308.629 132.741 304.518 137.836 306.573 143.359C308.175 148.695 312.846 152.11 317.197 155.151C320.214 157.552 323.844 160.887 322.403 165.182C322.082 167.423 319.413 167.984 318.986 170.145C315.569 168.837 312.179 167.504 308.709 166.33C308.815 166.73 308.949 167.13 309.082 167.53C308.442 167.077 307.774 166.463 306.92 166.65C307 167.37 307.187 168.117 307.027 168.864C305.372 166.623 304.491 163.635 301.875 162.301C299.926 160.354 298.298 158.112 296.269 156.218C295.068 155.071 293.813 154.004 292.559 152.937C292.425 151.976 292.372 151.043 292.238 150.082C292.372 146.4 292.425 142.692 292.292 139.01C295.255 135.915 298.111 132.501 299.152 128.232C299.659 126.551 299.819 124.79 300.327 123.11C304.384 123.536 306.68 119.801 307.507 116.386V116.36Z" fill="#3D486C"/>
<path d="M294.534 121.829C296.242 120.922 297.871 119.801 299.659 119.054C299.606 119.775 299.045 120.362 299.072 121.082C301.554 121.962 298.805 124.71 298.431 126.391C298.431 127.859 297.203 125.484 296.669 126.418C295.869 127.725 294.213 126.791 293.039 126.845C290.823 125.778 292.238 123.51 292.665 121.802C293.279 121.802 293.893 121.829 294.507 121.802L294.534 121.829Z" fill="#FDA67B"/>
<path d="M309.029 132.447C311.272 129.566 312.446 125.991 313.834 122.629C313.274 128.685 309.056 133.648 307.908 139.517C307.187 142.532 308.762 145.466 310.631 147.734C312.526 147.414 313.727 149.202 314.048 150.776C318.826 154.164 325.9 158.459 324.352 165.609C324.725 167.263 322.697 167.984 323.044 169.558C322.27 169.851 321.522 170.198 321.015 170.892C320.321 170.678 319.627 170.438 318.96 170.145C319.387 167.984 322.083 167.423 322.376 165.182C323.818 160.887 320.187 157.579 317.171 155.151C312.82 152.11 308.122 148.695 306.547 143.359C306.039 139.544 307.241 135.809 309.003 132.447H309.029Z" fill="#48557B"/>
<path d="M329.156 122.63C328.356 113.905 323.257 106.675 318.986 99.3653C318.772 98.8851 318.532 98.3782 318.318 97.898C317.464 97.0709 317.277 94.4831 316.156 94.5631C316.984 96.2972 317.705 98.0847 318.612 99.7922C319.6 101.953 321.015 103.874 322.162 105.955C323.764 108.676 325.366 111.451 326.407 114.439C329.29 121.562 329.21 129.886 325.045 136.476V136.769C327.395 134.075 328.809 130.633 329.103 127.085C329.29 125.618 329.53 124.124 329.156 122.683V122.63Z" fill="#606060"/>
<path d="M280.841 123.91C281.348 122.603 283.243 123.99 282.656 125.084C281.668 125.404 280.6 125.511 279.586 125.751C278.305 125.617 280.707 124.684 280.841 123.91Z" fill="#F36D51"/>
<path d="M275.128 124.283C275.529 123.723 276.303 123.91 276.863 123.937C277.237 124.577 278.358 125.004 278.225 125.831C277.344 125.111 275.022 125.671 275.102 124.283H275.128Z" fill="#EF6146"/>
<path d="M276.863 123.963C278.171 123.937 279.506 123.91 280.841 123.937C280.707 124.71 278.305 125.617 279.586 125.777C279.239 125.777 278.572 125.831 278.251 125.857C278.358 125.03 277.237 124.604 276.89 123.963H276.863Z" fill="#FD9571"/>
<path d="M269.39 129.619C269.123 128.392 270.831 129.406 271.018 130.1C271.418 131.487 275.636 131.274 272.566 131.62C272.433 131.594 272.166 131.514 272.032 131.487C271.045 131.033 270.137 130.366 269.363 129.619H269.39Z" fill="#D8513D"/>
<path d="M284.497 129.913C286.045 130.58 287.14 129.539 288.421 129.032C288.421 130.286 286.686 130.58 285.912 131.38C285.271 131.514 284.63 131.7 283.963 131.7C280.76 131.594 277.263 130.927 274.193 131.807C273.659 131.86 273.098 131.727 272.591 131.594C275.661 131.247 271.417 131.434 271.043 130.073C275.528 129.753 280.066 128.606 284.524 129.913H284.497Z" fill="#F96F59"/>
<path d="M272.059 131.487C272.059 131.487 272.459 131.594 272.592 131.62C273.1 131.754 273.66 131.914 274.194 131.834C277.451 131.754 280.708 131.834 283.964 131.727C284.632 131.727 285.272 131.54 285.913 131.407C283.297 136.236 274.835 136.476 272.059 131.487Z" fill="#FC8767"/>
<path d="M274.166 131.834C277.236 130.953 280.733 131.62 283.936 131.727C280.679 131.86 277.423 131.727 274.166 131.834Z" fill="#DF4936"/>
<path d="M324.618 138.717C324.485 138.157 324.458 137.703 325.152 138.077C328.462 143.146 334.282 146.027 337.592 151.149C337.485 151.336 337.325 151.71 337.218 151.896C334.015 146.56 328.355 143.546 324.618 138.69V138.717Z" fill="#414B6F"/>
<path d="M265.732 139.01C269.336 142.052 273.447 145.413 278.439 145.44C283.778 145.947 288.102 142.372 292 139.304C292.293 142.879 291.706 146.507 292.266 150.056C292.4 151.016 292.48 151.95 292.587 152.91C292.507 153.23 292.427 153.551 292.373 153.871C288.663 156.725 283.778 158.326 279.16 156.832C274.008 154.671 269.47 150.963 266.026 146.614C266.026 144.48 266.026 142.345 265.786 140.238C265.786 139.838 265.759 139.437 265.732 139.037V139.01Z" fill="#FD7968"/>
<path d="M291.998 139.304C291.998 139.304 292.238 139.064 292.318 138.984C292.479 142.665 292.398 146.374 292.265 150.055C291.704 146.507 292.265 142.879 291.998 139.304Z" fill="#AF5F66"/>
<path d="M265.758 140.211C266.025 142.318 265.998 144.453 265.998 146.587C265.998 148.588 265.918 150.589 265.998 152.563L265.704 152.616C265.598 148.481 265.651 144.346 265.731 140.211H265.758Z" fill="#AE7270"/>
<path d="M332.734 143.226C336.952 146.561 340.823 151.123 341.704 156.592C341.624 156.779 341.463 157.152 341.383 157.339C340.342 151.683 336.578 147.254 332.734 143.252V143.226Z" fill="#3D486C"/>
<path d="M295.523 167.317C295.416 169.531 295.122 171.719 294.829 173.907C291.892 174.947 288.822 175.587 285.939 176.601L285.699 176.681C281.108 176.654 276.516 176.468 271.925 176.708C269.683 175.934 267.253 176.148 265.038 175.321C264.451 175.107 263.863 174.894 263.276 174.734C263.249 174.227 263.169 173.24 263.143 172.759C263.249 168.304 263.143 163.742 264.958 159.553C265.171 157.259 266.319 154.831 265.999 152.563C265.892 150.562 265.999 148.561 265.999 146.587C269.442 150.936 273.98 154.671 279.132 156.805C283.751 158.299 288.636 156.672 292.346 153.844C293.147 157.152 293.414 160.674 294.909 163.769C295.416 164.862 295.336 166.116 295.496 167.317H295.523Z" fill="#FEBB88"/>
<path d="M213.304 173.853C208.579 165.369 211.596 153.951 219.391 148.348C219.444 148.721 219.177 149.015 218.99 149.308C215.013 152.75 212.183 157.632 211.943 162.968C211.249 167.343 212.29 172.386 215.627 175.507C215.627 175.641 215.68 175.881 215.707 176.014C214.879 175.32 214.078 174.627 213.304 173.88V173.853Z" fill="#544756"/>
<path d="M337.566 151.176C338.794 152.937 339.781 154.911 340.262 157.019C339.942 157.126 339.648 156.965 339.381 156.779C339.194 156.352 339.034 155.898 338.874 155.471C338.847 154.378 338.153 153.524 337.592 152.643C337.459 152.403 337.326 152.163 337.219 151.896C337.326 151.71 337.486 151.336 337.592 151.149L337.566 151.176Z" fill="#414B6F"/>
<path d="M265.465 152.91C265.465 152.91 265.679 152.697 265.732 152.643L266.026 152.59C266.346 154.858 265.172 157.286 264.985 159.58C263.17 163.742 263.276 168.331 263.17 172.786C262.983 169.878 262.582 166.97 262.636 164.035C264.771 160.834 265.145 156.672 265.465 152.91Z" fill="#F7BFA1"/>
<path d="M337.592 152.643C338.152 153.524 338.846 154.377 338.873 155.471C338.313 154.644 337.779 153.844 337.271 153.017C337.352 152.937 337.512 152.75 337.592 152.643Z" fill="#414B6F"/>
<path d="M262.047 155.898C263.141 154.831 264.369 153.95 265.464 152.91C265.143 156.645 264.77 160.807 262.634 164.035C262.447 161.341 262.421 158.593 262.047 155.925V155.898Z" fill="#F7E1DE"/>
<path d="M292.346 153.871C292.399 153.55 292.479 153.23 292.559 152.91C293.814 153.977 295.069 155.044 296.27 156.192C295.816 159.9 295.949 163.635 295.496 167.344C295.335 166.17 295.416 164.916 294.908 163.795C293.413 160.7 293.147 157.179 292.346 153.871Z" fill="#F6E3DF"/>
<path d="M336.818 154.751C337.939 154.137 337.965 157.366 339.38 156.805C339.647 156.965 339.941 157.125 340.261 157.045C340.528 158.193 340.795 159.34 340.955 160.514C341.142 163.342 340.715 166.143 339.701 168.758C338.473 171.586 336.471 174.173 333.881 175.854C332.039 174.894 330.037 174.227 328.115 173.426C329.423 170.305 334.148 169.184 334.789 165.396C336.23 162.195 333.961 158.94 334.842 155.711C336.204 155.631 336.124 158.86 337.565 157.312C338.553 155.952 335.83 155.898 336.818 154.724V154.751Z" fill="#465074"/>
<path d="M232.977 162.114C234.659 158.7 238.236 156.405 241.786 155.391C241.119 156.992 239.437 158.033 238.716 159.66C236.821 162.168 236.634 166.17 239.09 168.384C239.944 168.811 239.624 169.665 238.957 170.011C237.969 169.425 236.848 171.239 238.156 171.292C237.675 171.479 237.168 171.639 236.688 171.799C236.02 171.559 235.139 171.612 234.739 170.945C233.644 168.117 231.749 165.236 233.004 162.114H232.977Z" fill="#445077"/>
<path d="M273.739 226.864C273.739 227.958 272.778 227.318 272.618 226.678C265.758 217.1 258.844 207.549 251.77 198.131C253.692 195.063 256.682 192.822 258.497 189.674C258.096 189.807 257.696 189.994 257.269 190.101C253.772 188.953 250.462 187.353 247.205 185.645C247.499 177.882 249.741 169.905 254.653 163.742C256.788 162.434 258.016 160.247 259.645 158.406C260.365 157.499 261.22 156.672 262.074 155.871C262.447 158.566 262.474 161.287 262.661 163.982C262.608 166.916 262.981 169.825 263.195 172.733C263.222 173.239 263.302 174.227 263.328 174.707C263.435 176.601 263.862 178.469 264.236 180.309C267.226 195.837 270.776 211.284 273.739 226.811V226.864Z" fill="#FCFEFD"/>
<path d="M309.91 183.218C309.483 184.071 309.055 184.952 308.441 185.699C304.918 187.273 300.914 188.687 299.072 192.395C296.749 196.05 296.242 200.532 296.002 204.774C295.949 207.522 295.735 210.377 294.854 212.991C290.85 217.207 288.554 222.756 284.443 226.891C287.353 209.443 291.918 192.262 294.747 174.814C294.774 174.6 294.827 174.147 294.854 173.933C295.121 171.746 295.441 169.558 295.548 167.343C295.975 163.635 295.869 159.9 296.322 156.192C298.351 158.059 299.953 160.327 301.928 162.274C304.544 163.635 305.425 166.596 307.08 168.838C309.269 173.32 309.723 178.335 309.963 183.244L309.91 183.218Z" fill="#FCFDFD"/>
<path d="M341.383 157.312C341.463 157.125 341.623 156.752 341.704 156.565C341.837 157.366 342.024 158.166 342.157 158.966C342.131 160.514 342.077 162.088 342.157 163.662C341.704 168.491 339.595 173.506 335.35 176.121C335.217 176.068 334.95 175.988 334.816 175.934C337.486 174.413 339.141 171.799 340.395 169.078C340.983 167.424 341.383 165.716 341.437 163.955C341.437 163.715 341.517 163.262 341.543 163.048C341.837 161.501 341.864 159.9 341.543 158.353C341.49 158.006 341.437 157.632 341.383 157.286V157.312Z" fill="#3D486C"/>
<path d="M256.548 160.701C257.162 159.954 258.444 157.339 259.618 158.433C257.99 160.247 256.735 162.461 254.626 163.769C249.741 169.932 247.499 177.909 247.179 185.672C247.179 185.832 247.152 186.126 247.125 186.259C246.912 188.1 246.645 190.048 247.072 191.889C247.472 197.705 248.059 203.494 248.78 209.283C249.367 209.817 250.168 209.977 250.862 210.297C250.756 210.377 250.542 210.511 250.462 210.591C248.7 210.27 246.858 210.004 245.123 210.617C245.016 210.537 244.803 210.377 244.696 210.297C245.096 210.137 245.55 210.03 245.977 209.95C246.751 210.057 246.805 209.15 246.351 208.75C246.057 206.642 245.924 204.508 245.577 202.427C245.764 201.92 245.817 201.306 245.417 200.853C245.096 198.265 244.91 195.677 244.643 193.089C244.723 190.848 244.776 188.58 244.749 186.339C244.749 185.139 244.749 183.911 244.749 182.711C245.337 177.455 246.484 171.959 249.394 167.45C251.049 164.809 252.998 160.567 256.548 160.701Z" fill="#495A7F"/>
<path d="M341.543 158.379C341.864 159.927 341.81 161.528 341.543 163.075C341.49 161.501 341.543 159.953 341.543 158.379Z" fill="#3D486C"/>
<path d="M207.724 163.688C207.43 162.141 207.43 160.54 207.724 158.993C207.804 160.567 207.724 162.114 207.724 163.688Z" fill="#AC989E"/>
<path d="M390.553 250.049C373.976 225.717 355.984 202.373 338.392 178.762C337.538 177.828 336.497 177.055 335.429 176.361C334.895 176.228 334.362 176.094 333.881 175.827C332.039 174.867 330.037 174.2 328.115 173.4C326.567 172.839 325.045 172.279 323.497 171.746C322.67 171.505 321.869 171.185 321.068 170.865C320.374 170.652 319.68 170.412 319.012 170.118C315.596 168.811 312.205 167.477 308.735 166.303C308.842 166.703 308.975 167.103 309.109 167.504C311.698 171.986 312.446 177.321 312.419 182.444C313.246 182.044 314.154 181.724 314.688 180.95C316.69 182.604 312.873 182.977 312.392 184.551C311.752 187.006 314.768 187.139 316.103 188.393C320.881 191.488 322.883 197.491 322.429 202.987C322.002 204.614 323.283 207.202 321.548 208.269C320.934 214.646 320.347 221.022 319.493 227.371C319.039 230.173 319.092 233.161 317.784 235.749C316.45 238.523 313.327 240.071 310.283 239.644C310.123 240.578 309.269 240.604 308.495 240.551C308.789 241.591 310.043 240.978 310.737 240.951C312.659 240.551 314.848 240.844 316.316 239.35C316.583 240.498 315.409 242.232 314.501 242.952C310.257 245.487 305.478 242.472 300.994 243.112C298.004 242.258 293.119 240.017 295.041 236.202C293.84 234.575 292.852 232.601 292.959 230.52C293.226 225.451 294 220.408 294.614 215.339C294.24 214.992 293.84 215.339 293.599 215.659C291.117 218.754 289.061 222.196 286.606 225.344C285.885 226.678 284.39 227.718 284.363 229.346C284.63 232.227 284.443 235.135 284.497 238.043C284.497 240.738 284.523 243.459 284.443 246.154C284.523 249.488 284.523 252.823 284.443 256.158C284.604 277.475 284.443 298.818 284.497 320.161C284.497 321.469 284.497 322.776 284.497 324.083C284.497 334.675 284.497 345.293 284.497 355.885H334.228C334.121 352.603 334.041 349.322 333.401 346.093C325.526 346.84 317.624 346.36 309.723 346.44C308.655 345.24 309.216 343.372 309.002 341.931C308.575 335.155 308.308 328.378 308.014 321.575C305.906 321.415 303.77 321.815 301.688 321.415C300.914 320.962 300.673 320.108 300.834 319.281C301.821 318.507 302.889 317.814 303.93 317.093C301.341 317.467 298.698 317.573 296.216 318.481C295.388 318.854 294.801 318.054 294.48 317.387C294.133 316.853 293.359 315.813 294.534 315.573C297.096 313.785 299.926 312.398 302.862 311.384C302.622 310.53 301.928 310.263 301.127 310.29C298.244 310.61 294.934 312.691 292.238 311.064C291.464 308.769 294.374 307.809 296.109 307.382C301.261 305.728 306.413 303.94 311.832 303.46C312.259 302.82 311.591 302.526 311.164 302.233C306.626 301.326 302.115 303.087 297.55 302.847C296.482 303.06 294.587 302.446 294.801 301.059C295.415 299.405 297.604 299.298 299.072 298.845C306.973 296.497 315.409 296.657 323.23 299.245C322.242 293.429 320.614 287.693 320.214 281.797C319.947 280.783 319.92 279.716 319.867 278.675C319.413 276.221 319.706 273.713 319.893 271.259C320 269.684 320.134 268.137 320.294 266.563C320.294 266.136 320.294 265.736 320.294 265.336C320.294 263.815 320.641 262.294 320.934 260.8C320.988 259.28 321.175 257.759 321.495 256.265C323.07 245.113 325.205 234.015 327.314 222.969C330.491 207.922 333.16 192.502 336.657 177.695C336.47 181.457 335.323 185.058 334.629 188.74C332.52 200.025 329.984 211.231 327.875 222.489C339.567 232.894 350.885 243.779 361.563 255.198C363.271 256.265 364.339 258.079 365.727 259.493C366.181 259.92 366.528 260.587 367.222 260.587C364.606 264.135 362.044 267.71 359.561 271.365C362.657 272.619 365.941 273.606 368.717 275.527C370.506 276.034 372.347 276.915 373.629 278.275C371.814 277.742 370.159 276.728 368.717 275.527C365.487 274.487 362.471 272.859 359.241 271.792C357.959 273.766 356.731 275.767 355.37 277.688C353.768 279.956 352.434 282.384 350.779 284.598C350.779 284.651 350.779 284.705 350.779 284.758C350.779 284.785 350.779 284.838 350.779 284.865C350.779 284.892 350.779 284.945 350.779 284.972C350.779 284.998 350.779 285.052 350.779 285.078C350.779 285.132 350.779 285.185 350.779 285.212C350.779 285.238 350.779 285.265 350.779 285.292C350.779 285.372 350.832 285.452 350.859 285.532C350.859 285.585 350.912 285.612 350.939 285.665C350.965 285.692 350.992 285.745 351.019 285.772C351.045 285.825 351.099 285.852 351.152 285.905C351.179 285.932 351.206 285.959 351.232 285.985C351.232 285.985 351.312 286.039 351.339 286.065C351.499 286.172 351.686 286.226 351.873 286.279C351.9 286.279 351.953 286.279 352.006 286.306C352.033 286.306 352.087 286.306 352.14 286.306C352.193 286.306 352.247 286.306 352.3 286.306C352.327 286.306 352.353 286.306 352.38 286.306C352.38 286.306 352.407 286.306 352.434 286.306C352.514 286.306 352.594 286.306 352.647 286.306C358.2 288.333 363.458 291.241 368.13 294.87C370.078 295.99 371.306 297.991 373.228 299.165C373.629 298.658 374.003 298.098 374.403 297.591C377.072 293.936 379.502 290.121 381.957 286.332C382.091 285.959 382.224 285.612 382.358 285.238C379.929 282.784 376.966 280.97 374.376 278.729C377.766 279.903 380.009 282.971 382.918 284.945L383.132 284.838C384.44 281.797 386.682 279.209 388.311 276.328C389.459 274.273 390.66 272.219 391.994 270.298C393.302 267.363 395.305 264.695 395.972 261.494C396.666 256.772 392.422 253.65 390.526 249.835L390.553 250.049ZM370.185 258.026C369.918 258.479 368.717 259.2 369.091 258.159C370.372 256.879 371.84 255.811 373.389 254.904C373.522 254.878 373.789 254.798 373.922 254.744C373.015 256.158 371.173 256.665 370.185 258.026Z" fill="#FDFEFC"/>
<path d="M306.921 166.623C307.775 166.463 308.443 167.05 309.083 167.504C311.673 171.986 312.42 177.322 312.394 182.444C312.394 182.978 312.394 184.018 312.394 184.552C311.753 187.006 314.769 187.14 316.104 188.394C320.882 191.488 322.884 197.491 322.431 202.987C322.003 204.614 323.285 207.202 321.55 208.269C320.936 208.136 320.348 207.976 319.761 207.789C319.361 204.694 320.162 201.493 319.441 198.452C318.854 193.809 315.09 189.808 310.605 188.58C309.884 188.153 309.27 188.153 308.736 188.58C305.827 189.514 302.677 190.928 301.369 193.916C300.968 194.583 300.595 195.303 300.274 196.024C298.673 198.905 299.767 203.147 297.658 205.468C297.124 205.201 296.591 204.988 296.057 204.748C296.297 200.506 296.804 196.05 299.126 192.369C300.968 188.66 304.946 187.246 308.496 185.672C310.231 186.526 310.044 184.472 309.964 183.191C309.724 178.282 309.297 173.267 307.081 168.784C307.268 168.037 307.081 167.317 306.975 166.57L306.921 166.623Z" fill="#4E5D83"/>
<path d="M273.659 317.6C273.552 319.788 273.552 321.976 273.579 324.19V355.991H223.821C224.462 352.79 224.195 349.455 224.969 346.254C232.79 346.44 240.612 345.987 248.433 346.6C248.86 346.6 249.394 346.68 249.581 346.173C249.768 337.716 250.382 329.286 250.569 320.828C250.462 320.428 250.782 319.708 250.275 319.574C249.928 328.379 249.714 337.183 248.994 345.96C240.985 346.067 232.977 345.907 224.996 346.013C224.996 345.373 225.049 344.76 225.076 344.146C225.076 344.012 225.102 343.719 225.102 343.586C225.102 343.426 225.129 343.132 225.156 342.999C225.556 340.864 225.796 338.677 225.983 336.516C226.597 332.06 227.291 327.632 228.092 323.229C228.279 321.816 228.546 320.428 228.759 319.041C236.127 319.174 243.521 319.521 250.916 319.308C250.809 319.174 250.569 318.907 250.435 318.774C243.254 318.454 235.967 319.174 228.866 318.427C230.468 309.303 232.63 300.285 234.205 291.161C235.059 291.161 235.967 291.161 236.821 291.215C238.156 291.428 239.544 291.455 240.905 291.401C242.053 291.428 243.228 291.481 244.402 291.508C245.443 291.668 246.511 291.775 247.579 291.695C248.753 291.721 249.901 291.775 251.076 291.802C252.331 291.988 253.585 291.988 254.84 291.988C256.094 292.015 257.376 292.042 258.657 292.122C259.805 292.228 260.953 292.282 262.127 292.282C263.382 292.335 264.663 292.388 265.945 292.469C266.932 292.762 269.708 292.975 268.694 290.894C265.918 285.052 262.928 279.289 260.045 273.5C259.858 272.859 259.565 272.246 259.244 271.659C260.179 270.485 261.113 269.311 262.021 268.137C264.556 267.55 263.782 264.162 262.021 263.041C260.793 262.054 262.795 260.694 261.46 259.653C259.244 257.385 259.271 253.704 256.415 251.943C255.133 250.449 257.429 250.369 258.39 250.902C259.404 251.409 261.22 249.835 259.458 249.462C258.123 248.982 260.259 248.021 259.591 247.274C259.004 246.58 261.326 246.367 260.125 245.833C256.361 245.086 260.446 240.124 257.589 238.63C256.682 238.016 256.041 237.083 255.027 236.629C254.226 236.256 254.573 234.682 253.585 234.815C252.597 234.922 252.651 237.109 251.503 236.282C250.409 235.375 247.472 236.122 248.006 234.121C247.098 235.962 244.322 233.668 244.135 236.016C242.827 235.002 241.973 233.294 240.265 233.908C238.076 229.399 235.753 224.944 233.831 220.328C231.536 207.255 228.626 194.236 225.449 181.35C225.503 184.925 226.838 188.287 227.532 191.755C228.893 197.624 230.094 203.547 231.322 209.443C231.776 212.351 233.031 215.179 232.764 218.167C232.07 216.593 231.029 215.206 229.053 215.419C225.209 215.339 221.365 215.473 217.548 215.019C216.961 213.952 216.453 212.831 215.973 211.711C214.478 210.937 212.236 211.951 210.527 211.151C213.01 200.852 216.667 190.821 221.098 181.217C221.846 179.429 223.047 177.855 224.542 176.655C228.466 174.734 232.603 173.32 236.688 171.772C237.195 171.612 237.675 171.452 238.156 171.265C241.92 170.091 245.55 167.824 249.421 167.424C246.511 171.906 245.363 177.428 244.776 182.684C244.135 181.937 242.667 181.804 243.468 183.084C244.402 183.911 244.509 185.112 244.509 186.312C244.482 188.553 244.376 190.821 244.696 193.062C244.963 195.65 245.15 198.238 245.47 200.826C245.283 201.333 245.23 201.946 245.63 202.4C245.977 204.508 246.111 206.615 246.404 208.723C246.271 209.123 246.137 209.523 246.031 209.923C245.604 210.003 245.15 210.11 244.749 210.27C239.277 211.951 238.423 219.875 242.4 223.53C245.817 227.985 253.719 226.011 255.16 220.782C256.842 216.887 254.92 211.818 250.916 210.27C250.222 209.95 249.394 209.79 248.834 209.256C248.113 203.467 247.552 197.678 247.125 191.862C247.205 190.101 247.232 188.313 247.179 186.552C249.714 189.14 253.665 189.247 256.361 191.461C254.68 193.783 252.304 195.597 250.889 198.131C258.417 208.589 266.318 218.834 273.739 229.372C273.446 235.909 273.659 242.472 273.606 249.035C273.659 271.872 273.499 294.736 273.686 317.574L273.659 317.6Z" fill="#FDFEFD"/>
<path d="M300.22 196.05C302.916 196.504 305.478 193.996 308.041 193.169C312.446 193.169 315.862 196.29 319.413 198.451C320.133 201.493 319.333 204.694 319.733 207.789C319.68 216.166 318.478 224.597 317.144 232.867C316.45 235.162 315.168 237.723 312.446 237.91C311.645 238.23 310.737 238.176 310.63 237.136C310.524 236.442 309.643 236.416 309.082 236.335C307.027 237.483 304.597 236.629 302.462 236.149C302.008 235.028 300.273 235.295 300.54 236.602C296.349 237.163 294.107 232.387 294.614 228.865C295.335 222.649 295.762 216.326 297.23 210.243C300.326 206.455 303.129 202.426 306.199 198.611C306.573 198.318 306.973 197.091 306.092 197.571C303.209 200.986 300.673 204.694 298.057 208.322C297.257 208.776 297.577 207.549 297.417 207.095C297.497 206.562 297.55 206.001 297.63 205.468C299.739 203.147 298.645 198.878 300.246 196.023L300.22 196.05Z" fill="#FDFEFD"/>
<path d="M327.289 223.076C330.466 208.029 333.135 192.608 336.632 177.802C336.445 181.563 335.297 185.165 334.603 188.847C332.494 200.132 329.958 211.337 327.85 222.596C327.716 222.702 327.423 222.943 327.289 223.049V223.076Z" fill="#D1DADD"/>
<path d="M314.663 180.95C316.665 182.604 312.848 182.978 312.367 184.552C312.367 184.018 312.367 182.978 312.367 182.444C313.195 182.044 314.102 181.724 314.636 180.95H314.663Z" fill="#DADDE5"/>
<path d="M225.423 181.35C228.6 194.236 231.509 207.256 233.805 220.328C233.405 219.635 233.031 218.941 232.711 218.221C233.004 215.233 231.723 212.405 231.269 209.497C230.041 203.574 228.84 197.678 227.479 191.808C226.811 188.34 225.45 184.952 225.396 181.403L225.423 181.35Z" fill="#D4DEE1"/>
<path d="M243.441 183.111C242.641 181.83 244.135 181.964 244.749 182.711C244.749 183.911 244.749 185.112 244.749 186.339H244.456C244.456 185.139 244.349 183.938 243.415 183.111H243.441Z" fill="#CFD7E0"/>
<path d="M308.441 185.699C309.055 184.952 309.482 184.071 309.91 183.218C309.963 184.498 310.177 186.552 308.441 185.699Z" fill="#94A6BC"/>
<path d="M273.713 229.372C266.292 218.807 258.391 208.589 250.863 198.131C252.278 195.597 254.653 193.809 256.335 191.461C253.639 189.247 249.688 189.14 247.152 186.552V186.232C247.152 186.072 247.152 185.779 247.179 185.645C250.436 187.353 253.746 188.953 257.243 190.101C257.643 189.994 258.044 189.807 258.471 189.674C256.656 192.822 253.692 195.09 251.744 198.131C258.844 207.522 265.732 217.1 272.592 226.678C272.752 227.318 273.686 227.958 273.713 226.864C273.9 227.692 273.74 228.519 273.713 229.372Z" fill="#D9DFE4"/>
<path d="M244.483 186.312H244.777C244.777 188.553 244.75 190.821 244.67 193.062C244.377 190.821 244.457 188.553 244.483 186.312Z" fill="#9BACBE"/>
<path d="M247.098 191.861C246.645 190.021 246.938 188.1 247.152 186.232V186.552C247.205 188.313 247.178 190.101 247.098 191.861Z" fill="#A7AEBC"/>
<path d="M308.682 188.607C309.216 188.18 309.829 188.18 310.55 188.607C309.963 188.927 309.242 188.953 308.682 188.607Z" fill="#9CA6C0"/>
<path d="M301.314 193.943C302.622 190.954 305.772 189.54 308.682 188.607C309.269 188.954 309.963 188.927 310.551 188.607C315.035 189.834 318.772 193.836 319.386 198.478C315.836 196.344 312.419 193.195 308.015 193.195C308.842 192.635 310.364 192.529 309.937 191.168C306.92 191.488 304.464 194.103 301.314 193.969V193.943Z" fill="#F3F4F7"/>
<path d="M301.315 193.943C304.464 194.076 306.92 191.462 309.937 191.141C310.364 192.502 308.842 192.609 308.015 193.169C305.452 193.969 302.916 196.477 300.193 196.05C300.514 195.33 300.887 194.61 301.288 193.943H301.315Z" fill="#E3E4ED"/>
<path d="M306.066 197.598C306.947 197.117 306.573 198.371 306.172 198.638C303.103 202.453 300.3 206.482 297.203 210.27C297.203 209.203 297.15 208.162 297.363 207.122C297.524 207.549 297.23 208.776 298.004 208.349C300.62 204.721 303.156 201.012 306.039 197.598H306.066Z" fill="#DEE6EB"/>
<path d="M245.445 200.852C245.845 201.279 245.792 201.893 245.605 202.426C245.204 201.999 245.258 201.386 245.445 200.852Z" fill="#9FAABD"/>
<path d="M296.002 204.774C296.536 205.014 297.07 205.254 297.604 205.494C297.55 206.028 297.47 206.588 297.39 207.122C297.177 208.162 297.203 209.203 297.23 210.27C295.762 216.353 295.335 222.676 294.614 228.892C294.107 232.414 296.349 237.189 300.54 236.629C300.514 237.163 300.407 237.696 300.247 238.203C298.351 238.15 296.429 237.563 295.041 236.229C293.84 234.601 292.852 232.627 292.959 230.546C293.226 225.477 294 220.435 294.614 215.366C294.694 214.565 294.774 213.792 294.854 212.991C295.735 210.35 295.949 207.522 296.002 204.774Z" fill="#93AFC4"/>
<path d="M198.381 210.857C197.607 208.696 198.488 205.468 201.157 205.468C205.375 205.041 207.431 209.363 210.474 211.177C212.155 211.977 214.398 210.964 215.919 211.737C214.024 211.577 215.359 213.498 214.691 214.459C207.057 214.405 199.369 213.792 191.761 214.218C192.268 213.125 191.441 212.031 191.414 210.91C193.683 210.403 196.059 211.124 198.381 210.857Z" fill="#B2CCD6"/>
<path d="M319.707 207.816C320.294 208.002 320.908 208.163 321.495 208.296C320.881 214.672 320.294 221.048 319.44 227.398C318.986 230.199 319.039 233.187 317.731 235.775C317.785 234.762 317.865 233.668 317.117 232.894C318.452 224.597 319.653 216.193 319.707 207.816Z" fill="#8DACBF"/>
<path d="M246.378 208.723C246.831 209.15 246.751 210.03 246.004 209.923C246.111 209.523 246.244 209.123 246.378 208.723Z" fill="#A7B5CB"/>
<path d="M242.373 223.557C238.422 219.902 239.277 212.005 244.722 210.297C244.829 210.377 245.043 210.537 245.149 210.617C240.158 212.271 238.983 219.635 243.227 222.703C247.579 226.705 255.72 222.73 254.946 216.78C254.653 214.086 252.784 211.871 250.462 210.591C250.568 210.511 250.755 210.377 250.862 210.297C254.866 211.845 256.761 216.914 255.106 220.809C252.891 223.156 249.901 225.744 246.324 225.077C244.936 224.731 243.815 223.637 242.347 223.557H242.373Z" fill="#5A7088"/>
<path d="M245.15 210.617C246.859 210.004 248.727 210.27 250.489 210.59C252.812 211.871 254.68 214.085 254.974 216.78C255.775 222.729 247.633 226.705 243.255 222.703C238.984 219.635 240.159 212.271 245.177 210.617H245.15ZM246.699 214.592C245.15 215.126 244.296 217.874 245.898 218.834C247.153 220.702 250.463 219.395 250.249 217.234C250.81 215.286 248.327 213.925 246.699 214.592Z" fill="#C3DCE4"/>
<path d="M214.693 214.459C215.333 213.498 214.025 211.578 215.921 211.738C216.401 212.858 216.908 213.979 217.496 215.046C216.588 215.126 215.654 215.446 215.947 216.54C216.241 217.18 216.641 217.767 217.015 218.354C217.149 221.075 213.652 217.474 213.839 218.781C213.678 218.648 213.385 218.407 213.225 218.274C212.29 217.02 210.155 217.207 208.713 217.287C205.617 217.714 202.44 217.1 199.317 216.94C197.795 217.127 199.984 218.621 198.997 219.235C197.795 219.074 197.101 217.874 195.873 217.874C194.645 214.939 191.576 215.313 188.986 215.419C185.73 214.486 182.286 215.393 178.949 214.806C178.949 214.432 179.056 214.165 179.35 213.952C183.487 213.659 187.625 214.085 191.762 214.246C199.37 213.845 207.058 214.432 214.693 214.486V214.459Z" fill="#91B1C7"/>
<path d="M294.855 213.018C294.774 213.819 294.694 214.592 294.614 215.393C294.241 215.046 293.84 215.393 293.6 215.713C291.117 218.808 289.062 222.249 286.606 225.397C285.885 226.731 284.39 227.772 284.364 229.399C284.123 228.572 284.23 227.718 284.444 226.891C288.581 222.756 290.85 217.207 294.855 212.991V213.018Z" fill="#DAE4E9"/>
<path d="M246.699 214.592C248.327 213.925 250.81 215.286 250.249 217.233C250.462 219.394 247.152 220.702 245.898 218.834C244.296 217.847 245.15 215.099 246.699 214.592Z" fill="#5D7495"/>
<path d="M178.975 214.779C182.312 215.339 185.756 214.459 189.012 215.393C191.602 215.286 194.671 214.912 195.899 217.847C196.487 218.861 197.341 219.821 198.542 220.115C204.842 220.515 211.115 220.835 217.415 220.809C218.376 220.195 217.522 218.994 217.041 218.354C216.668 217.767 216.24 217.207 215.973 216.54C220.618 215.846 225.263 216.727 229.908 216.647C232.23 217.927 232.657 220.835 233.859 222.996C238.023 231.907 242.961 240.418 246.405 249.675C246.031 249.915 245.684 250.182 245.337 250.449C244.456 250.876 243.575 251.303 242.694 251.756C240.559 248.341 237.97 245.22 235.193 242.339C234.766 241.778 234.766 242.765 234.579 243.032C234.766 241.538 232.924 242.365 232.017 242.125C232.284 242.819 232.737 243.379 233.165 243.993C233.084 244.5 233.351 244.953 233.645 245.353C235.754 248.155 237.115 251.436 239.331 254.184C237.783 255.571 236.074 256.985 235.3 258.986C234.606 260.854 234.259 262.881 234.206 264.882C231.803 267.764 227.319 267.47 223.928 268.804C221.179 268.858 218.59 270.058 215.813 269.978C213.357 269.364 210.875 270.192 208.472 270.618C208.392 270.512 208.232 270.298 208.179 270.192C207.058 267.977 205.75 265.87 204.628 263.682C204.842 263.468 205.056 263.255 205.269 263.042C205.803 265.256 207.832 266.617 208.312 268.831C208.739 270.698 210.768 268.831 211.729 268.431C212.049 266.19 211.329 264.055 211.115 261.868C212.904 261.734 213.971 261.334 213.731 259.253C216.24 258.88 218.883 259.2 221.419 259.066C224.489 260.347 221.953 255.491 225.023 256.585C226.037 256.532 225.69 255.305 225.637 254.584C224.355 253.49 222.086 254.958 220.832 253.811C220.778 252.45 220.698 251.089 220.832 249.729C222.514 248.715 225.343 249.222 226.117 247.034C227.612 246.207 229.16 249.062 230.442 247.461C230.068 246.741 231.403 243.886 229.668 244.66C227.906 245.62 227.479 241.938 229.16 242.232C230.282 242.098 230.335 240.364 230.148 239.457C227.425 240.711 227.639 236.656 228.253 235.055C232.177 235.589 229.881 230.573 230.468 228.465C230.255 226.411 227.078 228.252 225.824 227.345C226.358 223.423 221.339 225.717 219.23 225.131C218.029 224.997 218.456 226.598 218.136 227.398C215.733 227.425 213.411 227.772 211.302 228.732C210.661 230.626 208.419 229.933 206.817 229.986C205.803 229.986 206.817 227.878 205.67 228.199C206.257 232.707 198.275 227.292 198.836 231.774C198.836 232.921 196.887 231.96 196.62 232.814C197.768 234.575 194.458 235.509 195.526 233.054C194.858 231.08 192.99 234.255 191.708 233.268C191.201 232.414 189.199 229.613 188.318 231.48C190.16 234.442 191.201 237.91 193.283 240.711C193.257 241.085 193.177 241.832 193.15 242.205C189.199 234.975 185.168 227.798 181.431 220.435C180.577 218.594 178.949 216.94 178.842 214.832L178.975 214.779Z" fill="#7293B8"/>
<path d="M215.948 216.54C215.627 215.446 216.588 215.126 217.496 215.046C221.313 215.499 225.157 215.339 229.001 215.446C231.003 215.259 232.044 216.646 232.712 218.194C233.032 218.914 233.406 219.634 233.806 220.301C235.728 224.944 238.051 229.372 240.239 233.881C242.722 238.977 245.418 244.019 247.527 249.275C247.153 249.408 246.753 249.515 246.379 249.622C242.936 240.391 237.997 231.853 233.833 222.943C232.658 220.782 232.205 217.874 229.882 216.593C225.237 216.7 220.566 215.793 215.948 216.486V216.54Z" fill="#89A6C3"/>
<path d="M199.022 219.208C200.009 218.594 197.82 217.127 199.342 216.913C202.465 217.073 205.615 217.687 208.738 217.26C210.18 217.18 212.315 216.993 213.25 218.247C212.476 219.208 214.211 220.408 213.864 218.754C213.677 217.447 217.147 221.049 217.04 218.327C217.547 218.994 218.375 220.168 217.414 220.782C211.114 220.782 204.841 220.488 198.541 220.088C197.34 219.795 196.512 218.834 195.898 217.82C197.1 217.82 197.82 219.021 199.022 219.181V219.208Z" fill="#83A4C2"/>
<path d="M213.838 218.781C214.212 220.435 212.45 219.234 213.224 218.274C213.384 218.407 213.678 218.647 213.838 218.781Z" fill="#C8E1F6"/>
<path d="M246.325 225.077C249.902 225.744 252.892 223.156 255.107 220.808C253.666 226.037 245.765 227.985 242.348 223.556C243.816 223.636 244.937 224.73 246.325 225.077Z" fill="#879BBB"/>
<path d="M218.242 227.372C218.536 226.571 218.135 224.97 219.336 225.104C221.445 225.691 226.464 223.396 225.93 227.318C227.185 228.225 230.361 226.384 230.575 228.439C229.987 230.546 232.283 235.562 228.359 235.028C227.745 236.629 227.505 240.684 230.254 239.43C230.441 240.311 230.415 242.072 229.267 242.205C227.585 241.938 228.012 245.62 229.774 244.633C231.509 243.859 230.174 246.714 230.548 247.434C229.267 249.035 227.692 246.154 226.224 247.007C225.449 249.195 222.62 248.715 220.938 249.702C220.805 251.063 220.885 252.423 220.938 253.784C222.166 254.931 224.462 253.464 225.743 254.558C225.796 255.278 226.143 256.505 225.129 256.558C222.059 255.438 224.595 260.32 221.525 259.04C218.963 259.146 216.347 258.853 213.837 259.226C214.078 261.281 213.01 261.681 211.221 261.841C211.435 264.029 212.129 266.163 211.835 268.404C210.901 268.804 208.872 270.672 208.418 268.804C207.938 266.59 205.909 265.202 205.375 263.015C205.135 263.202 204.922 263.415 204.735 263.655C202.546 259.84 200.757 255.811 198.462 252.05C196.806 248.741 195.205 245.407 193.363 242.205C193.39 241.832 193.47 241.085 193.496 240.711C191.414 237.91 190.373 234.441 188.531 231.48C189.412 229.613 191.388 232.414 191.921 233.268C193.203 234.255 195.071 231.053 195.739 233.054C194.698 235.509 198.008 234.575 196.833 232.814C197.1 231.96 199.049 232.894 199.049 231.774C198.488 227.291 206.47 232.707 205.883 228.199C207.004 227.878 206.016 229.986 207.03 229.986C208.632 229.933 210.874 230.626 211.515 228.732C213.624 227.772 215.946 227.425 218.349 227.398L218.242 227.372Z" fill="#7495BC"/>
<path d="M312.419 237.937C315.142 237.75 316.45 235.189 317.118 232.894C317.865 233.668 317.785 234.762 317.732 235.776C316.397 238.55 313.274 240.098 310.23 239.671C310.311 238.844 310.471 238.017 310.604 237.163C310.684 238.203 311.592 238.257 312.419 237.937Z" fill="#9CBBCE"/>
<path d="M240.238 233.908C241.947 233.294 242.801 235.028 244.109 236.015C244.296 233.668 247.072 235.962 247.98 234.121C247.446 236.122 250.382 235.375 251.477 236.282C252.624 237.109 252.571 234.922 253.559 234.815C254.546 234.682 254.199 236.282 255 236.629C256.015 237.083 256.655 238.016 257.563 238.63C260.419 240.124 256.335 245.086 260.099 245.833C261.3 246.367 258.978 246.554 259.565 247.274C260.232 248.021 258.097 248.982 259.431 249.462C261.193 249.835 259.378 251.409 258.364 250.902C257.403 250.369 255.134 250.422 256.388 251.943C259.245 253.677 259.218 257.359 261.434 259.653C262.768 260.694 260.766 262.054 261.994 263.041C263.729 264.162 264.53 267.55 261.994 268.137C262.128 267.63 262.234 267.123 262.368 266.643C263.008 265.309 262.234 264.029 261.113 263.308C259.805 262.615 261.994 261.174 261.247 260.16C260.606 258.959 259.298 258.319 258.604 257.172C258.604 257.012 258.604 256.718 258.604 256.558C258.417 254.718 256.201 253.944 255.267 252.476C254.279 250.422 251.503 250.262 249.581 250.876C249.581 250.449 249.581 250.022 249.581 249.595C250.035 247.648 248.433 248.901 247.526 249.328C245.417 244.073 242.721 239.03 240.238 233.935V233.908Z" fill="#FBF6F4"/>
<path d="M300.541 236.629C300.247 235.322 302.009 235.082 302.463 236.175C302.143 236.762 302.009 237.403 302.009 238.07C302.009 238.603 302.169 239.137 302.33 239.617C300.861 240.151 300.381 239.297 300.221 238.15C300.381 237.643 300.488 237.109 300.514 236.576L300.541 236.629Z" fill="#6E84A2"/>
<path d="M300.968 243.139C297.979 242.285 293.094 240.044 295.016 236.229C296.404 237.563 298.326 238.123 300.221 238.203C300.381 239.35 300.862 240.177 302.33 239.67C304.332 239.644 306.361 239.857 308.309 240.364L308.443 240.604C308.737 241.645 309.991 241.031 310.685 241.004C312.607 240.604 314.796 240.898 316.264 239.404C316.531 240.551 315.357 242.285 314.449 243.005C310.205 245.54 305.426 242.525 300.942 243.165L300.968 243.139Z" fill="#FBF5F5"/>
<path d="M302.464 236.202C304.599 236.656 307.028 237.51 309.084 236.389C309.191 237.163 309.377 237.963 309.351 238.764C306.868 239.057 304.412 237.51 302.01 238.123C302.01 237.456 302.143 236.789 302.464 236.229V236.202Z" fill="#DEE6EF"/>
<path d="M309.083 236.363C309.644 236.443 310.525 236.443 310.632 237.163C310.498 237.99 310.338 238.817 310.258 239.671C310.098 240.605 309.244 240.631 308.469 240.578L308.336 240.338C308.71 239.831 309.11 239.324 309.377 238.737C309.377 237.937 309.217 237.163 309.11 236.363H309.083Z" fill="#68798E"/>
<path d="M302.01 238.097C304.412 237.483 306.868 239.03 309.351 238.737C309.084 239.324 308.71 239.831 308.31 240.338C306.361 239.857 304.332 239.617 302.33 239.644C302.143 239.137 302.01 238.63 302.01 238.097Z" fill="#B8C3D5"/>
<path d="M231.99 242.098C232.871 242.338 234.74 241.511 234.553 243.005C234.233 243.486 233.619 243.672 233.138 243.966C232.711 243.379 232.257 242.792 231.99 242.098Z" fill="#96A8CA"/>
<path d="M234.553 243.006C234.766 242.739 234.74 241.752 235.167 242.312C237.943 245.193 240.532 248.341 242.668 251.73C241.547 252.53 240.426 253.33 239.331 254.157C237.116 251.436 235.754 248.128 233.645 245.327C233.352 244.926 233.085 244.473 233.165 243.966C233.645 243.673 234.259 243.486 234.58 243.006H234.553Z" fill="#455077"/>
<path d="M247.526 249.302C248.433 248.875 250.035 247.621 249.581 249.569C248.914 250.663 248.273 251.756 247.392 252.717C245.977 252.53 246.831 250.316 245.283 250.449C245.63 250.182 246.004 249.915 246.351 249.675C246.725 249.569 247.125 249.435 247.499 249.329L247.526 249.302Z" fill="#F7CCB2"/>
<path d="M247.42 252.717C248.301 251.783 248.942 250.662 249.609 249.569C249.609 249.995 249.609 250.422 249.609 250.849C249.449 251.409 249.876 251.329 250.25 251.276C250.116 252.423 249.235 253.117 248.355 253.731C248.194 253.864 247.874 254.104 247.714 254.211C247.313 254.504 246.913 254.798 246.486 255.118C245.098 256.025 243.87 257.145 242.535 258.133C243.016 255.625 245.819 254.504 247.367 252.717H247.42Z" fill="#EE9473"/>
<path d="M242.669 251.729C243.55 251.276 244.43 250.849 245.311 250.422C246.833 250.289 245.979 252.503 247.42 252.69C245.872 254.477 243.069 255.598 242.589 258.106C241.921 258.959 240.667 259.226 240.159 260.213C241.814 260.693 243.203 259.84 244.511 259.066C245.632 258.372 246.699 257.599 247.634 256.665C248.702 256.051 248.274 255.064 247.767 254.21C247.927 254.077 248.248 253.837 248.408 253.73C249.315 253.81 248.595 254.851 249.129 255.278C250.357 256.371 248.007 257.199 247.5 258.052C248.408 258.239 249.315 258.292 250.223 258.452C249.396 260.08 249.022 262.881 251.771 262.641C253.934 264.455 251.318 266.963 249.903 268.404C251.878 268.804 254.094 267.87 255.909 266.936C256.336 267.55 256.683 268.404 257.511 267.817C259.086 266.936 259.059 269.738 260.554 269.338C260.367 268.644 260.047 268.004 259.94 267.31C260.767 267.096 261.595 266.883 262.396 266.59C262.262 267.096 262.155 267.577 262.022 268.084C261.114 269.284 260.18 270.431 259.246 271.605C254.014 276.861 245.792 275.074 239.412 277.848C234.34 280.143 229.615 283.264 225.344 286.812C222.301 288.973 219.258 291.161 215.948 292.922C214.159 292.735 213.492 290.681 212.584 289.4C211.169 283.718 209.434 276.888 213.332 271.819C216.428 269.578 220.673 270.511 223.929 268.724C227.319 267.39 231.804 267.683 234.207 264.802C234.981 262.961 235.087 260.88 235.301 258.906C236.075 256.905 237.784 255.491 239.332 254.104C240.426 253.277 241.547 252.476 242.669 251.676V251.729Z" fill="#FDBB88"/>
<path d="M249.608 250.849C251.557 250.209 254.306 250.369 255.294 252.45C256.202 253.917 258.444 254.691 258.631 256.532C257.136 258.719 255.508 260.88 254.467 263.308C256.095 261.441 257.51 259.386 258.604 257.145C259.298 258.293 260.606 258.906 261.247 260.133C261.994 261.147 259.805 262.588 261.113 263.282C262.235 263.975 262.982 265.282 262.368 266.616C261.567 266.91 260.74 267.123 259.912 267.337C260.019 268.03 260.339 268.697 260.526 269.364C259.031 269.738 259.085 266.963 257.483 267.844C256.655 268.457 256.282 267.577 255.881 266.963C254.066 267.897 251.851 268.831 249.875 268.431C251.29 266.99 253.906 264.482 251.744 262.668C248.994 262.935 249.368 260.107 250.195 258.479C249.288 258.319 248.38 258.239 247.473 258.079C247.98 257.225 250.329 256.398 249.101 255.304C248.54 254.878 249.288 253.81 248.38 253.757C249.234 253.117 250.115 252.423 250.276 251.303C249.875 251.356 249.475 251.436 249.635 250.876L249.608 250.849Z" fill="#FCB584"/>
<path d="M197.794 253.09C197.981 252.717 198.168 252.343 198.355 251.996C200.65 255.758 202.412 259.787 204.628 263.602C205.749 265.816 207.057 267.924 208.178 270.111C205.108 270.858 201.878 271.712 199.262 273.58C202.359 272.673 205.349 271.392 208.472 270.565C210.874 270.138 213.357 269.338 215.813 269.925C213.891 270.458 212.476 271.846 211.488 273.553C208.579 277.635 209.673 283.424 210.767 288.04C207.991 291.508 203.026 292.682 198.782 291.668C197.954 290.761 197.447 289.587 196.646 288.653C195.418 285.719 195.178 282.517 194.698 279.396C194.617 274.994 195.338 270.672 196.059 266.376C196.406 264.482 196.673 262.588 196.86 260.667C197.474 258.213 197.687 255.651 197.794 253.117V253.09Z" fill="#FDFDFC"/>
<path d="M246.512 255.118C246.912 254.824 247.313 254.531 247.74 254.211C248.247 255.064 248.674 256.025 247.606 256.665C247.152 256.212 246.618 255.785 246.512 255.118Z" fill="#9A92A7"/>
<path d="M373.416 254.931C373.416 254.931 373.816 254.824 373.95 254.771C373.042 256.185 371.2 256.692 370.213 258.053C369.946 258.506 368.745 259.226 369.118 258.186C370.4 256.905 371.868 255.838 373.416 254.931Z" fill="#DFE3E5"/>
<path d="M242.56 258.133C243.895 257.146 245.123 256.025 246.511 255.118C246.591 255.812 247.152 256.212 247.605 256.665C246.698 257.599 245.603 258.373 244.482 259.066C243.494 259.12 242.427 259.333 242.56 258.133Z" fill="#595A79"/>
<path d="M254.467 263.308C255.508 260.88 257.136 258.719 258.631 256.532C258.631 256.692 258.631 256.985 258.631 257.145C257.537 259.386 256.122 261.441 254.493 263.308H254.467Z" fill="#E79563"/>
<path d="M240.131 260.24C240.638 259.28 241.893 258.986 242.56 258.133C242.427 259.333 243.521 259.12 244.482 259.066C243.147 259.84 241.759 260.72 240.131 260.214V260.24Z" fill="#E37455"/>
<path d="M234.205 264.856C234.258 262.855 234.606 260.827 235.3 258.96C235.086 260.934 234.953 263.015 234.205 264.856Z" fill="#DCBFB0"/>
<path d="M215.812 269.925C218.589 270.005 221.178 268.805 223.927 268.751C220.671 270.539 216.426 269.578 213.33 271.846C209.433 276.915 211.168 283.745 212.582 289.428C209.539 284.785 209.673 278.676 211.488 273.58C212.502 271.873 213.89 270.512 215.812 269.952V269.925Z" fill="#EFBF9C"/>
<path d="M199.264 273.606C201.88 271.739 205.11 270.885 208.18 270.138C208.26 270.245 208.42 270.458 208.473 270.565C205.35 271.392 202.36 272.699 199.264 273.58V273.606Z" fill="#D5DBE0"/>
<path d="M359.374 271.446L359.588 271.526C362.684 272.78 365.968 273.767 368.744 275.688C365.514 274.647 362.498 273.02 359.268 271.952C359.294 271.819 359.348 271.579 359.374 271.446Z" fill="#DEE2E6"/>
<path d="M239.41 277.875C245.79 275.1 254.012 276.888 259.244 271.632C259.565 272.219 259.831 272.833 260.045 273.473C259.351 276.328 262.341 278.542 262.875 281.21C264.129 284.545 266.505 287.399 267.546 290.841C267.733 291.855 266.986 292.629 265.971 292.442C264.69 292.362 263.435 292.308 262.154 292.255C261.006 292.148 259.831 292.095 258.684 292.095C257.402 292.042 256.148 292.015 254.866 291.962C253.612 291.775 252.357 291.775 251.102 291.775C249.928 291.721 248.78 291.695 247.606 291.668C246.538 291.481 245.497 291.401 244.429 291.481C243.254 291.428 242.106 291.401 240.932 291.375C239.571 291.161 238.209 291.161 236.848 291.188C235.967 291.161 235.086 291.135 234.232 291.135C233.511 291.054 232.817 291.001 232.123 290.948C229.587 290.814 226.998 290.974 224.488 290.441C224.889 289.267 225.129 288.04 225.369 286.812C229.64 283.291 234.365 280.143 239.437 277.848L239.41 277.875Z" fill="#7090B6"/>
<path d="M210.768 288.04C209.674 283.424 208.579 277.662 211.489 273.553C209.674 278.649 209.54 284.758 212.584 289.4C213.518 290.708 214.159 292.735 215.947 292.922C219.23 291.188 222.3 288.973 225.343 286.812C225.076 288.013 224.863 289.267 224.463 290.441C221.82 296.31 214.692 295.803 209.354 296.63C206.391 296.71 202.894 297.804 200.304 295.91C198.409 294.176 197.715 291.561 196.514 289.374C196.54 289.187 196.62 288.84 196.674 288.653C197.475 289.587 197.982 290.761 198.809 291.668C203.027 292.682 207.992 291.508 210.795 288.04H210.768Z" fill="#FBEEEB"/>
<path d="M260.019 273.473C262.902 279.262 265.892 285.025 268.668 290.868C269.683 292.949 266.906 292.709 265.919 292.442C266.933 292.602 267.681 291.855 267.494 290.841C266.453 287.399 264.077 284.545 262.822 281.21C262.288 278.542 259.299 276.328 259.993 273.473H260.019Z" fill="#80A0BE"/>
<path d="M368.744 275.688C370.533 276.195 372.375 277.075 373.656 278.436C371.841 277.902 370.186 276.888 368.744 275.688Z" fill="#DCE3E6"/>
<path d="M374.457 278.996C377.847 280.169 380.09 283.238 382.999 285.212C382.866 285.292 382.572 285.425 382.439 285.505C380.009 283.051 377.046 281.237 374.457 278.996Z" fill="#DCDEE0"/>
<path d="M350.166 286.626C350.219 285.959 350.353 285.292 350.807 284.785C350.593 285.986 351.474 286.626 352.729 286.573C351.928 286.573 350.967 286.493 351.074 287.56C350.967 287.533 350.727 287.48 350.62 287.453C350.46 287.187 350.299 286.92 350.166 286.653V286.626Z" fill="#FDDECC"/>
<path d="M351.073 287.533C350.966 286.466 351.927 286.519 352.728 286.546C358.28 288.573 363.539 291.481 368.21 295.11C367.703 295.937 367.062 296.684 366.342 297.351C363.032 293.642 358.707 290.788 353.769 289.801C352.781 289.16 350.298 290.147 350.459 288.387C350.672 288.12 350.912 287.853 351.073 287.559V287.533Z" fill="#F78571"/>
<path d="M349.631 289.561C349.844 289.134 350.138 288.734 350.485 288.387C350.325 290.148 352.807 289.161 353.795 289.801C358.734 290.788 363.058 293.643 366.368 297.351C365.861 297.831 365.274 298.258 364.74 298.738C364.366 299.032 364.072 299.432 363.832 299.832C363.779 299.912 363.699 300.072 363.645 300.126C363.245 300.419 362.845 300.713 362.417 300.979C360.602 299.992 361.056 297.378 359.348 296.311C358.68 295.243 357.719 294.47 356.545 293.99C356.598 292.335 355.13 291.642 353.795 291.295C352.3 290.948 351.259 289.481 349.658 289.561H349.631Z" fill="#FDA97D"/>
<path d="M349.631 289.561C351.233 289.481 352.274 290.975 353.769 291.295C355.077 291.642 356.571 292.336 356.518 293.99C357.719 294.47 358.654 295.217 359.321 296.311C361.056 297.378 360.576 299.992 362.391 300.98C355.237 306.342 349.124 313.199 341.916 318.268C338.526 320.829 334.282 322.67 329.931 322.029C327.128 321.896 324.538 320.669 321.762 320.349C321.762 317.734 318.052 319.735 316.583 318.401C314.982 317.787 317.544 317.654 317.811 316.88C318.719 315.28 320.614 315.413 322.082 314.719C321.842 312.852 319.653 314.052 318.425 313.572C316.637 312.932 314.768 313.172 312.953 312.798C313.647 309.757 317.651 310.557 319.707 309.09C320.187 308.823 321.735 308.797 320.748 308.156C315.943 308.316 311.058 308.236 306.306 309.063C306.386 309.17 306.546 309.357 306.626 309.437C304.758 309.65 302.889 309.97 301.074 310.424C298.191 310.744 294.881 312.825 292.185 311.198C292.025 308.797 295.602 309.704 296.056 307.516C301.208 305.862 306.36 304.074 311.778 303.594C313.22 303.648 314.635 303.407 316.05 303.061C317.411 303.514 318.852 303.648 320.321 303.514C318.025 302.26 315.115 302.26 312.579 302.234C312.099 302.287 311.592 302.34 311.111 302.367C306.573 301.46 302.062 303.221 297.497 302.981C296.429 303.194 294.534 302.58 294.748 301.193C296.563 301.38 298.164 300.553 299.019 298.979C306.92 296.631 315.356 296.791 323.177 299.379C327.421 301.353 331.933 304.048 336.818 304.395C339.941 302.5 341.81 299.245 344.079 296.524C345.76 294.07 348.029 292.095 349.604 289.561H349.631Z" fill="#FEB988"/>
<path d="M236.822 291.188C238.184 291.161 239.545 291.188 240.906 291.374C239.545 291.401 238.157 291.401 236.822 291.188Z" fill="#AFBDCF"/>
<path d="M244.402 291.509C245.47 291.429 246.511 291.509 247.579 291.695C246.511 291.775 245.443 291.669 244.402 291.509Z" fill="#B8C7DE"/>
<path d="M251.076 291.802C252.331 291.802 253.585 291.802 254.84 291.989C253.585 291.989 252.304 291.989 251.076 291.802Z" fill="#BECFE3"/>
<path d="M258.658 292.122C259.806 292.122 260.981 292.176 262.128 292.282C260.954 292.282 259.806 292.229 258.658 292.122Z" fill="#B2C3D3"/>
<path d="M368.184 295.11C370.133 296.23 371.361 298.231 373.283 299.405C371.468 300.659 368.959 299.618 366.903 299.939C365.675 300.579 365.088 299.565 364.688 298.738C365.221 298.258 365.782 297.831 366.316 297.351C367.037 296.684 367.677 295.963 368.184 295.11Z" fill="#F4D4D2"/>
<path d="M294.775 301.193C295.389 299.539 297.578 299.432 299.046 298.979C298.192 300.526 296.564 301.38 294.775 301.193Z" fill="#FAD8C0"/>
<path d="M312.607 302.234C315.143 302.234 318.053 302.26 320.349 303.514C318.907 303.648 317.466 303.514 316.078 303.061C314.93 302.714 313.755 302.527 312.607 302.234Z" fill="#EF9167"/>
<path d="M311.139 302.367C311.619 302.367 312.126 302.314 312.607 302.234C313.755 302.527 314.929 302.714 316.077 303.061C314.689 303.408 313.274 303.648 311.806 303.594C312.233 302.954 311.566 302.661 311.139 302.367Z" fill="#FFEED5"/>
<path d="M292.212 311.197C291.438 308.903 294.348 307.942 296.083 307.516C295.629 309.703 292.052 308.796 292.212 311.197Z" fill="#FBDDC4"/>
<path d="M306.307 309.063C311.058 308.236 315.943 308.289 320.748 308.156C321.736 308.796 320.188 308.823 319.707 309.089C315.917 309.089 312.099 308.796 308.335 309.223C307.775 309.276 307.214 309.356 306.627 309.436C306.547 309.329 306.387 309.143 306.307 309.063Z" fill="#EE8B60"/>
<path d="M308.336 309.223C312.1 308.796 315.917 309.063 319.708 309.089C317.626 310.557 313.648 309.756 312.954 312.798C314.769 313.171 316.638 312.931 318.426 313.571C319.628 314.052 321.843 312.878 322.083 314.719C320.615 315.412 318.72 315.279 317.812 316.88C317.572 317.653 315.009 317.813 316.584 318.4C318.026 319.734 321.736 317.733 321.763 320.348C315.009 319.441 308.389 321.228 301.689 321.495C300.915 321.042 300.675 320.188 300.835 319.361C302.303 319.441 303.131 318.027 304.439 317.707C308.363 316.053 312.687 316.106 316.665 314.825C318.159 314.879 320.081 315.386 321.256 314.158C318.693 314.078 316.104 314.078 313.541 314.105C312.554 314.372 314.556 314.532 315.143 314.639C309.777 314.265 304.465 315.199 299.42 316.96C297.818 317.573 296.11 317.974 294.428 317.44C294.081 316.906 293.307 315.866 294.482 315.626C297.044 313.838 299.874 312.451 302.81 311.437C305.319 310.824 307.775 310.023 310.311 309.65C312.046 309.063 309.003 309.276 308.309 309.143L308.336 309.223Z" fill="#FAB386"/>
<path d="M306.655 309.436C307.215 309.356 307.776 309.276 308.363 309.223C309.057 309.356 312.1 309.143 310.365 309.73C307.829 310.103 305.347 310.904 302.864 311.517C302.624 310.664 301.93 310.397 301.129 310.423C302.944 309.97 304.813 309.65 306.681 309.436H306.655Z" fill="#FEF0D9"/>
<path d="M315.17 314.692C314.583 314.586 312.581 314.426 313.568 314.159C316.131 314.159 318.694 314.132 321.283 314.212C320.108 315.439 318.186 314.906 316.691 314.879C316.184 314.826 315.677 314.746 315.17 314.692Z" fill="#F28466"/>
<path d="M299.446 317.013C304.491 315.226 309.804 314.319 315.169 314.692C315.676 314.745 316.184 314.799 316.691 314.879C312.687 316.159 308.362 316.106 304.465 317.76C303.13 318.08 302.303 319.468 300.861 319.414C301.849 318.641 302.917 317.947 303.958 317.227C301.368 317.6 298.726 317.707 296.243 318.614C295.415 318.987 294.828 318.187 294.508 317.52C296.19 318.054 297.898 317.627 299.5 317.04L299.446 317.013Z" fill="#FEF0E4"/>
<path d="M228.76 319.014C228.786 318.854 228.84 318.561 228.867 318.401C235.967 319.148 243.255 318.401 250.435 318.747C250.542 318.881 250.783 319.148 250.916 319.281C243.522 319.494 236.154 319.148 228.76 319.014Z" fill="#D5DEDF"/>
<path d="M250.25 319.548C250.783 319.681 250.436 320.429 250.543 320.802C250.356 329.259 249.742 337.69 249.555 346.147C249.369 346.627 248.835 346.574 248.408 346.574C240.613 345.96 232.765 346.414 224.943 346.227V345.987C232.952 345.88 240.96 346.014 248.968 345.934C249.689 337.156 249.902 328.352 250.25 319.548Z" fill="#D3DADD"/>
<path d="M284.417 226.891C284.204 227.718 284.124 228.572 284.337 229.399C284.604 232.28 284.417 235.188 284.471 238.096C284.471 240.791 284.497 243.512 284.417 246.207C284.497 249.542 284.497 252.877 284.417 256.212C284.577 277.528 284.417 298.871 284.471 320.215C284.471 321.522 284.471 322.829 284.471 324.136C280.947 323.843 277.29 324.67 273.846 323.87V324.136H273.553C273.553 321.949 273.553 319.734 273.633 317.547C273.446 294.709 273.606 271.845 273.553 249.008C273.606 242.445 273.393 235.909 273.686 229.346C273.74 228.492 273.9 227.665 273.686 226.838C270.723 211.284 267.173 195.863 264.183 180.336C263.809 178.469 263.355 176.628 263.275 174.734C263.863 174.894 264.45 175.107 265.037 175.32C267.253 176.148 269.709 175.934 271.924 176.708C276.516 176.468 281.107 176.628 285.699 176.681L285.939 176.601C288.822 175.561 291.892 174.92 294.828 173.906C294.828 174.12 294.748 174.573 294.721 174.787C291.892 192.262 287.327 209.416 284.417 226.864V226.891Z" fill="#101082"/>
<path d="M301.689 321.522C308.39 321.255 315.01 319.468 321.764 320.375C324.54 320.722 327.129 321.949 329.932 322.056C330.146 322.723 330.332 323.416 330.573 324.11C330.679 326.084 331.133 328.005 331.427 329.953C330.466 327.712 330.092 325.284 329.211 323.043C322.484 321.309 315.384 320.108 308.443 321.629C308.336 321.629 308.123 321.656 308.016 321.682C305.907 321.522 303.772 321.922 301.689 321.522Z" fill="#FDF1E8"/>
<path d="M308.469 321.629C315.409 320.081 322.51 321.308 329.237 323.043C330.091 325.31 330.491 327.711 331.452 329.952C332.28 333.314 332.467 336.782 332.947 340.224C332.947 340.597 333.001 340.971 333.027 341.371C333.054 342.091 333.161 342.812 333.294 343.559V343.852C333.348 344.546 333.401 345.266 333.374 345.987C325.473 345.987 317.598 346.04 309.697 345.987C309.163 337.903 309.056 329.766 308.469 321.682V321.629Z" fill="#FEFEFC"/>
<path d="M308.016 321.683C308.016 321.683 308.336 321.656 308.443 321.629C309.03 329.713 309.137 337.823 309.671 345.934C317.545 346.014 325.447 345.934 333.348 345.934V346.174C325.527 346.921 317.599 346.441 309.724 346.521C308.656 345.32 309.217 343.453 309.003 342.012C308.576 335.235 308.309 328.459 308.016 321.656V321.683Z" fill="#D6DDDE"/>
<path d="M284.471 355.965H273.873C273.873 345.347 273.873 334.755 273.873 324.163V323.897C277.317 324.697 280.974 323.897 284.497 324.163C284.497 334.755 284.497 345.373 284.497 355.965H284.471Z" fill="#E09E34"/>
<path d="M273.874 355.965H273.58V324.163H273.874C273.9 334.755 273.874 345.347 273.874 355.965Z" fill="#6C7B8F"/>
</g>
</g>
<defs>
<clipPath id="clip0_8898_6983">
<rect width="578" height="560" fill="white"/>
</clipPath>
</defs>
</svg>
