<svg width="638" height="650" viewBox="0 0 638 650" fill="none" xmlns="http://www.w3.org/2000/svg">
<g opacity="0.2" clip-path="url(#clip0_10270_21183)">
<g opacity="0.3">
<path d="M302.933 277.077L348.678 242.541L341.191 184.987L287.889 162.021L242.144 196.556L249.631 254.11L302.933 277.077Z" fill="#CC922F"/>
</g>
<g opacity="0.3">
<path d="M234.624 186.598L280.37 152.063L272.883 94.5085L219.581 71.542L173.835 106.077L181.322 163.632L234.624 186.598Z" fill="#CC922F"/>
</g>
<g opacity="0.3">
<path d="M432.167 447.973L477.982 413.385L470.426 355.884L417.193 332.864L371.378 367.452L378.935 424.954L432.167 447.973Z" fill="#CC922F"/>
</g>
<g opacity="0.3">
<path d="M348.564 186.075L392.36 153.011L443.284 175.001L450.482 230.001L406.687 263.064L355.762 241.075L348.564 186.075Z" fill="url(#paint0_linear_10270_21183)"/>
<path d="M441.266 176.524L448.106 229.022L406.33 260.562L357.713 239.602L350.873 187.104L392.65 155.565L441.266 176.524ZM445.305 173.475L392.003 150.509L346.257 185.044L353.744 242.599L407.046 265.565L452.792 231.03L445.305 173.475Z" fill="white"/>
</g>
<g opacity="0.3">
<path d="M283.454 99.8327L327.25 66.7692L378.175 88.7583L385.373 143.758L341.577 176.822L290.653 154.833L283.454 99.8327Z" fill="url(#paint1_linear_10270_21183)"/>
<path d="M376.157 90.2819L382.997 142.78L341.22 174.319L292.604 153.36L285.764 100.862L327.54 69.3226L376.157 90.2819ZM380.195 87.2331L326.893 64.2666L281.148 98.802L288.635 156.356L341.937 179.323L387.682 144.788L380.195 87.2331Z" fill="white"/>
</g>
<g opacity="0.3">
<path d="M136.575 210.497L180.371 177.433L231.296 199.422L238.494 254.423L194.698 287.486L143.774 265.497L136.575 210.497Z" fill="url(#paint2_linear_10270_21183)"/>
<path d="M229.278 200.946L236.118 253.444L194.341 284.983L145.725 264.024L138.885 211.526L180.661 179.987L229.278 200.946ZM233.316 197.897L180.014 174.931L134.269 209.466L141.756 267.02L195.058 289.987L240.803 255.452L233.316 197.897Z" fill="white"/>
</g>
<g opacity="0.3">
<path d="M412.872 271.256L456.668 238.193L507.593 260.182L514.738 315.112L470.942 348.175L420.071 326.257L412.872 271.256Z" fill="url(#paint3_linear_10270_21183)"/>
<path d="M505.575 261.706L512.415 314.204L470.638 345.743L422.022 324.784L415.182 272.286L456.958 240.746L505.575 261.706ZM509.613 258.657L456.311 235.69L410.566 270.226L418.053 327.78L471.355 350.747L517.1 316.211L509.613 258.657Z" fill="white"/>
</g>
<g opacity="0.3">
<path d="M305.888 285.489L349.684 252.425L400.608 274.415L407.807 329.415L364.011 362.478L313.086 340.489L305.888 285.489Z" fill="url(#paint4_linear_10270_21183)"/>
<path d="M398.59 275.938L405.431 328.437L363.654 359.976L315.037 339.016L308.197 286.518L349.974 254.979L398.59 275.938ZM402.629 272.889L349.327 249.923L303.581 284.458L311.068 342.013L364.371 364.979L410.116 330.444L402.629 272.889Z" fill="white"/>
</g>
<g opacity="0.3">
<path d="M199.923 294.409L243.719 261.345L294.643 283.334L301.842 338.335L258.046 371.398L207.121 349.409L199.923 294.409Z" fill="url(#paint5_linear_10270_21183)"/>
<path d="M292.626 284.858L299.466 337.356L257.689 368.896L209.072 347.936L202.232 295.438L244.009 263.899L292.626 284.858ZM296.664 281.809L243.362 258.843L197.617 293.378L205.104 350.933L258.406 373.899L304.151 339.364L296.664 281.809Z" fill="white"/>
</g>
<g opacity="0.3">
<path d="M478.087 357.641L521.883 324.578L572.808 346.567L579.953 401.496L536.157 434.56L485.286 412.641L478.087 357.641Z" fill="url(#paint6_linear_10270_21183)"/>
<path d="M570.79 348.09L577.63 400.589L535.853 432.128L487.236 411.169L480.396 358.67L522.173 327.131L570.79 348.09ZM574.828 345.042L521.526 322.075L475.781 356.611L483.268 414.165L536.57 437.131L582.315 402.596L574.828 345.042Z" fill="white"/>
</g>
<g opacity="0.3">
<path d="M435.361 456.985L479.156 423.921L530.081 445.911L537.279 500.911L493.483 533.974L442.559 511.985L435.361 456.985Z" fill="url(#paint7_linear_10270_21183)"/>
<path d="M528.063 447.434L534.903 499.933L493.127 531.472L444.51 510.513L437.67 458.014L479.447 426.475L528.063 447.434ZM532.102 444.385L478.8 421.419L433.054 455.954L440.541 513.509L493.843 536.475L539.589 501.94L532.102 444.385Z" fill="white"/>
</g>
<g opacity="0.3">
<path d="M333.177 470.919L376.973 437.855L427.844 459.774L435.042 514.774L391.247 547.837L340.322 525.848L333.177 470.919Z" fill="url(#paint8_linear_10270_21183)"/>
<path d="M425.825 461.298L432.665 513.796L390.888 545.335L342.272 524.376L335.432 471.877L377.208 440.338L425.825 461.298ZM429.863 458.249L376.561 435.282L330.816 469.818L338.303 527.372L391.605 550.339L437.35 515.803L429.863 458.249Z" fill="white"/>
</g>
<g opacity="0.3">
<path d="M156.454 396.973L200.181 363.962L251.175 385.899L258.303 440.952L214.577 473.963L163.653 451.973L156.454 396.973Z" fill="url(#paint9_linear_10270_21183)"/>
<path d="M249.157 387.423L255.997 439.921L214.22 471.46L165.604 450.501L158.764 398.002L200.54 366.463L249.157 387.423ZM253.195 384.374L199.893 361.407L154.148 395.943L161.635 453.497L214.937 476.463L260.682 441.928L253.195 384.374Z" fill="white"/>
</g>
<g opacity="0.3">
<path d="M285.982 568.54L329.708 535.529L380.649 557.395L387.777 612.447L344.051 645.458L293.127 623.469L285.982 568.54Z" fill="url(#paint10_linear_10270_21183)"/>
<path d="M378.63 558.919L385.47 611.417L343.693 642.956L295.076 621.997L288.236 569.498L330.013 537.959L378.63 558.919ZM382.668 555.87L329.366 532.903L283.621 567.439L291.108 624.993L344.41 647.96L390.155 613.424L382.668 555.87Z" fill="white"/>
</g>
<g opacity="0.3">
<path d="M153.499 388.561L199.245 354.026L191.758 296.471L138.456 273.505L92.7104 308.04L100.197 365.595L153.499 388.561Z" fill="#CC922F"/>
</g>
<g opacity="0.3">
<path d="M282.734 559.458L328.549 524.87L320.992 467.368L267.76 444.349L221.945 478.937L229.432 536.491L282.734 559.458Z" fill="#CC922F"/>
</g>
<g opacity="0.3">
<path d="M326.73 464.255L372.475 429.719L364.988 372.165L311.686 349.198L265.941 383.734L273.428 441.288L326.73 464.255Z" fill="#CC922F"/>
</g>
</g>
<defs>
<linearGradient id="paint0_linear_10270_21183" x1="396.045" y1="54.2197" x2="400.686" y2="564.302" gradientUnits="userSpaceOnUse">
<stop stop-color="white"/>
<stop offset="1"/>
</linearGradient>
<linearGradient id="paint1_linear_10270_21183" x1="332.826" y1="50.9839" x2="337.467" y2="561.066" gradientUnits="userSpaceOnUse">
<stop stop-color="white"/>
<stop offset="1"/>
</linearGradient>
<linearGradient id="paint2_linear_10270_21183" x1="183.572" y1="57.1388" x2="188.213" y2="567.221" gradientUnits="userSpaceOnUse">
<stop stop-color="white"/>
<stop offset="1"/>
</linearGradient>
<linearGradient id="paint3_linear_10270_21183" x1="458.459" y1="57.4136" x2="463.1" y2="567.496" gradientUnits="userSpaceOnUse">
<stop stop-color="white"/>
<stop offset="1"/>
</linearGradient>
<linearGradient id="paint4_linear_10270_21183" x1="351.174" y1="58.9715" x2="355.816" y2="569.055" gradientUnits="userSpaceOnUse">
<stop stop-color="white"/>
<stop offset="1"/>
</linearGradient>
<linearGradient id="paint5_linear_10270_21183" x1="245.08" y1="60.2881" x2="249.721" y2="570.37" gradientUnits="userSpaceOnUse">
<stop stop-color="white"/>
<stop offset="1"/>
</linearGradient>
<linearGradient id="paint6_linear_10270_21183" x1="521.776" y1="60.6549" x2="526.417" y2="570.739" gradientUnits="userSpaceOnUse">
<stop stop-color="white"/>
<stop offset="1"/>
</linearGradient>
<linearGradient id="paint7_linear_10270_21183" x1="476.908" y1="65.4088" x2="481.549" y2="575.491" gradientUnits="userSpaceOnUse">
<stop stop-color="white"/>
<stop offset="1"/>
</linearGradient>
<linearGradient id="paint8_linear_10270_21183" x1="374.426" y1="66.9082" x2="379.068" y2="576.991" gradientUnits="userSpaceOnUse">
<stop stop-color="white"/>
<stop offset="1"/>
</linearGradient>
<linearGradient id="paint9_linear_10270_21183" x1="199.355" y1="65.1893" x2="203.996" y2="575.27" gradientUnits="userSpaceOnUse">
<stop stop-color="white"/>
<stop offset="1"/>
</linearGradient>
<linearGradient id="paint10_linear_10270_21183" x1="325.09" y1="71.6243" x2="329.731" y2="581.707" gradientUnits="userSpaceOnUse">
<stop stop-color="white"/>
<stop offset="1"/>
</linearGradient>
<clipPath id="clip0_10270_21183">
<rect width="536.313" height="395.118" fill="white" transform="translate(314.344) rotate(52.9491)"/>
</clipPath>
</defs>
</svg>
