<svg width="36" height="35" viewBox="0 0 36 35" fill="none" xmlns="http://www.w3.org/2000/svg">
<g clip-path="url(#clip0_6651_6131)">
<path d="M17.6939 0.973633C8.5351 0.973633 1.11133 8.39805 1.11133 17.5562C1.11133 26.7143 8.5351 34.1387 17.6939 34.1387C26.852 34.1387 34.2764 26.7143 34.2764 17.5562C34.2764 8.39805 26.852 0.973633 17.6939 0.973633ZM24.1968 20.8076H20.9453V24.0591C20.9453 25.8546 19.4893 27.3106 17.6939 27.3106C15.8977 27.3106 14.4424 25.8546 14.4424 24.0591V20.8076H11.1909C9.39479 20.8076 7.93943 19.3516 7.93943 17.5562C7.93943 15.7607 9.39479 14.3047 11.1909 14.3047H14.4424V11.0532C14.4424 9.25774 15.8977 7.80173 17.6939 7.80173C19.4893 7.80173 20.9453 9.25774 20.9453 11.0532V14.3047H24.1968C25.9923 14.3047 27.4483 15.7607 27.4483 17.5562C27.4483 19.3516 25.9923 20.8076 24.1968 20.8076Z" fill="#0D257B"/>
</g>
<defs>
<clipPath id="clip0_6651_6131">
<rect width="35" height="34" fill="white" transform="translate(0.658203 0.556641)"/>
</clipPath>
</defs>
</svg>
