<svg width="17" height="16" viewBox="0 0 17 16" fill="none" xmlns="http://www.w3.org/2000/svg">
<path d="M14.0348 8.95256C13.4932 8.95256 12.9767 9.17483 12.601 9.56614L11.0827 8.92126C11.1861 8.61134 11.2424 8.28576 11.2455 7.95706C11.2424 6.19772 9.81802 4.77334 8.05868 4.77021C7.79259 4.77334 7.52962 4.81091 7.27292 4.87978L6.39951 3.32392C7.13831 2.51312 7.08196 1.25779 6.27116 0.518987C5.46036 -0.219812 4.20503 -0.163462 3.46623 0.647338C2.72743 1.45814 2.78378 2.71347 3.59458 3.45227C3.96085 3.78723 4.44295 3.97193 4.9407 3.97193C5.03774 3.9688 5.13166 3.95941 5.22557 3.94376L6.08333 5.47144C4.79356 6.47633 4.48678 8.30142 5.37897 9.66945L2.86518 12.1018C1.83837 11.6448 0.633127 12.1081 0.176074 13.138C-0.28098 14.168 0.182335 15.3701 1.21227 15.8271C2.24221 16.2842 3.44432 15.8209 3.90137 14.7909C4.15494 14.2181 4.13303 13.5607 3.83876 13.0097L6.30873 10.618C7.62041 11.4914 9.37662 11.2629 10.4222 10.0795L12.0626 10.7745C12.0595 10.8309 12.0469 10.8841 12.0469 10.9436C12.0469 12.0424 12.9391 12.9346 14.0379 12.9346C15.1367 12.9346 16.0289 12.0424 16.0289 10.9436C16.0289 9.84475 15.1336 8.95256 14.0348 8.95256Z" fill="#0D257B"/>
</svg>
