<svg width="24" height="25" viewBox="0 0 24 25" fill="none" xmlns="http://www.w3.org/2000/svg">
<path d="M21.8991 6.59817C21.6447 6.47436 21.3603 6.42563 21.0792 6.45768C20.7981 6.48974 20.532 6.60126 20.3121 6.77917L17.7491 8.82917V8.39017C17.8078 7.88351 17.7512 7.37013 17.5835 6.88844C17.4158 6.40674 17.1414 5.96919 16.7807 5.60853C16.42 5.24787 15.9825 4.97343 15.5008 4.80574C15.0191 4.63805 14.5057 4.58145 13.9991 4.64017H4.99906C4.4924 4.58145 3.97902 4.63805 3.49732 4.80574C3.01563 4.97343 2.57808 5.24787 2.21742 5.60853C1.85676 5.96919 1.58232 6.40674 1.41463 6.88844C1.24694 7.37013 1.19034 7.88351 1.24906 8.39017V16.3902C1.19034 16.8968 1.24694 17.4102 1.41463 17.8919C1.58232 18.3736 1.85676 18.8112 2.21742 19.1718C2.57808 19.5325 3.01563 19.8069 3.49732 19.9746C3.97902 20.1423 4.4924 20.1989 4.99906 20.1402H13.9991C14.5057 20.1989 15.0191 20.1423 15.5008 19.9746C15.9825 19.8069 16.42 19.5325 16.7807 19.1718C17.1414 18.8112 17.4158 18.3736 17.5835 17.8919C17.7512 17.4102 17.8078 16.8968 17.7491 16.3902V15.9512L20.3121 18.0012C20.5765 18.2148 20.9061 18.3312 21.2461 18.3312C21.4721 18.3308 21.6952 18.2799 21.8991 18.1822C22.1545 18.0605 22.3701 17.8687 22.5206 17.6291C22.6711 17.3896 22.7504 17.1121 22.7491 16.8292V7.95117C22.7504 7.66824 22.6711 7.39078 22.5206 7.1512C22.3701 6.91162 22.1545 6.71981 21.8991 6.59817ZM16.2491 16.3902C16.2491 17.9672 15.5761 18.6402 13.9991 18.6402H4.99906C3.42206 18.6402 2.74906 17.9672 2.74906 16.3902V8.39017C2.74906 6.81317 3.42206 6.14017 4.99906 6.14017H13.9991C15.5761 6.14017 16.2491 6.81317 16.2491 8.39017V16.3902ZM21.2491 16.8302L17.7491 14.0302V10.7502L21.2491 7.95017V16.8302Z" fill="#0D257B"/>
</svg>
