<svg width="31" height="28" viewBox="0 0 31 28" fill="none" xmlns="http://www.w3.org/2000/svg">
<path d="M26.9785 20.1973C26.9778 20.1971 26.9766 20.1965 26.9756 20.1963L26.9736 20.1953C26.976 20.1959 26.9777 20.197 26.9785 20.1973ZM27.5615 18.7383C27.5589 18.9003 27.4924 19.0553 27.377 19.1689C27.2614 19.2825 27.1054 19.3457 26.9434 19.3457C26.7815 19.3456 26.6262 19.2824 26.5107 19.1689C26.3953 19.0553 26.3288 18.9003 26.3262 18.7383V12.2676L26.3145 12.1953C26.2952 12.125 26.2549 12.0615 26.1992 12.0127C26.1252 11.9479 26.0289 11.915 25.9307 11.9209H17.0771V11.9199C16.7789 11.923 16.4853 11.8453 16.2285 11.6934C15.9713 11.5411 15.7609 11.3203 15.6201 11.0566L13.7021 7.43945L13.6357 7.35254C13.6098 7.327 13.5799 7.30499 13.5479 7.28711C13.4839 7.25151 13.4111 7.23414 13.3379 7.23633H2.53027C2.43267 7.23002 2.33666 7.26216 2.2627 7.32617C2.1905 7.3887 2.14504 7.47643 2.13574 7.57129V26.0244C2.14431 26.1202 2.1893 26.209 2.26172 26.2725C2.33589 26.3374 2.43282 26.3703 2.53125 26.3643H25.9307C26.0289 26.3701 26.1252 26.3372 26.1992 26.2725C26.2734 26.2075 26.3192 26.1159 26.3262 26.0176V20.8115C26.3261 20.6477 26.3913 20.4902 26.5068 20.374C26.6225 20.2579 26.7795 20.192 26.9434 20.1914C26.9532 20.1914 26.9619 20.1931 26.9678 20.1943H27.5703C27.9095 20.1946 28.2353 20.0607 28.4756 19.8213C28.7159 19.5818 28.8516 19.2563 28.8525 18.917V2.91699C28.8521 2.57718 28.7169 2.25103 28.4766 2.01074C28.2363 1.77046 27.9101 1.63615 27.5703 1.63574H7.10352L6.97754 1.6416C6.68533 1.67184 6.41095 1.80244 6.20215 2.0127C5.9636 2.253 5.83013 2.5784 5.83105 2.91699V4.5498C5.82824 4.71167 5.7619 4.86598 5.64648 4.97949C5.53096 5.09303 5.37486 5.15723 5.21289 5.15723C5.05107 5.15712 4.89569 5.09293 4.78027 4.97949C4.66482 4.86597 4.59852 4.7117 4.5957 4.5498V2.91699C4.59513 2.25127 4.85848 1.61244 5.32812 1.14062C5.79809 0.668681 6.43651 0.402509 7.10254 0.400391H27.5703C28.2376 0.401156 28.8777 0.665837 29.3496 1.1377C29.8215 1.60956 30.0861 2.24969 30.0869 2.91699V18.918C30.0853 19.5845 29.8195 20.2235 29.3477 20.6943C28.8758 21.165 28.2368 21.4296 27.5703 21.4297H27.5615V26.0273C27.552 26.4529 27.3735 26.8576 27.0664 27.1523C26.7596 27.4466 26.3488 27.6063 25.9238 27.5986V27.5996H2.53711V27.5986C2.11215 27.6062 1.70128 27.4466 1.39453 27.1523C1.08739 26.8576 0.909942 26.4529 0.900391 26.0273V7.56836C0.91065 7.14353 1.08845 6.74005 1.39551 6.44629C1.70224 6.15297 2.11283 5.99279 2.53711 6.00098H13.335C13.6329 5.997 13.9267 6.07452 14.1836 6.22559C14.4407 6.37682 14.6516 6.59574 14.793 6.8584V6.85938L16.71 10.4775H16.7109C16.7472 10.5417 16.8002 10.5953 16.8643 10.6318C16.9284 10.6684 17.0014 10.6871 17.0752 10.6855H25.9238C26.3488 10.6778 26.7596 10.8386 27.0664 11.1328C27.3736 11.4275 27.552 11.8322 27.5615 12.2578V18.7383Z" fill="#0D257B" stroke="black" stroke-width="0.2"/>
<path d="M26.1953 2.99072C26.3574 2.99313 26.5121 3.05892 26.626 3.17432C26.7398 3.28987 26.8037 3.44569 26.8037 3.60791C26.8037 3.77014 26.7398 3.92594 26.626 4.0415C26.5121 4.15694 26.3574 4.22269 26.1953 4.2251L26.1943 4.22607H8.79004V4.2251C8.62793 4.22269 8.47322 4.15693 8.35938 4.0415C8.24551 3.92594 8.18164 3.77014 8.18164 3.60791C8.18165 3.44569 8.24552 3.28987 8.35938 3.17432C8.47321 3.05893 8.62795 2.99313 8.79004 2.99072H26.1953Z" fill="#CC922F" stroke="#CC922F" stroke-width="0.2"/>
<path d="M26.1953 5.66479C26.3574 5.66725 26.5122 5.73291 26.626 5.84839C26.7398 5.96394 26.8037 6.11977 26.8037 6.28198C26.8037 6.44422 26.7398 6.60001 26.626 6.71558C26.5122 6.83109 26.3575 6.89672 26.1953 6.89917L26.1934 6.90015H17.001V6.89917C16.8389 6.89677 16.6842 6.831 16.5703 6.71558C16.4564 6.60001 16.3926 6.44422 16.3926 6.28198C16.3926 6.11977 16.4565 5.96394 16.5703 5.84839C16.6841 5.733 16.8389 5.6672 17.001 5.66479H26.1953Z" fill="#CC922F" stroke="#CC922F" stroke-width="0.2"/>
<path d="M26.1924 8.33887C26.3545 8.34127 26.5092 8.40705 26.623 8.52246C26.7369 8.63801 26.8008 8.79384 26.8008 8.95605C26.8008 9.11829 26.7369 9.27408 26.623 9.38965C26.5092 9.5051 26.3545 9.57084 26.1924 9.57324L26.1914 9.57422H19.9229V9.57324C19.7607 9.5709 19.6061 9.50514 19.4922 9.38965C19.3782 9.27407 19.3145 9.11836 19.3145 8.95605C19.3145 8.79377 19.3782 8.63803 19.4922 8.52246C19.6061 8.407 19.7607 8.3412 19.9229 8.33887H26.1924Z" fill="#CC922F" stroke="#CC922F" stroke-width="0.2"/>
<path d="M14.3574 12.7273C15.1722 12.7549 15.982 13.0218 16.5723 13.5251C17.1653 14.0311 17.5324 14.773 17.46 15.7341C17.4603 16.4421 17.3624 17.1471 17.168 17.8279L17.167 17.8289C17.0843 18.1073 16.975 18.3766 16.8438 18.6355C16.8517 18.6383 16.8601 18.6401 16.8682 18.6433L17.917 19.0564C18.6967 19.3596 19.3846 19.8598 19.9141 20.5076C20.4432 21.1551 20.7965 21.9286 20.9385 22.7527L20.96 22.9011C20.9943 23.2481 20.9167 23.5986 20.7363 23.9001C20.5302 24.2448 20.2037 24.5014 19.8203 24.6208H19.8193C18.5793 24.9831 17.3001 25.1965 16.0098 25.2576C15.8479 25.2655 15.6893 25.2102 15.5684 25.1023C15.4474 24.9943 15.3738 24.8432 15.3633 24.6814C15.3528 24.5195 15.4065 24.3597 15.5127 24.2371C15.6188 24.1145 15.769 24.039 15.9307 24.0261L15.9336 24.0251C17.1243 23.9702 18.3045 23.7743 19.4492 23.4421C19.5523 23.4078 19.6389 23.3347 19.6885 23.238C19.738 23.1411 19.7474 23.0284 19.7148 22.9246L19.7119 22.9128C19.5986 22.3078 19.3327 21.7419 18.9395 21.2683C18.5462 20.7947 18.0388 20.4293 17.4648 20.2068V20.2058L16.4131 19.7927C16.2993 19.7485 16.1824 19.7134 16.0635 19.6863C15.5635 20.1334 14.9181 20.3847 14.2461 20.3875C13.5646 20.3876 12.9088 20.1362 12.4004 19.6843C12.2829 19.7125 12.1673 19.7479 12.0547 19.7917L10.9951 20.2068C10.4129 20.4351 9.89934 20.8093 9.50391 21.2937C9.10836 21.7784 8.84426 22.357 8.7373 22.9734V22.9744C8.71951 23.0724 8.73677 23.1736 8.78711 23.2595C8.83695 23.3446 8.91588 23.4085 9.00879 23.4412C10.4023 23.8317 11.8389 24.0437 13.2842 24.071H13.9092C14.0713 24.0749 14.2251 24.143 14.3379 24.2595C14.4508 24.3762 14.5133 24.5327 14.5117 24.6951C14.5101 24.8573 14.445 25.0123 14.3301 25.1267C14.2149 25.2412 14.0589 25.3048 13.8965 25.3054C12.1206 25.3335 10.3499 25.1036 8.64062 24.6208L8.63672 24.6199C8.24534 24.4932 7.91501 24.2251 7.71094 23.8679C7.50682 23.5106 7.44345 23.0898 7.5332 22.6882H7.53418C7.68724 21.8784 8.04262 21.1199 8.56836 20.4851C9.0948 19.8495 9.77458 19.3585 10.543 19.0574L11.6006 18.6423C11.6081 18.6394 11.6157 18.6371 11.623 18.6345C11.5198 18.429 11.4289 18.2176 11.3555 17.9998L11.2773 17.7429C11.0763 17.0243 10.9827 16.2799 11 15.5339C11.0132 14.5609 11.4438 13.8412 12.0791 13.3748C12.7116 12.9104 13.5426 12.6997 14.3574 12.7273ZM14.2305 13.9607C14.0624 13.9635 13.5564 13.9919 13.0957 14.2039C12.8663 14.3095 12.6519 14.4587 12.4951 14.6697C12.3391 14.8797 12.2354 15.1564 12.2354 15.5242V15.5281C12.2023 16.3348 12.3489 17.2756 12.6865 17.9978C13.0251 18.7219 13.5399 19.1977 14.2354 19.1521H14.2461L14.375 19.1531C15.0074 19.1268 15.4674 18.6694 15.7754 18.0164C16.1032 17.3209 16.2434 16.4294 16.2256 15.7009V15.6931L16.2266 15.6853C16.3102 15.0739 16.0356 14.6465 15.627 14.3669C15.2133 14.084 14.6652 13.9565 14.2305 13.9607Z" fill="#CC922F" stroke="#CC922F" stroke-width="0.2"/>
<path d="M5.21038 11.7477C5.27836 11.7477 5.34569 11.7343 5.40851 11.7083C5.47133 11.6823 5.52841 11.6442 5.57648 11.5961C5.62456 11.5481 5.66269 11.491 5.68869 11.4282C5.71468 11.3653 5.72805 11.298 5.72801 11.23V10.4611H6.49687C6.63416 10.4611 6.76582 10.4066 6.86289 10.3095C6.95997 10.2125 7.0145 10.0808 7.0145 9.94351C7.0145 9.80623 6.95997 9.67456 6.86289 9.57749C6.76582 9.48041 6.63416 9.42588 6.49687 9.42588H5.72801V8.65704C5.72801 8.51975 5.67347 8.38809 5.5764 8.29102C5.47932 8.19394 5.34766 8.1394 5.21038 8.1394C5.07309 8.1394 4.94143 8.19394 4.84436 8.29102C4.74728 8.38809 4.69275 8.51975 4.69275 8.65704V9.42588H3.92388C3.7866 9.42588 3.65494 9.48041 3.55786 9.57749C3.46079 9.67456 3.40625 9.80623 3.40625 9.94351C3.40625 10.0808 3.46079 10.2125 3.55786 10.3095C3.65494 10.4066 3.7866 10.4611 3.92388 10.4611H4.69275V11.23C4.6927 11.298 4.70606 11.3653 4.73206 11.4281C4.75806 11.491 4.79619 11.548 4.84426 11.5961C4.89233 11.6442 4.94941 11.6823 5.01224 11.7083C5.07506 11.7343 5.14239 11.7477 5.21038 11.7477Z" fill="#0D257B"/>
</svg>
