<svg width="31" height="30" viewBox="0 0 31 30" fill="none" xmlns="http://www.w3.org/2000/svg">
<path d="M21.7939 10.4839C22.3221 10.4839 22.8292 10.6933 23.2021 11.0669C23.5756 11.4398 23.7851 11.9461 23.7852 12.4741V13.3569C25.9914 14.1681 27.5662 16.2876 27.5664 18.7759V22.5591C27.5665 22.851 27.8037 23.0874 28.0957 23.0874H28.0967C28.6248 23.0874 29.131 23.2978 29.5039 23.6714L29.6367 23.8169C29.927 24.1709 30.0869 24.6166 30.0869 25.0786C30.0869 25.5407 29.9271 25.9864 29.6367 26.3403L29.5039 26.4858C29.131 26.8594 28.6248 27.0688 28.0967 27.0688H24.9609C24.629 28.5119 23.3372 29.5903 21.7939 29.5903C20.2509 29.5901 18.9599 28.5117 18.6279 27.0688H15.4922C15.0301 27.0688 14.5844 26.909 14.2305 26.6187L14.085 26.4858C13.7114 26.1129 13.502 25.6067 13.502 25.0786C13.502 24.5505 13.7114 24.0443 14.085 23.6714C14.4579 23.2978 14.964 23.0874 15.4922 23.0874H15.4932C15.7851 23.0874 16.0224 22.851 16.0225 22.5591V18.7759C16.0226 16.2875 17.5975 14.168 19.8037 13.3569V12.4741C19.8037 11.9461 20.0133 11.4398 20.3867 11.0669C20.7596 10.6934 21.2659 10.484 21.7939 10.4839ZM20.1582 27.0688C20.4377 27.694 21.0659 28.1292 21.7939 28.1294C22.522 28.1294 23.1501 27.694 23.4297 27.0688H20.1582ZM21.7939 11.9438C21.6535 11.944 21.5187 11.9999 21.4199 12.0991H21.4189C21.3195 12.198 21.2647 12.3335 21.2646 12.4741V13.8931C21.2646 14.2259 21.0386 14.5175 20.7158 14.6001C18.8565 15.0786 17.4826 16.767 17.4824 18.7759V22.5591C17.4823 23.6579 16.592 24.5483 15.4932 24.5483H15.4922C15.3868 24.5483 15.2845 24.5797 15.1982 24.6372L15.1172 24.7036C15.0178 24.8025 14.9619 24.938 14.9619 25.0786C14.9619 25.184 14.9932 25.2863 15.0508 25.3726L15.1172 25.4536L15.1982 25.52C15.2845 25.5775 15.3868 25.6089 15.4922 25.6089H28.0967C28.2373 25.6089 28.3728 25.553 28.4717 25.4536L28.5381 25.3726C28.5956 25.2863 28.6269 25.184 28.627 25.0786C28.627 24.9733 28.5956 24.8709 28.5381 24.7847L28.4717 24.7036C28.3728 24.6042 28.2373 24.5484 28.0967 24.5483H28.0957C26.9969 24.5483 26.1056 23.6579 26.1055 22.5591V18.7759C26.1053 16.8298 24.8168 15.185 23.0459 14.6489L22.873 14.6001C22.5502 14.5175 22.3242 14.226 22.3242 13.8931V12.4741C22.3242 12.3687 22.293 12.2665 22.2354 12.1802L22.1689 12.0991C22.07 11.9997 21.9346 11.9438 21.7939 11.9438Z" fill="#0D257B" stroke="#0D257B" stroke-width="0.2"/>
<path d="M19.2764 0.400391C21.0716 0.400426 22.5273 1.85613 22.5273 3.65137V8.69238C22.5273 9.09549 22.2 9.42285 21.7969 9.42285C21.3939 9.42269 21.0674 9.09539 21.0674 8.69238V3.65137C21.0674 2.66235 20.2654 1.86039 19.2764 1.86035H4.15137C3.16233 1.86035 2.36035 2.66233 2.36035 3.65137V23.8184C2.36052 24.8073 3.16243 25.6084 4.15137 25.6084H11.9297C12.3328 25.6084 12.6601 25.9358 12.6602 26.3389C12.6602 26.742 12.3328 27.0693 11.9297 27.0693H4.15137C2.35622 27.0693 0.900564 25.6135 0.900391 23.8184V3.65137C0.900391 1.85611 2.35611 0.400391 4.15137 0.400391H19.2764Z" fill="#0D257B" stroke="#0D257B" stroke-width="0.2"/>
<path d="M17.6582 11.5906C18.0074 11.389 18.4544 11.509 18.6553 11.8582L18.7158 11.9929C18.823 12.3151 18.692 12.6789 18.3867 12.8552C16.3393 14.0342 14.962 16.2446 14.9619 18.7761C14.9619 19.1792 14.6346 19.5066 14.2314 19.5066C13.8285 19.5064 13.502 19.1791 13.502 18.7761C13.502 15.7033 15.1739 13.0213 17.6582 11.5906Z" fill="#CC922F" stroke="#CC922F" stroke-width="0.2"/>
<path d="M25.0215 11.738C25.2463 11.4841 25.6262 11.4143 25.9316 11.5906C28.416 13.0213 30.0888 15.7032 30.0889 18.7761C30.0889 19.1792 29.7615 19.5066 29.3584 19.5066C28.9553 19.5066 28.6279 19.1792 28.6279 18.7761C28.6279 16.4028 27.4175 14.3122 25.5791 13.0886L25.2031 12.8552C24.8543 12.6537 24.7339 12.2073 24.9355 11.8582L25.0215 11.738Z" fill="#CC922F" stroke="#CC922F" stroke-width="0.2"/>
<path fill-rule="evenodd" clip-rule="evenodd" d="M6.6719 4.28125C5.62826 4.28125 4.78125 5.12826 4.78125 6.1719C4.78125 7.21554 5.62826 8.06255 6.6719 8.06255C7.71554 8.06255 8.56255 7.21554 8.56255 6.1719C8.56255 5.12826 7.71554 4.28125 6.6719 4.28125ZM6.6719 5.54168C7.01978 5.54168 7.30212 5.82402 7.30212 6.1719C7.30212 6.51978 7.01978 6.80212 6.6719 6.80212C6.32402 6.80212 6.04168 6.51978 6.04168 6.1719C6.04168 5.82402 6.32402 5.54168 6.6719 5.54168Z" fill="#CC922F"/>
<path fill-rule="evenodd" clip-rule="evenodd" d="M6.6719 9.32373C5.62826 9.32373 4.78125 10.1707 4.78125 11.2144C4.78125 12.258 5.62826 13.105 6.6719 13.105C7.71554 13.105 8.56255 12.258 8.56255 11.2144C8.56255 10.1707 7.71554 9.32373 6.6719 9.32373ZM6.6719 10.5842C7.01978 10.5842 7.30212 10.8665 7.30212 11.2144C7.30212 11.5623 7.01978 11.8446 6.6719 11.8446C6.32402 11.8446 6.04168 11.5623 6.04168 11.2144C6.04168 10.8665 6.32402 10.5842 6.6719 10.5842Z" fill="#CC922F"/>
<path fill-rule="evenodd" clip-rule="evenodd" d="M6.6719 14.3643C5.62826 14.3643 4.78125 15.2113 4.78125 16.2549C4.78125 17.2985 5.62826 18.1456 6.6719 18.1456C7.71554 18.1456 8.56255 17.2985 8.56255 16.2549C8.56255 15.2113 7.71554 14.3643 6.6719 14.3643ZM6.6719 15.6247C7.01978 15.6247 7.30212 15.907 7.30212 16.2549C7.30212 16.6028 7.01978 16.8851 6.6719 16.8851C6.32402 16.8851 6.04168 16.6028 6.04168 16.2549C6.04168 15.907 6.32402 15.6247 6.6719 15.6247Z" fill="#CC922F"/>
<path fill-rule="evenodd" clip-rule="evenodd" d="M6.6719 19.4067C5.62826 19.4067 4.78125 20.2538 4.78125 21.2974C4.78125 22.341 5.62826 23.188 6.6719 23.188C7.71554 23.188 8.56255 22.341 8.56255 21.2974C8.56255 20.2538 7.71554 19.4067 6.6719 19.4067ZM6.6719 20.6672C7.01978 20.6672 7.30212 20.9495 7.30212 21.2974C7.30212 21.6453 7.01978 21.9276 6.6719 21.9276C6.32402 21.9276 6.04168 21.6453 6.04168 21.2974C6.04168 20.9495 6.32402 20.6672 6.6719 20.6672Z" fill="#CC922F"/>
<path d="M18.0225 5.44214C18.4255 5.44214 18.7527 5.76868 18.7529 6.17163C18.7529 6.57474 18.4256 6.9021 18.0225 6.9021H10.4502C10.0472 6.90192 9.7207 6.57463 9.7207 6.17163C9.72088 5.76879 10.0474 5.44232 10.4502 5.44214H18.0225Z" fill="#0D257B" stroke="#0D257B" stroke-width="0.2"/>
<path d="M15.4922 10.4834C15.8952 10.4834 16.2225 10.8099 16.2227 11.2129C16.2227 11.616 15.8953 11.9434 15.4922 11.9434H10.4502C10.0472 11.9432 9.7207 11.6159 9.7207 11.2129C9.72088 10.81 10.0474 10.4836 10.4502 10.4834H15.4922Z" fill="#0D257B" stroke="#0D257B" stroke-width="0.2"/>
<path d="M12.3408 15.5256C12.7438 15.5256 13.0711 15.8522 13.0713 16.2551C13.0713 16.6582 12.7439 16.9856 12.3408 16.9856H10.4502C10.0472 16.9854 9.7207 16.6581 9.7207 16.2551C9.72088 15.8523 10.0474 15.5258 10.4502 15.5256H12.3408Z" fill="#0D257B" stroke="#0D257B" stroke-width="0.2"/>
<path d="M14.2314 20.5684C14.6344 20.5684 14.9617 20.8949 14.9619 21.2979C14.9619 21.701 14.6346 22.0283 14.2314 22.0283H10.4502C10.0472 22.0281 9.7207 21.7008 9.7207 21.2979C9.72088 20.895 10.0474 20.5685 10.4502 20.5684H14.2314Z" fill="#0D257B" stroke="#0D257B" stroke-width="0.2"/>
</svg>
