<svg width="31" height="31" viewBox="0 0 31 31" fill="none" xmlns="http://www.w3.org/2000/svg">
<path d="M13.9014 0.852539C16.6899 0.801468 19.4239 1.62859 21.7158 3.21777C24.0078 4.807 25.741 7.07759 26.6709 9.70703C27.6007 12.3364 27.6797 15.1915 26.8965 17.8682C26.8517 18.0217 26.7476 18.1516 26.6074 18.2285C26.4674 18.3052 26.3027 18.323 26.1494 18.2783C25.9959 18.2335 25.866 18.1295 25.7891 17.9893C25.7512 17.92 25.7274 17.8441 25.7188 17.7656C25.7102 17.687 25.7172 17.6072 25.7393 17.5312V17.5303C26.3436 15.4706 26.3878 13.2868 25.8682 11.2041C25.3485 9.12148 24.2833 7.21498 22.7822 5.68066C21.281 4.14627 19.398 3.03973 17.3271 2.47461C15.2564 1.90954 13.0724 1.90571 11 2.46484C8.92749 3.02404 7.04171 4.12614 5.53613 5.65625C4.03056 7.18636 2.95921 9.08963 2.43359 11.1709C1.90803 13.252 1.94651 15.4357 2.54492 17.4971C3.11571 19.463 4.17722 21.2497 5.62598 22.6914C5.86435 21.1072 6.54035 19.6184 7.5791 18.3936C8.60913 17.1791 9.95355 16.2749 11.4619 15.7783C10.6146 15.2455 9.94172 14.4721 9.53516 13.5518C9.08197 12.5257 8.98446 11.3779 9.25781 10.29C9.53132 9.20201 10.1602 8.23574 11.0449 7.5459C11.9296 6.85609 13.0197 6.48145 14.1416 6.48145C15.2632 6.4815 16.3527 6.85629 17.2373 7.5459C18.122 8.23574 18.7519 9.20201 19.0254 10.29C19.2987 11.3779 19.2003 12.5257 18.7471 13.5518C18.3406 14.4719 17.6684 15.2456 16.8213 15.7783C18.6546 16.377 20.2376 17.5759 21.3105 19.1865C21.3543 19.2523 21.385 19.3259 21.4004 19.4033C21.4157 19.481 21.4149 19.5611 21.3994 19.6387C21.3839 19.7164 21.3536 19.7906 21.3096 19.8564C21.2655 19.9222 21.2085 19.9785 21.1426 20.0225C21.0768 20.0663 21.0033 20.0969 20.9258 20.1123C20.8482 20.1277 20.768 20.1278 20.6904 20.1123C20.6127 20.0968 20.5385 20.0656 20.4727 20.0215C20.407 19.9775 20.3505 19.9212 20.3066 19.8555C19.4356 18.5468 18.1701 17.5486 16.6943 17.0068C15.2187 16.4652 13.6084 16.4076 12.0977 16.8418C10.5869 17.2761 9.25386 18.1803 8.29102 19.4229C7.34362 20.6455 6.8035 22.1334 6.74512 23.6777C8.31307 24.8951 10.1569 25.7077 12.1143 26.043C14.0964 26.3824 16.1318 26.2216 18.0361 25.5752C18.1876 25.5236 18.3535 25.5349 18.4971 25.6055C18.6405 25.6761 18.7501 25.8008 18.8018 25.9521C18.8533 26.1035 18.843 26.2696 18.7725 26.4131C18.7018 26.5567 18.5763 26.6662 18.4248 26.7178C17.0455 27.1866 15.5984 27.4255 14.1416 27.4238C11.3526 27.4231 8.63412 26.5446 6.37207 24.9131C4.11005 23.2816 2.41896 20.9793 1.53809 18.333C0.657295 15.6868 0.631017 12.8306 1.46387 10.1689C2.29678 7.50719 3.94653 5.17507 6.17871 3.50293C8.41091 1.83079 11.1128 0.903638 13.9014 0.852539ZM14.8867 7.75977C14.144 7.6124 13.3742 7.68857 12.6748 7.97852C11.9751 8.2687 11.3766 8.76057 10.9561 9.39062C10.5356 10.0206 10.3111 10.7612 10.3115 11.5186C10.3133 12.5334 10.7177 13.5062 11.4355 14.2236C12.1534 14.9411 13.1266 15.3446 14.1416 15.3457C14.899 15.3457 15.6398 15.121 16.2695 14.7002C16.8992 14.2793 17.3899 13.6812 17.6797 12.9814C17.9694 12.2816 18.0453 11.5114 17.8975 10.7686C17.7495 10.0257 17.3844 9.34309 16.8486 8.80762C16.3128 8.27213 15.6297 7.90728 14.8867 7.75977Z" fill="#0D257B" stroke="#0D257B" stroke-width="0.3"/>
<path d="M24.7881 22.1143C25.2469 22.1143 25.6957 22.25 26.0771 22.5049C26.4586 22.7598 26.756 23.1221 26.9316 23.5459C27.1072 23.9698 27.153 24.4367 27.0635 24.8867C26.9739 25.3367 26.7531 25.7498 26.4287 26.0742C26.1043 26.3986 25.6911 26.6194 25.2412 26.709C24.7912 26.7985 24.3243 26.7527 23.9004 26.5771C23.4766 26.4015 23.1143 26.1041 22.8594 25.7227C22.6045 25.3412 22.4688 24.8924 22.4688 24.4336C22.4688 23.8184 22.7125 23.228 23.1475 22.793C23.5825 22.358 24.1729 22.1143 24.7881 22.1143ZM24.7881 23.1299C24.5303 23.1299 24.2778 23.2064 24.0635 23.3496C23.8493 23.4928 23.6827 23.6966 23.584 23.9346C23.4853 24.1728 23.4595 24.4355 23.5098 24.6885C23.5601 24.9413 23.6839 25.1741 23.8662 25.3564C24.0486 25.5387 24.2813 25.6626 24.5342 25.7129C24.787 25.7631 25.049 25.7373 25.2871 25.6387C25.5254 25.54 25.7298 25.3726 25.873 25.1582C26.0162 24.9438 26.0928 24.6914 26.0928 24.4336C26.0927 24.0879 25.9553 23.7562 25.7109 23.5117C25.4664 23.2672 25.1339 23.1299 24.7881 23.1299Z" fill="#CC922F" stroke="#CC922F" stroke-width="0.11"/>
<path d="M23.9434 18.884C24.5042 18.7997 25.0749 18.7997 25.6357 18.884C25.7295 18.8981 25.8175 18.9388 25.8896 19.0002C25.9618 19.0617 26.0151 19.1423 26.0439 19.2327L26.3613 20.2473C26.8209 20.4207 27.249 20.6674 27.6289 20.9788L28.6641 20.7581L28.7344 20.7473C28.8048 20.7416 28.8761 20.7511 28.9434 20.7747C29.033 20.8061 29.1124 20.8617 29.1719 20.9358C29.5276 21.3794 29.8138 21.8748 30.0205 22.4045C30.055 22.493 30.0643 22.5895 30.0469 22.6829C30.0294 22.7763 29.9852 22.8629 29.9209 22.9329L29.2051 23.7151C29.2859 24.1994 29.2857 24.6936 29.2051 25.178L29.9209 25.9612C29.9851 26.0311 30.0293 26.1179 30.0469 26.2112C30.0644 26.3044 30.0549 26.4011 30.0205 26.4895C29.8139 27.0192 29.5276 27.5147 29.1719 27.9583C29.1124 28.0325 29.0331 28.0889 28.9434 28.1204C28.8761 28.1439 28.8048 28.1524 28.7344 28.1467L28.6641 28.136L27.6299 27.9143C27.2499 28.2269 26.8215 28.4745 26.3613 28.6487L26.0439 29.6594C26.0151 29.7497 25.9618 29.8304 25.8896 29.8918C25.8175 29.9533 25.7295 29.994 25.6357 30.0081C25.0749 30.0928 24.5042 30.0928 23.9434 30.0081C23.8492 29.9938 23.7608 29.9528 23.6885 29.8909C23.6162 29.8289 23.5627 29.7483 23.5342 29.6575L23.2158 28.6467C22.756 28.4726 22.3279 28.2248 21.9482 27.9124L20.9141 28.134C20.8214 28.1548 20.7244 28.1488 20.6348 28.1174C20.5451 28.086 20.4657 28.0304 20.4062 27.9563C20.0505 27.5127 19.7643 27.0173 19.5576 26.4875C19.5231 26.3991 19.5147 26.3026 19.5322 26.2092C19.5498 26.1159 19.593 26.0292 19.6572 25.9592L20.3721 25.176C20.2915 24.6918 20.2914 24.1974 20.3721 23.7131L19.6572 22.9309C19.593 22.861 19.5498 22.7742 19.5322 22.6809C19.5147 22.5876 19.5231 22.491 19.5576 22.4026C19.7643 21.8729 20.0505 21.3774 20.4062 20.9338C20.4658 20.8596 20.545 20.8032 20.6348 20.7717C20.7244 20.7403 20.8214 20.7353 20.9141 20.7561L21.9482 20.9768C22.3281 20.6653 22.7562 20.4178 23.2158 20.2444L23.5342 19.2346C23.5627 19.1439 23.6163 19.0631 23.6885 19.0012C23.7608 18.9393 23.8493 18.8982 23.9434 18.884ZM25.1758 19.8518C24.919 19.8306 24.6611 19.8306 24.4043 19.8518L24.1055 20.7991C24.0807 20.8775 24.0369 20.9491 23.9785 21.0071C23.9202 21.0648 23.8489 21.1079 23.7705 21.1321C23.3344 21.267 22.9295 21.486 22.5791 21.7766L22.4326 21.9055C22.3726 21.9614 22.2998 22.002 22.2207 22.0237C22.1811 22.0345 22.1403 22.0402 22.0996 22.0413L21.9775 22.0295L21.0146 21.8108C20.8673 22.0219 20.7379 22.245 20.6279 22.4778L21.2939 23.2053L21.3652 23.3049C21.3845 23.3405 21.3988 23.3788 21.4092 23.4182C21.43 23.4974 21.4323 23.5806 21.4141 23.6604H21.4131C21.2963 24.1686 21.2963 24.6971 21.4131 25.2053C21.4317 25.2854 21.4309 25.3689 21.4102 25.4485C21.3893 25.528 21.3493 25.6016 21.2939 25.6624L20.6279 26.3889C20.7377 26.6213 20.8666 26.8442 21.0137 27.0549L21.9775 26.8372C22.0577 26.8196 22.1415 26.8223 22.2207 26.844C22.2998 26.8657 22.3726 26.9063 22.4326 26.9622C22.8148 27.3171 23.2723 27.5814 23.7705 27.7356L23.8818 27.7854C23.9169 27.8064 23.9493 27.8316 23.9785 27.8606C24.0369 27.9186 24.0807 27.9901 24.1055 28.0686L24.4014 29.0081C24.6582 29.0295 24.9161 29.0294 25.1729 29.0081L25.4707 28.0686C25.4954 27.9902 25.5384 27.9185 25.5967 27.8606C25.655 27.8027 25.7271 27.7598 25.8057 27.7356L25.9902 27.6731C26.417 27.5143 26.809 27.2729 27.1436 26.9622C27.2036 26.9062 27.2763 26.8657 27.3555 26.844C27.4345 26.8224 27.5176 26.8197 27.5977 26.8372H27.5986L28.5605 27.0549C28.7078 26.844 28.8374 26.6215 28.9473 26.3889L28.2822 25.6624C28.2268 25.6016 28.1868 25.528 28.166 25.4485C28.1453 25.369 28.1436 25.2854 28.1621 25.2053C28.2789 24.697 28.2789 24.1687 28.1621 23.6604C28.1439 23.5807 28.1453 23.4973 28.166 23.4182C28.1868 23.3392 28.2263 23.2658 28.2812 23.2053L28.9375 22.47C28.8274 22.2369 28.6984 22.0134 28.5508 21.802L27.5996 22.0178L27.6006 22.0208C27.5206 22.0386 27.4375 22.0371 27.3584 22.0159C27.2792 21.9946 27.2058 21.9542 27.1455 21.8987C26.7634 21.5437 26.3059 21.2794 25.8076 21.1252C25.7292 21.1011 25.6579 21.058 25.5996 21.0002C25.5412 20.9423 25.4974 20.8707 25.4727 20.7922L25.1758 19.8518Z" fill="#CC922F" stroke="#CC922F" stroke-width="0.11"/>
</svg>
