<svg width="26" height="18" viewBox="0 0 26 18" fill="none" xmlns="http://www.w3.org/2000/svg">
<path d="M8.51144 6.196C8.40444 5.732 8.10844 5.31 7.66944 5.126C7.46344 5.04 7.25644 5 7.05644 5C6.36744 5 5.76944 5.475 5.61344 6.147L4.13844 12.399C4.06644 12.706 4.29844 13 4.61444 13C4.84044 13 5.03644 12.845 5.08944 12.625L5.47844 11H8.59344L8.96744 12.621C9.01844 12.843 9.21644 13 9.44344 13H9.45544C9.76944 13 10.0014 12.708 9.93144 12.402L8.50944 6.196H8.51144ZM5.71844 10L6.58744 6.373C6.63844 6.154 6.83144 6 7.05644 6C7.12944 6 7.20544 6.016 7.28244 6.049C7.39344 6.095 7.49544 6.246 7.53544 6.42L8.36244 10H5.71844ZM20.5234 1H5.52344C3.04144 1 1.02344 3.019 1.02344 5.5V12.5C1.02344 14.981 3.04244 17 5.52344 17H20.5234C23.0044 17 25.0234 14.981 25.0234 12.5V5.5C25.0234 3.019 23.0044 1 20.5234 1ZM2.02344 12.5V5.5C2.02344 3.57 3.59344 2 5.52344 2H12.5234V16H5.52344C3.59344 16 2.02344 14.43 2.02344 12.5ZM24.0234 12.5C24.0234 14.43 22.4534 16 20.5234 16H13.5234V2H20.5234C22.4534 2 24.0234 3.57 24.0234 5.5V12.5ZM23.0234 6.491V6.509C23.0234 6.78 22.8034 7 22.5324 7H21.9864C21.8794 7.917 21.4694 9.904 19.9014 11.341C20.6024 11.695 21.4754 11.936 22.5594 11.989C22.8194 12.002 23.0234 12.218 23.0234 12.479V12.497C23.0234 12.778 22.7884 13.002 22.5074 12.988C21.0384 12.917 19.9024 12.54 19.0234 12.002C18.1444 12.54 17.0084 12.917 15.5394 12.988C15.2594 13.002 15.0234 12.778 15.0234 12.497V12.479C15.0234 12.219 15.2274 12.002 15.4874 11.989C16.5724 11.935 17.4444 11.694 18.1464 11.341C17.6064 10.846 17.2034 10.286 16.9034 9.727C16.7274 9.398 16.9624 9 17.3354 9C17.5164 9 17.6804 9.1 17.7674 9.259C18.0584 9.793 18.4624 10.325 19.0244 10.778C20.4984 9.593 20.8864 7.853 20.9884 7.001H15.5154C15.2444 7.001 15.0244 6.781 15.0244 6.51V6.492C15.0244 6.221 15.2444 6.001 15.5154 6.001H18.5244V5.492C18.5244 5.221 18.7444 5.001 19.0154 5.001H19.0334C19.3044 5.001 19.5244 5.221 19.5244 5.492V6.001H22.5334C22.8044 6.001 23.0244 6.221 23.0244 6.492L23.0234 6.491Z" fill="#323232" stroke="#323232" stroke-width="0.4"/>
</svg>
