<svg width="43" height="54" viewBox="0 0 43 54" fill="none" xmlns="http://www.w3.org/2000/svg">
<path d="M23.6063 2.61457C25.5302 1.38114 28.098 2.06924 29.1474 4.09922C29.4883 4.75869 30.0113 5.30653 30.6542 5.67772C31.2971 6.04892 32.033 6.2279 32.7746 6.19343C35.0575 6.08723 36.9372 7.96701 36.831 10.2498C36.7965 10.9914 36.9755 11.7273 37.3467 12.3702C37.7178 13.0131 38.2657 13.5361 38.9251 13.877C40.9552 14.9264 41.6432 17.4942 40.4099 19.4181C40.0092 20.0431 39.7962 20.7699 39.7962 21.5123C39.7962 22.2547 40.0092 22.9815 40.4099 23.6064C41.6432 25.5302 40.9552 28.0981 38.9251 29.1475C38.2657 29.4884 37.7178 30.0113 37.3467 30.6543C36.9755 31.2972 36.7965 32.0331 36.831 32.7746C36.9372 35.0575 35.0575 36.9372 32.7746 36.831C32.033 36.7966 31.2971 36.9756 30.6542 37.3467C30.0113 37.7179 29.4883 38.2658 29.1474 38.9252C28.098 40.9552 25.5302 41.6433 23.6063 40.4099C22.9814 40.0092 22.2546 39.7962 21.5122 39.7962C20.7698 39.7962 20.043 40.0092 19.418 40.4099C17.4941 41.6433 14.9264 40.9552 13.877 38.9252C13.536 38.2658 13.0131 37.7179 12.3702 37.3467C11.7272 36.9755 10.9913 36.7966 10.2497 36.831C7.9669 36.9372 6.08713 35.0575 6.19333 32.7746C6.22783 32.0331 6.04888 31.2972 5.6777 30.6543C5.30651 30.0113 4.75869 29.4884 4.09922 29.1475C2.06914 28.0981 1.38113 25.5302 2.61446 23.6064C3.01514 22.9815 3.22812 22.2547 3.22812 21.5123C3.22812 20.7699 3.01514 20.0431 2.61446 19.4181C1.38113 17.4942 2.06914 14.9264 4.09922 13.877C4.75869 13.5361 5.30651 13.0131 5.6777 12.3702C6.04888 11.7273 6.22783 10.9914 6.19333 10.2498C6.08713 7.96701 7.9669 6.08723 10.2497 6.19343C10.9913 6.22791 11.7272 6.04894 12.3702 5.67774C13.0131 5.30654 13.536 4.7587 13.877 4.09922C14.9264 2.06924 17.4941 1.38114 19.418 2.61457C20.043 3.01525 20.7698 3.22823 21.5122 3.22823C22.2546 3.22823 22.9814 3.01525 23.6063 2.61457Z" stroke="white" stroke-width="2.2" stroke-miterlimit="10" stroke-linecap="round" stroke-linejoin="round"/>
<path d="M18.331 19.3627C18.331 19.1308 18.2389 18.9084 18.0749 18.7445C17.9109 18.5805 17.6885 18.4884 17.4566 18.4884H14.4486C14.2167 18.4884 13.9943 18.5805 13.8303 18.7445C13.6663 18.9084 13.5742 19.1308 13.5742 19.3627V27.6871C13.5742 27.919 13.6663 28.1414 13.8303 28.3054C13.9943 28.4694 14.2167 28.5615 14.4486 28.5615H17.4566C17.5715 28.5615 17.6852 28.5389 17.7913 28.495C17.8973 28.451 17.9937 28.3866 18.0749 28.3054C18.1561 28.2242 18.2205 28.1278 18.2645 28.0217C18.3084 27.9157 18.331 27.802 18.331 27.6871V19.3627Z" stroke="#CC922F" stroke-width="2.2" stroke-miterlimit="10" stroke-linecap="round" stroke-linejoin="round"/>
<path d="M18.3008 19.1506L18.9221 18.7558C20.2919 17.8854 21.4381 16.7056 22.2687 15.3114C22.4756 14.9641 22.7971 14.6998 23.1779 14.564C23.5586 14.4283 23.9748 14.4296 24.3547 14.5677C25.2439 14.8908 25.7109 15.866 25.4056 16.7614L24.431 19.6182" stroke="#CC922F" stroke-width="2.2" stroke-miterlimit="10" stroke-linecap="round" stroke-linejoin="round"/>
<path d="M18.332 27.4813C19.4083 28.1862 20.6669 28.5616 21.9535 28.5615H27.1647C28.4267 28.5615 29.4498 27.5385 29.4498 26.2765V21.9036C29.4498 20.6416 28.4267 19.6184 27.1647 19.6184H23.891" stroke="#CC922F" stroke-width="2.2" stroke-miterlimit="10" stroke-linecap="round" stroke-linejoin="round"/>
<path d="M31.2827 37.2074L37.0067 47.122L30.3432 45.3364L28.5578 52L21.5117 39.7958" stroke="white" stroke-width="2.60163" stroke-miterlimit="10" stroke-linecap="round" stroke-linejoin="round"/>
<path d="M11.7397 37.2074L6.01562 47.122L12.6791 45.3364L14.4646 52L21.5106 39.7958" stroke="white" stroke-width="2.60163" stroke-miterlimit="10" stroke-linecap="round" stroke-linejoin="round"/>
<path d="M8.93046 15.3111C8.00708 17.1809 7.48828 19.2862 7.48828 21.5127C7.48828 29.2581 13.7671 35.5371 21.5127 35.5371C29.2581 35.5371 35.5371 29.2581 35.5371 21.5127C35.5371 13.7674 29.2581 7.48833 21.5127 7.48833C19.2861 7.48833 17.1808 8.00723 15.3109 8.9306" stroke="#CC922F" stroke-width="2.2" stroke-miterlimit="10" stroke-linecap="round" stroke-linejoin="round"/>
</svg>
