<svg width="35" height="35" viewBox="0 0 35 35" fill="none" xmlns="http://www.w3.org/2000/svg">
<g clip-path="url(#clip0_6651_6136)">
<path d="M20.5541 16.4919C20.5541 18.212 19.1592 19.6062 17.4392 19.6062C15.7191 19.6062 14.3242 18.212 14.3242 16.4919C14.3242 14.7718 15.7191 13.377 17.4392 13.377C19.1592 13.377 20.5541 14.7718 20.5541 16.4919Z" fill="#0D257B"/>
<path d="M17.4341 1.5C8.27602 1.5 0.851562 8.92446 0.851562 18.0825C0.851562 27.2406 8.27602 34.665 17.4341 34.665C26.5921 34.665 34.0166 27.2406 34.0166 18.0825C34.0166 8.92446 26.5921 1.5 17.4341 1.5ZM20.5999 25.8174C20.361 26.1452 20.0725 26.4337 19.7453 26.6726C17.9963 27.949 15.5446 27.5664 14.2683 25.8174C11.2119 21.6425 9.66252 18.5108 9.66252 16.5093C9.66767 12.2197 13.1439 8.74286 17.4341 8.73835C21.7243 8.74286 25.2005 12.2197 25.2057 16.5093C25.2057 18.5108 23.6562 21.6425 20.5999 25.8174Z" fill="#0D257B"/>
</g>
<defs>
<clipPath id="clip0_6651_6136">
<rect width="34" height="35" fill="white" transform="translate(0.644531)"/>
</clipPath>
</defs>
</svg>
