<svg width="728" height="308" viewBox="0 0 728 308" fill="none" xmlns="http://www.w3.org/2000/svg">
<rect width="728" height="307.861" rx="21.7313" fill="white"/>
<path d="M77.5192 57.7856H78.5531C82.1427 57.8645 85.6738 59.3236 88.2099 61.9065C87.2735 62.8727 86.3176 63.7994 85.4007 64.7655C83.9765 63.4642 82.2598 62.4586 80.3869 62.1037C77.6167 61.5122 74.6319 62.0446 72.3103 63.6416C69.7742 65.3176 68.0574 68.1569 67.6868 71.1933C67.2771 74.1903 68.116 77.3451 70.0473 79.6717C71.9007 81.9392 74.7294 83.3588 77.6557 83.4574C80.3869 83.6151 83.2352 82.7673 85.2251 80.835C86.7858 79.4745 87.5076 77.4042 87.7417 75.3931C84.5033 75.3931 81.2648 75.4128 78.0264 75.3931V71.3313H91.663C92.3653 75.6888 91.3508 80.5984 88.0734 83.7137C85.8884 85.922 82.8645 87.2234 79.7822 87.4797C76.7973 87.7755 73.715 87.2037 71.0618 85.7446C67.8819 84.0292 65.3457 81.1308 64.0972 77.7197C62.9267 74.5847 62.9072 71.0356 63.9996 67.8808C64.9946 65.0021 66.9064 62.4586 69.3645 60.6841C71.7251 58.9292 74.5929 57.9631 77.5192 57.7856Z" fill="#767494"/>
<path d="M155.75 58.811H159.925V86.9671C158.54 86.9671 157.135 86.9868 155.75 86.9474C155.77 77.5817 155.75 68.1964 155.75 58.811Z" fill="#767494"/>
<path d="M100.948 68.5709C103.523 68.078 106.312 68.6301 108.439 70.1877C110.37 71.5679 111.716 73.7368 112.126 76.1028C112.653 78.8435 111.989 81.8405 110.234 84.0093C108.341 86.4345 105.239 87.7358 102.216 87.5387C99.4454 87.3809 96.7532 85.981 95.1144 83.6939C93.2611 81.1701 92.8124 77.6999 93.8269 74.7423C94.8413 71.5679 97.7091 69.1427 100.948 68.5709ZM101.533 72.3171C100.479 72.5932 99.5039 73.2044 98.8016 74.0719C96.9092 76.3591 97.0263 80.0856 99.1137 82.2151C100.304 83.4375 102.099 84.0093 103.757 83.6741C105.298 83.3981 106.644 82.3531 107.385 80.9729C108.673 78.6266 108.302 75.393 106.332 73.5593C105.064 72.3763 103.211 71.8834 101.533 72.3171Z" fill="#767494"/>
<path d="M121.627 68.5709C124.573 67.9991 127.792 68.8272 129.996 70.9172C133.586 74.1706 133.976 80.2632 130.913 84.0095C129.06 86.3755 126.055 87.6769 123.09 87.5388C120.261 87.46 117.472 86.0403 115.794 83.694C113.902 81.111 113.492 77.5619 114.565 74.5452C115.638 71.4693 118.447 69.123 121.627 68.5709ZM122.212 72.3172C121.159 72.5932 120.183 73.2044 119.481 74.0523C117.608 76.3 117.686 79.9674 119.696 82.1166C120.886 83.3982 122.739 84.0292 124.456 83.6743C125.977 83.3785 127.343 82.3532 128.084 80.973C129.352 78.6069 128.982 75.3733 126.992 73.5396C125.724 72.3566 123.87 71.8834 122.212 72.3172Z" fill="#767494"/>
<path d="M139.166 69.7146C141.41 68.295 144.395 67.9006 146.814 69.1231C147.575 69.4583 148.199 70.0301 148.804 70.6019C148.823 70.0695 148.804 69.5174 148.823 68.9654C150.13 68.9851 151.437 68.9654 152.764 68.9851V86.3756C152.744 88.998 152.081 91.7781 150.208 93.6906C148.16 95.8004 145.019 96.451 142.19 96.0173C139.166 95.5638 136.533 93.3357 135.362 90.5162C136.533 89.9444 137.762 89.4909 138.971 88.9585C139.654 90.5753 141.039 91.9555 142.775 92.271C144.512 92.5865 146.521 92.1527 147.653 90.6936C148.862 89.1951 148.862 87.1446 148.804 85.3109C147.906 86.1981 146.872 86.9868 145.624 87.2826C142.912 88.0515 139.927 87.1051 137.84 85.2517C135.733 83.3983 134.484 80.5393 134.601 77.7C134.66 74.4862 136.455 71.3906 139.166 69.7146ZM143.205 72.2384C142.015 72.4356 140.903 73.106 140.142 74.0327C138.308 76.241 138.308 79.7703 140.161 81.9392C141.215 83.2208 142.912 83.9307 144.551 83.7532C146.092 83.5955 147.516 82.6096 148.277 81.2491C149.564 78.9422 149.35 75.8072 147.614 73.7961C146.541 72.5539 144.824 71.9426 143.205 72.2384Z" fill="#767494"/>
<path d="M164.934 70.7203C167.276 68.512 170.885 67.7627 173.889 68.926C176.737 70.0105 178.552 72.7512 179.468 75.5707C175.235 77.3452 171.021 79.1001 166.788 80.8746C167.373 81.9985 168.27 83.0238 169.48 83.4378C171.177 84.0491 173.206 83.8322 174.63 82.6886C175.196 82.2548 175.645 81.683 176.074 81.1309C177.147 81.8605 178.22 82.5703 179.293 83.2998C177.771 85.6067 175.216 87.2235 172.465 87.4799C169.421 87.8545 166.183 86.6715 164.213 84.266C160.974 80.4803 161.286 74.1314 164.934 70.7203ZM167.022 74.368C166.359 75.3341 166.085 76.5171 166.105 77.6804C168.934 76.4974 171.763 75.3144 174.591 74.1116C174.123 73.0075 172.992 72.3371 171.841 72.1596C169.987 71.8244 168.056 72.83 167.022 74.368Z" fill="#767494"/>
<path d="M301.856 90.4559H296.493V76.9444H292.84V72.5454H296.493V69.4151C296.493 65.7057 298.109 63.0454 303.457 63.0454C304.588 63.0454 306.364 63.2758 306.364 63.2758V67.3606H304.499C302.598 67.3606 301.856 67.9449 301.856 69.5602V72.5454H306.293L305.898 76.9444H301.856L301.856 90.4559ZM314.161 72.1938C314.083 72.1938 314.002 72.1967 313.923 72.1987C308.95 72.1987 306.675 75.9791 306.675 81.3455C306.675 88.1057 309.626 90.8114 313.961 90.8114C316.442 90.8114 318.072 89.7561 319.062 87.787V90.4578H324.163V72.5472H319.062V75.3016C318.253 73.5295 316.578 72.2148 314.161 72.1938ZM315.458 76.426C317.546 76.426 318.8 77.8984 318.8 80.4028L318.805 82.9607C318.805 84.6487 317.769 86.6234 315.458 86.6234C311.904 86.6234 311.999 82.7452 311.999 81.4535C311.999 77.1085 313.892 76.426 315.458 76.426ZM326.223 81.5034C326.223 79.327 326.12 72.2055 335.3 72.2055C338.985 72.2055 340.524 73.3897 340.524 73.3897L339.287 77.2666C339.287 77.2666 337.75 76.4114 335.748 76.4114C333.183 76.4114 331.547 77.9141 331.547 80.558L331.549 82.4538C331.549 84.9943 333.128 86.6902 335.753 86.6902C337.577 86.6902 339.259 85.8269 339.259 85.8269L340.492 89.6228C340.492 89.6228 339.085 90.8145 335.326 90.8145C326.585 90.8145 326.223 84.4251 326.223 81.5034H326.223ZM370.431 72.1987C375.404 72.1987 377.715 75.9791 377.715 81.3455C377.715 88.1057 374.764 90.8114 370.428 90.8114C367.948 90.8114 366.114 89.7563 365.124 87.787V90.4578L360.087 90.4558V63.59L365.435 63.1186V75.059C366.206 72.97 368.743 72.1987 370.431 72.1987H370.431ZM368.932 76.426C366.844 76.426 365.435 77.8984 365.435 80.4028L365.43 82.9607C365.426 84.6487 366.405 86.6234 368.932 86.6234C372.486 86.6234 372.391 82.7452 372.391 81.4535C372.391 77.1085 370.498 76.426 368.932 76.426ZM349.802 72.2135C344.162 72.2135 341.184 75.3215 341.184 80.8447V81.8708C341.184 89.0394 345.366 90.885 350.351 90.885C355.197 90.885 357.39 89.5152 357.39 89.5152L356.389 85.8674C356.389 85.8674 353.809 86.9769 350.992 86.9769C348.072 86.9769 346.816 86.2246 346.494 83.388H357.817V80.4616C357.817 74.4704 354.476 72.2134 349.802 72.2134L349.802 72.2135ZM349.938 75.8662C351.89 75.8662 353.156 77.0762 353.086 79.8824H346.504C346.618 76.9289 347.982 75.8663 349.938 75.8663V75.8662ZM388.378 72.1889C382.586 72.1889 379.537 75.4878 379.537 81.3995C379.537 89.5106 384.793 90.8163 388.387 90.8163C393.65 90.8163 397.151 87.9528 397.151 81.4731C397.151 74.7288 393.214 72.1889 388.378 72.1889ZM388.305 76.4407C390.852 76.4407 391.861 78.3671 391.861 80.56V82.4453C391.861 85.1018 390.449 86.6383 388.295 86.6383C386.281 86.6383 384.866 85.201 384.866 82.4453V80.56C384.866 77.621 386.55 76.4407 388.305 76.4407ZM407.804 72.1889C402.012 72.1889 398.963 75.4878 398.963 81.3995C398.963 89.5106 404.219 90.8163 407.814 90.8163C413.076 90.8163 416.577 87.9528 416.577 81.4731C416.577 74.7288 412.641 72.1889 407.804 72.1889ZM407.731 76.4407C410.278 76.4407 411.287 78.3671 411.287 80.56V82.4453C411.287 85.1018 409.875 86.6383 407.722 86.6383C405.707 86.6383 404.292 85.201 404.292 82.4453V80.56C404.292 77.621 405.976 76.4407 407.731 76.4407ZM418.598 90.4559V63.59L423.961 63.1186V81.1259L429.282 72.5454H434.946L429.395 81.4322L435.159 90.4559H429.479L423.961 81.694V90.4559H418.598Z" fill="#767494"/>
<path d="M563 91.5594L554.413 91.4006C551.633 91.3454 548.845 91.4558 546.119 90.8828C541.973 90.0266 541.679 85.8286 541.371 82.3072C540.948 77.3566 541.112 72.3162 541.911 67.407C542.362 64.652 544.138 63.0087 546.885 62.8292C556.155 62.1802 565.487 62.2561 574.737 62.5599C575.714 62.5875 576.698 62.7394 577.661 62.9121C582.416 63.7544 582.532 68.5117 582.84 72.5164C583.147 76.5625 583.017 80.6294 582.43 84.6479C581.958 87.9759 581.057 90.7654 577.251 91.0347C572.483 91.3868 567.824 91.6699 563.041 91.5801C563.041 91.5594 563.014 91.5594 563 91.5594ZM557.952 83.1357C561.545 81.0505 565.071 78.9999 568.643 76.9285C565.043 74.8433 561.525 72.7926 557.952 70.7212V83.1357Z" fill="#767494"/>
<path d="M651.718 87.7755C651.555 88.4522 651.411 88.9839 651.268 89.5501H647.906V63.3467H651.828V73.0133C652.033 72.7509 652.135 72.6404 652.224 72.523C652.894 71.5909 653.761 70.9833 654.882 70.7485C656.665 70.3964 658.188 71.1904 658.728 72.9235C659.076 74.0006 659.302 75.1537 659.329 76.2792C659.384 79.1723 659.343 82.0584 659.24 84.9515C659.199 85.8353 658.933 86.7398 658.598 87.5684C657.498 90.3027 653.905 90.717 652.122 88.3486C652.012 88.2036 651.91 88.0448 651.718 87.7755ZM651.91 80.567V85.3589C651.91 86.1391 652.32 86.6156 653.092 86.7951C653.85 86.9746 654.465 86.6777 654.772 85.9665C654.902 85.6696 655.032 85.3589 655.039 85.0482C655.114 82.1206 655.182 79.193 655.203 76.2585C655.203 75.713 655.073 75.1468 654.909 74.6152C654.601 73.6554 653.754 73.3723 652.921 73.9316C652.292 74.3597 651.91 74.9673 651.91 75.7752V80.567ZM641.252 71.1214H645.358V89.5639H642.154C642.038 88.8665 641.922 88.1484 641.785 87.306C641.567 87.6306 641.437 87.8377 641.3 88.0448C640.234 89.5984 638.725 90.1301 636.942 89.847C635.418 89.5984 634.503 88.4108 634.298 86.4637C634.236 85.8837 634.209 85.2968 634.209 84.7168C634.195 80.4013 634.209 76.0721 634.209 71.7566V71.1076H638.363V71.8602C638.363 76.0306 638.349 80.1942 638.376 84.3646C638.376 84.9584 638.438 85.5729 638.54 86.1668C638.656 86.7744 639.094 86.9953 639.681 86.9539C640.631 86.8779 641.286 86.1667 641.286 85.2139V71.9361C641.252 71.6669 641.252 71.4183 641.252 71.1214ZM612.983 71.1076H617.109V71.8878C617.109 76.0375 617.096 80.1804 617.123 84.3163C617.123 84.9101 617.177 85.5246 617.3 86.1046C617.458 86.7882 617.854 87.0091 618.53 86.9194C619.466 86.7882 620.033 86.1322 620.04 85.1725V71.9638V71.1352H624.146V89.5639H620.955C620.839 88.8803 620.723 88.176 620.573 87.2853C620.368 87.596 620.252 87.7755 620.136 87.962C619.07 89.5432 617.574 90.1231 615.75 89.8401C614.288 89.6191 613.393 88.5282 613.119 86.7398C613.044 86.1806 612.99 85.6282 612.99 85.0689C612.976 80.5877 612.976 76.0859 612.976 71.6047L612.983 71.1076ZM610.865 80.9537C610.851 81.5751 610.81 82.1965 610.776 82.818C610.619 84.6822 610.544 87.3267 609.055 88.687C608.105 89.5432 606.903 89.8539 605.659 89.8953C605.106 89.9091 604.546 89.9091 603.992 89.8332C601.376 89.4327 600.16 88.2658 599.723 85.3589C599.224 82.0032 599.183 78.5923 599.777 75.2366C600.392 71.7635 602.51 70.5345 605.803 70.7623C608.877 70.9833 610.25 73.0202 610.612 75.9202C610.81 77.5842 610.906 79.2689 610.865 80.9537ZM606.684 80.3185C606.684 79.1378 606.711 77.9501 606.67 76.7694C606.643 76.0859 606.554 75.3954 606.411 74.7187C606.247 73.9385 605.755 73.5657 605.14 73.5795C604.539 73.5933 604.115 73.9661 603.897 74.6911C603.822 74.9604 603.74 75.2366 603.74 75.5059C603.74 77.3563 603.726 79.2137 603.712 81.0642C603.699 82.7903 603.48 84.5994 604.02 86.2496C604.184 86.7537 604.607 87.0298 605.161 87.0298C605.7 87.0298 606.056 86.7606 606.254 86.2772C606.411 85.9044 606.547 85.497 606.547 85.0965C606.595 83.5084 606.684 81.9135 606.684 80.3185ZM593.697 76.8454C594.059 75.0571 594.401 73.3102 594.776 71.5564C595.248 69.3262 595.774 67.0959 596.238 64.8588C596.355 64.3133 596.573 64.1821 597.086 64.196C598.185 64.2374 599.306 64.2098 600.481 64.2098C600.098 65.6321 599.723 66.9855 599.354 68.3181C598.185 72.5023 597.017 76.7004 595.863 80.8985C595.774 81.223 595.733 81.5751 595.733 81.9204C595.719 84.2127 595.733 86.4982 595.733 88.7905V89.5362H591.723C591.709 89.3291 591.682 89.122 591.682 88.9148C591.682 87.6167 591.579 86.3118 591.695 85.0275C591.989 81.9411 591.019 79.1032 590.233 76.2309C589.195 72.4333 588.143 68.6219 587.104 64.8243C587.05 64.6448 587.029 64.4514 586.975 64.2305H591.067C591.928 68.4216 592.795 72.6128 593.697 76.8454ZM672.159 81.658H665.245C665.32 83.0596 665.348 84.3922 665.491 85.711C665.594 86.6294 666.092 87.0229 666.878 87.0298C667.698 87.0436 668.176 86.6294 668.367 85.7179C668.429 85.421 668.47 85.1241 668.497 84.8203C668.524 84.551 668.538 84.261 668.559 83.8744C669.727 83.9365 670.868 84.0056 671.995 84.0539C672.651 86.0218 671.469 88.5489 669.481 89.3291C667.916 89.9505 666.311 89.9505 664.712 89.4741C663.53 89.122 662.649 88.3624 662.253 87.1956C661.884 86.1046 661.536 84.9653 661.46 83.8261C661.256 81.0158 661.18 78.178 661.604 75.3609C661.679 74.8914 661.809 74.4426 661.952 73.9868C662.526 72.1088 663.776 70.9557 665.71 70.7623C666.762 70.6588 667.848 70.7002 668.886 70.8797C670.567 71.1766 671.462 72.3988 671.851 74.0006C672.029 74.7533 672.159 75.5266 672.186 76.293C672.193 78.0537 672.159 79.8006 672.159 81.658ZM668.231 79.2344C668.231 77.8466 668.244 76.5416 668.217 75.2297C668.217 74.919 668.101 74.5945 667.985 74.2976C667.752 73.7176 667.267 73.5587 666.687 73.5587C666.106 73.5587 665.737 73.8557 665.594 74.3873C665.156 75.9823 665.3 77.6118 665.314 79.2482C666.359 79.2344 667.308 79.2344 668.231 79.2344Z" fill="#767494"/>
<path d="M627.315 67.5932H623.25V64.2651H635.383V67.5725H631.346V89.5364H627.322L627.315 67.5932Z" fill="#767494"/>
<path d="M63.6628 213.157C61.7614 213.372 58.9092 214.266 57.2864 215.161C52.9262 217.53 49.9757 221.225 48.5004 226.145C48.2054 227.106 47.8611 229.723 47.8775 230.949C47.8775 232.026 48.2054 234.66 48.4021 235.29C48.5004 235.588 48.7135 236.3 48.8938 236.847C49.1889 237.775 50.6149 240.691 50.8608 240.89C50.91 240.939 51.1723 241.271 51.4181 241.652C52.0246 242.563 53.6147 244.186 54.8113 245.114C55.7292 245.826 58.3191 247.334 58.6469 247.351C58.7289 247.351 58.7453 246.721 58.6961 245.893C58.5814 244.054 58.9256 241.552 59.6632 239.001C59.7944 238.57 59.8927 238.007 59.8927 237.758C59.8927 237.51 59.9583 237.245 60.0402 237.162C60.1222 237.063 60.2697 236.582 60.3517 236.085C60.45 235.588 60.614 234.826 60.7287 234.395C60.8926 233.749 60.8762 233.501 60.6467 232.805C60.3189 231.745 60.3025 230.022 60.6303 229.193C61.4008 227.222 62.2531 226.476 63.6956 226.476C65.4331 226.476 66.2691 227.802 65.9413 230.022C65.7938 231.032 65.384 232.623 65.1217 233.12C65.0561 233.269 64.9414 233.683 64.8922 234.031C64.8267 234.395 64.6955 234.909 64.6136 235.19C64.3841 235.837 64.8267 237.096 65.4168 237.576C65.9741 238.023 67.1379 238.156 68.2034 237.907C68.9574 237.742 69.2688 237.543 70.0556 236.781C70.99 235.853 71.6948 234.776 71.6948 234.263C71.6948 234.114 71.7768 233.915 71.8751 233.815C72.3341 233.352 72.58 229.74 72.2358 228.216C71.8587 226.543 70.6949 224.902 69.1869 223.942C67.6788 222.964 64.5644 222.682 62.6465 223.345C61.3024 223.809 60.1058 224.588 59.3354 225.499C58.6469 226.311 57.9257 227.636 57.9257 228.1C57.9257 228.266 57.8437 228.481 57.7454 228.58C57.647 228.68 57.5323 229.309 57.4831 229.988C57.4012 230.999 57.4667 231.463 57.7618 232.457C57.9585 233.136 58.3191 233.931 58.5322 234.23C58.9748 234.826 58.9748 235.058 58.565 236.648C58.4502 237.079 58.2535 237.477 58.1388 237.526C57.1061 237.924 55.008 235.422 54.3031 232.937C54.0408 231.993 54.0244 228.63 54.2867 227.636C54.4015 227.222 54.5982 226.659 54.7293 226.36C54.8604 226.079 54.9752 225.797 54.9752 225.731C54.9752 225.665 55.303 225.101 55.7128 224.488C57.8437 221.241 61.3024 219.518 65.679 219.518C66.6789 219.518 67.7116 219.584 67.9903 219.667C70.2523 220.38 70.8588 220.612 71.744 221.142C73.4651 222.185 74.7109 223.61 75.9567 225.996C76.0387 226.145 76.1534 226.543 76.2026 226.874C76.2681 227.205 76.3829 227.52 76.4648 227.57C76.5468 227.619 76.6124 228.696 76.6124 229.972C76.6124 232.275 76.4485 233.202 75.76 235.091C74.9896 237.162 73.0062 239.448 71.2031 240.343C70.1704 240.84 68.2362 241.387 67.4657 241.387C66.4331 241.387 64.4005 240.525 63.8431 239.829C63.5809 239.514 63.335 239.63 63.335 240.078C63.335 240.243 63.2694 240.525 63.1711 240.691C63.0891 240.84 62.9416 241.304 62.8596 241.718C62.3843 243.905 61.7122 245.677 60.6795 247.334C60.3681 247.848 60.6303 248.146 61.4827 248.262C61.9089 248.328 62.4826 248.444 62.7449 248.527C63.4006 248.742 66.9576 248.709 68.1542 248.494C69.2361 248.295 70.99 247.798 71.7768 247.467C76.7271 245.412 80.4808 241.237 82.1036 235.919C82.9724 233.086 83.0216 229.79 82.2348 226.476C81.9725 225.399 81.8905 225.151 81.1857 223.494C80.1694 221.075 77.8745 218.243 75.5469 216.503C73.5471 215.012 71.5801 214.151 68.5148 213.405C67.6624 213.206 64.63 213.041 63.6628 213.157ZM107.38 219.137C106.741 219.237 105.724 220.297 105.462 221.125C105.183 222.036 105.462 223.014 106.249 223.776C107.986 225.482 111.002 223.875 110.625 221.423C110.396 219.866 108.986 218.872 107.38 219.137ZM89.5127 220.115C89.3652 220.28 89.3652 240.26 89.5291 240.492C89.6111 240.624 90.3159 240.674 91.6928 240.658L93.7418 240.641L93.8238 237.278C93.8893 234.544 93.9549 233.882 94.1516 233.766C94.2827 233.683 95.3974 233.6 96.6268 233.6C99.315 233.6 100.446 233.401 101.675 232.739C103.282 231.861 104.216 230.601 104.724 228.597C105.036 227.338 105.036 226.427 104.708 225.134C104.413 223.975 104.282 223.693 103.577 222.749C102.708 221.572 101.823 220.926 100.381 220.413C99.5773 220.148 98.9052 220.098 94.5614 220.048C91.8568 220.015 89.5783 220.048 89.5127 220.115ZM98.5118 224.24C99.6101 224.588 100.151 225.085 100.397 225.979C100.708 227.156 100.479 228.249 99.7904 228.912C99.0364 229.624 98.3643 229.79 96.1678 229.79C94.7253 229.79 94.2827 229.74 94.086 229.525C93.873 229.326 93.8238 228.845 93.8238 226.957C93.8238 223.975 93.8074 223.991 96.0858 223.991C97.0694 223.991 98.0201 224.091 98.5118 224.24ZM127.263 223.262C127.263 224.405 127.181 225.482 127.099 225.665C126.984 225.88 126.755 225.979 126.362 225.979C126.066 225.979 125.788 226.046 125.755 226.145C125.739 226.228 125.739 226.808 125.788 227.421C125.87 228.514 125.886 228.531 126.378 228.647C126.657 228.696 126.968 228.796 127.066 228.862C127.214 228.945 127.263 230.254 127.263 233.567C127.263 238.023 127.279 238.189 127.64 238.852C128.394 240.26 129.574 240.757 131.968 240.691L133.574 240.641L133.623 239.034L133.672 237.41H133.262C132.64 237.41 131.722 236.913 131.623 236.516C131.574 236.317 131.525 234.561 131.525 232.589C131.525 229.873 131.574 228.961 131.738 228.829C131.853 228.729 132.312 228.63 132.754 228.597L133.574 228.547V226.062L132.672 226.012C132.181 225.979 131.722 225.863 131.656 225.764C131.591 225.648 131.525 224.571 131.525 223.362V221.175H127.263V223.262ZM188.191 221.274C188.126 221.341 188.077 222.384 188.077 223.594C188.077 225.946 188.06 225.979 187.159 225.979C186.749 225.979 186.749 225.996 186.798 227.255C186.847 228.514 186.864 228.547 187.29 228.597C187.519 228.63 187.798 228.746 187.88 228.845C187.978 228.961 188.077 230.966 188.126 233.517C188.175 235.969 188.257 238.206 188.323 238.471C188.519 239.2 189.536 240.127 190.503 240.442C191.585 240.807 194.338 240.84 194.617 240.492C194.748 240.343 194.797 239.746 194.765 238.885L194.715 237.493L194.142 237.394C193.519 237.294 192.814 236.963 192.634 236.682C192.568 236.582 192.503 234.776 192.503 232.672C192.503 228.348 192.404 228.63 193.83 228.63C194.765 228.63 194.847 228.464 194.765 226.957L194.715 226.062L193.65 225.979L192.584 225.896L192.503 223.577L192.421 221.258L190.355 221.208C189.224 221.191 188.257 221.225 188.191 221.274ZM119.149 225.582C118.346 225.797 117.412 226.344 116.789 226.99C116.035 227.785 115.838 227.735 115.756 226.725L115.707 226.062H111.609V240.641L113.674 240.674C115.707 240.724 115.756 240.707 115.854 240.343C115.904 240.144 115.953 238.04 115.953 235.654C115.953 230.933 115.969 230.8 116.936 229.873C117.362 229.458 117.592 229.376 118.51 229.326L119.575 229.26L120.215 229.939C120.969 230.734 120.887 229.972 120.952 236.831C120.969 238.653 120.985 240.26 121.001 240.426C121.034 240.658 121.296 240.691 123.132 240.658L125.214 240.641V229.011L124.739 228.067C123.919 226.427 122.657 225.648 120.723 225.549C120.034 225.532 119.329 225.532 119.149 225.582ZM139.639 225.582C137.869 226.062 137.016 226.543 135.918 227.636C134.443 229.144 133.771 230.9 133.771 233.269C133.787 237.427 136.361 240.508 140.163 240.873C143.409 241.188 145.917 240.227 147.523 238.057C147.753 237.742 148.245 236.731 148.245 236.549C148.245 236.483 147.294 236.416 146.146 236.416H144.048L143.557 236.93C142.983 237.526 142.18 237.907 141.442 237.907C140.704 237.907 139.573 237.377 139.049 236.814C138.655 236.367 138.082 235.075 138.082 234.627C138.082 234.478 139.278 234.428 143.13 234.428C145.901 234.428 148.245 234.362 148.359 234.296C148.605 234.13 148.376 231.496 148.015 230.535C147.277 228.531 145.884 226.841 144.474 226.244C144.065 226.079 143.589 225.863 143.425 225.78C143.081 225.598 140.163 225.449 139.639 225.582ZM142.835 229.21C143.475 229.657 144.032 230.717 143.95 231.314C143.901 231.695 143.868 231.695 141.098 231.745C137.901 231.794 137.885 231.778 138.393 230.585C138.754 229.757 139.475 229.011 140.147 228.796C140.917 228.547 142.163 228.746 142.835 229.21ZM163.899 225.582C161.997 226.095 160.67 226.94 159.637 228.249C159.227 228.779 158.899 229.276 158.899 229.376C158.899 229.458 158.785 229.757 158.637 230.038C158.489 230.303 158.276 231.132 158.162 231.877C157.588 235.422 159.162 238.736 162.112 240.227L163.243 240.807H165.62C168.079 240.807 168.292 240.757 169.8 239.945C170.898 239.349 172.701 237.029 172.423 236.566C172.357 236.483 171.423 236.416 170.324 236.416H168.308L167.898 236.897C166.259 238.769 163.194 237.808 162.538 235.207C162.44 234.859 162.44 234.561 162.522 234.495C162.604 234.445 164.948 234.412 167.751 234.428C171.75 234.428 172.832 234.395 172.849 234.23C172.996 232.159 172.013 229.094 170.783 227.769C170.095 227.023 168.898 226.195 168.308 226.046C168.046 225.979 167.751 225.863 167.636 225.78C167.407 225.598 164.407 225.449 163.899 225.582ZM166.456 228.812C167.194 229.077 168.046 230.005 168.177 230.717C168.374 231.794 168.39 231.794 165.341 231.745C162.604 231.695 162.587 231.695 162.538 231.314C162.473 230.85 163.046 229.707 163.538 229.276C164.243 228.68 165.472 228.481 166.456 228.812ZM178.16 225.582C174.799 226.393 173.586 227.603 173.57 230.121C173.57 232.838 174.914 233.981 178.897 234.693C181.635 235.174 182.422 235.605 182.389 236.648C182.372 237.394 181.864 237.874 180.848 238.09C179.569 238.371 178.569 238.057 177.766 237.145L177.127 236.416H175.144C173.537 236.416 173.16 236.466 173.16 236.648C173.16 237.129 173.816 238.388 174.357 239.017C174.865 239.564 175.258 239.829 176.799 240.575C176.947 240.658 177.75 240.79 178.553 240.89C180.045 241.072 182.635 240.906 183.29 240.575C183.438 240.508 183.864 240.293 184.225 240.127C185.159 239.68 186.044 238.67 186.372 237.709C186.733 236.615 186.634 235.091 186.126 234.031C185.52 232.788 183.913 231.894 181.52 231.463C178.438 230.916 178.389 230.9 177.897 230.419C177.307 229.806 177.307 229.591 177.897 228.928C178.373 228.398 178.406 228.381 179.717 228.381C181.028 228.381 181.061 228.398 181.536 228.928C181.799 229.226 182.012 229.574 182.012 229.707C182.012 229.906 182.356 229.955 184.061 229.955C186.323 229.955 186.257 230.005 185.864 228.829C185.143 226.741 183.29 225.681 180.209 225.565C179.258 225.532 178.34 225.532 178.16 225.582ZM156.359 225.93C155.637 226.178 154.637 227.006 154.326 227.603C154.015 228.199 153.736 227.951 153.654 226.957L153.572 226.062H149.474L149.425 233.02C149.408 236.847 149.425 240.144 149.474 240.359C149.556 240.724 149.605 240.724 151.572 240.691C152.703 240.674 153.621 240.575 153.687 240.475C153.752 240.392 153.818 238.636 153.818 236.582C153.818 233.335 153.851 232.755 154.129 232.026C154.703 230.519 155.932 229.624 157.473 229.624C157.899 229.624 158.08 229.541 158.129 229.326C158.244 228.845 158.26 226.609 158.162 226.112C158.063 225.714 157.981 225.648 157.539 225.665C157.244 225.681 156.719 225.797 156.359 225.93ZM105.872 226.178C105.823 226.294 105.806 229.558 105.823 233.434L105.872 240.475L107.822 240.558C109.003 240.608 109.855 240.575 109.986 240.475C110.166 240.343 110.216 238.935 110.216 233.302C110.232 229.458 110.183 226.228 110.134 226.145C109.97 225.896 105.954 225.93 105.872 226.178Z" fill="#767494"/>
<path d="M415.454 219.021H410.506V212.095H399.643L394.647 219.021H385.769L382.8 221.99V219.021H375.874V212.095H354.104V219.021H323.479L318.482 212.095H307.598V235.843L321.451 249.696H335.304V245.738L339.262 249.696H365.979V245.738L369.937 249.696H382.8V245.738L386.758 249.696H411.496L420.401 240.79V223.969L415.454 219.021ZM324.419 228.916H317.493V230.895H324.419V238.811H313.535L309.577 234.853V214.074H317.493V221H324.419V228.916ZM354.104 238.811H330.356L326.398 234.853V221H334.314V230.895H336.293V221H344.209V230.895H346.188V221H354.104V238.811ZM364 238.811H356.084V221H364V238.811ZM364 219.021H356.084V214.074H364V219.021ZM380.821 228.916H373.895V230.895H380.821V238.811H369.937L365.979 234.853V214.074H373.895V221H380.821V228.916ZM398.632 228.916H390.716V230.895H398.632V238.811H386.758L382.8 234.853V224.958L386.758 221H398.632V228.916ZM418.422 238.811H410.506V228.916H408.527V238.811H400.611V214.074H408.527V221H414.464L418.422 224.958V238.811Z" fill="#767494"/>
<path d="M581.804 227.048C581.804 224.53 579.355 221.856 575.118 221.856C570.359 221.856 565.131 225.346 564.332 232.311C563.516 239.345 567.893 242.471 572.304 242.471C576.715 242.471 579.025 240.751 581.387 238.459C579.355 235.906 576.733 237.087 576.229 237.347C575.673 237.625 574.961 238.007 573.502 238.007C571.8 238.007 570.064 237.243 570.064 234.065C580.97 232.988 581.804 229.567 581.804 227.048ZM576.403 227.465C576.333 228.247 576.021 229.584 570.498 230.331C571.661 226.197 573.884 225.885 574.909 225.885C575.864 225.885 576.472 226.632 576.403 227.465ZM557.924 228.143C557.924 228.143 555.579 235.506 555.388 236.114C555.318 235.489 553.599 222.272 553.599 222.272C549.605 222.272 547.468 225.121 546.339 228.125C546.339 228.125 543.491 235.506 543.248 236.132C543.231 235.559 542.814 228.212 542.814 228.212C542.571 224.53 539.201 222.29 536.475 222.29L539.774 242.315C543.96 242.297 546.218 239.466 547.399 236.462C547.399 236.462 549.917 229.949 550.021 229.654C550.039 229.931 551.828 242.315 551.828 242.315C556.031 242.315 558.288 239.657 559.504 236.757L565.392 222.29C561.241 222.29 559.052 225.121 557.924 228.143ZM597.226 221.821C594.639 221.821 592.659 223.228 590.992 225.294V225.277L592.485 213.241C589.046 213.241 586.25 216.228 585.712 220.675L583.107 242.158C585.087 242.158 587.188 241.585 588.317 240.126C589.324 241.429 590.835 242.471 593.076 242.471C598.876 242.471 602.854 235.732 602.854 229.41C602.819 223.644 600.023 221.821 597.226 221.821ZM596.688 232.155C596.08 235.68 594.118 238.077 592.225 238.077C590.314 238.077 589.498 237.226 589.498 237.226C589.863 234.134 590.088 232.241 590.783 230.609C591.478 228.976 593.128 226.371 594.847 226.371C596.532 226.371 597.296 228.612 596.688 232.155ZM617.338 222.29H613.292L613.309 222.081C613.587 219.441 614.212 218.052 616.279 217.826C617.686 217.687 618.311 216.958 618.467 216.159C618.589 215.534 618.971 213.363 618.971 213.363C610.843 213.311 608.29 216.819 607.63 222.168L607.612 222.29H607.525C606.206 222.29 604.747 223.783 604.504 225.676L604.417 226.371H607.126L604.851 245.163L604.156 248.532C604.243 248.532 604.347 248.55 604.434 248.55C608.238 248.411 610.669 245.406 611.207 241.047L612.979 226.371H614.247C615.497 226.371 616.956 225.121 617.217 223.037L617.338 222.29ZM638.388 221.942C633.716 221.942 629.304 225.381 627.95 230.782C626.595 236.184 628.644 242.575 635.522 242.575C642.382 242.575 646.342 235.923 646.342 230.383C646.342 224.878 642.608 221.942 638.388 221.942ZM640.281 231.981C640.038 234.43 638.961 238.146 636.008 238.146C633.038 238.146 633.455 233.804 633.751 231.738C634.063 229.532 635.296 226.388 637.954 226.388C640.333 226.388 640.559 229.219 640.281 231.981ZM669.424 228.143C669.424 228.143 667.079 235.506 666.888 236.114C666.818 235.489 665.099 222.272 665.099 222.272C661.105 222.272 658.968 225.121 657.839 228.125C657.839 228.125 654.991 235.506 654.748 236.132C654.731 235.559 654.314 228.212 654.314 228.212C654.071 224.53 650.701 222.29 647.975 222.29L651.257 242.315C655.443 242.297 657.7 239.466 658.881 236.462C658.881 236.462 661.4 229.949 661.487 229.654C661.521 229.931 663.293 242.315 663.293 242.315C667.496 242.315 669.754 239.657 670.969 236.757L676.857 222.29C672.723 222.29 670.535 225.121 669.424 228.143ZM621.159 213.363L617.755 240.821L617.06 244.208C617.147 244.208 617.251 244.225 617.338 244.225C621.003 244.173 623.608 240.96 624.094 236.913L626.057 221.161C626.647 216.35 623.782 213.363 621.159 213.363Z" fill="#767494"/>
</svg>
