<svg width="627" height="107" viewBox="0 0 627 107" fill="none" xmlns="http://www.w3.org/2000/svg">
<path d="M14.7711 0.519531H15.8051C19.3947 0.5984 22.9257 2.05747 25.4619 4.64042C24.5255 5.60656 23.5695 6.53327 22.6526 7.49941C21.2285 6.19808 19.5117 5.1925 17.6389 4.83759C14.8687 4.24608 11.8838 4.77844 9.56229 6.37553C7.02617 8.05149 5.3094 10.8908 4.93874 13.9272C4.52905 16.9242 5.36793 20.079 7.29929 22.4056C9.15261 24.6731 11.9814 26.0927 14.9077 26.1913C17.6389 26.349 20.4872 25.5012 22.477 23.5689C24.0377 22.2084 24.7596 20.1381 24.9937 18.127C21.7552 18.127 18.5168 18.1467 15.2783 18.127V14.0652H28.9149C29.6172 18.4227 28.6028 23.3323 25.3253 26.4476C23.1403 28.6559 20.1165 29.9573 17.0341 30.2136C14.0493 30.5093 10.9669 29.9376 8.31374 28.4785C5.13382 26.7631 2.59769 23.8647 1.34914 20.4536C0.178618 17.3186 0.159109 13.7695 1.2516 10.6147C2.24654 7.73602 4.15839 5.1925 6.61648 3.41796C8.97703 1.66313 11.8448 0.696986 14.7711 0.519531Z" fill="#767494"/>
<path d="M93.002 1.54492H97.1768V29.701C95.7917 29.701 94.3871 29.7207 93.002 29.6813C93.0215 20.3156 93.002 10.9303 93.002 1.54492Z" fill="#767494"/>
<path d="M38.1995 11.3048C40.7746 10.8119 43.5644 11.3639 45.6908 12.9216C47.6222 14.3018 48.9683 16.4706 49.378 18.8367C49.9047 21.5774 49.2414 24.5743 47.4856 26.7432C45.5933 29.1684 42.4914 30.4697 39.4676 30.2726C36.6973 30.1148 34.0051 28.7149 32.3664 26.4277C30.5131 23.904 30.0644 20.4338 31.0788 17.4762C32.0933 14.3018 34.961 11.8766 38.1995 11.3048ZM38.7847 15.051C37.7313 15.3271 36.7558 15.9383 36.0535 16.8058C34.1612 19.093 34.2782 22.8195 36.3657 24.949C37.5557 26.1714 39.3505 26.7432 41.0087 26.408C42.5499 26.132 43.896 25.087 44.6374 23.7068C45.9249 21.3605 45.5543 18.1269 43.5839 16.2932C42.3158 15.1102 40.4625 14.6172 38.7847 15.051Z" fill="#767494"/>
<path d="M58.8809 11.3048C61.8267 10.733 65.0456 11.5611 67.2501 13.6511C70.8397 16.9045 71.2299 22.9971 68.167 26.7433C66.3137 29.1094 63.3093 30.4107 60.344 30.2727C57.5152 30.1939 54.7255 28.7742 53.0478 26.4279C51.1554 23.8449 50.7457 20.2958 51.8187 17.2791C52.8917 14.2032 55.7009 11.8569 58.8809 11.3048ZM59.4661 15.051C58.4126 15.3271 57.4372 15.9383 56.7349 16.7862C54.8621 19.0339 54.9401 22.7013 56.9495 24.8505C58.1395 26.1321 59.9928 26.7631 61.7096 26.4082C63.2313 26.1124 64.5969 25.0871 65.3382 23.7069C66.6063 21.3408 66.2356 18.1072 64.2457 16.2735C62.9777 15.0905 61.1244 14.6173 59.4661 15.051Z" fill="#767494"/>
<path d="M76.4183 12.4485C78.6618 11.0289 81.6466 10.6345 84.0657 11.857C84.8266 12.1922 85.4508 12.764 86.0556 13.3358C86.0751 12.8034 86.0556 12.2513 86.0751 11.6992C87.3822 11.719 88.6893 11.6992 90.0159 11.719V29.1095C89.9964 31.7319 89.3331 34.512 87.4602 36.4245C85.4118 38.5343 82.2709 39.1849 79.4422 38.7511C76.4183 38.2977 73.7846 36.0696 72.6141 33.2501C73.7846 32.6783 75.0137 32.2248 76.2232 31.6924C76.906 33.3092 78.2911 34.6894 80.0274 35.0049C81.7637 35.3204 83.7731 34.8866 84.9046 33.4275C86.1141 31.929 86.1141 29.8784 86.0556 28.0447C85.1582 28.932 84.1242 29.7207 82.8757 30.0165C80.164 30.7854 77.1791 29.839 75.0917 27.9856C72.9848 26.1322 71.7362 23.2732 71.8533 20.4339C71.9118 17.22 73.7066 14.1244 76.4183 12.4485ZM80.4566 14.9723C79.2666 15.1695 78.1546 15.8398 77.3937 16.7665C75.5599 18.9749 75.5599 22.5042 77.4133 24.6731C78.4667 25.9547 80.164 26.6645 81.8027 26.4871C83.3439 26.3294 84.768 25.3435 85.5289 23.983C86.8165 21.6761 86.6019 18.5411 84.8656 16.5299C83.7926 15.2878 82.0758 14.6765 80.4566 14.9723Z" fill="#767494"/>
<path d="M102.186 13.4542C104.527 11.2458 108.137 10.4966 111.141 11.6599C113.989 12.7444 115.804 15.485 116.72 18.3046C112.487 20.0791 108.273 21.834 104.04 23.6085C104.625 24.7324 105.522 25.7577 106.732 26.1717C108.429 26.783 110.458 26.5661 111.882 25.4225C112.448 24.9887 112.897 24.4169 113.326 23.8648C114.399 24.5944 115.472 25.3042 116.545 26.0337C115.023 28.3406 112.468 29.9574 109.717 30.2138C106.673 30.5884 103.435 29.4053 101.465 26.9999C98.2262 23.2142 98.5383 16.8652 102.186 13.4542ZM104.274 17.1018C103.611 18.068 103.337 19.251 103.357 20.4143C106.186 19.2313 109.014 18.0483 111.843 16.8455C111.375 15.7414 110.244 15.071 109.093 14.8935C107.239 14.5583 105.308 15.5639 104.274 17.1018Z" fill="#767494"/>
<path d="M238.737 27.9301H233.374V14.4185H229.721V10.0195H233.374V6.88922C233.374 3.17986 234.99 0.519531 240.338 0.519531C241.469 0.519531 243.245 0.749964 243.245 0.749964V4.83474H241.38C239.479 4.83474 238.737 5.41902 238.737 7.03435V10.0195H243.174L242.779 14.4185H238.737L238.737 27.9301ZM251.042 9.66793C250.963 9.66793 250.883 9.6708 250.803 9.67282C245.831 9.67282 243.556 13.4532 243.556 18.8196C243.556 25.5798 246.507 28.2855 250.842 28.2855C253.323 28.2855 254.953 27.2303 255.943 25.2611V27.9319H261.044V10.0213H255.943V12.7757C255.134 11.0036 253.459 9.68893 251.042 9.66793ZM252.339 13.9001C254.427 13.9001 255.681 15.3725 255.681 17.8769L255.685 20.4348C255.685 22.1228 254.65 24.0976 252.339 24.0976C248.785 24.0976 248.88 20.2193 248.88 18.9277C248.88 14.5827 250.773 13.9001 252.339 13.9001ZM263.104 18.9776C263.104 16.8011 263.001 9.67958 272.181 9.67958C275.866 9.67958 277.405 10.8638 277.405 10.8638L276.168 14.7407C276.168 14.7407 274.631 13.8855 272.629 13.8855C270.064 13.8855 268.427 15.3882 268.427 18.0321L268.43 19.9279C268.43 22.4684 270.009 24.1643 272.634 24.1643C274.458 24.1643 276.14 23.301 276.14 23.301L277.373 27.0969C277.373 27.0969 275.966 28.2886 272.207 28.2886C263.466 28.2886 263.104 21.8993 263.104 18.9776H263.104ZM307.312 9.67282C312.285 9.67282 314.596 13.4532 314.596 18.8196C314.596 25.5798 311.645 28.2855 307.309 28.2855C304.829 28.2855 302.995 27.2304 302.004 25.2611V27.9319L296.968 27.9299V1.06411L302.315 0.592746V12.5331C303.087 10.4441 305.624 9.67282 307.312 9.67282H307.312ZM305.813 13.9001C303.724 13.9001 302.315 15.3725 302.315 17.8769L302.31 20.4348C302.307 22.1228 303.286 24.0976 305.813 24.0976C309.367 24.0976 309.272 20.2193 309.272 18.9277C309.272 14.5827 307.378 13.9001 305.813 13.9001ZM286.683 9.68763C281.043 9.68763 278.065 12.7956 278.065 18.3188V19.3449C278.065 26.5135 282.247 28.3591 287.232 28.3591C292.078 28.3591 294.271 26.9893 294.271 26.9893L293.27 23.3415C293.27 23.3415 290.69 24.451 287.873 24.451C284.953 24.451 283.697 23.6987 283.375 20.8622H294.698V17.9357C294.698 11.9445 291.357 9.68749 286.683 9.68749L286.683 9.68763ZM286.819 13.3403C288.771 13.3403 290.036 14.5503 289.967 17.3565H283.385C283.499 14.403 284.863 13.3405 286.819 13.3405V13.3403ZM325.259 9.66304C319.467 9.66304 316.417 12.9619 316.417 18.8736C316.417 26.9847 321.674 28.2904 325.268 28.2904C330.531 28.2904 334.032 25.4269 334.032 18.9472C334.032 12.203 330.095 9.66304 325.259 9.66304ZM325.186 13.9148C327.733 13.9148 328.742 15.8413 328.742 18.0341V19.9194C328.742 22.5759 327.33 24.1124 325.176 24.1124C323.162 24.1124 321.746 22.6751 321.746 19.9194V18.0341C321.746 15.0952 323.431 13.9148 325.186 13.9148ZM344.685 9.66304C338.893 9.66304 335.844 12.9619 335.844 18.8736C335.844 26.9847 341.1 28.2904 344.695 28.2904C349.957 28.2904 353.458 25.4269 353.458 18.9472C353.458 12.203 349.521 9.66304 344.685 9.66304ZM344.612 13.9148C347.159 13.9148 348.168 15.8413 348.168 18.0341V19.9194C348.168 22.5759 346.756 24.1124 344.602 24.1124C342.588 24.1124 341.173 22.6751 341.173 19.9194V18.0341C341.173 15.0952 342.857 13.9148 344.612 13.9148ZM355.479 27.9301V1.06411L360.842 0.592746V18.6L366.163 10.0195H371.826L366.276 18.9064L372.04 27.9301H366.36L360.842 19.1682V27.9301H355.479Z" fill="#767494"/>
<path d="M506.895 29.7454L498.308 29.5866C495.527 29.5314 492.74 29.6419 490.014 29.0688C485.867 28.2126 485.573 24.0146 485.266 20.4932C484.842 15.5426 485.006 10.5022 485.806 5.59301C486.256 2.83806 488.033 1.19475 490.779 1.01523C500.05 0.366196 509.382 0.442147 518.632 0.745951C519.609 0.77357 520.593 0.925472 521.556 1.09809C526.311 1.94045 526.427 6.69775 526.734 10.7024C527.042 14.7486 526.912 18.8154 526.324 22.8339C525.853 26.1619 524.951 28.9514 521.146 29.2207C516.377 29.5728 511.718 29.8559 506.936 29.7662C506.936 29.7454 506.909 29.7454 506.895 29.7454ZM501.846 21.3218C505.44 19.2366 508.965 17.1859 512.538 15.1145C508.938 13.0293 505.419 10.9786 501.846 8.90724V21.3218Z" fill="#767494"/>
<path d="M595.615 25.9616C595.451 26.6382 595.308 27.1699 595.164 27.7361H591.803V1.53271H595.724V11.1993C595.929 10.9369 596.032 10.8265 596.12 10.7091C596.79 9.77694 597.658 9.16933 598.778 8.93457C600.561 8.58243 602.085 9.37647 602.624 11.1095C602.973 12.1867 603.198 13.3398 603.225 14.4652C603.28 17.3583 603.239 20.2445 603.137 23.1376C603.096 24.0214 602.829 24.9259 602.494 25.7544C601.395 28.4887 597.801 28.903 596.018 26.5347C595.909 26.3897 595.806 26.2309 595.615 25.9616ZM595.806 18.7531V23.5449C595.806 24.3252 596.216 24.8016 596.988 24.9811C597.746 25.1606 598.361 24.8637 598.669 24.1525C598.799 23.8556 598.928 23.5449 598.935 23.2342C599.01 20.3066 599.079 17.379 599.099 14.4445C599.099 13.8991 598.969 13.3329 598.805 12.8012C598.498 11.8414 597.651 11.5584 596.817 12.1176C596.189 12.5457 595.806 13.1533 595.806 13.9612V18.7531ZM585.149 9.30742H589.255V27.7499H586.051C585.934 27.0525 585.818 26.3344 585.682 25.4921C585.463 25.8166 585.333 26.0237 585.197 26.2309C584.131 27.7844 582.621 28.3161 580.838 28.033C579.315 27.7844 578.399 26.5968 578.194 24.6497C578.133 24.0697 578.105 23.4828 578.105 22.9028C578.092 18.5874 578.105 14.2581 578.105 9.94265V9.29361H582.259V10.0462C582.259 14.2167 582.245 18.3802 582.273 22.5507C582.273 23.1445 582.334 23.759 582.437 24.3528C582.553 24.9604 582.99 25.1814 583.578 25.1399C584.527 25.064 585.183 24.3528 585.183 23.3999V10.1222C585.149 9.85289 585.149 9.60432 585.149 9.30742ZM556.879 9.29361H561.006V10.0738C561.006 14.2236 560.992 18.3664 561.019 22.5023C561.019 23.0961 561.074 23.7106 561.197 24.2906C561.354 24.9742 561.75 25.1952 562.427 25.1054C563.363 24.9742 563.93 24.3183 563.936 23.3585V10.1498V9.32123H568.042V27.7499H564.852C564.736 27.0663 564.62 26.3621 564.469 25.4713C564.264 25.7821 564.148 25.9616 564.032 26.148C562.966 27.7292 561.47 28.3092 559.646 28.0261C558.184 27.8051 557.289 26.7142 557.016 24.9259C556.941 24.3666 556.886 23.8142 556.886 23.2549C556.872 18.7738 556.872 14.2719 556.872 9.79075L556.879 9.29361ZM554.761 19.1397C554.748 19.7612 554.707 20.3826 554.673 21.004C554.516 22.8683 554.44 25.5128 552.951 26.873C552.001 27.7292 550.799 28.0399 549.556 28.0813C549.002 28.0951 548.442 28.0951 547.889 28.0192C545.272 27.6187 544.056 26.4518 543.619 23.5449C543.12 20.1892 543.079 16.7783 543.674 13.4226C544.289 9.94956 546.406 8.72052 549.699 8.94838C552.773 9.16933 554.147 11.2062 554.509 14.1062C554.707 15.7702 554.802 17.455 554.761 19.1397ZM550.58 18.5045C550.58 17.3238 550.608 16.1362 550.567 14.9555C550.54 14.2719 550.451 13.5814 550.307 12.9048C550.143 12.1245 549.651 11.7517 549.037 11.7655C548.435 11.7793 548.012 12.1522 547.793 12.8772C547.718 13.1464 547.636 13.4226 547.636 13.6919C547.636 15.5424 547.622 17.3997 547.609 19.2502C547.595 20.9764 547.376 22.7854 547.916 24.4356C548.08 24.9397 548.504 25.2159 549.057 25.2159C549.597 25.2159 549.952 24.9466 550.15 24.4633C550.307 24.0904 550.444 23.683 550.444 23.2826C550.492 21.6945 550.58 20.0995 550.58 18.5045ZM537.593 15.0314C537.956 13.2431 538.297 11.4962 538.673 9.74242C539.144 7.5122 539.67 5.28197 540.135 3.04485C540.251 2.49937 540.47 2.36818 540.982 2.38199C542.082 2.42342 543.202 2.3958 544.377 2.3958C543.995 3.81817 543.619 5.1715 543.25 6.50411C542.082 10.6884 540.914 14.8864 539.759 19.0845C539.67 19.409 539.629 19.7612 539.629 20.1064C539.616 22.3988 539.629 24.6842 539.629 26.9766V27.7223H535.619C535.605 27.5151 535.578 27.308 535.578 27.1009C535.578 25.8028 535.476 24.4978 535.592 23.2135C535.886 20.1271 534.915 17.2893 534.13 14.4169C533.091 10.6193 532.039 6.80791 531.001 3.01032C530.946 2.8308 530.926 2.63747 530.871 2.41652H534.963C535.824 6.60768 536.692 10.7988 537.593 15.0314ZM616.055 19.844H609.142C609.217 21.2457 609.244 22.5783 609.388 23.8971C609.49 24.8154 609.989 25.209 610.774 25.2159C611.594 25.2297 612.072 24.8154 612.264 23.904C612.325 23.6071 612.366 23.3102 612.394 23.0064C612.421 22.7371 612.435 22.4471 612.455 22.0604C613.623 22.1226 614.764 22.1916 615.891 22.2399C616.547 24.2078 615.365 26.7349 613.377 27.5151C611.813 28.1366 610.207 28.1366 608.609 27.6601C607.427 27.308 606.546 26.5485 606.149 25.3816C605.781 24.2906 605.432 23.1514 605.357 22.0121C605.152 19.2019 605.077 16.364 605.5 13.5469C605.576 13.0774 605.705 12.6286 605.849 12.1729C606.423 10.2948 607.673 9.14171 609.606 8.94838C610.658 8.8448 611.745 8.88623 612.783 9.06576C614.464 9.36266 615.359 10.5848 615.748 12.1867C615.926 12.9393 616.055 13.7126 616.083 14.479C616.09 16.2398 616.055 17.9866 616.055 19.844ZM612.127 17.4205C612.127 16.0326 612.141 14.7276 612.113 13.4157C612.113 13.105 611.997 12.7805 611.881 12.4836C611.649 11.9036 611.164 11.7448 610.583 11.7448C610.002 11.7448 609.634 12.0417 609.49 12.5733C609.053 14.1683 609.196 15.7978 609.21 17.4343C610.255 17.4205 611.205 17.4205 612.127 17.4205Z" fill="#767494"/>
<path d="M571.209 5.77925H567.145V2.45117H579.278V5.75853H575.24V27.7224H571.216L571.209 5.77925Z" fill="#767494"/>
<path d="M16.2371 68.9168C14.3356 69.1321 11.4834 70.0267 9.86064 70.9214C5.50041 73.2904 2.54989 76.9848 1.07462 81.9052C0.779572 82.8661 0.435344 85.4837 0.451736 86.7096C0.451736 87.7865 0.779572 90.4206 0.976274 91.0501C1.07462 91.3483 1.28772 92.0607 1.46803 92.6074C1.76308 93.5352 3.18917 96.451 3.43505 96.6498C3.48422 96.6995 3.74649 97.0308 3.99237 97.4118C4.59886 98.323 6.18887 99.9466 7.38547 100.874C8.30342 101.587 10.8933 103.094 11.2212 103.111C11.3031 103.111 11.3195 102.481 11.2703 101.653C11.1556 99.814 11.4998 97.3124 12.2375 94.7611C12.3686 94.3304 12.4669 93.7671 12.4669 93.5186C12.4669 93.2701 12.5325 93.005 12.6145 92.9222C12.6964 92.8228 12.8439 92.3424 12.9259 91.8454C13.0243 91.3483 13.1882 90.5863 13.3029 90.1555C13.4668 89.5094 13.4504 89.2609 13.221 88.5651C12.8931 87.5048 12.8767 85.7819 13.2046 84.9535C13.975 82.9821 14.8274 82.2366 16.2698 82.2366C18.0074 82.2366 18.8434 83.5619 18.5155 85.7819C18.368 86.7924 17.9582 88.3829 17.6959 88.8799C17.6304 89.029 17.5156 89.4432 17.4664 89.7911C17.4009 90.1555 17.2697 90.6691 17.1878 90.9507C16.9583 91.5969 17.4009 92.8559 17.991 93.3364C18.5483 93.7837 19.7121 93.9162 20.7776 93.6677C21.5316 93.502 21.8431 93.3032 22.6299 92.5412C23.5642 91.6134 24.269 90.5366 24.269 90.023C24.269 89.8739 24.351 89.6751 24.4494 89.5757C24.9083 89.1118 25.1542 85.5002 24.81 83.9761C24.433 82.3028 23.2691 80.6627 21.7611 79.7018C20.253 78.7244 17.1386 78.4427 15.2208 79.1054C13.8766 79.5693 12.68 80.3479 11.9096 81.2591C11.2212 82.0709 10.4999 83.3962 10.4999 83.8601C10.4999 84.0258 10.418 84.2411 10.3196 84.3405C10.2213 84.4399 10.1065 85.0695 10.0573 85.7487C9.97538 86.7593 10.0409 87.2232 10.336 88.2172C10.5327 88.8964 10.8933 89.6917 11.1064 89.9899C11.549 90.5863 11.549 90.8182 11.1392 92.4086C11.0245 92.8394 10.8278 93.237 10.713 93.2867C9.68033 93.6843 7.58218 91.1827 6.87733 88.6976C6.61506 87.7533 6.59867 84.3902 6.86094 83.3962C6.97568 82.9821 7.17238 82.4188 7.30351 82.1206C7.43465 81.8389 7.54939 81.5573 7.54939 81.491C7.54939 81.4248 7.87723 80.8615 8.28702 80.2485C10.418 77.0014 13.8766 75.2785 18.2532 75.2785C19.2531 75.2785 20.2858 75.3447 20.5645 75.4276C22.8266 76.1399 23.4331 76.3719 24.3182 76.902C26.0394 77.9457 27.2851 79.3705 28.5309 81.7561C28.6129 81.9052 28.7276 82.3028 28.7768 82.6342C28.8424 82.9655 28.9571 83.2803 29.0391 83.33C29.121 83.3797 29.1866 84.4565 29.1866 85.7322C29.1866 88.035 29.0227 88.9627 28.3342 90.8513C27.5638 92.9222 25.5804 95.2084 23.7773 96.103C22.7446 96.6001 20.8104 97.1468 20.04 97.1468C19.0073 97.1468 16.9747 96.2853 16.4174 95.5895C16.1551 95.2747 15.9092 95.3907 15.9092 95.838C15.9092 96.0036 15.8436 96.2853 15.7453 96.451C15.6633 96.6001 15.5158 97.0639 15.4339 97.4781C14.9585 99.6649 14.2864 101.438 13.2537 103.094C12.9423 103.608 13.2046 103.906 14.0569 104.022C14.4831 104.088 15.0568 104.204 15.3191 104.287C15.9748 104.502 19.5318 104.469 20.7284 104.254C21.8103 104.055 23.5642 103.558 24.351 103.227C29.3013 101.173 33.0551 96.9977 34.6778 91.6797C35.5466 88.8467 35.5958 85.5499 34.809 82.2366C34.5467 81.1597 34.4648 80.9112 33.7599 79.2545C32.7436 76.8357 30.4488 74.0028 28.1211 72.2633C26.1213 70.7723 24.1543 69.9108 21.089 69.1653C20.2367 68.9665 17.2042 68.8008 16.2371 68.9168ZM59.954 74.8974C59.3147 74.9968 58.2985 76.0571 58.0362 76.8854C57.7575 77.7966 58.0362 78.7741 58.823 79.5361C60.5605 81.2425 63.5766 79.6355 63.1996 77.1836C62.9701 75.6264 61.5604 74.6323 59.954 74.8974ZM42.0869 75.8749C41.9394 76.0405 41.9394 96.0202 42.1033 96.2521C42.1853 96.3847 42.8901 96.4344 44.2671 96.4178L46.316 96.4013L46.398 93.0382C46.4636 90.3046 46.5291 89.642 46.7258 89.526C46.857 89.4432 47.9716 89.3603 49.201 89.3603C51.8893 89.3603 53.0203 89.1615 54.2497 88.4988C55.8561 87.6208 56.7904 86.3617 57.2986 84.3571C57.61 83.098 57.61 82.1869 57.2822 80.8946C56.9871 79.7349 56.856 79.4533 56.1511 78.509C55.2824 77.3327 54.3972 76.6866 52.9547 76.1731C52.1515 75.908 51.4795 75.8583 47.1356 75.8086C44.431 75.7755 42.1525 75.8086 42.0869 75.8749ZM51.0861 80C52.1843 80.3479 52.7252 80.8449 52.9711 81.7395C53.2826 82.9158 53.0531 84.0092 52.3646 84.6719C51.6106 85.3843 50.9385 85.5499 48.742 85.5499C47.2995 85.5499 46.857 85.5002 46.6603 85.2849C46.4472 85.0861 46.398 84.6056 46.398 82.717C46.398 79.735 46.3816 79.7515 48.6601 79.7515C49.6436 79.7515 50.5943 79.8509 51.0861 80ZM79.8373 79.0226C79.8373 80.1657 79.7553 81.2425 79.6734 81.4248C79.5586 81.6401 79.3292 81.7395 78.9357 81.7395C78.6407 81.7395 78.362 81.8058 78.3293 81.9052C78.3129 81.988 78.3129 82.5679 78.362 83.1809C78.444 84.2743 78.4604 84.2908 78.9521 84.4068C79.2308 84.4565 79.5422 84.5559 79.6406 84.6222C79.7881 84.705 79.8373 86.0138 79.8373 89.3272C79.8373 93.7837 79.8537 93.9494 80.2143 94.612C80.9683 96.0202 82.1486 96.5172 84.5418 96.451L86.1481 96.4013L86.1973 94.7943L86.2465 93.1707H85.8367C85.2138 93.1707 84.2959 92.6737 84.1975 92.2761C84.1483 92.0773 84.0992 90.3212 84.0992 88.3497C84.0992 85.6328 84.1483 84.7216 84.3123 84.5891C84.427 84.4896 84.886 84.3902 85.3286 84.3571L86.1481 84.3074V81.8224L85.2466 81.7727C84.7548 81.7395 84.2959 81.6236 84.2303 81.5242C84.1647 81.4082 84.0992 80.3314 84.0992 79.122V76.9351H79.8373V79.0226ZM140.766 77.0345C140.7 77.1008 140.651 78.1445 140.651 79.3539C140.651 81.7064 140.635 81.7395 139.733 81.7395C139.323 81.7395 139.323 81.7561 139.372 83.0152C139.422 84.2743 139.438 84.3074 139.864 84.3571C140.094 84.3902 140.372 84.5062 140.454 84.6056C140.553 84.7216 140.651 86.7262 140.7 89.2775C140.749 91.7294 140.831 93.9659 140.897 94.231C141.094 94.9599 142.11 95.8877 143.077 96.2024C144.159 96.5669 146.913 96.6001 147.191 96.2521C147.322 96.103 147.372 95.5066 147.339 94.6452L147.29 93.2535L146.716 93.1541C146.093 93.0547 145.388 92.7234 145.208 92.4418C145.142 92.3424 145.077 90.5366 145.077 88.4326C145.077 84.1086 144.978 84.3902 146.404 84.3902C147.339 84.3902 147.421 84.2246 147.339 82.717L147.29 81.8224L146.224 81.7395L145.159 81.6567L145.077 79.3373L144.995 77.018L142.929 76.9683C141.798 76.9517 140.831 76.9848 140.766 77.0345ZM71.7234 81.3419C70.9202 81.5573 69.9858 82.104 69.3629 82.7501C68.6089 83.5453 68.4122 83.4956 68.3302 82.4851L68.2811 81.8224H64.1831V96.4013L66.2485 96.4344C68.2811 96.4841 68.3302 96.4675 68.4286 96.103C68.4778 95.9042 68.5269 93.8002 68.5269 91.4146C68.5269 86.693 68.5433 86.5605 69.5105 85.6328C69.9366 85.2186 70.1661 85.1358 71.0841 85.0861L72.1495 85.0198L72.7888 85.699C73.5428 86.4942 73.4609 85.7322 73.5265 92.5909C73.5428 94.4132 73.5592 96.0202 73.5756 96.1859C73.6084 96.4178 73.8707 96.451 75.7066 96.4178L77.7883 96.4013V84.7713L77.313 83.827C76.4934 82.1869 75.2312 81.4082 73.297 81.3088C72.6085 81.2922 71.9037 81.2922 71.7234 81.3419ZM92.2131 81.3419C90.4428 81.8224 89.5904 82.3028 88.4922 83.3962C87.0169 84.9038 86.3449 86.6599 86.3449 89.029C86.3612 93.1873 88.9348 96.2687 92.7377 96.6332C95.9832 96.948 98.4912 95.9871 100.098 93.8168C100.327 93.502 100.819 92.4915 100.819 92.3092C100.819 92.243 99.8681 92.1767 98.7207 92.1767H96.6225L96.1308 92.6903C95.5571 93.2867 94.7539 93.6677 94.0162 93.6677C93.2786 93.6677 92.1476 93.1376 91.623 92.5743C91.2296 92.127 90.6559 90.8348 90.6559 90.3875C90.6559 90.2384 91.8525 90.1887 95.7046 90.1887C98.4748 90.1887 100.819 90.1224 100.934 90.0561C101.179 89.8905 100.95 87.2563 100.589 86.2954C99.8517 84.2908 98.4584 82.601 97.0487 82.0046C96.6389 81.8389 96.1635 81.6236 95.9996 81.5407C95.6554 81.3585 92.7377 81.2094 92.2131 81.3419ZM95.4095 84.9701C96.0488 85.4174 96.6061 86.4777 96.5242 87.0741C96.475 87.4551 96.4422 87.4551 93.672 87.5048C90.4756 87.5545 90.4592 87.538 90.9674 86.3451C91.328 85.5168 92.0492 84.7713 92.7213 84.5559C93.4917 84.3074 94.7375 84.5062 95.4095 84.9701ZM116.473 81.3419C114.572 81.8555 113.244 82.7004 112.211 84.0092C111.801 84.5393 111.474 85.0364 111.474 85.1358C111.474 85.2186 111.359 85.5168 111.211 85.7984C111.064 86.0635 110.851 86.8918 110.736 87.6374C110.162 91.1827 111.736 94.4961 114.686 95.9871L115.817 96.5669H118.194C120.653 96.5669 120.866 96.5172 122.374 95.7054C123.472 95.109 125.275 92.7897 124.997 92.3258C124.931 92.243 123.997 92.1767 122.899 92.1767H120.882L120.473 92.6571C118.833 94.5292 115.768 93.5683 115.112 90.9673C115.014 90.6194 115.014 90.3212 115.096 90.2549C115.178 90.2052 117.522 90.1721 120.325 90.1887C124.325 90.1887 125.407 90.1555 125.423 89.9899C125.57 87.919 124.587 84.8541 123.358 83.5288C122.669 82.7833 121.473 81.9549 120.882 81.8058C120.62 81.7395 120.325 81.6236 120.21 81.5407C119.981 81.3585 116.981 81.2094 116.473 81.3419ZM119.03 84.5725C119.768 84.8376 120.62 85.7653 120.751 86.4777C120.948 87.5545 120.964 87.5545 117.915 87.5048C115.178 87.4551 115.162 87.4551 115.112 87.0741C115.047 86.6102 115.621 85.4671 116.112 85.0364C116.817 84.4399 118.047 84.2411 119.03 84.5725ZM130.734 81.3419C127.374 82.1537 126.161 83.3631 126.144 85.8813C126.144 88.5982 127.488 89.7414 131.472 90.4537C134.209 90.9342 134.996 91.3649 134.963 92.4086C134.947 93.1541 134.438 93.6346 133.422 93.8499C132.144 94.1316 131.144 93.8168 130.34 92.9056L129.701 92.1767H127.718C126.111 92.1767 125.734 92.2264 125.734 92.4086C125.734 92.8891 126.39 94.1482 126.931 94.7777C127.439 95.3244 127.833 95.5895 129.373 96.335C129.521 96.4178 130.324 96.5504 131.127 96.6498C132.619 96.832 135.209 96.6663 135.865 96.335C136.012 96.2687 136.438 96.0533 136.799 95.8877C137.733 95.4404 138.618 94.4298 138.946 93.4689C139.307 92.3755 139.208 90.8513 138.7 89.7911C138.094 88.5485 136.487 87.6539 134.094 87.2232C131.013 86.6765 130.963 86.6599 130.472 86.1795C129.882 85.5665 129.882 85.3511 130.472 84.6885C130.947 84.1583 130.98 84.1417 132.291 84.1417C133.602 84.1417 133.635 84.1583 134.111 84.6885C134.373 84.9867 134.586 85.3346 134.586 85.4671C134.586 85.6659 134.93 85.7156 136.635 85.7156C138.897 85.7156 138.831 85.7653 138.438 84.5891C137.717 82.5016 135.865 81.4413 132.783 81.3254C131.832 81.2922 130.914 81.2922 130.734 81.3419ZM108.933 81.6898C108.212 81.9383 107.212 82.7667 106.9 83.3631C106.589 83.9595 106.31 83.711 106.228 82.717L106.146 81.8224H102.048L101.999 88.7805C101.983 92.6074 101.999 95.9042 102.048 96.1196C102.13 96.4841 102.179 96.4841 104.146 96.451C105.277 96.4344 106.195 96.335 106.261 96.2356C106.326 96.1527 106.392 94.3967 106.392 92.3424C106.392 89.0952 106.425 88.5154 106.703 87.7865C107.277 86.2789 108.507 85.3843 110.047 85.3843C110.474 85.3843 110.654 85.3014 110.703 85.0861C110.818 84.6056 110.834 82.3691 110.736 81.8721C110.638 81.4745 110.556 81.4082 110.113 81.4248C109.818 81.4413 109.293 81.5573 108.933 81.6898ZM58.446 81.9383C58.3968 82.0543 58.3804 85.318 58.3968 89.1946L58.446 96.2356L60.3966 96.3184C61.5768 96.3681 62.4292 96.335 62.5603 96.2356C62.7406 96.103 62.7898 94.6949 62.7898 89.0621C62.8062 85.2186 62.757 81.988 62.7078 81.9052C62.5439 81.6567 58.5279 81.6898 58.446 81.9383Z" fill="#767494"/>
<path d="M368.22 75.805H363.272V68.8784H352.408L347.412 75.805H338.534L335.566 78.7735V75.805H328.639V68.8784H306.87V75.805H276.245L271.248 68.8784H260.363V92.6266L274.216 106.48H288.069V102.522L292.028 106.48H318.744V102.522L322.702 106.48H335.566V102.522L339.524 106.48H364.262L373.167 97.5741V80.7525L368.22 75.805ZM277.185 85.7H270.258V87.6791H277.185V95.5951H266.3L262.342 91.6371V70.8574H270.258V77.784H277.185V85.7ZM306.87 95.5951H283.122L279.164 91.6371V77.784H287.08V87.6791H289.059V77.784H296.975V87.6791H298.954V77.784H306.87V95.5951ZM316.765 95.5951H308.849V77.784H316.765V95.5951ZM316.765 75.805H308.849V70.8574H316.765V75.805ZM333.587 85.7H326.66V87.6791H333.587V95.5951H322.702L318.744 91.6371V70.8574H326.66V77.784H333.587V85.7ZM351.398 85.7H343.482V87.6791H351.398V95.5951H339.524L335.566 91.6371V81.742L339.524 77.784H351.398V85.7ZM371.188 95.5951H363.272V85.7H361.293V95.5951H353.377V70.8574H361.293V77.784H367.23L371.188 81.742V95.5951Z" fill="#767494"/>
<path d="M531.495 82.6857C531.495 80.1674 529.047 77.4928 524.809 77.4928C520.05 77.4928 514.823 80.9836 514.024 87.948C513.207 94.9819 517.584 98.1081 521.995 98.1081C526.407 98.1081 528.717 96.3887 531.079 94.0962C529.047 91.5431 526.424 92.7241 525.92 92.9847C525.365 93.2625 524.653 93.6446 523.194 93.6446C521.492 93.6446 519.755 92.8804 519.755 89.7022C530.662 88.6254 531.495 85.204 531.495 82.6857ZM526.094 83.1025C526.025 83.884 525.712 85.2213 520.189 85.9681C521.353 81.8347 523.576 81.522 524.601 81.522C525.556 81.522 526.164 82.2688 526.094 83.1025ZM507.615 83.7798C507.615 83.7798 505.27 91.1437 505.079 91.7516C505.01 91.1263 503.29 77.9096 503.29 77.9096C499.296 77.9096 497.16 80.7579 496.031 83.7625C496.031 83.7625 493.183 91.1437 492.939 91.7689C492.922 91.1958 492.505 83.8493 492.505 83.8493C492.262 80.1674 488.893 77.9269 486.166 77.9269L489.466 97.9518C493.651 97.9344 495.909 95.1035 497.09 92.0989C497.09 92.0989 499.609 85.5861 499.713 85.2908C499.73 85.5687 501.519 97.9518 501.519 97.9518C505.722 97.9518 507.98 95.2945 509.195 92.3942L515.083 77.9269C510.932 77.9269 508.744 80.7579 507.615 83.7798ZM546.918 77.458C544.33 77.458 542.35 78.8648 540.683 80.9315V80.9142L542.177 68.8784C538.738 68.8784 535.942 71.8656 535.403 76.3118L532.798 97.7955C534.778 97.7955 536.879 97.2224 538.008 95.7635C539.016 97.066 540.527 98.1081 542.767 98.1081C548.568 98.1081 552.545 91.3695 552.545 85.0477C552.51 79.2816 549.714 77.458 546.918 77.458ZM546.38 87.7917C545.772 91.3174 543.809 93.7141 541.916 93.7141C540.006 93.7141 539.189 92.8631 539.189 92.8631C539.554 89.7716 539.78 87.8786 540.475 86.246C541.169 84.6135 542.819 82.0083 544.539 82.0083C546.223 82.0083 546.987 84.2487 546.38 87.7917ZM567.03 77.9269H562.983L563 77.7185C563.278 75.0787 563.903 73.6892 565.97 73.4635C567.377 73.3245 568.002 72.5951 568.158 71.7962C568.28 71.1709 568.662 69 568.662 69C560.534 68.9479 557.981 72.4561 557.321 77.8054L557.304 77.9269H557.217C555.897 77.9269 554.438 79.4206 554.195 81.3136L554.108 82.0083H556.817L554.542 100.8L553.848 104.169C553.934 104.169 554.039 104.187 554.125 104.187C557.929 104.048 560.36 101.043 560.899 96.684L562.67 82.0083H563.938C565.189 82.0083 566.647 80.7579 566.908 78.6737L567.03 77.9269ZM588.079 77.5796C583.407 77.5796 578.996 81.0184 577.641 86.4197C576.287 91.821 578.336 98.2123 585.213 98.2123C592.074 98.2123 596.033 91.5605 596.033 86.0202C596.033 80.5147 592.299 77.5796 588.079 77.5796ZM589.972 87.6181C589.729 90.0669 588.652 93.7836 585.7 93.7836C582.73 93.7836 583.147 89.4417 583.442 87.3749C583.755 85.1692 584.988 82.0257 587.645 82.0257C590.024 82.0257 590.25 84.8566 589.972 87.6181ZM619.115 83.7798C619.115 83.7798 616.77 91.1437 616.579 91.7516C616.51 91.1263 614.79 77.9096 614.79 77.9096C610.796 77.9096 608.66 80.7579 607.531 83.7625C607.531 83.7625 604.683 91.1437 604.439 91.7689C604.422 91.1958 604.005 83.8493 604.005 83.8493C603.762 80.1674 600.393 77.9269 597.666 77.9269L600.949 97.9518C605.134 97.9344 607.392 95.1035 608.573 92.0989C608.573 92.0989 611.091 85.5861 611.178 85.2908C611.213 85.5687 612.984 97.9518 612.984 97.9518C617.187 97.9518 619.445 95.2945 620.661 92.3942L626.548 77.9269C622.415 77.9269 620.227 80.7579 619.115 83.7798ZM570.85 69L567.446 96.4582L566.752 99.8449C566.839 99.8449 566.943 99.8622 567.03 99.8622C570.694 99.8101 573.299 96.5971 573.786 92.5505L575.748 76.798C576.339 71.9872 573.473 69 570.85 69Z" fill="#767494"/>
</svg>
