<svg width="14" height="18" viewBox="0 0 14 18" fill="none" xmlns="http://www.w3.org/2000/svg">
<path d="M6.51934 17.1787C6.66038 17.2794 6.82937 17.3335 7.00268 17.3335C7.17599 17.3335 7.34497 17.2794 7.48601 17.1787C7.73934 16.9995 13.6935 12.7003 13.6693 7.33366C13.6693 3.65783 10.6785 0.666992 7.00268 0.666992C3.32684 0.666992 0.336011 3.65783 0.336011 7.32949C0.311844 12.7003 6.26601 16.9995 6.51934 17.1787ZM7.00268 2.33366C9.76018 2.33366 12.0027 4.57616 12.0027 7.33783C12.0202 11.0362 8.34601 14.357 7.00268 15.4462C5.66018 14.3562 1.98518 11.0345 2.00268 7.33366C2.00268 4.57616 4.24518 2.33366 7.00268 2.33366Z" fill="#0D257B"/>
</svg>
