<svg width="14" height="14" viewBox="0 0 14 14" fill="none" xmlns="http://www.w3.org/2000/svg">
<path d="M6.8923 13.9997C6.77907 13.912 6.65488 13.8353 6.54896 13.7367C5.21215 12.4656 4.02509 11.0704 3.0864 9.47791C2.53487 8.53922 2.10023 7.55305 1.87377 6.48287C1.34051 3.9663 2.56409 1.51548 4.89438 0.448951C7.02013 -0.522612 9.64262 0.123879 11.0963 1.9903C12.1994 3.40382 12.4806 4.9963 12.0715 6.72393C11.8049 7.8562 11.2972 8.88621 10.6799 9.86508C9.77777 11.3005 8.68202 12.5752 7.45113 13.7367C7.34886 13.8353 7.22467 13.912 7.10779 13.9997C7.0384 13.9997 6.96535 13.9997 6.8923 13.9997ZM9.91656 5.33964C9.98961 3.76176 8.72219 2.41399 7.09684 2.33364C5.51896 2.25693 4.16754 3.5207 4.08718 5.14606C4.00683 6.73489 5.28155 8.09362 6.92152 8.16667C8.49574 8.23606 9.84351 6.96865 9.91656 5.33964Z" fill="#0D257B"/>
</svg>
