<svg width="53" height="56" viewBox="0 0 53 56" fill="none" xmlns="http://www.w3.org/2000/svg">
<path d="M0.735 21.5V19.673L6.573 14.129C7.063 13.667 7.427 13.261 7.665 12.911C7.903 12.561 8.057 12.239 8.127 11.945C8.211 11.637 8.253 11.35 8.253 11.084C8.253 10.412 8.022 9.894 7.56 9.53C7.098 9.152 6.419 8.963 5.523 8.963C4.809 8.963 4.158 9.089 3.57 9.341C2.996 9.593 2.499 9.978 2.079 10.496L0.168 9.026C0.742 8.256 1.512 7.661 2.478 7.241C3.458 6.807 4.55 6.59 5.754 6.59C6.818 6.59 7.742 6.765 8.526 7.115C9.324 7.451 9.933 7.934 10.353 8.564C10.787 9.194 11.004 9.943 11.004 10.811C11.004 11.287 10.941 11.763 10.815 12.239C10.689 12.701 10.451 13.191 10.101 13.709C9.751 14.227 9.24 14.808 8.568 15.452L3.549 20.219L2.982 19.19H11.571V21.5H0.735ZM19.2787 21.71C18.1167 21.71 17.0667 21.416 16.1287 20.828C15.2047 20.24 14.4767 19.386 13.9447 18.266C13.4127 17.132 13.1467 15.76 13.1467 14.15C13.1467 12.54 13.4127 11.175 13.9447 10.055C14.4767 8.921 15.2047 8.06 16.1287 7.472C17.0667 6.884 18.1167 6.59 19.2787 6.59C20.4547 6.59 21.5047 6.884 22.4287 7.472C23.3527 8.06 24.0807 8.921 24.6127 10.055C25.1587 11.175 25.4317 12.54 25.4317 14.15C25.4317 15.76 25.1587 17.132 24.6127 18.266C24.0807 19.386 23.3527 20.24 22.4287 20.828C21.5047 21.416 20.4547 21.71 19.2787 21.71ZM19.2787 19.337C19.9647 19.337 20.5597 19.155 21.0637 18.791C21.5677 18.413 21.9597 17.839 22.2397 17.069C22.5337 16.299 22.6807 15.326 22.6807 14.15C22.6807 12.96 22.5337 11.987 22.2397 11.231C21.9597 10.461 21.5677 9.894 21.0637 9.53C20.5597 9.152 19.9647 8.963 19.2787 8.963C18.6207 8.963 18.0327 9.152 17.5147 9.53C17.0107 9.894 16.6117 10.461 16.3177 11.231C16.0377 11.987 15.8977 12.96 15.8977 14.15C15.8977 15.326 16.0377 16.299 16.3177 17.069C16.6117 17.839 17.0107 18.413 17.5147 18.791C18.0327 19.155 18.6207 19.337 19.2787 19.337ZM33.4085 21.71C32.2465 21.71 31.1965 21.416 30.2585 20.828C29.3345 20.24 28.6065 19.386 28.0745 18.266C27.5425 17.132 27.2765 15.76 27.2765 14.15C27.2765 12.54 27.5425 11.175 28.0745 10.055C28.6065 8.921 29.3345 8.06 30.2585 7.472C31.1965 6.884 32.2465 6.59 33.4085 6.59C34.5845 6.59 35.6345 6.884 36.5585 7.472C37.4825 8.06 38.2105 8.921 38.7425 10.055C39.2885 11.175 39.5615 12.54 39.5615 14.15C39.5615 15.76 39.2885 17.132 38.7425 18.266C38.2105 19.386 37.4825 20.24 36.5585 20.828C35.6345 21.416 34.5845 21.71 33.4085 21.71ZM33.4085 19.337C34.0945 19.337 34.6895 19.155 35.1935 18.791C35.6975 18.413 36.0895 17.839 36.3695 17.069C36.6635 16.299 36.8105 15.326 36.8105 14.15C36.8105 12.96 36.6635 11.987 36.3695 11.231C36.0895 10.461 35.6975 9.894 35.1935 9.53C34.6895 9.152 34.0945 8.963 33.4085 8.963C32.7505 8.963 32.1625 9.152 31.6445 9.53C31.1405 9.894 30.7415 10.461 30.4475 11.231C30.1675 11.987 30.0275 12.96 30.0275 14.15C30.0275 15.326 30.1675 16.299 30.4475 17.069C30.7415 17.839 31.1405 18.413 31.6445 18.791C32.1625 19.155 32.7505 19.337 33.4085 19.337ZM45.667 18.875V9.425H47.914V18.875H45.667ZM41.95 15.2V13.1H51.631V15.2H41.95Z" fill="#323232"/>
<path d="M19.9 52.5H18.556L18.542 45.36L15 51.31H14.356L10.814 45.402V52.5H9.47V42.7H10.618L14.706 49.588L18.738 42.7H19.886L19.9 52.5ZM25.8231 52.584C23.5971 52.584 21.9591 51.002 21.9591 48.79C21.9591 46.578 23.5971 45.01 25.8231 45.01C28.0491 45.01 29.6731 46.578 29.6731 48.79C29.6731 51.002 28.0491 52.584 25.8231 52.584ZM25.8231 51.408C27.2511 51.408 28.3151 50.372 28.3151 48.79C28.3151 47.208 27.2511 46.186 25.8231 46.186C24.3951 46.186 23.3171 47.208 23.3171 48.79C23.3171 50.372 24.3951 51.408 25.8231 51.408ZM32.8198 46.326C33.2958 45.458 34.2198 45.01 35.5218 45.01V46.312C35.4098 46.298 35.3118 46.298 35.2138 46.298C33.7718 46.298 32.8758 47.18 32.8758 48.804V52.5H31.5318V45.08H32.8198V46.326ZM43.8159 48.832C43.8159 48.944 43.8019 49.112 43.7879 49.238H37.7679C37.9359 50.54 38.9859 51.408 40.4559 51.408C41.3239 51.408 42.0519 51.114 42.5979 50.512L43.3399 51.38C42.6679 52.164 41.6459 52.584 40.4139 52.584C38.0199 52.584 36.4239 51.002 36.4239 48.79C36.4239 46.592 38.0059 45.01 40.1479 45.01C42.2899 45.01 43.8159 46.55 43.8159 48.832ZM40.1479 46.144C38.8599 46.144 37.9079 47.012 37.7679 48.272H42.5279C42.3879 47.026 41.4499 46.144 40.1479 46.144Z" fill="#323232"/>
</svg>
