<svg width="24" height="25" viewBox="0 0 24 25" fill="none" xmlns="http://www.w3.org/2000/svg">
<g clip-path="url(#clip0_8863_10823)">
<path d="M1 5.1404H3.736C3.95064 5.93013 4.41917 6.62729 5.06933 7.12433C5.71948 7.62136 6.51512 7.89065 7.3335 7.89065C8.15188 7.89065 8.94752 7.62136 9.59767 7.12433C10.2478 6.62729 10.7164 5.93013 10.931 5.1404H23C23.2652 5.1404 23.5196 5.03504 23.7071 4.8475C23.8946 4.65997 24 4.40561 24 4.1404C24 3.87518 23.8946 3.62083 23.7071 3.43329C23.5196 3.24575 23.2652 3.1404 23 3.1404H10.931C10.7164 2.35066 10.2478 1.6535 9.59767 1.15646C8.94752 0.659428 8.15188 0.390137 7.3335 0.390137C6.51512 0.390137 5.71948 0.659428 5.06933 1.15646C4.41917 1.6535 3.95064 2.35066 3.736 3.1404H1C0.734784 3.1404 0.48043 3.24575 0.292893 3.43329C0.105357 3.62083 0 3.87518 0 4.1404C0 4.40561 0.105357 4.65997 0.292893 4.8475C0.48043 5.03504 0.734784 5.1404 1 5.1404ZM7.333 2.3904C7.67912 2.3904 8.01746 2.49303 8.30525 2.68532C8.59303 2.87762 8.81734 3.15093 8.94979 3.4707C9.08224 3.79047 9.1169 4.14234 9.04937 4.4818C8.98185 4.82127 8.81518 5.13309 8.57044 5.37783C8.3257 5.62257 8.01388 5.78925 7.67441 5.85677C7.33494 5.92429 6.98307 5.88964 6.6633 5.75718C6.34353 5.62473 6.07022 5.40043 5.87793 5.11264C5.68564 4.82486 5.583 4.48651 5.583 4.1404C5.58353 3.67643 5.76807 3.23162 6.09615 2.90354C6.42422 2.57547 6.86903 2.39092 7.333 2.3904Z" fill="#0D257B"/>
<path d="M23 11.3914H20.264C20.0497 10.6015 19.5814 9.90404 18.9313 9.4068C18.2812 8.90956 17.4855 8.64014 16.667 8.64014C15.8485 8.64014 15.0528 8.90956 14.4027 9.4068C13.7526 9.90404 13.2843 10.6015 13.07 11.3914H1C0.734784 11.3914 0.48043 11.4967 0.292893 11.6843C0.105357 11.8718 0 12.1262 0 12.3914C0 12.6566 0.105357 12.9109 0.292893 13.0985C0.48043 13.286 0.734784 13.3914 1 13.3914H13.07C13.2843 14.1813 13.7526 14.8787 14.4027 15.3759C15.0528 15.8732 15.8485 16.1426 16.667 16.1426C17.4855 16.1426 18.2812 15.8732 18.9313 15.3759C19.5814 14.8787 20.0497 14.1813 20.264 13.3914H23C23.2652 13.3914 23.5196 13.286 23.7071 13.0985C23.8946 12.9109 24 12.6566 24 12.3914C24 12.1262 23.8946 11.8718 23.7071 11.6843C23.5196 11.4967 23.2652 11.3914 23 11.3914ZM16.667 14.1414C16.3209 14.1414 15.9825 14.0387 15.6948 13.8464C15.407 13.6541 15.1827 13.3808 15.0502 13.0611C14.9178 12.7413 14.8831 12.3894 14.9506 12.05C15.0181 11.7105 15.1848 11.3987 15.4296 11.1539C15.6743 10.9092 15.9861 10.7425 16.3256 10.675C16.6651 10.6075 17.0169 10.6421 17.3367 10.7746C17.6565 10.907 17.9298 11.1313 18.1221 11.4191C18.3144 11.7069 18.417 12.0453 18.417 12.3914C18.4165 12.8553 18.2319 13.3001 17.9039 13.6282C17.5758 13.9563 17.131 14.1408 16.667 14.1414Z" fill="#0D257B"/>
<path d="M23 19.6404H10.931C10.7164 18.8507 10.2478 18.1535 9.59767 17.6565C8.94752 17.1594 8.15188 16.8901 7.3335 16.8901C6.51512 16.8901 5.71948 17.1594 5.06933 17.6565C4.41917 18.1535 3.95064 18.8507 3.736 19.6404H1C0.734784 19.6404 0.48043 19.7458 0.292893 19.9333C0.105357 20.1208 0 20.3752 0 20.6404C0 20.9056 0.105357 21.16 0.292893 21.3475C0.48043 21.535 0.734784 21.6404 1 21.6404H3.736C3.95064 22.4301 4.41917 23.1273 5.06933 23.6243C5.71948 24.1214 6.51512 24.3907 7.3335 24.3907C8.15188 24.3907 8.94752 24.1214 9.59767 23.6243C10.2478 23.1273 10.7164 22.4301 10.931 21.6404H23C23.2652 21.6404 23.5196 21.535 23.7071 21.3475C23.8946 21.16 24 20.9056 24 20.6404C24 20.3752 23.8946 20.1208 23.7071 19.9333C23.5196 19.7458 23.2652 19.6404 23 19.6404ZM7.333 22.3904C6.98688 22.3904 6.64854 22.2878 6.36075 22.0955C6.07297 21.9032 5.84866 21.6299 5.71621 21.3101C5.58376 20.9903 5.5491 20.6385 5.61663 20.299C5.68415 19.9595 5.85082 19.6477 6.09556 19.403C6.3403 19.1582 6.65213 18.9915 6.99159 18.924C7.33106 18.8565 7.68293 18.8912 8.0027 19.0236C8.32247 19.1561 8.59578 19.3804 8.78807 19.6681C8.98036 19.9559 9.083 20.2943 9.083 20.6404C9.08221 21.1043 8.89758 21.5489 8.56956 21.877C8.24154 22.205 7.79689 22.3896 7.333 22.3904Z" fill="#0D257B"/>
</g>
<defs>
<clipPath id="clip0_8863_10823">
<rect width="24" height="24" fill="white" transform="translate(0 0.390137)"/>
</clipPath>
</defs>
</svg>
