<svg width="80" height="80" viewBox="0 0 80 80" fill="none" xmlns="http://www.w3.org/2000/svg">
<path d="M40 80C62.0914 80 80 62.0914 80 40C80 17.9086 62.0914 0 40 0C17.9086 0 0 17.9086 0 40C0 62.0914 17.9086 80 40 80Z" fill="#F5F5F5"/>
<g clip-path="url(#clip0_4308_41126)">
<path d="M40.9962 33.4677C42.7753 33.4677 44.222 32.0209 44.222 30.2419C44.222 29.4314 43.9115 28.6984 43.4156 28.1306V18.9516C43.4156 17.6177 42.3301 16.5322 40.9962 16.5322C39.6623 16.5322 38.5769 17.6177 38.5769 18.9516V28.1306C38.0809 28.6975 37.7704 29.4306 37.7704 30.2419C37.7704 32.0209 39.2172 33.4677 40.9962 33.4677ZM40.1898 18.9516C40.1898 18.5072 40.5511 18.1451 40.9962 18.1451C41.4414 18.1451 41.8027 18.5072 41.8027 18.9516V27.1306C41.543 27.0629 41.2761 27.0161 40.9962 27.0161C40.7164 27.0161 40.4494 27.0629 40.1898 27.1306V18.9516ZM40.9962 28.629C41.8857 28.629 42.6091 29.3524 42.6091 30.2419C42.6091 31.1314 41.8857 31.8548 40.9962 31.8548C40.1067 31.8548 39.3833 31.1314 39.3833 30.2419C39.3833 29.3524 40.1067 28.629 40.9962 28.629ZM24.8672 43.9516C24.8672 46.6201 27.0373 48.7903 29.7059 48.7903C32.3744 48.7903 34.5446 46.6201 34.5446 43.9516C34.5446 41.283 32.3744 39.1129 29.7059 39.1129C27.0373 39.1129 24.8672 41.283 24.8672 43.9516ZM32.9317 43.9516C32.9317 45.7306 31.4849 47.1774 29.7059 47.1774C27.9269 47.1774 26.4801 45.7306 26.4801 43.9516C26.4801 42.1725 27.9269 40.7258 29.7059 40.7258C31.4849 40.7258 32.9317 42.1725 32.9317 43.9516Z" fill="#CC922F"/>
<path d="M63.5806 53.6287C63.2081 53.6287 62.8597 53.7198 62.5444 53.8715L61.4952 52.8223L63.1081 51.2094L60.6702 48.7715C60.8435 48.4707 61.004 48.1618 61.1452 47.8416L65.1936 47.0319V40.8707L61.1452 40.061C59.6435 36.6577 56.2427 34.2739 52.2903 34.2739C51.1847 34.2739 50.0944 34.4674 49.0645 34.8319V32.661H57.9355V34.2739H59.5484V32.661H61.1613C62.4952 32.661 63.5806 31.5755 63.5806 30.2416C63.5806 28.9077 62.4952 27.8223 61.1613 27.8223H45.8387V29.4352H61.1613C61.6065 29.4352 61.9677 29.7973 61.9677 30.2416C61.9677 30.686 61.6065 31.0481 61.1613 31.0481H45.8387V32.661H47.4516V35.5739C46.9745 35.8487 46.5218 36.1638 46.0984 36.5158L47.1315 37.7545C48.3685 36.7231 49.8903 36.0924 51.4831 35.9311V37.4997H53.096V35.9279C53.9815 36.0158 54.821 36.2537 55.5992 36.6053L54.8169 37.961L56.2137 38.7674L56.9944 37.415C57.6989 37.9236 58.3172 38.5419 58.8258 39.2465L57.4734 40.0271L58.2798 41.4239L59.6355 40.6416C59.9879 41.4198 60.225 42.2602 60.3129 43.1448H58.7419V44.7577H60.3137C60.2258 45.6432 59.9879 46.4836 59.6363 47.261L58.2806 46.4787L57.4742 47.8755L58.8266 48.6561C58.318 49.3607 57.6997 49.979 56.9952 50.4876L56.2145 49.1352L54.8177 49.9416L55.6 51.2973C54.8218 51.6497 53.9815 51.8868 53.0968 51.9747V50.4029H51.4839V51.9747C47.4145 51.569 44.2258 48.1255 44.2258 43.9513C44.2272 42.0664 44.888 40.2414 46.0935 38.7924L44.8556 37.7594C43.9347 38.8634 43.2806 40.1561 42.9242 41.5319H41.8065V35.0803H40.1935V41.5319H39.0758C38.7194 40.1561 38.0653 38.8634 37.1444 37.7594L35.9065 38.7924C37.112 40.2414 37.7728 42.0664 37.7742 43.9513C37.7742 48.1263 34.5855 51.569 30.5161 51.9747V50.4029H28.9032V51.9747C28.0177 51.8868 27.1782 51.6489 26.4 51.2973L27.1823 49.9416L25.7855 49.1352L25.0048 50.4876C24.3003 49.979 23.682 49.3607 23.1734 48.6561L24.5258 47.8755L23.7194 46.4787L22.3637 47.261C22.0121 46.4827 21.7742 45.6432 21.6863 44.7577H23.2581V43.1448H21.6863C21.7742 42.2594 22.0121 41.4198 22.3637 40.6416L23.7194 41.4239L24.5258 40.0271L23.1734 39.2465C23.682 38.5419 24.3003 37.9236 25.0048 37.415L25.7855 38.7674L27.1823 37.961L26.4 36.6053C27.1782 36.2529 28.0185 36.0158 28.9032 35.9279V37.4997H30.5161V35.9311C32.1089 36.0924 33.6306 36.7231 34.8677 37.7545L35.9008 36.5158C35.4774 36.1638 35.0247 35.8487 34.5476 35.5739V32.661H36.1605V31.0481H20.8387C20.3935 31.0481 20.0323 30.686 20.0323 30.2416C20.0323 29.7973 20.3935 29.4352 20.8387 29.4352H36.1613V27.8223H20.8387C19.5048 27.8223 18.4194 28.9077 18.4194 30.2416C18.4194 31.5755 19.5048 32.661 20.8387 32.661H22.4516V34.2739H24.0645V32.661H32.9355V34.8319C31.9056 34.4674 30.8153 34.2739 29.7097 34.2739C25.7573 34.2739 22.3565 36.6577 20.8548 40.061L16.8065 40.8707V47.0319L20.8548 47.8416C20.996 48.1618 21.1565 48.4707 21.3298 48.7715L18.8919 51.2094L20.5048 52.8223L19.4556 53.8715C19.1403 53.7198 18.7919 53.6287 18.4194 53.6287C17.0855 53.6287 16 54.7142 16 56.0481C16 57.3819 17.0855 58.4674 18.4194 58.4674C19.7532 58.4674 20.8387 57.3819 20.8387 56.0481C20.8387 55.6755 20.7476 55.3271 20.596 55.0118L21.6452 53.9626L23.2581 55.5755L25.9613 52.8723C27.1145 53.3594 28.3815 53.6287 29.7097 53.6287C34.2097 53.6287 37.9903 50.5376 39.0685 46.3707H42.9315C44.0097 50.5376 47.7911 53.6287 52.2903 53.6287C53.6185 53.6287 54.8855 53.3594 56.0387 52.8723L58.7419 55.5755L60.3548 53.9626L61.404 55.0118C61.2524 55.3271 61.1613 55.6755 61.1613 56.0481C61.1613 57.3819 62.2468 58.4674 63.5806 58.4674C64.9145 58.4674 66 57.3819 66 56.0481C66 54.7142 64.9145 53.6287 63.5806 53.6287ZM61.7242 41.8215L63.5806 42.1932V45.7094L61.7242 46.0811C61.879 45.3948 61.9677 44.6836 61.9677 43.9513C61.9677 43.219 61.879 42.5078 61.7242 41.8215ZM20.2758 46.0811L18.4194 45.7094V42.1932L20.2758 41.8215C20.121 42.5078 20.0323 43.219 20.0323 43.9513C20.0323 44.6836 20.121 45.3948 20.2758 46.0811ZM18.4194 56.8545C17.9742 56.8545 17.6129 56.4924 17.6129 56.0481C17.6129 55.6037 17.9742 55.2416 18.4194 55.2416C18.8645 55.2416 19.2258 55.6037 19.2258 56.0481C19.2258 56.4924 18.8645 56.8545 18.4194 56.8545ZM23.2581 53.2948L21.1726 51.2094L22.2605 50.1215C22.8919 50.8827 23.6411 51.54 24.4742 52.0787L23.2581 53.2948ZM39.346 44.7577C39.3685 44.4908 39.3871 44.2239 39.3871 43.9513C39.3871 43.6811 39.3742 43.4126 39.3516 43.1448H42.6484C42.6252 43.413 42.6134 43.6821 42.6129 43.9513C42.6129 44.2239 42.6315 44.4908 42.654 44.7577H39.346ZM58.7419 53.2948L57.5258 52.0779C58.3589 51.5392 59.1081 50.8819 59.7395 50.1207L60.8274 51.2094L58.7419 53.2948ZM63.5806 56.8545C63.1355 56.8545 62.7742 56.4924 62.7742 56.0481C62.7742 55.6037 63.1355 55.2416 63.5806 55.2416C64.0258 55.2416 64.3871 55.6037 64.3871 56.0481C64.3871 56.4924 64.0258 56.8545 63.5806 56.8545Z" fill="#0D257B"/>
<path d="M57.1305 43.952C57.1305 41.2834 54.9604 39.1133 52.2918 39.1133C49.6233 39.1133 47.4531 41.2834 47.4531 43.952C47.4531 46.6205 49.6233 48.7907 52.2918 48.7907C54.9604 48.7907 57.1305 46.6205 57.1305 43.952ZM49.066 43.952C49.066 42.173 50.5128 40.7262 52.2918 40.7262C54.0709 40.7262 55.5176 42.173 55.5176 43.952C55.5176 45.731 54.0709 47.1778 52.2918 47.1778C50.5128 47.1778 49.066 45.731 49.066 43.952Z" fill="#CC922F"/>
</g>
<defs>
<clipPath id="clip0_4308_41126">
<rect width="50" height="50" fill="white" transform="translate(16 12.5)"/>
</clipPath>
</defs>
</svg>
