<svg width="125" height="29" viewBox="0 0 125 29" fill="none" xmlns="http://www.w3.org/2000/svg">
<path d="M35.6094 23.2316V4.56494H47.0001V8.17784H39.9248V13.1958H47.0001V16.7585H39.9248V23.2316H35.6094Z" fill="#323232"/>
<path d="M49.8594 23.2315V10.3857H53.9239V13.0452C54.1246 12.1419 54.5762 11.3892 55.2286 10.8875C55.8809 10.3857 56.6336 10.1348 57.4365 10.1348C57.8379 10.1348 58.2393 10.1849 58.4902 10.2351V14.0487C57.9884 13.9986 57.587 13.9484 57.2859 13.9484C55.0279 13.9484 53.9239 15.4036 53.9239 18.2136V23.1814H49.8594V23.2315Z" fill="#323232"/>
<path d="M65.5137 23.5328C63.6571 23.5328 62.1517 22.8804 61.0979 21.626C59.994 20.3715 59.4922 18.7156 59.4922 16.7586C59.4922 14.8016 60.0442 13.1958 61.1481 11.8912C62.2521 10.6367 63.7574 9.98438 65.5639 9.98438C66.4671 9.98438 67.27 10.1851 67.9725 10.5865C68.675 10.988 69.227 11.4898 69.5782 12.1923V10.3356H73.6428V23.1815H69.5782V21.3751C69.227 22.0274 68.675 22.5292 67.9223 22.9306C67.2198 23.3822 66.4169 23.5328 65.5137 23.5328ZM66.6678 20.1708C67.6212 20.1708 68.4241 19.8697 68.9259 19.2174C69.4277 18.565 69.7288 17.7622 69.7288 16.8087C69.7288 15.8553 69.4779 15.0525 68.9259 14.4001C68.3739 13.7478 67.6212 13.4467 66.6678 13.4467C65.7646 13.4467 65.0119 13.7478 64.4599 14.4001C63.908 15.0023 63.6069 15.8553 63.6069 16.8087C63.6069 17.8123 63.908 18.6152 64.4599 19.2675C65.0119 19.8697 65.7646 20.1708 66.6678 20.1708Z" fill="#323232"/>
<path d="M77.0078 23.2318V10.3859H81.0723V12.2426C81.3734 11.5902 81.825 11.0383 82.4774 10.6368C83.1297 10.2354 83.8824 10.0347 84.7354 10.0347C86.7426 10.0347 88.0975 10.8375 88.7498 12.3931C89.1011 11.6906 89.653 11.0884 90.3555 10.687C91.1082 10.2354 91.9111 10.0347 92.8143 10.0347C95.8753 10.0347 97.3806 11.7909 97.3806 15.2533V23.2318H93.2659V16.006C93.2659 14.2999 92.6136 13.497 91.3591 13.497C89.9039 13.497 89.2014 14.5508 89.2014 16.6583V23.282H85.1871V15.9558C85.1871 14.2999 84.5347 13.4469 83.2802 13.4469C82.5777 13.4469 82.0258 13.6978 81.6745 14.1494C81.3232 14.601 81.1225 15.454 81.1225 16.6081V23.2318H77.0078Z" fill="#323232"/>
<path d="M113.341 16.1064C113.341 16.6583 113.291 17.2103 113.24 17.9128H103.757C103.807 18.7659 104.058 19.4182 104.61 19.8698C105.162 20.3214 105.864 20.5723 106.767 20.5723C108.022 20.5723 108.825 20.1709 109.176 19.368H113.19C112.99 20.6225 112.287 21.6762 111.133 22.4289C109.929 23.2318 108.524 23.6332 106.817 23.6332C104.61 23.6332 102.903 23.0311 101.649 21.8268C100.395 20.6225 99.7422 18.9666 99.7422 16.8089C99.7422 14.7013 100.395 13.0454 101.649 11.8411C102.903 10.6368 104.61 10.0347 106.667 10.0347C108.674 10.0347 110.28 10.5866 111.534 11.7408C112.688 12.8447 113.341 14.2999 113.341 16.1064ZM103.706 15.3537H109.276C109.276 14.5006 109.025 13.8483 108.574 13.3967C108.122 12.9451 107.47 12.6942 106.567 12.6942C105.714 12.6942 105.011 12.9451 104.509 13.4469C104.007 13.9486 103.757 14.601 103.706 15.3537Z" fill="#323232"/>
<path d="M115.648 23.2315V10.3857H119.713V13.0452C119.914 12.1419 120.365 11.3892 121.018 10.8875C121.67 10.3857 122.423 10.1348 123.226 10.1348C123.627 10.1348 124.028 10.1849 124.279 10.2351V14.0487C123.777 13.9986 123.376 13.9484 123.075 13.9484C120.817 13.9484 119.713 15.4036 119.713 18.2136V23.1814H115.648V23.2315Z" fill="#323232"/>
<path d="M19.0495 0.5V9.83333H9.71618L0.382812 0.5H19.0495ZM0.382812 9.83333H9.71618L19.0495 19.1667H9.71618V28.5L0.382812 19.1667V9.83333Z" fill="#323232"/>
</svg>
