<svg width="99" height="29" viewBox="0 0 99 29" fill="none" xmlns="http://www.w3.org/2000/svg">
<path d="M11.1153 5.23926V13.0989H3.89455V5.23926H0.46875V24.0013H3.89548V16.3967H11.1143V24.0013H14.542V5.23926H11.1153ZM25.5103 17.9371C25.5103 18.6891 25.2116 19.4103 24.6798 19.9421C24.1481 20.4738 23.4268 20.7725 22.6748 20.7725C21.9228 20.7725 21.2016 20.4738 20.6698 19.9421C20.138 19.4103 19.8393 18.6891 19.8393 17.9371V9.90031H16.5888V17.9371C16.5888 19.5496 17.2293 21.096 18.3696 22.2362C19.5098 23.3764 21.0563 24.017 22.6688 24.017C24.2813 24.017 25.8278 23.3764 26.968 22.2362C28.1082 21.096 28.7488 19.5496 28.7488 17.9371V9.90031H25.5103V17.9371ZM49.5958 10.7285C49.5958 9.0805 50.6854 8.55838 51.879 8.55838C52.8416 8.55838 54.1122 9.29102 54.9441 10.1795L57.0724 7.66994C56.0096 6.23249 53.8544 5.23926 52.0895 5.23926C48.5626 5.23926 46.0123 7.30455 46.0123 10.7285C46.0123 17.0811 53.7765 15.0649 53.7765 18.6205C53.7765 19.7167 52.7118 20.6849 51.4932 20.6849C49.5707 20.6849 48.9475 19.7455 48.0646 18.7513L45.7016 21.208C47.2133 23.0627 49.0773 24.005 51.3096 24.005C54.6603 24.005 57.3553 21.9146 57.3553 18.6465C57.3553 11.5947 49.5902 13.7861 49.5902 10.7285M97.6293 21.0039C95.7087 21.0039 95.1625 20.173 95.1625 18.9006V13.2667H98.1487V10.4122H95.1625V6.64611L91.8665 8.12529V19.6008C91.8665 22.536 93.8919 24.0152 96.6686 24.0152C97.1044 24.0226 97.5403 23.9873 97.9688 23.9113L98.7728 20.9511C98.4102 20.9761 97.9938 21.0012 97.6293 21.0012M37.8837 9.99398C36.2737 9.99398 35.1497 10.4614 34.0628 11.527V5.35147H30.8076V16.7982C30.8076 21.0828 33.9051 24.0189 37.3866 24.0189C41.2482 24.0189 44.6453 21.0308 44.6453 17.0078C44.6453 13.0349 41.5191 9.99676 37.8837 9.99676M37.8633 20.7424C37.3781 20.7424 36.8977 20.6469 36.4495 20.4612C36.0013 20.2755 35.594 20.0034 35.251 19.6604C34.908 19.3173 34.6358 18.9101 34.4502 18.4619C34.2645 18.0137 34.169 17.5333 34.169 17.0482C34.169 16.563 34.2645 16.0826 34.4502 15.6344C34.6358 15.1862 34.908 14.779 35.251 14.4359C35.594 14.0929 36.0013 13.8208 36.4495 13.6351C36.8977 13.4495 37.3781 13.3539 37.8633 13.3539C38.843 13.3539 39.7827 13.7431 40.4755 14.4359C41.1683 15.1287 41.5575 16.0684 41.5575 17.0482C41.5575 18.0279 41.1683 18.9676 40.4755 19.6604C39.7827 20.3532 38.843 20.7424 37.8633 20.7424ZM73.236 16.8372C73.236 12.8067 69.8464 9.82612 65.9773 9.82612C62.4968 9.82612 59.3983 12.7613 59.3983 17.0468V28.5H62.6535V22.3162C63.7386 23.3799 64.8644 23.8492 66.4725 23.8492C70.1079 23.8492 73.2351 20.811 73.2351 16.8372M70.1534 16.7964C70.1534 17.7761 69.7641 18.7158 69.0713 19.4086C68.3785 20.1014 67.4389 20.4906 66.4591 20.4906C65.4793 20.4906 64.5396 20.1014 63.8468 19.4086C63.154 18.7158 62.7648 17.7761 62.7648 16.7964C62.7648 15.8166 63.154 14.8769 63.8468 14.1841C64.5396 13.4913 65.4793 13.1021 66.4591 13.1021C67.4389 13.1021 68.3785 13.4913 69.0713 14.1841C69.7641 14.8769 70.1534 15.8166 70.1534 16.7964Z" fill="#323232"/>
<path d="M83.723 9.54389V6.27299C84.1553 6.07098 84.5213 5.75035 84.7784 5.34844C85.0355 4.94653 85.1731 4.47985 85.1753 4.00274V3.92763C85.1753 2.53654 84.0476 1.40884 82.6565 1.40884H82.5814C81.9134 1.40884 81.2727 1.67421 80.8003 2.14657C80.328 2.61894 80.0626 3.2596 80.0626 3.92763V4.00274C80.0648 4.47985 80.2025 4.94653 80.4596 5.34844C80.7167 5.75035 81.0827 6.07098 81.5149 6.27299V9.54389C80.2726 9.73411 79.1026 10.2492 78.1234 11.037L69.1527 4.05004C69.2167 3.81912 69.2501 3.58171 69.2538 3.34337C69.2549 2.78203 69.0895 2.23297 68.7785 1.76564C68.4675 1.29832 68.0249 0.933721 67.5067 0.717973C66.9884 0.502224 66.4179 0.445015 65.8671 0.553583C65.3164 0.662151 64.8102 0.931618 64.4126 1.3279C64.015 1.72418 63.7439 2.22947 63.6335 2.77986C63.5231 3.33025 63.5785 3.901 63.7926 4.41993C64.0066 4.93886 64.3698 5.38265 64.8361 5.69517C65.3024 6.00768 65.8509 6.17488 66.4122 6.17561C66.9033 6.1733 67.3853 6.0422 67.8098 5.79539L76.6433 12.6692C75.8497 13.868 75.4358 15.278 75.4553 16.7156C75.4748 18.1531 75.9269 19.5514 76.7527 20.7282L74.0661 23.4158C73.8489 23.3463 73.6226 23.3094 73.3946 23.3063C72.9338 23.3067 72.4835 23.4436 72.1005 23.6999C71.7176 23.9561 71.4191 24.3201 71.243 24.7459C71.0668 25.1716 71.0208 25.6401 71.1108 26.092C71.2008 26.5439 71.4227 26.959 71.7485 27.2848C72.0744 27.6106 72.4894 27.8325 72.9413 27.9225C73.3933 28.0125 73.8617 27.9665 74.2875 27.7903C74.7133 27.6142 75.0773 27.3158 75.3335 26.9328C75.5897 26.5498 75.7267 26.0995 75.727 25.6387C75.724 25.4107 75.6872 25.1844 75.6176 24.9673L78.2755 22.3085C79.1422 22.9757 80.1502 23.4357 81.2222 23.6533C82.2942 23.8708 83.4017 23.8401 84.46 23.5635C85.5183 23.2869 86.4992 22.7717 87.3276 22.0574C88.156 21.3431 88.8099 20.4487 89.2393 19.4427C89.6686 18.4367 89.862 17.3457 89.8046 16.2534C89.7472 15.1611 89.4405 14.0964 88.908 13.1409C88.3756 12.1854 87.6315 11.3645 86.7327 10.741C85.834 10.1175 84.8045 9.70803 83.723 9.54389ZM82.6213 20.3016C82.1301 20.3151 81.6411 20.23 81.1834 20.0514C80.7256 19.8727 80.3083 19.6042 79.956 19.2615C79.6038 18.9188 79.3239 18.5091 79.1327 18.0564C78.9415 17.6037 78.843 17.1173 78.843 16.6259C78.843 16.1345 78.9415 15.6481 79.1327 15.1954C79.3239 14.7427 79.6038 14.3329 79.956 13.9903C80.3083 13.6476 80.7256 13.379 81.1834 13.2004C81.6411 13.0217 82.1301 12.9367 82.6213 12.9502C83.5733 12.9835 84.4753 13.385 85.1372 14.0702C85.7991 14.7553 86.1693 15.6705 86.1697 16.6232C86.1702 17.5758 85.801 18.4914 85.1398 19.1772C84.4786 19.863 83.577 20.2654 82.625 20.2997" fill="#323232"/>
</svg>
