<svg width="71" height="29" viewBox="0 0 71 29" fill="none" xmlns="http://www.w3.org/2000/svg">
<path fill-rule="evenodd" clip-rule="evenodd" d="M70.1952 14.984C70.1952 10.028 67.7946 6.11749 63.2063 6.11749C58.5987 6.11749 55.8109 10.028 55.8109 14.9453C55.8109 20.7724 59.102 23.715 63.8258 23.715C66.1296 23.715 67.872 23.1923 69.1885 22.4566V18.5848C67.872 19.243 66.3619 19.6495 64.4453 19.6495C62.5674 19.6495 60.9025 18.9913 60.6895 16.7069H70.1564C70.1564 16.4553 70.1952 15.4486 70.1952 14.984ZM60.6314 13.1449C60.6314 10.9573 61.9673 10.0474 63.1869 10.0474C64.3679 10.0474 65.6263 10.9573 65.6263 13.1449H60.6314ZM48.338 6.11749C46.4407 6.11749 45.2211 7.00801 44.5435 7.6275L44.2918 6.42724H40.0326V29L44.8726 27.974L44.8919 22.4953C45.5889 22.9987 46.615 23.715 48.3186 23.715C51.784 23.715 54.9397 20.9272 54.9397 14.7904C54.9203 9.17624 51.7259 6.11749 48.338 6.11749ZM47.1764 19.4559C46.0342 19.4559 45.3566 19.0494 44.8919 18.5461L44.8726 11.3638C45.3759 10.8024 46.0729 10.4152 47.1764 10.4152C48.9381 10.4152 50.1578 12.3899 50.1578 14.9259C50.1578 17.52 48.9575 19.4559 47.1764 19.4559ZM33.3729 4.9753L38.2322 3.92991V0L33.3729 1.02603V4.9753ZM33.3729 6.4466H38.2322V23.3858H33.3729V6.4466ZM28.1651 7.87917L27.8554 6.4466H23.6736V23.3858H28.5136V11.9059C29.6558 10.4152 31.5918 10.6862 32.1919 10.8992V6.4466C31.5724 6.21429 29.3073 5.78838 28.1651 7.87917ZM18.4852 2.24566L13.7614 3.25234L13.7421 18.759C13.7421 21.6242 15.891 23.7343 18.7563 23.7343C20.3438 23.7343 21.5054 23.4439 22.1442 23.0955V19.1656C21.5247 19.4172 18.4659 20.3077 18.4659 17.4426V10.5701H22.1442V6.4466H18.4659L18.4852 2.24566ZM5.39802 11.3638C5.39802 10.6088 6.01753 10.3184 7.0436 10.3184C8.51495 10.3184 10.3735 10.7637 11.8448 11.5574V7.00801C10.238 6.36916 8.65046 6.11749 7.0436 6.11749C3.11357 6.11749 0.5 8.16956 0.5 11.5961C0.5 16.9393 7.85671 16.0875 7.85671 18.3912C7.85671 19.2817 7.08232 19.5721 5.99817 19.5721C4.39131 19.5721 2.33918 18.9139 0.712957 18.0234V22.6308C2.51342 23.4052 4.33323 23.7343 5.99817 23.7343C10.025 23.7343 12.7935 21.7403 12.7935 18.275C12.7741 12.506 5.39802 13.532 5.39802 11.3638Z" fill="#323232"/>
</svg>
