<svg width="133" height="27" viewBox="0 0 133 27" fill="none" xmlns="http://www.w3.org/2000/svg">
<path d="M16.284 5.39028L8.62246 10.2806L16.284 15.1708L8.62246 20.0611L0.960938 15.1301L8.62246 10.2398L0.960938 5.39028L8.62246 0.5L16.284 5.39028ZM8.58171 21.6097L16.2432 16.7194L23.9048 21.6097L16.2432 26.5L8.58171 21.6097ZM16.284 15.1301L23.9455 10.2398L16.284 5.39028L23.9048 0.5L31.5663 5.39028L23.9048 10.2806L31.5663 15.1708L23.9048 20.0611L16.284 15.1301Z" fill="#323232"/>
<path d="M37.5547 5.39099H43.7491C47.7021 5.39099 50.9624 7.67312 50.9624 12.8894V13.9897C50.9624 19.2468 47.9059 21.6104 43.8714 21.6104H37.5547V5.39099ZM41.0187 8.32516V18.6355H43.6676C45.909 18.6355 47.4169 17.1684 47.4169 13.9082V13.0524C47.4169 9.79224 45.8275 8.32516 43.5453 8.32516H41.0187ZM52.7962 8.48817H55.5674L56.0157 11.5446C56.5455 9.46622 57.8903 8.36591 60.3355 8.36591H61.1913V11.8706H59.765C56.953 11.8706 56.2602 12.8487 56.2602 15.6198V21.6512H52.837V8.48817H52.7962ZM61.8841 15.3346V14.9678C61.8841 10.5665 64.6961 8.16215 68.5268 8.16215C72.4391 8.16215 75.1695 10.5665 75.1695 14.9678V15.3346C75.1695 19.6543 72.5206 21.9772 68.5268 21.9772C64.2885 21.9364 61.8841 19.6543 61.8841 15.3346ZM71.6648 15.2938V14.9678C71.6648 12.5227 70.4422 11.0556 68.4861 11.0556C66.5707 11.0556 65.3073 12.4004 65.3073 14.9678V15.2938C65.3073 17.6574 66.5299 19.0023 68.4861 19.0023C70.4422 18.9615 71.6648 17.6574 71.6648 15.2938ZM76.9627 8.48817H79.8153L80.1414 10.9741C80.8342 9.30322 82.3013 8.16215 84.4612 8.16215C87.8029 8.16215 90.0036 10.5665 90.0036 15.0085V15.3753C90.0036 19.6951 87.5584 21.9772 84.4612 21.9772C82.3828 21.9772 80.9564 21.0399 80.2636 19.5321V26.1747H76.9219L76.9627 8.48817ZM86.5396 15.2938V15.0085C86.5396 12.4004 85.1947 11.0963 83.4016 11.0963C81.4862 11.0963 80.2229 12.5634 80.2229 15.0085V15.2531C80.2229 17.5759 81.4455 19.043 83.3608 19.043C85.317 19.0023 86.5396 17.739 86.5396 15.2938ZM95.0569 19.206L94.7716 21.6104H91.8374V4.08691H95.1792V10.8111C95.9127 9.09945 97.3798 8.16215 99.4582 8.16215C102.596 8.2029 104.919 10.3628 104.919 14.7233V15.1308C104.919 19.4913 102.718 21.9772 99.3767 21.9772C97.176 21.9364 95.7497 20.9176 95.0569 19.206ZM101.414 15.1308V14.8048C101.414 12.4004 100.11 11.0556 98.2764 11.0556C96.4017 11.0556 95.0977 12.5634 95.0977 14.8455V15.1308C95.0977 17.5759 96.361 19.0023 98.2356 19.0023C100.233 19.0023 101.414 17.739 101.414 15.1308ZM106.386 15.3346V14.9678C106.386 10.5665 109.198 8.16215 113.029 8.16215C116.941 8.16215 119.672 10.5665 119.672 14.9678V15.3346C119.672 19.6543 116.982 21.9772 113.029 21.9772C108.791 21.9364 106.386 19.6543 106.386 15.3346ZM116.208 15.2938V14.9678C116.208 12.5227 114.985 11.0556 113.029 11.0556C111.114 11.0556 109.85 12.4004 109.85 14.9678V15.2938C109.85 17.6574 111.073 19.0023 113.029 19.0023C114.985 18.9615 116.208 17.6574 116.208 15.2938ZM124.154 14.8048L119.549 8.48817H123.502L126.151 12.4411L128.841 8.48817H132.753L128.067 14.764L132.998 21.6104H129.126L126.111 17.2499L123.176 21.6104H119.142L124.154 14.8048Z" fill="#323232"/>
</svg>
