<svg width="111" height="27" viewBox="0 0 111 27" fill="none" xmlns="http://www.w3.org/2000/svg">
<path fill-rule="evenodd" clip-rule="evenodd" d="M0.960938 6.16346L12.8327 0L24.832 6.16346L12.8327 12.3424L0.960938 6.16346ZM72.2304 9.15634V9.00747C72.2304 6.97931 73.4235 6.32887 75.433 6.47293V2.76451C70.619 2.47104 68.3374 4.88285 68.3374 9.00747V9.15634H66.1604V12.8653H68.3374V24.092H72.2304V12.8653H76.7099V24.092H80.6029V12.8653H83.8055V9.15634H80.6029V9.00747C80.6029 6.97931 81.7752 6.32887 83.8055 6.47293V2.76451C78.9915 2.47104 76.7099 4.88285 76.7099 9.00747V9.15634H72.2304ZM45.0191 13.2175C46.2539 12.2357 47.0073 10.8323 47.0073 9.02881C47.0073 5.53329 44.1606 3.14336 40.5813 3.14336H32.2712V24.0493H41.251C44.914 24.0493 47.8445 21.5788 47.8445 17.9984C47.8029 15.8374 46.7144 14.1827 45.0191 13.2175ZM40.6021 7.01719C41.942 7.01719 42.8629 8.00379 42.8629 9.32229C42.8629 10.645 41.8998 11.6268 40.6021 11.6268H36.437V7.01719H40.6021ZM41.2302 20.2181H36.437V15.2926H41.2302C42.6538 15.2926 43.6793 16.3384 43.6793 17.7417C43.6793 19.167 42.6538 20.2181 41.2302 20.2181ZM59.9852 9.135V17.198C59.9852 19.7966 58.5621 20.9064 56.6572 20.9064C54.8985 20.9064 53.6638 19.8606 53.6638 17.8271V9.135H49.7702V18.3079C49.7702 22.2884 52.2615 24.4921 55.4849 24.4921C57.5152 24.4921 59.085 23.7345 59.9644 22.3952V24.0706H63.8574V9.135H59.9852ZM99.9438 18.1846H88.5576C89.1227 20.1541 90.755 20.9918 92.7858 20.9918C94.3134 20.9918 95.5279 20.3617 96.1767 19.5031L99.3163 21.2853C97.9141 23.3177 95.6533 24.4921 92.7436 24.4921C87.6783 24.4921 84.4757 21.0558 84.4757 16.5951C84.4757 12.129 87.6991 8.69212 92.4507 8.69212C96.9093 8.69212 100.091 12.193 100.091 16.5951C100.091 17.1767 100.028 17.6836 99.9438 18.1846ZM92.4507 12.193C90.358 12.193 88.9338 13.3028 88.4941 15.2072H96.1975C95.7157 13.0521 94.0835 12.193 92.4507 12.193ZM105.722 11.7122V9.135H101.828V24.0706H105.722V16.9259C105.722 13.7825 108.276 12.8866 110.306 13.1369V8.84206C108.401 8.84206 106.496 9.67979 105.722 11.7122ZM12.8327 22.9127L4.73339 18.5106L0.960938 20.5543L12.8327 27L24.832 20.5543L21.0168 18.5106L12.8327 22.9127ZM4.73339 11.5687L12.8327 15.5594L21.0168 11.5687L24.832 13.4309L12.8327 19.2843L0.960938 13.4309L4.73339 11.5687Z" fill="#323232"/>
</svg>
