<svg width="50" height="50" viewBox="0 0 50 50" fill="none" xmlns="http://www.w3.org/2000/svg">
<path d="M0.00260417 43.2388C0.233073 42.4011 0.380208 41.5334 0.710938 40.7306C1.60417 38.5576 3.20182 36.9243 5.41276 35.8054C5.51042 35.7561 5.60286 35.6972 5.70052 35.6408C2.83724 32.7383 3.77865 29.015 5.98698 27.1882C8.31901 25.2592 11.8815 25.1414 14.2617 26.9814C15.681 28.0775 16.4818 29.4801 16.5898 31.1867C16.6992 32.8897 16.0612 34.362 14.7852 35.6323C17.1888 36.7813 18.8711 38.4867 19.8685 40.8171C20.056 40.6957 20.2227 40.5852 20.3919 40.4806C20.5521 40.382 20.7188 40.2895 20.9232 40.1693C19.8216 38.8845 19.3854 37.4543 19.7604 35.8619C20.0404 34.6745 20.7214 33.7046 21.7786 32.9739C23.901 31.5064 26.8021 31.6699 28.7096 33.3488C30.4883 34.9148 31.1497 37.7452 29.0938 40.1597C29.4258 40.3688 29.7565 40.5767 30.1315 40.8135C30.6172 39.6886 31.2617 38.6778 32.1289 37.7945C33 36.9075 34.0208 36.1984 35.2161 35.6408C33.7708 34.1589 33.1406 32.4727 33.4974 30.5197C33.7591 29.0823 34.5365 27.9129 35.7396 26.9839C38.1536 25.1198 41.7318 25.2532 44.0846 27.2483C46.2383 29.0751 47.1406 32.7587 44.3281 35.6119C44.9544 36.0085 45.6172 36.3667 46.2031 36.8114C48.332 38.4254 49.582 40.501 49.9193 43.0357C49.9284 43.1054 49.9727 43.1715 50 43.24C50 45.163 50 47.0859 50 49.0089C49.7669 49.4548 49.4076 49.7841 48.9258 50.0004C32.9753 50.0004 17.0247 50.0004 1.07422 50.0004C0.591146 49.7853 0.233073 49.4548 0 49.0089C0.00260417 47.0847 0.00260417 45.1618 0.00260417 43.2388ZM2.91536 47.2638C7.55339 47.2638 12.1146 47.2638 16.7005 47.2638C16.6602 45.9706 16.9023 44.7592 17.474 43.6054C17.5352 43.4816 17.5117 43.3121 17.4935 43.1679C17.1081 40.1164 14.2279 37.6298 10.8099 37.393C7.36588 37.1551 4.17188 39.2054 3.22135 42.2617C2.71224 43.9011 3.02995 45.574 2.91536 47.2638ZM46.9909 47.2794C46.9909 45.8829 47.125 44.5212 46.9635 43.1896C46.5794 40.0059 43.5547 37.5048 40.1198 37.3858C36.5013 37.2596 33.3789 39.4482 32.6055 42.6367C32.4844 43.1343 32.4453 43.597 32.7201 44.0705C32.8711 44.3301 32.9661 44.6306 33.0208 44.9226C33.1641 45.699 33.2721 46.4814 33.3971 47.2806C37.9141 47.2794 42.4635 47.2794 46.9909 47.2794ZM30.3724 47.2746C30.4245 45.2279 29.6159 43.6198 27.7214 42.591C25.8099 41.5538 23.849 41.6163 22.0104 42.7473C20.2917 43.8037 19.5612 45.3565 19.6393 47.2746C23.2253 47.2746 26.7669 47.2746 30.3724 47.2746ZM10.2461 28.3672C8.36719 28.3708 6.83594 29.7926 6.83984 31.5304C6.84375 33.2635 8.38672 34.6793 10.2669 34.6745C12.1458 34.6697 13.6771 33.2467 13.6732 31.5112C13.668 29.7757 12.1289 28.3636 10.2461 28.3672ZM43.1654 31.5148C43.1628 29.7793 41.625 28.366 39.7422 28.3672C37.8633 28.3696 36.3294 29.7902 36.332 31.5256C36.3346 33.2599 37.875 34.6769 39.7539 34.6745C41.6328 34.6721 43.168 33.2503 43.1654 31.5148ZM25.0091 34.6769C23.6602 34.6745 22.5599 35.6888 22.5625 36.9339C22.5651 38.1586 23.6458 39.1682 24.9701 39.1814C26.3177 39.1946 27.4323 38.1863 27.4414 36.946C27.4505 35.7009 26.3555 34.6793 25.0091 34.6769Z" fill="white"/>
<path d="M21.5417 14.9915H23.3542V16.7991C23.3542 17.0364 23.4048 17.2715 23.5032 17.4908C23.6017 17.7101 23.7459 17.9094 23.9277 18.0772C24.1096 18.2451 24.3255 18.3782 24.5631 18.469C24.8007 18.5599 25.0553 18.6066 25.3125 18.6066C25.5697 18.6066 25.8243 18.5599 26.0619 18.469C26.2995 18.3782 26.5154 18.2451 26.6973 18.0772C26.8791 17.9094 27.0233 17.7101 27.1218 17.4908C27.2202 17.2715 27.2708 17.0364 27.2708 16.7991V14.9915H29.1042C29.6235 14.9915 30.1217 14.801 30.4889 14.462C30.8562 14.1231 31.0625 13.6633 31.0625 13.1839C31.0625 12.7045 30.8562 12.2447 30.4889 11.9057C30.1217 11.5668 29.6235 11.3763 29.1042 11.3763H27.2708V9.45337C27.2335 9.01984 27.0381 8.61078 26.7165 8.29296C26.3949 7.97515 25.9661 7.76735 25.5 7.70348C25.0237 7.66133 24.5473 7.78338 24.1626 8.04612C23.778 8.30885 23.5122 8.69368 23.4167 9.12646C23.3953 9.3889 23.3953 9.65244 23.4167 9.91487V11.2994H21.5208C21.2637 11.2994 21.009 11.3462 20.7714 11.437C20.5338 11.5278 20.3179 11.661 20.1361 11.8288C19.9542 11.9967 19.81 12.1959 19.7116 12.4153C19.6132 12.6346 19.5625 12.8696 19.5625 13.107C19.5625 13.3444 19.6132 13.5794 19.7116 13.7987C19.81 14.018 19.9542 14.2173 20.1361 14.3851C20.3179 14.553 20.5338 14.6861 20.7714 14.777C21.009 14.8678 21.2637 14.9146 21.5208 14.9146L21.5417 14.9915Z" fill="#CC922F"/>
<path d="M29.7794 0.00132872C30.3733 0.261759 30.7368 0.696252 31.0367 1.23173C32.0245 2.98963 33.6279 3.89848 35.7817 3.98485C36.8405 4.02736 37.4879 4.62529 37.4894 5.60456C37.4937 8.49321 37.514 11.3832 37.4836 14.2718C37.4126 20.8716 32.585 26.8137 25.7079 28.7549C25.2734 28.8772 24.7245 28.8732 24.2899 28.7483C17.3028 26.7393 12.5534 20.8317 12.51 14.1217C12.4912 11.2995 12.5042 8.47593 12.5071 5.65372C12.5085 4.60802 13.1357 4.03268 14.2698 3.98086C16.3773 3.88652 17.9546 2.99096 18.9337 1.27425C19.2437 0.72947 19.5927 0.259101 20.2185 0C23.4064 0.00132872 26.5929 0.00132872 29.7794 0.00132872ZM34.3318 10.9939C34.2985 10.9925 34.2666 10.9912 34.2333 10.9886C34.2333 9.76081 34.2217 8.53174 34.2406 7.304C34.2449 6.97448 34.1754 6.82699 33.7785 6.73663C31.561 6.22906 29.8157 5.08636 28.5802 3.31517C28.4136 3.076 28.2441 2.98299 27.9342 2.98432C25.9802 2.9976 24.0263 2.99627 22.0724 2.98432C21.7668 2.98299 21.5901 3.0667 21.4221 3.30852C20.1764 5.09433 18.4181 6.24368 16.1759 6.74726C15.8269 6.82566 15.7588 6.95454 15.7602 7.24686C15.7704 9.40471 15.7457 11.5626 15.7762 13.7204C15.7878 14.5628 15.8196 15.4212 15.9978 16.2437C16.9899 20.8357 19.8955 23.9861 24.6376 25.7055C24.8331 25.7773 25.1098 25.7919 25.3024 25.7241C30.0793 24.022 33.0529 20.8703 33.9769 16.2476C34.3188 14.5336 34.2261 12.7478 34.3318 10.9939Z" fill="#CC922F"/>
</svg>
