<svg width="291" height="50" viewBox="0 0 291 50" fill="none" xmlns="http://www.w3.org/2000/svg">
<rect x="0.212891" width="140.7" height="48.6" rx="8" fill="#01112D"/>
<path d="M70.8125 25.8C68.8125 25.8 67.1125 27.3 67.1125 29.5C67.1125 31.6 68.8125 33.2 70.8125 33.2C72.8125 33.2 74.5125 31.6 74.5125 29.5C74.5125 27.4 72.8125 25.8 70.8125 25.8ZM70.8125 31.7C69.7125 31.7 68.7125 30.8 68.7125 29.5C68.7125 28.2 69.7125 27.3 70.8125 27.3C71.9125 27.3 72.9125 28.2 72.9125 29.5C72.9125 30.8 71.9125 31.7 70.8125 31.7ZM62.7125 25.8C60.7125 25.8 59.0125 27.3 59.0125 29.5C59.0125 31.6 60.7125 33.2 62.7125 33.2C64.7125 33.2 66.4125 31.6 66.4125 29.5C66.4125 27.4 64.7125 25.8 62.7125 25.8ZM62.7125 31.7C61.6125 31.7 60.6125 30.8 60.6125 29.5C60.6125 28.2 61.6125 27.3 62.7125 27.3C63.8125 27.3 64.8125 28.2 64.8125 29.5C64.8125 30.8 63.8125 31.7 62.7125 31.7ZM53.1125 27V28.6H56.9125C56.8125 29.5 56.5125 30.1 56.0125 30.6C55.5125 31.1 54.6125 31.7 53.1125 31.7C50.8125 31.7 49.0125 29.9 49.0125 27.6C49.0125 25.3 50.8125 23.5 53.1125 23.5C54.4125 23.5 55.3125 24 55.9125 24.6L57.0125 23.5C56.1125 22.6 54.8125 21.9 53.1125 21.9C49.9125 21.9 47.3125 24.4 47.3125 27.6C47.3125 30.8 50.0125 33.3 53.1125 33.3C54.8125 33.3 56.1125 32.7 57.1125 31.7C58.1125 30.7 58.5125 29.2 58.5125 28.1C58.5125 27.7 58.5125 27.4 58.4125 27.1H53.1125V27ZM92.5125 28.2C92.2125 27.4 91.3125 25.9 89.3125 25.9C87.4125 25.9 85.8125 27.4 85.8125 29.6C85.8125 31.6 87.4125 33.3 89.5125 33.3C91.2125 33.3 92.2125 32.3 92.6125 31.7L91.3125 30.9C90.9125 31.5 90.3125 31.9 89.5125 31.9C88.7125 31.9 88.1125 31.5 87.7125 30.8L92.7125 28.8L92.5125 28.2ZM87.4125 29.4C87.4125 28 88.5125 27.3 89.3125 27.3C89.9125 27.3 90.5125 27.6 90.7125 28.1L87.4125 29.4ZM83.4125 32.9H85.0125V22.2H83.4125V32.9ZM80.7125 26.7C80.3125 26.3 79.6125 25.9 78.7125 25.9C76.8125 25.9 75.2125 27.5 75.2125 29.6C75.2125 31.7 76.9125 33.2 78.7125 33.2C79.6125 33.2 80.3125 32.8 80.6125 32.4H80.7125V32.9C80.7125 34.3 79.9125 35.1 78.7125 35.1C77.7125 35.1 77.1125 34.4 76.8125 33.8L75.4125 34.4C75.8125 35.4 76.9125 36.6 78.7125 36.6C80.6125 36.6 82.2125 35.5 82.2125 32.8V26.1H80.7125V26.7ZM78.9125 31.7C77.8125 31.7 76.8125 30.8 76.8125 29.5C76.8125 28.2 77.7125 27.3 78.9125 27.3C80.0125 27.3 80.9125 28.2 80.9125 29.5C80.9125 30.8 80.0125 31.7 78.9125 31.7ZM100.113 22.2H96.2125V33H97.8125V28.9H100.113C101.913 28.9 103.713 27.6 103.713 25.6C103.713 23.5 101.913 22.2 100.113 22.2ZM100.213 27.4H97.9125V23.7H100.213C101.413 23.7 102.113 24.7 102.113 25.5C102.113 26.4 101.413 27.4 100.213 27.4ZM110.213 25.8C109.013 25.8 107.812 26.3 107.312 27.4L108.713 28C109.013 27.4 109.613 27.2 110.213 27.2C111.013 27.2 111.912 27.7 111.912 28.6V28.7C111.612 28.5 111.013 28.3 110.213 28.3C108.613 28.3 107.113 29.1 107.113 30.7C107.113 32.1 108.412 33.1 109.812 33.1C110.912 33.1 111.512 32.6 111.912 32H112.013V32.8H113.613V28.7C113.513 26.9 112.113 25.8 110.213 25.8ZM110.013 31.7C109.513 31.7 108.713 31.4 108.713 30.8C108.713 30 109.612 29.6 110.412 29.6C111.112 29.6 111.412 29.8 111.912 30C111.812 31 110.913 31.7 110.013 31.7ZM119.213 26.1L117.312 30.8H117.213L115.312 26.1H113.513L116.412 32.6L114.713 36.2H116.412L120.912 26.1H119.213ZM104.613 32.9H106.213V22.2H104.613V32.9Z" fill="white"/>
<path d="M20.6129 13.6C20.3129 13.9 20.2129 14.3 20.2129 14.8V33.8C20.2129 34.3 20.3129 34.7 20.6129 35L20.7129 35.1L31.5129 24.4V24.1L20.6129 13.6Z" fill="url(#paint0_linear_8840_12948)"/>
<path d="M35.0121 28L31.4121 24.4V24.1L35.0121 20.5H35.1121L39.4121 22.9C40.6121 23.6 40.6121 24.7 39.4121 25.4L35.0121 28Z" fill="url(#paint1_linear_8840_12948)"/>
<path d="M35.1133 28L31.4133 24.4L20.6133 35.1C21.0133 35.5 21.7133 35.6 22.4133 35.2L35.1133 28Z" fill="url(#paint2_linear_8840_12948)"/>
<path d="M35.1133 20.7003L22.4133 13.6003C21.7133 13.2003 21.0133 13.2003 20.6133 13.7003L31.5133 24.4002L35.1133 20.7003Z" fill="url(#paint3_linear_8840_12948)"/>
<path d="M52.6125 15.1C52.6125 16.8 51.4125 17.9 49.6125 17.9H47.8125V12.3H49.6125C51.4125 12.3 52.6125 13.4 52.6125 15.1ZM49.6125 17.2C50.9125 17.2 51.6125 16.4 51.6125 15.2C51.6125 13.9 50.9125 13.1 49.6125 13.1H48.7125V17.2H49.6125Z" fill="white"/>
<path d="M55.4129 18C54.1129 18 53.2129 17.1 53.2129 15.7C53.2129 14.3 54.2129 13.4 55.4129 13.4C56.7129 13.4 57.6129 14.3 57.6129 15.7C57.7129 17.1 56.7129 18 55.4129 18ZM55.4129 17.2C56.1129 17.2 56.8129 16.7 56.8129 15.7C56.8129 14.7 56.2129 14.2 55.5129 14.2C54.8129 14.2 54.2129 14.7 54.2129 15.7C54.1129 16.7 54.7129 17.2 55.4129 17.2Z" fill="white"/>
<path d="M58.1133 13.5H59.0133L59.9133 17L60.8133 13.5H61.8133L62.7133 17L63.6133 13.5H64.5133L63.1133 17.9H62.1133L61.2133 14.6L60.3133 17.9H59.3133L58.1133 13.5Z" fill="white"/>
<path d="M68.3129 15.4C68.3129 14.6 67.9129 14.2 67.2129 14.2C66.5129 14.2 66.1129 14.6 66.1129 15.4V17.9H65.2129V13.5H66.1129V14C66.4129 13.6 66.9129 13.4 67.4129 13.4C68.4129 13.4 69.2129 14 69.2129 15.3V17.9H68.3129V15.4Z" fill="white"/>
<path d="M70.4121 12H71.3121V17.9H70.4121V12Z" fill="white"/>
<path d="M74.4129 18C73.2129 18 72.2129 17.1 72.2129 15.7C72.2129 14.3 73.2129 13.4 74.4129 13.4C75.7129 13.4 76.6129 14.3 76.6129 15.7C76.7129 17.1 75.7129 18 74.4129 18ZM74.4129 17.2C75.1129 17.2 75.8129 16.7 75.8129 15.7C75.8129 14.7 75.2129 14.2 74.5129 14.2C73.8129 14.2 73.2129 14.7 73.2129 15.7C73.1129 16.7 73.7129 17.2 74.4129 17.2Z" fill="white"/>
<path d="M79.4125 13.4C80.1125 13.4 80.7125 13.8 80.9125 14.1V13.5H81.8125V17.9H80.9125V17.2C80.6125 17.6 80.1125 17.9 79.4125 17.9C78.3125 17.9 77.3125 17 77.3125 15.6C77.3125 14.2 78.2125 13.4 79.4125 13.4ZM79.6125 14.2C78.9125 14.2 78.3125 14.7 78.3125 15.7C78.3125 16.7 79.0125 17.2 79.6125 17.2C80.3125 17.2 80.9125 16.7 80.9125 15.7C80.9125 14.7 80.3125 14.2 79.6125 14.2Z" fill="white"/>
<path d="M84.8129 13.4C85.4129 13.4 86.0129 13.7 86.3129 14.1V12H87.2129V17.9H86.3129V17.2C86.0129 17.6 85.5129 17.9 84.8129 17.9C83.6129 17.9 82.7129 17 82.7129 15.6C82.7129 14.2 83.6129 13.4 84.8129 13.4ZM85.0129 14.2C84.3129 14.2 83.7129 14.7 83.7129 15.7C83.7129 16.7 84.4129 17.2 85.0129 17.2C85.7129 17.2 86.3129 16.7 86.3129 15.7C86.3129 14.7 85.7129 14.2 85.0129 14.2Z" fill="white"/>
<path d="M92.4129 18C91.2129 18 90.2129 17.1 90.2129 15.7C90.2129 14.3 91.2129 13.4 92.4129 13.4C93.7129 13.4 94.6129 14.3 94.6129 15.7C94.7129 17.1 93.7129 18 92.4129 18ZM92.4129 17.2C93.1129 17.2 93.8129 16.7 93.8129 15.7C93.8129 14.7 93.2129 14.2 92.5129 14.2C91.8129 14.2 91.2129 14.7 91.2129 15.7C91.2129 16.7 91.7129 17.2 92.4129 17.2Z" fill="white"/>
<path d="M98.8129 15.4C98.8129 14.6 98.4129 14.2 97.7129 14.2C97.0129 14.2 96.6129 14.6 96.6129 15.4V17.9H95.7129V13.5H96.6129V14C96.9129 13.6 97.4129 13.4 97.9129 13.4C98.9129 13.4 99.7129 14 99.7129 15.3V17.9H98.8129V15.4Z" fill="white"/>
<path d="M103.012 14.2H102.512V13.5H103.012V12.4H103.912V13.5H105.012V14.2H103.912V16.6C103.912 16.9 104.012 17.1 104.412 17.1H105.012V17.9H104.312C103.512 17.9 103.012 17.6 103.012 16.7V14.2Z" fill="white"/>
<path d="M105.912 12H106.812V14C107.112 13.6 107.612 13.4 108.212 13.4C109.212 13.4 110.012 14 110.012 15.3V17.9H109.112V15.4C109.112 14.6 108.712 14.2 108.012 14.2C107.312 14.2 106.912 14.6 106.912 15.4V17.9H106.012V12H105.912Z" fill="white"/>
<path d="M113.013 18C111.713 18 110.812 17.1 110.812 15.7C110.812 14.3 111.713 13.4 113.013 13.4C114.313 13.4 115.113 14.3 115.113 15.6C115.113 15.8 115.113 15.9 115.113 16H111.713C111.813 16.7 112.313 17.2 113.013 17.2C113.613 17.2 113.913 16.9 114.013 16.6H115.013C114.713 17.4 114.013 18 113.013 18ZM111.713 15.3H114.113C114.113 14.6 113.512 14.2 112.912 14.2C112.312 14.2 111.813 14.6 111.713 15.3Z" fill="white"/>
<rect x="150.912" width="139.504" height="49.0999" rx="8" fill="#01112D"/>
<path d="M198.716 12.3C200.216 12.2 201.416 13.3 201.516 14.7C201.516 14.9 201.516 15 201.516 15.2C201.516 17.1 200.516 18.2 198.716 18.2H196.516V12.2H198.716V12.3ZM197.516 17.5H198.616C199.616 17.6 200.516 16.8 200.616 15.7C200.616 15.6 200.616 15.4 200.616 15.3C200.716 14.3 200.016 13.3 199.016 13.2C198.916 13.2 198.816 13.2 198.616 13.2H197.516V17.5Z" fill="white"/>
<path d="M202.616 15.9998C202.516 14.7998 203.316 13.7998 204.516 13.6998C205.716 13.5998 206.716 14.3998 206.816 15.5998C206.816 15.6998 206.816 15.8998 206.816 15.9998C206.916 17.1998 206.116 18.1998 204.916 18.2998C203.716 18.3998 202.716 17.5998 202.616 16.3998C202.616 16.2998 202.616 16.1998 202.616 15.9998ZM205.916 15.9998C205.916 14.9998 205.516 14.4998 204.716 14.4998C203.916 14.4998 203.516 15.0998 203.516 15.9998C203.516 16.9998 203.916 17.5998 204.716 17.5998C205.516 17.5998 205.916 16.9998 205.916 15.9998Z" fill="white"/>
<path d="M212.515 18.3H211.615L210.715 15H210.615L209.715 18.3H208.815L207.615 13.8H208.515L209.315 17.2H209.415L210.315 13.8H211.215L212.115 17.2H212.215L213.015 13.8H213.915L212.515 18.3Z" fill="white"/>
<path d="M214.816 13.8H215.716V14.5H215.816C216.016 14 216.616 13.7 217.116 13.7C217.916 13.6 218.616 14.2 218.716 15.1C218.716 15.2 218.716 15.3 218.716 15.4V18.3H217.816V15.6C217.816 14.9 217.516 14.5 216.816 14.5C216.216 14.5 215.716 14.9 215.716 15.5C215.716 15.6 215.716 15.6 215.716 15.7V18.3H214.816V13.8Z" fill="white"/>
<path d="M220.016 12H220.916V18.3H220.016V12Z" fill="white"/>
<path d="M222.116 15.9998C222.016 14.7998 222.816 13.7998 224.016 13.6998C225.216 13.5998 226.216 14.3998 226.316 15.5998C226.316 15.6998 226.316 15.8998 226.316 15.9998C226.416 17.1998 225.616 18.1998 224.416 18.2998C223.216 18.3998 222.216 17.5998 222.116 16.3998C222.116 16.2998 222.116 16.1998 222.116 15.9998ZM225.516 15.9998C225.516 14.9998 225.116 14.4998 224.316 14.4998C223.516 14.4998 223.116 15.0998 223.116 15.9998C223.116 16.9998 223.516 17.5998 224.316 17.5998C225.016 17.5998 225.516 16.9998 225.516 15.9998Z" fill="white"/>
<path d="M227.315 17C227.315 16.2 227.915 15.7 229.015 15.7L230.215 15.6V15.2C230.215 14.7 229.915 14.5 229.315 14.5C228.815 14.5 228.515 14.7 228.415 15H227.515C227.615 14.2 228.315 13.7 229.315 13.7C230.415 13.7 231.115 14.3 231.115 15.2V18.3H230.215V17.7H230.115C229.815 18.2 229.315 18.4 228.715 18.4C228.015 18.5 227.315 17.9 227.215 17.2C227.315 17.1 227.315 17.1 227.315 17ZM230.215 16.6V16.2L229.115 16.3C228.515 16.3 228.215 16.6 228.215 16.9C228.215 17.3 228.615 17.5 229.015 17.5C229.615 17.7 230.115 17.3 230.215 16.6C230.215 16.7 230.215 16.7 230.215 16.6Z" fill="white"/>
<path d="M232.215 16C232.215 14.6 232.915 13.7 234.115 13.7C234.715 13.7 235.215 14 235.515 14.5H235.615V12H236.515V18.3H235.615V17.6H235.515C235.215 18.1 234.715 18.4 234.115 18.4C233.015 18.4 232.215 17.5 232.215 16ZM233.215 16C233.215 17 233.715 17.5 234.415 17.5C235.115 17.5 235.615 16.9 235.615 16C235.615 15.1 235.115 14.5 234.415 14.5C233.615 14.5 233.215 15.1 233.215 16Z" fill="white"/>
<path d="M240.116 15.9998C240.016 14.7998 240.816 13.7998 242.016 13.6998C243.216 13.5998 244.216 14.3998 244.316 15.5998C244.316 15.6998 244.316 15.8998 244.316 15.9998C244.416 17.1998 243.616 18.1998 242.416 18.2998C241.216 18.3998 240.216 17.5998 240.116 16.3998C240.116 16.2998 240.116 16.1998 240.116 15.9998ZM243.516 15.9998C243.516 14.9998 243.116 14.4998 242.316 14.4998C241.516 14.4998 241.116 15.0998 241.116 15.9998C241.116 16.9998 241.516 17.5998 242.316 17.5998C243.016 17.5998 243.516 16.9998 243.516 15.9998Z" fill="white"/>
<path d="M245.615 13.8H246.515V14.5H246.615C246.815 14 247.415 13.7 247.915 13.7C248.715 13.6 249.415 14.2 249.515 15.1C249.515 15.2 249.515 15.3 249.515 15.4V18.3H248.615V15.6C248.615 14.9 248.315 14.5 247.615 14.5C247.015 14.5 246.515 14.9 246.515 15.5C246.515 15.6 246.515 15.6 246.515 15.7V18.3H245.615V13.8Z" fill="white"/>
<path d="M254.415 12.7V13.8H255.415V14.6H254.415V16.9C254.415 17.4 254.615 17.6 255.015 17.6C255.115 17.6 255.215 17.6 255.315 17.6V18.3C255.115 18.3 255.015 18.3 254.815 18.3C253.815 18.3 253.415 18 253.415 17.1V14.6H252.715V13.9H253.415V12.7H254.415Z" fill="white"/>
<path d="M256.615 12H257.515V14.5H257.615C257.815 14 258.415 13.6 259.015 13.7C259.815 13.7 260.515 14.3 260.615 15.1C260.615 15.2 260.615 15.3 260.615 15.4V18.3H259.715V15.6C259.715 14.9 259.415 14.5 258.715 14.5C258.115 14.5 257.615 14.9 257.615 15.5C257.615 15.6 257.615 15.6 257.615 15.7V18.3H256.715L256.615 12Z" fill="white"/>
<path d="M265.717 17.1C265.517 17.9 264.617 18.5 263.717 18.4C262.617 18.4 261.617 17.5 261.617 16.4C261.617 16.3 261.617 16.2 261.617 16.1C261.417 15 262.217 13.9 263.417 13.8C263.517 13.8 263.617 13.8 263.717 13.8C265.017 13.8 265.717 14.7 265.717 16.1V16.4H262.517C262.417 17.1 262.917 17.6 263.617 17.7H263.717C264.117 17.8 264.617 17.5 264.817 17.2L265.717 17.1ZM262.517 15.6H264.817C264.817 15 264.417 14.5 263.817 14.4H263.717C263.117 14.5 262.517 15 262.517 15.6Z" fill="white"/>
<path d="M185.716 23.8998C185.716 22.1998 186.616 20.5998 188.116 19.6998C187.216 18.3998 185.716 17.5998 184.116 17.4998C182.416 17.2998 180.816 18.4998 179.916 18.4998C179.016 18.4998 177.716 17.4998 176.316 17.4998C174.416 17.5998 172.716 18.5998 171.816 20.1998C169.916 23.4998 171.316 28.4998 173.216 31.1998C174.116 32.4998 175.216 33.9998 176.616 33.9998C178.016 33.8998 178.516 33.0998 180.216 33.0998C181.916 33.0998 182.316 33.9998 183.816 33.9998C185.316 33.9998 186.216 32.6998 187.116 31.2998C187.816 30.3998 188.316 29.2998 188.616 28.1998C186.816 27.5998 185.716 25.7998 185.716 23.8998Z" fill="white"/>
<path d="M182.916 15.8C183.716 14.8 184.116 13.6 184.016 12.3C182.816 12.4 181.616 13 180.816 14C180.016 14.9 179.616 16.1 179.716 17.4C181.016 17.4 182.116 16.8 182.916 15.8Z" fill="white"/>
<path d="M203.216 30.7H198.516L197.416 34.1H195.416L199.916 21.7H201.916L206.416 34.1H204.416L203.216 30.7ZM199.016 29.2H202.816L200.916 23.7H200.816L199.016 29.2Z" fill="white"/>
<path d="M216.115 29.5999C216.115 32.3999 214.615 34.1999 212.315 34.1999C211.115 34.2999 210.015 33.5999 209.515 32.5999V37.0999H207.615V25.0999H209.415V26.5999C210.015 25.5999 211.115 24.9999 212.315 24.9999C214.515 24.8999 216.115 26.7999 216.115 29.5999ZM214.115 29.5999C214.115 27.7999 213.215 26.5999 211.715 26.5999C210.315 26.5999 209.315 27.7999 209.315 29.5999C209.315 31.3999 210.315 32.5999 211.715 32.5999C213.215 32.5999 214.115 31.3999 214.115 29.5999Z" fill="white"/>
<path d="M226.016 29.5999C226.016 32.3999 224.516 34.1999 222.216 34.1999C221.016 34.2999 219.916 33.5999 219.416 32.5999V37.0999H217.516V25.0999H219.316V26.5999C219.916 25.5999 221.016 24.9999 222.216 24.9999C224.516 24.8999 226.016 26.7999 226.016 29.5999ZM224.116 29.5999C224.116 27.7999 223.216 26.5999 221.716 26.5999C220.316 26.5999 219.316 27.7999 219.316 29.5999C219.316 31.3999 220.316 32.5999 221.716 32.5999C223.216 32.5999 224.116 31.3999 224.116 29.5999Z" fill="white"/>
<path d="M232.616 30.6C232.716 31.8 233.916 32.6 235.616 32.6C237.216 32.6 238.316 31.8 238.316 30.7C238.316 29.7 237.616 29.2 236.016 28.8L234.416 28.4C232.116 27.8 231.116 26.8 231.116 25.1C231.116 23 233.016 21.5 235.616 21.5C238.216 21.5 240.016 23 240.116 25.1H238.216C238.116 23.9 237.116 23.1 235.616 23.1C234.116 23.1 233.116 23.9 233.116 25C233.116 25.9 233.816 26.4 235.416 26.8L236.816 27.1C239.316 27.7 240.416 28.7 240.416 30.5C240.416 32.8 238.516 34.3 235.616 34.3C232.816 34.3 231.016 32.9 230.916 30.6H232.616Z" fill="white"/>
<path d="M244.215 22.9V25H245.915V26.5H244.215V31.5C244.215 32.3 244.515 32.6 245.315 32.6C245.515 32.6 245.715 32.6 245.915 32.6V34.1C245.615 34.2 245.215 34.2 244.915 34.2C243.115 34.2 242.415 33.5 242.415 31.8V26.6H241.115V25.1H242.415V23H244.215V22.9Z" fill="white"/>
<path d="M247.016 29.6C247.016 26.8 248.716 25 251.316 25C253.916 25 255.616 26.8 255.616 29.6C255.616 32.5 253.916 34.2 251.316 34.2C248.616 34.2 247.016 32.4 247.016 29.6ZM253.716 29.6C253.716 27.6 252.816 26.5 251.316 26.5C249.816 26.5 248.916 27.6 248.916 29.6C248.916 31.6 249.816 32.7 251.316 32.7C252.816 32.7 253.716 31.5 253.716 29.6Z" fill="white"/>
<path d="M257.115 25.0001H258.915V26.6001C259.115 25.6001 260.115 24.9001 261.115 25.0001C261.315 25.0001 261.515 25.0001 261.715 25.1001V26.8001C261.415 26.7001 261.115 26.7001 260.915 26.7001C259.915 26.7001 259.015 27.5001 259.015 28.5001C259.015 28.6001 259.015 28.7001 259.015 28.8001V34.2001H257.115V25.0001Z" fill="white"/>
<path d="M270.315 31.4C270.115 33 268.415 34.2 266.415 34.2C263.815 34.2 262.115 32.4 262.115 29.6C262.115 26.8 263.715 24.9 266.315 24.9C268.815 24.9 270.415 26.6 270.415 29.4V30H264.015V30.1C263.915 31.4 264.815 32.5 266.115 32.7C266.215 32.7 266.315 32.7 266.415 32.7C267.315 32.8 268.215 32.3 268.515 31.4H270.315ZM264.015 28.7H268.515C268.615 27.5 267.615 26.5 266.415 26.4C266.315 26.4 266.315 26.4 266.215 26.4C265.015 26.4 264.015 27.4 264.015 28.7Z" fill="white"/>
<defs>
<linearGradient id="paint0_linear_8840_12948" x1="30.4797" y1="34.0506" x2="16.0427" y2="19.4432" gradientUnits="userSpaceOnUse">
<stop stop-color="#00A0FF"/>
<stop offset="0.0066" stop-color="#00A1FF"/>
<stop offset="0.2601" stop-color="#00BEFF"/>
<stop offset="0.5122" stop-color="#00D2FF"/>
<stop offset="0.7604" stop-color="#00DFFF"/>
<stop offset="1" stop-color="#00E3FF"/>
</linearGradient>
<linearGradient id="paint1_linear_8840_12948" x1="40.9553" y1="24.3367" x2="19.8932" y2="24.3367" gradientUnits="userSpaceOnUse">
<stop stop-color="#FFE000"/>
<stop offset="0.4087" stop-color="#FFBD00"/>
<stop offset="0.7754" stop-color="#FFA500"/>
<stop offset="1" stop-color="#FF9C00"/>
</linearGradient>
<linearGradient id="paint2_linear_8840_12948" x1="25.8525" y1="29.5402" x2="6.27473" y2="9.7313" gradientUnits="userSpaceOnUse">
<stop stop-color="#FF3A44"/>
<stop offset="1" stop-color="#C31162"/>
</linearGradient>
<linearGradient id="paint3_linear_8840_12948" x1="10.5964" y1="34.2135" x2="19.3383" y2="25.3685" gradientUnits="userSpaceOnUse">
<stop stop-color="#32A071"/>
<stop offset="0.0685" stop-color="#2DA771"/>
<stop offset="0.4762" stop-color="#15CF74"/>
<stop offset="0.8009" stop-color="#06E775"/>
<stop offset="1" stop-color="#00F076"/>
</linearGradient>
</defs>
</svg>
