<svg width="46" height="312" viewBox="0 0 46 312" fill="none" xmlns="http://www.w3.org/2000/svg">
<circle cx="23" cy="23.45" r="23" fill="#0D257B"/>
<path d="M19.5471 29.128C18.6725 29.128 17.8885 28.904 17.1951 28.456C16.5125 28.008 15.9685 27.3573 15.5631 26.504C15.1685 25.6507 14.9711 24.616 14.9711 23.4C14.9711 22.184 15.1685 21.1493 15.5631 20.296C15.9685 19.4427 16.5125 18.792 17.1951 18.344C17.8885 17.896 18.6725 17.672 19.5471 17.672C20.4111 17.672 21.1898 17.896 21.8831 18.344C22.5765 18.792 23.1205 19.4427 23.5151 20.296C23.9098 21.1493 24.1071 22.184 24.1071 23.4C24.1071 24.616 23.9098 25.6507 23.5151 26.504C23.1205 27.3573 22.5765 28.008 21.8831 28.456C21.1898 28.904 20.4111 29.128 19.5471 29.128ZM19.5471 27.704C20.1338 27.704 20.6458 27.544 21.0831 27.224C21.5311 26.904 21.8778 26.424 22.1231 25.784C22.3791 25.144 22.5071 24.3493 22.5071 23.4C22.5071 22.4507 22.3791 21.656 22.1231 21.016C21.8778 20.376 21.5311 19.896 21.0831 19.576C20.6458 19.256 20.1338 19.096 19.5471 19.096C18.9605 19.096 18.4431 19.256 17.9951 19.576C17.5471 19.896 17.1951 20.376 16.9391 21.016C16.6938 21.656 16.5711 22.4507 16.5711 23.4C16.5711 24.3493 16.6938 25.144 16.9391 25.784C17.1951 26.424 17.5471 26.904 17.9951 27.224C18.4431 27.544 18.9605 27.704 19.5471 27.704ZM27.531 29V18.44L28.219 19.192H25.003V17.8H29.115V29H27.531Z" fill="white"/>
<rect x="22" y="56.45" width="2" height="67" rx="1" fill="#0D257B"/>
<circle cx="23" cy="156.45" r="23" fill="#E8E9F3"/>
<path d="M18.4143 162.128C17.5396 162.128 16.7556 161.904 16.0623 161.456C15.3796 161.008 14.8356 160.357 14.4303 159.504C14.0356 158.651 13.8383 157.616 13.8383 156.4C13.8383 155.184 14.0356 154.149 14.4303 153.296C14.8356 152.443 15.3796 151.792 16.0623 151.344C16.7556 150.896 17.5396 150.672 18.4143 150.672C19.2783 150.672 20.057 150.896 20.7503 151.344C21.4436 151.792 21.9876 152.443 22.3823 153.296C22.777 154.149 22.9743 155.184 22.9743 156.4C22.9743 157.616 22.777 158.651 22.3823 159.504C21.9876 160.357 21.4436 161.008 20.7503 161.456C20.057 161.904 19.2783 162.128 18.4143 162.128ZM18.4143 160.704C19.001 160.704 19.513 160.544 19.9503 160.224C20.3983 159.904 20.745 159.424 20.9903 158.784C21.2463 158.144 21.3743 157.349 21.3743 156.4C21.3743 155.451 21.2463 154.656 20.9903 154.016C20.745 153.376 20.3983 152.896 19.9503 152.576C19.513 152.256 19.001 152.096 18.4143 152.096C17.8276 152.096 17.3103 152.256 16.8623 152.576C16.4143 152.896 16.0623 153.376 15.8063 154.016C15.561 154.656 15.4383 155.451 15.4383 156.4C15.4383 157.349 15.561 158.144 15.8063 158.784C16.0623 159.424 16.4143 159.904 16.8623 160.224C17.3103 160.544 17.8276 160.704 18.4143 160.704ZM24.3342 162V160.912L28.8942 156.512C29.2995 156.128 29.5982 155.792 29.7902 155.504C29.9929 155.205 30.1262 154.933 30.1902 154.688C30.2649 154.432 30.3022 154.187 30.3022 153.952C30.3022 153.376 30.0995 152.923 29.6942 152.592C29.2889 152.261 28.6969 152.096 27.9182 152.096C27.3209 152.096 26.7822 152.197 26.3022 152.4C25.8222 152.592 25.4062 152.896 25.0542 153.312L23.9662 152.368C24.3929 151.824 24.9635 151.408 25.6782 151.12C26.4035 150.821 27.1982 150.672 28.0622 150.672C28.8409 150.672 29.5182 150.8 30.0942 151.056C30.6702 151.301 31.1129 151.659 31.4222 152.128C31.7422 152.597 31.9022 153.152 31.9022 153.792C31.9022 154.155 31.8542 154.512 31.7582 154.864C31.6622 155.216 31.4809 155.589 31.2142 155.984C30.9475 156.379 30.5635 156.821 30.0622 157.312L25.9982 161.232L25.6142 160.608H32.3822V162H24.3342Z" fill="#0D257B"/>
<rect x="22" y="189.45" width="2" height="66" rx="1" fill="#0D257B"/>
<circle cx="23" cy="288.45" r="23" fill="#E8E9F3"/>
<path d="M18.5081 294.128C17.6334 294.128 16.8494 293.904 16.1561 293.456C15.4734 293.008 14.9294 292.357 14.5241 291.504C14.1294 290.651 13.9321 289.616 13.9321 288.4C13.9321 287.184 14.1294 286.149 14.5241 285.296C14.9294 284.443 15.4734 283.792 16.1561 283.344C16.8494 282.896 17.6334 282.672 18.5081 282.672C19.3721 282.672 20.1507 282.896 20.8441 283.344C21.5374 283.792 22.0814 284.443 22.4761 285.296C22.8707 286.149 23.0681 287.184 23.0681 288.4C23.0681 289.616 22.8707 290.651 22.4761 291.504C22.0814 292.357 21.5374 293.008 20.8441 293.456C20.1507 293.904 19.3721 294.128 18.5081 294.128ZM18.5081 292.704C19.0947 292.704 19.6067 292.544 20.0441 292.224C20.4921 291.904 20.8387 291.424 21.0841 290.784C21.3401 290.144 21.4681 289.349 21.4681 288.4C21.4681 287.451 21.3401 286.656 21.0841 286.016C20.8387 285.376 20.4921 284.896 20.0441 284.576C19.6067 284.256 19.0947 284.096 18.5081 284.096C17.9214 284.096 17.4041 284.256 16.9561 284.576C16.5081 284.896 16.1561 285.376 15.9001 286.016C15.6547 286.656 15.5321 287.451 15.5321 288.4C15.5321 289.349 15.6547 290.144 15.9001 290.784C16.1561 291.424 16.5081 291.904 16.9561 292.224C17.4041 292.544 17.9214 292.704 18.5081 292.704ZM27.8717 294.128C27.0824 294.128 26.3144 294.005 25.5677 293.76C24.8317 293.515 24.229 293.184 23.7597 292.768L24.4957 291.504C24.869 291.856 25.3544 292.144 25.9517 292.368C26.549 292.592 27.189 292.704 27.8717 292.704C28.7037 292.704 29.349 292.528 29.8077 292.176C30.277 291.813 30.5117 291.328 30.5117 290.72C30.5117 290.133 30.2877 289.664 29.8397 289.312C29.4024 288.949 28.7037 288.768 27.7437 288.768H26.8477V287.648L30.1757 283.552L30.3997 284.192H24.2717V282.8H31.6637V283.888L28.3517 287.968L27.5197 287.472H28.0477C29.4024 287.472 30.4157 287.776 31.0877 288.384C31.7704 288.992 32.1117 289.765 32.1117 290.704C32.1117 291.333 31.957 291.909 31.6477 292.432C31.3384 292.955 30.869 293.371 30.2397 293.68C29.621 293.979 28.8317 294.128 27.8717 294.128Z" fill="#0D257B"/>
</svg>
