<svg width="125" height="29" viewBox="0 0 125 29" fill="none" xmlns="http://www.w3.org/2000/svg">
<path d="M35.4805 23.1593V4.49268H46.8712V8.10558H39.7959V13.1235H46.8712V16.6862H39.7959V23.1593H35.4805Z" fill="black" fill-opacity="0.5"/>
<path d="M49.7305 23.1593V10.3134H53.795V12.9729C53.9957 12.0697 54.4473 11.317 55.0997 10.8152C55.752 10.3134 56.5047 10.0625 57.3076 10.0625C57.709 10.0625 58.1104 10.1127 58.3613 10.1629V13.9765C57.8595 13.9263 57.4581 13.8761 57.157 13.8761C54.8989 13.8761 53.795 15.3313 53.795 18.1414V23.1091H49.7305V23.1593Z" fill="black" fill-opacity="0.5"/>
<path d="M65.3887 23.4605C63.5321 23.4605 62.0267 22.8082 60.9729 21.5537C59.869 20.2992 59.3672 18.6433 59.3672 16.6863C59.3672 14.7293 59.9192 13.1236 61.0231 11.8189C62.1271 10.5644 63.6324 9.91211 65.4389 9.91211C66.3421 9.91211 67.145 10.1128 67.8475 10.5143C68.55 10.9157 69.102 11.4175 69.4532 12.12V10.2634H73.5178V23.1092H69.4532V21.3028C69.102 21.9551 68.55 22.4569 67.7973 22.8583C67.0948 23.31 66.2919 23.4605 65.3887 23.4605ZM66.5428 20.0985C67.4962 20.0985 68.2991 19.7974 68.8009 19.1451C69.3027 18.4928 69.6038 17.6899 69.6038 16.7365C69.6038 15.7831 69.3529 14.9802 68.8009 14.3279C68.2489 13.6756 67.4962 13.3745 66.5428 13.3745C65.6396 13.3745 64.8869 13.6756 64.3349 14.3279C63.783 14.93 63.4819 15.7831 63.4819 16.7365C63.4819 17.7401 63.783 18.5429 64.3349 19.1953C64.8869 19.7974 65.6396 20.0985 66.5428 20.0985Z" fill="black" fill-opacity="0.5"/>
<path d="M76.8789 23.1595V10.3137H80.9434V12.1703C81.2445 11.518 81.6961 10.966 82.3485 10.5646C83.0008 10.1631 83.7535 9.9624 84.6065 9.9624C86.6137 9.9624 87.9686 10.7653 88.6209 12.3208C88.9721 11.6183 89.5241 11.0162 90.2266 10.6147C90.9793 10.1631 91.7822 9.9624 92.6854 9.9624C95.7464 9.9624 97.2517 11.7187 97.2517 15.181V23.1595H93.137V15.9337C93.137 14.2276 92.4847 13.4248 91.2302 13.4248C89.775 13.4248 89.0725 14.4785 89.0725 16.5861V23.2097H85.0581V15.8835C85.0581 14.2276 84.4058 13.3746 83.1513 13.3746C82.4488 13.3746 81.8968 13.6255 81.5456 14.0771C81.1943 14.5287 80.9936 15.3818 80.9936 16.5359V23.1595H76.8789Z" fill="black" fill-opacity="0.5"/>
<path d="M113.208 16.0341C113.208 16.5861 113.158 17.138 113.108 17.8405H103.624C103.674 18.6936 103.925 19.3459 104.477 19.7975C105.029 20.2491 105.731 20.5 106.634 20.5C107.889 20.5 108.692 20.0986 109.043 19.2957H113.057C112.857 20.5502 112.154 21.604 111 22.3567C109.796 23.1595 108.391 23.561 106.685 23.561C104.477 23.561 102.771 22.9588 101.516 21.7545C100.262 20.5502 99.6094 18.8943 99.6094 16.7366C99.6094 14.6291 100.262 12.9732 101.516 11.7689C102.771 10.5646 104.477 9.9624 106.534 9.9624C108.541 9.9624 110.147 10.5144 111.402 11.6685C112.556 12.7724 113.208 14.2276 113.208 16.0341ZM103.574 15.2814H109.143C109.143 14.4284 108.893 13.776 108.441 13.3244C107.989 12.8728 107.337 12.6219 106.434 12.6219C105.581 12.6219 104.878 12.8728 104.376 13.3746C103.875 13.8764 103.624 14.5287 103.574 15.2814Z" fill="black" fill-opacity="0.5"/>
<path d="M115.516 23.1593V10.3134H119.58V12.9729C119.781 12.0697 120.232 11.317 120.885 10.8152C121.537 10.3134 122.29 10.0625 123.093 10.0625C123.494 10.0625 123.896 10.1127 124.146 10.1629V13.9765C123.645 13.9263 123.243 13.8761 122.942 13.8761C120.684 13.8761 119.58 15.3313 119.58 18.1414V23.1091H115.516V23.1593Z" fill="black" fill-opacity="0.5"/>
<path d="M18.9206 0.427734V9.76107H9.58727L0.253906 0.427734H18.9206ZM0.253906 9.76107H9.58727L18.9206 19.0944H9.58727V28.4277L0.253906 19.0944V9.76107Z" fill="black" fill-opacity="0.5"/>
</svg>
