<svg width="40" height="40" viewBox="0 0 40 40" fill="none" xmlns="http://www.w3.org/2000/svg">
<path d="M14 21.1644C10.6863 21.1644 8 18.4781 8 15.1643C8 11.8505 10.6863 9.16423 14 9.16423C17.3138 9.16423 20 11.8505 20 15.1643C19.9963 18.4768 17.3119 21.1606 14 21.1644ZM14 11.8311C12.1588 11.8311 10.6669 13.3237 10.6669 15.1643C10.6669 17.0056 12.1594 18.4975 14 18.4975C15.8406 18.4975 17.3331 17.0049 17.3331 15.1643C17.3331 13.3237 15.8413 11.8311 14 11.8311ZM24 34.4982V33.8314C24 28.3082 19.5231 23.8313 14 23.8313C8.47687 23.8313 4 28.3082 4 33.8314V34.4982C4 35.2345 4.59687 35.8314 5.33312 35.8314C6.06938 35.8314 6.66625 35.2345 6.66625 34.4982V33.8314C6.66625 29.7813 9.94938 26.4982 13.9994 26.4982C18.0494 26.4982 21.3331 29.7813 21.3331 33.8314V34.4982C21.3331 35.2345 21.93 35.8314 22.6663 35.8314C23.4031 35.8314 24 35.2345 24 34.4982ZM36 27.8313C36 22.6769 31.8213 18.4981 26.6663 18.4981C24.3706 18.4981 22.155 19.3443 20.4438 20.875C19.8906 21.3612 19.8363 22.2037 20.3225 22.7569C20.8088 23.31 21.6512 23.3644 22.2044 22.8781C22.2106 22.8725 22.2169 22.8669 22.2231 22.8619C24.9675 20.4075 29.1825 20.6425 31.6363 23.3875C32.7294 24.61 33.3338 26.1919 33.3338 27.8313C33.3338 28.5676 33.9306 29.1644 34.6669 29.1644C35.4031 29.1644 36 28.5676 36 27.8313ZM27.3331 15.8312C24.0194 15.8312 21.3331 13.1449 21.3331 9.83112C21.3331 6.51733 24.0194 3.83105 27.3331 3.83105C30.6469 3.83105 33.3331 6.51733 33.3331 9.83112C33.3294 13.143 30.6456 15.8274 27.3331 15.8312ZM27.3331 6.49796C25.4925 6.49796 24 7.98985 24 9.83112C24 11.6724 25.4925 13.1643 27.3331 13.1643C29.1737 13.1643 30.6663 11.6718 30.6663 9.83112C30.6663 7.99047 29.1744 6.49796 27.3331 6.49796Z" fill="#0D257B"/>
<path d="M35.9792 31.8314C35.9792 32.5781 35.3792 33.1781 34.6325 33.1781H31.9925V35.8181C31.9925 36.5648 31.3925 37.1648 30.6458 37.1648C29.8992 37.1648 29.2992 36.5648 29.2992 35.8181V33.1781H26.6592C25.9125 33.1781 25.3125 32.5781 25.3125 31.8314C25.3125 31.0848 25.9125 30.4848 26.6592 30.4848H29.2992V27.8447C29.2992 27.0981 29.8992 26.498 30.6458 26.498C31.3925 26.498 31.9925 27.0981 31.9925 27.8447V30.4848H34.6325C35.3792 30.4848 35.9792 31.0848 35.9792 31.8314Z" fill="#CC922F"/>
</svg>
