<svg width="450" height="391" viewBox="0 0 450 391" fill="none" xmlns="http://www.w3.org/2000/svg">
<path d="M231.022 382.567C351.856 382.567 449.811 363.096 449.811 339.077C449.811 315.059 351.856 295.587 231.022 295.587C110.189 295.587 12.2344 315.059 12.2344 339.077C12.2344 363.096 110.189 382.567 231.022 382.567Z" fill="#646464"/>
<path d="M272.282 20.5834C271.476 20.5834 266.782 20.5834 244.176 20.5834C212.124 20.5834 222.024 36.7751 222.024 36.7751C216.283 47.7003 224.438 63.3598 224.438 63.3598H243.894H244.059H263.516C263.516 63.3598 271.671 47.7003 265.931 36.7751C265.831 36.5861 265.707 36.4256 265.601 36.2433C275.562 32.5694 272.282 20.5834 272.282 20.5834Z" fill="black"/>
<path d="M356.588 248.052H115.688V301.82H356.588V248.052Z" fill="#050542"/>
<path d="M321.77 289.634V332.291H134.605C130.81 332.291 127.104 331.225 123.886 329.214C109.392 320.154 71.5622 291.987 94.8379 256.695C99.3618 249.835 107.628 246.425 115.683 248.05L321.77 289.634Z" fill="#050542"/>
<path d="M134.907 374.513L129.5 349.931L172.219 332.337L179.645 366.098L134.907 374.513Z" fill="url(#paint0_linear_9666_9509)"/>
<path d="M171.042 370.668L354.013 331.268C357.723 330.469 361.121 328.646 363.843 326.003C376.105 314.095 407.158 278.595 376.975 248.994C371.108 243.24 362.309 241.646 354.777 244.931L162.062 328.967" fill="#050542"/>
<path d="M118.574 386.76C119.187 389.546 122.229 390.995 124.815 389.79C135.155 384.974 141.149 373.479 138.596 361.874C136.044 350.269 125.78 342.351 114.373 342.318C111.52 342.31 109.367 344.902 109.98 347.688L118.574 386.76Z" fill="black"/>
<path d="M347.192 242.207L349.247 241.535C358.628 238.469 363.747 228.378 360.681 218.997L342.972 163.775L308.586 181.477L324.653 230.773C327.72 240.154 337.81 245.273 347.192 242.207Z" fill="#F5B8A5"/>
<path d="M266.303 268.056L353.114 240.384C359.737 238.273 363.237 231.04 360.782 224.537C357.096 214.771 334.006 213.068 324.24 216.754L260.516 252.723L266.303 268.056Z" fill="#F5B8A5"/>
<path d="M136.394 242.207L134.339 241.535C124.958 238.469 119.838 228.378 122.905 218.997L140.613 163.775L175 181.477L158.932 230.773C155.866 240.154 145.775 245.273 136.394 242.207Z" fill="#F5B8A5"/>
<path d="M217.281 268.056L130.469 240.384C123.846 238.273 120.347 231.04 122.801 224.537C126.487 214.771 149.578 213.068 159.344 216.754L223.068 252.723L217.281 268.056Z" fill="#F5B8A5"/>
<path d="M259.966 115.28H226.734L230.683 82.2318H256.017L259.966 115.28Z" fill="#F5B8A5"/>
<path d="M348.046 162.724L331.986 131.526C321.007 110.198 299.142 98.1368 276.673 98.6219C274.627 98.3027 272.542 98.0951 270.401 98.0951H212.636C210.499 98.0951 208.418 98.3027 206.376 98.6205C184.201 98.4482 162.739 110.463 151.896 131.526L135.836 162.724L176.173 183.489L179.72 269.271C179.826 271.841 181.94 273.869 184.512 273.869H298.526C301.097 273.869 303.211 271.841 303.318 269.271L306.845 183.934L348.046 162.724Z" fill="#365297"/>
<path d="M306.762 183.946C306.753 183.946 306.743 183.946 306.734 183.946C306.443 183.93 306.22 183.681 306.235 183.39L308.111 148.348C308.127 148.058 308.368 147.835 308.666 147.85C308.957 147.865 309.181 148.114 309.165 148.405L307.289 183.447C307.274 183.728 307.041 183.946 306.762 183.946Z" fill="#2A3F73"/>
<path d="M176.028 183.946C175.75 183.946 175.517 183.728 175.502 183.447L173.626 148.405C173.61 148.114 173.833 147.865 174.124 147.85C174.411 147.836 174.664 148.057 174.679 148.348L176.555 183.39C176.571 183.681 176.348 183.93 176.057 183.945C176.047 183.946 176.038 183.946 176.028 183.946Z" fill="#2A3F73"/>
<path d="M233.675 46.1185H253.229C256.071 46.1185 258.33 48.4617 258.264 51.267L258.25 51.5404L257.924 55.7797C257.756 57.9687 259.067 60.0014 261.132 60.7494L261.408 60.849L261.49 60.8793H261.578C264.151 60.8794 266.237 62.9655 266.236 65.5385C266.236 68.111 264.15 70.1967 261.577 70.1967H261.077V71.2484C261.077 80.915 253.241 88.7513 243.574 88.7513C233.908 88.7513 226.071 80.9151 226.071 71.2484V70.1078L225.527 70.1547C225.44 70.1623 225.346 70.1765 225.289 70.184C225.223 70.1926 225.176 70.1967 225.135 70.1967C222.562 70.1964 220.477 68.1108 220.477 65.5385C220.477 62.9659 222.562 60.8795 225.135 60.8793C225.176 60.8793 225.222 60.8841 225.289 60.8929C225.347 60.9006 225.441 60.9138 225.529 60.9213L225.629 60.9301L225.725 60.8988C227.629 60.2819 228.894 58.4772 228.823 56.4769L228.643 51.3314C228.542 48.4826 230.824 46.1186 233.675 46.1185Z" fill="#F5B8A5" stroke="#E7B5A5"/>
<path d="M299.904 278.189H182.269C180.055 278.189 178.205 276.503 178 274.298L169.066 177.947C168.833 175.433 170.81 173.263 173.335 173.263H310.536C313.09 173.263 315.078 175.482 314.798 178.021L304.165 274.372C303.925 276.544 302.089 278.189 299.904 278.189Z" fill="#233C51"/>
<path d="M241.979 237.674C248.577 237.674 253.926 232.325 253.926 225.726C253.926 219.128 248.577 213.779 241.979 213.779C235.38 213.779 230.031 219.128 230.031 225.726C230.031 232.325 235.38 237.674 241.979 237.674Z" fill="#D2D2D2"/>
<path d="M308.626 175.837H174.938V176.957H308.626V175.837Z" fill="#D2D2D2"/>
<path d="M173.011 0.653809H13.0251C5.83143 0.653809 0 6.48524 0 13.6789V57.3211C0 64.5147 5.83143 70.3461 13.0251 70.3461H144.887L156.217 92.8026C157.361 95.0684 160.778 94.255 160.778 91.717V70.3464H173.011C180.204 70.3464 186.036 64.5147 186.036 57.3214V13.6791C186.036 6.48549 180.204 0.653809 173.011 0.653809Z" fill="#D4A34A"/>
<path d="M33.8028 42.944C28.8824 42.944 24.8937 38.9553 24.8937 34.0349C24.8937 29.1145 28.8824 25.126 33.8028 25.126C38.7229 25.126 42.7119 29.1147 42.7119 34.0349C42.7119 38.9553 38.7232 42.944 33.8028 42.944C40.5709 42.944 46.552 46.2671 50.2348 51.3628C54.2761 47.2231 56.7699 41.5659 56.7699 35.3238C56.7699 22.6396 46.4872 12.3569 33.8028 12.3569C21.1186 12.3569 10.8359 22.6396 10.8359 35.3238C10.8359 41.5659 13.3297 47.2231 17.3711 51.3628C21.0538 46.2671 27.0347 42.944 33.8028 42.944Z" fill="#6C6C6C"/>
<path d="M34.1134 42.9447C39.0313 42.7814 42.8857 38.6622 42.7223 33.7443C42.559 28.8263 38.4398 24.972 33.5219 25.1354C28.6039 25.2987 24.7496 29.4179 24.913 34.3358C25.0763 39.2537 29.1955 43.1081 34.1134 42.9447Z" fill="white"/>
<path d="M33.807 58.2898C40.249 58.2898 46.0683 55.6339 50.239 51.3617C46.5562 46.266 40.5751 42.9429 33.807 42.9429C27.0389 42.9429 21.0578 46.266 17.375 51.3614C21.5459 55.6339 27.3649 58.2898 33.807 58.2898Z" fill="white"/>
<rect x="67.3594" y="42.7163" width="98.796" height="16.1001" rx="5" fill="white"/>
<rect x="67.3594" y="25.1538" width="98.796" height="7.31822" rx="3.65911" fill="white"/>
<rect x="67.3594" y="14.9077" width="98.796" height="7.31822" rx="3.65911" fill="white"/>
<path d="M134.887 53.8684C134.45 53.8684 134.051 53.7677 133.688 53.5663C133.333 53.3649 133.047 53.0629 132.833 52.6601C132.624 52.2507 132.52 51.7338 132.52 51.1096C132.52 50.4786 132.621 49.9617 132.822 49.559C133.031 49.1563 133.312 48.8576 133.668 48.6629C134.024 48.4615 134.43 48.3608 134.887 48.3608C135.417 48.3608 135.883 48.475 136.286 48.7032C136.696 48.9314 137.018 49.2502 137.253 49.6597C137.494 50.0691 137.615 50.5524 137.615 51.1096C137.615 51.6667 137.494 52.1534 137.253 52.5695C137.018 52.979 136.696 53.2978 136.286 53.526C135.883 53.7543 135.417 53.8684 134.887 53.8684ZM131.906 55.7512V48.4213H133.104V49.6899L133.064 51.1196L133.165 52.5494V55.7512H131.906ZM134.746 52.791C135.048 52.791 135.316 52.7239 135.551 52.5897C135.793 52.4554 135.984 52.2608 136.125 52.0057C136.266 51.7506 136.336 51.4519 136.336 51.1096C136.336 50.7605 136.266 50.4618 136.125 50.2135C135.984 49.9584 135.793 49.7637 135.551 49.6295C135.316 49.4952 135.048 49.4281 134.746 49.4281C134.444 49.4281 134.172 49.4952 133.93 49.6295C133.688 49.7637 133.497 49.9584 133.356 50.2135C133.215 50.4618 133.145 50.7605 133.145 51.1096C133.145 51.4519 133.215 51.7506 133.356 52.0057C133.497 52.2608 133.688 52.4554 133.93 52.5897C134.172 52.7239 134.444 52.791 134.746 52.791Z" fill="#1E1E1E"/>
<path d="M127.107 53.9002C126.14 53.9002 125.382 53.6283 124.831 53.0846C124.287 52.5409 124.016 51.7556 124.016 50.7286V46.7515H125.325V50.6782C125.325 51.4032 125.479 51.9301 125.788 52.259C126.103 52.5879 126.546 52.7524 127.117 52.7524C127.687 52.7524 128.127 52.5879 128.436 52.259C128.745 51.9301 128.899 51.4032 128.899 50.6782V46.7515H130.188V50.7286C130.188 51.7556 129.912 52.5409 129.362 53.0846C128.818 53.6283 128.067 53.9002 127.107 53.9002Z" fill="#1E1E1E"/>
<path d="M117.332 48.3608C117.762 48.3608 118.144 48.4447 118.48 48.6126C118.822 48.7804 119.091 49.0388 119.285 49.3878C119.48 49.7302 119.577 50.1732 119.577 50.7169V53.7979H118.319V50.878C118.319 50.4014 118.205 50.0457 117.976 49.8107C117.755 49.5758 117.443 49.4583 117.04 49.4583C116.745 49.4583 116.483 49.5187 116.255 49.6396C116.026 49.7604 115.849 49.9416 115.721 50.1833C115.6 50.4182 115.54 50.7169 115.54 51.0794V53.7979H114.281V48.4213H115.479V49.8711L115.268 49.4281C115.456 49.0858 115.728 48.824 116.084 48.6428C116.446 48.4548 116.862 48.3608 117.332 48.3608Z" fill="#1E1E1E"/>
<path d="M109.731 55.8217C109.234 55.8217 108.748 55.7546 108.271 55.6203C107.801 55.4928 107.415 55.3048 107.113 55.0565L107.677 54.11C107.912 54.3047 108.207 54.4591 108.563 54.5732C108.926 54.694 109.292 54.7544 109.661 54.7544C110.251 54.7544 110.684 54.6168 110.96 54.3416C111.235 54.0731 111.372 53.667 111.372 53.1233V52.1668L111.473 50.9485L111.433 49.7302V48.4213H112.631V52.9823C112.631 53.9556 112.383 54.6705 111.886 55.1269C111.389 55.5901 110.671 55.8217 109.731 55.8217ZM109.57 53.5562C109.06 53.5562 108.597 53.4488 108.181 53.234C107.771 53.0125 107.446 52.7071 107.204 52.3178C106.969 51.9285 106.852 51.472 106.852 50.9485C106.852 50.4316 106.969 49.9785 107.204 49.5892C107.446 49.1999 107.771 48.8978 108.181 48.683C108.597 48.4682 109.06 48.3608 109.57 48.3608C110.027 48.3608 110.436 48.4515 110.798 48.6327C111.161 48.8139 111.45 49.0958 111.664 49.4785C111.886 49.8611 111.997 50.3511 111.997 50.9485C111.997 51.5459 111.886 52.0392 111.664 52.4286C111.45 52.8112 111.161 53.0964 110.798 53.2844C110.436 53.4656 110.027 53.5562 109.57 53.5562ZM109.761 52.489C110.077 52.489 110.359 52.4252 110.607 52.2977C110.856 52.1634 111.047 51.9822 111.181 51.754C111.322 51.519 111.393 51.2505 111.393 50.9485C111.393 50.6464 111.322 50.3813 111.181 50.1531C111.047 49.9181 110.856 49.7402 110.607 49.6194C110.359 49.4919 110.077 49.4281 109.761 49.4281C109.446 49.4281 109.161 49.4919 108.906 49.6194C108.657 49.7402 108.463 49.9181 108.322 50.1531C108.187 50.3813 108.12 50.6464 108.12 50.9485C108.12 51.2505 108.187 51.519 108.322 51.754C108.463 51.9822 108.657 52.1634 108.906 52.2977C109.161 52.4252 109.446 52.489 109.761 52.489Z" fill="#1E1E1E"/>
<path d="M104.382 53.7979V48.4212H105.641V53.7979H104.382ZM105.016 47.5352C104.781 47.5352 104.587 47.4614 104.432 47.3137C104.285 47.166 104.211 46.9881 104.211 46.78C104.211 46.5653 104.285 46.3874 104.432 46.2464C104.587 46.0987 104.781 46.0249 105.016 46.0249C105.251 46.0249 105.443 46.0954 105.59 46.2363C105.745 46.3706 105.822 46.5418 105.822 46.7498C105.822 46.9714 105.748 47.1593 105.6 47.3137C105.453 47.4614 105.258 47.5352 105.016 47.5352Z" fill="#1E1E1E"/>
<path d="M100.357 53.8993C99.8066 53.8993 99.2797 53.8221 98.7763 53.6677C98.2729 53.5066 97.8735 53.3019 97.5781 53.0535L98.0312 52.0366C98.3131 52.2581 98.6622 52.4427 99.0783 52.5904C99.4945 52.7381 99.9208 52.8119 100.357 52.8119C100.726 52.8119 101.025 52.7716 101.253 52.6911C101.481 52.6105 101.649 52.5031 101.757 52.3689C101.864 52.2279 101.918 52.0702 101.918 51.8956C101.918 51.6809 101.841 51.5097 101.686 51.3822C101.532 51.2479 101.33 51.1439 101.082 51.07C100.84 50.9895 100.569 50.9156 100.266 50.8485C99.9711 50.7814 99.6724 50.7042 99.3703 50.6169C99.075 50.523 98.8031 50.4055 98.5548 50.2645C98.3131 50.1169 98.1151 49.9222 97.9607 49.6806C97.8063 49.4389 97.7292 49.1301 97.7292 48.7542C97.7292 48.3716 97.8298 48.0226 98.0312 47.7071C98.2393 47.3849 98.5514 47.1298 98.9676 46.9419C99.3905 46.7472 99.9241 46.6499 100.569 46.6499C100.991 46.6499 101.411 46.7036 101.827 46.811C102.243 46.9184 102.606 47.0728 102.914 47.2742L102.502 48.2911C102.186 48.1031 101.861 47.9655 101.525 47.8783C101.189 47.7843 100.867 47.7373 100.558 47.7373C100.196 47.7373 99.9006 47.7809 99.6724 47.8682C99.4509 47.9555 99.2864 48.0696 99.179 48.2105C99.0783 48.3515 99.028 48.5126 99.028 48.6938C99.028 48.9086 99.1018 49.0832 99.2495 49.2174C99.4039 49.3449 99.6019 49.4456 99.8436 49.5195C100.092 49.5933 100.367 49.6671 100.669 49.741C100.971 49.8081 101.27 49.8853 101.565 49.9725C101.867 50.0598 102.139 50.1739 102.381 50.3149C102.629 50.4558 102.827 50.6471 102.975 50.8888C103.129 51.1304 103.206 51.4359 103.206 51.805C103.206 52.1809 103.102 52.53 102.894 52.8522C102.693 53.1677 102.381 53.4227 101.958 53.6174C101.535 53.8053 101.001 53.8993 100.357 53.8993Z" fill="#1E1E1E"/>
<defs>
<linearGradient id="paint0_linear_9666_9509" x1="79.3441" y1="368.52" x2="172.235" y2="349.956" gradientUnits="userSpaceOnUse">
<stop offset="0.2964" stop-color="#FFACAA"/>
<stop offset="0.5407" stop-color="#FFA9A8"/>
<stop offset="0.6877" stop-color="#FEA1A0"/>
<stop offset="0.8089" stop-color="#FD9491"/>
<stop offset="0.9154" stop-color="#FC807D"/>
<stop offset="1" stop-color="#FB6B67"/>
</linearGradient>
</defs>
</svg>
