<svg width="42" height="40" viewBox="0 0 42 40" fill="none" xmlns="http://www.w3.org/2000/svg">
<path d="M23.9883 36.7187C22.6727 36.7187 20.9216 36.3898 19.1172 35.1098C19.1083 35.101 19.0994 35.0921 19.0816 35.0832C19.0461 35.0565 15.4194 32.0165 10.4505 33.6343C10.2194 33.7143 9.97051 33.581 9.89051 33.3498C9.81051 33.1187 9.94385 32.8698 10.175 32.7898C13.0283 31.8654 15.4461 32.3454 16.975 32.9232C18.5305 33.501 19.4994 34.2743 19.6416 34.3987C22.8327 36.6565 25.7927 35.5898 25.9172 35.5454C25.9261 35.5365 25.9438 35.5365 25.9616 35.5276L38.4505 32.1854C39.4016 31.9276 39.9705 30.941 39.7216 29.9898C39.5972 29.5276 39.3038 29.1454 38.8861 28.9054C38.4683 28.6654 37.9883 28.6032 37.5261 28.7276L27.3127 31.4476C27.0727 31.5098 26.8327 31.3676 26.7705 31.1365C26.7083 30.8965 26.8505 30.6565 27.0816 30.5943L37.295 27.8565C37.9883 27.6698 38.7083 27.7676 39.3305 28.1232C39.9527 28.4787 40.3972 29.0565 40.5838 29.7498C40.9661 31.181 40.1127 32.6476 38.6905 33.0298L26.2194 36.3721C26.0505 36.4343 25.2061 36.7187 23.9883 36.7187Z" fill="#0D257B" stroke="#0D257B" stroke-width="1.3"/>
<path d="M24.5965 33.4651C24.0632 33.4651 23.5299 33.3318 23.041 33.0474L16.641 29.3496C16.4276 29.2251 16.3565 28.9585 16.481 28.7451C16.6054 28.5318 16.8721 28.4607 17.0854 28.5851L23.4854 32.2829C24.5521 32.8963 25.921 32.5318 26.5432 31.4651C27.1565 30.3985 26.7921 29.0296 25.7254 28.4074C24.5876 27.7496 23.5299 27.074 22.5076 26.4163C17.8143 23.4118 14.1165 21.0296 7.85874 23.7851C7.63652 23.8829 7.36985 23.7851 7.27208 23.554C7.1743 23.3318 7.27208 23.0651 7.50319 22.9674C14.1965 20.0251 18.2676 22.6385 22.9876 25.6696C24.001 26.3185 25.0499 26.994 26.1699 27.634C27.6632 28.4962 28.1787 30.4074 27.3165 31.9007C26.7299 32.8962 25.6721 33.4651 24.5965 33.4651Z" fill="#0D257B" stroke="#0D257B" stroke-width="1.3"/>
<path d="M40.0576 22.3316H24.4132C24.1643 22.3316 23.9688 22.136 23.9688 21.8871V19.8871C23.9688 16.7493 25.7199 13.9227 28.5376 12.5004C28.7421 12.3938 28.9999 12.4649 29.1154 12.6693C29.7821 13.7804 30.9465 14.4382 32.2354 14.4382C33.5243 14.4382 34.6887 13.7804 35.3554 12.6693C35.471 12.4649 35.7287 12.3938 35.9332 12.5004C38.751 13.9227 40.5021 16.7493 40.5021 19.8871V21.8871C40.5021 22.1271 40.3065 22.3316 40.0576 22.3316ZM24.8576 21.4427H39.6221V19.8871C39.6221 17.2204 38.1999 14.7938 35.8887 13.4782C35.0443 14.6249 33.6843 15.3271 32.2443 15.3271C30.8043 15.3271 29.4443 14.6249 28.5999 13.4782C26.2887 14.8027 24.8665 17.2204 24.8665 19.8871V21.4427H24.8576Z" fill="#CC922F" stroke="#CC922F" stroke-width="1.3"/>
<path d="M5.37908 37.9338C5.29908 37.9338 5.22797 37.9161 5.15686 37.8716C5.05908 37.8094 4.97908 37.7116 4.95242 37.6049L1.01464 22.9294C0.952417 22.6894 1.09464 22.4494 1.32575 22.3872L6.50797 21.0005C6.62353 20.9738 6.73908 20.9827 6.84575 21.0449C6.94353 21.1072 7.02353 21.2049 7.05019 21.3116L10.9791 35.9872C11.0413 36.2272 10.8991 36.4672 10.668 36.5294L5.49464 37.9249C5.45908 37.9338 5.41464 37.9338 5.37908 37.9338ZM1.99242 23.1249L5.69019 36.9472L10.0191 35.7916L6.32131 21.9694L1.99242 23.1249Z" fill="#0D257B" stroke="#0D257B" stroke-width="1.3"/>
<path d="M32.237 10.7852C29.7392 10.7852 27.7126 8.75855 27.7126 6.26077C27.7126 3.76299 29.7392 1.73633 32.237 1.73633C34.7348 1.73633 36.7615 3.76299 36.7615 6.26077C36.7615 8.75855 34.7348 10.7852 32.237 10.7852ZM32.237 2.62522C30.237 2.62522 28.6015 4.25188 28.6015 6.26077C28.6015 8.26077 30.2281 9.89633 32.237 9.89633C34.2459 9.89633 35.8726 8.26966 35.8726 6.26077C35.8726 4.26077 34.2459 2.62522 32.237 2.62522ZM15.7392 14.6252C14.6103 14.6252 13.6948 13.7097 13.6948 12.5808V10.7586H11.8726C10.7437 10.7586 9.82812 9.84299 9.82812 8.71411C9.82812 7.58522 10.7437 6.66966 11.8726 6.66966H13.6948V4.83855C13.6948 3.70966 14.6103 2.79411 15.7392 2.79411C16.8681 2.79411 17.7837 3.70966 17.7837 4.83855V6.66077H19.6059C20.7348 6.66077 21.6503 7.57633 21.6503 8.70522C21.6503 9.83411 20.7348 10.7497 19.6059 10.7497H17.7837V12.5719C17.7926 13.7097 16.8681 14.6252 15.7392 14.6252ZM11.8726 7.54966C11.2326 7.54966 10.717 8.07411 10.717 8.70522C10.717 9.33633 11.2415 9.86077 11.8726 9.86077H14.1392C14.3881 9.86077 14.5837 10.0563 14.5837 10.3052V12.5719C14.5837 13.2119 15.1081 13.7274 15.7392 13.7274C16.3703 13.7274 16.8948 13.203 16.8948 12.5719V10.3052C16.8948 10.0563 17.0903 9.86077 17.3392 9.86077H19.6059C20.2459 9.86077 20.7615 9.33633 20.7615 8.70522C20.7615 8.07411 20.237 7.54966 19.6059 7.54966H17.3392C17.0903 7.54966 16.8948 7.35411 16.8948 7.10522V4.83855C16.8948 4.19855 16.3703 3.68299 15.7392 3.68299C15.0992 3.68299 14.5837 4.20744 14.5837 4.83855V7.10522C14.5837 7.35411 14.3881 7.54966 14.1392 7.54966H11.8726Z" fill="#CC922F" stroke="#CC922F" stroke-width="1.3"/>
</svg>
