<svg width="28" height="28" viewBox="0 0 28 28" fill="none" xmlns="http://www.w3.org/2000/svg">
<mask id="path-1-outside-1_9666_9336" maskUnits="userSpaceOnUse" x="0" y="0.129883" width="28" height="28" fill="black">
<rect fill="white" y="0.129883" width="28" height="28"/>
<path d="M7.92778 1.09395C7.85 1.17757 7.83333 1.31867 7.83333 2.0085V2.82898H7.37778C6.83333 2.82898 6.48333 2.95963 6.15556 3.27842C5.79444 3.63379 5.71111 3.88986 5.67778 4.77306L5.65 5.5465H3.43889C1.29444 5.5465 1.21667 5.55173 1.11111 5.65102C1 5.75554 1 5.82348 1 13.8558C1 21.8882 1 21.9561 1.11111 22.0607C1.22222 22.1652 1.29444 22.1652 6.02778 22.1652H10.8333V23.1477C10.8333 24.3078 10.7833 24.5378 10.4389 24.9036C10.0389 25.3321 9.9 25.3739 8.77222 25.4053C8.06111 25.4262 7.76667 25.4523 7.7 25.5046C7.62778 25.5621 7.61111 25.6875 7.61111 26.2519C7.61111 26.623 7.63889 26.9731 7.66667 27.0306C7.72222 27.1299 7.85556 27.1299 13.9722 27.1299C19.5722 27.1299 20.2222 27.1194 20.3 27.0463C20.3722 26.9836 20.3889 26.832 20.3889 26.2676C20.3889 25.3583 20.45 25.4053 19.25 25.4053C18.4333 25.4053 18.3389 25.3949 18.0833 25.2799C17.9333 25.2172 17.7 25.0552 17.5722 24.9193C17.2222 24.5639 17.1667 24.3183 17.1667 23.1477V22.1652H21.9722C26.7056 22.1652 26.7778 22.1652 26.8889 22.0607C27 21.9561 27 21.8882 27 13.8558C27 5.82348 27 5.75554 26.8889 5.65102C26.7833 5.55173 26.7056 5.5465 24.5333 5.5465H22.2944L22.2667 5.32178C22.2111 4.85145 21.8778 4.42291 21.4056 4.20865C21.1667 4.09368 20.9889 4.05709 20.6333 4.04142L20.1667 4.01529V2.59381C20.1667 1.28209 20.1611 1.16712 20.0667 1.08873C19.9722 1.00511 19.4722 0.999884 13.9889 0.999884C8.27222 0.999884 8.01111 1.00511 7.92778 1.09395ZM19.4444 4.13548V6.5917H15.9444C12.6556 6.5917 12.4389 6.59693 12.35 6.68577C12.2944 6.73803 11.65 7.50103 10.9167 8.38422L9.58333 9.9886H9.07222H8.55556V5.83393V1.67926H14H19.4444V4.13548ZM7.83333 6.74848V9.9886H7.13889H6.44444V7.04114V4.0989L6.57222 3.92122C6.78889 3.61811 7.02222 3.50836 7.45 3.50836H7.83333V6.74848ZM21.1333 4.86712C21.4722 5.06049 21.5556 5.29043 21.5556 5.99071V6.5917H20.8611H20.1667V5.6458V4.69467L20.55 4.7208C20.8111 4.7417 20.9944 4.78351 21.1333 4.86712ZM5.66667 8.10724V9.9886H5.37778C5.05 9.9886 4.78889 10.1088 4.63889 10.3231C4.41111 10.6471 4.41667 10.6837 5.05556 13.767C5.72222 16.9914 5.71667 16.981 6.18333 17.2109L6.41667 17.3311H14H21.5833L21.8167 17.2109C22.2944 16.9758 22.2444 17.1534 23.2833 12.1522C24.2722 7.39128 24.2944 7.25018 24.0722 6.96798C23.8278 6.65442 23.7111 6.61783 22.9667 6.60216L22.2778 6.58125V6.40357V6.22588H24.2778H26.2778V13.8558V21.4858H14H1.72222V13.8558V6.22588H3.69444H5.66667V8.10724ZM23.4389 7.34425C23.4889 7.40173 23.2944 8.42603 22.5833 11.8752C22.0778 14.3314 21.6333 16.3905 21.6 16.4532C21.5667 16.5159 21.4667 16.5943 21.3722 16.6256C21.1389 16.6988 6.86111 16.6988 6.62778 16.6256C6.53333 16.5943 6.43333 16.5159 6.4 16.4532C6.30556 16.2807 5.2 10.8457 5.23889 10.7516C5.27222 10.6784 5.52222 10.668 7.57222 10.668C9.75 10.668 9.88333 10.6628 10.0056 10.5687C10.0833 10.5164 10.7389 9.74821 11.4722 8.87024L12.8 7.27108H18.0889C22.5389 7.27108 23.3833 7.28154 23.4389 7.34425ZM16.4556 23.3515L16.4722 24.543L16.6444 24.8827C16.8722 25.3321 17.2444 25.6823 17.7111 25.8913C18.0667 26.0533 18.1167 26.0586 18.8778 26.0742L19.6667 26.0899V26.2728V26.4505H14H8.33333V26.2728V26.0899L9.12778 26.0742C9.86111 26.0586 9.93889 26.0481 10.2667 25.907C10.6444 25.7398 11.2 25.2433 11.3278 24.9454L11.4 24.7782H13.1111C14.7333 24.7782 14.8222 24.773 14.9167 24.6737C14.9667 24.6214 15.0167 24.5117 15.0167 24.4385C15.0167 24.3653 14.9667 24.2556 14.9167 24.2033C14.8222 24.104 14.7389 24.0988 13.1833 24.0988H11.5556V23.132V22.1652H13.9944H16.4333L16.4556 23.3515Z"/>
</mask>
<path d="M7.92778 1.09395C7.85 1.17757 7.83333 1.31867 7.83333 2.0085V2.82898H7.37778C6.83333 2.82898 6.48333 2.95963 6.15556 3.27842C5.79444 3.63379 5.71111 3.88986 5.67778 4.77306L5.65 5.5465H3.43889C1.29444 5.5465 1.21667 5.55173 1.11111 5.65102C1 5.75554 1 5.82348 1 13.8558C1 21.8882 1 21.9561 1.11111 22.0607C1.22222 22.1652 1.29444 22.1652 6.02778 22.1652H10.8333V23.1477C10.8333 24.3078 10.7833 24.5378 10.4389 24.9036C10.0389 25.3321 9.9 25.3739 8.77222 25.4053C8.06111 25.4262 7.76667 25.4523 7.7 25.5046C7.62778 25.5621 7.61111 25.6875 7.61111 26.2519C7.61111 26.623 7.63889 26.9731 7.66667 27.0306C7.72222 27.1299 7.85556 27.1299 13.9722 27.1299C19.5722 27.1299 20.2222 27.1194 20.3 27.0463C20.3722 26.9836 20.3889 26.832 20.3889 26.2676C20.3889 25.3583 20.45 25.4053 19.25 25.4053C18.4333 25.4053 18.3389 25.3949 18.0833 25.2799C17.9333 25.2172 17.7 25.0552 17.5722 24.9193C17.2222 24.5639 17.1667 24.3183 17.1667 23.1477V22.1652H21.9722C26.7056 22.1652 26.7778 22.1652 26.8889 22.0607C27 21.9561 27 21.8882 27 13.8558C27 5.82348 27 5.75554 26.8889 5.65102C26.7833 5.55173 26.7056 5.5465 24.5333 5.5465H22.2944L22.2667 5.32178C22.2111 4.85145 21.8778 4.42291 21.4056 4.20865C21.1667 4.09368 20.9889 4.05709 20.6333 4.04142L20.1667 4.01529V2.59381C20.1667 1.28209 20.1611 1.16712 20.0667 1.08873C19.9722 1.00511 19.4722 0.999884 13.9889 0.999884C8.27222 0.999884 8.01111 1.00511 7.92778 1.09395ZM19.4444 4.13548V6.5917H15.9444C12.6556 6.5917 12.4389 6.59693 12.35 6.68577C12.2944 6.73803 11.65 7.50103 10.9167 8.38422L9.58333 9.9886H9.07222H8.55556V5.83393V1.67926H14H19.4444V4.13548ZM7.83333 6.74848V9.9886H7.13889H6.44444V7.04114V4.0989L6.57222 3.92122C6.78889 3.61811 7.02222 3.50836 7.45 3.50836H7.83333V6.74848ZM21.1333 4.86712C21.4722 5.06049 21.5556 5.29043 21.5556 5.99071V6.5917H20.8611H20.1667V5.6458V4.69467L20.55 4.7208C20.8111 4.7417 20.9944 4.78351 21.1333 4.86712ZM5.66667 8.10724V9.9886H5.37778C5.05 9.9886 4.78889 10.1088 4.63889 10.3231C4.41111 10.6471 4.41667 10.6837 5.05556 13.767C5.72222 16.9914 5.71667 16.981 6.18333 17.2109L6.41667 17.3311H14H21.5833L21.8167 17.2109C22.2944 16.9758 22.2444 17.1534 23.2833 12.1522C24.2722 7.39128 24.2944 7.25018 24.0722 6.96798C23.8278 6.65442 23.7111 6.61783 22.9667 6.60216L22.2778 6.58125V6.40357V6.22588H24.2778H26.2778V13.8558V21.4858H14H1.72222V13.8558V6.22588H3.69444H5.66667V8.10724ZM23.4389 7.34425C23.4889 7.40173 23.2944 8.42603 22.5833 11.8752C22.0778 14.3314 21.6333 16.3905 21.6 16.4532C21.5667 16.5159 21.4667 16.5943 21.3722 16.6256C21.1389 16.6988 6.86111 16.6988 6.62778 16.6256C6.53333 16.5943 6.43333 16.5159 6.4 16.4532C6.30556 16.2807 5.2 10.8457 5.23889 10.7516C5.27222 10.6784 5.52222 10.668 7.57222 10.668C9.75 10.668 9.88333 10.6628 10.0056 10.5687C10.0833 10.5164 10.7389 9.74821 11.4722 8.87024L12.8 7.27108H18.0889C22.5389 7.27108 23.3833 7.28154 23.4389 7.34425ZM16.4556 23.3515L16.4722 24.543L16.6444 24.8827C16.8722 25.3321 17.2444 25.6823 17.7111 25.8913C18.0667 26.0533 18.1167 26.0586 18.8778 26.0742L19.6667 26.0899V26.2728V26.4505H14H8.33333V26.2728V26.0899L9.12778 26.0742C9.86111 26.0586 9.93889 26.0481 10.2667 25.907C10.6444 25.7398 11.2 25.2433 11.3278 24.9454L11.4 24.7782H13.1111C14.7333 24.7782 14.8222 24.773 14.9167 24.6737C14.9667 24.6214 15.0167 24.5117 15.0167 24.4385C15.0167 24.3653 14.9667 24.2556 14.9167 24.2033C14.8222 24.104 14.7389 24.0988 13.1833 24.0988H11.5556V23.132V22.1652H13.9944H16.4333L16.4556 23.3515Z" fill="#0D257B"/>
<path d="M7.92778 1.09395C7.85 1.17757 7.83333 1.31867 7.83333 2.0085V2.82898H7.37778C6.83333 2.82898 6.48333 2.95963 6.15556 3.27842C5.79444 3.63379 5.71111 3.88986 5.67778 4.77306L5.65 5.5465H3.43889C1.29444 5.5465 1.21667 5.55173 1.11111 5.65102C1 5.75554 1 5.82348 1 13.8558C1 21.8882 1 21.9561 1.11111 22.0607C1.22222 22.1652 1.29444 22.1652 6.02778 22.1652H10.8333V23.1477C10.8333 24.3078 10.7833 24.5378 10.4389 24.9036C10.0389 25.3321 9.9 25.3739 8.77222 25.4053C8.06111 25.4262 7.76667 25.4523 7.7 25.5046C7.62778 25.5621 7.61111 25.6875 7.61111 26.2519C7.61111 26.623 7.63889 26.9731 7.66667 27.0306C7.72222 27.1299 7.85556 27.1299 13.9722 27.1299C19.5722 27.1299 20.2222 27.1194 20.3 27.0463C20.3722 26.9836 20.3889 26.832 20.3889 26.2676C20.3889 25.3583 20.45 25.4053 19.25 25.4053C18.4333 25.4053 18.3389 25.3949 18.0833 25.2799C17.9333 25.2172 17.7 25.0552 17.5722 24.9193C17.2222 24.5639 17.1667 24.3183 17.1667 23.1477V22.1652H21.9722C26.7056 22.1652 26.7778 22.1652 26.8889 22.0607C27 21.9561 27 21.8882 27 13.8558C27 5.82348 27 5.75554 26.8889 5.65102C26.7833 5.55173 26.7056 5.5465 24.5333 5.5465H22.2944L22.2667 5.32178C22.2111 4.85145 21.8778 4.42291 21.4056 4.20865C21.1667 4.09368 20.9889 4.05709 20.6333 4.04142L20.1667 4.01529V2.59381C20.1667 1.28209 20.1611 1.16712 20.0667 1.08873C19.9722 1.00511 19.4722 0.999884 13.9889 0.999884C8.27222 0.999884 8.01111 1.00511 7.92778 1.09395ZM19.4444 4.13548V6.5917H15.9444C12.6556 6.5917 12.4389 6.59693 12.35 6.68577C12.2944 6.73803 11.65 7.50103 10.9167 8.38422L9.58333 9.9886H9.07222H8.55556V5.83393V1.67926H14H19.4444V4.13548ZM7.83333 6.74848V9.9886H7.13889H6.44444V7.04114V4.0989L6.57222 3.92122C6.78889 3.61811 7.02222 3.50836 7.45 3.50836H7.83333V6.74848ZM21.1333 4.86712C21.4722 5.06049 21.5556 5.29043 21.5556 5.99071V6.5917H20.8611H20.1667V5.6458V4.69467L20.55 4.7208C20.8111 4.7417 20.9944 4.78351 21.1333 4.86712ZM5.66667 8.10724V9.9886H5.37778C5.05 9.9886 4.78889 10.1088 4.63889 10.3231C4.41111 10.6471 4.41667 10.6837 5.05556 13.767C5.72222 16.9914 5.71667 16.981 6.18333 17.2109L6.41667 17.3311H14H21.5833L21.8167 17.2109C22.2944 16.9758 22.2444 17.1534 23.2833 12.1522C24.2722 7.39128 24.2944 7.25018 24.0722 6.96798C23.8278 6.65442 23.7111 6.61783 22.9667 6.60216L22.2778 6.58125V6.40357V6.22588H24.2778H26.2778V13.8558V21.4858H14H1.72222V13.8558V6.22588H3.69444H5.66667V8.10724ZM23.4389 7.34425C23.4889 7.40173 23.2944 8.42603 22.5833 11.8752C22.0778 14.3314 21.6333 16.3905 21.6 16.4532C21.5667 16.5159 21.4667 16.5943 21.3722 16.6256C21.1389 16.6988 6.86111 16.6988 6.62778 16.6256C6.53333 16.5943 6.43333 16.5159 6.4 16.4532C6.30556 16.2807 5.2 10.8457 5.23889 10.7516C5.27222 10.6784 5.52222 10.668 7.57222 10.668C9.75 10.668 9.88333 10.6628 10.0056 10.5687C10.0833 10.5164 10.7389 9.74821 11.4722 8.87024L12.8 7.27108H18.0889C22.5389 7.27108 23.3833 7.28154 23.4389 7.34425ZM16.4556 23.3515L16.4722 24.543L16.6444 24.8827C16.8722 25.3321 17.2444 25.6823 17.7111 25.8913C18.0667 26.0533 18.1167 26.0586 18.8778 26.0742L19.6667 26.0899V26.2728V26.4505H14H8.33333V26.2728V26.0899L9.12778 26.0742C9.86111 26.0586 9.93889 26.0481 10.2667 25.907C10.6444 25.7398 11.2 25.2433 11.3278 24.9454L11.4 24.7782H13.1111C14.7333 24.7782 14.8222 24.773 14.9167 24.6737C14.9667 24.6214 15.0167 24.5117 15.0167 24.4385C15.0167 24.3653 14.9667 24.2556 14.9167 24.2033C14.8222 24.104 14.7389 24.0988 13.1833 24.0988H11.5556V23.132V22.1652H13.9944H16.4333L16.4556 23.3515Z" stroke="#0D257B" stroke-width="0.6" mask="url(#path-1-outside-1_9666_9336)"/>
<path d="M2.44367 19.2367C2.30478 19.3673 2.29923 19.6129 2.43256 19.7227C2.52701 19.8063 3.41034 19.8115 14.0159 19.8115H25.4937L25.577 19.6966C25.6992 19.5345 25.6881 19.3621 25.5548 19.2367C25.4437 19.1321 25.3715 19.1321 13.9992 19.1321C2.62701 19.1321 2.55478 19.1321 2.44367 19.2367Z" fill="#CC922F"/>
<path d="M13.5132 20.3342C13.2687 20.4283 13.2798 20.8725 13.5298 20.9613C13.7298 21.0345 14.3854 21.024 14.5521 20.9456C14.6687 20.8882 14.6909 20.8411 14.6909 20.6478C14.6909 20.4544 14.6687 20.4074 14.5521 20.3499C14.3965 20.2767 13.6965 20.2663 13.5132 20.3342Z" fill="#CC922F"/>
<path d="M17.4775 15.248C18.3272 15.2004 18.9935 14.9349 19.6406 14.3896H19.6396C19.7335 14.3118 19.8245 14.2409 19.8955 14.1895C19.9311 14.1637 19.9618 14.1436 19.9844 14.1299C19.9955 14.1231 20.0038 14.118 20.0098 14.1152C20.0181 14.1114 20.0156 14.1143 20.0078 14.1143C20.0317 14.1143 20.0517 14.102 20.0635 14.0928C20.0768 14.0824 20.0897 14.0685 20.1016 14.0537C20.1134 14.0388 20.1252 14.0212 20.1367 14.002L20.1699 13.9385L20.1709 13.9375C20.2034 13.861 20.3135 13.6323 20.4189 13.4287L20.4199 13.4277C21.3794 11.5211 20.2879 9.28788 18.1426 8.76855C17.9256 8.71484 17.59 8.68848 17.2588 8.68848C16.9276 8.68848 16.5932 8.7148 16.3789 8.76855C15.8095 8.9066 15.2573 9.20852 14.8291 9.61133V9.6123C14.1203 10.2845 13.7861 11.0235 13.7861 11.9268C13.7861 12.2293 13.8058 12.4649 13.8584 12.6895C13.911 12.9141 13.9962 13.1255 14.125 13.3809V13.3818C14.7623 14.6176 16.0367 15.3274 17.4775 15.248ZM17.7861 14.4121C16.4733 14.7042 15.049 13.8474 14.6895 12.5508C14.337 11.2805 15.2048 9.90522 16.6094 9.54004C16.9675 9.44817 17.5201 9.44782 17.9072 9.54004C19.4212 9.91536 20.2886 11.4029 19.7891 12.7666C19.4901 13.5795 18.7384 14.201 17.7861 14.4121Z" fill="#CC922F" stroke="#CC922F" stroke-width="0.1"/>
<path d="M17.2227 13.793C17.3186 13.8037 17.4184 13.774 17.5166 13.71C17.5469 13.691 17.5767 13.67 17.5996 13.6377C17.6225 13.6053 17.6359 13.5659 17.6445 13.5137C17.6614 13.4119 17.6631 13.2416 17.6631 12.9355V12.3379H18.2959C18.5921 12.3379 18.7708 12.3358 18.8848 12.3223C18.942 12.3155 18.9862 12.3053 19.0225 12.29C19.0595 12.2744 19.086 12.2534 19.1094 12.2285L19.1582 12.167C19.2526 12.0142 19.2249 11.8021 19.0918 11.6768C19.0644 11.651 19.0358 11.6285 18.998 11.6113C18.9608 11.5944 18.917 11.5837 18.8604 11.5762C18.7487 11.5613 18.5752 11.5586 18.2793 11.5586H17.6631V10.9863C17.6631 10.81 17.6602 10.6707 17.6514 10.5615C17.6426 10.4531 17.6274 10.3694 17.5986 10.3066C17.5685 10.241 17.5238 10.1986 17.4619 10.1748C17.4037 10.1524 17.3329 10.1475 17.252 10.1475C17.1084 10.1475 17.0064 10.1874 16.9385 10.2832V10.2842C16.8982 10.3387 16.8745 10.4124 16.8604 10.5234C16.846 10.6359 16.8408 10.7929 16.8408 11.0176V11.5586H16.2627C16.0793 11.5586 15.9316 11.5618 15.8135 11.5713C15.6958 11.5808 15.6032 11.5969 15.5332 11.624C15.462 11.6517 15.4112 11.692 15.3799 11.75C15.3495 11.8062 15.3408 11.8735 15.3408 11.9482C15.3408 12.0247 15.3456 12.0932 15.3701 12.1494C15.3962 12.2091 15.4418 12.2507 15.5098 12.2783C15.5753 12.3049 15.6634 12.3189 15.7783 12.3271C15.8941 12.3355 16.042 12.3379 16.2295 12.3379H16.8408V12.8838C16.8408 13.1414 16.8449 13.2984 16.8623 13.4062C16.8805 13.5187 16.9133 13.5808 16.9688 13.6475L17.0244 13.7041C17.0829 13.7543 17.1499 13.7848 17.2227 13.793Z" fill="#CC922F" stroke="#CC922F" stroke-width="0.1"/>
</svg>
