<svg width="110" height="28" viewBox="0 0 110 28" fill="none" xmlns="http://www.w3.org/2000/svg">
<path fill-rule="evenodd" clip-rule="evenodd" d="M0.34375 7.09119L12.2155 0.927734L24.2148 7.09119L12.2155 13.2701L0.34375 7.09119ZM71.6133 10.0841V9.9352C71.6133 7.90704 72.8064 7.2566 74.8158 7.40067V3.69225C70.0018 3.39877 67.7202 5.81058 67.7202 9.9352V10.0841H65.5432V13.793H67.7202V25.0197H71.6133V13.793H76.0927V25.0197H79.9858V13.793H83.1883V10.0841H79.9858V9.9352C79.9858 7.90704 81.158 7.2566 83.1883 7.40067V3.69225C78.3743 3.39877 76.0927 5.81058 76.0927 9.9352V10.0841H71.6133ZM44.402 14.1452C45.6367 13.1634 46.3901 11.7601 46.3901 9.95655C46.3901 6.46102 43.5434 4.07109 39.9641 4.07109H31.6541V24.977H40.6338C44.2968 24.977 47.2273 22.5065 47.2273 18.9261C47.1857 16.7651 46.0972 15.1105 44.402 14.1452ZM39.9849 7.94493C41.3248 7.94493 42.2457 8.93153 42.2457 10.25C42.2457 11.5728 41.2826 12.5546 39.9849 12.5546H35.8198V7.94493H39.9849ZM40.613 21.1459H35.8198V16.2203H40.613C42.0366 16.2203 43.0621 17.2661 43.0621 18.6695C43.0621 20.0947 42.0366 21.1459 40.613 21.1459ZM59.368 10.0627V18.1258C59.368 20.7243 57.9449 21.8342 56.04 21.8342C54.2813 21.8342 53.0466 20.7884 53.0466 18.7549V10.0627H49.153V19.2356C49.153 23.2162 51.6443 25.4199 54.8677 25.4199C56.898 25.4199 58.4678 24.6622 59.3472 23.3229V24.9983H63.2402V10.0627H59.368ZM99.3267 19.1124H87.9405C88.5055 21.0818 90.1378 21.9196 92.1686 21.9196C93.6963 21.9196 94.9107 21.2894 95.5595 20.4308L98.6992 22.213C97.2969 24.2455 95.0361 25.4199 92.1264 25.4199C87.0611 25.4199 83.8585 21.9836 83.8585 17.5228C83.8585 13.0567 87.0819 9.61985 91.8335 9.61985C96.2922 9.61985 99.4739 13.1207 99.4739 17.5228C99.4739 18.1044 99.411 18.6113 99.3267 19.1124ZM91.8335 13.1207C89.7408 13.1207 88.3166 14.2306 87.877 16.1349H95.5803C95.0985 13.9798 93.4663 13.1207 91.8335 13.1207ZM105.104 12.64V10.0627H101.211V24.9983H105.104V17.8536C105.104 14.7103 107.659 13.8144 109.688 14.0646V9.76979C107.784 9.76979 105.879 10.6075 105.104 12.64ZM12.2155 23.8405L4.1162 19.4384L0.34375 21.482L12.2155 27.9277L24.2148 21.482L20.3997 19.4384L12.2155 23.8405ZM4.1162 12.4964L12.2155 16.4871L20.3997 12.4964L24.2148 14.3586L12.2155 20.2121L0.34375 14.3586L4.1162 12.4964Z" fill="black" fill-opacity="0.5"/>
</svg>
