<svg width="490" height="350" viewBox="0 0 490 350" fill="none" xmlns="http://www.w3.org/2000/svg">
<path d="M98.0255 318.983C100.006 320.115 102.058 321.176 104.18 322.166C131.699 335.466 165.444 336.527 193.953 329.948C206.404 327.048 218.359 322.662 229.678 317.073C303.746 280.64 297.591 208.978 312.518 181.6C327.445 154.293 348.88 109.725 314.004 59.0735C287.546 20.6601 241.492 -5.09037 187.728 0.852033C181.785 1.48872 175.772 2.54986 169.688 3.96472C158.369 6.65295 146.697 10.756 134.883 16.4862C100.997 32.8278 78.5005 54.8996 63.22 88.2196C59.6828 96.0013 56.4994 104.278 48.8592 109.089C43.3412 112.555 36.7621 113.546 39.7333 104.986C43.1997 94.9401 27.99 86.9462 14.9026 105.198C-6.88626 135.617 -1.58054 173.111 10.5165 207.563C25.4433 249.867 56.3579 295.921 98.0255 318.983Z" fill="#C9D2E6"/>
<g opacity="0.7">
<path d="M98.0255 318.983C100.006 320.115 102.058 321.176 104.18 322.166C131.699 335.466 165.444 336.527 193.953 329.948C206.404 327.048 218.359 322.662 229.678 317.073C303.746 280.64 297.591 208.978 312.518 181.6C327.445 154.293 348.88 109.725 314.004 59.0735C287.546 20.6601 241.492 -5.09037 187.728 0.852033C181.785 1.48872 175.772 2.54986 169.688 3.96472C158.369 6.65295 146.697 10.756 134.883 16.4862C100.997 32.8278 78.5005 54.8996 63.22 88.2196C59.6828 96.0013 56.4994 104.278 48.8592 109.089C43.3412 112.555 36.7621 113.546 39.7333 104.986C43.1997 94.9401 27.99 86.9462 14.9026 105.198C-6.88626 135.617 -1.58054 173.111 10.5165 207.563C25.4433 249.867 56.3579 295.921 98.0255 318.983Z" fill="white"/>
</g>
<path d="M337.208 297.406H10.2344" stroke="#263238" stroke-miterlimit="10"/>
<path d="M306 58.395H276.086V99.9998H306V58.395Z" stroke="#263238" stroke-miterlimit="10"/>
<path d="M300.044 66.7524H282.086V91.6886H300.044V66.7524Z" stroke="#263238" stroke-miterlimit="10"/>
<path d="M244.177 36.3647H118.75V297.406H244.177V36.3647Z" fill="white" stroke="#263238" stroke-miterlimit="10"/>
<path d="M244.177 256.021H118.75V297.406H244.177V256.021Z" fill="white" stroke="#263238" stroke-miterlimit="10"/>
<path d="M120.875 297.053L236.115 259.347H119.602V297.053H120.875Z" fill="#C9D2E6"/>
<path opacity="0.37" d="M120.875 297.053L236.115 259.347H119.602V297.053H120.875Z" fill="white"/>
<path d="M210.289 270.383H241.77" stroke="#263238" stroke-miterlimit="10"/>
<path d="M171.031 282.197H241.774" stroke="#263238" stroke-miterlimit="10"/>
<path d="M223.734 265.005H241.774" stroke="#263238" stroke-miterlimit="10"/>
<path d="M131.555 293.304L234.556 259.135" stroke="#263238" stroke-miterlimit="10"/>
<g clip-path="url(#clip0_9666_9066)">
<path d="M144.605 210.183C142.816 209.465 139.318 208.348 138.92 209.026C138.523 209.704 137.132 211.021 137.132 211.021C137.132 211.021 136.337 208.787 135.701 208.667C135.025 208.548 132.203 208.508 131.606 208.667C131.01 208.827 133.236 210.382 135.104 211.579C135.542 211.858 135.979 212.058 136.376 212.257C136.297 212.736 136.058 214.092 136.178 215.328C136.337 216.884 136.376 221.032 135.621 223.665C134.786 226.537 133.554 236.149 134.111 239.46L134.747 239.34C134.19 236.109 135.422 226.656 136.257 223.824C137.012 221.112 137.012 216.804 136.814 215.249C136.694 214.212 136.893 213.015 136.973 212.496C137.887 212.815 138.642 212.935 139.199 213.334C140.153 213.932 140.471 214.451 140.471 214.451C140.471 214.451 140.59 213.773 140.868 213.853C141.146 213.892 144.962 214.81 145.638 214.69C146.314 214.531 146.354 210.901 144.605 210.183Z" fill="#263238"/>
<path d="M132.32 238.343C132.32 238.263 130.889 231.083 130.412 228.65C130.174 227.414 129.896 224.063 129.578 220.832C129.299 217.681 128.981 214.411 128.783 213.533C128.425 211.818 127.391 210.741 127.352 210.741L127.789 210.302C127.829 210.342 128.981 211.499 129.379 213.413C129.578 214.371 129.856 217.482 130.174 220.793C130.452 224.023 130.77 227.374 131.009 228.57C131.446 231.004 132.877 238.183 132.877 238.263L132.32 238.343Z" fill="#263238" stroke="#263238" stroke-width="0.3" stroke-miterlimit="10" stroke-linecap="round" stroke-linejoin="round"/>
<path d="M134.23 238.064H133.594C133.594 238.064 133.634 236.189 133.753 234.594C133.872 233.038 133.832 217.323 133.753 209.305C133.713 202.086 133.713 192.553 133.713 192.473H134.349C134.349 192.553 134.349 202.086 134.389 209.305C134.428 216.126 134.508 232.958 134.389 234.634C134.309 236.229 134.23 238.064 134.23 238.064Z" fill="#263238" stroke="#263238" stroke-width="0.3" stroke-miterlimit="10" stroke-linecap="round" stroke-linejoin="round"/>
<path d="M134.628 237.944L133.992 237.824C134.509 234.992 137.093 224.981 140.591 219.556C144.128 214.092 147.07 210.143 147.11 210.103L147.626 210.502C147.587 210.542 144.645 214.451 141.147 219.915C137.689 225.22 135.105 235.152 134.628 237.944Z" fill="#263238" stroke="#263238" stroke-width="0.3" stroke-miterlimit="10" stroke-linecap="round" stroke-linejoin="round"/>
<path d="M147.666 208.188C147.666 208.188 147.507 205.995 145.321 204.918C143.134 203.841 141.902 203.562 141.584 206.433C141.266 209.345 141.664 211.978 141.664 211.978C141.664 211.978 143.333 209.026 144.605 208.627C145.877 208.228 146.791 209.225 146.116 209.624C145.44 210.023 143.214 211.379 142.459 211.898C141.703 212.416 141.862 212.656 142.379 213.653C142.896 214.65 143.969 217.163 143.969 217.163C143.969 217.163 144.963 212.815 145.4 212.057C145.837 211.3 147.467 212.057 146.911 213.334C146.394 214.61 144.923 218.041 144.923 218.041C144.923 218.041 146.911 220.155 147.865 220.793C148.858 221.391 149.614 223.625 149.614 223.625C149.614 223.625 150.289 222.947 152.118 222.269C153.946 221.59 156.53 220.434 156.371 219.676C156.212 218.918 155.536 218.001 154.105 216.086C152.674 214.171 150.448 212.337 151.363 212.297C152.277 212.217 157.126 214.491 157.603 215.568C158.041 216.644 157.444 218.679 157.444 218.679C157.444 218.679 158.875 216.684 158.875 215.647C158.875 214.57 158.279 213.733 158.279 213.733C158.279 213.733 155.179 211.379 153.867 210.701C152.595 210.023 152.515 209.265 152.873 209.265C153.271 209.265 157.285 210.342 158.041 211.339C158.796 212.337 158.796 212.935 158.875 213.174C158.955 213.414 157.961 207.829 156.689 206.713C155.417 205.556 152.674 204.638 151.084 205.277C149.494 205.875 148.819 206.354 148.58 206.792C148.421 207.191 147.666 208.188 147.666 208.188Z" fill="#95A6CD" stroke="#263238" stroke-width="0.3" stroke-miterlimit="10" stroke-linecap="round" stroke-linejoin="round"/>
<path d="M153.274 216.246C153.274 216.246 151.723 214.291 151.445 214.969C151.167 215.607 153.472 218.639 153.711 218.399C153.989 218.12 153.989 217.203 153.274 216.246Z" stroke="#263238" stroke-width="0.3" stroke-miterlimit="10" stroke-linecap="round" stroke-linejoin="round"/>
<path d="M148.422 208.547C148.422 208.547 153.51 207.59 155.1 208.109" stroke="#263238" stroke-width="0.3" stroke-miterlimit="10" stroke-linecap="round" stroke-linejoin="round"/>
<path d="M148.586 209.784C148.586 209.784 152.76 210.821 154.389 212.137" stroke="#263238" stroke-width="0.3" stroke-miterlimit="10" stroke-linecap="round" stroke-linejoin="round"/>
<path d="M148.464 210.183C148.464 210.183 146.119 210.462 145.006 211.379C143.853 212.257 143.773 212.576 143.773 212.576" stroke="#263238" stroke-width="0.3" stroke-miterlimit="10" stroke-linecap="round" stroke-linejoin="round"/>
<path d="M144.094 207.231C144.094 207.231 144.65 207.311 145.723 207.909C146.797 208.507 147.949 208.787 147.949 208.787C147.949 208.787 149.778 211.778 150.175 214.411C150.573 217.043 150.215 221.55 150.175 221.75" stroke="#263238" stroke-width="0.3" stroke-miterlimit="10" stroke-linecap="round" stroke-linejoin="round"/>
<path d="M149.578 212.536C149.578 212.536 148.386 214.53 147.75 216.206" stroke="#263238" stroke-width="0.3" stroke-miterlimit="10" stroke-linecap="round" stroke-linejoin="round"/>
<path d="M134.27 190.917C134.27 190.917 133.912 189.681 133.912 188.724C133.912 187.766 134.906 186.49 133.276 185.892C131.646 185.293 128.506 183.817 127.95 183.02C127.353 182.222 127.314 181.584 125.922 181.384C124.531 181.185 123.339 181.225 121.55 182.342C119.761 183.419 119.324 184.735 119.324 184.735C119.324 184.735 120 184.256 123.975 184.974C127.95 185.732 130.017 188.165 128.983 188.245C127.95 188.325 122.345 185.812 120.954 185.533C119.562 185.253 118.767 185.094 117.933 185.971C117.098 186.849 116.859 188.843 116.859 188.843C116.859 188.843 119.205 187.248 121.908 187.487C124.611 187.726 128.904 189.92 128.307 190.159C127.711 190.399 124.094 188.724 121.51 189.122C118.926 189.521 117.336 189.761 117.138 190.758C116.939 191.755 117.813 192.393 117.813 192.393C117.813 192.393 117.257 191.436 119.244 190.399C121.232 189.362 124.452 189.601 124.452 189.84C124.452 190.08 122.623 189.88 121.351 190.518C120.079 191.157 118.37 192.114 118.926 192.473C119.483 192.832 120.715 193.63 120.954 194.308C121.192 194.986 121.152 196.541 121.351 196.063C121.55 195.584 121.788 194.068 122.226 193.789C122.663 193.51 127.552 193.709 127.552 193.709C127.552 193.709 129.579 192.672 129.818 192.154C130.056 191.675 130.176 190.798 131.289 191.077C132.441 191.316 132.362 191.835 131.726 192.912C131.09 193.989 129.381 195.265 129.381 195.265C129.381 195.265 132.084 193.789 133.355 193.63C134.588 193.47 135.303 192.991 135.025 192.433C134.786 191.875 134.349 191.396 135.065 191.276C135.82 191.197 136.893 191.197 137.012 191.755C137.092 192.353 136.138 192.991 136.138 192.991C136.138 192.991 140.153 191.915 141.067 191.117C142.021 190.319 142.816 189.761 142.498 189.362C142.22 188.963 140.669 189.322 140.669 189.322C140.669 189.322 139.238 188.125 137.569 188.843C135.899 189.521 135.303 190.479 134.985 190.718C134.786 190.997 134.27 190.917 134.27 190.917Z" fill="#95A6CD" stroke="#263238" stroke-width="0.3" stroke-miterlimit="10" stroke-linecap="round" stroke-linejoin="round"/>
<path d="M127.313 184.376C127.472 184.336 129.499 186.41 130.533 188.086C131.566 189.761 134.309 190.918 134.309 190.918C134.309 190.918 130.533 190.638 129.221 190.678C127.869 190.718 124.451 191.436 123.219 192.314" stroke="#263238" stroke-width="0.3" stroke-miterlimit="10" stroke-linecap="round" stroke-linejoin="round"/>
<path d="M135.062 190.718C135.062 190.718 139.037 189.841 139.475 190.439" stroke="#263238" stroke-width="0.3" stroke-miterlimit="10" stroke-linecap="round" stroke-linejoin="round"/>
<path d="M132.325 190.798C132.325 190.798 129.661 189.84 128.469 189.202C127.237 188.564 123.341 186.57 120.32 186.609" stroke="#263238" stroke-width="0.3" stroke-miterlimit="10" stroke-linecap="round" stroke-linejoin="round"/>
<path d="M128.028 208.986C128.028 208.986 129.817 206.593 129.3 206.274C128.783 205.955 123.815 207.231 122.543 207.63C121.271 208.029 118.926 208.069 116.342 208.507C113.718 208.946 113.4 209.744 112.685 209.784C111.969 209.824 111.453 209.784 111.015 210.023C110.578 210.263 110.578 210.263 110.578 210.263C110.578 210.263 111.651 210.542 112.128 210.821C112.645 211.1 114.235 211.14 114.394 211.379C114.553 211.619 116.938 212.656 119.8 213.374C122.622 214.092 126.558 211.22 127.67 210.542C128.783 209.864 129.737 209.305 129.817 208.747C129.936 208.149 128.028 208.986 128.028 208.986Z" fill="#95A6CD" stroke="#263238" stroke-width="0.3" stroke-miterlimit="10" stroke-linecap="round" stroke-linejoin="round"/>
<path d="M128.028 208.986C128.028 208.986 126.915 210.143 126.359 210.263C125.802 210.382 122.423 211.26 119.8 211.26C117.176 211.26 112.844 210.542 112.844 210.542" stroke="#263238" stroke-width="0.3" stroke-miterlimit="10" stroke-linecap="round" stroke-linejoin="round"/>
<path d="M125.328 207.869C125.328 207.869 126.004 209.106 126.441 209.505C126.878 209.903 126.878 209.903 126.878 209.903" stroke="#263238" stroke-width="0.3" stroke-miterlimit="10" stroke-linecap="round" stroke-linejoin="round"/>
<path d="M125.368 210.542C125.368 210.542 123.102 209.185 121.909 208.906C120.717 208.627 119.922 208.627 119.922 208.627" stroke="#263238" stroke-width="0.3" stroke-miterlimit="10" stroke-linecap="round" stroke-linejoin="round"/>
<path d="M121.91 211.26C121.91 211.26 120.558 210.542 118.452 210.143C116.345 209.744 115.828 209.625 115.828 209.625" stroke="#263238" stroke-width="0.3" stroke-miterlimit="10" stroke-linecap="round" stroke-linejoin="round"/>
<path d="M124.929 210.622C124.929 210.622 123.697 211.858 122.266 212.257" stroke="#263238" stroke-width="0.3" stroke-miterlimit="10" stroke-linecap="round" stroke-linejoin="round"/>
<path d="M142.261 201.966C142.261 201.966 144.567 200.291 143.732 199.852C142.897 199.413 137.69 200.61 132.523 201.448C127.355 202.285 125.924 203.442 125.01 204.319C124.136 205.197 123.977 206.553 123.977 206.553C123.977 206.553 125.686 206.753 126.004 206.952C126.322 207.151 126.719 205.676 129.581 204.2C132.443 202.724 134.351 201.767 133.079 203.322C131.807 204.838 130.217 206.513 129.065 206.832C127.912 207.151 127.912 207.151 127.912 207.151C127.912 207.151 130.893 208.228 131.529 207.909C132.165 207.59 136.219 202.166 136.736 202.245C137.253 202.325 137.293 202.684 136.418 203.761C135.544 204.838 133.675 206.314 133.675 206.314C133.675 206.314 137.69 206.433 137.889 206.114C138.088 205.795 140.512 201.727 140.671 202.525C140.87 203.362 140.671 203.601 140.274 204.12C139.876 204.639 139.081 205.596 139.081 205.596C139.081 205.596 146.515 206.753 146.634 206.035C146.753 205.317 146.197 203.881 144.845 203.243C143.613 202.604 142.261 201.966 142.261 201.966Z" fill="#95A6CD" stroke="#263238" stroke-width="0.3" stroke-miterlimit="10" stroke-linecap="round" stroke-linejoin="round"/>
<path d="M142.26 201.966C142.26 201.966 138.126 201.208 135.82 201.527" stroke="#263238" stroke-width="0.3" stroke-miterlimit="10" stroke-linecap="round" stroke-linejoin="round"/>
<path d="M131.325 237.785C131.325 237.785 130.689 235.87 129.497 231.642C128.265 227.374 127.867 223.106 127.867 223.066L128.503 223.026C128.503 223.066 128.901 227.294 130.093 231.482C131.286 235.71 131.922 237.585 131.922 237.585L131.325 237.785Z" fill="#263238"/>
<path d="M134.266 221.71C134.266 221.71 133.312 219.078 131.404 219.158C129.496 219.237 128.98 222.269 130.132 224.981C131.285 227.653 134.028 229.249 135.419 230.087C136.81 230.924 139.951 232.879 140.428 233.357C140.944 233.796 141.183 231.762 141.898 230.087C142.614 228.411 143.051 223.266 141.501 220.753C139.99 218.28 136.85 216.365 135.578 217.363C134.306 218.36 134.266 221.71 134.266 221.71Z" fill="#95A6CD" stroke="#263238" stroke-width="0.3" stroke-miterlimit="10" stroke-linecap="round" stroke-linejoin="round"/>
<path d="M134.624 222.468C134.624 222.468 134.386 223.186 135.817 224.941C137.288 226.736 139.633 228.571 139.871 230.565" stroke="#263238" stroke-width="0.3" stroke-miterlimit="10" stroke-linecap="round" stroke-linejoin="round"/>
<path d="M135.219 222.269C135.219 222.269 139.79 221.551 141.062 222.189" stroke="#263238" stroke-width="0.3" stroke-miterlimit="10" stroke-linecap="round" stroke-linejoin="round"/>
<path d="M134.503 223.226C134.503 223.226 132.794 224.742 132.516 226.297" stroke="#263238" stroke-width="0.3" stroke-miterlimit="10" stroke-linecap="round" stroke-linejoin="round"/>
<path d="M136.212 225.58C136.212 225.58 135.655 227.095 135.775 228.212" stroke="#263238" stroke-width="0.3" stroke-miterlimit="10" stroke-linecap="round" stroke-linejoin="round"/>
<path d="M137.805 226.856C137.805 226.856 140.229 227.055 140.667 228.132" stroke="#263238" stroke-width="0.3" stroke-miterlimit="10" stroke-linecap="round" stroke-linejoin="round"/>
<path d="M127.712 221.95C127.712 221.95 129.381 221.112 128.467 220.035C127.593 218.958 126.003 219.397 124.452 219.915C122.942 220.434 123.061 220.952 118.848 220.992C114.634 221.072 113.203 221.83 113.203 221.83C113.203 221.83 115.35 221.83 116.701 222.867C118.053 223.904 124.89 225.021 126.639 225.3C128.348 225.539 130.693 224.582 130.971 223.186C131.21 221.75 127.712 221.95 127.712 221.95Z" fill="#95A6CD" stroke="#263238" stroke-width="0.3" stroke-miterlimit="10" stroke-linecap="round" stroke-linejoin="round"/>
<path d="M116.188 221.87C116.188 221.87 116.744 222.109 120.321 222.428C123.899 222.747 126.92 222.189 126.92 222.189C126.92 222.189 125.171 221.431 123.899 221.152" stroke="#263238" stroke-width="0.3" stroke-miterlimit="10" stroke-linecap="round" stroke-linejoin="round"/>
<path d="M121.276 221.75C121.276 221.75 123.263 222.189 124.178 222.628C124.178 222.628 122.389 223.306 120.68 223.146" stroke="#263238" stroke-width="0.3" stroke-miterlimit="10" stroke-linecap="round" stroke-linejoin="round"/>
<path d="M126.956 222.189C126.956 222.189 126.161 223.665 125.445 223.944" stroke="#263238" stroke-width="0.3" stroke-miterlimit="10" stroke-linecap="round" stroke-linejoin="round"/>
<path d="M125.448 236.667H140.155L142.977 247.317L139.002 255.893H126.044L122.148 246.799L125.448 236.667Z" fill="#263238" stroke="#263238" stroke-width="0.3" stroke-miterlimit="10" stroke-linecap="round" stroke-linejoin="round"/>
</g>
<path d="M105.242 22.7812V297.405H120.31V36.3639H245.738V297.405H260.806V22.7812H105.242Z" fill="#C4C4C4" stroke="#263238" stroke-miterlimit="10"/>
<path d="M103.617 22.7812V297.405H118.756V36.3639H244.113V297.405H259.252V22.7812H103.617Z" fill="#C4C4C4" stroke="#263238" stroke-miterlimit="10"/>
<path d="M31.3122 178.771C31.3122 180.823 30.1804 182.521 28.7655 182.521C27.3506 182.521 26.2188 180.823 26.2188 178.771C26.2188 176.72 27.3506 175.022 28.7655 175.022C30.1096 175.022 31.3122 176.72 31.3122 178.771Z" fill="white" stroke="#263238" stroke-miterlimit="10"/>
<path d="M33.6484 21.4395V323.866L118.752 297.125V36.3662L33.6484 21.4395Z" fill="#C9D2E6" stroke="#263238" stroke-miterlimit="10"/>
<path d="M33.6469 21.4395H28.7656V323.866H33.6469V21.4395Z" fill="#C9D2E6" stroke="#263238" stroke-miterlimit="10"/>
<path d="M32.7303 184.36L29.5469 184.007V174.668L32.7303 175.093V184.36Z" fill="#263238" stroke="#263238" stroke-miterlimit="10"/>
<path d="M43.3355 179.691C43.3355 182.237 41.6377 184.289 39.5154 184.289C37.3931 184.289 35.6953 182.237 35.6953 179.691C35.6953 177.144 37.3931 175.092 39.5154 175.092C41.6377 175.092 43.3355 177.144 43.3355 179.691Z" fill="white" stroke="#263238" stroke-miterlimit="10"/>
<path d="M43.5449 179.691C43.5449 181.318 42.4838 182.591 41.1396 182.591C39.7955 182.591 38.7344 181.318 38.7344 179.691C38.7344 178.064 39.7955 176.791 41.1396 176.791C42.4838 176.791 43.5449 178.064 43.5449 179.691Z" fill="white" stroke="#263238" stroke-miterlimit="10"/>
<path d="M48.359 179.691C48.359 182.237 46.6612 184.289 44.5389 184.289C42.4166 184.289 40.7188 182.237 40.7188 179.691C40.7188 177.144 42.4166 175.092 44.5389 175.092C46.6612 175.092 48.359 177.144 48.359 179.691Z" fill="white" stroke="#263238" stroke-miterlimit="10"/>
<path d="M50.2031 47.3311V171.414L106.585 166.887V56.1739L50.2031 47.3311Z" stroke="#263238" stroke-miterlimit="10"/>
<path d="M53.1016 53.8389V164.905L103.612 160.873V61.1254L53.1016 53.8389Z" stroke="#263238" stroke-miterlimit="10"/>
<path d="M50.2031 47.3311L53.1036 53.8394" stroke="#263238" stroke-miterlimit="10"/>
<path d="M106.588 56.1738L103.617 61.1258" stroke="#263238" stroke-miterlimit="10"/>
<path d="M103.617 160.874L106.588 166.887" stroke="#263238" stroke-miterlimit="10"/>
<path d="M53.1036 164.905L50.2031 171.414" stroke="#263238" stroke-miterlimit="10"/>
<path d="M50.2031 196.457V281.915L106.585 268.615V190.232L50.2031 196.457Z" stroke="#263238" stroke-miterlimit="10"/>
<path d="M53.1016 202.965V275.406L103.612 264.017V196.599L53.1016 202.965Z" stroke="#263238" stroke-miterlimit="10"/>
<path d="M50.2031 196.458L53.1036 202.966" stroke="#263238" stroke-miterlimit="10"/>
<path d="M106.588 190.232L103.617 196.599" stroke="#263238" stroke-miterlimit="10"/>
<path d="M103.617 264.018L106.588 268.616" stroke="#263238" stroke-miterlimit="10"/>
<path d="M53.1036 275.407L50.2031 281.915" stroke="#263238" stroke-miterlimit="10"/>
<path d="M216.02 99.9761C216.02 99.9761 221.271 105.8 233.109 107.709C235.401 108.091 236.928 108.855 237.978 109.81C241.988 108.664 244.948 107.9 244.948 107.9C244.948 107.9 250.485 107.423 257.359 103.89C258.027 101.599 269.293 69.7119 251.535 63.5062C231.104 56.3459 223.276 71.1439 223.276 71.1439C223.276 71.1439 211.437 72.0032 214.588 89.8562C215.256 93.6751 215.734 97.112 216.02 99.9761Z" fill="#233C51"/>
<path d="M256.977 113.053C256.977 113.053 269.101 113.531 273.875 130.429C278.648 147.327 265.187 136.921 264.71 136.444C264.232 135.966 261.177 135.68 260.032 132.816C258.886 129.952 256.977 113.053 256.977 113.053Z" fill="#365297"/>
<path d="M269.481 231.723L256.116 331.968H245.423L240.172 204.609H269.481V231.723Z" fill="#365297"/>
<path d="M241.988 231.723L228.717 331.968H218.024L212.773 204.609H241.988V231.723Z" fill="#365297"/>
<path d="M213.445 220.455L214.114 235.921C225.379 235.635 241.8 233.63 241.8 233.63L240.75 220.646C240.75 220.646 232.921 217.877 229.198 217.304C227.289 217.018 220.128 218.641 213.445 220.455Z" fill="#033E87"/>
<path d="M228.72 331.966C228.72 331.966 242.658 337.599 242.849 338.84C243.04 340.177 217.836 338.84 217.836 338.84L218.027 331.966H228.72Z" fill="#233C51"/>
<path d="M269.482 230.767L241.7 241.174L240.555 212.532C241.891 209.095 243.514 204.895 243.514 204.895L254.78 204.513C254.78 204.513 267.191 209.764 269.387 211.768V230.767H269.482Z" fill="#033E87"/>
<path d="M232.631 113.053C232.631 113.053 222.321 113.912 215.733 115.058L217.356 173.486L208 226.568C208 226.568 228.24 234.778 243.897 233.537L247.811 206.328L249.816 233.633C249.816 233.633 265.855 232.964 274.83 228.764L266.619 173.295C266.619 173.295 263.946 157.161 266.237 146.086C267.287 140.835 266.715 135.393 264.519 130.524C263.087 127.278 261.559 125.082 261.559 125.082L256.977 112.958H245.52H232.631V113.053Z" fill="#365297"/>
<path d="M223.372 121.93C223.372 121.93 230.532 143.602 230.723 149.426C230.914 155.25 220.603 152.481 220.603 152.481C220.603 152.481 220.412 153.913 220.126 148.758C219.839 143.602 223.372 121.93 223.372 121.93Z" fill="#033E87"/>
<path d="M244.948 105.127V113.051H233.109V98.0625H244.948V105.127Z" fill="#F5B8A5"/>
<path d="M237.31 98.0625L244.279 98.7308C244.279 98.7308 244.566 98.8263 244.948 99.0172V105.223V109.805C234.541 108.373 233.109 102.645 233.109 102.645L236.069 98.0625H237.31Z" fill="#EA9686"/>
<path d="M220.031 86.0335C223.468 84.315 225.759 89.0886 225.759 89.0886C225.759 89.0886 229.865 85.1743 228.91 78.8732C228.91 78.8732 233.97 75.2453 241.703 74.3861C250.105 73.2404 253.732 79.637 254.114 82.9784C255.165 92.621 250.964 105.51 241.13 105.796C239.221 105.891 231.965 104.268 226.523 94.9123C219.363 97.2991 216.594 87.752 220.031 86.0335Z" fill="#F5B8A5"/>
<path d="M223.176 88.6106C223.176 88.6106 222.317 87.5605 220.98 88.5152C219.835 89.2789 221.076 93.1932 224.322 93.3842C224.322 93.3842 222.317 92.4295 221.84 90.8065C221.458 89.088 222.699 88.6106 223.176 88.6106Z" fill="#EA9686"/>
<path d="M249.337 113.053L247.809 141.503L228.047 113.435L232.629 113.053H249.337Z" fill="#F5B8A5"/>
<path d="M247.812 141.502L233.109 120.785H248.958L247.812 141.502Z" fill="#033E87"/>
<path d="M249.34 113.053L256.5 125.75L252.013 126.801L255.832 131.861L247.812 141.503L249.34 113.053Z" fill="#D5A54D"/>
<path d="M247.809 141.503L232.629 133.578L235.112 129.187L228.047 126.609V113.434L247.809 141.503Z" fill="#D5A54D"/>
<path d="M256.118 331.966C256.118 331.966 270.057 337.599 270.248 338.84C270.439 340.177 245.234 338.84 245.234 338.84L245.425 331.966H256.118Z" fill="#233C51"/>
<path d="M249.915 90.4262C250.653 90.4262 251.251 89.6995 251.251 88.8032C251.251 87.9068 250.653 87.1802 249.915 87.1802C249.177 87.1802 248.578 87.9068 248.578 88.8032C248.578 89.6995 249.177 90.4262 249.915 90.4262Z" fill="#233C51"/>
<path d="M243.9 88.8027C243.9 88.8027 244.759 92.3352 245.618 93.5763C246.477 94.8174 245.713 95.5812 243.613 95.4857C241.513 95.3902 244.281 95.0083 244.377 93.8627C244.472 92.717 243.231 91.1895 243.9 88.8027Z" fill="#E27466"/>
<path d="M252.773 86.1292C252.964 86.1292 253.06 86.0337 253.155 85.9382C253.346 85.7473 253.346 85.3654 253.06 85.1745C252.2 84.4107 250.1 83.456 247.904 84.888C247.618 85.079 247.618 85.3654 247.713 85.6518C247.904 85.9382 248.191 85.9382 248.477 85.8428C250.482 84.5062 252.296 86.0337 252.296 86.0337C252.487 86.1292 252.582 86.1292 252.773 86.1292Z" fill="#233C51"/>
<path d="M250.485 87.6546C250.867 87.6546 251.44 87.6546 252.108 87.4637C252.204 87.4637 252.299 87.2727 252.299 87.1773C252.299 87.0818 252.108 86.9863 252.013 86.9863C251.153 87.1773 250.199 87.1773 250.199 87.1773C250.103 87.1773 250.008 87.2727 250.008 87.3682C250.008 87.4637 250.103 87.5592 250.199 87.5592C250.294 87.6546 250.39 87.6546 250.485 87.6546Z" fill="#233C51"/>
<path d="M251.918 88.421C252.013 88.421 252.013 88.421 252.109 88.421C252.204 88.421 252.3 88.3255 252.3 88.23C252.3 88.1346 252.204 88.0391 252.109 88.0391C251.058 88.0391 250.295 87.6572 250.295 87.6572C250.199 87.5618 250.008 87.6572 250.008 87.7527C249.913 87.8482 250.008 88.0391 250.104 88.0391C250.104 87.9436 250.868 88.421 251.918 88.421Z" fill="#233C51"/>
<path d="M237.212 90.4262C237.95 90.4262 238.548 89.6995 238.548 88.8032C238.548 87.9068 237.95 87.1802 237.212 87.1802C236.473 87.1802 235.875 87.9068 235.875 88.8032C235.875 89.6995 236.473 90.4262 237.212 90.4262Z" fill="#233C51"/>
<path d="M234.445 86.1292C234.254 86.1292 234.158 86.0337 234.063 85.9382C233.872 85.7473 233.872 85.3654 234.158 85.1745C235.017 84.4107 237.118 83.456 239.314 84.888C239.6 85.079 239.6 85.3654 239.505 85.6518C239.314 85.9382 239.027 85.9382 238.741 85.8428C236.736 84.5062 234.922 86.0337 234.922 86.0337C234.731 86.1292 234.54 86.1292 234.445 86.1292Z" fill="#233C51"/>
<path d="M236.642 87.6546C236.26 87.6546 235.687 87.6546 235.019 87.4637C234.924 87.4637 234.828 87.2727 234.828 87.1773C234.828 87.0818 235.019 86.9863 235.115 86.9863C235.974 87.1773 236.928 87.1773 236.928 87.1773C237.024 87.1773 237.119 87.2727 237.119 87.3682C237.119 87.4637 237.024 87.5592 236.928 87.5592C236.928 87.6546 236.833 87.6546 236.642 87.6546Z" fill="#233C51"/>
<path d="M235.21 88.421C235.115 88.421 235.115 88.421 235.019 88.421C234.924 88.421 234.828 88.3255 234.828 88.23C234.828 88.1346 234.924 88.0391 235.019 88.0391C236.069 88.0391 236.833 87.6572 236.833 87.6572C236.928 87.5618 237.119 87.6572 237.119 87.7527C237.215 87.8482 237.119 88.0391 237.024 88.0391C237.119 87.9436 236.356 88.421 235.21 88.421Z" fill="#233C51"/>
<path d="M245.426 98.9222C245.426 98.9222 240.939 101.882 237.406 97.8721C237.406 97.9675 240.557 99.5905 245.426 98.9222Z" fill="#E27466"/>
<path d="M221.749 139.592L216.785 152.004L216.594 142.265L221.749 139.592Z" fill="#C3CFE2"/>
<path d="M250.098 141.693L238.164 130.81L239.214 129.664L251.53 140.166L250.098 141.693Z" fill="#DAE1EF"/>
<path d="M238.166 130.81L234.156 127.469L235.206 126.418L239.216 129.664L238.166 130.81Z" fill="#233C51"/>
<path d="M207.902 147.995C207.902 147.995 207.711 163.174 210.098 166.325C212.198 169.189 240.935 160.883 251.15 154.487C261.366 148.09 258.311 139.784 258.311 139.784C258.311 139.784 252.201 137.875 250.578 138.161C249.05 138.448 245.422 147.517 245.422 147.517L222.7 150.477L221.936 146.658L207.902 147.995Z" fill="#F5B8A5"/>
<path d="M208.286 157.542L222.703 150.477C222.703 150.477 211.341 148.854 209.814 148.949C209.241 148.949 208.573 149.809 208 150.763C208 152.577 208.095 155.06 208.286 157.542Z" fill="#EA9686"/>
<path d="M218.119 115.057C218.119 115.057 211.722 113.625 207.903 121.74C204.084 129.855 205.325 152.482 205.325 152.482L224.611 150.19C224.611 150.19 227.57 117.73 218.119 115.057Z" fill="#365297"/>
<path d="M246.953 170.719H286.478L300.799 117.733H261.274L246.953 170.719Z" fill="#335B7C"/>
<path d="M248.289 172.245H287.814L302.039 119.354H262.514L248.289 172.245Z" fill="#21405F"/>
<path d="M290.682 124.797L292.878 116.682H273.688L271.492 124.797H290.682Z" fill="#426F8E"/>
<path d="M288.671 118.496L290.007 113.531H278.36L277.023 118.496H288.671Z" fill="#335B7C"/>
<path d="M289.821 118.496L291.158 113.531H279.51L278.078 118.496H289.821Z" fill="#CC922F"/>
<path d="M291.822 124.797L294.018 116.682H274.829L272.633 124.797H291.822Z" fill="#D5A54D"/>
<path d="M300.701 140.836C299.937 144.177 297.264 153.724 296.309 154.297C295.259 154.87 291.345 154.106 290.581 152.006C289.817 149.905 293.827 137.59 294.4 137.208C294.877 136.921 301.464 137.494 300.701 140.836Z" fill="#F5B8A5"/>
<path d="M228.529 84.1274C228.529 84.1274 237.885 78.0173 255.165 82.409C255.165 82.409 253.447 74.7713 252.301 73.6256C251.155 72.48 246.286 70.4751 244.281 70.4751C242.372 70.4751 234.734 72.289 234.734 72.289C234.734 72.289 229.006 74.103 228.051 74.8668C227.001 75.5351 225.474 81.3588 228.529 84.1274Z" fill="#233C51"/>
<path d="M375.419 298.904C375.419 298.638 375.402 298.338 375.203 298.163C375.045 298.022 374.814 298.003 374.605 297.99C371.613 297.817 368.62 297.647 365.631 297.474C365.175 297.446 364.682 297.429 364.304 297.681C363.957 297.908 363.773 298.314 363.635 298.705C363.3 299.653 363.132 300.655 363.117 301.66C361.797 302.876 360.335 303.936 358.758 304.791C357.676 305.379 356.531 305.886 355.609 306.699C354.684 307.513 354 308.727 354.199 309.941C354.443 311.459 356.006 312.483 357.54 312.627C359.071 312.772 360.577 312.247 362.026 311.729C365.197 310.597 368.367 309.463 371.536 308.331C372.937 307.83 374.48 307.206 375.106 305.854C375.449 305.105 375.451 304.254 375.447 303.429C375.439 301.919 375.43 300.413 375.419 298.904Z" fill="#233C51"/>
<path d="M400.503 296.461C400.506 296.195 400.523 295.895 400.722 295.72C400.879 295.58 401.108 295.56 401.318 295.547C404.311 295.377 407.303 295.204 410.294 295.031C410.75 295.003 411.238 294.988 411.62 295.238C411.968 295.465 412.149 295.871 412.29 296.262C412.624 297.208 412.793 298.213 412.808 299.217C414.128 300.433 415.59 301.493 417.167 302.349C418.246 302.938 419.391 303.444 420.316 304.256C421.24 305.07 421.923 306.284 421.726 307.498C421.48 309.016 419.916 310.04 418.385 310.185C416.853 310.329 415.348 309.804 413.899 309.286C410.728 308.154 407.557 307.02 404.389 305.889C402.987 305.388 401.443 304.763 400.819 303.411C400.473 302.662 400.473 301.809 400.477 300.986C400.486 299.476 400.495 297.971 400.503 296.461Z" fill="#233C51"/>
<path d="M398.912 301.274C398.912 301.218 413.53 301.155 415.221 300.734C415.437 300.68 415.666 300.613 415.811 300.443C415.983 300.237 415.983 299.944 415.975 299.676C415.223 275.324 419.923 251.217 417.966 226.865C417.344 219.131 416.169 211.452 414.994 203.781C414.173 198.424 413.353 193.066 412.532 187.709C412.392 186.785 412.191 185.763 411.437 185.208C410.877 184.796 410.139 184.748 409.446 184.711C407.178 184.599 404.886 184.487 402.653 184.899C395.866 186.154 391.188 191.951 390.434 198.625C389.754 204.638 392.791 210.275 393.59 216.172C396.026 234.159 397.422 252.343 398.234 270.473C398.7 280.732 398.923 291.004 398.912 301.274Z" fill="#9FB2E1"/>
<path d="M367.924 197.072C365.06 208.336 366.107 220.034 366.617 231.5C367.164 243.693 364.535 257.105 362.531 269.067C361.783 273.522 361.723 278.058 361.665 282.574C361.58 288.903 361.498 295.229 361.414 301.557C365.561 301.892 369.708 302.227 373.857 302.564C375.159 302.67 376.658 302.706 377.559 301.758C378.22 301.067 378.354 300.041 378.466 299.093C380.254 283.728 383.671 268.222 386.795 253.073C388.069 246.896 389.313 240.369 389.663 234.286C390.173 225.422 391.488 216.602 393.583 207.971C394.557 203.958 395.708 199.934 395.767 195.804C395.821 191.675 394.628 187.323 391.583 184.53C386.438 179.809 377.604 181.39 372.768 186.426C367.932 191.463 366.393 198.848 366.323 205.826L367.924 197.072Z" fill="#9FB2E1"/>
<path d="M412.987 159.562C415.612 161.994 418.571 164.054 421.115 166.571C424.927 170.337 427.694 175.007 430.417 179.62C431.132 178.268 431.046 176.528 430.197 175.253C433.783 176.359 437.534 176.918 441.286 176.908C440.692 176.404 440.098 175.901 439.504 175.398C440.059 175.713 440.729 175.819 441.355 175.694C439.361 172.489 435.344 171.316 432.29 169.1C426.089 164.605 424.273 156.19 419.379 150.298C415.43 145.542 409.53 142.512 406.305 137.24C404.808 134.793 403.912 131.899 401.793 129.965C401.396 129.603 398.138 136.503 398.069 137.315C397.806 140.434 399.301 142.166 401.005 144.441C404.843 149.562 408.242 155.162 412.987 159.562Z" fill="#F5B8A5"/>
<path d="M405.578 130.278C407.042 132.166 410.461 134.723 409.508 137.012C408.886 138.513 403.921 140.736 402.586 142.058C400.927 143.701 398.996 148.062 396.087 147.371C393.001 146.637 388.571 137.084 386.893 134.416C384.225 130.168 375.02 114.671 380.078 110.025C383.877 106.537 391.955 112.885 394.536 115.517C398.856 119.919 401.815 125.431 405.578 130.278Z" fill="#4D5165"/>
<path d="M398.394 139C398.414 142.7 398.485 146.584 399.141 150.108C400.461 157.204 404.694 161.413 407.673 168.057C410.589 174.556 413.399 181.446 415.245 188.323C411.897 189.727 408.172 189.811 404.973 191.806C402.818 193.152 400.558 194.72 398.02 194.612C396.666 194.556 395.388 194.018 394.072 193.692C388.368 192.28 385.057 196.483 379.739 197.604C377.115 198.156 374.4 197.958 371.726 198.15C369.055 198.342 366.247 199.018 364.379 200.941C364.145 195.753 363.353 190.649 364.145 185.517C365.005 179.955 366.638 174.515 366.988 168.875C367.297 163.893 364.843 154.627 361.117 151.318C366.994 144.26 377.234 138.307 386.137 136.983C390.04 136.404 394.882 135.339 398.01 138.236L398.394 139Z" fill="#4D5165"/>
<path d="M365.846 158.021C366.831 160.308 368.358 163.172 370.027 164.969C371.734 166.805 373.904 167.475 376.088 168.833C378.053 170.058 379.641 171.33 381.421 172.887C384.079 175.213 387.133 177.535 390.613 178.632C394.36 179.814 396.777 177.572 400.328 177.179C403.047 176.879 405.849 178.298 408.242 179.397C409.257 179.864 412.419 180.926 410.535 182.388C409.976 182.823 408.401 182.956 407.693 183.231C406.626 183.643 405.516 184.062 404.347 183.933C402.376 183.715 400.252 182.753 398.263 183.287C396.023 183.887 394.827 185.874 392.334 185.715C389.28 185.52 386.749 183.496 383.939 182.509C380.019 181.134 375.999 180.015 372.174 178.382C368.768 176.931 365.036 175.345 362.783 172.317C361.306 170.332 358.003 164.734 358.187 162.615L365.846 158.021Z" fill="#F5B8A5"/>
<path d="M398.576 131.04C397.479 126.418 394.187 124.522 391.038 121.407C389.178 119.567 388.496 117.185 387.105 115.059C385.777 113.025 383.718 111.066 381.656 109.794C380.967 109.37 374.213 106.735 373.947 108.036C372.699 114.152 373.392 116.165 370.826 121.766C367.243 119.465 361.064 120.839 357.038 119.47C352.897 118.062 349.748 121.483 347.811 125.319C339.709 135.941 348.193 153.74 350.606 165.017C352.843 162.794 356.403 162.95 359.336 162.343C361.88 161.816 364.187 160.287 366.699 159.768C369.893 159.107 372.992 159.801 376.18 158.831C380.323 157.572 383.761 155.384 387.304 153.181C390.064 151.464 392.934 150.364 395.731 148.671C399.286 146.518 398.785 145.241 398.785 140.915C398.785 138.146 399.258 135.073 398.828 132.334C398.755 131.876 398.671 131.448 398.576 131.04Z" fill="#4D5165"/>
<path d="M358.947 109.7C358.947 109.7 360.288 118.506 357.415 121.38C356.75 122.05 366.452 124.655 368.234 124.143C374.476 122.348 373.316 118.421 374.077 113.147L369.288 97.8271L358.947 109.7Z" fill="#F5B8A5"/>
<path d="M359.331 113.721C358.715 108.069 351.683 109.408 352.052 103.336C352.277 99.602 353.147 97.8266 350.715 94.8007C349.566 93.3687 348.436 91.9454 348.937 89.9324C349.143 89.1008 349.963 88.5825 349.959 87.6775C349.957 86.9647 349.227 86.2369 349.186 85.3794C349.108 83.7163 349.858 82.8891 348.041 81.7789C345.482 80.2131 342.371 80.8048 340.302 82.6321C337.33 84.4593 336.657 90.6041 337.549 93.4637C338.076 95.1592 338.946 96.2521 338.847 98.2089C338.749 100.157 338.009 101.47 337.086 103.183C336.047 105.114 334.831 107.39 335.019 109.656C335.19 111.745 336.611 112.881 337.46 114.678C339.233 118.434 335.637 122.572 339.6 125.741C340.989 126.853 343.106 126.576 344.261 127.887C345.11 128.846 345.201 130.62 345.598 131.691C348.214 129.751 343.862 124.55 346.862 124.276C346.451 128.119 349.914 130.84 348.881 134.579C350.151 132.015 352.268 129.574 350.942 126.758C351.637 127.313 351.655 128.851 351.901 129.79C352.726 128.862 353.136 127.274 354.182 126.231C354.065 126.92 354.132 127.641 354.402 128.257C357.843 124.79 359.914 119.041 359.331 113.721Z" fill="#233C51"/>
<path d="M363.151 88.06C359.421 84.0642 351.009 80.4249 346.791 85.4833C339.581 94.1292 346.214 108.808 355.408 113.129C361.411 115.952 367.404 112.196 368.7 105.823C369.942 99.7124 367.333 92.5417 363.151 88.06Z" fill="#F5B8A5"/>
<path d="M363.604 85.2788C363.548 85.2119 363.492 85.1449 363.443 85.0801C362.885 84.3782 362.518 83.5963 361.995 82.8965C360.87 81.3997 358.907 80.7561 357.168 80.3479C354.57 79.7388 351.358 79.7972 348.844 80.7345C343.168 82.8512 339.235 88.7713 340.505 94.9096C341.051 97.549 341.224 100.268 341.708 102.927C342.529 102.152 343.84 102.143 344.943 102.199C345.06 99.9118 345.291 97.9399 345.641 95.888C345.753 97.4604 346.3 99.1624 346.349 100.443C347.39 99.0004 348.347 99.7153 348.611 98.0241C348.818 96.6764 348.755 94.5036 348.801 93.0932C348.624 94.9399 350.069 96.4258 349.941 98.3308C352.872 96.8924 350.498 91.6915 351.874 88.8901C351.643 90.7714 352.695 92.9852 353.252 94.698C353.883 93.8664 355.259 93.8923 355.749 93.0824C356.157 92.4107 355.671 90.2962 355.732 89.4085C356.395 90.6439 357.55 91.7692 358.034 93.2077C359.239 92.0457 361.093 91.4819 362.365 90.307C362.047 89.7238 361.54 89.1471 361.343 88.5381C362.291 88.7173 363.304 89.5899 364.026 90.2249C364.019 89.7886 363.946 89.2703 364.041 88.8426C364.149 88.3696 364.645 87.8664 364.674 87.3869C364.717 86.5769 364.101 85.8836 363.604 85.2788Z" fill="#233C51"/>
<path d="M345.164 81.9326C347.462 77.1312 353.326 75.844 357.937 78.0319C360.592 79.2911 362.992 78.8591 365.586 79.7814C369.022 80.9995 370.938 83.6562 372.797 86.5914C374.674 89.5526 378.089 91.0493 379.832 93.9262C381.821 97.2135 381.8 101.916 380.445 105.43C379.305 108.384 376.882 110.674 375.56 113.587C375.236 112.698 375.147 111.652 374.512 110.944C373.707 112.404 374.134 114.175 374.283 115.758C373.229 114.469 372.445 112.685 372.21 111.045C372.005 109.611 372.519 107.799 371.631 106.65C371.691 108.179 371.199 109.602 370.627 110.972C370.359 108.851 369.324 108.229 368.573 106.402C367.944 104.872 368.914 103.564 368.726 102.041C368.383 99.2848 364.94 98.0775 364.339 95.4295C363.681 92.5331 364.624 90.9176 362.017 88.572C360.195 86.9305 359.689 85.7599 357.169 85.5071C355.866 85.3776 354.642 85.7037 353.395 85.2005C352.313 84.7642 351.698 83.5978 350.529 83.209C348.888 82.6626 346.121 84.0125 344.842 82.7663C344.397 82.33 344.67 82.3991 344.657 82.1875L345.164 81.9326Z" fill="#233C51"/>
<path d="M360.496 114.492C360.391 114.492 360.332 114.49 360.326 114.488C360.114 114.475 359.957 114.293 359.969 114.081C359.982 113.87 360.149 113.68 360.376 113.725C360.583 113.734 366.006 113.999 368.421 107.965C368.501 107.766 368.728 107.671 368.918 107.751C369.116 107.829 369.211 108.053 369.134 108.248C366.754 114.196 361.507 114.492 360.496 114.492Z" fill="#233C51"/>
<path d="M356.539 97.2318C356.379 97.2318 356.217 97.18 356.081 97.072C355.766 96.8193 355.712 96.3592 355.962 96.0439C356.057 95.9229 358.373 93.0871 362.187 93.7804C362.589 93.8517 362.852 94.2361 362.779 94.6357C362.706 95.0331 362.336 95.3031 361.924 95.2253C358.986 94.6983 357.187 96.8647 357.111 96.9575C356.969 97.1368 356.755 97.2318 356.539 97.2318Z" fill="#233C51"/>
<path d="M357.189 107.142C357.01 107.142 356.846 107.103 356.692 107.029C355.837 106.615 355.718 105.224 355.63 104.206C355.61 103.984 355.593 103.787 355.571 103.636C355.401 102.526 354.604 101.031 353.563 100.453C353.385 100.355 353.323 100.131 353.422 99.9537C353.522 99.7766 353.744 99.7161 353.921 99.8133C355.202 100.528 356.103 102.258 356.297 103.526C356.323 103.69 356.34 103.904 356.362 104.144C356.427 104.889 356.535 106.137 357.014 106.371C357.267 106.492 357.658 106.299 357.941 106.111C358.107 106.001 358.336 106.049 358.448 106.217C358.558 106.388 358.511 106.615 358.34 106.727C357.917 107.003 357.53 107.142 357.189 107.142Z" fill="#233C51"/>
<path d="M358.344 109.899C358.143 109.899 357.979 109.737 357.977 109.534C357.974 109.331 358.136 109.166 358.339 109.164C358.512 109.162 362.588 109.069 363.763 104.851C363.817 104.657 364.011 104.536 364.216 104.596C364.411 104.65 364.525 104.853 364.471 105.05C363.145 109.808 358.396 109.899 358.346 109.899H358.344Z" fill="#233C51"/>
<path d="M352.314 104.484C351.916 104.743 351.273 104.454 350.873 103.825C350.858 103.795 350.828 103.765 350.812 103.732C351.197 103.504 351.717 103.119 352.024 102.568C352.117 102.644 352.208 102.767 352.301 102.89C352.698 103.519 352.713 104.223 352.314 104.484Z" fill="#233C51"/>
<path d="M347.281 103.169C347.205 103.169 347.13 103.158 347.054 103.132C346.667 103.007 346.458 102.592 346.583 102.208C347.659 98.8966 351.21 98.7691 351.359 98.767C351.769 98.754 352.097 99.0737 352.11 99.4797C352.123 99.8836 351.803 100.223 351.4 100.236C351.292 100.24 348.734 100.35 347.981 102.663C347.879 102.972 347.592 103.169 347.281 103.169Z" fill="#233C51"/>
<path d="M361.491 97.6748C361.011 98.0657 360.471 98.2839 360.016 98.4135C360.046 98.4934 360.063 98.5711 360.102 98.651C360.435 99.3098 361.05 99.6705 361.471 99.4545C361.89 99.2407 361.962 98.5323 361.627 97.8735C361.59 97.7979 361.538 97.7439 361.491 97.6748Z" fill="#233C51"/>
<path d="M368.907 157.959C368.646 157.959 368.41 157.779 368.348 157.512C367.933 155.712 367.341 153.952 366.767 152.248C366.091 150.235 365.389 148.155 364.981 145.997C364.812 145.105 364.683 144.226 364.559 143.365C364.153 140.563 363.771 137.917 361.937 135.516C361.745 135.263 361.795 134.902 362.048 134.712C362.296 134.522 362.659 134.568 362.853 134.82C364.866 137.457 365.268 140.248 365.696 143.2C365.819 144.047 365.942 144.909 366.11 145.784C366.503 147.864 367.16 149.814 367.855 151.881C368.439 153.609 369.039 155.397 369.464 157.252C369.536 157.561 369.344 157.87 369.035 157.941C368.991 157.952 368.948 157.959 368.907 157.959Z" fill="#F8F8F8"/>
<path d="M397.211 147.476C396.878 147.468 396.628 147.202 396.637 146.887C396.637 146.882 396.678 145.498 396.678 145.498C396.76 143.608 396.85 141.82 396.943 140.031C397.112 136.72 397.287 133.297 397.315 129.975C397.338 127.26 395.595 125.742 393.58 123.984C393.036 123.511 392.479 123.023 391.937 122.498C390.403 121.014 389.423 119.599 388.287 117.958C386.943 116.016 385.42 113.813 382.543 110.938C382.319 110.714 382.319 110.351 382.543 110.126C382.77 109.899 383.129 109.899 383.358 110.126C386.306 113.074 387.861 115.321 389.233 117.303C390.334 118.893 391.282 120.269 392.734 121.673C393.263 122.182 393.805 122.658 394.334 123.118C396.47 124.982 398.487 126.74 398.459 129.986C398.431 133.332 398.256 136.768 398.088 140.09C397.969 142.368 397.855 144.647 397.781 146.913C397.777 147.23 397.522 147.476 397.211 147.476Z" fill="#F8F8F8"/>
<path d="M368.753 325.873C368.753 325.451 367.723 325.108 366.455 325.108C365.187 325.108 364.157 325.451 364.157 325.873L362.945 330.132C362.945 330.78 364.518 331.302 366.455 331.302C368.392 331.302 369.967 330.78 369.967 330.132L368.753 325.873Z" fill="#233C51"/>
<path d="M433.003 307.261C433.003 306.837 431.973 306.496 430.705 306.496C429.437 306.496 428.409 306.837 428.409 307.261L427.195 311.52C427.195 312.166 428.766 312.691 430.705 312.691C432.642 312.691 434.217 312.166 434.217 311.52L433.003 307.261Z" fill="#233C51"/>
<path d="M367.218 325.894L365.695 325.721L379.529 204.707C379.788 202.517 380.689 200.482 382.13 198.819L384.095 196.552C385.916 194.452 388.439 193.132 391.199 192.834L408.882 190.927C411.869 190.601 414.897 191.543 417.184 193.5C419.342 195.348 420.683 197.925 420.957 200.752L431.465 308.339L429.942 308.486L419.435 200.901C419.197 198.467 418.046 196.251 416.188 194.662C414.225 192.977 411.616 192.178 409.046 192.448L391.365 194.355C388.989 194.612 386.821 195.748 385.253 197.552L383.287 199.819C382.05 201.249 381.276 202.999 381.054 204.88L367.218 325.894Z" fill="#233C51"/>
<path d="M424.557 246.655L373.867 256.449L374.158 257.954L424.848 248.16L424.557 246.655Z" fill="#233C51"/>
<path d="M425.643 138.818C423.128 133.354 416.748 131.634 412.93 136.913C409.429 141.753 412.336 151.717 412.604 157.3C412.912 163.766 412.528 170.954 407.705 175.838C405.487 178.084 403.266 180.333 401.048 182.579C399.971 183.67 398.636 184.305 399.262 185.806C399.727 186.911 400.936 187.901 401.878 188.587C403.204 189.555 404.703 190.261 406.187 190.961C406.297 191.011 406.411 191.065 406.532 191.048C406.66 191.03 406.763 190.94 406.856 190.851C411.718 186.343 416.342 181.436 421.167 176.825C422.48 175.564 423.822 174.268 424.634 172.639C425.407 171.088 425.655 169.335 425.869 167.615C426.684 161.149 427.219 154.637 427.172 148.118C427.152 144.952 426.969 141.695 425.643 138.818Z" fill="#233C51"/>
<path d="M431.629 126.485C433.648 126.844 435.633 125.878 437.627 125.39C439.618 124.902 442.178 125.148 443.076 126.99C443.752 128.377 443.171 130.016 442.586 131.444C440.912 135.533 439.147 139.751 435.931 142.777C433.393 145.161 430.082 146.669 427.789 149.289C426.495 150.764 425.562 152.554 424.091 153.853C422.62 155.151 420.292 155.827 418.717 154.66C418.132 154.226 417.728 153.595 417.372 152.958C412.762 144.716 414.657 134.427 412.324 125.278C412.158 124.625 417.724 120.245 418.411 119.606C420.084 118.053 421.901 116.377 424.041 118.319C426.84 120.848 427.056 125.673 431.629 126.485Z" fill="#F5B8A5"/>
<path d="M422.398 114.34C420.655 111.331 417.629 109.098 414.242 108.321C410.855 107.543 407.155 108.234 404.276 110.18C402.68 111.26 401.309 112.751 400.646 114.563C400.015 116.291 400.076 118.075 400.523 119.837C400.665 124.584 403.577 128.824 406.628 132.5C408.829 135.152 411.549 137.895 414.994 138.01C417.827 138.105 420.473 136.282 421.998 133.893C423.523 131.507 424.087 128.628 424.324 125.805C424.655 121.882 424.372 117.746 422.398 114.34Z" fill="#F5B8A5"/>
<path d="M430.347 113.748C431.652 111.845 431.669 109.277 430.885 107.109C430.103 104.94 428.613 103.102 427.043 101.413C427.892 100.463 427.754 98.925 427.045 97.8645C426.339 96.8062 425.194 96.1323 424.054 95.5599C421.095 94.074 417.134 93.1841 414.764 95.4995C413.002 94.5686 410.738 94.6679 409.058 95.7479C407.382 96.8256 406.354 98.8451 406.47 100.836C404.552 101.48 403.358 103.754 403.913 105.698C401.973 105.329 399.863 106.068 398.576 107.564C397.287 109.061 396.874 111.26 397.529 113.122C396.492 113.046 395.433 113.642 394.963 114.571C394.492 115.5 394.637 116.703 395.31 117.498C395.986 118.295 397.159 118.746 397.405 119.763C397.682 120.912 396.79 121.744 397.509 122.832C397.814 123.292 398.194 123.776 398.135 124.325C398.105 124.593 397.971 124.837 397.911 125.1C397.71 125.969 398.326 126.798 398.904 127.478C398.708 126.558 398.891 125.562 399.403 124.774C399.377 125.357 399.568 125.947 399.926 126.403C399.654 126.053 400.596 124.832 400.742 124.534C401.064 123.886 401.256 122.932 401.291 122.206C401.375 120.381 399.52 118.465 400.559 116.962C400.239 118.193 400.788 119.597 401.855 120.288C401.796 119.824 401.738 119.357 401.682 118.893C401.924 119.521 402.168 120.15 402.412 120.778C402.339 118.865 402.539 116.94 403.004 115.083C402.812 116.72 403.447 118.433 404.66 119.549C404.222 117.869 404.442 116.027 405.27 114.5C404.717 115.895 406.101 117.349 407.529 117.809C408.956 118.269 410.55 118.21 411.874 118.914C411.507 118.23 411.125 117.547 410.803 116.847C411.021 116.834 411.237 116.832 411.457 116.85C412.023 117.068 412.557 117.4 413.097 117.735C413.097 117.735 413.155 117.709 413.257 117.666C414.064 118.301 414.747 119.171 415.263 119.964C415.283 119.636 416.17 117.608 416.172 117.614C416.803 118.878 417.615 120.046 418.576 121.079C418.46 119.917 420.265 119.392 421.144 120.163C422.023 120.934 422.103 122.267 421.976 123.426C421.913 123.986 421.82 124.565 421.998 125.096C422.473 126.521 424.6 126.662 425.797 125.753C426.123 125.504 426.382 125.206 426.611 124.891C426.864 124.852 427.134 124.856 427.373 124.925C427.974 125.1 428.561 125.457 429.179 125.359C429.805 125.26 430.263 124.72 430.605 124.184C432.581 121.074 432.479 116.763 430.347 113.748Z" fill="#D3C3C1"/>
<path d="M479.778 286.909C478.214 298.198 472.225 309.246 474.478 320.443C474.614 321.103 474.769 321.792 474.89 322.497C475.303 324.764 475.473 327.093 473.894 328.609C472.592 329.864 470.57 329.972 468.748 329.987C467.292 330.004 465.698 329.987 464.564 329.069C463.322 328.071 463 326.296 463.199 324.732C463.307 323.89 463.551 323.108 463.843 322.373C464.411 320.81 465.19 319.369 465.376 317.561C465.545 315.786 465.499 313.993 465.316 312.229C465.223 311.326 465.1 310.421 464.964 309.533C463.754 301.829 460.458 293.464 461.026 285.604C461.516 278.647 473.987 276.243 478.491 280.563C480.1 282.114 480.085 284.686 479.778 286.909Z" fill="#F5B8A5"/>
<path d="M451.32 283.876C450.095 288.364 447.32 292.241 445.283 296.408C443.231 300.591 441.911 305.57 443.767 309.844C443.935 310.229 444.136 310.626 444.32 311.026C444.855 312.172 445.33 313.369 444.9 314.518C444.395 315.833 442.846 316.462 441.423 316.509C440.015 316.54 438.62 316.157 437.194 316.14C434.851 316.125 432.643 317.121 430.395 317.797C428.142 318.473 425.553 318.762 423.594 317.475C423.073 317.123 422.581 316.602 422.628 315.976C422.674 315.332 423.257 314.872 423.792 314.52C424.65 313.967 425.54 313.492 426.442 313.004C427.652 312.343 428.894 311.699 430.026 310.92C432.017 309.572 433.81 307.719 434.363 305.388C434.637 304.224 434.594 303 434.546 301.803C434.302 296.043 434.054 290.297 433.81 284.539L433.903 285.226C433.885 283.911 433.963 282.591 434.162 281.291C434.255 280.738 434.391 280.157 434.805 279.803C435.157 279.483 435.65 279.405 436.11 279.343C440.397 278.747 444.825 279.051 448.993 280.233C449.959 280.524 451.045 280.952 451.415 281.9C451.644 282.528 451.503 283.233 451.32 283.876Z" fill="#F5B8A5"/>
<path d="M489.201 275.054C489.231 278.469 489.324 281.871 489.508 285.258C485.94 286.221 482.292 287.201 478.631 287.541C478.357 287.586 478.065 287.616 477.788 287.616C475.827 287.785 473.866 287.741 471.92 287.402C471.722 287.37 471.521 287.325 471.324 287.279C471.015 287.234 470.728 287.171 470.436 287.093C468.199 286.59 465.991 285.854 463.711 285.594C461.659 285.348 459.605 285.487 457.551 285.778C457.291 285.808 457.03 285.854 456.771 285.901C452.006 286.638 447.257 288.001 442.57 287.08C442.51 287.08 442.447 287.065 442.386 287.05C442.078 286.99 441.773 286.912 441.481 286.821C440.44 286.545 439.414 286.16 438.417 285.748C438.142 285.61 437.851 285.489 437.574 285.366C435.874 284.584 434.19 283.709 432.458 282.99C429.149 281.627 425.213 280.921 422.086 282.683C422.27 277.81 422.438 272.925 422.622 268.052C422.637 267.761 422.637 267.486 422.654 267.197C422.974 258.603 423.28 250.024 423.602 241.428C423.663 239.987 423.71 238.546 423.771 237.108C423.894 233.752 424.015 230.382 424.138 227.028C424.231 224.255 424.276 221.25 424.354 218.17C424.354 217.911 424.369 217.635 424.369 217.376C424.6 208.015 425.121 197.857 428.092 189.969C431.449 181.068 449.05 176.548 457.553 174.772C462.914 173.639 468.797 173.178 473.594 175.814C477.102 177.744 479.523 181.038 481.313 184.669C481.467 184.945 481.59 185.22 481.728 185.511C482.246 186.63 482.724 187.779 483.151 188.928C484.132 191.533 484.992 194.168 485.711 196.818C485.849 197.261 485.955 197.708 486.063 198.151C488.959 209.196 489.832 220.626 489.94 232.205C489.955 233.246 489.955 234.307 489.955 235.346C489.94 244.845 489.495 254.452 489.296 264.009C489.279 264.499 489.264 264.99 489.264 265.465C489.219 267.931 489.188 270.413 489.188 272.879C489.186 273.599 489.186 274.333 489.201 275.054Z" fill="#D5A54D"/>
<path d="M489.953 235.346C489.953 234.305 489.953 233.247 489.938 232.206C489.86 232.331 489.799 232.435 489.722 232.56C488.434 229.234 487.056 225.955 485.676 222.709C484.007 218.789 482.337 214.774 480.836 210.698C482.827 206.622 484.573 202.426 486.061 198.152C485.953 197.707 485.845 197.262 485.709 196.819C484.223 201.216 482.46 205.504 480.454 209.702C479.642 207.435 478.86 205.167 478.216 202.886C478.065 202.348 477.91 201.83 477.756 201.294C477.236 199.361 476.67 197.385 475.888 195.501C477.987 192.268 479.933 188.929 481.726 185.512C481.585 185.22 481.465 184.946 481.311 184.67C479.536 188.087 477.605 191.426 475.521 194.659C475.045 193.618 474.464 192.56 473.912 191.549C472.074 188.195 470.188 184.732 471.277 181.285C471.337 181.087 471.231 180.873 471.032 180.81C470.832 180.732 470.62 180.855 470.54 181.054C469.361 184.808 471.337 188.424 473.238 191.916C473.819 192.957 474.402 194.046 474.892 195.102C474.94 195.21 474.985 195.333 475.032 195.439C471.706 200.523 468.03 205.378 464.015 209.931L458.775 186.553C458.715 186.339 458.531 186.216 458.315 186.262C458.101 186.307 457.98 186.508 458.024 186.722L463.309 210.253C463.341 210.376 463.369 210.515 463.402 210.638C460.061 214.361 456.507 217.884 452.769 221.193C451.114 213.197 450.103 205.061 449.829 196.942C453.488 192.361 457.013 187.106 458.225 181.071C458.272 180.855 458.132 180.659 457.933 180.627C457.704 180.564 457.52 180.717 457.473 180.916C456.354 186.508 453.183 191.426 449.782 195.763C449.736 193.558 449.721 191.365 449.764 189.175C449.782 188.976 449.613 188.793 449.397 188.793C449.199 188.808 449.015 188.961 448.998 189.16C448.952 191.672 448.967 194.169 449.058 196.681C448.43 197.463 447.818 198.214 447.205 198.949C443.086 203.867 438.52 208.892 433.049 212.752C432.207 207.283 433.049 201.555 433.894 195.977C434.291 193.387 434.706 190.691 434.935 188.056C434.95 187.858 434.795 187.674 434.583 187.644C434.382 187.629 434.183 187.782 434.168 187.996C433.939 190.601 433.525 193.281 433.142 195.871C432.27 201.631 431.395 207.56 432.345 213.26C432.255 213.32 432.162 213.398 432.054 213.458C429.557 215.128 426.969 216.448 424.362 217.381C424.362 217.64 424.347 217.916 424.347 218.176C427.103 217.212 429.846 215.847 432.484 214.1C432.667 214.99 432.881 215.877 433.17 216.752C433.676 218.329 434.367 219.877 435.039 221.363C435.667 222.772 436.328 224.245 436.831 225.744C437.52 227.858 437.92 230.096 438.227 232.316C433.753 235.258 429.095 237.908 424.272 240.254C424.086 239.197 423.918 238.154 423.766 237.113C423.706 238.552 423.658 239.992 423.598 241.433C423.628 241.418 423.673 241.4 423.706 241.387C424.518 245.908 425.529 250.532 426.801 255.36C427.475 257.889 428.287 260.813 429.313 263.848C427.123 265.042 424.9 266.161 422.65 267.204C422.632 267.496 422.632 267.77 422.617 268.059C424.978 266.988 427.289 265.824 429.574 264.584C430.63 267.632 431.885 270.787 433.434 273.837C435.242 277.392 437.447 280.807 439.654 284.131C438.965 284.561 438.259 284.975 437.57 285.373C437.846 285.496 438.138 285.617 438.412 285.755C438.965 285.435 439.533 285.096 440.082 284.759C440.449 285.297 440.801 285.848 441.17 286.369C441.278 286.522 441.369 286.675 441.477 286.829C441.769 286.919 442.073 286.997 442.382 287.058C442.442 287.073 442.505 287.088 442.566 287.088C442.322 286.705 442.06 286.323 441.801 285.939C441.449 285.42 441.095 284.883 440.743 284.362C444.803 281.835 448.788 279.062 452.661 276.014C454.026 279.323 455.389 282.632 456.767 285.911C457.026 285.865 457.287 285.818 457.546 285.788C456.123 282.371 454.698 278.939 453.274 275.507C457.609 272.075 461.79 268.338 465.836 264.295C466.296 265.751 466.784 267.206 467.352 268.63C469.281 273.563 471.978 278.219 474.752 282.738C473.341 284.256 471.903 285.712 470.432 287.103C470.724 287.181 471.013 287.241 471.32 287.289C472.622 286.047 473.907 284.744 475.164 283.412C475.668 284.239 476.175 285.051 476.696 285.878C477.063 286.461 477.417 287.042 477.784 287.626C478.061 287.626 478.352 287.595 478.626 287.55C478.199 286.846 477.771 286.155 477.339 285.466C476.804 284.593 476.251 283.718 475.715 282.831C479.622 278.619 483.344 274.006 486.884 268.997L489.197 275.066C489.182 274.345 489.182 273.61 489.182 272.889L487.404 268.217C488.033 267.312 488.644 266.409 489.257 265.474C489.257 264.999 489.272 264.509 489.29 264.018C488.553 265.152 487.817 266.254 487.067 267.342L479.823 248.314C483.208 243.886 486.439 239.215 489.551 234.282C489.692 234.627 489.83 234.992 489.953 235.346ZM475.382 196.296C476.059 197.996 476.547 199.758 477.024 201.491C477.175 202.026 477.331 202.562 477.484 203.098C478.203 205.642 479.076 208.154 479.996 210.651C477.376 216.029 474.326 221.191 470.942 226.124C470.743 225.772 470.575 225.42 470.391 225.083C469.946 224.331 469.486 223.612 469.011 222.878C468.307 221.759 467.57 220.61 466.974 219.415C465.611 216.735 464.89 213.763 464.233 210.867C468.292 206.286 472.028 201.415 475.382 196.296ZM463.603 211.538C464.246 214.327 464.968 217.147 466.283 219.75C466.896 220.977 467.648 222.156 468.367 223.29C468.827 224.011 469.287 224.731 469.715 225.467C469.974 225.91 470.207 226.37 470.452 226.83C466.851 231.962 462.868 236.834 458.531 241.368C456.218 235.102 454.348 228.636 452.939 222.063C456.691 218.754 460.263 215.247 463.603 211.538ZM457.935 241.979C453.767 246.269 449.309 250.269 444.561 253.899C442.721 249.195 440.838 244.035 439.905 238.688C439.643 237.247 439.46 235.763 439.276 234.323C439.201 233.787 439.125 233.234 439.062 232.698C443.674 229.634 448.101 226.279 452.283 222.664C453.706 229.234 455.605 235.698 457.935 241.979ZM437.559 225.495C437.054 223.964 436.378 222.478 435.734 221.039C435.075 219.566 434.401 218.05 433.898 216.519C433.589 215.553 433.363 214.575 433.177 213.592C438.862 209.655 443.566 204.476 447.795 199.437C448.237 198.916 448.682 198.38 449.11 197.828C449.432 205.856 450.443 213.884 452.114 221.789C447.946 225.42 443.533 228.772 438.937 231.852C438.63 229.709 438.246 227.564 437.559 225.495ZM427.555 255.154C426.267 250.282 425.241 245.595 424.414 241.029C429.224 238.701 433.881 236.081 438.339 233.169C438.399 233.582 438.462 233.996 438.507 234.409C438.691 235.865 438.892 237.351 439.136 238.822C440.099 244.305 442.047 249.591 443.931 254.388C439.503 257.727 434.846 260.774 430.006 263.455C429.01 260.485 428.198 257.636 427.555 255.154ZM440.315 283.71C438.11 280.401 435.918 277.001 434.127 273.479C432.563 270.429 431.306 267.258 430.25 264.193C435.108 261.513 439.779 258.465 444.222 255.124C444.423 255.63 444.622 256.152 444.818 256.658C447.287 262.861 449.814 269.066 452.356 275.269C448.451 278.349 444.423 281.168 440.315 283.71ZM452.987 274.766C450.458 268.636 447.978 262.509 445.542 256.381C445.311 255.813 445.082 255.232 444.853 254.649C449.585 251.018 454.06 247.051 458.227 242.776C458.317 243.02 458.395 243.282 458.486 243.543C459.007 244.876 459.542 246.193 460.065 247.511C461.03 249.899 462.026 252.383 462.87 254.848C463.514 256.701 464.095 258.617 464.646 260.457C464.953 261.452 465.259 262.463 465.581 263.459C461.536 267.532 457.32 271.301 452.987 274.766ZM465.38 260.241C464.812 258.388 464.246 256.472 463.603 254.604C462.743 252.107 461.749 249.625 460.784 247.236C460.246 245.919 459.71 244.599 459.205 243.267C459.067 242.899 458.944 242.532 458.808 242.165C463.188 237.614 467.216 232.744 470.849 227.58C471.996 229.923 472.948 232.405 473.864 234.811L478.953 248.172C474.925 253.394 470.648 258.297 466.192 262.848C465.916 261.973 465.639 261.098 465.38 260.241ZM486.551 268.113C482.996 273.2 479.244 277.887 475.307 282.148C472.579 277.718 469.959 273.155 468.063 268.327C467.467 266.811 466.944 265.232 466.438 263.671C470.927 259.12 475.231 254.234 479.275 248.994L486.551 268.113ZM479.503 247.448L474.588 234.532C473.607 231.99 472.596 229.37 471.339 226.888C474.711 222.016 477.728 216.916 480.363 211.631C481.819 215.491 483.396 219.292 484.974 222.998C486.415 226.415 487.886 229.862 489.218 233.37C486.121 238.318 482.89 243.005 479.503 247.448Z" fill="#E3C57F"/>
<path d="M479.625 177.667C479.609 178.388 479.549 179.123 479.227 179.766C477.877 182.464 472.011 189.034 469.102 189.862C465.929 190.782 462.497 189.753 459.248 190.304C455.404 190.948 452.093 193.706 448.22 193.92C444.544 194.119 441.08 191.989 437.404 192.019C435.274 192.034 433.084 192.771 431.047 192.08C427.6 190.931 426.65 186.518 426.68 182.872C426.71 179.226 426.972 175.058 424.367 172.516C422.926 171.123 420.907 170.539 419.22 169.453C415.941 167.339 414.179 163.446 413.719 159.587C413.535 158.023 413.55 156.446 413.671 154.883C413.105 149.552 412.507 142.779 411.82 137.235C413.244 137.924 414.699 137.999 415.788 137.908C417.395 142.489 418.974 147.053 420.583 151.619C423.432 142.52 435.734 138.23 436.991 128.777C437.099 127.964 437.114 127.137 437.436 126.401C439.719 121.003 451 124.552 454.514 126.252C464.37 131.021 464.853 147.613 468.473 156.462C470.188 160.654 472.843 162.682 475.689 166.187C477.374 168.256 478.568 170.706 479.164 173.295C479.501 174.725 479.67 176.196 479.625 177.667Z" fill="#F4DAD3"/>
<path d="M415.838 138.361C415.594 138.357 415.428 138.182 415.43 137.97C415.434 137.76 415.605 137.594 415.814 137.594C416.22 137.594 420.626 137.454 422.933 131.046C423.004 130.847 423.22 130.741 423.423 130.814C423.624 130.886 423.728 131.106 423.654 131.305C421.181 138.177 416.341 138.361 415.838 138.361Z" fill="#233C51"/>
<path d="M444.9 314.518C444.395 315.834 442.846 316.462 441.423 316.51C440.015 316.54 438.62 316.158 437.194 316.14C434.851 316.125 432.643 317.121 430.395 317.797C428.142 318.473 425.553 318.763 423.594 317.475C423.073 317.123 422.581 316.603 422.628 315.976C422.674 315.333 423.257 314.873 423.792 314.521C424.65 313.968 425.54 313.492 426.442 313.004C426.259 313.311 426.196 313.631 426.84 314.244C427.546 314.903 430.548 314.672 431.406 314.657C432.477 314.624 439.602 312.741 444.32 311.026C444.855 312.173 445.33 313.369 444.9 314.518Z" fill="#233C51"/>
<g opacity="0.5">
<path d="M424.883 107.294C424.643 107.277 424.484 107.091 424.501 106.881C424.62 105.4 424.741 103.866 424.384 102.419C423.998 100.866 423.058 99.6697 421.866 99.2205C421.656 99.1405 421.434 99.0779 421.207 99.0109C420.417 98.782 419.522 98.5207 419.177 97.6654C419.097 97.4688 419.192 97.2463 419.388 97.1664C419.581 97.0844 419.807 97.1816 419.885 97.3781C420.093 97.89 420.738 98.0779 421.419 98.2766C421.663 98.3479 421.909 98.4191 422.134 98.5034C423.561 99.0433 424.68 100.439 425.125 102.238C425.514 103.804 425.386 105.4 425.263 106.944C425.248 107.143 425.082 107.294 424.883 107.294Z" fill="#F8F8F8"/>
<path d="M398.48 118.845C398.409 118.845 398.338 118.825 398.271 118.784C397.396 118.219 396.867 117.182 396.852 116.013C396.837 114.843 397.344 113.795 398.206 113.208C398.476 113.024 398.77 112.882 399.053 112.743C399.532 112.51 399.986 112.29 400.236 111.907C400.543 111.445 400.5 110.83 400.457 110.18C400.426 109.732 400.394 109.27 400.47 108.815C400.679 107.536 401.804 106.467 403.092 106.326C403.329 106.307 403.491 106.456 403.515 106.666C403.537 106.875 403.383 107.065 403.176 107.087C402.219 107.19 401.381 107.987 401.226 108.938C401.167 109.307 401.193 109.707 401.221 110.128C401.273 110.877 401.327 111.65 400.88 112.329C400.513 112.886 399.941 113.162 399.39 113.432C399.12 113.564 398.865 113.687 398.638 113.841C397.99 114.283 397.608 115.093 397.619 116.005C397.629 116.916 398.029 117.715 398.69 118.143C398.867 118.257 398.917 118.495 398.802 118.672C398.729 118.782 398.606 118.845 398.48 118.845Z" fill="#F8F8F8"/>
<path d="M406.15 111.947C405.941 111.947 405.77 111.779 405.766 111.572C405.755 110.889 406.228 110.435 406.645 110.034C406.921 109.77 407.181 109.522 407.293 109.235C407.485 108.749 407.243 108.185 406.986 107.589C406.882 107.349 406.781 107.107 406.701 106.87C406.291 105.615 406.569 104.15 407.412 103.133C407.548 102.971 407.79 102.949 407.952 103.083C408.114 103.219 408.137 103.459 408.001 103.623C407.321 104.44 407.098 105.621 407.429 106.632C407.498 106.85 407.593 107.068 407.688 107.289C407.98 107.967 408.31 108.738 408.001 109.518C407.829 109.958 407.481 110.293 407.172 110.589C406.824 110.924 406.522 111.213 406.528 111.563C406.53 111.775 406.362 111.95 406.15 111.952V111.947Z" fill="#F8F8F8"/>
<path d="M415.348 115.564C415.052 115.53 414.845 115.411 414.696 115.215C414.445 114.884 414.378 114.355 414.488 113.601C414.687 112.279 414.225 110.867 413.283 109.916C413.067 109.698 412.83 109.504 412.592 109.31C412.26 109.035 411.914 108.75 411.618 108.402C411.115 107.813 410.681 106.813 411.117 105.934C411.214 105.746 411.441 105.668 411.631 105.761C411.819 105.854 411.897 106.083 411.804 106.273C411.551 106.783 411.821 107.461 412.201 107.906C412.454 108.202 412.758 108.452 413.08 108.718C413.337 108.929 413.594 109.141 413.83 109.379C414.938 110.5 415.482 112.161 415.249 113.718C415.136 114.463 415.264 114.701 415.305 114.755C415.605 114.83 415.754 115.02 415.726 115.23C415.704 115.424 415.538 115.564 415.348 115.564Z" fill="#F8F8F8"/>
<path d="M423.547 121.373C423.338 121.373 423.167 121.207 423.163 120.997C423.12 118.699 421.919 116.455 420.029 115.144C419.895 115.053 419.759 114.963 419.621 114.874C419.085 114.524 418.53 114.166 418.156 113.595C418.04 113.418 418.091 113.181 418.269 113.064C418.441 112.95 418.683 112.999 418.798 113.174C419.083 113.611 419.547 113.911 420.037 114.23C420.18 114.323 420.325 114.418 420.465 114.515C422.551 115.965 423.878 118.442 423.927 120.982C423.93 121.194 423.763 121.369 423.549 121.373H423.547Z" fill="#F8F8F8"/>
<path d="M421.015 110.906C420.845 110.906 420.689 110.792 420.644 110.619C419.899 107.716 418.212 105.075 415.89 103.183C415.728 103.051 415.702 102.809 415.836 102.645C415.972 102.478 416.21 102.455 416.376 102.591C418.823 104.584 420.603 107.368 421.387 110.431C421.439 110.636 421.316 110.844 421.11 110.898C421.078 110.904 421.046 110.906 421.015 110.906Z" fill="#F8F8F8"/>
<path d="M427.061 115.161C426.994 115.161 426.927 115.144 426.867 115.109C426.683 115.001 426.625 114.766 426.731 114.584C428.552 111.506 428.225 107.269 425.955 104.509C425.819 104.344 425.843 104.103 426.009 103.971C426.165 103.835 426.411 103.858 426.547 104.023C429.016 107.025 429.372 111.63 427.392 114.977C427.318 115.094 427.191 115.161 427.061 115.161Z" fill="#F8F8F8"/>
</g>
<path d="M473.898 328.613C472.596 329.868 470.574 329.976 468.751 329.991C467.296 330.009 465.702 329.991 464.568 329.073C463.326 328.076 463.004 326.3 463.203 324.737C463.311 323.894 463.555 323.112 463.846 322.378C465.011 324.063 466.328 325.302 468.948 325.21C471.183 325.134 473.222 324.045 474.892 322.499C475.309 324.769 475.477 327.097 473.898 328.613Z" fill="#233C51"/>
<path d="M413.577 129.514C411.886 129.514 410.175 128.309 409.218 126.443C408.611 125.253 408.391 123.95 408.601 122.773C408.819 121.557 409.463 120.62 410.419 120.129C410.871 119.901 411.363 119.782 411.886 119.782C413.577 119.782 415.288 120.987 416.242 122.853C417.514 125.343 416.977 128.175 415.041 129.164C414.592 129.397 414.1 129.514 413.577 129.514ZM411.886 120.551C411.484 120.551 411.11 120.639 410.769 120.814C410.031 121.192 409.529 121.935 409.357 122.909C409.175 123.922 409.37 125.054 409.903 126.097C410.715 127.682 412.193 128.749 413.577 128.749C413.977 128.749 414.35 128.663 414.691 128.488C416.253 127.691 416.64 125.322 415.558 123.205C414.748 121.615 413.273 120.551 411.886 120.551Z" fill="#F8F8F8"/>
<path d="M405.656 133.87C404.176 133.87 402.505 132.546 401.496 130.577C400.2 128.043 400.444 125.417 402.047 124.596C402.353 124.438 402.697 124.358 403.062 124.358C404.541 124.358 406.213 125.682 407.222 127.652C408.516 130.186 408.274 132.812 406.671 133.633C406.362 133.788 406.021 133.87 405.656 133.87ZM403.06 125.125C402.818 125.125 402.593 125.177 402.394 125.279C401.213 125.883 401.114 128.149 402.176 130.229C403.042 131.922 404.474 133.104 405.652 133.104C405.893 133.104 406.118 133.052 406.317 132.95C407.498 132.346 407.598 130.08 406.535 128C405.669 126.307 404.239 125.125 403.06 125.125Z" fill="#F8F8F8"/>
<path d="M406.76 127.029L406 126.941C406.004 126.904 406.112 126.029 406.883 125.468C407.484 125.027 408.3 124.91 409.311 125.111L409.16 125.863C408.38 125.707 407.762 125.779 407.335 126.09C406.84 126.448 406.762 127.023 406.76 127.029Z" fill="#F8F8F8"/>
<path d="M415.101 122.231C415.012 122.231 414.924 122.201 414.852 122.141C414.692 122.002 414.673 121.76 414.811 121.601L418.807 116.942C419.317 116.447 420.518 115.849 421.569 116.922C421.718 117.074 421.716 117.316 421.565 117.465C421.418 117.611 421.172 117.609 421.025 117.46C420.25 116.672 419.451 117.385 419.36 117.469L415.392 122.1C415.314 122.186 415.206 122.231 415.101 122.231Z" fill="#F8F8F8"/>
<path d="M423.175 119.913C423.853 122.012 423.376 124.047 422.11 124.455C420.842 124.863 419.268 123.492 418.59 121.393C417.912 119.293 418.389 117.259 419.657 116.85C420.922 116.44 422.497 117.812 423.175 119.913Z" fill="#F5B8A5"/>
<path d="M412.995 124.953C412.565 125.076 412.137 125.214 411.723 125.35C411.446 124.707 411.524 124.096 411.861 123.957C412.213 123.819 412.705 124.186 412.949 124.785C412.962 124.845 412.995 124.893 412.995 124.953Z" fill="#233C51"/>
<path d="M406.082 128.522C405.624 128.829 405.255 129.105 404.996 129.304C404.935 129.196 404.859 129.06 404.795 128.922C404.535 128.323 404.611 127.71 404.963 127.574C405.315 127.421 405.793 127.788 406.037 128.401C406.052 128.444 406.067 128.49 406.082 128.522Z" fill="#233C51"/>
<path d="M409.451 133.182C409.28 133.182 409.114 133.154 408.956 133.098C408.407 132.901 408.001 132.363 407.863 131.659C407.794 131.301 407.794 130.944 407.796 130.601C407.798 130.439 407.798 130.275 407.792 130.113C407.751 129.247 407.455 128.378 406.951 127.666C406.831 127.493 406.874 127.253 407.047 127.132C407.215 127.009 407.455 127.054 407.58 127.225C408.163 128.057 408.511 129.07 408.554 130.078C408.563 130.253 408.563 130.43 408.561 130.605C408.561 130.925 408.559 131.227 408.613 131.512C408.677 131.849 408.869 132.251 409.213 132.374C409.44 132.456 409.755 132.402 410.04 132.225C410.336 132.039 410.587 131.748 410.829 131.465C410.969 131.305 411.211 131.288 411.368 131.426C411.528 131.564 411.548 131.806 411.412 131.966C411.144 132.275 410.841 132.629 410.446 132.875C410.129 133.078 409.783 133.182 409.451 133.182Z" fill="#233C51"/>
<path d="M411.898 133.972C411.734 133.972 411.635 133.961 411.63 133.959C411.419 133.931 411.274 133.741 411.3 133.531C411.328 133.322 411.496 133.179 411.728 133.199C411.814 133.212 414.019 133.441 415.153 130.97C415.244 130.78 415.466 130.691 415.661 130.782C415.853 130.87 415.937 131.097 415.849 131.289C414.723 133.743 412.641 133.972 411.898 133.972Z" fill="#233C51"/>
<path d="M473.134 149.575C468.799 141.877 464.063 133.774 456.253 129.646C453.881 128.393 450.643 127.689 448.769 129.605C447.913 130.478 447.553 131.726 447.423 132.944C446.978 137.173 448.941 141.219 450.957 144.992C452.421 148.206 454.38 151.195 456.769 153.798C459.335 156.586 462.568 159.331 462.86 163.109C462.968 164.528 462.631 165.94 462.259 167.314C460.741 172.897 458.577 178.303 455.825 183.394C458.875 184.848 461.926 186.301 464.976 187.753C468.171 179.26 477.346 173.254 477.972 164.202C478.328 158.998 475.689 154.117 473.134 149.575Z" fill="#233C51"/>
<path d="M454.586 197.916L394.344 194.026L394.441 192.497L454.684 196.386L454.586 197.916Z" fill="#233C51"/>
<path d="M415.632 344.751L414.109 344.587L427.971 215.814C428.451 211.365 429.976 207.313 432.632 203.427C434.408 200.833 437.207 199.071 440.313 198.592L461.116 195.371C464.713 194.823 468.374 196.017 470.939 198.581C472.797 200.438 473.963 202.903 474.225 205.518L487.251 335.783L485.728 335.934L472.702 205.672C472.475 203.406 471.464 201.272 469.855 199.665C467.635 197.445 464.438 196.397 461.352 196.885L440.546 200.106C437.857 200.52 435.434 202.047 433.898 204.291C431.386 207.963 429.945 211.788 429.494 215.978L415.632 344.751Z" fill="#233C51"/>
<path d="M479.077 262.651L422.164 274.674L422.481 276.173L479.393 264.149L479.077 262.651Z" fill="#233C51"/>
<path d="M417.169 344.382C417.169 343.961 416.141 343.618 414.871 343.618C413.601 343.618 412.571 343.961 412.571 344.382L411.359 348.641C411.359 349.289 412.932 349.812 414.871 349.812C416.809 349.812 418.381 349.289 418.381 348.641L417.169 344.382Z" fill="#233C51"/>
<path d="M488.792 334.903C488.792 334.482 487.762 334.138 486.494 334.138C485.226 334.138 484.198 334.482 484.198 334.903L482.984 339.162C482.984 339.808 484.557 340.333 486.494 340.333C488.434 340.333 490.006 339.808 490.006 339.162L488.792 334.903Z" fill="#233C51"/>
<path d="M405.849 190.413L405.449 190.933C405.097 192.296 404.209 193.4 403.365 194.502C403.045 194.931 401.617 198.21 401.617 198.21C401.067 198.301 400.514 197.994 400.209 197.536C399.52 196.495 400.715 194.778 399.719 194.029C398.721 193.294 397.758 194.458 398.17 195.422C398.339 195.851 398.538 196.372 398.246 196.724C398.078 196.724 397.926 196.571 397.909 196.402C397.987 196.938 398.002 197.489 397.954 198.041C397.924 198.318 397.831 198.64 397.572 198.7C397.356 198.761 397.16 198.607 397.004 198.471C396.468 198.011 395.976 197.491 395.335 197.214C394.892 197.031 394.417 196.97 393.972 196.787C391.797 195.836 391.751 192.834 392.471 190.933C393.283 188.804 395.03 186.89 396.991 185.756C397.25 185.603 397.527 185.495 397.786 185.419C397.786 185.419 398.186 185.313 398.907 184.961C399.354 185.678 401.7 189.296 405.849 190.413Z" fill="#F5B8A5"/>
<path d="M464.461 190.674C464.536 192.482 464.659 194.32 464.139 196.052C463.603 197.782 462.271 199.391 460.478 199.652C460.463 199.391 460.448 199.132 460.433 198.87C459.543 199.577 458.532 200.112 457.443 200.419C457.109 200.08 457.109 199.499 457.4 199.115C455.806 200.691 453.387 201.413 451.195 200.968C451.195 200.033 451.992 199.313 452.711 198.73C453.646 197.978 454.627 197.121 454.811 195.957C455.009 194.778 453.815 193.413 452.741 193.933C452.329 194.132 452.067 194.546 451.731 194.853C451.042 195.449 449.998 195.603 449.171 195.235C449.048 195.19 448.927 195.112 448.852 194.989C448.975 195.188 451.64 191.374 451.899 190.778C452.636 189.03 453.508 187.024 454.823 185.631C455.467 184.972 456.141 184.436 456.8 183.853L464.69 187.698C464.599 188.698 464.415 189.724 464.461 190.674Z" fill="#F5B8A5"/>
<defs>
<clipPath id="clip0_9666_9066">
<rect width="48.8126" height="74.9875" fill="white" transform="translate(110.336 181.104)"/>
</clipPath>
</defs>
</svg>
