<svg width="40" height="40" viewBox="0 0 40 40" fill="none" xmlns="http://www.w3.org/2000/svg">
<path d="M4.27902 5.71345C3.52126 5.71345 2.79453 6.01447 2.25871 6.55029C1.72289 7.0861 1.42188 7.81283 1.42188 8.57059V35.7134C1.42188 36.4712 1.72289 37.1979 2.25871 37.7338C2.79453 38.2696 3.52126 38.5706 4.27902 38.5706H35.7076C36.4654 38.5706 37.1921 38.2696 37.7279 37.7338C38.2637 37.1979 38.5647 36.4712 38.5647 35.7134V8.57059C38.5647 7.81283 38.2637 7.0861 37.7279 6.55029C37.1921 6.01447 36.4654 5.71345 35.7076 5.71345H29.9933M9.9933 1.42773V9.99916M29.9933 1.42773V9.99916M9.9933 5.71345H24.279" stroke="#0D257B" stroke-width="3" stroke-linecap="round" stroke-linejoin="round"/>
<path d="M17.6769 13.0352C17.298 13.0352 16.9346 13.1857 16.6667 13.4536C16.3988 13.7215 16.2483 14.0848 16.2483 14.4637V18.4809H12.2254C11.8466 18.4809 11.4832 18.6314 11.2153 18.8993C10.9474 19.1672 10.7969 19.5306 10.7969 19.9094V24.5523C10.7969 24.9312 10.9474 25.2945 11.2153 25.5625C11.4832 25.8304 11.8466 25.9809 12.2254 25.9809H16.2454V29.998C16.2454 30.3769 16.396 30.7403 16.6639 31.0082C16.9318 31.2761 17.2951 31.4266 17.674 31.4266H22.3169C22.5045 31.4266 22.6902 31.3896 22.8636 31.3178C23.0369 31.246 23.1944 31.1408 23.327 31.0082C23.4597 30.8755 23.5649 30.718 23.6367 30.5447C23.7085 30.3714 23.7454 30.1856 23.7454 29.998V25.9809H27.7626C28.1415 25.9809 28.5048 25.8304 28.7727 25.5625C29.0407 25.2945 29.1912 24.9312 29.1912 24.5523V19.9094C29.1912 19.5306 29.0407 19.1672 28.7727 18.8993C28.5048 18.6314 28.1415 18.4809 27.7626 18.4809H23.7483V14.4637C23.7483 14.0848 23.5978 13.7215 23.3299 13.4536C23.062 13.1857 22.6986 13.0352 22.3197 13.0352H17.6769Z" stroke="#CC922F" stroke-width="2.5" stroke-linecap="round" stroke-linejoin="round"/>
</svg>
