<svg width="28" height="28" viewBox="0 0 28 28" fill="none" xmlns="http://www.w3.org/2000/svg">
<path d="M17.9199 8.37842C18.0193 8.37842 18.1189 8.34088 18.1982 8.27881L18.2705 8.2085V8.20752C18.2988 8.17295 18.3265 8.13719 18.3477 8.08936C18.3686 8.04193 18.381 7.98831 18.3896 7.92041C18.4064 7.78791 18.4092 7.57832 18.4092 7.21045V6.51123H20.9014C22.1072 6.51123 22.7611 6.5081 23.1377 6.49268C23.5138 6.47726 23.6292 6.44961 23.749 6.39014L23.8545 6.32861C24.0914 6.16847 24.2699 5.89438 24.3438 5.58838H24.3428C24.3546 5.54087 24.3633 5.45038 24.3701 5.33936C24.3773 5.22366 24.3838 5.07476 24.3887 4.90479C24.3984 4.56454 24.4036 4.13606 24.4043 3.7085C24.405 3.28082 24.4003 2.85327 24.3916 2.51514C24.3872 2.34615 24.3819 2.19862 24.375 2.08447C24.3685 1.97672 24.3597 1.88803 24.3477 1.84131C24.2782 1.56051 24.1145 1.30192 23.9004 1.13037L23.8057 1.06299L23.5957 0.928223L23.5713 0.912598H23.542L19.0723 0.900879C17.4947 0.897961 16.3628 0.901151 15.6094 0.910645C15.2331 0.915388 14.9503 0.922005 14.7529 0.930176C14.6543 0.934259 14.5759 0.938716 14.5176 0.943848C14.4642 0.948537 14.4154 0.954499 14.3848 0.965332H14.3838C14.2399 1.01746 14.0874 1.14432 13.9648 1.28564C13.842 1.4273 13.736 1.59966 13.6963 1.75732C13.684 1.80264 13.6749 1.88704 13.668 1.99268C13.6607 2.10294 13.6544 2.24746 13.6494 2.41943C13.6395 2.76352 13.6348 3.22103 13.6348 3.74365C13.6348 4.67128 13.6381 5.17825 13.6758 5.49072C13.6949 5.64889 13.7235 5.76408 13.7676 5.86182C13.8118 5.95965 13.8691 6.03445 13.9365 6.11377L14.0391 6.22607C14.1424 6.32769 14.2532 6.39865 14.4102 6.44287C14.6096 6.49899 14.8801 6.51123 15.2959 6.51123H16.0303L16.8408 7.41162L17.2832 7.89893C17.4013 8.02561 17.4936 8.11868 17.5674 8.18701C17.7129 8.32185 17.8082 8.37834 17.9199 8.37842ZM17.0215 6.09229L17.0205 6.09326L16.4531 5.46826L16.4238 5.43604H15.5332C15.1827 5.43604 14.9732 5.43169 14.8438 5.41846C14.7109 5.40486 14.6887 5.3833 14.6816 5.37549L14.6777 5.37158C14.677 5.37042 14.6755 5.36769 14.6738 5.36377C14.6703 5.35555 14.6659 5.34127 14.6611 5.31787C14.6514 5.26983 14.6436 5.19399 14.6377 5.0708C14.626 4.82499 14.623 4.41041 14.623 3.69775C14.623 2.8724 14.6235 2.46192 14.6377 2.24658C14.6449 2.13776 14.6547 2.09134 14.6641 2.06885C14.6695 2.05568 14.6728 2.05169 14.6992 2.03174H14.7002C14.7012 2.03113 14.708 2.0271 14.7275 2.02197C14.7517 2.01568 14.7894 2.0085 14.8477 2.00244C14.9644 1.99032 15.1522 1.98166 15.458 1.9751C16.0686 1.962 17.1387 1.9585 19.0293 1.9585C21.1331 1.9585 22.2004 1.95861 22.7549 1.97314C23.0334 1.98045 23.176 1.99168 23.2539 2.00635C23.2917 2.01348 23.3081 2.02087 23.3154 2.0249C23.321 2.02799 23.3252 2.03053 23.3359 2.04248C23.3545 2.0631 23.3641 2.07691 23.373 2.10596C23.3839 2.14092 23.3936 2.19888 23.4004 2.30908C23.414 2.52914 23.415 2.92549 23.415 3.68604C23.415 4.35768 23.4121 4.75757 23.4004 5.00342C23.3945 5.12648 23.3871 5.20718 23.377 5.26221C23.3669 5.31675 23.3558 5.33983 23.3477 5.35205L23.3457 5.35498L23.2959 5.43604H17.7324L17.7021 5.47021L17.5791 5.61279L17.5322 5.66553C17.4898 5.71845 17.4606 5.77489 17.4434 5.85693C17.423 5.95395 17.4209 6.08823 17.4209 6.30029V6.52881L17.0215 6.09229Z" fill="#CC922F" stroke="#CC922F" stroke-width="0.2"/>
<path d="M16.7031 4.23584C16.905 4.23584 17.0342 4.23438 17.124 4.20947C17.1737 4.19568 17.214 4.1742 17.25 4.14307C17.2837 4.11388 17.3107 4.0779 17.3359 4.04248C17.4191 3.92709 17.464 3.80478 17.459 3.68018C17.4538 3.55521 17.3994 3.44019 17.3086 3.33936L17.3076 3.34033C17.2468 3.26986 17.1881 3.21673 17.0898 3.18896C17.0019 3.16421 16.8862 3.16065 16.7188 3.16064C16.5609 3.16064 16.4466 3.16595 16.3555 3.18701C16.2586 3.20942 16.1902 3.24867 16.1221 3.30713V3.30811C16.0112 3.40507 15.9543 3.5481 15.9473 3.68799C15.9403 3.8279 15.9827 3.97615 16.082 4.08643C16.1396 4.15027 16.201 4.19089 16.3018 4.2124C16.3927 4.23174 16.5184 4.23584 16.7031 4.23584Z" fill="#CC922F" stroke="#CC922F" stroke-width="0.2"/>
<path d="M19.0156 4.23584C19.2175 4.23584 19.3467 4.23438 19.4365 4.20947C19.4862 4.19568 19.5265 4.1742 19.5625 4.14307C19.5962 4.11388 19.6232 4.0779 19.6484 4.04248C19.7316 3.92709 19.7765 3.80478 19.7715 3.68018C19.7663 3.55521 19.7119 3.44019 19.6211 3.33936L19.6201 3.34033C19.5593 3.26986 19.5006 3.21673 19.4023 3.18896C19.3144 3.16421 19.1987 3.16065 19.0312 3.16064C18.8734 3.16064 18.7591 3.16595 18.668 3.18701C18.5711 3.20942 18.5027 3.24867 18.4346 3.30713V3.30811C18.3237 3.40507 18.2668 3.5481 18.2598 3.68799C18.2528 3.8279 18.2952 3.97615 18.3945 4.08643C18.4521 4.15027 18.5135 4.19089 18.6143 4.2124C18.7052 4.23174 18.8309 4.23584 19.0156 4.23584Z" fill="#CC922F" stroke="#CC922F" stroke-width="0.2"/>
<path d="M21.333 4.23584C21.5323 4.23584 21.6607 4.23442 21.75 4.20947C21.7996 4.1956 21.8401 4.17426 21.876 4.14307C21.9095 4.11388 21.9366 4.07797 21.9619 4.04248H21.9609C22.0441 3.92706 22.0891 3.80483 22.084 3.68018C22.0788 3.55522 22.0244 3.44019 21.9336 3.33936L21.9326 3.34033C21.8717 3.26975 21.8135 3.21663 21.7139 3.18896C21.6247 3.16422 21.506 3.16064 21.333 3.16064C21.1603 3.16065 21.0422 3.16429 20.9531 3.18896C20.8526 3.21686 20.793 3.26977 20.7314 3.34131V3.34229C20.538 3.5533 20.5306 3.85778 20.7031 4.0708L20.7051 4.07275C20.7315 4.10366 20.7603 4.13325 20.7969 4.15771C20.8343 4.1827 20.8755 4.20007 20.9238 4.21143C21.0147 4.2328 21.1414 4.23584 21.333 4.23584Z" fill="#CC922F" stroke="#CC922F" stroke-width="0.2"/>
<mask id="path-5-outside-1_9666_9347" maskUnits="userSpaceOnUse" x="-0.460938" y="4.13037" width="16" height="24" fill="black">
<rect fill="white" x="-0.460938" y="4.13037" width="16" height="24"/>
<path d="M9.2419 5.31445C7.52762 5.46035 5.81335 6.42917 4.9825 7.72482C4.47243 8.51271 4.28312 9.19556 4.24105 10.3803C4.21476 11.0748 4.19373 11.2032 4.07804 11.4542C3.89925 11.8335 3.86244 12.3588 3.98339 12.779C4.07804 13.1 4.50398 13.6486 4.65648 13.6486C4.70906 13.6486 4.78268 13.8295 4.87733 14.1564C5.17707 15.2186 5.69766 16.0998 6.4023 16.7302L6.61264 16.9169L6.50747 17.2438L6.39704 17.5706L5.61353 17.9616C4.06226 18.732 3.54693 19.053 3.14203 19.5082C2.91591 19.7592 2.71609 20.051 2.62669 20.2553C2.35851 20.8797 2.32696 21.1365 2.32696 22.7065V24.1539H1.58551C0.875607 24.1539 0.675784 24.1947 0.581131 24.3523C0.560097 24.3873 0.539062 24.9651 0.539062 25.6421C0.539062 26.3191 0.560097 26.8969 0.581131 26.9319C0.696818 27.1245 0.79673 27.1304 7.0491 27.1304C13.2436 27.1304 13.2489 27.1304 13.3909 27.0078C13.5644 26.8561 13.5802 26.5467 13.4224 26.3717C13.3172 26.2549 13.2489 26.2549 7.32254 26.2549H1.32784V25.6421V25.0293H7.37513C13.3541 25.0293 13.4224 25.0293 13.5276 24.9126C13.6853 24.7375 13.6696 24.4282 13.496 24.2764C13.3541 24.1539 13.3383 24.1539 8.23226 24.1539H3.11047L3.12625 22.6481L3.14203 21.1482L3.29452 20.7864C3.51012 20.2611 3.89925 19.8759 4.63018 19.4674L5.21914 19.1289V19.8467L5.21388 20.5646L5.01931 20.6988C4.7038 20.9148 4.56708 21.1891 4.54605 21.6443C4.5145 22.2104 4.70906 22.5839 5.16129 22.8407C5.42422 22.9866 5.98162 22.9458 6.22877 22.759C6.58635 22.4847 6.78091 22.0061 6.71781 21.5567C6.67574 21.2182 6.41808 20.7922 6.19196 20.6696L6.00791 20.5704L6.01843 19.6425L6.03421 18.7145L6.31291 18.5861L6.59161 18.4577L7.73271 19.73C8.70553 20.8155 8.89484 21.0023 9.03156 21.0023C9.16828 21.0081 9.33655 20.8389 10.3199 19.73L11.4505 18.4519L11.7555 18.5978L12.0552 18.7437V19.479V20.2202L11.7712 20.372C11.2401 20.6638 11.0561 21.1074 11.0561 22.1112C11.0561 22.654 11.0719 22.7473 11.1613 22.8582C11.3032 23.0275 11.5977 23.0275 11.7397 22.8699C11.8291 22.7707 11.8449 22.6773 11.8449 22.1754C11.8449 21.4925 11.8869 21.335 12.1183 21.1716C12.3655 21.0023 12.6652 21.0548 12.8598 21.2941C12.9965 21.4634 13.0017 21.4984 13.0017 22.0762C13.0017 22.5956 13.0175 22.7007 13.1122 22.8349C13.2489 23.0275 13.5276 23.045 13.6853 22.8699C13.78 22.7649 13.7905 22.6773 13.7905 22.0353C13.7905 21.4108 13.7747 21.2883 13.6643 21.0315C13.5328 20.7163 13.291 20.4479 13.0175 20.3195L12.844 20.2436V19.6833V19.1289L13.4382 19.4674C13.9062 19.7358 14.106 19.8876 14.411 20.2261C14.716 20.5646 14.8264 20.6521 14.9526 20.6521C15.2682 20.6521 15.4259 20.2202 15.2261 19.8934C14.858 19.2806 14.3532 18.9246 12.5548 18.0258L11.6608 17.5764L11.5504 17.2671L11.44 16.9519L11.8764 16.4909C12.539 15.8022 13.0491 14.8509 13.2173 14.0163C13.2752 13.7478 13.3067 13.6953 13.5328 13.5377C13.8273 13.3393 14.085 12.8899 14.1376 12.4814C14.1849 12.137 14.0902 11.6409 13.922 11.3608C13.7905 11.1449 13.7905 11.1332 13.7905 9.84338C13.7905 9.12552 13.7747 8.44268 13.759 8.32012C13.6696 7.74233 13.17 7.18789 12.6073 7.04782C12.3286 6.97778 12.3181 6.97194 12.3181 6.77935C12.3181 6.51088 12.1604 6.18405 11.8974 5.92142C11.3874 5.41366 10.4829 5.20356 9.2419 5.31445ZM10.2305 6.17821C10.8089 6.24241 11.1613 6.37081 11.3716 6.58675C11.5188 6.73849 11.5294 6.77935 11.5294 7.1587C11.5294 7.74817 11.6135 7.85322 12.1288 7.8824C12.5758 7.90574 12.7598 8.0108 12.9071 8.34346C12.986 8.51271 13.0017 8.71115 13.0017 9.6041V10.6721H12.8492C12.7651 10.6721 12.6599 10.6838 12.6231 10.7013C12.5653 10.7305 12.518 10.5963 12.4338 10.1644C12.2287 9.16638 11.9711 8.74616 11.4294 8.5419C11.1087 8.41933 10.9667 8.43101 9.76775 8.62944C9.07363 8.74616 8.51622 8.80453 8.11658 8.80453C7.20685 8.80453 6.64419 8.88624 6.3392 9.05549C5.88171 9.31812 5.49784 9.89007 5.40318 10.4504C5.36638 10.6546 5.3506 10.6721 5.17707 10.6721H4.99302L5.02983 10.1936C5.07716 9.55157 5.14552 9.26559 5.36112 8.75784C5.58197 8.23841 6.11834 7.58475 6.64419 7.19372C7.32254 6.6918 8.37424 6.2891 9.25241 6.18405C9.47853 6.15487 9.68887 6.13152 9.71516 6.13152C9.74671 6.12569 9.97809 6.14903 10.2305 6.17821ZM11.3769 9.54573C11.482 9.67997 11.5556 9.92509 11.7081 10.6196C11.8659 11.3316 11.9343 11.5476 12.0394 11.6468C12.1972 11.8102 12.2603 11.8102 12.5653 11.6585C12.844 11.5184 13.007 11.5417 13.191 11.7635C13.5223 12.1604 13.333 12.8024 12.8387 12.9191C12.6494 12.9658 12.5968 13.0708 12.4706 13.672C12.0131 15.7789 10.2463 17.1854 8.48467 16.8352C7.08065 16.5551 5.96059 15.3295 5.58197 13.6486C5.45051 13.0708 5.42422 13.0241 5.14026 12.8899C4.86156 12.7557 4.74061 12.5981 4.70906 12.318C4.67225 12.032 4.7932 11.7577 5.0088 11.6351C5.20336 11.5242 5.22965 11.5242 5.50836 11.6643C5.76076 11.7927 5.95533 11.7752 6.07102 11.6234C6.11308 11.5709 6.14989 11.3024 6.16567 10.9931C6.19196 10.5262 6.213 10.4212 6.3392 10.2227C6.6179 9.77335 6.76514 9.72666 8.07977 9.67413C8.89484 9.63911 9.46801 9.58075 10.0044 9.48153C10.9457 9.30061 11.1875 9.31228 11.3769 9.54573ZM7.80632 17.5647C8.57407 17.8391 9.55741 17.8274 10.3462 17.5297C10.546 17.4539 10.7195 17.4013 10.7248 17.4072C10.7301 17.413 10.7721 17.5122 10.8142 17.6231L10.8931 17.8274L9.9518 18.8721C9.4312 19.4499 9.00001 19.9051 8.99475 19.8934C8.98423 19.8759 8.56881 19.4032 8.06925 18.8371L7.16479 17.8099L7.24366 17.5939C7.30677 17.4247 7.34883 17.3838 7.41719 17.413C7.46452 17.4363 7.64331 17.5064 7.80632 17.5647ZM5.82387 21.4984C5.97636 21.6618 5.98688 21.7435 5.87119 21.9244C5.77654 22.0762 5.52939 22.0995 5.40844 21.9594C5.28224 21.8252 5.30327 21.5509 5.43999 21.4459C5.60301 21.3175 5.67663 21.3291 5.82387 21.4984Z"/>
</mask>
<path d="M9.2419 5.31445C7.52762 5.46035 5.81335 6.42917 4.9825 7.72482C4.47243 8.51271 4.28312 9.19556 4.24105 10.3803C4.21476 11.0748 4.19373 11.2032 4.07804 11.4542C3.89925 11.8335 3.86244 12.3588 3.98339 12.779C4.07804 13.1 4.50398 13.6486 4.65648 13.6486C4.70906 13.6486 4.78268 13.8295 4.87733 14.1564C5.17707 15.2186 5.69766 16.0998 6.4023 16.7302L6.61264 16.9169L6.50747 17.2438L6.39704 17.5706L5.61353 17.9616C4.06226 18.732 3.54693 19.053 3.14203 19.5082C2.91591 19.7592 2.71609 20.051 2.62669 20.2553C2.35851 20.8797 2.32696 21.1365 2.32696 22.7065V24.1539H1.58551C0.875607 24.1539 0.675784 24.1947 0.581131 24.3523C0.560097 24.3873 0.539062 24.9651 0.539062 25.6421C0.539062 26.3191 0.560097 26.8969 0.581131 26.9319C0.696818 27.1245 0.79673 27.1304 7.0491 27.1304C13.2436 27.1304 13.2489 27.1304 13.3909 27.0078C13.5644 26.8561 13.5802 26.5467 13.4224 26.3717C13.3172 26.2549 13.2489 26.2549 7.32254 26.2549H1.32784V25.6421V25.0293H7.37513C13.3541 25.0293 13.4224 25.0293 13.5276 24.9126C13.6853 24.7375 13.6696 24.4282 13.496 24.2764C13.3541 24.1539 13.3383 24.1539 8.23226 24.1539H3.11047L3.12625 22.6481L3.14203 21.1482L3.29452 20.7864C3.51012 20.2611 3.89925 19.8759 4.63018 19.4674L5.21914 19.1289V19.8467L5.21388 20.5646L5.01931 20.6988C4.7038 20.9148 4.56708 21.1891 4.54605 21.6443C4.5145 22.2104 4.70906 22.5839 5.16129 22.8407C5.42422 22.9866 5.98162 22.9458 6.22877 22.759C6.58635 22.4847 6.78091 22.0061 6.71781 21.5567C6.67574 21.2182 6.41808 20.7922 6.19196 20.6696L6.00791 20.5704L6.01843 19.6425L6.03421 18.7145L6.31291 18.5861L6.59161 18.4577L7.73271 19.73C8.70553 20.8155 8.89484 21.0023 9.03156 21.0023C9.16828 21.0081 9.33655 20.8389 10.3199 19.73L11.4505 18.4519L11.7555 18.5978L12.0552 18.7437V19.479V20.2202L11.7712 20.372C11.2401 20.6638 11.0561 21.1074 11.0561 22.1112C11.0561 22.654 11.0719 22.7473 11.1613 22.8582C11.3032 23.0275 11.5977 23.0275 11.7397 22.8699C11.8291 22.7707 11.8449 22.6773 11.8449 22.1754C11.8449 21.4925 11.8869 21.335 12.1183 21.1716C12.3655 21.0023 12.6652 21.0548 12.8598 21.2941C12.9965 21.4634 13.0017 21.4984 13.0017 22.0762C13.0017 22.5956 13.0175 22.7007 13.1122 22.8349C13.2489 23.0275 13.5276 23.045 13.6853 22.8699C13.78 22.7649 13.7905 22.6773 13.7905 22.0353C13.7905 21.4108 13.7747 21.2883 13.6643 21.0315C13.5328 20.7163 13.291 20.4479 13.0175 20.3195L12.844 20.2436V19.6833V19.1289L13.4382 19.4674C13.9062 19.7358 14.106 19.8876 14.411 20.2261C14.716 20.5646 14.8264 20.6521 14.9526 20.6521C15.2682 20.6521 15.4259 20.2202 15.2261 19.8934C14.858 19.2806 14.3532 18.9246 12.5548 18.0258L11.6608 17.5764L11.5504 17.2671L11.44 16.9519L11.8764 16.4909C12.539 15.8022 13.0491 14.8509 13.2173 14.0163C13.2752 13.7478 13.3067 13.6953 13.5328 13.5377C13.8273 13.3393 14.085 12.8899 14.1376 12.4814C14.1849 12.137 14.0902 11.6409 13.922 11.3608C13.7905 11.1449 13.7905 11.1332 13.7905 9.84338C13.7905 9.12552 13.7747 8.44268 13.759 8.32012C13.6696 7.74233 13.17 7.18789 12.6073 7.04782C12.3286 6.97778 12.3181 6.97194 12.3181 6.77935C12.3181 6.51088 12.1604 6.18405 11.8974 5.92142C11.3874 5.41366 10.4829 5.20356 9.2419 5.31445ZM10.2305 6.17821C10.8089 6.24241 11.1613 6.37081 11.3716 6.58675C11.5188 6.73849 11.5294 6.77935 11.5294 7.1587C11.5294 7.74817 11.6135 7.85322 12.1288 7.8824C12.5758 7.90574 12.7598 8.0108 12.9071 8.34346C12.986 8.51271 13.0017 8.71115 13.0017 9.6041V10.6721H12.8492C12.7651 10.6721 12.6599 10.6838 12.6231 10.7013C12.5653 10.7305 12.518 10.5963 12.4338 10.1644C12.2287 9.16638 11.9711 8.74616 11.4294 8.5419C11.1087 8.41933 10.9667 8.43101 9.76775 8.62944C9.07363 8.74616 8.51622 8.80453 8.11658 8.80453C7.20685 8.80453 6.64419 8.88624 6.3392 9.05549C5.88171 9.31812 5.49784 9.89007 5.40318 10.4504C5.36638 10.6546 5.3506 10.6721 5.17707 10.6721H4.99302L5.02983 10.1936C5.07716 9.55157 5.14552 9.26559 5.36112 8.75784C5.58197 8.23841 6.11834 7.58475 6.64419 7.19372C7.32254 6.6918 8.37424 6.2891 9.25241 6.18405C9.47853 6.15487 9.68887 6.13152 9.71516 6.13152C9.74671 6.12569 9.97809 6.14903 10.2305 6.17821ZM11.3769 9.54573C11.482 9.67997 11.5556 9.92509 11.7081 10.6196C11.8659 11.3316 11.9343 11.5476 12.0394 11.6468C12.1972 11.8102 12.2603 11.8102 12.5653 11.6585C12.844 11.5184 13.007 11.5417 13.191 11.7635C13.5223 12.1604 13.333 12.8024 12.8387 12.9191C12.6494 12.9658 12.5968 13.0708 12.4706 13.672C12.0131 15.7789 10.2463 17.1854 8.48467 16.8352C7.08065 16.5551 5.96059 15.3295 5.58197 13.6486C5.45051 13.0708 5.42422 13.0241 5.14026 12.8899C4.86156 12.7557 4.74061 12.5981 4.70906 12.318C4.67225 12.032 4.7932 11.7577 5.0088 11.6351C5.20336 11.5242 5.22965 11.5242 5.50836 11.6643C5.76076 11.7927 5.95533 11.7752 6.07102 11.6234C6.11308 11.5709 6.14989 11.3024 6.16567 10.9931C6.19196 10.5262 6.213 10.4212 6.3392 10.2227C6.6179 9.77335 6.76514 9.72666 8.07977 9.67413C8.89484 9.63911 9.46801 9.58075 10.0044 9.48153C10.9457 9.30061 11.1875 9.31228 11.3769 9.54573ZM7.80632 17.5647C8.57407 17.8391 9.55741 17.8274 10.3462 17.5297C10.546 17.4539 10.7195 17.4013 10.7248 17.4072C10.7301 17.413 10.7721 17.5122 10.8142 17.6231L10.8931 17.8274L9.9518 18.8721C9.4312 19.4499 9.00001 19.9051 8.99475 19.8934C8.98423 19.8759 8.56881 19.4032 8.06925 18.8371L7.16479 17.8099L7.24366 17.5939C7.30677 17.4247 7.34883 17.3838 7.41719 17.413C7.46452 17.4363 7.64331 17.5064 7.80632 17.5647ZM5.82387 21.4984C5.97636 21.6618 5.98688 21.7435 5.87119 21.9244C5.77654 22.0762 5.52939 22.0995 5.40844 21.9594C5.28224 21.8252 5.30327 21.5509 5.43999 21.4459C5.60301 21.3175 5.67663 21.3291 5.82387 21.4984Z" fill="#0D257B"/>
<path d="M9.2419 5.31445C7.52762 5.46035 5.81335 6.42917 4.9825 7.72482C4.47243 8.51271 4.28312 9.19556 4.24105 10.3803C4.21476 11.0748 4.19373 11.2032 4.07804 11.4542C3.89925 11.8335 3.86244 12.3588 3.98339 12.779C4.07804 13.1 4.50398 13.6486 4.65648 13.6486C4.70906 13.6486 4.78268 13.8295 4.87733 14.1564C5.17707 15.2186 5.69766 16.0998 6.4023 16.7302L6.61264 16.9169L6.50747 17.2438L6.39704 17.5706L5.61353 17.9616C4.06226 18.732 3.54693 19.053 3.14203 19.5082C2.91591 19.7592 2.71609 20.051 2.62669 20.2553C2.35851 20.8797 2.32696 21.1365 2.32696 22.7065V24.1539H1.58551C0.875607 24.1539 0.675784 24.1947 0.581131 24.3523C0.560097 24.3873 0.539062 24.9651 0.539062 25.6421C0.539062 26.3191 0.560097 26.8969 0.581131 26.9319C0.696818 27.1245 0.79673 27.1304 7.0491 27.1304C13.2436 27.1304 13.2489 27.1304 13.3909 27.0078C13.5644 26.8561 13.5802 26.5467 13.4224 26.3717C13.3172 26.2549 13.2489 26.2549 7.32254 26.2549H1.32784V25.6421V25.0293H7.37513C13.3541 25.0293 13.4224 25.0293 13.5276 24.9126C13.6853 24.7375 13.6696 24.4282 13.496 24.2764C13.3541 24.1539 13.3383 24.1539 8.23226 24.1539H3.11047L3.12625 22.6481L3.14203 21.1482L3.29452 20.7864C3.51012 20.2611 3.89925 19.8759 4.63018 19.4674L5.21914 19.1289V19.8467L5.21388 20.5646L5.01931 20.6988C4.7038 20.9148 4.56708 21.1891 4.54605 21.6443C4.5145 22.2104 4.70906 22.5839 5.16129 22.8407C5.42422 22.9866 5.98162 22.9458 6.22877 22.759C6.58635 22.4847 6.78091 22.0061 6.71781 21.5567C6.67574 21.2182 6.41808 20.7922 6.19196 20.6696L6.00791 20.5704L6.01843 19.6425L6.03421 18.7145L6.31291 18.5861L6.59161 18.4577L7.73271 19.73C8.70553 20.8155 8.89484 21.0023 9.03156 21.0023C9.16828 21.0081 9.33655 20.8389 10.3199 19.73L11.4505 18.4519L11.7555 18.5978L12.0552 18.7437V19.479V20.2202L11.7712 20.372C11.2401 20.6638 11.0561 21.1074 11.0561 22.1112C11.0561 22.654 11.0719 22.7473 11.1613 22.8582C11.3032 23.0275 11.5977 23.0275 11.7397 22.8699C11.8291 22.7707 11.8449 22.6773 11.8449 22.1754C11.8449 21.4925 11.8869 21.335 12.1183 21.1716C12.3655 21.0023 12.6652 21.0548 12.8598 21.2941C12.9965 21.4634 13.0017 21.4984 13.0017 22.0762C13.0017 22.5956 13.0175 22.7007 13.1122 22.8349C13.2489 23.0275 13.5276 23.045 13.6853 22.8699C13.78 22.7649 13.7905 22.6773 13.7905 22.0353C13.7905 21.4108 13.7747 21.2883 13.6643 21.0315C13.5328 20.7163 13.291 20.4479 13.0175 20.3195L12.844 20.2436V19.6833V19.1289L13.4382 19.4674C13.9062 19.7358 14.106 19.8876 14.411 20.2261C14.716 20.5646 14.8264 20.6521 14.9526 20.6521C15.2682 20.6521 15.4259 20.2202 15.2261 19.8934C14.858 19.2806 14.3532 18.9246 12.5548 18.0258L11.6608 17.5764L11.5504 17.2671L11.44 16.9519L11.8764 16.4909C12.539 15.8022 13.0491 14.8509 13.2173 14.0163C13.2752 13.7478 13.3067 13.6953 13.5328 13.5377C13.8273 13.3393 14.085 12.8899 14.1376 12.4814C14.1849 12.137 14.0902 11.6409 13.922 11.3608C13.7905 11.1449 13.7905 11.1332 13.7905 9.84338C13.7905 9.12552 13.7747 8.44268 13.759 8.32012C13.6696 7.74233 13.17 7.18789 12.6073 7.04782C12.3286 6.97778 12.3181 6.97194 12.3181 6.77935C12.3181 6.51088 12.1604 6.18405 11.8974 5.92142C11.3874 5.41366 10.4829 5.20356 9.2419 5.31445ZM10.2305 6.17821C10.8089 6.24241 11.1613 6.37081 11.3716 6.58675C11.5188 6.73849 11.5294 6.77935 11.5294 7.1587C11.5294 7.74817 11.6135 7.85322 12.1288 7.8824C12.5758 7.90574 12.7598 8.0108 12.9071 8.34346C12.986 8.51271 13.0017 8.71115 13.0017 9.6041V10.6721H12.8492C12.7651 10.6721 12.6599 10.6838 12.6231 10.7013C12.5653 10.7305 12.518 10.5963 12.4338 10.1644C12.2287 9.16638 11.9711 8.74616 11.4294 8.5419C11.1087 8.41933 10.9667 8.43101 9.76775 8.62944C9.07363 8.74616 8.51622 8.80453 8.11658 8.80453C7.20685 8.80453 6.64419 8.88624 6.3392 9.05549C5.88171 9.31812 5.49784 9.89007 5.40318 10.4504C5.36638 10.6546 5.3506 10.6721 5.17707 10.6721H4.99302L5.02983 10.1936C5.07716 9.55157 5.14552 9.26559 5.36112 8.75784C5.58197 8.23841 6.11834 7.58475 6.64419 7.19372C7.32254 6.6918 8.37424 6.2891 9.25241 6.18405C9.47853 6.15487 9.68887 6.13152 9.71516 6.13152C9.74671 6.12569 9.97809 6.14903 10.2305 6.17821ZM11.3769 9.54573C11.482 9.67997 11.5556 9.92509 11.7081 10.6196C11.8659 11.3316 11.9343 11.5476 12.0394 11.6468C12.1972 11.8102 12.2603 11.8102 12.5653 11.6585C12.844 11.5184 13.007 11.5417 13.191 11.7635C13.5223 12.1604 13.333 12.8024 12.8387 12.9191C12.6494 12.9658 12.5968 13.0708 12.4706 13.672C12.0131 15.7789 10.2463 17.1854 8.48467 16.8352C7.08065 16.5551 5.96059 15.3295 5.58197 13.6486C5.45051 13.0708 5.42422 13.0241 5.14026 12.8899C4.86156 12.7557 4.74061 12.5981 4.70906 12.318C4.67225 12.032 4.7932 11.7577 5.0088 11.6351C5.20336 11.5242 5.22965 11.5242 5.50836 11.6643C5.76076 11.7927 5.95533 11.7752 6.07102 11.6234C6.11308 11.5709 6.14989 11.3024 6.16567 10.9931C6.19196 10.5262 6.213 10.4212 6.3392 10.2227C6.6179 9.77335 6.76514 9.72666 8.07977 9.67413C8.89484 9.63911 9.46801 9.58075 10.0044 9.48153C10.9457 9.30061 11.1875 9.31228 11.3769 9.54573ZM7.80632 17.5647C8.57407 17.8391 9.55741 17.8274 10.3462 17.5297C10.546 17.4539 10.7195 17.4013 10.7248 17.4072C10.7301 17.413 10.7721 17.5122 10.8142 17.6231L10.8931 17.8274L9.9518 18.8721C9.4312 19.4499 9.00001 19.9051 8.99475 19.8934C8.98423 19.8759 8.56881 19.4032 8.06925 18.8371L7.16479 17.8099L7.24366 17.5939C7.30677 17.4247 7.34883 17.3838 7.41719 17.413C7.46452 17.4363 7.64331 17.5064 7.80632 17.5647ZM5.82387 21.4984C5.97636 21.6618 5.98688 21.7435 5.87119 21.9244C5.77654 22.0762 5.52939 22.0995 5.40844 21.9594C5.28224 21.8252 5.30327 21.5509 5.43999 21.4459C5.60301 21.3175 5.67663 21.3291 5.82387 21.4984Z" stroke="#0D257B" stroke-width="0.4" mask="url(#path-5-outside-1_9666_9347)"/>
<path d="M6.61426 13.1431C6.7086 13.1679 6.80983 13.1556 6.89844 13.1021C6.98693 13.0485 7.05971 12.9552 7.10352 12.8237C7.15405 12.6732 7.18647 12.5905 7.2168 12.5454C7.23084 12.5246 7.2429 12.5154 7.25293 12.5103C7.26318 12.505 7.27704 12.5015 7.29883 12.5015C7.31033 12.5015 7.31921 12.5044 7.3291 12.5112C7.34056 12.5192 7.35575 12.5342 7.375 12.564C7.41414 12.6244 7.46219 12.7299 7.53613 12.9087C7.57693 13.0061 7.66609 13.0774 7.76367 13.1138C7.8612 13.15 7.97524 13.1545 8.07129 13.1099L8.14453 13.0669C8.30151 12.9521 8.36106 12.7398 8.34375 12.52C8.32375 12.2666 8.20169 11.9862 7.98438 11.7847C7.74783 11.565 7.41796 11.4666 7.1084 11.5239L6.97754 11.5581C6.56522 11.6943 6.27059 12.1413 6.27051 12.6147C6.27051 12.8985 6.42468 13.0931 6.61426 13.1431Z" fill="#CC922F" stroke="#CC922F" stroke-width="0.1"/>
<path d="M11.3438 13.1372C11.4471 13.1372 11.5363 13.1071 11.6074 13.0513C11.6781 12.9958 11.7281 12.9174 11.7568 12.8247C11.814 12.6399 11.7896 12.3943 11.6787 12.1392C11.452 11.6245 10.9076 11.3843 10.4189 11.5698L10.3223 11.6128C10.117 11.7144 9.94684 11.8935 9.83691 12.0981C9.72716 12.3026 9.6755 12.537 9.71191 12.7515L9.73145 12.8413C9.75562 12.9262 9.79246 12.9947 9.84668 13.0444C9.91956 13.1111 10.0165 13.1371 10.1338 13.1372C10.366 13.1372 10.5781 12.9566 10.5781 12.7368C10.5783 12.6917 10.6039 12.6228 10.6406 12.562C10.6585 12.5324 10.6773 12.5073 10.6943 12.4907C10.7028 12.4825 10.7097 12.4771 10.7148 12.4741C10.7203 12.471 10.721 12.4722 10.7178 12.4722C10.7494 12.4722 10.7952 12.4966 10.8359 12.5425C10.8758 12.5876 10.8994 12.6405 10.8994 12.6792C10.8996 12.9384 11.0884 13.1372 11.3438 13.1372Z" fill="#CC922F" stroke="#CC922F" stroke-width="0.1"/>
<path d="M9.02539 15.855C9.24699 15.855 9.44179 15.8195 9.62598 15.7368C9.80934 15.6544 9.97714 15.528 10.1484 15.353L10.1494 15.3511C10.2506 15.2446 10.3209 15.165 10.3633 15.0835C10.4088 14.9959 10.4189 14.9133 10.4189 14.8101C10.4189 14.5397 10.315 14.329 10.1113 14.2681C9.94073 14.2172 9.74583 14.2868 9.56641 14.4409L9.49023 14.5122C9.2954 14.7114 9.14804 14.7886 9.01758 14.7886C8.88711 14.7886 8.73977 14.7114 8.54492 14.5122L8.54395 14.5112C8.40445 14.3714 8.26902 14.2748 8.12988 14.2554C7.97891 14.2344 7.8531 14.3071 7.74609 14.4292V14.4302C7.6403 14.5453 7.58113 14.6712 7.59863 14.8198C7.6154 14.961 7.69885 15.1038 7.82812 15.2593C8.15495 15.6527 8.55564 15.855 9.02539 15.855Z" fill="#CC922F" stroke="#CC922F" stroke-width="0.2"/>
<mask id="path-9-outside-2_9666_9347" maskUnits="userSpaceOnUse" x="13.0547" y="8.13037" width="15" height="20" fill="black">
<rect fill="white" x="13.0547" y="8.13037" width="15" height="20"/>
<path d="M19.2922 8.48354C18.6138 8.69364 17.8829 9.30061 17.5516 9.93676C17.2519 10.5087 17.1467 10.9348 17.1151 11.6993L17.0888 12.4113L16.8627 12.4464C16.4052 12.5164 15.953 12.9074 15.7584 13.3977C15.627 13.7362 15.6428 14.314 15.79 14.6875C15.9898 15.1952 16.5525 15.6329 17.01 15.6329C17.0836 15.6329 17.1046 15.6796 17.1046 15.8489C17.1046 16.2282 17.2519 16.8411 17.4307 17.2438C17.62 17.664 18.0354 18.2126 18.3351 18.4402L18.5244 18.5803L18.5139 19.0355L18.4981 19.4907L17.7356 19.8584C16.7365 20.337 15.7374 20.8797 15.343 21.1657C14.9434 21.4517 14.5753 21.9069 14.3702 22.3622C14.0968 22.9808 14.0547 23.3543 14.0547 25.1927V26.8444L14.1862 26.9845L14.3124 27.1304H20.733C27.2062 27.1304 27.3061 27.1304 27.4218 26.9319C27.4429 26.8969 27.4639 26.0565 27.4639 25.0585C27.4639 23.0975 27.4429 22.9108 27.1642 22.2921C27.0853 22.1112 26.8644 21.7902 26.6751 21.5801C26.3806 21.2533 26.2071 21.1307 25.5182 20.7397C25.0713 20.4887 24.3351 20.1035 23.8881 19.8876L23.073 19.4965L23.0573 19.0355L23.0415 18.5803L23.3044 18.3585C23.9407 17.8332 24.3456 16.9928 24.4402 16.0065L24.4771 15.6446L24.6927 15.6096C24.9871 15.5571 25.4236 15.2769 25.6024 15.0201C25.9231 14.5532 25.9862 13.8295 25.7496 13.3101C25.534 12.8257 25.0082 12.423 24.598 12.423C24.4876 12.423 24.4823 12.3938 24.4508 11.7343C24.4034 10.643 24.1458 9.96594 23.52 9.28894C23.215 8.95627 22.7102 8.63528 22.2632 8.48937C21.8846 8.36681 19.6918 8.36097 19.2922 8.48354ZM21.7216 9.27143C22.6839 9.42317 23.4464 10.2286 23.6199 11.2791C23.6567 11.4892 23.6778 12.4522 23.6778 13.7303C23.6778 16.4442 23.6252 16.7243 23.0415 17.413C22.7417 17.7632 22.3999 17.985 21.9687 18.1134C21.5901 18.2184 20.0967 18.2359 19.6708 18.1367C18.8662 17.9441 18.1826 17.2146 17.967 16.31C17.8566 15.8547 17.8618 11.5884 17.9723 11.1098C18.1984 10.1527 18.9188 9.41734 19.7759 9.27727C20.1914 9.20723 21.3219 9.2014 21.7216 9.27143ZM17.1046 14.028C17.1046 14.5707 17.0888 14.7575 17.0415 14.7575C16.9258 14.7575 16.6419 14.5357 16.5525 14.384C16.3632 14.0688 16.4894 13.5669 16.7996 13.3977C17.1046 13.2284 17.1046 13.2284 17.1046 14.028ZM24.9293 13.5611C25.229 13.9171 25.1344 14.4365 24.7295 14.67C24.6453 14.7167 24.5507 14.7575 24.5191 14.7575C24.4876 14.7575 24.4665 14.4949 24.4665 14.0221V13.2868L24.6138 13.3218C24.6927 13.3451 24.8346 13.4502 24.9293 13.5611ZM20.7593 19.0472C21.3377 19.0472 21.9162 19.0238 22.0424 19.0005L22.2685 18.9538L22.2527 19.4207C22.2369 19.7767 22.2054 19.9226 22.1212 20.051L22.0108 20.2144L20.8592 20.2319C20.2282 20.2378 19.655 20.2319 19.5866 20.2144C19.4131 20.1677 19.3132 19.8584 19.3132 19.374V18.9655L19.513 19.0063C19.6182 19.0296 20.1809 19.0472 20.7593 19.0472ZM18.8873 20.728C19.1765 21.0782 19.2238 21.0898 20.6226 21.1074C21.4744 21.119 21.9898 21.1074 22.1475 21.0607C22.4262 20.9848 22.7102 20.763 22.7943 20.5587C22.8259 20.4829 22.8837 20.4187 22.9205 20.4187C23.031 20.4187 24.1721 20.9848 25.0187 21.4575C25.9389 21.9711 26.2281 22.2396 26.4805 22.8057L26.6488 23.1851L26.6646 24.72L26.6804 26.2549H25.6234H24.5717V24.755C24.5717 23.4419 24.5612 23.2434 24.4823 23.15C24.3614 22.9983 24.0406 23.01 23.9091 23.1676C23.8197 23.2784 23.8092 23.4127 23.7934 24.7725L23.7777 26.2549H20.7593H17.7356V24.755C17.7356 23.0625 17.7304 23.045 17.3623 23.045C17.2098 23.045 17.1414 23.08 17.0573 23.1967C16.9521 23.3426 16.9469 23.4243 16.9469 24.8017V26.2549H15.8899H14.8329L14.854 24.7784C14.875 22.9808 14.9118 22.8407 15.4692 22.2279C15.7584 21.9128 15.9425 21.7785 16.5525 21.4459C16.9574 21.2182 17.5989 20.8914 17.9723 20.7105C18.5665 20.4187 18.6611 20.3895 18.7032 20.4712C18.7295 20.5237 18.8084 20.6405 18.8873 20.728Z"/>
</mask>
<path d="M19.2922 8.48354C18.6138 8.69364 17.8829 9.30061 17.5516 9.93676C17.2519 10.5087 17.1467 10.9348 17.1151 11.6993L17.0888 12.4113L16.8627 12.4464C16.4052 12.5164 15.953 12.9074 15.7584 13.3977C15.627 13.7362 15.6428 14.314 15.79 14.6875C15.9898 15.1952 16.5525 15.6329 17.01 15.6329C17.0836 15.6329 17.1046 15.6796 17.1046 15.8489C17.1046 16.2282 17.2519 16.8411 17.4307 17.2438C17.62 17.664 18.0354 18.2126 18.3351 18.4402L18.5244 18.5803L18.5139 19.0355L18.4981 19.4907L17.7356 19.8584C16.7365 20.337 15.7374 20.8797 15.343 21.1657C14.9434 21.4517 14.5753 21.9069 14.3702 22.3622C14.0968 22.9808 14.0547 23.3543 14.0547 25.1927V26.8444L14.1862 26.9845L14.3124 27.1304H20.733C27.2062 27.1304 27.3061 27.1304 27.4218 26.9319C27.4429 26.8969 27.4639 26.0565 27.4639 25.0585C27.4639 23.0975 27.4429 22.9108 27.1642 22.2921C27.0853 22.1112 26.8644 21.7902 26.6751 21.5801C26.3806 21.2533 26.2071 21.1307 25.5182 20.7397C25.0713 20.4887 24.3351 20.1035 23.8881 19.8876L23.073 19.4965L23.0573 19.0355L23.0415 18.5803L23.3044 18.3585C23.9407 17.8332 24.3456 16.9928 24.4402 16.0065L24.4771 15.6446L24.6927 15.6096C24.9871 15.5571 25.4236 15.2769 25.6024 15.0201C25.9231 14.5532 25.9862 13.8295 25.7496 13.3101C25.534 12.8257 25.0082 12.423 24.598 12.423C24.4876 12.423 24.4823 12.3938 24.4508 11.7343C24.4034 10.643 24.1458 9.96594 23.52 9.28894C23.215 8.95627 22.7102 8.63528 22.2632 8.48937C21.8846 8.36681 19.6918 8.36097 19.2922 8.48354ZM21.7216 9.27143C22.6839 9.42317 23.4464 10.2286 23.6199 11.2791C23.6567 11.4892 23.6778 12.4522 23.6778 13.7303C23.6778 16.4442 23.6252 16.7243 23.0415 17.413C22.7417 17.7632 22.3999 17.985 21.9687 18.1134C21.5901 18.2184 20.0967 18.2359 19.6708 18.1367C18.8662 17.9441 18.1826 17.2146 17.967 16.31C17.8566 15.8547 17.8618 11.5884 17.9723 11.1098C18.1984 10.1527 18.9188 9.41734 19.7759 9.27727C20.1914 9.20723 21.3219 9.2014 21.7216 9.27143ZM17.1046 14.028C17.1046 14.5707 17.0888 14.7575 17.0415 14.7575C16.9258 14.7575 16.6419 14.5357 16.5525 14.384C16.3632 14.0688 16.4894 13.5669 16.7996 13.3977C17.1046 13.2284 17.1046 13.2284 17.1046 14.028ZM24.9293 13.5611C25.229 13.9171 25.1344 14.4365 24.7295 14.67C24.6453 14.7167 24.5507 14.7575 24.5191 14.7575C24.4876 14.7575 24.4665 14.4949 24.4665 14.0221V13.2868L24.6138 13.3218C24.6927 13.3451 24.8346 13.4502 24.9293 13.5611ZM20.7593 19.0472C21.3377 19.0472 21.9162 19.0238 22.0424 19.0005L22.2685 18.9538L22.2527 19.4207C22.2369 19.7767 22.2054 19.9226 22.1212 20.051L22.0108 20.2144L20.8592 20.2319C20.2282 20.2378 19.655 20.2319 19.5866 20.2144C19.4131 20.1677 19.3132 19.8584 19.3132 19.374V18.9655L19.513 19.0063C19.6182 19.0296 20.1809 19.0472 20.7593 19.0472ZM18.8873 20.728C19.1765 21.0782 19.2238 21.0898 20.6226 21.1074C21.4744 21.119 21.9898 21.1074 22.1475 21.0607C22.4262 20.9848 22.7102 20.763 22.7943 20.5587C22.8259 20.4829 22.8837 20.4187 22.9205 20.4187C23.031 20.4187 24.1721 20.9848 25.0187 21.4575C25.9389 21.9711 26.2281 22.2396 26.4805 22.8057L26.6488 23.1851L26.6646 24.72L26.6804 26.2549H25.6234H24.5717V24.755C24.5717 23.4419 24.5612 23.2434 24.4823 23.15C24.3614 22.9983 24.0406 23.01 23.9091 23.1676C23.8197 23.2784 23.8092 23.4127 23.7934 24.7725L23.7777 26.2549H20.7593H17.7356V24.755C17.7356 23.0625 17.7304 23.045 17.3623 23.045C17.2098 23.045 17.1414 23.08 17.0573 23.1967C16.9521 23.3426 16.9469 23.4243 16.9469 24.8017V26.2549H15.8899H14.8329L14.854 24.7784C14.875 22.9808 14.9118 22.8407 15.4692 22.2279C15.7584 21.9128 15.9425 21.7785 16.5525 21.4459C16.9574 21.2182 17.5989 20.8914 17.9723 20.7105C18.5665 20.4187 18.6611 20.3895 18.7032 20.4712C18.7295 20.5237 18.8084 20.6405 18.8873 20.728Z" fill="#0D257B"/>
<path d="M19.2922 8.48354C18.6138 8.69364 17.8829 9.30061 17.5516 9.93676C17.2519 10.5087 17.1467 10.9348 17.1151 11.6993L17.0888 12.4113L16.8627 12.4464C16.4052 12.5164 15.953 12.9074 15.7584 13.3977C15.627 13.7362 15.6428 14.314 15.79 14.6875C15.9898 15.1952 16.5525 15.6329 17.01 15.6329C17.0836 15.6329 17.1046 15.6796 17.1046 15.8489C17.1046 16.2282 17.2519 16.8411 17.4307 17.2438C17.62 17.664 18.0354 18.2126 18.3351 18.4402L18.5244 18.5803L18.5139 19.0355L18.4981 19.4907L17.7356 19.8584C16.7365 20.337 15.7374 20.8797 15.343 21.1657C14.9434 21.4517 14.5753 21.9069 14.3702 22.3622C14.0968 22.9808 14.0547 23.3543 14.0547 25.1927V26.8444L14.1862 26.9845L14.3124 27.1304H20.733C27.2062 27.1304 27.3061 27.1304 27.4218 26.9319C27.4429 26.8969 27.4639 26.0565 27.4639 25.0585C27.4639 23.0975 27.4429 22.9108 27.1642 22.2921C27.0853 22.1112 26.8644 21.7902 26.6751 21.5801C26.3806 21.2533 26.2071 21.1307 25.5182 20.7397C25.0713 20.4887 24.3351 20.1035 23.8881 19.8876L23.073 19.4965L23.0573 19.0355L23.0415 18.5803L23.3044 18.3585C23.9407 17.8332 24.3456 16.9928 24.4402 16.0065L24.4771 15.6446L24.6927 15.6096C24.9871 15.5571 25.4236 15.2769 25.6024 15.0201C25.9231 14.5532 25.9862 13.8295 25.7496 13.3101C25.534 12.8257 25.0082 12.423 24.598 12.423C24.4876 12.423 24.4823 12.3938 24.4508 11.7343C24.4034 10.643 24.1458 9.96594 23.52 9.28894C23.215 8.95627 22.7102 8.63528 22.2632 8.48937C21.8846 8.36681 19.6918 8.36097 19.2922 8.48354ZM21.7216 9.27143C22.6839 9.42317 23.4464 10.2286 23.6199 11.2791C23.6567 11.4892 23.6778 12.4522 23.6778 13.7303C23.6778 16.4442 23.6252 16.7243 23.0415 17.413C22.7417 17.7632 22.3999 17.985 21.9687 18.1134C21.5901 18.2184 20.0967 18.2359 19.6708 18.1367C18.8662 17.9441 18.1826 17.2146 17.967 16.31C17.8566 15.8547 17.8618 11.5884 17.9723 11.1098C18.1984 10.1527 18.9188 9.41734 19.7759 9.27727C20.1914 9.20723 21.3219 9.2014 21.7216 9.27143ZM17.1046 14.028C17.1046 14.5707 17.0888 14.7575 17.0415 14.7575C16.9258 14.7575 16.6419 14.5357 16.5525 14.384C16.3632 14.0688 16.4894 13.5669 16.7996 13.3977C17.1046 13.2284 17.1046 13.2284 17.1046 14.028ZM24.9293 13.5611C25.229 13.9171 25.1344 14.4365 24.7295 14.67C24.6453 14.7167 24.5507 14.7575 24.5191 14.7575C24.4876 14.7575 24.4665 14.4949 24.4665 14.0221V13.2868L24.6138 13.3218C24.6927 13.3451 24.8346 13.4502 24.9293 13.5611ZM20.7593 19.0472C21.3377 19.0472 21.9162 19.0238 22.0424 19.0005L22.2685 18.9538L22.2527 19.4207C22.2369 19.7767 22.2054 19.9226 22.1212 20.051L22.0108 20.2144L20.8592 20.2319C20.2282 20.2378 19.655 20.2319 19.5866 20.2144C19.4131 20.1677 19.3132 19.8584 19.3132 19.374V18.9655L19.513 19.0063C19.6182 19.0296 20.1809 19.0472 20.7593 19.0472ZM18.8873 20.728C19.1765 21.0782 19.2238 21.0898 20.6226 21.1074C21.4744 21.119 21.9898 21.1074 22.1475 21.0607C22.4262 20.9848 22.7102 20.763 22.7943 20.5587C22.8259 20.4829 22.8837 20.4187 22.9205 20.4187C23.031 20.4187 24.1721 20.9848 25.0187 21.4575C25.9389 21.9711 26.2281 22.2396 26.4805 22.8057L26.6488 23.1851L26.6646 24.72L26.6804 26.2549H25.6234H24.5717V24.755C24.5717 23.4419 24.5612 23.2434 24.4823 23.15C24.3614 22.9983 24.0406 23.01 23.9091 23.1676C23.8197 23.2784 23.8092 23.4127 23.7934 24.7725L23.7777 26.2549H20.7593H17.7356V24.755C17.7356 23.0625 17.7304 23.045 17.3623 23.045C17.2098 23.045 17.1414 23.08 17.0573 23.1967C16.9521 23.3426 16.9469 23.4243 16.9469 24.8017V26.2549H15.8899H14.8329L14.854 24.7784C14.875 22.9808 14.9118 22.8407 15.4692 22.2279C15.7584 21.9128 15.9425 21.7785 16.5525 21.4459C16.9574 21.2182 17.5989 20.8914 17.9723 20.7105C18.5665 20.4187 18.6611 20.3895 18.7032 20.4712C18.7295 20.5237 18.8084 20.6405 18.8873 20.728Z" stroke="#0D257B" stroke-width="0.4" mask="url(#path-9-outside-2_9666_9347)"/>
</svg>
