<svg width="40" height="40" viewBox="0 0 40 40" fill="none" xmlns="http://www.w3.org/2000/svg">
<g clip-path="url(#clip0_4174_60391)">
<path fill-rule="evenodd" clip-rule="evenodd" d="M23.7508 35.8316C24.1375 37.7324 25.82 39.1649 27.8342 39.1649C29.8483 39.1649 31.5309 37.7324 31.9175 35.8316H36.1675C36.8309 35.8316 37.4667 35.5682 37.935 35.0991C38.1675 34.8672 38.3519 34.5917 38.4778 34.2884C38.6036 33.9851 38.6684 33.6599 38.6684 33.3316C38.6684 33.0032 38.6036 32.6781 38.4778 32.3748C38.3519 32.0715 38.1675 31.796 37.935 31.5641C37.703 31.3318 37.4275 31.1475 37.1242 31.0218C36.8209 30.8961 36.4958 30.8315 36.1675 30.8316H36.1658C35.9453 30.8316 35.7337 30.744 35.5778 30.588C35.4218 30.432 35.3342 30.2205 35.3342 29.9999V24.9982C35.334 23.447 34.8532 21.934 33.9578 20.6673C33.0624 19.4006 31.7965 18.4426 30.3342 17.9249V16.6649C30.3342 16.0016 30.0708 15.3657 29.6017 14.8974C29.3698 14.6649 29.0943 14.4805 28.791 14.3547C28.4877 14.2288 28.1625 14.1641 27.8342 14.1641C27.5058 14.1641 27.1807 14.2288 26.8774 14.3547C26.5741 14.4805 26.2986 14.6649 26.0667 14.8974C25.8344 15.1294 25.6501 15.4049 25.5244 15.7082C25.3987 16.0115 25.3341 16.3366 25.3342 16.6649V17.9249C23.8719 18.4426 22.606 19.4006 21.7106 20.6673C20.8152 21.934 20.3343 23.447 20.3342 24.9982V29.9999C20.3342 30.2205 20.2466 30.432 20.0906 30.588C19.9346 30.744 19.7231 30.8316 19.5025 30.8316H19.5008C18.8375 30.8316 18.2017 31.0949 17.7333 31.5641C17.5009 31.796 17.3165 32.0715 17.1906 32.3748C17.0648 32.6781 17 33.0032 17 33.3316C17 33.6599 17.0648 33.9851 17.1906 34.2884C17.3165 34.5917 17.5009 34.8672 17.7333 35.0991C17.9653 35.3314 18.2409 35.5157 18.5441 35.6414C18.8474 35.767 19.1725 35.8317 19.5008 35.8316H23.7508ZM25.4767 35.8316C25.6496 36.3186 25.969 36.7401 26.3912 37.0381C26.8133 37.3362 27.3174 37.4963 27.8342 37.4963C28.351 37.4963 28.855 37.3362 29.2772 37.0381C29.6993 36.7401 30.0188 36.3186 30.1917 35.8316H25.4767ZM27.8342 15.8316C27.7247 15.8312 27.6161 15.8526 27.5149 15.8943C27.4136 15.9361 27.3216 15.9975 27.2442 16.0749C27.1667 16.1524 27.1054 16.2444 27.0636 16.3456C27.0218 16.4469 27.0005 16.5554 27.0008 16.6649V18.5416C27.0008 18.7264 26.9392 18.9059 26.8259 19.052C26.7126 19.198 26.554 19.3022 26.375 19.3482C25.1229 19.6722 24.0139 20.4029 23.2221 21.4255C22.4304 22.4482 22.0008 23.7049 22.0008 24.9982V29.9999C22.0008 30.6625 21.7376 31.298 21.2691 31.7665C20.8006 32.235 20.1651 32.4982 19.5025 32.4982H19.5008C19.3913 32.4979 19.2828 32.5192 19.1816 32.561C19.0803 32.6028 18.9883 32.6641 18.9109 32.7416C18.8334 32.819 18.772 32.911 18.7303 33.0123C18.6885 33.1135 18.6672 33.222 18.6675 33.3316C18.6672 33.4411 18.6885 33.5496 18.7303 33.6509C18.772 33.7521 18.8334 33.8441 18.9109 33.9216C18.9883 33.999 19.0803 34.0604 19.1816 34.1021C19.2828 34.1439 19.3913 34.1652 19.5008 34.1649H36.1675C36.277 34.1652 36.3856 34.1439 36.4868 34.1021C36.5881 34.0604 36.6801 33.999 36.7575 33.9216C36.835 33.8441 36.8963 33.7521 36.9381 33.6509C36.9799 33.5496 37.0012 33.4411 37.0009 33.3316C37.0012 33.222 36.9799 33.1135 36.9381 33.0123C36.8963 32.911 36.835 32.819 36.7575 32.7416C36.6801 32.6641 36.5881 32.6028 36.4868 32.561C36.3856 32.5192 36.277 32.4979 36.1675 32.4982H36.1658C35.5033 32.4982 34.8678 32.235 34.3993 31.7665C33.9307 31.298 33.6675 30.6625 33.6675 29.9999V24.9982C33.6676 23.7049 33.238 22.4482 32.4462 21.4255C31.6545 20.4029 30.5455 19.6722 29.2933 19.3482C29.1143 19.3022 28.9557 19.198 28.8424 19.052C28.7291 18.9059 28.6676 18.7264 28.6675 18.5416V16.6649C28.6678 16.5554 28.6465 16.4469 28.6048 16.3456C28.563 16.2444 28.5016 16.1524 28.4242 16.0749C28.3467 15.9975 28.2547 15.9361 28.1535 15.8943C28.0522 15.8526 27.9437 15.8312 27.8342 15.8316Z" fill="#CC922F" stroke="#CC922F" stroke-width="0.8"/>
<path fill-rule="evenodd" clip-rule="evenodd" d="M29.1615 11.6654V4.9987C29.1615 4.45152 29.0537 3.90971 28.8443 3.40418C28.6349 2.89866 28.328 2.43933 27.9411 2.05242C27.5542 1.66551 27.0948 1.35859 26.5893 1.1492C26.0838 0.939805 25.542 0.832031 24.9948 0.832031H4.99479C4.44762 0.832031 3.9058 0.939805 3.40028 1.1492C2.89475 1.35859 2.43542 1.66551 2.04851 2.05242C1.26711 2.83382 0.828125 3.89363 0.828125 4.9987V31.6654C0.828125 32.7704 1.26711 33.8302 2.04851 34.6116C2.82992 35.393 3.88972 35.832 4.99479 35.832H15.2806C15.5016 35.832 15.7136 35.7442 15.8699 35.588C16.0262 35.4317 16.114 35.2197 16.114 34.9987C16.114 34.7777 16.0262 34.5657 15.8699 34.4094C15.7136 34.2532 15.5016 34.1654 15.2806 34.1654H4.99479C4.33175 34.1654 3.69587 33.902 3.22703 33.4331C2.75818 32.9643 2.49479 32.3284 2.49479 31.6654V4.9987C2.49479 4.33566 2.75818 3.69977 3.22703 3.23093C3.69587 2.76209 4.33175 2.4987 4.99479 2.4987H24.9948C25.6578 2.4987 26.2937 2.76209 26.7626 3.23093C27.2314 3.69977 27.4948 4.33566 27.4948 4.9987V11.6654C27.4948 11.8864 27.5826 12.0983 27.7389 12.2546C27.8952 12.4109 28.1071 12.4987 28.3281 12.4987C28.5491 12.4987 28.7611 12.4109 28.9174 12.2546C29.0737 12.0983 29.1615 11.8864 29.1615 11.6654Z" fill="#0D257B" stroke="#0D257B" stroke-width="0.8"/>
<path fill-rule="evenodd" clip-rule="evenodd" d="M5.83333 9.16471H15.8458C16.0668 9.16471 16.2788 9.07692 16.4351 8.92064C16.5914 8.76436 16.6792 8.55239 16.6792 8.33138C16.6792 8.11037 16.5914 7.8984 16.4351 7.74212C16.2788 7.58584 16.0668 7.49805 15.8458 7.49805H5.83333C5.61232 7.49805 5.40036 7.58584 5.24408 7.74212C5.0878 7.8984 5 8.11037 5 8.33138C5 8.55239 5.0878 8.76436 5.24408 8.92064C5.40036 9.07692 5.61232 9.16471 5.83333 9.16471ZM5.83333 15.8314H12.5C12.721 15.8314 12.933 15.7436 13.0893 15.5873C13.2455 15.431 13.3333 15.2191 13.3333 14.998C13.3333 14.777 13.2455 14.5651 13.0893 14.4088C12.933 14.2525 12.721 14.1647 12.5 14.1647H5.83333C5.61232 14.1647 5.40036 14.2525 5.24408 14.4088C5.0878 14.5651 5 14.777 5 14.998C5 15.2191 5.0878 15.431 5.24408 15.5873C5.40036 15.7436 5.61232 15.8314 5.83333 15.8314ZM5.83333 22.498H8.33333C8.55435 22.498 8.76631 22.4102 8.92259 22.254C9.07887 22.0977 9.16667 21.8857 9.16667 21.6647C9.16667 21.4437 9.07887 21.2317 8.92259 21.0755C8.76631 20.9192 8.55435 20.8314 8.33333 20.8314H5.83333C5.61232 20.8314 5.40036 20.9192 5.24408 21.0755C5.0878 21.2317 5 21.4437 5 21.6647C5 21.8857 5.0878 22.0977 5.24408 22.254C5.40036 22.4102 5.61232 22.498 5.83333 22.498ZM5.83333 29.1647H10.8333C11.0543 29.1647 11.2663 29.0769 11.4226 28.9206C11.5789 28.7644 11.6667 28.5524 11.6667 28.3314C11.6667 28.1104 11.5789 27.8984 11.4226 27.7421C11.2663 27.5858 11.0543 27.498 10.8333 27.498H5.83333C5.61232 27.498 5.40036 27.5858 5.24408 27.7421C5.0878 27.8984 5 28.1104 5 28.3314C5 28.5524 5.0878 28.7644 5.24408 28.9206C5.40036 29.0769 5.61232 29.1647 5.83333 29.1647Z" fill="#0D257B" stroke="#0D257B" stroke-width="0.83"/>
<path fill-rule="evenodd" clip-rule="evenodd" d="M22.43 15.1129C20.7789 16.0614 19.4074 17.4289 18.454 19.0772C17.5006 20.7255 16.999 22.5962 17 24.5004C17 24.7214 17.0878 24.9333 17.2441 25.0896C17.4004 25.2459 17.6123 25.3337 17.8333 25.3337C18.0543 25.3337 18.2663 25.2459 18.4226 25.0896C18.5789 24.9333 18.6667 24.7214 18.6667 24.5004C18.6667 21.1037 20.515 18.1387 23.2617 16.557C23.4501 16.4452 23.5868 16.2636 23.6424 16.0517C23.6979 15.8398 23.6677 15.6145 23.5584 15.4246C23.449 15.2348 23.2693 15.0956 23.0581 15.0372C22.847 14.9789 22.6213 15.0061 22.43 15.1129ZM38.6667 24.5004C38.6667 20.4862 36.4825 16.982 33.2367 15.1129C33.1418 15.0565 33.0366 15.0196 32.9273 15.0042C32.818 14.9888 32.7068 14.9953 32.6 15.0233C32.4933 15.0513 32.3931 15.1002 32.3054 15.1672C32.2177 15.2342 32.1442 15.3179 32.0891 15.4136C32.034 15.5092 31.9985 15.6148 31.9846 15.7243C31.9706 15.8338 31.9786 15.945 32.008 16.0513C32.0374 16.1577 32.0876 16.2572 32.1558 16.344C32.2239 16.4308 32.3086 16.5032 32.405 16.557C33.8021 17.3597 34.9627 18.5168 35.7695 19.9115C36.5763 21.3062 37.0008 22.8891 37 24.5004C37 24.7214 37.0878 24.9333 37.2441 25.0896C37.4004 25.2459 37.6123 25.3337 37.8333 25.3337C38.0543 25.3337 38.2663 25.2459 38.4226 25.0896C38.5789 24.9333 38.6667 24.7214 38.6667 24.5004Z" fill="#CC922F"/>
</g>
<defs>
<clipPath id="clip0_4174_60391">
<rect width="40" height="40" fill="white"/>
</clipPath>
</defs>
</svg>
