<svg width="71" height="30" viewBox="0 0 71 30" fill="none" xmlns="http://www.w3.org/2000/svg">
<path fill-rule="evenodd" clip-rule="evenodd" d="M70.3202 15.9117C70.3202 10.9558 67.9196 7.04522 63.3313 7.04522C58.7237 7.04522 55.9359 10.9558 55.9359 15.873C55.9359 21.7001 59.227 24.6427 63.9508 24.6427C66.2546 24.6427 67.997 24.12 69.3135 23.3843V19.5125C67.997 20.1707 66.4869 20.5773 64.5703 20.5773C62.6924 20.5773 61.0275 19.9191 60.8145 17.6347H70.2814C70.2814 17.383 70.3202 16.3763 70.3202 15.9117ZM60.7564 14.0726C60.7564 11.885 62.0923 10.9751 63.3119 10.9751C64.4929 10.9751 65.7513 11.885 65.7513 14.0726H60.7564ZM48.463 7.04522C46.5657 7.04522 45.3461 7.93574 44.6685 8.55524L44.4168 7.35497H40.1576V29.9277L44.9976 28.9017L45.0169 23.4231C45.7139 23.9264 46.74 24.6427 48.4436 24.6427C51.909 24.6427 55.0647 21.855 55.0647 15.7181C55.0453 10.104 51.8509 7.04522 48.463 7.04522ZM47.3014 20.3837C46.1592 20.3837 45.4816 19.9771 45.0169 19.4738L44.9976 12.2916C45.5009 11.7301 46.1979 11.343 47.3014 11.343C49.0631 11.343 50.2828 13.3176 50.2828 15.8536C50.2828 18.4478 49.0825 20.3837 47.3014 20.3837ZM33.4979 5.90303L38.3572 4.85764V0.927734L33.4979 1.95377V5.90303ZM33.4979 7.37433H38.3572V24.3136H33.4979V7.37433ZM28.2901 8.80691L27.9804 7.37433H23.7986V24.3136H28.6386V12.8336C29.7808 11.343 31.7168 11.614 32.3169 11.8269V7.37433C31.6974 7.14202 29.4323 6.71612 28.2901 8.80691ZM18.6102 3.17339L13.8864 4.18007L13.8671 19.6867C13.8671 22.5519 16.016 24.662 18.8813 24.662C20.4688 24.662 21.6304 24.3717 22.2692 24.0232V20.0933C21.6497 20.345 18.5909 21.2355 18.5909 18.3703V11.4978H22.2692V7.37433H18.5909L18.6102 3.17339ZM5.52302 12.2916C5.52302 11.5365 6.14253 11.2462 7.1686 11.2462C8.63995 11.2462 10.4985 11.6914 11.9698 12.4851V7.93574C10.363 7.29689 8.77546 7.04522 7.1686 7.04522C3.23857 7.04522 0.625 9.09729 0.625 12.5239C0.625 17.867 7.98171 17.0152 7.98171 19.3189C7.98171 20.2094 7.20732 20.4998 6.12317 20.4998C4.51631 20.4998 2.46418 19.8416 0.837957 18.9511V23.5586C2.63842 24.3329 4.45823 24.662 6.12317 24.662C10.15 24.662 12.9185 22.6681 12.9185 19.2028C12.8991 13.4337 5.52302 14.4598 5.52302 12.2916Z" fill="black" fill-opacity="0.5"/>
</svg>
