<svg width="28" height="34" viewBox="0 0 28 34" fill="none" xmlns="http://www.w3.org/2000/svg">
<path d="M14.001 5.36816C14.1307 5.36814 14.2662 5.32603 14.3652 5.2334L14.3662 5.23242C14.4025 5.198 14.4361 5.15911 14.459 5.08691C14.4794 5.02252 14.4912 4.93331 14.499 4.7998C14.5148 4.53056 14.5156 4.04282 14.5156 3.11816C14.5156 2.22435 14.5142 1.73693 14.5 1.46191C14.4929 1.3255 14.4825 1.23365 14.4648 1.16797C14.4454 1.09566 14.4161 1.05228 14.377 1.01562L14.376 1.0166C14.2756 0.920038 14.1211 0.882045 13.9854 0.883789C13.851 0.885542 13.6961 0.92575 13.6094 1.03125V1.03223C13.5738 1.07364 13.5516 1.1245 13.5361 1.19629C13.5207 1.26766 13.51 1.36677 13.5029 1.50977C13.4887 1.79715 13.4863 2.28391 13.4863 3.13086C13.4863 4.04946 13.4871 4.53413 13.5029 4.80176C13.5107 4.93431 13.5226 5.02273 13.543 5.08691C13.5659 5.15898 13.5995 5.19801 13.6357 5.23242V5.2334C13.7348 5.32629 13.8711 5.36816 14.001 5.36816Z" fill="#CC922F" stroke="#CC922F" stroke-width="0.2"/>
<path d="M8.97168 6.79932C9.10752 6.79928 9.26701 6.7594 9.35742 6.65186H9.3584C9.41926 6.58188 9.46656 6.50404 9.48047 6.3999C9.49384 6.29942 9.47435 6.18568 9.42676 6.04541C9.33222 5.7669 9.11107 5.33899 8.71875 4.6167C8.24064 3.73137 7.99386 3.27458 7.83105 3.0415C7.7496 2.9249 7.67963 2.85018 7.60156 2.80908C7.52102 2.76682 7.4433 2.76709 7.37402 2.76709C7.21656 2.76709 7.0643 2.8155 6.97852 2.91553V2.91455C6.91778 2.9843 6.86938 3.06179 6.85645 3.16748C6.8441 3.26875 6.86619 3.38439 6.91699 3.52881C7.01813 3.81616 7.25286 4.26599 7.67188 5.03857L8.26953 6.12256C8.35116 6.26768 8.42087 6.38965 8.47363 6.479C8.49997 6.5236 8.52221 6.56127 8.54004 6.58936C8.55395 6.61126 8.56959 6.63426 8.58301 6.6499L8.62012 6.68799C8.71326 6.76885 8.852 6.79932 8.97168 6.79932Z" fill="#CC922F" stroke="#CC922F" stroke-width="0.2"/>
<path d="M19.0342 6.80127C19.1736 6.80382 19.3364 6.76386 19.4268 6.6499H19.4258C19.437 6.63613 19.4528 6.6133 19.4678 6.58936C19.4849 6.56184 19.5072 6.52501 19.5332 6.48096C19.5856 6.39243 19.6554 6.27161 19.7373 6.12744C19.9014 5.83864 20.1144 5.45424 20.3369 5.04541H20.3379C20.643 4.48025 20.8452 4.09314 20.9717 3.82666C21.0349 3.69348 21.0798 3.58806 21.1094 3.50439C21.1383 3.42245 21.1553 3.35353 21.1553 3.29541C21.1553 3.13898 21.1115 3.00306 21.0137 2.90674C20.9162 2.81079 20.7796 2.76811 20.623 2.76807C20.5311 2.76807 20.4496 2.77762 20.374 2.81982C20.3 2.86121 20.2431 2.92733 20.1846 3.01221V3.01318C20.1035 3.13236 19.6916 3.8665 19.2783 4.63623C18.8858 5.36196 18.6672 5.78379 18.5742 6.0542C18.5274 6.19039 18.5086 6.29992 18.5215 6.39697C18.5349 6.49762 18.5809 6.57182 18.6377 6.63916L18.6758 6.67822C18.7717 6.76287 18.9108 6.79896 19.0342 6.80127Z" fill="#CC922F" stroke="#CC922F" stroke-width="0.2"/>
<mask id="path-4-outside-1_9666_9364" maskUnits="userSpaceOnUse" x="4.29688" y="5.14648" width="23" height="29" fill="black">
<rect fill="white" x="4.29688" y="5.14648" width="23" height="29"/>
<path d="M13.144 6.29766C11.4547 6.55527 10.4233 6.94481 9.1845 7.80558C8.37838 8.36477 7.29367 9.50827 6.75428 10.3816C5.36728 12.6058 4.95236 15.32 5.58659 17.9966C5.91852 19.3726 6.51126 20.4595 8.01088 22.4073C9.20228 23.9466 9.71203 24.7257 10.2396 25.8189L10.6841 26.7237V28.5709C10.6841 29.9343 10.7078 30.5061 10.7671 30.7385C11.0457 31.8443 11.9466 32.7491 13.0847 33.057C13.5352 33.1763 14.4717 33.1763 14.9222 33.057C16.0899 32.7428 17.0382 31.7627 17.2576 30.6506C17.299 30.4495 17.3228 29.595 17.3228 28.5269V26.73L17.6725 25.9886C18.034 25.2158 18.5142 24.399 18.9706 23.7707L19.2373 23.4L19.421 23.5948L19.5989 23.7895L19.2966 24.1162C18.8639 24.5938 18.7868 24.7822 18.8165 25.3351C18.8342 25.7184 18.8639 25.8315 19.018 26.064C19.3381 26.554 19.9486 26.7802 20.4998 26.6169C20.6954 26.554 20.8851 26.4221 21.1459 26.1708L21.5075 25.8064L22.93 27.3143C23.7065 28.1436 24.4593 28.8976 24.6016 28.9856C25.1765 29.35 26.03 29.2118 26.4746 28.6903C26.9073 28.1813 26.9903 27.3646 26.6702 26.7928C26.5872 26.642 25.8759 25.8441 25.0935 25.021L23.671 23.5131L24.0147 23.1298C24.2518 22.8534 24.3763 22.6523 24.4356 22.445C24.5897 21.8606 24.3763 21.2135 23.914 20.8742C23.6947 20.7109 23.588 20.6794 23.2264 20.6606C22.7048 20.6292 22.527 20.7109 22.0765 21.1695L21.7683 21.4962L21.466 21.1695L21.1578 20.8491L21.4304 20.3904C22.7463 18.1474 23.0723 15.2698 22.2958 12.6812C21.8631 11.2487 21.2052 10.124 20.1442 8.98679C18.8579 7.61709 17.5124 6.84428 15.752 6.44845C15.1771 6.32279 13.5885 6.22855 13.144 6.29766ZM14.94 7.26524C16.9019 7.52913 18.7335 8.59096 19.9841 10.1931C21.0392 11.544 21.6201 13.0393 21.7801 14.7923C21.9402 16.5704 21.5786 18.2919 20.7251 19.781L20.5057 20.158L20.2153 19.8501L19.9249 19.5422L20.2272 18.8762C20.648 17.9401 20.8199 17.1861 20.8614 16.118C20.9029 15.075 20.8258 14.4341 20.5472 13.5482C19.9723 11.7073 18.775 10.2685 17.1153 9.4266C16.3329 9.03077 15.7461 8.85484 14.851 8.7606C12.1304 8.45901 9.47494 10.0235 8.2539 12.6372C7.6908 13.8435 7.45964 15.1567 7.59004 16.4573C7.67895 17.406 7.84491 18.028 8.21834 18.8574C9.0126 20.6166 10.37 21.8858 12.1067 22.4952C12.9424 22.7905 13.547 22.8722 14.531 22.8282C15.5386 22.7842 16.2499 22.602 17.1331 22.1559L17.7614 21.8355L18.1704 22.2753L18.5853 22.7089L18.3126 23.0796C17.8384 23.7393 17.2042 24.8074 16.8901 25.4985L16.5818 26.1708H14.0034H11.425L11.105 25.4797C10.6841 24.5749 9.98469 23.4565 9.10744 22.3193C7.38851 20.07 6.90246 19.2658 6.54682 18.072C6.28602 17.1924 6.21489 16.6458 6.21489 15.5588C6.20896 14.4781 6.28009 13.9378 6.54682 13.0456C7.68488 9.23182 11.2472 6.77517 14.94 7.26524ZM15.1533 9.74703C17.5658 10.1931 19.4151 12.1094 19.9071 14.6855C20.0375 15.3829 19.996 16.6395 19.8122 17.3495C19.67 17.8961 19.344 18.6815 19.0535 19.1652C18.9469 19.3412 18.8639 19.5485 18.8639 19.6365C18.8639 19.7558 19.1306 20.0763 19.9901 20.9936L21.1163 22.1874L20.6895 22.646L20.2568 23.0984L19.1306 21.9046C18.2652 20.9936 17.9629 20.7109 17.8503 20.7109C17.7673 20.7109 17.5717 20.7988 17.4057 20.9119C16.4811 21.5339 15.5623 21.8418 14.4421 21.8858C13.2388 21.936 12.2074 21.6596 11.2176 21.0124C8.91184 19.5108 7.89233 16.5389 8.7518 13.8498C9.66461 10.9973 12.409 9.23811 15.1533 9.74703ZM23.4813 21.7538C23.5524 21.8481 23.6058 21.98 23.6058 22.0491C23.6058 22.2125 20.3813 25.6619 20.1797 25.7184C19.9604 25.775 19.7293 25.5551 19.7056 25.266C19.6878 25.0273 19.6996 25.0084 21.3059 23.3057C22.8352 21.6847 22.936 21.5905 23.1434 21.5905C23.3094 21.5905 23.3924 21.6282 23.4813 21.7538ZM24.5126 25.7875C25.9115 27.2766 25.9767 27.3583 25.9767 27.5845C25.9767 27.9237 25.6685 28.2505 25.3484 28.2505C25.1291 28.2505 25.058 28.1813 23.6354 26.6797L22.1536 25.109L22.5685 24.6691C22.7937 24.4304 22.9952 24.2293 23.013 24.2293C23.0308 24.2293 23.7065 24.933 24.5126 25.7875ZM16.4337 27.5279V27.9363H14.0034H11.5732V27.5279V27.1195H14.0034H16.4337V27.5279ZM16.4337 29.3814V29.884H14.0034H11.5732V29.3814V28.8788H14.0034H16.4337V29.3814ZM16.2558 30.8139C16.2558 30.9584 15.8646 31.4611 15.5683 31.6935C14.691 32.3847 13.3514 32.391 12.4505 31.7061C12.16 31.4862 11.751 30.9647 11.751 30.8139C11.751 30.7888 12.7646 30.7637 14.0034 30.7637C15.2423 30.7637 16.2558 30.7888 16.2558 30.8139Z"/>
</mask>
<path d="M13.144 6.29766C11.4547 6.55527 10.4233 6.94481 9.1845 7.80558C8.37838 8.36477 7.29367 9.50827 6.75428 10.3816C5.36728 12.6058 4.95236 15.32 5.58659 17.9966C5.91852 19.3726 6.51126 20.4595 8.01088 22.4073C9.20228 23.9466 9.71203 24.7257 10.2396 25.8189L10.6841 26.7237V28.5709C10.6841 29.9343 10.7078 30.5061 10.7671 30.7385C11.0457 31.8443 11.9466 32.7491 13.0847 33.057C13.5352 33.1763 14.4717 33.1763 14.9222 33.057C16.0899 32.7428 17.0382 31.7627 17.2576 30.6506C17.299 30.4495 17.3228 29.595 17.3228 28.5269V26.73L17.6725 25.9886C18.034 25.2158 18.5142 24.399 18.9706 23.7707L19.2373 23.4L19.421 23.5948L19.5989 23.7895L19.2966 24.1162C18.8639 24.5938 18.7868 24.7822 18.8165 25.3351C18.8342 25.7184 18.8639 25.8315 19.018 26.064C19.3381 26.554 19.9486 26.7802 20.4998 26.6169C20.6954 26.554 20.8851 26.4221 21.1459 26.1708L21.5075 25.8064L22.93 27.3143C23.7065 28.1436 24.4593 28.8976 24.6016 28.9856C25.1765 29.35 26.03 29.2118 26.4746 28.6903C26.9073 28.1813 26.9903 27.3646 26.6702 26.7928C26.5872 26.642 25.8759 25.8441 25.0935 25.021L23.671 23.5131L24.0147 23.1298C24.2518 22.8534 24.3763 22.6523 24.4356 22.445C24.5897 21.8606 24.3763 21.2135 23.914 20.8742C23.6947 20.7109 23.588 20.6794 23.2264 20.6606C22.7048 20.6292 22.527 20.7109 22.0765 21.1695L21.7683 21.4962L21.466 21.1695L21.1578 20.8491L21.4304 20.3904C22.7463 18.1474 23.0723 15.2698 22.2958 12.6812C21.8631 11.2487 21.2052 10.124 20.1442 8.98679C18.8579 7.61709 17.5124 6.84428 15.752 6.44845C15.1771 6.32279 13.5885 6.22855 13.144 6.29766ZM14.94 7.26524C16.9019 7.52913 18.7335 8.59096 19.9841 10.1931C21.0392 11.544 21.6201 13.0393 21.7801 14.7923C21.9402 16.5704 21.5786 18.2919 20.7251 19.781L20.5057 20.158L20.2153 19.8501L19.9249 19.5422L20.2272 18.8762C20.648 17.9401 20.8199 17.1861 20.8614 16.118C20.9029 15.075 20.8258 14.4341 20.5472 13.5482C19.9723 11.7073 18.775 10.2685 17.1153 9.4266C16.3329 9.03077 15.7461 8.85484 14.851 8.7606C12.1304 8.45901 9.47494 10.0235 8.2539 12.6372C7.6908 13.8435 7.45964 15.1567 7.59004 16.4573C7.67895 17.406 7.84491 18.028 8.21834 18.8574C9.0126 20.6166 10.37 21.8858 12.1067 22.4952C12.9424 22.7905 13.547 22.8722 14.531 22.8282C15.5386 22.7842 16.2499 22.602 17.1331 22.1559L17.7614 21.8355L18.1704 22.2753L18.5853 22.7089L18.3126 23.0796C17.8384 23.7393 17.2042 24.8074 16.8901 25.4985L16.5818 26.1708H14.0034H11.425L11.105 25.4797C10.6841 24.5749 9.98469 23.4565 9.10744 22.3193C7.38851 20.07 6.90246 19.2658 6.54682 18.072C6.28602 17.1924 6.21489 16.6458 6.21489 15.5588C6.20896 14.4781 6.28009 13.9378 6.54682 13.0456C7.68488 9.23182 11.2472 6.77517 14.94 7.26524ZM15.1533 9.74703C17.5658 10.1931 19.4151 12.1094 19.9071 14.6855C20.0375 15.3829 19.996 16.6395 19.8122 17.3495C19.67 17.8961 19.344 18.6815 19.0535 19.1652C18.9469 19.3412 18.8639 19.5485 18.8639 19.6365C18.8639 19.7558 19.1306 20.0763 19.9901 20.9936L21.1163 22.1874L20.6895 22.646L20.2568 23.0984L19.1306 21.9046C18.2652 20.9936 17.9629 20.7109 17.8503 20.7109C17.7673 20.7109 17.5717 20.7988 17.4057 20.9119C16.4811 21.5339 15.5623 21.8418 14.4421 21.8858C13.2388 21.936 12.2074 21.6596 11.2176 21.0124C8.91184 19.5108 7.89233 16.5389 8.7518 13.8498C9.66461 10.9973 12.409 9.23811 15.1533 9.74703ZM23.4813 21.7538C23.5524 21.8481 23.6058 21.98 23.6058 22.0491C23.6058 22.2125 20.3813 25.6619 20.1797 25.7184C19.9604 25.775 19.7293 25.5551 19.7056 25.266C19.6878 25.0273 19.6996 25.0084 21.3059 23.3057C22.8352 21.6847 22.936 21.5905 23.1434 21.5905C23.3094 21.5905 23.3924 21.6282 23.4813 21.7538ZM24.5126 25.7875C25.9115 27.2766 25.9767 27.3583 25.9767 27.5845C25.9767 27.9237 25.6685 28.2505 25.3484 28.2505C25.1291 28.2505 25.058 28.1813 23.6354 26.6797L22.1536 25.109L22.5685 24.6691C22.7937 24.4304 22.9952 24.2293 23.013 24.2293C23.0308 24.2293 23.7065 24.933 24.5126 25.7875ZM16.4337 27.5279V27.9363H14.0034H11.5732V27.5279V27.1195H14.0034H16.4337V27.5279ZM16.4337 29.3814V29.884H14.0034H11.5732V29.3814V28.8788H14.0034H16.4337V29.3814ZM16.2558 30.8139C16.2558 30.9584 15.8646 31.4611 15.5683 31.6935C14.691 32.3847 13.3514 32.391 12.4505 31.7061C12.16 31.4862 11.751 30.9647 11.751 30.8139C11.751 30.7888 12.7646 30.7637 14.0034 30.7637C15.2423 30.7637 16.2558 30.7888 16.2558 30.8139Z" fill="#0D257B"/>
<path d="M13.144 6.29766C11.4547 6.55527 10.4233 6.94481 9.1845 7.80558C8.37838 8.36477 7.29367 9.50827 6.75428 10.3816C5.36728 12.6058 4.95236 15.32 5.58659 17.9966C5.91852 19.3726 6.51126 20.4595 8.01088 22.4073C9.20228 23.9466 9.71203 24.7257 10.2396 25.8189L10.6841 26.7237V28.5709C10.6841 29.9343 10.7078 30.5061 10.7671 30.7385C11.0457 31.8443 11.9466 32.7491 13.0847 33.057C13.5352 33.1763 14.4717 33.1763 14.9222 33.057C16.0899 32.7428 17.0382 31.7627 17.2576 30.6506C17.299 30.4495 17.3228 29.595 17.3228 28.5269V26.73L17.6725 25.9886C18.034 25.2158 18.5142 24.399 18.9706 23.7707L19.2373 23.4L19.421 23.5948L19.5989 23.7895L19.2966 24.1162C18.8639 24.5938 18.7868 24.7822 18.8165 25.3351C18.8342 25.7184 18.8639 25.8315 19.018 26.064C19.3381 26.554 19.9486 26.7802 20.4998 26.6169C20.6954 26.554 20.8851 26.4221 21.1459 26.1708L21.5075 25.8064L22.93 27.3143C23.7065 28.1436 24.4593 28.8976 24.6016 28.9856C25.1765 29.35 26.03 29.2118 26.4746 28.6903C26.9073 28.1813 26.9903 27.3646 26.6702 26.7928C26.5872 26.642 25.8759 25.8441 25.0935 25.021L23.671 23.5131L24.0147 23.1298C24.2518 22.8534 24.3763 22.6523 24.4356 22.445C24.5897 21.8606 24.3763 21.2135 23.914 20.8742C23.6947 20.7109 23.588 20.6794 23.2264 20.6606C22.7048 20.6292 22.527 20.7109 22.0765 21.1695L21.7683 21.4962L21.466 21.1695L21.1578 20.8491L21.4304 20.3904C22.7463 18.1474 23.0723 15.2698 22.2958 12.6812C21.8631 11.2487 21.2052 10.124 20.1442 8.98679C18.8579 7.61709 17.5124 6.84428 15.752 6.44845C15.1771 6.32279 13.5885 6.22855 13.144 6.29766ZM14.94 7.26524C16.9019 7.52913 18.7335 8.59096 19.9841 10.1931C21.0392 11.544 21.6201 13.0393 21.7801 14.7923C21.9402 16.5704 21.5786 18.2919 20.7251 19.781L20.5057 20.158L20.2153 19.8501L19.9249 19.5422L20.2272 18.8762C20.648 17.9401 20.8199 17.1861 20.8614 16.118C20.9029 15.075 20.8258 14.4341 20.5472 13.5482C19.9723 11.7073 18.775 10.2685 17.1153 9.4266C16.3329 9.03077 15.7461 8.85484 14.851 8.7606C12.1304 8.45901 9.47494 10.0235 8.2539 12.6372C7.6908 13.8435 7.45964 15.1567 7.59004 16.4573C7.67895 17.406 7.84491 18.028 8.21834 18.8574C9.0126 20.6166 10.37 21.8858 12.1067 22.4952C12.9424 22.7905 13.547 22.8722 14.531 22.8282C15.5386 22.7842 16.2499 22.602 17.1331 22.1559L17.7614 21.8355L18.1704 22.2753L18.5853 22.7089L18.3126 23.0796C17.8384 23.7393 17.2042 24.8074 16.8901 25.4985L16.5818 26.1708H14.0034H11.425L11.105 25.4797C10.6841 24.5749 9.98469 23.4565 9.10744 22.3193C7.38851 20.07 6.90246 19.2658 6.54682 18.072C6.28602 17.1924 6.21489 16.6458 6.21489 15.5588C6.20896 14.4781 6.28009 13.9378 6.54682 13.0456C7.68488 9.23182 11.2472 6.77517 14.94 7.26524ZM15.1533 9.74703C17.5658 10.1931 19.4151 12.1094 19.9071 14.6855C20.0375 15.3829 19.996 16.6395 19.8122 17.3495C19.67 17.8961 19.344 18.6815 19.0535 19.1652C18.9469 19.3412 18.8639 19.5485 18.8639 19.6365C18.8639 19.7558 19.1306 20.0763 19.9901 20.9936L21.1163 22.1874L20.6895 22.646L20.2568 23.0984L19.1306 21.9046C18.2652 20.9936 17.9629 20.7109 17.8503 20.7109C17.7673 20.7109 17.5717 20.7988 17.4057 20.9119C16.4811 21.5339 15.5623 21.8418 14.4421 21.8858C13.2388 21.936 12.2074 21.6596 11.2176 21.0124C8.91184 19.5108 7.89233 16.5389 8.7518 13.8498C9.66461 10.9973 12.409 9.23811 15.1533 9.74703ZM23.4813 21.7538C23.5524 21.8481 23.6058 21.98 23.6058 22.0491C23.6058 22.2125 20.3813 25.6619 20.1797 25.7184C19.9604 25.775 19.7293 25.5551 19.7056 25.266C19.6878 25.0273 19.6996 25.0084 21.3059 23.3057C22.8352 21.6847 22.936 21.5905 23.1434 21.5905C23.3094 21.5905 23.3924 21.6282 23.4813 21.7538ZM24.5126 25.7875C25.9115 27.2766 25.9767 27.3583 25.9767 27.5845C25.9767 27.9237 25.6685 28.2505 25.3484 28.2505C25.1291 28.2505 25.058 28.1813 23.6354 26.6797L22.1536 25.109L22.5685 24.6691C22.7937 24.4304 22.9952 24.2293 23.013 24.2293C23.0308 24.2293 23.7065 24.933 24.5126 25.7875ZM16.4337 27.5279V27.9363H14.0034H11.5732V27.5279V27.1195H14.0034H16.4337V27.5279ZM16.4337 29.3814V29.884H14.0034H11.5732V29.3814V28.8788H14.0034H16.4337V29.3814ZM16.2558 30.8139C16.2558 30.9584 15.8646 31.4611 15.5683 31.6935C14.691 32.3847 13.3514 32.391 12.4505 31.7061C12.16 31.4862 11.751 30.9647 11.751 30.8139C11.751 30.7888 12.7646 30.7637 14.0034 30.7637C15.2423 30.7637 16.2558 30.7888 16.2558 30.8139Z" stroke="#0D257B" stroke-width="0.4" mask="url(#path-4-outside-1_9666_9364)"/>
<path d="M11.6826 15.168L11.6973 15.1523L12.5566 14.2412L13.3877 13.3662L14.1543 13.8408C14.392 13.9888 14.6092 14.1156 14.7803 14.2051C14.8658 14.2498 14.9408 14.2857 15.001 14.3105C15.0308 14.3229 15.0577 14.333 15.0811 14.3398C15.1038 14.3465 15.1267 14.3516 15.1465 14.3516C15.2002 14.3516 15.2506 14.3456 15.3125 14.3135C15.3715 14.2827 15.4393 14.2292 15.5322 14.1387C15.7185 13.957 16.0207 13.6138 16.583 12.9707C16.9703 12.5257 17.1821 12.2802 17.2959 12.1172C17.3532 12.0352 17.3874 11.971 17.4072 11.9111C17.4273 11.8506 17.4316 11.7971 17.4316 11.7383C17.4316 11.5805 17.3937 11.4524 17.3105 11.3643C17.2269 11.2757 17.1047 11.2354 16.9541 11.2354C16.9008 11.2354 16.851 11.2398 16.7949 11.2637C16.7401 11.287 16.6827 11.3273 16.6104 11.3936C16.5382 11.4596 16.4477 11.5545 16.3262 11.6895L15.8555 12.2266L15.0361 13.1611L14.8896 13.0654C14.4655 12.7887 14.1025 12.5686 13.8262 12.417C13.6882 12.3413 13.5706 12.2823 13.4775 12.2422C13.431 12.2221 13.3896 12.206 13.3545 12.1953C13.3202 12.1848 13.2884 12.1777 13.2617 12.1777C13.1648 12.1777 13.0722 12.2253 12.9141 12.3652C12.7549 12.5061 12.5195 12.7502 12.1348 13.1611L11.2354 14.1152L10.7695 14.1387C10.4832 14.1512 10.2851 14.1824 10.1592 14.2617C10.0944 14.3026 10.0491 14.3561 10.0205 14.4238C9.99242 14.4907 9.98147 14.5695 9.98145 14.6592C9.98145 14.7581 9.9897 14.8436 10.0186 14.9141C10.0486 14.9872 10.0998 15.042 10.1768 15.0801C10.2514 15.1169 10.3502 15.1386 10.4766 15.1514C10.6036 15.1642 10.7631 15.168 10.9619 15.168H11.6826Z" fill="#CC922F" stroke="#CC922F" stroke-width="0.1"/>
<path d="M16.8408 19.4258C17.2011 19.4219 17.5038 19.417 17.7188 19.4111C17.8262 19.4082 17.913 19.4048 17.9736 19.4014C18.0036 19.3996 18.028 19.3975 18.0459 19.3955C18.0548 19.3945 18.0635 19.3939 18.0703 19.3926C18.0736 19.3919 18.0773 19.3908 18.0811 19.3896C18.0836 19.3888 18.0919 19.3866 18.0996 19.3809H18.0986C18.1761 19.3281 18.2328 19.2337 18.2656 19.1318C18.2989 19.0286 18.3105 18.9102 18.291 18.8037V18.8018C18.2634 18.6777 18.1745 18.5762 18.0518 18.5068C17.9288 18.4375 17.7686 18.3985 17.5898 18.3984H17.4326V16.1553C17.4326 15.0502 17.4307 14.4731 17.415 14.1582C17.4072 14.0015 17.3959 13.9051 17.3779 13.8398C17.3589 13.7707 17.332 13.7363 17.2998 13.7021C17.2215 13.6192 17.1087 13.5739 16.9971 13.5645C16.8856 13.555 16.7688 13.5808 16.6826 13.6465L16.6807 13.6475C16.6257 13.6934 16.5819 13.7472 16.5488 13.8369C16.5168 13.924 16.4948 14.0444 16.4795 14.2236C16.4489 14.5828 16.4434 15.1949 16.4434 16.2871V18.3984H15.5947V17.0791C15.5947 16.6931 15.5945 16.3996 15.5869 16.1777C15.5793 15.9568 15.5642 15.8018 15.5352 15.6943C15.5056 15.5851 15.4585 15.5167 15.3809 15.4805C15.3095 15.4472 15.219 15.4453 15.1182 15.4453C15.024 15.4453 14.9376 15.4475 14.8691 15.4834C14.7956 15.5219 14.7517 15.5934 14.7236 15.7031C14.6959 15.8117 14.6815 15.9676 14.6738 16.1885C14.6661 16.4103 14.665 16.7021 14.665 17.085V18.3984H13.7578V16.5635C13.7578 15.6628 13.7559 15.188 13.7402 14.9238C13.7324 14.7922 13.7204 14.7087 13.7021 14.6494C13.6828 14.5868 13.6566 14.5521 13.625 14.5186C13.4768 14.3616 13.2255 14.3359 13.0303 14.4463C12.9695 14.4812 12.9212 14.5299 12.8848 14.6113C12.8496 14.69 12.8264 14.7993 12.8096 14.9561C12.7759 15.2703 12.7686 15.7948 12.7686 16.6953V18.3984H11.9199V17.2041C11.9199 16.8543 11.9182 16.5872 11.9102 16.3838C11.9021 16.1812 11.8871 16.0366 11.8574 15.9355C11.8271 15.8325 11.7794 15.7675 11.7031 15.7324C11.6324 15.6999 11.5436 15.6963 11.4434 15.6963C11.3484 15.6963 11.2625 15.7003 11.1943 15.7354C11.1216 15.7729 11.0772 15.8408 11.0488 15.9443C11.0209 16.0466 11.0067 16.192 10.999 16.3945C10.9913 16.5979 10.9902 16.8642 10.9902 17.2109V18.3984H10.833C10.6543 18.3984 10.494 18.4375 10.3711 18.5068C10.2483 18.5762 10.1595 18.6777 10.1318 18.8018L10.1309 18.8037L10.1318 18.8047C10.1126 18.911 10.1231 19.0288 10.1562 19.1318C10.1889 19.2333 10.2453 19.328 10.3223 19.3809L10.3408 19.3896C10.3448 19.3909 10.3492 19.3919 10.3525 19.3926C10.3593 19.3939 10.3673 19.3945 10.376 19.3955C10.394 19.3975 10.419 19.3996 10.4492 19.4014C10.5099 19.4048 10.5958 19.4082 10.7031 19.4111C10.9181 19.417 11.2205 19.4219 11.5811 19.4258C12.3022 19.4336 13.2566 19.4375 14.2109 19.4375C15.1652 19.4375 16.1197 19.4336 16.8408 19.4258Z" fill="#CC922F" stroke="#CC922F" stroke-width="0.1"/>
<path d="M5.44238 10.6953C5.54562 10.6764 5.61709 10.6173 5.67676 10.5469L5.67773 10.5459C5.76404 10.4419 5.79879 10.2814 5.79883 10.1416C5.79883 10.0694 5.79001 9.99608 5.77051 9.93066C5.75135 9.86651 5.71883 9.80144 5.66797 9.75488L5.66699 9.75586C5.653 9.74294 5.63163 9.7253 5.6084 9.70898C5.58165 9.6902 5.54611 9.66658 5.50391 9.63867C5.41941 9.58279 5.30447 9.50838 5.16797 9.42188L4.14746 8.78809C3.40977 8.33768 2.97554 8.0854 2.69922 7.97852C2.56071 7.92494 2.44653 7.9016 2.34668 7.91895C2.24156 7.93728 2.16974 7.99728 2.11035 8.06738V8.06836C2.06635 8.11728 2.03624 8.18809 2.01758 8.25391C1.99753 8.32475 1.98637 8.4049 1.98633 8.47754C1.98633 8.54883 1.98582 8.62672 2.02539 8.70801C2.06394 8.78707 2.13447 8.85914 2.24512 8.94531C2.46596 9.11725 2.89721 9.37913 3.72949 9.88281C4.41931 10.3015 4.83137 10.5399 5.09766 10.6406C5.23142 10.6912 5.34376 10.7132 5.44238 10.6953Z" fill="#CC922F" stroke="#CC922F" stroke-width="0.2"/>
<path d="M22.584 10.6919C22.6828 10.7067 22.7937 10.685 22.9268 10.6343C23.1907 10.5336 23.5952 10.298 24.2764 9.88232L25.2529 9.28662C25.493 9.13619 25.6558 9.02741 25.7656 8.94092C25.8761 8.85387 25.945 8.77995 25.9824 8.69873C26.0203 8.61652 26.0195 8.53734 26.0195 8.46436C26.0195 8.30158 25.9761 8.14321 25.8828 8.05322H25.8818C25.8146 7.98907 25.7383 7.93623 25.6328 7.92236C25.5317 7.90907 25.4182 7.93381 25.2793 7.98877C25.0031 8.09804 24.5746 8.34983 23.8457 8.80029C23.4603 9.036 23.0985 9.26085 22.8262 9.43311C22.69 9.51924 22.5758 9.593 22.4922 9.64795C22.4506 9.6753 22.4157 9.69825 22.3896 9.71631C22.3664 9.73246 22.3432 9.74885 22.3301 9.76123V9.76221C22.2789 9.80978 22.2484 9.87695 22.2305 9.94189C22.2119 10.0091 22.2039 10.0842 22.2051 10.1577C22.2063 10.2314 22.2166 10.3073 22.2373 10.3755C22.2577 10.4424 22.29 10.5109 22.3408 10.5601C22.4064 10.6242 22.4816 10.6765 22.584 10.6919Z" fill="#CC922F" stroke="#CC922F" stroke-width="0.2"/>
<path d="M2.33789 16.0356C3.20423 16.0356 3.66285 16.0348 3.91602 16.0181C4.04139 16.0097 4.12697 15.9965 4.18945 15.9741C4.22456 15.9615 4.25134 15.9461 4.27344 15.9292L4.3291 15.8745C4.4157 15.7707 4.45501 15.63 4.45508 15.4966C4.45508 15.3963 4.43335 15.2914 4.38574 15.2017L4.3291 15.1177C4.29702 15.0797 4.25938 15.0434 4.18848 15.0181C4.12578 14.9957 4.04024 14.9834 3.91406 14.9751C3.65944 14.9583 3.19845 14.9565 2.32617 14.9565C1.48332 14.9565 1.02272 14.958 0.762695 14.9731C0.634072 14.9806 0.546087 14.9921 0.482422 15.0112C0.411841 15.0325 0.370147 15.0641 0.335938 15.105V15.104C0.245127 15.2088 0.21129 15.371 0.212891 15.5122C0.213725 15.5851 0.224128 15.6588 0.245117 15.7251C0.265802 15.7903 0.298459 15.8556 0.349609 15.9028C0.389294 15.9413 0.438839 15.9659 0.508789 15.9829C0.577495 15.9996 0.672435 16.0105 0.807617 16.0181C1.07922 16.0332 1.53903 16.0356 2.33789 16.0356Z" fill="#CC922F" stroke="#CC922F" stroke-width="0.2"/>
<path d="M25.6816 16.0356C26.5245 16.0356 26.9851 16.0342 27.2451 16.019C27.3738 16.0115 27.4617 16.0001 27.5254 15.981C27.5957 15.9597 27.6377 15.9288 27.6719 15.8882L27.7295 15.8003C27.7775 15.7038 27.7961 15.5859 27.7949 15.48C27.7941 15.407 27.7837 15.3334 27.7627 15.2671C27.742 15.2018 27.7094 15.1366 27.6582 15.0894L27.6572 15.0903C27.6175 15.052 27.5689 15.0263 27.499 15.0093C27.4303 14.9926 27.3354 14.9826 27.2002 14.9751C26.9286 14.96 26.4688 14.9565 25.6699 14.9565C24.8041 14.9565 24.346 14.9584 24.0928 14.9751C23.9674 14.9834 23.8819 14.9958 23.8193 15.0181C23.7487 15.0434 23.7107 15.0797 23.6787 15.1177C23.6377 15.1657 23.6062 15.2321 23.585 15.2954C23.5633 15.3599 23.5488 15.4327 23.5488 15.4966C23.5489 15.5604 23.5633 15.6324 23.585 15.6968C23.6063 15.7604 23.6384 15.8274 23.6797 15.8755C23.7116 15.9132 23.749 15.949 23.8193 15.9741C23.882 15.9965 23.9675 16.0097 24.0938 16.0181C24.3484 16.0348 24.8094 16.0356 25.6816 16.0356Z" fill="#CC922F" stroke="#CC922F" stroke-width="0.2"/>
</svg>
