<svg width="98" height="27" viewBox="0 0 98 27" fill="none" xmlns="http://www.w3.org/2000/svg">
<path d="M65.02 0.427734H60.945V23.2183C64.6484 23.3457 68.3362 23.5326 72.0091 23.7775V19.7622C69.6857 19.6072 67.3563 19.4759 65.02 19.3671V0.427734ZM97.4051 0.43004H92.9286L89.978 7.26925L87.3271 0.43004H82.9178L87.656 12.6508L82.4838 24.6397C83.9147 24.7793 85.3415 24.9282 86.767 25.0855L89.7752 18.1148L92.7544 25.799C94.306 25.9985 95.8535 26.2067 97.3983 26.4272L97.4051 26.4245L92.0965 12.7333L97.4051 0.43004ZM46.9566 23.0191L51.0318 23.0183V13.7477H56.556V9.73243H51.0318V4.48165H58.3328V0.430244H46.9566V23.0191ZM31.739 4.48138H36.0041V23.2579C37.3601 23.2067 38.7189 23.1645 40.0791 23.1289V4.48138H44.344V0.43004H31.739V4.48138ZM17.807 24.4249C21.563 24.0836 25.3362 23.8023 29.1266 23.584V19.5682C26.7049 19.7082 24.29 19.874 21.8821 20.0633V13.9843C23.462 13.9686 25.5424 13.9203 27.3854 13.9433V9.92767C25.913 9.92407 23.5465 9.94821 21.8821 9.96951V4.48165H29.1266V0.430244H17.807V24.4249ZM9.81328 15.1422L4.50573 0.43004H0.632812V26.4277C1.98857 26.2347 3.34691 26.0499 4.70789 25.8727V11.7352L9.42721 25.2922C10.9115 25.1201 12.3985 24.957 13.8884 24.8038V0.43004H9.81328V15.1422ZM75.3686 24.0192C76.729 24.1233 78.0873 24.235 79.4443 24.3557V0.43004H75.3686V24.0192Z" fill="black" fill-opacity="0.5"/>
</svg>
