<svg width="40" height="40" viewBox="0 0 40 40" fill="none" xmlns="http://www.w3.org/2000/svg">
<path d="M29.2805 24.1238L35.7422 28.6723C35.9325 28.7569 36.1409 28.7926 36.3486 28.7762C36.5562 28.7597 36.7564 28.6917 36.9311 28.5782C37.1057 28.4647 37.2492 28.3094 37.3486 28.1264C37.448 27.9433 37.5 27.7383 37.5 27.5301V12.4707C37.5 12.2624 37.448 12.0574 37.3486 11.8744C37.2492 11.6913 37.1057 11.536 36.9311 11.4225C36.7564 11.3091 36.5562 11.241 36.3486 11.2246C36.1409 11.2082 35.9325 11.2439 35.7422 11.3285L29.2805 15.8769C29.1166 15.9923 28.9829 16.1453 28.8906 16.3232C28.7983 16.501 28.75 16.6984 28.75 16.8988V23.1019C28.75 23.3023 28.7983 23.4997 28.8906 23.6776C28.9829 23.8554 29.1166 24.0085 29.2805 24.1238Z" stroke="#CC922F" stroke-width="2.5" stroke-linecap="round" stroke-linejoin="round"/>
<path d="M20.9375 30H6.5625C5.48601 29.9969 4.45449 29.5679 3.69329 28.8067C2.9321 28.0455 2.50309 27.014 2.5 25.9375V14.0625C2.50309 12.986 2.9321 11.9545 3.69329 11.1933C4.45449 10.4321 5.48601 10.0031 6.5625 10H20.975C22.0415 10.0033 23.0633 10.4284 23.8175 11.1825C24.5716 11.9367 24.9967 12.9585 25 14.025V25.9375C24.9969 27.014 24.5679 28.0455 23.8067 28.8067C23.0455 29.5679 22.014 29.9969 20.9375 30Z" stroke="#0D257B" stroke-width="2.5" stroke-miterlimit="10"/>
</svg>
