<svg width="704" height="373" viewBox="0 0 704 373" fill="none" xmlns="http://www.w3.org/2000/svg">
<g filter="url(#filter0_f_4174_60476)">
<path d="M645.341 33.5303H58.6741C44.7881 33.5303 33.5312 44.7886 33.5312 58.6763V314.328C33.5312 328.216 44.7881 339.474 58.6741 339.474H645.341C659.227 339.474 670.484 328.216 670.484 314.328V58.6763C670.484 44.7886 659.227 33.5303 645.341 33.5303Z" fill="#DFE5F5"/>
</g>
<path d="M645.333 33.5273H58.6663C44.7803 33.5273 33.5234 44.7856 33.5234 58.6734V314.325C33.5234 328.213 44.7803 339.471 58.6663 339.471H645.333C659.219 339.471 670.476 328.213 670.476 314.325V58.6734C670.476 44.7856 659.219 33.5273 645.333 33.5273Z" fill="white"/>
<path fill-rule="evenodd" clip-rule="evenodd" d="M554.825 304.811C551.422 304.811 548.665 307.57 548.665 310.972C548.665 314.375 551.422 317.133 554.825 317.133C558.227 317.133 560.985 314.375 560.985 310.972C560.985 307.57 558.227 304.811 554.825 304.811ZM547.156 310.972C547.156 306.737 550.589 303.303 554.825 303.303C559.06 303.303 562.493 306.737 562.493 310.972C562.493 315.209 559.06 318.642 554.825 318.642C550.589 318.642 547.156 315.209 547.156 310.972Z" fill="#7F82A4"/>
<path fill-rule="evenodd" clip-rule="evenodd" d="M558.469 307.328C558.764 307.623 558.764 308.101 558.469 308.395L555.358 311.507C555.064 311.802 554.586 311.802 554.291 311.507C553.997 311.212 553.997 310.735 554.291 310.44L557.403 307.328C557.697 307.034 558.175 307.034 558.469 307.328Z" fill="#7F82A4"/>
<path fill-rule="evenodd" clip-rule="evenodd" d="M552.18 301.542C552.18 301.126 552.518 300.788 552.934 300.788H556.706C557.123 300.788 557.46 301.126 557.46 301.542C557.46 301.959 557.123 302.297 556.706 302.297H552.934C552.518 302.297 552.18 301.959 552.18 301.542Z" fill="#7F82A4"/>
<path d="M615.166 301.334H574.937C573.317 301.334 572.004 302.647 572.004 304.268V316.841C572.004 318.461 573.317 319.774 574.937 319.774H615.166C616.786 319.774 618.099 318.461 618.099 316.841V304.268C618.099 302.647 616.786 301.334 615.166 301.334Z" fill="#FFF6DD"/>
<path d="M582.075 315.307C584.046 315.307 585.2 313.699 585.2 310.903C585.2 308.127 584.029 306.515 582.075 306.515C580.117 306.515 578.95 308.123 578.945 310.903C578.945 313.695 580.1 315.303 582.075 315.307ZM582.075 314.195C580.921 314.195 580.225 313.037 580.225 310.903C580.229 308.778 580.925 307.607 582.075 307.607C583.22 307.607 583.921 308.778 583.921 310.903C583.921 313.037 583.225 314.195 582.075 314.195ZM589.494 315.282C591.211 315.282 592.435 314.069 592.431 312.407C592.435 310.757 591.285 309.557 589.732 309.557C589.098 309.557 588.511 309.799 588.177 310.123H588.127L588.398 307.736H592.019V306.631H587.327L586.849 310.932L588.027 311.107C588.348 310.82 588.923 310.624 589.44 310.624C590.452 310.632 591.186 311.39 591.186 312.432C591.186 313.458 590.473 314.199 589.494 314.199C588.669 314.199 588.015 313.674 587.948 312.94H586.699C586.748 314.299 587.927 315.282 589.494 315.282ZM594.79 309.831C595.245 309.831 595.623 309.461 595.623 308.998C595.623 308.544 595.245 308.169 594.79 308.169C594.332 308.169 593.956 308.544 593.956 308.998C593.956 309.461 594.332 309.831 594.79 309.831ZM594.79 314.107C595.245 314.107 595.623 313.737 595.623 313.274C595.623 312.82 595.245 312.445 594.79 312.445C594.332 312.445 593.956 312.82 593.956 313.274C593.956 313.737 594.332 314.107 594.79 314.107ZM600.246 315.307C602.217 315.307 603.371 313.699 603.371 310.903C603.371 308.127 602.2 306.515 600.246 306.515C598.288 306.515 597.121 308.123 597.117 310.903C597.117 313.695 598.271 315.303 600.246 315.307ZM600.246 314.195C599.091 314.195 598.396 313.037 598.396 310.903C598.4 308.778 599.096 307.607 600.246 307.607C601.391 307.607 602.092 308.778 602.092 310.903C602.092 313.037 601.395 314.195 600.246 314.195ZM607.819 315.282C609.561 315.282 610.84 314.24 610.836 312.824C610.84 311.744 610.185 310.97 609.052 310.795V310.727C609.944 310.499 610.523 309.799 610.519 308.84C610.523 307.586 609.494 306.515 607.852 306.515C606.286 306.515 605.028 307.461 604.986 308.848H606.231C606.261 308.065 606.998 307.59 607.835 307.59C608.706 307.59 609.278 308.119 609.273 308.907C609.278 309.732 608.615 310.273 607.669 310.273H606.948V311.323H607.669C608.852 311.323 609.536 311.924 609.536 312.782C609.536 313.612 608.815 314.174 607.811 314.174C606.886 314.174 606.165 313.699 606.115 312.94H604.806C604.861 314.333 606.094 315.282 607.819 315.282Z" fill="#7A4200"/>
<path d="M615.166 301.334H574.937C573.317 301.334 572.004 302.647 572.004 304.268V316.841C572.004 318.461 573.317 319.774 574.937 319.774H615.166C616.786 319.774 618.099 318.461 618.099 316.841V304.268C618.099 302.647 616.786 301.334 615.166 301.334Z" stroke="#FFE194" stroke-width="0.838202"/>
<g filter="url(#filter1_f_4174_60476)">
<path d="M623.558 90.5244H80.472C73.0661 90.5244 67.0625 96.5288 67.0625 103.936V272.414C67.0625 279.821 73.0661 285.826 80.472 285.826H623.558C630.964 285.826 636.967 279.821 636.967 272.414V103.936C636.967 96.5288 630.964 90.5244 623.558 90.5244Z" fill="#111111" fill-opacity="0.1"/>
</g>
<g filter="url(#filter2_f_4174_60476)">
<path d="M555.238 281.637C550.142 281.637 547.399 287.62 550.724 291.481C553.101 294.242 557.375 294.242 559.752 291.481C563.077 287.62 560.333 281.637 555.238 281.637Z" fill="#111111" fill-opacity="0.1"/>
</g>
<path d="M557.781 293.772L568.231 281.635H542.25L552.7 293.772C554.038 295.325 556.443 295.325 557.781 293.772Z" fill="white"/>
<path d="M67.0469 103.938C67.0469 96.5304 73.0505 90.5264 80.4564 90.5264H623.542C630.948 90.5264 636.952 96.5304 636.952 103.938V272.416C636.952 279.823 630.948 285.827 623.542 285.827H80.4564C73.0505 285.827 67.0469 279.823 67.0469 272.416V103.938Z" fill="white"/>
<path fill-rule="evenodd" clip-rule="evenodd" d="M495.136 207.981C495.424 208.282 495.413 208.76 495.111 209.047L490.502 213.448C490.21 213.726 489.752 213.726 489.46 213.448L487.155 211.247C486.854 210.96 486.843 210.482 487.131 210.181C487.418 209.879 487.895 209.868 488.197 210.156L489.981 211.859L494.069 207.956C494.371 207.668 494.848 207.679 495.136 207.981Z" fill="#BABDD8"/>
<path fill-rule="evenodd" clip-rule="evenodd" d="M491.125 203.6C487.376 203.6 484.337 206.64 484.337 210.389C484.337 214.139 487.376 217.178 491.125 217.178C494.874 217.178 497.914 214.139 497.914 210.389C497.914 206.64 494.874 203.6 491.125 203.6ZM482.828 210.389C482.828 205.806 486.543 202.091 491.125 202.091C495.707 202.091 499.422 205.806 499.422 210.389C499.422 214.972 495.707 218.687 491.125 218.687C486.543 218.687 482.828 214.972 482.828 210.389Z" fill="#BABDD8"/>
<path fill-rule="evenodd" clip-rule="evenodd" d="M517.947 196.979C514.244 196.979 511.242 199.981 511.242 203.684V217.095C511.242 220.799 514.244 223.801 517.947 223.801H583.318C587.021 223.801 590.023 220.799 590.023 217.095V203.684C590.023 199.981 587.021 196.979 583.318 196.979H517.947Z" fill="#E45353"/>
<path d="M526.885 214.743C528.943 214.748 530.173 213.122 530.173 210.322C530.173 207.538 528.935 205.93 526.885 205.93C524.835 205.93 523.602 207.534 523.598 210.322C523.598 213.118 524.826 214.743 526.885 214.743ZM526.885 213.439C525.823 213.439 525.156 212.372 525.16 210.322C525.164 208.288 525.827 207.217 526.885 207.217C527.947 207.217 528.61 208.288 528.615 210.322C528.615 212.372 527.952 213.439 526.885 213.439ZM535.028 206.046H533.557L531.436 207.409V208.826L533.432 207.551H533.482V214.581H535.028V206.046ZM538.14 213.556C538.631 213.556 539.053 213.147 539.057 212.639C539.053 212.139 538.631 211.73 538.14 211.73C537.632 211.73 537.219 212.139 537.223 212.639C537.219 213.147 537.632 213.556 538.14 213.556ZM538.14 209.322C538.631 209.322 539.053 208.914 539.057 208.405C539.053 207.905 538.631 207.496 538.14 207.496C537.632 207.496 537.219 207.905 537.223 208.405C537.219 208.914 537.632 209.322 538.14 209.322ZM543.751 214.743C545.81 214.748 547.039 213.122 547.039 210.322C547.039 207.538 545.801 205.93 543.751 205.93C541.701 205.93 540.469 207.534 540.464 210.322C540.464 213.118 541.693 214.743 543.751 214.743ZM543.751 213.439C542.69 213.439 542.022 212.372 542.027 210.322C542.031 208.288 542.694 207.217 543.751 207.217C544.814 207.217 545.477 208.288 545.481 210.322C545.481 212.372 544.818 213.439 543.751 213.439ZM551.486 214.697C553.311 214.697 554.64 213.651 554.636 212.21C554.64 211.142 553.974 210.376 552.778 210.205V210.138C553.703 209.939 554.323 209.251 554.32 208.293C554.323 206.993 553.215 205.93 551.511 205.93C549.853 205.93 548.57 206.917 548.536 208.346H550.024C550.049 207.63 550.715 207.184 551.503 207.184C552.298 207.184 552.828 207.667 552.824 208.384C552.828 209.13 552.211 209.626 551.328 209.626H550.573V210.818H551.328C552.407 210.818 553.048 211.36 553.044 212.131C553.048 212.885 552.395 213.401 551.482 213.401C550.624 213.401 549.961 212.955 549.923 212.26H548.357C548.399 213.701 549.686 214.697 551.486 214.697Z" fill="white"/>
<path opacity="0.01" fill-rule="evenodd" clip-rule="evenodd" d="M561.527 200.331H581.642V220.448H561.527V200.331Z" fill="#FF0000" fill-opacity="0.1"/>
<path d="M574.941 206.198H568.237C567.774 206.198 567.398 206.574 567.398 207.036V213.742C567.398 214.205 567.774 214.58 568.237 214.58H574.941C575.404 214.58 575.779 214.205 575.779 213.742V207.036C575.779 206.574 575.404 206.198 574.941 206.198Z" fill="white"/>
<path fill-rule="evenodd" clip-rule="evenodd" d="M605.114 208.713C604.192 208.713 603.438 209.467 603.438 210.389C603.438 211.311 604.192 212.066 605.114 212.066C606.036 212.066 606.79 211.311 606.79 210.389C606.79 209.467 606.036 208.713 605.114 208.713ZM615.171 208.713C614.249 208.713 613.495 209.467 613.495 210.389C613.495 211.311 614.249 212.066 615.171 212.066C616.093 212.066 616.847 211.311 616.847 210.389C616.847 209.467 616.093 208.713 615.171 208.713ZM608.466 210.389C608.466 209.467 609.22 208.713 610.142 208.713C611.064 208.713 611.818 209.467 611.818 210.389C611.818 211.311 611.064 212.066 610.142 212.066C609.22 212.066 608.466 211.311 608.466 210.389Z" fill="#BABDD8"/>
<path d="M83.8125 196.644C83.8125 194.977 85.1635 193.626 86.8296 193.626H110.967C112.633 193.626 113.984 194.977 113.984 196.644V220.784C113.984 222.45 112.633 223.801 110.967 223.801H86.8296C85.1635 223.801 83.8125 222.45 83.8125 220.784V196.644Z" fill="#21D191"/>
<path d="M83.8125 196.979C83.8125 195.127 85.3135 193.626 87.1649 193.626H110.632C112.483 193.626 113.984 195.127 113.984 196.979V220.448C113.984 222.3 112.483 223.801 110.632 223.801H87.1649C85.3135 223.801 83.8125 222.3 83.8125 220.448V196.979Z" fill="#21D191"/>
<path d="M103.298 208.714C105.728 208.714 107.698 206.744 107.698 204.314C107.698 201.883 105.728 199.913 103.298 199.913C100.868 199.913 98.8984 201.883 98.8984 204.314C98.8984 206.744 100.868 208.714 103.298 208.714Z" fill="#FBFFD0"/>
<path d="M103.298 217.514C105.728 217.514 107.698 215.544 107.698 213.113C107.698 210.683 105.728 208.713 103.298 208.713C100.868 208.713 98.8984 210.683 98.8984 213.113C98.8984 215.544 100.868 217.514 103.298 217.514Z" fill="#8CEAB7"/>
<path d="M94.4938 217.514C96.9238 217.514 98.8938 215.544 98.8938 213.113C98.8938 210.683 96.9238 208.713 94.4938 208.713C92.0637 208.713 90.0938 210.683 90.0938 213.113C90.0938 215.544 92.0637 217.514 94.4938 217.514Z" fill="#FBFFD0"/>
<path d="M94.4938 208.714C96.9238 208.714 98.8938 206.744 98.8938 204.314C98.8938 201.883 96.9238 199.913 94.4938 199.913C92.0637 199.913 90.0938 201.883 90.0938 204.314C90.0938 206.744 92.0637 208.714 94.4938 208.714Z" fill="#8CEAB7"/>
<path d="M121.531 195.987V204.521H123.015V198.645H123.094L125.453 204.496H126.561L128.919 198.658H128.998V204.521H130.481V195.987H128.59L126.056 202.171H125.956L123.423 195.987H121.531ZM133.94 204.65C134.944 204.65 135.544 204.179 135.819 203.642H135.869V204.521H137.319V200.237C137.319 198.546 135.94 198.037 134.719 198.037C133.374 198.037 132.34 198.637 132.007 199.804L133.415 200.004C133.565 199.567 133.99 199.191 134.727 199.191C135.428 199.191 135.811 199.55 135.811 200.179V200.204C135.811 200.637 135.356 200.658 134.228 200.779C132.985 200.913 131.798 201.283 131.798 202.725C131.798 203.984 132.719 204.65 133.94 204.65ZM134.331 203.542C133.702 203.542 133.252 203.255 133.252 202.7C133.252 202.121 133.757 201.879 134.431 201.784C134.828 201.729 135.619 201.629 135.815 201.471V202.225C135.815 202.938 135.24 203.542 134.331 203.542ZM138.835 204.521H140.344V200.758C140.344 199.945 140.957 199.37 141.786 199.37C142.039 199.37 142.356 199.417 142.485 199.458V198.07C142.348 198.045 142.111 198.028 141.944 198.028C141.211 198.028 140.598 198.445 140.365 199.187H140.298V198.121H138.835V204.521ZM143.488 204.521H144.996V202.371L145.546 201.784L147.505 204.521H149.308L146.683 200.883L149.162 198.121H147.4L145.1 200.691H144.996V195.987H143.488V204.521ZM152.738 204.646C154.23 204.646 155.255 203.917 155.521 202.805L154.113 202.646C153.909 203.188 153.408 203.471 152.759 203.471C151.783 203.471 151.138 202.83 151.125 201.733H155.584V201.271C155.584 199.024 154.234 198.037 152.659 198.037C150.825 198.037 149.629 199.383 149.629 201.359C149.629 203.367 150.808 204.646 152.738 204.646ZM151.129 200.717C151.176 199.9 151.78 199.212 152.679 199.212C153.546 199.212 154.13 199.846 154.137 200.717H151.129ZM160.055 198.121H158.793V196.587H157.284V198.121H156.376V199.287H157.284V202.846C157.276 204.05 158.151 204.642 159.285 204.608C159.714 204.596 160.01 204.513 160.172 204.458L159.918 203.279C159.835 203.3 159.664 203.338 159.476 203.338C159.097 203.338 158.793 203.204 158.793 202.596V199.287H160.055V198.121ZM161.316 204.521H162.825V198.121H161.316V204.521ZM162.075 197.212C162.554 197.212 162.946 196.845 162.946 196.395C162.946 195.941 162.554 195.574 162.075 195.574C161.592 195.574 161.2 195.941 161.2 196.395C161.2 196.845 161.592 197.212 162.075 197.212ZM165.885 200.771C165.885 199.846 166.443 199.313 167.238 199.313C168.018 199.313 168.485 199.825 168.485 200.679V204.521H169.993V200.446C169.997 198.912 169.122 198.037 167.802 198.037C166.843 198.037 166.185 198.495 165.893 199.208H165.818V198.121H164.376V204.521H165.885V200.771ZM174.309 207.055C176.038 207.055 177.314 206.263 177.314 204.625V198.121H175.826V199.178H175.743C175.514 198.717 175.034 198.037 173.906 198.037C172.426 198.037 171.264 199.195 171.264 201.3C171.264 203.388 172.426 204.43 173.901 204.43C174.997 204.43 175.51 203.842 175.743 203.371H175.818V204.584C175.818 205.525 175.193 205.913 174.335 205.913C173.426 205.913 173.026 205.483 172.843 205.109L171.484 205.438C171.76 206.334 172.68 207.055 174.309 207.055ZM174.322 203.246C173.326 203.246 172.801 202.471 172.801 201.292C172.801 200.129 173.318 199.275 174.322 199.275C175.293 199.275 175.826 200.079 175.826 201.292C175.826 202.513 175.285 203.246 174.322 203.246Z" fill="#111111"/>
<path d="M121.727 222.123H124.81C126.826 222.123 127.659 221.14 127.659 219.856C127.659 218.507 126.727 217.773 125.943 217.723V217.64C126.676 217.44 127.327 216.956 127.327 215.856C127.327 214.606 126.493 213.589 124.71 213.589H121.727V222.123ZM122.76 221.206V218.239H124.86C125.977 218.239 126.676 218.989 126.676 219.856C126.676 220.606 126.16 221.206 124.81 221.206H122.76ZM122.76 217.34V214.506H124.71C125.843 214.506 126.343 215.106 126.343 215.856C126.343 216.756 125.609 217.34 124.677 217.34H122.76ZM133.258 219.507C133.258 220.707 132.341 221.257 131.608 221.257C130.791 221.257 130.208 220.657 130.208 219.723V215.723H129.224V219.79C129.224 221.423 130.091 222.206 131.291 222.206C132.258 222.206 132.891 221.69 133.191 221.04H133.258V222.123H134.241V215.723H133.258V219.507ZM140.575 217.156C140.267 216.248 139.575 215.639 138.309 215.639C136.959 215.639 135.959 216.406 135.959 217.49C135.959 218.373 136.484 218.965 137.659 219.24L138.726 219.49C139.371 219.64 139.675 219.948 139.675 220.39C139.675 220.94 139.092 221.39 138.176 221.39C137.371 221.39 136.867 221.044 136.692 220.356L135.759 220.589C135.988 221.677 136.884 222.257 138.192 222.257C139.679 222.257 140.692 221.444 140.692 220.34C140.692 219.448 140.134 218.885 138.992 218.606L138.042 218.373C137.284 218.186 136.942 217.932 136.942 217.44C136.942 216.89 137.525 216.489 138.309 216.489C139.167 216.489 139.521 216.964 139.692 217.406L140.575 217.156ZM142.173 222.123H143.156V215.723H142.173V222.123ZM142.672 214.656C143.056 214.656 143.372 214.356 143.372 213.989C143.372 213.622 143.056 213.322 142.672 213.322C142.289 213.322 141.972 213.622 141.972 213.989C141.972 214.356 142.289 214.656 142.672 214.656ZM145.94 218.273C145.94 217.156 146.631 216.523 147.573 216.523C148.486 216.523 149.04 217.118 149.04 218.123V222.123H150.023V218.056C150.023 216.423 149.152 215.639 147.857 215.639C146.89 215.639 146.29 216.072 145.99 216.723H145.906V215.723H144.957V222.123H145.94V218.273ZM154.504 222.257C155.804 222.257 156.754 221.607 157.054 220.64L156.104 220.373C155.854 221.04 155.275 221.373 154.504 221.373C153.35 221.373 152.553 220.627 152.508 219.257H157.154V218.839C157.154 216.456 155.737 215.639 154.404 215.639C152.67 215.639 151.52 217.006 151.52 218.973C151.52 220.94 152.654 222.257 154.504 222.257ZM152.508 218.406C152.574 217.41 153.278 216.523 154.404 216.523C155.47 216.523 156.154 217.323 156.154 218.406H152.508ZM163.183 217.156C162.875 216.248 162.183 215.639 160.916 215.639C159.566 215.639 158.566 216.406 158.566 217.49C158.566 218.373 159.091 218.965 160.266 219.24L161.332 219.49C161.979 219.64 162.283 219.948 162.283 220.39C162.283 220.94 161.7 221.39 160.783 221.39C159.979 221.39 159.474 221.044 159.299 220.356L158.366 220.589C158.595 221.677 159.491 222.257 160.799 222.257C162.287 222.257 163.299 221.444 163.299 220.34C163.299 219.448 162.741 218.885 161.6 218.606L160.649 218.373C159.891 218.186 159.55 217.932 159.55 217.44C159.55 216.89 160.133 216.489 160.916 216.489C161.774 216.489 162.129 216.964 162.3 217.406L163.183 217.156ZM169.313 217.156C169.004 216.248 168.313 215.639 167.047 215.639C165.696 215.639 164.697 216.406 164.697 217.49C164.697 218.373 165.221 218.965 166.396 219.24L167.463 219.49C168.108 219.64 168.413 219.948 168.413 220.39C168.413 220.94 167.829 221.39 166.913 221.39C166.109 221.39 165.605 221.044 165.43 220.356L164.496 220.589C164.726 221.677 165.621 222.257 166.93 222.257C168.417 222.257 169.429 221.444 169.429 220.34C169.429 219.448 168.871 218.885 167.73 218.606L166.78 218.373C166.022 218.186 165.68 217.932 165.68 217.44C165.68 216.89 166.263 216.489 167.047 216.489C167.905 216.489 168.258 216.964 168.429 217.406L169.313 217.156ZM171.627 222.19C172.039 222.19 172.377 221.853 172.377 221.44C172.377 221.027 172.039 220.69 171.627 220.69C171.214 220.69 170.877 221.027 170.877 221.44C170.877 221.853 171.214 222.19 171.627 222.19ZM171.627 217.44C172.039 217.44 172.377 217.102 172.377 216.689C172.377 216.277 172.039 215.939 171.627 215.939C171.214 215.939 170.877 216.277 170.877 216.689C170.877 217.102 171.214 217.44 171.627 217.44ZM184.441 216.256C184.124 214.506 182.725 213.472 181.008 213.472C178.824 213.472 177.241 215.156 177.241 217.856C177.241 220.557 178.824 222.24 181.008 222.24C182.725 222.24 184.124 221.206 184.441 219.456H183.408C183.158 220.64 182.142 221.273 181.008 221.273C179.458 221.273 178.241 220.073 178.241 217.856C178.241 215.639 179.458 214.439 181.008 214.439C182.142 214.439 183.158 215.072 183.408 216.256H184.441ZM188.577 222.257C190.311 222.257 191.478 220.94 191.478 218.957C191.478 216.956 190.311 215.639 188.577 215.639C186.844 215.639 185.677 216.956 185.677 218.957C185.677 220.94 186.844 222.257 188.577 222.257ZM188.577 221.373C187.261 221.373 186.661 220.24 186.661 218.957C186.661 217.673 187.261 216.523 188.577 216.523C189.894 216.523 190.494 217.673 190.494 218.957C190.494 220.24 189.894 221.373 188.577 221.373ZM193.962 218.273C193.962 217.156 194.653 216.523 195.595 216.523C196.508 216.523 197.062 217.118 197.062 218.123V222.123H198.045V218.056C198.045 216.423 197.174 215.639 195.879 215.639C194.912 215.639 194.312 216.072 194.012 216.723H193.928V215.723H192.979V222.123H193.962V218.273ZM202.625 215.723H201.258V214.189H200.275V215.723H199.309V216.556H200.275V220.557C200.275 221.673 201.175 222.206 202.009 222.206C202.376 222.206 202.609 222.14 202.742 222.09L202.542 221.206C202.459 221.223 202.325 221.257 202.109 221.257C201.676 221.257 201.258 221.123 201.258 220.289V216.556H202.625V215.723ZM206.719 222.257C208.019 222.257 208.969 221.607 209.269 220.64L208.319 220.373C208.07 221.04 207.49 221.373 206.719 221.373C205.565 221.373 204.769 220.627 204.723 219.257H209.37V218.839C209.37 216.456 207.952 215.639 206.619 215.639C204.886 215.639 203.736 217.006 203.736 218.973C203.736 220.94 204.869 222.257 206.719 222.257ZM204.723 218.406C204.79 217.41 205.494 216.523 206.619 216.523C207.686 216.523 208.369 217.323 208.369 218.406H204.723ZM211.849 218.273C211.849 217.156 212.54 216.523 213.482 216.523C214.394 216.523 214.949 217.118 214.949 218.123V222.123H215.932V218.056C215.932 216.423 215.061 215.639 213.765 215.639C212.798 215.639 212.198 216.072 211.898 216.723H211.815V215.723H210.865V222.123H211.849V218.273ZM220.512 215.723H219.145V214.189H218.162V215.723H217.196V216.556H218.162V220.557C218.162 221.673 219.062 222.206 219.895 222.206C220.262 222.206 220.495 222.14 220.629 222.09L220.428 221.206C220.345 221.223 220.212 221.257 219.995 221.257C219.562 221.257 219.145 221.123 219.145 220.289V216.556H220.512V215.723Z" fill="#7F82A4"/>
<path d="M123.623 246.54C124.635 246.54 125.457 245.719 125.457 244.706C125.457 243.694 124.635 242.873 123.623 242.873C122.61 242.873 121.789 243.694 121.789 244.706C121.789 245.719 122.61 246.54 123.623 246.54ZM140.323 242.239C140.006 240.489 138.606 239.456 136.89 239.456C134.706 239.456 133.123 241.14 133.123 243.839C133.123 246.54 134.706 248.223 136.89 248.223C138.606 248.223 140.006 247.19 140.323 245.44H139.289C139.04 246.623 138.023 247.257 136.89 247.257C135.339 247.257 134.122 246.057 134.122 243.839C134.122 241.622 135.339 240.422 136.89 240.422C138.023 240.422 139.04 241.056 139.289 242.239H140.323ZM145.893 245.49C145.893 246.69 144.976 247.24 144.242 247.24C143.426 247.24 142.843 246.64 142.843 245.706V241.706H141.859V245.773C141.859 247.407 142.726 248.19 143.926 248.19C144.893 248.19 145.526 247.673 145.826 247.023H145.893V248.107H146.876V241.706H145.893V245.49ZM153.21 243.14C152.902 242.231 152.21 241.622 150.944 241.622C149.594 241.622 148.594 242.389 148.594 243.473C148.594 244.357 149.119 244.948 150.294 245.223L151.36 245.473C152.006 245.623 152.31 245.932 152.31 246.373C152.31 246.923 151.727 247.373 150.811 247.373C150.006 247.373 149.502 247.027 149.327 246.34L148.394 246.573C148.623 247.661 149.518 248.24 150.827 248.24C152.314 248.24 153.327 247.428 153.327 246.323C153.327 245.431 152.768 244.869 151.627 244.59L150.677 244.357C149.919 244.169 149.577 243.915 149.577 243.423C149.577 242.873 150.16 242.472 150.944 242.472C151.802 242.472 152.156 242.948 152.327 243.389L153.21 243.14ZM157.591 241.706H156.224V240.172H155.241V241.706H154.274V242.539H155.241V246.54C155.241 247.657 156.141 248.19 156.974 248.19C157.34 248.19 157.574 248.124 157.707 248.073L157.507 247.19C157.424 247.207 157.291 247.24 157.074 247.24C156.64 247.24 156.224 247.107 156.224 246.273V242.539H157.591V241.706ZM161.601 248.24C163.334 248.24 164.501 246.923 164.501 244.94C164.501 242.939 163.334 241.622 161.601 241.622C159.868 241.622 158.701 242.939 158.701 244.94C158.701 246.923 159.868 248.24 161.601 248.24ZM161.601 247.357C160.284 247.357 159.684 246.223 159.684 244.94C159.684 243.656 160.284 242.506 161.601 242.506C162.918 242.506 163.518 243.656 163.518 244.94C163.518 246.223 162.918 247.357 161.601 247.357ZM166.002 248.107H166.985V244.106C166.985 243.169 167.669 242.506 168.435 242.506C169.181 242.506 169.702 242.994 169.702 243.723V248.107H170.702V243.939C170.702 243.114 171.218 242.506 172.118 242.506C172.819 242.506 173.418 242.877 173.418 243.823V248.107H174.402V243.823C174.402 242.318 173.593 241.622 172.452 241.622C171.535 241.622 170.865 242.043 170.535 242.706H170.469C170.152 242.022 169.594 241.622 168.752 241.622C167.919 241.622 167.302 242.022 167.035 242.706H166.952V241.706H166.002V248.107ZM178.883 248.24C180.183 248.24 181.133 247.59 181.433 246.623L180.483 246.357C180.234 247.023 179.654 247.357 178.883 247.357C177.729 247.357 176.933 246.611 176.887 245.24H181.534V244.823C181.534 242.44 180.116 241.622 178.783 241.622C177.05 241.622 175.9 242.99 175.9 244.956C175.9 246.923 177.033 248.24 178.883 248.24ZM176.887 244.389C176.954 243.394 177.658 242.506 178.783 242.506C179.85 242.506 180.533 243.306 180.533 244.389H176.887ZM183.029 248.107H184.013V244.057C184.013 243.19 184.696 242.556 185.629 242.556C185.892 242.556 186.162 242.607 186.229 242.622V241.622C186.116 241.614 185.858 241.606 185.712 241.606C184.945 241.606 184.279 242.039 184.046 242.673H183.979V241.706H183.029V248.107ZM195.228 243.14C194.92 242.231 194.228 241.622 192.961 241.622C191.612 241.622 190.612 242.389 190.612 243.473C190.612 244.357 191.136 244.948 192.311 245.223L193.378 245.473C194.024 245.623 194.328 245.932 194.328 246.373C194.328 246.923 193.745 247.373 192.828 247.373C192.024 247.373 191.519 247.027 191.345 246.34L190.411 246.573C190.64 247.661 191.536 248.24 192.844 248.24C194.332 248.24 195.344 247.428 195.344 246.323C195.344 245.431 194.786 244.869 193.645 244.59L192.694 244.357C191.936 244.169 191.595 243.915 191.595 243.423C191.595 242.873 192.178 242.472 192.961 242.472C193.82 242.472 194.174 242.948 194.345 243.389L195.228 243.14ZM200.858 245.49C200.858 246.69 199.941 247.24 199.208 247.24C198.392 247.24 197.808 246.64 197.808 245.706V241.706H196.825V245.773C196.825 247.407 197.691 248.19 198.891 248.19C199.858 248.19 200.491 247.673 200.791 247.023H200.858V248.107H201.841V241.706H200.858V245.49ZM206.242 248.24C207.659 248.24 208.592 247.373 208.759 246.24H207.776C207.592 246.94 207.009 247.357 206.242 247.357C205.076 247.357 204.326 246.39 204.326 244.907C204.326 243.456 205.092 242.506 206.242 242.506C207.11 242.506 207.626 243.04 207.776 243.623H208.759C208.592 242.423 207.576 241.622 206.226 241.622C204.492 241.622 203.342 242.99 203.342 244.94C203.342 246.857 204.443 248.24 206.242 248.24ZM212.797 248.24C214.213 248.24 215.147 247.373 215.314 246.24H214.33C214.147 246.94 213.564 247.357 212.797 247.357C211.63 247.357 210.88 246.39 210.88 244.907C210.88 243.456 211.647 242.506 212.797 242.506C213.664 242.506 214.18 243.04 214.33 243.623H215.314C215.147 242.423 214.13 241.622 212.78 241.622C211.047 241.622 209.897 242.99 209.897 244.94C209.897 246.857 210.997 248.24 212.797 248.24ZM219.434 248.24C220.735 248.24 221.684 247.59 221.984 246.623L221.035 246.357C220.784 247.023 220.205 247.357 219.434 247.357C218.28 247.357 217.484 246.611 217.438 245.24H222.084V244.823C222.084 242.44 220.668 241.622 219.334 241.622C217.601 241.622 216.451 242.99 216.451 244.956C216.451 246.923 217.584 248.24 219.434 248.24ZM217.438 244.389C217.505 243.394 218.209 242.506 219.334 242.506C220.401 242.506 221.084 243.306 221.084 244.389H217.438ZM228.113 243.14C227.805 242.231 227.113 241.622 225.847 241.622C224.497 241.622 223.497 242.389 223.497 243.473C223.497 244.357 224.022 244.948 225.197 245.223L226.263 245.473C226.91 245.623 227.213 245.932 227.213 246.373C227.213 246.923 226.63 247.373 225.714 247.373C224.909 247.373 224.405 247.027 224.23 246.34L223.297 246.573C223.526 247.661 224.421 248.24 225.73 248.24C227.217 248.24 228.231 247.428 228.231 246.323C228.231 245.431 227.671 244.869 226.53 244.59L225.58 244.357C224.822 244.169 224.48 243.915 224.48 243.423C224.48 242.873 225.063 242.472 225.847 242.472C226.705 242.472 227.06 242.948 227.23 243.389L228.113 243.14ZM234.244 243.14C233.935 242.231 233.244 241.622 231.977 241.622C230.627 241.622 229.627 242.389 229.627 243.473C229.627 244.357 230.152 244.948 231.327 245.223L232.393 245.473C233.039 245.623 233.344 245.932 233.344 246.373C233.344 246.923 232.76 247.373 231.844 247.373C231.04 247.373 230.535 247.027 230.36 246.34L229.427 246.573C229.656 247.661 230.552 248.24 231.86 248.24C233.348 248.24 234.36 247.428 234.36 246.323C234.36 245.431 233.802 244.869 232.661 244.59L231.71 244.357C230.952 244.169 230.611 243.915 230.611 243.423C230.611 242.873 231.194 242.472 231.977 242.472C232.835 242.472 233.19 242.948 233.361 243.389L234.244 243.14ZM242.808 243.99H239.074V244.907H242.808V243.99ZM247.838 248.107H248.821V241.706H247.838V248.107ZM248.337 240.639C248.721 240.639 249.037 240.339 249.037 239.972C249.037 239.606 248.721 239.306 248.337 239.306C247.954 239.306 247.637 239.606 247.637 239.972C247.637 240.339 247.954 240.639 248.337 240.639ZM251.605 244.256C251.605 243.14 252.296 242.506 253.238 242.506C254.151 242.506 254.705 243.102 254.705 244.106V248.107H255.688V244.04C255.688 242.406 254.817 241.622 253.522 241.622C252.555 241.622 251.955 242.056 251.655 242.706H251.571V241.706H250.622V248.107H251.605V244.256ZM260.268 241.706H258.902V240.172H257.918V241.706H256.952V242.539H257.918V246.54C257.918 247.657 258.818 248.19 259.652 248.19C260.019 248.19 260.252 248.124 260.386 248.073L260.185 247.19C260.102 247.207 259.968 247.24 259.752 247.24C259.319 247.24 258.902 247.107 258.902 246.273V242.539H260.268V241.706ZM264.362 248.24C265.662 248.24 266.613 247.59 266.913 246.623L265.962 246.357C265.713 247.023 265.134 247.357 264.362 247.357C263.208 247.357 262.412 246.611 262.367 245.24H267.013V244.823C267.013 242.44 265.596 241.622 264.263 241.622C262.529 241.622 261.379 242.99 261.379 244.956C261.379 246.923 262.513 248.24 264.362 248.24ZM262.367 244.389C262.433 243.394 263.137 242.506 264.263 242.506C265.329 242.506 266.013 243.306 266.013 244.389H262.367ZM268.509 248.107H269.492V244.057C269.492 243.19 270.175 242.556 271.108 242.556C271.371 242.556 271.641 242.607 271.708 242.622V241.622C271.596 241.614 271.337 241.606 271.191 241.606C270.425 241.606 269.758 242.039 269.525 242.673H269.458V241.706H268.509V248.107ZM278.302 241.706H277.236L275.469 246.807H275.402L273.635 241.706H272.568L274.935 248.107H275.936L278.302 241.706ZM279.6 248.107H280.583V241.706H279.6V248.107ZM280.1 240.639C280.483 240.639 280.8 240.339 280.8 239.972C280.8 239.606 280.483 239.306 280.1 239.306C279.716 239.306 279.4 239.606 279.4 239.972C279.4 240.339 279.716 240.639 280.1 240.639ZM285.068 248.24C286.368 248.24 287.318 247.59 287.618 246.623L286.668 246.357C286.418 247.023 285.839 247.357 285.068 247.357C283.914 247.357 283.117 246.611 283.072 245.24H287.718V244.823C287.718 242.44 286.301 241.622 284.968 241.622C283.234 241.622 282.084 242.99 282.084 244.956C282.084 246.923 283.218 248.24 285.068 248.24ZM283.072 244.389C283.138 243.394 283.842 242.506 284.968 242.506C286.034 242.506 286.718 243.306 286.718 244.389H283.072ZM290.664 248.107H291.63L293.03 243.19H293.13L294.53 248.107H295.497L297.447 241.706H296.414L295.03 246.59H294.964L293.614 241.706H292.564L291.197 246.606H291.13L289.747 241.706H288.713L290.664 248.107ZM307.397 250.507V241.706H306.447V242.723H306.33C306.113 242.389 305.73 241.622 304.48 241.622C302.864 241.622 301.747 242.906 301.747 244.923C301.747 246.957 302.864 248.24 304.464 248.24C305.697 248.24 306.113 247.473 306.33 247.124H306.413V250.507H307.397ZM306.43 244.907C306.43 246.357 305.78 247.357 304.597 247.357C303.363 247.357 302.73 246.273 302.73 244.907C302.73 243.556 303.346 242.506 304.597 242.506C305.797 242.506 306.43 243.473 306.43 244.907ZM313.23 245.49C313.23 246.69 312.313 247.24 311.58 247.24C310.764 247.24 310.18 246.64 310.18 245.706V241.706H309.196V245.773C309.196 247.407 310.064 248.19 311.263 248.19C312.23 248.19 312.863 247.673 313.163 247.023H313.23V248.107H314.213V241.706H313.23V245.49ZM318.698 248.24C319.998 248.24 320.948 247.59 321.248 246.623L320.298 246.357C320.048 247.023 319.469 247.357 318.698 247.357C317.544 247.357 316.748 246.611 316.702 245.24H321.348V244.823C321.348 242.44 319.932 241.622 318.598 241.622C316.864 241.622 315.714 242.99 315.714 244.956C315.714 246.923 316.848 248.24 318.698 248.24ZM316.702 244.389C316.769 243.394 317.473 242.506 318.598 242.506C319.664 242.506 320.348 243.306 320.348 244.389H316.702ZM327.377 243.14C327.069 242.231 326.377 241.622 325.11 241.622C323.76 241.622 322.76 242.389 322.76 243.473C322.76 244.357 323.286 244.948 324.461 245.223L325.527 245.473C326.173 245.623 326.477 245.932 326.477 246.373C326.477 246.923 325.894 247.373 324.977 247.373C324.173 247.373 323.669 247.027 323.493 246.34L322.561 246.573C322.789 247.661 323.685 248.24 324.994 248.24C326.481 248.24 327.494 247.428 327.494 246.323C327.494 245.431 326.936 244.869 325.794 244.59L324.844 244.357C324.085 244.169 323.744 243.915 323.744 243.423C323.744 242.873 324.327 242.472 325.11 242.472C325.968 242.472 326.323 242.948 326.494 243.389L327.377 243.14ZM331.757 241.706H330.39V240.172H329.407V241.706H328.441V242.539H329.407V246.54C329.407 247.657 330.307 248.19 331.14 248.19C331.507 248.19 331.74 248.124 331.874 248.073L331.674 247.19C331.59 247.207 331.457 247.24 331.241 247.24C330.808 247.24 330.39 247.107 330.39 246.273V242.539H331.757V241.706ZM333.236 248.107H334.219V241.706H333.236V248.107ZM333.737 240.639C334.12 240.639 334.436 240.339 334.436 239.972C334.436 239.606 334.12 239.306 333.737 239.306C333.353 239.306 333.036 239.606 333.036 239.972C333.036 240.339 333.353 240.639 333.737 240.639ZM338.621 248.24C340.354 248.24 341.521 246.923 341.521 244.94C341.521 242.939 340.354 241.622 338.621 241.622C336.887 241.622 335.72 242.939 335.72 244.94C335.72 246.923 336.887 248.24 338.621 248.24ZM338.621 247.357C337.304 247.357 336.704 246.223 336.704 244.94C336.704 243.656 337.304 242.506 338.621 242.506C339.938 242.506 340.538 243.656 340.538 244.94C340.538 246.223 339.938 247.357 338.621 247.357ZM344.005 244.256C344.005 243.14 344.696 242.506 345.638 242.506C346.551 242.506 347.105 243.102 347.105 244.106V248.107H348.088V244.04C348.088 242.406 347.217 241.622 345.922 241.622C344.955 241.622 344.355 242.056 344.055 242.706H343.971V241.706H343.022V248.107H344.005V244.256ZM354.418 243.14C354.11 242.231 353.418 241.622 352.152 241.622C350.802 241.622 349.802 242.389 349.802 243.473C349.802 244.357 350.327 244.948 351.502 245.223L352.569 245.473C353.215 245.623 353.519 245.932 353.519 246.373C353.519 246.923 352.936 247.373 352.019 247.373C351.214 247.373 350.711 247.027 350.535 246.34L349.602 246.573C349.831 247.661 350.727 248.24 352.036 248.24C353.522 248.24 354.536 247.428 354.536 246.323C354.536 245.431 353.977 244.869 352.835 244.59L351.886 244.357C351.127 244.169 350.785 243.915 350.785 243.423C350.785 242.873 351.368 242.472 352.152 242.472C353.01 242.472 353.365 242.948 353.535 243.389L354.418 243.14ZM123.623 263.304C124.635 263.304 125.457 262.483 125.457 261.47C125.457 260.458 124.635 259.637 123.623 259.637C122.61 259.637 121.789 260.458 121.789 261.47C121.789 262.483 122.61 263.304 123.623 263.304ZM140.323 259.003C140.006 257.253 138.606 256.22 136.89 256.22C134.706 256.22 133.123 257.904 133.123 260.604C133.123 263.304 134.706 264.987 136.89 264.987C138.606 264.987 140.006 263.954 140.323 262.204H139.289C139.04 263.387 138.023 264.021 136.89 264.021C135.339 264.021 134.122 262.821 134.122 260.604C134.122 258.386 135.339 257.186 136.89 257.186C138.023 257.186 139.04 257.82 139.289 259.003H140.323ZM141.859 264.871H142.843V260.821C142.843 259.954 143.526 259.32 144.46 259.32C144.722 259.32 144.993 259.371 145.06 259.386V258.387C144.946 258.378 144.688 258.37 144.543 258.37C143.776 258.37 143.109 258.803 142.876 259.437H142.809V258.47H141.859V264.871ZM148.714 265.004C150.014 265.004 150.963 264.355 151.263 263.387L150.314 263.121C150.063 263.787 149.484 264.121 148.714 264.121C147.56 264.121 146.763 263.375 146.717 262.004H151.364V261.587C151.364 259.204 149.947 258.387 148.613 258.387C146.88 258.387 145.73 259.754 145.73 261.72C145.73 263.687 146.863 265.004 148.714 265.004ZM146.717 261.153C146.784 260.158 147.488 259.27 148.613 259.27C149.68 259.27 150.363 260.07 150.363 261.153H146.717ZM154.743 265.021C155.859 265.021 156.443 264.421 156.643 264.004H156.692V264.871H157.676V260.654C157.676 258.62 156.126 258.387 155.31 258.387C154.342 258.387 153.243 258.72 152.742 259.887L153.676 260.22C153.892 259.754 154.405 259.253 155.342 259.253C156.247 259.253 156.692 259.733 156.692 260.553V260.587C156.692 261.062 156.21 261.02 155.043 261.17C153.855 261.324 152.559 261.587 152.559 263.054C152.559 264.304 153.526 265.021 154.743 265.021ZM154.893 264.137C154.109 264.137 153.543 263.787 153.543 263.104C153.543 262.354 154.226 262.121 154.993 262.02C155.409 261.971 156.526 261.854 156.692 261.654V262.554C156.692 263.354 156.06 264.137 154.893 264.137ZM162.254 258.47H160.887V256.936H159.904V258.47H158.938V259.303H159.904V263.304C159.904 264.421 160.804 264.954 161.637 264.954C162.004 264.954 162.237 264.888 162.37 264.837L162.171 263.954C162.087 263.971 161.954 264.004 161.738 264.004C161.304 264.004 160.887 263.871 160.887 263.037V259.303H162.254V258.47ZM163.733 264.871H164.716V258.47H163.733V264.871ZM164.234 257.403C164.617 257.403 164.933 257.103 164.933 256.736C164.933 256.37 164.617 256.07 164.234 256.07C163.85 256.07 163.533 256.37 163.533 256.736C163.533 257.103 163.85 257.403 164.234 257.403ZM171.751 258.47H170.684L168.918 263.571H168.851L167.084 258.47H166.018L168.385 264.871H169.384L171.751 258.47ZM175.503 265.004C176.803 265.004 177.753 264.355 178.053 263.387L177.103 263.121C176.853 263.787 176.274 264.121 175.503 264.121C174.349 264.121 173.553 263.375 173.507 262.004H178.153V261.587C178.153 259.204 176.736 258.387 175.403 258.387C173.67 258.387 172.52 259.754 172.52 261.72C172.52 263.687 173.653 265.004 175.503 265.004ZM173.507 261.153C173.574 260.158 174.278 259.27 175.403 259.27C176.47 259.27 177.153 260.07 177.153 261.153H173.507ZM183.082 264.871H184.032V263.888H184.149C184.365 264.237 184.782 265.004 186.016 265.004C187.616 265.004 188.732 263.721 188.732 261.687C188.732 259.67 187.616 258.387 185.999 258.387C184.748 258.387 184.365 259.153 184.149 259.487H184.065V256.336H183.082V264.871ZM184.049 261.671C184.049 260.237 184.682 259.27 185.882 259.27C187.132 259.27 187.749 260.32 187.749 261.671C187.749 263.037 187.115 264.121 185.882 264.121C184.699 264.121 184.049 263.121 184.049 261.671ZM190.236 264.871H191.219V260.821C191.219 259.954 191.903 259.32 192.836 259.32C193.099 259.32 193.37 259.371 193.436 259.386V258.387C193.324 258.378 193.066 258.37 192.92 258.37C192.153 258.37 191.487 258.803 191.253 259.437H191.187V258.47H190.236V264.871ZM194.602 264.871H195.585V258.47H194.602V264.871ZM195.102 257.403C195.485 257.403 195.802 257.103 195.802 256.736C195.802 256.37 195.485 256.07 195.102 256.07C194.718 256.07 194.402 256.37 194.402 256.736C194.402 257.103 194.718 257.403 195.102 257.403ZM200.07 265.004C201.37 265.004 202.32 264.355 202.62 263.387L201.67 263.121C201.42 263.787 200.841 264.121 200.07 264.121C198.916 264.121 198.119 263.375 198.074 262.004H202.72V261.587C202.72 259.204 201.303 258.387 199.97 258.387C198.237 258.387 197.086 259.754 197.086 261.72C197.086 263.687 198.22 265.004 200.07 265.004ZM198.074 261.153C198.14 260.158 198.844 259.27 199.97 259.27C201.036 259.27 201.72 260.07 201.72 261.153H198.074ZM207.065 258.47H205.632V257.82C205.632 257.186 205.899 256.853 206.549 256.853C206.832 256.853 206.999 256.92 207.099 256.953L207.382 256.103C207.232 256.036 206.932 255.936 206.449 255.936C205.532 255.936 204.649 256.486 204.649 257.587V258.47H203.616V259.303H204.649V264.871H205.632V259.303H207.065V258.47Z" fill="#111111"/>
<path fill-rule="evenodd" clip-rule="evenodd" d="M495.136 125.838C495.424 126.139 495.413 126.617 495.111 126.904L490.502 131.305C490.21 131.583 489.752 131.583 489.46 131.305L487.155 129.105C486.854 128.817 486.843 128.339 487.131 128.039C487.418 127.737 487.895 127.726 488.197 128.013L489.981 129.717L494.069 125.813C494.371 125.526 494.848 125.536 495.136 125.838Z" fill="#BABDD8"/>
<path fill-rule="evenodd" clip-rule="evenodd" d="M491.125 121.455C487.376 121.455 484.337 124.495 484.337 128.244C484.337 131.995 487.376 135.034 491.125 135.034C494.874 135.034 497.914 131.995 497.914 128.244C497.914 124.495 494.874 121.455 491.125 121.455ZM482.828 128.244C482.828 123.661 486.543 119.946 491.125 119.946C495.707 119.946 499.422 123.661 499.422 128.244C499.422 132.828 495.707 136.543 491.125 136.543C486.543 136.543 482.828 132.828 482.828 128.244Z" fill="#BABDD8"/>
<path d="M525.201 132.599C527.259 132.603 528.489 130.978 528.489 128.177C528.489 125.394 527.251 123.785 525.201 123.785C523.151 123.785 521.918 125.389 521.914 128.177C521.914 130.974 523.143 132.599 525.201 132.599ZM525.201 131.295C524.139 131.295 523.472 130.228 523.476 128.177C523.48 126.144 524.143 125.073 525.201 125.073C526.264 125.073 526.927 126.144 526.931 128.177C526.931 130.228 526.268 131.295 525.201 131.295ZM529.719 130.853H533.79V132.436H535.265V130.853H536.357V129.581H535.265V123.902H533.34L529.719 129.623V130.853ZM533.807 129.581H531.302V129.515L533.74 125.652H533.807V129.581ZM538.633 131.411C539.125 131.411 539.546 131.003 539.55 130.494C539.546 129.995 539.125 129.586 538.633 129.586C538.125 129.586 537.713 129.995 537.717 130.494C537.713 131.003 538.125 131.411 538.633 131.411ZM538.633 127.177C539.125 127.177 539.546 126.769 539.55 126.26C539.546 125.761 539.125 125.352 538.633 125.352C538.125 125.352 537.713 125.761 537.717 126.26C537.713 126.769 538.125 127.177 538.633 127.177ZM544.245 132.599C546.303 132.603 547.533 130.978 547.533 128.177C547.533 125.394 546.295 123.785 544.245 123.785C542.195 123.785 540.961 125.389 540.957 128.177C540.957 130.974 542.187 132.599 544.245 132.599ZM544.245 131.295C543.182 131.295 542.516 130.228 542.52 128.177C542.525 126.144 543.187 125.073 544.245 125.073C545.308 125.073 545.97 126.144 545.974 128.177C545.974 130.228 545.312 131.295 544.245 131.295ZM552.071 132.599C554.13 132.603 555.358 130.978 555.358 128.177C555.358 125.394 554.121 123.785 552.071 123.785C550.021 123.785 548.788 125.389 548.783 128.177C548.783 130.974 550.013 132.599 552.071 132.599ZM552.071 131.295C551.009 131.295 550.342 130.228 550.346 128.177C550.351 126.144 551.013 125.073 552.071 125.073C553.134 125.073 553.796 126.144 553.8 128.177C553.8 130.228 553.138 131.295 552.071 131.295Z" fill="#3C3F58"/>
<path opacity="0.01" fill-rule="evenodd" clip-rule="evenodd" d="M566.551 118.187H586.665V138.303H566.551V118.187Z" fill="#FF0000" fill-opacity="0.1"/>
<path fill-rule="evenodd" clip-rule="evenodd" d="M574.542 123.197C573.984 122.842 573.254 123.243 573.254 123.904V132.585C573.254 133.246 573.984 133.648 574.542 133.292L581.362 128.952C581.88 128.623 581.88 127.867 581.362 127.537L574.542 123.197Z" fill="#BABDD8"/>
<path fill-rule="evenodd" clip-rule="evenodd" d="M605.114 126.568C604.192 126.568 603.438 127.323 603.438 128.245C603.438 129.167 604.192 129.921 605.114 129.921C606.036 129.921 606.79 129.167 606.79 128.245C606.79 127.323 606.036 126.568 605.114 126.568ZM615.171 126.568C614.249 126.568 613.495 127.323 613.495 128.245C613.495 129.167 614.249 129.921 615.171 129.921C616.093 129.921 616.847 129.167 616.847 128.245C616.847 127.323 616.093 126.568 615.171 126.568ZM608.466 128.245C608.466 127.323 609.22 126.568 610.142 126.568C611.064 126.568 611.818 127.323 611.818 128.245C611.818 129.167 611.064 129.921 610.142 129.921C609.22 129.921 608.466 129.167 608.466 128.245Z" fill="#BABDD8"/>
<path d="M83.8125 110.308C83.8125 108.641 85.1635 107.29 86.8296 107.29H110.967C112.633 107.29 113.984 108.641 113.984 110.308V134.448C113.984 136.114 112.633 137.465 110.967 137.465H86.8296C85.1635 137.465 83.8125 136.114 83.8125 134.448V110.308Z" fill="#21D191"/>
<path d="M83.8125 110.643C83.8125 108.791 85.3135 107.29 87.1649 107.29H110.632C112.483 107.29 113.984 108.791 113.984 110.643V134.113C113.984 135.964 112.483 137.465 110.632 137.465H87.1649C85.3135 137.465 83.8125 135.964 83.8125 134.113V110.643Z" fill="#21D191"/>
<path d="M103.298 122.381C105.728 122.381 107.698 120.411 107.698 117.981C107.698 115.55 105.728 113.58 103.298 113.58C100.868 113.58 98.8984 115.55 98.8984 117.981C98.8984 120.411 100.868 122.381 103.298 122.381Z" fill="#FBFFD0"/>
<path d="M103.298 131.179C105.728 131.179 107.698 129.209 107.698 126.778C107.698 124.348 105.728 122.378 103.298 122.378C100.868 122.378 98.8984 124.348 98.8984 126.778C98.8984 129.209 100.868 131.179 103.298 131.179Z" fill="#8CEAB7"/>
<path d="M94.4938 131.181C96.9238 131.181 98.8938 129.211 98.8938 126.78C98.8938 124.35 96.9238 122.38 94.4938 122.38C92.0637 122.38 90.0938 124.35 90.0938 126.78C90.0938 129.211 92.0637 131.181 94.4938 131.181Z" fill="#FBFFD0"/>
<path d="M94.4938 122.381C96.9238 122.381 98.8938 120.411 98.8938 117.981C98.8938 115.55 96.9238 113.58 94.4938 113.58C92.0637 113.58 90.0938 115.55 90.0938 117.981C90.0938 120.411 92.0637 122.381 94.4938 122.381Z" fill="#8CEAB7"/>
<path d="M121.531 109.654V118.188H123.015V112.312H123.094L125.453 118.163H126.561L128.919 112.325H128.998V118.188H130.481V109.654H128.59L126.056 115.838H125.956L123.423 109.654H121.531ZM133.94 118.317C134.944 118.317 135.544 117.846 135.819 117.309H135.869V118.188H137.319V113.904C137.319 112.213 135.94 111.704 134.719 111.704C133.374 111.704 132.34 112.304 132.007 113.471L133.415 113.671C133.565 113.234 133.99 112.858 134.727 112.858C135.428 112.858 135.811 113.217 135.811 113.846V113.871C135.811 114.304 135.356 114.325 134.228 114.446C132.985 114.58 131.798 114.95 131.798 116.392C131.798 117.651 132.719 118.317 133.94 118.317ZM134.331 117.209C133.702 117.209 133.252 116.922 133.252 116.367C133.252 115.788 133.757 115.546 134.431 115.451C134.828 115.396 135.619 115.296 135.815 115.138V115.892C135.815 116.605 135.24 117.209 134.331 117.209ZM138.835 118.188H140.344V114.425C140.344 113.612 140.957 113.037 141.786 113.037C142.039 113.037 142.356 113.084 142.485 113.125V111.737C142.348 111.712 142.111 111.695 141.944 111.695C141.211 111.695 140.598 112.112 140.365 112.854H140.298V111.788H138.835V118.188ZM143.488 118.188H144.996V116.038L145.546 115.451L147.505 118.188H149.308L146.683 114.55L149.162 111.788H147.4L145.1 114.358H144.996V109.654H143.488V118.188ZM152.738 118.313C154.23 118.313 155.255 117.584 155.521 116.472L154.113 116.313C153.909 116.855 153.408 117.138 152.759 117.138C151.783 117.138 151.138 116.497 151.125 115.4H155.584V114.938C155.584 112.691 154.234 111.704 152.659 111.704C150.825 111.704 149.629 113.05 149.629 115.026C149.629 117.034 150.808 118.313 152.738 118.313ZM151.129 114.384C151.176 113.567 151.78 112.879 152.679 112.879C153.546 112.879 154.13 113.513 154.137 114.384H151.129ZM160.055 111.788H158.793V110.254H157.284V111.788H156.376V112.954H157.284V116.513C157.276 117.717 158.151 118.309 159.285 118.275C159.714 118.263 160.01 118.18 160.172 118.125L159.918 116.946C159.835 116.967 159.664 117.005 159.476 117.005C159.097 117.005 158.793 116.871 158.793 116.263V112.954H160.055V111.788ZM161.316 118.188H162.825V111.788H161.316V118.188ZM162.075 110.879C162.554 110.879 162.946 110.512 162.946 110.062C162.946 109.607 162.554 109.241 162.075 109.241C161.592 109.241 161.2 109.607 161.2 110.062C161.2 110.512 161.592 110.879 162.075 110.879ZM165.885 114.438C165.885 113.513 166.443 112.98 167.238 112.98C168.018 112.98 168.485 113.492 168.485 114.346V118.188H169.993V114.113C169.997 112.579 169.122 111.704 167.802 111.704C166.843 111.704 166.185 112.162 165.893 112.875H165.818V111.788H164.376V118.188H165.885V114.438ZM174.309 120.722C176.038 120.722 177.314 119.93 177.314 118.292V111.788H175.826V112.845H175.743C175.514 112.384 175.034 111.704 173.906 111.704C172.426 111.704 171.264 112.862 171.264 114.967C171.264 117.055 172.426 118.097 173.901 118.097C174.997 118.097 175.51 117.509 175.743 117.038H175.818V118.251C175.818 119.192 175.193 119.58 174.335 119.58C173.426 119.58 173.026 119.15 172.843 118.776L171.484 119.105C171.76 120.001 172.68 120.722 174.309 120.722ZM174.322 116.913C173.326 116.913 172.801 116.138 172.801 114.959C172.801 113.796 173.318 112.942 174.322 112.942C175.293 112.942 175.826 113.746 175.826 114.959C175.826 116.18 175.285 116.913 174.322 116.913Z" fill="#111111"/>
<path d="M121.727 135.79H124.81C126.826 135.79 127.659 134.807 127.659 133.523C127.659 132.174 126.727 131.44 125.943 131.39V131.307C126.676 131.107 127.327 130.623 127.327 129.523C127.327 128.273 126.493 127.256 124.71 127.256H121.727V135.79ZM122.76 134.873V131.906H124.86C125.977 131.906 126.676 132.656 126.676 133.523C126.676 134.273 126.16 134.873 124.81 134.873H122.76ZM122.76 131.007V128.173H124.71C125.843 128.173 126.343 128.773 126.343 129.523C126.343 130.423 125.609 131.007 124.677 131.007H122.76ZM133.258 133.174C133.258 134.374 132.341 134.924 131.608 134.924C130.791 134.924 130.208 134.324 130.208 133.39V129.39H129.224V133.457C129.224 135.09 130.091 135.873 131.291 135.873C132.258 135.873 132.891 135.357 133.191 134.707H133.258V135.79H134.241V129.39H133.258V133.174ZM140.575 130.823C140.267 129.915 139.575 129.306 138.309 129.306C136.959 129.306 135.959 130.073 135.959 131.157C135.959 132.04 136.484 132.632 137.659 132.907L138.726 133.157C139.371 133.307 139.675 133.615 139.675 134.057C139.675 134.607 139.092 135.057 138.176 135.057C137.371 135.057 136.867 134.711 136.692 134.023L135.759 134.256C135.988 135.344 136.884 135.924 138.192 135.924C139.679 135.924 140.692 135.111 140.692 134.007C140.692 133.115 140.134 132.552 138.992 132.273L138.042 132.04C137.284 131.853 136.942 131.599 136.942 131.107C136.942 130.557 137.525 130.156 138.309 130.156C139.167 130.156 139.521 130.631 139.692 131.073L140.575 130.823ZM142.173 135.79H143.156V129.39H142.173V135.79ZM142.672 128.323C143.056 128.323 143.372 128.023 143.372 127.656C143.372 127.289 143.056 126.989 142.672 126.989C142.289 126.989 141.972 127.289 141.972 127.656C141.972 128.023 142.289 128.323 142.672 128.323ZM145.94 131.94C145.94 130.823 146.631 130.19 147.573 130.19C148.486 130.19 149.04 130.785 149.04 131.79V135.79H150.023V131.723C150.023 130.09 149.152 129.306 147.857 129.306C146.89 129.306 146.29 129.739 145.99 130.39H145.906V129.39H144.957V135.79H145.94V131.94ZM154.504 135.924C155.804 135.924 156.754 135.274 157.054 134.307L156.104 134.04C155.854 134.707 155.275 135.04 154.504 135.04C153.35 135.04 152.553 134.294 152.508 132.924H157.154V132.506C157.154 130.123 155.737 129.306 154.404 129.306C152.67 129.306 151.52 130.673 151.52 132.64C151.52 134.607 152.654 135.924 154.504 135.924ZM152.508 132.073C152.574 131.077 153.278 130.19 154.404 130.19C155.47 130.19 156.154 130.99 156.154 132.073H152.508ZM163.183 130.823C162.875 129.915 162.183 129.306 160.916 129.306C159.566 129.306 158.566 130.073 158.566 131.157C158.566 132.04 159.091 132.632 160.266 132.907L161.332 133.157C161.979 133.307 162.283 133.615 162.283 134.057C162.283 134.607 161.7 135.057 160.783 135.057C159.979 135.057 159.474 134.711 159.299 134.023L158.366 134.256C158.595 135.344 159.491 135.924 160.799 135.924C162.287 135.924 163.299 135.111 163.299 134.007C163.299 133.115 162.741 132.552 161.6 132.273L160.649 132.04C159.891 131.853 159.55 131.599 159.55 131.107C159.55 130.557 160.133 130.156 160.916 130.156C161.774 130.156 162.129 130.631 162.3 131.073L163.183 130.823ZM169.313 130.823C169.004 129.915 168.313 129.306 167.047 129.306C165.696 129.306 164.697 130.073 164.697 131.157C164.697 132.04 165.221 132.632 166.396 132.907L167.463 133.157C168.108 133.307 168.413 133.615 168.413 134.057C168.413 134.607 167.829 135.057 166.913 135.057C166.109 135.057 165.605 134.711 165.43 134.023L164.496 134.256C164.726 135.344 165.621 135.924 166.93 135.924C168.417 135.924 169.429 135.111 169.429 134.007C169.429 133.115 168.871 132.552 167.73 132.273L166.78 132.04C166.022 131.853 165.68 131.599 165.68 131.107C165.68 130.557 166.263 130.156 167.047 130.156C167.905 130.156 168.258 130.631 168.429 131.073L169.313 130.823ZM171.627 135.857C172.039 135.857 172.377 135.52 172.377 135.107C172.377 134.694 172.039 134.357 171.627 134.357C171.214 134.357 170.877 134.694 170.877 135.107C170.877 135.52 171.214 135.857 171.627 135.857ZM171.627 131.107C172.039 131.107 172.377 130.769 172.377 130.356C172.377 129.944 172.039 129.606 171.627 129.606C171.214 129.606 170.877 129.944 170.877 130.356C170.877 130.769 171.214 131.107 171.627 131.107ZM184.441 129.923C184.124 128.173 182.725 127.139 181.008 127.139C178.824 127.139 177.241 128.823 177.241 131.523C177.241 134.224 178.824 135.907 181.008 135.907C182.725 135.907 184.124 134.873 184.441 133.123H183.408C183.158 134.307 182.142 134.94 181.008 134.94C179.458 134.94 178.241 133.74 178.241 131.523C178.241 129.306 179.458 128.106 181.008 128.106C182.142 128.106 183.158 128.739 183.408 129.923H184.441ZM188.577 135.924C190.311 135.924 191.478 134.607 191.478 132.624C191.478 130.623 190.311 129.306 188.577 129.306C186.844 129.306 185.677 130.623 185.677 132.624C185.677 134.607 186.844 135.924 188.577 135.924ZM188.577 135.04C187.261 135.04 186.661 133.907 186.661 132.624C186.661 131.34 187.261 130.19 188.577 130.19C189.894 130.19 190.494 131.34 190.494 132.624C190.494 133.907 189.894 135.04 188.577 135.04ZM193.962 131.94C193.962 130.823 194.653 130.19 195.595 130.19C196.508 130.19 197.062 130.785 197.062 131.79V135.79H198.045V131.723C198.045 130.09 197.174 129.306 195.879 129.306C194.912 129.306 194.312 129.739 194.012 130.39H193.928V129.39H192.979V135.79H193.962V131.94ZM202.625 129.39H201.258V127.856H200.275V129.39H199.309V130.223H200.275V134.224C200.275 135.34 201.175 135.873 202.009 135.873C202.376 135.873 202.609 135.807 202.742 135.757L202.542 134.873C202.459 134.89 202.325 134.924 202.109 134.924C201.676 134.924 201.258 134.79 201.258 133.956V130.223H202.625V129.39ZM206.719 135.924C208.019 135.924 208.969 135.274 209.269 134.307L208.319 134.04C208.07 134.707 207.49 135.04 206.719 135.04C205.565 135.04 204.769 134.294 204.723 132.924H209.37V132.506C209.37 130.123 207.952 129.306 206.619 129.306C204.886 129.306 203.736 130.673 203.736 132.64C203.736 134.607 204.869 135.924 206.719 135.924ZM204.723 132.073C204.79 131.077 205.494 130.19 206.619 130.19C207.686 130.19 208.369 130.99 208.369 132.073H204.723ZM211.849 131.94C211.849 130.823 212.54 130.19 213.482 130.19C214.394 130.19 214.949 130.785 214.949 131.79V135.79H215.932V131.723C215.932 130.09 215.061 129.306 213.765 129.306C212.798 129.306 212.198 129.739 211.898 130.39H211.815V129.39H210.865V135.79H211.849V131.94ZM220.512 129.39H219.145V127.856H218.162V129.39H217.196V130.223H218.162V134.224C218.162 135.34 219.062 135.873 219.895 135.873C220.262 135.873 220.495 135.807 220.629 135.757L220.428 134.873C220.345 134.89 220.212 134.924 219.995 134.924C219.562 134.924 219.145 134.79 219.145 133.956V130.223H220.512V129.39Z" fill="#7F82A4"/>
<path d="M123.623 161.884C124.635 161.884 125.457 161.062 125.457 160.05C125.457 159.037 124.635 158.217 123.623 158.217C122.61 158.217 121.789 159.037 121.789 160.05C121.789 161.062 122.61 161.884 123.623 161.884ZM138.123 157.05H139.123C139.077 155.762 137.89 154.799 136.24 154.799C134.606 154.799 133.323 155.749 133.323 157.183C133.323 158.333 134.156 159.016 135.489 159.4L136.54 159.7C137.44 159.95 138.239 160.267 138.239 161.117C138.239 162.051 137.339 162.667 136.157 162.667C135.139 162.667 134.24 162.217 134.156 161.25H133.089C133.19 162.65 134.323 163.601 136.157 163.601C138.123 163.601 139.24 162.517 139.24 161.134C139.24 159.534 137.723 159.016 136.84 158.783L135.973 158.55C135.339 158.384 134.323 158.05 134.323 157.133C134.323 156.317 135.073 155.716 136.206 155.716C137.239 155.716 138.023 156.208 138.123 157.05ZM143.405 163.584C145.138 163.584 146.305 162.267 146.305 160.284C146.305 158.283 145.138 156.966 143.405 156.966C141.672 156.966 140.505 158.283 140.505 160.284C140.505 162.267 141.672 163.584 143.405 163.584ZM143.405 162.7C142.089 162.7 141.488 161.567 141.488 160.284C141.488 159 142.089 157.85 143.405 157.85C144.722 157.85 145.322 159 145.322 160.284C145.322 161.567 144.722 162.7 143.405 162.7ZM150.406 163.584C151.823 163.584 152.756 162.717 152.923 161.584H151.94C151.756 162.284 151.173 162.7 150.406 162.7C149.239 162.7 148.489 161.734 148.489 160.25C148.489 158.8 149.256 157.85 150.406 157.85C151.272 157.85 151.79 158.384 151.94 158.967H152.923C152.756 157.767 151.739 156.966 150.39 156.966C148.656 156.966 147.506 158.333 147.506 160.284C147.506 162.201 148.606 163.584 150.406 163.584ZM154.36 163.451H155.344V157.05H154.36V163.451ZM154.86 155.983C155.243 155.983 155.56 155.683 155.56 155.316C155.56 154.949 155.243 154.649 154.86 154.649C154.477 154.649 154.16 154.949 154.16 155.316C154.16 155.683 154.477 155.983 154.86 155.983ZM159.028 163.601C160.144 163.601 160.728 163 160.928 162.584H160.978V163.451H161.961V159.234C161.961 157.2 160.411 156.966 159.595 156.966C158.628 156.966 157.528 157.3 157.028 158.467L157.961 158.8C158.178 158.333 158.69 157.833 159.628 157.833C160.533 157.833 160.978 158.312 160.978 159.133V159.166C160.978 159.642 160.495 159.6 159.328 159.75C158.141 159.904 156.845 160.166 156.845 161.633C156.845 162.884 157.811 163.601 159.028 163.601ZM159.178 162.717C158.395 162.717 157.828 162.367 157.828 161.684C157.828 160.933 158.511 160.7 159.278 160.6C159.694 160.55 160.812 160.434 160.978 160.234V161.134C160.978 161.933 160.345 162.717 159.178 162.717ZM164.74 154.916H163.756V163.451H164.74V154.916ZM169.84 163.451H170.824V159.45C170.824 158.513 171.507 157.85 172.274 157.85C173.019 157.85 173.541 158.338 173.541 159.067V163.451H174.54V159.283C174.54 158.458 175.058 157.85 175.957 157.85C176.657 157.85 177.258 158.221 177.258 159.166V163.451H178.241V159.166C178.241 157.662 177.432 156.966 176.29 156.966C175.374 156.966 174.703 157.387 174.374 158.05H174.307C173.991 157.366 173.432 156.966 172.59 156.966C171.757 156.966 171.14 157.366 170.874 158.05H170.791V157.05H169.84V163.451ZM182.722 163.584C184.022 163.584 184.971 162.934 185.271 161.967L184.322 161.7C184.072 162.367 183.493 162.7 182.722 162.7C181.568 162.7 180.772 161.954 180.726 160.584H185.372V160.166C185.372 157.783 183.955 156.966 182.621 156.966C180.888 156.966 179.738 158.333 179.738 160.3C179.738 162.267 180.871 163.584 182.722 163.584ZM180.726 159.733C180.793 158.737 181.497 157.85 182.621 157.85C183.688 157.85 184.372 158.65 184.372 159.733H180.726ZM189.284 163.584C190.518 163.584 190.934 162.817 191.151 162.467H191.268V163.451H192.218V154.916H191.234V158.067H191.151C190.934 157.733 190.551 156.966 189.301 156.966C187.684 156.966 186.568 158.249 186.568 160.267C186.568 162.301 187.684 163.584 189.284 163.584ZM189.417 162.7C188.185 162.7 187.551 161.617 187.551 160.25C187.551 158.9 188.168 157.85 189.417 157.85C190.618 157.85 191.251 158.817 191.251 160.25C191.251 161.7 190.601 162.7 189.417 162.7ZM194.155 163.451H195.138V157.05H194.155V163.451ZM194.655 155.983C195.039 155.983 195.355 155.683 195.355 155.316C195.355 154.949 195.039 154.649 194.655 154.649C194.272 154.649 193.955 154.949 193.955 155.316C193.955 155.683 194.272 155.983 194.655 155.983ZM198.823 163.601C199.94 163.601 200.523 163 200.723 162.584H200.773V163.451H201.756V159.234C201.756 157.2 200.206 156.966 199.389 156.966C198.423 156.966 197.323 157.3 196.823 158.467L197.757 158.8C197.973 158.333 198.486 157.833 199.423 157.833C200.327 157.833 200.773 158.312 200.773 159.133V159.166C200.773 159.642 200.289 159.6 199.123 159.75C197.935 159.904 196.639 160.166 196.639 161.633C196.639 162.884 197.607 163.601 198.823 163.601ZM198.973 162.717C198.19 162.717 197.622 162.367 197.622 161.684C197.622 160.933 198.306 160.7 199.073 160.6C199.49 160.55 200.606 160.434 200.773 160.234V161.134C200.773 161.933 200.139 162.717 198.973 162.717ZM206.851 165.851H207.835V162.467H207.918C208.135 162.817 208.551 163.584 209.784 163.584C211.384 163.584 212.501 162.301 212.501 160.267C212.501 158.249 211.384 156.966 209.767 156.966C208.518 156.966 208.135 157.733 207.918 158.067H207.801V157.05H206.851V165.851ZM207.818 160.25C207.818 158.817 208.451 157.85 209.651 157.85C210.901 157.85 211.517 158.9 211.517 160.25C211.517 161.617 210.884 162.7 209.651 162.7C208.467 162.7 207.818 161.7 207.818 160.25ZM216.601 163.584C218.334 163.584 219.501 162.267 219.501 160.284C219.501 158.283 218.334 156.966 216.601 156.966C214.868 156.966 213.701 158.283 213.701 160.284C213.701 162.267 214.868 163.584 216.601 163.584ZM216.601 162.7C215.284 162.7 214.684 161.567 214.684 160.284C214.684 159 215.284 157.85 216.601 157.85C217.918 157.85 218.518 159 218.518 160.284C218.518 161.567 217.918 162.7 216.601 162.7ZM225.535 158.483C225.227 157.575 224.535 156.966 223.269 156.966C221.919 156.966 220.919 157.733 220.919 158.817C220.919 159.7 221.444 160.292 222.619 160.567L223.686 160.817C224.331 160.967 224.635 161.275 224.635 161.717C224.635 162.267 224.052 162.717 223.136 162.717C222.331 162.717 221.827 162.371 221.652 161.684L220.719 161.917C220.947 163.005 221.843 163.584 223.152 163.584C224.639 163.584 225.652 162.772 225.652 161.667C225.652 160.775 225.094 160.213 223.952 159.933L223.002 159.7C222.244 159.513 221.902 159.259 221.902 158.767C221.902 158.217 222.485 157.816 223.269 157.816C224.127 157.816 224.481 158.291 224.652 158.733L225.535 158.483ZM229.916 157.05H228.549V155.516H227.566V157.05H226.599V157.883H227.566V161.884C227.566 163 228.465 163.534 229.299 163.534C229.665 163.534 229.899 163.467 230.032 163.417L229.832 162.534C229.749 162.55 229.616 162.584 229.399 162.584C228.966 162.584 228.549 162.451 228.549 161.617V157.883H229.916V157.05ZM235.814 158.483C235.505 157.575 234.814 156.966 233.547 156.966C232.196 156.966 231.197 157.733 231.197 158.817C231.197 159.7 231.722 160.292 232.897 160.567L233.963 160.817C234.609 160.967 234.913 161.275 234.913 161.717C234.913 162.267 234.33 162.717 233.413 162.717C232.61 162.717 232.105 162.371 231.93 161.684L230.997 161.917C231.226 163.005 232.122 163.584 233.43 163.584C234.918 163.584 235.93 162.772 235.93 161.667C235.93 160.775 235.372 160.213 234.23 159.933L233.28 159.7C232.522 159.513 232.18 159.259 232.18 158.767C232.18 158.217 232.764 157.816 233.547 157.816C234.405 157.816 234.759 158.291 234.93 158.733L235.814 158.483Z" fill="#111111"/>
<path d="M67.7188 60.9076H71.4866V71.2482H73.677V60.9076H77.4449V59.0561H67.7188V60.9076ZM78.2752 71.2482H80.4301V65.8725C80.4301 64.7117 81.305 63.8901 82.4895 63.8901C82.8527 63.8901 83.3051 63.9556 83.4895 64.0151V62.0328C83.2932 61.997 82.9538 61.9732 82.7157 61.9732C81.6681 61.9732 80.7931 62.5685 80.4598 63.6282H80.3645V62.1042H78.2752V71.2482ZM87.3717 71.4328C88.8065 71.4328 89.6639 70.76 90.0569 69.9921H90.1282V71.2482H92.1991V65.1284C92.1991 62.7114 90.2287 61.9851 88.4855 61.9851C86.5621 61.9851 85.0862 62.8424 84.6101 64.5092L86.6216 64.795C86.8361 64.1699 87.4437 63.6341 88.4972 63.6341C89.4971 63.6341 90.0443 64.1461 90.0443 65.045V65.0807C90.0443 65.6999 89.3957 65.7296 87.7823 65.9023C86.0089 66.0928 84.3126 66.6226 84.3126 68.6824C84.3126 70.4802 85.6276 71.4328 87.3717 71.4328ZM87.9315 69.8492C87.0331 69.8492 86.3903 69.4384 86.3903 68.6467C86.3903 67.8192 87.1102 67.4739 88.074 67.337C88.6397 67.2596 89.7711 67.1167 90.0502 66.8905V67.968C90.0502 68.986 89.2289 69.8492 87.9315 69.8492ZM98.3541 71.4268C100.652 71.4268 102.116 70.0635 102.27 68.1228H100.211C100.027 69.1051 99.3187 69.6706 98.3717 69.6706C97.0265 69.6706 96.1574 68.5455 96.1574 66.6762C96.1574 64.8308 97.045 63.7234 98.3717 63.7234C99.4076 63.7234 100.045 64.3902 100.211 65.2712H102.27C102.122 63.2889 100.574 61.9851 98.3423 61.9851C95.6638 61.9851 93.9733 63.9199 93.9733 66.7119C93.9733 69.4801 95.6219 71.4268 98.3541 71.4268ZM104.041 71.2482H106.195V68.1764L106.981 67.337L109.778 71.2482H112.355L108.606 66.0511L112.147 62.1042H109.63L106.344 65.7773H106.195V59.0561H104.041V71.2482ZM122.307 62.1042H120.503V59.9134H118.348V62.1042H117.05V63.771H118.348V68.8551C118.336 70.5755 119.586 71.4209 121.206 71.3732C121.818 71.3553 122.241 71.2363 122.473 71.1589L122.11 69.4741C121.991 69.5039 121.747 69.5576 121.479 69.5576C120.937 69.5576 120.503 69.367 120.503 68.4979V63.771H122.307V62.1042ZM124.109 71.2482H126.263V62.1042H124.109V71.2482ZM125.192 60.8064C125.876 60.8064 126.436 60.2825 126.436 59.6396C126.436 58.9907 125.876 58.4668 125.192 58.4668C124.502 58.4668 123.942 58.9907 123.942 59.6396C123.942 60.2825 124.502 60.8064 125.192 60.8064ZM128.479 71.2482H130.634V65.688C130.634 64.5628 131.384 63.8009 132.313 63.8009C133.223 63.8009 133.848 64.414 133.848 65.3546V71.2482H135.961V65.5451C135.961 64.5152 136.575 63.8009 137.616 63.8009C138.485 63.8009 139.175 64.3128 139.175 65.4439V71.2482H141.337V65.1105C141.337 63.0686 140.157 61.9851 138.479 61.9851C137.152 61.9851 136.14 62.64 135.735 63.6579H135.64C135.289 62.6221 134.401 61.9851 133.169 61.9851C131.943 61.9851 131.026 62.6161 130.646 63.6579H130.539V62.1042H128.479V71.2482ZM147.57 71.4268C149.701 71.4268 151.165 70.385 151.546 68.7955L149.534 68.5693C149.242 69.3432 148.528 69.748 147.6 69.748C146.207 69.748 145.284 68.8312 145.266 67.2656H151.635V66.6047C151.635 63.396 149.707 61.9851 147.457 61.9851C144.837 61.9851 143.129 63.908 143.129 66.7298C143.129 69.5992 144.814 71.4268 147.57 71.4268ZM145.272 65.813C145.338 64.6462 146.201 63.6639 147.487 63.6639C148.724 63.6639 149.558 64.5687 149.57 65.813H145.272ZM162.247 62.1042H160.348V61.3838C160.348 60.6695 160.645 60.2706 161.449 60.2706C161.789 60.2706 162.074 60.348 162.253 60.4016L162.687 58.7347C162.408 58.6395 161.795 58.4846 161.05 58.4846C159.461 58.4846 158.193 59.3955 158.193 61.241V62.1042H156.842V63.771H158.193V71.2482H160.348V63.771H162.247V62.1042ZM167.579 71.4268C170.258 71.4268 171.96 69.5396 171.96 66.7119C171.96 63.8782 170.258 61.9851 167.579 61.9851C164.901 61.9851 163.197 63.8782 163.197 66.7119C163.197 69.5396 164.901 71.4268 167.579 71.4268ZM167.591 69.7004C166.108 69.7004 165.382 68.3788 165.382 66.706C165.382 65.0331 166.108 63.6937 167.591 63.6937C169.049 63.6937 169.775 65.0331 169.775 66.706C169.775 68.3788 169.049 69.7004 167.591 69.7004ZM173.789 71.2482H175.943V65.8725C175.943 64.7117 176.818 63.8901 178.003 63.8901C178.366 63.8901 178.819 63.9556 179.003 64.0151V62.0328C178.806 61.997 178.468 61.9732 178.229 61.9732C177.181 61.9732 176.306 62.5685 175.973 63.6282H175.878V62.1042H173.789V71.2482ZM189.157 62.1042H187.354V59.9134H185.199V62.1042H183.902V63.771H185.199V68.8551C185.187 70.5755 186.438 71.4209 188.056 71.3732C188.67 71.3553 189.092 71.2363 189.324 71.1589L188.961 69.4741C188.842 69.5039 188.598 69.5576 188.33 69.5576C187.789 69.5576 187.354 69.367 187.354 68.4979V63.771H189.157V62.1042ZM194.85 71.4268C197.528 71.4268 199.231 69.5396 199.231 66.7119C199.231 63.8782 197.528 61.9851 194.85 61.9851C192.171 61.9851 190.469 63.8782 190.469 66.7119C190.469 69.5396 192.171 71.4268 194.85 71.4268ZM194.862 69.7004C193.38 69.7004 192.653 68.3788 192.653 66.706C192.653 65.0331 193.38 63.6937 194.862 63.6937C196.32 63.6937 197.046 65.0331 197.046 66.706C197.046 68.3788 196.32 69.7004 194.862 69.7004ZM204.453 71.409C206.024 71.409 206.732 70.4743 207.072 69.8075H207.203V71.2482H209.321V59.0561H207.161V63.6163H207.072C206.744 62.9554 206.071 61.9851 204.459 61.9851C202.345 61.9851 200.685 63.6401 200.685 66.6881C200.685 69.7004 202.298 71.409 204.453 71.409ZM205.054 69.6409C203.631 69.6409 202.881 68.3907 202.881 66.6762C202.881 64.9736 203.619 63.7532 205.054 63.7532C206.441 63.7532 207.203 64.9022 207.203 66.6762C207.203 68.4502 206.428 69.6409 205.054 69.6409ZM214.248 71.4328C215.683 71.4328 216.54 70.76 216.933 69.9921H217.004V71.2482H219.076V65.1284C219.076 62.7114 217.105 61.9851 215.361 61.9851C213.439 61.9851 211.963 62.8424 211.487 64.5092L213.498 64.795C213.713 64.1699 214.32 63.6341 215.373 63.6341C216.374 63.6341 216.921 64.1461 216.921 65.045V65.0807C216.921 65.6999 216.272 65.7296 214.659 65.9023C212.886 66.0928 211.189 66.6226 211.189 68.6824C211.189 70.4802 212.504 71.4328 214.248 71.4328ZM214.808 69.8492C213.909 69.8492 213.266 69.4384 213.266 68.6467C213.266 67.8192 213.987 67.4739 214.951 67.337C215.516 67.2596 216.647 67.1167 216.927 66.8905V67.968C216.927 68.986 216.106 69.8492 214.808 69.8492ZM222.255 74.6772C223.933 74.6772 224.903 73.814 225.421 72.3555L229.094 62.1161L226.79 62.1042L224.677 69.0098H224.582L222.474 62.1042H220.189L223.504 71.4387L223.32 71.9328C222.921 72.9747 222.29 73.0461 221.35 72.7722L220.85 74.451C221.142 74.5701 221.666 74.6772 222.255 74.6772Z" fill="#111111"/>
<defs>
<filter id="filter0_f_4174_60476" x="18.7083" y="18.7073" width="666.599" height="335.589" filterUnits="userSpaceOnUse" color-interpolation-filters="sRGB">
<feFlood flood-opacity="0" result="BackgroundImageFix"/>
<feBlend mode="normal" in="SourceGraphic" in2="BackgroundImageFix" result="shape"/>
<feGaussianBlur stdDeviation="7.41147" result="effect1_foregroundBlur_4174_60476"/>
</filter>
<filter id="filter1_f_4174_60476" x="50.2985" y="73.7604" width="603.434" height="228.829" filterUnits="userSpaceOnUse" color-interpolation-filters="sRGB">
<feFlood flood-opacity="0" result="BackgroundImageFix"/>
<feBlend mode="normal" in="SourceGraphic" in2="BackgroundImageFix" result="shape"/>
<feGaussianBlur stdDeviation="8.38202" result="effect1_foregroundBlur_4174_60476"/>
</filter>
<filter id="filter2_f_4174_60476" x="532.505" y="264.873" width="45.4656" height="45.4431" filterUnits="userSpaceOnUse" color-interpolation-filters="sRGB">
<feFlood flood-opacity="0" result="BackgroundImageFix"/>
<feBlend mode="normal" in="SourceGraphic" in2="BackgroundImageFix" result="shape"/>
<feGaussianBlur stdDeviation="8.38202" result="effect1_foregroundBlur_4174_60476"/>
</filter>
</defs>
</svg>
