<svg width="24" height="24" viewBox="0 0 24 24" fill="none" xmlns="http://www.w3.org/2000/svg">
<g clip-path="url(#clip0_4192_71740)">
<path d="M19 4H15V3C15 1.346 13.654 0 12 0C10.346 0 9 1.346 9 3V4H5C2.243 4 0 6.243 0 9V19C0 21.757 2.243 24 5 24H19C21.757 24 24 21.757 24 19V9C24 6.243 21.757 4 19 4ZM11 3C11 2.448 11.449 2 12 2C12.551 2 13 2.448 13 3V4.995C13 4.995 13 4.998 13 5C13 5.002 13 5.003 13 5.005V6H10.999V3H11ZM22 19C22 20.654 20.654 22 19 22H5C3.346 22 2 20.654 2 19V9C2 7.346 3.346 6 5 6H9C9 7.103 9.897 8 11 8H13C14.103 8 15 7.103 15 6H19C20.654 6 22 7.346 22 9V19ZM9.5 12.5C9.5 11.119 10.619 10 12 10C13.381 10 14.5 11.119 14.5 12.5C14.5 13.881 13.381 15 12 15C10.619 15 9.5 13.881 9.5 12.5ZM16.968 19.751C17.106 20.285 16.784 20.831 16.249 20.969C15.711 21.108 15.169 20.784 15.031 20.249C14.7 18.967 13.397 18 11.999 18C10.601 18 9.297 18.967 8.967 20.249C8.851 20.7 8.445 21 7.999 21C7.917 21 7.833 20.99 7.749 20.969C7.214 20.831 6.892 20.286 7.03 19.751C7.589 17.577 9.678 16 11.998 16C14.318 16 16.407 17.577 16.966 19.751H16.968Z" fill="#323232"/>
</g>
<defs>
<clipPath id="clip0_4192_71740">
<rect width="24" height="24" fill="white"/>
</clipPath>
</defs>
</svg>
