<svg width="81" height="80" viewBox="0 0 81 80" fill="none" xmlns="http://www.w3.org/2000/svg">
<path d="M40.5 80C62.5914 80 80.5 62.0914 80.5 40C80.5 17.9086 62.5914 0 40.5 0C18.4086 0 0.5 17.9086 0.5 40C0.5 62.0914 18.4086 80 40.5 80Z" fill="#F5F5F5"/>
<g clip-path="url(#clip0_4308_41107)">
<path d="M62.0508 63.753L61.4019 51.2525C63.0613 48.0287 64.0039 44.3755 64.0039 40.5C64.0039 27.513 53.4848 16.9828 40.502 16.9648C27.5191 16.9828 17 27.513 17 40.5C17 53.487 27.5191 64.0172 40.502 64.0352C43.1124 64.0323 45.7041 63.5942 48.1705 62.739L62.0508 63.753Z" stroke="#0D257B" stroke-width="2" stroke-miterlimit="10"/>
<path d="M48.9347 29.4711C46.4227 45.0484 36.2469 48.4103 29.3717 45.4715C20.2655 41.579 25.1321 25.8125 34.3697 29.276C38.6101 30.8658 42.5996 34.7225 44.3167 38.854C50.1676 49.443 40.5652 54.9679 32.3191 53.5323C24.9051 52.2417 23.9131 40.3772 30.9826 37.5142C32.8775 36.7469 34.8365 36.2726 36.4371 36.0292C38.8303 35.6145 41.8974 34.5104 42.5146 31.7346C42.7314 30.7594 42.5732 29.728 42.1451 28.8491C39.3282 23.0664 31.2952 27.0594 32.8271 34.0068C34.1575 40.6227 39.1074 46.7985 45.1906 47.5321C48.7986 48.0459 53.4704 47.5269 56.2457 44.577C57.7578 42.9699 58.2404 40.4216 57.3307 38.3019C54.6295 32.0077 45.1201 42.4735 57.0901 49.841" stroke="#CC922F" stroke-width="2" stroke-miterlimit="10"/>
</g>
<defs>
<clipPath id="clip0_4308_41107">
<rect width="50" height="50" fill="white" transform="translate(15.5 15.5)"/>
</clipPath>
</defs>
</svg>
