<svg width="16" height="16" viewBox="0 0 16 16" fill="none" xmlns="http://www.w3.org/2000/svg">
<g clip-path="url(#clip0_5146_41072)">
<path d="M16 7.71729C16 7.90479 16 8.09229 16 8.27979C15.9878 8.36135 15.9728 8.4426 15.9641 8.52447C15.9388 8.76197 15.9284 9.00166 15.8903 9.23697C15.6584 10.6688 15.0928 11.956 14.1609 13.0682C12.7775 14.7192 11.0153 15.6857 8.86781 15.9326C8.6725 15.9551 8.47688 15.9767 8.28156 15.9985C8.09406 15.9985 7.90656 15.9985 7.71906 15.9985C7.47687 15.9735 7.23375 15.9557 6.99281 15.9229C5.54031 15.7254 4.22469 15.1932 3.0775 14.2751C1.33875 12.8838 0.325625 11.0829 0.065625 8.86572C0.0440625 8.68072 0.021875 8.49604 0 8.31104C0 8.1026 0 7.89447 0 7.68604C0.0121875 7.6151 0.02625 7.54416 0.035625 7.4726C0.0828125 7.1126 0.10375 6.74697 0.179375 6.39322C0.628438 4.29447 1.74312 2.6301 3.50344 1.40666C4.58969 0.65166 5.79875 0.207285 7.11656 0.0654102C7.3175 0.0438477 7.51813 0.0207227 7.71875 -0.00146484C7.90625 -0.00146484 8.09375 -0.00146484 8.28125 -0.00146484C8.3525 0.0100977 8.42344 0.0254102 8.495 0.0325977C8.74281 0.0582227 8.99344 0.0663477 9.23875 0.106973C10.8744 0.376973 12.3047 1.07166 13.5016 2.22135C14.8994 3.56385 15.7175 5.2001 15.9341 7.13135C15.9559 7.32666 15.9781 7.52197 16 7.71729ZM7.04656 8.00666C6.91469 8.1326 6.79281 8.24479 6.67531 8.36166C6.13688 8.89853 5.59906 9.43572 5.06281 9.97447C4.8625 10.1754 4.7875 10.4154 4.88188 10.6885C4.97281 10.9526 5.16719 11.1079 5.44281 11.1476C5.68219 11.182 5.87781 11.0848 6.045 10.917C6.65531 10.3048 7.26719 9.69416 7.87875 9.08322C7.91781 9.04416 7.95938 9.00729 8.02188 8.94853C8.06656 9.00603 8.09719 9.05604 8.1375 9.09635C8.74781 9.70854 9.35813 10.3207 9.97094 10.9301C10.2275 11.1851 10.555 11.226 10.8387 11.0467C11.2175 10.8073 11.2659 10.3063 10.9341 9.97104C10.3222 9.35291 9.705 8.74041 9.09062 8.1251C9.05125 8.08541 9.01406 8.04354 8.95125 7.97604C9.05156 7.88791 9.14937 7.81041 9.2375 7.72291C9.80219 7.16104 10.3666 6.59854 10.9278 6.03291C11.2416 5.71635 11.2306 5.27354 10.9097 5.00166C10.6294 4.76416 10.25 4.78885 9.9675 5.0701C9.35094 5.68354 8.73719 6.29947 8.12219 6.91416C8.08313 6.95322 8.04156 6.98979 7.99281 7.0351C7.62563 6.66541 7.27031 6.30666 6.91406 5.94885C6.61625 5.6501 6.31906 5.35072 6.01875 5.05479C5.82125 4.86041 5.58437 4.78791 5.3175 4.87729C5.05375 4.96603 4.89437 5.15729 4.8525 5.43322C4.81594 5.6726 4.90937 5.86947 5.0775 6.03697C5.725 6.68478 6.3725 7.33291 7.04656 8.00666Z" fill="#F44336"/>
<path d="M7.04963 8.00912C6.37588 7.33537 5.72807 6.68725 5.07963 6.04006C4.91182 5.87256 4.81807 5.67569 4.85463 5.43631C4.89682 5.16037 5.05588 4.96881 5.31963 4.88037C5.58619 4.79069 5.82338 4.86319 6.02088 5.05787C6.32151 5.35381 6.61869 5.65319 6.91619 5.95194C7.27244 6.30975 7.62776 6.6685 7.99494 7.03819C8.04369 6.99256 8.08526 6.95631 8.12432 6.91725C8.73963 6.30256 9.35338 5.68662 9.96963 5.07319C10.2524 4.79194 10.6315 4.76694 10.9118 5.00475C11.2328 5.27662 11.2437 5.71944 10.9299 6.036C10.369 6.60162 9.80463 7.16412 9.23963 7.726C9.1515 7.8135 9.05369 7.891 8.95338 7.97912C9.01619 8.04662 9.05307 8.0885 9.09275 8.12819C9.70744 8.7435 10.3243 9.356 10.9362 9.97412C11.2684 10.3094 11.2199 10.8104 10.8409 11.0497C10.5571 11.2291 10.2296 11.1882 9.97307 10.9332C9.36026 10.3235 8.74994 9.71162 8.13963 9.09944C8.09932 9.05912 8.06869 9.00912 8.02401 8.95162C7.96151 9.01037 7.91994 9.04725 7.88088 9.08631C7.26932 9.69725 6.65776 10.3079 6.04713 10.9201C5.87994 11.0879 5.68432 11.1851 5.44494 11.1507C5.16963 11.111 4.97525 10.9557 4.884 10.6916C4.78994 10.4185 4.86494 10.1788 5.06494 9.97756C5.6015 9.43881 6.13932 8.90131 6.67744 8.36475C6.79557 8.24725 6.91776 8.13506 7.04963 8.00912Z" fill="white"/>
</g>
<defs>
<clipPath id="clip0_5146_41072">
<rect width="16" height="16" fill="white" transform="translate(0 -0.00146484)"/>
</clipPath>
</defs>
</svg>
