<svg width="295" height="274" viewBox="0 0 295 274" fill="none" xmlns="http://www.w3.org/2000/svg">
<path d="M56.1406 90.225C54.0919 93.3148 58.0309 97.6089 60.5642 99.8927C62.8192 101.922 67.0413 104.523 69.114 104.129C69.5746 104.043 69.8721 103.813 70.0832 103.385C70.9132 101.711 67.5211 99.0962 64.7959 96.9899C63.6828 96.1311 62.6322 95.3203 61.7446 94.5095C61.3271 94.1304 61.2983 93.4827 61.6773 93.0701C62.0563 92.6527 62.7041 92.6239 63.1167 93.0029C63.9419 93.7562 64.9639 94.543 66.0434 95.3779C68.9461 97.6185 72.1607 100.109 72.2518 102.709C72.794 101.773 73.5041 100.958 74.406 100.324C71.0715 98.4053 63.9898 93.9433 63.0686 90.2346C62.8959 90.1194 62.5697 89.9083 62.4258 89.8315C61.6821 89.4285 57.9014 87.5717 56.1406 90.225Z" fill="white"/>
<path d="M44.6344 132.618C45.0278 132.618 45.402 132.392 45.57 132.008C46.7406 129.355 48.1848 126.414 49.581 123.569C50.9915 120.705 52.4453 117.739 53.6351 115.043C53.8606 114.53 53.6304 113.925 53.1122 113.7C52.5989 113.474 51.9943 113.704 51.7688 114.223C50.5981 116.881 49.1492 119.822 47.753 122.672C46.3472 125.531 44.8935 128.491 43.7036 131.188C43.4781 131.706 43.7084 132.306 44.2265 132.531C44.3609 132.589 44.5001 132.618 44.6344 132.618Z" fill="#010101"/>
<path d="M132.96 32.1324C134.505 29.5176 136.328 27.133 138.247 24.8493C150.256 10.5564 178.616 6.67977 188.874 31.9933C192.189 40.1736 191.637 48.7282 190.251 55.9394C189.838 55.7187 189.406 55.522 188.941 55.3684C186.163 54.4568 182.867 54.9318 179.72 56.6591C175.853 56.2129 171.966 55.5891 168.253 54.0778C155.865 49.0401 148.855 44.6116 147.497 32.1804C145.924 34.4402 144.83 35.7164 142.69 37.3525C140.55 38.9885 137.254 40.9077 134.682 40.0633C133.492 39.6746 132.326 38.835 131.875 37.578C131.228 35.7836 132.029 33.7157 132.96 32.1324Z" fill="#010101"/>
<path d="M4.08296 191.026L34.2327 126.961L77.9987 145.706C77.9987 145.706 85.2147 129.94 87.5896 123.837C91.4375 113.939 101 108.369 119.443 109.199C135.669 109.928 151.91 110.274 168.146 110.605L226.406 111.79C257.909 111.79 284.628 135.616 287.238 167.584L294.66 272.974L92.5459 272.556C92.5459 272.556 91.4375 240.3 89.1441 209.728L81.6692 225.82C75.3216 240.003 61.6093 246.874 46.7887 246.432C40.801 246.255 34.9283 244.772 29.4732 242.301L26.0284 240.742C21.0098 238.468 16.3798 235.383 12.5032 231.472C1.77035 220.629 -2.39415 205.497 4.08296 191.026Z" fill="white" stroke="black" stroke-width="0.479786" stroke-miterlimit="10"/>
<path d="M144.053 88.7511L144.144 88.7942C147.646 90.4159 151.662 90.9101 155.457 90.176C156.014 90.0657 156.546 90.4303 156.652 90.9821C156.757 91.5338 156.397 92.0712 155.846 92.1767C154.574 92.4214 153.279 92.5414 151.983 92.5414C148.994 92.5414 146.005 91.8937 143.295 90.6414L143.203 90.5982C142.138 90.1088 141.14 89.5427 140.19 88.919C140.579 95.9095 141.054 104.536 141.586 114.204C150.458 135.794 174.577 131.961 181.006 115.077C180.823 111.752 180.646 108.547 180.478 105.524L178.808 75.2979C178.77 74.607 178.727 73.8201 179.634 73.6714C179.734 73.657 179.84 73.6522 179.941 73.6666C184.345 74.2759 188.255 72.9229 190.669 69.9483C192.703 67.439 193.283 64.1764 192.218 61.2257C191.508 59.2586 190.165 57.9008 188.337 57.2963C185.813 56.4663 182.546 57.1572 179.585 59.1339C179.115 59.4457 178.482 59.321 178.17 58.8556C177.858 58.3854 177.983 57.7521 178.448 57.4402C178.88 57.1524 179.312 56.8885 179.753 56.6486C175.886 56.2024 172 55.5787 168.287 54.0673C155.898 49.0296 148.889 44.6012 147.531 32.1699C145.957 34.4297 144.863 35.7059 142.724 37.342C140.584 38.9781 137.288 40.8972 134.716 40.0528C134.092 39.8513 133.483 39.5202 132.974 39.0788C125.686 72.4383 134.903 84.5194 144.053 88.7511Z" fill="white"/>
<path d="M174.031 19.9484C181.262 11.4466 191.212 5.39648 201.96 2.37383C212.702 -0.648818 224.202 -0.692 235.098 1.71652C237.089 2.15793 239.181 2.61852 240.75 3.91874C243.216 5.96263 243.327 9.41229 242.276 11.1587C239.714 15.4096 232.695 15.9614 228.271 16.2972C220.215 16.9161 209.372 14.4644 195.377 15.2321C187.686 15.6543 179.952 17.7174 174.031 19.9484Z" fill="#010101"/>
<path d="M25.5968 138.986C26.7051 138.986 27.8182 138.602 28.7202 137.82L93.8847 81.1575C95.871 79.4351 96.0773 76.4268 94.3549 74.4405C92.6325 72.459 89.6242 72.2479 87.6379 73.9703L22.4734 130.633C20.487 132.355 20.2807 135.364 22.0032 137.35C22.9436 138.43 24.263 138.986 25.5968 138.986Z" fill="#010101"/>
<path d="M76.3085 144.977C77.6327 142.022 80.1372 136.442 80.9241 134.71L81.0104 134.523C84.0235 127.873 89.6273 115.49 87.6794 105.937C86.8446 101.854 83.9659 97.9008 79.1105 94.1921C73.3387 89.7733 65.9548 87.9213 65.2351 88.7945C65.0288 89.0488 64.9712 89.3127 65.0479 89.6773C65.6525 92.5608 73.3051 97.5458 77.0762 99.4553C77.4456 99.6424 77.6663 100.031 77.6327 100.444C77.5991 100.856 77.3257 101.207 76.9322 101.336C73.6985 102.387 72.643 106.196 73.0268 109.502C73.4299 112.961 74.9363 115.283 78.3908 117.788C78.8466 118.119 78.9473 118.757 78.6163 119.213C78.2852 119.669 77.6471 119.769 77.1913 119.438C73.2619 116.593 71.4675 113.787 70.9925 109.737C70.8198 108.25 70.8965 106.681 71.2659 105.213C70.8006 105.683 70.2057 105.995 69.51 106.129C69.2461 106.182 68.9726 106.206 68.6896 106.206C68.6608 106.206 68.6272 106.201 68.5984 106.201C68.9775 107.118 69.0926 108.202 68.3633 109.243C67.7204 110.169 66.7608 110.73 65.595 110.869C65.3982 110.893 65.1919 110.903 64.9856 110.903C64.8129 110.903 64.6353 110.889 64.4578 110.874C64.8752 112.016 64.8704 113.23 64.1699 114.175C63.4982 115.077 62.5243 115.615 61.3536 115.715C61.2097 115.73 61.061 115.734 60.9122 115.734C60.7155 115.734 60.5188 115.72 60.3173 115.701C60.6628 116.795 60.61 117.937 59.9287 118.815C59.2522 119.683 58.2878 120.182 57.1459 120.254C57.0451 120.259 56.9396 120.264 56.8341 120.264C55.3035 120.264 53.5811 119.554 51.9834 118.623C51.2013 120.264 50.3857 121.933 49.5796 123.574C48.2123 126.362 46.7969 129.236 45.6406 131.846L76.3085 144.977Z" fill="white"/>
<path d="M151.973 92.5462C153.269 92.5462 154.564 92.4263 155.836 92.1816C156.388 92.0761 156.752 91.5387 156.642 90.9869C156.536 90.4352 156.004 90.0706 155.447 90.1809C151.652 90.9102 147.636 90.4208 144.134 88.7991L144.043 88.7559C134.687 84.4331 125.259 71.9203 133.444 36.8671C133.574 36.3202 133.233 35.7684 132.681 35.6437C132.13 35.5189 131.583 35.8548 131.458 36.4065C124.731 65.2129 128.786 83.9533 143.189 90.6079L143.28 90.6511C145.991 91.8985 148.984 92.5462 151.973 92.5462Z" fill="#010101"/>
<path d="M113.043 94.8883C133.709 94.8883 150.462 78.1354 150.462 57.4698C150.462 36.8041 133.709 20.0513 113.043 20.0513C92.3778 20.0513 75.625 36.8041 75.625 57.4698C75.625 78.1354 92.3778 94.8883 113.043 94.8883Z" fill="white"/>
<path d="M74.5938 57.4698C74.5938 36.2777 91.8372 19.0342 113.029 19.0342C134.221 19.0342 151.465 36.2777 151.465 57.4698C151.465 78.662 134.221 95.9054 113.029 95.9054C91.8372 95.9054 74.5938 78.662 74.5938 57.4698ZM76.6375 57.4698C76.6375 77.5393 92.9647 93.8664 113.034 93.8664C133.104 93.8664 149.431 77.5393 149.431 57.4698C149.431 37.4004 133.104 21.0733 113.034 21.0733C92.9647 21.0733 76.6375 37.4004 76.6375 57.4698Z" fill="#010101"/>
<path d="M113.051 90.5918C131.197 90.5918 145.907 75.8818 145.907 57.7361C145.907 39.5904 131.197 24.8804 113.051 24.8804C94.9053 24.8804 80.1953 39.5904 80.1953 57.7361C80.1953 75.8818 94.9053 90.5918 113.051 90.5918Z" fill="white"/>
<path d="M79.1641 57.7375C79.1641 39.0595 94.3589 23.8599 113.042 23.8599C131.725 23.8599 146.92 39.0547 146.92 57.7375C146.92 76.4204 131.725 91.6152 113.042 91.6152C94.3589 91.6152 79.1641 76.4156 79.1641 57.7375ZM81.208 57.7375C81.208 75.2929 95.4912 89.5713 113.042 89.5713C130.592 89.5713 144.876 75.2881 144.876 57.7375C144.876 40.187 130.592 25.9037 113.042 25.9037C95.4864 25.899 81.208 40.1822 81.208 57.7375Z" fill="#010101"/>
<path d="M190.711 272.758C190.73 272.758 190.749 272.758 190.768 272.758C191.33 272.725 191.761 272.245 191.733 271.683C191.733 271.683 186.469 176.95 183.25 118.852C181.638 89.811 181.048 79.0446 180.87 75.8205C185.51 76.1323 189.602 74.4963 192.241 71.2385C194.731 68.1679 195.437 64.1665 194.127 60.5393C193.196 57.958 191.411 56.1684 188.959 55.3672C185.798 54.3309 181.964 55.0889 178.438 57.4495C177.968 57.7613 177.843 58.3947 178.159 58.8648C178.471 59.335 179.105 59.4598 179.575 59.1431C182.53 57.1616 185.802 56.4707 188.326 57.3055C190.159 57.9053 191.502 59.2631 192.208 61.235C193.273 64.1857 192.692 67.4434 190.658 69.9575C188.245 72.9322 184.334 74.29 179.93 73.6758C179.829 73.6614 179.724 73.6614 179.618 73.6806C178.721 73.8342 178.754 74.4915 178.817 75.5902L181.216 118.968C184.435 177.065 189.698 271.799 189.698 271.799C189.722 272.341 190.173 272.758 190.711 272.758Z" fill="#010101"/>
<path d="M150.721 55.6358C151.119 55.6358 151.493 55.4055 151.661 55.0169C152.434 53.2033 154.621 52.402 156.368 52.546C158.647 52.7331 160.595 54.1724 161.828 55.3527C162.236 55.7413 162.878 55.7269 163.272 55.3191C163.66 54.9113 163.646 54.2636 163.238 53.875C161.127 51.8599 158.81 50.6988 156.536 50.5117C153.599 50.2766 150.817 51.7975 149.785 54.2156C149.564 54.7338 149.804 55.3335 150.322 55.5542C150.452 55.607 150.586 55.6358 150.721 55.6358Z" fill="#010101"/>
<path d="M156.591 60.0012C157.301 59.7598 157.619 58.8075 157.302 57.8744C156.984 56.9412 156.152 56.3804 155.442 56.6219C154.732 56.8634 154.414 57.8156 154.731 58.7488C155.048 59.6819 155.881 60.2427 156.591 60.0012Z" fill="#010101"/>
<path d="M253.779 273C253.803 273 253.827 273 253.856 272.996C254.42 272.957 254.845 272.469 254.807 271.909C254.734 270.913 247.554 171.418 243.423 114.658C243.385 114.098 242.878 113.667 242.328 113.715C241.763 113.753 241.339 114.242 241.377 114.802C245.508 171.562 252.688 271.057 252.76 272.053C252.794 272.589 253.248 273 253.779 273Z" fill="#010101"/>
<path d="M150.144 272.529C150.705 272.5 151.137 272.02 151.108 271.459C150.422 259.008 143.59 134.47 141.033 88.171C140.999 87.6097 140.543 87.1875 139.958 87.2067C139.397 87.2403 138.965 87.72 138.994 88.2814C141.556 134.581 148.383 259.114 149.069 271.569C149.103 272.135 149.582 272.558 150.144 272.529Z" fill="#010101"/>
<path d="M188.757 66.5511C188.796 66.5511 188.834 66.5511 188.872 66.5463C189.434 66.4839 189.837 65.9801 189.774 65.4188C189.558 63.4708 188.148 61.8012 186.267 61.2638C184.415 60.7409 182.275 61.3646 180.927 62.8231C180.543 63.2357 180.572 63.8834 180.985 64.2673C181.397 64.6511 182.045 64.6223 182.429 64.2097C183.254 63.3173 184.602 62.9143 185.715 63.2261C186.79 63.5332 187.63 64.5264 187.75 65.6443C187.802 66.1624 188.244 66.5511 188.757 66.5511Z" fill="#010101"/>
<path d="M92.7806 272.756C92.7998 272.756 92.819 272.756 92.8382 272.756C93.3995 272.723 93.8313 272.243 93.8025 271.682L88.5873 177.735C88.5537 177.173 88.0979 176.742 87.5126 176.77C86.9513 176.804 86.5194 177.284 86.5482 177.845L91.7634 271.792C91.797 272.339 92.2433 272.756 92.7806 272.756Z" fill="#010101"/>
<path d="M77.3292 147.691C77.3292 147.691 81.6951 137.946 82.7843 135.547L82.8707 135.36C85.9749 128.499 91.7611 115.727 89.6788 105.527C88.7433 100.945 85.6055 96.5887 80.3518 92.5681C77.8665 90.6633 74.3352 88.7778 71.135 87.6359C67.2392 86.2445 64.7252 86.2013 63.6601 87.4968C63.0603 88.2308 62.8492 89.128 63.0507 90.0972C63.8376 93.8299 71.0535 98.3783 74.4312 100.321C71.5525 102.332 70.5978 106.271 71.0008 109.74C71.4758 113.784 73.2702 116.596 77.1996 119.441C77.6554 119.772 78.2935 119.666 78.6246 119.215C78.9556 118.76 78.8549 118.121 78.3991 117.79C74.9398 115.286 73.4381 112.964 73.0351 109.505C72.6465 106.199 73.7067 102.389 76.9405 101.339C77.3339 101.209 77.6122 100.859 77.641 100.446C77.6746 100.034 77.4539 99.6449 77.0845 99.4578C73.3133 97.5483 65.6607 92.5633 65.0562 89.6798C64.9794 89.3103 65.0371 89.0465 65.2434 88.797C65.9631 87.919 73.3469 89.7757 79.1187 94.1946C83.9694 97.9081 86.8528 101.857 87.6877 105.94C89.6356 115.492 84.0317 127.876 81.0187 134.525L80.9323 134.712C79.8432 137.111 75.4771 146.865 75.4771 146.865L77.3292 147.691Z" fill="#010101"/>
<path d="M51.2037 204.177C51.5923 204.177 51.9618 203.956 52.1345 203.577C54.0824 199.278 56.0064 195.042 57.916 190.843C64.6665 175.985 71.0429 161.946 77.7023 146.823C77.9278 146.31 77.6927 145.705 77.1793 145.48C76.6659 145.254 76.0614 145.489 75.8359 146.003C69.1812 161.116 62.8049 175.15 56.0591 190.004C54.1496 194.202 52.2256 198.438 50.2777 202.737C50.0474 203.251 50.2729 203.855 50.7863 204.086C50.9206 204.148 51.0646 204.177 51.2037 204.177Z" fill="#010101"/>
<path d="M50.3559 175.75C50.7397 175.75 51.1091 175.529 51.2819 175.155L65.7954 143.686C66.0305 143.172 65.8098 142.568 65.2964 142.333C64.7878 142.093 64.1785 142.318 63.9434 142.832L49.4299 174.301C49.1948 174.814 49.4155 175.419 49.9288 175.654C50.068 175.716 50.2167 175.75 50.3559 175.75Z" fill="#010101"/>
<path d="M64.9899 110.898C65.1962 110.898 65.3977 110.888 65.5992 110.864C66.7651 110.725 67.7246 110.159 68.3675 109.238C69.8452 107.117 67.859 104.843 67.2064 104.095C66.837 103.672 66.1941 103.629 65.7671 103.999C65.3449 104.368 65.3017 105.016 65.6712 105.438C67.264 107.261 66.837 107.871 66.6978 108.072C66.386 108.523 65.9591 108.768 65.3593 108.84C63.0084 109.118 58.9253 106.58 56.7711 104.68C54.4873 102.665 51.172 98.1693 51.3831 95.9863C51.4215 95.5929 51.5703 95.3434 51.8869 95.1611C52.266 94.9356 52.9329 94.7245 54.3195 95.4586C54.8184 95.7224 55.4325 95.5305 55.6964 95.0316C55.9603 94.5326 55.7684 93.9185 55.2694 93.6546C53.5758 92.7574 52.0884 92.6758 50.8506 93.4051C49.9726 93.9232 49.4496 94.7485 49.3536 95.7944C49.013 99.3592 53.6813 104.68 55.4229 106.215C57.3276 107.895 61.641 110.898 64.9899 110.898Z" fill="#010101"/>
<path d="M68.6802 106.2C68.9632 106.2 69.2367 106.176 69.5006 106.124C70.5849 105.917 71.4197 105.279 71.9139 104.281C73.4828 101.11 69.5294 98.0585 66.0461 95.3669C64.9666 94.5321 63.9446 93.7452 63.1194 92.992C62.702 92.6129 62.0591 92.6417 61.68 93.0591C61.301 93.4765 61.3299 94.1194 61.7473 94.4985C62.6349 95.3045 63.6855 96.1202 64.7986 96.979C67.5238 99.0804 70.9159 101.7 70.0859 103.375C69.8748 103.802 69.5773 104.032 69.1167 104.118C67.0488 104.512 62.8219 101.911 60.5669 99.8817C58.0336 97.5979 54.0946 93.3086 56.1433 90.214C57.9041 87.5608 61.6849 89.4176 62.4237 89.8158C62.5965 89.9117 63.0523 90.2044 63.1626 90.2812C63.6328 90.5882 64.2661 90.4587 64.5732 89.9837C64.8802 89.5135 64.7506 88.8802 64.2756 88.5731C64.1413 88.4868 63.5944 88.1317 63.3881 88.0214C60.5862 86.51 56.5607 85.8863 54.44 89.0865C52.2906 92.325 53.9843 96.6959 59.1996 101.393C60.7781 102.818 65.3025 106.2 68.6802 106.2Z" fill="#010101"/>
<path d="M153.24 79.8137C153.244 79.8137 153.249 79.8137 153.249 79.8137C154.904 79.8089 156.531 78.8973 157.404 77.4964C158.277 76.0906 158.368 74.229 157.639 72.7465C157.39 72.2427 156.78 72.0364 156.272 72.2811C155.768 72.5306 155.557 73.1399 155.806 73.6485C156.233 74.5121 156.181 75.6012 155.672 76.4216C155.163 77.2421 154.209 77.7746 153.244 77.7746H153.24C152.275 77.7746 151.325 77.2469 150.812 76.436C150.51 75.9563 149.881 75.8171 149.406 76.1146C148.931 76.412 148.787 77.0454 149.085 77.5204C149.963 78.9117 151.589 79.8137 153.24 79.8137Z" fill="#010101"/>
<path d="M161.843 65.6309C162.034 65.6309 162.226 65.5781 162.399 65.4629C162.869 65.1559 163.004 64.5226 162.697 64.0524L162.217 63.3135C161.91 62.8433 161.276 62.709 160.806 63.016C160.336 63.3231 160.202 63.9564 160.509 64.4266L160.993 65.1703C161.185 65.4677 161.511 65.6309 161.843 65.6309Z" fill="#010101"/>
<path d="M158.64 67.0118C158.803 67.0118 158.971 66.9734 159.129 66.8871C159.624 66.6184 159.806 65.9995 159.537 65.5053L159.125 64.752C158.856 64.2579 158.237 64.0755 157.743 64.3442C157.249 64.6129 157.066 65.2318 157.335 65.726L157.748 66.4841C157.93 66.8199 158.28 67.0118 158.64 67.0118Z" fill="#010101"/>
<path d="M119.234 83.6723C119.383 83.6723 119.537 83.6387 119.681 83.5668C120.184 83.3173 120.395 82.7079 120.151 82.2042L117.349 76.4803C117.099 75.9765 116.49 75.7654 115.986 76.0101C115.482 76.2596 115.271 76.8689 115.516 77.3727L118.318 83.0966C118.496 83.4612 118.855 83.6723 119.234 83.6723Z" fill="#010101"/>
<path d="M113.098 83.1861C113.251 83.1861 113.41 83.1525 113.558 83.0757C114.062 82.8214 114.264 82.2073 114.005 81.7035L111.961 77.6877C111.706 77.1839 111.092 76.9824 110.588 77.2415C110.085 77.4958 109.888 78.1099 110.142 78.6137L112.181 82.6295C112.364 82.9798 112.724 83.1861 113.098 83.1861Z" fill="#010101"/>
<path d="M130.059 46.3236C130.496 46.3236 130.899 46.0453 131.033 45.6087L131.806 43.1234C131.974 42.5861 131.676 42.0151 131.134 41.8472C130.592 41.6793 130.026 41.9815 129.858 42.5189L129.085 45.0042C128.918 45.5416 129.22 46.1125 129.757 46.2804C129.853 46.3092 129.959 46.3236 130.059 46.3236Z" fill="#010101"/>
<path d="M94.5578 64.8911C89.5057 62.3962 86.6942 58.9417 86.6414 55.161C86.5886 51.3851 89.2946 47.8491 94.2747 45.2055C99.039 42.677 105.372 41.2328 112.113 41.1321C118.849 41.0409 125.231 42.2932 130.062 44.6825C135.114 47.1774 137.926 50.6319 137.978 54.4126C138.031 58.1885 135.325 61.7245 130.345 64.3681C125.586 66.8966 119.248 68.3407 112.507 68.4415C112.262 68.4463 112.017 68.4463 111.773 68.4463C105.305 68.4511 99.2166 67.1941 94.5578 64.8911ZM112.142 43.1808C105.718 43.2719 99.7107 44.6345 95.2295 47.0143C90.9642 49.2788 88.6373 52.1624 88.6805 55.137C88.7237 58.1069 91.1322 60.9233 95.4599 63.0631C100.008 65.3133 106.039 66.4888 112.478 66.4024C118.902 66.3112 124.909 64.9487 129.39 62.5689C133.656 60.3043 135.983 57.4208 135.939 54.4461C135.896 51.4763 133.488 48.6599 129.155 46.5201C124.775 44.3562 119.008 43.176 112.843 43.176C112.612 43.1712 112.377 43.176 112.142 43.1808Z" fill="#010101"/>
<path d="M115.447 67.1297C121.121 65.9914 124.609 59.523 123.236 52.6821C121.864 45.8413 116.152 41.2185 110.477 42.3568C104.803 43.4952 101.316 49.9636 102.688 56.8044C104.06 63.6452 109.773 68.268 115.447 67.1297Z" fill="#010101"/>
<path d="M109.182 52.2027C110.016 52.0353 110.53 51.0888 110.329 50.0886C110.128 49.0883 109.289 48.413 108.455 48.5803C107.621 48.7477 107.108 49.6942 107.309 50.6945C107.509 51.6947 108.348 52.37 109.182 52.2027Z" fill="white"/>
<path d="M126.833 45.0251C127.288 45.0251 127.701 44.718 127.821 44.2574L128.406 41.9736C128.546 41.4267 128.214 40.8701 127.667 40.731C127.121 40.5918 126.564 40.9229 126.425 41.4698L125.844 43.7536C125.705 44.3006 126.036 44.8571 126.578 44.9963C126.665 45.0155 126.746 45.0251 126.833 45.0251Z" fill="#010101"/>
<path d="M122.363 43.7896C122.858 43.7896 123.294 43.4298 123.371 42.9212L123.764 40.3591C123.851 39.8026 123.467 39.2796 122.91 39.198C122.354 39.1165 121.831 39.4955 121.749 40.0521L121.356 42.6141C121.27 43.1707 121.653 43.6936 122.21 43.7752C122.258 43.7896 122.311 43.7896 122.363 43.7896Z" fill="#010101"/>
<path d="M117.996 43.0417C118.529 43.0417 118.975 42.6291 119.013 42.0917L119.181 39.5921C119.22 39.0307 118.793 38.5461 118.231 38.5077C117.675 38.4741 117.185 38.8964 117.147 39.4577L116.979 41.9574C116.941 42.5187 117.368 43.0081 117.929 43.0417C117.948 43.0417 117.972 43.0417 117.996 43.0417Z" fill="#010101"/>
<path d="M114.151 42.4844C114.17 42.4844 114.189 42.4844 114.209 42.4844C114.77 42.4508 115.202 41.9711 115.173 41.4097L115.048 39.1019C115.015 38.5406 114.554 38.1232 113.974 38.1376C113.412 38.1712 112.98 38.6509 113.009 39.2123L113.134 41.5201C113.163 42.0622 113.614 42.4844 114.151 42.4844Z" fill="#010101"/>
<path d="M108.755 42.4964C108.774 42.4964 108.793 42.4964 108.812 42.4964C109.374 42.4628 109.806 41.983 109.772 41.4217L109.642 39.2003C109.609 38.6389 109.129 38.1975 108.563 38.2407C108.002 38.2743 107.57 38.7541 107.603 39.3202L107.733 41.5416C107.767 42.0742 108.218 42.4964 108.755 42.4964Z" fill="#010101"/>
<path d="M104.367 43.1564C104.429 43.1564 104.492 43.1516 104.559 43.1372C105.111 43.0317 105.475 42.4991 105.375 41.9474L104.866 39.251C104.76 38.6992 104.228 38.325 103.676 38.4353C103.124 38.5409 102.76 39.0735 102.86 39.6252L103.369 42.3216C103.455 42.8158 103.882 43.1564 104.367 43.1564Z" fill="#010101"/>
<path d="M99.7025 44.2358C99.8128 44.2358 99.9232 44.2166 100.034 44.183C100.566 44.0007 100.849 43.4202 100.667 42.8876L99.8512 40.5079C99.6689 39.9753 99.0884 39.6875 98.5558 39.8746C98.0233 40.0569 97.7402 40.6374 97.9225 41.17L98.7381 43.5497C98.882 43.9719 99.2803 44.2358 99.7025 44.2358Z" fill="#010101"/>
<path d="M96.162 45.7094C96.2963 45.7094 96.4354 45.6806 96.5697 45.6231C97.0879 45.3976 97.323 44.7978 97.0927 44.2797L96.0564 41.9095C95.8309 41.3962 95.2312 41.1563 94.713 41.3866C94.1949 41.6121 93.9597 42.2118 94.19 42.73L95.2264 45.1001C95.3943 45.4791 95.7686 45.7094 96.162 45.7094Z" fill="#010101"/>
<path d="M92.7423 47.5516C92.9247 47.5516 93.107 47.5036 93.2749 47.4029C93.7547 47.1102 93.9082 46.4817 93.6156 46.0019L92.1714 43.6317C91.8787 43.152 91.2503 42.9984 90.7705 43.2911C90.2907 43.5838 90.1371 44.2123 90.4297 44.6921L91.8739 47.0622C92.0658 47.3741 92.4017 47.5516 92.7423 47.5516Z" fill="#010101"/>
<path d="M60.9094 115.729C61.0581 115.729 61.2068 115.724 61.3508 115.71C62.5215 115.604 63.4954 115.072 64.1671 114.17C65.3905 112.524 64.4934 110.029 62.9149 108.575C62.5023 108.196 61.8546 108.22 61.4707 108.633C61.0869 109.045 61.1156 109.693 61.5282 110.077C62.5742 111.046 62.9244 112.418 62.5262 112.956C62.2 113.397 61.7681 113.627 61.1636 113.68C58.8126 113.891 54.8017 111.224 52.7098 109.261C50.4884 107.179 47.3122 102.583 47.5905 100.409C47.6385 100.016 47.7968 99.776 48.1182 99.5985C48.5069 99.3874 49.1786 99.1955 50.5412 99.9679C51.0306 100.246 51.6543 100.073 51.9326 99.5841C52.2109 99.0947 52.0381 98.471 51.5487 98.1927C49.8839 97.2427 48.4014 97.1132 47.1395 97.8089C46.2423 98.2983 45.7002 99.1091 45.5706 100.15C45.1196 103.701 49.6248 109.161 51.3184 110.749C53.2088 112.519 57.5413 115.729 60.9094 115.729Z" fill="#010101"/>
<path d="M56.8321 120.263C56.9377 120.263 57.0432 120.258 57.1439 120.253C58.2906 120.177 59.255 119.678 59.9267 118.814C61.1597 117.231 60.3393 114.779 58.8376 113.325C58.4298 112.932 57.7868 112.946 57.3934 113.349C57 113.752 57.0144 114.4 57.4174 114.793C58.3818 115.724 58.6984 117.068 58.3146 117.557C57.9931 117.97 57.5757 118.181 57.0048 118.219C54.7162 118.373 50.9163 115.7 48.9444 113.757C46.8477 111.694 43.8826 107.189 44.1993 105.097C44.2569 104.728 44.4056 104.507 44.7126 104.349C45.0821 104.157 45.6914 103.984 46.6798 104.704C47.1356 105.035 47.7737 104.939 48.1048 104.483C48.4358 104.027 48.3398 103.389 47.884 103.058C46.1328 101.777 44.6839 102.065 43.7771 102.535C42.8895 102.996 42.3377 103.773 42.1842 104.79C41.666 108.23 45.9121 113.632 47.5194 115.211C49.333 116.996 53.5408 120.263 56.8321 120.263Z" fill="#010101"/>
<path d="M46.7684 104.601C45.7273 103.838 45.07 104.025 44.6669 104.236C44.3263 104.409 44.1488 104.673 44.0864 105.076C43.765 107.206 46.754 111.764 48.8699 113.846C50.7266 115.67 54.5793 118.5 57.031 118.342C57.6404 118.304 58.0865 118.078 58.432 117.632C58.883 117.051 58.4848 115.718 57.6212 114.806C55.1455 113.746 52.713 111.86 51.4224 110.651C50.386 109.677 48.2845 107.24 46.9315 104.692C46.8739 104.668 46.8212 104.639 46.7684 104.601Z" fill="white"/>
<path d="M48.0686 99.4823C47.7136 99.6743 47.5313 99.9573 47.4785 100.389C47.1954 102.606 50.3957 107.25 52.6363 109.352C53.9701 110.604 56.2682 112.317 58.3985 113.214C58.4417 113.228 58.4801 113.243 58.5184 113.262C59.4828 113.655 60.4087 113.876 61.1908 113.804C61.8289 113.746 62.2895 113.502 62.6445 113.027C63.1195 112.389 62.6349 110.93 61.6561 110.004C59.2092 109.006 56.8008 107.255 55.5054 106.113C54.3731 105.115 51.9981 102.505 50.5875 99.8374C49.1913 99.0553 48.4812 99.2568 48.0686 99.4823Z" fill="white"/>
<path d="M54.3673 95.3396C52.928 94.5768 52.2179 94.8071 51.8101 95.047C51.4598 95.2533 51.2871 95.5363 51.2439 95.9682C51.0328 98.1896 54.3721 102.738 56.6751 104.767C58.695 106.547 62.8355 109.263 65.3592 108.956C65.9973 108.879 66.4484 108.62 66.7842 108.136C66.9522 107.896 67.384 107.262 65.8343 105.444C63.1523 104.408 60.4318 102.33 59.2899 101.299C57.0061 99.2403 55.4085 97.254 54.5113 95.3972C54.4681 95.3876 54.4153 95.3684 54.3673 95.3396Z" fill="white"/>
<path d="M50.2438 218.844C50.4549 218.844 50.666 218.782 50.8483 218.647C51.3041 218.311 51.4 217.673 51.0642 217.222C49.4809 215.068 48.5645 212.41 48.4926 209.738C48.4782 209.172 47.9744 208.721 47.4467 208.745C46.8853 208.759 46.4391 209.229 46.4535 209.79C46.5398 212.876 47.5906 215.946 49.4186 218.431C49.6249 218.7 49.9319 218.844 50.2438 218.844Z" fill="#010101"/>
<path d="M54.4039 214.154C54.6726 214.154 54.9413 214.049 55.1428 213.838C55.5314 213.43 55.517 212.782 55.1092 212.394C54.2264 211.554 53.6363 210.422 53.4491 209.213C53.3628 208.656 52.8399 208.277 52.2881 208.359C51.7316 208.445 51.3476 208.963 51.434 209.52C51.6835 211.175 52.4896 212.72 53.7034 213.871C53.9002 214.063 54.1544 214.154 54.4039 214.154Z" fill="#010101"/>
<path d="M185.117 73.5786L180.852 84.4314L179.945 74.6341L185.117 73.5786Z" fill="#010101"/>
<path d="M52.5212 152.58C53.9309 152.58 55.0736 151.324 55.0736 149.774C55.0736 148.223 53.9309 146.967 52.5212 146.967C51.1116 146.967 49.9688 148.223 49.9688 149.774C49.9688 151.324 51.1116 152.58 52.5212 152.58Z" fill="white"/>
<path d="M47.4274 164.652C48.8371 164.652 49.9799 163.395 49.9799 161.845C49.9799 160.295 48.8371 159.038 47.4274 159.038C46.0177 159.038 44.875 160.295 44.875 161.845C44.875 163.395 46.0177 164.652 47.4274 164.652Z" fill="white"/>
<path d="M56.1406 90.2253C57.9014 87.5721 61.6822 89.4288 62.421 89.8271C62.565 89.9038 62.8913 90.1149 63.064 90.2301C63.2415 90.9402 63.6541 91.679 64.2154 92.4227C64.0619 92.8353 63.9659 93.2671 63.9323 93.7085C63.6445 93.4686 63.3662 93.2335 63.1119 93.0032C62.6945 92.6242 62.0516 92.653 61.6726 93.0704C61.2935 93.4878 61.3224 94.1307 61.7398 94.5098C62.6274 95.3158 63.6781 96.1314 64.7912 96.9902C64.8679 97.0526 65.6596 97.7675 66.0579 97.9786C68.4472 99.8642 70.7789 101.966 70.0784 103.386C69.8673 103.813 69.5698 104.043 69.1092 104.129C67.0414 104.523 62.8144 101.922 60.5594 99.893C58.0309 97.6044 54.0919 93.3151 56.1406 90.2253Z" fill="white"/>
<path d="M191.202 272.988C191.634 272.988 192.032 272.715 192.172 272.283C203.044 238.823 210.509 199.384 212.649 164.082C212.663 163.818 212.577 163.554 212.404 163.352C209.099 159.519 205.937 156.659 202.885 153.896C200.155 151.425 197.569 149.088 194.94 146.138C198.558 141.287 202.305 136.676 205.937 132.214C206.225 131.859 206.263 131.336 206.004 130.962C201.22 124.115 196.096 117.365 191.145 110.835C190.804 110.389 190.161 110.293 189.71 110.633C189.259 110.974 189.173 111.607 189.509 112.058L189.514 112.068C194.302 118.382 199.249 124.902 203.888 131.504C200.208 136.024 196.442 140.673 192.805 145.591C192.522 145.975 192.541 146.507 192.853 146.867C195.751 150.201 198.678 152.85 201.513 155.412C204.435 158.056 207.458 160.79 210.586 164.374C208.422 199.408 201.004 238.487 190.228 271.654C190.056 272.192 190.348 272.768 190.881 272.94C190.996 272.969 191.102 272.988 191.202 272.988Z" fill="#010101"/>
<path d="M148.583 272.617C148.722 272.617 148.861 272.588 149 272.53C149.514 272.3 149.744 271.696 149.519 271.182C135.984 240.845 124.646 202.41 118.385 165.668C121.106 161.733 123.816 158.663 126.436 155.693C128.974 152.819 131.599 149.844 134.117 146.188C134.386 145.795 134.353 145.272 134.031 144.922C129.862 140.364 125.606 136.103 121.48 131.992C125.381 124.862 129.593 117.785 133.671 110.934C133.959 110.449 133.801 109.825 133.316 109.533C132.832 109.245 132.208 109.403 131.915 109.888C127.698 116.969 123.342 124.296 119.321 131.684C119.105 132.083 119.177 132.577 119.498 132.894C123.596 136.977 127.832 141.199 131.973 145.694C129.675 148.938 127.357 151.567 124.906 154.34C122.171 157.439 119.34 160.649 116.466 164.852C116.317 165.068 116.26 165.337 116.303 165.596C122.579 202.626 134.007 241.411 147.652 272.012C147.82 272.391 148.194 272.617 148.583 272.617Z" fill="#010101"/>
<path d="M151.098 271.46C150.517 260.962 145.571 171.731 142.5 116.254C152.019 135.546 174.79 131.4 180.998 115.054L181.214 118.969C184.433 177.067 189.697 271.8 189.697 271.8C189.716 272.15 189.913 272.448 190.196 272.616L150.393 272.481C150.82 272.342 151.122 271.935 151.098 271.46Z" fill="#010101"/>
</svg>
