<svg width="24" height="24" viewBox="0 0 24 24" fill="none" xmlns="http://www.w3.org/2000/svg">
<g clip-path="url(#clip0_4201_76586)">
<path d="M23.7078 22.2928L17.7388 16.3238C19.3654 14.3344 20.1651 11.7959 19.9726 9.23334C19.7801 6.67081 18.61 4.28031 16.7043 2.5563C14.7987 0.832293 12.3034 -0.0933258 9.7344 -0.029094C7.16545 0.0351379 4.71946 1.08431 2.90237 2.9014C1.08528 4.71849 0.0361144 7.16447 -0.0281174 9.73342C-0.0923492 12.3024 0.833269 14.7977 2.55728 16.7034C4.28129 18.609 6.67179 19.7791 9.23432 19.9716C11.7969 20.1642 14.3354 19.3644 16.3248 17.7378L22.2938 23.7068C22.4824 23.8889 22.735 23.9897 22.9972 23.9875C23.2594 23.9852 23.5102 23.88 23.6956 23.6946C23.881 23.5092 23.9862 23.2584 23.9884 22.9962C23.9907 22.734 23.8899 22.4814 23.7078 22.2928ZM10.0008 17.9998C8.41851 17.9998 6.87179 17.5306 5.5562 16.6515C4.2406 15.7725 3.21522 14.5231 2.60972 13.0613C2.00422 11.5994 1.84579 9.99091 2.15448 8.43906C2.46316 6.88721 3.22508 5.46175 4.3439 4.34293C5.46272 3.22411 6.88819 2.46218 8.44004 2.1535C9.99189 1.84482 11.6004 2.00324 13.0622 2.60875C14.524 3.21425 15.7735 4.23963 16.6525 5.55522C17.5316 6.87081 18.0008 8.41753 18.0008 9.99978C17.9984 12.1208 17.1548 14.1542 15.655 15.654C14.1552 17.1538 12.1218 17.9974 10.0008 17.9998Z" fill="#6D6D6D"/>
</g>
<defs>
<clipPath id="clip0_4201_76586">
<rect width="24" height="24" fill="white"/>
</clipPath>
</defs>
</svg>
