<svg width="345" height="199" viewBox="0 0 345 199" fill="none" xmlns="http://www.w3.org/2000/svg">
<g filter="url(#filter0_d_7252_6213)">
<path d="M295 165.5H50C47.3673 165.5 44.8136 164.984 42.4099 163.968C40.0879 162.986 38.0024 161.58 36.2114 159.789C34.4204 157.998 33.0143 155.912 32.0322 153.59C31.0155 151.186 30.5 148.633 30.5 146V47C30.5 44.3673 31.0155 41.8136 32.0322 39.4099C33.0143 37.0879 34.4204 35.0024 36.2114 33.2114C38.0024 31.4204 40.0879 30.0143 42.4099 29.0322C44.8136 28.0155 47.3673 27.5 50 27.5H295C297.633 27.5 300.186 28.0155 302.59 29.0322C304.912 30.0143 306.998 31.4204 308.789 33.2114C310.58 35.0024 311.986 37.0879 312.968 39.4099C313.984 41.8136 314.5 44.3673 314.5 47V146C314.5 148.633 313.984 151.186 312.968 153.59C311.986 155.912 310.58 157.998 308.789 159.789C306.998 161.58 304.912 162.986 302.59 163.968C300.186 164.984 297.633 165.5 295 165.5Z" fill="#B4E3C3"/>
<path d="M50 28C47.4346 28 44.9464 28.5022 42.6046 29.4927C40.3423 30.4496 38.3102 31.8197 36.565 33.565C34.8197 35.3102 33.4496 37.3423 32.4927 39.6046C31.5022 41.9464 31 44.4346 31 47V146C31 148.565 31.5022 151.054 32.4927 153.395C33.4496 155.658 34.8197 157.69 36.565 159.435C38.3102 161.18 40.3423 162.55 42.6046 163.507C44.9464 164.498 47.4346 165 50 165H295C297.565 165 300.054 164.498 302.395 163.507C304.658 162.55 306.69 161.18 308.435 159.435C310.18 157.69 311.55 155.658 312.507 153.395C313.498 151.054 314 148.565 314 146V47C314 44.4346 313.498 41.9464 312.507 39.6046C311.55 37.3423 310.18 35.3102 308.435 33.565C306.69 31.8197 304.658 30.4496 302.395 29.4927C300.054 28.5022 297.565 28 295 28H50ZM50 27H295C306.046 27 315 35.9543 315 47V146C315 157.046 306.046 166 295 166H50C38.9543 166 30 157.046 30 146V47C30 35.9543 38.9543 27 50 27Z" fill="#F5FBFF"/>
</g>
<g filter="url(#filter1_d_7252_6213)">
<path d="M259 75H86C73.8497 75 64 84.8497 64 97C64 109.15 73.8497 119 86 119H259C271.15 119 281 109.15 281 97C281 84.8497 271.15 75 259 75Z" fill="white"/>
</g>
<path d="M260 119C272.15 119 282 109.15 282 97C282 84.8497 272.15 75 260 75C247.85 75 238 84.8497 238 97C238 109.15 247.85 119 260 119Z" fill="#213C89"/>
<path d="M267.604 103.985L263.404 99.7847C264.346 98.6193 264.806 97.1365 264.688 95.6422C264.569 94.1479 263.882 92.7559 262.768 91.7532C261.654 90.7505 260.197 90.2136 258.699 90.253C257.2 90.2925 255.774 90.9053 254.714 91.9653C253.654 93.0252 253.041 94.4514 253.002 95.9499C252.963 97.4484 253.5 98.9049 254.502 100.019C255.505 101.133 256.897 101.82 258.391 101.939C259.886 102.057 261.368 101.597 262.534 100.655L266.734 104.855C266.849 104.97 267.006 105.035 267.169 105.035C267.332 105.035 267.488 104.97 267.604 104.855C267.719 104.739 267.784 104.583 267.784 104.42C267.784 104.257 267.719 104.1 267.604 103.985ZM258.867 100.73C257.955 100.73 257.063 100.459 256.304 99.9525C255.546 99.4457 254.955 98.7254 254.606 97.8827C254.257 97.04 254.165 96.1126 254.343 95.218C254.521 94.3234 254.961 93.5016 255.606 92.8566C256.251 92.2116 257.072 91.7723 257.967 91.5944C258.862 91.4164 259.789 91.5077 260.632 91.8568C261.474 92.2059 262.195 92.797 262.702 93.5555C263.208 94.3139 263.479 95.2056 263.479 96.1178C263.477 97.3405 262.991 98.5128 262.126 99.3775C261.262 100.242 260.09 100.728 258.867 100.73Z" fill="white"/>
<path d="M89.326 102.363C88.5793 102.363 87.8653 102.251 87.184 102.027C86.5027 101.794 85.966 101.495 85.574 101.131L86.092 100.039C86.4653 100.366 86.9413 100.636 87.52 100.851C88.0987 101.066 88.7007 101.173 89.326 101.173C89.8953 101.173 90.3573 101.108 90.712 100.977C91.0667 100.846 91.328 100.669 91.496 100.445C91.664 100.212 91.748 99.9503 91.748 99.661C91.748 99.325 91.636 99.0543 91.412 98.849C91.1973 98.6436 90.9127 98.4803 90.558 98.359C90.2127 98.2283 89.83 98.1163 89.41 98.023C88.99 97.9296 88.5653 97.8223 88.136 97.701C87.716 97.5703 87.3287 97.407 86.974 97.211C86.6287 97.015 86.3487 96.7536 86.134 96.427C85.9193 96.091 85.812 95.6616 85.812 95.139C85.812 94.635 85.9427 94.173 86.204 93.753C86.4747 93.3236 86.8853 92.983 87.436 92.731C87.996 92.4696 88.7053 92.339 89.564 92.339C90.1333 92.339 90.698 92.4136 91.258 92.563C91.818 92.7123 92.3033 92.927 92.714 93.207L92.252 94.327C91.832 94.047 91.3887 93.8463 90.922 93.725C90.4553 93.5943 90.0027 93.529 89.564 93.529C89.0133 93.529 88.5607 93.599 88.206 93.739C87.8513 93.879 87.59 94.0656 87.422 94.299C87.2633 94.5323 87.184 94.7936 87.184 95.083C87.184 95.4283 87.2913 95.7036 87.506 95.909C87.73 96.1143 88.0147 96.2776 88.36 96.399C88.7147 96.5203 89.102 96.6323 89.522 96.735C89.942 96.8283 90.362 96.9356 90.782 97.057C91.2113 97.1783 91.5987 97.337 91.944 97.533C92.2987 97.729 92.5833 97.9903 92.798 98.317C93.0127 98.6436 93.12 99.0636 93.12 99.577C93.12 100.072 92.9847 100.534 92.714 100.963C92.4433 101.383 92.0233 101.724 91.454 101.985C90.894 102.237 90.1847 102.363 89.326 102.363ZM98.2733 102.335C97.48 102.335 96.78 102.172 96.1733 101.845C95.576 101.518 95.1093 101.07 94.7733 100.501C94.4466 99.9316 94.2833 99.2783 94.2833 98.541C94.2833 97.8036 94.442 97.1503 94.7593 96.581C95.086 96.0116 95.5293 95.5683 96.0893 95.251C96.6586 94.9243 97.298 94.761 98.0073 94.761C98.726 94.761 99.3606 94.9196 99.9113 95.237C100.462 95.5543 100.891 96.0023 101.199 96.581C101.517 97.1503 101.675 97.8176 101.675 98.583C101.675 98.639 101.671 98.7043 101.661 98.779C101.661 98.8536 101.657 98.9236 101.647 98.989H95.3333V98.023H100.947L100.401 98.359C100.411 97.883 100.313 97.4583 100.107 97.085C99.902 96.7116 99.6173 96.4223 99.2533 96.217C98.8986 96.0023 98.4833 95.895 98.0073 95.895C97.5406 95.895 97.1253 96.0023 96.7613 96.217C96.3973 96.4223 96.1126 96.7163 95.9073 97.099C95.702 97.4723 95.5993 97.9016 95.5993 98.387V98.611C95.5993 99.1056 95.7113 99.549 95.9353 99.941C96.1686 100.324 96.4906 100.622 96.9013 100.837C97.312 101.052 97.7833 101.159 98.3153 101.159C98.754 101.159 99.1506 101.084 99.5053 100.935C99.8693 100.786 100.187 100.562 100.457 100.263L101.199 101.131C100.863 101.523 100.443 101.822 99.9393 102.027C99.4446 102.232 98.8893 102.335 98.2733 102.335ZM107.943 102.251V100.683L107.873 100.389V97.715C107.873 97.1456 107.705 96.707 107.369 96.399C107.042 96.0816 106.547 95.923 105.885 95.923C105.446 95.923 105.017 95.9976 104.597 96.147C104.177 96.287 103.822 96.4783 103.533 96.721L102.973 95.713C103.355 95.405 103.813 95.1716 104.345 95.013C104.886 94.845 105.451 94.761 106.039 94.761C107.056 94.761 107.84 95.0083 108.391 95.503C108.941 95.9976 109.217 96.7536 109.217 97.771V102.251H107.943ZM105.507 102.335C104.956 102.335 104.471 102.242 104.051 102.055C103.64 101.868 103.323 101.612 103.099 101.285C102.875 100.949 102.763 100.571 102.763 100.151C102.763 99.7496 102.856 99.3856 103.043 99.059C103.239 98.7323 103.551 98.471 103.981 98.275C104.419 98.079 105.007 97.981 105.745 97.981H108.097V98.947H105.801C105.129 98.947 104.676 99.059 104.443 99.283C104.209 99.507 104.093 99.7776 104.093 100.095C104.093 100.459 104.237 100.753 104.527 100.977C104.816 101.192 105.217 101.299 105.731 101.299C106.235 101.299 106.673 101.187 107.047 100.963C107.429 100.739 107.705 100.412 107.873 99.983L108.139 100.907C107.961 101.346 107.649 101.696 107.201 101.957C106.753 102.209 106.188 102.335 105.507 102.335ZM111.704 102.251V94.831H112.992V96.847L112.866 96.343C113.071 95.8296 113.416 95.4376 113.902 95.167C114.387 94.8963 114.984 94.761 115.694 94.761V96.063C115.638 96.0536 115.582 96.049 115.526 96.049C115.479 96.049 115.432 96.049 115.386 96.049C114.667 96.049 114.098 96.2636 113.678 96.693C113.258 97.1223 113.048 97.743 113.048 98.555V102.251H111.704ZM120.516 102.335C119.76 102.335 119.083 102.172 118.486 101.845C117.898 101.518 117.436 101.07 117.1 100.501C116.764 99.9316 116.596 99.2783 116.596 98.541C116.596 97.8036 116.764 97.1503 117.1 96.581C117.436 96.0116 117.898 95.5683 118.486 95.251C119.083 94.9243 119.76 94.761 120.516 94.761C121.188 94.761 121.785 94.8963 122.308 95.167C122.84 95.4283 123.25 95.8203 123.54 96.343L122.518 97.001C122.275 96.637 121.976 96.371 121.622 96.203C121.276 96.0256 120.903 95.937 120.502 95.937C120.016 95.937 119.582 96.0443 119.2 96.259C118.817 96.4736 118.514 96.777 118.29 97.169C118.066 97.5516 117.954 98.009 117.954 98.541C117.954 99.073 118.066 99.535 118.29 99.927C118.514 100.319 118.817 100.622 119.2 100.837C119.582 101.052 120.016 101.159 120.502 101.159C120.903 101.159 121.276 101.075 121.622 100.907C121.976 100.73 122.275 100.459 122.518 100.095L123.54 100.739C123.25 101.252 122.84 101.649 122.308 101.929C121.785 102.2 121.188 102.335 120.516 102.335ZM129.146 94.761C129.753 94.761 130.285 94.8776 130.742 95.111C131.209 95.3443 131.573 95.699 131.834 96.175C132.095 96.651 132.226 97.253 132.226 97.981V102.251H130.882V98.135C130.882 97.4163 130.705 96.875 130.35 96.511C130.005 96.147 129.515 95.965 128.88 95.965C128.404 95.965 127.989 96.0583 127.634 96.245C127.279 96.4316 127.004 96.707 126.808 97.071C126.621 97.435 126.528 97.8876 126.528 98.429V102.251H125.184V91.863H126.528V96.833L126.262 96.301C126.505 95.8156 126.878 95.4376 127.382 95.167C127.886 94.8963 128.474 94.761 129.146 94.761ZM138.669 102.251V92.451H142.799C143.845 92.451 144.764 92.6563 145.557 93.067C146.36 93.4776 146.981 94.0516 147.419 94.789C147.867 95.5263 148.091 96.3803 148.091 97.351C148.091 98.3216 147.867 99.1756 147.419 99.913C146.981 100.65 146.36 101.224 145.557 101.635C144.764 102.046 143.845 102.251 142.799 102.251H138.669ZM140.069 101.033H142.715C143.527 101.033 144.227 100.879 144.815 100.571C145.413 100.263 145.875 99.8336 146.201 99.283C146.528 98.723 146.691 98.079 146.691 97.351C146.691 96.6136 146.528 95.9696 146.201 95.419C145.875 94.8683 145.413 94.439 144.815 94.131C144.227 93.823 143.527 93.669 142.715 93.669H140.069V101.033ZM153.218 102.335C152.471 102.335 151.808 102.172 151.23 101.845C150.651 101.518 150.194 101.07 149.858 100.501C149.522 99.9223 149.354 99.269 149.354 98.541C149.354 97.8036 149.522 97.1503 149.858 96.581C150.194 96.0116 150.651 95.5683 151.23 95.251C151.808 94.9243 152.471 94.761 153.218 94.761C153.955 94.761 154.613 94.9243 155.192 95.251C155.78 95.5683 156.237 96.0116 156.564 96.581C156.9 97.141 157.068 97.7943 157.068 98.541C157.068 99.2783 156.9 99.9316 156.564 100.501C156.237 101.07 155.78 101.518 155.192 101.845C154.613 102.172 153.955 102.335 153.218 102.335ZM153.218 101.159C153.694 101.159 154.118 101.052 154.492 100.837C154.874 100.622 155.173 100.319 155.388 99.927C155.602 99.5256 155.71 99.0636 155.71 98.541C155.71 98.009 155.602 97.5516 155.388 97.169C155.173 96.777 154.874 96.4736 154.492 96.259C154.118 96.0443 153.694 95.937 153.218 95.937C152.742 95.937 152.317 96.0443 151.944 96.259C151.57 96.4736 151.272 96.777 151.048 97.169C150.824 97.5516 150.712 98.009 150.712 98.541C150.712 99.0636 150.824 99.5256 151.048 99.927C151.272 100.319 151.57 100.622 151.944 100.837C152.317 101.052 152.742 101.159 153.218 101.159ZM162.16 102.335C161.404 102.335 160.728 102.172 160.13 101.845C159.542 101.518 159.08 101.07 158.744 100.501C158.408 99.9316 158.24 99.2783 158.24 98.541C158.24 97.8036 158.408 97.1503 158.744 96.581C159.08 96.0116 159.542 95.5683 160.13 95.251C160.728 94.9243 161.404 94.761 162.16 94.761C162.832 94.761 163.43 94.8963 163.952 95.167C164.484 95.4283 164.895 95.8203 165.184 96.343L164.162 97.001C163.92 96.637 163.621 96.371 163.266 96.203C162.921 96.0256 162.548 95.937 162.146 95.937C161.661 95.937 161.227 96.0443 160.844 96.259C160.462 96.4736 160.158 96.777 159.934 97.169C159.71 97.5516 159.598 98.009 159.598 98.541C159.598 99.073 159.71 99.535 159.934 99.927C160.158 100.319 160.462 100.622 160.844 100.837C161.227 101.052 161.661 101.159 162.146 101.159C162.548 101.159 162.921 101.075 163.266 100.907C163.621 100.73 163.92 100.459 164.162 100.095L165.184 100.739C164.895 101.252 164.484 101.649 163.952 101.929C163.43 102.2 162.832 102.335 162.16 102.335ZM169.568 102.335C168.821 102.335 168.243 102.134 167.832 101.733C167.421 101.332 167.216 100.758 167.216 100.011V93.207H168.56V99.955C168.56 100.356 168.658 100.664 168.854 100.879C169.059 101.094 169.349 101.201 169.722 101.201C170.142 101.201 170.492 101.084 170.772 100.851L171.192 101.817C170.987 101.994 170.739 102.125 170.45 102.209C170.17 102.293 169.876 102.335 169.568 102.335ZM165.956 95.937V94.831H170.688V95.937H165.956ZM175.749 102.335C175.002 102.335 174.34 102.172 173.761 101.845C173.182 101.518 172.725 101.07 172.389 100.501C172.053 99.9223 171.885 99.269 171.885 98.541C171.885 97.8036 172.053 97.1503 172.389 96.581C172.725 96.0116 173.182 95.5683 173.761 95.251C174.34 94.9243 175.002 94.761 175.749 94.761C176.486 94.761 177.144 94.9243 177.723 95.251C178.311 95.5683 178.768 96.0116 179.095 96.581C179.431 97.141 179.599 97.7943 179.599 98.541C179.599 99.2783 179.431 99.9316 179.095 100.501C178.768 101.07 178.311 101.518 177.723 101.845C177.144 102.172 176.486 102.335 175.749 102.335ZM175.749 101.159C176.225 101.159 176.65 101.052 177.023 100.837C177.406 100.622 177.704 100.319 177.919 99.927C178.134 99.5256 178.241 99.0636 178.241 98.541C178.241 98.009 178.134 97.5516 177.919 97.169C177.704 96.777 177.406 96.4736 177.023 96.259C176.65 96.0443 176.225 95.937 175.749 95.937C175.273 95.937 174.848 96.0443 174.475 96.259C174.102 96.4736 173.803 96.777 173.579 97.169C173.355 97.5516 173.243 98.009 173.243 98.541C173.243 99.0636 173.355 99.5256 173.579 99.927C173.803 100.319 174.102 100.622 174.475 100.837C174.848 101.052 175.273 101.159 175.749 101.159ZM181.458 102.251V94.831H182.746V96.847L182.62 96.343C182.825 95.8296 183.17 95.4376 183.656 95.167C184.141 94.8963 184.738 94.761 185.448 94.761V96.063C185.392 96.0536 185.336 96.049 185.28 96.049C185.233 96.049 185.186 96.049 185.14 96.049C184.421 96.049 183.852 96.2636 183.432 96.693C183.012 97.1223 182.802 97.743 182.802 98.555V102.251H181.458Z" fill="#6D6D6D"/>
<defs>
<filter id="filter0_d_7252_6213" x="0" y="0" width="345" height="199" filterUnits="userSpaceOnUse" color-interpolation-filters="sRGB">
<feFlood flood-opacity="0" result="BackgroundImageFix"/>
<feColorMatrix in="SourceAlpha" type="matrix" values="0 0 0 0 0 0 0 0 0 0 0 0 0 0 0 0 0 0 127 0" result="hardAlpha"/>
<feOffset dy="3"/>
<feGaussianBlur stdDeviation="15"/>
<feColorMatrix type="matrix" values="0 0 0 0 0 0 0 0 0 0 0 0 0 0 0 0 0 0 0.102 0"/>
<feBlend mode="normal" in2="BackgroundImageFix" result="effect1_dropShadow_7252_6213"/>
<feBlend mode="normal" in="SourceGraphic" in2="effect1_dropShadow_7252_6213" result="shape"/>
</filter>
<filter id="filter1_d_7252_6213" x="44" y="55" width="257" height="84" filterUnits="userSpaceOnUse" color-interpolation-filters="sRGB">
<feFlood flood-opacity="0" result="BackgroundImageFix"/>
<feColorMatrix in="SourceAlpha" type="matrix" values="0 0 0 0 0 0 0 0 0 0 0 0 0 0 0 0 0 0 127 0" result="hardAlpha"/>
<feOffset/>
<feGaussianBlur stdDeviation="10"/>
<feColorMatrix type="matrix" values="0 0 0 0 0 0 0 0 0 0 0 0 0 0 0 0 0 0 0.059 0"/>
<feBlend mode="normal" in2="BackgroundImageFix" result="effect1_dropShadow_7252_6213"/>
<feBlend mode="normal" in="SourceGraphic" in2="effect1_dropShadow_7252_6213" result="shape"/>
</filter>
</defs>
</svg>
