<svg width="281" height="227" viewBox="0 0 281 227" fill="none" xmlns="http://www.w3.org/2000/svg">
<path d="M149.496 35.8926C146.054 34.6331 142.724 33.1764 139.434 31.4731C122.972 22.7955 110.437 13.6293 91.012 14.4764C73.8553 15.2474 56.8644 22.2218 44.696 34.4718C34.4011 44.8123 27.6738 58.2411 23.3264 72.1899C16.8008 93.2386 13.8382 116.726 14.8153 138.706C15.743 158.863 23.6132 177.926 39.3133 191.028C73.5057 219.544 128.086 225.057 170.83 218.813C202.589 214.188 233.783 199.871 255.565 174.766C268.656 159.679 281.439 137.815 279.942 117.416C278.396 96.5285 274.057 77.9496 256.658 64.2025C240.559 51.4685 219.342 47.6541 198.99 45.1799C182.353 43.1091 165.156 41.6075 149.496 35.8926Z" fill="#B89AC9"/>
<path d="M124.522 77.4482C124.522 77.4482 117.49 75.7225 113.654 70.5769C112.421 68.923 111.789 66.897 111.789 64.8307V64.3242C111.789 62.4237 112.439 60.5546 113.725 59.1472C114.917 57.8428 116.755 56.6685 119.502 56.7268C121.448 56.7671 123.308 57.5022 124.831 58.7124C126.373 59.9405 128.87 62.1234 132.303 65.7271C132.737 66.1798 133.334 66.4488 133.961 66.4667C134.458 66.4801 134.943 66.2919 135.288 65.9288C135.852 65.3327 136.668 64.1045 137.703 61.5721C137.703 61.5721 142.521 51.4018 150.791 49.8555C150.791 49.8555 154.416 49.0576 164.451 48.708L164.891 60.1377C164.926 61.1104 165.025 62.083 165.191 63.0422C165.594 65.382 166.54 69.5774 168.422 72.3339C169.229 73.5173 169.951 74.7544 170.475 76.0856C170.533 76.238 170.596 76.3949 170.654 76.5562C171.156 77.9412 171.389 79.4159 171.389 80.8906C171.389 83.2975 170.376 85.6059 168.557 87.1747C166.67 88.8017 163.689 90.4736 159.19 90.9398C159.19 90.9398 151.893 91.2042 149.285 90.5857L149.863 105.718C149.863 105.718 142.253 114.817 128.457 112.163C128.457 112.163 118.584 110.706 112.305 103.517C112.309 103.508 117.979 92.0379 124.522 77.4482C124.522 77.4482 124.876 77.0493 128.592 76.9596L124.522 77.4482Z" fill="white"/>
<path d="M124.522 77.4482C124.522 77.4482 117.49 75.7225 113.654 70.5769C112.421 68.923 111.789 66.897 111.789 64.8307V64.3242C111.789 62.4237 112.439 60.5546 113.725 59.1472C114.917 57.8428 116.755 56.6685 119.502 56.7268C121.448 56.7671 123.308 57.5022 124.831 58.7124C126.373 59.9405 128.87 62.1234 132.303 65.7271C132.737 66.1798 133.334 66.4488 133.961 66.4667C134.458 66.4801 134.943 66.2919 135.288 65.9288C135.852 65.3327 136.668 64.1045 137.703 61.5721C137.703 61.5721 142.521 51.4018 150.791 49.8555C150.791 49.8555 154.416 49.0576 164.451 48.708L164.891 60.1377C164.926 61.1104 165.025 62.083 165.191 63.0422C165.594 65.382 166.54 69.5774 168.422 72.3339C169.229 73.5173 169.951 74.7544 170.475 76.0856C170.533 76.238 170.596 76.3949 170.654 76.5562C171.156 77.9412 171.389 79.4159 171.389 80.8906C171.389 83.2975 170.376 85.6059 168.557 87.1747C166.67 88.8017 163.689 90.4736 159.19 90.9398C159.19 90.9398 151.893 91.2042 149.285 90.5857L149.863 105.718C149.863 105.718 142.253 114.817 128.457 112.163C128.457 112.163 118.584 110.706 112.305 103.517C112.309 103.508 117.979 92.0379 124.522 77.4482ZM124.522 77.4482C124.522 77.4482 124.876 77.0493 128.592 76.9596" stroke="black" stroke-width="0.508435" stroke-miterlimit="10"/>
<path d="M185.695 215.923C185.69 217.362 136.587 226.295 71.1555 218.675C71.1555 218.675 94.2776 211.96 121.205 167.913L112.806 165.35L67.4445 177.819L55.5048 177.29L18.1885 162.521C18.1885 162.521 2.18363 157.125 0.328125 163.938C0.328125 163.938 35.6096 115.386 76.8161 99.2946C76.8161 99.2946 98.038 91.1593 112.716 103.01C112.716 103.01 129.25 119.106 148.97 105.485C148.97 105.485 158.933 97.6451 176.027 99.4111C176.027 99.4111 199.728 98.2323 229.967 145.811L219.533 162.172C219.533 162.172 189.469 180.477 184.87 197.456L185.695 215.923Z" fill="#3C55A5"/>
<path d="M183.076 193.736C183.076 193.736 171.759 183.714 166.336 164.14" stroke="white" stroke-width="0.508435" stroke-miterlimit="10"/>
<path d="M66.851 161.62C66.851 161.62 63.3238 165.067 61.8672 171.535" stroke="white" stroke-width="0.508435" stroke-miterlimit="10"/>
<path d="M111.789 102.418C111.789 102.418 113.676 131.777 124.168 130.835C124.168 130.835 132.02 131.772 133.822 111.557C133.827 111.526 133.871 111.517 133.88 111.548C134.32 113.296 138.273 128.101 146.927 129.657C146.927 129.657 156.411 130.692 150.634 104.516" stroke="white" stroke-width="0.508435" stroke-miterlimit="10"/>
<path d="M133.836 111.383L136.314 133.664" stroke="white" stroke-width="0.508435" stroke-miterlimit="10"/>
<path d="M123.047 57.3141C123.047 57.3141 128.766 61.384 133.423 66.8658L134.189 66.57L135.484 65.92L136.309 65.0953L137.604 62.6794L139.433 59.1429L141.615 56.1936C141.615 56.1936 144.506 52.8901 144.977 52.7153C145.447 52.5405 147.393 49.5329 153.994 49.1206H161.067H164.661C164.661 49.1206 169.318 47.4846 170.546 42.4913C170.725 41.7562 170.793 41.0032 170.793 40.2457V37.2202C170.793 35.5349 170.38 33.863 169.502 32.4242C168.435 30.6806 166.49 28.8474 162.954 28.1302C162.954 28.1302 154.761 26.1266 151.991 35.7366H150.987C150.987 35.7366 151.045 31.1378 155.231 28.3678C155.231 28.3678 153.457 22.7918 146.563 22.8411L144.968 22.9129C143.023 22.998 141.122 23.6659 139.63 24.9209C138.411 25.9473 137.273 27.4892 136.838 29.7841C136.838 29.7841 133.257 26.911 128.833 27.9733C128.833 27.9733 119.905 28.7487 119.089 37.2471C119.067 37.4578 119.062 37.6729 119.062 37.8881C119.062 40.1023 119.578 42.2762 120.51 44.2842C121.666 46.7495 123.074 51.0569 123.047 57.3141Z" fill="black"/>
<path d="M128.457 70.5767C128.457 70.5767 128.044 63.3827 118.789 62.6162" stroke="black" stroke-width="0.508435" stroke-miterlimit="10"/>
<path d="M149.535 97.1702V90.0076C149.535 90.0076 142.991 88.0623 138.922 84.082V88.1519C138.926 88.1474 138.926 95.579 149.535 97.1702Z" fill="black"/>
<path d="M153.969 69.3125C153.969 69.3125 154.498 77.1833 161.485 73.2031" stroke="black" stroke-width="0.508435" stroke-miterlimit="10"/>
<path d="M160.362 67.3944L161.617 66.229C161.908 65.96 162.074 65.579 162.074 65.1801C162.074 64.5167 161.836 63.8758 161.406 63.3738L159.188 60.792" stroke="black" stroke-width="0.508435" stroke-miterlimit="10"/>
<path d="M146.008 61.0879C146.008 61.0879 151.005 60.8682 154.232 58.3447C154.232 58.3447 155.639 58.8602 155.308 60.4738C155.079 61.5764 154.192 62.4415 153.094 62.6746C152.784 62.7418 152.426 62.7822 152.018 62.7777C151.534 62.7732 151.108 62.827 150.57 62.8046C149.36 62.7508 146.953 62.8135 146.008 61.0879Z" fill="black"/>
<path d="M158.961 60.5862C158.961 59.3491 159.965 58.3496 161.197 58.3496H164.218C164.218 58.3496 164.81 59.9542 162.968 60.7118C162.417 60.9403 161.802 60.9897 161.211 60.909L158.961 60.5862Z" fill="black"/>
<path d="M144.281 57.681C144.281 57.681 143.572 53.7904 147.288 51.4013C147.288 51.4013 152.769 49.1468 154.36 52.1992C154.36 52.1992 155.163 53.0015 151.72 54.6599C150.497 55.2516 149.318 55.9284 148.175 56.659C146.795 57.542 144.962 58.4698 144.281 57.681Z" fill="black"/>
<path d="M164.846 53.701C164.846 53.701 159.23 53.4366 158.612 51.5765C158.612 51.5765 158.347 48.6137 163.255 49.1023L164.846 49.2367V53.701Z" fill="black"/>
<path d="M17.6757 162.064C17.6757 162.064 1.26754 156.901 0.120174 164.682C0.120174 164.682 -1.51127 171.611 12.5798 175.632C12.5798 175.636 14.7894 168.182 17.6757 162.064Z" fill="black"/>
<path d="M126.367 125.09L154.254 155.153L158.422 151.397L130.361 121.393L126.367 125.09Z" fill="#D7C6E0"/>
<path d="M126.389 125.117L130.459 121.5L128.433 119.375C127.936 118.851 127.107 118.833 126.587 119.335L124.556 121.285C124.032 121.787 124.023 122.62 124.53 123.136L126.389 125.117Z" fill="#222222"/>
<path d="M154.234 155.121L156.417 153.207L158.425 151.396L159.066 154.108L159.64 156.816L157.013 155.95L154.234 155.121Z" fill="white"/>
<path d="M157.25 156.026L158.182 155.188L159.119 154.354L159.379 155.583L159.639 156.815L158.447 156.421L157.25 156.026Z" fill="#222222"/>
<path d="M237.207 26.7456C237.207 29.9235 236.001 32.9132 233.805 35.1632C231.609 37.4178 228.687 38.6549 225.581 38.6549C225.375 38.6549 225.159 38.6504 224.949 38.637C224.613 40.4971 223.671 42.1914 222.287 43.4554C220.772 44.827 218.831 45.5845 216.81 45.5845C215.084 45.5845 213.43 45.0466 212.032 44.0247C210.858 43.1686 209.934 42.0345 209.325 40.7168C207.021 43.0475 203.866 44.3743 200.549 44.3743C197.439 44.3743 194.472 43.2179 192.2 41.1247C189.999 39.0987 188.636 36.3735 188.345 33.4286C186.086 32.2274 184.181 30.4479 182.819 28.2785C181.371 25.9702 180.609 23.3032 180.609 20.5646C180.609 16.674 182.124 13.0209 184.872 10.2688C187.624 7.52122 191.276 6.00622 195.167 6.00622C196.112 6.00622 197.058 6.10034 197.986 6.27963C199.079 4.44639 200.608 2.90898 202.409 1.81531C204.368 0.627516 206.609 0 208.895 0C210.961 0 213.014 0.519944 214.829 1.50156C216.456 2.38008 217.894 3.62614 219.019 5.12322C220.628 4.04299 222.484 3.47374 224.424 3.47374C229.856 3.47374 234.28 8.00082 234.28 13.5678C234.28 15.0559 233.957 16.5395 233.339 17.8752C235.804 20.1343 237.207 23.348 237.207 26.7456ZM236.297 26.7456C236.297 23.496 234.908 20.4256 232.483 18.3279L232.214 18.0948L232.375 17.7811C233.039 16.4678 233.37 15.0514 233.37 13.5633C233.37 8.49834 229.354 4.37916 224.424 4.37916C222.529 4.37916 220.718 4.97978 219.19 6.11828L218.813 6.40065L218.544 6.01518C216.312 2.81933 212.704 0.909896 208.895 0.909896C204.677 0.909896 200.738 3.24964 198.613 7.01473L198.447 7.30607L198.12 7.23435C197.157 7.02369 196.162 6.91163 195.171 6.91163C187.646 6.91163 181.524 13.0344 181.524 20.5601C181.524 25.7236 184.383 30.3852 188.986 32.7339L189.215 32.8504L189.233 33.1059C189.681 38.9149 194.651 43.4599 200.549 43.4599C203.844 43.4599 206.972 42.048 209.132 39.5828L209.639 39.0045L209.903 39.7307C210.974 42.6889 213.753 44.6746 216.81 44.6746C220.48 44.6746 223.622 41.8463 224.115 38.0946L224.173 37.6599L224.608 37.7002C224.935 37.7316 225.263 37.745 225.581 37.745C231.492 37.745 236.297 32.8101 236.297 26.7456Z" fill="black"/>
<path d="M232.486 18.3276C234.911 20.4253 236.3 23.4956 236.3 26.7453C236.3 32.8097 231.495 37.7492 225.588 37.7492C225.27 37.7492 224.943 37.7357 224.616 37.7044L224.181 37.664L224.123 38.0988C223.63 41.8505 220.488 44.6788 216.817 44.6788C213.756 44.6788 210.982 42.6931 209.911 39.7348L209.646 39.0087L209.14 39.5869C206.979 42.0521 203.851 43.4641 200.557 43.4641C194.659 43.4641 189.684 38.9146 189.24 33.1101L189.222 32.8546L188.994 32.738C184.391 30.3938 181.531 25.7278 181.531 20.5642C181.531 13.0385 187.653 6.9158 195.179 6.9158C196.169 6.9158 197.164 7.02785 198.128 7.23852L198.455 7.31023L198.621 7.01889C200.745 3.2538 204.685 0.914062 208.902 0.914062C212.712 0.914062 216.32 2.8235 218.552 6.01935L218.821 6.40482L219.197 6.12244C220.73 4.98394 222.541 4.38332 224.432 4.38332C229.362 4.38332 233.378 8.50699 233.378 13.5675C233.378 15.0511 233.042 16.472 232.383 17.7853L232.221 18.099L232.486 18.3276Z" fill="white"/>
<path d="M173.531 2.4248C176.596 2.4248 179.088 4.91693 179.088 7.98279C179.088 11.0487 176.596 13.5453 173.531 13.5453C170.465 13.5453 167.969 11.0487 167.969 7.98279C167.969 4.91693 170.465 2.4248 173.531 2.4248ZM178.183 7.98279C178.183 5.41895 176.094 3.33022 173.531 3.33022C170.967 3.33022 168.879 5.41895 168.879 7.98279C168.879 10.5466 170.967 12.6354 173.531 12.6354C176.094 12.6354 178.183 10.5466 178.183 7.98279Z" fill="black"/>
<path d="M173.527 3.33008C176.091 3.33008 178.179 5.4188 178.179 7.98265C178.179 10.5465 176.091 12.6352 173.527 12.6352C170.964 12.6352 168.875 10.5465 168.875 7.98265C168.875 5.4188 170.964 3.33008 173.527 3.33008Z" fill="white"/>
<path d="M159.261 4.64355C161.305 4.64355 162.968 6.30647 162.968 8.35038C162.968 10.3943 161.305 12.0572 159.261 12.0572C157.217 12.0572 155.555 10.3943 155.555 8.35038C155.555 6.30647 157.217 4.64355 159.261 4.64355ZM162.058 8.35038C162.058 6.80848 160.803 5.55345 159.261 5.55345C157.719 5.55345 156.465 6.80848 156.465 8.35038C156.465 9.89227 157.719 11.1473 159.261 11.1473C160.803 11.1518 162.058 9.89675 162.058 8.35038Z" fill="black"/>
<path d="M159.265 5.55371C160.807 5.55371 162.062 6.80874 162.062 8.35064C162.062 9.89253 160.807 11.1476 159.265 11.1476C157.724 11.1476 156.469 9.89253 156.469 8.35064C156.469 6.80874 157.724 5.55371 159.265 5.55371Z" fill="white"/>
<path d="M150.833 14.1641C152.428 14.1641 153.728 15.4639 153.728 17.0596C153.728 18.6553 152.428 19.9551 150.833 19.9551C149.237 19.9551 147.938 18.6553 147.938 17.0596C147.938 15.4639 149.237 14.1641 150.833 14.1641ZM152.818 17.0596C152.818 15.9659 151.931 15.074 150.833 15.074C149.739 15.074 148.847 15.9614 148.847 17.0596C148.847 18.1533 149.739 19.0452 150.833 19.0452C151.926 19.0452 152.818 18.1533 152.818 17.0596Z" fill="black"/>
<path d="M150.829 19.0455C151.926 19.0455 152.815 18.1565 152.815 17.0599C152.815 15.9632 151.926 15.0742 150.829 15.0742C149.733 15.0742 148.844 15.9632 148.844 17.0599C148.844 18.1565 149.733 19.0455 150.829 19.0455Z" fill="white"/>
<path d="M200.292 16.5795H198.329C196.729 16.5795 195.43 15.2796 195.43 13.6794V11.9762C195.43 10.376 196.729 9.07617 198.329 9.07617H200.297C201.897 9.07617 203.197 10.376 203.197 11.9762V13.6794C203.192 15.2841 201.897 16.5795 200.292 16.5795Z" fill="black"/>
<path d="M200.186 16.1713H198.433C197.008 16.1713 195.852 15.0149 195.852 13.5895V12.0701C195.852 10.6447 197.008 9.48828 198.433 9.48828H200.186C201.611 9.48828 202.767 10.6447 202.767 12.0701V13.5895C202.772 15.0149 201.615 16.1713 200.186 16.1713Z" fill="white"/>
<path d="M200.292 27.0101H198.329C196.729 27.0101 195.43 25.7103 195.43 24.1101V22.4069C195.43 20.8067 196.729 19.5068 198.329 19.5068H200.297C201.897 19.5068 203.197 20.8067 203.197 22.4069V24.1101C203.192 25.7103 201.897 27.0101 200.292 27.0101Z" fill="black"/>
<path d="M200.186 26.602H198.433C197.008 26.602 195.852 25.4456 195.852 24.0202V22.5007C195.852 21.0754 197.008 19.9189 198.433 19.9189H200.186C201.611 19.9189 202.767 21.0754 202.767 22.5007V24.0202C202.772 25.4456 201.615 26.602 200.186 26.602Z" fill="white"/>
<path d="M200.292 36.9203H198.329C196.729 36.9203 195.43 35.6204 195.43 34.0203V32.317C195.43 30.7168 196.729 29.417 198.329 29.417H200.297C201.897 29.417 203.197 30.7168 203.197 32.317V34.0203C203.192 35.6204 201.897 36.9203 200.292 36.9203Z" fill="black"/>
<path d="M200.186 36.5082H198.433C197.008 36.5082 195.852 35.3518 195.852 33.9265V32.407C195.852 30.9816 197.008 29.8252 198.433 29.8252H200.186C201.611 29.8252 202.767 30.9816 202.767 32.407V33.9265C202.772 35.3518 201.615 36.5082 200.186 36.5082Z" fill="white"/>
<path d="M204.097 8.76671C203.851 8.58742 203.501 8.6412 203.322 8.89221L199.378 13.8003L197.581 11.6712C197.375 11.4471 197.021 11.4292 196.796 11.6398C196.572 11.846 196.554 12.2001 196.765 12.4242L198.979 15.0463C199.185 15.2705 199.539 15.2884 199.763 15.0777C199.795 15.0508 199.817 15.0194 199.84 14.9881C199.867 14.9612 199.893 14.9343 199.92 14.8984L204.223 9.54214C204.398 9.29562 204.344 8.946 204.097 8.76671Z" fill="#0F676C"/>
<path d="M204.097 19.1427C203.851 18.9634 203.501 19.0172 203.322 19.2682L199.378 24.1762L197.581 22.0472C197.375 21.8231 197.021 21.8051 196.796 22.0158C196.572 22.222 196.554 22.5761 196.765 22.8002L198.979 25.4223C199.185 25.6464 199.539 25.6644 199.763 25.4537C199.795 25.4268 199.817 25.3954 199.84 25.364C199.867 25.3371 199.893 25.3103 199.92 25.2744L204.223 19.9181C204.398 19.6716 204.344 19.322 204.097 19.1427Z" fill="#0F676C"/>
<path d="M216.816 13.603H206.292C206.144 13.603 206.023 13.4819 206.023 13.334V13.1771C206.023 13.0292 206.144 12.9082 206.292 12.9082H216.816C216.964 12.9082 217.085 13.0292 217.085 13.1771V13.334C217.089 13.4819 216.968 13.603 216.816 13.603Z" fill="#242424"/>
<path d="M227.383 13.603H219.589C219.441 13.603 219.32 13.4819 219.32 13.334V13.1771C219.32 13.0292 219.441 12.9082 219.589 12.9082H227.383C227.531 12.9082 227.652 13.0292 227.652 13.1771V13.334C227.657 13.4819 227.536 13.603 227.383 13.603Z" fill="#242424"/>
<path d="M228.879 33.5844H222.456C222.309 33.5844 222.188 33.4634 222.188 33.3155V33.1586C222.188 33.0107 222.309 32.8896 222.456 32.8896H228.879C229.027 32.8896 229.148 33.0107 229.148 33.1586V33.3155C229.152 33.4634 229.031 33.5844 228.879 33.5844Z" fill="#242424"/>
<path d="M219.774 33.5444H206.292C206.144 33.5444 206.023 33.4233 206.023 33.2754V33.1185C206.023 32.9706 206.144 32.8496 206.292 32.8496H219.774C219.922 32.8496 220.043 32.9706 220.043 33.1185V33.2754C220.043 33.4233 219.922 33.5444 219.774 33.5444Z" fill="#242424"/>
<path d="M210.654 23.5844H206.285C206.137 23.5844 206.016 23.4634 206.016 23.3155V23.1586C206.016 23.0107 206.137 22.8896 206.285 22.8896H210.654C210.802 22.8896 210.923 23.0107 210.923 23.1586V23.3155C210.928 23.4634 210.807 23.5844 210.654 23.5844Z" fill="#242424"/>
<path d="M225.582 23.6342H213.355C213.207 23.6342 213.086 23.5132 213.086 23.3653V23.2084C213.086 23.0605 213.207 22.9395 213.355 22.9395H225.582C225.729 22.9395 225.85 23.0605 225.85 23.2084V23.3653C225.85 23.5087 225.729 23.6342 225.582 23.6342Z" fill="#242424"/>
<path d="M17.8395 162.49C17.8395 162.49 -0.433188 191.616 23.3791 216.138C23.3791 216.138 42.2434 233.825 72.7785 218.734C72.7785 218.734 91.5263 210.952 108.974 187.134L121.591 169.447L123.626 167.56L124.155 168.358L133.378 168.093C133.378 168.093 149.294 167.443 144.224 159.662C144.224 159.662 153.067 157.833 147.94 153.235C147.94 153.235 154.483 151.585 150.889 146.986C150.889 146.986 155.868 147.941 156.438 144.162C156.635 142.849 156.173 141.522 155.277 140.541C152.785 137.816 145.435 131.984 129.43 134.136C129.43 134.136 109.974 136.977 89.4602 151.554C87.2596 153.118 85.0724 154.696 82.8718 156.256C77.6772 159.94 67.4093 167.511 55.8056 177.645C55.8056 177.64 39.9173 169.008 17.8395 162.49Z" fill="white" stroke="black" stroke-width="0.508435" stroke-miterlimit="10"/>
<path d="M55.8023 177.641C55.8023 177.641 48.5506 182.239 44.75 186.838L55.8023 177.641Z" fill="white"/>
<path d="M55.8023 177.641C55.8023 177.641 48.5506 182.239 44.75 186.838" stroke="black" stroke-width="0.508435" stroke-miterlimit="10"/>
<path d="M123.625 167.56C123.625 167.56 127.605 162.432 135.211 163.405L123.625 167.56Z" fill="white"/>
<path d="M123.625 167.56C123.625 167.56 127.605 162.432 135.211 163.405" stroke="black" stroke-width="0.508435" stroke-miterlimit="10"/>
<path d="M144.235 159.662C144.235 159.662 138.31 155.27 130.086 158.013L144.235 159.662Z" fill="white"/>
<path d="M144.235 159.662C144.235 159.662 138.31 155.27 130.086 158.013" stroke="black" stroke-width="0.508435" stroke-miterlimit="10"/>
<path d="M147.946 153.234C147.946 153.234 139.901 147.838 130.086 151.733" stroke="black" stroke-width="0.508435" stroke-miterlimit="10"/>
<path d="M150.837 146.986C150.837 146.986 142.792 141.59 132.977 145.485" stroke="black" stroke-width="0.508435" stroke-miterlimit="10"/>
<path d="M187.725 86.6379L238.074 83.4959C239.387 83.4152 240.414 84.6702 240.154 86.0328L227.259 153.639C227.076 154.602 226.291 155.306 225.363 155.337L175.009 157.144C173.714 157.189 172.719 155.942 172.979 154.598L185.873 88.3277C186.062 87.3865 186.819 86.6917 187.725 86.6379Z" fill="white"/>
<path d="M174.946 157.448C174.269 157.448 173.637 157.139 173.198 156.588C172.74 156.018 172.561 155.27 172.705 154.539L185.599 88.2691C185.81 87.1978 186.675 86.4044 187.705 86.3417L238.055 83.1996C238.768 83.1548 239.449 83.4596 239.915 84.0289C240.386 84.6026 240.574 85.3556 240.43 86.0952L227.541 153.701C227.33 154.804 226.438 155.606 225.376 155.642L175.022 157.448C174.999 157.444 174.972 157.448 174.946 157.448ZM238.198 83.7913C238.163 83.7913 238.131 83.7913 238.095 83.7958L187.746 86.9378C186.97 86.9871 186.32 87.5833 186.164 88.3856L173.269 154.656C173.162 155.207 173.296 155.767 173.637 156.198C173.977 156.628 174.479 156.861 175.008 156.843L225.362 155.037C226.16 155.01 226.832 154.409 226.989 153.58L239.884 85.9742C239.991 85.4184 239.848 84.8491 239.498 84.4188C239.162 84.0154 238.696 83.7913 238.198 83.7913Z" fill="black"/>
<path d="M190.603 86.6379L240.952 83.4959C242.266 83.4152 243.292 84.6702 243.032 86.0328L230.142 153.639C229.958 154.602 229.174 155.306 228.246 155.337L177.892 157.144C176.597 157.189 175.602 155.942 175.862 154.598L188.756 88.3277C188.944 87.3865 189.698 86.6917 190.603 86.6379Z" fill="white"/>
<path d="M177.828 157.448C177.152 157.448 176.52 157.139 176.08 156.588C175.623 156.018 175.444 155.27 175.587 154.539L188.482 88.2691C188.692 87.1978 189.557 86.4044 190.588 86.3417L240.938 83.1996C241.651 83.1548 242.332 83.4596 242.798 84.0289C243.264 84.5981 243.457 85.3556 243.313 86.0952L230.419 153.701C230.208 154.804 229.316 155.606 228.254 155.642L177.9 157.448C177.878 157.444 177.855 157.448 177.828 157.448ZM241.077 83.7913C241.041 83.7913 241.01 83.7913 240.974 83.7958L190.624 86.9378C189.849 86.9871 189.199 87.5833 189.042 88.3856L176.148 154.656C176.04 155.207 176.175 155.767 176.515 156.198C176.856 156.628 177.358 156.861 177.887 156.843L228.241 155.037C229.038 155.01 229.711 154.409 229.868 153.58L242.762 85.9742C242.87 85.4184 242.726 84.8491 242.377 84.4188C242.045 84.0154 241.574 83.7913 241.077 83.7913Z" fill="black"/>
<path d="M199.262 94.6509C200.676 94.6509 201.822 93.4388 201.822 91.9436C201.822 90.4484 200.676 89.2363 199.262 89.2363C197.849 89.2363 196.703 90.4484 196.703 91.9436C196.703 93.4388 197.849 94.6509 199.262 94.6509Z" fill="black"/>
<path d="M215.309 93.9702C216.723 93.9702 217.868 92.7581 217.868 91.2629C217.868 89.7678 216.723 88.5557 215.309 88.5557C213.896 88.5557 212.75 89.7678 212.75 91.2629C212.75 92.7581 213.896 93.9702 215.309 93.9702Z" fill="black"/>
<path d="M231.239 93.2935C232.652 93.2935 233.798 92.0814 233.798 90.5862C233.798 89.091 232.652 87.8789 231.239 87.8789C229.825 87.8789 228.68 89.091 228.68 90.5862C228.68 92.0814 229.825 93.2935 231.239 93.2935Z" fill="black"/>
<path d="M200.911 91.2761C199.66 91.2761 198.768 90.7158 198.723 90.6844L199.311 89.6535H199.306C199.319 89.6625 200.494 90.3796 201.892 89.909C203.174 89.4742 204.272 88.1968 205.155 86.1081C205.702 84.8127 205.899 83.4142 205.724 82.0651C205.518 80.4604 204.873 79.3981 203.815 78.9185C203.053 78.5734 202.161 78.5734 201.363 78.923C200.772 79.1785 197.809 80.7293 197.54 85.9108L196.406 85.8436C196.523 83.6294 197.101 81.7468 198.132 80.2453C199.163 78.7437 200.328 78.0759 200.933 77.8114C202.013 77.3408 203.228 77.3408 204.268 77.8159C205.697 78.4658 206.594 79.8822 206.854 81.9037C207.055 83.477 206.831 85.0995 206.199 86.6011C205.177 89.0305 203.837 90.532 202.219 91.0654C201.758 91.2178 201.314 91.2761 200.911 91.2761Z" fill="black"/>
<path d="M217.028 90.4021C215.777 90.4021 214.885 89.8418 214.841 89.8104L215.428 88.7795H215.423C215.437 88.7884 216.611 89.5056 218.009 89.035C219.291 88.6002 220.389 87.3227 221.272 85.234C221.819 83.9386 222.016 82.5402 221.841 81.191C221.635 79.5864 220.99 78.5241 219.932 78.0445C219.17 77.6994 218.278 77.6994 217.48 78.049C216.414 78.5151 213.904 80.1108 213.657 84.871L212.523 84.8037C212.64 82.594 213.223 80.7383 214.253 79.2816C215.257 77.8652 216.436 77.2063 217.05 76.9374C218.13 76.4667 219.345 76.4667 220.385 76.9419C221.814 77.5918 222.711 79.0082 222.971 81.0297C223.172 82.603 222.948 84.2255 222.316 85.7271C221.295 88.1564 219.954 89.658 218.336 90.1914C217.87 90.3438 217.431 90.4021 217.028 90.4021Z" fill="black"/>
<path d="M233.332 89.654C232.082 89.654 231.19 89.0937 231.145 89.0624L231.732 88.0314H231.728C231.741 88.0404 232.916 88.7576 234.314 88.2869C235.596 87.8522 236.694 86.5747 237.577 84.486C238.124 83.1906 238.321 81.7922 238.146 80.443C237.94 78.8383 237.294 77.776 236.237 77.2964C235.475 76.9513 234.583 76.9513 233.785 77.3009C232.458 77.8791 230.191 79.5107 229.962 83.9347L228.828 83.8674C229.093 78.789 231.777 76.8751 233.355 76.1893C234.435 75.7187 235.65 75.7187 236.689 76.1938C238.119 76.8437 239.015 78.2601 239.275 80.2816C239.477 81.8549 239.253 83.4775 238.621 84.979C237.599 87.4084 236.259 88.91 234.641 89.4433C234.175 89.5957 233.736 89.654 233.332 89.654Z" fill="black"/>
<path d="M235.53 129.925C235.548 129.759 235.57 129.665 235.57 129.665C223.227 127.177 217.234 123.071 215.809 121.982C215.487 121.736 215.267 121.372 215.262 120.969C215.253 118.002 226.082 118.051 226.082 118.051C211.937 113.806 212.461 111.565 212.461 111.565C211.462 108.262 221.896 108.262 221.896 108.262C217.943 107.321 213.698 104.075 213.698 104.075C210.041 100.893 221.896 100.068 221.896 100.068C213.407 97.6524 215.706 95.9985 215.706 95.9985C223.666 90.2522 241.526 98.652 241.526 98.652C265.755 111.565 265.047 144.286 265.047 144.286C267.701 190.798 253.73 210.61 253.73 210.61C242.176 231.833 217.826 225.908 217.826 225.908C198.003 222.774 189.025 206.083 185.946 198.579C184.983 196.231 185.05 193.582 186.099 191.269C195.717 170.023 218.991 163.295 219.296 163.21C219.301 163.205 219.301 163.205 219.301 163.205L229.412 147.289C232.558 144.138 234.893 133.192 235.53 129.929C235.525 129.934 235.53 129.929 235.53 129.925Z" fill="white"/>
<path d="M221.889 100.073C221.889 100.073 210.039 100.898 213.691 104.08C213.691 104.08 217.936 107.321 221.889 108.267C221.889 108.267 234.622 108.679 239.162 112.453" stroke="black" stroke-width="0.508435" stroke-miterlimit="10"/>
<path d="M221.885 108.267C221.885 108.267 211.451 108.267 212.45 111.57C212.45 111.57 211.926 113.811 226.071 118.056C226.071 118.056 234.259 118.706 239.153 122.009" stroke="black" stroke-width="0.508435" stroke-miterlimit="10"/>
<path d="M235.518 129.938C235.356 131.247 235.074 136.98 241.985 140.517" stroke="black" stroke-width="0.508435" stroke-miterlimit="10"/>
<path d="M226.077 118.052C226.077 118.052 215.244 118.003 215.258 120.97C215.262 121.369 215.482 121.736 215.805 121.983C217.23 123.072 223.227 127.178 235.565 129.665C235.565 129.665 235.547 129.759 235.525 129.925" stroke="black" stroke-width="0.508435" stroke-miterlimit="10"/>
<path d="M219.288 163.215C218.984 163.3 195.709 170.028 186.091 191.274C185.042 193.591 184.975 196.235 185.938 198.584C189.018 206.087 197.995 222.779 217.818 225.912C217.818 225.912 242.164 231.838 253.723 210.614C253.723 210.614 267.693 190.803 265.039 144.291C265.039 144.291 265.748 111.57 241.518 98.6569C241.518 98.6569 223.658 90.2571 215.698 96.0034C215.698 96.0034 213.399 97.6528 221.888 100.073C221.888 100.073 229.906 99.9567 238.69 103.964" stroke="black" stroke-width="0.508435" stroke-miterlimit="10"/>
<path d="M235.697 129.011C235.697 129.011 235.639 129.342 235.522 129.925C235.522 129.93 235.518 129.934 235.518 129.934C234.882 133.197 232.547 144.143 229.4 147.294L219.289 163.21" stroke="black" stroke-width="0.508435" stroke-miterlimit="10"/>
<path d="M219.293 163.215C219.163 163.421 211.862 175.451 208.008 189.566" stroke="black" stroke-width="0.508435" stroke-miterlimit="10"/>
</svg>
