<svg width="280" height="142" viewBox="0 0 280 142" fill="none" xmlns="http://www.w3.org/2000/svg">
<path d="M42.4242 130.83C42.4242 130.83 20.2554 117.327 13.5097 96.0579C6.76396 74.7919 9.17101 38.2014 46.5201 28.1801C83.8692 18.1589 99.7711 56.9671 99.7711 56.9671C99.7711 56.9671 97.3673 45.4696 110.134 46.3939C110.134 46.3939 98.3282 18.6377 131.009 5.14522C166.035 -9.30811 188.07 16.3668 194.643 43.1688C194.643 43.1688 248.203 20.5295 249.168 67.0582C249.168 67.0582 262.18 60.957 267.24 76.6704C272.3 92.3839 255.435 132.868 251.817 134.793C248.203 136.725 42.4242 130.83 42.4242 130.83Z" fill="#E3C57F"/>
<path d="M30.3915 66.3073C32.0436 63.8667 31.4045 60.5488 28.9641 58.8965C26.5237 57.2443 23.206 57.8834 21.5539 60.324C19.9018 62.7647 20.5409 66.0826 22.9813 67.7348C25.4217 69.387 28.7394 68.7479 30.3915 66.3073Z" stroke="#C1C0C0" stroke-width="0.125718" stroke-miterlimit="10"/>
<path d="M29.7934 59.6045L21.2656 65.8453C21.5515 66.3773 21.9239 66.8528 22.3628 67.2551L30.7209 60.8979C30.4749 60.4224 30.1624 59.9835 29.7934 59.6045Z" stroke="#C1C0C0" stroke-width="0.125718" stroke-miterlimit="10"/>
<path d="M186.965 17.5677C187.359 15.1313 185.703 12.8369 183.267 12.443C180.831 12.0491 178.537 13.7049 178.143 16.1413C177.749 18.5777 179.405 20.872 181.841 21.2659C184.277 21.6598 186.571 20.0041 186.965 17.5677Z" stroke="#C1C0C0" stroke-width="0.125718" stroke-miterlimit="10"/>
<path d="M185.754 13.7393L178.609 18.9693C178.849 19.4149 179.161 19.8138 179.527 20.1497L186.529 14.8232C186.326 14.4242 186.063 14.0584 185.754 13.7393Z" stroke="#C1C0C0" stroke-width="0.125718" stroke-miterlimit="10"/>
<path d="M263.125 106.941C265.27 106.941 267.009 105.202 267.009 103.057C267.009 100.913 265.27 99.1738 263.125 99.1738C260.981 99.1738 259.242 100.913 259.242 103.057C259.242 105.202 260.981 106.941 263.125 106.941Z" stroke="#C1C0C0" stroke-width="0.125718" stroke-miterlimit="10"/>
<path d="M265.907 100.351L259.703 104.892C259.909 105.278 260.182 105.624 260.501 105.92L266.582 101.295C266.406 100.946 266.176 100.63 265.907 100.351Z" stroke="#C1C0C0" stroke-width="0.125718" stroke-miterlimit="10"/>
<path d="M239.067 54.557H236.118V51.6078C236.118 51.1523 235.749 50.7832 235.293 50.7832C234.838 50.7832 234.469 51.1523 234.469 51.6078V54.557H231.52C231.064 54.557 230.695 54.926 230.695 55.3815C230.695 55.837 231.064 56.2061 231.52 56.2061H234.469V59.1553C234.469 59.6108 234.838 59.9799 235.293 59.9799C235.749 59.9799 236.118 59.6108 236.118 59.1553V56.2061H239.067C239.522 56.2061 239.891 55.837 239.891 55.3815C239.895 54.926 239.522 54.557 239.067 54.557Z" fill="#0D257B"/>
<path d="M125.689 25.8182H111.144C109.721 25.8182 108.57 24.6644 108.57 23.2447V14.6565C108.57 13.2334 109.724 12.083 111.144 12.083H125.689C127.112 12.083 128.262 13.2368 128.262 14.6565V23.2447C128.266 24.6644 127.112 25.8182 125.689 25.8182Z" stroke="#C1C0C0" stroke-width="0.125718" stroke-miterlimit="10"/>
<path d="M114.738 12.0798C115.053 10.3342 116.579 9.00758 118.415 9.00758C120.247 9.00758 121.773 10.3342 122.092 12.0798H123.212C122.886 9.72244 120.862 7.90039 118.415 7.90039C115.968 7.90039 113.946 9.72244 113.617 12.0798H114.738Z" fill="#C1C0C0"/>
<path d="M122.017 19.8006C122.487 17.8156 121.26 15.8248 119.275 15.3542C117.29 14.8835 115.299 16.1112 114.829 18.0962C114.358 20.0812 115.586 22.072 117.571 22.5426C119.555 23.0133 121.546 21.7856 122.017 19.8006Z" fill="#F4F4F4" stroke="#C1C0C0" stroke-width="0.125718" stroke-miterlimit="10"/>
<path d="M120.26 18.5463H118.827V17.1132C118.827 16.8905 118.648 16.7109 118.425 16.7109C118.202 16.7109 118.023 16.8905 118.023 17.1132V18.5463H116.59C116.367 18.5463 116.188 18.7258 116.188 18.9486C116.188 19.1714 116.367 19.3509 116.59 19.3509H118.023V20.7839C118.023 21.0067 118.202 21.1862 118.425 21.1862C118.648 21.1862 118.827 21.0067 118.827 20.7839V19.3509H120.26C120.483 19.3509 120.662 19.1714 120.662 18.9486C120.662 18.7258 120.483 18.5463 120.26 18.5463Z" fill="#C1C0C0"/>
<path d="M249.533 90.7127H234.987C233.564 90.7127 232.414 89.5589 232.414 88.1392V79.551C232.414 78.128 233.568 76.9775 234.987 76.9775H249.533C250.956 76.9775 252.106 78.1313 252.106 79.551V88.1392C252.106 89.5623 250.952 90.7127 249.533 90.7127Z" stroke="#C1C0C0" stroke-width="0.125718" stroke-miterlimit="10"/>
<path d="M238.581 76.9773C238.897 75.235 240.423 73.905 242.258 73.905C244.09 73.905 245.616 75.2317 245.935 76.9773H247.056C246.73 74.6199 244.705 72.7979 242.258 72.7979C239.811 72.7979 237.79 74.6199 237.461 76.9773H238.581Z" fill="#C1C0C0"/>
<path d="M242.256 87.5403C244.296 87.5403 245.95 85.8864 245.95 83.8463C245.95 81.8062 244.296 80.1523 242.256 80.1523C240.216 80.1523 238.562 81.8062 238.562 83.8463C238.562 85.8864 240.216 87.5403 242.256 87.5403Z" fill="#F4F4F4" stroke="#C1C0C0" stroke-width="0.125718" stroke-miterlimit="10"/>
<path d="M244.088 83.4447H242.655V82.0117C242.655 81.7889 242.476 81.6094 242.253 81.6094C242.03 81.6094 241.851 81.7889 241.851 82.0117V83.4447H240.418C240.195 83.4447 240.016 83.6243 240.016 83.847C240.016 84.0698 240.195 84.2493 240.418 84.2493H241.851V85.6824C241.851 85.9051 242.03 86.0847 242.253 86.0847C242.476 86.0847 242.655 85.9051 242.655 85.6824V84.2493H244.088C244.311 84.2493 244.491 84.0698 244.491 83.847C244.491 83.6243 244.311 83.4447 244.088 83.4447Z" fill="#C1C0C0"/>
<path d="M105.314 71.518H102.628V68.8315C102.628 68.4159 102.292 68.0801 101.877 68.0801C101.461 68.0801 101.125 68.4159 101.125 68.8315V71.518H98.4389C98.0233 71.518 97.6875 71.8538 97.6875 72.2695C97.6875 72.6851 98.0233 73.0209 98.4389 73.0209H101.125V75.7074C101.125 76.123 101.461 76.4588 101.877 76.4588C102.292 76.4588 102.628 76.123 102.628 75.7074V73.0209H105.314C105.73 73.0209 106.066 72.6851 106.066 72.2695C106.066 71.8572 105.73 71.518 105.314 71.518Z" fill="#0D257B"/>
<path d="M44.6155 36.5261H42.6473V34.5578C42.6473 34.2519 42.4013 34.0059 42.0954 34.0059C41.7895 34.0059 41.5435 34.2519 41.5435 34.5578V36.5261H39.5753C39.2695 36.5261 39.0234 36.7722 39.0234 37.0781C39.0234 37.384 39.2695 37.63 39.5753 37.63H41.5435V39.5983C41.5435 39.9042 41.7895 40.1503 42.0954 40.1503C42.4013 40.1503 42.6473 39.9042 42.6473 39.5983V37.63H44.6155C44.9214 37.63 45.1674 37.384 45.1674 37.0781C45.1641 36.7722 44.918 36.5261 44.6155 36.5261Z" fill="#0D257B"/>
<path d="M50.5333 65.8258H48.083V63.3754C48.083 62.9963 47.7772 62.6904 47.3982 62.6904C47.0191 62.6904 46.7133 62.9963 46.7133 63.3754V65.8258H44.263C43.884 65.8258 43.5781 66.1317 43.5781 66.5107C43.5781 66.8898 43.884 67.1957 44.263 67.1957H46.7133V69.6461C46.7133 70.0251 47.0191 70.331 47.3982 70.331C47.7772 70.331 48.083 70.0251 48.083 69.6461V67.1957H50.5333C50.9123 67.1957 51.2182 66.8898 51.2182 66.5107C51.2182 66.135 50.9123 65.8258 50.5333 65.8258Z" fill="#C1C0C0"/>
<path d="M160.053 21.4415H158.038V19.4266C158.038 19.114 157.786 18.8613 157.473 18.8613C157.161 18.8613 156.908 19.114 156.908 19.4266V21.4415H154.893C154.581 21.4415 154.328 21.6941 154.328 22.0067C154.328 22.3192 154.581 22.5719 154.893 22.5719H156.908V24.5868C156.908 24.8993 157.161 25.152 157.473 25.152C157.786 25.152 158.038 24.8993 158.038 24.5868V22.5719H160.053C160.366 22.5719 160.618 22.3192 160.618 22.0067C160.618 21.6941 160.366 21.4415 160.053 21.4415Z" fill="#C1C0C0"/>
<path d="M172.931 67.1614C172.931 67.1614 162.598 59.4676 165.757 55.6838C168.915 51.9001 173.377 57.3961 173.377 57.3961C173.377 57.3961 175.794 53.1669 179.145 55.1119C184.102 57.9913 172.931 67.1614 172.931 67.1614Z" stroke="#C1C0C0" stroke-width="0.125718" stroke-miterlimit="10"/>
<path d="M120.634 58.143C119.766 59.0108 118.356 59.0108 117.488 58.143L113.01 53.6644C112.142 52.7966 112.142 51.3868 113.01 50.519C113.878 49.6512 115.288 49.6512 116.155 50.519L120.634 54.9977C121.505 55.8655 121.505 57.2719 120.634 58.143Z" fill="#F4F4F4" stroke="#C1C0C0" stroke-width="0.125718" stroke-miterlimit="10"/>
<path d="M115.25 55.9022L117.571 58.223C118.395 59.0475 119.728 59.0475 120.553 58.223L120.716 58.06C121.54 57.2355 121.54 55.9022 120.716 55.0776L118.395 52.7568L115.25 55.9022Z" fill="#C1C0C0"/>
<path d="M113.584 59.4194C112.357 59.4194 111.359 58.4219 111.359 57.195V50.8611C111.359 49.6342 112.357 48.6367 113.584 48.6367C114.81 48.6367 115.808 49.6342 115.808 50.8611V57.195C115.808 58.4252 114.814 59.4194 113.584 59.4194Z" fill="#F4F4F4" stroke="#C1C0C0" stroke-width="0.125718" stroke-miterlimit="10"/>
<path d="M111.359 54.0293V57.311C111.359 58.4747 112.304 59.419 113.467 59.419H113.7C114.864 59.419 115.808 58.4747 115.808 57.311V54.0293H111.359Z" fill="#C1C0C0"/>
<path d="M19.7515 91.9255C19.1032 92.9096 17.7833 93.179 16.7992 92.5339L11.7324 89.1957C10.7483 88.5474 10.479 87.2274 11.124 86.2432C11.7723 85.2591 13.0922 84.9897 14.0763 85.6348L19.1431 88.973C20.1271 89.6213 20.3964 90.9413 19.7515 91.9255Z" fill="#F4F4F4" stroke="#C1C0C0" stroke-width="0.125718" stroke-miterlimit="10"/>
<path d="M14.2656 90.8608L16.8921 92.593C17.823 93.2081 19.0764 92.9488 19.6915 92.0178L19.8145 91.8316C20.4295 90.9007 20.1702 89.6472 19.2393 89.0321L16.6128 87.2998L14.2656 90.8608Z" fill="#C1C0C0"/>
<path d="M11.4749 93.3949C10.2979 93.3949 9.34375 92.4407 9.34375 91.2637V85.1957C9.34375 84.0187 10.2979 83.0645 11.4749 83.0645C12.6518 83.0645 13.606 84.0187 13.606 85.1957V91.2637C13.606 92.4407 12.6518 93.3949 11.4749 93.3949Z" fill="#F4F4F4" stroke="#C1C0C0" stroke-width="0.125718" stroke-miterlimit="10"/>
<path d="M9.34375 88.2314V91.3768C9.34375 92.494 10.2481 93.3984 11.3651 93.3984H11.5879C12.705 93.3984 13.6093 92.494 13.6093 91.3768V88.2314H9.34375Z" fill="#C1C0C0"/>
<path d="M0.199479 134.47C2.70959 134.47 5.2197 134.47 7.72981 134.47C14.4988 134.47 21.2678 134.47 28.0368 134.47C38.0739 134.47 48.1077 134.47 58.1448 134.47C70.3895 134.47 82.6309 134.47 94.8756 134.47C108.241 134.47 121.602 134.47 134.968 134.47C148.549 134.47 162.13 134.47 175.711 134.47C188.288 134.47 200.865 134.47 213.443 134.47C224.108 134.47 234.774 134.47 245.442 134.47C253.112 134.47 260.779 134.47 268.449 134.47C272.069 134.47 275.703 134.56 279.324 134.47C279.483 134.467 279.64 134.47 279.799 134.47C280.065 134.47 280.069 134.055 279.799 134.055C277.289 134.055 274.779 134.055 272.269 134.055C265.5 134.055 258.731 134.055 251.962 134.055C241.925 134.055 231.891 134.055 221.854 134.055C209.609 134.055 197.368 134.055 185.123 134.055C171.758 134.055 158.396 134.055 145.031 134.055C131.45 134.055 117.869 134.055 104.288 134.055C91.7105 134.055 79.1333 134.055 66.5562 134.055C55.8907 134.055 45.2252 134.055 34.5564 134.055C26.8864 134.055 19.2198 134.055 11.5498 134.055C7.92929 134.055 4.29545 133.965 0.674904 134.055C0.515321 134.058 0.359062 134.055 0.199479 134.055C-0.066493 134.055 -0.066493 134.47 0.199479 134.47Z" fill="#262433"/>
<path d="M36.1349 134.264C37.9801 112.34 42.6745 68.9965 51.5247 58.7559C51.5247 58.7559 24.2859 69.6981 14.262 107.858C11.1103 119.861 9.94 128.313 9.82031 134.264H36.1349Z" fill="white" stroke="#262433" stroke-width="0.125718" stroke-miterlimit="10"/>
<path d="M108.993 134.264C108.87 128.316 107.704 119.861 104.552 107.858C94.5279 69.6981 67.2891 58.7559 67.2891 58.7559C76.1393 68.9965 80.8304 112.34 82.6789 134.264H108.993Z" fill="white" stroke="#262433" stroke-width="0.125718" stroke-miterlimit="10"/>
<path d="M92.3219 134.264C92.3352 133.429 92.3419 132.591 92.3419 131.75C92.3419 90.1258 77.7234 56.3848 59.6905 56.3848C41.6576 56.3848 27.0391 90.1258 27.0391 131.75C27.0391 132.591 27.0457 133.429 27.059 134.264H92.3219Z" fill="#3C55A5" stroke="#262433" stroke-width="0.125718" stroke-miterlimit="10"/>
<path d="M47.5588 61.7607C35.5335 72.8759 27.0391 100.02 27.0391 131.75C27.0391 132.591 27.0457 133.429 27.059 134.263H47.1931L47.5588 61.7607Z" fill="white" stroke="#262433" stroke-width="0.125718" stroke-miterlimit="10"/>
<path d="M47.5566 61.7607C46.7155 62.5354 45.8943 63.3933 45.0931 64.3209L36.3359 90.0058L41.6122 91.1495L42.6993 134.26H47.1909L47.5566 61.7607Z" fill="#F4F4F4" stroke="#262433" stroke-width="0.125718" stroke-miterlimit="10"/>
<path d="M74.4013 134.264H92.3279C92.3412 133.429 92.3478 132.591 92.3478 131.75C92.3478 100.991 84.3653 74.5417 72.9219 62.8281L74.4013 134.264Z" fill="white" stroke="#262433" stroke-width="0.125718" stroke-miterlimit="10"/>
<path d="M71.75 61.6943V134.264H76.3447L77.4318 91.1529L82.7081 90.0092L73.7415 63.7059C73.0898 62.9844 72.4249 62.3128 71.75 61.6943Z" fill="#F4F4F4" stroke="#262433" stroke-width="0.125718" stroke-miterlimit="10"/>
<path d="M76.5979 76.0746C76.0494 71.3101 74.6364 66.5687 72.0232 62.5157C69.9087 59.234 66.9265 56.3414 63.1597 55.0879C59.6854 53.9308 55.912 54.4462 52.7735 56.2948C49.3025 58.3363 46.7392 61.7011 45.0071 65.282C42.9026 69.6343 41.8853 74.4787 41.7556 79.2998C41.7356 80.008 41.739 80.7129 41.7589 81.4211C41.7722 81.9564 42.6034 81.9564 42.5901 81.4211C42.4637 76.6199 43.1985 71.7755 45.0104 67.3135C46.4866 63.6761 48.7573 60.1617 51.9623 57.8209C54.7483 55.7894 58.206 54.8019 61.6237 55.5268C65.2742 56.3015 68.3062 58.7852 70.4806 61.7344C73.1602 65.3718 74.7428 69.744 75.4975 74.1761C75.6039 74.8045 75.6936 75.4396 75.7668 76.0746C75.8266 76.6 76.6611 76.6066 76.5979 76.0746Z" fill="#262433"/>
<path d="M42.9055 88.098C44.8812 88.098 46.4828 86.5156 46.4828 84.5637C46.4828 82.6117 44.8812 81.0293 42.9055 81.0293C40.9298 81.0293 39.3281 82.6117 39.3281 84.5637C39.3281 86.5156 40.9298 88.098 42.9055 88.098Z" fill="#C1C0C0" stroke="#262433" stroke-width="0.125718" stroke-miterlimit="10"/>
<path d="M40.9766 84.5634C40.9766 85.6174 41.841 86.4685 42.9049 86.4685C43.9687 86.4685 44.8332 85.614 44.8332 84.5634C44.8332 83.5127 43.9687 82.6582 42.9049 82.6582C41.841 82.6582 40.9766 83.5094 40.9766 84.5634Z" fill="#F4F4F4" stroke="#262433" stroke-width="0.125718" stroke-miterlimit="10"/>
<path d="M82.3321 89.2134C82.8474 86.7297 82.8408 84.093 82.1526 81.6426C81.6339 79.8006 80.6897 77.9353 79.0906 76.8049C77.7042 75.8273 75.9421 75.7442 74.456 76.5455C72.7438 77.4698 71.6234 79.2487 70.9086 81.0042C69.8148 83.6941 69.5854 86.7397 70.0675 89.5891C70.1572 90.1144 70.9585 89.8917 70.8687 89.3697C70.4664 86.999 70.626 84.5087 71.3541 82.2145C71.8927 80.5121 72.8003 78.7466 74.2632 77.656C75.4434 76.7749 76.9462 76.5289 78.2627 77.2637C79.7455 78.0916 80.6532 79.7275 81.1751 81.2902C81.9996 83.7506 82.0562 86.4637 81.5309 88.9939C81.4211 89.516 82.2224 89.7387 82.3321 89.2134Z" fill="#262433"/>
<path d="M82.8516 98.4929C82.8516 98.4929 80.152 101.618 75.933 99.0149C71.7173 96.4115 70.5803 91.4009 70.2578 88.5049" stroke="#262433" stroke-width="0.125718" stroke-miterlimit="10"/>
<path d="M82.2969 98.0213C82.2969 98.4968 82.6859 98.8825 83.1679 98.8825C83.65 98.8825 84.039 98.4968 84.039 98.0213C84.039 97.5458 83.65 97.1602 83.1679 97.1602C82.6892 97.1602 82.2969 97.5458 82.2969 98.0213Z" fill="white" stroke="#262433" stroke-width="0.125718" stroke-miterlimit="10"/>
<path d="M69.2656 98.4456C69.2656 98.4456 71.9253 101.604 76.1742 99.054C80.4232 96.5038 81.6267 91.5098 81.9857 88.6172" stroke="#262433" stroke-width="0.125718" stroke-miterlimit="10"/>
<path d="M69.8281 97.9796C69.8214 98.4551 69.4258 98.8341 68.947 98.8275C68.465 98.8208 68.0826 98.4318 68.086 97.9563C68.0926 97.4809 68.4882 97.1018 68.967 97.1085C69.4491 97.1151 69.8347 97.5041 69.8281 97.9796Z" fill="white" stroke="#262433" stroke-width="0.125718" stroke-miterlimit="10"/>
<path d="M65.5714 21.8826C65.5714 21.8826 53.1206 18.2651 46.0889 32.6253C40.6897 43.6474 42.3254 51.3578 43.3794 54.3469C43.6719 55.1748 44.4067 55.7367 45.2412 55.76L74.415 56.5846C75.3492 56.6112 76.1804 55.9628 76.4364 55.0119C78.0754 48.9041 82.5537 27.2955 65.5714 21.8826Z" fill="#262433"/>
<path d="M47.5625 42.0381C47.5625 44.4653 49.5473 46.4336 51.9909 46.4336C54.4379 46.4336 56.4194 44.4653 56.4194 42.0381C56.4194 39.6109 54.4346 37.6426 51.9909 37.6426C49.544 37.6459 47.5625 39.6109 47.5625 42.0381Z" stroke="#262433" stroke-width="0.251436" stroke-miterlimit="10"/>
<path d="M66.865 28.4033H61.2995C57.5992 28.4033 54.5738 31.8479 54.5738 36.0606V44.6854C54.5738 44.9281 54.5871 45.1675 54.607 45.4068C54.5472 45.6595 54.5106 45.9255 54.5106 46.1982V50.9395C54.4707 51.1423 54.4441 51.3484 54.4441 51.5579L54.3876 57.5727C52.6754 58.1113 51.0097 58.9192 49.3906 59.9766L59.5242 69.5124L67.7959 59.0057C66.4361 58.2742 65.0464 57.7156 63.6268 57.3432C63.6401 57.2269 63.6434 57.1105 63.6434 56.9941V52.3459H66.8617C70.562 52.3459 73.5874 48.9013 73.5874 44.6887V36.0639C73.5908 31.8512 70.562 28.4033 66.865 28.4033Z" fill="#F4F4F4" stroke="#262433" stroke-width="0.125718" stroke-miterlimit="10"/>
<path d="M63.7143 40.1339C64.4066 40.1339 64.9677 39.5727 64.9677 38.8804C64.9677 38.1882 64.4066 37.627 63.7143 37.627C63.0221 37.627 62.4609 38.1882 62.4609 38.8804C62.4609 39.5727 63.0221 40.1339 63.7143 40.1339Z" fill="#262433"/>
<path d="M70.6719 38.6976C70.6719 39.2894 71.1506 39.7682 71.7424 39.7682C72.3342 39.7682 72.813 39.2894 72.813 38.6976C72.813 38.1057 72.3342 37.627 71.7424 37.627C71.1539 37.627 70.6719 38.1057 70.6719 38.6976Z" fill="#262433"/>
<path d="M68.5354 38.1614C68.5221 39.4249 68.5122 40.6883 68.4989 41.9518C68.4955 42.1347 68.4955 42.3142 68.4922 42.4971C68.4889 42.7631 68.9045 42.7664 68.9078 42.4971C68.9211 41.2336 68.9311 39.9702 68.9444 38.7067C68.9477 38.5238 68.9477 38.3443 68.951 38.1614C68.9543 37.8954 68.5387 37.8954 68.5354 38.1614Z" fill="#262433"/>
<path d="M62.0987 37.1305C62.5641 36.9476 63.0263 36.7648 63.4917 36.5819C63.5582 36.5553 63.6247 36.5287 63.6945 36.5021C63.7976 36.4622 63.8707 36.3625 63.8408 36.2461C63.8142 36.1463 63.6912 36.0599 63.5848 36.0998C63.1194 36.2827 62.6572 36.4655 62.1918 36.6484C62.1253 36.675 62.0588 36.7016 61.989 36.7282C61.8859 36.7681 61.8128 36.8678 61.8427 36.9842C61.8693 37.084 61.9956 37.1704 62.0987 37.1305Z" fill="#262433"/>
<path d="M70.896 36.846C71.3947 36.8327 71.8934 36.8194 72.3921 36.8061C72.4653 36.8028 72.5351 36.8028 72.6082 36.7995C72.8742 36.7928 72.8775 36.3772 72.6082 36.3839C72.1095 36.3972 71.6108 36.4105 71.1121 36.4238C71.039 36.4271 70.9692 36.4271 70.896 36.4304C70.6301 36.4371 70.6267 36.8527 70.896 36.846Z" fill="#262433"/>
<path d="M74.6646 35.4748C74.6646 35.4748 69.7408 33.9653 66.8384 29.2806C66.8384 29.2806 64.192 36.2462 55.498 40.1663C44.1177 45.2933 49.8095 31.342 52.9613 27.7378C56.1131 24.1303 72.201 19.645 74.6646 35.4748Z" fill="#262433"/>
<path d="M47.5625 42.0381C47.5625 44.4653 49.5473 46.4336 51.9909 46.4336C54.4379 46.4336 56.4194 44.4653 56.4194 42.0381C56.4194 39.6109 54.4346 37.6426 51.9909 37.6426C49.544 37.6459 47.5625 39.6109 47.5625 42.0381Z" fill="#F4F4F4"/>
<path d="M54.617 42.6208C54.6835 41.5834 54.1948 40.4098 53.214 39.9642C52.6821 39.7215 52.0936 39.6816 51.5185 39.7414C51.3955 39.7547 51.2891 39.8379 51.2891 39.9709C51.2891 40.0839 51.3955 40.2136 51.5185 40.2003C51.9906 40.1504 52.466 40.1637 52.9115 40.3333C53.2107 40.4463 53.4601 40.6358 53.6662 40.8952C53.6462 40.8719 53.6994 40.9417 53.7094 40.955C53.7294 40.985 53.7493 41.0149 53.7692 41.0448C53.8091 41.1113 53.849 41.1811 53.8823 41.251C53.8989 41.2842 53.9155 41.3208 53.9322 41.354C53.9488 41.3906 53.9122 41.3041 53.9388 41.364C53.9455 41.3806 53.9521 41.3939 53.9588 41.4105C53.9854 41.4804 54.012 41.5535 54.0319 41.6267C54.0685 41.7497 54.0984 41.8727 54.1183 41.9991C54.1217 42.0257 54.1283 42.0523 54.1316 42.0822C54.1416 42.152 54.1283 42.0489 54.135 42.1154C54.1416 42.1686 54.1449 42.2185 54.1516 42.2717C54.1616 42.3881 54.1649 42.5044 54.1582 42.6208C54.1383 42.9134 54.5971 42.9134 54.617 42.6208Z" fill="#262433"/>
<path d="M49.1328 60.1537L59.9546 71.6179L69.3101 59.891C68.0501 59.0797 66.7568 58.4148 65.4402 57.916L59.918 66.0587L52.6636 58.2153C51.4634 58.7306 50.2865 59.379 49.1328 60.1537Z" fill="#93A6D5" stroke="#262433" stroke-width="0.125718" stroke-miterlimit="10"/>
<path d="M72.2969 41.8554C68.5368 39.6942 66.891 42.0549 62.8682 43.2618C60.3382 44.0199 59.0748 43.1887 58.4897 42.4638C58.2968 42.2278 57.9178 42.3242 57.8779 42.6234C57.7217 43.7572 57.5155 45.802 57.5721 48.309C57.6119 50.1311 60.91 51.3945 63.6595 52.4585V52.3388H66.8777C70.5781 52.3388 73.6035 48.8942 73.6035 44.6816V42.6401C73.2312 42.4106 72.8056 42.148 72.2969 41.8554Z" fill="white" stroke="#262433" stroke-width="0.125718" stroke-miterlimit="10"/>
<path d="M55.7955 39.6183C56.384 40.4063 56.9758 41.1943 57.5642 41.9823C57.6474 42.0953 57.7338 42.2084 57.8169 42.3181C57.8834 42.4079 57.9965 42.4511 58.1028 42.3912C58.1926 42.3414 58.2458 42.1951 58.176 42.1053C57.5875 41.3173 56.9957 40.5293 56.4073 39.7413C56.3242 39.6282 56.2377 39.5152 56.1546 39.4055C56.0881 39.3157 55.9751 39.2725 55.8687 39.3323C55.7822 39.3855 55.729 39.5285 55.7955 39.6183Z" fill="#262433"/>
<path d="M54.7333 47.538C55.621 46.5738 56.512 45.6096 57.3996 44.6454C57.526 44.5091 57.649 44.3727 57.7753 44.2397C57.9549 44.0436 57.6623 43.7477 57.4828 43.9472C56.5951 44.9114 55.7041 45.8756 54.8164 46.8398C54.6901 46.9761 54.567 47.1124 54.4407 47.2454C54.2578 47.4383 54.5504 47.7342 54.7333 47.538Z" fill="#262433"/>
<path d="M161.227 134.262C161.35 128.314 162.517 119.859 165.668 107.856C175.692 69.6962 202.931 58.7539 202.931 58.7539C194.081 68.9946 189.39 112.338 187.541 134.262H161.227Z" fill="white" stroke="#262433" stroke-width="0.125718" stroke-miterlimit="10"/>
<path d="M269.462 130.702C271.138 125.815 270.652 119.171 266.999 110.537C248.976 67.9381 214.852 57.0391 214.852 57.0391L215.822 111.727L269.462 130.702Z" fill="white" stroke="#262433" stroke-width="0.125718" stroke-miterlimit="10"/>
<path d="M243.173 134.265C243.187 133.43 243.193 132.592 243.193 131.751C243.193 90.1268 228.575 56.3857 210.542 56.3857C192.509 56.3857 177.891 90.1268 177.891 131.751C177.891 132.592 177.897 133.43 177.911 134.265H243.173Z" fill="#3C55A5" stroke="#262433" stroke-width="0.125718" stroke-miterlimit="10"/>
<path d="M222.68 61.7627C234.705 72.8778 243.199 100.022 243.199 131.752C243.199 132.593 243.193 133.431 243.179 134.265H223.045L222.68 61.7627Z" fill="white" stroke="#262433" stroke-width="0.125718" stroke-miterlimit="10"/>
<path d="M222.68 61.7627C223.521 62.5374 224.342 63.3952 225.143 64.3229L233.9 90.0077L228.624 91.1515L227.537 134.262H223.045L222.68 61.7627Z" fill="#F4F4F4" stroke="#262433" stroke-width="0.125718" stroke-miterlimit="10"/>
<path d="M195.845 134.265H177.918C177.905 133.43 177.898 132.592 177.898 131.751C177.898 100.992 185.881 74.5427 197.324 62.8291L195.845 134.265Z" fill="white" stroke="#262433" stroke-width="0.125718" stroke-miterlimit="10"/>
<path d="M198.489 61.6953V134.265H193.895L192.807 91.1539L187.531 90.0102L196.498 63.7069C197.149 62.9854 197.814 62.3137 198.489 61.6953Z" fill="#F4F4F4" stroke="#262433" stroke-width="0.125718" stroke-miterlimit="10"/>
<path d="M194.456 76.0757C194.982 71.4973 196.365 66.9355 198.855 63.0321C200.87 59.8734 203.742 57.0373 207.373 55.8603C210.687 54.7863 214.228 55.315 217.19 57.1071C220.495 59.112 222.899 62.3605 224.548 65.805C226.562 70.0177 227.523 74.7158 227.636 79.3673C227.653 80.0522 227.65 80.7372 227.633 81.4188C227.62 81.9541 228.451 81.9541 228.464 81.4188C228.597 76.4347 227.812 71.3743 225.881 66.7626C224.305 63.0022 221.948 59.4512 218.607 57.0473C215.651 54.9193 211.977 53.9651 208.383 54.7265C204.553 55.5378 201.388 58.1478 199.094 61.2267C196.298 64.9838 194.649 69.5589 193.894 74.1539C193.788 74.7922 193.702 75.4306 193.628 76.0723C193.565 76.6076 194.396 76.601 194.456 76.0757Z" fill="#262433"/>
<path d="M227.32 88.099C229.295 88.099 230.897 86.5166 230.897 84.5646C230.897 82.6127 229.295 81.0303 227.32 81.0303C225.344 81.0303 223.742 82.6127 223.742 84.5646C223.742 86.5166 225.344 88.099 227.32 88.099Z" fill="#C1C0C0" stroke="#262433" stroke-width="0.125718" stroke-miterlimit="10"/>
<path d="M227.319 86.4695C228.384 86.4695 229.247 85.6165 229.247 84.5643C229.247 83.5121 228.384 82.6592 227.319 82.6592C226.254 82.6592 225.391 83.5121 225.391 84.5643C225.391 85.6165 226.254 86.4695 227.319 86.4695Z" fill="#F4F4F4" stroke="#262433" stroke-width="0.125718" stroke-miterlimit="10"/>
<path d="M188.699 88.9908C188.227 86.7099 188.23 84.296 188.832 82.0384C189.274 80.3826 190.072 78.6204 191.485 77.5731C192.682 76.6853 194.178 76.5823 195.471 77.327C196.994 78.2048 197.994 79.8506 198.609 81.4499C199.567 83.9436 199.806 86.7398 199.361 89.3665C199.271 89.8885 200.072 90.1146 200.162 89.5859C200.598 87.0091 200.445 84.296 199.62 81.809C198.995 79.9238 197.958 78.0519 196.312 76.8782C194.936 75.8973 193.18 75.6912 191.664 76.4792C189.992 77.347 188.948 79.1225 188.333 80.8381C187.382 83.4947 187.329 86.4639 187.901 89.2069C188.007 89.7356 188.808 89.5128 188.699 88.9908Z" fill="#262433"/>
<path d="M187.398 98.4929C187.398 98.4929 190.098 101.618 194.317 99.0149C198.533 96.4115 199.67 91.4009 199.992 88.5049" stroke="#262433" stroke-width="0.125718" stroke-miterlimit="10"/>
<path d="M187.082 98.8815C187.563 98.8815 187.953 98.4959 187.953 98.0203C187.953 97.5447 187.563 97.1592 187.082 97.1592C186.601 97.1592 186.211 97.5447 186.211 98.0203C186.211 98.4959 186.601 98.8815 187.082 98.8815Z" fill="white" stroke="#262433" stroke-width="0.125718" stroke-miterlimit="10"/>
<path d="M200.962 98.4446C200.962 98.4446 198.303 101.603 194.054 99.0531C189.805 96.5029 188.601 91.5089 188.242 88.6162" stroke="#262433" stroke-width="0.125718" stroke-miterlimit="10"/>
<path d="M200.399 97.9796C200.405 98.4551 200.801 98.8341 201.28 98.8275C201.762 98.8208 202.144 98.4318 202.141 97.9563C202.134 97.4809 201.738 97.1018 201.26 97.1085C200.778 97.1151 200.392 97.5041 200.399 97.9796Z" fill="white" stroke="#262433" stroke-width="0.125718" stroke-miterlimit="10"/>
<path d="M211.352 52.0425C211.352 52.0425 216.013 51.956 216.804 50.0209C217.595 48.0859 217.243 43.3379 217.243 43.3379C217.243 43.3379 219.793 43.0287 221.638 41.3829C223.483 39.7337 223.836 34.2842 221.638 32.6118C219.44 30.9427 215.571 33.4031 215.308 33.842C215.045 34.2809 211.352 52.0425 211.352 52.0425Z" fill="#262433"/>
<path d="M222.646 42.0381C222.646 44.4653 220.661 46.4336 218.217 46.4336C215.771 46.4336 213.789 44.4653 213.789 42.0381C213.789 39.6109 215.774 37.6426 218.217 37.6426C220.664 37.6459 222.646 39.6109 222.646 42.0381Z" stroke="#262433" stroke-width="0.251436" stroke-miterlimit="10"/>
<path d="M203.347 28.4023H208.913C212.613 28.4023 215.639 31.8469 215.639 36.0596V44.6844C215.639 44.9271 215.625 45.1665 215.605 45.4059C215.665 45.6586 215.702 45.9246 215.702 46.1972V50.9385C215.742 51.1413 215.768 51.3475 215.768 51.5569L215.825 57.5717C217.537 58.1103 219.203 58.9183 220.822 59.9756L210.688 69.5114L202.417 59.0047C203.776 58.2732 205.166 57.7146 206.586 57.3423C206.572 57.2259 206.569 57.1095 206.569 56.9931V52.3449H203.351C199.65 52.3449 196.625 48.9003 196.625 44.6877V36.0629C196.622 31.8503 199.647 28.4023 203.347 28.4023Z" fill="#F4F4F4" stroke="#262433" stroke-width="0.125718" stroke-miterlimit="10"/>
<path d="M207.757 38.8785C207.757 39.5701 207.195 40.132 206.503 40.132C205.812 40.132 205.25 39.5701 205.25 38.8785C205.25 38.1869 205.812 37.625 206.503 37.625C207.195 37.625 207.757 38.1869 207.757 38.8785Z" fill="#262433"/>
<path d="M199.54 38.6956C199.54 39.2874 199.061 39.7662 198.469 39.7662C197.877 39.7662 197.398 39.2874 197.398 38.6956C197.398 38.1038 197.877 37.625 198.469 37.625C199.061 37.625 199.54 38.1038 199.54 38.6956Z" fill="#262433"/>
<path d="M201.273 38.1604C201.287 39.4239 201.297 40.6874 201.31 41.9508C201.313 42.1337 201.313 42.3132 201.317 42.4961C201.32 42.7621 201.736 42.7654 201.732 42.4961C201.719 41.2326 201.709 39.9692 201.696 38.7057C201.692 38.5229 201.692 38.3433 201.689 38.1604C201.686 37.8944 201.27 37.8944 201.273 38.1604Z" fill="#262433"/>
<path d="M208.283 35.6207C207.794 35.5176 207.305 35.4112 206.817 35.3082C206.747 35.2949 206.677 35.2782 206.607 35.2649C206.497 35.2417 206.381 35.2982 206.351 35.4112C206.321 35.5143 206.384 35.644 206.497 35.6672C206.986 35.7703 207.475 35.8767 207.964 35.9798C208.033 35.9931 208.103 36.0097 208.173 36.023C208.283 36.0463 208.399 35.9898 208.429 35.8767C208.459 35.7703 208.396 35.644 208.283 35.6207Z" fill="#262433"/>
<path d="M199.334 36.4294C198.835 36.4161 198.336 36.4028 197.837 36.3895C197.764 36.3862 197.694 36.3862 197.621 36.3829C197.355 36.3762 197.355 36.7919 197.621 36.7985C198.12 36.8118 198.619 36.8251 199.117 36.8384C199.191 36.8417 199.26 36.8417 199.334 36.845C199.603 36.8517 199.603 36.4361 199.334 36.4294Z" fill="#262433"/>
<path d="M217.171 40.1363C217.171 40.1363 215.302 42.5336 214.099 38.4839C213.351 35.9636 213.647 35.4915 211.007 35.6943C208.37 35.8971 206.435 33.2671 206.259 31.8108C206.083 30.3578 198.523 40.3791 191.664 33.5663C184.805 26.7503 192.984 18.5744 197.642 17.6068C202.303 16.6393 206.435 20.2435 207.051 22.4445C207.051 22.4445 210.039 17.9593 216.985 21.2143C223.93 24.4661 220.765 31.7642 220.589 33.5697C220.419 35.3684 217.756 39.8105 217.171 40.1363Z" fill="#262433"/>
<path d="M222.646 42.0391C222.646 44.4662 220.661 46.4346 218.217 46.4346C215.771 46.4346 213.789 44.4662 213.789 42.0391C213.789 39.6119 215.774 37.6436 218.217 37.6436C220.664 37.6469 222.646 39.6119 222.646 42.0391Z" fill="#F4F4F4"/>
<path d="M216.041 42.6217C216.034 42.5253 216.038 42.4322 216.044 42.3358C216.048 42.2926 216.051 42.246 216.054 42.2028C216.058 42.1795 216.061 42.1529 216.061 42.1297C216.071 42.0465 216.058 42.143 216.068 42.0798C216.088 41.9568 216.111 41.8371 216.141 41.7174C216.297 41.1322 216.62 40.6401 217.191 40.3675C217.634 40.158 218.185 40.1447 218.681 40.1946C218.804 40.2079 218.91 40.0815 218.91 39.9652C218.91 39.8322 218.804 39.749 218.681 39.7357C217.787 39.6426 216.816 39.8189 216.221 40.547C215.832 41.0225 215.645 41.621 215.592 42.2261C215.582 42.3558 215.572 42.4854 215.582 42.6151C215.602 42.9143 216.061 42.9143 216.041 42.6217Z" fill="#262433"/>
<path d="M221.099 60.1537L210.277 71.6179L200.922 59.891C202.182 59.0797 203.475 58.4148 204.792 57.916L210.314 66.0587L217.568 58.2153C218.769 58.7306 219.949 59.379 221.099 60.1537Z" fill="#93A6D5" stroke="#262433" stroke-width="0.125718" stroke-miterlimit="10"/>
<path d="M197.924 41.8554C201.684 39.6942 203.33 42.0549 207.352 43.2618C209.883 44.0199 211.146 43.1887 211.731 42.4638C211.924 42.2278 212.303 42.3242 212.343 42.6234C212.499 43.7572 212.705 45.802 212.649 48.309C212.609 50.1311 209.311 51.3945 206.561 52.4585V52.3388H203.343C199.643 52.3388 196.617 48.8942 196.617 44.6816V42.6401C196.99 42.4106 197.415 42.148 197.924 41.8554Z" fill="white" stroke="#262433" stroke-width="0.125718" stroke-miterlimit="10"/>
<path d="M214.075 39.4075C213.486 40.1955 212.894 40.9835 212.306 41.7715C212.223 41.8845 212.136 41.9976 212.053 42.1073C211.987 42.1971 212.04 42.34 212.126 42.3932C212.233 42.4564 212.343 42.4065 212.412 42.3201C213.001 41.5321 213.593 40.7441 214.181 39.9561C214.264 39.843 214.351 39.73 214.434 39.6203C214.5 39.5305 214.447 39.3875 214.361 39.3343C214.254 39.2678 214.141 39.3177 214.075 39.4075Z" fill="#262433"/>
<path d="M215.775 47.2402C214.888 46.2759 213.997 45.3117 213.109 44.3475C212.983 44.2112 212.86 44.0749 212.733 43.9419C212.55 43.7457 212.258 44.0383 212.441 44.2345C213.328 45.1987 214.219 46.1629 215.107 47.1271C215.233 47.2634 215.356 47.3998 215.483 47.5328C215.666 47.7323 215.958 47.4363 215.775 47.2402Z" fill="#262433"/>
<path d="M211.644 38.6807C211.624 40.6423 210.68 42.6938 208.825 43.5417C206.993 44.3795 204.955 43.5683 203.858 41.9657C202.681 40.25 202.551 37.876 203.489 36.0241C204.347 34.3317 206.155 33.1281 208.09 33.5769C210.381 34.1023 211.624 36.4796 211.644 38.6807C211.648 38.9466 212.063 38.95 212.06 38.6807C212.04 36.5261 210.959 34.2718 208.891 33.4007C206.94 32.5761 204.805 33.3874 203.592 35.0532C202.242 36.9052 202.099 39.5219 203.126 41.55C204.061 43.3987 206.049 44.6555 208.147 44.2C210.643 43.658 212.033 41.0779 212.056 38.6807C212.063 38.4147 211.648 38.4147 211.644 38.6807Z" fill="#262433"/>
<path d="M200.459 38.4849C200.443 40.2903 199.698 42.3284 197.982 43.1763C196.333 43.9909 194.588 43.0765 193.694 41.6136C192.673 39.9378 192.583 37.6869 193.401 35.9114C194.099 34.3952 195.629 33.1251 197.387 33.5773C199.492 34.116 200.443 36.5132 200.459 38.4849C200.463 38.7509 200.878 38.7542 200.875 38.4849C200.855 36.5132 200.004 34.2722 198.102 33.3944C196.32 32.5699 194.445 33.451 193.424 35.0103C192.234 36.8291 192.138 39.3194 193.042 41.2745C193.817 42.9502 195.529 44.2735 197.451 43.8114C199.765 43.2528 200.855 40.6593 200.875 38.4882C200.878 38.2155 200.463 38.2155 200.459 38.4849Z" fill="#262433"/>
<path d="M200.711 39.0989C200.771 39.0756 200.831 39.059 200.894 39.039C201.044 38.9958 201.21 38.9659 201.336 38.9526C201.755 38.9127 202.204 38.9659 202.547 39.2319C202.636 39.3017 202.753 39.3183 202.839 39.2319C202.912 39.1587 202.929 39.0058 202.839 38.9393C202.42 38.6167 201.908 38.4937 201.383 38.5336C201.12 38.5536 200.844 38.6001 200.598 38.6965C200.495 38.7364 200.422 38.8362 200.452 38.9526C200.485 39.0556 200.608 39.1421 200.711 39.0989Z" fill="#262433"/>
<path d="M225.654 135.053L198.994 128.739C196.384 128.12 194.771 125.504 195.39 122.897L204.39 84.8935C205.008 82.2834 207.625 80.6709 210.231 81.2893L236.891 87.6033C239.501 88.2217 241.114 90.8384 240.495 93.4451L231.496 131.449C230.877 134.055 228.261 135.671 225.654 135.053Z" fill="#DDE1F2"/>
<path d="M215.857 123.323C215.857 123.323 194.24 111.848 191.749 107.642C189.263 103.44 200.241 111.35 200.241 111.35C200.241 111.35 192.035 106.412 192.83 104.314C193.628 102.22 202.179 108.843 202.179 108.843C202.179 108.843 193.133 102.535 194.27 101.003C195.403 99.4665 204.137 106.465 204.137 106.465C204.137 106.465 194.861 100.158 196.155 98.336C197.448 96.514 206.315 103.706 206.315 103.706C206.315 103.706 201.401 98.5089 202.874 97.5547C204.347 96.6004 212.136 105.581 222.669 111.021C233.198 116.46 215.857 123.323 215.857 123.323Z" fill="#F4F4F4" stroke="#262433" stroke-width="0.125718" stroke-miterlimit="10"/>
<path d="M256.049 117.179C234.771 112.607 222.586 108.97 222.586 108.97L213.32 125.268C232.311 147.778 284.016 150.764 266.997 110.539L256.049 117.179Z" fill="white"/>
<path d="M266.997 110.542C284.016 150.767 232.311 147.781 213.32 125.271L222.586 108.973C222.586 108.973 235.123 112.959 256.049 117.182" stroke="#262433" stroke-width="0.125718" stroke-miterlimit="10"/>
<path d="M227.423 110.392C224.485 109.488 222.586 108.973 222.586 108.973L213.32 125.271C214.68 126.884 216.213 128.4 217.875 129.81L227.423 110.392Z" fill="white" stroke="#262433" stroke-width="0.125718" stroke-miterlimit="10"/>
<path d="M199.382 115.341C197.72 120.907 194.262 125.715 190.033 129.642C188.265 131.288 186.4 132.82 184.471 134.267H155.484C156.092 134.011 156.697 133.751 157.302 133.489C158.246 133.08 159.187 132.654 160.122 132.222C165.251 129.775 170.262 127.022 174.913 123.75C176.12 122.902 177.297 122.014 178.444 121.083C180.392 119.391 182.22 117.546 183.786 115.491C184.445 114.49 185.026 113.443 185.509 112.346C185.728 111.647 185.898 110.939 186.017 110.218C186.031 109.629 186.007 109.041 185.947 108.452C185.718 107.511 185.405 106.594 185.03 105.699C183.983 103.668 182.676 101.776 181.25 99.9903C177.114 95.1658 172.23 90.9964 167.2 87.1429C165.926 86.1687 164.636 85.2178 163.336 84.2801C158.429 80.8189 153.366 77.5771 148.203 74.5083C148.179 74.495 148.156 74.4817 148.133 74.465L158.147 63.9883C163.29 67.1503 168.303 70.5051 173.194 74.0428C177.915 77.4541 182.503 81.0949 186.689 85.1546C188.983 87.3823 191.104 89.7596 193.105 92.2532C194.578 94.0886 195.931 96.0337 197.005 98.1283C197.743 99.568 198.458 101.048 198.987 102.577C199.522 104.116 199.798 105.726 200.034 107.338C200.187 108.379 200.213 109.43 200.13 110.477C199.997 112.136 199.858 113.752 199.382 115.341Z" fill="#F4F4F4" stroke="#262433" stroke-width="0.125718" stroke-miterlimit="10"/>
<path d="M145.133 57.043C145.133 57.043 171.501 61.5017 194.009 86.7044L177.655 102.587L158.488 91.7516L145.133 57.043Z" fill="white" stroke="#262433" stroke-width="0.125718" stroke-miterlimit="10"/>
<path d="M190.576 83.0498C191.726 84.2168 192.87 85.4338 194.007 86.7039L177.653 102.587L172.789 99.8372L190.576 83.0498Z" fill="#93A6D5" stroke="#262433" stroke-width="0.125718" stroke-miterlimit="10"/>
<path d="M79.5366 115.341C81.1989 120.907 84.6566 125.715 88.8855 129.642C90.6542 131.288 92.5193 132.82 94.4476 134.267H123.435C122.827 134.011 122.222 133.751 121.617 133.489C120.672 133.08 119.732 132.654 118.797 132.222C113.667 129.775 108.657 127.022 104.006 123.75C102.799 122.902 101.622 122.014 100.475 121.083C98.527 119.391 96.6984 117.546 95.1325 115.491C94.4743 114.49 93.8924 113.443 93.4104 112.346C93.1909 111.647 93.0214 110.939 92.9017 110.218C92.8884 109.629 92.9117 109.041 92.9715 108.452C93.2009 107.511 93.5134 106.594 93.8891 105.699C94.9364 103.668 96.243 101.776 97.6692 99.9903C101.805 95.1658 106.689 90.9964 111.719 87.1429C112.993 86.1687 114.283 85.2178 115.582 84.2801C120.49 80.8189 125.553 77.5771 130.716 74.5083C130.74 74.495 130.763 74.4817 130.786 74.465L120.772 63.9883C115.629 67.1503 110.615 70.5051 105.725 74.0428C101.004 77.4541 96.4158 81.0949 92.2301 85.1546C89.9361 87.3823 87.815 89.7596 85.8135 92.2532C84.3407 94.0886 82.9876 96.0337 81.9137 98.1283C81.1756 99.568 80.4608 101.048 79.9322 102.577C79.397 104.116 79.121 105.726 78.885 107.338C78.732 108.379 78.7054 109.43 78.7885 110.477C78.9182 112.136 79.0612 113.752 79.5366 115.341Z" fill="#F4F4F4" stroke="#262433" stroke-width="0.125718" stroke-miterlimit="10"/>
<path d="M133.798 57.043C133.798 57.043 107.43 61.5017 84.9219 86.7044L101.276 102.587L120.442 91.7516L133.798 57.043Z" fill="white" stroke="#262433" stroke-width="0.125718" stroke-miterlimit="10"/>
<path d="M88.3529 83.0498C87.2026 84.2168 86.0589 85.4338 84.9219 86.7039L101.276 102.587L106.14 99.8372L88.3529 83.0498Z" fill="#93A6D5" stroke="#262433" stroke-width="0.125718" stroke-miterlimit="10"/>
<path d="M171.197 134.264C171.24 132.728 171.264 131.179 171.264 129.62C171.264 89.099 156.645 56.249 138.612 56.249C120.579 56.249 105.961 89.099 105.961 129.62C105.961 131.182 105.984 132.728 106.027 134.264H171.197Z" fill="white" stroke="#262433" stroke-width="0.125718" stroke-miterlimit="10"/>
<path d="M112.758 90.0098V99.366C112.758 102.066 114.945 104.254 117.645 104.254H121.189C123.889 104.254 126.076 102.066 126.076 99.366V90.0098H112.758Z" fill="#3C55A5" stroke="#262433" stroke-width="0.125718" stroke-miterlimit="10"/>
<path d="M126.073 90.0098H112.758V93.4843H126.073V90.0098Z" fill="#93A6D5" stroke="#262433" stroke-width="0.125718" stroke-miterlimit="10"/>
<path d="M122.064 76.1788C122.589 71.5439 123.972 66.9189 126.472 62.9557C128.474 59.7837 131.33 56.9143 134.96 55.714C138.291 54.6135 141.852 55.1588 144.818 56.9841C148.129 59.0256 150.523 62.3206 152.159 65.7951C154.173 70.0643 155.124 74.8156 155.24 79.517C155.257 80.2052 155.254 80.8968 155.237 81.5851C155.224 82.1204 156.055 82.1204 156.068 81.5851C156.201 76.5478 155.42 71.4275 153.485 66.756C151.913 62.9656 149.569 59.3714 146.217 56.9243C143.272 54.7731 139.598 53.7956 136.001 54.5636C132.167 55.3815 129.012 58.0115 126.728 61.097C123.899 64.9207 122.247 69.5755 121.492 74.2404C121.389 74.8821 121.302 75.5238 121.229 76.1688C121.173 76.7108 122.004 76.7074 122.064 76.1788Z" fill="#262433"/>
<path d="M156.231 88.1096C158.07 87.3884 158.977 85.3125 158.256 83.473C157.535 81.6335 155.459 80.7269 153.62 81.4481C151.78 82.1693 150.874 84.2451 151.595 86.0846C152.316 87.9242 154.392 88.8307 156.231 88.1096Z" fill="#C1C0C0" stroke="#262433" stroke-width="0.125718" stroke-miterlimit="10"/>
<path d="M156.857 84.7741C156.857 85.8381 155.992 86.7026 154.928 86.7026C153.864 86.7026 153 85.8381 153 84.7741C153 83.7102 153.864 82.8457 154.928 82.8457C155.992 82.8457 156.857 83.7068 156.857 84.7741Z" fill="#F4F4F4" stroke="#262433" stroke-width="0.125718" stroke-miterlimit="10"/>
<path d="M117.499 88.8502C117.026 86.5494 117.03 84.1189 117.622 81.838C118.06 80.1456 118.862 78.3335 120.305 77.2629C121.491 76.3818 122.974 76.2754 124.261 77.0169C125.794 77.9013 126.798 79.5737 127.413 81.1863C128.38 83.7232 128.62 86.5627 128.174 89.2325C128.088 89.7546 128.889 89.9807 128.975 89.452C129.411 86.8519 129.261 84.1222 128.443 81.6086C127.818 79.6868 126.778 77.765 125.102 76.568C123.732 75.5905 121.99 75.3877 120.484 76.1723C118.799 77.0501 117.755 78.8489 117.143 80.5812C116.189 83.2777 116.132 86.2867 116.704 89.0696C116.804 89.595 117.605 89.3722 117.499 88.8502Z" fill="#262433"/>
<path d="M116.195 98.4725C116.195 98.4725 118.898 101.638 123.121 99.0012C127.34 96.3646 128.477 91.2874 128.799 88.3516" stroke="#262433" stroke-width="0.125718" stroke-miterlimit="10"/>
<path d="M116.75 97.9932C116.75 98.4753 116.361 98.8644 115.879 98.8644C115.397 98.8644 115.008 98.4753 115.008 97.9932C115.008 97.5111 115.397 97.1221 115.879 97.1221C116.358 97.1188 116.75 97.5111 116.75 97.9932Z" fill="white" stroke="#262433" stroke-width="0.125718" stroke-miterlimit="10"/>
<path d="M129.777 98.4258C129.777 98.4258 127.114 101.624 122.862 99.0443C118.606 96.4608 117.406 91.4003 117.047 88.4678" stroke="#262433" stroke-width="0.125718" stroke-miterlimit="10"/>
<path d="M129.211 97.9538C129.218 98.4359 129.613 98.8216 130.095 98.815C130.577 98.8083 130.963 98.4127 130.956 97.9306C130.95 97.4485 130.554 97.0628 130.072 97.0694C129.59 97.0761 129.204 97.4717 129.211 97.9538Z" fill="white" stroke="#262433" stroke-width="0.125718" stroke-miterlimit="10"/>
<path d="M138.731 69.1262L146.654 58.4899C145.331 57.7385 143.978 57.1633 142.598 56.7875L142.651 51.0288C142.668 49.0372 141.055 47.3914 139.064 47.3748L137.521 47.3615C135.53 47.3448 133.887 48.9574 133.867 50.949L133.811 57.0369C132.172 57.5822 130.576 58.4001 129.023 59.4707L138.731 69.1262Z" fill="#F4F4F4" stroke="#262433" stroke-width="0.125718" stroke-miterlimit="10"/>
<path d="M128.766 59.6496L139.129 71.2568L148.088 59.3869C146.882 58.5657 145.645 57.8941 144.382 57.3887L139.092 65.6311L132.143 57.6912C130.996 58.2099 129.869 58.8682 128.766 59.6496Z" fill="#93A6D5" stroke="#262433" stroke-width="0.125718" stroke-miterlimit="10"/>
<path d="M150.522 39.9335C150.522 39.9335 153.893 35.4748 152.39 29.4335C150.891 23.3888 139.637 20.2501 138.29 20.6225C136.944 20.9982 131.801 21.2542 131.801 21.2542C131.801 21.2542 125.64 21.2309 124.842 27.2823C124.044 33.3336 126.747 40.4189 126.947 41.3865C127.15 42.354 146.708 46.6564 150.522 39.9335Z" fill="#262433"/>
<path d="M154.528 41.6193C154.581 43.4047 153.165 44.9009 151.363 44.9541C149.561 45.0107 148.058 43.6042 148.001 41.8188C147.948 40.03 149.365 38.5371 151.167 38.4839C152.968 38.4307 154.475 39.8338 154.528 41.6193Z" fill="#F4F4F4" stroke="#262433" stroke-width="0.125718" stroke-miterlimit="10"/>
<path d="M149.765 42.2011C149.758 42.1312 149.758 42.0614 149.761 41.9949C149.765 41.9218 149.768 41.8453 149.778 41.7721C149.781 41.7422 149.771 41.689 149.778 41.7688C149.778 41.7489 149.785 41.7223 149.788 41.7023C149.795 41.6524 149.805 41.6026 149.818 41.556C149.841 41.4563 149.875 41.3565 149.911 41.2601C149.938 41.1936 149.891 41.3033 149.921 41.2368C149.931 41.2135 149.941 41.1903 149.954 41.1703C149.981 41.1138 150.014 41.0606 150.047 41.0107C150.061 40.9875 150.077 40.9675 150.091 40.9476C150.131 40.891 150.064 40.9775 150.111 40.9243C150.154 40.8744 150.197 40.8245 150.247 40.7813C150.267 40.7614 150.29 40.7447 150.31 40.7248C150.353 40.6882 150.277 40.7481 150.307 40.7281C150.32 40.7181 150.33 40.7115 150.343 40.7015C150.4 40.6616 150.46 40.625 150.523 40.5951C150.536 40.5885 150.553 40.5818 150.566 40.5752C150.579 40.5685 150.589 40.5652 150.603 40.5586C150.573 40.5719 150.569 40.5718 150.596 40.5619C150.636 40.5486 150.672 40.5319 150.709 40.522C150.792 40.4954 150.879 40.4754 150.962 40.4621C150.968 40.4621 151.045 40.4488 150.988 40.4588C151.012 40.4555 151.035 40.4522 151.061 40.4522C151.111 40.4488 151.161 40.4455 151.211 40.4422C151.331 40.4389 151.45 40.4422 151.57 40.4488C151.706 40.4588 151.823 40.3258 151.823 40.1961C151.823 40.0498 151.706 39.9534 151.57 39.9434C150.859 39.8902 150.131 40.0698 149.685 40.6583C149.409 41.0207 149.289 41.4829 149.263 41.9317C149.256 42.0248 149.256 42.1212 149.263 42.2143C149.276 42.3507 149.369 42.467 149.515 42.467C149.638 42.4537 149.778 42.3374 149.765 42.2011Z" fill="#0D0E0E"/>
<path d="M122.517 42.0816C122.57 43.8704 124.076 45.2735 125.878 45.217C127.68 45.1605 129.097 43.6676 129.043 41.8821C128.99 40.0933 127.484 38.6902 125.682 38.7468C123.88 38.8 122.464 40.2928 122.517 42.0816Z" fill="#F4F4F4" stroke="#262433" stroke-width="0.125718" stroke-miterlimit="10"/>
<path d="M127.807 42.3551C127.834 41.5239 127.405 40.6495 126.614 40.327C126.201 40.1607 125.749 40.164 125.317 40.2206C125.181 40.2372 125.108 40.4134 125.141 40.5298C125.181 40.6761 125.317 40.7226 125.45 40.706C125.782 40.6628 126.088 40.6727 126.394 40.7791C126.411 40.7858 126.504 40.8224 126.447 40.7991C126.477 40.8124 126.507 40.8257 126.537 40.8423C126.597 40.8756 126.657 40.9088 126.713 40.9487C126.773 40.9886 126.693 40.9288 126.747 40.9753C126.77 40.9953 126.79 41.0119 126.813 41.0352C126.856 41.0751 126.896 41.1216 126.936 41.1648C126.946 41.1748 126.953 41.1881 126.963 41.1981C126.923 41.1515 126.946 41.1748 126.953 41.1881C126.969 41.2114 126.986 41.2313 126.999 41.2546C127.033 41.3045 127.062 41.3543 127.089 41.4075C127.102 41.4308 127.112 41.4541 127.126 41.4774C127.132 41.494 127.169 41.5771 127.139 41.5006C127.159 41.5505 127.179 41.5971 127.192 41.6469C127.222 41.7367 127.245 41.8265 127.265 41.9196C127.272 41.9595 127.282 41.9994 127.285 42.0393C127.289 42.0692 127.315 42.1191 127.285 42.0393C127.292 42.0559 127.289 42.0792 127.292 42.0958C127.302 42.1789 127.308 42.2654 127.305 42.3518C127.292 42.681 127.797 42.681 127.807 42.3551Z" fill="#0D0E0E"/>
<path d="M128.217 44.2035C128.26 48.323 131.661 51.6579 135.781 51.618L141.426 51.5615C145.545 51.5182 148.88 48.1169 148.84 43.9973L148.717 31.6619C148.677 27.5424 145.273 24.2075 141.153 24.2474L135.508 24.3039C131.389 24.3472 128.054 27.7485 128.094 31.8681L128.217 44.2035Z" fill="#F4F4F4" stroke="#262433" stroke-width="0.125718" stroke-miterlimit="10"/>
<path d="M139.262 37.3841C139.249 38.6475 139.239 39.911 139.225 41.1744C139.222 41.3573 139.222 41.5369 139.219 41.7197C139.215 41.9857 139.631 41.9891 139.634 41.7197C139.648 40.4563 139.658 39.1928 139.671 37.9294C139.674 37.7465 139.674 37.5669 139.678 37.3841C139.678 37.1181 139.262 37.1181 139.262 37.3841Z" fill="#262433"/>
<path d="M130.864 35.7633C131.33 35.5805 131.792 35.3976 132.257 35.2147C132.324 35.1881 132.39 35.1615 132.46 35.1349C132.563 35.095 132.636 34.9953 132.606 34.8789C132.58 34.7792 132.457 34.6927 132.35 34.7326C131.885 34.9155 131.423 35.0983 130.957 35.2812C130.891 35.3078 130.824 35.3344 130.755 35.361C130.652 35.4009 130.578 35.5007 130.608 35.617C130.635 35.7168 130.758 35.8032 130.864 35.7633Z" fill="#262433"/>
<path d="M144.293 35.7952C144.792 35.7819 145.291 35.7686 145.789 35.7553C145.862 35.752 145.932 35.752 146.005 35.7487C146.271 35.742 146.275 35.3264 146.005 35.3331C145.507 35.3464 145.008 35.3597 144.509 35.373C144.436 35.3763 144.366 35.3763 144.293 35.3796C144.027 35.3863 144.027 35.8019 144.293 35.7952Z" fill="#262433"/>
<path d="M143.954 37.6674C143.981 38.3257 144.54 38.8377 145.198 38.8111C145.856 38.7845 146.368 38.2259 146.341 37.5676C146.315 36.9093 145.756 36.3972 145.098 36.4238C144.436 36.4504 143.924 37.009 143.954 37.6674Z" fill="#0D0E0E"/>
<path d="M131.306 37.6674C131.333 38.3257 131.891 38.8377 132.549 38.8111C133.208 38.7845 133.72 38.2259 133.693 37.5676C133.666 36.9093 133.108 36.3972 132.45 36.4238C131.788 36.4504 131.276 37.009 131.306 37.6674Z" fill="#0D0E0E"/>
<path d="M148.817 41.4138C147.131 42.8601 144.285 43.8775 142.341 41.1877C140.695 38.9101 137.753 38.694 134.574 41.3905C131.825 43.7246 128.759 41.6798 128.188 41.2575L128.217 44.2C128.261 48.3196 131.662 51.6545 135.781 51.6146L141.426 51.558C145.546 51.5148 148.88 48.1135 148.84 43.9939L148.817 41.4138Z" fill="white" stroke="#262433" stroke-width="0.125718" stroke-miterlimit="10"/>
<path d="M126.357 26.3518C127.079 25.3411 129.642 23.6653 131.64 22.7842C131.225 13.4945 156.077 8.23447 150.853 21.6205C150.853 21.6205 159.062 18.1294 160.438 22.2389C163.786 32.2402 139.892 35.3789 133.133 26.5048C131.713 27.0334 129.968 28.0575 129.622 29.9328C129.024 33.1945 128.183 40.4062 128.183 40.4062C128.183 40.4062 127.78 38.6673 127.105 37.211C126.424 35.7547 125.314 27.8081 126.357 26.3518Z" fill="#262433"/>
</svg>
