<svg width="281" height="252" viewBox="0 0 281 252" fill="none" xmlns="http://www.w3.org/2000/svg">
<path d="M137.998 26.1093C134.48 24.8025 131.085 23.2856 127.732 21.5127C110.928 12.4887 98.1352 2.96207 78.3068 3.84848C60.7993 4.64808 43.4517 11.8993 31.0384 24.6335C20.5257 35.3846 13.6543 49.3387 9.22258 63.8412C2.55676 85.7227 -0.463201 110.136 0.528219 132.986C1.48309 153.94 9.51038 173.756 25.5285 187.372C60.4201 217.012 116.136 222.746 159.768 216.254C192.178 211.447 224.009 196.565 246.236 170.466C259.604 154.785 272.643 132.058 271.113 110.853C269.541 89.1404 265.11 69.8313 247.351 55.539C230.917 42.3023 209.27 38.3363 188.492 35.7638C171.523 33.6118 153.975 32.0537 137.998 26.1093Z" fill="#FACC74"/>
<path d="M258.559 146.419C255.082 147.616 252.583 155.768 250.956 158.916C250.92 158.989 250.883 159.057 250.847 159.126C250.394 159.976 249.138 159.802 248.928 158.865C248.06 155 247.694 151.116 251.281 148.05C257.256 142.942 258.339 138.268 258.015 132.835C257.805 129.363 259.121 126.589 260.098 125.036C261.167 123.336 262.077 121.545 262.862 119.699C277.236 85.8462 254.205 95.4596 252.153 103.602C250.687 109.414 252.912 112.95 247.845 117.003C241.412 122.148 240.891 127.654 241.037 130.19C241.184 132.725 243.427 136.495 238.429 141.421C233.43 146.346 233.289 151.998 235.171 157.723C237.053 163.448 233.504 167.94 231.548 170.256C231.544 170.261 231.544 170.265 231.539 170.27C231.169 170.713 230.465 170.604 230.269 170.06C229.392 167.652 227.546 166.615 226.262 166.057C224.594 165.331 222.785 162.073 221.41 157.508C220.035 152.944 210.98 148.813 207.434 150.769C203.884 152.725 201.787 161.2 204.684 165.477C207.58 169.754 222.136 173.738 221.415 179.966C220.693 186.193 231.406 189.89 231.406 189.89C231.406 189.89 232.293 189.771 233.197 188.985C236.012 190.671 240.22 192.321 242.595 189.127C242.947 188.652 243.304 188.117 243.655 187.537C244.638 187.477 246.127 186.929 248.352 185.54C256.717 180.322 254.543 175.977 255.849 172.28C257.151 168.584 262.803 162.937 262.803 162.937C270.182 151.308 262.031 145.222 258.559 146.419Z" fill="#010101"/>
<path d="M238.248 185.444C238.079 185.444 237.942 185.307 237.937 185.138C237.585 163.252 243.429 142.677 248.395 129.276C253.772 114.755 259.31 105.274 259.365 105.183C259.451 105.036 259.643 104.986 259.789 105.073C259.936 105.16 259.986 105.352 259.899 105.498C259.844 105.594 254.33 115.034 248.971 129.509C244.027 142.86 238.207 163.348 238.558 185.133C238.563 185.302 238.426 185.444 238.252 185.449C238.252 185.444 238.248 185.444 238.248 185.444Z" fill="white"/>
<path d="M229.762 186.125C229.616 186.125 229.483 186.02 229.456 185.869C226.294 167.716 207.722 155.804 207.535 155.686C207.389 155.594 207.348 155.402 207.439 155.261C207.53 155.114 207.722 155.073 207.869 155.165C208.056 155.283 226.861 167.337 230.068 185.764C230.096 185.933 229.986 186.093 229.817 186.121C229.794 186.121 229.776 186.125 229.762 186.125Z" fill="white"/>
<path d="M242.832 184.932C242.804 184.932 242.777 184.927 242.75 184.923C242.585 184.877 242.489 184.708 242.535 184.543C246.071 171.736 256.058 157.928 256.159 157.786C256.259 157.649 256.451 157.617 256.593 157.718C256.73 157.818 256.762 158.01 256.661 158.152C256.561 158.289 246.642 172.01 243.133 184.708C243.092 184.845 242.969 184.932 242.832 184.932Z" fill="white"/>
<path d="M240.49 159.582C240.413 159.582 240.34 159.555 240.276 159.496C240.152 159.377 240.148 159.18 240.262 159.057C243.396 155.744 245.343 150.737 245.365 150.686C245.425 150.526 245.608 150.449 245.767 150.508C245.927 150.568 246.005 150.75 245.946 150.91C245.863 151.12 243.935 156.083 240.714 159.487C240.655 159.551 240.573 159.582 240.49 159.582Z" fill="white"/>
<path d="M239.817 165.015C239.716 165.015 239.616 164.965 239.556 164.873C239.465 164.732 239.506 164.54 239.648 164.444C243.504 161.949 245.062 157.572 245.076 157.531C245.13 157.371 245.309 157.284 245.468 157.339C245.628 157.394 245.715 157.572 245.66 157.732C245.596 157.919 244.016 162.351 239.986 164.965C239.931 164.997 239.872 165.015 239.817 165.015Z" fill="white"/>
<path d="M245.468 177.768C245.34 177.768 245.221 177.69 245.176 177.567C245.116 177.407 245.198 177.229 245.358 177.169C248.328 176.082 253.061 169.434 253.107 169.365C253.207 169.223 253.399 169.191 253.541 169.292C253.683 169.392 253.715 169.584 253.614 169.726C253.418 170.005 248.716 176.603 245.573 177.754C245.536 177.759 245.5 177.768 245.468 177.768Z" fill="white"/>
<path d="M216.183 162.526C216.17 162.526 216.156 162.526 216.147 162.521C215.978 162.498 215.854 162.347 215.877 162.174C216.439 157.586 213.543 154.255 213.515 154.223C213.401 154.096 213.415 153.899 213.543 153.785C213.671 153.671 213.867 153.684 213.981 153.812C214.109 153.954 217.093 157.39 216.494 162.251C216.471 162.407 216.339 162.526 216.183 162.526Z" fill="white"/>
<path d="M225.295 174.351C225.254 174.351 225.217 174.341 225.176 174.328C219.991 172.176 214.485 167.579 214.43 167.533C214.298 167.424 214.284 167.227 214.394 167.099C214.503 166.967 214.7 166.953 214.832 167.063C214.887 167.108 220.319 171.646 225.418 173.761C225.578 173.825 225.651 174.008 225.587 174.168C225.528 174.282 225.414 174.351 225.295 174.351Z" fill="white"/>
<path d="M247.111 133.758C246.988 133.758 246.873 133.685 246.823 133.566C244.959 129.107 246.174 123.437 246.225 123.199C246.261 123.03 246.426 122.925 246.595 122.961C246.764 122.998 246.869 123.162 246.832 123.331C246.818 123.386 245.608 129.047 247.399 133.329C247.463 133.489 247.39 133.667 247.234 133.735C247.193 133.754 247.152 133.758 247.111 133.758Z" fill="white"/>
<path d="M239.208 212.493H235.384C226.767 212.493 219.781 205.507 219.781 196.89V185.38H254.814V196.89C254.81 205.507 247.824 212.493 239.208 212.493Z" fill="white"/>
<path d="M242.185 212.804H232.408C225.276 212.804 219.469 207.001 219.469 199.864V185.38C219.469 185.211 219.606 185.069 219.779 185.069H254.813C254.982 185.069 255.123 185.206 255.123 185.38V199.864C255.123 206.997 249.321 212.804 242.185 212.804ZM220.09 185.686V199.86C220.09 206.654 225.618 212.178 232.408 212.178H242.185C248.978 212.178 254.502 206.649 254.502 199.86V185.686H220.09Z" fill="#010101"/>
<path d="M143.873 63.3242C143.809 63.3242 143.745 63.3059 143.69 63.2648C143.594 63.1963 143.549 63.0775 143.567 62.9632L145.833 49.4889L143.43 49.0822C141.433 48.7441 139.684 47.6521 138.509 46.0026C137.335 44.3532 136.874 42.3428 137.207 40.3461L142.937 6.32888C143.275 4.33217 144.367 2.5822 146.016 1.40793C147.665 0.233662 149.675 -0.227823 151.672 0.105724L233.85 13.9411C235.847 14.2792 237.597 15.3712 238.771 17.0206C239.945 18.6701 240.406 20.6805 240.073 22.6772L234.344 56.6944C234.006 58.6911 232.914 60.4411 231.264 61.6154C229.615 62.7896 227.605 63.2511 225.608 62.9176L215.717 61.2498C215.548 61.2224 215.434 61.0625 215.461 60.8934C215.488 60.7244 215.648 60.6147 215.817 60.6376L225.709 62.3053C227.541 62.616 229.387 62.1911 230.903 61.1128C232.42 60.0344 233.425 58.4307 233.731 56.5939L239.461 22.5767C239.771 20.7399 239.346 18.8986 238.268 17.3816C237.19 15.8647 235.586 14.8595 233.75 14.5533L151.571 0.717992C149.739 0.407292 147.894 0.832221 146.377 1.91054C144.86 2.98885 143.855 4.59262 143.549 6.42941L137.819 40.4466C137.509 42.2834 137.934 44.1247 139.012 45.6417C140.09 47.1586 141.694 48.1638 143.53 48.47L146.24 48.9269C146.409 48.9543 146.523 49.1142 146.496 49.2833L144.28 62.4424L163.98 51.9791C164.04 51.9471 164.108 51.9379 164.177 51.9471L189.108 56.1461C189.277 56.1735 189.392 56.3334 189.364 56.5025C189.337 56.6716 189.177 56.7812 189.008 56.7584L164.181 52.5776L144.019 63.2877C143.969 63.3105 143.923 63.3242 143.873 63.3242Z" fill="#010101"/>
<path d="M184.304 176.858C187.844 176.405 190.494 173.394 190.494 169.826L190.956 72.3984L189.22 68.6425C189.22 68.6425 186.067 66.5407 184.413 65.5995C183.417 65.0329 182.234 64.7679 181 64.9278L40.4563 82.8525C36.9155 83.3049 34.2656 86.3159 34.2656 89.8844V186.467C34.4347 192.388 42.3935 195.961 42.3935 195.961L184.304 176.858Z" fill="#010101"/>
<path d="M45.4988 196.56L186.893 178.526C190.452 178.073 193.12 175.04 193.12 171.453V74.2857C193.12 70.9457 190.191 68.3641 186.879 68.789L45.485 86.8234C41.926 87.2757 39.2578 90.3096 39.2578 93.8964V191.064C39.2578 194.399 42.1864 196.981 45.4988 196.56Z" fill="white"/>
<path d="M44.8012 196.912C43.3848 196.912 42.0097 196.4 40.936 195.45C39.675 194.34 38.9531 192.74 38.9531 191.059V93.8965C38.9531 90.1589 41.7493 86.988 45.4545 86.5128L186.848 68.4784C188.516 68.2637 190.193 68.78 191.454 69.8903C192.715 71.0006 193.437 72.5998 193.437 74.2812V171.448C193.437 175.186 190.64 178.357 186.935 178.832L45.5413 196.866C45.2946 196.898 45.0433 196.912 44.8012 196.912ZM187.584 69.0541C187.365 69.0541 187.145 69.0678 186.921 69.0953L45.5276 87.1296C42.1284 87.5637 39.57 90.4742 39.57 93.8965V191.064C39.57 192.567 40.2187 193.997 41.3426 194.989C42.4711 195.98 43.9696 196.441 45.4636 196.254L186.858 178.22C190.257 177.786 192.815 174.875 192.815 171.453V74.2858C192.815 72.7825 192.166 71.3524 191.043 70.3609C190.079 69.5156 188.85 69.0541 187.584 69.0541Z" fill="#010101"/>
<path d="M50.5666 191.982L181.836 175.24C185.144 174.82 187.62 172.006 187.62 168.675V78.4663C187.62 75.3684 184.902 72.9696 181.827 73.3626L50.5574 90.1039C47.2497 90.5242 44.7734 93.3388 44.7734 96.6697V186.873C44.7734 189.98 47.4918 192.375 50.5666 191.982Z" fill="white"/>
<path d="M49.916 192.334C48.5956 192.334 47.3119 191.854 46.3113 190.972C45.1371 189.935 44.4609 188.445 44.4609 186.878V96.6742C44.4609 93.1925 47.0651 90.2409 50.5145 89.7977L181.784 73.0564C183.337 72.8553 184.905 73.3397 186.079 74.3723C187.253 75.4095 187.929 76.899 187.929 78.4662V168.67C187.929 172.147 185.325 175.103 181.875 175.547L50.6059 192.288C50.3729 192.32 50.1444 192.334 49.916 192.334ZM182.474 73.6321C182.268 73.6321 182.067 73.6458 181.862 73.6732L50.5922 90.4145C47.4489 90.8166 45.0777 93.5078 45.0777 96.6742V186.878C45.0777 188.267 45.6762 189.587 46.7179 190.506C47.7596 191.424 49.1485 191.849 50.5237 191.671L181.793 174.93C184.937 174.528 187.308 171.836 187.308 168.67V78.4662C187.308 77.0772 186.709 75.7567 185.668 74.8383C184.781 74.057 183.644 73.6321 182.474 73.6321Z" fill="#010101"/>
<path d="M127.916 251.202L272.462 232.56C273.596 232.414 274.231 231.468 274.217 230.522C274.208 229.869 274.153 225.268 274.153 225.268L197.722 181.573C193.894 179.385 188.936 178.539 184.564 179.101L41.8453 197.515C40.9863 197.625 40.2508 198.182 39.9081 198.982L39.6797 199.521C39.6797 199.521 39.803 203.359 39.7527 204.255C39.7116 204.954 40.0315 205.68 40.7625 206.1L115.274 248.708C119.103 250.882 123.539 251.764 127.916 251.202Z" fill="#010101"/>
<path d="M127.923 246.085L271.953 227.48C273.863 227.233 274.37 224.697 272.693 223.742L198.583 181.409C194.755 179.22 190.318 178.343 185.942 178.901L41.9114 197.506C40.0017 197.753 39.4945 200.289 41.1713 201.244L115.281 243.577C119.11 245.765 123.546 246.643 127.923 246.085Z" fill="white"/>
<path d="M125.372 246.556C121.799 246.556 118.235 245.624 115.124 243.847L41.014 201.514C40.1322 201.011 39.6936 200.042 39.8901 199.051C40.0865 198.055 40.8632 197.333 41.8683 197.2L185.898 178.595C190.312 178.033 194.871 178.933 198.732 181.14L272.842 223.473C273.724 223.975 274.162 224.944 273.966 225.936C273.769 226.932 272.993 227.654 271.988 227.786L127.957 246.392C127.099 246.501 126.235 246.556 125.372 246.556ZM188.484 179.052C187.648 179.052 186.808 179.107 185.976 179.212L41.946 197.817C41.0505 197.931 40.6119 198.594 40.4931 199.17C40.3789 199.75 40.5343 200.527 41.3155 200.974L115.425 243.307C119.172 245.446 123.594 246.328 127.875 245.775L271.905 227.169C272.801 227.055 273.239 226.392 273.358 225.812C273.472 225.232 273.317 224.455 272.536 224.007L198.426 181.674C195.406 179.952 191.952 179.052 188.484 179.052Z" fill="#010101"/>
<path d="M97.4186 223.043C94.1839 223.043 90.9629 222.198 88.1486 220.59L58.7852 203.985C57.9765 203.524 57.5744 202.637 57.7526 201.728C57.9354 200.819 58.6435 200.152 59.5664 200.033L184.458 183.781C188.451 183.269 192.572 184.087 196.067 186.083L225.431 202.688C226.239 203.149 226.641 204.036 226.463 204.945C226.28 205.854 225.572 206.521 224.649 206.64L99.7578 222.892C98.9811 222.993 98.1999 223.043 97.4186 223.043ZM186.797 184.256C186.043 184.256 185.29 184.302 184.536 184.397L59.6441 200.65C58.8537 200.75 58.4608 201.335 58.3603 201.852C58.2598 202.363 58.3968 203.053 59.0913 203.451L88.4547 220.055C91.8356 221.983 95.8195 222.774 99.6801 222.28L224.572 206.028C225.362 205.927 225.755 205.342 225.856 204.826C225.956 204.314 225.819 203.624 225.124 203.227L195.761 186.623C193.038 185.069 189.922 184.256 186.797 184.256Z" fill="#010101"/>
<path d="M172.395 232.474C171.49 232.474 170.59 232.236 169.804 231.789L153.014 222.605C152.708 222.431 152.557 222.097 152.626 221.759C152.694 221.417 152.959 221.17 153.302 221.124L188.061 216.633C189.176 216.491 190.327 216.72 191.305 217.277L208.095 226.461C208.401 226.635 208.552 226.968 208.483 227.306C208.415 227.649 208.15 227.896 207.807 227.941L173.048 232.433C172.829 232.46 172.614 232.474 172.395 232.474ZM188.714 217.213C188.522 217.213 188.331 217.227 188.139 217.25L153.38 221.741C153.265 221.755 153.238 221.842 153.229 221.883C153.22 221.919 153.215 222.011 153.316 222.07L170.106 231.254C170.969 231.747 171.988 231.948 172.97 231.825L207.729 227.334C207.844 227.32 207.871 227.233 207.88 227.192C207.889 227.155 207.894 227.064 207.793 227.005L191.003 217.821C190.304 217.419 189.509 217.213 188.714 217.213Z" fill="#010101"/>
<path d="M91.4338 201.491C91.2785 201.491 91.146 201.377 91.1277 201.217C91.1049 201.048 91.2282 200.892 91.3973 200.869L143.641 194.518C143.81 194.496 143.965 194.619 143.984 194.788C144.007 194.957 143.883 195.112 143.714 195.135L91.4704 201.486C91.4567 201.491 91.4475 201.491 91.4338 201.491Z" fill="#010101"/>
<path d="M114.27 206.613C114.114 206.613 113.982 206.499 113.964 206.339C113.941 206.17 114.064 206.014 114.233 205.991L129.401 204.145C129.571 204.127 129.726 204.246 129.744 204.415C129.767 204.584 129.644 204.739 129.475 204.762L114.306 206.608C114.297 206.613 114.283 206.613 114.27 206.613Z" fill="#010101"/>
<path d="M168.363 207.536C168.208 207.536 168.076 207.421 168.057 207.261C168.035 207.092 168.158 206.937 168.327 206.914L183.495 205.068C183.664 205.05 183.82 205.169 183.838 205.338C183.861 205.507 183.737 205.662 183.568 205.685L168.4 207.531C168.391 207.536 168.377 207.536 168.363 207.536Z" fill="#010101"/>
<mask id="mask0_4201_73978" style="mask-type:luminance" maskUnits="userSpaceOnUse" x="44" y="23" width="213" height="170">
<path d="M50.551 191.983L181.821 175.242C185.128 174.821 187.605 172.007 187.605 168.676L256.15 55.8322C256.15 52.7343 184.886 23.4782 181.811 23.8711L50.5418 40.6124C47.234 41.0328 44.7578 43.8473 44.7578 47.1782V186.879C44.7578 189.982 47.4762 192.376 50.551 191.983Z" fill="white"/>
</mask>
<g mask="url(#mask0_4201_73978)">
<path d="M116.567 263.385L117.28 230.076C117.28 230.076 122.329 241.951 125.655 263.385H163.425C160.08 232.502 149.261 204.48 146.173 196.959C145.643 195.666 144.574 194.679 143.244 194.263C135.866 191.947 110.139 185.847 83.6586 202.835C82.4113 203.635 81.6118 204.978 81.5022 206.463C81.027 213.157 79.9031 233.942 81.6347 263.39H116.567V263.385Z" fill="#010101"/>
<path d="M203.222 72.5643C203.222 72.5643 203.378 58.8204 203.62 55.1011C203.899 50.8701 198.114 55.6723 197.891 68.644L203.222 72.5643Z" fill="white"/>
<path d="M203.224 72.8751C203.16 72.8751 203.096 72.8569 203.041 72.8157L197.714 68.8908C197.632 68.8314 197.586 68.7355 197.586 68.635C197.737 59.844 200.46 54.4707 202.347 53.4609C202.858 53.1867 203.21 53.2918 203.416 53.4243C203.813 53.6802 203.987 54.2514 203.932 55.1195C203.69 58.7885 203.534 72.4273 203.534 72.5644C203.534 72.6787 203.466 72.7883 203.361 72.8386C203.32 72.866 203.27 72.8751 203.224 72.8751ZM198.207 68.4888L202.922 71.9567C202.954 69.2609 203.1 58.3179 203.315 55.0784C203.361 54.3839 203.224 54.0366 203.082 53.9452C202.954 53.863 202.753 53.9498 202.644 54.0092C201.323 54.7128 198.399 59.3277 198.207 68.4888Z" fill="#010101"/>
<path d="M200.915 86.4683C202.254 83.5989 205.045 77.4534 205.242 75.6806C205.443 73.8621 204.013 72.3131 203.364 71.7191C202.98 71.3673 202.619 70.9927 202.258 70.6134L198.914 67.0952C198.078 66.259 197.754 64.9842 196.483 65.0482C194.062 65.167 192.961 69.1924 192.961 69.1924C192.961 69.1924 190.827 67.1409 189.484 67.8856C188.136 68.635 185.391 74.7896 187.743 81.6159C189.827 87.67 190.987 86.0753 190.919 90.3703C189.955 100.669 185.459 123.414 177.72 122.546C169.976 121.673 166.197 115.88 166.197 115.88L148.352 133.261C148.352 133.261 159.207 149.81 180.456 148.01C210.925 145.428 200.18 90.2196 200.18 90.2058C200.17 89.9454 200.166 89.7398 200.17 89.5981C200.202 88.5061 200.458 87.4461 200.915 86.4683Z" fill="white"/>
<path d="M177.294 148.449C167.823 148.449 160.709 144.803 156.25 141.554C150.896 137.652 148.118 133.467 148.091 133.425C148.008 133.302 148.027 133.138 148.132 133.032L165.977 115.652C166.046 115.588 166.137 115.556 166.228 115.565C166.32 115.574 166.402 115.624 166.452 115.702C166.489 115.757 170.249 121.386 177.751 122.226C178.793 122.345 179.83 121.989 180.83 121.176C186.267 116.757 189.712 99.9109 190.607 90.3294C190.639 88.0357 190.333 87.5468 189.662 86.4685C189.118 85.5958 188.373 84.3987 187.446 81.7075C185.011 74.6344 187.921 68.3884 189.328 67.6071C190.507 66.9537 192.097 68.0549 192.805 68.6397C193.189 67.5294 194.345 64.8337 196.465 64.7286C197.52 64.6737 198.018 65.3865 198.502 66.0765C198.694 66.3506 198.895 66.6339 199.128 66.8669L202.477 70.3897C202.815 70.7461 203.181 71.1208 203.564 71.4817C204.231 72.0986 205.753 73.7389 205.538 75.7082C205.342 77.481 202.728 83.2884 201.184 86.5919C200.741 87.5422 200.499 88.552 200.471 89.5938C200.467 89.7263 200.471 89.9182 200.48 90.1603C200.599 90.7635 202.153 99.029 202.308 109.278C202.454 118.909 201.326 132.128 195.089 140.375C191.503 145.122 186.587 147.791 180.474 148.307C179.396 148.403 178.331 148.449 177.294 148.449ZM148.758 133.293C149.388 134.179 152.047 137.725 156.639 141.065C161.016 144.25 168.001 147.823 177.299 147.827C178.317 147.827 179.359 147.786 180.433 147.695C186.358 147.192 191.128 144.606 194.605 140.005C206.351 124.465 199.941 90.599 199.877 90.2563C199.873 90.238 199.873 90.2243 199.873 90.206C199.864 89.9365 199.859 89.7217 199.864 89.5801C199.896 88.456 200.156 87.364 200.636 86.336C201.865 83.7042 204.743 77.3942 204.935 75.6442C205.118 73.9582 203.752 72.4961 203.158 71.9432C202.76 71.5731 202.386 71.1893 202.038 70.8238L198.694 67.3055C198.429 67.0405 198.214 66.7344 198.004 66.4374C197.515 65.7429 197.182 65.318 196.506 65.3545C194.335 65.4596 193.276 69.2337 193.266 69.2703C193.239 69.3754 193.157 69.4576 193.052 69.485C192.947 69.5124 192.832 69.485 192.755 69.4119C192.206 68.8865 190.58 67.6345 189.643 68.1554C188.387 68.8545 185.76 74.872 188.049 81.511C188.953 84.1382 189.675 85.2988 190.205 86.1441C190.9 87.2544 191.279 87.8712 191.242 90.3659C190.338 100.071 186.82 117.118 181.237 121.66C180.104 122.583 178.911 122.98 177.696 122.848C170.93 122.085 167.092 117.566 166.169 116.346L148.758 133.293Z" fill="#010101"/>
<path d="M197.409 81.6571C196.349 81.6571 194.965 81.054 193.576 79.3543C190.78 75.9274 192.658 69.1331 192.74 68.8453C192.785 68.6808 192.959 68.5848 193.124 68.6305C193.288 68.6762 193.384 68.8498 193.338 69.0143C193.32 69.0829 191.465 75.7858 194.06 78.9613C195.673 80.9398 197.235 81.2505 198.076 80.9169C198.72 80.6656 199.072 80.0168 199.013 79.1898C198.862 76.9006 197.464 75.5025 197.446 75.4888C197.322 75.37 197.322 75.1735 197.441 75.0501C197.56 74.9268 197.756 74.9268 197.88 75.0456C197.944 75.1095 199.46 76.6128 199.63 79.1487C199.703 80.259 199.205 81.1362 198.3 81.4926C198.044 81.5977 197.743 81.6571 197.409 81.6571Z" fill="#010101"/>
<path d="M174.904 112.476L157.25 146.594L150.055 143.468L155.254 203.114C139.236 205.398 85.4294 212.64 70.1195 197.146L84.2324 139.402C84.2324 139.402 64.7376 134.102 57.7656 127.577L62.211 109.46C66.4417 101.811 78.5443 95.8351 86.5031 92.2209C94.005 88.8077 107.451 87.4141 115.707 86.1439C132.063 83.6263 157.479 97.3703 157.479 97.3703L174.904 112.476Z" fill="#3C55A5"/>
<path d="M157.241 146.594L174.895 112.476L157.479 97.38C157.479 97.38 132.058 83.6315 115.707 86.1537C107.451 87.4239 94.005 88.8221 86.5031 92.2306C78.5489 95.8448 66.4463 101.821 62.211 109.47L57.7656 127.587C64.7375 134.111 84.2324 139.411 84.2324 139.411L70.1195 197.156C85.4294 212.646 139.236 205.403 155.254 203.123L150.055 143.478L157.241 146.594Z" stroke="#262433" stroke-width="0.172763" stroke-miterlimit="10"/>
<path d="M110.496 207.116C90.0823 207.116 76.3029 203.849 69.8975 197.37C69.8199 197.292 69.7925 197.182 69.8153 197.077L83.8597 139.621C81.3103 138.908 64.1181 133.95 57.5573 127.805C57.4751 127.727 57.4431 127.613 57.4705 127.503L61.9159 109.387C61.9205 109.359 61.9342 109.336 61.9479 109.309C66.0598 101.884 77.1665 96.127 86.3817 91.9371C92.6089 89.1088 102.751 87.6786 110.898 86.5272C112.606 86.2851 114.219 86.0612 115.667 85.8373C131.937 83.3334 157.376 96.9631 157.631 97.1002C157.65 97.1093 157.668 97.123 157.686 97.1367L175.107 112.229C175.217 112.325 175.244 112.48 175.18 112.603L157.526 146.721C157.453 146.867 157.275 146.927 157.129 146.863L150.408 143.947L155.562 203.081C155.575 203.246 155.461 203.392 155.297 203.415C137.995 205.891 123 207.116 110.496 207.116ZM70.4595 197.059C80.7301 207.235 109.924 209.24 154.913 202.853L149.741 143.495C149.732 143.385 149.782 143.28 149.869 143.216C149.956 143.152 150.075 143.139 150.175 143.184L157.106 146.191L174.513 112.548L157.302 97.6394C156.302 97.1048 131.571 84.0233 115.754 86.4587C114.301 86.6826 112.689 86.911 110.98 87.1486C102.87 88.2909 92.7779 89.7165 86.6329 92.5082C78.2264 96.328 66.5898 102.25 62.5053 109.578L58.1148 127.48C65.0593 133.822 84.1201 139.054 84.312 139.104C84.4719 139.15 84.5724 139.314 84.5313 139.479L70.4595 197.059Z" fill="#010101"/>
<path d="M122.569 105.037C122.532 105.037 122.496 105.032 122.459 105.014L94.5027 94.2672C94.3428 94.2078 94.2652 94.025 94.3246 93.8651C94.384 93.7052 94.5667 93.6275 94.7266 93.6869L122.683 104.433C122.843 104.493 122.92 104.676 122.861 104.836C122.811 104.964 122.692 105.037 122.569 105.037Z" fill="#010101"/>
<path d="M145.097 131.409L100.222 117.547C99.0802 117.195 97.8695 117.835 97.5131 118.977L79.3934 177.649C79.0416 178.791 79.6813 180.002 80.8234 180.359L125.698 194.221C126.84 194.573 128.051 193.933 128.407 192.791L146.527 134.119C146.879 132.977 146.239 131.761 145.097 131.409Z" fill="white"/>
<path d="M126.335 194.628C126.093 194.628 125.851 194.591 125.604 194.518L80.7299 180.655C80.0994 180.459 79.5786 180.029 79.2725 179.445C78.9618 178.86 78.9024 178.188 79.0943 177.558L97.214 118.885C97.4104 118.255 97.8399 117.734 98.4247 117.428C99.0095 117.117 99.6811 117.058 100.312 117.25L145.186 131.108C146.488 131.51 147.224 132.899 146.822 134.201L128.702 192.873C128.373 193.942 127.395 194.628 126.335 194.628ZM99.5761 117.761C99.2791 117.761 98.9821 117.834 98.7126 117.976C98.2739 118.209 97.9541 118.597 97.8079 119.068L79.6882 177.74C79.542 178.215 79.5877 178.718 79.8207 179.152C80.0538 179.591 80.4421 179.911 80.9127 180.057L125.787 193.92C126.765 194.221 127.806 193.673 128.108 192.695L146.228 134.023C146.529 133.045 145.981 132.003 145.003 131.702L100.129 117.844C99.9461 117.789 99.7634 117.761 99.5761 117.761Z" fill="#010101"/>
<path d="M140.216 133.085L103.328 121.691L86.1758 177.233L123.064 188.627L140.216 133.085Z" fill="white"/>
<path d="M123.046 188.922C123.014 188.922 122.986 188.917 122.954 188.908L86.0709 177.517C85.9064 177.467 85.8151 177.293 85.8653 177.129L103.016 121.586C103.039 121.509 103.094 121.44 103.167 121.403C103.24 121.367 103.323 121.358 103.405 121.381L140.288 132.771C140.453 132.822 140.544 132.995 140.494 133.16L123.343 188.702C123.302 188.835 123.178 188.922 123.046 188.922ZM86.5461 177.014L122.84 188.222L139.809 133.274L103.514 122.066L86.5461 177.014Z" fill="#010101"/>
<path d="M133.525 125.1L113.327 118.863C111.929 118.433 110.449 119.215 110.019 120.613L108.594 125.237L133.85 133.036L135.275 128.412C135.705 127.014 134.923 125.534 133.525 125.1Z" fill="white"/>
<path d="M133.848 133.343C133.816 133.343 133.789 133.338 133.757 133.329L108.501 125.53C108.336 125.479 108.245 125.306 108.295 125.141L109.72 120.517C109.953 119.763 110.465 119.142 111.164 118.776C111.863 118.406 112.663 118.333 113.417 118.566L133.615 124.803C134.369 125.036 134.99 125.548 135.356 126.247C135.726 126.946 135.799 127.746 135.566 128.499L134.141 133.123C134.104 133.256 133.981 133.343 133.848 133.343ZM108.98 125.027L133.642 132.644L134.977 128.317C135.159 127.718 135.1 127.088 134.812 126.535C134.52 125.982 134.031 125.575 133.437 125.392L113.238 119.156C112.009 118.776 110.698 119.466 110.314 120.7L108.98 125.027Z" fill="#010101"/>
<path d="M126.016 113.622C123.018 112.695 119.839 114.376 118.911 117.374L117.234 122.802L128.09 126.155L129.766 120.727C130.689 117.73 129.013 114.55 126.016 113.622ZM124.558 118.338C123.964 118.155 123.635 117.524 123.818 116.935C124.001 116.341 124.631 116.012 125.221 116.195C125.814 116.377 126.143 117.008 125.961 117.597C125.778 118.187 125.152 118.52 124.558 118.338Z" fill="white"/>
<path d="M128.088 126.466C128.056 126.466 128.029 126.461 127.997 126.452L117.141 123.098C116.977 123.048 116.885 122.874 116.936 122.71L118.612 117.282C119.083 115.751 120.125 114.499 121.541 113.75C122.957 113 124.579 112.85 126.105 113.325C129.262 114.298 131.035 117.661 130.062 120.818L128.385 126.246C128.344 126.379 128.221 126.466 128.088 126.466ZM117.621 122.6L127.882 125.771L129.468 120.64C130.34 117.812 128.75 114.796 125.922 113.923C124.552 113.498 123.099 113.636 121.829 114.307C120.559 114.979 119.627 116.103 119.206 117.474L117.621 122.6ZM124.885 118.698C124.744 118.698 124.602 118.675 124.465 118.634C124.099 118.52 123.798 118.273 123.62 117.935C123.442 117.597 123.405 117.209 123.519 116.843C123.633 116.478 123.88 116.176 124.218 115.998C124.556 115.82 124.945 115.783 125.31 115.897C125.676 116.011 125.977 116.258 126.155 116.596C126.334 116.934 126.37 117.323 126.256 117.688C126.069 118.301 125.498 118.698 124.885 118.698ZM124.648 118.04C125.077 118.173 125.529 117.93 125.662 117.501C125.726 117.295 125.708 117.071 125.603 116.88C125.502 116.688 125.333 116.546 125.123 116.482C124.917 116.418 124.693 116.436 124.501 116.541C124.31 116.642 124.168 116.811 124.104 117.021C124.04 117.227 124.058 117.451 124.163 117.643C124.273 117.835 124.442 117.976 124.648 118.04Z" fill="#010101"/>
<path d="M134.205 140.174L104.297 130.937L103.531 133.416L133.439 142.654L134.205 140.174Z" fill="#010101"/>
<path d="M132.634 145.259L102.727 136.021L101.961 138.501L131.868 147.739L132.634 145.259Z" fill="#010101"/>
<path d="M131.064 150.34L101.156 141.103L100.39 143.582L130.298 152.82L131.064 150.34Z" fill="#010101"/>
<path d="M60.5164 129.478L82.5286 139.201C82.5286 139.201 76.411 150.418 97.3131 158.19C118.211 165.962 122.574 162.348 122.574 162.348L129.751 150.655C129.751 150.655 132.25 151.14 130.697 155.17C129.144 159.2 128.271 160.872 132.397 160.493C136.522 160.118 140.52 154.722 140.52 154.722C140.52 154.722 141.086 158.779 139.008 161.781C139.008 161.781 140.894 162.933 138.254 166.597C138.254 166.597 139.136 168.283 135.421 171.413C135.421 171.413 137.884 173.487 130.697 175C126.731 175.836 121.633 174.433 121.633 174.433C121.633 174.433 91.1956 182.388 73.0759 171.413C54.9516 160.433 60.5164 129.478 60.5164 129.478Z" fill="white"/>
<path d="M98.6206 177.522C90.3557 177.522 80.5375 176.297 72.9077 171.673C65.4103 167.131 60.8415 158.377 59.6856 146.356C58.8176 137.304 60.1928 129.495 60.2065 129.418C60.2248 129.326 60.2841 129.244 60.3664 129.198C60.4486 129.153 60.5491 129.148 60.6359 129.189L82.6482 138.912C82.7259 138.949 82.7899 139.013 82.8173 139.095C82.8447 139.177 82.8355 139.269 82.7944 139.342C82.7761 139.374 81.1359 142.485 82.6299 146.465C84.3478 151.039 89.3232 154.886 97.4144 157.893C116.818 165.107 121.876 162.416 122.337 162.124L129.483 150.486C129.551 150.376 129.679 150.317 129.807 150.344C129.843 150.354 130.684 150.523 131.173 151.409C131.68 152.327 131.616 153.625 130.981 155.274L130.739 155.9C129.981 157.847 129.437 159.254 129.857 159.816C130.136 160.191 130.958 160.305 132.365 160.177C136.308 159.816 140.228 154.585 140.265 154.53C140.338 154.429 140.47 154.383 140.589 154.415C140.713 154.447 140.804 154.548 140.818 154.671C140.84 154.836 141.352 158.683 139.406 161.717C139.584 161.904 139.812 162.229 139.908 162.722C140.119 163.773 139.675 165.094 138.584 166.642C138.725 167.191 138.803 168.863 135.847 171.44C136.02 171.687 136.208 172.084 136.084 172.573C135.801 173.697 134.006 174.611 130.748 175.296C126.979 176.091 122.305 174.931 121.615 174.748C120.77 174.963 113.405 176.763 104.153 177.343C102.431 177.458 100.571 177.522 98.6206 177.522ZM60.7547 129.92C60.4943 131.602 59.5531 138.487 60.307 146.31C61.0974 154.548 63.9849 165.541 73.232 171.143C80.5375 175.571 89.9354 176.877 98.4973 176.877C110.796 176.877 121.368 174.177 121.551 174.131C121.606 174.118 121.661 174.118 121.711 174.131C121.761 174.145 126.787 175.502 130.634 174.693C134.577 173.862 135.372 172.916 135.495 172.422C135.605 171.984 135.221 171.65 135.216 171.646C135.148 171.586 135.107 171.499 135.107 171.408C135.107 171.317 135.148 171.23 135.216 171.171C138.638 168.287 137.98 166.743 137.971 166.725C137.926 166.624 137.93 166.496 137.999 166.405C139.296 164.605 139.433 163.485 139.315 162.864C139.205 162.274 138.853 162.041 138.839 162.032C138.771 161.987 138.721 161.913 138.702 161.831C138.684 161.749 138.702 161.662 138.748 161.594C140.201 159.496 140.311 156.819 140.265 155.526C139.05 156.988 135.819 160.483 132.42 160.794C130.712 160.949 129.798 160.767 129.364 160.186C128.733 159.35 129.272 157.966 130.163 155.677L130.405 155.051C130.963 153.607 131.041 152.455 130.643 151.72C130.419 151.308 130.095 151.107 129.889 151.021L122.84 162.507C122.821 162.535 122.798 162.562 122.771 162.585C122.588 162.736 118.033 166.227 97.2043 158.482C88.9303 155.407 83.8316 151.432 82.0497 146.675C80.7202 143.116 81.707 140.269 82.1091 139.36L60.7547 129.92Z" fill="#010101"/>
<path d="M150.074 142.17C149.919 142.17 149.787 142.056 149.768 141.896L147.877 125.923C147.859 125.754 147.977 125.598 148.146 125.58C148.315 125.562 148.471 125.68 148.489 125.85L150.381 141.823C150.399 141.992 150.28 142.148 150.111 142.166C150.097 142.17 150.084 142.17 150.074 142.17Z" fill="#010101"/>
<path d="M85.4264 138.821C85.3578 138.821 85.2893 138.798 85.2299 138.752C85.0974 138.643 85.0791 138.446 85.1888 138.318L89.0129 133.685C89.1225 133.552 89.319 133.534 89.4469 133.644C89.5794 133.754 89.5976 133.95 89.488 134.078L85.6639 138.711C85.6046 138.78 85.5132 138.821 85.4264 138.821Z" fill="#010101"/>
<path d="M103.326 59.5191C103.326 59.5191 99.5108 51.7652 98.1676 50.3991C96.8243 49.0329 95.7827 47.5936 99.7392 44.9481C103.696 42.3026 114.026 35.2387 120.358 35.2844C126.69 35.3301 131.127 39.3281 129.176 42.2112C127.225 45.0943 126.334 46.3097 127.837 46.497C129.34 46.6844 130.167 48.3613 125.914 50.824C121.656 53.2913 106.816 63.9923 103.326 59.5191Z" fill="#010101"/>
<path d="M124.859 81.8943L122.579 73.7567C127.509 72.6646 128.985 65.9663 127.815 60.7438C126.965 56.9514 124.731 48.3203 124.731 48.3203C119.587 51.3451 105.666 51.6603 105.666 51.6603C105.666 51.6603 107.11 53.9632 106.283 55.1009C105.451 56.2386 105.972 60.5976 105.972 60.5976C105.972 60.5976 104.172 58.9024 102.244 60.2001C101.161 60.9265 102.399 64.0381 103.286 65.7835C104.176 67.5289 106.082 67.8716 106.082 67.8716C106.082 67.8716 106.397 67.6843 107.041 69.2195L104.976 80.1078C104.131 84.5672 101.093 88.3048 96.8984 90.0456L121.985 98.2883L132.736 88.8485C128.971 88.2865 125.887 85.5633 124.859 81.8943Z" fill="white"/>
<path d="M121.992 98.6032C121.96 98.6032 121.928 98.5987 121.896 98.5895L96.8087 90.3468C96.6853 90.3057 96.5985 90.1915 96.5939 90.0635C96.5894 89.9356 96.6671 89.8168 96.7858 89.7665C100.898 88.0577 103.849 84.4298 104.676 80.0571L106.723 69.2603C106.38 68.4561 106.165 68.2368 106.097 68.1865C106.074 68.1865 106.056 68.1865 106.033 68.182C105.951 68.1683 103.963 67.789 103.013 65.9294C102.424 64.7734 100.619 60.9262 102.072 59.9484C103.488 58.998 104.85 59.5098 105.594 59.953C105.48 58.6279 105.339 55.8727 106.033 54.9224C106.613 54.1319 105.777 52.4185 105.407 51.829C105.348 51.7331 105.343 51.6143 105.398 51.5184C105.453 51.4224 105.553 51.3584 105.663 51.3539C105.8 51.3493 119.561 51.002 124.578 48.055C124.66 48.0047 124.765 48.0001 124.852 48.0367C124.943 48.0732 125.007 48.1509 125.034 48.2469C125.057 48.3337 127.278 56.9282 128.118 60.6795C128.95 64.3804 128.415 68.4516 126.761 71.056C125.797 72.5729 124.518 73.5553 122.965 73.9848L125.158 81.8117C126.149 85.3573 129.142 88.0028 132.783 88.5511C132.902 88.5694 133.002 88.6562 133.034 88.7705C133.066 88.8847 133.03 89.0126 132.943 89.0903L122.193 98.5301C122.138 98.5804 122.065 98.6032 121.992 98.6032ZM97.7589 90.0087L121.919 97.9453L132.057 89.04C128.466 88.2587 125.564 85.5447 124.564 81.9716L122.284 73.834C122.261 73.7517 122.275 73.6649 122.316 73.5918C122.362 73.5187 122.43 73.4685 122.517 73.4502C124.052 73.1121 125.304 72.1891 126.245 70.7133C127.812 68.2459 128.315 64.3576 127.52 60.8074C126.784 57.5222 124.984 50.504 124.536 48.7814C119.68 51.3447 108.724 51.8656 106.193 51.9524C106.595 52.7337 107.244 54.3147 106.54 55.2833C105.919 56.1332 106.143 59.3818 106.284 60.5607C106.298 60.6886 106.234 60.8165 106.115 60.8759C106.001 60.9353 105.859 60.9125 105.763 60.8257C105.699 60.7617 104.114 59.3179 102.419 60.4601C101.688 60.9536 102.442 63.4438 103.566 65.6461C104.297 67.0808 105.795 67.492 106.092 67.5606C106.143 67.556 106.207 67.5606 106.275 67.5834C106.485 67.652 106.823 67.885 107.335 69.1049C107.358 69.1598 107.367 69.2237 107.353 69.2831L105.288 80.1714C104.466 84.4846 101.679 88.1079 97.7589 90.0087Z" fill="#010101"/>
<path d="M118.387 74.6341C116.432 74.6341 114.732 74.2046 113.316 73.3502C110.597 71.7099 109.935 69.1146 109.908 69.0049C109.867 68.8405 109.967 68.6714 110.136 68.6303C110.301 68.5892 110.47 68.6897 110.511 68.8587C110.515 68.8816 111.15 71.3261 113.649 72.8293C115.87 74.1635 118.853 74.3737 122.513 73.4598C122.677 73.4187 122.846 73.5193 122.887 73.6837C122.929 73.8482 122.828 74.0173 122.664 74.0584C121.124 74.4422 119.698 74.6341 118.387 74.6341Z" fill="#010101"/>
</g>
<mask id="mask1_4201_73978" style="mask-type:luminance" maskUnits="userSpaceOnUse" x="44" y="23" width="213" height="170">
<path d="M50.551 191.983L181.821 175.242C185.128 174.821 187.605 172.007 187.605 168.676L256.15 55.8322C256.15 52.7343 184.886 23.4782 181.811 23.8711L50.5418 40.6124C47.234 41.0328 44.7578 43.8473 44.7578 47.1782V186.879C44.7578 189.982 47.4762 192.376 50.551 191.983Z" fill="white"/>
</mask>
<g mask="url(#mask1_4201_73978)">
<path d="M70.3557 189.767C70.2003 189.767 70.0679 189.653 70.0496 189.497C70.0268 189.328 70.1501 189.173 70.3191 189.15L155.778 178.253C155.947 178.235 156.102 178.353 156.125 178.522C156.148 178.691 156.024 178.847 155.855 178.87L70.3968 189.767C70.3831 189.767 70.3694 189.767 70.3557 189.767Z" fill="#010101"/>
</g>
<path d="M176.651 37.2857C182.157 31.7793 182.157 22.8515 176.651 17.3451C171.145 11.8386 162.218 11.8386 156.712 17.345C151.206 22.8515 151.206 31.7793 156.712 37.2858C162.218 42.7922 171.145 42.7922 176.651 37.2857Z" fill="white"/>
<path d="M166.693 41.7178C165.948 41.7178 165.19 41.6584 164.432 41.5396C160.63 40.9365 157.291 38.8895 155.029 35.7779C152.768 32.6663 151.854 28.8557 152.452 25.0542C153.055 21.2526 155.102 17.9126 158.214 15.6509C161.325 13.3892 165.135 12.4708 168.936 13.0785C172.738 13.6816 176.077 15.7286 178.339 18.8401C180.601 21.9517 181.514 25.7624 180.916 29.5639C179.792 36.6506 173.651 41.7178 166.693 41.7178ZM166.657 13.5171C163.769 13.5171 160.964 14.4218 158.584 16.1535C155.605 18.3193 153.645 21.5131 153.069 25.1501C152.493 28.7871 153.366 32.4333 155.532 35.4124C157.697 38.3915 160.891 40.3516 164.528 40.9273C172.039 42.1153 179.111 36.975 180.304 29.4634C180.879 25.8263 180.007 22.1802 177.841 19.2011C175.675 16.222 172.482 14.2619 168.845 13.6862C168.11 13.5719 167.383 13.5171 166.657 13.5171Z" fill="#010101"/>
<path d="M174.347 24.8124L170.875 24.2641L171.423 20.7916C171.739 18.7949 170.377 16.917 168.376 16.5971C166.379 16.2818 164.502 17.6434 164.182 19.6447L163.634 23.1173L160.161 22.569C158.165 22.2537 156.287 23.6153 155.967 25.6166C155.652 27.6133 157.013 29.4912 159.015 29.811L162.487 30.3593L161.939 33.8319C161.623 35.8286 162.985 37.7065 164.986 38.0263C166.982 38.3416 168.86 36.98 169.18 34.9787L169.728 31.5062L173.201 32.0545C175.197 32.3697 177.075 31.0082 177.395 29.0069C177.71 27.0056 176.348 25.1277 174.347 24.8124Z" fill="#ED2224"/>
<path d="M224.937 31.8408L187 25.833L186.537 28.7574L224.474 34.7651L224.937 31.8408Z" fill="white"/>
<path d="M224.476 35.0695C224.457 35.0695 224.444 35.0695 224.425 35.0649L186.487 29.0565C186.317 29.0291 186.203 28.8692 186.231 28.7001L186.692 25.7759C186.706 25.6937 186.751 25.6205 186.815 25.5749C186.884 25.5246 186.966 25.5063 187.044 25.52L224.983 31.5284C225.065 31.5421 225.138 31.5878 225.184 31.6518C225.234 31.7203 225.252 31.8026 225.239 31.8803L224.777 34.8045C224.754 34.9599 224.627 35.0695 224.476 35.0695ZM186.889 28.4945L224.215 34.407L224.581 32.095L187.254 26.1826L186.889 28.4945Z" fill="#010101"/>
<path d="M223.945 38.081L186.008 32.0732L185.545 34.9976L223.482 41.0054L223.945 38.081Z" fill="white"/>
<path d="M223.484 41.3107C223.466 41.3107 223.452 41.3107 223.434 41.3061L185.495 35.2977C185.412 35.284 185.339 35.2383 185.294 35.1744C185.243 35.1058 185.225 35.0236 185.239 34.9459L185.7 32.0217C185.728 31.8526 185.888 31.7384 186.057 31.7658L223.996 37.7742C224.078 37.7879 224.151 37.8336 224.197 37.8976C224.247 37.9661 224.265 38.0483 224.251 38.126L223.79 41.0503C223.763 41.201 223.63 41.3107 223.484 41.3107ZM185.897 34.7357L223.223 40.6482L223.589 38.3362L186.262 32.4237L185.897 34.7357Z" fill="#010101"/>
<path d="M216.027 85.5576C215.392 85.5576 214.766 85.6215 214.159 85.7632C210.764 86.5399 208.781 89.3545 208.562 93.6952C208.027 104.497 221.953 112.844 224.749 114.407C224.996 114.544 225.297 114.54 225.539 114.389C240.21 105.296 241.713 96.9438 241.302 92.7768C240.913 88.8245 238.588 86.2155 236.591 85.4662C232.086 83.7756 227.353 86.4257 225.923 89.8662C225.786 90.1998 225.457 90.4283 225.096 90.4511C224.735 90.4694 224.388 90.2775 224.214 89.9576C222.789 87.3304 219.321 85.5576 216.027 85.5576Z" fill="#010101"/>
<path d="M241.911 92.7187C242.336 97.032 240.815 105.649 225.856 114.92C225.633 115.057 225.381 115.13 225.121 115.13C224.883 115.13 224.65 115.071 224.44 114.952C221.585 113.357 207.38 104.836 207.938 93.6691C208.244 87.4002 211.876 85.6457 214.01 85.1613C218.012 84.2521 222.928 86.3082 224.755 89.6665C224.81 89.7807 224.929 89.8447 225.057 89.8401C225.185 89.831 225.299 89.7533 225.345 89.6345C226.884 85.9381 231.965 83.0778 236.803 84.8963C239.047 85.7325 241.495 88.4785 241.911 92.7187Z" fill="#ED2224"/>
<path d="M229.391 103.186C229.24 103.186 229.112 103.076 229.085 102.93L228.148 97.4609L227.956 98.5895C227.929 98.7403 227.801 98.8454 227.65 98.8454H212.944C212.774 98.8454 212.633 98.7083 212.633 98.5347C212.633 98.3656 212.77 98.224 212.944 98.224H227.39L227.847 95.5739C227.874 95.4231 228.002 95.318 228.153 95.318C228.304 95.318 228.432 95.4277 228.459 95.5739L229.396 101.043L231.15 90.8037C231.177 90.6529 231.305 90.5479 231.456 90.5479C231.607 90.5479 231.735 90.6575 231.762 90.8037L233.48 100.828L234.412 95.3866C234.44 95.2358 234.567 95.1307 234.718 95.1307C234.869 95.1307 234.997 95.2403 235.024 95.3866L235.422 97.7077H238.734C238.903 97.7077 239.045 97.8447 239.045 98.0184C239.045 98.192 238.908 98.3291 238.734 98.3291H235.161C235.011 98.3291 234.883 98.2194 234.855 98.0732L234.718 97.2736L233.786 102.715C233.759 102.866 233.631 102.971 233.48 102.971C233.329 102.971 233.201 102.862 233.174 102.715L231.456 92.6908L229.702 102.93C229.67 103.076 229.542 103.186 229.391 103.186Z" fill="white"/>
<path d="M56.1552 57.5446C56.137 57.5446 56.1187 57.5446 56.1004 57.5401C55.9314 57.5127 55.8171 57.3482 55.8491 57.1837C55.8628 57.0923 57.5305 47.9997 65.7725 37.5227C70.6063 31.3772 76.7284 25.9582 83.9653 21.412C93.0023 15.7371 103.817 11.4193 116.111 8.57728C116.276 8.53616 116.445 8.64124 116.481 8.8103C116.518 8.97479 116.417 9.14385 116.248 9.1804C88.5752 15.5726 73.7906 28.3296 66.2568 37.9065C58.1107 48.2602 56.4751 57.202 56.4568 57.2888C56.434 57.4396 56.3014 57.5446 56.1552 57.5446Z" fill="#010101"/>
<path d="M59.8971 72.5863C59.888 72.5863 59.8834 72.5863 59.8742 72.5863C59.7052 72.5726 59.5773 72.4263 59.5864 72.2573C59.591 72.1933 60.089 65.5726 62.9125 57.4533C65.5258 49.9508 70.7159 39.5834 80.6301 32.8074C80.7717 32.7114 80.9636 32.748 81.0596 32.8896C81.1555 33.0313 81.1189 33.2232 80.9773 33.3191C62.2682 46.1127 60.2214 72.0425 60.2032 72.303C60.194 72.4583 60.0616 72.5863 59.8971 72.5863Z" fill="#010101"/>
<path d="M259.629 195.139C259.565 195.139 259.497 195.116 259.442 195.075C259.305 194.97 259.282 194.778 259.382 194.641C259.519 194.458 273.326 176.292 279.741 155.881C279.791 155.717 279.965 155.63 280.129 155.68C280.294 155.73 280.385 155.904 280.33 156.069C273.884 176.589 260.013 194.838 259.871 195.02C259.816 195.098 259.72 195.139 259.629 195.139Z" fill="#010101"/>
<path d="M254.808 210.856C254.73 210.856 254.657 210.829 254.598 210.774C254.475 210.655 254.465 210.459 254.584 210.336C264.069 200.256 273.334 184.625 273.426 184.47C273.513 184.323 273.704 184.273 273.851 184.36C273.997 184.447 274.047 184.639 273.96 184.785C273.869 184.94 264.567 200.631 255.037 210.765C254.973 210.824 254.89 210.856 254.808 210.856Z" fill="#010101"/>
<path d="M124.791 10.8798C123 10.8798 121.547 9.42222 121.547 7.63569C121.547 5.84459 123.004 4.3916 124.791 4.3916C126.582 4.3916 128.034 5.84916 128.034 7.63569C128.039 9.42222 126.582 10.8798 124.791 10.8798ZM124.791 5.00844C123.342 5.00844 122.164 6.18727 122.164 7.63569C122.164 9.0841 123.342 10.2629 124.791 10.2629C126.239 10.2629 127.418 9.0841 127.418 7.63569C127.418 6.18727 126.239 5.00844 124.791 5.00844Z" fill="#010101"/>
<path d="M50.9954 224.843C49.273 224.843 47.875 223.445 47.875 221.722C47.875 220 49.273 218.602 50.9954 218.602C52.7179 218.602 54.1159 220 54.1159 221.722C54.1159 223.445 52.7179 224.843 50.9954 224.843ZM50.9954 219.218C49.6157 219.218 48.4963 220.342 48.4963 221.722C48.4963 223.102 49.6202 224.222 50.9954 224.222C52.3752 224.222 53.4946 223.098 53.4946 221.722C53.4992 220.342 52.3752 219.218 50.9954 219.218Z" fill="#010101"/>
</svg>
