<svg width="17" height="16" viewBox="0 0 17 16" fill="none" xmlns="http://www.w3.org/2000/svg">
<path d="M15.9289 4.07005e-08C15.8401 -3.34416e-05 15.7526 0.0205916 15.6732 0.0602681L11.3429 2.226L6.44632 0.0494199C6.43831 0.0460047 6.42917 0.045402 6.4206 0.0419868C6.39857 0.0337502 6.37604 0.0268863 6.35317 0.0214287C6.33043 0.0153014 6.30733 0.0105135 6.28403 0.00713176C6.23762 0.00331478 6.19098 0.00331478 6.14461 0.00713176C6.1213 0.0105135 6.0982 0.0153014 6.07547 0.0214287C6.0526 0.0268863 6.03006 0.0337502 6.00803 0.0419868C5.99946 0.045402 5.99032 0.0459712 5.98232 0.0494199L0.839443 2.33515C0.632992 2.42683 0.499967 2.63154 0.5 2.85741V15.4289C0.5001 15.6222 0.597902 15.8024 0.75999 15.9078C0.922111 16.0133 1.12659 16.0296 1.30341 15.9512L6.21428 13.7683L11.1252 15.9512C11.1337 15.9546 11.1429 15.9512 11.1514 15.9563C11.2898 16.0182 11.4486 16.0147 11.584 15.9466C11.5931 15.9426 11.6034 15.9466 11.6126 15.9403L16.184 13.6546C16.3777 13.5578 16.5001 13.3598 16.5 13.1432V0.57171C16.5002 0.256106 16.2445 0.00013397 15.9289 4.07005e-08ZM5.64288 12.7717L1.64285 14.5494V3.22886L5.64288 1.45112V12.7717ZM10.7858 14.5494L6.78573 12.7717V1.45112L10.7858 3.22883V14.5494ZM15.3572 12.79L11.9286 14.5043V3.21055L15.3572 1.49626V12.79Z" fill="#0D257B"/>
</svg>
