<svg width="80" height="80" viewBox="0 0 80 80" fill="none" xmlns="http://www.w3.org/2000/svg">
<path d="M40 80C62.0914 80 80 62.0914 80 40C80 17.9086 62.0914 0 40 0C17.9086 0 0 17.9086 0 40C0 62.0914 17.9086 80 40 80Z" fill="#0D257B" fill-opacity="0.03"/>
<path d="M47.762 23.3418C47.762 24.965 48.4818 26.4233 49.6185 27.414C46.4726 28.7861 44.2675 31.9263 44.2675 35.5725V42.5615C44.2675 44.2179 45.3753 45.6191 46.8884 46.066V58.4615C46.8884 60.4765 48.5275 62.1157 50.5425 62.1157H55.7842C57.7992 62.1157 59.4384 60.4765 59.4384 58.4615V46.0659C60.9514 45.619 62.0593 44.2178 62.0593 42.5614V35.5724C62.0593 31.9262 59.8542 28.7861 56.7082 27.414C57.845 26.4232 58.5648 24.965 58.5648 23.3418C58.5648 20.3633 56.1418 17.9403 53.1633 17.9403C50.1849 17.9403 47.762 20.3633 47.762 23.3418ZM49.8286 23.3417C49.8286 21.5029 51.3246 20.0068 53.1633 20.0068C55.0021 20.0068 56.4982 21.5029 56.4982 23.3417C56.4982 25.1804 55.0021 26.6765 53.1633 26.6765C51.3246 26.6765 49.8286 25.1804 49.8286 23.3417ZM55.7842 60.049H54.1966V52.1713C54.1966 51.6007 53.734 51.138 53.1633 51.138C52.5927 51.138 52.13 51.6007 52.13 52.1713V60.049H50.5425C49.6672 60.049 48.955 59.3368 48.955 58.4614V46.2156H57.3718V58.4614C57.3718 59.3368 56.6595 60.049 55.7842 60.049ZM59.9927 42.5614C59.9927 43.4367 59.2804 44.149 58.4051 44.149H47.9217C47.0464 44.149 46.3341 43.4367 46.3341 42.5614V35.5724C46.3341 31.8068 49.3977 28.743 53.1633 28.743C56.929 28.743 59.9927 31.8067 59.9927 35.5724V42.5614Z" fill="#CC922F" stroke="#CC922F" stroke-width="0.175998"/>
<path d="M22.1806 25.2483H23.1264V25.9623C23.1264 26.5329 23.5891 26.9956 24.1597 26.9956C24.7304 26.9956 25.193 26.5329 25.193 25.9623V22.4678C25.193 21.8971 24.7304 21.4345 24.1597 21.4345C23.5891 21.4345 23.1264 21.8971 23.1264 22.4678V23.1817H22.1806C19.8117 23.1817 17.8847 25.1088 17.8847 27.4776C17.8847 27.68 17.8992 27.8843 17.9278 28.0851L17.9278 28.0851L18.5303 32.3028L18.6174 32.2904L18.5303 32.3028C18.8741 34.709 20.0746 36.9113 21.911 38.504C22.6131 39.1129 23.3907 39.6168 24.2188 40.0074L24.5566 42.7095C24.7623 44.355 25.9557 45.6661 27.4946 46.0787V55.8403C27.4946 59.3005 30.3095 62.1153 33.7696 62.1153C37.2297 62.1153 40.0446 59.3005 40.0446 55.8403V42.5611C40.0446 40.2406 41.9326 38.3527 44.2531 38.3527H49.6596C50.1064 39.8657 51.5076 40.9735 53.164 40.9735C55.179 40.9735 56.8182 39.3344 56.8182 37.3194C56.8183 35.3045 55.1791 33.6653 53.1641 33.6653C51.5078 33.6653 50.1065 34.7731 49.6596 36.2861H44.2531C40.7929 36.2861 37.978 39.101 37.978 42.5612V55.8403C37.978 58.1608 36.09 60.0487 33.7696 60.0487C31.4492 60.0487 29.5612 58.1608 29.5612 55.8403V46.0787C31.0999 45.6661 32.2934 44.3549 32.4991 42.7095L32.8369 40.0074C33.6651 39.6168 34.4425 39.1129 35.1447 38.504C36.981 36.9113 38.1815 34.7091 38.5253 32.3028L39.1278 28.0851L39.1278 28.085C39.1564 27.8843 39.171 27.68 39.171 27.4776C39.171 25.1088 37.2439 23.1817 34.875 23.1817H33.9292V22.4678C33.9292 21.8971 33.4666 21.4345 32.8959 21.4345C32.3253 21.4345 31.8626 21.8971 31.8626 22.4678V25.9623C31.8626 26.5329 32.3253 26.9956 32.8959 26.9956C33.4666 26.9956 33.9292 26.5329 33.9292 25.9623V25.2483H34.875C36.1042 25.2483 37.1044 26.2485 37.1044 27.4776C37.1044 27.5826 37.0969 27.6887 37.082 27.7928L36.4795 32.0105C35.9179 35.9418 32.4991 38.9069 28.5278 38.9069C24.5565 38.9069 21.1377 35.9419 20.5762 32.0105L19.9737 27.7929C19.9588 27.6887 19.9513 27.5825 19.9513 27.4776C19.9513 26.2484 20.9514 25.2483 22.1806 25.2483ZM26.6072 42.4533L26.3937 40.7454C27.0904 40.8961 27.8056 40.9736 28.5279 40.9736C29.2502 40.9736 29.9653 40.8961 30.662 40.7454L30.4485 42.4533C30.3276 43.4198 29.5018 44.1488 28.5279 44.1488C27.5539 44.1488 26.728 43.4198 26.6072 42.4533ZM53.1641 38.9069C52.2888 38.9069 51.5765 38.1947 51.5765 37.3194C51.5765 36.4441 52.2888 35.7318 53.1641 35.7318C54.0394 35.7318 54.7517 36.4441 54.7517 37.3194C54.7517 38.1947 54.0394 38.9069 53.1641 38.9069Z" fill="#0D257B" stroke="#0D257B" stroke-width="0.175998"/>
</svg>
