<svg width="24" height="25" viewBox="0 0 24 25" fill="none" xmlns="http://www.w3.org/2000/svg">
<path d="M24 9.39014C24.0023 8.83962 23.853 8.29909 23.5686 7.82774C23.2842 7.35639 22.8755 6.97239 22.3874 6.71779C21.8993 6.4632 21.3505 6.34783 20.8012 6.38431C20.2519 6.4208 19.7232 6.60773 19.2731 6.92464C18.8229 7.24155 18.4686 7.67622 18.249 8.18105C18.0294 8.68588 17.953 9.2414 18.028 9.78678C18.1031 10.3322 18.3268 10.8464 18.6746 11.2731C19.0224 11.6998 19.481 12.0226 20 12.2061V16.3901C20 17.9814 19.3679 19.5076 18.2426 20.6328C17.1174 21.758 15.5913 22.3901 14 22.3901C12.4087 22.3901 10.8826 21.758 9.75736 20.6328C8.63214 19.5076 8 17.9814 8 16.3901V16.3101C9.66408 16.0687 11.1858 15.2368 12.2874 13.9663C13.3889 12.6959 13.9968 11.0716 14 9.39014V5.39014C13.9984 4.06454 13.4711 2.79369 12.5338 1.85636C11.5964 0.919019 10.3256 0.391725 9 0.390137C8.73478 0.390137 8.48043 0.495494 8.29289 0.68303C8.10536 0.870566 8 1.12492 8 1.39014C8 1.65535 8.10536 1.90971 8.29289 2.09724C8.48043 2.28478 8.73478 2.39014 9 2.39014C9.79565 2.39014 10.5587 2.70621 11.1213 3.26882C11.6839 3.83143 12 4.59449 12 5.39014V9.39014C12 10.7162 11.4732 11.988 10.5355 12.9257C9.59785 13.8634 8.32608 14.3901 7 14.3901C5.67392 14.3901 4.40215 13.8634 3.46447 12.9257C2.52678 11.988 2 10.7162 2 9.39014V5.39014C2 4.59449 2.31607 3.83143 2.87868 3.26882C3.44129 2.70621 4.20435 2.39014 5 2.39014C5.26522 2.39014 5.51957 2.28478 5.70711 2.09724C5.89464 1.90971 6 1.65535 6 1.39014C6 1.12492 5.89464 0.870566 5.70711 0.68303C5.51957 0.495494 5.26522 0.390137 5 0.390137C3.67441 0.391725 2.40356 0.919019 1.46622 1.85636C0.528882 2.79369 0.00158786 4.06454 0 5.39014L0 9.39014C0.00321595 11.0716 0.611092 12.6959 1.71264 13.9663C2.81419 15.2368 4.33592 16.0687 6 16.3101V16.3901C6 18.5119 6.84285 20.5467 8.34315 22.047C9.84344 23.5473 11.8783 24.3901 14 24.3901C16.1217 24.3901 18.1566 23.5473 19.6569 22.047C21.1571 20.5467 22 18.5119 22 16.3901V12.2061C22.5829 12.0001 23.0879 11.6189 23.4459 11.1148C23.8039 10.6108 23.9974 10.0084 24 9.39014Z" fill="#0D257B"/>
</svg>
