<svg width="14" height="15" viewBox="0 0 14 15" fill="none" xmlns="http://www.w3.org/2000/svg">
<path d="M13.9998 6.17626C13.896 6.56836 13.5737 6.7667 13.309 7.01147C12.4702 7.78736 11.6257 8.55636 10.78 9.32422C10.7065 9.391 10.6971 9.45005 10.7177 9.54377C11.0065 10.8579 11.2915 12.1732 11.5779 13.488C11.6562 13.8465 11.5595 14.1644 11.3017 14.3498C11.0159 14.5556 10.7248 14.5416 10.4311 14.3576C9.32652 13.6657 8.21978 12.9772 7.1166 12.2836C7.02957 12.2288 6.96917 12.2323 6.8846 12.2853C5.7806 12.9781 4.67111 13.6617 3.57041 14.3596C3.06907 14.6774 2.54549 14.3951 2.42138 13.9385C2.38185 13.7926 2.38679 13.6479 2.41864 13.502C2.70473 12.1921 2.98862 10.8814 3.2791 9.57272C3.30656 9.44919 3.2824 9.3781 3.19152 9.29556C2.22233 8.41506 1.25808 7.52883 0.291362 6.64546C0.0365717 6.41272 -0.0641912 6.12668 0.0415137 5.78904C0.142826 5.46429 0.372082 5.28659 0.699904 5.25477C1.3572 5.19086 2.01421 5.12694 2.67178 5.06474C3.31562 5.00369 3.95946 4.94264 4.60385 4.88675C4.70324 4.87815 4.7403 4.82398 4.77517 4.73857C5.27871 3.50209 5.78665 2.26704 6.28991 1.03055C6.42389 0.700941 6.64958 0.502312 6.99635 0.500019C7.34998 0.497726 7.57731 0.700654 7.71349 1.03514C8.21154 2.25873 8.71618 3.47944 9.21039 4.70475C9.26585 4.84204 9.33833 4.88102 9.47067 4.89306C10.754 5.01029 12.037 5.13353 13.3197 5.25764C13.6434 5.28888 13.8518 5.47977 13.9652 5.79219C13.974 5.81684 13.9641 5.85209 13.9998 5.86241C13.9998 5.96674 13.9998 6.07164 13.9998 6.17626Z" fill="white"/>
</svg>
