<svg width="80" height="80" viewBox="0 0 80 80" fill="none" xmlns="http://www.w3.org/2000/svg">
<path d="M40 80C62.0914 80 80 62.0914 80 40C80 17.9086 62.0914 0 40 0C17.9086 0 0 17.9086 0 40C0 62.0914 17.9086 80 40 80Z" fill="#F5F5F5"/>
<path d="M55.0661 32.5127C53.44 32.5128 52.1172 33.8357 52.1172 35.4617C52.1172 37.0879 53.4401 38.4107 55.0661 38.4107C56.6923 38.4107 58.0151 37.0878 58.0151 35.4617C58.0152 33.8356 56.6923 32.5127 55.0661 32.5127ZM55.0661 36.944C54.2488 36.944 53.5839 36.2791 53.5839 35.4617C53.5839 34.6443 54.2488 33.9794 55.0661 33.9794C55.8834 33.9794 56.5484 34.6443 56.5484 35.4617C56.5484 36.2792 55.8834 36.944 55.0661 36.944Z" fill="#CC922F" stroke="#CC922F" stroke-width="0.4"/>
<path d="M55.0653 28.9143C54.8708 28.9143 54.6842 28.9915 54.5467 29.1291C54.4092 29.2666 54.3319 29.4531 54.3319 29.6476C54.3319 29.8422 54.4092 30.0287 54.5467 30.1662C54.6842 30.3038 54.8708 30.381 55.0653 30.381C57.8667 30.381 60.146 32.6602 60.146 35.4617C60.146 37.8118 58.5418 39.7936 56.3712 40.3715C56.1673 40.4255 55.9601 40.4667 55.751 40.4949C55.7358 40.497 55.7205 40.4988 55.705 40.5008C55.6102 40.5127 55.515 40.5221 55.4197 40.5287C55.4091 40.5295 55.3987 40.5305 55.3881 40.5311C55.1731 40.5447 54.9574 40.5447 54.7423 40.5311C54.7318 40.5305 54.7213 40.5295 54.7108 40.5287C54.6154 40.522 54.5203 40.5127 54.4254 40.5008L54.3794 40.4949C54.1703 40.4668 53.9632 40.4255 53.7592 40.3715C51.5886 39.7935 49.9845 37.8118 49.9845 35.4617C49.9845 33.7712 50.822 32.1961 52.225 31.2482C52.4559 31.0923 52.6992 30.9556 52.9525 30.8395C53.0401 30.7994 53.1189 30.7425 53.1844 30.6719C53.25 30.6014 53.301 30.5186 53.3345 30.4283C53.3681 30.338 53.3835 30.242 53.38 30.1458C53.3764 30.0495 53.3539 29.9549 53.3138 29.8674C53.2328 29.6906 53.0849 29.5531 52.9026 29.4854C52.7203 29.4176 52.5186 29.425 52.3418 29.506C52.0153 29.6556 51.7016 29.8318 51.4041 30.0328C49.5968 31.2538 48.5178 33.2833 48.5178 35.4617C48.5178 38.2841 50.3129 40.695 52.8212 41.613V52.0811C52.8212 56.7299 49.0393 60.5118 44.3906 60.5118C39.7418 60.5118 35.9599 56.7299 35.9599 52.0811V45.7985C39.8845 45.0777 43.3441 42.4348 45.9977 38.118C46.5289 37.254 46.4022 36.168 45.7588 35.4475C48.3788 30.3489 49.554 25.5384 48.8317 22.7961C48.2948 20.7581 46.4607 19.1426 43.5163 18.1039C43.4652 17.4363 43.0844 16.756 42.412 16.1481C41.7607 15.5594 40.9336 15.1296 40.2537 15.0266C38.814 14.8084 37.4421 15.9613 37.1943 17.5966C37.0777 18.3655 37.2238 19.1327 37.6056 19.7571C38.0124 20.4221 38.6335 20.8484 39.3546 20.9577C39.4957 20.9783 39.638 20.9884 39.7805 20.9878C40.3907 20.9878 41.1085 20.8227 41.7484 20.526C42.3303 20.256 42.7828 19.908 43.0854 19.507C44.8839 20.1499 46.9148 21.2786 47.4129 23.1697C47.889 24.977 47.3878 29.0623 44.4768 34.7336C44.1743 34.6797 43.8639 34.6887 43.565 34.7601C43.278 34.8277 43.0074 34.9516 42.7686 35.1246C42.5299 35.2975 42.3278 35.5161 42.1741 35.7677C39.8298 39.581 36.984 41.5144 33.7157 41.5144C30.4471 41.5144 27.6013 39.5809 25.2571 35.7675C24.7614 34.961 23.8345 34.579 22.9543 34.7336C20.0432 29.0623 19.5421 24.977 20.0183 23.1697C20.5157 21.2815 22.5391 20.1526 24.3458 19.5068C24.6485 19.9077 25.1009 20.256 25.683 20.5259C26.3228 20.8227 27.0407 20.9877 27.6508 20.9877C27.7933 20.9883 27.9357 20.9782 28.0767 20.9576C28.7979 20.8483 29.419 20.4219 29.8257 19.757C30.2076 19.1328 30.3537 18.3654 30.2371 17.5965C29.9894 15.9613 28.6178 14.8085 27.1777 15.0265C26.4977 15.1295 25.6707 15.5593 25.0194 16.148C24.347 16.7559 23.9663 17.4361 23.9152 18.1036C20.9707 19.1422 19.1372 20.7571 18.6001 22.7959C17.8777 25.5381 19.0529 30.3485 21.6727 35.447C21.0293 36.1675 20.9027 37.2534 21.4337 38.1175C24.0875 42.4345 27.5471 45.0775 31.4718 45.7983V49.3887C31.4718 49.5832 31.5491 49.7697 31.6866 49.9073C31.8242 50.0448 32.0107 50.1221 32.2052 50.1221C32.3997 50.1221 32.5863 50.0448 32.7238 49.9073C32.8614 49.7697 32.9386 49.5832 32.9386 49.3887V45.1709C32.9386 44.9926 32.8737 44.8205 32.756 44.6866C32.6383 44.5527 32.4759 44.4663 32.2991 44.4435C28.5652 43.9619 25.2403 41.5088 22.6834 37.3494C22.4601 36.9862 22.5724 36.51 22.9328 36.2841C22.9355 36.2826 22.9384 36.2817 22.9412 36.2803C22.9517 36.2747 22.9614 36.2682 22.9715 36.2621C23.3324 36.0638 23.79 36.1811 24.0077 36.5354C26.6369 40.8125 29.9032 42.9811 33.7159 42.9811C37.5285 42.9811 40.7947 40.8126 43.4239 36.5356C43.4771 36.4485 43.5471 36.3728 43.6297 36.3129C43.7124 36.253 43.8061 36.2101 43.9055 36.1866C44.0917 36.1419 44.2879 36.1681 44.4559 36.2601C44.4673 36.267 44.4783 36.2743 44.4903 36.2807C44.4932 36.2822 44.4962 36.2832 44.4991 36.2847C44.8591 36.5107 44.9712 36.9867 44.7481 37.3498C42.1913 41.5091 38.8664 43.9621 35.1327 44.4436C34.9559 44.4665 34.7934 44.5529 34.6757 44.6868C34.558 44.8207 34.4931 44.9928 34.4931 45.1711V52.0812C34.4931 57.5387 38.9331 61.9786 44.3905 61.9786C49.848 61.9786 54.2878 57.5387 54.2878 52.0812V41.963C54.3084 41.9654 54.329 41.9672 54.3495 41.9694C54.4674 41.9826 54.5857 41.9925 54.7043 41.9989C54.7258 42.0001 54.7476 42.0009 54.7693 42.0018C54.864 42.0061 54.9589 42.0089 55.0538 42.0091C55.0576 42.0091 55.0613 42.0094 55.0651 42.0094C55.0689 42.0094 55.0726 42.0091 55.0764 42.0091C55.1712 42.0089 55.2662 42.0061 55.3609 42.0018C55.3826 42.0009 55.4043 42.0001 55.426 41.9989C55.5157 41.994 55.6052 41.9871 55.6947 41.9784C55.7235 41.9757 55.7522 41.9726 55.7809 41.9694C55.8014 41.9672 55.822 41.9654 55.8424 41.963V52.081C55.8424 55.0126 54.7311 57.8034 52.7129 59.9394C52.5794 60.0808 52.5075 60.2695 52.513 60.4639C52.5185 60.6583 52.6011 60.8426 52.7424 60.9762C52.8784 61.105 53.0586 61.1767 53.2459 61.1765C53.3458 61.1766 53.4446 61.1563 53.5363 61.1168C53.628 61.0772 53.7107 61.0194 53.7792 60.9467C56.0554 58.5373 57.3091 55.3888 57.3091 52.0809V41.6129C59.8177 40.6949 61.6128 38.2841 61.6128 35.4616C61.6128 31.8515 58.6756 28.9143 55.0653 28.9143ZM42.0503 18.3321C41.9446 19.0295 40.335 19.623 39.5748 19.5071C39.2889 19.4638 39.0341 19.2807 38.8571 18.9913C38.6551 18.6613 38.5797 18.2439 38.6446 17.816C38.7691 16.9944 39.4062 16.3806 40.0339 16.4764C40.3547 16.525 40.9281 16.7834 41.4286 17.2357C41.856 17.6224 42.0943 18.0424 42.0503 18.3321ZM26.0032 17.2359C26.5037 16.7836 27.0768 16.5252 27.3978 16.4766C27.4411 16.47 27.4844 16.4668 27.5277 16.4668C28.1117 16.4668 28.6712 17.0514 28.7873 17.8162C28.8521 18.2441 28.7767 18.6615 28.5748 18.9915C28.3978 19.2809 28.1429 19.464 27.8571 19.5073C27.0963 19.6233 25.4872 19.0297 25.3815 18.3323C25.3376 18.0424 25.5758 17.6224 26.0032 17.2359Z" fill="#0D257B" stroke="#0D257B" stroke-width="0.4"/>
<path d="M52.0103 61.6094C51.8978 61.4507 51.727 61.3431 51.5353 61.3103C51.3436 61.2775 51.1467 61.3222 50.988 61.4346C49.0485 62.8074 46.7662 63.5331 44.3875 63.5331C38.0729 63.5331 32.9355 58.3957 32.9355 52.0811C32.9355 51.8865 32.8583 51.7 32.7207 51.5625C32.5832 51.4249 32.3967 51.3477 32.2021 51.3477C32.0076 51.3477 31.8211 51.4249 31.6836 51.5625C31.546 51.7 31.4688 51.8865 31.4688 52.0811C31.4688 59.2046 37.2641 64.9999 44.3875 64.9999C47.0714 64.9999 49.6469 64.181 51.8354 62.6318C51.914 62.5762 51.9809 62.5056 52.0322 62.4241C52.0836 62.3426 52.1184 62.2518 52.1346 62.1568C52.1508 62.0619 52.1482 61.9647 52.1269 61.8707C52.1055 61.7768 52.0659 61.688 52.0103 61.6094Z" fill="#CC922F" stroke="#CC922F" stroke-width="0.4"/>
</svg>
