<svg width="24" height="25" viewBox="0 0 24 25" fill="none" xmlns="http://www.w3.org/2000/svg">
<g clip-path="url(#clip0_8863_10819)">
<path fill-rule="evenodd" clip-rule="evenodd" d="M12.7028 23.312C12.7028 23.7003 12.388 24.0151 11.9997 24.0151C8.89519 24.0151 5.976 22.8057 3.77991 20.6096C1.58423 18.4139 0.375 15.4948 0.375 12.3898C0.375 9.28485 1.58423 6.36567 3.77991 4.17C5.97553 1.97432 8.89495 0.765137 12.0003 0.765137C15.1057 0.765137 18.0251 1.97432 20.2208 4.17C20.252 4.20112 20.2825 4.23286 20.3134 4.26436V3.37298C20.3134 2.98467 20.6282 2.66986 21.0165 2.66986C21.4048 2.66986 21.7196 2.98467 21.7196 3.37298V5.96006C21.7196 6.34837 21.4048 6.66318 21.0165 6.66318H18.4295C18.0412 6.66318 17.7263 6.34837 17.7263 5.96006C17.7263 5.57175 18.0412 5.25693 18.4295 5.25693H19.3173C19.2871 5.226 19.257 5.19492 19.2265 5.16436C15.2421 1.17989 8.75873 1.17989 4.77431 5.16436C0.790218 9.1485 0.790218 15.6311 4.77431 19.6153C6.70481 21.5457 9.27084 22.6089 11.9998 22.6089C12.3881 22.6089 12.7029 22.9237 12.7029 23.3121L12.7028 23.312ZM19.1325 12.3898C19.1325 16.3229 15.9328 19.5227 11.9997 19.5227C8.06667 19.5227 4.86684 16.3229 4.86684 12.3898C4.86684 8.45676 8.06658 5.25693 11.9997 5.25693C15.9329 5.25693 19.1325 8.45676 19.1325 12.3898ZM14.7324 13.1562L12.7028 11.9839V8.67993C12.7028 8.29162 12.388 7.97681 11.9997 7.97681C11.6114 7.97681 11.2965 8.29162 11.2965 8.67993V12.3898C11.2965 12.6409 11.4305 12.873 11.648 12.9986L14.0291 14.3738C14.1399 14.4378 14.2608 14.4682 14.3801 14.4682C14.6231 14.4682 14.8594 14.3421 14.9896 14.1166C15.1839 13.7804 15.0687 13.3503 14.7324 13.1561V13.1562ZM22.9219 11.6869C22.5339 11.6869 22.219 12.0031 22.219 12.3898C22.219 12.7765 22.5339 13.0927 22.9219 13.0927C23.3099 13.0927 23.6248 12.7765 23.6248 12.3898C23.6248 12.0031 23.3085 11.6869 22.9219 11.6869ZM14.6452 22.2597C14.2692 22.3606 14.0473 22.746 14.1482 23.1207C14.2479 23.4967 14.6333 23.7186 15.0093 23.6189C15.384 23.518 15.6059 23.1326 15.5062 22.7579C15.4053 22.3819 15.0199 22.16 14.6452 22.2597ZM17.1087 21.2392C16.7725 21.4332 16.6582 21.8637 16.8522 22.1999C17.0462 22.536 17.4767 22.6516 17.8129 22.4576C18.1491 22.2636 18.2633 21.8331 18.0694 21.497C17.8754 21.1608 17.4462 21.0452 17.1087 21.2392ZM19.2254 19.6155C18.9517 19.8906 18.9517 20.3357 19.2254 20.6094C19.5004 20.8844 19.9455 20.8844 20.2206 20.6094C20.4943 20.3357 20.4943 19.8906 20.2206 19.6155C19.9455 19.3404 19.5004 19.3404 19.2254 19.6155ZM21.8097 17.2424C21.4736 17.047 21.043 17.1626 20.8491 17.4988C20.655 17.835 20.7706 18.2655 21.1068 18.4595C21.443 18.6535 21.8735 18.5378 22.0675 18.2017C22.2615 17.8655 22.1459 17.4364 21.8097 17.2424H21.8097ZM22.7318 14.5371C22.3558 14.4374 21.9705 14.6593 21.8708 15.034C21.7699 15.4101 21.9931 15.7954 22.3678 15.8964C22.7425 15.996 23.1278 15.7741 23.2288 15.3981C23.3298 15.0234 23.1066 14.6381 22.7318 14.5371V14.5371ZM22.7318 10.2426C23.1066 10.1416 23.3298 9.75628 23.2288 9.38161C23.1278 9.00557 22.7425 8.78367 22.3678 8.88332C21.9931 8.98429 21.7699 9.36965 21.8708 9.74568C21.9705 10.1204 22.3558 10.3423 22.7318 10.2426Z" fill="#0D257B"/>
</g>
<defs>
<clipPath id="clip0_8863_10819">
<rect width="24" height="24" fill="white" transform="translate(0 0.390137)"/>
</clipPath>
</defs>
</svg>
