<svg width="80" height="80" viewBox="0 0 80 80" fill="none" xmlns="http://www.w3.org/2000/svg">
<path d="M40 80C62.0914 80 80 62.0914 80 40C80 17.9086 62.0914 0 40 0C17.9086 0 0 17.9086 0 40C0 62.0914 17.9086 80 40 80Z" fill="#F5F5F5"/>
<mask id="mask0_4308_40998" style="mask-type:luminance" maskUnits="userSpaceOnUse" x="15" y="16" width="50" height="49">
<path d="M16.8594 17.0002H63.5028V63.6436H16.8594V17.0002Z" fill="white" stroke="white" stroke-width="1.86574"/>
</mask>
<g mask="url(#mask0_4308_40998)">
<path d="M58.2786 33.7609C59.1149 38.2038 57.0269 42.8594 52.8253 45.0911C47.6489 47.841 41.2234 45.8709 38.4763 40.6944C35.7265 35.5206 37.6965 29.0949 42.8702 26.3476C48.0466 23.5977 54.4721 25.5652 57.2193 30.7417" stroke="#CC922F" stroke-width="1.86574" stroke-miterlimit="10" stroke-linecap="round" stroke-linejoin="round"/>
<path d="M23.0941 20.4266C25.4104 19.6417 28.3346 19.6493 31.6332 20.6138C33.1133 21.0422 33.7084 21.4244 34.3035 21.4244C34.9012 21.4244 35.4963 21.0422 36.9764 20.6138C43.8021 18.6182 49.0194 20.7165 50.584 25.4671M47.1442 46.3063C47.0391 51.0954 46.3569 56.5361 41.891 56.5361C36.6171 56.5361 36.6582 49.8487 36.0811 44.716C35.7887 42.1277 35.0474 41.2966 34.3035 41.2966C33.5622 41.2966 32.8209 42.1277 32.5285 44.716C31.9514 49.8487 31.9924 56.5361 26.7186 56.5361C21.4448 56.5361 21.4448 48.9484 21.4448 43.8079C21.4448 38.2748 18.5924 35.3275 17.823 31.4413C16.9841 27.1883 18.0486 23.8665 20.4291 21.8913" stroke="#0D257B" stroke-width="1.86574" stroke-miterlimit="10" stroke-linecap="round" stroke-linejoin="round"/>
<path d="M51.3828 45.7255L54.0608 50.7686L56.8233 49.3013L54.1453 44.2583" stroke="#CC922F" stroke-width="1.86574" stroke-miterlimit="10" stroke-linecap="round" stroke-linejoin="round"/>
<path d="M44.2968 29.0283C47.993 27.066 52.5794 28.4716 54.5417 32.1655C56.504 35.8618 55.0983 40.4483 51.4046 42.4106C47.7083 44.3729 43.122 42.9673 41.1597 39.2734C39.1974 35.5771 40.6031 30.9907 44.2968 29.0283Z" stroke="#CC922F" stroke-width="1.86574" stroke-miterlimit="10" stroke-linecap="round" stroke-linejoin="round"/>
<path d="M51.18 34.2994H49.2614V32.3806C49.2614 31.9318 48.8921 31.5623 48.4431 31.5623H47.2452C46.7938 31.5623 46.427 31.9318 46.427 32.3806V34.2994H44.5083C44.0569 34.2994 43.6875 34.6688 43.6875 35.1202V36.3155C43.6875 36.767 44.0569 37.1364 44.5083 37.1364H46.427V39.0552C46.427 39.5066 46.7938 39.876 47.2452 39.876H48.4431C48.8921 39.876 49.2614 39.5066 49.2614 39.0552V37.1364H51.18C51.6315 37.1364 52.001 36.767 52.001 36.3155V35.1202C52.001 34.6688 51.6315 34.2994 51.18 34.2994Z" stroke="#0D257B" stroke-width="1.86574" stroke-miterlimit="10" stroke-linecap="round" stroke-linejoin="round"/>
<path d="M52.9538 51.3606L57.9479 48.7057C58.2918 48.5236 58.7252 48.6544 58.9074 49.0006L62.4087 55.5854C63.3219 57.304 62.6652 59.4561 60.9465 60.3693C59.228 61.2826 57.0758 60.6259 56.1627 58.9073L52.6614 52.32C52.4767 51.9762 52.6101 51.5453 52.9538 51.3606Z" stroke="#CC922F" stroke-width="1.86574" stroke-miterlimit="10" stroke-linecap="round" stroke-linejoin="round"/>
<path d="M53.8984 54.6523L60.1445 51.3306" stroke="#CC922F" stroke-width="1.86574" stroke-miterlimit="10" stroke-linecap="round" stroke-linejoin="round"/>
</g>
</svg>
