<svg width="344" height="436" viewBox="0 0 344 436" fill="none" xmlns="http://www.w3.org/2000/svg">
<g clip-path="url(#clip0_9668_5088)">
<g opacity="0.14">
<path opacity="0.26" d="M346.438 -102.634V98.2079L244.088 157.625L173.083 198.697L102.214 157.625L0 98.2079V-102.634L173.083 -203.124L237.682 -165.748V-60.8777L173.083 -98.2532L90.3575 -50.1989V45.9095L139.148 74.2492L173.083 93.9638L207.018 74.2492L256.081 45.9095V-21.7224H255.945V-248.166L346.302 -298V-102.771L346.438 -102.634Z" fill="#0D257B"/>
<path d="M238.69 612.11L67.1566 512.905L66.9692 395.835L66.9659 314.692L137.052 274.24L238.291 215.985L409.824 315.189L410.149 513.169L346.317 550.073L256.75 498.273L320.582 461.369L320.405 366.731L238.322 319.259L190.017 347.078L156.416 366.425L156.49 405.247L156.458 461.295L214.22 494.702L214.288 494.585L407.686 606.435L405.613 708.492L238.874 612.061L238.69 612.11Z" fill="#CC922F"/>
</g>
</g>
<defs>
<clipPath id="clip0_9668_5088">
<rect width="344" height="436" fill="white"/>
</clipPath>
</defs>
</svg>
