<svg width="463" height="265" viewBox="0 0 463 265" fill="none" xmlns="http://www.w3.org/2000/svg">
<path d="M75.5775 0.000488281C60.5504 0.0204221 46.1444 5.99876 35.5186 16.6246C24.8928 27.2504 18.9145 41.6563 18.8945 56.6835C18.8945 97.3771 71.7042 148.345 73.9479 150.494C74.3843 150.918 74.9689 151.155 75.5775 151.155C76.1861 151.155 76.7707 150.918 77.2071 150.494C79.4508 148.345 132.26 97.3771 132.26 56.6835C132.241 41.6563 126.262 27.2504 115.636 16.6246C105.011 5.99876 90.6047 0.0204221 75.5775 0.000488281ZM75.5775 82.6632C70.4392 82.6632 65.4163 81.1395 61.144 78.2848C56.8716 75.4301 53.5417 71.3726 51.5754 66.6255C49.6091 61.8783 49.0946 56.6546 50.097 51.6151C51.0994 46.5755 53.5738 41.9464 57.2071 38.313C60.8404 34.6797 65.4696 32.2054 70.5091 31.203C75.5487 30.2005 80.7723 30.715 85.5195 32.6814C90.2667 34.6477 94.3242 37.9776 97.1788 42.2499C100.034 46.5223 101.557 51.5452 101.557 56.6835C101.553 63.5724 98.8146 70.1781 93.9434 75.0493C89.0721 79.9206 82.4665 82.659 75.5775 82.6632Z" fill="#0D257B"/>
<path d="M66.6664 163.748C66.6664 168.916 70.8557 173.105 76.0234 173.105C81.1912 173.105 85.3804 168.916 85.3804 163.748C85.3804 158.581 81.1912 154.391 76.0234 154.391C70.8557 154.391 66.6664 158.581 66.6664 163.748ZM554.4 197.668C554.4 202.835 558.589 207.025 563.757 207.025C568.925 207.025 573.114 202.835 573.114 197.668C573.114 192.5 568.925 188.311 563.757 188.311C558.589 188.311 554.4 192.5 554.4 197.668ZM74.269 163.748V177.199H77.7779V163.748H74.269ZM85.3804 188.311H187.138V184.802H85.3804V188.311ZM198.249 177.199V153.222H194.74V177.199H198.249ZM205.852 145.619H219.887V142.11H205.852V145.619ZM227.49 153.222V195.913H230.999V153.222H227.49ZM238.601 207.025H313.457V203.516H238.601V207.025ZM321.06 214.627V222.23H324.569V214.627H321.06ZM332.171 233.341H340.359V229.832H332.171V233.341ZM351.47 222.23V173.105H347.961V222.23H351.47ZM359.073 165.503H373.108V161.994H359.073V165.503ZM380.711 173.105V188.311H384.22V173.105H380.711ZM391.822 199.422H429.835V195.913H391.822V199.422ZM437.438 207.025V226.908H440.947V207.025H437.438ZM448.549 238.02H459.661V234.511H448.549V238.02ZM470.772 226.908V153.222H467.263V226.908H470.772ZM478.375 145.619H480.714V142.11H478.375V145.619ZM488.316 153.222V188.31H491.825V153.222H488.316ZM499.428 199.422H563.757V195.913H499.428V199.422ZM488.316 188.31C488.316 194.447 493.291 199.422 499.428 199.422V195.913C495.229 195.913 491.825 192.509 491.825 188.31H488.316ZM480.714 145.619C484.913 145.619 488.316 149.023 488.316 153.222H491.825C491.825 147.085 486.85 142.11 480.714 142.11V145.619ZM470.772 153.222C470.772 149.023 474.176 145.619 478.375 145.619V142.11C472.238 142.11 467.263 147.085 467.263 153.222H470.772ZM459.661 238.02C465.797 238.02 470.772 233.045 470.772 226.908H467.263C467.263 231.107 463.859 234.511 459.661 234.511V238.02ZM437.438 226.908C437.438 233.045 442.412 238.02 448.549 238.02V234.511C444.35 234.511 440.947 231.107 440.947 226.908H437.438ZM429.835 199.422C434.034 199.422 437.438 202.826 437.438 207.025H440.947C440.947 200.888 435.972 195.913 429.835 195.913V199.422ZM380.711 188.311C380.711 194.447 385.686 199.422 391.822 199.422V195.913C387.623 195.913 384.22 192.509 384.22 188.311H380.711ZM373.108 165.503C377.307 165.503 380.711 168.907 380.711 173.105H384.22C384.22 166.969 379.245 161.994 373.108 161.994V165.503ZM351.47 173.105C351.47 168.907 354.874 165.503 359.073 165.503V161.994C352.936 161.994 347.961 166.969 347.961 173.105H351.47ZM340.359 233.341C346.495 233.341 351.47 228.366 351.47 222.23H347.961C347.961 226.428 344.558 229.832 340.359 229.832V233.341ZM321.06 222.23C321.06 228.366 326.035 233.341 332.171 233.341V229.832C327.973 229.832 324.569 226.428 324.569 222.23H321.06ZM313.457 207.025C317.656 207.025 321.06 210.428 321.06 214.627H324.569C324.569 208.49 319.594 203.516 313.457 203.516V207.025ZM227.49 195.913C227.49 202.05 232.465 207.025 238.601 207.025V203.516C234.403 203.516 230.999 200.112 230.999 195.913H227.49ZM219.887 145.619C224.086 145.619 227.49 149.023 227.49 153.222H230.999C230.999 147.085 226.024 142.11 219.887 142.11V145.619ZM198.249 153.222C198.249 149.023 201.653 145.619 205.852 145.619V142.11C199.715 142.11 194.74 147.085 194.74 153.222H198.249ZM187.138 188.311C193.275 188.311 198.249 183.336 198.249 177.199H194.74C194.74 181.398 191.337 184.802 187.138 184.802V188.311ZM74.269 177.199C74.269 183.336 79.2438 188.311 85.3804 188.311V184.802C81.1817 184.802 77.7779 181.398 77.7779 177.199H74.269Z" fill="#D5A54D"/>
<g clip-path="url(#clip0_8908_6007)">
<path d="M119.683 55.5255C119.683 67.0459 115.258 77.5527 108.026 85.4084C107.305 86.1881 106.564 86.9484 105.784 87.6696V87.6891C102.704 90.5741 99.2346 93.0302 95.4334 94.9405C93.3477 95.9932 91.184 96.8704 88.9422 97.5916C88.338 97.7865 87.7337 97.962 87.1099 98.1374C83.4257 99.1316 79.5661 99.6579 75.5895 99.6579C75.1801 99.6579 74.7513 99.6579 74.3419 99.6384C73.3088 99.5994 72.2951 99.5409 71.301 99.4435C68.0456 99.1316 64.8878 98.4688 61.8663 97.4746C59.7611 96.7924 57.7143 95.9347 55.765 94.9405C54.8098 94.4532 53.8742 93.9464 52.9775 93.4006C52.9775 93.4006 52.958 93.3811 52.9385 93.3811C48.9814 91.0029 45.4336 88.04 42.4122 84.5897C41.6715 83.7515 40.9697 82.8938 40.3069 81.9971C34.7709 74.6287 31.4766 65.4475 31.4766 55.5255C31.4766 31.1591 51.2231 11.4126 75.5895 11.4126C99.9364 11.4126 119.683 31.1591 119.683 55.5255Z" fill="white"/>
<path d="M81.7856 27.3599C81.7856 27.3599 77.1463 28.51 74.7486 32.74C72.3315 36.97 72.4874 40.4592 70.1677 41.7653C67.8481 43.0713 66.2301 43.0713 64.6707 45.7808C63.1112 48.4904 65.4504 51.3364 64.2613 52.9738C63.0723 54.6112 57.9261 55.8003 57.9651 62.6034C58.0041 69.4065 61.8442 74.6501 68.16 76.8139C74.4757 78.9776 92.5653 68.4318 92.5653 68.4318L85.2554 36.2682L81.7856 27.3599Z" fill="black"/>
<path d="M82.8992 27.1514C82.8992 27.1514 86.9927 28.6328 88.7861 32.6874C90.5794 36.742 90.1116 39.8999 92.0999 41.3034C94.0882 42.7069 95.5502 42.8433 96.7198 45.4554C97.8894 48.0675 95.4917 50.4261 96.4274 52.0246C97.363 53.623 101.905 55.163 101.242 61.3618C100.579 67.5411 96.6028 71.9465 90.6769 73.311C84.751 74.695 69.293 63.428 69.293 63.428L78.9031 34.9291L82.8992 27.1514Z" fill="black"/>
<path d="M65.8757 73.9658L61.8602 97.4745C59.7549 96.7923 57.7081 95.9346 55.7588 94.9404C54.8036 94.4531 53.868 93.9463 52.9713 93.4005C52.9713 93.4005 52.9518 93.381 52.9323 93.381C48.9752 91.0028 45.4275 88.0399 42.406 84.5896C41.6653 83.7514 40.9635 82.8937 40.3008 81.997L50.7491 70.2231C50.7491 70.2037 50.7686 70.1842 50.7881 70.1842C52.523 67.5916 55.4859 66.0711 58.6048 66.1101L63.0687 66.1686L65.8757 73.9658Z" fill="#FFD8A0"/>
<path d="M96.9646 73.1045L96.4189 80.7457L96.3604 81.6619L96.3409 81.8763L96.0875 85.3461L95.8925 88.1531L95.4052 94.9172C93.3194 95.9699 91.1557 96.8471 88.914 97.5683C84.7035 98.9133 80.2201 99.6346 75.5612 99.6346C75.1324 99.6346 74.723 99.6346 74.3137 99.6151C73.3 99.5956 72.2864 99.5176 71.2727 99.4201C65.7367 98.8938 60.4736 97.3344 55.7367 94.9367C54.7816 94.4494 53.8459 93.9426 52.9492 93.3968L54.2358 88.8939L54.879 86.6522C54.9375 86.4377 54.996 86.2233 55.074 86.0089L56.6724 80.4534L57.4131 77.8413C57.4131 77.8218 57.4326 77.7828 57.4326 77.7633L59.7133 69.8296L60.727 66.2819L63.0661 66.2234L70.3176 66.048L73.0466 65.9895L83.4949 65.7361H83.5924L89.5573 65.5996H89.6158H89.8107C90.5709 65.5801 91.2922 65.6776 91.9744 65.892C94.1576 66.5353 95.8925 68.2312 96.6138 70.3949C96.9257 71.2331 97.0426 72.1493 96.9646 73.1045Z" fill="#FFD8A0"/>
<path d="M52.9081 93.946C52.8496 93.946 52.8106 93.946 52.7521 93.9265C52.4597 93.8485 52.2843 93.5366 52.3623 93.2247C52.7911 91.7238 53.2395 90.2228 53.6878 88.7413C53.9022 88.0006 54.1167 87.2404 54.3506 86.4996L54.526 85.8563C55.0718 83.985 55.6176 82.1332 56.1439 80.3008C56.3974 79.4236 56.6313 78.5464 56.8652 77.6887L56.9042 77.5718C57.0016 77.2794 57.3135 77.1234 57.6254 77.2209C57.9178 77.3184 58.0738 77.6497 57.9763 77.9226C57.7229 78.8388 57.489 79.6965 57.2356 80.5737C56.7092 82.4061 56.1634 84.2774 55.6176 86.1487L55.4422 86.792C55.2278 87.5328 54.9938 88.293 54.7794 89.0337C54.3311 90.5347 53.9022 92.0357 53.4734 93.5171C53.3759 93.79 53.142 93.946 52.9081 93.946Z" fill="#323232"/>
<path d="M70.3434 67.4811L70.1875 54.3233L82.2537 51.0874L83.5013 64.986C83.6182 66.2141 83.2089 67.4226 82.3902 68.3193C81.0452 69.8008 78.628 71.7501 75.1387 71.7501C70.5774 71.7696 70.3434 67.4811 70.3434 67.4811Z" fill="white"/>
<path d="M75.1376 72.3307C70.0889 72.3307 69.777 67.5549 69.777 67.5159V67.4964L69.6211 54.3386C69.6211 54.0852 69.7965 53.8512 70.0305 53.7928L82.0967 50.5569C82.2526 50.5179 82.4281 50.5374 82.5645 50.6349C82.701 50.7323 82.7789 50.8883 82.7984 51.0442L84.046 64.9428C84.163 66.3268 83.7146 67.6914 82.7984 68.705C81.3365 70.3619 78.8023 72.3307 75.1376 72.3307ZM70.9076 67.4574C70.9271 67.7303 71.2585 71.2001 75.1376 71.2001C78.3735 71.2001 80.6542 69.4457 81.9797 67.9643C82.6815 67.1845 83.0323 66.1124 82.9349 65.0403L81.7458 51.8045L70.7322 54.7479L70.9076 67.4574Z" fill="black"/>
<path d="M82.5086 52.8729C87.9472 46.2842 86.0759 36.1283 86.0759 36.1283L68.2982 29.8516C67.9863 30.1245 61.7485 35.8359 61.2222 46.6156C60.7933 55.5045 69.5457 59.9879 78.4151 56.1672" fill="white"/>
<path d="M72.0407 58.0928C69.4676 58.0928 67.0505 57.4106 65.0622 56.0266C62.0408 53.9213 60.4618 50.5685 60.6567 46.5724C61.1636 35.9097 67.2259 30.0618 67.9082 29.4185C68.0641 29.282 68.2786 29.2236 68.4735 29.3015L86.2512 35.5783C86.4461 35.6368 86.5826 35.8122 86.6216 36.0072C86.6995 36.436 88.4929 46.4944 82.9374 53.2196C82.7424 53.4535 82.3916 53.4925 82.1382 53.2975C81.9042 53.1026 81.8652 52.7517 82.0602 52.4983C86.7385 46.8258 85.8029 38.2684 85.5494 36.5335L68.415 30.4711C67.1285 31.7382 62.2162 37.1962 61.7679 46.6114C61.5924 50.1981 62.9764 53.2196 65.686 55.0909C68.9803 57.3716 73.6586 57.5665 78.1616 55.6172C78.454 55.5003 78.7853 55.6172 78.9023 55.9096C79.0193 56.202 78.9023 56.5334 78.6099 56.6504C76.4267 57.625 74.185 58.0928 72.0407 58.0928Z" fill="black"/>
<path d="M80.6613 44.7593C81.9089 45.2662 82.7081 42.9855 82.7081 42.9855C84.2286 46.6307 85.2422 50.2174 82.1623 53.3753L82.2208 53.8821L93.6827 53.2388C93.3903 46.7281 92.7861 39.4962 91.597 35.7145C89.1019 27.7808 78.868 23.9797 69.6672 25.9875C63.8583 27.2545 62.9811 31.2116 64.1897 34.9153C65.5737 39.1258 74.7939 38.0342 79.4723 40.4904C80.2325 40.8802 80.0571 44.5254 80.6613 44.7593Z" fill="black"/>
<path d="M83.5859 65.5319L83.6054 65.7463L87.7575 65.6099C88.8101 65.6099 89.7653 65.4344 90.6035 65.1226L83.5859 65.5319Z" fill="black"/>
<path d="M66.9607 42.1845C66.7853 42.8278 66.3174 43.2372 65.8886 43.1397C65.4597 43.0227 65.2453 42.4184 65.4208 41.7947C65.5962 41.1514 66.064 40.742 66.4929 40.8395C66.9217 40.937 67.1361 41.5413 66.9607 42.1845Z" fill="black"/>
<path d="M65.5938 39.59C66.393 39.317 67.3091 39.5705 67.9329 40.2722L65.5938 39.59Z" fill="white"/>
<path d="M67.9335 40.8392C67.7776 40.8392 67.6217 40.7807 67.5242 40.6443C67.0564 40.118 66.3741 39.9035 65.7893 40.1179C65.4969 40.2154 65.185 40.0595 65.0681 39.7671C64.9706 39.4747 65.1265 39.1628 65.4189 39.0458C66.4326 38.695 67.5827 39.0263 68.3624 39.884C68.5768 40.118 68.5573 40.4688 68.3234 40.6833C68.2065 40.7807 68.07 40.8392 67.9335 40.8392Z" fill="black"/>
<path d="M73.9766 44.6808C73.9181 45.3241 73.5087 45.8309 73.0604 45.7919C72.6316 45.7529 72.3197 45.1876 72.3781 44.5248C72.4366 43.8816 72.846 43.3747 73.2943 43.4137C73.7427 43.4722 74.0351 44.0375 73.9766 44.6808Z" fill="black"/>
<path d="M72.4961 42.2419C73.2758 41.93 74.2115 42.1834 74.8548 42.8462L72.4961 42.2419Z" fill="white"/>
<path d="M74.8657 43.4137C74.7097 43.4137 74.5733 43.3552 74.4563 43.2383C73.969 42.7315 73.2867 42.5365 72.7019 42.7704C72.4095 42.8874 72.0977 42.7315 71.9807 42.4585C71.8637 42.1662 72.0197 41.8348 72.2926 41.7373C73.3062 41.3474 74.4563 41.6398 75.275 42.478C75.4895 42.712 75.4699 43.0628 75.2555 43.2773C75.1386 43.3552 75.0021 43.4137 74.8657 43.4137Z" fill="black"/>
<path d="M82.1054 43.4863C82.1054 43.4863 85.9065 39.9775 87.9338 40.7962C89.9416 41.5954 88.889 48.7884 86.4133 49.3537C83.9572 49.9385 82.0469 48.8858 82.0469 48.8858" fill="white"/>
<path d="M84.9218 50.1028C83.109 50.1028 81.8614 49.4205 81.7834 49.401C81.5105 49.2451 81.4131 48.9137 81.5495 48.6408C81.7055 48.3679 82.0369 48.2704 82.3098 48.4069C82.3292 48.4069 84.0836 49.3426 86.2863 48.8162C87.2805 48.5823 88.2162 46.5356 88.3916 44.2354C88.528 42.481 88.1382 41.5063 87.7093 41.3309C86.4813 40.8436 83.8497 42.6564 82.4852 43.9235C82.2513 44.1379 81.9004 44.1184 81.686 43.8845C81.4715 43.6506 81.491 43.2997 81.725 43.0853C82.1343 42.6954 85.8575 39.3816 88.1382 40.2783C89.1713 40.6876 89.6781 42.1691 89.5222 44.3133C89.3273 46.789 88.2551 49.518 86.5592 49.9079C85.9744 50.0443 85.4286 50.1028 84.9218 50.1028Z" fill="black"/>
<path d="M86.2592 46.5067C86.1812 46.5067 86.0838 46.4872 86.0058 46.4482C85.7329 46.3118 85.6159 45.9609 85.7524 45.688C85.9473 45.3176 86.0448 44.9083 86.0838 44.4989C86.1033 44.265 86.0643 44.187 86.0643 44.187C86.0643 44.187 86.0448 44.187 86.0253 44.187C86.0253 44.187 86.0058 44.187 85.9863 44.187C85.9083 44.2065 85.8304 44.2455 85.7134 44.3235C85.538 44.4599 85.382 44.6159 85.2651 44.8108C85.1091 45.0837 84.7583 45.1617 84.4853 45.0058C84.2124 44.8498 84.1345 44.4989 84.2904 44.226C84.4853 43.8946 84.7583 43.6217 85.0701 43.4073C85.3236 43.2319 85.577 43.1149 85.8304 43.0759C86.2007 43.0175 86.5711 43.1344 86.8245 43.3683C87.1169 43.6412 87.2534 44.0311 87.2144 44.5574C87.1754 45.1227 87.0194 45.6685 86.766 46.1753C86.6686 46.3898 86.4736 46.5067 86.2592 46.5067Z" fill="black"/>
<path d="M69.0245 43.9761C68.5567 44.7948 68.1083 45.633 67.6405 46.4517C67.3676 46.9585 67.0752 47.4653 67.0947 48.0306C67.0947 48.5764 67.4845 49.1807 68.1473 49.3367" fill="white"/>
<path d="M68.1461 49.9046C68.1071 49.9046 68.0681 49.9046 68.0291 49.8852C67.074 49.6707 66.5477 48.7935 66.5477 48.0333C66.5282 47.3121 66.879 46.6883 67.1714 46.1815L68.5554 43.7058C68.7114 43.4329 69.0428 43.3355 69.3157 43.4914C69.5886 43.6474 69.686 43.9787 69.5301 44.2516L68.1461 46.7273C67.9122 47.1561 67.6588 47.6045 67.6588 48.0138C67.6588 48.3257 67.8732 48.6961 68.263 48.774C68.5554 48.8325 68.7504 49.1444 68.6919 49.4368C68.6334 49.7292 68.3995 49.9046 68.1461 49.9046Z" fill="black"/>
<path d="M70.5462 53.2733C70.0589 53.2733 69.5911 53.1759 69.1427 53.0004C68.8503 52.8835 68.7139 52.5521 68.8308 52.2597C68.9478 51.9673 69.2792 51.8308 69.5716 51.9478C70.1953 52.2012 70.9361 52.2012 71.5599 51.9478C72.1836 51.6944 72.71 51.1681 72.9634 50.5443C73.0803 50.2519 73.4117 50.1154 73.7041 50.2519C73.9965 50.3689 74.1329 50.7002 73.9965 50.9926C73.6261 51.8893 72.8854 52.6301 71.9887 53.0004C71.5209 53.1759 71.0336 53.2733 70.5462 53.2733Z" fill="black"/>
<path d="M108.014 85.4108C107.293 86.1905 106.552 86.9507 105.772 87.672V87.6915C102.692 90.5765 99.2224 93.0326 95.4212 94.9429C93.3354 95.9955 91.1717 96.8727 88.93 97.594C88.3257 97.7889 87.7214 97.9644 87.0977 98.1398L87.2146 73.1301V71.3173L87.2536 65.7422L89.5733 65.6448H89.6318L90.9378 65.5863C91.2692 65.5863 91.5811 65.5668 91.9124 65.5863C94.4465 65.6448 96.9027 66.405 99.0079 67.7695C99.8851 68.3153 100.704 68.9976 101.425 69.7578C102.536 70.9274 103.511 72.2529 104.252 73.598C104.758 74.4946 105.148 75.4303 105.421 76.3855L108.014 85.4108Z" fill="#FFD8A0"/>
<path d="M90.2276 97.7062C89.9353 97.7062 89.7013 97.4918 89.6623 97.1994L88.1614 80.5133C88.1419 80.2014 88.3563 79.9285 88.6682 79.909C88.9606 79.8701 89.253 80.104 89.2725 80.4159L90.7735 97.102C90.793 97.4138 90.5785 97.6867 90.2666 97.7062C90.2471 97.7062 90.2276 97.7062 90.2276 97.7062Z" fill="#323232"/>
</g>
<rect x="36.1172" y="16.0522" width="78.9214" height="78.9214" rx="39.4607" stroke="#0D257B" stroke-width="3.31603"/>
<defs>
<clipPath id="clip0_8908_6007">
<rect x="36.1172" y="16.0522" width="78.9214" height="78.9214" rx="39.4607" fill="white"/>
</clipPath>
</defs>
</svg>
