<svg width="24" height="24" viewBox="0 0 24 24" fill="none" xmlns="http://www.w3.org/2000/svg">
<g clip-path="url(#clip0_4192_71577)">
<path d="M23.7146 9.549C22.7655 7.45173 21.2699 5.64831 19.3844 4.32773C17.4989 3.00714 15.2929 2.218 12.9976 2.043V1C12.9976 0.734784 12.8922 0.48043 12.7047 0.292893C12.5171 0.105357 12.2628 0 11.9976 0C11.7323 0 11.478 0.105357 11.2904 0.292893C11.1029 0.48043 10.9976 0.734784 10.9976 1V2.043C8.69969 2.21616 6.49074 3.00439 4.60234 4.32502C2.71393 5.64566 1.21563 7.45005 0.26455 9.549C0.0254973 10.149 -0.0625889 10.7985 0.00802647 11.4405C0.0786418 12.0825 0.305799 12.6973 0.66955 13.231C1.03715 13.7757 1.53283 14.2218 2.11308 14.5303C2.69333 14.8387 3.34042 15 3.99755 15H10.9976V21C10.9976 21.2652 10.8922 21.5196 10.7047 21.7071C10.5171 21.8946 10.2628 22 9.99755 22C9.73233 22 9.47798 21.8946 9.29044 21.7071C9.10291 21.5196 8.99755 21.2652 8.99755 21C8.99755 20.7348 8.89219 20.4804 8.70466 20.2929C8.51712 20.1054 8.26277 20 7.99755 20C7.73233 20 7.47798 20.1054 7.29044 20.2929C7.10291 20.4804 6.99755 20.7348 6.99755 21C6.99755 21.7956 7.31362 22.5587 7.87623 23.1213C8.43884 23.6839 9.2019 24 9.99755 24C10.7932 24 11.5563 23.6839 12.1189 23.1213C12.6815 22.5587 12.9976 21.7956 12.9976 21V15H19.9806C20.6378 15 21.285 14.8387 21.8655 14.5303C22.4459 14.2218 22.9417 13.7757 23.3096 13.231C23.6731 12.6972 23.9001 12.0824 23.9707 11.4404C24.0413 10.7985 23.9533 10.149 23.7146 9.549ZM21.6536 12.11C21.4705 12.3855 21.2217 12.6112 20.9296 12.7666C20.6375 12.9219 20.3114 13.0022 19.9806 13H3.99755C3.66662 13.0021 3.34037 12.9218 3.04828 12.7662C2.75619 12.6107 2.50745 12.3848 2.32455 12.109C2.14323 11.8462 2.03003 11.5426 1.99512 11.2252C1.96021 10.9079 2.00469 10.5869 2.12455 10.291C3.57855 6.646 7.73155 4 11.9976 4C14.0712 3.99242 16.1033 4.5815 17.8514 5.69695C19.5995 6.81241 20.9898 8.40716 21.8566 10.291C21.9765 10.5872 22.0208 10.9086 21.9853 11.2262C21.9499 11.5438 21.8359 11.8475 21.6536 12.11Z" fill="#0D257B"/>
</g>
<defs>
<clipPath id="clip0_4192_71577">
<rect width="24" height="24" rx="8" fill="white"/>
</clipPath>
</defs>
</svg>
