<svg width="36" height="35" viewBox="0 0 36 35" fill="none" xmlns="http://www.w3.org/2000/svg">
<g clip-path="url(#clip0_6651_6143)">
<path d="M17.936 0.974609C8.77793 0.974609 1.35352 8.39903 1.35352 17.5571C1.35352 26.7152 8.77793 34.1397 17.936 34.1397C27.0948 34.1397 34.5186 26.7152 34.5186 17.5571C34.5186 8.39903 27.0948 0.974609 17.936 0.974609ZM27.5676 18.6048C26.9322 19.5457 25.8709 20.1095 24.7349 20.1095H18.7938V25.2144C18.7938 26.6242 17.6512 27.7668 16.2414 27.7668C14.8322 27.7668 13.689 26.6242 13.689 25.2144C13.689 24.7442 14.07 24.3638 14.5402 24.3638C15.0097 24.3638 15.3908 24.7442 15.3908 25.2144C15.3908 25.6845 15.7719 26.0649 16.2414 26.0649C16.7115 26.0649 17.0926 25.6845 17.0926 25.2144V20.1095H11.1366C10.0018 20.1095 8.94051 19.5457 8.30517 18.6048C7.67698 17.6826 7.54758 16.5082 7.96051 15.4716C9.60901 11.8345 13.1102 9.38552 17.0926 9.08574V8.19809C17.0926 7.72857 17.473 7.3475 17.9432 7.3475C18.4134 7.3475 18.7938 7.72857 18.7938 8.19809V9.08574C22.7716 9.38878 26.2676 11.8371 27.9122 15.4716C28.3245 16.5082 28.1957 17.682 27.5676 18.6048Z" fill="#0D257B"/>
</g>
<defs>
<clipPath id="clip0_6651_6143">
<rect width="35" height="34" fill="white" transform="translate(0.646484 0.556641)"/>
</clipPath>
</defs>
</svg>
