<svg width="14" height="14" viewBox="0 0 14 14" fill="none" xmlns="http://www.w3.org/2000/svg">
<g clip-path="url(#clip0_4174_33098)">
<path d="M13.9998 5.67626C13.896 6.06836 13.5737 6.2667 13.309 6.51147C12.4702 7.28736 11.6257 8.05636 10.78 8.82422C10.7065 8.891 10.6971 8.95005 10.7177 9.04377C11.0065 10.3579 11.2915 11.6732 11.5779 12.988C11.6562 13.3465 11.5595 13.6644 11.3017 13.8498C11.0159 14.0556 10.7248 14.0416 10.4311 13.8576C9.32652 13.1657 8.21978 12.4772 7.1166 11.7836C7.02957 11.7288 6.96917 11.7323 6.8846 11.7853C5.7806 12.4781 4.67111 13.1617 3.57041 13.8596C3.06907 14.1774 2.54549 13.8951 2.42138 13.4385C2.38185 13.2926 2.38679 13.1479 2.41864 13.002C2.70473 11.6921 2.98862 10.3814 3.2791 9.07272C3.30656 8.94919 3.2824 8.8781 3.19152 8.79556C2.22233 7.91506 1.25808 7.02883 0.291362 6.14546C0.0365717 5.91272 -0.0641912 5.62668 0.0415137 5.28904C0.142826 4.96429 0.372082 4.78659 0.699904 4.75477C1.3572 4.69086 2.01421 4.62694 2.67178 4.56474C3.31562 4.50369 3.95946 4.44264 4.60385 4.38675C4.70324 4.37815 4.7403 4.32398 4.77517 4.23857C5.27871 3.00209 5.78665 1.76704 6.28991 0.530555C6.42389 0.200941 6.64958 0.0023122 6.99635 1.92277e-05C7.34998 -0.00227374 7.57731 0.200654 7.71349 0.535141C8.21154 1.75873 8.71618 2.97944 9.21039 4.20475C9.26585 4.34204 9.33833 4.38102 9.47067 4.39306C10.754 4.51029 12.037 4.63353 13.3197 4.75764C13.6434 4.78888 13.8518 4.97977 13.9652 5.29219C13.974 5.31684 13.9641 5.35209 13.9998 5.36241C13.9998 5.46674 13.9998 5.57164 13.9998 5.67626Z" fill="#F5C86F"/>
</g>
<defs>
<clipPath id="clip0_4174_33098">
<rect width="14" height="14" fill="white"/>
</clipPath>
</defs>
</svg>
